<svg xmlns="http://www.w3.org/2000/svg" viewBox="0 -1024 1024 1024">
	<path fill="#000088" d="M195 -423Q195 -423 204 -432Q254 -487 254 -547Q254 -557 253 -563Q252 -569 252 -593Q252 -682 240 -717Q217 -717 204 -707L180 -644V-491Q186 -478 189.5 -454Q193 -430 195 -423ZM405 -272Q405 -247 387.5 -205Q370 -163 345 -133L390 -67Q395 -59 395 -51Q395 -39 386.5 -30.5Q378 -22 366 -22Q350 -22 342 -34L303 -91L300 -87Q276 -63 252 -63Q151 -63 118 -96L82 -131Q55 -158 55 -215Q55 -285 123 -353L146 -376Q144 -381 139 -389.5Q134 -398 133 -401Q124 -416 119.5 -446.5Q115 -477 109 -491V-644L136 -713L171 -748Q177 -752 179 -754L196 -771Q212 -787 240 -787Q253 -787 261 -779L296 -743Q323 -716 323 -593Q323 -569 324 -563Q325 -557 325 -547Q325 -482 259 -416L217 -374Q225 -357 238 -323.5Q251 -290 263 -263.5Q275 -237 288 -218L309 -187Q334 -237 334 -272Q334 -287 344 -297Q354 -307 369 -307Q384 -307 394.5 -297Q405 -287 405 -272ZM167 -324Q126 -273 126 -215Q126 -176 138 -152Q173 -133 252 -133Q262 -133 272 -138L217 -218Q198 -246 167 -324Z"/>
	<path fill="#800080" d="M299 -547Q299 -517 290.5 -491.5Q282 -466 264 -442Q246 -418 233 -404.5Q220 -391 196 -369Q199 -361 213.5 -325.5Q228 -290 237.5 -268.5Q247 -247 258 -232L295 -177Q306 -197 315 -218Q329 -253 329 -272Q329 -282 336.5 -289.5Q344 -297 354 -297Q364 -297 371.5 -289.5Q379 -282 379 -272Q379 -243 361 -199Q346 -161 325 -132L360 -81Q364 -75 364 -67Q364 -57 357 -49.5Q350 -42 339 -42Q326 -42 319 -53L291 -94Q265 -73 237 -73Q182 -73 145 -81.5Q108 -90 85 -114Q50 -148 50 -215Q50 -266 73 -304.5Q96 -343 135 -381Q133 -385 131 -389Q121 -407 115 -444Q111 -470 106 -481Q104 -486 104 -491V-644Q104 -649 106 -653L133 -722Q136 -730 144 -735Q146 -736 163 -753Q176 -766 191 -772Q206 -777 225 -777Q247 -777 263 -761Q284 -740 292 -689Q297 -656 297 -593Q297 -571 298 -565Q299 -556 299 -547ZM225 -727Q215 -727 208 -725Q204 -723 199 -718Q180 -699 176 -697L154 -639V-496Q160 -481 164 -452Q168 -427 173 -416Q184 -426 191 -433Q220 -462 234.5 -488Q249 -514 249 -546Q249 -553 248 -560.5Q247 -568 247 -593Q246 -683 234 -713Q231 -722 227 -726Q226 -727 226 -727Q226 -727 225 -727ZM100 -215Q100 -169 120 -149Q133 -136 157 -130Q185 -123 237 -123Q238 -123 242 -124.5Q246 -126 252 -129Q258 -132 262 -136L216 -204Q209 -215 202.5 -227Q196 -239 189 -254Q182 -269 178.5 -278Q175 -287 167.5 -306Q160 -325 157 -332Q100 -274 100 -215Z"/>
	<path fill="#daa520" d="M289 -547Q289 -520 281.5 -497Q274 -474 256.5 -452Q239 -430 226.5 -417Q214 -404 190 -381Q185 -377 182 -374Q189 -358 202 -324Q215 -290 227 -264.5Q239 -239 251 -221L305 -142Q311 -149 316 -157Q335 -186 347 -219.5Q359 -253 359 -272Q359 -277 364 -277Q369 -277 369 -272Q369 -250 356.5 -216Q344 -182 324 -152Q318 -142 311 -133L353 -70Q354 -69 354 -67Q354 -62 349 -62Q347 -62 345 -64L304 -125Q275 -93 247 -93Q173 -93 138 -108Q80 -134 80 -215Q80 -264 103.5 -300Q127 -336 170 -376Q164 -389 159 -399Q150 -414 145.5 -444.5Q141 -475 134 -489Q134 -490 134 -491V-644Q134 -645 134 -646L161 -715Q162 -716 164 -717Q171 -722 182 -733Q204 -757 235 -757Q266 -757 278 -705Q286 -671 287 -593Q287 -570 288 -563Q289 -555 289 -547ZM235 -747Q222 -747 213 -744Q204 -741 200 -737.5Q196 -734 189 -727Q178 -715 170 -710L144 -643V-492Q150 -479 154.5 -448.5Q159 -418 167 -403Q172 -395 178 -384Q204 -408 215.5 -420Q227 -432 245.5 -454.5Q264 -477 271.5 -499Q279 -521 279 -547Q279 -554 278 -563Q277 -569 277 -593Q276 -669 268 -703Q258 -747 235 -747ZM90 -215Q90 -140 142 -118Q175 -103 247 -103Q271 -103 298 -134L243 -215Q230 -234 218.5 -259Q207 -284 194 -318Q181 -352 174 -367Q133 -329 111.5 -294.5Q90 -260 90 -215Z"/>
</svg>