<svg xmlns="http://www.w3.org/2000/svg" viewBox="0 -1024 1024 1024">
	<path fill="#000088" d="M248 -869Q253 -869 300 -839L465 -734L426 -673L263 -777L101 -674L55 -746Z"/>
	<path fill="#800080" d="M-147 -239L-182 -204L-217 -239L-182 -274ZM386 -709Q386 -696 377 -687.5Q368 -679 356 -679Q347 -679 340 -684L175 -789L11 -684Q4 -679 -5 -679Q-17 -679 -26 -687.5Q-35 -696 -35 -709Q-35 -725 -21 -734L175 -859L372 -734Q386 -725 386 -709Z"/>
	<path fill="#daa520" d="M85 -234Q80 -234 80 -239Q80 -244 85 -244Q90 -244 90 -239Q90 -234 85 -234ZM612 -719Q612 -714 607 -714Q606 -714 604 -715L442 -818L281 -715Q279 -714 278 -714Q273 -714 273 -719Q273 -722 275 -723L439 -828Q441 -829 442 -829Q443 -829 445 -828L610 -723Q612 -722 612 -719Z"/>
</svg>