<svg xmlns="http://www.w3.org/2000/svg" viewBox="0 -1024 1024 1024">
	<path fill="#000088" d="M423 -435Q388 -435 348 -416.5Q308 -398 268.5 -379.5Q229 -361 194 -361Q169 -361 143 -371Q126 -371 106 -390L71 -426Q55 -442 55 -456V-459Q55 -473 65 -483.5Q75 -494 90 -494Q105 -494 115 -483.5Q125 -473 125 -459V-456Q125 -451 128 -445Q136 -441 143 -441Q169 -432 194 -432Q229 -432 268.5 -450.5Q308 -469 348 -487Q388 -505 423 -505Q424 -505 440 -504L504 -467Q512 -460 527.5 -447Q543 -434 551 -427Q560 -419 560 -407Q560 -396 552 -388Q544 -380 533 -380Q523 -380 516 -387L504 -396L440 -433Q424 -435 423 -435Z"/>
	<path fill="#800080" d="M373 -435Q338 -435 298 -416.5Q258 -398 218.5 -379.5Q179 -361 144 -361Q119 -361 93 -371Q76 -371 56 -390L21 -426Q5 -442 5 -456V-459Q5 -473 15 -483.5Q25 -494 40 -494Q55 -494 65 -483.5Q75 -473 75 -459V-456Q75 -451 78 -445Q86 -441 93 -441Q119 -432 144 -432Q179 -432 218.5 -450.5Q258 -469 298 -487Q338 -505 373 -505Q374 -505 390 -504L454 -467Q462 -460 477.5 -447Q493 -434 501 -427Q510 -419 510 -407Q510 -396 502 -388Q494 -380 483 -380Q473 -380 466 -387L454 -396L390 -433Q374 -435 373 -435Z"/>
	<path fill="#daa520" d="M358 -465Q323 -465 283.5 -446.5Q244 -428 204.5 -409.5Q165 -391 129 -391Q103 -391 77 -401Q58 -402 37 -423Q20 -441 20 -456V-459Q20 -464 25 -464Q30 -464 30 -459V-456Q30 -445 44 -430Q63 -411 78 -411Q79 -411 80 -411Q105 -401 129 -401Q148 -401 169 -407Q190 -413 203.5 -419Q217 -425 241 -438Q265 -450 278.5 -456Q292 -462 314.5 -468.5Q337 -475 358 -475Q359 -475 376 -473Q377 -473 378 -473L442 -436Q442 -436 443 -435L454 -426Q456 -424 456 -422Q456 -417 451 -417Q449 -417 447 -418L437 -427L374 -464Q360 -465 358 -465Z"/>
</svg>