<svg xmlns="http://www.w3.org/2000/svg" viewBox="0 -1024 1024 1024">
	<path fill="#000088" d="M-97 -239L-132 -204L-167 -239L-132 -274ZM436 -709Q436 -696 427 -687.5Q418 -679 406 -679Q397 -679 390 -684L225 -789L61 -684Q54 -679 45 -679Q33 -679 24 -687.5Q15 -696 15 -709Q15 -725 29 -734L225 -859L422 -734Q436 -725 436 -709Z"/>
	<path fill="#800080" d="M-147 -239L-182 -204L-217 -239L-182 -274ZM386 -709Q386 -696 377 -687.5Q368 -679 356 -679Q347 -679 340 -684L175 -789L11 -684Q4 -679 -5 -679Q-17 -679 -26 -687.5Q-35 -696 -35 -709Q-35 -725 -21 -734L175 -859L372 -734Q386 -725 386 -709Z"/>
	<path fill="#daa520" d="M135 -234Q130 -234 130 -239Q130 -244 135 -244Q140 -244 140 -239Q140 -234 135 -234ZM662 -719Q662 -714 657 -714Q656 -714 654 -715L492 -818L331 -715Q329 -714 328 -714Q323 -714 323 -719Q323 -722 325 -723L489 -828Q491 -829 492 -829Q493 -829 495 -828L660 -723Q662 -722 662 -719Z"/>
</svg>