<svg xmlns="http://www.w3.org/2000/svg" viewBox="0 -1024 1024 1024">
	<path fill="#000088" d="M220 -176Q220 -179 220 -186Q220 -193 220 -196Q220 -310 259 -349Q285 -375 326 -375Q362 -375 415 -343Q450 -321 467 -321Q477 -321 484.5 -313.5Q492 -306 492 -296Q492 -286 484.5 -278.5Q477 -271 467 -271Q452 -271 435.5 -276.5Q419 -282 412 -286Q405 -290 389 -300Q348 -325 326 -325Q306 -325 295 -314Q281 -300 275 -268Q270 -242 270 -193Q270 -190 270 -184.5Q270 -179 270 -176Q270 -117 308 -80Q333 -54 373.5 -40.5Q414 -27 458 -27Q473 -27 483 -37Q505 -59 505 -110Q505 -131 508 -144Q511 -159 519 -167Q528 -176 540 -176Q555 -176 569 -162Q577 -153 597 -127Q621 -92 635 -79Q650 -63 659 -63Q682 -63 695 -75Q718 -99 718 -185Q718 -278 645 -351Q608 -388 560 -409Q512 -430 461 -430Q288 -430 211 -353Q150 -292 150 -179Q150 -108 176.5 -39.5Q203 29 250 76Q318 144 407 144Q407 144 409 144Q584 147 686 147Q696 147 702.5 141.5Q709 136 709 127Q709 113 719 102Q721 95 728 89.5Q735 84 743 84Q753 84 760.5 91.5Q768 99 768 109Q768 122 759 133Q756 160 735 178.5Q714 197 686 197Q578 197 407 194Q297 194 214 111Q160 57 130 -20.5Q100 -98 100 -179Q100 -313 176 -389Q267 -480 461 -480Q522 -480 579.5 -455Q637 -430 680 -386Q768 -299 768 -185Q768 -78 730 -40Q703 -13 659 -13Q630 -13 599 -43Q583 -59 555 -99Q552 -35 519 -2Q494 23 458 23Q340 23 272 -44Q220 -97 220 -176Z"/>
	<path fill="#800080" d="M170 -176Q170 -179 170 -186Q170 -193 170 -196Q170 -310 209 -349Q235 -375 276 -375Q312 -375 365 -343Q400 -321 417 -321Q427 -321 434.5 -313.5Q442 -306 442 -296Q442 -286 434.5 -278.5Q427 -271 417 -271Q402 -271 385.5 -276.5Q369 -282 362 -286Q355 -290 339 -300Q298 -325 276 -325Q256 -325 245 -314Q231 -300 225 -268Q220 -242 220 -193Q220 -190 220 -184.5Q220 -179 220 -176Q220 -117 258 -80Q283 -54 323.5 -40.5Q364 -27 408 -27Q423 -27 433 -37Q455 -59 455 -110Q455 -131 458 -144Q461 -159 469 -167Q478 -176 490 -176Q505 -176 519 -162Q527 -153 547 -127Q571 -92 585 -79Q600 -63 609 -63Q632 -63 645 -75Q668 -99 668 -185Q668 -278 595 -351Q558 -388 510 -409Q462 -430 411 -430Q238 -430 161 -353Q100 -292 100 -179Q100 -108 126.5 -39.5Q153 29 200 76Q268 144 357 144Q357 144 359 144Q534 147 636 147Q646 147 652.5 141.5Q659 136 659 127Q659 113 669 102Q671 95 678 89.5Q685 84 693 84Q703 84 710.5 91.5Q718 99 718 109Q718 122 709 133Q706 160 685 178.5Q664 197 636 197Q528 197 357 194Q247 194 164 111Q110 57 80 -20.5Q50 -98 50 -179Q50 -313 126 -389Q217 -480 411 -480Q472 -480 529.5 -455Q587 -430 630 -386Q718 -299 718 -185Q718 -78 680 -40Q653 -13 609 -13Q580 -13 549 -43Q533 -59 505 -99Q502 -35 469 -2Q444 23 408 23Q290 23 222 -44Q170 -97 170 -176Z"/>
	<path fill="#daa520" d="M250 -176Q250 -179 250 -185Q250 -191 250 -195Q250 -215 250.5 -228.5Q251 -242 253.5 -263Q256 -284 262 -298.5Q268 -313 277 -327Q286 -341 301 -348Q316 -355 336 -355Q367 -355 414 -326Q455 -301 477 -301Q482 -301 482 -296Q482 -291 477 -291Q452 -291 409 -317Q364 -345 336 -345Q315 -345 300.5 -335Q286 -325 278 -311.5Q270 -298 266 -275.5Q262 -253 261 -236Q260 -219 260 -195Q260 -191 260 -185Q260 -179 260 -176Q260 -93 321.5 -50Q383 -7 468 -7Q502 -7 518.5 -37Q535 -67 535 -110Q535 -140 540 -149Q544 -156 550 -156Q557 -156 567 -145Q574 -138 590 -115Q606 -94 616.5 -80.5Q627 -67 642 -55Q657 -43 669 -43Q716 -43 732 -79.5Q748 -116 748 -185Q748 -290 664 -370Q580 -450 471 -450Q140 -450 140 -179Q140 -94 174 -16Q208 62 272.5 113Q337 164 417 164Q587 167 696 167Q714 167 726.5 155.5Q739 144 739 127Q739 121 745 115Q748 111 748 109Q748 104 753 104Q758 104 758 109Q758 115 752 121Q749 125 749 127Q749 148 733.5 162.5Q718 177 696 177Q588 177 417 174Q354 174 299 143Q244 112 208 62Q172 12 151 -51Q130 -114 130 -179Q130 -324 219.5 -392Q309 -460 471 -460Q584 -460 671 -377.5Q758 -295 758 -185Q758 -152 755 -128.5Q752 -105 743.5 -81.5Q735 -58 716 -45.5Q697 -33 669 -33Q649 -33 627 -54Q610 -70 582 -109Q566 -131 560 -138Q553 -146 550 -146Q545 -142 545 -110Q545 -65 526.5 -31Q508 3 468 3Q413 3 365 -14.5Q317 -32 283.5 -74Q250 -116 250 -176Z"/>
</svg>