<svg xmlns="http://www.w3.org/2000/svg" viewBox="0 -1024 1024 1024">
	<path fill="#000088" d="M262 -191Q262 -113 319 -66Q367 -47 423 -47Q442 -47 456 -57Q460 -75 460 -95Q460 -123 465 -132L500 -192Q502 -196 505 -196Q507 -196 510 -195L562 -165Q570 -160 593 -127Q615 -97 627 -83Q651 -84 667 -95Q673 -123 673 -170Q673 -233 641 -289.5Q609 -346 556 -385Q501 -410 443 -410Q365 -410 304 -394Q325 -391 352 -376L396 -350Q415 -341 432 -341H449V-251Q427 -251 398 -268L353 -293Q330 -305 308 -305Q285 -305 269 -294Q262 -264 262 -210Q262 -207 262 -200.5Q262 -194 262 -191ZM175 -179Q175 -265 195 -300L230 -361Q232 -365 235 -369Q191 -346 161 -310Q142 -260 142 -194Q142 -106 179 -24.5Q216 57 280 105Q324 124 372 124Q542 127 651 127Q663 127 673 122V94H691L700 77Q701 75 703.5 72.5Q706 70 707 69L692 94H760Q760 96 759 99L751 112Q751 124 745 133L710 194Q697 217 668 217L389 214Q326 214 271 182L219 152Q144 109 99.5 21Q55 -67 55 -164Q55 -251 90 -312L125 -372Q199 -500 426 -500Q499 -500 565 -462L617 -432Q681 -395 720.5 -333Q760 -271 760 -200Q760 -121 741 -88L706 -27Q686 7 641 7Q631 7 620 1L568 -29Q553 -38 535 -59Q532 -55 530 -50L495 10Q476 43 440 43Q364 43 308 11L256 -19Q175 -66 175 -161Q175 -164 175 -170Q175 -176 175 -179Z"/>
	<path fill="#800080" d="M170 -176Q170 -179 170 -186Q170 -193 170 -196Q170 -310 209 -349Q235 -375 276 -375Q312 -375 365 -343Q400 -321 417 -321Q427 -321 434.5 -313.5Q442 -306 442 -296Q442 -286 434.5 -278.5Q427 -271 417 -271Q402 -271 385.5 -276.5Q369 -282 362 -286Q355 -290 339 -300Q298 -325 276 -325Q256 -325 245 -314Q231 -300 225 -268Q220 -242 220 -193Q220 -190 220 -184.5Q220 -179 220 -176Q220 -117 258 -80Q283 -54 323.5 -40.5Q364 -27 408 -27Q423 -27 433 -37Q455 -59 455 -110Q455 -131 458 -144Q461 -159 469 -167Q478 -176 490 -176Q505 -176 519 -162Q527 -153 547 -127Q571 -92 585 -79Q600 -63 609 -63Q632 -63 645 -75Q668 -99 668 -185Q668 -278 595 -351Q558 -388 510 -409Q462 -430 411 -430Q238 -430 161 -353Q100 -292 100 -179Q100 -108 126.5 -39.5Q153 29 200 76Q268 144 357 144Q357 144 359 144Q534 147 636 147Q646 147 652.5 141.5Q659 136 659 127Q659 113 669 102Q671 95 678 89.5Q685 84 693 84Q703 84 710.5 91.5Q718 99 718 109Q718 122 709 133Q706 160 685 178.5Q664 197 636 197Q528 197 357 194Q247 194 164 111Q110 57 80 -20.5Q50 -98 50 -179Q50 -313 126 -389Q217 -480 411 -480Q472 -480 529.5 -455Q587 -430 630 -386Q718 -299 718 -185Q718 -78 680 -40Q653 -13 609 -13Q580 -13 549 -43Q533 -59 505 -99Q502 -35 469 -2Q444 23 408 23Q290 23 222 -44Q170 -97 170 -176Z"/>
	<path fill="#daa520" d="M200 -176Q200 -179 200 -185Q200 -191 200 -195Q200 -215 200.5 -228.5Q201 -242 203.5 -263Q206 -284 212 -298.5Q218 -313 227 -327Q236 -341 251 -348Q266 -355 286 -355Q317 -355 364 -326Q405 -301 427 -301Q432 -301 432 -296Q432 -291 427 -291Q402 -291 359 -317Q314 -345 286 -345Q265 -345 250.5 -335Q236 -325 228 -311.5Q220 -298 216 -275.5Q212 -253 211 -236Q210 -219 210 -195Q210 -191 210 -185Q210 -179 210 -176Q210 -93 271.5 -50Q333 -7 418 -7Q452 -7 468.5 -37Q485 -67 485 -110Q485 -140 490 -149Q494 -156 500 -156Q507 -156 517 -145Q524 -138 540 -115Q556 -94 566.5 -80.5Q577 -67 592 -55Q607 -43 619 -43Q666 -43 682 -79.5Q698 -116 698 -185Q698 -290 614 -370Q530 -450 421 -450Q90 -450 90 -179Q90 -94 124 -16Q158 62 222.5 113Q287 164 367 164Q537 167 646 167Q664 167 676.5 155.5Q689 144 689 127Q689 121 695 115Q698 111 698 109Q698 104 703 104Q708 104 708 109Q708 115 702 121Q699 125 699 127Q699 148 683.5 162.5Q668 177 646 177Q538 177 367 174Q304 174 249 143Q194 112 158 62Q122 12 101 -51Q80 -114 80 -179Q80 -324 169.5 -392Q259 -460 421 -460Q534 -460 621 -377.5Q708 -295 708 -185Q708 -152 705 -128.5Q702 -105 693.5 -81.5Q685 -58 666 -45.5Q647 -33 619 -33Q599 -33 577 -54Q560 -70 532 -109Q516 -131 510 -138Q503 -146 500 -146Q495 -142 495 -110Q495 -65 476.5 -31Q458 3 418 3Q363 3 315 -14.5Q267 -32 233.5 -74Q200 -116 200 -176Z"/>
</svg>