<svg xmlns="http://www.w3.org/2000/svg" viewBox="0 -1024 1024 1024">
	<path fill="#000088" d="M55 247V157H122V-773H55V-863H157Q179 -863 194 -854.5Q209 -846 209 -833V187Q209 212 198.5 229.5Q188 247 174 247Z"/>
	<path fill="#800080" d="M201 -853Q216 -853 226 -842.5Q236 -832 236 -818V202Q236 217 226 227Q216 237 201 237H99Q84 237 74 227Q64 217 64 202Q64 187 74 177Q84 167 99 167H166V-783H99Q84 -783 74 -793Q64 -803 64 -818Q64 -833 74 -843Q84 -853 99 -853Z"/>
	<path fill="#daa520" d="M85 207Q80 207 80 202Q80 197 85 197H182V-813H85Q80 -813 80 -818Q80 -823 85 -823H187Q192 -823 192 -818V202Q192 207 187 207Z"/>
</svg>