<svg xmlns="http://www.w3.org/2000/svg" viewBox="0 -1024 1024 1024">
	<path fill="#000088" d="M468 -686Q468 -676 460.5 -668.5Q453 -661 443 -661Q434 -661 426.5 -667.5Q419 -674 418 -683Q415 -712 402 -725Q398 -729 394 -730Q383 -733 367.5 -742Q352 -751 346 -753Q341 -755 339 -755Q290 -755 262 -727Q236 -701 208 -616Q184 -542 163 -513L150 -387L154 -248L162 -195Q169 -164 175 -152Q180 -144 189 -119Q211 -63 226 -49Q232 -43 235 -43H249Q254 -43 259 -41Q301 -23 345 -23Q368 -23 381 -29Q392 -34 413 -53Q417 -57 420 -59L434 -97L436 -153Q436 -163 443 -170Q451 -177 461 -177Q471 -177 478.5 -169.5Q486 -162 486 -152Q486 -152 486 -151L484 -91Q484 -87 482 -83L464 -35Q462 -29 457 -25Q453 -22 444.5 -14.5Q436 -7 431.5 -3Q427 1 419 6.5Q411 12 403 16Q379 27 345 27Q293 27 244 7H235Q211 7 191 -13Q169 -35 143 -101Q134 -122 131 -128Q121 -146 113 -184Q112 -185 112 -186L104 -242Q104 -244 104 -245L100 -387Q100 -388 100 -388Q100 -389 100 -391L114 -525Q115 -532 119 -537Q138 -561 161 -632Q171 -665 176.5 -679.5Q182 -694 195.5 -719.5Q209 -745 226 -762Q269 -805 339 -805Q357 -805 388 -788Q403 -780 408 -778Q425 -773 437 -760Q462 -736 468 -689Q468 -688 468 -686Z"/>
	<path fill="#800080" d="M418 -686Q418 -676 410.5 -668.5Q403 -661 393 -661Q384 -661 376.5 -667.5Q369 -674 368 -683Q365 -712 352 -725Q348 -729 344 -730Q333 -733 317.5 -742Q302 -751 296 -753Q291 -755 289 -755Q240 -755 212 -727Q186 -701 158 -616Q134 -542 113 -513L100 -387L104 -248L112 -195Q119 -164 125 -152Q130 -144 139 -119Q161 -63 176 -49Q182 -43 185 -43H199Q204 -43 209 -41Q251 -23 295 -23Q318 -23 331 -29Q342 -34 363 -53Q367 -57 370 -59L384 -97L386 -153Q386 -163 393 -170Q401 -177 411 -177Q421 -177 428.5 -169.5Q436 -162 436 -152Q436 -152 436 -151L434 -91Q434 -87 432 -83L414 -35Q412 -29 407 -25Q403 -22 394.5 -14.5Q386 -7 381.5 -3Q377 1 369 6.5Q361 12 353 16Q329 27 295 27Q243 27 194 7H185Q161 7 141 -13Q119 -35 93 -101Q84 -122 81 -128Q71 -146 63 -184Q62 -185 62 -186L54 -242Q54 -244 54 -245L50 -387Q50 -388 50 -388Q50 -389 50 -391L64 -525Q65 -532 69 -537Q88 -561 111 -632Q121 -665 126.5 -679.5Q132 -694 145.5 -719.5Q159 -745 176 -762Q219 -805 289 -805Q307 -805 338 -788Q353 -780 358 -778Q375 -773 387 -760Q412 -736 418 -689Q418 -688 418 -686Z"/>
	<path fill="#daa520" d="M458 -686Q458 -681 453 -681Q449 -681 448 -685Q441 -740 410 -749Q401 -752 383 -762Q359 -775 349 -775Q320 -775 297 -765.5Q274 -756 260.5 -744.5Q247 -733 234 -709Q221 -685 215 -669Q209 -653 199 -622Q175 -548 154 -520L140 -388L144 -246L152 -191Q160 -156 167 -142Q171 -135 181 -112Q199 -65 212 -47Q228 -23 245 -23H259Q260 -23 261 -23Q307 -3 355 -3Q383 -3 398.5 -10.5Q414 -18 436 -38Q443 -44 447 -47L464 -93L466 -152Q466 -157 471 -157Q476 -157 476 -152L474 -92Q474 -91 474 -90L456 -42Q455 -41 454 -40Q451 -38 441.5 -29.5Q432 -21 428 -18Q424 -15 415 -9Q406 -3 399.5 -0.5Q393 2 382.5 4.5Q372 7 361 7Q358 7 355 7Q306 7 258 -13H245Q223 -13 204 -41Q190 -60 171 -108Q162 -131 159 -138Q150 -153 142 -189L134 -245Q134 -246 134 -246L130 -388V-389L144 -523Q144 -524 145 -525Q165 -552 190 -626Q197 -648 201 -659Q205 -670 213.5 -690Q222 -710 229 -721Q236 -732 248.5 -746Q261 -760 274.5 -767Q288 -774 307.5 -779.5Q327 -785 349 -785Q362 -785 384.5 -773Q407 -761 412 -759Q451 -748 458 -687Q458 -687 458 -686Z"/>
</svg>