<svg xmlns="http://www.w3.org/2000/svg" viewBox="0 -1024 1024 1024">
	<path fill="#000088" d="M126 -439L90 -404L55 -439L90 -474ZM126 -29L90 6L55 -29L90 -64Z"/>
	<path fill="#800080" d="M57.5 -421.5Q50 -429 50 -439Q50 -449 57.5 -456.5Q65 -464 75 -464Q85 -464 92.5 -456.5Q100 -449 100 -439Q100 -429 92.5 -421.5Q85 -414 75 -414Q65 -414 57.5 -421.5ZM57.5 -11.5Q50 -19 50 -29Q50 -39 57.5 -46.5Q65 -54 75 -54Q85 -54 92.5 -46.5Q100 -39 100 -29Q100 -19 92.5 -11.5Q85 -4 75 -4Q65 -4 57.5 -11.5Z"/>
	<path fill="#daa520" d="M85 -434Q80 -434 80 -439Q80 -444 85 -444Q90 -444 90 -439Q90 -434 85 -434ZM85 -24Q80 -24 80 -29Q80 -34 85 -34Q90 -34 90 -29Q90 -24 85 -24Z"/>
</svg>