<svg xmlns="http://www.w3.org/2000/svg" viewBox="0 -1024 1024 1024">
	<path fill="#000088" d="M241 -103Q298 -99 305 -99Q337 -99 360 -123Q388 -150 423 -244Q435 -277 441 -292L453 -423L372 -659Q360 -696 323.5 -716.5Q287 -737 239 -737Q193 -737 170 -714Q155 -699 149 -673Q148 -665 141 -659Q134 -653 125 -653Q115 -653 107.5 -660.5Q100 -668 100 -678Q100 -681 101 -683Q109 -724 135 -750Q172 -787 239 -787Q330 -787 383 -733Q408 -709 420 -675L502 -435Q503 -431 503 -426Q503 -425 503 -424L490 -283Q490 -279 488 -276Q482 -261 470 -227Q456 -191 450 -175Q444 -159 428.5 -132Q413 -105 396 -87Q357 -49 305 -49Q302 -49 235 -53Q228 -15 211 15Q203 27 189 27Q185 27 181 26Q176 24 163 21Q150 18 143 15Q130 10 123 2Q110 -11 110 -29Q110 -31 110 -32Q113 -62 131 -80Q151 -100 191 -104Q191 -112 191 -122Q191 -166 178.5 -262Q166 -358 166 -403Q166 -405 166 -408V-676Q166 -686 173.5 -693.5Q181 -701 191 -701Q201 -701 208.5 -693.5Q216 -686 216 -676V-408Q216 -405 216 -403Q216 -360 228.5 -264Q241 -168 241 -123Q241 -113 241 -103ZM176 -28Q180 -39 184 -52Q171 -49 166 -44Q162 -40 160 -32Q165 -30 176 -28Z"/>
	<path fill="#800080" d="M191 -103Q248 -99 255 -99Q287 -99 310 -123Q338 -150 373 -244Q385 -277 391 -292L403 -423L322 -659Q310 -696 273.5 -716.5Q237 -737 189 -737Q143 -737 120 -714Q105 -699 99 -673Q98 -665 91 -659Q84 -653 75 -653Q65 -653 57.5 -660.5Q50 -668 50 -678Q50 -681 51 -683Q59 -724 85 -750Q122 -787 189 -787Q280 -787 333 -733Q358 -709 370 -675L452 -435Q453 -431 453 -426Q453 -425 453 -424L440 -283Q440 -279 438 -276Q432 -261 420 -227Q406 -191 400 -175Q394 -159 378.5 -132Q363 -105 346 -87Q307 -49 255 -49Q252 -49 185 -53Q178 -15 161 15Q153 27 139 27Q135 27 131 26Q126 24 113 21Q100 18 93 15Q80 10 73 2Q60 -11 60 -29Q60 -31 60 -32Q63 -62 81 -80Q101 -100 141 -104Q141 -112 141 -122Q141 -166 128.5 -262Q116 -358 116 -403Q116 -405 116 -408V-676Q116 -686 123.5 -693.5Q131 -701 141 -701Q151 -701 158.5 -693.5Q166 -686 166 -676V-408Q166 -405 166 -403Q166 -360 178.5 -264Q191 -168 191 -123Q191 -113 191 -103ZM126 -28Q130 -39 134 -52Q121 -49 116 -44Q112 -40 110 -32Q115 -30 126 -28Z"/>
	<path fill="#daa520" d="M229 -84Q241 -84 270.5 -81.5Q300 -79 315 -79Q337 -79 356 -89Q375 -99 388 -111.5Q401 -124 414 -149Q427 -174 433.5 -190.5Q440 -207 451 -237Q464 -271 471 -287L483 -426L401 -665Q386 -710 344 -733.5Q302 -757 249 -757Q156 -757 140 -677Q139 -673 135 -673Q130 -673 130 -678Q130 -679 130 -679Q139 -721 169 -744Q199 -767 249 -767Q305 -767 349.5 -742Q394 -717 411 -669L493 -428Q493 -427 493 -426L481 -285Q480 -284 480 -284Q474 -268 461 -234Q452 -211 448 -200.5Q444 -190 435 -169Q426 -148 419 -137Q412 -126 400 -111Q388 -96 376.5 -88Q365 -80 349 -74.5Q333 -69 315 -69Q300 -69 270 -71.5Q240 -74 228 -74Q222 -28 203 4Q202 7 199 7Q198 7 197 7Q193 5 180.5 2Q168 -1 160.5 -3.5Q153 -6 146.5 -12.5Q140 -19 140 -28Q140 -30 140 -30Q145 -84 219 -84Q221 -102 221 -122Q221 -167 208.5 -262.5Q196 -358 196 -403Q196 -405 196 -408V-676Q196 -681 201 -681Q206 -681 206 -676V-408Q206 -405 206 -403Q206 -359 218.5 -263Q231 -167 231 -122Q231 -102 229 -84ZM150 -28Q150 -20 158 -16Q166 -12 184 -7Q193 -5 197 -4Q213 -34 218 -74Q187 -74 169.5 -64.5Q152 -55 150 -30Q150 -29 150 -28Z"/>
</svg>