<svg xmlns="http://www.w3.org/2000/svg" viewBox="0 -1024 1024 1024">
	<path fill="#000088" d="M142 -547Q142 -522 151 -500Q151 -500 154 -497Q212 -446 228 -430L264 -394Q329 -329 329 -266Q329 -239 319 -212Q319 -183 299 -163L263 -128Q242 -107 208 -100V1Q208 16 198 26Q188 36 173 36Q158 36 147.5 26Q137 16 137 1V-111Q133 -114 123 -123Q120 -125 115 -130.5Q110 -136 107 -138L71 -173L56 -227Q55 -230 55 -236Q55 -250 65 -260Q75 -270 89 -270Q115 -270 122 -245Q125 -235 130 -216Q135 -197 137 -191V-203Q137 -218 147.5 -228Q158 -238 173 -238Q188 -238 198 -228Q208 -218 208 -203V-170Q229 -175 242 -183Q248 -195 248 -212Q258 -239 258 -266Q258 -321 209 -377Q204 -381 176 -406Q148 -431 134 -445L98 -480Q92 -486 80 -500Q72 -520 72 -547Q72 -609 114 -651L150 -686Q158 -694 168 -701V-803Q168 -818 178.5 -828Q189 -838 204 -838Q219 -838 229 -828Q239 -818 239 -803L238 -690Q253 -676 263 -670L293 -654Q308 -646 308 -627Q308 -614 299.5 -605Q291 -596 278 -596Q271 -596 263 -600Q252 -606 238 -619V-608Q238 -593 228 -583Q218 -573 203 -573Q188 -573 178 -584.5Q168 -596 168 -611V-630Q142 -592 142 -547Z"/>
	<path fill="#800080" d="M271 -635Q271 -625 263.5 -617.5Q256 -610 246 -610Q240 -610 234 -613Q224 -619 214 -627V-611Q214 -601 206.5 -593.5Q199 -586 189 -586Q179 -586 171.5 -593.5Q164 -601 164 -611V-644Q157 -639 151 -633Q116 -598 116 -547Q116 -529 121 -513Q136 -495 179 -458Q207 -434 221 -421Q235 -408 255 -383.5Q275 -359 286 -335Q301 -302 301 -265Q301 -237 292 -208Q290 -171 265 -146Q237 -118 191 -109Q186 -108 181 -108V1Q181 11 173.5 18.5Q166 26 156 26Q146 26 138.5 18.5Q131 11 131 1V-112Q114 -118 90 -140Q80 -149 74 -154Q68 -159 66 -166L51 -220Q50 -224 50 -227Q50 -237 57.5 -244.5Q65 -252 75 -252Q83 -252 90 -246.5Q97 -241 99 -234L112 -187Q116 -184 123 -177Q128 -173 131 -170V-203Q131 -213 138.5 -220.5Q146 -228 156 -228Q166 -228 173.5 -220.5Q181 -213 181 -203V-158Q181 -159 181 -159Q213 -164 229 -181Q242 -194 242 -212Q242 -216 243 -220Q252 -244 252 -266Q252 -290 241 -314Q232 -333 214 -354.5Q196 -376 183.5 -387.5Q171 -399 146 -420Q98 -462 80 -484Q77 -487 76 -491Q65 -518 65 -547Q65 -618 115 -668Q137 -690 164 -701V-803Q164 -813 171.5 -820.5Q179 -828 189 -828Q199 -828 206.5 -820.5Q214 -813 214 -803V-697Q217 -694 237 -674Q250 -661 258 -657Q271 -650 271 -635Z"/>
	<path fill="#daa520" d="M161 -203Q161 -208 166 -208Q171 -208 171 -203V1Q171 6 166 6Q161 6 161 1ZM194 -803Q194 -808 199 -808Q204 -808 204 -803V-611Q204 -606 199 -606Q194 -606 194 -611ZM261 -635Q261 -630 256 -630Q255 -630 254 -631Q242 -637 222 -658Q206 -674 198 -678Q157 -666 131.5 -628.5Q106 -591 106 -547Q106 -523 113 -503Q129 -483 164 -452.5Q199 -422 224.5 -399Q250 -376 271 -340Q292 -304 292 -266Q291 -237 282 -211Q282 -177 257 -156.5Q232 -136 197 -129Q183 -126 172 -126Q159 -126 148 -130.5Q137 -135 130.5 -140Q124 -145 113 -155Q103 -164 97 -169Q96 -170 95 -172L80 -226Q80 -226 80 -227Q80 -232 85 -232Q89 -232 90 -228L104 -176Q110 -171 120 -162Q131 -152 136.5 -148Q142 -144 151.5 -140Q161 -136 172 -136Q182 -136 195 -139Q228 -145 250 -163.5Q272 -182 272 -212Q272 -213 272 -214Q282 -241 282 -266Q282 -301 261 -336Q240 -371 215 -394Q190 -417 155.5 -447.5Q121 -478 105 -497Q105 -497 104 -498Q96 -521 96 -547Q96 -595 124 -635.5Q152 -676 198 -688Q198 -688 199 -688Q200 -688 201 -688Q210 -683 229 -665Q248 -645 258 -639Q261 -638 261 -635Z"/>
</svg>