<svg xmlns="http://www.w3.org/2000/svg" viewBox="0 -1024 1024 1024">
	<path fill="#000088" d="M96 -768L132 -803Q140 -811 148 -811Q157 -811 165 -803L200 -768Q218 -750 230 -698.5Q242 -647 242 -582Q242 -517 230 -465.5Q218 -414 200 -396L165 -361Q157 -353 148 -353Q140 -353 132 -361L96 -396Q78 -414 66.5 -465.5Q55 -517 55 -582Q55 -647 66.5 -698.5Q78 -750 96 -768ZM148 -736Q126 -681 126 -582Q126 -483 148 -428Q171 -486 171 -582Q171 -678 148 -736ZM96 -380L132 -415Q140 -423 148 -423Q157 -423 165 -415L200 -380Q218 -362 230 -310.5Q242 -259 242 -194Q242 -129 230 -77.5Q218 -26 200 -8L165 27Q157 35 148 35Q140 35 132 27L96 -8Q78 -26 66.5 -77.5Q55 -129 55 -194Q55 -259 66.5 -310.5Q78 -362 96 -380ZM148 -348Q126 -293 126 -194Q126 -95 148 -40Q171 -98 171 -194Q171 -290 148 -348Z"/>
	<path fill="#800080" d="M113 -73Q122 -40 133 -27Q144 -40 153 -73Q166 -125 166 -194Q166 -263 153 -315Q144 -348 133 -361Q122 -348 113 -315Q100 -263 100 -194Q100 -125 113 -73ZM113 -461Q122 -428 133 -415Q144 -428 153 -461Q166 -513 166 -582Q166 -651 153 -703Q144 -736 133 -749Q122 -736 113 -703Q100 -651 100 -582Q100 -513 113 -461ZM65 -328Q76 -368 90 -388Q76 -408 65 -448Q50 -506 50 -582Q50 -658 65 -716Q78 -765 99 -786Q114 -801 133 -801Q152 -801 167 -786Q188 -765 201 -716Q216 -658 216 -582Q216 -506 201 -448Q190 -408 175 -388Q190 -368 201 -328Q216 -270 216 -194Q216 -118 201 -60Q188 -11 167 10Q152 25 133 25Q114 25 99 10Q78 -11 65 -60Q50 -118 50 -194Q50 -270 65 -328Z"/>
	<path fill="#daa520" d="M101 -432Q118 -383 143 -383Q168 -383 185 -432Q206 -491 206 -582Q206 -673 185 -732Q168 -781 143 -781Q118 -781 101 -732Q80 -673 80 -582Q80 -491 101 -432ZM110 -729Q125 -771 143 -771Q161 -771 176 -729Q196 -671 196 -582Q196 -493 176 -435Q161 -393 143 -393Q125 -393 110 -435Q90 -493 90 -582Q90 -671 110 -729ZM101 -344Q118 -393 143 -393Q168 -393 185 -344Q206 -285 206 -194Q206 -103 185 -44Q168 5 143 5Q118 5 101 -44Q80 -103 80 -194Q80 -285 101 -344ZM110 -47Q125 -5 143 -5Q161 -5 176 -47Q196 -105 196 -194Q196 -283 176 -341Q161 -383 143 -383Q125 -383 110 -341Q90 -283 90 -194Q90 -105 110 -47Z"/>
</svg>