<svg xmlns="http://www.w3.org/2000/svg" viewBox="0 -1024 1024 1024">
	<path fill="#000088" d="M163 -73Q172 -40 183 -27Q194 -40 203 -73Q216 -125 216 -194Q216 -263 203 -315Q194 -348 183 -361Q172 -348 163 -315Q150 -263 150 -194Q150 -125 163 -73ZM163 -461Q172 -428 183 -415Q194 -428 203 -461Q216 -513 216 -582Q216 -651 203 -703Q194 -736 183 -749Q172 -736 163 -703Q150 -651 150 -582Q150 -513 163 -461ZM115 -328Q126 -368 140 -388Q126 -408 115 -448Q100 -506 100 -582Q100 -658 115 -716Q128 -765 149 -786Q164 -801 183 -801Q202 -801 217 -786Q238 -765 251 -716Q266 -658 266 -582Q266 -506 251 -448Q240 -408 225 -388Q240 -368 251 -328Q266 -270 266 -194Q266 -118 251 -60Q238 -11 217 10Q202 25 183 25Q164 25 149 10Q128 -11 115 -60Q100 -118 100 -194Q100 -270 115 -328Z"/>
	<path fill="#800080" d="M113 -73Q122 -40 133 -27Q144 -40 153 -73Q166 -125 166 -194Q166 -263 153 -315Q144 -348 133 -361Q122 -348 113 -315Q100 -263 100 -194Q100 -125 113 -73ZM113 -461Q122 -428 133 -415Q144 -428 153 -461Q166 -513 166 -582Q166 -651 153 -703Q144 -736 133 -749Q122 -736 113 -703Q100 -651 100 -582Q100 -513 113 -461ZM65 -328Q76 -368 90 -388Q76 -408 65 -448Q50 -506 50 -582Q50 -658 65 -716Q78 -765 99 -786Q114 -801 133 -801Q152 -801 167 -786Q188 -765 201 -716Q216 -658 216 -582Q216 -506 201 -448Q190 -408 175 -388Q190 -368 201 -328Q216 -270 216 -194Q216 -118 201 -60Q188 -11 167 10Q152 25 133 25Q114 25 99 10Q78 -11 65 -60Q50 -118 50 -194Q50 -270 65 -328Z"/>
	<path fill="#daa520" d="M91 -432Q108 -383 133 -383Q158 -383 175 -432Q196 -491 196 -582Q196 -673 175 -732Q158 -781 133 -781Q108 -781 91 -732Q70 -673 70 -582Q70 -491 91 -432ZM100 -729Q115 -771 133 -771Q151 -771 166 -729Q186 -671 186 -582Q186 -493 166 -435Q151 -393 133 -393Q115 -393 100 -435Q80 -493 80 -582Q80 -671 100 -729ZM91 -344Q108 -393 133 -393Q158 -393 175 -344Q196 -285 196 -194Q196 -103 175 -44Q158 5 133 5Q108 5 91 -44Q70 -103 70 -194Q70 -285 91 -344ZM100 -47Q115 -5 133 -5Q151 -5 166 -47Q186 -105 186 -194Q186 -283 166 -341Q151 -383 133 -383Q115 -383 100 -341Q80 -283 80 -194Q80 -105 100 -47Z"/>
</svg>