<svg xmlns="http://www.w3.org/2000/svg" viewBox="0 -1024 1024 1024">
	<path fill="#000088" d="M100 -812Q100 -822 107.5 -829.5Q115 -837 125 -837Q135 -837 142.5 -829.5Q150 -822 150 -812L156 -323Q156 -313 148.5 -305.5Q141 -298 131 -298Q121 -298 113.5 -305.5Q106 -313 106 -323ZM109 -203Q109 -213 116.5 -220.5Q124 -228 134 -228Q144 -228 151.5 -220.5Q159 -213 159 -203V-137Q159 -127 151.5 -119.5Q144 -112 134 -112Q124 -112 116.5 -119.5Q109 -127 109 -137Z"/>
	<path fill="#800080" d="M50 -812Q50 -822 57.5 -829.5Q65 -837 75 -837Q85 -837 92.5 -829.5Q100 -822 100 -812L106 -323Q106 -313 98.5 -305.5Q91 -298 81 -298Q71 -298 63.5 -305.5Q56 -313 56 -323ZM59 -203Q59 -213 66.5 -220.5Q74 -228 84 -228Q94 -228 101.5 -220.5Q109 -213 109 -203V-137Q109 -127 101.5 -119.5Q94 -112 84 -112Q74 -112 66.5 -119.5Q59 -127 59 -137Z"/>
	<path fill="#daa520" d="M140 -812L146 -323Q146 -318 141 -318Q136 -318 136 -323Q130 -812 130 -812Q130 -817 135 -817Q140 -817 140 -812ZM139 -203Q139 -208 144 -208Q149 -208 149 -203V-137Q149 -132 144 -132Q139 -132 139 -137Z"/>
</svg>