<svg xmlns="http://www.w3.org/2000/svg" viewBox="0 -1024 1024 1024">
	<path fill="#000088" d="M129 -389Q114 -389 104 -399Q94 -409 94 -424Q94 -439 104 -449Q114 -459 129 -459H137Q157 -459 197 -449Q237 -439 239 -439L328 -435Q342 -434 352 -424Q362 -414 362 -400Q362 -386 351.5 -375.5Q341 -365 327 -365H325L239 -369Q237 -369 197 -379Q157 -389 137 -389ZM176 -286Q176 -326 181 -407Q186 -488 186 -529V-550Q184 -568 183.5 -603Q183 -638 182 -651L179 -654L144 -690Q135 -699 121 -718Q107 -737 102 -743L98 -748L100 -804L135 -839Q193 -785 220 -756Q235 -740 244 -709Q273 -717 337 -759Q415 -810 451 -817Q461 -819 466 -819Q491 -819 505 -805L541 -769Q552 -758 552 -740Q558 -733 562 -713Q566 -695 568 -692Q573 -684 573 -676Q573 -663 564 -654.5Q555 -646 542 -646Q524 -646 516 -661L498 -692Q494 -699 491 -713Q487 -735 482 -740Q482 -741 481.5 -743Q481 -745 481 -746Q471 -748 466 -748Q456 -748 451 -747Q414 -741 346.5 -695.5Q279 -650 254 -641Q254 -634 254 -600.5Q254 -567 256 -550Q256 -546 256.5 -539Q257 -532 257 -529Q257 -488 252 -407Q247 -326 247 -286Q247 -254 248 -238Q245 -222 245 -199Q245 -186 246 -160Q247 -134 247 -122Q247 -47 222 -22L186 13Q169 30 141 30Q139 30 136 29.5Q133 29 131 29Q111 29 101 23L70 6Q55 -2 55 -21Q55 -34 64 -42.5Q73 -51 86 -51Q94 -51 101 -47Q107 -43 135 -41H141Q152 -41 166 -45Q176 -68 176 -122Q176 -134 175 -160Q174 -186 174 -199Q174 -216 178 -238Q176 -270 176 -286Z"/>
	<path fill="#800080" d="M103 -399Q93 -399 85.5 -406.5Q78 -414 78 -424Q78 -434 85.5 -441.5Q93 -449 103 -449H111Q128 -449 146 -445.5Q164 -442 185 -436.5Q206 -431 216 -429L300 -425Q310 -425 317 -418Q324 -410 324 -400Q324 -390 316.5 -382.5Q309 -375 299 -375Q298 -375 298 -375L212 -379Q210 -379 208 -379Q198 -381 177.5 -386.5Q157 -392 140.5 -395.5Q124 -399 111 -399ZM161 -286Q161 -327 165.5 -408Q170 -489 170 -529Q170 -539 170 -549Q168 -567 167.5 -602Q167 -637 167 -651Q140 -662 108 -707Q95 -725 90 -729Q82 -737 82 -748Q82 -748 82 -749L84 -805Q84 -815 91 -822Q99 -829 109 -829Q119 -829 126 -822L176 -774Q177 -773 178 -772Q203 -743 211 -698Q222 -700 233 -706Q253 -716 297 -745Q326 -764 338 -772Q350 -780 375 -791.5Q400 -803 421 -807Q431 -808 440 -808Q476 -808 497 -787Q513 -771 515 -748Q521 -739 525 -718Q527 -707 529 -705Q532 -699 532 -692Q532 -682 524.5 -674.5Q517 -667 507 -667Q493 -667 485 -679Q480 -689 476 -708Q473 -722 471 -725Q466 -731 466 -739.5Q466 -748 462 -752Q455 -758 439 -758Q434 -758 429 -757Q397 -752 325 -703Q278 -672 255 -661Q234 -651 217 -647Q217 -637 217.5 -603Q218 -569 220 -552Q220 -549 220 -529Q220 -488 215.5 -407Q211 -326 211 -286Q211 -261 212 -239Q212 -239 212 -238Q212 -235 211 -233Q209 -222 209 -197Q209 -185 210 -159.5Q211 -134 211 -121Q211 -92 207 -71Q201 -27 178 -5Q154 19 115 19Q113 19 103 19Q76 18 63 10Q50 2 50 -12Q50 -22 57.5 -29.5Q65 -37 75 -37Q82 -37 87 -34Q91 -32 106 -31Q115 -31 116 -31Q134 -31 143 -40Q154 -51 158 -79Q161 -96 161 -122Q161 -135 160 -161Q159 -187 159 -200Q159 -224 162 -240Q161 -262 161 -286Z"/>
	<path fill="#daa520" d="M113 -419Q108 -419 108 -424Q108 -429 113 -429H121Q136 -429 153.5 -425.5Q171 -422 192 -416.5Q213 -411 224 -409L309 -405Q314 -405 314 -400Q314 -395 309 -395L223 -399Q222 -399 222 -399Q212 -401 191 -406.5Q170 -412 153 -415.5Q136 -419 121 -419ZM191 -286Q191 -326 195.5 -407Q200 -488 200 -529Q200 -540 200 -550Q198 -569 197.5 -608Q197 -647 196 -666Q182 -668 169.5 -677.5Q157 -687 151 -695Q145 -703 135 -718Q121 -738 114 -744Q112 -746 112 -748L114 -804Q114 -809 119 -809Q121 -809 122 -808L172 -760Q173 -759 173 -759Q199 -729 205 -675Q220 -675 240.5 -683.5Q261 -692 276.5 -701.5Q292 -711 318 -728Q344 -746 358 -754.5Q372 -763 394 -773.5Q416 -784 434 -787Q442 -788 450 -788Q448 -790 448 -790.5Q448 -791 449 -791Q459 -791 482 -775Q505 -759 506 -742Q511 -734 515 -714Q518 -700 521 -695Q522 -693 522 -692Q522 -687 517 -687Q514 -687 513 -689Q509 -696 505.5 -713.5Q502 -731 497 -737Q496 -738 496 -740Q496 -759 483 -768.5Q470 -778 450 -778Q443 -778 436 -777Q400 -771 324 -720Q296 -701 282 -692.5Q268 -684 245.5 -674.5Q223 -665 206 -665Q207 -647 207.5 -608Q208 -569 210 -550Q210 -548 210 -529Q210 -488 205.5 -407Q201 -326 201 -286Q201 -261 202 -238Q202 -237 202 -237Q199 -223 199 -199Q199 -186 200 -160Q201 -134 201 -122Q201 -95 198 -75.5Q195 -56 187 -37Q179 -18 161.5 -8.5Q144 1 119 -1Q92 -2 83 -8Q80 -9 80 -12Q80 -17 85 -17Q86 -17 87 -16Q95 -12 119 -11Q122 -11 125 -11Q164 -11 177.5 -40Q191 -69 191 -122Q191 -134 190 -160Q189 -186 189 -199Q189 -224 192 -238Q191 -261 191 -286ZM165 -753L124 -793L122 -750Q129 -743 143 -724Q152 -710 158 -702.5Q164 -695 174 -687Q184 -679 194 -676Q188 -725 165 -753Z"/>
</svg>