<svg xmlns="http://www.w3.org/2000/svg" viewBox="0 -1024 1024 1024">
	<path fill="#000088" d="M341 -436Q351 -436 358.5 -428.5Q366 -421 366 -411Q366 -405 363 -399L166 -25H445Q455 -25 462.5 -17.5Q470 -10 470 0Q470 10 462.5 17.5Q455 25 445 25H125Q115 25 107.5 17.5Q100 10 100 0Q100 -6 103 -12L319 -423Q326 -436 341 -436ZM366 205Q366 215 358.5 222.5Q351 230 341 230Q331 230 323.5 222.5Q316 215 316 205V-411Q316 -421 323.5 -428.5Q331 -436 341 -436Q351 -436 358.5 -428.5Q366 -421 366 -411ZM371.5 216.5Q364 209 364 199Q364 189 371.5 181.5Q379 174 389 174Q399 174 406.5 181.5Q414 189 414 199Q414 209 406.5 216.5Q399 224 389 224Q379 224 371.5 216.5Z"/>
	<path fill="#800080" d="M291 -436Q301 -436 308.5 -428.5Q316 -421 316 -411Q316 -405 313 -399L116 -25H395Q405 -25 412.5 -17.5Q420 -10 420 0Q420 10 412.5 17.5Q405 25 395 25H75Q65 25 57.5 17.5Q50 10 50 0Q50 -6 53 -12L269 -423Q276 -436 291 -436ZM316 205Q316 215 308.5 222.5Q301 230 291 230Q281 230 273.5 222.5Q266 215 266 205V-411Q266 -421 273.5 -428.5Q281 -436 291 -436Q301 -436 308.5 -428.5Q316 -421 316 -411ZM321.5 216.5Q314 209 314 199Q314 189 321.5 181.5Q329 174 339 174Q349 174 356.5 181.5Q364 189 364 199Q364 209 356.5 216.5Q349 224 339 224Q329 224 321.5 216.5Z"/>
	<path fill="#daa520" d="M291 -416Q296 -416 296 -411Q296 -410 295 -409L83 -5H395Q400 -5 400 0Q400 5 395 5H75Q70 5 70 0Q70 -1 71 -2L287 -413Q288 -416 291 -416ZM296 205Q296 210 291 210Q286 210 286 205V-411Q286 -416 291 -416Q296 -416 296 -411ZM339 204Q334 204 334 199Q334 194 339 194Q344 194 344 199Q344 204 339 204Z"/>
</svg>