<svg xmlns="http://www.w3.org/2000/svg" viewBox="0 -1024 1024 1024">
	<path fill="#000088" d="M257 -233Q257 -224 273 -201Q299 -162 299 -135Q299 -136 299.5 -136Q300 -136 300 -135Q300 -122 288.5 -83.5Q277 -45 260 -28Q216 20 145 22Q144 22 144 22Q139 22 135 20Q110 10 89 -11Q35 -64 10 -190Q-7 -278 -15 -444Q-16 -471 -17 -482Q-19 -502 -19 -523Q-19 -586 1 -642.5Q21 -699 60 -738Q121 -799 212 -799Q235 -799 259 -795Q270 -794 281 -792Q292 -790 303.5 -784.5Q315 -779 322.5 -775.5Q330 -772 341.5 -763.5Q353 -755 357 -752Q361 -749 373.5 -739Q386 -729 388 -727Q397 -720 397 -708Q397 -698 389.5 -690.5Q382 -683 372 -683Q363 -683 356 -689Q314 -723 297 -732Q274 -744 255 -745Q253 -745 252 -745Q230 -749 211 -749Q141 -749 95 -703Q64 -672 47.5 -624Q31 -576 31 -522Q31 -504 33 -487Q33 -484 35 -446Q42 -284 59 -200Q81 -89 124 -46Q136 -35 149 -28Q196 -32 224 -62Q224 -62 224 -63Q249 -87 249 -135Q249 -147 231 -173Q207 -209 207 -233Q207 -236 206 -242.5Q205 -249 205 -253Q205 -276 222 -293Q245 -316 284 -316Q295 -316 315.5 -317.5Q336 -319 346.5 -319Q357 -319 365 -317Q389 -314 402 -301Q419 -284 419 -254Q419 -221 395 -166Q375 -120 375 -98Q375 -96 383 -88Q386 -85 387 -84L422 -81Q432 -80 438.5 -73Q445 -66 445 -56Q445 -46 437.5 -38.5Q430 -31 420 -31Q419 -31 418 -31L372 -35Q360 -36 353 -46Q352 -48 346 -54Q325 -76 325 -98Q325 -131 349 -186Q369 -232 369 -254L367 -265Q365 -267 359 -268Q354 -268 347 -268Q337 -268 316 -267Q295 -266 284 -266Q266 -266 257 -257Q255 -255 255 -253Q255 -251 256 -244Q257 -237 257 -233Z"/>
	<path fill="#800080" d="M326 -233Q326 -224 342 -201Q368 -162 368 -135Q368 -136 368.5 -136Q369 -136 369 -135Q369 -122 357.5 -83.5Q346 -45 329 -28Q285 20 214 22Q213 22 213 22Q208 22 204 20Q179 10 158 -11Q104 -64 79 -190Q62 -278 54 -444Q53 -471 52 -482Q50 -502 50 -523Q50 -586 70 -642.5Q90 -699 129 -738Q190 -799 281 -799Q304 -799 328 -795Q339 -794 350 -792Q361 -790 372.5 -784.5Q384 -779 391.5 -775.5Q399 -772 410.5 -763.5Q422 -755 426.5 -752Q431 -749 443 -739Q455 -729 457 -727Q466 -720 466 -708Q466 -698 458.5 -690.5Q451 -683 441 -683Q432 -683 425 -689Q383 -723 366 -732Q343 -744 324 -745Q322 -745 321 -745Q299 -749 280 -749Q210 -749 164 -703Q133 -672 116.5 -624Q100 -576 100 -522Q100 -504 102 -487Q102 -484 104 -446Q111 -284 128 -200Q151 -89 193 -46Q205 -35 218 -28Q265 -32 293 -62Q293 -62 293 -63Q318 -87 318 -135Q318 -147 300 -173Q276 -209 276 -233Q276 -236 275 -242.5Q274 -249 274 -253Q274 -276 291 -293Q314 -316 353 -316Q364 -316 384.5 -317.5Q405 -319 415.5 -319Q426 -319 434 -317Q458 -314 471 -301Q488 -284 488 -254Q488 -221 464 -166Q444 -120 444 -98Q444 -96 452 -88Q455 -85 456 -84L491 -81Q501 -80 507.5 -73Q514 -66 514 -56Q514 -46 506.5 -38.5Q499 -31 489 -31Q488 -31 487 -31L441 -35Q429 -36 422 -46Q421 -48 415 -54Q394 -76 394 -98Q394 -131 418 -186Q438 -232 438 -254L436 -265Q434 -267 428 -268Q423 -268 416 -268Q407 -268 385.5 -267Q364 -266 353 -266Q335 -266 326 -257Q324 -255 324 -253Q324 -251 325 -244Q326 -237 326 -233Z"/>
	<path fill="#daa520" d="M314 -253Q314 -250 315 -243.5Q316 -237 316 -233Q316 -218 335 -190Q358 -156 358 -135Q358 -75 325 -42Q286 0 223 2Q222 2 221 2Q150 -27 117 -159Q93 -253 84 -445Q83 -472 82 -484Q80 -503 80 -522Q80 -589 102 -646Q124 -703 173 -741Q222 -779 290 -779Q312 -779 336 -775Q344 -775 353.5 -772.5Q363 -770 370 -768Q377 -766 386.5 -760.5Q396 -755 401 -752.5Q406 -750 416 -742.5Q426 -735 429 -732.5Q432 -730 442.5 -721.5Q453 -713 454 -712Q456 -710 456 -708Q456 -703 451 -703Q449 -703 448 -704Q446 -705 438.5 -711.5Q431 -718 428.5 -720Q426 -722 418 -728Q410 -734 406.5 -736Q403 -738 396 -743Q389 -748 384.5 -750Q380 -752 373 -755.5Q366 -759 360.5 -760.5Q355 -762 348 -763.5Q341 -765 335 -765Q334 -765 334 -765Q311 -769 290 -769Q226 -769 179 -733Q132 -697 111 -642.5Q90 -588 90 -522Q90 -503 92 -485Q92 -482 94 -445Q103 -255 126 -162Q159 -35 224 -8Q282 -10 317 -48V-49Q348 -79 348 -135Q348 -153 327 -184Q306 -215 306 -233Q306 -236 305 -243Q304 -250 304 -253Q304 -274 322.5 -285Q341 -296 363 -296Q374 -296 395 -297.5Q416 -299 426 -299Q448 -299 460 -292Q478 -282 478 -254Q478 -226 456 -175.5Q434 -125 434 -98Q434 -92 437.5 -86.5Q441 -81 447.5 -74Q454 -67 456 -65L499 -61Q504 -61 504 -56Q504 -51 499 -51L453 -55Q450 -55 449 -57Q447 -61 439.5 -68Q432 -75 428 -82Q424 -89 424 -98Q424 -126 446 -176.5Q468 -227 468 -254Q468 -276 455 -284Q446 -289 426 -289Q416 -289 395 -287.5Q374 -286 363 -286Q344 -286 329 -277Q314 -268 314 -253Z"/>
</svg>