<svg xmlns="http://www.w3.org/2000/svg" viewBox="0 -1024 1024 1024">
	<path fill="#000088" d="M377 -422Q377 -404 341 -366L119 -131L65 -182L277 -407L55 -620L112 -679L376 -426Q377 -425 377 -422Z"/>
	<path fill="#800080" d="M50 -635Q50 -645 57.5 -652.5Q65 -660 75 -660Q85 -660 92 -653L326 -429Q334 -422 334 -411Q334 -401 327 -394L105 -159Q98 -151 87 -151Q77 -151 69.5 -158.5Q62 -166 62 -176Q62 -186 69 -193L274 -410L58 -617Q50 -624 50 -635Z"/>
	<path fill="#daa520" d="M80 -635Q80 -640 85 -640Q87 -640 88 -639L322 -415Q324 -413 324 -411Q324 -409 323 -408L101 -173Q99 -171 97 -171Q92 -171 92 -176Q92 -178 93 -179L312 -411L82 -631Q80 -633 80 -635Z"/>
</svg>