<svg xmlns="http://www.w3.org/2000/svg" viewBox="0 -1024 1024 1024">
	<path fill="#000088" d="M312 -696Q283 -700 225.5 -728.5Q168 -757 128 -757H126V-716L136 -666Q136 -666 136 -659Q136 -645 126 -635Q116 -625 102 -625Q73 -625 68 -652L55 -716V-782L90 -817Q93 -818 106 -822.5Q119 -827 128 -827Q168 -827 230 -796Q292 -765 332 -765Q333 -765 335 -767L370 -802Q373 -806 378 -807L414 -772Q414 -754 403 -743L388 -729Q380 -696 380 -643Q380 -626 382 -604Q380 -556 380 -532Q380 -475 386 -361Q479 -435 505 -460Q526 -482 544 -508Q536 -591 536 -605Q536 -620 537 -628Q537 -653 548 -707Q559 -761 576 -778L612 -813Q618 -819 624 -819Q625 -819 626 -818L662 -783Q665 -780 665 -758Q665 -756 666 -753V-750Q672 -715 672 -686Q672 -591 614 -508Q614 -506 615 -501Q616 -496 616 -494Q629 -453 631 -330Q632 -275 633.5 -242.5Q635 -210 644.5 -168Q654 -126 671 -100Q687 -91 692 -89L756 -57Q761 -56 770.5 -53Q780 -50 784 -48Q807 -41 807 -16Q807 -2 797 7.5Q787 17 773 17Q766 17 756 13Q701 -15 692 -19Q670 -27 652 -45L616 -81Q591 -106 578.5 -151.5Q566 -197 564 -231Q562 -265 561 -330Q559 -417 556 -440L523 -407Q491 -375 389 -293Q393 -213 393 -177Q393 -60 355 -22L320 14Q303 31 276 31Q237 29 210 2L175 -33Q156 -52 156 -74Q156 -82 157 -86Q178 -166 254 -242Q296 -284 318 -304Q309 -473 309 -532Q309 -556 311 -604Q309 -626 309 -643Q309 -669 312 -696ZM321 -236Q319 -234 314.5 -230.5Q310 -227 308 -225Q247 -157 228 -86Q226 -78 226 -74Q226 -64 231 -52Q254 -39 276 -39Q288 -39 300 -44Q322 -86 322 -177Q322 -215 321 -236Z"/>
	<path fill="#800080" d="M538 -515Q531 -577 531 -605Q531 -617 532 -629Q532 -662 545 -716Q551 -744 559 -764Q568 -785 579 -796Q592 -809 609 -809Q621 -809 629 -801Q634 -796 636.5 -788.5Q639 -781 640 -753Q646 -719 646 -686Q646 -612 615 -547Q604 -524 589 -502Q590 -500 590 -499Q604 -452 605 -331Q606 -270 608.5 -236.5Q611 -203 622 -161Q633 -119 654 -98Q668 -85 686 -77Q698 -72 751 -45Q760 -42 765 -38Q772 -30 772 -20Q772 -10 764.5 -2.5Q757 5 747 5Q743 5 733 2Q731 1 719 -5Q707 -11 691 -19Q675 -27 668 -31Q640 -42 619 -63Q581 -100 567 -170Q557 -220 556 -330Q554 -413 549 -450Q530 -429 504.5 -405.5Q479 -382 461 -367Q443 -352 410 -325.5Q377 -299 364 -288Q367 -217 367 -177Q367 -132 362 -99Q352 -34 322 -4Q297 21 261 21Q213 21 177 -15Q151 -42 151 -75Q151 -84 153 -92Q169 -156 210.5 -207.5Q252 -259 313 -311Q304 -480 304 -531Q304 -569 306 -603Q304 -621 304 -644Q304 -676 308 -705Q267 -707 204 -739Q147 -767 113 -767Q108 -767 100 -764V-718L110 -671Q110 -668 110 -666Q110 -656 102.5 -648.5Q95 -641 85 -641Q76 -641 69 -647Q62 -653 60 -661L50 -711Q50 -714 50 -716V-782Q50 -790 55.5 -797Q61 -804 68 -806Q72 -807 80 -810Q88 -813 96 -815Q104 -817 113 -817Q135 -817 157.5 -811Q180 -805 192.5 -799.5Q205 -794 227 -783Q284 -755 317 -755Q318 -755 320 -755Q332 -787 354 -795Q358 -797 363 -797Q373 -797 380.5 -789.5Q388 -782 388 -772Q388 -737 361 -718Q354 -686 354 -643Q354 -622 356 -607Q356 -605 356 -604Q356 -603 356 -603Q354 -569 354 -532Q354 -473 361 -350Q456 -426 490 -461Q518 -488 538 -515ZM581 -605Q581 -601 581 -597Q596 -639 596 -685Q596 -698 595 -711Q594 -708 593 -705Q582 -655 582 -628Q582 -624 581.5 -616.5Q581 -609 581 -605ZM315 -247Q303 -235 292 -224Q220 -153 201 -80Q201 -77 201 -74Q201 -56 221.5 -43Q242 -30 261 -29Q277 -29 287 -39Q305 -58 312 -106Q317 -136 317 -177Q317 -200 315 -247Z"/>
	<path fill="#daa520" d="M358 -746Q364 -752 367 -761Q362 -755 358 -746ZM353 -310Q361 -317 407.5 -354Q454 -391 472 -406.5Q490 -422 519.5 -452.5Q549 -483 568 -510Q561 -579 561 -605Q561 -617 562 -628Q562 -668 578 -727Q586 -757 596 -773Q606 -789 619 -789Q627 -789 629 -777Q630 -771 630 -758Q630 -752 630 -751Q636 -717 636 -686Q636 -590 579 -507Q579 -501 580 -495Q594 -450 596 -330Q596 -292 597 -271Q598 -250 600.5 -217Q603 -184 609 -163.5Q615 -143 625 -120Q635 -97 651 -82Q667 -67 689 -59Q698 -55 753 -27Q762 -24 762 -20Q762 -15 757 -15Q756 -15 749 -17Q749 -17 735 -24.5Q721 -32 705 -40Q689 -48 685 -49Q665 -58 649 -72Q633 -86 623 -101Q613 -116 605.5 -141Q598 -166 594.5 -183Q591 -200 589 -232Q587 -264 586.5 -280Q586 -296 586 -330Q584 -449 570 -492Q570 -493 570 -495Q550 -468 520.5 -439Q491 -410 470 -392Q449 -374 409 -342Q369 -310 353 -297Q357 -220 357 -177Q357 1 271 1Q239 0 210 -21.5Q181 -43 181 -74Q181 -82 182 -87Q198 -148 238.5 -198Q279 -248 343 -302Q334 -486 334 -532Q334 -570 336 -604Q334 -621 334 -643Q334 -691 342 -727Q335 -725 327 -725Q287 -725 224.5 -756Q162 -787 123 -787Q117 -787 90 -778V-716L100 -667Q100 -666 100 -666Q100 -661 95 -661Q91 -661 90 -665L80 -715Q80 -716 80 -716V-782Q80 -786 84 -787Q88 -788 95 -791Q102 -794 109 -795.5Q116 -797 123 -797Q164 -797 228 -765Q289 -735 327 -735Q337 -735 345 -738Q354 -770 371 -777Q372 -777 373 -777Q378 -777 378 -772Q378 -743 353 -731Q344 -695 344 -643Q344 -621 346 -605Q346 -604 346 -604Q344 -570 344 -532Q344 -482 353 -310ZM618 -779Q611 -778 605 -767Q595 -753 588 -724Q572 -666 572 -628Q572 -624 571.5 -616.5Q571 -609 571 -605Q571 -578 577 -523Q626 -598 626 -686Q626 -716 620 -749Q620 -751 620 -756V-757Q620 -774 618 -779ZM344 -289Q283 -238 245 -190Q207 -142 192 -85Q191 -80 191 -74Q191 -49 217 -29.5Q243 -10 271 -9Q347 -9 347 -177Q347 -217 344 -289Z"/>
</svg>