<svg xmlns="http://www.w3.org/2000/svg" viewBox="0 -1024 1024 1024">
	<path fill="#000088" d="M90 -376Q75 -376 65 -386Q55 -396 55 -411Q55 -426 65 -436Q75 -446 90 -446H438Q453 -446 463.5 -436Q474 -426 474 -411Q474 -396 463.5 -386Q453 -376 438 -376Z"/>
	<path fill="#800080" d="M75 -386Q65 -386 57.5 -393.5Q50 -401 50 -411Q50 -421 57.5 -428.5Q65 -436 75 -436H423Q433 -436 440.5 -428.5Q448 -421 448 -411Q448 -401 440.5 -393.5Q433 -386 423 -386Z"/>
	<path fill="#daa520" d="M85 -406Q80 -406 80 -411Q80 -416 85 -416H433Q438 -416 438 -411Q438 -406 433 -406Z"/>
</svg>