<svg xmlns="http://www.w3.org/2000/svg" viewBox="0 -1024 1024 1024">
	<path fill="#000088" d="M318 -299Q320 -103 320 -84Q320 -80 319.5 -77.5Q319 -75 318.5 -72Q318 -69 318 -67Q314 -38 288 -11Q254 23 215 23Q200 23 184 14Q169 6 154 -9Q136 -26 126 -46Q116 -64 116 -80Q116 -89 120 -100Q123 -110 131 -123Q145 -149 173 -189Q207 -237 268 -316Q268 -352 268 -382Q268 -425 256 -483Q254 -481 251 -478Q229 -456 209 -456Q204 -456 200 -457Q170 -458 146 -483Q127 -502 114 -532Q100 -565 100 -594Q100 -633 139 -672Q146 -679 161 -692Q176 -705 182 -712Q204 -734 204 -748Q204 -757 207 -768Q208 -771 208 -772Q208 -781 208 -786Q208 -802 215 -810Q223 -817 233 -817Q255 -817 259 -790Q260 -786 261 -774.5Q262 -763 263.5 -754Q265 -745 265 -742Q266 -739 266 -736Q266 -733 266 -726.5Q266 -720 266 -717Q266 -662 291 -555Q318 -443 318 -382Q318 -382 318 -381Q318 -380 318 -379Q338 -404 344 -414L367 -482Q373 -499 391 -499Q401 -499 408.5 -491.5Q416 -484 416 -474Q416 -470 415 -466L391 -394Q390 -391 387 -388Q381 -379 318 -299ZM270 -85Q270 -135 269 -235Q242 -199 227 -178Q179 -112 168 -86L166 -80Q167 -76 170 -69Q184 -44 206 -31Q212 -27 215 -27Q233 -27 253 -47Q266 -60 268 -72Q268 -75 270 -85ZM217 -676Q211 -669 196 -656Q181 -643 174 -636Q150 -612 150 -594Q150 -576 160 -551Q169 -530 181 -518Q192 -507 203 -507Q205 -507 208 -507Q211 -509 216 -514Q232 -530 245 -533Q221 -632 217 -676Z"/>
	<path fill="#800080" d="M268 -299Q270 -103 270 -84Q270 -80 269.5 -77.5Q269 -75 268.5 -72Q268 -69 268 -67Q264 -38 238 -11Q204 23 165 23Q150 23 134 14Q119 6 104 -9Q86 -26 76 -46Q66 -64 66 -80Q66 -89 70 -100Q73 -110 81 -123Q95 -149 123 -189Q157 -237 218 -316Q218 -352 218 -382Q218 -425 206 -483Q204 -481 201 -478Q179 -456 159 -456Q154 -456 150 -457Q120 -458 96 -483Q77 -502 64 -532Q50 -565 50 -594Q50 -633 89 -672Q96 -679 111 -692Q126 -705 132 -712Q154 -734 154 -748Q154 -757 157 -768Q158 -771 158 -772Q158 -781 158 -786Q158 -802 165 -810Q173 -817 183 -817Q205 -817 209 -790Q210 -786 211 -774.5Q212 -763 213.5 -754Q215 -745 215 -742Q216 -739 216 -736Q216 -733 216 -726.5Q216 -720 216 -717Q216 -662 241 -555Q268 -443 268 -382Q268 -382 268 -381Q268 -380 268 -379Q288 -404 294 -414L317 -482Q323 -499 341 -499Q351 -499 358.5 -491.5Q366 -484 366 -474Q366 -470 365 -466L341 -394Q340 -391 337 -388Q331 -379 268 -299ZM220 -85Q220 -135 219 -235Q192 -199 177 -178Q129 -112 118 -86L116 -80Q117 -76 120 -69Q134 -44 156 -31Q162 -27 165 -27Q183 -27 203 -47Q216 -60 218 -72Q218 -75 220 -85ZM167 -676Q161 -669 146 -656Q131 -643 124 -636Q100 -612 100 -594Q100 -576 110 -551Q119 -530 131 -518Q142 -507 153 -507Q155 -507 158 -507Q161 -509 166 -514Q182 -530 195 -533Q171 -632 167 -676Z"/>
	<path fill="#daa520" d="M153 -487Q154 -487 156 -486.5Q158 -486 158 -486Q166 -486 180 -500Q196 -515 207 -515Q212 -515 212 -510Q212 -505 207 -505Q200 -505 187 -492Q171 -476 158 -476Q155 -476 152 -477Q117 -477 93.5 -518Q70 -559 70 -594Q70 -610 79.5 -627Q89 -644 98 -653Q107 -662 125 -678Q142 -693 150.5 -701.5Q159 -710 166.5 -723Q174 -736 174 -748Q174 -753 176 -760.5Q178 -768 178 -772Q178 -781 178 -786Q178 -787 178 -789Q178 -791 178 -791.5Q178 -792 178 -793Q178 -797 183 -797Q188 -797 189 -788Q190 -783 191 -771.5Q192 -760 193.5 -750.5Q195 -741 196 -737Q196 -737 196 -736Q196 -733 196 -726.5Q196 -720 196 -717Q196 -660 222 -550Q248 -440 248 -382Q248 -355 248 -322Q306 -395 312 -404L336 -476Q337 -479 341 -479Q346 -479 346 -474Q346 -473 346 -472L322 -400Q322 -400 321 -399Q316 -392 248 -306Q250 -92 250 -84Q250 -81 249 -76.5Q248 -72 248 -70Q248 -70 248 -69Q245 -43 218.5 -20Q192 3 165 3Q144 3 119 -22Q86 -55 86 -80Q86 -102 139 -178Q174 -227 238 -309Q238 -350 238 -382Q238 -439 212 -549Q186 -659 186 -717Q186 -726 186 -736Q185 -740 184 -748Q184 -733 175 -718Q166 -703 158 -694.5Q150 -686 132 -671Q115 -655 106 -646Q97 -637 88.5 -622.5Q80 -608 80 -594Q80 -563 101 -525Q122 -487 153 -487ZM238 -293Q180 -218 147 -172Q96 -99 96 -80Q96 -59 126 -29Q149 -7 165 -7Q188 -7 211.5 -28Q235 -49 238 -70Q238 -73 239 -77.5Q240 -82 240 -84Q240 -110 238 -293Z"/>
</svg>