<svg xmlns="http://www.w3.org/2000/svg" viewBox="0 -1024 1024 1024">
	<path fill="#000088" d="M90 -707Q75 -707 65 -717Q55 -727 55 -742Q55 -757 65 -767Q75 -777 90 -777H138Q166 -777 197.5 -785.5Q229 -794 246 -802L264 -811L300 -776Q314 -666 314 -523Q314 -431 306 -330Q359 -415 420 -476L455 -512Q488 -545 524 -571L527 -574Q577 -628 605 -656L640 -691Q690 -741 706 -741L742 -706Q761 -664 761 -618Q761 -545 707 -491L671 -456Q631 -416 570.5 -393.5Q510 -371 448 -371H440V-366Q440 -324 465 -273Q490 -222 534 -178Q585 -127 651 -96Q717 -65 782 -65H784Q792 -83 797 -88L832 -123Q842 -131 850 -131Q860 -131 867.5 -123.5Q875 -116 875 -105Q875 -94 868 -87L863 -83Q859 -78 852.5 -61.5Q846 -45 840 -39L804 -3Q796 5 782 5Q713 5 643.5 -30.5Q574 -66 516 -124L481 -160Q397 -244 375 -326Q329 -251 280 -148Q255 -41 220 -6L184 29Q180 33 172 39L137 4Q162 -46 210 -148Q243 -296 243 -523Q243 -636 234 -727Q186 -707 138 -707ZM691 -618Q691 -636 686 -661Q677 -655 657 -636Q650 -628 619.5 -596Q589 -564 576 -551L541 -516Q532 -507 524 -501Q502 -485 473 -458Q463 -448 458 -442Q572 -445 652 -510Q691 -559 691 -618Z"/>
	<path fill="#800080" d="M228 -739Q171 -717 123 -717H75Q65 -717 57.5 -724.5Q50 -732 50 -742Q50 -752 57.5 -759.5Q65 -767 75 -767H123Q147 -767 175.5 -775Q204 -783 221 -790L237 -798Q243 -801 249 -801Q258 -801 265.5 -794.5Q273 -788 274 -779Q288 -667 288 -523Q288 -404 278 -297Q345 -417 422 -494Q456 -528 494 -556Q498 -559 508 -569Q519 -580 548 -612Q588 -654 607 -674Q635 -701 653 -714Q663 -722 672 -726Q682 -731 691 -731Q707 -731 714 -716Q736 -666 736 -618Q736 -591 729 -566Q714 -514 674 -473Q629 -429 564.5 -405Q500 -381 433 -381Q424 -381 416 -382Q414 -374 414 -366Q414 -344 424 -317Q449 -247 519 -177Q573 -123 639 -89Q705 -55 767 -55Q770 -55 771 -56Q775 -60 781 -74Q797 -113 817 -113Q827 -113 834.5 -105.5Q842 -98 842 -88Q842 -77 834 -70Q832 -68 827 -55Q817 -31 807 -21Q791 -5 767 -5Q692 -5 618 -43Q544 -81 483 -142Q406 -220 377 -300Q368 -324 365 -345Q316 -270 253 -139Q228 -29 187 12Q179 20 171 25Q164 29 157 29Q147 29 139.5 21.5Q132 14 132 4Q132 -2 135 -7Q141 -20 206 -156Q238 -302 238 -523Q238 -641 228 -739ZM686 -618Q686 -643 678 -670Q664 -659 643 -638Q627 -622 592.5 -585Q558 -548 543 -533Q531 -521 524 -516Q475 -480 432 -431Q515 -431 588.5 -471.5Q662 -512 680 -579Q686 -598 686 -618Z"/>
	<path fill="#daa520" d="M85 -737Q80 -737 80 -742Q80 -747 85 -747H133Q160 -747 191 -755.5Q222 -764 239 -772L257 -780Q258 -781 259 -781Q263 -781 264 -777Q278 -666 278 -523Q278 -328 252 -186Q311 -305 371.5 -391.5Q432 -478 516 -540Q526 -548 573 -598Q628 -657 652 -680Q687 -711 701 -711Q704 -711 706 -708Q726 -661 726 -618Q726 -552 682 -501.5Q638 -451 574.5 -426Q511 -401 443 -401Q427 -401 412 -403Q404 -387 404 -366Q404 -321 437.5 -263.5Q471 -206 522 -155.5Q573 -105 642.5 -70Q712 -35 777 -35Q790 -35 796 -42.5Q802 -50 809 -66Q817 -85 824 -92Q825 -93 827 -93Q832 -93 832 -88Q832 -86 830 -84Q825 -79 818 -63Q814 -51 810.5 -45Q807 -39 798 -32Q789 -25 777 -25Q710 -25 638.5 -60.5Q567 -96 514.5 -148Q462 -200 428 -259.5Q394 -319 394 -366Q394 -391 405 -410Q406 -413 409 -413Q409 -413 410 -413Q426 -411 443 -411Q509 -411 570.5 -435Q632 -459 674 -507.5Q716 -556 716 -618Q716 -658 698 -700Q685 -696 659 -672Q635 -650 580 -591Q533 -540 522 -532Q475 -497 434 -453Q393 -409 358.5 -355.5Q324 -302 299.5 -256Q275 -210 244 -146Q216 -22 170 8Q168 9 167 9Q162 9 162 4Q162 3 163 2Q166 -6 235 -149Q268 -298 268 -523Q268 -660 255 -768Q190 -737 133 -737ZM184 -19Q204 -45 220 -95Q196 -45 184 -19Z"/>
</svg>