<svg xmlns="http://www.w3.org/2000/svg" viewBox="0 -1024 1024 1024">
	<path fill="#000088" d="M278 -739Q221 -717 173 -717H125Q115 -717 107.5 -724.5Q100 -732 100 -742Q100 -752 107.5 -759.5Q115 -767 125 -767H173Q197 -767 225.5 -775Q254 -783 271 -790L287 -798Q293 -801 299 -801Q308 -801 315.5 -794.5Q323 -788 324 -779Q338 -667 338 -523Q338 -404 328 -297Q395 -417 472 -494Q506 -528 544 -556Q548 -559 558 -569Q569 -580 598 -612Q638 -654 657 -674Q685 -701 703 -714Q713 -722 722 -726Q732 -731 741 -731Q757 -731 764 -716Q786 -666 786 -618Q786 -591 779 -566Q764 -514 724 -473Q679 -429 614.5 -405Q550 -381 483 -381Q474 -381 466 -382Q464 -374 464 -366Q464 -344 474 -317Q499 -247 569 -177Q623 -123 689 -89Q755 -55 817 -55Q820 -55 821 -56Q825 -60 831 -74Q847 -113 867 -113Q877 -113 884.5 -105.5Q892 -98 892 -88Q892 -77 884 -70Q882 -68 877 -55Q867 -31 857 -21Q841 -5 817 -5Q742 -5 668 -43Q594 -81 533 -142Q456 -220 427 -300Q418 -324 415 -345Q366 -270 303 -139Q278 -29 237 12Q229 20 221 25Q214 29 207 29Q197 29 189.5 21.5Q182 14 182 4Q182 -2 185 -7Q191 -20 256 -156Q288 -302 288 -523Q288 -641 278 -739ZM736 -618Q736 -643 728 -670Q714 -659 693 -638Q677 -622 642.5 -585Q608 -548 593 -533Q581 -521 574 -516Q525 -480 482 -431Q565 -431 638.5 -471.5Q712 -512 730 -579Q736 -598 736 -618Z"/>
	<path fill="#800080" d="M228 -739Q171 -717 123 -717H75Q65 -717 57.5 -724.5Q50 -732 50 -742Q50 -752 57.5 -759.5Q65 -767 75 -767H123Q147 -767 175.5 -775Q204 -783 221 -790L237 -798Q243 -801 249 -801Q258 -801 265.5 -794.5Q273 -788 274 -779Q288 -667 288 -523Q288 -404 278 -297Q345 -417 422 -494Q456 -528 494 -556Q498 -559 508 -569Q519 -580 548 -612Q588 -654 607 -674Q635 -701 653 -714Q663 -722 672 -726Q682 -731 691 -731Q707 -731 714 -716Q736 -666 736 -618Q736 -591 729 -566Q714 -514 674 -473Q629 -429 564.5 -405Q500 -381 433 -381Q424 -381 416 -382Q414 -374 414 -366Q414 -344 424 -317Q449 -247 519 -177Q573 -123 639 -89Q705 -55 767 -55Q770 -55 771 -56Q775 -60 781 -74Q797 -113 817 -113Q827 -113 834.5 -105.5Q842 -98 842 -88Q842 -77 834 -70Q832 -68 827 -55Q817 -31 807 -21Q791 -5 767 -5Q692 -5 618 -43Q544 -81 483 -142Q406 -220 377 -300Q368 -324 365 -345Q316 -270 253 -139Q228 -29 187 12Q179 20 171 25Q164 29 157 29Q147 29 139.5 21.5Q132 14 132 4Q132 -2 135 -7Q141 -20 206 -156Q238 -302 238 -523Q238 -641 228 -739ZM686 -618Q686 -643 678 -670Q664 -659 643 -638Q627 -622 592.5 -585Q558 -548 543 -533Q531 -521 524 -516Q475 -480 432 -431Q515 -431 588.5 -471.5Q662 -512 680 -579Q686 -598 686 -618Z"/>
	<path fill="#daa520" d="M135 -737Q130 -737 130 -742Q130 -747 135 -747H183Q210 -747 241 -755.5Q272 -764 289 -772L307 -780Q308 -781 309 -781Q313 -781 314 -777Q328 -666 328 -523Q328 -328 302 -186Q361 -305 421.5 -391.5Q482 -478 566 -540Q576 -548 623 -598Q678 -657 702 -680Q737 -711 751 -711Q754 -711 756 -708Q776 -661 776 -618Q776 -552 732 -501.5Q688 -451 624.5 -426Q561 -401 493 -401Q477 -401 462 -403Q454 -387 454 -366Q454 -321 487.5 -263.5Q521 -206 572 -155.5Q623 -105 692.5 -70Q762 -35 827 -35Q840 -35 846 -42.5Q852 -50 859 -66Q867 -85 874 -92Q875 -93 877 -93Q882 -93 882 -88Q882 -86 880 -84Q875 -79 868 -63Q864 -51 860.5 -45Q857 -39 848 -32Q839 -25 827 -25Q760 -25 688.5 -60.5Q617 -96 564.5 -148Q512 -200 478 -259.5Q444 -319 444 -366Q444 -391 455 -410Q456 -413 459 -413Q459 -413 460 -413Q476 -411 493 -411Q559 -411 620.5 -435Q682 -459 724 -507.5Q766 -556 766 -618Q766 -658 748 -700Q735 -696 709 -672Q685 -650 630 -591Q583 -540 572 -532Q525 -497 484 -453Q443 -409 408.5 -355.5Q374 -302 349.5 -256Q325 -210 294 -146Q266 -22 220 8Q218 9 217 9Q212 9 212 4Q212 3 213 2Q216 -6 285 -149Q318 -298 318 -523Q318 -660 305 -768Q240 -737 183 -737ZM234 -19Q254 -45 270 -95Q246 -45 234 -19Z"/>
</svg>