<svg xmlns="http://www.w3.org/2000/svg" viewBox="0 -1024 1024 1024">
	<path fill="#000088" d="M359 -660Q369 -660 376.5 -652.5Q384 -645 384 -635Q384 -624 376 -617L160 -410L365 -193Q372 -186 372 -176Q372 -166 364.5 -158.5Q357 -151 347 -151Q336 -151 329 -159L107 -394Q100 -401 100 -411Q100 -422 108 -429L342 -653Q349 -660 359 -660Z"/>
	<path fill="#800080" d="M309 -660Q319 -660 326.5 -652.5Q334 -645 334 -635Q334 -624 326 -617L110 -410L315 -193Q322 -186 322 -176Q322 -166 314.5 -158.5Q307 -151 297 -151Q286 -151 279 -159L57 -394Q50 -401 50 -411Q50 -422 58 -429L292 -653Q299 -660 309 -660Z"/>
	<path fill="#daa520" d="M369 -640Q374 -640 374 -635Q374 -633 372 -631L142 -411L361 -179Q362 -178 362 -176Q362 -171 357 -171Q355 -171 353 -173L131 -408Q130 -409 130 -411Q130 -413 132 -415L366 -639Q367 -640 369 -640Z"/>
</svg>