<svg xmlns="http://www.w3.org/2000/svg" viewBox="0 -1024 1024 1024">
	<path fill="#000088" d="M488 -376Q488 -375 488 -374Q488 -373 488 -372Q488 -362 480.5 -354.5Q473 -347 463 -347Q448 -347 441 -360Q436 -369 420.5 -399Q405 -429 398.5 -441.5Q392 -454 378.5 -480.5Q365 -507 357 -525Q349 -543 339.5 -567Q330 -591 322 -613Q322 -588 321 -541Q320 -482 319.5 -455Q319 -428 316 -373Q313 -318 307.5 -286.5Q302 -255 291 -207.5Q280 -160 264.5 -126.5Q249 -93 225.5 -55Q202 -17 171 15Q164 23 153 23Q142 23 133 13Q120 0 111 -25Q102 -49 100 -72Q100 -73 100 -74Q100 -84 107.5 -91.5Q115 -99 125 -99Q135 -99 142 -92.5Q149 -86 150 -76Q151 -61 157 -44Q183 -77 202.5 -113.5Q222 -150 234 -193Q246 -236 253.5 -272Q261 -308 264.5 -361Q268 -414 269 -447.5Q270 -481 271 -542Q273 -727 288 -816Q290 -825 297 -831Q304 -837 313 -837Q323 -837 330.5 -829.5Q338 -822 338 -812Q338 -811 338 -809Q338 -807 338 -806Q338 -720 367.5 -636.5Q397 -553 450 -451Q467 -520 495.5 -602Q524 -684 553 -742Q574 -786 591 -802Q604 -816 619 -816Q632 -816 641 -806Q650 -798 653 -783Q656 -770 656 -748Q656 -705 654.5 -618.5Q653 -532 653 -490Q653 -355 666 -269Q687 -135 746 -56L784 -12Q790 -5 790 4Q790 14 782.5 21.5Q775 29 765 29Q754 29 746 20L708 -24Q708 -24 707 -25Q646 -105 624.5 -216.5Q603 -328 603 -488Q603 -531 604.5 -614Q606 -697 606 -736Q602 -728 598 -720Q572 -668 544.5 -590Q517 -512 501 -449Q488 -398 488 -376Z"/>
	<path fill="#800080" d="M438 -376Q438 -375 438 -374Q438 -373 438 -372Q438 -362 430.5 -354.5Q423 -347 413 -347Q398 -347 391 -360Q386 -369 370.5 -399Q355 -429 348.5 -441.5Q342 -454 328.5 -480.5Q315 -507 307 -525Q299 -543 289.5 -567Q280 -591 272 -613Q272 -588 271 -541Q270 -482 269.5 -455Q269 -428 266 -373Q263 -318 257.5 -286.5Q252 -255 241 -207.5Q230 -160 214.5 -126.5Q199 -93 175.5 -55Q152 -17 121 15Q114 23 103 23Q92 23 83 13Q70 0 61 -25Q52 -49 50 -72Q50 -73 50 -74Q50 -84 57.5 -91.5Q65 -99 75 -99Q85 -99 92 -92.5Q99 -86 100 -76Q101 -61 107 -44Q133 -77 152.5 -113.5Q172 -150 184 -193Q196 -236 203.5 -272Q211 -308 214.5 -361Q218 -414 219 -447.5Q220 -481 221 -542Q223 -727 238 -816Q240 -825 247 -831Q254 -837 263 -837Q273 -837 280.5 -829.5Q288 -822 288 -812Q288 -811 288 -809Q288 -807 288 -806Q288 -720 317.5 -636.5Q347 -553 400 -451Q417 -520 445.5 -602Q474 -684 503 -742Q524 -786 541 -802Q554 -816 569 -816Q582 -816 591 -806Q600 -798 603 -783Q606 -770 606 -748Q606 -705 604.5 -618.5Q603 -532 603 -490Q603 -355 616 -269Q637 -135 696 -56L734 -12Q740 -5 740 4Q740 14 732.5 21.5Q725 29 715 29Q704 29 696 20L658 -24Q658 -24 657 -25Q596 -105 574.5 -216.5Q553 -328 553 -488Q553 -531 554.5 -614Q556 -697 556 -736Q552 -728 548 -720Q522 -668 494.5 -590Q467 -512 451 -449Q438 -398 438 -376Z"/>
	<path fill="#daa520" d="M478 -377Q478 -376 478 -374.5Q478 -373 478 -372Q478 -367 473 -367Q470 -367 469 -370Q465 -376 448.5 -407.5Q432 -439 427 -449Q422 -459 407 -488Q392 -517 386 -531.5Q380 -546 368.5 -573Q357 -600 351.5 -618.5Q346 -637 338.5 -662Q331 -687 327 -710Q323 -733 320 -756Q313 -686 311 -541Q310 -484 309.5 -455.5Q309 -427 306 -374.5Q303 -322 297.5 -290Q292 -258 281.5 -213Q271 -168 256 -135Q241 -102 218.5 -65.5Q196 -29 167 1Q165 3 163 3Q161 3 160 2Q147 -8 139.5 -31Q132 -54 130 -74Q130 -79 135 -79Q140 -79 140 -74Q141 -59 147.5 -39Q154 -19 163 -9Q191 -39 212.5 -74.5Q234 -110 248 -142Q262 -174 272.5 -218Q283 -262 288 -293.5Q293 -325 296 -376Q299 -427 299.5 -456.5Q300 -486 301 -541Q303 -725 318 -813Q319 -817 323 -817Q328 -817 328 -806Q328 -762 337.5 -713.5Q347 -665 357.5 -631Q368 -597 392 -544Q416 -491 427.5 -469Q439 -447 469 -391Q475 -451 517 -574.5Q559 -698 594 -759Q605 -778 613.5 -787Q622 -796 629 -796Q636 -796 640 -789Q646 -778 646 -748Q646 -705 644.5 -618Q643 -531 643 -489Q643 -337 663 -228.5Q683 -120 741 -43L779 1Q780 2 780 4Q780 9 775 9Q773 9 771 7L733 -37Q674 -116 653.5 -226Q633 -336 633 -489Q633 -532 634.5 -618.5Q636 -705 636 -748Q636 -771 632 -781Q631 -786 629 -786Q626 -786 621 -780Q613 -772 603 -754Q581 -715 553 -643Q523 -565 500.5 -486.5Q478 -408 478 -377Z"/>
</svg>