<svg xmlns="http://www.w3.org/2000/svg" viewBox="0 -1024 1024 1024">
	<path fill="#000088" d="M632 -748Q632 -705 630.5 -618.5Q629 -532 629 -489Q629 -337 649.5 -227.5Q670 -118 728 -40L766 4Q772 12 772 21Q772 32 764.5 40Q757 48 746 48Q732 48 725 39L657 -40Q599 -118 578.5 -227.5Q558 -337 558 -489Q558 -491 561 -698Q526 -617 495 -516.5Q464 -416 464 -377V-372H393Q316 -520 297 -565V-541Q296 -463 294.5 -420.5Q293 -378 285.5 -309.5Q278 -241 263.5 -195.5Q249 -150 221.5 -97Q194 -44 154 -2L118 33L116 31L80 -4Q60 -24 55 -74V-77Q55 -91 65.5 -101.5Q76 -112 90 -112Q103 -112 113 -103Q123 -94 125 -80Q127 -61 128 -58Q162 -107 182.5 -163Q203 -219 211.5 -290Q220 -361 222.5 -408Q225 -455 226 -541Q228 -725 243 -812H314V-806Q314 -667 411 -473Q436 -565 475 -663Q514 -761 538 -785L574 -820Q580 -826 584 -826Q587 -826 589 -824L624 -789Q632 -781 632 -748Z"/>
	<path fill="#800080" d="M438 -376Q438 -375 438 -374Q438 -373 438 -372Q438 -362 430.5 -354.5Q423 -347 413 -347Q398 -347 391 -360Q386 -369 370.5 -399Q355 -429 348.5 -441.5Q342 -454 328.5 -480.5Q315 -507 307 -525Q299 -543 289.5 -567Q280 -591 272 -613Q272 -588 271 -541Q270 -482 269.5 -455Q269 -428 266 -373Q263 -318 257.5 -286.5Q252 -255 241 -207.5Q230 -160 214.5 -126.5Q199 -93 175.5 -55Q152 -17 121 15Q114 23 103 23Q92 23 83 13Q70 0 61 -25Q52 -49 50 -72Q50 -73 50 -74Q50 -84 57.5 -91.5Q65 -99 75 -99Q85 -99 92 -92.5Q99 -86 100 -76Q101 -61 107 -44Q133 -77 152.5 -113.5Q172 -150 184 -193Q196 -236 203.5 -272Q211 -308 214.5 -361Q218 -414 219 -447.5Q220 -481 221 -542Q223 -727 238 -816Q240 -825 247 -831Q254 -837 263 -837Q273 -837 280.5 -829.5Q288 -822 288 -812Q288 -811 288 -809Q288 -807 288 -806Q288 -720 317.5 -636.5Q347 -553 400 -451Q417 -520 445.5 -602Q474 -684 503 -742Q524 -786 541 -802Q554 -816 569 -816Q582 -816 591 -806Q600 -798 603 -783Q606 -770 606 -748Q606 -705 604.5 -618.5Q603 -532 603 -490Q603 -355 616 -269Q637 -135 696 -56L734 -12Q740 -5 740 4Q740 14 732.5 21.5Q725 29 715 29Q704 29 696 20L658 -24Q658 -24 657 -25Q596 -105 574.5 -216.5Q553 -328 553 -488Q553 -531 554.5 -614Q556 -697 556 -736Q552 -728 548 -720Q522 -668 494.5 -590Q467 -512 451 -449Q438 -398 438 -376Z"/>
	<path fill="#daa520" d="M428 -377Q428 -376 428 -374.5Q428 -373 428 -372Q428 -367 423 -367Q420 -367 419 -370Q415 -376 398.5 -407.5Q382 -439 377 -449Q372 -459 357 -488Q342 -517 336 -531.5Q330 -546 318.5 -573Q307 -600 301.5 -618.5Q296 -637 288.5 -662Q281 -687 277 -710Q273 -733 270 -756Q263 -686 261 -541Q260 -484 259.5 -455.5Q259 -427 256 -374.5Q253 -322 247.5 -290Q242 -258 231.5 -213Q221 -168 206 -135Q191 -102 168.5 -65.5Q146 -29 117 1Q115 3 113 3Q111 3 110 2Q97 -8 89.5 -31Q82 -54 80 -74Q80 -79 85 -79Q90 -79 90 -74Q91 -59 97.5 -39Q104 -19 113 -9Q141 -39 162.5 -74.5Q184 -110 198 -142Q212 -174 222.5 -218Q233 -262 238 -293.5Q243 -325 246 -376Q249 -427 249.5 -456.5Q250 -486 251 -541Q253 -725 268 -813Q269 -817 273 -817Q278 -817 278 -806Q278 -762 287.5 -713.5Q297 -665 307.5 -631Q318 -597 342 -544Q366 -491 377.5 -469Q389 -447 419 -391Q425 -451 467 -574.5Q509 -698 544 -759Q555 -778 563.5 -787Q572 -796 579 -796Q586 -796 590 -789Q596 -778 596 -748Q596 -705 594.5 -618Q593 -531 593 -489Q593 -337 613 -228.5Q633 -120 691 -43L729 1Q730 2 730 4Q730 9 725 9Q723 9 721 7L683 -37Q624 -116 603.5 -226Q583 -336 583 -489Q583 -532 584.5 -618.5Q586 -705 586 -748Q586 -771 582 -781Q581 -786 579 -786Q576 -786 571 -780Q563 -772 553 -754Q531 -715 503 -643Q473 -565 450.5 -486.5Q428 -408 428 -377Z"/>
</svg>