<svg xmlns="http://www.w3.org/2000/svg" viewBox="0 -1024 1024 1024">
	<path fill="#000088" d="M256 -172Q256 -164 256.5 -147.5Q257 -131 257 -122Q257 -88 253 -62Q245 -15 221 9Q197 33 159 33Q157 33 155 33Q139 30 128 19Q114 4 106 -33Q103 -47 102 -51Q100 -55 100 -60Q100 -70 107.5 -77.5Q115 -85 125 -85Q142 -85 148 -69Q151 -61 154.5 -45Q158 -29 160 -23Q161 -19 163 -17Q177 -18 185 -27Q198 -39 203 -70Q207 -91 207 -124Q207 -132 206.5 -148Q206 -164 206 -171Q205 -195 201 -251.5Q197 -308 194.5 -350.5Q192 -393 192 -430Q192 -537 215.5 -620.5Q239 -704 301 -771Q313 -785 324 -790Q332 -794 340 -794Q353 -794 362 -785Q369 -778 372 -767Q374 -759 374 -748Q374 -737 370.5 -707Q367 -677 367 -668Q367 -667 367 -666Q380 -611 380 -539Q380 -502 375.5 -428.5Q371 -355 371 -320Q371 -235 391 -180Q391 -179 391 -178Q394 -169 413 -123Q423 -190 437 -255Q451 -320 472.5 -392Q494 -464 507.5 -508.5Q521 -553 550 -638.5Q579 -724 589 -756Q591 -760 593 -763L611 -787Q618 -797 631 -797Q641 -797 648.5 -789.5Q656 -782 656 -772Q656 -764 651 -757L635 -736Q626 -707 598.5 -625Q571 -543 559 -505Q547 -467 525 -393.5Q503 -320 491.5 -268.5Q480 -217 468 -148.5Q456 -80 450 -16Q449 -6 442 0.5Q435 7 425 7Q415 7 407 0Q400 -7 400 -17Q398 -25 393 -39Q387 -56 369 -99Q347 -152 343 -165Q321 -228 321 -318Q321 -355 325.5 -428.5Q330 -502 330 -538Q330 -606 319 -653Q317 -661 317 -669Q317 -679 321 -718Q277 -662 260 -591Q243 -520 243 -428Q243 -393 245 -351Q247 -309 251 -252.5Q255 -196 256 -173Q256 -173 256 -172Z"/>
	<path fill="#800080" d="M206 -172Q206 -164 206.5 -147.5Q207 -131 207 -122Q207 -88 203 -62Q195 -15 171 9Q147 33 109 33Q107 33 105 33Q89 30 78 19Q64 4 56 -33Q53 -47 52 -51Q50 -55 50 -60Q50 -70 57.5 -77.5Q65 -85 75 -85Q92 -85 98 -69Q101 -61 104.5 -45Q108 -29 110 -23Q111 -19 113 -17Q127 -18 135 -27Q148 -39 153 -70Q157 -91 157 -124Q157 -132 156.5 -148Q156 -164 156 -171Q155 -195 151 -251.5Q147 -308 144.5 -350.5Q142 -393 142 -430Q142 -537 165.5 -620.5Q189 -704 251 -771Q263 -785 274 -790Q282 -794 290 -794Q303 -794 312 -785Q319 -778 322 -767Q324 -759 324 -748Q324 -737 320.5 -707Q317 -677 317 -668Q317 -667 317 -666Q330 -611 330 -539Q330 -502 325.5 -428.5Q321 -355 321 -320Q321 -235 341 -180Q341 -179 341 -178Q344 -169 363 -123Q373 -190 387 -255Q401 -320 422.5 -392Q444 -464 457.5 -508.5Q471 -553 500 -638.5Q529 -724 539 -756Q541 -760 543 -763L561 -787Q568 -797 581 -797Q591 -797 598.5 -789.5Q606 -782 606 -772Q606 -764 601 -757L585 -736Q576 -707 548.5 -625Q521 -543 509 -505Q497 -467 475 -393.5Q453 -320 441.5 -268.5Q430 -217 418 -148.5Q406 -80 400 -16Q399 -6 392 0.5Q385 7 375 7Q365 7 357 0Q350 -7 350 -17Q348 -25 343 -39Q337 -56 319 -99Q297 -152 293 -165Q271 -228 271 -318Q271 -355 275.5 -428.5Q280 -502 280 -538Q280 -606 269 -653Q267 -661 267 -669Q267 -679 271 -718Q227 -662 210 -591Q193 -520 193 -428Q193 -393 195 -351Q197 -309 201 -252.5Q205 -196 206 -173Q206 -173 206 -172Z"/>
	<path fill="#daa520" d="M246 -172Q246 -164 246.5 -148Q247 -132 247 -123Q247 -97 244.5 -77Q242 -57 234.5 -34.5Q227 -12 210.5 0.5Q194 13 169 13Q169 13 168 13Q157 11 150 1.5Q143 -8 141 -15Q139 -22 136 -37Q133 -52 130 -58Q130 -59 130 -60Q130 -65 135 -65Q138 -65 140 -62Q142 -55 145.5 -37.5Q149 -20 154 -9.5Q159 1 169 3Q191 3 205 -8Q219 -19 225.5 -38.5Q232 -58 234.5 -77.5Q237 -97 237 -123Q237 -132 236.5 -148Q236 -164 236 -172Q235 -195 231 -251.5Q227 -308 224.5 -350Q222 -392 222 -429Q222 -533 244.5 -613.5Q267 -694 325 -757Q341 -774 350 -774Q364 -774 364 -748Q364 -737 360.5 -709Q357 -681 357 -670Q357 -665 358 -661Q370 -609 370 -538Q370 -502 365.5 -428.5Q361 -355 361 -319Q361 -232 382 -174Q382 -173 382 -173Q385 -162 407 -110Q428 -60 433 -46Q441 -121 454.5 -192.5Q468 -264 491.5 -348Q515 -432 528 -475Q541 -518 575.5 -621.5Q610 -725 618 -750Q619 -750 619 -751L637 -775Q639 -777 641 -777Q646 -777 646 -772Q646 -770 645 -769L627 -746Q617 -714 590 -633.5Q563 -553 550.5 -513Q538 -473 516 -399.5Q494 -326 482.5 -274Q471 -222 458.5 -152.5Q446 -83 440 -18Q440 -13 435 -13Q430 -13 430 -18Q430 -28 402.5 -94Q375 -160 372 -171Q351 -230 351 -319Q351 -355 355.5 -428.5Q360 -502 360 -538Q360 -608 348 -659Q347 -663 347 -670Q347 -681 350.5 -709Q354 -737 354 -748Q354 -764 350 -764Q345 -764 333 -751Q276 -689 254 -610.5Q232 -532 232 -429Q232 -393 234.5 -350.5Q237 -308 241 -252Q245 -196 246 -172Z"/>
</svg>