<svg xmlns="http://www.w3.org/2000/svg" viewBox="0 -1024 1024 1024">
	<path fill="#000088" d="M234 -172Q234 -164 234.5 -148Q235 -132 235 -123Q235 -38 206 -9L171 26Q154 43 127 43Q119 42 113 36L78 1Q70 -7 64.5 -31Q59 -55 57 -60Q55 -64 55 -72Q55 -86 64.5 -95.5Q74 -105 88 -105Q109 -105 118 -84L128 -60Q132 -52 136 -28Q149 -31 150 -31Q164 -61 164 -123Q164 -132 163.5 -148Q163 -164 163 -172Q150 -388 150 -429Q150 -533 172 -612.5Q194 -692 251 -754L255 -758L291 -794Q302 -805 308 -805Q310 -805 312 -803L347 -767Q352 -762 352 -748Q352 -738 348.5 -709Q345 -680 345 -670Q345 -663 346 -660Q358 -608 358 -538Q358 -502 353.5 -428.5Q349 -355 349 -319Q349 -232 370 -172Q372 -165 376 -155Q387 -216 401 -277Q415 -338 434.5 -404.5Q454 -471 468 -515Q482 -559 508 -637Q534 -715 545 -748Q552 -758 567 -777.5Q582 -797 589 -806Q597 -817 611 -817Q623 -817 631.5 -809Q640 -801 640 -789Q640 -780 634 -772L616 -748Q609 -727 572 -616.5Q535 -506 523 -464Q511 -422 486 -333.5Q461 -245 448 -171Q435 -97 428 -18H357Q357 -29 329.5 -95.5Q302 -162 299 -172Q279 -230 279 -319Q279 -355 283.5 -428.5Q288 -502 288 -538Q288 -604 275 -660Q274 -663 274 -670Q274 -676 276 -690Q220 -591 220 -429Q220 -404 234 -172Z"/>
	<path fill="#800080" d="M206 -172Q206 -164 206.5 -147.5Q207 -131 207 -122Q207 -88 203 -62Q195 -15 171 9Q147 33 109 33Q107 33 105 33Q89 30 78 19Q64 4 56 -33Q53 -47 52 -51Q50 -55 50 -60Q50 -70 57.5 -77.5Q65 -85 75 -85Q92 -85 98 -69Q101 -61 104.5 -45Q108 -29 110 -23Q111 -19 113 -17Q127 -18 135 -27Q148 -39 153 -70Q157 -91 157 -124Q157 -132 156.5 -148Q156 -164 156 -171Q155 -195 151 -251.5Q147 -308 144.5 -350.5Q142 -393 142 -430Q142 -537 165.5 -620.5Q189 -704 251 -771Q263 -785 274 -790Q282 -794 290 -794Q303 -794 312 -785Q319 -778 322 -767Q324 -759 324 -748Q324 -737 320.5 -707Q317 -677 317 -668Q317 -667 317 -666Q330 -611 330 -539Q330 -502 325.5 -428.5Q321 -355 321 -320Q321 -235 341 -180Q341 -179 341 -178Q344 -169 363 -123Q373 -190 387 -255Q401 -320 422.5 -392Q444 -464 457.5 -508.5Q471 -553 500 -638.5Q529 -724 539 -756Q541 -760 543 -763L561 -787Q568 -797 581 -797Q591 -797 598.5 -789.5Q606 -782 606 -772Q606 -764 601 -757L585 -736Q576 -707 548.5 -625Q521 -543 509 -505Q497 -467 475 -393.5Q453 -320 441.5 -268.5Q430 -217 418 -148.5Q406 -80 400 -16Q399 -6 392 0.5Q385 7 375 7Q365 7 357 0Q350 -7 350 -17Q348 -25 343 -39Q337 -56 319 -99Q297 -152 293 -165Q271 -228 271 -318Q271 -355 275.5 -428.5Q280 -502 280 -538Q280 -606 269 -653Q267 -661 267 -669Q267 -679 271 -718Q227 -662 210 -591Q193 -520 193 -428Q193 -393 195 -351Q197 -309 201 -252.5Q205 -196 206 -173Q206 -173 206 -172Z"/>
	<path fill="#daa520" d="M196 -172Q196 -164 196.5 -148Q197 -132 197 -123Q197 -97 194.5 -77Q192 -57 184.5 -34.5Q177 -12 160.5 0.5Q144 13 119 13Q119 13 118 13Q107 11 100 1.5Q93 -8 91 -15Q89 -22 86 -37Q83 -52 80 -58Q80 -59 80 -60Q80 -65 85 -65Q88 -65 90 -62Q92 -55 95.5 -37.5Q99 -20 104 -9.5Q109 1 119 3Q141 3 155 -8Q169 -19 175.5 -38.5Q182 -58 184.5 -77.5Q187 -97 187 -123Q187 -132 186.5 -148Q186 -164 186 -172Q185 -195 181 -251.5Q177 -308 174.5 -350Q172 -392 172 -429Q172 -533 194.5 -613.5Q217 -694 275 -757Q291 -774 300 -774Q314 -774 314 -748Q314 -737 310.5 -709Q307 -681 307 -670Q307 -665 308 -661Q320 -609 320 -538Q320 -502 315.5 -428.5Q311 -355 311 -319Q311 -232 332 -174Q332 -173 332 -173Q335 -162 357 -110Q378 -60 383 -46Q391 -121 404.5 -192.5Q418 -264 441.5 -348Q465 -432 478 -475Q491 -518 525.5 -621.5Q560 -725 568 -750Q569 -750 569 -751L587 -775Q589 -777 591 -777Q596 -777 596 -772Q596 -770 595 -769L577 -746Q567 -714 540 -633.5Q513 -553 500.5 -513Q488 -473 466 -399.5Q444 -326 432.5 -274Q421 -222 408.5 -152.5Q396 -83 390 -18Q390 -13 385 -13Q380 -13 380 -18Q380 -28 352.5 -94Q325 -160 322 -171Q301 -230 301 -319Q301 -355 305.5 -428.5Q310 -502 310 -538Q310 -608 298 -659Q297 -663 297 -670Q297 -681 300.5 -709Q304 -737 304 -748Q304 -764 300 -764Q295 -764 283 -751Q226 -689 204 -610.5Q182 -532 182 -429Q182 -393 184.5 -350.5Q187 -308 191 -252Q195 -196 196 -172Z"/>
</svg>