<svg xmlns="http://www.w3.org/2000/svg" viewBox="0 -1024 1024 1024">
	<path fill="#000088" d="M55 -198Q55 -264 69 -317.5Q83 -371 105 -393L140 -428Q153 -441 165 -441Q177 -441 189 -429L224 -394Q270 -348 282 -194Q283 -183 283 -163Q283 -116 269.5 -68Q256 -20 243 7Q230 34 203 84Q164 156 148 200L139 223Q131 245 108 245Q95 245 85 235Q75 225 75 211Q75 208 77 200Q91 163 139 73Q187 -17 201 -75Q197 -75 185 -75.5Q173 -76 168 -76.5Q163 -77 153 -78.5Q143 -80 137 -82Q131 -84 124 -88Q117 -92 111 -98L76 -133Q55 -154 55 -198ZM212 -163Q212 -183 211 -194Q201 -312 171 -369Q170 -369 168 -369.5Q166 -370 165 -370Q161 -370 159 -369Q126 -308 126 -198Q126 -174 133 -155Q150 -148 190 -146Q205 -146 212 -145Z"/>
	<path fill="#800080" d="M50 -198Q50 -276 68 -336Q83 -387 107 -411Q127 -430 150 -430Q173 -430 191 -411Q215 -388 231 -336Q249 -277 256 -196Q257 -180 257 -163Q257 -114 243 -62.5Q229 -11 215 17.5Q201 46 174 96Q135 170 120 209Q114 225 97 225Q87 225 79.5 217.5Q72 210 72 200Q72 196 74 191Q89 149 130 73Q184 -28 198 -84Q191 -85 173 -86Q140 -87 122 -92Q95 -99 78 -116Q50 -144 50 -198ZM100 -198Q100 -165 114 -151Q123 -142 142 -139Q152 -137 173.5 -136.5Q195 -136 206 -134Q207 -148 207 -163Q207 -177 206 -192Q200 -267 183 -321Q171 -362 156 -376Q152 -380 150 -380Q147 -380 142 -375Q128 -360 116 -322Q100 -268 100 -198Z"/>
	<path fill="#daa520" d="M221 -108Q221 -103 216 -103Q215 -103 215 -103Q207 -105 184 -106Q142 -108 123 -116Q80 -135 80 -198Q80 -318 118 -379Q137 -410 160 -410Q190 -410 212 -357Q238 -296 246 -195Q247 -179 247 -163Q247 -116 233.5 -67.5Q220 -19 207 9Q194 37 167 87Q127 161 112 202Q110 205 107 205Q102 205 102 200Q102 199 102 198Q117 157 158 82Q185 33 198 5Q211 -23 224 -70Q237 -117 237 -163Q237 -178 236 -194Q228 -293 203 -353Q183 -400 160 -400Q136 -400 116 -354Q90 -293 90 -198Q90 -141 127 -125Q145 -117 185 -116Q208 -115 217 -113Q221 -112 221 -108Z"/>
</svg>