<svg xmlns="http://www.w3.org/2000/svg" viewBox="0 -1024 1024 1024">
	<path fill="#000088" d="M100 -198Q100 -276 118 -336Q133 -387 157 -411Q177 -430 200 -430Q223 -430 241 -411Q265 -388 281 -336Q299 -277 306 -196Q307 -180 307 -163Q307 -114 293 -62.5Q279 -11 265 17.5Q251 46 224 96Q185 170 170 209Q164 225 147 225Q137 225 129.5 217.5Q122 210 122 200Q122 196 124 191Q139 149 180 73Q234 -28 248 -84Q241 -85 223 -86Q190 -87 172 -92Q145 -99 128 -116Q100 -144 100 -198ZM150 -198Q150 -165 164 -151Q173 -142 192 -139Q202 -137 223.5 -136.5Q245 -136 256 -134Q257 -148 257 -163Q257 -177 256 -192Q250 -267 233 -321Q221 -362 206 -376Q202 -380 200 -380Q197 -380 192 -375Q178 -360 166 -322Q150 -268 150 -198Z"/>
	<path fill="#800080" d="M50 -198Q50 -276 68 -336Q83 -387 107 -411Q127 -430 150 -430Q173 -430 191 -411Q215 -388 231 -336Q249 -277 256 -196Q257 -180 257 -163Q257 -114 243 -62.5Q229 -11 215 17.5Q201 46 174 96Q135 170 120 209Q114 225 97 225Q87 225 79.5 217.5Q72 210 72 200Q72 196 74 191Q89 149 130 73Q184 -28 198 -84Q191 -85 173 -86Q140 -87 122 -92Q95 -99 78 -116Q50 -144 50 -198ZM100 -198Q100 -165 114 -151Q123 -142 142 -139Q152 -137 173.5 -136.5Q195 -136 206 -134Q207 -148 207 -163Q207 -177 206 -192Q200 -267 183 -321Q171 -362 156 -376Q152 -380 150 -380Q147 -380 142 -375Q128 -360 116 -322Q100 -268 100 -198Z"/>
	<path fill="#daa520" d="M211 -108Q211 -103 206 -103Q205 -103 205 -103Q197 -105 174 -106Q132 -108 113 -116Q70 -135 70 -198Q70 -318 108 -379Q127 -410 150 -410Q180 -410 202 -357Q228 -296 236 -195Q237 -179 237 -163Q237 -116 223.5 -67.5Q210 -19 197 9Q184 37 157 87Q117 161 102 202Q100 205 97 205Q92 205 92 200Q92 199 92 198Q107 157 148 82Q175 33 188 5Q201 -23 214 -70Q227 -117 227 -163Q227 -178 226 -194Q218 -293 193 -353Q173 -400 150 -400Q126 -400 106 -354Q80 -293 80 -198Q80 -141 117 -125Q135 -117 175 -116Q198 -115 207 -113Q211 -112 211 -108Z"/>
</svg>