<svg xmlns="http://www.w3.org/2000/svg" viewBox="0 -1024 1024 1024">
	<path fill="#000088" d="M57 -220L55 -290L468 -299L469 -229ZM57 -420L55 -490L468 -499L469 -429ZM347 -553L416 -542L360 -180L291 -191ZM146 -553L215 -542L159 -180L90 -191Z"/>
	<path fill="#800080" d="M75 -230Q65 -230 57.5 -237.5Q50 -245 50 -255Q50 -265 57 -273Q64 -280 74 -280L485 -289Q486 -289 486 -289Q496 -289 503.5 -281.5Q511 -274 511 -264Q511 -254 504 -246Q497 -239 487 -239L76 -230Q75 -230 75 -230ZM75 -430Q65 -430 57.5 -437.5Q50 -445 50 -455Q50 -465 57 -473Q64 -480 74 -480L485 -489Q486 -489 486 -489Q496 -489 503.5 -481.5Q511 -474 511 -464Q511 -454 504 -446Q497 -439 487 -439L76 -430Q75 -430 75 -430ZM399 -567Q409 -567 416.5 -559.5Q424 -552 424 -542Q424 -540 424 -538L370 -187Q368 -178 361 -172Q354 -166 345 -166Q335 -166 327.5 -173.5Q320 -181 320 -191Q320 -193 320 -195L374 -546Q376 -555 383 -561Q390 -567 399 -567ZM198 -567Q208 -567 215.5 -559.5Q223 -552 223 -542Q223 -540 223 -538L169 -187Q167 -178 160 -172Q153 -166 144 -166Q134 -166 126.5 -173.5Q119 -181 119 -191Q119 -193 119 -195L173 -546Q175 -555 182 -561Q189 -567 198 -567Z"/>
	<path fill="#daa520" d="M85 -250Q80 -250 80 -255Q80 -260 85 -260L496 -269Q501 -269 501 -264Q501 -259 496 -259ZM85 -450Q80 -450 80 -455Q80 -460 85 -460L496 -469Q501 -469 501 -464Q501 -459 496 -459ZM409 -547Q414 -547 414 -542Q414 -542 414 -541L360 -190Q359 -186 355 -186Q350 -186 350 -191Q350 -191 350 -192L404 -543Q405 -547 409 -547ZM208 -547Q213 -547 213 -542Q213 -542 213 -541L159 -190Q158 -186 154 -186Q149 -186 149 -191Q149 -191 149 -192L203 -543Q204 -547 208 -547Z"/>
</svg>