<svg xmlns="http://www.w3.org/2000/svg" viewBox="0 -1024 1024 1024">
	<path fill="#000088" d="M373 -27Q385 -27 400 -41Q417 -59 434 -93Q454 -133 471 -190Q487 -243 497.5 -298.5Q508 -354 508 -375Q501 -478 453 -588Q452 -501 398 -447Q390 -439 381 -432Q374 -427 365 -427Q355 -427 347.5 -434.5Q340 -442 340 -452Q340 -464 350 -472Q403 -512 403 -592Q403 -628 391 -660.5Q379 -693 358 -714Q328 -744 289 -744Q278 -744 266 -741Q234 -735 211 -712Q188 -689 175 -653Q162 -617 162 -578V-532Q162 -532 162 -531Q161 -502 155.5 -417.5Q150 -333 150 -289Q150 -262 152 -238Q160 -123 219 -64Q233 -50 249 -39H253Q273 -39 313.5 -33Q354 -27 373 -27ZM112 -532V-578Q112 -684 175 -747Q210 -782 257 -791Q273 -794 288 -794Q349 -794 393 -750Q403 -740 411 -729Q415 -731 419 -731Q434 -731 441 -719Q547 -544 558 -378Q558 -377 558 -376Q558 -348 547.5 -291.5Q537 -235 519 -176Q501 -114 479 -71Q458 -29 435 -6Q406 23 373 23Q350 23 306 16Q269 11 253 11H241Q234 11 228 7Q204 -9 184 -28Q112 -101 102 -235Q100 -260 100 -290Q100 -335 105.5 -419Q111 -503 112 -532Z"/>
	<path fill="#800080" d="M323 -27Q335 -27 350 -41Q367 -59 384 -93Q404 -133 421 -190Q437 -243 447.5 -298.5Q458 -354 458 -375Q451 -478 403 -588Q402 -501 348 -447Q340 -439 331 -432Q324 -427 315 -427Q305 -427 297.5 -434.5Q290 -442 290 -452Q290 -464 300 -472Q353 -512 353 -592Q353 -628 341 -660.5Q329 -693 308 -714Q278 -744 239 -744Q228 -744 216 -741Q184 -735 161 -712Q138 -689 125 -653Q112 -617 112 -578V-532Q112 -532 112 -531Q111 -502 105.5 -417.5Q100 -333 100 -289Q100 -262 102 -238Q110 -123 169 -64Q183 -50 199 -39H203Q223 -39 263.5 -33Q304 -27 323 -27ZM62 -532V-578Q62 -684 125 -747Q160 -782 207 -791Q223 -794 238 -794Q299 -794 343 -750Q353 -740 361 -729Q365 -731 369 -731Q384 -731 391 -719Q497 -544 508 -378Q508 -377 508 -376Q508 -348 497.5 -291.5Q487 -235 469 -176Q451 -114 429 -71Q408 -29 385 -6Q356 23 323 23Q300 23 256 16Q219 11 203 11H191Q184 11 178 7Q154 -9 134 -28Q62 -101 52 -235Q50 -260 50 -290Q50 -335 55.5 -419Q61 -503 62 -532Z"/>
	<path fill="#daa520" d="M383 3Q363 3 322.5 -3Q282 -9 263 -9H251Q250 -9 249 -10Q181 -54 155.5 -123.5Q130 -193 130 -289Q130 -334 135.5 -418.5Q141 -503 142 -532V-578Q142 -647 175.5 -703Q209 -759 271 -771Q285 -774 299 -774Q364 -774 403.5 -719Q443 -664 443 -592Q443 -549 427 -510.5Q411 -472 378 -448Q377 -447 375 -447Q370 -447 370 -452Q370 -454 372 -456Q433 -502 433 -592Q433 -661 396 -712.5Q359 -764 299 -764Q286 -764 272 -761Q216 -750 184 -697Q152 -644 152 -578V-532Q151 -502 145.5 -418Q140 -334 140 -289Q140 -195 164.5 -128Q189 -61 253 -19H263Q283 -19 323.5 -13Q364 -7 383 -7Q437 -7 485 -139Q508 -202 523 -274Q538 -346 538 -376Q528 -535 425 -703Q424 -705 424 -706Q424 -711 429 -711Q432 -711 434 -709Q537 -538 548 -376Q548 -345 533 -272.5Q518 -200 495 -136Q444 3 383 3Z"/>
</svg>