<svg xmlns="http://www.w3.org/2000/svg" viewBox="0 -1024 1024 1024">
	<path fill="#000088" d="M126 -289Q126 -140 186 -65Q189 -63 196 -57.5Q203 -52 207 -49H219Q238 -49 278.5 -43Q319 -37 339 -37Q349 -37 365 -45Q406 -103 434.5 -215.5Q463 -328 463 -376Q457 -466 425 -551Q416 -500 381 -465L345 -429Q341 -425 331 -417Q324 -411 314 -411Q302 -411 294 -419Q286 -427 286 -439Q286 -454 297 -462L326 -484Q358 -529 358 -592Q358 -660 322 -712Q291 -733 254 -733Q210 -733 177 -710Q138 -656 138 -578V-532Q137 -507 131.5 -420.5Q126 -334 126 -289ZM219 21H207Q183 5 167 -11L132 -46Q55 -123 55 -289Q55 -334 60.5 -420.5Q66 -507 67 -532V-578Q67 -673 123 -729L158 -765Q186 -794 227 -801Q240 -804 254 -804Q304 -804 341 -767L360 -748Q365 -752 375 -752Q393 -752 401 -737L420 -706Q523 -536 534 -376Q534 -320 499.5 -195.5Q465 -71 418 -24L383 12Q362 33 339 33Q319 33 278.5 27Q238 21 219 21Z"/>
	<path fill="#800080" d="M323 -27Q335 -27 350 -41Q367 -59 384 -93Q404 -133 421 -190Q437 -243 447.5 -298.5Q458 -354 458 -375Q451 -478 403 -588Q402 -501 348 -447Q340 -439 331 -432Q324 -427 315 -427Q305 -427 297.5 -434.5Q290 -442 290 -452Q290 -464 300 -472Q353 -512 353 -592Q353 -628 341 -660.5Q329 -693 308 -714Q278 -744 239 -744Q228 -744 216 -741Q184 -735 161 -712Q138 -689 125 -653Q112 -617 112 -578V-532Q112 -532 112 -531Q111 -502 105.5 -417.5Q100 -333 100 -289Q100 -262 102 -238Q110 -123 169 -64Q183 -50 199 -39H203Q223 -39 263.5 -33Q304 -27 323 -27ZM62 -532V-578Q62 -684 125 -747Q160 -782 207 -791Q223 -794 238 -794Q299 -794 343 -750Q353 -740 361 -729Q365 -731 369 -731Q384 -731 391 -719Q497 -544 508 -378Q508 -377 508 -376Q508 -348 497.5 -291.5Q487 -235 469 -176Q451 -114 429 -71Q408 -29 385 -6Q356 23 323 23Q300 23 256 16Q219 11 203 11H191Q184 11 178 7Q154 -9 134 -28Q62 -101 52 -235Q50 -260 50 -290Q50 -335 55.5 -419Q61 -503 62 -532Z"/>
	<path fill="#daa520" d="M333 3Q313 3 272.5 -3Q232 -9 213 -9H201Q200 -9 199 -10Q131 -54 105.5 -123.5Q80 -193 80 -289Q80 -334 85.5 -418.5Q91 -503 92 -532V-578Q92 -647 125.5 -703Q159 -759 221 -771Q235 -774 249 -774Q314 -774 353.5 -719Q393 -664 393 -592Q393 -549 377 -510.5Q361 -472 328 -448Q327 -447 325 -447Q320 -447 320 -452Q320 -454 322 -456Q383 -502 383 -592Q383 -661 346 -712.5Q309 -764 249 -764Q236 -764 222 -761Q166 -750 134 -697Q102 -644 102 -578V-532Q101 -502 95.5 -418Q90 -334 90 -289Q90 -195 114.5 -128Q139 -61 203 -19H213Q233 -19 273.5 -13Q314 -7 333 -7Q387 -7 435 -139Q458 -202 473 -274Q488 -346 488 -376Q478 -535 375 -703Q374 -705 374 -706Q374 -711 379 -711Q382 -711 384 -709Q487 -538 498 -376Q498 -345 483 -272.5Q468 -200 445 -136Q394 3 333 3Z"/>
</svg>