<svg xmlns="http://www.w3.org/2000/svg" viewBox="0 -1024 1024 1024">
	<path fill="#000088" d="M125 25Q115 25 107.5 17.5Q100 10 100 0Q100 -10 107.5 -17.5Q115 -25 125 -25H180V-351L160 -331Q152 -324 142 -324Q132 -324 124.5 -331.5Q117 -339 117 -349Q117 -359 124 -367L187 -429Q195 -436 205 -436Q215 -436 222.5 -428.5Q230 -421 230 -411V-25H284Q294 -25 301.5 -17.5Q309 -10 309 0Q309 10 301.5 17.5Q294 25 284 25H205Z"/>
	<path fill="#800080" d="M75 25Q65 25 57.5 17.5Q50 10 50 0Q50 -10 57.5 -17.5Q65 -25 75 -25H130V-351L110 -331Q102 -324 92 -324Q82 -324 74.5 -331.5Q67 -339 67 -349Q67 -359 74 -367L137 -429Q145 -436 155 -436Q165 -436 172.5 -428.5Q180 -421 180 -411V-25H234Q244 -25 251.5 -17.5Q259 -10 259 0Q259 10 251.5 17.5Q244 25 234 25H155Z"/>
	<path fill="#daa520" d="M152 -344Q154 -344 156 -345L210 -399V0Q210 5 215 5Q220 5 220 0V-411Q220 -416 215 -416Q213 -416 211 -415L148 -353Q147 -351 147 -349Q147 -344 152 -344ZM135 5Q130 5 130 0Q130 -5 135 -5H294Q299 -5 299 0Q299 5 294 5Z"/>
</svg>