<svg xmlns="http://www.w3.org/2000/svg" viewBox="0 -1024 1024 1024">
	<path fill="#000088" d="M427 -447Q470 -447 517 -468Q564 -489 598 -529Q632 -569 632 -614Q632 -710 577 -765Q511 -831 383 -831Q301 -831 265 -823Q231 -816 213 -798Q187 -772 184 -709Q184 -700 184 -691Q184 -618 210 -558Q212 -553 212 -548Q212 -538 204.5 -530.5Q197 -523 187 -523Q171 -523 164 -538Q134 -608 134 -691Q134 -789 178 -833Q208 -864 255 -872.5Q302 -881 383 -881Q531 -881 612 -800Q682 -730 682 -614Q682 -541 622 -481Q583 -442 530.5 -419.5Q478 -397 427 -397Q380 -397 346 -431Q320 -457 307 -494.5Q294 -532 294 -570Q294 -571 294 -572.5Q294 -574 294 -575Q294 -584 295 -590Q298 -604 306 -613Q316 -623 331 -623Q341 -623 348.5 -615.5Q356 -608 356 -598Q356 -584 344 -577Q344 -575 344 -573Q344 -572 344 -571Q344 -570 344 -570Q344 -542 354 -513Q364 -484 381 -467Q401 -447 427 -447ZM260 -173Q260 -175 260 -179Q260 -183 260 -185Q260 -216 258.5 -251Q257 -286 255 -328.5Q253 -371 252 -394Q252 -394 252 -395L250 -671Q250 -681 257.5 -688.5Q265 -696 275 -696Q285 -696 292.5 -688.5Q300 -681 300 -671L302 -396Q303 -373 305 -330Q307 -287 308.5 -252Q310 -217 310 -185Q310 -183 310 -178Q310 -173 310 -171Q310 -117 304 -80Q293 -23 266 4Q243 28 209 28Q178 28 156 6Q146 -5 132 -28Q121 -45 115 -51.5Q109 -58 108 -66L100 -140Q100 -142 100 -143Q100 -153 107.5 -160.5Q115 -168 125 -168Q134 -168 141.5 -161.5Q149 -155 150 -146L157 -80Q163 -73 174 -54.5Q185 -36 192 -30Q199 -22 209 -22Q222 -22 231 -31Q247 -47 254 -89Q260 -121 260 -173Z"/>
	<path fill="#800080" d="M377 -447Q420 -447 467 -468Q514 -489 548 -529Q582 -569 582 -614Q582 -710 527 -765Q461 -831 333 -831Q251 -831 215 -823Q181 -816 163 -798Q137 -772 134 -709Q134 -700 134 -691Q134 -618 160 -558Q162 -553 162 -548Q162 -538 154.5 -530.5Q147 -523 137 -523Q121 -523 114 -538Q84 -608 84 -691Q84 -789 128 -833Q158 -864 205 -872.5Q252 -881 333 -881Q481 -881 562 -800Q632 -730 632 -614Q632 -541 572 -481Q533 -442 480.5 -419.5Q428 -397 377 -397Q330 -397 296 -431Q270 -457 257 -494.5Q244 -532 244 -570Q244 -571 244 -572.5Q244 -574 244 -575Q244 -584 245 -590Q248 -604 256 -613Q266 -623 281 -623Q291 -623 298.5 -615.5Q306 -608 306 -598Q306 -584 294 -577Q294 -575 294 -573Q294 -572 294 -571Q294 -570 294 -570Q294 -542 304 -513Q314 -484 331 -467Q351 -447 377 -447ZM210 -173Q210 -175 210 -179Q210 -183 210 -185Q210 -216 208.5 -251Q207 -286 205 -328.5Q203 -371 202 -394Q202 -394 202 -395L200 -671Q200 -681 207.5 -688.5Q215 -696 225 -696Q235 -696 242.5 -688.5Q250 -681 250 -671L252 -396Q253 -373 255 -330Q257 -287 258.5 -252Q260 -217 260 -185Q260 -183 260 -178Q260 -173 260 -171Q260 -117 254 -80Q243 -23 216 4Q193 28 159 28Q128 28 106 6Q96 -5 82 -28Q71 -45 65 -51.5Q59 -58 58 -66L50 -140Q50 -142 50 -143Q50 -153 57.5 -160.5Q65 -168 75 -168Q84 -168 91.5 -161.5Q99 -155 100 -146L107 -80Q113 -73 124 -54.5Q135 -36 142 -30Q149 -22 159 -22Q172 -22 181 -31Q197 -47 204 -89Q210 -121 210 -173Z"/>
	<path fill="#daa520" d="M334 -498Q334 -498 334 -496.5Q334 -495 334 -494Q334 -441 361.5 -396Q389 -351 437 -351Q515 -351 588.5 -407Q662 -463 662 -538Q662 -655 588.5 -715Q515 -775 393 -775Q287 -775 246 -760Q212 -746 194.5 -717Q177 -688 174 -634Q174 -624 174 -615Q174 -538 202 -474Q202 -473 202 -472Q202 -467 197 -467Q194 -467 192 -470Q164 -536 164 -615Q164 -625 164 -634Q167 -691 186.5 -723Q206 -755 243 -769Q285 -785 393 -785Q518 -785 595 -722Q672 -659 672 -538Q672 -457 595.5 -399Q519 -341 437 -341Q383 -341 353.5 -389.5Q324 -438 324 -494Q324 -495 324 -496.5Q324 -498 324 -498V-499Q324 -527 341 -527Q346 -527 346 -522Q346 -517 341 -517Q334 -517 334 -498ZM290 -172Q290 -174 290 -178.5Q290 -183 290 -185Q290 -222 286 -292Q282 -362 282 -395L280 -671Q280 -676 285 -676Q290 -676 290 -671L292 -395Q293 -372 295 -329.5Q297 -287 298.5 -252Q300 -217 300 -185Q300 -183 300 -178.5Q300 -174 300 -172Q300 -71 276 -28Q255 8 219 8Q198 8 184.5 -4.5Q171 -17 159 -37.5Q147 -58 140 -65Q138 -67 138 -68L130 -142Q130 -143 130 -143Q130 -148 135 -148Q139 -148 140 -144L148 -71Q155 -64 167 -43Q176 -29 181 -22Q186 -15 196.5 -8.5Q207 -2 219 -2Q290 -2 290 -172Z"/>
</svg>