<svg xmlns="http://www.w3.org/2000/svg" viewBox="0 -1024 1024 1024">
	<path fill="#000088" d="M161 18Q180 28 180 49Q180 64 169.5 74Q159 84 144 84Q141 84 139 82L103 46Q83 26 69 -121Q55 -268 55 -467Q55 -666 69 -813Q83 -960 103 -980L139 -1016Q141 -1018 144 -1018Q159 -1018 169.5 -1008Q180 -998 180 -983Q180 -962 161 -952Q126 -832 126 -467Q126 -102 161 18Z"/>
	<path fill="#800080" d="M100 -467Q100 -272 113 -126Q124 -16 138 21L140 27Q154 33 154 49Q154 59 146.5 66.5Q139 74 129 74Q116 74 106 64Q99 57 93 45Q88 33 84 15Q74 -23 67 -89Q50 -242 50 -467Q50 -692 67 -845Q74 -911 84 -949Q88 -967 93 -979Q99 -991 106 -998Q116 -1008 129 -1008Q139 -1008 146.5 -1000.5Q154 -993 154 -983Q154 -968 140 -961Q136 -951 132 -937Q124 -902 117 -840Q100 -689 100 -467Z"/>
	<path fill="#daa520" d="M139 54Q127 54 117 25Q107 -7 99 -72Q80 -226 80 -467Q80 -708 99 -862Q107 -927 117 -959Q127 -988 139 -988Q144 -988 144 -983Q144 -978 139 -978Q134 -978 127 -956Q117 -925 109 -861Q90 -707 90 -467Q90 -227 109 -73Q117 -9 127 22Q134 44 139 44Q144 44 144 49Q144 54 139 54Z"/>
</svg>