<svg xmlns="http://www.w3.org/2000/svg" viewBox="0 -1024 1024 1024">
	<path fill="#000088" d="M125 74Q115 74 107.5 66.5Q100 59 100 49Q100 33 114 27L116 21Q130 -16 141 -126Q154 -272 154 -467Q154 -689 137 -840Q130 -902 122 -937Q118 -951 114 -961Q100 -968 100 -983Q100 -993 107.5 -1000.5Q115 -1008 125 -1008Q138 -1008 148 -998Q155 -991 161 -979Q166 -967 170 -949Q180 -911 187 -845Q204 -692 204 -467Q204 -242 187 -89Q180 -23 170 15Q166 33 161 45Q155 57 148 64Q138 74 125 74Z"/>
	<path fill="#800080" d="M75 74Q65 74 57.5 66.5Q50 59 50 49Q50 33 64 27L66 21Q80 -16 91 -126Q104 -272 104 -467Q104 -689 87 -840Q80 -902 72 -937Q68 -951 64 -961Q50 -968 50 -983Q50 -993 57.5 -1000.5Q65 -1008 75 -1008Q88 -1008 98 -998Q105 -991 111 -979Q116 -967 120 -949Q130 -911 137 -845Q154 -692 154 -467Q154 -242 137 -89Q130 -23 120 15Q116 33 111 45Q105 57 98 64Q88 74 75 74Z"/>
	<path fill="#daa520" d="M135 54Q130 54 130 49Q130 44 135 44Q140 44 147 22Q157 -9 165 -73Q184 -227 184 -467Q184 -707 165 -861Q157 -925 147 -956Q140 -978 135 -978Q130 -978 130 -983Q130 -988 135 -988Q147 -988 157 -959Q167 -927 175 -862Q194 -708 194 -467Q194 -226 175 -72Q167 -7 157 25Q147 54 135 54Z"/>
</svg>