<svg xmlns="http://www.w3.org/2000/svg" viewBox="0 -1024 1024 1024">
	<path fill="#000088" d="M150 -467Q150 -272 163 -126Q174 -16 188 21L190 27Q204 33 204 49Q204 59 196.5 66.5Q189 74 179 74Q166 74 156 64Q149 57 143 45Q138 33 134 15Q124 -23 117 -89Q100 -242 100 -467Q100 -692 117 -845Q124 -911 134 -949Q138 -967 143 -979Q149 -991 156 -998Q166 -1008 179 -1008Q189 -1008 196.5 -1000.5Q204 -993 204 -983Q204 -968 190 -961Q186 -951 182 -937Q174 -902 167 -840Q150 -689 150 -467Z"/>
	<path fill="#800080" d="M100 -467Q100 -272 113 -126Q124 -16 138 21L140 27Q154 33 154 49Q154 59 146.5 66.5Q139 74 129 74Q116 74 106 64Q99 57 93 45Q88 33 84 15Q74 -23 67 -89Q50 -242 50 -467Q50 -692 67 -845Q74 -911 84 -949Q88 -967 93 -979Q99 -991 106 -998Q116 -1008 129 -1008Q139 -1008 146.5 -1000.5Q154 -993 154 -983Q154 -968 140 -961Q136 -951 132 -937Q124 -902 117 -840Q100 -689 100 -467Z"/>
	<path fill="#daa520" d="M189 54Q177 54 167 25Q157 -7 149 -72Q130 -226 130 -467Q130 -708 149 -862Q157 -927 167 -959Q177 -988 189 -988Q194 -988 194 -983Q194 -978 189 -978Q184 -978 177 -956Q167 -925 159 -861Q140 -707 140 -467Q140 -227 159 -73Q167 -9 177 22Q184 44 189 44Q194 44 194 49Q194 54 189 54Z"/>
</svg>