<svg xmlns="http://www.w3.org/2000/svg" viewBox="0 -1024 1024 1024">
	<path fill="#000088" d="M107.5 -11.5Q100 -19 100 -29Q100 -39 107.5 -46.5Q115 -54 125 -54Q135 -54 142.5 -46.5Q150 -39 150 -29Q150 -19 142.5 -11.5Q135 -4 125 -4Q115 -4 107.5 -11.5Z"/>
	<path fill="#800080" d="M57.5 -11.5Q50 -19 50 -29Q50 -39 57.5 -46.5Q65 -54 75 -54Q85 -54 92.5 -46.5Q100 -39 100 -29Q100 -19 92.5 -11.5Q85 -4 75 -4Q65 -4 57.5 -11.5Z"/>
	<path fill="#daa520" d="M135 -24Q130 -24 130 -29Q130 -34 135 -34Q140 -34 140 -29Q140 -24 135 -24Z"/>
</svg>