<svg xmlns="http://www.w3.org/2000/svg" viewBox="0 -1024 1024 1024">
	<path fill="#000088" d="M279 -724Q234 -724 207 -696Q176 -665 162 -598Q152 -545 151 -436Q151 -432 150.5 -418.5Q150 -405 150 -397Q150 -300 174 -213Q201 -119 248 -71Q287 -32 339 -28Q338 -32 338 -35Q338 -48 349 -55Q420 -106 451 -224Q472 -302 472 -395Q472 -420 470 -444Q470 -445 470 -446Q470 -447 470 -448Q472 -467 472 -487Q472 -546 458 -596Q442 -658 408 -691Q374 -725 324 -725Q312 -725 299 -723Q297 -723 295 -723Q293 -723 287.5 -723.5Q282 -724 279 -724ZM436 59Q436 52 429 41Q427 39 400 9Q377 22 350 22Q271 22 213 -36Q156 -93 126 -200Q100 -293 100 -396Q100 -408 100 -419Q100 -424 100.5 -448Q101 -472 101.5 -480.5Q102 -489 102.5 -510Q103 -531 104.5 -543.5Q106 -556 108 -574Q110 -592 113 -608Q130 -690 171 -731Q214 -774 280 -774Q287 -774 295 -773Q309 -775 323 -775Q395 -775 444 -726Q486 -684 507 -609Q522 -552 522 -488Q522 -466 520 -446Q522 -420 522 -395Q522 -294 497.5 -205.5Q473 -117 427 -60Q431 -50 431 -39Q431 -35 431 -32Q435 -26 446 -15Q459 -1 465 5.5Q471 12 478.5 28Q486 44 486 59Q486 76 479.5 91.5Q473 107 467.5 114Q462 121 452 133Q439 147 435 154Q428 166 413 166H341Q331 166 323.5 158.5Q316 151 316 141Q316 131 323.5 123.5Q331 116 341 116H400Q405 110 415 99Q436 75 436 61Q436 61 436 60.5Q436 60 436 59Z"/>
	<path fill="#800080" d="M229 -724Q184 -724 157 -696Q126 -665 112 -598Q102 -545 101 -436Q101 -432 100.5 -418.5Q100 -405 100 -397Q100 -300 124 -213Q151 -119 198 -71Q237 -32 289 -28Q288 -32 288 -35Q288 -48 299 -55Q370 -106 401 -224Q422 -302 422 -395Q422 -420 420 -444Q420 -445 420 -446Q420 -447 420 -448Q422 -467 422 -487Q422 -546 408 -596Q392 -658 358 -691Q324 -725 274 -725Q262 -725 249 -723Q247 -723 245 -723Q243 -723 237.5 -723.5Q232 -724 229 -724ZM386 59Q386 52 379 41Q377 39 350 9Q327 22 300 22Q221 22 163 -36Q106 -93 76 -200Q50 -293 50 -396Q50 -408 50 -419Q50 -424 50.5 -448Q51 -472 51.5 -480.5Q52 -489 52.5 -510Q53 -531 54.5 -543.5Q56 -556 58 -574Q60 -592 63 -608Q80 -690 121 -731Q164 -774 230 -774Q237 -774 245 -773Q259 -775 273 -775Q345 -775 394 -726Q436 -684 457 -609Q472 -552 472 -488Q472 -466 470 -446Q472 -420 472 -395Q472 -294 447.5 -205.5Q423 -117 377 -60Q381 -50 381 -39Q381 -35 381 -32Q385 -26 396 -15Q409 -1 415 5.5Q421 12 428.5 28Q436 44 436 59Q436 76 429.5 91.5Q423 107 417.5 114Q412 121 402 133Q389 147 385 154Q378 166 363 166H291Q281 166 273.5 158.5Q266 151 266 141Q266 131 273.5 123.5Q281 116 291 116H350Q355 110 365 99Q386 75 386 61Q386 61 386 60.5Q386 60 386 59Z"/>
	<path fill="#daa520" d="M466 61Q466 61 466 60Q466 59 466 59Q466 46 456.5 32.5Q447 19 432.5 4Q418 -11 413 -18Q395 2 360 2Q357 2 355 2Q304 1 263.5 -27.5Q223 -56 199 -98.5Q175 -141 158.5 -195.5Q142 -250 136 -299.5Q130 -349 130 -396Q130 -405 130.5 -418.5Q131 -432 131 -437Q131 -465 131.5 -479.5Q132 -494 133.5 -524.5Q135 -555 138 -572.5Q141 -590 146.5 -617.5Q152 -645 159.5 -661.5Q167 -678 179.5 -697.5Q192 -717 207 -728Q222 -739 243.5 -746.5Q265 -754 290 -754Q297 -754 305 -753Q320 -755 334 -755Q382 -755 418 -730.5Q454 -706 473.5 -665.5Q493 -625 502.5 -580Q512 -535 512 -487Q512 -466 510 -446Q512 -421 512 -395Q512 -324 500.5 -259Q489 -194 457.5 -130Q426 -66 376 -31Q375 -30 373 -30Q368 -30 368 -35Q368 -38 370 -39Q439 -88 470.5 -186.5Q502 -285 502 -395Q502 -421 500 -446Q500 -446 500 -446Q502 -466 502 -487Q502 -534 493 -578Q484 -622 465 -660.5Q446 -699 412 -722Q378 -745 334 -745Q320 -745 306 -743Q306 -743 305 -743Q303 -743 297.5 -743.5Q292 -744 290 -744Q260 -744 236.5 -732.5Q213 -721 197.5 -705Q182 -689 171 -661Q160 -633 154.5 -610Q149 -587 145.5 -550.5Q142 -514 141.5 -493Q141 -472 141 -436Q141 -432 140.5 -418.5Q140 -405 140 -396Q140 -349 146 -300Q152 -251 168 -198Q184 -145 207.5 -104.5Q231 -64 269.5 -36.5Q308 -9 356 -8Q356 -8 357.5 -8Q359 -8 360 -8Q374 -8 388 -14Q402 -20 408 -29Q406 -34 406 -40Q406 -56 413 -56Q417 -56 418 -53Q421 -46 421 -39Q421 -33 419 -28Q424 -19 439.5 -3.5Q455 12 465.5 27.5Q476 43 476 59Q476 77 468 91.5Q460 106 446.5 120.5Q433 135 428 144Q426 146 423 146H351Q346 146 346 141Q346 136 351 136H421Q426 128 439 113Q466 83 466 61Z"/>
</svg>