<svg xmlns="http://www.w3.org/2000/svg" viewBox="0 -1024 1024 1024">
	<path fill="#000088" d="M93 -764Q108 -764 118.5 -754Q129 -744 129 -729V-728L126 -615Q125 -601 114.5 -591Q104 -581 90 -581Q75 -581 65 -591Q55 -601 55 -616V-617L58 -730Q59 -744 69 -754Q79 -764 93 -764Z"/>
	<path fill="#800080" d="M103 -728Q103 -728 103 -727L100 -616Q100 -606 93 -599Q85 -592 75 -592Q65 -592 57.5 -599.5Q50 -607 50 -617Q50 -617 50 -618L53 -729Q53 -739 60 -746Q68 -753 78 -753Q88 -753 95.5 -745.5Q103 -738 103 -728Z"/>
	<path fill="#daa520" d="M88 -733Q93 -733 93 -728L90 -617Q90 -612 85 -612Q80 -612 80 -617L83 -728Q83 -733 88 -733Z"/>
</svg>