<svg xmlns="http://www.w3.org/2000/svg" viewBox="0 -1024 1024 1024">
	<path fill="#000088" d="M620 -147Q634 -147 643 -137.5Q652 -128 652 -115Q652 -106 650 -102L638 -74L612 -48Q600 -34 593 -27L558 9Q534 33 510 33Q482 33 458 9L423 -26Q378 -71 361 -166Q355 -200 350.5 -264.5Q346 -329 344 -349Q342 -350 339 -353Q336 -356 334 -358L299 -393Q255 -437 255 -499Q255 -513 258 -516L294 -552Q295 -553 298 -553Q305 -553 316 -542L351 -507Q364 -494 377 -474Q390 -454 392 -444Q396 -435 399 -424Q437 -436 472 -465Q505 -508 505 -548Q505 -641 459 -702Q397 -749 298 -749Q278 -751 271 -751Q234 -751 205 -733Q168 -676 159 -534Q158 -520 148 -510Q138 -500 124 -500Q110 -500 99.5 -511Q89 -522 89 -536V-538Q92 -586 96 -617.5Q100 -649 114 -689.5Q128 -730 151 -753L186 -788Q219 -821 271 -821Q278 -821 298 -819Q416 -819 478 -757L514 -721Q576 -659 576 -548Q576 -496 526 -446L490 -411Q456 -377 414 -359Q418 -332 421.5 -266Q425 -200 432 -166Q446 -91 476 -47Q493 -37 510 -37Q525 -37 542 -49L568 -75Q572 -84 579 -101.5Q586 -119 590 -128Q598 -147 620 -147ZM306 -258Q306 -246 306.5 -221Q307 -196 307 -181Q307 -42 266 -1L231 34Q214 51 190 51Q157 51 126 20L94 -12L90 -9L55 -44Q55 -45 73 -65Q91 -85 94 -88L129 -124H130L165 -89Q153 -75 138 -58H140Q140 -46 146 -34Q171 -19 190 -19Q204 -19 212 -23Q236 -70 236 -181Q236 -196 235.5 -221Q235 -246 235 -258Q235 -316 225.5 -381Q216 -446 200.5 -523Q185 -600 179 -640L182 -664Q184 -677 194 -685.5Q204 -694 217 -694Q231 -694 241.5 -683.5Q252 -673 252 -659Q252 -652 250 -640Q256 -600 271.5 -523Q287 -446 296.5 -381Q306 -316 306 -258ZM67 -55Q64 -46 64 -44Q64 -22 88 -18Z"/>
	<path fill="#800080" d="M84 -538Q84 -539 84 -540Q90 -625 102 -674Q119 -737 153 -771Q194 -811 257 -811Q270 -811 285 -809Q411 -808 481 -739Q550 -670 550 -548Q550 -486 493 -429Q446 -382 388 -364Q392 -335 395.5 -269.5Q399 -204 406 -171Q413 -130 428 -95.5Q443 -61 460 -44Q477 -27 495 -27Q508 -27 525 -44Q531 -50 544.5 -66Q558 -82 566 -89L576 -112Q583 -127 599 -127Q609 -127 616.5 -119.5Q624 -112 624 -102Q624 -97 622 -92L610 -64Q609 -61 596 -49Q590 -43 578.5 -29.5Q567 -16 560 -9Q528 23 495 23Q456 23 425 -8Q400 -33 382 -76Q364 -119 356.5 -162.5Q349 -206 345 -272Q342 -327 338 -355Q337 -355 335 -355Q327 -355 321 -359Q290 -381 270 -419.5Q250 -458 250 -499Q250 -504 250 -508Q251 -525 261 -534Q270 -543 283 -543Q294 -543 305 -536Q311 -531 318 -524Q335 -508 350 -483Q361 -464 365 -452Q372 -434 378 -413Q423 -429 458 -464Q500 -506 500 -548Q500 -649 445 -704Q390 -759 283 -759Q281 -759 279 -759Q267 -761 255 -761Q214 -761 189 -735Q164 -711 151 -661Q139 -617 134 -536Q133 -527 127 -520Q119 -513 109 -513Q99 -513 91.5 -520.5Q84 -528 84 -538ZM310 -453Q313 -445 317 -438Q316 -442 310 -453ZM224 -640Q230 -601 245.5 -523.5Q261 -446 270.5 -382Q280 -318 280 -258Q280 -246 281 -221Q282 -196 282 -181Q282 -81 261 -27Q250 0 234 17Q209 41 175 41Q157 41 136 32Q96 14 76 -19Q65 -19 57.5 -26.5Q50 -34 50 -43Q50 -53 56 -61Q82 -93 98 -107Q98 -108 99 -109Q106 -114 114 -114Q125 -114 132 -106.5Q139 -99 139 -88Q139 -81 135 -74Q134 -73 129 -68Q125 -62 115 -52Q119 -41 131 -30.5Q143 -20 156 -14Q167 -9 175 -9Q189 -9 198 -19Q219 -39 227 -100Q232 -134 232 -182Q232 -197 231 -221.5Q230 -246 230 -258Q230 -315 220.5 -379Q211 -443 195.5 -520Q180 -597 174 -636Q174 -638 174 -640Q174 -642 176 -658Q178 -666 185 -672.5Q192 -679 201 -679Q211 -679 218.5 -671.5Q226 -664 226 -654Q226 -652 224 -640Z"/>
	<path fill="#daa520" d="M280 -499Q280 -523 293 -523Q299 -523 307 -516Q321 -506 336.5 -482.5Q352 -459 356 -446Q367 -419 373 -388Q431 -401 480.5 -449Q530 -497 530 -548Q530 -652 471.5 -715.5Q413 -779 293 -779Q293 -779 292 -779Q278 -781 266 -781Q237 -781 214 -771Q191 -761 176.5 -740.5Q162 -720 152 -699Q142 -678 136.5 -646.5Q131 -615 128.5 -592.5Q126 -570 124 -538Q124 -533 119 -533Q114 -533 114 -538Q116 -566 117.5 -585Q119 -604 124 -632.5Q129 -661 135 -681Q141 -701 152.5 -723.5Q164 -746 179 -759.5Q194 -773 216.5 -782Q239 -791 266 -791Q279 -791 293 -789Q417 -789 478.5 -722.5Q540 -656 540 -548Q540 -492 488 -441.5Q436 -391 375 -378Q381 -344 385 -273Q389 -202 396 -167Q400 -143 408.5 -118Q417 -93 430 -66.5Q443 -40 462.5 -23.5Q482 -7 505 -7Q521 -7 536.5 -19Q552 -31 568.5 -51Q585 -71 593 -77L604 -104Q606 -107 609 -107Q614 -107 614 -102Q614 -101 613 -100L601 -72Q601 -71 600 -70Q592 -63 575 -42.5Q558 -22 541 -9.5Q524 3 505 3Q478 3 456 -15Q434 -33 420.5 -61.5Q407 -90 399 -115Q391 -140 386 -165Q379 -200 375 -271Q371 -342 365 -377Q355 -375 345 -375Q343 -375 342 -376Q314 -395 297 -429.5Q280 -464 280 -499ZM290 -499Q290 -467 306 -435Q322 -403 346 -385Q355 -385 363 -386Q357 -417 346 -442Q346 -442 346 -443Q342 -461 318 -490Q309 -502 301 -508Q295 -513 293 -513H292Q290 -513 290 -499ZM270 -258Q270 -246 270.5 -221.5Q271 -197 271 -181Q271 -63 242 -14Q221 21 185 21Q159 21 130 0Q101 -21 95 -47Q89 -41 88 -40Q87 -39 85 -39Q80 -39 80 -44Q80 -46 81 -47.5Q82 -49 87 -55Q106 -77 120 -91Q121 -92 121 -93Q123 -94 124 -94Q129 -94 129 -89Q129 -87 128 -85Q128 -85 124 -81Q118 -74 105 -59Q104 -58 104 -58Q104 -35 132 -12Q160 11 185 11Q215 11 234 -19Q261 -65 261 -181Q261 -197 260.5 -221.5Q260 -246 260 -258Q260 -316 250.5 -380.5Q241 -445 225.5 -522Q210 -599 204 -639Q204 -640 204 -640Q204 -640 204 -641L206 -655Q207 -659 211 -659Q216 -659 216 -654Q216 -654 216 -653L214 -640Q220 -600 235.5 -523Q251 -446 260.5 -381.5Q270 -317 270 -258Z"/>
</svg>