<svg xmlns="http://www.w3.org/2000/svg" viewBox="0 -1024 1024 1024">
	<path fill="#000088" d="M426 -716Q426 -665 412 -613Q398 -561 385 -532Q372 -503 343 -448Q415 -396 446 -365L482 -330Q558 -254 558 -154Q558 -79 501 -22L465 14Q420 59 362 59Q340 59 321 40L285 4Q246 -35 229 -124Q209 -71 173 -35L138 1Q136 3 131.5 6.5Q127 10 125 12Q123 25 113 33Q103 41 90 41Q75 41 65 31Q55 21 55 6V0L90 -35Q101 -40 119 -54Q130 -68 140 -86.5Q150 -105 155.5 -117.5Q161 -130 169.5 -156.5Q178 -183 180 -190.5Q182 -198 190 -231.5Q198 -265 199 -268Q216 -339 267 -438Q258 -446 216 -488Q135 -569 135 -678Q135 -744 155 -764L191 -799Q204 -812 228 -815.5Q252 -819 302 -819Q353 -819 374 -798L409 -763Q426 -746 426 -716ZM355 -716Q355 -728 351 -742Q331 -749 302 -749Q236 -749 213 -741Q206 -720 206 -678Q206 -580 271 -505L292 -487Q355 -613 355 -716ZM301 -168Q309 -168 318 -161Q335 -146 359 -144Q360 -147 360 -152Q360 -164 353 -178Q330 -191 309 -191Q302 -191 299 -190Q296 -181 296 -168ZM431 -152Q431 -135 417 -121L382 -85Q378 -81 364 -73Q352 -73 340.5 -77.5Q329 -82 324 -86L318 -91L304 -104Q317 -52 339 -17Q350 -11 362 -11Q407 -11 447 -41Q487 -94 487 -154Q487 -244 427 -312Q413 -324 317 -397Q287 -335 270 -268Q268 -262 265 -250.5Q262 -239 261 -234L277 -250Q289 -262 309 -262Q344 -262 374 -232L409 -197Q431 -175 431 -152Z"/>
	<path fill="#800080" d="M180 -678Q180 -579 254 -505Q266 -493 281 -481Q316 -548 333 -600Q350 -652 350 -716Q350 -736 341 -745Q327 -759 287 -759Q234 -759 215 -755Q199 -752 193 -746Q188 -741 185 -730Q180 -713 180 -678ZM303 -151Q313 -151 320 -144Q329 -136 343 -134Q346 -136 349 -139Q355 -145 355 -152Q355 -157 353 -163Q349 -171 341 -179Q319 -202 294 -202Q284 -202 279 -196Q270 -187 270 -162Q270 -127 287 -78Q303 -33 323 -13Q335 -1 347 -1Q394 -1 432 -39Q455 -62 468.5 -93Q482 -124 482 -154Q482 -243 413 -312Q404 -321 393.5 -330.5Q383 -340 369.5 -350.5Q356 -361 347.5 -367.5Q339 -374 321.5 -386.5Q304 -399 298 -404Q259 -325 243 -262Q241 -253 237 -235.5Q233 -218 232 -216Q237 -225 244 -232Q264 -252 294 -252Q339 -252 376 -215Q397 -194 403 -170Q405 -162 405 -153Q405 -124 384 -103Q375 -94 361 -86Q356 -83 349 -83Q328 -83 308 -93Q295 -100 286 -108Q278 -115 278 -126Q278 -136 285.5 -143.5Q293 -151 303 -151ZM130 -678Q130 -754 158 -781Q175 -799 206 -804Q229 -809 287 -809Q348 -809 376 -781Q400 -757 400 -716Q400 -664 387 -612.5Q374 -561 360.5 -530Q347 -499 321 -449Q331 -442 349 -428Q375 -409 387 -400Q399 -391 422 -371.5Q445 -352 457 -338.5Q469 -325 486 -302.5Q503 -280 511 -259Q519 -238 525.5 -211Q532 -184 532 -154Q532 -113 515 -73.5Q498 -34 468 -4Q415 49 347 49Q315 49 288 22Q259 -6 240 -61Q220 -119 220 -162Q220 -166 220 -170Q192 -68 140 -17Q121 2 98 16Q92 31 75 31Q65 31 57.5 23.5Q50 16 50 6V0Q50 -15 64 -22Q87 -34 105 -52Q113 -61 120.5 -70.5Q128 -80 135 -92Q142 -104 146.5 -113.5Q151 -123 157 -139Q163 -155 166 -163.5Q169 -172 174 -191.5Q179 -211 181 -218Q183 -225 188 -246.5Q193 -268 195 -274Q212 -345 258 -435Q199 -483 164.5 -540.5Q130 -598 130 -678Z"/>
	<path fill="#daa520" d="M297 -779Q222 -779 201 -769Q184 -760 177 -740Q170 -720 170 -678Q170 -602 203 -550Q236 -498 297 -449Q320 -493 329 -512.5Q338 -532 353 -569.5Q368 -607 374 -642Q380 -677 380 -716Q380 -779 297 -779ZM305 -443Q319 -433 347 -412.5Q375 -392 390.5 -379.5Q406 -367 430 -346.5Q454 -326 467.5 -308Q481 -290 495 -265.5Q509 -241 515.5 -213.5Q522 -186 522 -154Q522 -86 473.5 -28.5Q425 29 357 29Q324 29 297 -11Q275 -42 262.5 -87.5Q250 -133 250 -162Q250 -197 265 -214.5Q280 -232 304 -232Q336 -232 365.5 -207Q395 -182 395 -152.5Q395 -123 361 -104Q360 -103 359 -103Q330 -103 310 -122Q308 -124 308 -126Q308 -131 313 -131Q315 -131 316 -130Q334 -114 358 -113Q385 -129 385 -152Q385 -177 358.5 -199.5Q332 -222 304 -222Q260 -222 260 -162Q260 -141 268.5 -105.5Q277 -70 291 -40Q320 19 357 19Q420 19 466 -35.5Q512 -90 512 -154Q512 -190 501.5 -222.5Q491 -255 478 -277Q465 -299 438 -325Q411 -351 393.5 -365Q376 -379 342 -404Q314 -424 301 -434Q251 -337 234 -267Q232 -258 228 -241Q218 -203 213 -183.5Q208 -164 196 -130Q184 -96 171 -76Q158 -56 137 -33.5Q116 -11 90 3V6Q90 11 85 11Q80 11 80 6V0Q80 -3 83 -4Q98 -13 111.5 -22.5Q125 -32 136.5 -46.5Q148 -61 156.5 -71.5Q165 -82 173.5 -102Q182 -122 186.5 -131.5Q191 -141 198 -166Q205 -191 207 -198.5Q209 -206 216 -235Q223 -264 224 -269Q242 -341 293 -440Q230 -490 195 -544.5Q160 -599 160 -678Q160 -722 168 -745Q176 -768 197 -778Q220 -789 297 -789Q390 -789 390 -716Q390 -676 384 -640Q378 -604 362.5 -565Q347 -526 337.5 -507Q328 -488 305 -443Z"/>
</svg>