<svg xmlns="http://www.w3.org/2000/svg" viewBox="0 -1024 1024 1024">
	<path fill="#000088" d="M88 -39Q88 -52 97 -61.5Q106 -71 120 -71Q141 -71 150 -52L162 -26Q171 -6 171 7Q171 28 141 58L106 93L99 99Q90 106 82 106Q71 106 63 98Q55 90 55 79Q55 66 64 59L86 40Q100 22 100 7Q100 1 98 -7Q96 -15 94 -20L91 -26Q88 -32 88 -39ZM136 -388L101 -353L65 -388L101 -423Z"/>
	<path fill="#800080" d="M77 -26Q77 -36 84.5 -43.5Q92 -51 102 -51Q118 -51 125 -36Q136 -11 136 7Q136 25 124 45Q114 60 99 75Q95 80 91 83Q84 89 75 89Q65 89 57.5 81.5Q50 74 50 64Q50 53 59 45Q72 33 81 19Q86 11 86 7Q86 4 83 -4L79 -16Q77 -21 77 -26ZM59 -370.5Q52 -378 52 -388Q52 -398 59 -405.5Q66 -413 76.5 -413Q87 -413 94 -405.5Q101 -398 101 -388Q101 -378 94 -370.5Q87 -363 76.5 -363Q66 -363 59 -370.5Z"/>
	<path fill="#daa520" d="M116 7Q116 1 114 -6.5Q112 -14 109.5 -19.5Q107 -25 107 -26Q107 -31 112 -31Q115 -31 117 -28Q126 -7 126 7Q126 23 110 44Q100 58 88 68Q87 69 85 69Q80 69 80 64Q80 62 82 60Q85 57 91 51Q97 45 106.5 31Q116 17 116 7ZM87 -383Q82 -383 82 -388Q82 -393 87 -393Q92 -393 92 -388Q92 -383 87 -383Z"/>
</svg>