<svg xmlns="http://www.w3.org/2000/svg" viewBox="0 -1024 1024 1024">
	<path fill="#000088" d="M92 -376Q77 -376 66.5 -386Q56 -396 56 -411Q56 -426 66.5 -436Q77 -446 92 -446H276L311 -411L121 218Q114 242 89 242Q75 242 65 232Q55 222 55 208Q55 201 56 198L230 -376Z"/>
	<path fill="#800080" d="M75 -386Q65 -386 57.5 -393.5Q50 -401 50 -411Q50 -421 57.5 -428.5Q65 -436 75 -436H259Q269 -436 276.5 -428.5Q284 -421 284 -411Q284 -407 283 -404L99 205Q94 223 75 223Q65 223 57.5 215.5Q50 208 50 198Q50 194 51 191L225 -386Z"/>
	<path fill="#daa520" d="M85 -406Q80 -406 80 -411Q80 -416 85 -416H269Q274 -416 274 -411Q274 -410 274 -410L90 199Q89 203 85 203Q80 203 80 198Q80 197 80 197L262 -406Z"/>
</svg>