<svg xmlns="http://www.w3.org/2000/svg" viewBox="0 -1024 1024 1024">
	<path fill="#000088" d="M155 -366Q161 -366 164 -365Q196 -357 211 -342L246 -307Q276 -277 276 -197Q276 -131 262.5 -77.5Q249 -24 227 -2L191 33Q179 45 166 45Q154 45 143 34L107 -1Q66 -42 56 -197Q56 -201 55.5 -209Q55 -217 55 -221Q55 -282 75.5 -351Q96 -420 121.5 -470.5Q147 -521 181 -588.5Q215 -656 231 -698L240 -722Q249 -743 271 -743Q284 -743 294 -733.5Q304 -724 304 -710L301 -698Q285 -657 235 -557Q168 -424 150 -366ZM206 -197Q206 -252 190 -286Q178 -292 164 -295Q138 -302 134 -305Q126 -268 126 -221V-197Q132 -85 161 -26Q162 -26 163.5 -25.5Q165 -25 166 -25Q171 -25 173 -26Q206 -87 206 -197Z"/>
	<path fill="#800080" d="M124 -330Q124 -340 131 -347.5Q138 -355 149 -355Q152 -355 155 -354Q193 -344 213 -324Q251 -287 251 -197Q251 -120 233 -59Q218 -8 194 15Q174 35 151 35Q128 35 110 17Q87 -6 72 -57Q56 -114 51 -195Q50 -208 50 -221Q50 -267 59 -312Q68 -357 88 -407Q108 -457 121.5 -485.5Q135 -514 163 -569Q210 -662 227 -707Q234 -723 251 -723Q261 -723 268.5 -715.5Q276 -708 276 -698Q276 -693 274 -689Q256 -642 207 -546Q172 -477 153.5 -437Q135 -397 117.5 -335.5Q100 -274 100 -220Q100 -209 101 -199Q105 -123 120 -71Q132 -32 145 -19Q149 -15 151 -15Q153 -15 158 -20Q173 -35 185 -73Q201 -127 201 -197Q201 -266 178 -289Q168 -299 142 -306Q135 -308 129.5 -315Q124 -322 124 -330Z"/>
	<path fill="#daa520" d="M154 -330Q154 -335 159 -335Q159 -335 160 -335Q203 -323 220 -296Q241 -263 241 -197Q241 -77 203 -16Q184 15 161 15Q131 15 110 -37Q87 -95 81 -197Q80 -209 80 -221Q80 -265 88.5 -308.5Q97 -352 116 -400Q135 -448 149 -477Q163 -506 190 -560Q238 -654 256 -700Q257 -703 261 -703Q266 -703 266 -698Q266 -697 265 -696Q249 -654 215.5 -587Q182 -520 156.5 -469Q131 -418 110.5 -349.5Q90 -281 90 -221Q90 -209 91 -197Q97 -97 120 -41Q138 5 161 5Q185 5 204 -41Q231 -102 231 -197Q231 -260 212 -291Q197 -315 157 -325Q154 -326 154 -330Z"/>
</svg>