<svg xmlns="http://www.w3.org/2000/svg" viewBox="0 -1024 1024 1024">
	<path fill="#000088" d="M125 -82Q115 -82 107.5 -89.5Q100 -97 100 -107Q100 -112 102 -117L333 -675Q339 -690 356 -690Q366 -690 373.5 -682.5Q381 -675 381 -665Q381 -660 379 -655L148 -97Q142 -82 125 -82Z"/>
	<path fill="#800080" d="M75 -82Q65 -82 57.5 -89.5Q50 -97 50 -107Q50 -112 52 -117L283 -675Q289 -690 306 -690Q316 -690 323.5 -682.5Q331 -675 331 -665Q331 -660 329 -655L98 -97Q92 -82 75 -82Z"/>
	<path fill="#daa520" d="M135 -102Q130 -102 130 -107Q130 -108 130 -109L361 -667Q363 -670 366 -670Q371 -670 371 -665Q371 -664 371 -663L140 -105Q138 -102 135 -102Z"/>
</svg>