<svg xmlns="http://www.w3.org/2000/svg" viewBox="0 -1024 1024 1024">
	<path fill="#000088" d="M195 -650Q195 -640 187.5 -632.5Q180 -625 170 -625Q159 -625 146 -638Q114 -670 101 -742Q100 -750 100 -757Q100 -779 113 -793Q130 -809 170 -809Q194 -809 227 -797Q249 -788 297 -764Q370 -726 401 -721Q410 -719 418 -719Q425 -719 430 -720L437 -762Q441 -782 452 -793Q463 -804 478.5 -804Q494 -804 506 -792Q515 -783 520 -767Q521 -764 521 -760Q521 -756 520 -751Q504 -708 476 -687L475 -684V-30Q475 -23 470 -14Q463 -2 458 4.5Q453 11 442 19Q431 27 418 27Q403 27 388 17Q344 -12 334 -19Q323 -27 323 -40V-74Q323 -84 330.5 -91.5Q338 -99 348 -99Q358 -99 365.5 -91.5Q373 -84 373 -74V-53Q376 -51 416 -25Q416 -25 417 -24Q420 -28 425 -37V-670Q421 -669 416 -669Q405 -669 392 -671Q355 -678 289 -711.5Q223 -745 209 -750Q185 -759 170 -759Q158 -759 150 -757Q150 -755 151 -750Q162 -689 186 -669Q195 -662 195 -650Z"/>
	<path fill="#800080" d="M145 -650Q145 -640 137.5 -632.5Q130 -625 120 -625Q109 -625 96 -638Q64 -670 51 -742Q50 -750 50 -757Q50 -779 63 -793Q80 -809 120 -809Q144 -809 177 -797Q199 -788 247 -764Q320 -726 351 -721Q360 -719 368 -719Q375 -719 380 -720L387 -762Q391 -782 402 -793Q413 -804 428.5 -804Q444 -804 456 -792Q465 -783 470 -767Q471 -764 471 -760Q471 -756 470 -751Q454 -708 426 -687L425 -684V-30Q425 -23 420 -14Q413 -2 408 4.5Q403 11 392 19Q381 27 368 27Q353 27 338 17Q294 -12 284 -19Q273 -27 273 -40V-74Q273 -84 280.5 -91.5Q288 -99 298 -99Q308 -99 315.5 -91.5Q323 -84 323 -74V-53Q326 -51 366 -25Q366 -25 367 -24Q370 -28 375 -37V-670Q371 -669 366 -669Q355 -669 342 -671Q305 -678 239 -711.5Q173 -745 159 -750Q135 -759 120 -759Q108 -759 100 -757Q100 -755 101 -750Q112 -689 136 -669Q145 -662 145 -650Z"/>
	<path fill="#daa520" d="M428 -3Q439 -3 455 -31V-686Q455 -686 456 -694Q443 -689 427 -689Q408 -689 382.5 -697.5Q357 -706 341 -713.5Q325 -721 294 -737Q211 -779 180 -779Q158 -779 149 -774.5Q140 -770 140 -757Q140 -753 141 -747Q154 -678 183 -654Q185 -652 185 -650Q185 -645 180 -645Q178 -645 177 -646Q144 -672 131 -745Q130 -752 130 -757Q130 -776 143 -782.5Q156 -789 180 -789Q196 -789 218 -781.5Q240 -774 254.5 -767.5Q269 -761 298 -746Q389 -699 427 -699Q445 -699 458 -706L467 -759Q471 -784 488 -784Q504 -784 511 -761Q511 -761 511 -760Q511 -759 511 -758Q495 -716 467 -699L465 -686V-30Q465 -29 462 -24Q456 -14 453.5 -9.5Q451 -5 443.5 1Q436 7 428 7Q419 7 409 0Q365 -29 355 -36Q353 -37 353 -40V-74Q353 -79 358 -79Q363 -79 363 -74V-43Q372 -37 415 -8Q422 -3 428 -3ZM488 -774Q480 -774 477 -757L470 -713Q489 -728 501 -760Q496 -774 488 -774Z"/>
</svg>