<svg xmlns="http://www.w3.org/2000/svg" viewBox="0 -1024 1024 1024">
	<path fill="#000088" d="M321 -280Q321 -327 298 -366Q278 -376 258 -376Q236 -376 216.5 -369Q197 -362 186 -355.5Q175 -349 155 -334Q125 -312 101 -299Q93 -295 87 -295Q74 -295 64.5 -304.5Q55 -314 55 -327Q55 -346 72 -355L101 -369Q125 -382 155 -404Q175 -419 186 -425.5Q197 -432 216.5 -439Q236 -446 258 -446Q293 -446 317 -422L352 -386Q370 -368 379 -343Q392 -307 392 -280Q392 -239 364 -199Q337 -162 317 -142L281 -107Q248 -74 193 -35H356Q371 -35 381 -25Q391 -15 391 0Q391 15 381 25Q371 35 356 35H101V-35Q139 -68 189 -104Q237 -137 263 -160Q278 -178 293 -199Q321 -239 321 -280Z"/>
	<path fill="#800080" d="M232 -436Q277 -436 309 -404Q330 -383 341 -352Q355 -313 355 -280Q355 -229 323 -185Q300 -152 273 -125Q259 -110 241.5 -95.5Q224 -81 212 -72Q200 -63 178.5 -48Q157 -33 146 -25H330Q340 -25 347.5 -17.5Q355 -10 355 0Q355 10 347.5 17.5Q340 25 330 25H75Q65 25 57.5 17.5Q50 10 50 0Q50 -11 59 -19Q91 -47 149 -89Q210 -132 238 -160Q260 -182 283 -214Q305 -245 305 -280Q305 -304 295 -334Q287 -356 274 -369Q256 -386 232 -386Q214 -386 198 -380.5Q182 -375 172.5 -369Q163 -363 144 -349Q109 -323 86 -312Q81 -309 75 -309Q65 -309 57.5 -316.5Q50 -324 50 -334Q50 -349 64 -356Q83 -366 114 -389Q135 -404 147 -412Q159 -420 183 -428Q207 -436 232 -436Z"/>
	<path fill="#daa520" d="M340 5H85Q80 5 80 0Q80 -2 82 -4Q113 -32 171 -72Q203 -96 220.5 -109.5Q238 -123 263.5 -148Q289 -173 309 -202Q335 -239 335 -280Q335 -307 323 -341Q312 -371 291.5 -388.5Q271 -406 242 -406Q221 -406 202 -399.5Q183 -393 172.5 -386Q162 -379 142 -365Q109 -340 87 -330Q86 -329 85 -329Q80 -329 80 -334Q80 -337 83 -338Q104 -349 136 -373Q156 -388 167.5 -395Q179 -402 199.5 -409Q220 -416 242 -416Q274 -416 297.5 -396.5Q321 -377 333 -345Q345 -309 345 -280Q345 -236 317 -196Q296 -166 270.5 -140.5Q245 -115 227 -101.5Q209 -88 176 -64Q126 -28 98 -5H340Q345 -5 345 0Q345 5 340 5Z"/>
</svg>