<svg xmlns="http://www.w3.org/2000/svg" viewBox="0 -1024 1024 1024">
	<path fill="#000088" d="M129 -277Q129 -287 126 -308Q123 -329 123 -341Q123 -342 123 -343Q127 -385 140.5 -427Q154 -469 174 -517Q194 -565 202 -592Q207 -607 212 -620Q188 -669 142.5 -705.5Q97 -742 42 -758Q24 -763 24 -782Q24 -792 31.5 -799.5Q39 -807 49 -807Q53 -807 56 -806Q111 -790 159.5 -755.5Q208 -721 240 -673Q247 -685 255 -695Q281 -726 344 -769Q376 -791 394 -805Q401 -810 409 -810Q419 -810 426.5 -802.5Q434 -795 434 -785Q434 -773 424 -765Q406 -751 372 -728Q329 -699 306.5 -677.5Q284 -656 267 -620Q284 -576 284 -530Q284 -514 287 -477Q290 -440 290 -422Q290 -407 288.5 -392Q287 -377 284.5 -359.5Q282 -342 281 -332Q281 -331 281 -330Q278 -316 273 -291Q268 -266 265.5 -250Q263 -234 257.5 -212.5Q252 -191 247 -172Q245 -164 239 -142.5Q233 -121 230 -110Q225 -93 222 -88Q215 -73 199 -73Q184 -73 177 -86Q176 -88 170.5 -97Q165 -106 162.5 -111Q160 -116 156.5 -124.5Q153 -133 151 -141.5Q149 -150 149 -159Q149 -162 150 -165Q148 -174 141.5 -193Q135 -212 132 -228Q129 -244 129 -261Q129 -263 129 -268.5Q129 -274 129 -277ZM234 -530Q234 -531 234 -532Q231 -525 216.5 -488Q202 -451 196.5 -435.5Q191 -420 183 -391.5Q175 -363 173 -340Q173 -330 176 -309Q179 -288 179 -277Q179 -274 179 -268.5Q179 -263 179 -261Q179 -250 182 -236.5Q185 -223 190.5 -205Q196 -187 197 -181Q198 -184 199 -186Q206 -211 231 -339Q232 -347 234.5 -364.5Q237 -382 238.5 -396Q240 -410 240 -422Q240 -423 240 -425Q240 -427 240 -428Q240 -444 237 -479Q234 -514 234 -530Z"/>
	<path fill="#800080" d="M79 -277Q79 -287 76 -308Q73 -329 73 -341Q73 -342 73 -343Q77 -385 90.5 -427Q104 -469 124 -517Q144 -565 152 -592Q157 -607 162 -620Q138 -669 92.5 -705.5Q47 -742 -8 -758Q-26 -763 -26 -782Q-26 -792 -18.5 -799.5Q-11 -807 -1 -807Q3 -807 6 -806Q61 -790 109.5 -755.5Q158 -721 190 -673Q197 -685 205 -695Q231 -726 294 -769Q326 -791 344 -805Q351 -810 359 -810Q369 -810 376.5 -802.5Q384 -795 384 -785Q384 -773 374 -765Q356 -751 322 -728Q279 -699 256.5 -677.5Q234 -656 217 -620Q234 -576 234 -530Q234 -514 237 -477Q240 -440 240 -422Q240 -407 238.5 -392Q237 -377 234.5 -359.5Q232 -342 231 -332Q231 -331 231 -330Q228 -316 223 -291Q218 -266 215.5 -250Q213 -234 207.5 -212.5Q202 -191 197 -172Q195 -164 189 -142.5Q183 -121 180 -110Q175 -93 172 -88Q165 -73 149 -73Q134 -73 127 -86Q126 -88 120.5 -97Q115 -106 112.5 -111Q110 -116 106.5 -124.5Q103 -133 101 -141.5Q99 -150 99 -159Q99 -162 100 -165Q98 -174 91.5 -193Q85 -212 82 -228Q79 -244 79 -261Q79 -263 79 -268.5Q79 -274 79 -277ZM184 -530Q184 -531 184 -532Q181 -525 166.5 -488Q152 -451 146.5 -435.5Q141 -420 133 -391.5Q125 -363 123 -340Q123 -330 126 -309Q129 -288 129 -277Q129 -274 129 -268.5Q129 -263 129 -261Q129 -250 132 -236.5Q135 -223 140.5 -205Q146 -187 147 -181Q148 -184 149 -186Q156 -211 181 -339Q182 -347 184.5 -364.5Q187 -382 188.5 -396Q190 -410 190 -422Q190 -423 190 -425Q190 -427 190 -428Q190 -444 187 -479Q184 -514 184 -530Z"/>
	<path fill="#daa520" d="M119 -277Q119 -287 116 -308.5Q113 -330 113 -341Q117 -381 130 -422.5Q143 -464 163 -512Q183 -560 191 -586Q197 -604 204 -621Q179 -676 129 -718Q79 -760 18 -777Q14 -778 14 -782Q14 -787 19 -787Q20 -787 20 -787Q81 -769 132 -728.5Q183 -688 210 -633Q224 -662 244 -685Q264 -708 279.5 -720Q295 -732 325 -753Q358 -775 376 -789Q377 -790 379 -790Q384 -790 384 -785Q384 -783 382 -781Q364 -767 331 -745Q307 -728 295 -719.5Q283 -711 266 -695.5Q249 -680 237.5 -662Q226 -644 215 -621Q234 -577 234 -530Q234 -513 237 -476Q240 -439 240 -422Q240 -408 238.5 -393.5Q237 -379 234.5 -361.5Q232 -344 231 -334Q228 -321 223.5 -295.5Q219 -270 216 -254.5Q213 -239 208 -217.5Q203 -196 198 -178Q197 -175 188.5 -144.5Q180 -114 176 -101Q174 -96 173 -95Q171 -93 169 -93Q166 -93 165 -96Q164 -97 158.5 -106Q153 -115 151 -119Q149 -123 145.5 -131Q142 -139 140.5 -145.5Q139 -152 139 -159Q139 -163 140 -167Q138 -177 132 -195Q126 -213 122.5 -229.5Q119 -246 119 -261Q119 -263 119 -268.5Q119 -274 119 -277ZM129 -277Q129 -274 129 -268.5Q129 -263 129 -261Q129 -242 139 -206.5Q149 -171 150 -168Q150 -168 150 -167Q150 -166 149.5 -163.5Q149 -161 149 -159Q149 -141 168 -110Q171 -120 178.5 -147Q186 -174 188 -180Q193 -198 198 -219.5Q203 -241 206 -256.5Q209 -272 213.5 -297Q218 -322 221 -336Q222 -345 224.5 -362.5Q227 -380 228.5 -394.5Q230 -409 230 -422Q230 -423 230 -425Q230 -427 230 -428Q230 -444 227 -479Q224 -514 224 -530Q224 -570 210 -608Q205 -596 201 -582Q193 -557 173 -509Q153 -461 140 -420Q127 -379 123 -341Q123 -330 126 -309Q129 -288 129 -277Z"/>
</svg>