<svg xmlns="http://www.w3.org/2000/svg" viewBox="0 -1024 1024 1024">
	<path fill="#000088" d="M321 -757Q311 -757 303.5 -764.5Q296 -772 296 -782Q296 -792 303 -799.5Q310 -807 321 -807L527 -809Q537 -809 544.5 -801.5Q552 -794 552 -784Q552 -774 545 -766.5Q538 -759 527 -759ZM161 -755Q143 -755 107 -757Q71 -759 53 -759H45Q35 -759 27.5 -766.5Q20 -774 20 -784Q20 -794 27.5 -801.5Q35 -809 45 -809H53Q71 -809 107 -807Q143 -805 161 -805Q163 -805 164 -805Q215 -805 290 -820Q293 -821 295 -821Q306 -821 313.5 -813Q321 -805 321 -795Q321 -790 320 -784Q318 -780 316 -774Q312 -763 302 -745Q289 -720 249 -645Q168 -499 139 -437Q212 -504 306 -540Q352 -557 385 -557Q395 -557 402.5 -549.5Q410 -542 410 -532Q410 -522 402.5 -514.5Q395 -507 385 -507L384 -503Q371 -489 355 -452Q313 -353 282 -199Q272 -150 272 -134Q272 -126 273 -119Q279 -116 283 -111Q289 -107 292 -101Q296 -95 296 -88Q296 -77 288 -69.5Q280 -62 271 -62H270Q245 -62 232 -85Q222 -104 222 -134Q222 -157 236 -222Q272 -397 318 -491Q277 -474 234.5 -447Q192 -420 164 -392Q144 -371 135 -355Q133 -350 128 -344Q117 -332 104 -326Q97 -323 89 -323Q75 -323 66 -333Q60 -340 58 -349Q58 -352 58 -354Q58 -370 68 -398.5Q78 -427 100 -471Q125 -523 182.5 -628Q240 -733 255 -763Q206 -755 164 -755Q162 -755 161 -755Z"/>
	<path fill="#800080" d="M271 -757Q261 -757 253.5 -764.5Q246 -772 246 -782Q246 -792 253 -799.5Q260 -807 271 -807L477 -809Q487 -809 494.5 -801.5Q502 -794 502 -784Q502 -774 495 -766.5Q488 -759 477 -759ZM111 -755Q93 -755 57 -757Q21 -759 3 -759H-5Q-15 -759 -22.5 -766.5Q-30 -774 -30 -784Q-30 -794 -22.5 -801.5Q-15 -809 -5 -809H3Q21 -809 57 -807Q93 -805 111 -805Q113 -805 114 -805Q165 -805 240 -820Q243 -821 245 -821Q256 -821 263.5 -813Q271 -805 271 -795Q271 -790 270 -784Q268 -780 266 -774Q262 -763 252 -745Q239 -720 199 -645Q118 -499 89 -437Q162 -504 256 -540Q302 -557 335 -557Q345 -557 352.5 -549.5Q360 -542 360 -532Q360 -522 352.5 -514.5Q345 -507 335 -507L334 -503Q321 -489 305 -452Q263 -353 232 -199Q222 -150 222 -134Q222 -126 223 -119Q229 -116 233 -111Q239 -107 242 -101Q246 -95 246 -88Q246 -77 238 -69.5Q230 -62 221 -62H220Q195 -62 182 -85Q172 -104 172 -134Q172 -157 186 -222Q222 -397 268 -491Q227 -474 184.5 -447Q142 -420 114 -392Q94 -371 85 -355Q83 -350 78 -344Q67 -332 54 -326Q47 -323 39 -323Q25 -323 16 -333Q10 -340 8 -349Q8 -352 8 -354Q8 -370 18 -398.5Q28 -427 50 -471Q75 -523 132.5 -628Q190 -733 205 -763Q156 -755 114 -755Q112 -755 111 -755Z"/>
	<path fill="#daa520" d="M291 -787L497 -789Q502 -789 502 -784Q502 -779 497 -779Q291 -777 291 -777Q286 -777 286 -782Q286 -787 291 -787ZM131 -775Q113 -775 77 -777Q41 -779 23 -779H15Q10 -779 10 -784Q10 -789 15 -789H23Q41 -789 77 -787Q113 -785 131 -785Q132 -785 134 -785Q187 -785 264 -801Q265 -801 265 -801Q271 -801 271 -795Q271 -787 254 -754Q242 -729 201 -655Q126 -518 97 -458Q58 -379 58 -354Q58 -353 59 -353Q62 -353 68 -358Q76 -364 79 -368Q102 -415 182 -468Q228 -499 275 -518Q322 -537 355 -537Q360 -537 360 -532Q360 -527 355 -527Q342 -527 323 -494Q302 -456 279 -382Q256 -312 239 -234.5Q222 -157 222 -134Q222 -111 229 -99Q231 -101 233 -101Q237 -101 238 -97Q238 -97 240 -95.5Q242 -94 243 -93Q246 -91 246 -88Q246 -82 240 -82Q239 -82 236 -83Q223 -84 217.5 -100.5Q212 -117 212 -134Q212 -159 229 -236Q246 -313 269 -385Q293 -460 315 -499Q324 -516 332 -525Q268 -513 187 -460Q109 -408 87 -364Q84 -357 75 -350Q66 -343 59 -343Q55 -343 51.5 -346Q48 -349 48 -354Q48 -380 88 -462Q117 -523 192 -660Q253 -771 260 -790Q187 -775 134 -775Q132 -775 131 -775Z"/>
</svg>