<svg xmlns="http://www.w3.org/2000/svg" viewBox="0 -1024 1024 1024">
	<path fill="#000088" d="M547 -277Q547 -287 544 -308Q541 -329 541 -341Q541 -342 541 -343Q545 -385 558.5 -427Q572 -469 592 -517Q612 -565 620 -592Q625 -607 630 -620Q606 -669 560.5 -705.5Q515 -742 460 -758Q442 -763 442 -782Q442 -792 449.5 -799.5Q457 -807 467 -807Q471 -807 474 -806Q529 -790 577.5 -755.5Q626 -721 658 -673Q665 -685 673 -695Q699 -726 762 -769Q794 -791 812 -805Q819 -810 827 -810Q837 -810 844.5 -802.5Q852 -795 852 -785Q852 -773 842 -765Q824 -751 790 -728Q747 -699 724.5 -677.5Q702 -656 685 -620Q702 -576 702 -530Q702 -514 705 -477Q708 -440 708 -422Q708 -407 706.5 -392Q705 -377 702.5 -359.5Q700 -342 699 -332Q699 -331 699 -330Q696 -316 691 -291Q686 -266 683.5 -250Q681 -234 675.5 -212.5Q670 -191 665 -172Q663 -164 657 -142.5Q651 -121 648 -110Q643 -93 640 -88Q633 -73 617 -73Q602 -73 595 -86Q594 -88 588.5 -97Q583 -106 580.5 -111Q578 -116 574.5 -124.5Q571 -133 569 -141.5Q567 -150 567 -159Q567 -162 568 -165Q566 -174 559.5 -193Q553 -212 550 -228Q547 -244 547 -261Q547 -263 547 -268.5Q547 -274 547 -277ZM652 -530Q652 -531 652 -532Q649 -525 634.5 -488Q620 -451 614.5 -435.5Q609 -420 601 -391.5Q593 -363 591 -340Q591 -330 594 -309Q597 -288 597 -277Q597 -274 597 -268.5Q597 -263 597 -261Q597 -250 600 -236.5Q603 -223 608.5 -205Q614 -187 615 -181Q616 -184 617 -186Q624 -211 649 -339Q650 -347 652.5 -364.5Q655 -382 656.5 -396Q658 -410 658 -422Q658 -423 658 -425Q658 -427 658 -428Q658 -444 655 -479Q652 -514 652 -530ZM345 -810Q345 -810 346 -810L470 -806Q480 -806 487 -798.5Q494 -791 494 -781Q494 -771 486.5 -763.5Q479 -756 469 -756Q469 -756 468 -756L344 -760Q334 -760 327 -767.5Q320 -775 320 -785Q320 -795 327.5 -802.5Q335 -810 345 -810ZM101 -341Q101 -329 102 -309Q103 -289 103 -283Q106 -196 118 -162Q124 -178 141 -178Q144 -178 147 -177L195 -165Q207 -162 212 -151Q213 -148 228 -115Q230 -110 230 -105Q230 -92 224 -83Q215 -70 199 -66Q191 -64 180 -64Q179 -64 178 -64Q177 -64 177 -64Q139 -64 112 -84Q78 -109 65 -165Q59 -188 56.5 -211.5Q54 -235 53.5 -269Q53 -303 52 -315.5Q51 -328 51 -341Q51 -473 143 -637Q144 -638 144 -639Q178 -691 238 -760H49Q39 -760 31.5 -767.5Q24 -775 24 -785Q24 -795 31.5 -802.5Q39 -810 49 -810H293Q303 -810 310.5 -802.5Q318 -795 318 -785Q318 -775 312 -768Q309 -766 295 -750Q281 -734 277.5 -730Q274 -726 261.5 -711.5Q249 -697 244 -691Q239 -685 229 -672.5Q219 -660 213 -652Q207 -644 199.5 -633Q192 -622 186 -612Q101 -469 101 -341ZM174 -114Q172 -118 171 -120L137 -128Q151 -115 174 -114Z"/>
	<path fill="#800080" d="M497 -277Q497 -287 494 -308Q491 -329 491 -341Q491 -342 491 -343Q495 -385 508.5 -427Q522 -469 542 -517Q562 -565 570 -592Q575 -607 580 -620Q556 -669 510.5 -705.5Q465 -742 410 -758Q392 -763 392 -782Q392 -792 399.5 -799.5Q407 -807 417 -807Q421 -807 424 -806Q479 -790 527.5 -755.5Q576 -721 608 -673Q615 -685 623 -695Q649 -726 712 -769Q744 -791 762 -805Q769 -810 777 -810Q787 -810 794.5 -802.5Q802 -795 802 -785Q802 -773 792 -765Q774 -751 740 -728Q697 -699 674.5 -677.5Q652 -656 635 -620Q652 -576 652 -530Q652 -514 655 -477Q658 -440 658 -422Q658 -407 656.5 -392Q655 -377 652.5 -359.5Q650 -342 649 -332Q649 -331 649 -330Q646 -316 641 -291Q636 -266 633.5 -250Q631 -234 625.5 -212.5Q620 -191 615 -172Q613 -164 607 -142.5Q601 -121 598 -110Q593 -93 590 -88Q583 -73 567 -73Q552 -73 545 -86Q544 -88 538.5 -97Q533 -106 530.5 -111Q528 -116 524.5 -124.5Q521 -133 519 -141.5Q517 -150 517 -159Q517 -162 518 -165Q516 -174 509.5 -193Q503 -212 500 -228Q497 -244 497 -261Q497 -263 497 -268.5Q497 -274 497 -277ZM602 -530Q602 -531 602 -532Q599 -525 584.5 -488Q570 -451 564.5 -435.5Q559 -420 551 -391.5Q543 -363 541 -340Q541 -330 544 -309Q547 -288 547 -277Q547 -274 547 -268.5Q547 -263 547 -261Q547 -250 550 -236.5Q553 -223 558.5 -205Q564 -187 565 -181Q566 -184 567 -186Q574 -211 599 -339Q600 -347 602.5 -364.5Q605 -382 606.5 -396Q608 -410 608 -422Q608 -423 608 -425Q608 -427 608 -428Q608 -444 605 -479Q602 -514 602 -530ZM295 -810Q295 -810 296 -810L420 -806Q430 -806 437 -798.5Q444 -791 444 -781Q444 -771 436.5 -763.5Q429 -756 419 -756Q419 -756 418 -756L294 -760Q284 -760 277 -767.5Q270 -775 270 -785Q270 -795 277.5 -802.5Q285 -810 295 -810ZM51 -341Q51 -329 52 -309Q53 -289 53 -283Q56 -196 68 -162Q74 -178 91 -178Q94 -178 97 -177L145 -165Q157 -162 162 -151Q163 -148 178 -115Q180 -110 180 -105Q180 -92 174 -83Q165 -70 149 -66Q141 -64 130 -64Q129 -64 128 -64Q127 -64 127 -64Q89 -64 62 -84Q28 -109 15 -165Q9 -188 6.5 -211.5Q4 -235 3.5 -269Q3 -303 2 -315.5Q1 -328 1 -341Q1 -473 93 -637Q94 -638 94 -639Q128 -691 188 -760H-1Q-11 -760 -18.5 -767.5Q-26 -775 -26 -785Q-26 -795 -18.5 -802.5Q-11 -810 -1 -810H243Q253 -810 260.5 -802.5Q268 -795 268 -785Q268 -775 262 -768Q259 -766 245 -750Q231 -734 227.5 -730Q224 -726 211.5 -711.5Q199 -697 194 -691Q189 -685 179 -672.5Q169 -660 163 -652Q157 -644 149.5 -633Q142 -622 136 -612Q51 -469 51 -341ZM124 -114Q122 -118 121 -120L87 -128Q101 -115 124 -114Z"/>
	<path fill="#daa520" d="M537 -277Q537 -287 534 -308.5Q531 -330 531 -341Q535 -381 548 -422.5Q561 -464 581 -512Q601 -560 609 -586Q615 -604 622 -621Q597 -676 547 -718Q497 -760 436 -777Q432 -778 432 -782Q432 -787 437 -787Q438 -787 438 -787Q499 -769 550 -728.5Q601 -688 628 -633Q642 -662 662 -685Q682 -708 697.5 -720Q713 -732 743 -753Q776 -775 794 -789Q795 -790 797 -790Q802 -790 802 -785Q802 -783 800 -781Q782 -767 749 -745Q725 -728 713 -719.5Q701 -711 684 -695.5Q667 -680 655.5 -662Q644 -644 633 -621Q652 -577 652 -530Q652 -513 655 -476Q658 -439 658 -422Q658 -408 656.5 -393.5Q655 -379 652.5 -361.5Q650 -344 649 -334Q646 -321 641.5 -295.5Q637 -270 634 -254.5Q631 -239 626 -217.5Q621 -196 616 -178Q615 -175 606.5 -144.5Q598 -114 594 -101Q592 -96 591 -95Q589 -93 587 -93Q584 -93 583 -96Q582 -97 576.5 -106Q571 -115 569 -119Q567 -123 563.5 -131Q560 -139 558.5 -145.5Q557 -152 557 -159Q557 -163 558 -167Q556 -177 550 -195Q544 -213 540.5 -229.5Q537 -246 537 -261Q537 -263 537 -268.5Q537 -274 537 -277ZM547 -277Q547 -274 547 -268.5Q547 -263 547 -261Q547 -242 557 -206.5Q567 -171 568 -168Q568 -168 568 -167Q568 -166 567.5 -163.5Q567 -161 567 -159Q567 -141 586 -110Q589 -120 596.5 -147Q604 -174 606 -180Q611 -198 616 -219.5Q621 -241 624 -256.5Q627 -272 631.5 -297Q636 -322 639 -336Q640 -345 642.5 -362.5Q645 -380 646.5 -394.5Q648 -409 648 -422Q648 -423 648 -425Q648 -427 648 -428Q648 -444 645 -479Q642 -514 642 -530Q642 -570 628 -608Q623 -596 619 -582Q611 -557 591 -509Q571 -461 558 -420Q545 -379 541 -341Q541 -330 544 -309Q547 -288 547 -277ZM310 -785Q310 -790 315 -790L439 -786Q444 -786 444 -781Q444 -776 439 -776L315 -780Q310 -780 310 -785ZM51 -341Q51 -329 52 -309Q53 -289 53 -283Q54 -255 55 -239Q56 -223 59 -197.5Q62 -172 68.5 -156.5Q75 -141 84.5 -125Q94 -109 110 -101.5Q126 -94 147 -94Q169 -94 170 -104Q159 -129 155 -137L110 -148Q106 -149 106 -153Q106 -158 111 -158Q112 -158 112 -158L160 -146Q163 -145 164 -143Q180 -107 180 -105Q180 -84 148 -84H147Q126 -84 110 -91.5Q94 -99 83.5 -109Q73 -119 65.5 -137.5Q58 -156 54 -170Q50 -184 47.5 -209Q45 -234 44.5 -246Q44 -258 43 -282Q43 -289 42 -309Q41 -329 41 -341Q41 -468 131 -627Q131 -628 131 -628Q170 -688 252 -780H19Q14 -780 14 -785Q14 -790 19 -790H263Q268 -790 268 -785Q268 -783 267 -782Q264 -779 250 -763Q236 -747 232 -742.5Q228 -738 215.5 -724Q203 -710 198 -703.5Q193 -697 182.5 -684.5Q172 -672 166 -663.5Q160 -655 152.5 -644Q145 -633 139 -622Q51 -474 51 -341Z"/>
</svg>