<svg xmlns="http://www.w3.org/2000/svg" viewBox="0 -1024 1024 1024">
	<path fill="#000088" d="M475 -761Q465 -761 457.5 -768.5Q450 -776 450 -786Q450 -804 467 -810Q484 -815 515 -816Q542 -816 552 -821Q556 -823 562 -823Q562 -823 563 -823L794 -817Q798 -817 802 -815L841 -800Q857 -794 857 -777Q857 -767 849.5 -759.5Q842 -752 832 -752Q827 -752 823 -754L788 -767L567 -773Q550 -766 516 -766Q492 -765 483 -762Q479 -761 475 -761ZM237 -749Q215 -749 172 -753.5Q129 -758 108 -758Q82 -758 61 -753Q58 -752 55 -752H49Q39 -752 31.5 -759.5Q24 -767 24 -777Q24 -787 31.5 -794.5Q39 -802 49 -802H52Q78 -808 108 -808Q130 -808 173 -803.5Q216 -799 237 -799Q242 -799 251 -799Q260 -799 265 -799Q282 -799 360 -792Q385 -797 407 -797Q467 -797 493 -758Q497 -751 497 -744Q497 -717 471 -700Q441 -680 394 -680Q393 -680 391 -680Q389 -680 387 -680Q355 -680 339 -689Q318 -701 318 -723Q318 -726 318 -729Q253 -705 206 -652Q183 -627 178 -617Q173 -607 173 -591Q173 -551 213 -524Q245 -502 301 -490Q355 -478 412 -478Q419 -478 426 -474Q435 -468 449 -468Q472 -468 508 -486Q536 -500 592 -539Q626 -563 640 -570Q651 -577 660 -580Q669 -583 678 -583Q696 -583 706 -569Q713 -559 713 -546Q713 -544 713 -541Q708 -519 700.5 -472Q693 -425 688 -399Q683 -373 671.5 -335.5Q660 -298 645 -267Q615 -180 552 -122Q493 -68 423 -62Q406 -61 390 -61Q312 -61 256 -96Q235 -108 214.5 -128Q194 -148 182.5 -161Q171 -174 149 -202Q105 -258 77 -285Q72 -290 70 -297L43 -402Q42 -405 42 -408Q42 -418 49.5 -425.5Q57 -433 67 -433Q86 -433 91 -414L116 -316Q145 -288 189 -233Q208 -208 220 -194Q232 -180 249 -164Q266 -148 282 -138Q326 -111 390 -111Q404 -111 419 -112Q472 -116 518 -159Q573 -209 598 -284Q599 -285 599 -287Q608 -304 615 -324.5Q622 -345 626.5 -360.5Q631 -376 636.5 -401.5Q642 -427 644 -439Q646 -451 651.5 -482Q657 -513 658 -523Q647 -516 621 -498Q562 -457 530 -441Q484 -418 449 -418Q445 -418 429 -421Q413 -424 405 -428Q345 -429 290 -441Q225 -455 185 -483Q123 -524 123 -591Q123 -618 133 -639Q141 -655 168 -686Q202 -723 245 -749Q241 -749 237 -749ZM441 -740Q433 -744 422 -746Q416 -740 406 -740Q397 -737 383 -730Q385 -730 387 -730Q389 -730 391 -730Q393 -730 394 -730Q422 -730 441 -740Z"/>
	<path fill="#800080" d="M425 -761Q415 -761 407.5 -768.5Q400 -776 400 -786Q400 -804 417 -810Q434 -815 465 -816Q492 -816 502 -821Q506 -823 512 -823Q512 -823 513 -823L744 -817Q748 -817 752 -815L791 -800Q807 -794 807 -777Q807 -767 799.5 -759.5Q792 -752 782 -752Q777 -752 773 -754L738 -767L517 -773Q500 -766 466 -766Q442 -765 433 -762Q429 -761 425 -761ZM187 -749Q165 -749 122 -753.5Q79 -758 58 -758Q32 -758 11 -753Q8 -752 5 -752H-1Q-11 -752 -18.5 -759.5Q-26 -767 -26 -777Q-26 -787 -18.5 -794.5Q-11 -802 -1 -802H2Q28 -808 58 -808Q80 -808 123 -803.5Q166 -799 187 -799Q192 -799 201 -799Q210 -799 215 -799Q232 -799 310 -792Q335 -797 357 -797Q417 -797 443 -758Q447 -751 447 -744Q447 -717 421 -700Q391 -680 344 -680Q343 -680 341 -680Q339 -680 337 -680Q305 -680 289 -689Q268 -701 268 -723Q268 -726 268 -729Q203 -705 156 -652Q133 -627 128 -617Q123 -607 123 -591Q123 -551 163 -524Q195 -502 251 -490Q305 -478 362 -478Q369 -478 376 -474Q385 -468 399 -468Q422 -468 458 -486Q486 -500 542 -539Q576 -563 590 -570Q601 -577 610 -580Q619 -583 628 -583Q646 -583 656 -569Q663 -559 663 -546Q663 -544 663 -541Q658 -519 650.5 -472Q643 -425 638 -399Q633 -373 621.5 -335.5Q610 -298 595 -267Q565 -180 502 -122Q443 -68 373 -62Q356 -61 340 -61Q262 -61 206 -96Q185 -108 164.5 -128Q144 -148 132.5 -161Q121 -174 99 -202Q55 -258 27 -285Q22 -290 20 -297L-7 -402Q-8 -405 -8 -408Q-8 -418 -0.5 -425.5Q7 -433 17 -433Q36 -433 41 -414L66 -316Q95 -288 139 -233Q158 -208 170 -194Q182 -180 199 -164Q216 -148 232 -138Q276 -111 340 -111Q354 -111 369 -112Q422 -116 468 -159Q523 -209 548 -284Q549 -285 549 -287Q558 -304 565 -324.5Q572 -345 576.5 -360.5Q581 -376 586.5 -401.5Q592 -427 594 -439Q596 -451 601.5 -482Q607 -513 608 -523Q597 -516 571 -498Q512 -457 480 -441Q434 -418 399 -418Q395 -418 379 -421Q363 -424 355 -428Q295 -429 240 -441Q175 -455 135 -483Q73 -524 73 -591Q73 -618 83 -639Q91 -655 118 -686Q152 -723 195 -749Q191 -749 187 -749ZM391 -740Q383 -744 372 -746Q366 -740 356 -740Q347 -737 333 -730Q335 -730 337 -730Q339 -730 341 -730Q343 -730 344 -730Q372 -730 391 -740Z"/>
	<path fill="#daa520" d="M445 -781Q440 -781 440 -786Q440 -790 443 -791Q457 -795 486.5 -795.5Q516 -796 530 -803Q531 -803 532 -803L763 -797Q764 -797 765 -797L804 -782Q807 -780 807 -777Q807 -772 802 -772Q801 -772 800 -772L762 -787L533 -793Q519 -787 489 -786Q459 -785 447 -781Q446 -781 445 -781ZM207 -769Q186 -769 142.5 -773.5Q99 -778 78 -778Q49 -778 26 -772Q26 -772 25 -772H19Q14 -772 14 -777Q14 -782 19 -782H24Q49 -788 78 -788Q100 -788 143 -783.5Q186 -779 207 -779Q212 -779 221 -779Q230 -779 235 -779Q249 -779 332 -772Q356 -777 377 -777Q426 -777 446 -747Q447 -745 447 -744Q447 -721 419 -710.5Q391 -700 364 -700Q363 -700 361 -700Q359 -700 357 -700Q308 -700 308 -723Q308 -743 348 -761Q341 -761 332 -762Q331 -762 328 -761Q325 -760 323 -760Q228 -740 161 -666Q145 -648 139.5 -641Q134 -634 128.5 -620.5Q123 -607 123 -591Q123 -540 172 -508Q211 -481 271 -469.5Q331 -458 382 -458Q383 -458 385 -457Q399 -448 419 -448Q440 -448 470 -461Q500 -474 520.5 -487Q541 -500 574 -522Q576 -524 581 -527Q632 -563 648 -563Q654 -563 658.5 -558.5Q663 -554 663 -546Q663 -546 663 -545Q659 -523 651 -476Q643 -429 638 -403.5Q633 -378 622 -341Q611 -304 597 -274Q572 -201 517 -144.5Q462 -88 391 -82Q375 -81 360 -81Q325 -81 295.5 -88.5Q266 -96 246.5 -106Q227 -116 204.5 -137Q182 -158 170 -172Q158 -186 135 -214Q90 -271 61 -299Q60 -300 59 -302L32 -407Q32 -407 32 -408Q32 -413 37 -413Q41 -413 42 -409L68 -306Q98 -277 143 -220Q166 -192 177.5 -178.5Q189 -165 211 -144.5Q233 -124 251.5 -114.5Q270 -105 298.5 -98Q327 -91 360 -91Q374 -91 391 -92Q457 -97 510 -152Q563 -207 587 -278Q602 -308 612.5 -344.5Q623 -381 628 -406Q633 -431 641 -478Q649 -525 653 -546Q652 -553 648 -553Q635 -553 579 -514Q545 -490 526 -478Q507 -466 474.5 -452Q442 -438 419 -438Q397 -438 381 -448Q327 -448 267 -459.5Q207 -471 166 -499Q113 -535 113 -591Q113 -609 119 -624Q125 -639 131.5 -647Q138 -655 153 -672Q215 -741 301 -765Q257 -769 235 -769Q230 -769 221 -769Q212 -769 207 -769ZM437 -743Q420 -766 380 -767Q381 -766 381 -765Q381 -760 376 -760Q362 -757 340 -745.5Q318 -734 318 -723Q318 -710 357 -710Q359 -710 361 -710Q363 -710 364 -710Q386 -710 411 -718Q436 -726 437 -743Z"/>
</svg>