<svg xmlns="http://www.w3.org/2000/svg" viewBox="0 -1024 1024 1024">
	<path fill="#000088" d="M391 -759Q381 -759 373.5 -766.5Q366 -774 366 -784Q366 -794 373 -801.5Q380 -809 391 -809L541 -811Q551 -811 558.5 -803.5Q566 -796 566 -786Q566 -776 559 -768.5Q552 -761 541 -761ZM286 -764Q129 -759 107 -759H49Q39 -759 31.5 -766.5Q24 -774 24 -784Q24 -794 31.5 -801.5Q39 -809 49 -809H107Q149 -809 234.5 -812Q320 -815 363 -815Q373 -815 380.5 -807.5Q388 -800 388 -790Q388 -780 380.5 -772.5Q373 -765 363 -765L358 -761Q335 -744 306 -711Q269 -668 233.5 -614Q198 -560 179 -513Q175 -503 172 -494Q186 -503 215 -532Q258 -574 283 -590Q319 -613 353 -613Q396 -613 425.5 -586.5Q455 -560 470 -521Q486 -481 486 -440Q486 -397 471.5 -326Q457 -255 432 -193Q405 -126 372 -91Q337 -55 297 -55Q274 -55 253.5 -63Q233 -71 219.5 -80.5Q206 -90 190 -109.5Q174 -129 168 -138Q162 -147 148 -169Q121 -214 106 -228Q101 -233 99 -239L51 -413Q50 -415 50 -417L44 -471Q44 -473 44 -474Q44 -484 51.5 -491.5Q59 -499 69 -499Q79 -499 86 -492.5Q93 -486 94 -477L100 -425L145 -259Q162 -241 191 -196Q220 -149 242.5 -127Q265 -105 297 -105Q316 -105 336 -126Q362 -154 386 -211Q408 -268 422 -336Q436 -404 436 -440Q436 -472 424 -503Q413 -529 397 -545Q378 -563 353 -563Q333 -563 310 -548Q289 -535 250 -496Q216 -463 199 -451Q172 -433 145 -433Q134 -433 126 -439Q116 -447 116 -460Q116 -500 146 -562Q178 -628 232 -700Q260 -737 286 -764ZM271 36Q278 40 291 18Q296 10 296 15Q296 34 288 47Q280 60 268 60Q243 60 224 43.5Q205 27 205 1Q205 -14 216 -26Q225 -36 242 -43Q247 -45 252 -45Q262 -45 269.5 -37.5Q277 -30 277 -20Q277 -14 295 5Q299 9 294 7Q253 -23 238.5 -19Q224 -15 233 23Q232 26 231 29Q231 30 232 30Q244 27 271 36Z"/>
	<path fill="#800080" d="M341 -759Q331 -759 323.5 -766.5Q316 -774 316 -784Q316 -794 323 -801.5Q330 -809 341 -809L491 -811Q501 -811 508.5 -803.5Q516 -796 516 -786Q516 -776 509 -768.5Q502 -761 491 -761ZM236 -764Q79 -759 57 -759H-1Q-11 -759 -18.5 -766.5Q-26 -774 -26 -784Q-26 -794 -18.5 -801.5Q-11 -809 -1 -809H57Q99 -809 184.5 -812Q270 -815 313 -815Q323 -815 330.5 -807.5Q338 -800 338 -790Q338 -780 330.5 -772.5Q323 -765 313 -765L308 -761Q285 -744 256 -711Q219 -668 183.5 -614Q148 -560 129 -513Q125 -503 122 -494Q136 -503 165 -532Q208 -574 233 -590Q269 -613 303 -613Q346 -613 375.5 -586.5Q405 -560 420 -521Q436 -481 436 -440Q436 -397 421.5 -326Q407 -255 382 -193Q355 -126 322 -91Q287 -55 247 -55Q224 -55 203.5 -63Q183 -71 169.5 -80.5Q156 -90 140 -109.5Q124 -129 118 -138Q112 -147 98 -169Q71 -214 56 -228Q51 -233 49 -239L1 -413Q0 -415 0 -417L-6 -471Q-6 -473 -6 -474Q-6 -484 1.5 -491.5Q9 -499 19 -499Q29 -499 36 -492.5Q43 -486 44 -477L50 -425L95 -259Q112 -241 141 -196Q170 -149 192.5 -127Q215 -105 247 -105Q266 -105 286 -126Q312 -154 336 -211Q358 -268 372 -336Q386 -404 386 -440Q386 -472 374 -503Q363 -529 347 -545Q328 -563 303 -563Q283 -563 260 -548Q239 -535 200 -496Q166 -463 149 -451Q122 -433 95 -433Q84 -433 76 -439Q66 -447 66 -460Q66 -500 96 -562Q128 -628 182 -700Q210 -737 236 -764ZM221 36Q228 40 241 18Q246 10 246 15Q246 34 238 47Q230 60 218 60Q193 60 174 43.5Q155 27 155 1Q155 -14 166 -26Q175 -36 192 -43Q197 -45 202 -45Q212 -45 219.5 -37.5Q227 -30 227 -20Q227 -14 245 5Q249 9 244 7Q203 -23 188.5 -19Q174 -15 183 23Q182 26 181 29Q181 30 182 30Q194 27 221 36Z"/>
	<path fill="#daa520" d="M361 -789L511 -791Q516 -791 516 -786Q516 -781 511 -781Q361 -779 361 -779Q356 -779 356 -784Q356 -789 361 -789ZM309 -785Q276 -784 197.5 -781.5Q119 -779 77 -779H19Q14 -779 14 -784Q14 -789 19 -789H77Q119 -789 205 -792Q291 -795 333 -795Q338 -795 338 -790Q338 -785 333 -785Q322 -785 297 -762Q265 -733 226 -682Q182 -622 149.5 -561Q117 -500 116 -463Q116 -463 117 -463Q118 -463 119 -463Q134 -463 152.5 -476.5Q171 -490 199 -518Q224 -542 238 -554Q252 -566 276.5 -579.5Q301 -593 323 -593Q377 -593 406.5 -543.5Q436 -494 436 -440Q436 -400 421.5 -330Q407 -260 383 -200Q333 -75 267 -75Q233 -75 205.5 -94.5Q178 -114 162.5 -138.5Q147 -163 126 -195Q105 -227 90 -242Q89 -243 88 -245L40 -419L34 -473Q34 -474 34 -474Q34 -479 39 -479Q43 -479 44 -475L50 -421L97 -249Q115 -232 144 -185Q159 -160 168.5 -147Q178 -134 194 -117Q210 -100 228 -92.5Q246 -85 267 -85Q326 -85 374 -204Q398 -262 412 -331.5Q426 -401 426 -440Q426 -491 398.5 -537Q371 -583 323 -583Q303 -583 281 -571Q259 -559 244.5 -546.5Q230 -534 206 -511Q185 -490 175.5 -481.5Q166 -473 149.5 -463Q133 -453 119 -453Q119 -453 117.5 -453Q116 -453 115 -453Q106 -453 106 -460Q106 -517 169.5 -617Q233 -717 290 -769Q301 -779 309 -785ZM228 -36Q230 -36 232 -38Q242 -51 264 -51Q278 -51 287.5 -42.5Q297 -34 297 -22Q297 -10 287.5 -1.5Q278 7 264 7Q259 7 259 12Q259 17 264 17Q282 17 294.5 5.5Q307 -6 307 -22Q307 -38 294.5 -49.5Q282 -61 264 -61Q237 -61 224 -44Q223 -43 223 -41Q223 -36 228 -36ZM264 7Q269 7 269 12Q269 17 264 17Q246 17 233.5 5.5Q221 -6 221 -22Q221 -36 246 -48Q247 -48 248 -48Q253 -48 253 -43Q253 -40 250 -38Q231 -30 231 -22Q231 -10 240.5 -1.5Q250 7 264 7Z"/>
</svg>