<svg xmlns="http://www.w3.org/2000/svg" viewBox="0 -1024 1024 1024">
	<path fill="#000088" d="M325 -411Q325 -421 332.5 -428.5Q340 -436 350 -436Q360 -436 367.5 -429Q375 -422 375 -411L378 -92Q378 -81 370.5 -74Q363 -67 353 -67Q343 -67 335.5 -74Q328 -81 328 -91ZM125 -411Q125 -421 132.5 -428.5Q140 -436 150 -436Q160 -436 167.5 -429Q175 -422 175 -411L178 -92Q178 -81 170.5 -74Q163 -67 153 -67Q143 -67 135.5 -74Q128 -81 128 -91Z"/>
	<path fill="#800080" d="M275 -411Q275 -421 282.5 -428.5Q290 -436 300 -436Q310 -436 317.5 -429Q325 -422 325 -411L328 -92Q328 -81 320.5 -74Q313 -67 303 -67Q293 -67 285.5 -74Q278 -81 278 -91ZM75 -411Q75 -421 82.5 -428.5Q90 -436 100 -436Q110 -436 117.5 -429Q125 -422 125 -411L128 -92Q128 -81 120.5 -74Q113 -67 103 -67Q93 -67 85.5 -74Q78 -81 78 -91Z"/>
	<path fill="#daa520" d="M325 -411L328 -92Q328 -87 323 -87Q318 -87 318 -92Q315 -411 315 -411Q315 -416 320 -416Q325 -416 325 -411ZM125 -411L128 -92Q128 -87 123 -87Q118 -87 118 -92L115 -411Q115 -416 120 -416Q125 -416 125 -411Z"/>
</svg>