<svg xmlns="http://www.w3.org/2000/svg" viewBox="0 -1024 1024 1024">
	<path fill="#000088" d="M-241 -113Q-231 -113 -223.5 -105.5Q-216 -98 -216 -88Q-216 -71 -231.5 -65Q-247 -59 -262.5 -43.5Q-278 -28 -286.5 -16Q-295 -4 -309 17Q-306 21 -302 24Q-295 31 -286 37Q-275 36 -261 29Q-247 22 -221 2.5Q-195 -17 -182 -24Q-162 -35 -145 -35Q-118 -35 -88 -5Q-81 2 -76 6L62 108Q72 115 72 128Q72 138 64.5 145.5Q57 153 47 153Q39 153 32 148L-105 46Q-112 42 -124 30Q-139 15 -145 15Q-149 15 -158 20Q-167 25 -189 41Q-220 65 -238 74Q-265 87 -289 87Q-295 87 -302 84Q-308 82 -314 78Q-341 62 -355 38Q-362 26 -362 14Q-362 7 -357 -1Q-339 -29 -328 -44.5Q-317 -60 -295 -81Q-273 -102 -251 -111Q-246 -113 -241 -113Z"/>
	<path fill="#800080" d="M-291 -113Q-281 -113 -273.5 -105.5Q-266 -98 -266 -88Q-266 -71 -281.5 -65Q-297 -59 -312.5 -43.5Q-328 -28 -336.5 -16Q-345 -4 -359 17Q-356 21 -352 24Q-345 31 -336 37Q-325 36 -311 29Q-297 22 -271 2.5Q-245 -17 -232 -24Q-212 -35 -195 -35Q-168 -35 -138 -5Q-131 2 -126 6L12 108Q22 115 22 128Q22 138 14.5 145.5Q7 153 -3 153Q-11 153 -18 148L-155 46Q-162 42 -174 30Q-189 15 -195 15Q-199 15 -208 20Q-217 25 -239 41Q-270 65 -288 74Q-315 87 -339 87Q-345 87 -352 84Q-358 82 -364 78Q-391 62 -405 38Q-412 26 -412 14Q-412 7 -407 -1Q-389 -29 -378 -44.5Q-367 -60 -345 -81Q-323 -102 -301 -111Q-296 -113 -291 -113Z"/>
	<path fill="#daa520" d="M-271 -93Q-266 -93 -266 -88Q-266 -85 -269 -83Q-287 -76 -306 -57.5Q-325 -39 -335 -24.5Q-345 -10 -362 15Q-360 24 -347 38Q-328 57 -319 57Q-290 57 -237 17Q-194 -15 -175 -15Q-163 -15 -153 -8.5Q-143 -2 -133 8Q-123 18 -118 22L20 124Q22 125 22 128Q22 133 17 133Q15 133 14 132L-124 30Q-129 27 -138.5 17Q-148 7 -156.5 1Q-165 -5 -175 -5Q-191 -5 -231 25Q-249 39 -259 45.5Q-269 52 -286.5 59.5Q-304 67 -319 67Q-332 67 -354 45Q-372 27 -372 14Q-372 13 -370 9Q-353 -17 -343 -31Q-333 -45 -313 -64.5Q-293 -84 -273 -93Q-272 -93 -271 -93Z"/>
</svg>