<svg xmlns="http://www.w3.org/2000/svg" viewBox="0 -1024 1024 1024">
	<path fill="#000088" d="M292 -815Q292 -805 284.5 -797.5Q277 -790 267 -790Q261 -790 256 -792Q235 -803 221 -811Q207 -819 189.5 -834Q172 -849 160 -868Q128 -916 128 -998Q128 -1057 194 -1097Q240 -1125 314.5 -1141.5Q389 -1158 462 -1158Q501 -1158 539.5 -1148.5Q578 -1139 604.5 -1127.5Q631 -1116 665 -1093Q699 -1070 716 -1056.5Q733 -1043 766 -1015Q800 -987 820 -971.5Q840 -956 869 -937.5Q898 -919 926 -911Q954 -903 984 -903H985L1041 -925Q1045 -927 1050 -927Q1060 -927 1067.5 -919.5Q1075 -912 1075 -902Q1075 -885 1059 -879L999 -855Q995 -853 990 -853H984Q946 -853 912 -862.5Q878 -872 843.5 -894Q809 -916 789.5 -931Q770 -946 733 -977Q695 -1010 672 -1027Q649 -1044 613 -1066.5Q577 -1089 540.5 -1098.5Q504 -1108 462 -1108Q411 -1108 353 -1098.5Q295 -1089 252 -1071Q178 -1040 178 -998Q178 -931 202 -895Q221 -865 278 -838Q292 -831 292 -815ZM129 -275Q129 -284 126 -303.5Q123 -323 123 -333Q123 -339 123 -343Q127 -385 140.5 -427Q154 -469 174 -517Q194 -565 202 -592Q207 -607 212 -620Q188 -669 142.5 -705.5Q97 -742 42 -758Q24 -763 24 -782Q24 -792 31.5 -799.5Q39 -807 49 -807Q53 -807 56 -806Q111 -790 159.5 -755.5Q208 -721 240 -673Q247 -685 255 -695Q281 -726 344 -769Q376 -791 394 -805Q401 -810 409 -810Q419 -810 426.5 -802.5Q434 -795 434 -785Q434 -773 424 -765Q406 -751 372 -728Q329 -699 306.5 -677.5Q284 -656 267 -620Q284 -576 284 -530Q284 -513 287 -475Q290 -437 290 -419Q290 -383 273 -291Q259 -212 247 -172Q245 -164 239 -142.5Q233 -121 229 -111Q226 -97 224 -92Q222 -88 220 -85Q218 -82 216 -79Q209 -73 199 -73Q184 -73 177 -86Q161 -115 151 -162Q148 -172 142 -190.5Q136 -209 132.5 -226Q129 -243 129 -261Q129 -263 129 -268Q129 -273 129 -275ZM197 -181Q198 -184 199 -186Q210 -223 224 -300Q240 -388 240 -419Q240 -437 237 -474.5Q234 -512 234 -530Q234 -531 234 -532Q232 -525 216.5 -487.5Q201 -450 196 -434.5Q191 -419 183 -390.5Q175 -362 173 -339Q173 -336 173 -333Q173 -325 176 -305.5Q179 -286 179 -275Q179 -273 179 -268Q179 -263 179 -261Q179 -250 182 -236.5Q185 -223 190.5 -205Q196 -187 197 -181Z"/>
	<path fill="#800080" d="M242 -815Q242 -805 234.5 -797.5Q227 -790 217 -790Q211 -790 206 -792Q185 -803 171 -811Q157 -819 139.5 -834Q122 -849 110 -868Q78 -916 78 -998Q78 -1057 144 -1097Q190 -1125 264.5 -1141.5Q339 -1158 412 -1158Q451 -1158 489.5 -1148.5Q528 -1139 554.5 -1127.5Q581 -1116 615 -1093Q649 -1070 666 -1056.5Q683 -1043 716 -1015Q750 -987 770 -971.5Q790 -956 819 -937.5Q848 -919 876 -911Q904 -903 934 -903H935L991 -925Q995 -927 1000 -927Q1010 -927 1017.5 -919.5Q1025 -912 1025 -902Q1025 -885 1009 -879L949 -855Q945 -853 940 -853H934Q896 -853 862 -862.5Q828 -872 793.5 -894Q759 -916 739.5 -931Q720 -946 683 -977Q645 -1010 622 -1027Q599 -1044 563 -1066.5Q527 -1089 490.5 -1098.5Q454 -1108 412 -1108Q361 -1108 303 -1098.5Q245 -1089 202 -1071Q128 -1040 128 -998Q128 -931 152 -895Q171 -865 228 -838Q242 -831 242 -815ZM79 -275Q79 -284 76 -303.5Q73 -323 73 -333Q73 -339 73 -343Q77 -385 90.5 -427Q104 -469 124 -517Q144 -565 152 -592Q157 -607 162 -620Q138 -669 92.5 -705.5Q47 -742 -8 -758Q-26 -763 -26 -782Q-26 -792 -18.5 -799.5Q-11 -807 -1 -807Q3 -807 6 -806Q61 -790 109.5 -755.5Q158 -721 190 -673Q197 -685 205 -695Q231 -726 294 -769Q326 -791 344 -805Q351 -810 359 -810Q369 -810 376.5 -802.5Q384 -795 384 -785Q384 -773 374 -765Q356 -751 322 -728Q279 -699 256.5 -677.5Q234 -656 217 -620Q234 -576 234 -530Q234 -513 237 -475Q240 -437 240 -419Q240 -383 223 -291Q209 -212 197 -172Q195 -164 189 -142.5Q183 -121 179 -111Q176 -97 174 -92Q172 -88 170 -85Q168 -82 166 -79Q159 -73 149 -73Q134 -73 127 -86Q111 -115 101 -162Q98 -172 92 -190.5Q86 -209 82.5 -226Q79 -243 79 -261Q79 -263 79 -268Q79 -273 79 -275ZM147 -181Q148 -184 149 -186Q160 -223 174 -300Q190 -388 190 -419Q190 -437 187 -474.5Q184 -512 184 -530Q184 -531 184 -532Q182 -525 166.5 -487.5Q151 -450 146 -434.5Q141 -419 133 -390.5Q125 -362 123 -339Q123 -336 123 -333Q123 -325 126 -305.5Q129 -286 129 -275Q129 -273 129 -268Q129 -263 129 -261Q129 -250 132 -236.5Q135 -223 140.5 -205Q146 -187 147 -181Z"/>
	<path fill="#daa520" d="M242 -815Q242 -810 237 -810Q236 -810 235 -810Q207 -824 190 -835.5Q173 -847 154.5 -868Q136 -889 127 -921.5Q118 -954 118 -998Q118 -1045 174 -1080Q221 -1108 293 -1123Q365 -1138 432 -1138Q469 -1138 505 -1129Q541 -1120 566.5 -1109.5Q592 -1099 624.5 -1077Q657 -1055 674 -1041Q691 -1027 723 -1000Q758 -970 777.5 -955Q797 -940 828.5 -920Q860 -900 890.5 -891.5Q921 -883 954 -883H959L1018 -907Q1019 -907 1020 -907Q1025 -907 1025 -902Q1025 -899 1022 -897L962 -873Q961 -873 960 -873H954Q919 -873 887.5 -882Q856 -891 823.5 -911.5Q791 -932 771.5 -947Q752 -962 716 -993Q677 -1026 654 -1043.5Q631 -1061 593 -1084Q555 -1107 515.5 -1117.5Q476 -1128 432 -1128Q367 -1128 295.5 -1113.5Q224 -1099 179 -1071Q128 -1040 128 -998Q128 -955 136 -924.5Q144 -894 162 -874Q180 -854 196 -843.5Q212 -833 239 -820Q242 -818 242 -815ZM119 -275Q119 -285 116 -304Q113 -323 113 -333Q113 -338 113 -341Q117 -381 130 -422.5Q143 -464 163 -512Q183 -560 191 -586Q197 -604 204 -621Q179 -676 129 -718Q79 -760 18 -777Q14 -778 14 -782Q14 -787 19 -787Q20 -787 20 -787Q81 -769 132 -728.5Q183 -688 210 -633Q224 -662 244 -685Q264 -708 279.5 -720Q295 -732 325 -753Q358 -775 376 -789Q377 -790 379 -790Q384 -790 384 -785Q384 -783 382 -781Q364 -767 331 -745Q307 -728 295 -719.5Q283 -711 266 -695.5Q249 -680 237.5 -662Q226 -644 215 -621Q234 -577 234 -530Q234 -513 237 -475Q240 -437 240 -419Q240 -385 224 -295Q209 -216 198 -178Q197 -176 188.5 -145.5Q180 -115 176 -101Q174 -96 173 -95Q173 -93 169 -93Q166 -93 165 -96Q150 -122 140 -166Q140 -168 129.5 -204Q119 -240 119 -261Q119 -263 119 -268Q119 -273 119 -275ZM129 -275Q129 -273 129 -268Q129 -263 129 -261Q129 -242 139 -206.5Q149 -171 150 -168Q158 -133 168 -111Q171 -121 178.5 -147.5Q186 -174 188 -180Q199 -219 214 -297Q230 -386 230 -419Q230 -437 227 -474.5Q224 -512 224 -530Q224 -570 210 -608Q205 -596 201 -582Q193 -557 173 -509Q153 -461 140 -420Q127 -379 123 -341Q123 -337 123 -333Q123 -324 126 -304.5Q129 -285 129 -275Z"/>
</svg>