<svg xmlns="http://www.w3.org/2000/svg" viewBox="0 -1024 1024 1024">
	<path fill="#000088" d="M599 -727Q598 -727 596.5 -727Q595 -727 594 -727Q594 -727 593 -727Q592 -727 592 -727Q563 -727 551 -747Q546 -756 546 -768Q546 -796 564 -826Q572 -839 591 -862Q629 -910 630 -937Q624 -941 614 -943Q593 -948 558 -948Q511 -948 453.5 -940Q396 -932 375 -924Q369 -922 352.5 -916Q336 -910 326.5 -906.5Q317 -903 302 -899Q287 -895 273 -893Q259 -891 245 -891Q241 -891 239 -891Q190 -898 161 -949Q141 -982 124 -1060Q116 -1095 111 -1108Q110 -1112 110 -1116Q110 -1126 117.5 -1133.5Q125 -1141 135 -1141Q153 -1141 159 -1124Q164 -1109 173 -1071Q189 -1001 204 -974Q221 -945 245 -941Q255 -941 266 -942.5Q277 -944 291 -948.5Q305 -953 312.5 -955Q320 -957 337.5 -963.5Q355 -970 359 -972Q387 -981 445.5 -989.5Q504 -998 558 -998Q592 -998 616 -994Q640 -990 654 -981Q680 -966 680 -940Q680 -918 670.5 -895.5Q661 -873 653.5 -862.5Q646 -852 630 -831Q613 -810 607 -800Q599 -787 597 -777Q598 -777 599 -777Q625 -777 657.5 -784Q690 -791 728.5 -802Q767 -813 786 -816Q788 -817 791 -817Q792 -817 793 -817L957 -801Q967 -800 973.5 -793Q980 -786 980 -776Q980 -766 972.5 -758.5Q965 -751 955 -751Q954 -751 953 -751L792 -767Q774 -763 734.5 -751.5Q695 -740 662.5 -733.5Q630 -727 599 -727ZM34 -780Q34 -790 41.5 -797.5Q49 -805 59 -805Q60 -805 61 -805Q73 -804 93 -801Q113 -798 122 -797Q186 -790 218 -751Q282 -743 317 -722Q358 -698 377 -652Q396 -604 396 -495Q396 -489 393 -480Q391 -472 386 -461Q376 -439 357 -404Q319 -335 269 -256Q462 -427 618 -578Q684 -685 773 -745Q779 -749 787 -749Q797 -749 804.5 -741.5Q812 -734 812 -724Q812 -715 805 -704Q801 -696 792 -685Q774 -663 736 -625Q704 -591 658 -547Q629 -499 602 -437Q601 -436 601 -435Q570 -380 568 -287Q568 -223 580 -190Q591 -158 613 -156Q644 -154 697 -134Q737 -118 757 -116Q764 -115 769 -115Q799 -115 813 -128L856 -179Q863 -188 875 -188Q885 -188 892.5 -180.5Q900 -173 900 -163Q900 -154 894 -147L850 -95Q849 -94 848 -93Q820 -65 769 -65Q734 -65 678 -87Q634 -105 610 -106Q568 -108 543 -150Q529 -175 523 -213Q517 -248 518 -287Q520 -382 549 -444Q370 -277 222 -150Q167 -102 136 -78Q128 -69 120 -64Q102 -50 87 -50Q77 -50 69.5 -57.5Q62 -65 62 -75Q62 -85 68.5 -92Q75 -99 84 -100Q88 -102 95 -107Q104 -116 118 -132Q168 -189 241.5 -307Q315 -425 340 -481L346 -495Q346 -594 330 -634Q319 -661 297.5 -675.5Q276 -690 240 -697Q240 -695 240 -692Q240 -682 235.5 -654Q231 -626 227 -613Q219 -587 199 -587Q172 -587 148 -595Q134 -600 126 -607Q118 -616 118 -628Q118 -638 122 -656Q133 -712 155 -737Q136 -745 116 -747Q107 -748 87 -751Q67 -754 57 -755Q47 -756 40.5 -763Q34 -770 34 -780ZM181 -639Q185 -657 190 -692Q190 -693 189 -699Q177 -679 170 -641Q175 -640 181 -639Z"/>
	<path fill="#800080" d="M549 -727Q548 -727 546.5 -727Q545 -727 544 -727Q544 -727 543 -727Q542 -727 542 -727Q513 -727 501 -747Q496 -756 496 -768Q496 -796 514 -826Q522 -839 541 -862Q579 -910 580 -937Q574 -941 564 -943Q543 -948 508 -948Q461 -948 403.5 -940Q346 -932 325 -924Q319 -922 302.5 -916Q286 -910 276.5 -906.5Q267 -903 252 -899Q237 -895 223 -893Q209 -891 195 -891Q191 -891 189 -891Q140 -898 111 -949Q91 -982 74 -1060Q66 -1095 61 -1108Q60 -1112 60 -1116Q60 -1126 67.5 -1133.5Q75 -1141 85 -1141Q103 -1141 109 -1124Q114 -1109 123 -1071Q139 -1001 154 -974Q171 -945 195 -941Q205 -941 216 -942.5Q227 -944 241 -948.5Q255 -953 262.5 -955Q270 -957 287.5 -963.5Q305 -970 309 -972Q337 -981 395.5 -989.5Q454 -998 508 -998Q542 -998 566 -994Q590 -990 604 -981Q630 -966 630 -940Q630 -918 620.5 -895.5Q611 -873 603.5 -862.5Q596 -852 580 -831Q563 -810 557 -800Q549 -787 547 -777Q548 -777 549 -777Q575 -777 607.5 -784Q640 -791 678.5 -802Q717 -813 736 -816Q738 -817 741 -817Q742 -817 743 -817L907 -801Q917 -800 923.5 -793Q930 -786 930 -776Q930 -766 922.5 -758.5Q915 -751 905 -751Q904 -751 903 -751L742 -767Q724 -763 684.5 -751.5Q645 -740 612.5 -733.5Q580 -727 549 -727ZM-16 -780Q-16 -790 -8.5 -797.5Q-1 -805 9 -805Q10 -805 11 -805Q23 -804 43 -801Q63 -798 72 -797Q136 -790 168 -751Q232 -743 267 -722Q308 -698 327 -652Q346 -604 346 -495Q346 -489 343 -480Q341 -472 336 -461Q326 -439 307 -404Q269 -335 219 -256Q412 -427 568 -578Q634 -685 723 -745Q729 -749 737 -749Q747 -749 754.5 -741.5Q762 -734 762 -724Q762 -715 755 -704Q751 -696 742 -685Q724 -663 686 -625Q654 -591 608 -547Q579 -499 552 -437Q551 -436 551 -435Q520 -380 518 -287Q518 -223 530 -190Q541 -158 563 -156Q594 -154 647 -134Q687 -118 707 -116Q714 -115 719 -115Q749 -115 763 -128L806 -179Q813 -188 825 -188Q835 -188 842.5 -180.5Q850 -173 850 -163Q850 -154 844 -147L800 -95Q799 -94 798 -93Q770 -65 719 -65Q684 -65 628 -87Q584 -105 560 -106Q518 -108 493 -150Q479 -175 473 -213Q467 -248 468 -287Q470 -382 499 -444Q320 -277 172 -150Q117 -102 86 -78Q78 -69 70 -64Q52 -50 37 -50Q27 -50 19.5 -57.5Q12 -65 12 -75Q12 -85 18.5 -92Q25 -99 34 -100Q38 -102 45 -107Q54 -116 68 -132Q118 -189 191.5 -307Q265 -425 290 -481L296 -495Q296 -594 280 -634Q269 -661 247.5 -675.5Q226 -690 190 -697Q190 -695 190 -692Q190 -682 185.5 -654Q181 -626 177 -613Q169 -587 149 -587Q122 -587 98 -595Q84 -600 76 -607Q68 -616 68 -628Q68 -638 72 -656Q83 -712 105 -737Q86 -745 66 -747Q57 -748 37 -751Q17 -754 7 -755Q-3 -756 -9.5 -763Q-16 -770 -16 -780ZM131 -639Q135 -657 140 -692Q140 -693 139 -699Q127 -679 120 -641Q125 -640 131 -639Z"/>
	<path fill="#daa520" d="M569 -747Q568 -747 566.5 -747Q565 -747 564 -747Q536 -747 536 -768Q536 -783 543 -799Q550 -815 556.5 -824Q563 -833 577 -850Q591 -868 598.5 -878.5Q606 -889 613 -906.5Q620 -924 620 -940Q620 -949 609 -955Q587 -968 528 -968Q478 -968 420 -960Q362 -952 339 -943Q333 -941 316.5 -935Q300 -929 291 -926Q282 -923 267.5 -919Q253 -915 240 -913Q227 -911 215 -911Q213 -911 212 -911Q196 -913 182.5 -920.5Q169 -928 159.5 -942Q150 -956 143 -967.5Q136 -979 130 -1000Q124 -1021 121 -1031.5Q118 -1042 113 -1064Q105 -1101 100 -1114Q100 -1115 100 -1116Q100 -1121 105 -1121Q109 -1121 110 -1118Q115 -1104 123 -1066Q129 -1042 132.5 -1027.5Q136 -1013 144 -991.5Q152 -970 160.5 -957.5Q169 -945 183 -934Q197 -923 213 -921Q214 -921 214.5 -921Q215 -921 215 -921Q227 -921 239 -923Q251 -925 265 -929Q279 -933 288 -935.5Q297 -938 313.5 -944.5Q330 -951 335 -953Q360 -962 418.5 -970Q477 -978 528 -978Q590 -978 614 -964Q630 -955 630 -940Q630 -922 622 -903Q614 -884 606.5 -873.5Q599 -863 584 -844Q571 -828 564.5 -818.5Q558 -809 552 -795Q546 -781 546 -768Q546 -761 550 -759Q554 -757 564 -757Q565 -757 566.5 -757Q568 -757 569 -757Q597 -757 630 -764Q663 -771 702 -782Q741 -793 760 -797Q760 -797 761 -797L925 -781Q930 -781 930 -776Q930 -771 925 -771L761 -787Q742 -783 703 -772Q664 -761 631 -754Q598 -747 569 -747ZM24 -780Q24 -785 29 -785Q41 -784 61 -781Q81 -778 90 -777Q152 -770 178 -732Q185 -732 202 -729Q254 -721 284 -700.5Q314 -680 328 -645Q346 -600 346 -495Q346 -481 309 -413Q273 -348 223 -269Q173 -190 131 -136Q217 -209 358 -336.5Q499 -464 604 -566Q668 -670 754 -728Q755 -729 757 -729Q762 -729 762 -724Q762 -717 746 -698Q729 -677 692 -639Q659 -605 612 -559Q582 -510 554 -445Q553 -445 553 -445Q519 -384 518 -287Q517 -141 581 -136Q609 -135 655.5 -116.5Q702 -98 725 -96Q733 -95 739 -95Q777 -95 797 -114L841 -166Q843 -168 845 -168Q850 -168 850 -163Q850 -161 849 -160L805 -108Q805 -108 804 -107Q782 -85 739 -85Q707 -85 657.5 -105Q608 -125 581 -126Q508 -132 508 -287Q510 -388 545 -449Q565 -496 586 -534Q379 -336 179 -165Q124 -117 93 -93Q85 -85 78 -79Q65 -70 57 -70Q52 -70 52 -75Q52 -80 57 -80L85 -100Q86 -100 86 -100Q93 -108 102 -118Q139 -160 193 -241Q254 -333 300 -418Q336 -483 336 -495Q336 -598 319 -641Q306 -674 278 -692.5Q250 -711 200 -719Q188 -721 184 -722Q190 -708 190 -692Q190 -686 185.5 -657.5Q181 -629 177 -618Q176 -614 175 -611Q173 -607 169 -607Q152 -607 132 -612Q121 -614 115 -618Q108 -622 108 -628Q108 -654 123 -694Q138 -733 157 -733Q160 -733 162 -733Q163 -733 164 -733Q139 -761 88 -767Q80 -768 59.5 -771Q39 -774 29 -775Q24 -775 24 -780ZM740 -705Q684 -663 638 -599Q673 -634 698 -660Q726 -688 740 -705ZM157 -723Q145 -723 133 -690Q118 -652 118 -628Q122 -624 134 -621Q150 -618 167 -617Q170 -625 175 -656Q180 -687 180 -692Q180 -709 172 -723Q167 -723 162 -723Q161 -723 159.5 -723Q158 -723 157 -723Z"/>
</svg>