<svg xmlns="http://www.w3.org/2000/svg" viewBox="0 -1024 1024 1024">
	<path fill="#000088" d="M311 -803Q311 -803 312 -803L467 -799L542 -803L558 -806Q560 -807 563 -807Q573 -807 580.5 -799.5Q588 -792 588 -782Q588 -773 582.5 -766Q577 -759 568 -758L550 -754Q548 -753 546 -753L468 -749Q468 -749 467 -749Q467 -749 466 -749L310 -753Q300 -753 293 -760.5Q286 -768 286 -778Q286 -788 293.5 -795.5Q301 -803 311 -803ZM254 -810Q276 -810 289 -800Q307 -787 307 -761Q307 -746 301 -726Q299 -721 281 -676Q263 -631 262 -616Q262 -614 261 -612Q255 -587 251.5 -537.5Q248 -488 244 -465Q230 -396 230 -318Q230 -260 236 -220Q244 -175 260 -149Q279 -119 311 -119Q349 -119 374 -142Q416 -179 416 -258Q416 -266 413 -276Q410 -253 393 -240Q381 -231 366 -231Q362 -231 359 -231Q341 -231 328 -237Q316 -242 309 -251Q298 -264 298 -282Q298 -328 317 -356Q334 -381 361 -381Q392 -381 418 -360Q440 -341 453 -313.5Q466 -286 466 -258Q466 -156 408 -104Q368 -69 311 -69Q251 -69 218 -123Q196 -157 187 -212Q180 -256 180 -318Q180 -401 194 -475Q199 -497 202.5 -546Q206 -595 212 -622Q214 -646 238 -702Q249 -729 253 -741Q257 -753 257 -760Q256 -760 254 -760Q240 -760 214 -752Q211 -751 207 -751Q192 -751 178 -751Q110 -751 56 -757H49Q39 -757 31.5 -764.5Q24 -772 24 -782Q24 -792 31.5 -799.5Q39 -807 49 -807H57Q58 -807 60 -807Q112 -801 178 -801Q190 -801 203 -801Q234 -810 254 -810ZM361 -281Q362 -281 363 -281Q364 -284 364 -286Q365 -296 372 -302.5Q379 -309 389 -309Q394 -309 399 -307Q393 -315 386 -321Q374 -331 361 -331Q356 -328 353 -315Q348 -300 348 -283Q354 -281 361 -281ZM327 26Q334 30 347 8Q352 0 352 5Q352 24 344 37Q336 50 324 50Q299 50 280 33.5Q261 17 261 -9Q261 -24 272 -36Q281 -46 298 -53Q303 -55 308 -55Q318 -55 325.5 -47.5Q333 -40 333 -30Q331 -24 350 -3Q309 -33 294.5 -29Q280 -25 289 13Q288 16 287 18H288Q290 17 292 16Q294 15 304 17Q314 19 327 26Z"/>
	<path fill="#800080" d="M261 -803Q261 -803 262 -803L417 -799L492 -803L508 -806Q510 -807 513 -807Q523 -807 530.5 -799.5Q538 -792 538 -782Q538 -773 532.5 -766Q527 -759 518 -758L500 -754Q498 -753 496 -753L418 -749Q418 -749 417 -749Q417 -749 416 -749L260 -753Q250 -753 243 -760.5Q236 -768 236 -778Q236 -788 243.5 -795.5Q251 -803 261 -803ZM204 -810Q226 -810 239 -800Q257 -787 257 -761Q257 -746 251 -726Q249 -721 231 -676Q213 -631 212 -616Q212 -614 211 -612Q205 -587 201.5 -537.5Q198 -488 194 -465Q180 -396 180 -318Q180 -260 186 -220Q194 -175 210 -149Q229 -119 261 -119Q299 -119 324 -142Q366 -179 366 -258Q366 -266 363 -276Q360 -253 343 -240Q331 -231 316 -231Q312 -231 309 -231Q291 -231 278 -237Q266 -242 259 -251Q248 -264 248 -282Q248 -328 267 -356Q284 -381 311 -381Q342 -381 368 -360Q390 -341 403 -313.5Q416 -286 416 -258Q416 -156 358 -104Q318 -69 261 -69Q201 -69 168 -123Q146 -157 137 -212Q130 -256 130 -318Q130 -401 144 -475Q149 -497 152.5 -546Q156 -595 162 -622Q164 -646 188 -702Q199 -729 203 -741Q207 -753 207 -760Q206 -760 204 -760Q190 -760 164 -752Q161 -751 157 -751Q142 -751 128 -751Q60 -751 6 -757H-1Q-11 -757 -18.5 -764.5Q-26 -772 -26 -782Q-26 -792 -18.5 -799.5Q-11 -807 -1 -807H7Q8 -807 10 -807Q62 -801 128 -801Q140 -801 153 -801Q184 -810 204 -810ZM311 -281Q312 -281 313 -281Q314 -284 314 -286Q315 -296 322 -302.5Q329 -309 339 -309Q344 -309 349 -307Q343 -315 336 -321Q324 -331 311 -331Q306 -328 303 -315Q298 -300 298 -283Q304 -281 311 -281ZM277 26Q284 30 297 8Q302 0 302 5Q302 24 294 37Q286 50 274 50Q249 50 230 33.5Q211 17 211 -9Q211 -24 222 -36Q231 -46 248 -53Q253 -55 258 -55Q268 -55 275.5 -47.5Q283 -40 283 -30Q281 -24 300 -3Q259 -33 244.5 -29Q230 -25 239 13Q238 16 237 18H238Q240 17 242 16Q244 15 254 17Q264 19 277 26Z"/>
	<path fill="#daa520" d="M276 -778Q276 -783 281 -783L437 -779L514 -783L532 -787Q532 -787 533 -787Q538 -787 538 -782Q538 -778 534 -777L516 -773Q516 -773 515 -773L437 -769Q437 -769 281 -773Q276 -773 276 -778ZM288 -282Q288 -309 298 -335Q308 -361 331 -361Q366 -361 391 -327.5Q416 -294 416 -258Q416 -187 381.5 -138Q347 -89 281 -89Q170 -89 170 -318Q170 -399 184 -471Q188 -493 191.5 -542.5Q195 -592 202 -619Q204 -640 226 -694Q247 -744 247 -761Q247 -771 242 -775.5Q237 -780 224 -780Q207 -780 178 -771Q178 -771 177 -771Q162 -771 148 -771Q80 -771 27 -777H19Q14 -777 14 -782Q14 -787 19 -787H27Q27 -787 28 -787Q81 -781 148 -781Q161 -781 176 -781Q206 -790 224 -790Q257 -790 257 -761Q257 -742 235 -690Q213 -638 212 -618Q212 -617 212 -617Q205 -591 201.5 -541Q198 -491 194 -469Q180 -398 180 -318Q180 -99 281 -99Q342 -99 374 -144.5Q406 -190 406 -258Q406 -291 383.5 -321Q361 -351 331 -351Q314 -351 306 -328Q298 -305 298 -282Q298 -261 331 -261Q332 -261 333.5 -261Q335 -261 336 -261Q343 -261 348 -267.5Q353 -274 354 -284Q354 -289 359 -289Q364 -289 364 -284Q363 -271 355.5 -261Q348 -251 336 -251Q333 -251 331 -251Q288 -251 288 -282ZM258 -60Q260 -60 262 -62Q272 -75 294 -75Q308 -75 317.5 -66.5Q327 -58 327 -46Q327 -34 317.5 -25.5Q308 -17 294 -17Q289 -17 289 -12Q289 -7 294 -7Q312 -7 324.5 -18.5Q337 -30 337 -46Q337 -62 324.5 -73.5Q312 -85 294 -85Q267 -85 254 -68Q253 -67 253 -65Q253 -60 258 -60ZM294 -17Q299 -17 299 -12Q299 -7 294 -7Q276 -7 263.5 -18.5Q251 -30 251 -46Q251 -60 276 -72Q277 -72 278 -72Q283 -72 283 -67Q283 -64 280 -62Q261 -54 261 -46Q261 -34 270.5 -25.5Q280 -17 294 -17Z"/>
</svg>