<svg xmlns="http://www.w3.org/2000/svg" viewBox="0 -1024 1024 1024">
	<path fill="#000088" d="M345 -810Q345 -810 346 -810L470 -806Q480 -806 487 -798.5Q494 -791 494 -781Q494 -771 486.5 -763.5Q479 -756 469 -756Q469 -756 468 -756L344 -760Q334 -760 327 -767.5Q320 -775 320 -785Q320 -795 327.5 -802.5Q335 -810 345 -810ZM101 -341Q101 -329 102 -309Q103 -289 103 -283Q106 -196 118 -162Q124 -178 141 -178Q144 -178 147 -177L195 -165Q207 -162 212 -151Q213 -148 228 -115Q230 -110 230 -105Q230 -92 224 -83Q215 -70 199 -66Q191 -64 180 -64Q179 -64 178 -64Q177 -64 177 -64Q139 -64 112 -84Q78 -109 65 -165Q59 -188 56.5 -211.5Q54 -235 53.5 -269Q53 -303 52 -315.5Q51 -328 51 -341Q51 -473 143 -637Q144 -638 144 -639Q178 -691 238 -760H49Q39 -760 31.5 -767.5Q24 -775 24 -785Q24 -795 31.5 -802.5Q39 -810 49 -810H293Q303 -810 310.5 -802.5Q318 -795 318 -785Q318 -775 312 -768Q309 -766 295 -750Q281 -734 277.5 -730Q274 -726 261.5 -711.5Q249 -697 244 -691Q239 -685 229 -672.5Q219 -660 213 -652Q207 -644 199.5 -633Q192 -622 186 -612Q101 -469 101 -341ZM174 -114Q172 -118 171 -120L137 -128Q151 -115 174 -114Z"/>
	<path fill="#800080" d="M295 -810Q295 -810 296 -810L420 -806Q430 -806 437 -798.5Q444 -791 444 -781Q444 -771 436.5 -763.5Q429 -756 419 -756Q419 -756 418 -756L294 -760Q284 -760 277 -767.5Q270 -775 270 -785Q270 -795 277.5 -802.5Q285 -810 295 -810ZM51 -341Q51 -329 52 -309Q53 -289 53 -283Q56 -196 68 -162Q74 -178 91 -178Q94 -178 97 -177L145 -165Q157 -162 162 -151Q163 -148 178 -115Q180 -110 180 -105Q180 -92 174 -83Q165 -70 149 -66Q141 -64 130 -64Q129 -64 128 -64Q127 -64 127 -64Q89 -64 62 -84Q28 -109 15 -165Q9 -188 6.5 -211.5Q4 -235 3.5 -269Q3 -303 2 -315.5Q1 -328 1 -341Q1 -473 93 -637Q94 -638 94 -639Q128 -691 188 -760H-1Q-11 -760 -18.5 -767.5Q-26 -775 -26 -785Q-26 -795 -18.5 -802.5Q-11 -810 -1 -810H243Q253 -810 260.5 -802.5Q268 -795 268 -785Q268 -775 262 -768Q259 -766 245 -750Q231 -734 227.5 -730Q224 -726 211.5 -711.5Q199 -697 194 -691Q189 -685 179 -672.5Q169 -660 163 -652Q157 -644 149.5 -633Q142 -622 136 -612Q51 -469 51 -341ZM124 -114Q122 -118 121 -120L87 -128Q101 -115 124 -114Z"/>
	<path fill="#daa520" d="M310 -785Q310 -790 315 -790L439 -786Q444 -786 444 -781Q444 -776 439 -776L315 -780Q310 -780 310 -785ZM51 -341Q51 -329 52 -309Q53 -289 53 -283Q54 -255 55 -239Q56 -223 59 -197.5Q62 -172 68.5 -156.5Q75 -141 84.5 -125Q94 -109 110 -101.5Q126 -94 147 -94Q169 -94 170 -104Q159 -129 155 -137L110 -148Q106 -149 106 -153Q106 -158 111 -158Q112 -158 112 -158L160 -146Q163 -145 164 -143Q180 -107 180 -105Q180 -84 148 -84H147Q126 -84 110 -91.5Q94 -99 83.5 -109Q73 -119 65.5 -137.5Q58 -156 54 -170Q50 -184 47.5 -209Q45 -234 44.5 -246Q44 -258 43 -282Q43 -289 42 -309Q41 -329 41 -341Q41 -468 131 -627Q131 -628 131 -628Q170 -688 252 -780H19Q14 -780 14 -785Q14 -790 19 -790H263Q268 -790 268 -785Q268 -783 267 -782Q264 -779 250 -763Q236 -747 232 -742.5Q228 -738 215.5 -724Q203 -710 198 -703.5Q193 -697 182.5 -684.5Q172 -672 166 -663.5Q160 -655 152.5 -644Q145 -633 139 -622Q51 -474 51 -341Z"/>
</svg>