<svg xmlns="http://www.w3.org/2000/svg" viewBox="0 -1024 1024 1024">
	<path fill="#000088" d="M30 -290Q30 -364 100 -416Q87 -438 74 -473Q55 -523 55 -566Q55 -649 121 -705Q154 -733 203 -752L49 -756Q39 -756 32 -763.5Q25 -771 25 -781Q25 -791 32.5 -798.5Q40 -806 50 -806Q50 -806 51 -806L249 -801L344 -802Q359 -803 372 -803Q393 -803 420 -800Q437 -799 447 -799Q466 -799 493 -803Q496 -803 499 -803Q510 -803 517 -796Q529 -799 542 -799Q551 -799 570 -801Q589 -803 591 -803Q593 -803 606 -804.5Q619 -806 627 -806Q637 -806 644.5 -798.5Q652 -791 652 -781Q652 -771 645 -763.5Q638 -756 627 -756Q622 -756 610 -754.5Q598 -753 595 -753Q594 -753 574 -751Q554 -749 542 -749Q525 -749 518 -740Q514 -735 514 -727Q514 -722 515 -719Q551 -682 551 -615Q551 -596 548 -575Q537 -491 530 -281Q529 -267 524.5 -236.5Q520 -206 520 -192Q520 -179 523 -168Q526 -156 527 -135Q527 -120 529 -114Q530 -109 530 -104Q530 -88 515 -78Q505 -71 483 -67Q457 -63 433 -63Q296 -63 217 -83Q113 -109 66 -171Q30 -221 30 -290ZM448 -728Q441 -728 435 -732Q421 -736 389 -736Q320 -736 254 -717Q191 -698 153 -667Q105 -626 105 -566Q105 -532 120 -491Q132 -459 144 -441Q181 -457 220 -459Q223 -459 227 -459Q274 -459 331 -426Q347 -417 347 -400Q347 -387 336 -378Q330 -373 322 -370Q306 -364 269 -357.5Q232 -351 219 -351Q168 -351 133 -378Q80 -341 80 -290Q80 -237 107 -201Q142 -153 229 -131Q302 -113 433 -113Q445 -113 464 -115Q470 -116 477 -117Q477 -122 476.5 -136Q476 -150 475 -156Q470 -172 470 -192Q470 -209 475 -239.5Q480 -270 480 -283Q487 -495 498 -581Q501 -600 501 -615Q501 -662 479 -685Q464 -701 464 -727Q464 -730 464 -732Q458 -730 456 -729Q452 -728 448 -728ZM190 -404Q203 -401 219 -401Q234 -402 254 -406Q240 -409 227 -409Q210 -409 190 -404Z"/>
	<path fill="#800080" d="M-20 -290Q-20 -364 50 -416Q37 -438 24 -473Q5 -523 5 -566Q5 -649 71 -705Q104 -733 153 -752L-1 -756Q-11 -756 -18 -763.5Q-25 -771 -25 -781Q-25 -791 -17.5 -798.5Q-10 -806 0 -806Q0 -806 1 -806L199 -801L294 -802Q309 -803 322 -803Q343 -803 370 -800Q387 -799 397 -799Q416 -799 443 -803Q446 -803 449 -803Q460 -803 467 -796Q479 -799 492 -799Q501 -799 520 -801Q539 -803 541 -803Q543 -803 556 -804.5Q569 -806 577 -806Q587 -806 594.5 -798.5Q602 -791 602 -781Q602 -771 595 -763.5Q588 -756 577 -756Q572 -756 560 -754.5Q548 -753 545 -753Q544 -753 524 -751Q504 -749 492 -749Q475 -749 468 -740Q464 -735 464 -727Q464 -722 465 -719Q501 -682 501 -615Q501 -596 498 -575Q487 -491 480 -281Q479 -267 474.5 -236.5Q470 -206 470 -192Q470 -179 473 -168Q476 -156 477 -135Q477 -120 479 -114Q480 -109 480 -104Q480 -88 465 -78Q455 -71 433 -67Q407 -63 383 -63Q246 -63 167 -83Q63 -109 16 -171Q-20 -221 -20 -290ZM398 -728Q391 -728 385 -732Q371 -736 339 -736Q270 -736 204 -717Q141 -698 103 -667Q55 -626 55 -566Q55 -532 70 -491Q82 -459 94 -441Q131 -457 170 -459Q173 -459 177 -459Q224 -459 281 -426Q297 -417 297 -400Q297 -387 286 -378Q280 -373 272 -370Q256 -364 219 -357.5Q182 -351 169 -351Q118 -351 83 -378Q30 -341 30 -290Q30 -237 57 -201Q92 -153 179 -131Q252 -113 383 -113Q395 -113 414 -115Q420 -116 427 -117Q427 -122 426.5 -136Q426 -150 425 -156Q420 -172 420 -192Q420 -209 425 -239.5Q430 -270 430 -283Q437 -495 448 -581Q451 -600 451 -615Q451 -662 429 -685Q414 -701 414 -727Q414 -730 414 -732Q408 -730 406 -729Q402 -728 398 -728ZM140 -404Q153 -401 169 -401Q184 -402 204 -406Q190 -409 177 -409Q160 -409 140 -404Z"/>
	<path fill="#daa520" d="M417 -769Q403 -769 381 -771Q359 -773 342 -773Q338 -773 329 -772.5Q320 -772 315 -772L219 -771L20 -776Q15 -776 15 -781Q15 -786 20 -786L219 -781L315 -782Q330 -783 342 -783Q362 -783 388 -780Q406 -779 417 -779Q437 -779 466 -783Q468 -783 469 -783Q475 -783 475 -778Q475 -775 472 -773Q468 -769 451 -761Q440 -756 429 -752Q420 -748 418 -748Q417 -748 415 -749Q405 -756 359 -756Q324 -756 286.5 -751Q249 -746 206.5 -732Q164 -718 131.5 -698Q99 -678 77 -643.5Q55 -609 55 -566Q55 -528 72 -484Q89 -437 107 -415Q148 -437 191 -439Q194 -439 197 -439Q238 -439 292 -408Q297 -405 297 -400Q297 -396 293 -393Q290 -391 284 -388Q274 -384 253 -380Q207 -371 189 -371Q136 -371 105 -403Q72 -383 51 -354Q30 -325 30 -290Q30 -251 43.5 -220Q57 -189 78 -168.5Q99 -148 132 -133.5Q165 -119 195.5 -111.5Q226 -104 267 -99.5Q308 -95 336.5 -94Q365 -93 403 -93Q424 -93 448 -97Q461 -99 467 -102Q470 -104 470 -104Q467 -114 466.5 -133Q466 -152 464 -161Q460 -175 460 -192Q460 -208 465 -238Q470 -268 470 -282Q477 -494 488 -579Q491 -598 491 -615Q491 -670 463 -699Q454 -709 454 -727Q454 -748 468.5 -763.5Q483 -779 512 -779Q520 -779 528.5 -779.5Q537 -780 547 -781.5Q557 -783 563 -783Q565 -783 577.5 -784.5Q590 -786 597 -786Q602 -786 602 -781Q602 -776 597 -776Q591 -776 578.5 -774.5Q566 -773 563 -773Q562 -773 542.5 -771Q523 -769 512 -769Q487 -769 475.5 -756.5Q464 -744 464 -727Q464 -713 471 -705Q501 -674 501 -615Q501 -598 498 -577Q487 -493 480 -282Q480 -268 475 -237.5Q470 -207 470 -192Q470 -176 474 -163Q476 -154 476.5 -135.5Q477 -117 480 -108Q480 -106 480 -104Q480 -98 471 -93Q464 -90 449 -87Q425 -83 403 -83Q365 -83 337 -84Q309 -85 266.5 -89.5Q224 -94 193 -101.5Q162 -109 127.5 -124.5Q93 -140 71 -161.5Q49 -183 34.5 -216Q20 -249 20 -290Q20 -327 41.5 -358.5Q63 -390 99 -411Q80 -434 62 -480Q45 -526 45 -566Q45 -612 68 -648.5Q91 -685 125 -706.5Q159 -728 203.5 -742Q248 -756 286 -761Q324 -766 359 -766Q405 -766 419 -758Q434 -765 446 -770Q430 -769 417 -769ZM189 -381Q202 -381 242 -388Q276 -395 286 -400Q235 -429 197 -429Q194 -429 191 -429Q152 -427 114 -408Q141 -381 189 -381Z"/>
</svg>