<svg xmlns="http://www.w3.org/2000/svg" viewBox="0 -1024 1024 1024">
	<path fill="#000088" d="M157 -516Q147 -516 139.5 -523.5Q132 -531 132 -541Q132 -545 133 -548Q177 -701 245 -762Q284 -797 327 -797Q394 -797 450 -737Q502 -682 531 -590.5Q560 -499 560 -391Q560 -305 526.5 -232Q493 -159 435 -116Q374 -71 303 -71Q237 -71 182 -133Q132 -190 103.5 -284.5Q75 -379 75 -490Q75 -639 161 -754Q169 -764 181 -764Q191 -764 198.5 -756.5Q206 -749 206 -739Q206 -731 201 -724Q125 -623 125 -490Q125 -387 151 -300.5Q177 -214 219 -166Q259 -121 303 -121Q358 -121 405 -156Q452 -191 481 -254Q510 -317 510 -391Q510 -490 483.5 -573.5Q457 -657 414 -703Q373 -747 327 -747Q294 -747 261 -706Q214 -650 181 -534Q176 -516 157 -516Z"/>
	<path fill="#800080" d="M107 -516Q97 -516 89.5 -523.5Q82 -531 82 -541Q82 -545 83 -548Q127 -701 195 -762Q234 -797 277 -797Q344 -797 400 -737Q452 -682 481 -590.5Q510 -499 510 -391Q510 -305 476.5 -232Q443 -159 385 -116Q324 -71 253 -71Q187 -71 132 -133Q82 -190 53.5 -284.5Q25 -379 25 -490Q25 -639 111 -754Q119 -764 131 -764Q141 -764 148.5 -756.5Q156 -749 156 -739Q156 -731 151 -724Q75 -623 75 -490Q75 -387 101 -300.5Q127 -214 169 -166Q209 -121 253 -121Q308 -121 355 -156Q402 -191 431 -254Q460 -317 460 -391Q460 -490 433.5 -573.5Q407 -657 364 -703Q323 -747 277 -747Q244 -747 211 -706Q164 -650 131 -534Q126 -516 107 -516Z"/>
	<path fill="#daa520" d="M127 -536Q122 -536 122 -541Q122 -542 122 -542Q154 -652 199 -714.5Q244 -777 297 -777Q386 -777 448 -663.5Q510 -550 510 -391Q510 -267 441 -179Q372 -91 273 -91Q215 -91 167 -145Q119 -199 92 -290.5Q65 -382 65 -490Q65 -633 147 -742Q149 -744 151 -744Q156 -744 156 -739Q156 -737 155 -736Q75 -629 75 -490Q75 -384 102 -294Q129 -204 174.5 -152.5Q220 -101 273 -101Q367 -101 433.5 -185.5Q500 -270 500 -391Q500 -547 440 -657Q380 -767 297 -767Q249 -767 206 -706.5Q163 -646 132 -540Q131 -536 127 -536Z"/>
</svg>