<svg xmlns="http://www.w3.org/2000/svg" viewBox="0 -1024 1024 1024">
	<path fill="#000088" d="M458 -756Q340 -756 299 -756Q153 -756 48 -758Q38 -758 31 -765.5Q24 -773 24 -783Q24 -793 31.5 -800.5Q39 -808 49 -808Q49 -808 50 -808Q153 -806 299 -806Q344 -806 432.5 -806Q521 -806 565 -806Q616 -806 658 -806Q671 -806 678 -796Q712 -825 750 -832Q755 -833 761 -833Q768 -833 781 -830Q788 -829 790 -829Q791 -829 792 -829Q793 -829 794 -829Q804 -829 820 -824Q834 -820 845 -815Q853 -811 857 -803L866 -785Q869 -780 869 -774Q869 -764 861.5 -756.5Q854 -749 844 -749Q829 -749 822 -763L817 -772Q802 -777 794 -779Q792 -779 790 -779Q784 -779 774.5 -781Q765 -783 761 -783Q759 -783 758 -782Q731 -778 705 -752Q674 -721 648 -663Q624 -608 608.5 -542.5Q593 -477 590 -436Q588 -411 581 -361Q574 -311 572 -288Q683 -243 683 -153Q683 -143 678 -128Q666 -91 648 -72Q635 -59 620 -59Q617 -59 613 -60Q596 -64 583 -71Q570 -78 561 -90Q552 -102 546.5 -111.5Q541 -121 537.5 -137.5Q534 -154 532.5 -162Q531 -170 529 -186Q527 -202 525 -209Q522 -230 522 -252Q486 -262 436 -270Q423 -204 383.5 -150.5Q344 -97 283 -73Q282 -72 277 -68.5Q272 -65 269 -63Q266 -61 260.5 -59.5Q255 -58 250 -58Q241 -58 233 -62Q163 -97 150 -179Q149 -186 149 -194Q149 -234 178 -261Q207 -288 244 -297Q253 -300 283.5 -309Q314 -318 336 -322Q358 -326 381 -326Q387 -326 393 -326Q393 -328 393 -330Q393 -365 356 -404Q325 -435 246 -484Q208 -509 195 -519Q184 -528 179 -536Q171 -546 171 -558Q171 -607 228 -651Q298 -707 458 -756ZM443 -320Q489 -313 524 -304Q525 -323 531.5 -369Q538 -415 540 -440Q543 -486 559 -554.5Q575 -623 603 -684Q620 -723 640 -752Q503 -722 397 -683Q304 -648 258 -612Q225 -586 221 -562Q226 -558 234 -552Q244 -545 273 -527Q357 -474 392 -438Q443 -385 443 -330Q443 -326 443 -320ZM615 -111Q629 -131 633 -153Q633 -202 573 -233Q573 -225 575 -217Q586 -147 589 -139Q594 -128 600 -121.5Q606 -115 615 -111ZM199 -194Q199 -191 200 -187Q208 -135 249 -110Q258 -116 265 -119Q311 -137 342.5 -179.5Q374 -222 387 -276Q384 -276 381 -276Q364 -276 343.5 -272Q323 -268 293.5 -259.5Q264 -251 256 -249Q222 -240 207 -217Q199 -206 199 -194Z"/>
	<path fill="#800080" d="M408 -756Q290 -756 249 -756Q103 -756 -2 -758Q-12 -758 -19 -765.5Q-26 -773 -26 -783Q-26 -793 -18.5 -800.5Q-11 -808 -1 -808Q-1 -808 0 -808Q103 -806 249 -806Q294 -806 382.5 -806Q471 -806 515 -806Q566 -806 608 -806Q621 -806 628 -796Q662 -825 700 -832Q705 -833 711 -833Q718 -833 731 -830Q738 -829 740 -829Q741 -829 742 -829Q743 -829 744 -829Q754 -829 770 -824Q784 -820 795 -815Q803 -811 807 -803L816 -785Q819 -780 819 -774Q819 -764 811.5 -756.5Q804 -749 794 -749Q779 -749 772 -763L767 -772Q752 -777 744 -779Q742 -779 740 -779Q734 -779 724.5 -781Q715 -783 711 -783Q709 -783 708 -782Q681 -778 655 -752Q624 -721 598 -663Q574 -608 558.5 -542.5Q543 -477 540 -436Q538 -411 531 -361Q524 -311 522 -288Q633 -243 633 -153Q633 -143 628 -128Q616 -91 598 -72Q585 -59 570 -59Q567 -59 563 -60Q546 -64 533 -71Q520 -78 511 -90Q502 -102 496.5 -111.5Q491 -121 487.5 -137.5Q484 -154 482.5 -162Q481 -170 479 -186Q477 -202 475 -209Q472 -230 472 -252Q436 -262 386 -270Q373 -204 333.5 -150.5Q294 -97 233 -73Q232 -72 227 -68.5Q222 -65 219 -63Q216 -61 210.5 -59.5Q205 -58 200 -58Q191 -58 183 -62Q113 -97 100 -179Q99 -186 99 -194Q99 -234 128 -261Q157 -288 194 -297Q203 -300 233.5 -309Q264 -318 286 -322Q308 -326 331 -326Q337 -326 343 -326Q343 -328 343 -330Q343 -365 306 -404Q275 -435 196 -484Q158 -509 145 -519Q134 -528 129 -536Q121 -546 121 -558Q121 -607 178 -651Q248 -707 408 -756ZM393 -320Q439 -313 474 -304Q475 -323 481.5 -369Q488 -415 490 -440Q493 -486 509 -554.5Q525 -623 553 -684Q570 -723 590 -752Q453 -722 347 -683Q254 -648 208 -612Q175 -586 171 -562Q176 -558 184 -552Q194 -545 223 -527Q307 -474 342 -438Q393 -385 393 -330Q393 -326 393 -320ZM565 -111Q579 -131 583 -153Q583 -202 523 -233Q523 -225 525 -217Q536 -147 539 -139Q544 -128 550 -121.5Q556 -115 565 -111ZM149 -194Q149 -191 150 -187Q158 -135 199 -110Q208 -116 215 -119Q261 -137 292.5 -179.5Q324 -222 337 -276Q334 -276 331 -276Q314 -276 293.5 -272Q273 -268 243.5 -259.5Q214 -251 206 -249Q172 -240 157 -217Q149 -206 149 -194Z"/>
	<path fill="#daa520" d="M535 -776Q491 -776 402.5 -776Q314 -776 269 -776Q123 -776 19 -778Q14 -778 14 -783Q14 -788 19 -788Q123 -786 269 -786Q314 -786 402.5 -786Q491 -786 535 -786Q586 -786 628 -786Q633 -786 633 -781Q633 -777 629 -776Q486 -749 360 -701Q264 -665 216 -628Q171 -593 171 -558Q171 -553 184 -542Q195 -533 232 -510Q261 -492 275 -482.5Q289 -473 315.5 -452.5Q342 -432 356 -415.5Q370 -399 381.5 -376Q393 -353 393 -330Q393 -318 391 -303Q466 -292 512 -278Q513 -306 520.5 -360Q528 -414 530 -438Q533 -482 549 -549.5Q565 -617 591 -676Q646 -800 723 -812Q727 -813 731 -813Q736 -813 745.5 -811Q755 -809 760 -809Q761 -809 762 -809Q763 -809 764 -809Q779 -809 807 -797Q809 -796 809 -794L818 -776Q819 -775 819 -774Q819 -769 814 -769Q811 -769 810 -772L801 -788Q775 -799 764 -799Q763 -799 762 -799Q761 -799 760 -799Q755 -799 745.5 -801Q736 -803 731 -803Q728 -803 725 -802Q653 -790 600 -671Q574 -614 558.5 -547.5Q543 -481 540 -438Q538 -413 530.5 -358Q523 -303 522 -274Q633 -235 633 -153Q633 -141 623 -118.5Q613 -96 604 -86Q597 -79 590 -79Q589 -79 588 -79Q572 -83 560 -91.5Q548 -100 541 -109Q534 -118 529 -134Q524 -150 522.5 -160Q521 -170 518 -189Q516 -205 515 -212Q511 -235 511 -260Q511 -263 511 -267Q465 -282 390 -293Q380 -225 342.5 -169.5Q305 -114 246 -91Q244 -91 235.5 -84.5Q227 -78 220 -78Q216 -78 212 -80Q152 -111 140 -182Q139 -188 139 -194Q139 -225 163 -247.5Q187 -270 219 -278Q228 -280 258 -289Q288 -298 309 -302Q330 -306 351 -306Q363 -306 381 -304Q383 -319 383 -330Q383 -355 369.5 -380Q356 -405 328.5 -428.5Q301 -452 281 -466Q261 -480 227 -501Q189 -525 178 -534Q161 -548 161 -558Q161 -598 210 -636Q259 -674 357 -711Q454 -747 582 -776Q559 -776 535 -776ZM590 -89Q593 -89 596 -93Q602 -98 608 -110Q623 -138 623 -153Q623 -226 521 -263Q521 -262 521 -260Q521 -236 525 -214Q526 -207 529 -186.5Q532 -166 533.5 -158Q535 -150 539.5 -135.5Q544 -121 550 -114Q556 -107 566 -99.5Q576 -92 590 -89ZM220 -88Q223 -88 231 -94Q238 -99 242 -101Q298 -123 334.5 -176Q371 -229 380 -294Q362 -296 351 -296Q331 -296 310 -292Q289 -288 259.5 -279Q230 -270 221 -268Q192 -261 170.5 -241Q149 -221 149 -194Q149 -189 150 -184Q161 -117 216 -88Q218 -88 220 -88Z"/>
</svg>