<svg xmlns="http://www.w3.org/2000/svg" viewBox="0 -1024 1024 1024">
	<path fill="#000088" d="M83 -345Q84 -345 85 -345Q113 -343 148 -326Q185 -309 229 -275Q248 -260 267 -244Q286 -228 308 -207.5Q330 -187 339.5 -177.5Q349 -168 375 -142Q401 -116 404 -113Q408 -114 412 -114Q427 -114 434 -101Q441 -89 444 -82Q448 -73 448 -65Q448 -58 444 -51Q436 -39 422 -39Q416 -39 410 -42Q403 -45 390 -56Q381 -65 352 -94Q255 -191 198 -235Q158 -266 127 -281Q100 -294 81 -295Q72 -296 65 -303Q58 -310 58 -320Q58 -330 65.5 -337.5Q73 -345 83 -345ZM412 -779Q355 -779 240 -768.5Q125 -758 67 -758H49Q39 -758 31.5 -765.5Q24 -773 24 -783Q24 -793 31.5 -800.5Q39 -808 49 -808H67Q124 -808 239 -818.5Q354 -829 412 -829Q422 -829 470.5 -822Q519 -815 539 -810Q554 -807 559 -803Q564 -806 569 -806L698 -814Q699 -814 700 -814Q710 -814 717.5 -806.5Q725 -799 725 -789Q725 -779 718 -772Q711 -765 702 -764L591 -757L526 -516Q497 -407 497 -339Q497 -332 497 -325Q498 -302 498 -259V-256V-253Q498 -196 500 -167Q501 -153 503 -140Q512 -130 519 -122Q533 -106 539 -98Q547 -87 550 -80Q551 -75 551 -70Q551 -57 541 -49Q534 -44 525 -44Q521 -44 517 -45Q484 -53 467 -91Q461 -103 457 -118Q393 -197 330 -248Q283 -286 256.5 -306Q230 -326 187 -351Q144 -376 107 -387Q98 -385 76 -384Q56 -383 49 -383Q39 -383 31.5 -390.5Q24 -398 24 -408Q24 -420 33 -427Q52 -443 76 -443Q87 -443 107 -438Q152 -450 194 -473Q236 -496 278 -534Q320 -572 347 -601Q374 -630 419 -681Q471 -740 497 -767Q459 -774 412 -779ZM447 -339Q447 -414 478 -528L532 -732Q507 -705 457 -648Q416 -601 394.5 -578Q373 -555 334.5 -517.5Q296 -480 259 -454.5Q222 -429 182 -412Q212 -397 246 -374Q280 -351 299 -336.5Q318 -322 356 -291Q405 -251 448 -205Q448 -222 448 -253V-256V-259Q448 -301 447 -323Q447 -331 447 -339Z"/>
	<path fill="#800080" d="M33 -345Q34 -345 35 -345Q63 -343 98 -326Q135 -309 179 -275Q198 -260 217 -244Q236 -228 258 -207.5Q280 -187 289.5 -177.5Q299 -168 325 -142Q351 -116 354 -113Q358 -114 362 -114Q377 -114 384 -101Q391 -89 394 -82Q398 -73 398 -65Q398 -58 394 -51Q386 -39 372 -39Q366 -39 360 -42Q353 -45 340 -56Q331 -65 302 -94Q205 -191 148 -235Q108 -266 77 -281Q50 -294 31 -295Q22 -296 15 -303Q8 -310 8 -320Q8 -330 15.5 -337.5Q23 -345 33 -345ZM362 -779Q305 -779 190 -768.5Q75 -758 17 -758H-1Q-11 -758 -18.5 -765.5Q-26 -773 -26 -783Q-26 -793 -18.5 -800.5Q-11 -808 -1 -808H17Q74 -808 189 -818.5Q304 -829 362 -829Q372 -829 420.5 -822Q469 -815 489 -810Q504 -807 509 -803Q514 -806 519 -806L648 -814Q649 -814 650 -814Q660 -814 667.5 -806.5Q675 -799 675 -789Q675 -779 668 -772Q661 -765 652 -764L541 -757L476 -516Q447 -407 447 -339Q447 -332 447 -325Q448 -302 448 -259V-256V-253Q448 -196 450 -167Q451 -153 453 -140Q462 -130 469 -122Q483 -106 489 -98Q497 -87 500 -80Q501 -75 501 -70Q501 -57 491 -49Q484 -44 475 -44Q471 -44 467 -45Q434 -53 417 -91Q411 -103 407 -118Q343 -197 280 -248Q233 -286 206.5 -306Q180 -326 137 -351Q94 -376 57 -387Q48 -385 26 -384Q6 -383 -1 -383Q-11 -383 -18.5 -390.5Q-26 -398 -26 -408Q-26 -420 -17 -427Q2 -443 26 -443Q37 -443 57 -438Q102 -450 144 -473Q186 -496 228 -534Q270 -572 297 -601Q324 -630 369 -681Q421 -740 447 -767Q409 -774 362 -779ZM397 -339Q397 -414 428 -528L482 -732Q457 -705 407 -648Q366 -601 344.5 -578Q323 -555 284.5 -517.5Q246 -480 209 -454.5Q172 -429 132 -412Q162 -397 196 -374Q230 -351 249 -336.5Q268 -322 306 -291Q355 -251 398 -205Q398 -222 398 -253V-256V-259Q398 -301 397 -323Q397 -331 397 -339Z"/>
	<path fill="#daa520" d="M48 -320Q48 -325 53 -325Q105 -322 187 -259Q245 -214 343 -115Q375 -83 383 -76Q381 -81 378 -87Q377 -88 377 -89Q377 -94 382 -94Q385 -94 386 -91Q398 -71 398 -65Q398 -59 392 -59Q389 -59 384 -62Q381 -65 374 -71Q365 -79 336 -108Q238 -206 180 -251Q101 -312 53 -315Q48 -315 48 -320ZM382 -799Q323 -800 207.5 -789Q92 -778 37 -778H19Q14 -778 14 -783Q14 -788 19 -788H37Q94 -788 209 -798.5Q324 -809 382 -809Q389 -809 438.5 -802Q488 -795 504 -791Q516 -788 519 -786Q521 -784 521 -781Q521 -779 519 -777Q483 -743 425.5 -678Q368 -613 327 -567.5Q286 -522 223 -476.5Q160 -431 96 -412Q134 -400 178.5 -373.5Q223 -347 246.5 -328.5Q270 -310 319 -271Q380 -221 442 -148Q438 -177 438 -253V-259Q438 -301 437 -324Q437 -331 437 -339Q437 -411 467 -523L536 -782Q537 -786 541 -786L670 -794Q675 -794 675 -789Q675 -784 670 -784L545 -776L477 -521Q447 -410 447 -339Q447 -332 447 -324Q448 -302 448 -259V-253Q448 -195 450 -165Q451 -147 455 -132Q468 -116 473 -109Q487 -93 493 -86Q501 -75 501 -70Q501 -64 495 -64Q493 -64 492 -64Q458 -73 445 -127Q379 -210 313 -263Q262 -304 236 -324Q210 -344 164 -370.5Q118 -397 77 -407Q74 -407 71 -406Q57 -403 19 -403Q14 -403 14 -408Q14 -410 16 -412Q30 -423 46 -423Q56 -423 77 -418Q130 -431 180 -460Q230 -489 273.5 -530Q317 -571 353 -610.5Q389 -650 432.5 -700Q476 -750 508 -780Q488 -785 444.5 -792Q401 -799 382 -799ZM487 -76Q483 -83 463 -106Q473 -84 487 -76Z"/>
</svg>