<svg xmlns="http://www.w3.org/2000/svg" viewBox="0 -1024 1024 1024">
	<path fill="#000088" d="M350 -223Q350 -234 359 -241Q364 -259 379.5 -270.5Q395 -282 414 -282Q438 -282 455 -265Q472 -248 472 -224Q472 -200 455 -183Q438 -166 414 -166Q390 -166 370.5 -181.5Q351 -197 350 -221Q350 -222 350 -223ZM406 -224Q406 -221 405 -218Q409 -216 414 -216Q422 -216 422 -224Q422 -232 414 -232Q406 -232 406 -224ZM364 -572Q364 -573 364 -575Q367 -600 385 -618Q403 -636 429 -636Q446 -636 460 -625Q484 -605 484 -569Q484 -533 460 -513Q446 -502 429 -502Q408 -502 394 -516.5Q380 -531 376 -551Q364 -558 364 -572ZM424 -569Q424 -559 429 -553Q434 -558 434 -569Q434 -580 428 -586Q425 -586 422 -584Q424 -579 424 -574Q424 -573 424 -571.5Q424 -570 424 -569Z"/>
	<path fill="#800080" d="M300 -223Q300 -234 309 -241Q314 -259 329.5 -270.5Q345 -282 364 -282Q388 -282 405 -265Q422 -248 422 -224Q422 -200 405 -183Q388 -166 364 -166Q340 -166 320.5 -181.5Q301 -197 300 -221Q300 -222 300 -223ZM356 -224Q356 -221 355 -218Q359 -216 364 -216Q372 -216 372 -224Q372 -232 364 -232Q356 -232 356 -224ZM314 -572Q314 -573 314 -575Q317 -600 335 -618Q353 -636 379 -636Q396 -636 410 -625Q434 -605 434 -569Q434 -533 410 -513Q396 -502 379 -502Q358 -502 344 -516.5Q330 -531 326 -551Q314 -558 314 -572ZM374 -569Q374 -559 379 -553Q384 -558 384 -569Q384 -580 378 -586Q375 -586 372 -584Q374 -579 374 -574Q374 -573 374 -571.5Q374 -570 374 -569Z"/>
	<path fill="#daa520" d="M384 -262Q400 -262 411 -251Q422 -240 422 -224Q422 -208 411 -197Q400 -186 384 -186Q367 -186 354 -196.5Q341 -207 340 -222V-223Q340 -227 346 -228Q348 -242 358.5 -252Q369 -262 384 -262ZM351 -218Q353 -209 362.5 -202.5Q372 -196 384 -196Q395 -196 403.5 -204.5Q412 -213 412 -224Q412 -235 403.5 -243.5Q395 -252 384 -252Q373 -252 364.5 -243.5Q356 -235 356 -224Q356 -220 351 -218ZM374 -569Q374 -553 381.5 -542.5Q389 -532 399 -532Q409 -532 416.5 -542.5Q424 -553 424 -569Q424 -585 416.5 -595.5Q409 -606 399 -606Q387 -606 377.5 -598Q368 -590 365 -577Q366 -579 369 -579Q374 -579 374 -574Q374 -573 374 -571.5Q374 -570 374 -569ZM364 -569Q364 -569 364 -570Q364 -571 364 -571Q363 -567 359 -567Q354 -567 354 -572Q354 -572 354 -573Q356 -591 368.5 -603.5Q381 -616 399 -616Q414 -616 424 -602Q434 -588 434 -569Q434 -550 424 -536Q414 -522 399 -522Q384 -522 374 -536Q364 -550 364 -569Z"/>
</svg>