<svg xmlns="http://www.w3.org/2000/svg" viewBox="0 -1024 1024 1024">
	<path fill="#000088" d="M175 -1146Q175 -1149 174.5 -1155Q174 -1161 174 -1164Q174 -1174 181.5 -1181.5Q189 -1189 199 -1189Q209 -1189 216 -1182.5Q223 -1176 224 -1167Q225 -1157 225 -1146Q225 -1128 216 -1072Q214 -1064 214 -1057Q214 -1024 240.5 -1001Q267 -978 304 -978Q315 -978 326 -980Q356 -987 373 -987Q391 -987 403 -981Q416 -974 423 -962Q428 -952 428 -940Q428 -921 420 -902Q412 -883 405.5 -874.5Q399 -866 386 -851Q374 -838 370 -831Q365 -824 364 -819Q372 -808 382 -797Q388 -792 395 -786Q401 -787 417 -793Q433 -799 444 -801Q447 -801 519 -805Q526 -811 535 -811Q540 -811 549 -809Q571 -803 571 -783Q571 -775 567 -768Q562 -762 556 -759Q552 -758 546 -757Q534 -755 497 -754Q460 -753 450 -751Q445 -751 431 -745Q404 -735 391 -735Q384 -735 377 -738Q372 -740 366 -744Q343 -761 325 -789Q320 -795 318 -801Q314 -809 314 -816Q314 -834 324 -852Q331 -864 348 -884Q377 -917 378 -937Q376 -937 373 -937Q362 -937 336 -932Q320 -928 304 -928Q248 -928 206 -964.5Q164 -1001 164 -1057Q164 -1069 169 -1094Q175 -1130 175 -1146ZM239 -236Q239 -234 239 -230Q239 -226 239 -224Q239 -193 250.5 -166.5Q262 -140 282 -130Q294 -124 308 -124Q312 -124 317 -125Q370 -131 386 -142Q408 -157 409 -213Q377 -197 348 -197Q329 -197 319 -204Q297 -218 297 -256Q297 -289 329 -316Q366 -347 406 -347Q423 -347 435 -333Q447 -319 453 -290Q459 -258 459 -222Q459 -132 415 -101Q389 -83 323 -75Q315 -74 308 -74Q243 -74 209 -137Q189 -176 189 -224Q189 -231 189 -237V-239Q189 -308 198 -344Q208 -387 218 -487Q230 -614 248 -672Q262 -717 283 -751H60Q50 -751 42.5 -758.5Q35 -766 35 -776Q35 -786 42.5 -793.5Q50 -801 60 -801H314Q316 -801 318 -802Q323 -805 328 -805Q329 -805 330 -805H331Q332 -805 334.5 -805Q337 -805 340 -805Q350 -805 357.5 -797.5Q365 -790 365 -780Q365 -769 357 -762Q316 -724 296 -658Q280 -606 268.5 -492.5Q257 -379 246 -332Q239 -302 239 -236ZM399 -296Q403 -287 406 -269Q368 -247 348 -247Q347 -252 347 -256Q347 -266 362 -278Q378 -292 399 -296Z"/>
	<path fill="#800080" d="M125 -1146Q125 -1149 124.5 -1155Q124 -1161 124 -1164Q124 -1174 131.5 -1181.5Q139 -1189 149 -1189Q159 -1189 166 -1182.5Q173 -1176 174 -1167Q175 -1157 175 -1146Q175 -1128 166 -1072Q164 -1064 164 -1057Q164 -1024 190.5 -1001Q217 -978 254 -978Q265 -978 276 -980Q306 -987 323 -987Q341 -987 353 -981Q366 -974 373 -962Q378 -952 378 -940Q378 -921 370 -902Q362 -883 355.5 -874.5Q349 -866 336 -851Q324 -838 320 -831Q315 -824 314 -819Q322 -808 332 -797Q338 -792 345 -786Q351 -787 367 -793Q383 -799 394 -801Q397 -801 469 -805Q476 -811 485 -811Q490 -811 499 -809Q521 -803 521 -783Q521 -775 517 -768Q512 -762 506 -759Q502 -758 496 -757Q484 -755 447 -754Q410 -753 400 -751Q395 -751 381 -745Q354 -735 341 -735Q334 -735 327 -738Q322 -740 316 -744Q293 -761 275 -789Q270 -795 268 -801Q264 -809 264 -816Q264 -834 274 -852Q281 -864 298 -884Q327 -917 328 -937Q326 -937 323 -937Q312 -937 286 -932Q270 -928 254 -928Q198 -928 156 -964.5Q114 -1001 114 -1057Q114 -1069 119 -1094Q125 -1130 125 -1146ZM189 -236Q189 -234 189 -230Q189 -226 189 -224Q189 -193 200.5 -166.5Q212 -140 232 -130Q244 -124 258 -124Q262 -124 267 -125Q320 -131 336 -142Q358 -157 359 -213Q327 -197 298 -197Q279 -197 269 -204Q247 -218 247 -256Q247 -289 279 -316Q316 -347 356 -347Q373 -347 385 -333Q397 -319 403 -290Q409 -258 409 -222Q409 -132 365 -101Q339 -83 273 -75Q265 -74 258 -74Q193 -74 159 -137Q139 -176 139 -224Q139 -231 139 -237V-239Q139 -308 148 -344Q158 -387 168 -487Q180 -614 198 -672Q212 -717 233 -751H10Q0 -751 -7.5 -758.5Q-15 -766 -15 -776Q-15 -786 -7.5 -793.5Q0 -801 10 -801H264Q266 -801 268 -802Q273 -805 278 -805Q279 -805 280 -805H281Q282 -805 284.5 -805Q287 -805 290 -805Q300 -805 307.5 -797.5Q315 -790 315 -780Q315 -769 307 -762Q266 -724 246 -658Q230 -606 218.5 -492.5Q207 -379 196 -332Q189 -302 189 -236ZM349 -296Q353 -287 356 -269Q318 -247 298 -247Q297 -252 297 -256Q297 -266 312 -278Q328 -292 349 -296Z"/>
	<path fill="#daa520" d="M274 -958Q286 -958 308.5 -962.5Q331 -967 343 -967Q378 -967 378 -940Q378 -925 371.5 -909.5Q365 -894 359 -886Q353 -878 341 -864Q314 -833 314 -816L315 -813Q319 -805 332 -790Q345 -775 355 -768Q358 -766 361 -765Q370 -766 389 -773Q408 -780 416 -781Q427 -782 461 -783.5Q495 -785 500 -785Q500 -786 500 -786Q500 -791 505 -791Q509 -791 516 -789Q521 -787 521 -783Q521 -780 518 -778Q517 -777 513 -776Q505 -775 468 -774Q428 -772 418 -771Q410 -770 391 -763Q372 -756 361 -755Q356 -755 348 -761Q328 -775 311 -800Q304 -810 304 -816Q304 -837 333 -871Q345 -884 351 -892Q357 -900 362.5 -913.5Q368 -927 368 -940Q368 -957 343 -957Q329 -957 302 -951Q288 -948 274 -948Q226 -948 190 -979Q154 -1010 154 -1057Q154 -1068 158 -1090Q165 -1128 165 -1146Q165 -1155 164 -1163Q164 -1163 164 -1164Q164 -1169 169 -1169Q173 -1169 174 -1165Q175 -1156 175 -1146Q175 -1129 166 -1075Q164 -1066 164 -1057Q164 -1015 196.5 -986.5Q229 -958 274 -958ZM296 -773Q288 -771 286 -771H30Q25 -771 25 -776Q25 -781 30 -781H286Q293 -782 296 -783Q298 -785 300 -785Q300 -785 301 -785Q302 -785 304.5 -785Q307 -785 310 -785Q315 -785 315 -780Q315 -778 313 -776Q287 -752 269.5 -720Q252 -688 241.5 -644Q231 -600 227 -569.5Q223 -539 218 -484Q208 -382 197 -337Q189 -304 189 -236Q189 -234 189 -230Q189 -226 189 -224Q189 -176 212.5 -140Q236 -104 278 -104Q284 -104 289 -105Q348 -112 368 -126Q399 -148 399 -222Q399 -255 393 -284Q387 -317 376 -317Q350 -317 323.5 -297Q297 -277 297 -256Q297 -227 312 -227Q313 -227 315 -227Q317 -227 318 -227Q344 -227 387 -252Q389 -253 390 -253Q395 -253 395 -248Q395 -245 393 -244Q347 -217 318 -217Q314 -217 312 -217Q287 -217 287 -256Q287 -283 317 -305Q347 -327 376 -327Q395 -327 403 -286Q409 -256 409 -222Q409 -143 373 -118Q351 -102 291 -95Q284 -94 278 -94Q231 -94 205 -133.5Q179 -173 179 -224Q179 -230 179 -236Q179 -305 187 -339Q198 -384 208 -485Q213 -539 216.5 -567Q220 -595 229.5 -639Q239 -683 255 -715Q271 -747 296 -773Z"/>
</svg>