<svg xmlns="http://www.w3.org/2000/svg" viewBox="0 -1024 1024 1024">
	<path fill="#000088" d="M59 -1130Q59 -1133 58.5 -1139Q58 -1145 58 -1148Q58 -1158 65.5 -1165.5Q73 -1173 83 -1173Q93 -1173 100 -1166.5Q107 -1160 108 -1151Q109 -1141 109 -1130Q109 -1112 100 -1056Q98 -1048 98 -1041Q98 -1008 124.5 -985Q151 -962 188 -962Q199 -962 210 -964Q240 -971 257 -971Q275 -971 287 -965Q300 -958 307 -946Q312 -936 312 -924Q312 -905 304 -886Q296 -867 289.5 -858.5Q283 -850 270 -835Q258 -822 254 -815Q249 -808 248 -803Q256 -792 266 -781Q272 -776 279 -770Q285 -771 301 -777Q317 -783 328 -785Q331 -785 403 -789Q410 -795 419 -795Q424 -795 433 -793Q455 -787 455 -767Q455 -759 451 -752Q446 -746 440 -743Q436 -742 430 -741Q418 -739 381 -738Q344 -737 334 -735Q329 -735 315 -729Q288 -719 275 -719Q268 -719 261 -722Q256 -724 250 -728Q227 -745 209 -773Q204 -779 202 -785Q198 -793 198 -800Q198 -818 208 -836Q215 -848 232 -868Q261 -901 262 -921Q260 -921 257 -921Q246 -921 220 -916Q204 -912 188 -912Q132 -912 90 -948.5Q48 -985 48 -1041Q48 -1053 53 -1078Q59 -1114 59 -1130ZM74 -809Q137 -809 168 -785Q169 -785 170 -785Q217 -785 247 -754Q266 -733 279 -698Q290 -670 297 -628Q299 -617 299 -605Q299 -556 269 -510Q307 -480 327 -432Q347 -384 347 -332Q347 -326 347 -319Q349 -307 349 -295Q349 -186 222 -96Q187 -70 149 -70Q108 -70 84 -99Q65 -124 65 -162V-172L47 -265Q47 -268 47 -270Q47 -280 54.5 -287.5Q62 -295 72 -295Q81 -295 88 -289Q95 -283 97 -275L115 -179Q115 -176 115 -174V-162Q115 -141 123 -131Q132 -120 149 -120Q171 -120 194 -136Q299 -211 299 -295Q299 -304 297 -314Q297 -316 297 -318Q297 -320 297 -325Q297 -330 297 -332Q297 -376 281.5 -413Q266 -450 237 -472Q194 -433 142 -433Q131 -433 122 -440Q116 -445 110 -453Q103 -465 97 -481Q93 -494 93 -504Q93 -525 114 -537Q132 -547 162 -547Q196 -547 226 -535Q249 -570 249 -605Q249 -613 247 -620Q241 -657 232 -681Q223 -706 210 -719Q200 -731 188 -734Q184 -715 170 -703Q150 -687 124 -687Q113 -687 106 -694.5Q99 -702 99 -713Q99 -736 113 -755Q94 -759 76 -759Q75 -759 73 -759Q69 -758 68 -758Q62 -755 56 -755Q46 -755 38.5 -762.5Q31 -770 31 -780Q31 -794 42 -801Q50 -806 70 -809Q72 -809 74 -809ZM145 -495Q152 -497 158 -497Q159 -497 160 -497Q161 -497 162 -497Q174 -497 184 -495Q168 -486 151 -484Q147 -490 145 -495Z"/>
	<path fill="#800080" d="M9 -1130Q9 -1133 8.5 -1139Q8 -1145 8 -1148Q8 -1158 15.5 -1165.5Q23 -1173 33 -1173Q43 -1173 50 -1166.5Q57 -1160 58 -1151Q59 -1141 59 -1130Q59 -1112 50 -1056Q48 -1048 48 -1041Q48 -1008 74.5 -985Q101 -962 138 -962Q149 -962 160 -964Q190 -971 207 -971Q225 -971 237 -965Q250 -958 257 -946Q262 -936 262 -924Q262 -905 254 -886Q246 -867 239.5 -858.5Q233 -850 220 -835Q208 -822 204 -815Q199 -808 198 -803Q206 -792 216 -781Q222 -776 229 -770Q235 -771 251 -777Q267 -783 278 -785Q281 -785 353 -789Q360 -795 369 -795Q374 -795 383 -793Q405 -787 405 -767Q405 -759 401 -752Q396 -746 390 -743Q386 -742 380 -741Q368 -739 331 -738Q294 -737 284 -735Q279 -735 265 -729Q238 -719 225 -719Q218 -719 211 -722Q206 -724 200 -728Q177 -745 159 -773Q154 -779 152 -785Q148 -793 148 -800Q148 -818 158 -836Q165 -848 182 -868Q211 -901 212 -921Q210 -921 207 -921Q196 -921 170 -916Q154 -912 138 -912Q82 -912 40 -948.5Q-2 -985 -2 -1041Q-2 -1053 3 -1078Q9 -1114 9 -1130ZM24 -809Q87 -809 118 -785Q119 -785 120 -785Q167 -785 197 -754Q216 -733 229 -698Q240 -670 247 -628Q249 -617 249 -605Q249 -556 219 -510Q257 -480 277 -432Q297 -384 297 -332Q297 -326 297 -319Q299 -307 299 -295Q299 -186 172 -96Q137 -70 99 -70Q58 -70 34 -99Q15 -124 15 -162V-172L-3 -265Q-3 -268 -3 -270Q-3 -280 4.5 -287.5Q12 -295 22 -295Q31 -295 38 -289Q45 -283 47 -275L65 -179Q65 -176 65 -174V-162Q65 -141 73 -131Q82 -120 99 -120Q121 -120 144 -136Q249 -211 249 -295Q249 -304 247 -314Q247 -316 247 -318Q247 -320 247 -325Q247 -330 247 -332Q247 -376 231.5 -413Q216 -450 187 -472Q144 -433 92 -433Q81 -433 72 -440Q66 -445 60 -453Q53 -465 47 -481Q43 -494 43 -504Q43 -525 64 -537Q82 -547 112 -547Q146 -547 176 -535Q199 -570 199 -605Q199 -613 197 -620Q191 -657 182 -681Q173 -706 160 -719Q150 -731 138 -734Q134 -715 120 -703Q100 -687 74 -687Q63 -687 56 -694.5Q49 -702 49 -713Q49 -736 63 -755Q44 -759 26 -759Q25 -759 23 -759Q19 -758 18 -758Q12 -755 6 -755Q-4 -755 -11.5 -762.5Q-19 -770 -19 -780Q-19 -794 -8 -801Q0 -806 20 -809Q22 -809 24 -809ZM95 -495Q102 -497 108 -497Q109 -497 110 -497Q111 -497 112 -497Q124 -497 134 -495Q118 -486 101 -484Q97 -490 95 -495Z"/>
	<path fill="#daa520" d="M158 -942Q170 -942 192.5 -946.5Q215 -951 227 -951Q262 -951 262 -924Q262 -909 255.5 -893.5Q249 -878 243 -870Q237 -862 225 -848Q198 -817 198 -800L199 -797Q203 -789 216 -774Q229 -759 239 -752Q242 -750 245 -749Q254 -750 273 -757Q292 -764 300 -765Q311 -766 345 -767.5Q379 -769 384 -769Q384 -770 384 -770Q384 -775 389 -775Q393 -775 400 -773Q405 -771 405 -767Q405 -764 402 -762Q401 -761 397 -760Q389 -759 352 -758Q312 -756 302 -755Q294 -754 275 -747Q256 -740 245 -739Q240 -739 232 -745Q212 -759 195 -784Q188 -794 188 -800Q188 -821 217 -855Q229 -868 235 -876Q241 -884 246.5 -897.5Q252 -911 252 -924Q252 -941 227 -941Q213 -941 186 -935Q172 -932 158 -932Q110 -932 74 -963Q38 -994 38 -1041Q38 -1052 42 -1074Q49 -1112 49 -1130Q49 -1139 48 -1147Q48 -1147 48 -1148Q48 -1153 53 -1153Q57 -1153 58 -1149Q59 -1140 59 -1130Q59 -1113 50 -1059Q48 -1050 48 -1041Q48 -999 80.5 -970.5Q113 -942 158 -942ZM94 -707Q89 -707 89 -713Q89 -729 98 -742Q107 -755 121 -761Q114 -766 102 -770Q76 -779 44 -779Q31 -777 29 -776Q27 -775 26 -775Q21 -775 21 -780Q21 -782 22.5 -784Q24 -786 27 -786.5Q30 -787 32.5 -787.5Q35 -788 39 -788.5Q43 -789 43 -789Q44 -789 44 -789Q78 -789 105 -780Q123 -774 132 -765Q136 -765 140 -765Q143 -765 146 -765Q224 -764 247 -625Q249 -615 249 -605Q249 -552 211 -506Q252 -481 274.5 -433.5Q297 -386 297 -332Q297 -323 297 -318Q299 -306 299 -295Q299 -196 181 -112Q151 -90 119 -90Q91 -90 73 -108.5Q55 -127 55 -162V-174L37 -269Q37 -270 37 -270Q37 -275 42 -275Q46 -275 47 -271L65 -175Q65 -174 65 -174V-162Q65 -131 80 -115.5Q95 -100 119 -100Q147 -100 175 -120Q289 -201 289 -295Q289 -306 287 -317Q287 -318 287 -318Q287 -320 287 -325Q287 -330 287 -332Q287 -385 265.5 -430Q244 -475 205 -498Q164 -453 112 -453Q103 -453 93 -471Q83 -490 83 -504Q83 -517 99 -522Q115 -527 132 -527Q170 -527 202 -511Q239 -554 239 -605Q239 -614 237 -623Q215 -755 146 -755Q145 -755 143 -755Q141 -755 140 -755Q139 -755 137 -755Q139 -751 139 -746Q139 -729 127 -719Q113 -707 94 -707ZM128 -517Q119 -517 106 -513.5Q93 -510 93 -504Q93 -496 100 -481Q107 -466 112 -463Q158 -463 195 -503Q166 -517 132 -517Q131 -517 130 -517Q129 -517 128 -517ZM129 -746Q129 -750 127 -753Q116 -749 108.5 -739Q101 -729 99 -718Q129 -722 129 -746Z"/>
</svg>