<svg xmlns="http://www.w3.org/2000/svg" viewBox="0 -1024 1024 1024">
	<path fill="#000088" d="M-52 -84Q-52 -73 -60 -66Q-68 -59 -78 -59Q-85 -59 -90 -61L-273 6L-204 8Q-199 8 -195 10L-129 40Q-127 41 -126 42L-78 72Q-66 79 -66 93Q-66 103 -73.5 110.5Q-81 118 -91 118Q-98 118 -104 114L-151 85L-211 58L-404 52Q-414 52 -421 44.5Q-428 37 -428 27Q-428 10 -412 4L-104 -109Q-96 -119 -83 -119Q-71 -119 -63 -112.5Q-55 -106 -54 -95Q-52 -90 -52 -84Z"/>
	<path fill="#800080" d="M-102 -84Q-102 -73 -110 -66Q-118 -59 -128 -59Q-135 -59 -140 -61L-323 6L-254 8Q-249 8 -245 10L-179 40Q-177 41 -176 42L-128 72Q-116 79 -116 93Q-116 103 -123.5 110.5Q-131 118 -141 118Q-148 118 -154 114L-201 85L-261 58L-454 52Q-464 52 -471 44.5Q-478 37 -478 27Q-478 10 -462 4L-154 -109Q-146 -119 -133 -119Q-121 -119 -113 -112.5Q-105 -106 -104 -95Q-102 -90 -102 -84Z"/>
	<path fill="#daa520" d="M-113 -99Q-104 -99 -104 -93Q-104 -91 -105 -90Q-102 -87 -102 -84Q-102 -79 -108 -79Q-112 -79 -121 -82L-407 23L-235 28Q-234 28 -233 28L-167 58Q-167 59 -166 59L-118 89Q-116 90 -116 93Q-116 98 -121 98Q-122 98 -124 97L-171 67L-236 38L-433 32Q-438 32 -438 27Q-438 24 -435 22L-123 -92Q-122 -92 -121 -92Q-120 -92 -119 -92Q-120 -92 -120 -93Q-120 -99 -113 -99Z"/>
</svg>