<svg xmlns="http://www.w3.org/2000/svg" viewBox="0 -1024 1024 1024">
	<path fill="#000088" d="M182 -746Q163 -753 133 -753L51 -749Q50 -749 50 -749Q40 -749 32.5 -756.5Q25 -764 25 -774Q25 -784 32 -791Q39 -798 49 -799L131 -803Q131 -803 132 -803Q159 -803 182 -798Q201 -794 215 -787Q232 -797 254 -797Q263 -797 272 -792Q279 -789 288 -782Q298 -775 317 -756Q327 -746 330 -743Q336 -738 338 -730L358 -654Q359 -652 359 -650L365 -578Q365 -577 365 -576Q365 -575 365 -573L359 -519Q359 -517 358 -515L346 -473Q326 -399 326 -309Q326 -264 331 -215Q332 -202 345 -172Q363 -131 363 -110Q363 -100 355.5 -92.5Q348 -85 338 -85Q328 -85 320.5 -92.5Q313 -100 313 -110L312 -107Q306 -116 292 -125Q285 -130 279 -133Q238 -132 227 -122Q224 -119 219 -117Q214 -115 203 -107Q184 -93 170 -90Q165 -88 152 -81Q124 -65 106 -65Q81 -65 65 -81Q54 -92 45 -115Q41 -126 39 -128Q33 -135 33 -144Q33 -154 40 -162L46 -168Q54 -175 64 -175Q74 -175 81.5 -167.5Q89 -160 89 -150Q89 -146 88 -142Q98 -119 98 -118Q100 -116 101 -116Q103 -115 106 -115Q111 -115 127 -124Q146 -135 158 -138Q162 -139 175 -148Q188 -157 196 -161Q212 -174 230 -178Q248 -182 279 -183Q280 -183 280 -183Q284 -183 287 -182Q282 -197 281 -209Q276 -262 276 -309Q276 -410 298 -487L309 -527L315 -576L309 -644L292 -710Q289 -712 282 -720Q260 -742 251 -747Q250 -747 249 -747Q251 -738 251 -730Q251 -704 235 -688Q223 -675 206 -675Q193 -675 185 -682Q175 -690 175 -704Q175 -705 175 -707Q175 -709 175 -710Q175 -729 182 -746Z"/>
	<path fill="#800080" d="M132 -746Q113 -753 83 -753L1 -749Q0 -749 0 -749Q-10 -749 -17.5 -756.5Q-25 -764 -25 -774Q-25 -784 -18 -791Q-11 -798 -1 -799L81 -803Q81 -803 82 -803Q109 -803 132 -798Q151 -794 165 -787Q182 -797 204 -797Q213 -797 222 -792Q229 -789 238 -782Q248 -775 267 -756Q277 -746 280 -743Q286 -738 288 -730L308 -654Q309 -652 309 -650L315 -578Q315 -577 315 -576Q315 -575 315 -573L309 -519Q309 -517 308 -515L296 -473Q276 -399 276 -309Q276 -264 281 -215Q282 -202 295 -172Q313 -131 313 -110Q313 -100 305.5 -92.5Q298 -85 288 -85Q278 -85 270.5 -92.5Q263 -100 263 -110L262 -107Q256 -116 242 -125Q235 -130 229 -133Q188 -132 177 -122Q174 -119 169 -117Q164 -115 153 -107Q134 -93 120 -90Q115 -88 102 -81Q74 -65 56 -65Q31 -65 15 -81Q4 -92 -5 -115Q-9 -126 -11 -128Q-17 -135 -17 -144Q-17 -154 -10 -162L-4 -168Q4 -175 14 -175Q24 -175 31.5 -167.5Q39 -160 39 -150Q39 -146 38 -142Q48 -119 48 -118Q50 -116 51 -116Q53 -115 56 -115Q61 -115 77 -124Q96 -135 108 -138Q112 -139 125 -148Q138 -157 146 -161Q162 -174 180 -178Q198 -182 229 -183Q230 -183 230 -183Q234 -183 237 -182Q232 -197 231 -209Q226 -262 226 -309Q226 -410 248 -487L259 -527L265 -576L259 -644L242 -710Q239 -712 232 -720Q210 -742 201 -747Q200 -747 199 -747Q201 -738 201 -730Q201 -704 185 -688Q173 -675 156 -675Q143 -675 135 -682Q125 -690 125 -704Q125 -705 125 -707Q125 -709 125 -710Q125 -729 132 -746Z"/>
	<path fill="#daa520" d="M165 -704Q165 -705 165 -707Q165 -709 165 -710Q165 -736 179 -754Q156 -773 102 -773L20 -769Q15 -769 15 -774Q15 -779 20 -779L102 -783Q161 -783 186 -762Q201 -777 224 -777Q232 -777 245 -767Q254 -760 273 -742Q284 -731 287 -728Q288 -727 289 -725L309 -649Q309 -649 309 -648L315 -576Q315 -576 315 -575L309 -521L297 -479Q276 -402 276 -309Q276 -263 281 -213Q283 -197 297 -164Q313 -127 313 -110Q313 -105 308 -105Q303 -105 303 -110Q303 -117 286 -132Q262 -153 250 -153Q232 -153 224 -152Q216 -151 203.5 -147.5Q191 -144 183 -136Q183 -136 182 -135Q175 -133 160 -122.5Q145 -112 135 -109Q129 -107 109 -96Q89 -85 76 -85Q63 -85 53.5 -92Q44 -99 41 -105Q38 -111 33 -122Q28 -136 24 -141Q23 -142 23 -144Q23 -146 24 -148L30 -154Q32 -155 34 -155Q39 -155 39 -150Q39 -148 35 -144Q38 -138 43.5 -123.5Q49 -109 56 -102Q63 -95 76 -95Q86 -95 107 -107Q124 -116 133 -119Q141 -121 156 -132Q169 -141 177 -144Q197 -163 250 -163Q268 -163 298 -135Q298 -135 285.5 -165.5Q273 -196 271 -211Q266 -263 266 -309Q266 -404 287 -481L299 -523L305 -576L299 -647L280 -721Q274 -726 260 -739.5Q246 -753 239 -759Q229 -767 224 -767Q206 -767 193 -755Q201 -744 201 -730Q201 -718 195 -706.5Q189 -695 176 -695Q171 -695 169 -696Q165 -698 165 -704ZM175 -705Q175 -705 176 -705Q191 -705 191 -730Q191 -739 186 -747Q175 -731 175 -710Q175 -708 175 -705Z"/>
</svg>