<svg xmlns="http://www.w3.org/2000/svg" viewBox="0 -1024 1024 1024">
	<path fill="#000088" d="M325 -534Q322 -534 315 -534Q308 -534 306 -534Q275 -534 252 -566Q238 -585 228.5 -614Q219 -643 219 -670Q219 -694 233 -711Q248 -730 274.5 -736.5Q301 -743 340 -743Q340 -743 341 -743Q342 -743 343 -743Q419 -743 467 -682Q500 -641 517 -573Q533 -510 533 -437Q535 -420 535 -403Q535 -296 469.5 -216Q404 -136 301 -112Q286 -108 272 -108Q220 -108 181 -153Q155 -184 137 -233Q119 -282 114 -333L79 -478Q78 -481 78 -483L75 -567Q75 -568 75 -568Q75 -569 75 -570L78 -606Q79 -616 86 -622.5Q93 -629 103 -629Q113 -629 120.5 -621.5Q128 -614 128 -604Q128 -603 128 -602L125 -567L128 -487L163 -343Q164 -341 164 -339Q168 -293 184 -249Q198 -209 219 -186Q243 -158 272 -158Q280 -158 289 -160Q376 -180 430.5 -247Q485 -314 485 -403Q485 -418 483 -433Q483 -435 483 -436Q483 -503 468 -561Q454 -618 427 -651Q394 -693 343 -693Q282 -693 272 -680Q269 -676 269 -670Q269 -638 286 -606Q296 -585 307 -584Q309 -584 314 -584Q319 -584 321 -584Q323 -584 325 -584Q329 -584 333 -583Q352 -578 352 -559Q352 -550 347 -543Q343 -538 336 -535Q332 -534 325 -534Z"/>
	<path fill="#800080" d="M275 -534Q272 -534 265 -534Q258 -534 256 -534Q225 -534 202 -566Q188 -585 178.5 -614Q169 -643 169 -670Q169 -694 183 -711Q198 -730 224.5 -736.5Q251 -743 290 -743Q290 -743 291 -743Q292 -743 293 -743Q369 -743 417 -682Q450 -641 467 -573Q483 -510 483 -437Q485 -420 485 -403Q485 -296 419.5 -216Q354 -136 251 -112Q236 -108 222 -108Q170 -108 131 -153Q105 -184 87 -233Q69 -282 64 -333L29 -478Q28 -481 28 -483L25 -567Q25 -568 25 -568Q25 -569 25 -570L28 -606Q29 -616 36 -622.5Q43 -629 53 -629Q63 -629 70.5 -621.5Q78 -614 78 -604Q78 -603 78 -602L75 -567L78 -487L113 -343Q114 -341 114 -339Q118 -293 134 -249Q148 -209 169 -186Q193 -158 222 -158Q230 -158 239 -160Q326 -180 380.5 -247Q435 -314 435 -403Q435 -418 433 -433Q433 -435 433 -436Q433 -503 418 -561Q404 -618 377 -651Q344 -693 293 -693Q232 -693 222 -680Q219 -676 219 -670Q219 -638 236 -606Q246 -585 257 -584Q259 -584 264 -584Q269 -584 271 -584Q273 -584 275 -584Q279 -584 283 -583Q302 -578 302 -559Q302 -550 297 -543Q293 -538 286 -535Q282 -534 275 -534Z"/>
	<path fill="#daa520" d="M295 -554Q292 -554 277 -554Q277 -554 276 -554Q255 -554 238 -578Q224 -596 216.5 -623Q209 -650 209 -670Q209 -688 218.5 -700Q228 -712 246.5 -716.5Q265 -721 277.5 -722Q290 -723 310 -723Q310 -723 311 -723Q312 -723 313 -723Q354 -723 385.5 -702Q417 -681 435 -650.5Q453 -620 464.5 -579Q476 -538 479.5 -504Q483 -470 483 -436Q485 -420 485 -403Q485 -303 424 -228.5Q363 -154 266 -131Q254 -128 242 -128Q209 -128 182.5 -149.5Q156 -171 140.5 -204.5Q125 -238 116 -271.5Q107 -305 104 -336L68 -483Q68 -483 68 -484L65 -568L68 -604Q68 -609 73 -609Q78 -609 78 -604L75 -568L78 -485L114 -338Q114 -338 114 -337Q117 -307 125.5 -274Q134 -241 149 -209.5Q164 -178 188.5 -158Q213 -138 242 -138Q253 -138 264 -141Q357 -162 416 -234.5Q475 -307 475 -403Q475 -419 473 -435Q473 -436 473 -436Q473 -479 466 -522Q459 -565 443 -610.5Q427 -656 393.5 -684.5Q360 -713 313 -713Q293 -713 280.5 -712Q268 -711 252 -707.5Q236 -704 227.5 -694.5Q219 -685 219 -670Q219 -652 226.5 -626Q234 -600 246 -583Q260 -564 276 -564H277Q279 -564 285 -564Q291 -564 293 -564Q294 -564 295 -564Q295 -564 296 -564Q296 -564 297 -564Q298 -564 300 -563Q302 -562 302 -559L299 -554Q297 -553 297 -553Q296 -553 295.5 -553.5Q295 -554 295 -554Z"/>
</svg>