<svg xmlns="http://www.w3.org/2000/svg" viewBox="0 -1024 1024 1024">
	<path fill="#000088" d="M492 -944Q492 -942 492 -939.5Q492 -937 492 -937Q492 -931 492 -926Q492 -877 461 -857Q453 -844 429 -801L638 -805L693 -809Q694 -809 695 -809Q705 -809 712.5 -801.5Q720 -794 720 -784Q720 -774 713.5 -767Q707 -760 697 -759L641 -755Q640 -755 639 -755L411 -751Q402 -751 395 -757Q395 -757 392 -759Q389 -761 388.5 -761.5Q388 -762 385.5 -764Q383 -766 382 -766.5Q381 -767 379 -769Q377 -771 376 -772.5Q375 -774 373.5 -776.5Q372 -779 371.5 -781.5Q371 -784 370.5 -786.5Q370 -789 370 -792Q370 -799 373 -804Q412 -874 420 -887Q423 -892 426 -894Q429 -897 433 -899Q442 -903 442 -926Q442 -928 442 -930Q414 -927 358 -900Q332 -888 318.5 -882Q305 -876 279.5 -869.5Q254 -863 231 -863Q228 -863 225 -864Q191 -871 159 -899Q121 -931 108 -967Q106 -972 106 -976Q106 -986 113.5 -993.5Q121 -1001 131 -1001Q148 -1001 154 -985Q163 -961 191 -937Q213 -919 234 -913Q270 -914 336 -945Q361 -957 373.5 -962.5Q386 -968 410 -974.5Q434 -981 455 -981Q477 -981 487 -964Q492 -956 492 -945ZM87 -795Q103 -795 135.5 -798.5Q168 -802 185 -802Q196 -802 205 -801Q268 -797 305 -789Q353 -779 381 -758Q424 -726 424 -673Q424 -648 406 -592Q389 -539 388 -512Q396 -518 407 -520Q409 -520 412 -524Q417 -527 427 -539Q439 -552 446 -558.5Q453 -565 468 -573Q483 -581 499 -581Q502 -581 505 -580Q534 -574 559 -532Q577 -515 588 -495Q599 -475 603.5 -450Q608 -425 609.5 -411Q611 -397 612 -368Q612 -348 612 -341Q612 -259 582 -205Q566 -143 545 -111Q513 -62 464 -62Q453 -62 419 -66Q384 -70 367 -70Q326 -70 293 -112Q272 -139 242 -205Q225 -243 219 -252Q216 -256 215 -260L175 -404Q174 -406 174 -407L170 -435Q170 -437 170 -439Q170 -449 177.5 -456.5Q185 -464 195 -464Q204 -464 211 -458Q218 -452 220 -443L224 -416L262 -278Q270 -265 288 -225Q315 -165 332 -143Q350 -120 367 -120Q387 -120 419 -116.5Q451 -113 461 -112Q462 -112 464 -112Q486 -112 504 -139Q520 -163 535 -221Q536 -225 537 -228Q562 -270 562 -341Q562 -347 562 -367Q561 -402 559 -420Q557 -438 548 -460Q539 -482 522 -498Q519 -500 517 -504Q509 -519 502 -526Q499 -529 496 -531Q490 -529 483 -523Q476 -518 463 -503.5Q450 -489 442 -483Q430 -474 418 -471Q416 -469 414 -468Q398 -449 380 -449Q376 -449 372 -450Q351 -452 342 -470Q337 -479 337 -491Q337 -494 337.5 -499.5Q338 -505 338 -507Q338 -532 343.5 -556Q349 -580 358 -607.5Q367 -635 371 -650Q374 -662 374 -673Q374 -701 351 -718Q332 -732 294 -740Q261 -748 202 -751Q189 -752 185 -752Q170 -752 137 -748.5Q104 -745 87 -745Q73 -745 61 -747H55Q45 -747 37.5 -754.5Q30 -762 30 -772Q30 -782 37.5 -789.5Q45 -797 55 -797H63Q65 -797 67 -797Q76 -795 87 -795Z"/>
	<path fill="#800080" d="M442 -944Q442 -942 442 -939.5Q442 -937 442 -937Q442 -931 442 -926Q442 -877 411 -857Q403 -844 379 -801L588 -805L643 -809Q644 -809 645 -809Q655 -809 662.5 -801.5Q670 -794 670 -784Q670 -774 663.5 -767Q657 -760 647 -759L591 -755Q590 -755 589 -755L361 -751Q352 -751 345 -757Q345 -757 342 -759Q339 -761 338.5 -761.5Q338 -762 335.5 -764Q333 -766 332 -766.5Q331 -767 329 -769Q327 -771 326 -772.5Q325 -774 323.5 -776.5Q322 -779 321.5 -781.5Q321 -784 320.5 -786.5Q320 -789 320 -792Q320 -799 323 -804Q362 -874 370 -887Q373 -892 376 -894Q379 -897 383 -899Q392 -903 392 -926Q392 -928 392 -930Q364 -927 308 -900Q282 -888 268.5 -882Q255 -876 229.5 -869.5Q204 -863 181 -863Q178 -863 175 -864Q141 -871 109 -899Q71 -931 58 -967Q56 -972 56 -976Q56 -986 63.5 -993.5Q71 -1001 81 -1001Q98 -1001 104 -985Q113 -961 141 -937Q163 -919 184 -913Q220 -914 286 -945Q311 -957 323.5 -962.5Q336 -968 360 -974.5Q384 -981 405 -981Q427 -981 437 -964Q442 -956 442 -945ZM37 -795Q53 -795 85.5 -798.5Q118 -802 135 -802Q146 -802 155 -801Q218 -797 255 -789Q303 -779 331 -758Q374 -726 374 -673Q374 -648 356 -592Q339 -539 338 -512Q346 -518 357 -520Q359 -520 362 -524Q367 -527 377 -539Q389 -552 396 -558.5Q403 -565 418 -573Q433 -581 449 -581Q452 -581 455 -580Q484 -574 509 -532Q527 -515 538 -495Q549 -475 553.5 -450Q558 -425 559.5 -411Q561 -397 562 -368Q562 -348 562 -341Q562 -259 532 -205Q516 -143 495 -111Q463 -62 414 -62Q403 -62 369 -66Q334 -70 317 -70Q276 -70 243 -112Q222 -139 192 -205Q175 -243 169 -252Q166 -256 165 -260L125 -404Q124 -406 124 -407L120 -435Q120 -437 120 -439Q120 -449 127.5 -456.5Q135 -464 145 -464Q154 -464 161 -458Q168 -452 170 -443L174 -416L212 -278Q220 -265 238 -225Q265 -165 282 -143Q300 -120 317 -120Q337 -120 369 -116.5Q401 -113 411 -112Q412 -112 414 -112Q436 -112 454 -139Q470 -163 485 -221Q486 -225 487 -228Q512 -270 512 -341Q512 -347 512 -367Q511 -402 509 -420Q507 -438 498 -460Q489 -482 472 -498Q469 -500 467 -504Q459 -519 452 -526Q449 -529 446 -531Q440 -529 433 -523Q426 -518 413 -503.5Q400 -489 392 -483Q380 -474 368 -471Q366 -469 364 -468Q348 -449 330 -449Q326 -449 322 -450Q301 -452 292 -470Q287 -479 287 -491Q287 -494 287.5 -499.5Q288 -505 288 -507Q288 -532 293.5 -556Q299 -580 308 -607.5Q317 -635 321 -650Q324 -662 324 -673Q324 -701 301 -718Q282 -732 244 -740Q211 -748 152 -751Q139 -752 135 -752Q120 -752 87 -748.5Q54 -745 37 -745Q23 -745 11 -747H5Q-5 -747 -12.5 -754.5Q-20 -762 -20 -772Q-20 -782 -12.5 -789.5Q-5 -797 5 -797H13Q15 -797 17 -797Q26 -795 37 -795Z"/>
	<path fill="#daa520" d="M432 -936Q432 -937 432 -939.5Q432 -942 432 -944Q432 -948 431 -949Q430 -951 425 -951Q388 -951 319 -918Q295 -907 281.5 -901Q268 -895 245 -889Q222 -883 201 -883Q200 -883 200 -883Q167 -891 136.5 -919Q106 -947 96 -974Q96 -975 96 -976Q96 -981 101 -981Q104 -981 106 -978Q115 -953 143.5 -926.5Q172 -900 202 -893Q243 -893 315 -927Q385 -961 425 -961Q436 -961 440 -954Q442 -950 442 -944Q442 -942 442 -939.5Q442 -937 442 -936Q442 -931 442 -926Q442 -884 415 -871V-870Q407 -856 370 -791Q372 -788 379 -783Q382 -782 383 -781L609 -785L665 -789Q670 -789 670 -784Q670 -779 665 -779L609 -775Q381 -771 381 -771Q379 -771 378 -772Q376 -773 371 -776.5Q366 -780 363 -783.5Q360 -787 360 -792Q360 -793 361 -794Q400 -864 407 -877Q408 -878 409 -878Q410 -880 411 -881Q432 -890 432 -926Q432 -928 432 -931Q432 -934 432 -936ZM57 -775Q73 -775 106 -778.5Q139 -782 155 -782Q165 -782 173 -781Q199 -780 216.5 -778Q234 -776 260 -772Q286 -768 304 -760.5Q322 -753 339 -742Q356 -731 365 -713.5Q374 -696 374 -673Q374 -659 370 -643Q367 -629 358 -602Q349 -575 343.5 -552Q338 -529 338 -507Q338 -504 337.5 -499Q337 -494 337 -491Q337 -480 345 -480Q346 -480 347.5 -479.5Q349 -479 350 -479Q354 -479 362 -488Q372 -499 380 -500Q390 -502 412 -525Q423 -537 428.5 -542.5Q434 -548 446 -554.5Q458 -561 469 -561Q470 -561 470 -561Q492 -556 513 -519Q520 -512 526 -504.5Q532 -497 536.5 -491Q541 -485 544.5 -475Q548 -465 550.5 -460Q553 -455 555 -443Q557 -431 558 -427Q559 -423 560 -409Q561 -395 561 -392Q561 -389 561.5 -373.5Q562 -358 562 -355Q562 -348 562 -341Q562 -263 534 -213Q528 -193 524.5 -181Q521 -169 512 -148Q503 -127 493.5 -114.5Q484 -102 468 -92Q452 -82 434 -82Q431 -82 429 -82Q419 -83 387 -86.5Q355 -90 337 -90Q322 -90 307.5 -99Q293 -108 283.5 -117.5Q274 -127 262.5 -148Q251 -169 246 -179.5Q241 -190 231 -213Q213 -253 205 -264Q204 -265 204 -266L164 -410L160 -438Q160 -439 160 -439Q160 -444 165 -444Q169 -444 170 -440L174 -412L214 -269Q222 -258 240 -217Q251 -191 259.5 -175Q268 -159 280.5 -139Q293 -119 307 -109.5Q321 -100 337 -100Q356 -100 388 -96.5Q420 -93 429 -92Q432 -92 434 -92Q453 -92 469 -103.5Q485 -115 495.5 -137Q506 -159 512 -175.5Q518 -192 524 -216Q524 -217 525 -218Q552 -265 552 -341Q552 -347 552 -368Q551 -404 549 -423Q547 -442 536.5 -468Q526 -494 506 -512Q505 -513 505 -514Q486 -547 468 -551Q449 -551 419 -518Q395 -492 382 -490Q377 -489 370 -481Q359 -469 350 -469Q347 -469 344 -470Q327 -470 327 -491Q327 -494 327.5 -499.5Q328 -505 328 -507Q328 -530 333.5 -553.5Q339 -577 348 -604Q357 -631 360 -645Q364 -660 364 -673Q364 -697 351.5 -714.5Q339 -732 321 -741.5Q303 -751 275 -758Q247 -765 225 -767Q203 -769 173 -771Q160 -772 155 -772Q139 -772 106 -768.5Q73 -765 57 -765Q44 -765 33 -767H25Q20 -767 20 -772Q20 -777 25 -777H33Q33 -777 34 -777Q44 -775 57 -775Z"/>
</svg>