<svg xmlns="http://www.w3.org/2000/svg" viewBox="0 -1024 1024 1024">
	<path fill="#000088" d="M568 -755Q535 -755 467.5 -754Q400 -753 367 -753Q276 -753 210 -758Q200 -759 193.5 -766Q187 -773 187 -783Q187 -793 194.5 -800.5Q202 -808 212 -808Q213 -808 214 -808Q278 -803 367 -803Q400 -803 467.5 -804Q535 -805 568 -805Q603 -805 632 -804Q687 -804 795 -793Q903 -782 956 -782H992L1021 -788Q1024 -788 1026 -788Q1036 -788 1043.5 -780.5Q1051 -773 1051 -763Q1051 -754 1045 -747Q1039 -740 1031 -738L999 -732Q996 -732 994 -732H956Q902 -732 794 -743Q686 -754 632 -754Q621 -754 600 -754.5Q579 -755 568 -755ZM663 -268Q662 -268 660 -267.5Q658 -267 657 -267Q647 -267 639.5 -274.5Q632 -282 632 -292Q632 -301 637.5 -307.5Q643 -314 651 -316Q657 -318 663 -318Q665 -318 666.5 -317.5Q668 -317 670 -317Q672 -317 674 -317Q680 -317 685 -316Q691 -343 701 -378L720 -481Q721 -482 721 -483L765 -635Q766 -637 767 -640L811 -724Q813 -727 816 -730Q822 -736 832 -751Q840 -763 844.5 -769Q849 -775 863 -784Q877 -793 893 -793Q911 -793 924 -774Q935 -758 944.5 -725.5Q954 -693 954 -672V-643Q962 -612 976 -565Q977 -609 996 -639Q996 -664 1015 -699Q1028 -722 1028 -731Q1028 -732 1028 -732.5Q1028 -733 1028 -734Q1028 -762 1041 -784Q1045 -791 1050.5 -797Q1056 -803 1059 -805.5Q1062 -808 1069 -813Q1076 -818 1077 -820Q1084 -825 1093 -825Q1103 -825 1110.5 -817.5Q1118 -810 1118 -800Q1118 -788 1109 -780Q1087 -764 1084 -758Q1078 -748 1078 -734Q1078 -733 1078 -732.5Q1078 -732 1078 -731Q1078 -708 1059 -675Q1046 -651 1046 -639Q1046 -638 1046 -635.5Q1046 -633 1046 -632Q1046 -624 1041 -617Q1026 -597 1026 -561Q1026 -560 1026 -558.5Q1026 -557 1026 -556Q1026 -542 1020.5 -516.5Q1015 -491 1014 -485Q1012 -471 1008 -455Q1035 -354 1035 -275Q1035 -257 1034 -238Q1034 -237 1034 -234Q1034 -224 1035 -201Q1036 -178 1036 -166Q1036 -113 1023 -91Q1010 -67 985 -67Q964 -67 952 -72Q939 -78 929 -93Q925 -100 920 -103Q909 -110 908 -123L904 -219Q904 -219 904 -220Q904 -222 904 -224L920 -312Q921 -313 921 -314Q944 -406 949 -427Q954 -444 957 -454Q951 -476 932 -537.5Q913 -599 905 -634Q904 -637 904 -640V-672Q904 -685 896 -712Q892 -728 886 -740Q882 -736 873 -723Q861 -705 853 -697L812 -619L769 -470L750 -367Q749 -366 749 -365Q736 -319 730 -284Q747 -261 756.5 -221.5Q766 -182 766 -144Q766 -137 762 -129Q760 -125 756 -120Q743 -101 727 -86Q721 -80 717 -78Q711 -75 705 -75Q687 -75 681 -92Q670 -125 670 -168Q670 -185 676 -254Q677 -260 677 -266Q675 -267 673 -267Q671 -267 667.5 -267.5Q664 -268 663 -268ZM986 -166Q986 -178 985 -200.5Q984 -223 984 -234Q984 -239 984 -242Q985 -259 985 -275Q985 -309 980 -346L969 -303L954 -218L958 -137Q963 -132 972 -118Q975 -117 980 -117Q986 -131 986 -166ZM397 -121Q412 -121 441.5 -119Q471 -117 485 -117Q504 -117 524 -133Q554 -157 580 -207Q606 -257 620 -308Q632 -350 632 -376Q632 -414 615 -478.5Q598 -543 571 -596Q543 -649 513 -675Q489 -695 465 -695Q405 -695 377 -672Q393 -664 404 -652Q430 -625 430 -576Q430 -551 410 -529Q387 -503 357 -503Q340 -503 327 -513Q319 -519 313 -529Q300 -552 300 -598V-600Q300 -625 305 -645Q258 -660 229 -682L41 -748Q24 -754 24 -772Q24 -782 31.5 -789.5Q39 -797 49 -797Q53 -797 57 -796L249 -728Q253 -726 256 -724Q280 -706 326 -691Q340 -709 360 -721Q400 -745 465 -745Q532 -745 587 -666Q625 -613 651 -532Q682 -440 682 -376Q682 -343 668 -294Q652 -234 622.5 -179Q593 -124 555 -94Q521 -67 485 -67Q470 -67 440.5 -69Q411 -71 397 -71Q312 -71 253 -98Q187 -128 151 -194Q136 -220 125 -255.5Q114 -291 110 -313Q106 -335 99 -378Q88 -441 77.5 -480Q67 -519 49 -546Q44 -552 44 -560Q44 -570 51.5 -577.5Q59 -585 69 -585Q82 -585 89 -574Q107 -550 119.5 -514Q132 -478 136 -456Q140 -434 148 -386Q168 -265 195 -218Q222 -169 270.5 -145Q319 -121 397 -121ZM352 -628Q350 -615 350 -600Q350 -578 352 -566Q354 -558 357 -553Q365 -554 373 -563Q380 -570 380 -576Q380 -598 373.5 -609.5Q367 -621 352 -628Z"/>
	<path fill="#800080" d="M518 -755Q485 -755 417.5 -754Q350 -753 317 -753Q226 -753 160 -758Q150 -759 143.5 -766Q137 -773 137 -783Q137 -793 144.5 -800.5Q152 -808 162 -808Q163 -808 164 -808Q228 -803 317 -803Q350 -803 417.5 -804Q485 -805 518 -805Q553 -805 582 -804Q637 -804 745 -793Q853 -782 906 -782H942L971 -788Q974 -788 976 -788Q986 -788 993.5 -780.5Q1001 -773 1001 -763Q1001 -754 995 -747Q989 -740 981 -738L949 -732Q946 -732 944 -732H906Q852 -732 744 -743Q636 -754 582 -754Q571 -754 550 -754.5Q529 -755 518 -755ZM613 -268Q612 -268 610 -267.5Q608 -267 607 -267Q597 -267 589.5 -274.5Q582 -282 582 -292Q582 -301 587.5 -307.5Q593 -314 601 -316Q607 -318 613 -318Q615 -318 616.5 -317.5Q618 -317 620 -317Q622 -317 624 -317Q630 -317 635 -316Q641 -343 651 -378L670 -481Q671 -482 671 -483L715 -635Q716 -637 717 -640L761 -724Q763 -727 766 -730Q772 -736 782 -751Q790 -763 794.5 -769Q799 -775 813 -784Q827 -793 843 -793Q861 -793 874 -774Q885 -758 894.5 -725.5Q904 -693 904 -672V-643Q912 -612 926 -565Q927 -609 946 -639Q946 -664 965 -699Q978 -722 978 -731Q978 -732 978 -732.5Q978 -733 978 -734Q978 -762 991 -784Q995 -791 1000.5 -797Q1006 -803 1009 -805.5Q1012 -808 1019 -813Q1026 -818 1027 -820Q1034 -825 1043 -825Q1053 -825 1060.5 -817.5Q1068 -810 1068 -800Q1068 -788 1059 -780Q1037 -764 1034 -758Q1028 -748 1028 -734Q1028 -733 1028 -732.5Q1028 -732 1028 -731Q1028 -708 1009 -675Q996 -651 996 -639Q996 -638 996 -635.5Q996 -633 996 -632Q996 -624 991 -617Q976 -597 976 -561Q976 -560 976 -558.5Q976 -557 976 -556Q976 -542 970.5 -516.5Q965 -491 964 -485Q962 -471 958 -455Q985 -354 985 -275Q985 -257 984 -238Q984 -237 984 -234Q984 -224 985 -201Q986 -178 986 -166Q986 -113 973 -91Q960 -67 935 -67Q914 -67 902 -72Q889 -78 879 -93Q875 -100 870 -103Q859 -110 858 -123L854 -219Q854 -219 854 -220Q854 -222 854 -224L870 -312Q871 -313 871 -314Q894 -406 899 -427Q904 -444 907 -454Q901 -476 882 -537.5Q863 -599 855 -634Q854 -637 854 -640V-672Q854 -685 846 -712Q842 -728 836 -740Q832 -736 823 -723Q811 -705 803 -697L762 -619L719 -470L700 -367Q699 -366 699 -365Q686 -319 680 -284Q697 -261 706.5 -221.5Q716 -182 716 -144Q716 -137 712 -129Q710 -125 706 -120Q693 -101 677 -86Q671 -80 667 -78Q661 -75 655 -75Q637 -75 631 -92Q620 -125 620 -168Q620 -185 626 -254Q627 -260 627 -266Q625 -267 623 -267Q621 -267 617.5 -267.5Q614 -268 613 -268ZM936 -166Q936 -178 935 -200.5Q934 -223 934 -234Q934 -239 934 -242Q935 -259 935 -275Q935 -309 930 -346L919 -303L904 -218L908 -137Q913 -132 922 -118Q925 -117 930 -117Q936 -131 936 -166ZM347 -121Q362 -121 391.5 -119Q421 -117 435 -117Q454 -117 474 -133Q504 -157 530 -207Q556 -257 570 -308Q582 -350 582 -376Q582 -414 565 -478.5Q548 -543 521 -596Q493 -649 463 -675Q439 -695 415 -695Q355 -695 327 -672Q343 -664 354 -652Q380 -625 380 -576Q380 -551 360 -529Q337 -503 307 -503Q290 -503 277 -513Q269 -519 263 -529Q250 -552 250 -598V-600Q250 -625 255 -645Q208 -660 179 -682L-9 -748Q-26 -754 -26 -772Q-26 -782 -18.5 -789.5Q-11 -797 -1 -797Q3 -797 7 -796L199 -728Q203 -726 206 -724Q230 -706 276 -691Q290 -709 310 -721Q350 -745 415 -745Q482 -745 537 -666Q575 -613 601 -532Q632 -440 632 -376Q632 -343 618 -294Q602 -234 572.5 -179Q543 -124 505 -94Q471 -67 435 -67Q420 -67 390.5 -69Q361 -71 347 -71Q262 -71 203 -98Q137 -128 101 -194Q86 -220 75 -255.5Q64 -291 60 -313Q56 -335 49 -378Q38 -441 27.5 -480Q17 -519 -1 -546Q-6 -552 -6 -560Q-6 -570 1.5 -577.5Q9 -585 19 -585Q32 -585 39 -574Q57 -550 69.5 -514Q82 -478 86 -456Q90 -434 98 -386Q118 -265 145 -218Q172 -169 220.5 -145Q269 -121 347 -121ZM302 -628Q300 -615 300 -600Q300 -578 302 -566Q304 -558 307 -553Q315 -554 323 -563Q330 -570 330 -576Q330 -598 323.5 -609.5Q317 -621 302 -628Z"/>
	<path fill="#daa520" d="M538 -775Q505 -775 437.5 -774Q370 -773 337 -773Q246 -773 182 -778Q177 -778 177 -783Q177 -788 182 -788Q247 -783 337 -783Q370 -783 437.5 -784Q505 -785 538 -785Q573 -785 602 -784Q656 -784 764.5 -773Q873 -762 926 -762H964L995 -768Q996 -768 996 -768Q1001 -768 1001 -763Q1001 -759 997 -758L965 -752Q964 -752 964 -752H926Q872 -752 764 -763Q656 -774 602 -774Q591 -774 570 -774.5Q549 -775 538 -775ZM633 -288Q632 -288 630 -287.5Q628 -287 627 -287Q622 -287 622 -292Q622 -298 633 -298Q657 -298 670 -287Q676 -324 690 -373L710 -477L754 -629Q754 -630 755 -630L799 -714Q799 -715 800 -716Q807 -723 818 -740Q826 -751 830 -756Q834 -761 843.5 -767Q853 -773 863 -773Q871 -773 878 -763Q884 -754 890 -736Q904 -697 904 -672V-641Q912 -608 930.5 -547Q949 -486 952 -475Q953 -482 954 -488.5Q955 -495 960.5 -520Q966 -545 966 -556Q966 -559 966 -561Q966 -605 986 -633Q986 -636 986 -639Q986 -658 1003 -689Q1018 -716 1018 -731Q1018 -732 1018 -732.5Q1018 -733 1018 -734Q1018 -743 1019 -750.5Q1020 -758 1023.5 -764Q1027 -770 1029 -774.5Q1031 -779 1036.5 -784Q1042 -789 1044 -791Q1046 -793 1052.5 -798Q1059 -803 1060 -804Q1061 -805 1063 -805Q1068 -805 1068 -800Q1068 -798 1066 -796Q1065 -795 1057.5 -789.5Q1050 -784 1048.5 -782Q1047 -780 1041.5 -774Q1036 -768 1034 -763.5Q1032 -759 1030 -751Q1028 -743 1028 -734Q1028 -733 1028 -732.5Q1028 -732 1028 -731Q1028 -714 1012 -685Q996 -656 996 -639Q996 -638 996 -635.5Q996 -633 996 -632Q996 -630 995 -629Q976 -603 976 -561Q976 -560 976 -558.5Q976 -557 976 -556Q976 -544 970.5 -519Q965 -494 964 -487Q962 -472 958 -454Q985 -352 985 -275Q985 -257 984 -240Q984 -237 984 -234Q984 -224 985 -201Q986 -178 986 -166Q986 -119 976 -100Q968 -87 955 -87Q938 -87 930 -91Q922 -94 915.5 -104Q909 -114 900 -120Q898 -121 898 -124L894 -220Q894 -220 894 -221L910 -309Q933 -401 939 -421Q945 -443 947 -454Q941 -478 922 -541Q903 -604 894 -639Q894 -639 894 -640V-672Q894 -695 881 -733Q875 -749 870 -757Q866 -763 863 -763Q852 -763 844.5 -756Q837 -749 827 -734Q815 -717 807 -709L764 -626L720 -475L700 -371Q685 -318 679 -279Q684 -273 689 -266Q716 -219 716 -144Q716 -140 710 -132Q698 -114 683 -100Q681 -98 680 -97Q677 -95 675 -95Q671 -95 670 -98Q660 -128 660 -168Q660 -184 666 -252Q667 -264 669 -276Q657 -287 643 -287Q641 -287 637.5 -287.5Q634 -288 633 -288ZM974 -234Q974 -238 974 -240Q975 -258 975 -275Q975 -345 953 -434Q951 -429 948 -419Q943 -399 920 -307L904 -220L908 -127Q917 -121 924 -110Q929 -102 935 -99.5Q941 -97 955 -97Q962 -97 967 -105Q976 -121 976 -166Q976 -178 975 -201Q974 -224 974 -234ZM670 -168Q670 -134 678 -109Q699 -130 705 -143L706 -144Q706 -198 689 -242Q684 -255 677 -265Q677 -258 676 -252Q670 -183 670 -168ZM367 -101Q382 -101 411 -99Q440 -97 455 -97Q511 -97 563 -188Q589 -234 605.5 -289Q622 -344 622 -376Q622 -417 604.5 -483.5Q587 -550 559 -605Q502 -715 435 -715Q343 -715 314 -664Q346 -652 363 -633.5Q380 -615 380 -576Q380 -556 362.5 -539.5Q345 -523 327 -523Q290 -523 290 -595Q290 -596 290 -597.5Q290 -599 290 -600Q290 -633 300 -658Q298 -659 289 -661.5Q280 -664 277 -665Q274 -666 266 -669Q258 -672 254 -673.5Q250 -675 243 -678.5Q236 -682 231 -684.5Q226 -687 220 -691Q214 -695 209 -700L17 -767Q14 -768 14 -772Q14 -777 19 -777Q20 -777 21 -777L213 -709Q213 -708 214 -708Q221 -702 229.5 -697.5Q238 -693 243.5 -690Q249 -687 259.5 -682.5Q270 -678 273 -677Q276 -676 289.5 -671.5Q303 -667 305 -667Q336 -725 435 -725Q508 -725 568 -610Q597 -553 614.5 -486Q632 -419 632 -376Q632 -342 615 -286.5Q598 -231 571 -183Q517 -87 455 -87Q440 -87 411 -89Q382 -91 367 -91Q301 -91 252 -109.5Q203 -128 176.5 -151.5Q150 -175 130.5 -221Q111 -267 104.5 -296.5Q98 -326 88 -381Q81 -425 76.5 -449Q72 -473 61 -504.5Q50 -536 35 -557Q34 -558 34 -560Q34 -565 39 -565Q42 -565 43 -563Q59 -541 70.5 -507.5Q82 -474 86.5 -451Q91 -428 98 -383Q98 -383 98 -382Q105 -342 109 -322Q113 -302 123 -266.5Q133 -231 144 -212Q155 -193 175.5 -168.5Q196 -144 221 -131.5Q246 -119 283.5 -110Q321 -101 367 -101ZM370 -576Q370 -612 355.5 -628Q341 -644 310 -655Q300 -632 300 -600Q300 -533 327 -533Q341 -533 355.5 -547Q370 -561 370 -576Z"/>
</svg>