<svg xmlns="http://www.w3.org/2000/svg" viewBox="0 -1024 1024 1024">
	<path fill="#000088" d="M288 -879Q284 -879 276 -879Q268 -879 263 -879Q245 -879 210 -863Q165 -843 135 -843Q97 -843 72 -888Q52 -922 46 -960Q46 -962 46 -964Q46 -974 53.5 -981.5Q61 -989 71 -989Q80 -989 87 -983Q94 -977 96 -968Q100 -938 115 -913Q126 -893 135 -893Q154 -893 190 -909Q234 -929 263 -929Q267 -929 275.5 -929Q284 -929 288 -929Q320 -929 335 -921Q360 -906 360 -860Q360 -840 347 -819Q387 -825 407 -829Q426 -832 441 -832Q455 -832 468.5 -829Q482 -826 489.5 -823Q497 -820 510.5 -814Q524 -808 530 -806H552Q562 -806 569.5 -798.5Q577 -791 577 -781Q577 -771 569.5 -763.5Q562 -756 552 -756H525Q520 -756 516 -758Q506 -761 490 -769Q461 -782 441 -782Q430 -782 415 -779Q399 -777 354 -769.5Q309 -762 291 -759Q288 -759 286 -759Q275 -759 267 -766.5Q259 -774 259 -785Q259 -792 263 -799Q266 -804 277 -814Q295 -832 302 -842Q310 -853 310 -860Q310 -877 308 -878Q302 -879 288 -879ZM172 -67Q172 -56 164.5 -49Q157 -42 147 -42Q140 -42 131 -47Q122 -55 108 -62Q90 -72 80 -72Q57 -72 43 -101Q34 -119 27 -152Q14 -213 14 -241Q14 -251 21.5 -258.5Q29 -266 39 -266Q49 -266 56 -259.5Q63 -253 64 -243Q67 -209 73 -175Q80 -137 88 -122Q107 -119 132 -106Q149 -97 163 -86Q172 -79 172 -67ZM232 -737Q218 -737 187 -735.5Q156 -734 140 -734Q70 -734 35 -761Q25 -769 25 -781Q25 -791 32.5 -798.5Q40 -806 50 -806Q58 -806 65 -801Q87 -784 140 -784Q155 -784 186 -785.5Q217 -787 232 -787Q289 -787 320 -770Q332 -762 332 -748Q332 -746 332 -744L312 -625Q309 -598 295 -551Q281 -501 280 -474Q279 -451 269 -410.5Q259 -370 258 -362Q263 -364 270 -371Q281 -384 304 -425Q334 -480 354 -500Q385 -532 423 -532Q443 -532 462 -513Q477 -498 492 -470Q507 -441 518 -408Q528 -380 528 -359Q528 -309 493 -240Q443 -141 350 -96Q280 -62 191 -62Q168 -62 149 -76Q121 -96 102 -148Q83 -201 66 -324Q59 -381 55 -391Q54 -395 54 -399Q54 -409 61.5 -416.5Q69 -424 79 -424Q97 -424 103 -407Q108 -393 116 -331Q132 -213 149 -165Q163 -128 178 -116Q184 -112 191 -112Q269 -112 329 -141Q406 -178 449 -262Q478 -321 478 -359Q478 -362 478 -366Q478 -372 472 -388Q456 -438 433 -469Q424 -482 421 -482Q405 -481 389.5 -465.5Q374 -450 348 -402.5Q322 -355 307 -338Q281 -310 251 -310Q250 -310 248.5 -310Q247 -310 245 -310Q238 -310 233 -311Q224 -312 217 -317Q206 -325 206 -339Q206 -364 219 -414Q230 -456 230 -476Q231 -508 245.5 -558Q260 -608 262 -631Q262 -631 262 -632L279 -733Q261 -737 232 -737ZM422 -482Q422 -482 423 -482Z"/>
	<path fill="#800080" d="M238 -879Q234 -879 226 -879Q218 -879 213 -879Q195 -879 160 -863Q115 -843 85 -843Q47 -843 22 -888Q2 -922 -4 -960Q-4 -962 -4 -964Q-4 -974 3.5 -981.5Q11 -989 21 -989Q30 -989 37 -983Q44 -977 46 -968Q50 -938 65 -913Q76 -893 85 -893Q104 -893 140 -909Q184 -929 213 -929Q217 -929 225.5 -929Q234 -929 238 -929Q270 -929 285 -921Q310 -906 310 -860Q310 -840 297 -819Q337 -825 357 -829Q376 -832 391 -832Q405 -832 418.5 -829Q432 -826 439.5 -823Q447 -820 460.5 -814Q474 -808 480 -806H502Q512 -806 519.5 -798.5Q527 -791 527 -781Q527 -771 519.5 -763.5Q512 -756 502 -756H475Q470 -756 466 -758Q456 -761 440 -769Q411 -782 391 -782Q380 -782 365 -779Q349 -777 304 -769.5Q259 -762 241 -759Q238 -759 236 -759Q225 -759 217 -766.5Q209 -774 209 -785Q209 -792 213 -799Q216 -804 227 -814Q245 -832 252 -842Q260 -853 260 -860Q260 -877 258 -878Q252 -879 238 -879ZM122 -67Q122 -56 114.5 -49Q107 -42 97 -42Q90 -42 81 -47Q72 -55 58 -62Q40 -72 30 -72Q7 -72 -7 -101Q-16 -119 -23 -152Q-36 -213 -36 -241Q-36 -251 -28.5 -258.5Q-21 -266 -11 -266Q-1 -266 6 -259.5Q13 -253 14 -243Q17 -209 23 -175Q30 -137 38 -122Q57 -119 82 -106Q99 -97 113 -86Q122 -79 122 -67ZM182 -737Q168 -737 137 -735.5Q106 -734 90 -734Q20 -734 -15 -761Q-25 -769 -25 -781Q-25 -791 -17.5 -798.5Q-10 -806 0 -806Q8 -806 15 -801Q37 -784 90 -784Q105 -784 136 -785.5Q167 -787 182 -787Q239 -787 270 -770Q282 -762 282 -748Q282 -746 282 -744L262 -625Q259 -598 245 -551Q231 -501 230 -474Q229 -451 219 -410.5Q209 -370 208 -362Q213 -364 220 -371Q231 -384 254 -425Q284 -480 304 -500Q335 -532 373 -532Q393 -532 412 -513Q427 -498 442 -470Q457 -441 468 -408Q478 -380 478 -359Q478 -309 443 -240Q393 -141 300 -96Q230 -62 141 -62Q118 -62 99 -76Q71 -96 52 -148Q33 -201 16 -324Q9 -381 5 -391Q4 -395 4 -399Q4 -409 11.5 -416.5Q19 -424 29 -424Q47 -424 53 -407Q58 -393 66 -331Q82 -213 99 -165Q113 -128 128 -116Q134 -112 141 -112Q219 -112 279 -141Q356 -178 399 -262Q428 -321 428 -359Q428 -362 428 -366Q428 -372 422 -388Q406 -438 383 -469Q374 -482 371 -482Q355 -481 339.5 -465.5Q324 -450 298 -402.5Q272 -355 257 -338Q231 -310 201 -310Q200 -310 198.5 -310Q197 -310 195 -310Q188 -310 183 -311Q174 -312 167 -317Q156 -325 156 -339Q156 -364 169 -414Q180 -456 180 -476Q181 -508 195.5 -558Q210 -608 212 -631Q212 -631 212 -632L229 -733Q211 -737 182 -737ZM372 -482Q372 -482 373 -482Z"/>
	<path fill="#daa520" d="M258 -899Q254 -899 245.5 -899Q237 -899 233 -899Q211 -899 172 -882Q130 -863 105 -863Q79 -863 59 -898Q41 -928 36 -963Q36 -964 36 -964Q36 -969 41 -969Q45 -969 46 -965Q51 -932 68 -903Q85 -873 105 -873Q128 -873 168.5 -891Q209 -909 233 -909Q237 -909 245.5 -909Q254 -909 258 -909Q285 -909 295 -903Q310 -894 310 -860Q310 -854 308.5 -848Q307 -842 303.5 -836Q300 -830 297.5 -825.5Q295 -821 289.5 -815Q284 -809 281.5 -806Q279 -803 273 -797Q267 -791 266 -790Q282 -793 322 -799.5Q362 -806 380 -809Q397 -812 411 -812Q428 -812 441 -808.5Q454 -805 472 -796.5Q490 -788 496 -786H522Q527 -786 527 -781Q527 -776 522 -776H495Q494 -776 493 -776Q484 -780 468 -787Q435 -802 411 -802Q398 -802 382 -799Q366 -797 321 -789.5Q276 -782 258 -779Q257 -779 256 -779Q249 -779 249 -785Q249 -788 253 -792Q255 -794 261 -800Q300 -838 300 -860Q300 -889 289 -895Q282 -899 258 -899ZM147 -92Q147 -94 145 -96Q105 -127 75 -127Q70 -127 65 -139Q58 -153 51 -183Q48 -201 44.5 -221.5Q41 -242 40 -254L39 -266Q39 -271 34 -271Q29 -271 29 -266Q29 -240 42 -181Q48 -150 56 -134Q64 -117 75 -117Q87 -117 103 -109.5Q119 -102 129 -95L139 -88Q140 -87 142 -87Q147 -87 147 -92ZM202 -757Q187 -757 156 -755.5Q125 -754 110 -754Q47 -754 17 -777Q15 -779 15 -781Q15 -786 20 -786Q22 -786 23 -785Q50 -764 110 -764Q125 -764 156 -765.5Q187 -767 202 -767Q254 -767 280 -752Q282 -751 282 -748Q282 -748 282 -747L262 -627Q260 -604 245.5 -554Q231 -504 230 -475Q230 -453 218 -407.5Q206 -362 206 -341Q209 -340 215 -340Q216 -340 218 -340Q220 -340 221 -340Q240 -340 255.5 -358.5Q271 -377 292 -416Q305 -440 312 -451Q319 -462 332.5 -479.5Q346 -497 360.5 -504.5Q375 -512 393 -512Q416 -512 444 -460Q476 -401 478 -367Q478 -363 478 -359Q478 -313 445 -249Q403 -165 329.5 -123.5Q256 -82 161 -82Q117 -82 91 -155Q72 -206 56 -327Q48 -385 44 -397Q44 -398 44 -399Q44 -404 49 -404Q53 -404 54 -401Q58 -388 66 -328Q82 -208 100 -158Q124 -92 161 -92Q355 -92 437 -253Q468 -316 468 -359Q468 -363 468 -367Q467 -378 457.5 -405Q448 -432 435 -456Q410 -502 393 -502Q378 -502 365 -495Q352 -488 340 -473Q328 -458 320.5 -445.5Q313 -433 301 -411Q289 -390 283.5 -381Q278 -372 267 -357Q256 -342 245 -336Q234 -330 221 -330Q220 -330 218.5 -330Q217 -330 215 -330Q206 -330 201 -332Q196 -334 196 -339Q196 -362 208 -408Q220 -454 220 -475Q221 -505 235.5 -555.5Q250 -606 252 -629L271 -745Q248 -757 202 -757Z"/>
</svg>