<svg xmlns="http://www.w3.org/2000/svg" viewBox="0 -1024 1024 1024">
	<path fill="#000088" d="M-255 114Q-248 118 -235 96Q-230 88 -230 93Q-230 112 -238 125Q-246 138 -258 138Q-283 138 -302 121.5Q-321 105 -321 79Q-321 64 -310 52Q-301 42 -284 35Q-279 33 -274 33Q-264 33 -256.5 40.5Q-249 48 -249 58Q-251 64 -232 85Q-273 55 -287.5 59Q-302 63 -293 101Q-294 104 -295 106H-294Q-292 105 -290 104Q-288 103 -278 105Q-268 107 -255 114Z"/>
	<path fill="#800080" d="M-305 114Q-298 118 -285 96Q-280 88 -280 93Q-280 112 -288 125Q-296 138 -308 138Q-333 138 -352 121.5Q-371 105 -371 79Q-371 64 -360 52Q-351 42 -334 35Q-329 33 -324 33Q-314 33 -306.5 40.5Q-299 48 -299 58Q-301 64 -282 85Q-323 55 -337.5 59Q-352 63 -343 101Q-344 104 -345 106H-344Q-342 105 -340 104Q-338 103 -328 105Q-318 107 -305 114Z"/>
	<path fill="#daa520" d="M-354 -30Q-352 -30 -350 -32Q-340 -45 -318 -45Q-304 -45 -294.5 -36.5Q-285 -28 -285 -16Q-285 -4 -294.5 4.5Q-304 13 -318 13Q-323 13 -323 18Q-323 23 -318 23Q-300 23 -287.5 11.5Q-275 0 -275 -16Q-275 -32 -287.5 -43.5Q-300 -55 -318 -55Q-345 -55 -358 -38Q-359 -37 -359 -35Q-359 -30 -354 -30ZM-318 13Q-313 13 -313 18Q-313 23 -318 23Q-336 23 -348.5 11.5Q-361 0 -361 -16Q-361 -30 -336 -42Q-335 -42 -334 -42Q-329 -42 -329 -37Q-329 -34 -332 -32Q-351 -24 -351 -16Q-351 -4 -341.5 4.5Q-332 13 -318 13Z"/>
</svg>