<svg xmlns="http://www.w3.org/2000/svg" viewBox="0 -1024 1024 1024">
	<path fill="#000088" d="M113 -1146Q113 -1149 112.5 -1155Q112 -1161 112 -1164Q112 -1174 119.5 -1181.5Q127 -1189 137 -1189Q147 -1189 154 -1182.5Q161 -1176 162 -1167Q163 -1157 163 -1146Q163 -1128 154 -1072Q152 -1064 152 -1057Q152 -1024 178.5 -1001Q205 -978 242 -978Q253 -978 264 -980Q294 -987 311 -987Q329 -987 341 -981Q354 -974 361 -962Q366 -952 366 -940Q366 -921 358 -902Q350 -883 343.5 -874.5Q337 -866 324 -851Q312 -838 308 -831Q303 -824 302 -819Q310 -808 320 -797Q326 -792 333 -786Q339 -787 355 -793Q371 -799 382 -801Q385 -801 457 -805Q464 -811 473 -811Q478 -811 487 -809Q509 -803 509 -783Q509 -775 505 -768Q500 -762 494 -759Q490 -758 484 -757Q472 -755 435 -754Q398 -753 388 -751Q383 -751 369 -745Q342 -735 329 -735Q322 -735 315 -738Q310 -740 304 -744Q281 -761 263 -789Q258 -795 256 -801Q252 -809 252 -816Q252 -834 262 -852Q269 -864 286 -884Q315 -917 316 -937Q314 -937 311 -937Q300 -937 274 -932Q258 -928 242 -928Q186 -928 144 -964.5Q102 -1001 102 -1057Q102 -1069 107 -1094Q113 -1130 113 -1146ZM49 -755Q39 -755 31.5 -762.5Q24 -770 24 -780Q24 -789 30 -796Q36 -803 45 -805Q52 -806 58 -806Q65 -806 71 -804Q85 -801 123 -800Q198 -797 228 -779Q255 -763 265 -730Q269 -719 269 -719Q301 -720 306.5 -720.5Q312 -721 317 -721Q368 -721 402.5 -683Q437 -645 442 -594Q443 -587 443 -580Q443 -551 430 -522.5Q417 -494 406 -479.5Q395 -465 372 -439Q359 -424 352 -416Q325 -383 269 -350Q279 -324 288 -279Q303 -209 317 -183Q331 -157 349 -157Q353 -157 357.5 -158Q362 -159 368 -161Q374 -163 377 -164L416 -179Q420 -181 425 -181Q435 -181 442.5 -173.5Q450 -166 450 -156Q450 -139 434 -133L394 -117Q392 -116 386.5 -114.5Q381 -113 379 -112Q362 -107 349 -107Q301 -107 273 -160Q255 -192 239 -269Q231 -308 224 -328Q205 -323 177 -323Q151 -323 136 -341Q120 -360 120 -396Q120 -431 142 -444Q151 -449 162 -449Q165 -449 168 -449Q213 -443 246 -394Q293 -422 314 -448Q321 -456 335 -472Q365 -507 379 -530Q393 -553 393 -580Q393 -618 370 -644.5Q347 -671 317 -671Q314 -671 311 -671Q303 -670 280 -669Q280 -664 280 -660Q280 -634 268 -617Q249 -591 209 -591Q209 -591 208 -591Q207 -591 206 -591Q180 -591 167 -596Q144 -606 144 -627Q144 -629 144 -630Q147 -666 170 -688Q188 -705 218 -713Q218 -713 217 -716Q213 -730 202 -737Q183 -748 121 -750Q78 -751 59 -756Q59 -756 58 -756Q57 -756 53.5 -755.5Q50 -755 49 -755ZM170 -396Q170 -385 172 -378L174 -373Q175 -373 177 -373Q188 -373 198 -374Q185 -392 170 -397Q170 -397 170 -396ZM209 -641Q224 -641 227 -646Q230 -650 230 -660Q230 -662 230 -664Q213 -660 204 -652Q200 -647 197 -641Q201 -641 206 -641Q207 -641 208 -641Q209 -641 209 -641Z"/>
	<path fill="#800080" d="M63 -1146Q63 -1149 62.5 -1155Q62 -1161 62 -1164Q62 -1174 69.5 -1181.5Q77 -1189 87 -1189Q97 -1189 104 -1182.5Q111 -1176 112 -1167Q113 -1157 113 -1146Q113 -1128 104 -1072Q102 -1064 102 -1057Q102 -1024 128.5 -1001Q155 -978 192 -978Q203 -978 214 -980Q244 -987 261 -987Q279 -987 291 -981Q304 -974 311 -962Q316 -952 316 -940Q316 -921 308 -902Q300 -883 293.5 -874.5Q287 -866 274 -851Q262 -838 258 -831Q253 -824 252 -819Q260 -808 270 -797Q276 -792 283 -786Q289 -787 305 -793Q321 -799 332 -801Q335 -801 407 -805Q414 -811 423 -811Q428 -811 437 -809Q459 -803 459 -783Q459 -775 455 -768Q450 -762 444 -759Q440 -758 434 -757Q422 -755 385 -754Q348 -753 338 -751Q333 -751 319 -745Q292 -735 279 -735Q272 -735 265 -738Q260 -740 254 -744Q231 -761 213 -789Q208 -795 206 -801Q202 -809 202 -816Q202 -834 212 -852Q219 -864 236 -884Q265 -917 266 -937Q264 -937 261 -937Q250 -937 224 -932Q208 -928 192 -928Q136 -928 94 -964.5Q52 -1001 52 -1057Q52 -1069 57 -1094Q63 -1130 63 -1146ZM-1 -755Q-11 -755 -18.5 -762.5Q-26 -770 -26 -780Q-26 -789 -20 -796Q-14 -803 -5 -805Q2 -806 8 -806Q15 -806 21 -804Q35 -801 73 -800Q148 -797 178 -779Q205 -763 215 -730Q219 -719 219 -719Q251 -720 256.5 -720.5Q262 -721 267 -721Q318 -721 352.5 -683Q387 -645 392 -594Q393 -587 393 -580Q393 -551 380 -522.5Q367 -494 356 -479.5Q345 -465 322 -439Q309 -424 302 -416Q275 -383 219 -350Q229 -324 238 -279Q253 -209 267 -183Q281 -157 299 -157Q303 -157 307.5 -158Q312 -159 318 -161Q324 -163 327 -164L366 -179Q370 -181 375 -181Q385 -181 392.5 -173.5Q400 -166 400 -156Q400 -139 384 -133L344 -117Q342 -116 336.5 -114.5Q331 -113 329 -112Q312 -107 299 -107Q251 -107 223 -160Q205 -192 189 -269Q181 -308 174 -328Q155 -323 127 -323Q101 -323 86 -341Q70 -360 70 -396Q70 -431 92 -444Q101 -449 112 -449Q115 -449 118 -449Q163 -443 196 -394Q243 -422 264 -448Q271 -456 285 -472Q315 -507 329 -530Q343 -553 343 -580Q343 -618 320 -644.5Q297 -671 267 -671Q264 -671 261 -671Q253 -670 230 -669Q230 -664 230 -660Q230 -634 218 -617Q199 -591 159 -591Q159 -591 158 -591Q157 -591 156 -591Q130 -591 117 -596Q94 -606 94 -627Q94 -629 94 -630Q97 -666 120 -688Q138 -705 168 -713Q168 -713 167 -716Q163 -730 152 -737Q133 -748 71 -750Q28 -751 9 -756Q9 -756 8 -756Q7 -756 3.5 -755.5Q0 -755 -1 -755ZM120 -396Q120 -385 122 -378L124 -373Q125 -373 127 -373Q138 -373 148 -374Q135 -392 120 -397Q120 -397 120 -396ZM159 -641Q174 -641 177 -646Q180 -650 180 -660Q180 -662 180 -664Q163 -660 154 -652Q150 -647 147 -641Q151 -641 156 -641Q157 -641 158 -641Q159 -641 159 -641Z"/>
	<path fill="#daa520" d="M212 -958Q224 -958 246.5 -962.5Q269 -967 281 -967Q316 -967 316 -940Q316 -925 309.5 -909.5Q303 -894 297 -886Q291 -878 279 -864Q252 -833 252 -816L253 -813Q257 -805 270 -790Q283 -775 293 -768Q296 -766 299 -765Q308 -766 327 -773Q346 -780 354 -781Q365 -782 399 -783.5Q433 -785 438 -785Q438 -786 438 -786Q438 -791 443 -791Q447 -791 454 -789Q459 -787 459 -783Q459 -780 456 -778Q455 -777 451 -776Q443 -775 406 -774Q366 -772 356 -771Q348 -770 329 -763Q310 -756 299 -755Q294 -755 286 -761Q266 -775 249 -800Q242 -810 242 -816Q242 -837 271 -871Q283 -884 289 -892Q295 -900 300.5 -913.5Q306 -927 306 -940Q306 -957 281 -957Q267 -957 240 -951Q226 -948 212 -948Q164 -948 128 -979Q92 -1010 92 -1057Q92 -1068 96 -1090Q103 -1128 103 -1146Q103 -1155 102 -1163Q102 -1163 102 -1164Q102 -1169 107 -1169Q111 -1169 112 -1165Q113 -1156 113 -1146Q113 -1129 104 -1075Q102 -1066 102 -1057Q102 -1015 134.5 -986.5Q167 -958 212 -958ZM28 -776Q26 -776 23 -775.5Q20 -775 19 -775Q14 -775 14 -780Q14 -786 28 -786Q32 -786 36 -785Q52 -781 92 -780Q113 -779 123 -778.5Q133 -778 151.5 -775Q170 -772 180 -766.5Q190 -761 200.5 -750.5Q211 -740 216 -726Q222 -707 224 -698Q233 -699 251.5 -699.5Q270 -700 279 -701Q283 -701 287 -701Q329 -701 358.5 -669Q388 -637 392 -592Q393 -586 393 -580Q393 -561 388 -544Q383 -527 372 -510Q361 -493 353 -482.5Q345 -472 328.5 -454Q312 -436 307 -429Q294 -414 276 -399.5Q258 -385 248.5 -379Q239 -373 213 -358Q228 -327 239 -275Q245 -245 250 -226Q255 -207 264.5 -183.5Q274 -160 287.5 -148.5Q301 -137 319 -137Q325 -137 330.5 -138Q336 -139 342.5 -141.5Q349 -144 354 -145L393 -161Q394 -161 395 -161Q400 -161 400 -156Q400 -153 397 -151L357 -135Q356 -135 356 -135Q352 -134 345 -132Q338 -130 332 -128.5Q326 -127 319 -127Q304 -127 292 -133Q280 -139 271 -152.5Q262 -166 256 -177Q250 -188 244 -209.5Q238 -231 236 -241Q234 -251 229 -273Q219 -324 204 -353Q184 -343 147 -343Q110 -343 110 -396Q110 -429 132 -429Q134 -429 136 -429Q179 -423 209 -367Q233 -381 243 -387.5Q253 -394 270 -407.5Q287 -421 299 -435Q306 -443 320 -459Q341 -483 351.5 -497Q362 -511 372.5 -534Q383 -557 383 -580Q383 -586 382 -592Q378 -633 351 -662Q324 -691 287 -691Q283 -691 279 -691Q270 -690 252 -689.5Q234 -689 227 -688Q230 -672 230 -660Q230 -611 179 -611Q179 -611 178 -611Q177 -611 176 -611Q134 -611 134 -627Q134 -628 134 -628Q139 -688 214 -697Q212 -705 206 -722Q201 -738 190.5 -748Q180 -758 162 -762Q144 -766 130.5 -767.5Q117 -769 92 -770Q51 -771 34 -775Q31 -776 28 -776ZM147 -353Q181 -353 200 -362Q172 -414 134 -419Q133 -419 132 -419Q120 -419 120 -396Q120 -353 147 -353ZM179 -621Q220 -621 220 -660Q220 -671 217 -687Q184 -684 165 -671Q146 -658 144 -628V-627Q144 -625 152 -623Q160 -621 176 -621Q177 -621 178 -621Q179 -621 179 -621Z"/>
</svg>