<svg xmlns="http://www.w3.org/2000/svg" viewBox="0 -1024 1024 1024">
	<path fill="#000088" d="M125 -343Q125 -336 126.5 -321Q128 -306 128 -298Q128 -293 132 -281Q149 -235 183 -192Q193 -179 201 -172Q206 -179 212 -190Q223 -212 228 -232V-238Q228 -248 235.5 -255.5Q243 -263 253 -263Q263 -263 270.5 -255.5Q278 -248 278 -238V-232Q278 -228 277 -221Q275 -215 273 -207Q257 -157 235 -135Q220 -120 202 -120Q192 -120 182 -126Q173 -130 164 -139Q147 -155 128 -183Q105 -217 91 -250Q78 -280 78 -298Q78 -305 76.5 -320Q75 -335 75 -343Q75 -372 89 -405Q101 -433 119 -451Q146 -479 178 -479Q269 -479 331 -429Q410 -366 410 -253Q410 -220 393 -171Q443 -202 470 -229Q510 -269 510 -310Q510 -341 503 -367.5Q496 -394 486 -413.5Q476 -433 456.5 -452Q437 -471 421 -483.5Q405 -496 375.5 -511Q346 -526 327.5 -534.5Q309 -543 274 -558Q231 -577 209.5 -586.5Q188 -596 155 -615Q122 -634 99 -654Q90 -662 90 -673Q90 -675 90 -677L108 -785Q110 -794 117 -800Q124 -806 133 -806Q143 -806 150.5 -798.5Q158 -791 158 -781Q158 -779 158 -777L142 -683Q184 -651 293 -604Q322 -592 335.5 -586Q349 -580 376 -567Q403 -554 417.5 -544.5Q432 -535 454.5 -519.5Q477 -504 489.5 -490Q502 -476 517.5 -455.5Q533 -435 541 -414Q549 -393 554.5 -366.5Q560 -340 560 -310Q560 -248 505 -193Q468 -156 378 -104Q364 -96 357 -92Q347 -74 337 -61Q330 -52 324 -47Q313 -39 302 -39Q288 -39 280.5 -49Q273 -59 273 -73Q273 -85 281 -96Q287 -104 298 -113Q307 -120 320 -128Q324 -136 328 -145Q360 -213 360 -253Q360 -342 299 -390Q251 -429 178 -429Q163 -429 147 -406Q125 -374 125 -343Z"/>
	<path fill="#800080" d="M75 -343Q75 -336 76.5 -321Q78 -306 78 -298Q78 -293 82 -281Q99 -235 133 -192Q143 -179 151 -172Q156 -179 162 -190Q173 -212 178 -232V-238Q178 -248 185.5 -255.5Q193 -263 203 -263Q213 -263 220.5 -255.5Q228 -248 228 -238V-232Q228 -228 227 -221Q225 -215 223 -207Q207 -157 185 -135Q170 -120 152 -120Q142 -120 132 -126Q123 -130 114 -139Q97 -155 78 -183Q55 -217 41 -250Q28 -280 28 -298Q28 -305 26.5 -320Q25 -335 25 -343Q25 -372 39 -405Q51 -433 69 -451Q96 -479 128 -479Q219 -479 281 -429Q360 -366 360 -253Q360 -220 343 -171Q393 -202 420 -229Q460 -269 460 -310Q460 -341 453 -367.5Q446 -394 436 -413.5Q426 -433 406.5 -452Q387 -471 371 -483.5Q355 -496 325.5 -511Q296 -526 277.5 -534.5Q259 -543 224 -558Q181 -577 159.5 -586.5Q138 -596 105 -615Q72 -634 49 -654Q40 -662 40 -673Q40 -675 40 -677L58 -785Q60 -794 67 -800Q74 -806 83 -806Q93 -806 100.5 -798.5Q108 -791 108 -781Q108 -779 108 -777L92 -683Q134 -651 243 -604Q272 -592 285.5 -586Q299 -580 326 -567Q353 -554 367.5 -544.5Q382 -535 404.5 -519.5Q427 -504 439.5 -490Q452 -476 467.5 -455.5Q483 -435 491 -414Q499 -393 504.5 -366.5Q510 -340 510 -310Q510 -248 455 -193Q418 -156 328 -104Q314 -96 307 -92Q297 -74 287 -61Q280 -52 274 -47Q263 -39 252 -39Q238 -39 230.5 -49Q223 -59 223 -73Q223 -85 231 -96Q237 -104 248 -113Q257 -120 270 -128Q274 -136 278 -145Q310 -213 310 -253Q310 -342 249 -390Q201 -429 128 -429Q113 -429 97 -406Q75 -374 75 -343Z"/>
	<path fill="#daa520" d="M75 -343Q75 -335 76.5 -320.5Q78 -306 78 -298Q78 -285 91.5 -256Q105 -227 123 -200Q140 -174 154 -161Q166 -150 172 -150Q184 -150 200 -180Q207 -195 212.5 -211.5Q218 -228 218 -232V-238Q218 -243 223 -243Q228 -243 228 -238V-232Q228 -214 209 -176Q190 -140 172 -140Q162 -140 147 -154Q124 -176 96 -225Q68 -274 68 -298Q68 -305 66.5 -320Q65 -335 65 -343Q65 -365 75.5 -392Q86 -419 104 -437Q124 -459 148 -459Q242 -459 301 -402Q360 -345 360 -253Q360 -202 321 -123Q324 -125 331 -129Q361 -146 377.5 -156Q394 -166 421 -186Q448 -206 462.5 -222.5Q477 -239 488.5 -262.5Q500 -286 500 -310Q500 -343 492 -372.5Q484 -402 473.5 -423.5Q463 -445 441 -465.5Q419 -486 402.5 -499Q386 -512 355 -528.5Q324 -545 305.5 -553Q287 -561 252 -576Q210 -594 188 -604Q166 -614 134.5 -632.5Q103 -651 82 -669Q80 -671 80 -673Q80 -673 80 -674L98 -782Q99 -786 103 -786Q108 -786 108 -781Q108 -781 108 -780L90 -675Q111 -657 141.5 -640Q172 -623 193.5 -613Q215 -603 256 -586Q291 -570 309.5 -562Q328 -554 360 -537Q392 -520 409 -507Q426 -494 448.5 -472Q471 -450 482 -428Q493 -406 501.5 -375.5Q510 -345 510 -310Q510 -284 497.5 -259Q485 -234 470.5 -216.5Q456 -199 427.5 -178.5Q399 -158 383.5 -148.5Q368 -139 338 -121Q320 -111 312 -106Q301 -86 291 -73Q280 -59 272 -59Q263 -59 263 -73Q263 -84 281 -97Q289 -104 305 -114Q323 -147 336.5 -186.5Q350 -226 350 -253Q350 -341 294.5 -395Q239 -449 148 -449Q129 -449 111 -430Q95 -414 85 -388.5Q75 -363 75 -343ZM273 -73Q273 -71 273 -69Q282 -75 294 -95Q290 -92 287 -90Q273 -79 273 -73Z"/>
</svg>