<svg xmlns="http://www.w3.org/2000/svg" viewBox="0 -1024 1024 1024">
	<path fill="#000088" d="M679 -797Q689 -797 696.5 -789.5Q704 -782 704 -772Q704 -762 697.5 -755Q691 -748 681 -747L635 -743Q634 -743 633 -743Q633 -743 632 -743L454 -747Q453 -747 452 -747L339 -759L81 -763Q70 -763 63 -770.5Q56 -778 56 -788Q56 -798 63.5 -805.5Q71 -813 81 -813L341 -809Q343 -809 344 -809L457 -797L632 -793L677 -797Q678 -797 679 -797ZM292 -566Q292 -576 299.5 -583.5Q307 -591 317 -591H323Q331 -591 338 -586Q342 -583 356 -573Q370 -563 376 -558Q382 -553 392.5 -544.5Q403 -536 411.5 -527.5Q420 -519 428 -510Q434 -503 434 -494Q434 -484 426.5 -476.5Q419 -469 409 -469Q398 -469 390 -478Q372 -499 315 -541Q305 -542 298.5 -549Q292 -556 292 -566ZM401 -219Q438 -167 438 -114Q438 -100 433 -90Q425 -73 407 -73Q388 -73 383 -91Q380 -102 371.5 -123.5Q363 -145 357.5 -164Q352 -183 351 -202Q320 -240 267 -277Q229 -304 184.5 -327.5Q140 -351 114 -362L88 -373Q72 -379 72 -396Q72 -408 81 -416Q111 -439 187 -465Q247 -485 269 -499.5Q291 -514 299 -532Q292 -563 263 -591Q236 -617 162 -661Q127 -683 111 -693Q95 -703 69.5 -724.5Q44 -746 29 -768Q24 -774 24 -782Q24 -792 31.5 -799.5Q39 -807 49 -807Q62 -807 69 -796Q85 -774 113.5 -753Q142 -732 188 -704Q267 -657 298 -627Q341 -584 350 -534Q350 -532 350 -530Q350 -526 349 -522Q342 -500 327.5 -483Q313 -466 289.5 -453.5Q266 -441 249.5 -434.5Q233 -428 203 -418Q171 -406 153 -399Q233 -362 296 -318Q328 -296 353 -273Q356 -433 368 -507Q385 -610 425 -675Q481 -766 585 -788Q592 -791 598.5 -792.5Q605 -794 613 -794.5Q621 -795 626 -796Q628 -797 631 -797Q641 -797 648.5 -789.5Q656 -782 656 -772Q656 -763 650.5 -756Q645 -749 636 -748Q633 -747 625.5 -746Q618 -745 612.5 -744Q607 -743 605 -742Q602 -740 598 -739Q513 -722 467 -649Q432 -592 417 -499Q412 -467 409 -430Q406 -393 405 -367.5Q404 -342 403.5 -297Q403 -252 402 -231Q402 -229 401.5 -225Q401 -221 401 -219Z"/>
	<path fill="#800080" d="M629 -797Q639 -797 646.5 -789.5Q654 -782 654 -772Q654 -762 647.5 -755Q641 -748 631 -747L585 -743Q584 -743 583 -743Q583 -743 582 -743L404 -747Q403 -747 402 -747L289 -759L31 -763Q20 -763 13 -770.5Q6 -778 6 -788Q6 -798 13.5 -805.5Q21 -813 31 -813L291 -809Q293 -809 294 -809L407 -797L582 -793L627 -797Q628 -797 629 -797ZM242 -566Q242 -576 249.5 -583.5Q257 -591 267 -591H273Q281 -591 288 -586Q292 -583 306 -573Q320 -563 326 -558Q332 -553 342.5 -544.5Q353 -536 361.5 -527.5Q370 -519 378 -510Q384 -503 384 -494Q384 -484 376.5 -476.5Q369 -469 359 -469Q348 -469 340 -478Q322 -499 265 -541Q255 -542 248.5 -549Q242 -556 242 -566ZM351 -219Q388 -167 388 -114Q388 -100 383 -90Q375 -73 357 -73Q338 -73 333 -91Q330 -102 321.5 -123.5Q313 -145 307.5 -164Q302 -183 301 -202Q270 -240 217 -277Q179 -304 134.5 -327.5Q90 -351 64 -362L38 -373Q22 -379 22 -396Q22 -408 31 -416Q61 -439 137 -465Q197 -485 219 -499.5Q241 -514 249 -532Q242 -563 213 -591Q186 -617 112 -661Q77 -683 61 -693Q45 -703 19.5 -724.5Q-6 -746 -21 -768Q-26 -774 -26 -782Q-26 -792 -18.5 -799.5Q-11 -807 -1 -807Q12 -807 19 -796Q35 -774 63.5 -753Q92 -732 138 -704Q217 -657 248 -627Q291 -584 300 -534Q300 -532 300 -530Q300 -526 299 -522Q292 -500 277.5 -483Q263 -466 239.5 -453.5Q216 -441 199.5 -434.5Q183 -428 153 -418Q121 -406 103 -399Q183 -362 246 -318Q278 -296 303 -273Q306 -433 318 -507Q335 -610 375 -675Q431 -766 535 -788Q542 -791 548.5 -792.5Q555 -794 563 -794.5Q571 -795 576 -796Q578 -797 581 -797Q591 -797 598.5 -789.5Q606 -782 606 -772Q606 -763 600.5 -756Q595 -749 586 -748Q583 -747 575.5 -746Q568 -745 562.5 -744Q557 -743 555 -742Q552 -740 548 -739Q463 -722 417 -649Q382 -592 367 -499Q362 -467 359 -430Q356 -393 355 -367.5Q354 -342 353.5 -297Q353 -252 352 -231Q352 -229 351.5 -225Q351 -221 351 -219Z"/>
	<path fill="#daa520" d="M649 -777Q654 -777 654 -772Q654 -767 649 -767L603 -763Q603 -763 425 -767Q425 -767 424 -767L311 -779L51 -783Q46 -783 46 -788Q46 -793 51 -793L311 -789H312L425 -777L603 -773ZM287 -561Q282 -561 282 -566Q282 -571 287 -571H293Q295 -571 296 -570Q300 -567 314 -557Q328 -547 333.5 -542.5Q339 -538 349.5 -529.5Q360 -521 368 -513.5Q376 -506 383 -497Q384 -496 384 -494Q384 -489 379 -489Q377 -489 375 -491Q370 -497 363 -504Q356 -511 350 -516Q344 -521 335 -528Q326 -535 321.5 -538.5Q317 -542 306 -550Q295 -558 291 -561ZM388 -114Q388 -93 377 -93Q373 -93 372 -97Q369 -108 360.5 -130.5Q352 -153 346.5 -172Q341 -191 341 -209Q308 -252 248 -294Q210 -321 164 -345Q118 -369 92 -380L65 -391Q62 -393 62 -396Q62 -398 64 -400Q90 -421 164 -446Q191 -455 206 -461Q221 -467 241 -477.5Q261 -488 272.5 -501Q284 -514 290 -530Q286 -554 273 -574.5Q260 -595 236 -614.5Q212 -634 194 -646Q176 -658 143 -679Q109 -699 92 -710Q75 -721 51.5 -740.5Q28 -760 15 -779Q14 -780 14 -782Q14 -787 19 -787Q22 -787 23 -785Q36 -767 58 -748Q80 -729 98 -718Q116 -707 148 -687Q176 -670 189.5 -661.5Q203 -653 226.5 -636Q250 -619 262 -605Q274 -591 285 -571.5Q296 -552 300 -531Q300 -530 300 -530Q300 -529 300 -528Q294 -509 281 -494.5Q268 -480 246.5 -469Q225 -458 210.5 -452Q196 -446 167 -436Q102 -414 77 -397Q176 -357 254 -302Q309 -264 341 -225Q341 -229 342 -232Q343 -249 343 -286Q343 -287 343 -288Q344 -341 345 -370.5Q346 -400 351 -454Q356 -508 364 -541Q372 -574 388 -617.5Q404 -661 426.5 -687.5Q449 -714 483.5 -737Q518 -760 561 -769Q567 -771 573 -772.5Q579 -774 587 -775Q595 -776 600 -777Q600 -777 601 -777Q606 -777 606 -772Q606 -768 602 -767Q598 -766 590 -765Q582 -764 575.5 -763Q569 -762 565 -760Q565 -759 564 -759Q531 -752 503.5 -737.5Q476 -723 456 -705Q436 -687 420 -658.5Q404 -630 394 -606Q384 -582 376 -544.5Q368 -507 364.5 -481Q361 -455 358 -413.5Q355 -372 354.5 -349Q354 -326 353 -286Q353 -249 352 -232Q352 -232 352 -231Q351 -223 351 -214Q351 -214 351 -213Q388 -163 388 -114ZM378 -114Q378 -153 352 -193Q354 -180 358 -167Q362 -154 369 -136Q376 -118 378 -112Q378 -113 378 -114Z"/>
</svg>