<svg xmlns="http://www.w3.org/2000/svg" viewBox="0 -1024 1024 1024">
	<path fill="#000088" d="M250 -636Q244 -636 238 -639Q236 -639 231 -639Q189 -639 155 -606Q129 -580 128 -552Q128 -551 127.5 -547.5Q127 -544 127 -543Q127 -520 152 -505Q156 -503 159 -499Q173 -481 196.5 -463Q220 -445 237 -435Q254 -425 289 -406Q315 -421 332 -435Q381 -473 381 -523Q381 -564 366 -587Q354 -604 313 -627Q286 -642 273 -651Q266 -636 250 -636ZM339 -378Q400 -340 428 -293Q430 -289 435 -283Q451 -261 452 -243Q454 -230 454 -217Q454 -156 415 -109Q376 -62 317 -49Q298 -43 278 -43Q234 -43 176 -72Q123 -98 103 -121Q75 -152 75 -199Q75 -258 120 -303Q152 -335 236 -378Q156 -421 122 -465Q77 -495 77 -543Q77 -549 78 -555Q80 -603 120 -642Q144 -665 175 -678H168Q158 -678 151 -685.5Q144 -693 144 -703Q144 -713 151.5 -720.5Q159 -728 169 -728Q169 -728 170 -728L257 -725Q268 -725 275 -716Q293 -695 337 -671Q354 -661 362.5 -656Q371 -651 384.5 -639.5Q398 -628 407 -615Q431 -580 431 -523Q431 -439 339 -378ZM402 -241Q402 -243 395 -252Q388 -261 384 -267Q360 -309 289 -349Q283 -346 259.5 -334Q236 -322 225.5 -316Q215 -310 199 -300Q183 -290 172 -282Q125 -245 125 -199Q125 -171 140 -154Q154 -138 198 -116Q246 -93 278 -93Q291 -93 302 -97Q303 -97 305 -97Q348 -107 376 -140.5Q404 -174 404 -217Q404 -227 402 -237Q402 -239 402 -241Z"/>
	<path fill="#800080" d="M200 -636Q194 -636 188 -639Q186 -639 181 -639Q139 -639 105 -606Q79 -580 78 -552Q78 -551 77.5 -547.5Q77 -544 77 -543Q77 -520 102 -505Q106 -503 109 -499Q123 -481 146.5 -463Q170 -445 187 -435Q204 -425 239 -406Q265 -421 282 -435Q331 -473 331 -523Q331 -564 316 -587Q304 -604 263 -627Q236 -642 223 -651Q216 -636 200 -636ZM289 -378Q350 -340 378 -293Q380 -289 385 -283Q401 -261 402 -243Q404 -230 404 -217Q404 -156 365 -109Q326 -62 267 -49Q248 -43 228 -43Q184 -43 126 -72Q73 -98 53 -121Q25 -152 25 -199Q25 -258 70 -303Q102 -335 186 -378Q106 -421 72 -465Q27 -495 27 -543Q27 -549 28 -555Q30 -603 70 -642Q94 -665 125 -678H118Q108 -678 101 -685.5Q94 -693 94 -703Q94 -713 101.5 -720.5Q109 -728 119 -728Q119 -728 120 -728L207 -725Q218 -725 225 -716Q243 -695 287 -671Q304 -661 312.5 -656Q321 -651 334.5 -639.5Q348 -628 357 -615Q381 -580 381 -523Q381 -439 289 -378ZM352 -241Q352 -243 345 -252Q338 -261 334 -267Q310 -309 239 -349Q233 -346 209.5 -334Q186 -322 175.5 -316Q165 -310 149 -300Q133 -290 122 -282Q75 -245 75 -199Q75 -171 90 -154Q104 -138 148 -116Q196 -93 228 -93Q241 -93 252 -97Q253 -97 255 -97Q298 -107 326 -140.5Q354 -174 354 -217Q354 -227 352 -237Q352 -239 352 -241Z"/>
	<path fill="#daa520" d="M216 -669Q225 -669 225 -661Q225 -656 220 -656Q217 -656 216 -659Q215 -659 214 -659Q212 -659 207.5 -659Q203 -659 201 -659Q157 -659 118 -626.5Q79 -594 78 -553Q78 -551 77.5 -547.5Q77 -544 77 -543Q77 -509 112 -488Q112 -488 113 -487Q120 -477 128.5 -468.5Q137 -460 148.5 -451Q160 -442 167.5 -436Q175 -430 190.5 -421.5Q206 -413 212 -409.5Q218 -406 236.5 -396Q255 -386 259 -384Q313 -413 342 -445Q371 -477 371 -523Q371 -551 365.5 -571Q360 -591 347 -605Q334 -619 324 -625.5Q314 -632 293 -644Q245 -671 224 -695L139 -698Q134 -698 134 -703Q134 -708 139 -708L226 -705Q228 -705 230 -703Q250 -679 297 -653Q319 -641 329.5 -633.5Q340 -626 354.5 -611Q369 -596 375 -574.5Q381 -553 381 -523Q381 -474 351.5 -441Q322 -408 270 -378Q351 -333 380 -283Q383 -278 389 -270Q402 -254 402 -241Q404 -229 404 -217Q404 -163 369 -121.5Q334 -80 281 -68Q266 -63 248 -63Q209 -63 155 -90Q133 -100 121 -107Q109 -114 94 -127.5Q79 -141 72 -158.5Q65 -176 65 -199Q65 -223 74.5 -245Q84 -267 96 -281Q108 -295 133 -312Q158 -329 173 -337.5Q188 -346 219 -362Q238 -372 249 -378Q245 -380 231.5 -387Q218 -394 213.5 -396.5Q209 -399 197 -406Q185 -413 179 -417Q173 -421 163 -427.5Q153 -434 147 -439Q141 -444 132.5 -451Q124 -458 117.5 -465Q111 -472 106 -480Q67 -504 67 -543Q67 -548 68 -553Q70 -599 111.5 -634Q153 -669 201 -669Q210 -669 213 -669Q213 -669 214 -669Q214 -669 215 -669Q216 -669 216 -669ZM392 -241Q392 -250 381 -264Q375 -272 372 -277Q355 -307 327.5 -328.5Q300 -350 259 -372Q248 -366 223 -353Q193 -338 177.5 -329Q162 -320 139 -304Q116 -288 104.5 -274.5Q93 -261 84 -241Q75 -221 75 -199Q75 -178 81 -162.5Q87 -147 101 -135Q115 -123 126 -116Q137 -109 159 -98Q211 -73 248 -73Q264 -73 278 -78Q279 -78 279 -78Q329 -89 361.5 -128Q394 -167 394 -217Q394 -229 392 -240Q392 -241 392 -241Z"/>
</svg>