<svg xmlns="http://www.w3.org/2000/svg" viewBox="0 -1024 1024 1024">
	<path fill="#000088" d="M24 -784Q24 -794 31.5 -801.5Q39 -809 49 -809Q55 -809 60 -806Q84 -795 156 -780Q197 -771 220 -765Q243 -759 273.5 -745.5Q304 -732 322 -714Q350 -725 375 -725Q413 -725 451 -706.5Q489 -688 514 -656Q542 -621 542 -580Q542 -483 479 -414.5Q416 -346 322 -328Q327 -309 337.5 -267Q348 -225 357.5 -193Q367 -161 377 -143Q391 -117 409 -117Q409 -117 432 -123L446 -130Q451 -133 457 -133Q467 -133 474.5 -125.5Q482 -118 482 -108Q482 -93 468 -86L452 -78Q450 -77 448 -76Q446 -75 443 -74.5Q440 -74 438 -73Q420 -67 409 -67Q362 -67 333 -119Q315 -152 292 -245Q279 -296 271 -323Q269 -323 267 -323Q223 -323 185 -332Q153 -341 138 -356Q126 -369 126 -386Q126 -400 130.5 -418.5Q135 -437 143 -450Q158 -475 183 -475Q233 -475 268 -436Q289 -413 305 -376Q385 -388 438.5 -444Q492 -500 492 -580Q492 -604 475 -626Q458 -647 429.5 -661Q401 -675 375 -675Q365 -675 351 -671Q358 -654 360 -635Q360 -633 360 -632Q360 -622 355 -606Q341 -565 322 -545Q309 -531 293 -531Q286 -531 268 -535Q224 -546 198 -556Q185 -561 179.5 -568Q174 -575 174 -584Q174 -602 190 -608Q204 -612 223 -638Q238 -657 248 -666Q260 -678 275 -688Q242 -711 155.5 -729Q69 -747 38 -762Q24 -768 24 -784ZM251 -374Q247 -380 244 -385Q221 -423 187 -425Q184 -420 182 -415Q178 -403 176 -389Q195 -377 251 -374ZM250 -592Q273 -585 288 -582Q292 -588 296 -595Q306 -614 310 -632Q309 -641 306 -649Q292 -640 282 -630Q276 -624 265 -609.5Q254 -595 250 -592Z"/>
	<path fill="#800080" d="M-26 -784Q-26 -794 -18.5 -801.5Q-11 -809 -1 -809Q5 -809 10 -806Q34 -795 106 -780Q147 -771 170 -765Q193 -759 223.5 -745.5Q254 -732 272 -714Q300 -725 325 -725Q363 -725 401 -706.5Q439 -688 464 -656Q492 -621 492 -580Q492 -483 429 -414.5Q366 -346 272 -328Q277 -309 287.5 -267Q298 -225 307.5 -193Q317 -161 327 -143Q341 -117 359 -117Q359 -117 382 -123L396 -130Q401 -133 407 -133Q417 -133 424.5 -125.5Q432 -118 432 -108Q432 -93 418 -86L402 -78Q400 -77 398 -76Q396 -75 393 -74.5Q390 -74 388 -73Q370 -67 359 -67Q312 -67 283 -119Q265 -152 242 -245Q229 -296 221 -323Q219 -323 217 -323Q173 -323 135 -332Q103 -341 88 -356Q76 -369 76 -386Q76 -400 80.5 -418.5Q85 -437 93 -450Q108 -475 133 -475Q183 -475 218 -436Q239 -413 255 -376Q335 -388 388.5 -444Q442 -500 442 -580Q442 -604 425 -626Q408 -647 379.5 -661Q351 -675 325 -675Q315 -675 301 -671Q308 -654 310 -635Q310 -633 310 -632Q310 -622 305 -606Q291 -565 272 -545Q259 -531 243 -531Q236 -531 218 -535Q174 -546 148 -556Q135 -561 129.5 -568Q124 -575 124 -584Q124 -602 140 -608Q154 -612 173 -638Q188 -657 198 -666Q210 -678 225 -688Q192 -711 105.5 -729Q19 -747 -12 -762Q-26 -768 -26 -784ZM201 -374Q197 -380 194 -385Q171 -423 137 -425Q134 -420 132 -415Q128 -403 126 -389Q145 -377 201 -374ZM200 -592Q223 -585 238 -582Q242 -588 246 -595Q256 -614 260 -632Q259 -641 256 -649Q242 -640 232 -630Q226 -624 215 -609.5Q204 -595 200 -592Z"/>
	<path fill="#daa520" d="M116 -386Q116 -406 125.5 -430.5Q135 -455 153 -455Q225 -455 262 -354Q354 -363 418 -425.5Q482 -488 482 -580Q482 -626 438 -660.5Q394 -695 345 -695Q322 -695 293 -681Q307 -660 310 -633V-632Q310 -620 299 -594.5Q288 -569 277 -559Q270 -551 263 -551Q254 -551 222.5 -560Q191 -569 176 -575Q171 -576 168 -578Q164 -581 164 -584.5Q164 -588 167 -589Q186 -596 209 -625Q223 -643 232 -652Q252 -671 278 -685Q263 -703 234.5 -716.5Q206 -730 183.5 -736Q161 -742 120 -750Q45 -766 17 -780Q14 -781 14 -784Q14 -789 19 -789Q20 -789 21 -788Q48 -775 122 -760Q164 -751 186.5 -745.5Q209 -740 240 -725Q271 -710 287 -690Q319 -705 345 -705Q397 -705 444.5 -668Q492 -631 492 -580Q492 -485 426.5 -419.5Q361 -354 266 -344Q275 -316 291 -252Q299 -221 303.5 -203Q308 -185 316.5 -162Q325 -139 333 -127Q341 -115 353 -106Q365 -97 379 -97Q380 -97 409 -105L425 -112Q426 -113 427 -113Q432 -113 432 -108Q432 -105 429 -104L413 -96Q413 -95 412 -95Q409 -94 402.5 -92Q396 -90 390 -88.5Q384 -87 379 -87Q365 -87 353 -92.5Q341 -98 331.5 -112Q322 -126 315.5 -137Q309 -148 301.5 -172.5Q294 -197 291 -208.5Q288 -220 281 -250Q266 -314 255 -344Q246 -343 237 -343Q198 -343 157 -352.5Q116 -362 116 -386ZM237 -353Q244 -353 251 -353Q216 -445 153 -445Q143 -445 135 -426Q126 -406 126 -386Q126 -371 163 -362Q197 -353 237 -353ZM263 -561Q266 -561 270 -566Q276 -572 283 -585Q300 -616 300 -632Q297 -657 284 -677Q258 -663 238 -644Q233 -639 214.5 -615.5Q196 -592 180 -584Q195 -578 226 -569.5Q257 -561 263 -561Z"/>
</svg>