<svg xmlns="http://www.w3.org/2000/svg" viewBox="0 -1024 1024 1024">
	<path fill="#000088" d="M251 -539Q253 -539 256.5 -538.5Q260 -538 262 -538Q278 -538 289 -549Q297 -557 304 -571.5Q311 -586 314.5 -597Q318 -608 323.5 -629Q329 -650 331 -657Q335 -671 335 -682Q335 -704 319 -719Q304 -732 278 -740Q248 -749 211 -749Q169 -740 150 -706Q136 -681 130 -638Q130 -638 129 -637Q125 -617 125 -599Q125 -573 134 -549Q143 -525 162.5 -501Q182 -477 199.5 -460Q217 -443 248 -416Q276 -392 288 -381.5Q300 -371 323 -346.5Q346 -322 357 -303.5Q368 -285 377 -257.5Q386 -230 386 -202Q386 -181 383 -168Q363 -80 301 -69Q276 -65 267 -65Q256 -65 247 -67.5Q238 -70 229 -74.5Q220 -79 215 -80Q211 -82 208 -84L182 -104Q172 -112 172 -124Q172 -134 179.5 -141.5Q187 -149 197 -149Q205 -149 212 -144L235 -126Q238 -125 245 -122Q252 -119 257 -117Q262 -115 266.5 -115Q271 -115 293 -119Q321 -124 334 -179Q336 -191 336 -202Q336 -227 327.5 -250Q319 -273 300 -296Q281 -319 263.5 -335.5Q246 -352 216 -379Q188 -403 175.5 -414Q163 -425 139.5 -450Q116 -475 105 -494.5Q94 -514 84.5 -542Q75 -570 75 -599Q75 -622 80 -646Q88 -698 106 -731Q138 -786 204 -799Q207 -799 209 -799Q262 -799 305.5 -783.5Q349 -768 370 -736Q385 -712 385 -682Q385 -663 379 -643Q376 -635 371.5 -617.5Q367 -600 363 -586.5Q359 -573 354 -560Q341 -531 324 -514Q298 -488 262 -488Q256 -488 249 -489H241Q231 -489 223.5 -496.5Q216 -504 216 -514Q216 -524 223.5 -531.5Q231 -539 241 -539Z"/>
	<path fill="#800080" d="M201 -539Q203 -539 206.5 -538.5Q210 -538 212 -538Q228 -538 239 -549Q247 -557 254 -571.5Q261 -586 264.5 -597Q268 -608 273.5 -629Q279 -650 281 -657Q285 -671 285 -682Q285 -704 269 -719Q254 -732 228 -740Q198 -749 161 -749Q119 -740 100 -706Q86 -681 80 -638Q80 -638 79 -637Q75 -617 75 -599Q75 -573 84 -549Q93 -525 112.5 -501Q132 -477 149.5 -460Q167 -443 198 -416Q226 -392 238 -381.5Q250 -371 273 -346.5Q296 -322 307 -303.5Q318 -285 327 -257.5Q336 -230 336 -202Q336 -181 333 -168Q313 -80 251 -69Q226 -65 217 -65Q206 -65 197 -67.5Q188 -70 179 -74.5Q170 -79 165 -80Q161 -82 158 -84L132 -104Q122 -112 122 -124Q122 -134 129.5 -141.5Q137 -149 147 -149Q155 -149 162 -144L185 -126Q188 -125 195 -122Q202 -119 207 -117Q212 -115 216.5 -115Q221 -115 243 -119Q271 -124 284 -179Q286 -191 286 -202Q286 -227 277.5 -250Q269 -273 250 -296Q231 -319 213.5 -335.5Q196 -352 166 -379Q138 -403 125.5 -414Q113 -425 89.5 -450Q66 -475 55 -494.5Q44 -514 34.5 -542Q25 -570 25 -599Q25 -622 30 -646Q38 -698 56 -731Q88 -786 154 -799Q157 -799 159 -799Q212 -799 255.5 -783.5Q299 -768 320 -736Q335 -712 335 -682Q335 -663 329 -643Q326 -635 321.5 -617.5Q317 -600 313 -586.5Q309 -573 304 -560Q291 -531 274 -514Q248 -488 212 -488Q206 -488 199 -489H191Q181 -489 173.5 -496.5Q166 -504 166 -514Q166 -524 173.5 -531.5Q181 -539 191 -539Z"/>
	<path fill="#daa520" d="M221 -519Q223 -519 226.5 -518.5Q230 -518 232 -518Q244 -518 254.5 -522Q265 -526 273 -535Q281 -544 286.5 -552.5Q292 -561 297.5 -576Q303 -591 306 -600Q309 -609 313.5 -626.5Q318 -644 320 -651Q325 -668 325 -682Q325 -713 302 -733.5Q279 -754 247.5 -761.5Q216 -769 179 -769Q131 -760 109 -727Q87 -694 80 -641Q75 -619 75 -599Q75 -569 86 -540.5Q97 -512 115.5 -489.5Q134 -467 157.5 -444Q181 -421 205.5 -401.5Q230 -382 253.5 -358.5Q277 -335 295.5 -313Q314 -291 325 -262Q336 -233 336 -202Q336 -188 334 -173Q316 -97 268 -89Q244 -85 237 -85Q228 -85 220.5 -87.5Q213 -90 204.5 -94Q196 -98 191 -99Q191 -100 190 -100L164 -120Q162 -122 162 -124Q162 -129 167 -129Q169 -129 170 -128L195 -108Q200 -107 207.5 -103Q215 -99 222 -97Q229 -95 237 -95Q243 -95 266 -99Q308 -106 324 -175Q326 -189 326 -202Q326 -231 316.5 -257Q307 -283 285.5 -308.5Q264 -334 247.5 -350Q231 -366 199 -394Q172 -417 159 -429Q146 -441 124.5 -464Q103 -487 92.5 -505Q82 -523 73.5 -548Q65 -573 65 -599Q65 -620 70 -643Q78 -698 102 -733.5Q126 -769 178 -779Q178 -779 179 -779Q206 -779 231.5 -774.5Q257 -770 281.5 -759.5Q306 -749 320.5 -729Q335 -709 335 -682Q335 -669 324 -627Q318 -605 315 -594.5Q312 -584 303.5 -564.5Q295 -545 286.5 -535Q278 -525 263.5 -516.5Q249 -508 232 -508Q226 -508 221 -509H211Q206 -509 206 -514Q206 -519 211 -519Z"/>
</svg>