<svg xmlns="http://www.w3.org/2000/svg" viewBox="0 -1024 1024 1024">
	<path fill="#000088" d="M315 -806Q466 -804 539 -802L551 -805Q554 -806 557 -806Q568 -806 575 -798.5Q582 -791 582 -781Q582 -761 563 -757L547 -753Q545 -752 541 -752Q459 -754 315 -756Q305 -756 297.5 -763.5Q290 -771 290 -781Q290 -791 297.5 -798.5Q305 -806 315 -806ZM49 -750Q38 -750 31 -757.5Q24 -765 24 -777Q24 -791 34 -798Q41 -804 50 -804Q59 -804 65 -800Q70 -800 82 -800Q94 -800 100 -800Q118 -800 145 -802Q172 -804 194 -804Q253 -804 278 -794Q302 -783 302 -761Q302 -756 301 -752Q286 -712 243 -645Q239 -635 229 -616Q198 -557 198 -525Q198 -475 210 -454Q228 -428 229 -427Q234 -422 239 -422Q285 -422 315 -440Q354 -465 354 -519Q354 -520 354 -520Q354 -527 348 -527Q347 -527 345 -526.5Q343 -526 341 -526Q332 -526 325 -532Q322 -535 317 -535Q306 -535 287 -522Q269 -510 256 -495Q247 -484 235 -484Q222 -484 215 -495Q210 -501 210 -509Q210 -518 217 -526Q218 -527 220 -530Q228 -539 240 -556Q262 -588 282 -598Q306 -610 358 -610Q400 -610 428 -595Q500 -555 500 -470Q501 -467 501 -465Q501 -434 474 -395Q389 -269 278 -232Q289 -209 295 -200Q314 -169 329 -146L363 -126L423 -122Q433 -121 439.5 -114Q446 -107 446 -97Q446 -87 439 -79.5Q432 -72 421 -72Q421 -72 420 -72L354 -76Q348 -76 343 -79L299 -105Q294 -108 290 -113Q273 -139 252 -174Q248 -181 244 -188.5Q240 -196 235.5 -205.5Q231 -215 228 -220Q210 -218 191 -218Q175 -218 164 -226Q148 -238 148 -261Q148 -280 164 -294Q172 -302 181 -306Q191 -310 199 -310Q203 -310 207 -309Q234 -301 253 -277Q353 -305 433 -423Q451 -449 451 -465Q451 -466 450.5 -467Q450 -468 450 -469Q450 -496 442 -514Q431 -536 403 -551Q398 -554 392 -556Q404 -540 404 -520Q404 -437 341 -398Q299 -372 239 -372Q229 -372 220.5 -375Q212 -378 206.5 -381Q201 -384 194.5 -391.5Q188 -399 185.5 -402.5Q183 -406 176.5 -415.5Q170 -425 169 -427Q168 -427 168 -428Q150 -458 148 -518Q148 -522 148 -525Q148 -546 154.5 -569Q161 -592 166.5 -604Q172 -616 184 -639Q194 -658 199 -667Q199 -669 200 -670Q233 -722 246 -751Q228 -754 194 -754Q164 -754 148 -752Q129 -750 100 -750Q94 -750 81.5 -750Q69 -750 62 -750Q60 -750 56 -750Q52 -750 49 -750Z"/>
	<path fill="#800080" d="M265 -806Q416 -804 489 -802L501 -805Q504 -806 507 -806Q518 -806 525 -798.5Q532 -791 532 -781Q532 -761 513 -757L497 -753Q495 -752 491 -752Q409 -754 265 -756Q255 -756 247.5 -763.5Q240 -771 240 -781Q240 -791 247.5 -798.5Q255 -806 265 -806ZM-1 -750Q-12 -750 -19 -757.5Q-26 -765 -26 -777Q-26 -791 -16 -798Q-9 -804 0 -804Q9 -804 15 -800Q20 -800 32 -800Q44 -800 50 -800Q68 -800 95 -802Q122 -804 144 -804Q203 -804 228 -794Q252 -783 252 -761Q252 -756 251 -752Q236 -712 193 -645Q189 -635 179 -616Q148 -557 148 -525Q148 -475 160 -454Q178 -428 179 -427Q184 -422 189 -422Q235 -422 265 -440Q304 -465 304 -519Q304 -520 304 -520Q304 -527 298 -527Q297 -527 295 -526.5Q293 -526 291 -526Q282 -526 275 -532Q272 -535 267 -535Q256 -535 237 -522Q219 -510 206 -495Q197 -484 185 -484Q172 -484 165 -495Q160 -501 160 -509Q160 -518 167 -526Q168 -527 170 -530Q178 -539 190 -556Q212 -588 232 -598Q256 -610 308 -610Q350 -610 378 -595Q450 -555 450 -470Q451 -467 451 -465Q451 -434 424 -395Q339 -269 228 -232Q239 -209 245 -200Q264 -169 279 -146L313 -126L373 -122Q383 -121 389.5 -114Q396 -107 396 -97Q396 -87 389 -79.5Q382 -72 371 -72Q371 -72 370 -72L304 -76Q298 -76 293 -79L249 -105Q244 -108 240 -113Q223 -139 202 -174Q198 -181 194 -188.5Q190 -196 185.5 -205.5Q181 -215 178 -220Q160 -218 141 -218Q125 -218 114 -226Q98 -238 98 -261Q98 -280 114 -294Q122 -302 131 -306Q141 -310 149 -310Q153 -310 157 -309Q184 -301 203 -277Q303 -305 383 -423Q401 -449 401 -465Q401 -466 400.5 -467Q400 -468 400 -469Q400 -496 392 -514Q381 -536 353 -551Q348 -554 342 -556Q354 -540 354 -520Q354 -437 291 -398Q249 -372 189 -372Q179 -372 170.5 -375Q162 -378 156.5 -381Q151 -384 144.5 -391.5Q138 -399 135.5 -402.5Q133 -406 126.5 -415.5Q120 -425 119 -427Q118 -427 118 -428Q100 -458 98 -518Q98 -522 98 -525Q98 -546 104.5 -569Q111 -592 116.5 -604Q122 -616 134 -639Q144 -658 149 -667Q149 -669 150 -670Q183 -722 196 -751Q178 -754 144 -754Q114 -754 98 -752Q79 -750 50 -750Q44 -750 31.5 -750Q19 -750 12 -750Q10 -750 6 -750Q2 -750 -1 -750Z"/>
	<path fill="#daa520" d="M285 -786Q434 -784 511 -782L526 -786Q527 -786 527 -786Q532 -786 532 -781Q532 -777 529 -776L513 -772Q512 -772 511 -772Q430 -774 285 -776Q280 -776 280 -781Q280 -786 285 -786ZM20 -784Q25 -784 26 -780Q29 -780 32 -780Q39 -780 51.5 -780Q64 -780 70 -780Q88 -780 115 -782Q142 -784 164 -784Q204 -784 226 -779Q252 -774 252 -761Q252 -760 252 -759Q238 -721 196 -655Q192 -646 181.5 -625.5Q171 -605 165 -592.5Q159 -580 153.5 -561Q148 -542 148 -525Q148 -524 148 -522Q148 -520 148 -519Q150 -467 164 -444Q166 -441 170 -434Q177 -423 181 -417.5Q185 -412 192.5 -407Q200 -402 209 -402Q268 -402 306 -431Q344 -460 344 -519Q344 -520 344 -520Q344 -531 336.5 -539Q329 -547 318 -547Q317 -547 315 -546.5Q313 -546 311 -546Q310 -546 308 -547Q299 -555 287 -555Q268 -555 246 -539Q224 -523 211 -508Q209 -505 208 -505Q207 -504 205 -504Q200 -504 200 -509Q200 -511 202 -512Q203 -514 205 -516Q214 -527 226 -544Q245 -572 261 -580Q281 -590 317 -590Q323 -590 328 -590Q365 -590 388 -577Q421 -559 436 -532Q451 -505 451 -465Q451 -440 428 -406Q337 -272 220 -245Q224 -237 233 -218Q242 -199 248 -190Q268 -156 285 -131L327 -106L392 -102Q396 -102 396 -97Q396 -92 391 -92L325 -96Q324 -96 323 -97L279 -123Q278 -123 277 -124Q260 -150 239 -184Q233 -194 223.5 -214Q214 -234 209 -243Q186 -238 161 -238Q138 -238 138 -261Q138 -273 148.5 -281.5Q159 -290 169 -290Q170 -290 171 -290Q196 -282 214 -254Q330 -279 419 -412Q441 -443 441 -465Q441 -466 440.5 -467Q440 -468 440 -469Q440 -504 426.5 -528Q413 -552 383 -569Q362 -580 328 -580Q326 -580 322.5 -580Q319 -580 317 -580Q284 -580 269 -573Q254 -566 240 -547Q266 -565 287 -565Q302 -565 313 -556Q315 -557 318 -557Q333 -557 343.5 -546Q354 -535 354 -520Q354 -455 313 -423.5Q272 -392 209 -392Q201 -392 194 -394.5Q187 -397 181 -403Q175 -409 171.5 -413Q168 -417 162.5 -426.5Q157 -436 155 -438Q140 -464 138 -519Q138 -522 138 -525Q138 -543 143.5 -563Q149 -583 155 -595.5Q161 -608 172 -629Q183 -650 187 -659Q187 -659 187 -660Q228 -724 242 -762Q240 -766 224 -770Q203 -774 164 -774Q142 -774 115 -772Q88 -770 70 -770Q64 -770 51.5 -770Q39 -770 32 -770Q25 -770 19 -770Q14 -770 14 -777Q14 -784 20 -784ZM148 -261Q148 -253 151 -250.5Q154 -248 161 -248Q183 -248 204 -252Q189 -274 169 -280Q163 -280 155.5 -273.5Q148 -267 148 -261Z"/>
</svg>