<svg xmlns="http://www.w3.org/2000/svg" viewBox="0 -1024 1024 1024">
	<path fill="#000088" d="M804 -663Q804 -663 804 -656Q803 -648 802.5 -631.5Q802 -615 801 -605.5Q800 -596 796.5 -584.5Q793 -573 787 -567L752 -531Q740 -519 711 -519Q677 -519 665 -531L629 -567Q621 -575 617 -595Q610 -623 601 -632Q594 -641 594 -650Q594 -660 601.5 -667.5Q609 -675 620 -675Q630 -675 638 -667L672 -632Q683 -620 689 -591Q701 -589 711 -589Q718 -589 728 -591Q730 -602 731.5 -626.5Q733 -651 733 -656V-663Q733 -698 704 -738Q633 -737 582 -695Q551 -656 529.5 -601.5Q508 -547 496.5 -473.5Q485 -400 480.5 -354Q476 -308 471 -227Q463 -107 456 -74Q450 -49 444 -43L408 -8Q405 -5 403 -5Q399 -5 395 -9L360 -44Q343 -61 319.5 -145.5Q296 -230 274 -346Q252 -462 239 -536Q226 -610 217 -668Q210 -719 187 -759Q165 -757 149 -747Q128 -715 125 -677Q123 -663 113 -654Q103 -645 90 -645Q76 -645 65.5 -655.5Q55 -666 55 -680V-683Q59 -731 95 -767L130 -802Q157 -829 192 -829H196L231 -793Q277 -747 288 -668Q347 -300 394 -134Q395 -145 400 -227Q405 -311 410 -361.5Q415 -412 428 -488.5Q441 -565 466 -621Q491 -677 528 -714L563 -749Q622 -808 711 -808L747 -773Q748 -771 757 -759.5Q766 -748 769 -744.5Q772 -741 779.5 -730.5Q787 -720 789.5 -714Q792 -708 796.5 -698.5Q801 -689 802.5 -680.5Q804 -672 804 -663Z"/>
	<path fill="#800080" d="M75 -658Q65 -658 57.5 -665.5Q50 -673 50 -683Q50 -684 50 -685Q54 -734 89.5 -776.5Q125 -819 176 -819Q190 -819 198 -811Q250 -760 262 -672Q297 -454 329 -301Q352 -188 371 -125Q377 -106 383 -91Q389 -126 395 -229Q408 -430 431 -528Q463 -665 530 -732Q597 -798 696 -798Q708 -798 716 -788Q750 -744 758 -731Q778 -696 778 -663Q778 -659 778 -654Q778 -650 776.5 -624Q775 -598 772 -584Q767 -562 754 -549Q734 -529 696 -529Q651 -529 631 -549Q619 -562 613 -590Q609 -609 603 -615Q596 -622 596 -632Q596 -642 603.5 -649.5Q611 -657 621 -657Q632 -657 639 -649Q655 -633 661 -601Q664 -587 667 -584Q672 -579 696 -579Q713 -579 719 -584Q722 -588 724 -596Q726 -604 727 -628.5Q728 -653 728 -658Q728 -661 728 -663Q728 -682 715 -706Q707 -719 684 -748Q614 -744 566 -696Q509 -639 480 -516Q457 -422 445 -226Q438 -107 429 -69Q426 -53 422 -42Q410 -15 387 -15Q373 -15 362 -27Q352 -36 343 -56.5Q334 -77 323 -111Q304 -176 280 -290Q248 -444 212 -664Q212 -664 212 -665Q204 -727 169 -769Q150 -766 132 -749Q119 -736 110 -716.5Q101 -697 100 -681Q99 -671 92 -664.5Q85 -658 75 -658Z"/>
	<path fill="#daa520" d="M758 -663Q758 -670 756.5 -678Q755 -686 753.5 -691.5Q752 -697 747.5 -705.5Q743 -714 740.5 -718.5Q738 -723 731.5 -732Q725 -741 722.5 -744Q720 -747 712.5 -756.5Q705 -766 704 -768Q655 -768 616 -748Q577 -728 551 -700Q525 -672 504.5 -622.5Q484 -573 473 -533.5Q462 -494 453.5 -429.5Q445 -365 442 -328Q439 -291 435 -227Q428 -110 420 -73Q412 -35 397 -35Q388 -35 379 -49Q370 -63 360 -94Q340 -152 315 -270Q280 -429 242 -667Q238 -700 223 -734Q208 -768 188 -789Q187 -789 186 -789Q147 -789 120 -754Q93 -719 90 -683Q90 -678 85 -678Q80 -678 80 -683Q84 -723 113 -761Q142 -799 186 -799Q192 -799 194 -798Q216 -775 231.5 -739.5Q247 -704 252 -669Q290 -431 324 -272Q350 -155 370 -97Q379 -68 388 -55Q394 -45 397 -45Q404 -45 410 -75Q418 -111 425 -228Q425 -229 425 -231Q429 -296 432 -331.5Q435 -367 444 -433.5Q453 -500 464 -539.5Q475 -579 496.5 -630Q518 -681 545 -709.5Q572 -738 613.5 -758Q655 -778 706 -778Q708 -778 710 -776Q712 -774 722.5 -760.5Q733 -747 736.5 -742.5Q740 -738 748 -725.5Q756 -713 759 -705Q762 -697 765 -685.5Q768 -674 768 -663Q768 -659 768 -656Q767 -648 766.5 -630.5Q766 -613 765 -601Q764 -589 760 -579Q748 -549 706 -549Q674 -549 659 -560Q648 -569 642 -594Q637 -618 627 -629Q626 -630 626 -632Q626 -637 631 -637Q633 -637 635 -635Q646 -623 652 -596Q657 -575 665 -568Q677 -559 706 -559Q741 -559 751 -583Q754 -591 755 -603Q756 -615 756.5 -632Q757 -649 758 -656Q758 -660 758 -663Z"/>
</svg>