<svg xmlns="http://www.w3.org/2000/svg" viewBox="0 -1024 1024 1024">
	<path fill="#000088" d="M100 -713Q100 -723 107 -730Q109 -733 114 -740Q126 -757 136 -765Q141 -770 149 -779Q157 -788 164.5 -794.5Q172 -801 182 -804Q197 -810 224 -810Q246 -810 263 -792Q271 -784 283.5 -765.5Q296 -747 303 -740Q314 -729 326 -729Q330 -729 333 -728Q334 -729 335 -730Q341 -735 345.5 -743.5Q350 -752 355 -765Q360 -778 362 -781Q365 -788 369 -792Q374 -797 380 -799Q383 -800 388 -800Q398 -800 406 -793Q410 -788 412 -781Q414 -775 414 -765Q414 -763 414 -761Q412 -648 373 -432Q360 -359 353 -317.5Q346 -276 339.5 -213Q333 -150 333 -98Q333 -49 346 -35Q352 -29 366 -26Q385 -21 425 -21Q449 -21 463 -27Q476 -32 492 -54Q504 -70 513 -78Q520 -85 528 -92L544 -178Q546 -186 553 -192Q560 -198 569 -198Q579 -198 587 -191Q594 -184 594 -174L597 -42Q602 -24 604.5 -18Q607 -12 610 -9Q611 -8 613 -8Q617 -8 623 -10Q627 -12 631 -12Q694 -16 733 -55Q784 -105 799 -218Q806 -270 806 -337Q806 -376 799 -509Q793 -509 788 -509Q779 -509 774 -508Q760 -506 744 -506Q677 -506 632 -551Q594 -588 592 -643Q592 -643 592 -644Q592 -680 610 -720Q625 -756 648 -779Q682 -813 725 -813Q746 -813 764 -795Q781 -778 796 -744Q823 -681 841 -571Q842 -571 842 -571L873 -600Q880 -606 890 -606Q900 -606 907.5 -598.5Q915 -591 915 -581Q915 -570 907 -562L874 -532Q872 -531 865 -526Q854 -519 849 -516Q849 -511 849.5 -505Q850 -499 850.5 -491.5Q851 -484 851 -480Q856 -387 856 -337Q856 -267 849 -212Q831 -82 768 -20Q717 32 637 38Q624 42 613 42Q590 42 574 26Q560 12 548 -31Q547 -34 547 -41Q541 -36 531 -22.5Q521 -9 514 -2Q500 11 483 19Q460 29 425 29Q382 29 355.5 23.5Q329 18 311 0Q283 -28 283 -98Q283 -153 290 -218.5Q297 -284 303.5 -325Q310 -366 324 -441Q353 -604 360 -686Q347 -678 333 -678Q328 -678 322 -679Q291 -680 268 -704Q257 -715 242 -737Q232 -753 228 -757Q225 -759 224 -760Q206 -760 199 -758Q196 -756 190 -749Q178 -736 168 -727Q163 -722 155.5 -711Q148 -700 143 -695Q135 -688 125 -688Q115 -688 107.5 -695.5Q100 -703 100 -713ZM745 -556Q755 -556 766 -558Q775 -559 788 -559Q790 -559 792 -559Q775 -666 750 -724Q739 -750 729 -760Q726 -762 725 -763Q683 -763 656 -700Q642 -670 642 -645Q644 -605 673.5 -580.5Q703 -556 745 -556Z"/>
	<path fill="#800080" d="M50 -713Q50 -723 57 -730Q59 -733 64 -740Q76 -757 86 -765Q91 -770 99 -779Q107 -788 114.5 -794.5Q122 -801 132 -804Q147 -810 174 -810Q196 -810 213 -792Q221 -784 233.5 -765.5Q246 -747 253 -740Q264 -729 276 -729Q280 -729 283 -728Q284 -729 285 -730Q291 -735 295.5 -743.5Q300 -752 305 -765Q310 -778 312 -781Q315 -788 319 -792Q324 -797 330 -799Q333 -800 338 -800Q348 -800 356 -793Q360 -788 362 -781Q364 -775 364 -765Q364 -763 364 -761Q362 -648 323 -432Q310 -359 303 -317.5Q296 -276 289.5 -213Q283 -150 283 -98Q283 -49 296 -35Q302 -29 316 -26Q335 -21 375 -21Q399 -21 413 -27Q426 -32 442 -54Q454 -70 463 -78Q470 -85 478 -92L494 -178Q496 -186 503 -192Q510 -198 519 -198Q529 -198 537 -191Q544 -184 544 -174L547 -42Q552 -24 554.5 -18Q557 -12 560 -9Q561 -8 563 -8Q567 -8 573 -10Q577 -12 581 -12Q644 -16 683 -55Q734 -105 749 -218Q756 -270 756 -337Q756 -376 749 -509Q743 -509 738 -509Q729 -509 724 -508Q710 -506 694 -506Q627 -506 582 -551Q544 -588 542 -643Q542 -643 542 -644Q542 -680 560 -720Q575 -756 598 -779Q632 -813 675 -813Q696 -813 714 -795Q731 -778 746 -744Q773 -681 791 -571Q792 -571 792 -571L823 -600Q830 -606 840 -606Q850 -606 857.5 -598.5Q865 -591 865 -581Q865 -570 857 -562L824 -532Q822 -531 815 -526Q804 -519 799 -516Q799 -511 799.5 -505Q800 -499 800.5 -491.5Q801 -484 801 -480Q806 -387 806 -337Q806 -267 799 -212Q781 -82 718 -20Q667 32 587 38Q574 42 563 42Q540 42 524 26Q510 12 498 -31Q497 -34 497 -41Q491 -36 481 -22.5Q471 -9 464 -2Q450 11 433 19Q410 29 375 29Q332 29 305.5 23.5Q279 18 261 0Q233 -28 233 -98Q233 -153 240 -218.5Q247 -284 253.5 -325Q260 -366 274 -441Q303 -604 310 -686Q297 -678 283 -678Q278 -678 272 -679Q241 -680 218 -704Q207 -715 192 -737Q182 -753 178 -757Q175 -759 174 -760Q156 -760 149 -758Q146 -756 140 -749Q128 -736 118 -727Q113 -722 105.5 -711Q98 -700 93 -695Q85 -688 75 -688Q65 -688 57.5 -695.5Q50 -703 50 -713ZM695 -556Q705 -556 716 -558Q725 -559 738 -559Q740 -559 742 -559Q725 -666 700 -724Q689 -750 679 -760Q676 -762 675 -763Q633 -763 606 -700Q592 -670 592 -645Q594 -605 623.5 -580.5Q653 -556 695 -556Z"/>
	<path fill="#daa520" d="M336 -709Q337 -709 339.5 -708.5Q342 -708 343 -708Q354 -708 366 -723Q374 -735 386 -763Q391 -775 393 -777.5Q395 -780 398 -780Q402 -780 403 -774Q404 -771 404 -765Q404 -763 404 -761Q402 -668 382 -548.5Q362 -429 342.5 -311Q323 -193 323 -98Q323 -31 351 -14Q373 -1 435 -1Q460 -1 476.5 -7.5Q493 -14 499.5 -20.5Q506 -27 518 -41Q538 -68 556 -80L574 -174Q575 -178 579 -178Q584 -178 584 -173L587 -39Q592 -21 594.5 -13.5Q597 -6 604.5 3Q612 12 623 12Q630 12 640 8Q641 8 642 8Q689 5 725 -16.5Q761 -38 781.5 -70Q802 -102 815 -148Q828 -194 832 -238.5Q836 -283 836 -337Q836 -374 829 -512Q829 -517 827 -528Q798 -529 798 -529Q788 -529 781 -528Q768 -526 755 -526Q702 -526 663 -558.5Q624 -591 622 -644Q622 -691 653.5 -742Q685 -793 735 -793Q755 -793 772 -765Q790 -738 806 -683Q825 -617 836 -538Q838 -539 864 -555L897 -585Q898 -586 900 -586Q905 -586 905 -581Q905 -579 903 -577L870 -547Q870 -547 864 -543Q847 -532 842 -529Q839 -528 837 -528Q839 -519 841 -479Q846 -387 846 -337Q846 -283 842 -238Q838 -193 824.5 -145.5Q811 -98 789.5 -64.5Q768 -31 730.5 -8Q693 15 643 18Q632 22 623 22Q618 22 613.5 21Q609 20 605 17Q601 14 598.5 12Q596 10 593 5Q590 0 588.5 -2Q587 -4 585 -10.5Q583 -17 582 -19Q581 -21 579 -28.5Q577 -36 577 -37Q577 -37 577 -38L575 -125L566 -76Q566 -74 564 -73Q546 -61 526 -35Q514 -20 506 -12.5Q498 -5 479.5 2Q461 9 435 9Q370 9 346 -6Q327 -17 320 -38.5Q313 -60 313 -98Q313 -193 332 -310.5Q351 -428 371.5 -546.5Q392 -665 394 -757Q383 -730 374 -717Q359 -698 343 -698Q339 -698 335 -699Q319 -699 305.5 -708Q292 -717 285.5 -725Q279 -733 269 -748Q248 -780 234 -780Q210 -780 202 -776.5Q194 -773 184 -762Q174 -750 165 -742Q159 -737 150.5 -725.5Q142 -714 139 -710Q137 -708 135 -708Q130 -708 130 -713Q130 -715 131 -716Q135 -720 143.5 -732Q152 -744 159 -750Q167 -757 177 -768Q187 -780 198 -785Q209 -790 234 -790Q243 -790 252 -783.5Q261 -777 265 -771.5Q269 -766 278 -754Q287 -739 293 -731.5Q299 -724 311 -716.5Q323 -709 336 -709ZM798 -539Q801 -539 826 -538Q815 -617 796 -681Q781 -734 764 -760Q749 -783 735 -783Q692 -783 662 -735.5Q632 -688 632 -644Q634 -596 670 -566Q706 -536 755 -536Q762 -536 776 -537.5Q790 -539 798 -539Z"/>
</svg>