<svg xmlns="http://www.w3.org/2000/svg" viewBox="0 -1024 1024 1024">
	<path fill="#000088" d="M760 -499Q752 -499 738 -497Q724 -495 717 -495Q660 -495 622 -533L587 -568Q555 -600 554 -644Q554 -671 567 -704.5Q580 -738 603 -761L638 -796Q665 -823 697 -823Q709 -823 719 -813L754 -777Q795 -736 822 -581Q825 -584 829 -586L862 -616Q871 -623 880 -623Q890 -623 898 -615.5Q906 -608 906 -597Q906 -587 897 -578Q886 -568 864 -547.5Q842 -527 831 -517Q832 -510 832.5 -497.5Q833 -485 833 -478Q839 -352 839 -337Q839 -118 758 -37L723 -2Q677 44 604 48Q595 52 585 52Q572 52 564 44L529 9Q520 0 512 -28Q511 -27 510 -25.5Q509 -24 507 -22.5Q505 -21 504 -20L468 15Q444 39 397 39Q322 39 301 18L265 -18Q245 -38 245 -98Q245 -213 285 -437Q315 -604 321 -673Q314 -667 305 -667Q302 -667 298 -669Q276 -669 258 -687L222 -722Q213 -731 201 -749Q200 -749 198.5 -749.5Q197 -750 196 -750Q171 -750 157 -743L149 -735Q146 -732 141 -724.5Q136 -717 133 -713L100 -678Q91 -669 81 -669Q70 -669 62.5 -676.5Q55 -684 55 -695Q55 -704 62 -713Q66 -718 73 -728Q80 -738 85 -742L108 -765Q110 -768 114 -772L149 -807Q162 -820 196 -820Q208 -820 218 -810L253 -775Q254 -774 275 -744Q287 -739 298 -739Q300 -738 305 -738H307Q308 -740 317 -761Q322 -773 324 -775L359 -810H360L396 -775Q397 -774 397 -765V-761Q395 -652 355.5 -433.5Q316 -215 316 -98Q316 -60 323 -40Q350 -31 397 -31Q430 -31 452 -43Q462 -55 467 -60L489 -82L506 -173H577L580 -38Q581 -35 582.5 -28Q584 -21 585 -18Q595 -18 604 -22Q661 -25 704 -56Q768 -140 768 -337Q768 -397 762 -499ZM717 -566Q734 -566 742 -568Q745 -569 753 -569Q730 -699 701 -752Q700 -752 699 -752.5Q698 -753 697 -753Q678 -753 657 -741Q625 -694 625 -644Q626 -613 642 -588Q677 -566 717 -566Z"/>
	<path fill="#800080" d="M50 -713Q50 -723 57 -730Q59 -733 64 -740Q76 -757 86 -765Q91 -770 99 -779Q107 -788 114.5 -794.5Q122 -801 132 -804Q147 -810 174 -810Q196 -810 213 -792Q221 -784 233.5 -765.5Q246 -747 253 -740Q264 -729 276 -729Q280 -729 283 -728Q284 -729 285 -730Q291 -735 295.5 -743.5Q300 -752 305 -765Q310 -778 312 -781Q315 -788 319 -792Q324 -797 330 -799Q333 -800 338 -800Q348 -800 356 -793Q360 -788 362 -781Q364 -775 364 -765Q364 -763 364 -761Q362 -648 323 -432Q310 -359 303 -317.5Q296 -276 289.5 -213Q283 -150 283 -98Q283 -49 296 -35Q302 -29 316 -26Q335 -21 375 -21Q399 -21 413 -27Q426 -32 442 -54Q454 -70 463 -78Q470 -85 478 -92L494 -178Q496 -186 503 -192Q510 -198 519 -198Q529 -198 537 -191Q544 -184 544 -174L547 -42Q552 -24 554.5 -18Q557 -12 560 -9Q561 -8 563 -8Q567 -8 573 -10Q577 -12 581 -12Q644 -16 683 -55Q734 -105 749 -218Q756 -270 756 -337Q756 -376 749 -509Q743 -509 738 -509Q729 -509 724 -508Q710 -506 694 -506Q627 -506 582 -551Q544 -588 542 -643Q542 -643 542 -644Q542 -680 560 -720Q575 -756 598 -779Q632 -813 675 -813Q696 -813 714 -795Q731 -778 746 -744Q773 -681 791 -571Q792 -571 792 -571L823 -600Q830 -606 840 -606Q850 -606 857.5 -598.5Q865 -591 865 -581Q865 -570 857 -562L824 -532Q822 -531 815 -526Q804 -519 799 -516Q799 -511 799.5 -505Q800 -499 800.5 -491.5Q801 -484 801 -480Q806 -387 806 -337Q806 -267 799 -212Q781 -82 718 -20Q667 32 587 38Q574 42 563 42Q540 42 524 26Q510 12 498 -31Q497 -34 497 -41Q491 -36 481 -22.5Q471 -9 464 -2Q450 11 433 19Q410 29 375 29Q332 29 305.5 23.5Q279 18 261 0Q233 -28 233 -98Q233 -153 240 -218.5Q247 -284 253.5 -325Q260 -366 274 -441Q303 -604 310 -686Q297 -678 283 -678Q278 -678 272 -679Q241 -680 218 -704Q207 -715 192 -737Q182 -753 178 -757Q175 -759 174 -760Q156 -760 149 -758Q146 -756 140 -749Q128 -736 118 -727Q113 -722 105.5 -711Q98 -700 93 -695Q85 -688 75 -688Q65 -688 57.5 -695.5Q50 -703 50 -713ZM695 -556Q705 -556 716 -558Q725 -559 738 -559Q740 -559 742 -559Q725 -666 700 -724Q689 -750 679 -760Q676 -762 675 -763Q633 -763 606 -700Q592 -670 592 -645Q594 -605 623.5 -580.5Q653 -556 695 -556Z"/>
	<path fill="#daa520" d="M286 -709Q287 -709 289.5 -708.5Q292 -708 293 -708Q304 -708 316 -723Q324 -735 336 -763Q341 -775 343 -777.5Q345 -780 348 -780Q352 -780 353 -774Q354 -771 354 -765Q354 -763 354 -761Q352 -668 332 -548.5Q312 -429 292.5 -311Q273 -193 273 -98Q273 -31 301 -14Q323 -1 385 -1Q410 -1 426.5 -7.5Q443 -14 449.5 -20.5Q456 -27 468 -41Q488 -68 506 -80L524 -174Q525 -178 529 -178Q534 -178 534 -173L537 -39Q542 -21 544.5 -13.5Q547 -6 554.5 3Q562 12 573 12Q580 12 590 8Q591 8 592 8Q639 5 675 -16.5Q711 -38 731.5 -70Q752 -102 765 -148Q778 -194 782 -238.5Q786 -283 786 -337Q786 -374 779 -512Q779 -517 777 -528Q748 -529 748 -529Q738 -529 731 -528Q718 -526 705 -526Q652 -526 613 -558.5Q574 -591 572 -644Q572 -691 603.5 -742Q635 -793 685 -793Q705 -793 722 -765Q740 -738 756 -683Q775 -617 786 -538Q788 -539 814 -555L847 -585Q848 -586 850 -586Q855 -586 855 -581Q855 -579 853 -577L820 -547Q820 -547 814 -543Q797 -532 792 -529Q789 -528 787 -528Q789 -519 791 -479Q796 -387 796 -337Q796 -283 792 -238Q788 -193 774.5 -145.5Q761 -98 739.5 -64.5Q718 -31 680.5 -8Q643 15 593 18Q582 22 573 22Q568 22 563.5 21Q559 20 555 17Q551 14 548.5 12Q546 10 543 5Q540 0 538.5 -2Q537 -4 535 -10.5Q533 -17 532 -19Q531 -21 529 -28.5Q527 -36 527 -37Q527 -37 527 -38L525 -125L516 -76Q516 -74 514 -73Q496 -61 476 -35Q464 -20 456 -12.5Q448 -5 429.5 2Q411 9 385 9Q320 9 296 -6Q277 -17 270 -38.5Q263 -60 263 -98Q263 -193 282 -310.5Q301 -428 321.5 -546.5Q342 -665 344 -757Q333 -730 324 -717Q309 -698 293 -698Q289 -698 285 -699Q269 -699 255.5 -708Q242 -717 235.5 -725Q229 -733 219 -748Q198 -780 184 -780Q160 -780 152 -776.5Q144 -773 134 -762Q124 -750 115 -742Q109 -737 100.5 -725.5Q92 -714 89 -710Q87 -708 85 -708Q80 -708 80 -713Q80 -715 81 -716Q85 -720 93.5 -732Q102 -744 109 -750Q117 -757 127 -768Q137 -780 148 -785Q159 -790 184 -790Q193 -790 202 -783.5Q211 -777 215 -771.5Q219 -766 228 -754Q237 -739 243 -731.5Q249 -724 261 -716.5Q273 -709 286 -709ZM748 -539Q751 -539 776 -538Q765 -617 746 -681Q731 -734 714 -760Q699 -783 685 -783Q642 -783 612 -735.5Q582 -688 582 -644Q584 -596 620 -566Q656 -536 705 -536Q712 -536 726 -537.5Q740 -539 748 -539Z"/>
</svg>