<svg xmlns="http://www.w3.org/2000/svg" viewBox="0 -1024 1024 1024">
	<path fill="#000088" d="M151 -531Q136 -585 136 -664Q136 -668 136 -677.5Q136 -687 136 -692Q136 -695 137 -698Q145 -729 172.5 -752Q200 -775 233 -788Q271 -801 323 -801Q385 -801 413 -773Q425 -760 438 -732Q452 -701 468 -687Q475 -681 477 -672L489 -588Q489 -586 489 -584Q489 -583 489 -583L483 -454Q483 -450 481 -446L451 -363Q470 -374 486 -384Q486 -397 487 -411Q487 -523 512 -611Q539 -705 592 -758Q656 -822 752 -822Q755 -822 764 -823Q773 -824 779 -824Q803 -824 815 -812Q825 -802 825 -788Q825 -783 825.5 -771Q826 -759 826 -753Q826 -742 825 -733Q815 -667 788.5 -609Q762 -551 720 -505Q678 -459 635.5 -425Q593 -391 537 -356Q541 -288 567 -224.5Q593 -161 636 -118Q699 -55 783 -51Q796 -50 807 -50Q855 -50 872 -66Q884 -78 886 -104Q877 -110 857 -122L826 -127Q817 -129 811 -136Q805 -143 805 -152Q805 -162 812.5 -169.5Q820 -177 830 -177Q832 -177 834 -177L870 -171Q875 -170 879.5 -167Q884 -164 894.5 -157.5Q905 -151 911 -148Q927 -137 932 -130Q936 -123 936 -116Q936 -60 907 -31Q887 -11 855 -5Q835 0 808 0Q797 0 781 -1Q718 -4 665 -33.5Q612 -63 576.5 -109.5Q541 -156 518.5 -211.5Q496 -267 489 -327Q467 -314 425 -290L418 -272Q418 -271 417 -270L369 -174Q368 -171 366 -169Q356 -157 330 -109Q282 -20 250 12Q211 50 170 50Q154 50 140 37Q125 21 113 -14Q100 -52 100 -74Q100 -77 101 -80Q114 -135 156 -173V-174Q188 -201 229.5 -230Q271 -259 301.5 -277Q332 -295 384 -325L433 -460L439 -583L429 -656Q409 -675 392 -711Q383 -732 377 -738Q364 -751 323 -751Q280 -751 250 -740Q220 -730 201 -710Q190 -699 186 -688Q186 -685 186 -676.5Q186 -668 186 -664Q186 -589 200 -540Q201 -537 201 -533Q201 -531 201 -528Q201 -526 201 -524Q201 -514 193.5 -506.5Q186 -499 176 -499Q165 -499 157.5 -507.5Q150 -516 150 -528Q150 -530 151 -531ZM775 -774Q772 -773 764.5 -772.5Q757 -772 752 -772Q676 -772 627 -723Q583 -679 560 -597Q538 -518 537 -416Q610 -464 658 -511Q757 -610 775 -741Q776 -745 776 -753Q776 -759 775 -774ZM150 -72Q153 -52 160 -30Q167 -11 175 0Q193 -3 214 -24Q241 -51 286 -133Q313 -183 326 -199L350 -247Q246 -186 190 -136Q160 -110 150 -72Z"/>
	<path fill="#800080" d="M101 -531Q86 -585 86 -664Q86 -668 86 -677.5Q86 -687 86 -692Q86 -695 87 -698Q95 -729 122.5 -752Q150 -775 183 -788Q221 -801 273 -801Q335 -801 363 -773Q375 -760 388 -732Q402 -701 418 -687Q425 -681 427 -672L439 -588Q439 -586 439 -584Q439 -583 439 -583L433 -454Q433 -450 431 -446L401 -363Q420 -374 436 -384Q436 -397 437 -411Q437 -523 462 -611Q489 -705 542 -758Q606 -822 702 -822Q705 -822 714 -823Q723 -824 729 -824Q753 -824 765 -812Q775 -802 775 -788Q775 -783 775.5 -771Q776 -759 776 -753Q776 -742 775 -733Q765 -667 738.5 -609Q712 -551 670 -505Q628 -459 585.5 -425Q543 -391 487 -356Q491 -288 517 -224.5Q543 -161 586 -118Q649 -55 733 -51Q746 -50 757 -50Q805 -50 822 -66Q834 -78 836 -104Q827 -110 807 -122L776 -127Q767 -129 761 -136Q755 -143 755 -152Q755 -162 762.5 -169.5Q770 -177 780 -177Q782 -177 784 -177L820 -171Q825 -170 829.5 -167Q834 -164 844.5 -157.5Q855 -151 861 -148Q877 -137 882 -130Q886 -123 886 -116Q886 -60 857 -31Q837 -11 805 -5Q785 0 758 0Q747 0 731 -1Q668 -4 615 -33.5Q562 -63 526.5 -109.5Q491 -156 468.5 -211.5Q446 -267 439 -327Q417 -314 375 -290L368 -272Q368 -271 367 -270L319 -174Q318 -171 316 -169Q306 -157 280 -109Q232 -20 200 12Q161 50 120 50Q104 50 90 37Q75 21 63 -14Q50 -52 50 -74Q50 -77 51 -80Q64 -135 106 -173V-174Q138 -201 179.5 -230Q221 -259 251.5 -277Q282 -295 334 -325L383 -460L389 -583L379 -656Q359 -675 342 -711Q333 -732 327 -738Q314 -751 273 -751Q230 -751 200 -740Q170 -730 151 -710Q140 -699 136 -688Q136 -685 136 -676.5Q136 -668 136 -664Q136 -589 150 -540Q151 -537 151 -533Q151 -531 151 -528Q151 -526 151 -524Q151 -514 143.5 -506.5Q136 -499 126 -499Q115 -499 107.5 -507.5Q100 -516 100 -528Q100 -530 101 -531ZM725 -774Q722 -773 714.5 -772.5Q707 -772 702 -772Q626 -772 577 -723Q533 -679 510 -597Q488 -518 487 -416Q560 -464 608 -511Q707 -610 725 -741Q726 -745 726 -753Q726 -759 725 -774ZM100 -72Q103 -52 110 -30Q117 -11 125 0Q143 -3 164 -24Q191 -51 236 -133Q263 -183 276 -199L300 -247Q196 -186 140 -136Q110 -110 100 -72Z"/>
	<path fill="#daa520" d="M190 -528Q190 -527 190.5 -526Q191 -525 191 -524Q191 -519 186 -519Q180 -519 180 -528Q180 -530 181 -533Q166 -586 166 -664Q166 -668 166 -677.5Q166 -687 166 -692Q166 -693 166 -693Q173 -719 197 -738.5Q221 -758 250 -769Q284 -781 333 -781Q376 -781 398 -767Q415 -757 430 -724Q446 -688 465 -672Q467 -671 467 -669L479 -585Q479 -584 479 -584L473 -455Q473 -454 473 -453L424 -319Q483 -352 516 -372Q516 -378 516 -382Q516 -396 517 -410Q517 -451 521 -490.5Q525 -530 534 -576.5Q543 -623 561.5 -661.5Q580 -700 605.5 -732.5Q631 -765 671.5 -783.5Q712 -802 762 -802Q766 -802 775 -803Q784 -804 789 -804Q815 -804 815 -788Q815 -782 815.5 -770.5Q816 -759 816 -753Q816 -743 815 -736Q806 -671 780 -615.5Q754 -560 712.5 -515.5Q671 -471 628 -437Q585 -403 526 -367Q529 -306 547.5 -248Q566 -190 599 -142.5Q632 -95 682 -64.5Q732 -34 792 -31Q807 -30 818 -30Q861 -30 882 -42Q916 -61 916 -114Q914 -116 874 -141L839 -147Q835 -148 835 -152Q835 -157 840 -157Q840 -157 841 -157L877 -151Q878 -151 879 -150Q883 -147 895 -140Q907 -133 913 -129Q922 -123 924 -120Q926 -118 926 -116Q926 -55 887 -34Q863 -20 818 -20Q806 -20 792 -21Q730 -24 678 -55Q626 -86 592.5 -134.5Q559 -183 539.5 -241.5Q520 -300 517 -361Q485 -342 419 -304L410 -279Q410 -279 409 -279L361 -183Q361 -182 361 -182Q349 -168 322 -118Q307 -90 300 -77.5Q293 -65 276 -40Q259 -15 246.5 -3Q234 9 216 19.5Q198 30 180 30Q162 30 147 -8Q130 -48 130 -74Q130 -75 130 -75Q142 -124 180 -159Q211 -186 253.5 -215Q296 -244 326 -262Q356 -280 410 -311L463 -456L469 -584L457 -665Q437 -683 421 -720Q407 -750 392 -759Q373 -771 333 -771Q286 -771 254 -759Q227 -750 204.5 -731.5Q182 -713 176 -691Q176 -687 176 -677.5Q176 -668 176 -664Q176 -586 191 -534Q191 -534 191 -533Q191 -532 190.5 -530.5Q190 -529 190 -528ZM789 -794Q785 -794 775.5 -793Q766 -792 762 -792Q705 -792 661.5 -766Q618 -740 593.5 -701Q569 -662 553 -608Q537 -554 532 -507Q527 -460 527 -410Q526 -396 526 -382Q526 -381 526 -379Q583 -414 625 -447Q667 -480 706.5 -524Q746 -568 771 -621.5Q796 -675 805 -738Q806 -744 806 -753Q806 -759 805.5 -770.5Q805 -782 805 -788Q805 -794 789 -794ZM180 20Q199 20 218 8Q237 -4 255 -28.5Q273 -53 284.5 -72Q296 -91 314 -123Q341 -173 353 -188L400 -283L405 -296Q252 -209 186 -151Q151 -119 140 -73Q141 -49 156 -12Q169 20 180 20Z"/>
</svg>