<svg xmlns="http://www.w3.org/2000/svg" viewBox="0 -1024 1024 1024">
	<path fill="#000088" d="M162 -664Q162 -586 177 -533Q177 -532 176.5 -530.5Q176 -529 176 -528Q176 -527 176 -526L177 -524Q178 -521 178 -514Q178 -500 168.5 -490Q159 -480 145 -480Q119 -480 112 -504L106 -524V-526Q105 -527 105 -528Q105 -529 105.5 -530.5Q106 -532 106 -533Q91 -586 91 -664V-692Q95 -710 113 -728L148 -763Q172 -787 207 -799Q242 -811 288 -811Q341 -811 361 -791L396 -755Q405 -746 416 -722Q429 -694 439 -682L453 -668L463 -594Q489 -690 540 -741L575 -776Q631 -832 717 -832Q721 -832 730 -833Q739 -834 744 -834Q759 -834 763 -830L798 -794Q801 -791 801 -788Q801 -782 801.5 -770Q802 -758 802 -753Q802 -742 801 -737Q781 -599 676 -494L641 -458Q588 -405 513 -357Q521 -215 602 -119Q667 -65 747 -61H773Q811 -61 833 -70Q840 -87 841 -105Q839 -106 835.5 -108.5Q832 -111 831 -111Q823 -112 807.5 -115Q792 -118 784 -119Q771 -121 763 -130.5Q755 -140 755 -153Q755 -167 765.5 -177.5Q776 -188 790 -188Q791 -188 792.5 -187.5Q794 -187 795 -187L831 -181Q835 -178 845.5 -172Q856 -166 864 -161Q872 -156 875 -153L911 -118L912 -116Q912 -71 890 -49L855 -13Q832 10 773 10Q769 10 760.5 9.5Q752 9 747 9Q654 5 584 -65L548 -100Q466 -182 446 -316Q438 -311 422 -302Q406 -293 398 -288L396 -281L348 -185Q333 -168 309 -121Q264 -37 233 -6L197 29Q166 60 135 60Q130 60 124 54L88 19Q75 6 65 -26.5Q55 -59 55 -74Q64 -116 98 -150L133 -185L138 -190Q202 -247 342 -327L388 -455L394 -584L382 -667L375 -675Q361 -689 340 -733Q321 -741 288 -741Q242 -741 207 -729Q188 -722 169 -709Q166 -704 162 -692ZM431 -378Q432 -379 436 -381Q440 -383 441 -384Q441 -401 442 -409ZM717 -762Q645 -762 593 -721Q517 -624 513 -428Q594 -482 622 -511Q711 -602 730 -737Q731 -742 731 -753V-763Q729 -763 723.5 -762.5Q718 -762 717 -762ZM153 -132Q134 -106 126 -74Q126 -49 142 -11Q162 -13 180 -26Q200 -51 238 -121Q262 -168 277 -185L301 -232Q205 -176 153 -132Z"/>
	<path fill="#800080" d="M101 -531Q86 -585 86 -664Q86 -668 86 -677.5Q86 -687 86 -692Q86 -695 87 -698Q95 -729 122.5 -752Q150 -775 183 -788Q221 -801 273 -801Q335 -801 363 -773Q375 -760 388 -732Q402 -701 418 -687Q425 -681 427 -672L439 -588Q439 -586 439 -584Q439 -583 439 -583L433 -454Q433 -450 431 -446L401 -363Q420 -374 436 -384Q436 -397 437 -411Q437 -523 462 -611Q489 -705 542 -758Q606 -822 702 -822Q705 -822 714 -823Q723 -824 729 -824Q753 -824 765 -812Q775 -802 775 -788Q775 -783 775.5 -771Q776 -759 776 -753Q776 -742 775 -733Q765 -667 738.5 -609Q712 -551 670 -505Q628 -459 585.5 -425Q543 -391 487 -356Q491 -288 517 -224.5Q543 -161 586 -118Q649 -55 733 -51Q746 -50 757 -50Q805 -50 822 -66Q834 -78 836 -104Q827 -110 807 -122L776 -127Q767 -129 761 -136Q755 -143 755 -152Q755 -162 762.5 -169.5Q770 -177 780 -177Q782 -177 784 -177L820 -171Q825 -170 829.5 -167Q834 -164 844.5 -157.5Q855 -151 861 -148Q877 -137 882 -130Q886 -123 886 -116Q886 -60 857 -31Q837 -11 805 -5Q785 0 758 0Q747 0 731 -1Q668 -4 615 -33.5Q562 -63 526.5 -109.5Q491 -156 468.5 -211.5Q446 -267 439 -327Q417 -314 375 -290L368 -272Q368 -271 367 -270L319 -174Q318 -171 316 -169Q306 -157 280 -109Q232 -20 200 12Q161 50 120 50Q104 50 90 37Q75 21 63 -14Q50 -52 50 -74Q50 -77 51 -80Q64 -135 106 -173V-174Q138 -201 179.5 -230Q221 -259 251.5 -277Q282 -295 334 -325L383 -460L389 -583L379 -656Q359 -675 342 -711Q333 -732 327 -738Q314 -751 273 -751Q230 -751 200 -740Q170 -730 151 -710Q140 -699 136 -688Q136 -685 136 -676.5Q136 -668 136 -664Q136 -589 150 -540Q151 -537 151 -533Q151 -531 151 -528Q151 -526 151 -524Q151 -514 143.5 -506.5Q136 -499 126 -499Q115 -499 107.5 -507.5Q100 -516 100 -528Q100 -530 101 -531ZM725 -774Q722 -773 714.5 -772.5Q707 -772 702 -772Q626 -772 577 -723Q533 -679 510 -597Q488 -518 487 -416Q560 -464 608 -511Q707 -610 725 -741Q726 -745 726 -753Q726 -759 725 -774ZM100 -72Q103 -52 110 -30Q117 -11 125 0Q143 -3 164 -24Q191 -51 236 -133Q263 -183 276 -199L300 -247Q196 -186 140 -136Q110 -110 100 -72Z"/>
	<path fill="#daa520" d="M140 -528Q140 -527 140.5 -526Q141 -525 141 -524Q141 -519 136 -519Q130 -519 130 -528Q130 -530 131 -533Q116 -586 116 -664Q116 -668 116 -677.5Q116 -687 116 -692Q116 -693 116 -693Q123 -719 147 -738.5Q171 -758 200 -769Q234 -781 283 -781Q326 -781 348 -767Q365 -757 380 -724Q396 -688 415 -672Q417 -671 417 -669L429 -585Q429 -584 429 -584L423 -455Q423 -454 423 -453L374 -319Q433 -352 466 -372Q466 -378 466 -382Q466 -396 467 -410Q467 -451 471 -490.5Q475 -530 484 -576.5Q493 -623 511.5 -661.5Q530 -700 555.5 -732.5Q581 -765 621.5 -783.5Q662 -802 712 -802Q716 -802 725 -803Q734 -804 739 -804Q765 -804 765 -788Q765 -782 765.5 -770.5Q766 -759 766 -753Q766 -743 765 -736Q756 -671 730 -615.5Q704 -560 662.5 -515.5Q621 -471 578 -437Q535 -403 476 -367Q479 -306 497.5 -248Q516 -190 549 -142.5Q582 -95 632 -64.5Q682 -34 742 -31Q757 -30 768 -30Q811 -30 832 -42Q866 -61 866 -114Q864 -116 824 -141L789 -147Q785 -148 785 -152Q785 -157 790 -157Q790 -157 791 -157L827 -151Q828 -151 829 -150Q833 -147 845 -140Q857 -133 863 -129Q872 -123 874 -120Q876 -118 876 -116Q876 -55 837 -34Q813 -20 768 -20Q756 -20 742 -21Q680 -24 628 -55Q576 -86 542.5 -134.5Q509 -183 489.5 -241.5Q470 -300 467 -361Q435 -342 369 -304L360 -279Q360 -279 359 -279L311 -183Q311 -182 311 -182Q299 -168 272 -118Q257 -90 250 -77.5Q243 -65 226 -40Q209 -15 196.5 -3Q184 9 166 19.5Q148 30 130 30Q112 30 97 -8Q80 -48 80 -74Q80 -75 80 -75Q92 -124 130 -159Q161 -186 203.5 -215Q246 -244 276 -262Q306 -280 360 -311L413 -456L419 -584L407 -665Q387 -683 371 -720Q357 -750 342 -759Q323 -771 283 -771Q236 -771 204 -759Q177 -750 154.5 -731.5Q132 -713 126 -691Q126 -687 126 -677.5Q126 -668 126 -664Q126 -586 141 -534Q141 -534 141 -533Q141 -532 140.5 -530.5Q140 -529 140 -528ZM739 -794Q735 -794 725.5 -793Q716 -792 712 -792Q655 -792 611.5 -766Q568 -740 543.5 -701Q519 -662 503 -608Q487 -554 482 -507Q477 -460 477 -410Q476 -396 476 -382Q476 -381 476 -379Q533 -414 575 -447Q617 -480 656.5 -524Q696 -568 721 -621.5Q746 -675 755 -738Q756 -744 756 -753Q756 -759 755.5 -770.5Q755 -782 755 -788Q755 -794 739 -794ZM130 20Q149 20 168 8Q187 -4 205 -28.5Q223 -53 234.5 -72Q246 -91 264 -123Q291 -173 303 -188L350 -283L355 -296Q202 -209 136 -151Q101 -119 90 -73Q91 -49 106 -12Q119 20 130 20Z"/>
</svg>