<svg xmlns="http://www.w3.org/2000/svg" viewBox="0 -1024 1024 1024">
	<path fill="#000088" d="M399 -221Q399 -204 401 -166Q403 -128 403 -109Q403 -81 400 -60Q393 -6 367 21Q340 47 296 47Q282 47 267 45Q257 47 249 47Q224 47 207 30Q181 4 181 -73Q181 -75 181 -77Q181 -107 190 -137Q199 -167 207 -184Q215 -201 232 -231Q248 -259 256 -274Q257 -278 260 -280L307 -329Q274 -387 228 -408Q214 -415 214 -431Q214 -444 220 -460Q226 -475 238 -494Q254 -520 295.5 -572Q337 -624 351 -645Q369 -671 374 -687Q384 -720 399 -758Q336 -733 326 -731Q308 -726 296 -726Q290 -726 284 -727Q258 -727 214.5 -737.5Q171 -748 155 -750Q160 -725 162 -713Q162 -712 162 -710Q162 -700 154.5 -692.5Q147 -685 137 -685Q128 -685 120.5 -691.5Q113 -698 112 -707Q111 -718 106.5 -740Q102 -762 100 -772Q100 -774 100 -776Q100 -786 107.5 -793.5Q115 -801 125 -801Q127 -801 130 -801Q131 -801 134.5 -801Q138 -801 140 -801Q168 -801 219 -788Q265 -777 287 -777Q288 -777 290.5 -776.5Q293 -776 295 -776Q303 -776 313 -779Q326 -783 359 -796.5Q392 -810 407 -813Q417 -816 424 -816Q441 -816 450 -806Q460 -796 460 -782Q460 -773 456 -761Q452 -751 445 -738Q431 -703 422 -673Q415 -649 393 -617Q378 -596 336.5 -544Q295 -492 280 -468Q271 -454 267 -444Q311 -418 343 -367L395 -421Q395 -422 396 -422L438 -461Q445 -468 455 -468Q465 -468 472.5 -460.5Q480 -453 480 -443Q480 -432 472 -425L431 -386L368 -320Q386 -280 398 -227Q399 -224 399 -221ZM271 -5Q286 -2 297 -2Q319 -2 331 -14Q346 -29 351 -66Q353 -84 353 -109Q353 -127 351 -164Q349 -201 349 -218Q341 -252 330 -281L299 -248Q291 -234 276 -207Q260 -178 252 -162.5Q244 -147 237.5 -123.5Q231 -100 231 -76Q231 -17 242 -6Q245 -3 249 -3Q250 -3 256.5 -4.5Q263 -6 266 -6Q269 -6 271 -5Z"/>
	<path fill="#800080" d="M349 -221Q349 -204 351 -166Q353 -128 353 -109Q353 -81 350 -60Q343 -6 317 21Q290 47 246 47Q232 47 217 45Q207 47 199 47Q174 47 157 30Q131 4 131 -73Q131 -75 131 -77Q131 -107 140 -137Q149 -167 157 -184Q165 -201 182 -231Q198 -259 206 -274Q207 -278 210 -280L257 -329Q224 -387 178 -408Q164 -415 164 -431Q164 -444 170 -460Q176 -475 188 -494Q204 -520 245.5 -572Q287 -624 301 -645Q319 -671 324 -687Q334 -720 349 -758Q286 -733 276 -731Q258 -726 246 -726Q240 -726 234 -727Q208 -727 164.5 -737.5Q121 -748 105 -750Q110 -725 112 -713Q112 -712 112 -710Q112 -700 104.5 -692.5Q97 -685 87 -685Q78 -685 70.5 -691.5Q63 -698 62 -707Q61 -718 56.5 -740Q52 -762 50 -772Q50 -774 50 -776Q50 -786 57.5 -793.5Q65 -801 75 -801Q77 -801 80 -801Q81 -801 84.5 -801Q88 -801 90 -801Q118 -801 169 -788Q215 -777 237 -777Q238 -777 240.5 -776.5Q243 -776 245 -776Q253 -776 263 -779Q276 -783 309 -796.5Q342 -810 357 -813Q367 -816 374 -816Q391 -816 400 -806Q410 -796 410 -782Q410 -773 406 -761Q402 -751 395 -738Q381 -703 372 -673Q365 -649 343 -617Q328 -596 286.5 -544Q245 -492 230 -468Q221 -454 217 -444Q261 -418 293 -367L345 -421Q345 -422 346 -422L388 -461Q395 -468 405 -468Q415 -468 422.5 -460.5Q430 -453 430 -443Q430 -432 422 -425L381 -386L318 -320Q336 -280 348 -227Q349 -224 349 -221ZM221 -5Q236 -2 247 -2Q269 -2 281 -14Q296 -29 301 -66Q303 -84 303 -109Q303 -127 301 -164Q299 -201 299 -218Q291 -252 280 -281L249 -248Q241 -234 226 -207Q210 -178 202 -162.5Q194 -147 187.5 -123.5Q181 -100 181 -76Q181 -17 192 -6Q195 -3 199 -3Q200 -3 206.5 -4.5Q213 -6 216 -6Q219 -6 221 -5Z"/>
	<path fill="#daa520" d="M389 -221Q389 -203 391 -165Q393 -127 393 -109Q393 -80 390 -58.5Q387 -37 378 -16Q369 5 351 16.5Q333 28 307 28Q293 28 276 24Q267 27 259 27Q242 27 231.5 17.5Q221 8 217 -10.5Q213 -29 212 -41.5Q211 -54 211 -74V-75Q211 -102 219 -130.5Q227 -159 235.5 -176.5Q244 -194 260.5 -223.5Q277 -253 284 -265Q284 -266 284 -266L341 -326Q304 -400 247 -426Q244 -428 244 -431Q244 -447 258 -472Q272 -497 284 -512.5Q296 -528 324 -563Q393 -649 403 -681.5Q413 -714 427 -751Q427 -751 428 -751Q440 -773 440 -782Q440 -786 435 -786Q424 -786 383 -769Q327 -746 306 -746Q301 -746 296 -747Q272 -747 223 -759Q174 -771 150 -771Q149 -771 145.5 -771Q142 -771 141 -771Q142 -763 146 -742.5Q150 -722 152 -711Q152 -710 152 -710Q152 -705 147 -705Q143 -705 142 -709Q141 -721 136.5 -742.5Q132 -764 130 -775Q130 -775 130 -776Q130 -781 135 -781Q136 -781 137 -781Q138 -781 138 -781Q140 -781 144 -781Q148 -781 150 -781Q175 -781 224 -769Q273 -757 297 -757Q298 -757 301 -756.5Q304 -756 306 -756Q325 -756 379 -778Q422 -796 435 -796Q450 -796 450 -782Q450 -770 437 -747Q423 -710 413 -679Q408 -662 393.5 -639.5Q379 -617 367.5 -602Q356 -587 332 -557Q257 -464 254 -434Q311 -406 349 -334L419 -407L420 -408L462 -447Q463 -448 465 -448Q470 -448 470 -443Q470 -441 468 -439L427 -400L354 -324Q375 -280 389 -222Q389 -222 389 -221ZM383 -109Q383 -127 381 -165Q379 -203 379 -220Q366 -275 346 -316L292 -260Q284 -245 269 -217Q252 -187 244 -170.5Q236 -154 228.5 -128Q221 -102 221 -75Q221 -56 222 -43Q223 -30 226.5 -14.5Q230 1 238 9Q246 17 259 17Q266 17 275 14Q275 14 276 14Q277 14 277 14Q293 18 307 18Q351 18 367 -15.5Q383 -49 383 -109Z"/>
</svg>