<svg xmlns="http://www.w3.org/2000/svg" viewBox="0 -1024 1024 1024">
	<path fill="#000088" d="M117 -340Q132 -389 155 -412Q174 -431 197 -431Q220 -431 239 -412Q262 -389 277 -340Q294 -281 294 -205Q294 -129 277 -70Q262 -21 239 2Q220 21 197 21Q174 21 155 2Q132 -21 117 -70Q100 -129 100 -205Q100 -281 117 -340ZM165 -85Q176 -48 190 -33Q195 -29 197 -29Q199 -29 204 -33Q218 -48 229 -85Q244 -137 244 -205Q244 -273 229 -325Q218 -362 204 -377Q199 -381 197 -381Q195 -381 190 -377Q176 -362 165 -325Q150 -273 150 -205Q150 -137 165 -85Z"/>
	<path fill="#800080" d="M67 -340Q82 -389 105 -412Q124 -431 147 -431Q170 -431 189 -412Q212 -389 227 -340Q244 -281 244 -205Q244 -129 227 -70Q212 -21 189 2Q170 21 147 21Q124 21 105 2Q82 -21 67 -70Q50 -129 50 -205Q50 -281 67 -340ZM115 -85Q126 -48 140 -33Q145 -29 147 -29Q149 -29 154 -33Q168 -48 179 -85Q194 -137 194 -205Q194 -273 179 -325Q168 -362 154 -377Q149 -381 147 -381Q145 -381 140 -377Q126 -362 115 -325Q100 -273 100 -205Q100 -137 115 -85Z"/>
	<path fill="#daa520" d="M166 -381Q185 -411 207 -411Q229 -411 248 -381Q284 -322 284 -205Q284 -88 248 -29Q229 1 207 1Q185 1 166 -29Q130 -88 130 -205Q130 -322 166 -381ZM165 -53Q184 -9 207 -9Q230 -9 249 -53Q274 -112 274 -205Q274 -298 249 -357Q230 -401 207 -401Q184 -401 165 -357Q140 -298 140 -205Q140 -112 165 -53Z"/>
</svg>