<svg xmlns="http://www.w3.org/2000/svg" viewBox="0 -1024 1024 1024">
	<path fill="#111111" d="M118 -199Q118 -144 136 -99Q260 -149 320 -223Q333 -257 333 -295Q333 -314 330 -333Q331 -339 331 -345Q331 -357 326 -367Q315 -368 301 -369Q272 -384 244 -384Q188 -384 144 -328Q118 -267 118 -199ZM439 -159Q439 -131 425 -107L403 -68Q412 -66 422 -66Q426 -66 430 -63L472 -39H473H479L518 -57L555 24Q545 28 525.5 37.5Q506 47 496 51H490Q482 51 474 46L435 24Q411 24 391 12L356 -8Q300 37 219 37Q186 37 157 27Q156 27 154 27Q146 27 138 23L110 7Q68 21 25 30L5 -60Q28 -65 48 -70Q32 -115 32 -168Q32 -258 73 -330L108 -391Q156 -474 227 -474Q255 -474 284 -459Q322 -458 342 -446L394 -416Q418 -403 418 -376Q418 -370 417 -363Q420 -344 420 -326Q420 -285 405 -248L429 -234Q434 -231 437 -189Q437 -184 438 -174.5Q439 -165 439 -159ZM297 -73Q294 -80 293 -88Q275 -73 253 -59Q276 -64 297 -73Z"/>
	<path fill="#800080" d="M95 -183Q95 -128 113 -83Q212 -119 273 -172Q326 -234 326 -311Q326 -329 323 -348Q324 -355 324 -360.5Q324 -366 323 -372Q304 -378 277 -379Q248 -394 220 -394Q185 -394 154 -371Q126 -335 110.5 -285Q95 -235 95 -183ZM196 -44Q251 -44 299 -67Q288 -87 285 -112Q245 -74 186 -44Q191 -44 196 -44ZM416 -143Q416 -99 381 -65L379 -63Q396 -56 415 -56Q421 -56 435 -45Q455 -29 466 -29H472L511 -47Q517 -50 524 -50Q538 -50 547.5 -40.5Q557 -31 557 -18Q557 2 538 11L472 41H466Q455 41 435 26Q421 14 415 14Q375 14 350 -11L338 -23Q282 27 196 27Q162 27 133 17Q132 17 131 17Q117 17 107 7L94 -6Q49 10 1 20Q-3 21 -6 21Q-21 21 -31 11Q-41 1 -41 -13Q-41 -26 -33 -35.5Q-25 -45 -14 -47Q26 -56 51 -63Q50 -65 50 -66Q24 -117 24 -183Q24 -243 44.5 -299.5Q65 -356 100 -390L135 -426Q174 -464 220 -464Q248 -464 277 -449Q327 -448 346 -428L382 -393Q394 -380 394 -360Q394 -355 393 -348Q396 -329 396 -311Q396 -274 384 -241L407 -218Q411 -214 413 -173Q414 -168 415 -159Q416 -150 416 -143Z"/>
	<path fill="#daa520" d="M69 -183Q69 -118 94 -68Q102 -49 103 -48Q154 -66 197 -89.5Q240 -113 278.5 -144.5Q317 -176 338.5 -219Q360 -262 360 -311Q360 -329 357 -347Q357 -348 357 -348Q357 -348 357 -349Q358 -355 358 -360Q358 -407 281 -409Q280 -409 279 -410Q251 -424 224 -424Q181 -424 145 -389Q109 -354 89 -298.5Q69 -243 69 -183ZM380 -143Q380 -149 378.5 -158.5Q377 -168 377 -173Q375 -203 373 -213Q351 -200 339.5 -176.5Q328 -153 328 -126Q328 -92 344 -66Q380 -100 380 -143ZM137 -23Q138 -23 139 -23Q167 -13 200 -13Q282 -13 337 -60Q318 -89 318 -126Q318 -157 332 -183.5Q346 -210 372 -223Q373 -224 374 -224Q379 -224 381 -218Q385 -209 387 -174Q387 -169 388.5 -159.5Q390 -150 390 -143Q390 -95 350 -58Q375 -26 419 -26Q427 -26 443 -13Q460 1 470 1H475L513 -17Q514 -17 515 -17Q520 -17 520 -12Q520 -9 517 -7L478 11Q477 11 476 11H470Q457 11 436 -6Q424 -16 419 -16Q371 -16 343 -51Q285 -3 200 -3Q166 -3 136 -13Q136 -13 135 -13Q113 -13 99 -36Q54 -21 6 -10Q6 -10 5 -10Q0 -10 0 -15Q0 -19 4 -20Q50 -30 94 -45Q91 -49 88 -56Q85 -63 84 -64Q59 -116 59 -183Q59 -245 79.5 -302Q100 -359 138.5 -396.5Q177 -434 224 -434Q253 -434 282 -419Q368 -417 368 -360Q368 -354 367 -348Q370 -329 370 -311Q370 -260 348 -215.5Q326 -171 286.5 -138Q247 -105 203.5 -81Q160 -57 108 -39Q120 -23 135 -23Q135 -23 136 -23Q137 -23 137 -23Z"/>
</svg>