<svg xmlns="http://www.w3.org/2000/svg" viewBox="0 -1024 1024 1024">
	<path fill="#111111" d="M345 -238Q345 -255 342 -275Q332 -332 318 -353Q301 -356 280 -356Q231 -356 202 -332Q192 -293 192 -206Q197 -188 203 -169Q305 -181 343 -212Q345 -224 345 -238ZM277 -41Q282 -41 287 -41Q366 -53 416 -107Q405 -135 395 -169L383 -148Q366 -118 330 -103.5Q294 -89 240 -81Q253 -57 268 -41Q273 -41 277 -41ZM434 -477L435 -431Q449 -330 455 -300Q452 -376 434 -477ZM388 -816Q391 -816 395 -814L447 -784Q471 -770 480 -716Q486 -680 504 -595Q522 -510 532 -443.5Q542 -377 543 -314Q545 -209 506 -132Q527 -79 549 -50Q557 -51 565.5 -53Q574 -55 584.5 -59Q595 -63 600 -64L636 -136L693 -107L657 -35Q627 24 622 25Q616 27 604 31Q592 35 582 37.5Q572 40 562 40Q551 40 540 34L488 4Q469 -7 450 -37Q398 36 304 49Q299 50 294 50Q276 50 259 40L207 10Q172 -10 143 -70Q76 -62 40 -46L5 -129L23 -137Q56 -151 110 -158Q107 -167 105 -176Q105 -214 106 -237Q107 -260 112.5 -288.5Q118 -317 129 -336L164 -397Q193 -446 263 -446Q307 -446 331 -432L347 -423L342 -614L357 -755Q360 -779 369 -797.5Q378 -816 388 -816Z"/>
	<path fill="#800080" d="M241 -366Q203 -366 178 -352Q162 -324 157.5 -286.5Q153 -249 153 -191Q158 -174 163 -157Q269 -169 309 -193Q323 -218 323 -253Q323 -270 320 -290Q312 -336 303 -355Q280 -366 241 -366ZM255 -31Q260 -31 265 -31Q326 -40 370 -75Q385 -93 396 -116Q384 -146 373 -183Q369 -178 364 -174L329 -139Q293 -103 189 -90Q202 -63 216 -43Q235 -31 255 -31ZM391 -593L396 -416Q398 -407 401 -383Q404 -359 405 -351.5Q406 -344 409 -326Q412 -308 414.5 -296.5Q417 -285 421 -267.5Q425 -250 430 -232Q434 -264 434 -299Q431 -398 391 -593ZM363 -807Q372 -807 380 -799L415 -763Q434 -744 441 -701Q447 -665 465 -579.5Q483 -494 493 -428Q503 -362 504 -299Q504 -191 467 -116Q485 -73 503 -46Q513 -40 523 -40Q537 -40 562 -49L598 -120Q607 -137 626 -137Q639 -137 648.5 -128Q658 -119 658 -106Q658 -98 654 -92L618 -20Q603 10 583 15Q577 17 565 21Q553 25 543 27.5Q533 30 523 30Q504 30 485 11L450 -24Q438 -36 425 -57Q425 -56 389 -20Q340 29 265 39Q260 40 255 40Q225 40 198 13L162 -23Q141 -44 122 -82Q40 -73 1 -56Q-5 -54 -12 -54Q-25 -54 -34.5 -63.5Q-44 -73 -44 -86Q-44 -108 -24 -116L1 -127Q35 -141 95 -149Q88 -170 83 -191Q83 -236 84.5 -263Q86 -290 95.5 -322Q105 -354 123 -372L158 -407Q187 -436 241 -436Q299 -436 323 -412L327 -408L326 -416L320 -629L335 -770Q336 -785 344.5 -796Q353 -807 363 -807Z"/>
	<path fill="#daa520" d="M357 -253Q357 -270 354 -289Q345 -343 332 -362Q311 -396 245 -396Q221 -396 202.5 -390Q184 -384 171.5 -374.5Q159 -365 150.5 -348.5Q142 -332 137.5 -317Q133 -302 130.5 -278Q128 -254 127.5 -236.5Q127 -219 127 -192Q136 -157 148 -125Q173 -128 184.5 -129Q196 -130 218 -133.5Q240 -137 251 -140Q262 -143 279.5 -148.5Q297 -154 306 -160Q315 -166 326.5 -175Q338 -184 343.5 -195.5Q349 -207 353 -221.5Q357 -236 357 -253ZM468 -299Q466 -362 456.5 -428Q447 -494 429 -579Q411 -664 405 -700Q401 -723 392 -741Q386 -755 378 -761L364 -629L370 -416L382 -330Q398 -228 436 -129Q468 -199 468 -299ZM141 -114Q47 -104 7 -87Q6 -87 5 -87Q0 -87 0 -92Q0 -95 3 -96Q45 -114 138 -124Q126 -155 117 -190Q117 -190 117 -191Q117 -219 117.5 -236Q118 -253 120.5 -278.5Q123 -304 128 -319.5Q133 -335 142.5 -353.5Q152 -372 165 -382Q178 -392 198.5 -399Q219 -406 245 -406Q316 -406 341 -368Q355 -346 364 -291Q367 -271 367 -253Q367 -235 363 -219Q359 -203 353 -191Q347 -179 334.5 -169Q322 -159 312.5 -152Q303 -145 284.5 -139Q266 -133 254.5 -130Q243 -127 221 -123.5Q199 -120 187.5 -119Q176 -118 152 -115Q165 -81 181 -57Q217 0 259 0Q264 0 268 -1Q379 -17 430 -116Q389 -218 372 -328L360 -415V-416L354 -629V-630L369 -771Q370 -775 374 -775Q375 -775 376 -775Q391 -768 401 -746Q411 -724 415 -702Q421 -666 439 -580.5Q457 -495 466.5 -428.5Q476 -362 478 -299Q478 -191 441 -116Q485 -10 527 -10Q536 -10 545.5 -12.5Q555 -15 566.5 -19Q578 -23 584 -24L619 -94Q620 -97 623 -97Q628 -97 628 -92Q628 -90 627 -89L591 -18Q590 -16 588 -15Q582 -14 570 -9.5Q558 -5 547.5 -2.5Q537 0 527 0Q522 -6 502 -22Q482 -38 464 -58.5Q446 -79 435 -105Q381 -7 270 9Q264 10 259 10Q191 10 141 -114Z"/>
</svg>