<svg xmlns="http://www.w3.org/2000/svg" viewBox="0 -1024 1024 1024">
	<path fill="#111111" d="M246 -99Q246 -102 246 -104Q235 -109 226 -114Q232 -82 241 -53Q241 -51 244 -41Q244 -46 244.5 -57Q245 -68 245 -74Q245 -78 245.5 -86.5Q246 -95 246 -99ZM130 -227Q130 -230 131 -232Q132 -276 132 -284Q132 -304 131 -345.5Q130 -387 130 -408Q130 -497 142 -557Q142 -557 142 -558Q142 -562 141.5 -571.5Q141 -581 141 -585Q141 -601 144 -611Q148 -661 161 -683L196 -743Q199 -749 203 -753Q210 -753 216 -750L268 -720Q289 -708 289 -652Q289 -641 287.5 -619Q286 -597 286 -587Q286 -582 287 -579Q289 -547 289 -515Q289 -377 239 -272L273 -252Q293 -241 317 -199Q326 -181 329 -162L363 -153L455 -138L442 -53L380 -63L331 -75Q329 -52 321 -37Q319 -34 315.5 -27Q312 -20 310 -16L275 44Q261 69 242 69Q237 69 233 67L181 37Q175 34 170.5 26Q166 18 163.5 11.5Q161 5 158 -7Q155 -19 154 -23Q142 -62 136 -109Q98 -68 50 -39L5 -113L33 -129Q89 -163 130 -213Q130 -217 130 -223Q130 -223 130 -225Q130 -227 130 -227Z"/>
	<path fill="#800080" d="M238 -637Q238 -626 236.5 -603.5Q235 -581 235 -571Q235 -567 235 -564Q238 -531 238 -500Q238 -370 193 -268Q197 -265 201 -261L236 -225Q249 -213 265 -184Q272 -170 276 -156L328 -143L401 -132Q414 -130 422 -120Q430 -110 430 -97Q430 -83 420 -72.5Q410 -62 396 -62Q393 -62 390 -63L328 -73L281 -84Q281 -38 267 -18Q257 5 248 14L213 49Q203 59 190 59Q182 59 176 53L141 18Q136 13 132.5 5.5Q129 -2 127 -8Q125 -14 122.5 -24Q120 -34 119 -38Q105 -81 100 -134L73 -107Q40 -74 -2 -49Q-9 -44 -18 -44Q-30 -44 -39 -53Q-48 -62 -48 -75Q-48 -92 -33 -100L-2 -119Q29 -138 55 -161Q77 -186 95 -216Q95 -218 95 -219Q95 -223 95 -228Q95 -233 95 -238Q95 -239 95 -240.5Q95 -242 95 -243Q95 -246 96 -247Q97 -291 97 -299Q97 -320 96 -361.5Q95 -403 95 -423Q95 -512 107 -572Q107 -573 107 -573Q107 -578 106.5 -587Q106 -596 106 -600Q106 -616 109 -626Q114 -686 133 -708Q162 -743 168 -743Q180 -743 187 -736L222 -700Q238 -685 238 -637ZM195 -15Q196 -17 197 -18Q210 -38 210 -89Q210 -102 210 -108Q203 -111 186 -128Q183 -131 177 -135.5Q171 -140 170 -140Q175 -84 189 -38Q190 -34 192 -26.5Q194 -19 195 -15ZM183 -203Q181 -204 178 -205Q182 -202 185 -200Q184 -202 183 -203Z"/>
	<path fill="#daa520" d="M154 -573Q154 -572 154 -571Q143 -512 143 -423Q143 -403 143.5 -361.5Q144 -320 144 -299Q144 -284 143 -253Q147 -253 152 -251Q205 -358 205 -500Q205 -531 202 -564Q202 -567 202 -571Q202 -581 203 -603.5Q204 -626 204 -637Q204 -700 177 -703Q161 -682 156 -626Q156 -625 156 -625Q153 -615 153 -600Q153 -596 153.5 -587Q154 -578 154 -573ZM143 -235Q145 -238 147 -242Q144 -243 143 -243Q143 -239 143 -235ZM248 -126L213 -139Q212 -140 211 -141Q203 -151 177.5 -169Q152 -187 143 -201Q145 -108 166 -39Q167 -35 169.5 -25Q172 -15 175 -7.5Q178 0 181 6Q188 19 197 19Q217 18 234 -20Q235 -20 235 -21Q247 -40 247 -89Q247 -90 247.5 -108Q248 -126 248 -126ZM166 -237Q162 -237 156 -239Q151 -228 145 -219Q152 -200 186 -175Q209 -159 218 -148L246 -138Q243 -160 233 -182Q200 -237 173 -237Q172 -237 169.5 -237Q167 -237 166 -237ZM132 -243Q132 -247 133 -248Q134 -289 134 -299Q134 -320 133.5 -361.5Q133 -403 133 -423Q133 -513 144 -572Q144 -573 144 -573Q144 -578 143.5 -587Q143 -596 143 -600Q143 -616 146 -627Q152 -688 171 -711Q173 -713 175 -713Q214 -713 214 -637Q214 -626 213 -603.5Q212 -581 212 -571Q212 -567 212 -564Q215 -532 215 -500Q215 -357 161 -248Q164 -247 165.5 -247Q167 -247 169.5 -247Q172 -247 173 -247Q185 -247 195.5 -241.5Q206 -236 215.5 -224.5Q225 -213 229.5 -206Q234 -199 241 -186Q241 -186 242 -186Q254 -161 257 -134L264 -131L336 -113L398 -103Q402 -102 402 -98Q402 -93 397 -93Q397 -93 396 -93L334 -103L262 -121Q262 -121 258 -123Q258 -118 258 -114Q258 -101 257.5 -87Q257 -73 257 -61.5Q257 -50 253.5 -38Q250 -26 243 -16Q238 -3 233.5 4.5Q229 12 219 20.5Q209 29 197 29Q182 29 172 11Q168 4 165.5 -3.5Q163 -11 160 -21.5Q157 -32 156 -37Q135 -106 133 -199Q84 -126 8 -80Q6 -79 5 -79Q0 -79 0 -84Q0 -87 2 -88Q83 -137 133 -217Q133 -218 133 -218.5Q133 -219 133 -219Q133 -223 133 -227Q132 -232 132 -238Q132 -239 132 -240.5Q132 -242 132 -243Z"/>
</svg>