<svg xmlns="http://www.w3.org/2000/svg" viewBox="0 -1024 1024 1024">
	<path fill="#111111" d="M51 -47L5 -119L34 -137Q44 -144 59.5 -161.5Q75 -179 80 -183Q82 -186 85 -189L100 -234L170 -211L162 -187Q155 -166 127 -127Q113 -108 97 -93Q92 -88 76.5 -70.5Q61 -53 51 -47ZM304 -61Q298 -61 286 -61.5Q274 -62 268 -62Q255 -62 247 -61Q209 -56 190 -56Q167 -56 154 -63L102 -93Q87 -102 82 -124Q77 -146 77 -191Q77 -193 77 -195Q77 -259 112 -321L147 -381Q192 -459 254 -459Q280 -459 306 -444L358 -414Q365 -410 372 -405Q377 -402 385.5 -385Q394 -368 400 -352L406 -337L412 -207L411 -158L418 -155Q417 -153 411 -143L410 -80L422 -100Q424 -104 441 -122L449 -137L502 -107L459 -33Q450 -23 444 -16L433 3Q423 21 403 33Q401 53 390 127L372 179Q368 188 337 239Q320 266 297 266Q293 266 289 265Q283 266 278 266Q254 266 237 256L185 226Q166 215 161 195Q142 165 142 138Q142 134 143 129Q143 106 152 89L187 28Q194 17 204 8.5Q214 0 230.5 -6.5Q247 -13 258 -16Q269 -19 292 -24.5Q315 -30 323 -32V-62Q315 -61 304 -61ZM280 176Q289 176 298 171L303 157Q315 84 316 64Q252 79 230 93Q230 96 230 99Q229 103 229 108Q229 135 248 165Q249 170 251 175Q256 175 261.5 175Q267 175 272 175Q276 176 280 176ZM287 -152Q310 -152 324 -155L325 -177L319 -307Q303 -347 291 -366Q281 -368 271 -368Q223 -368 183 -319Q163 -270 163 -225Q163 -223 164 -221Q164 -168 171 -146Q172 -146 173 -146Q192 -146 230 -151Q238 -152 251 -152Q257 -152 269 -152Q281 -152 287 -152Z"/>
	<path fill="#800080" d="M-16 -52Q-28 -52 -37 -61Q-46 -70 -46 -82Q-46 -99 -32 -107Q0 -127 0 -128Q4 -131 25 -152Q34 -162 41 -172L56 -217Q63 -240 88 -240Q101 -240 111 -230Q121 -220 121 -207Q121 -201 119 -196L111 -172Q101 -157 70 -126Q70 -126 62 -117Q54 -108 50 -104L15 -69Q7 -61 0 -56.5Q-7 -52 -16 -52ZM254 -71Q248 -71 236 -71.5Q224 -72 218 -72Q205 -72 196 -71Q158 -66 140 -66Q109 -66 96 -79L61 -114Q43 -132 43 -206Q43 -208 43 -210Q43 -253 61.5 -300.5Q80 -348 110 -379L146 -414Q181 -449 221 -449Q253 -449 286 -425Q287 -425 287 -424L323 -389Q328 -384 336 -367Q344 -350 350 -336L355 -322L361 -192V-176Q371 -167 371 -154Q371 -142 361 -129L360 -64L373 -78L398 -122Q407 -138 425 -138Q437 -138 446 -129Q455 -120 455 -107Q455 -99 451 -92L443 -78Q425 -58 423 -54Q417 -37 404 -25L369 11Q363 16 357 21L349 82L339 142L321 194Q316 202 311 208L275 243Q262 256 247 256Q242 256 238 255Q233 256 228 256Q194 256 174 237L139 201Q130 192 127 180Q108 150 108 123Q108 119 109 114Q109 80 129 59L165 24Q174 15 191 7Q208 -1 218.5 -4.5Q229 -8 256 -14Q283 -20 289 -22V-74Q275 -71 254 -71ZM247 186Q250 186 254 185L269 142Q281 68 282 50Q277 52 258 56.5Q239 61 230.5 63Q222 65 208.5 69.5Q195 74 186 79Q179 94 179 114Q179 119 179 123Q179 150 197 180Q211 185 228 185Q233 185 238 185Q242 186 247 186ZM254 -142Q276 -142 290 -145L291 -192L285 -322Q275 -347 265 -367Q243 -378 221 -378Q191 -378 164 -359Q141 -328 127 -287Q113 -246 113 -210Q113 -208 113 -206Q113 -159 119 -138Q128 -136 140 -136Q158 -136 196 -141Q205 -142 218 -142Q224 -142 236 -142Q248 -142 254 -142Z"/>
	<path fill="#daa520" d="M5 -87Q0 -87 0 -92Q0 -95 2 -96Q12 -102 27.5 -119.5Q43 -137 48 -142Q64 -156 76 -174L84 -198Q85 -201 89 -201Q94 -201 94 -196Q94 -195 94 -194L86 -170Q86 -170 85 -169Q72 -150 54 -134Q50 -130 34.5 -112.5Q19 -95 8 -88Q6 -87 5 -87ZM259 -102Q253 -102 241 -102Q229 -102 223 -102Q210 -102 202 -101Q164 -96 145 -96Q100 -96 87 -126Q78 -149 78 -206Q78 -208 78 -210Q78 -254 96 -301.5Q114 -349 149 -384Q184 -419 226 -419Q260 -419 294 -394Q301 -389 314 -360Q330 -327 330 -322L336 -192V-145Q336 -145 337 -145Q342 -145 342 -140Q342 -139 342 -138Q339 -132 335 -128L334 -5Q375 -23 388 -56Q391 -62 409 -81L417 -94Q418 -97 421 -97Q426 -97 426 -92Q426 -91 425 -90L417 -76Q417 -75 413 -70.5Q409 -66 404.5 -60.5Q400 -55 398 -52Q382 -13 333 6L324 83L314 143Q314 143 314 144L296 196Q296 196 295 197Q277 226 252 226Q247 226 243 225Q238 226 233 226Q208 226 188 214.5Q168 203 162 182Q144 151 144 123Q144 118 144 114Q144 93 152 77.5Q160 62 169.5 52.5Q179 43 198.5 35Q218 27 230 24Q242 21 266 15Q305 6 324 -1Q324 -23 324.5 -65Q325 -107 325 -117Q305 -102 259 -102ZM252 216Q271 216 286 192L304 141L314 81L323 10Q306 16 268 25Q244 30 232 33.5Q220 37 202.5 44Q185 51 176 59.5Q167 68 160.5 82Q154 96 154 114Q154 116 154 119Q154 122 154 123Q154 149 171 177Q172 178 172 179Q177 196 194 206Q211 216 233 216Q235 216 238 215.5Q241 215 242.5 215Q244 215 247 215.5Q250 216 252 216ZM88 -206Q88 -151 97 -130Q102 -117 113 -111.5Q124 -106 145 -106Q163 -106 200 -111Q209 -112 223 -112Q229 -112 241 -112Q253 -112 259 -112Q308 -112 325 -131L326 -192L320 -321Q313 -340 305 -356Q293 -382 288 -386Q257 -409 226 -409Q189 -409 156 -376.5Q123 -344 105.5 -298.5Q88 -253 88 -210Q88 -209 88 -208Q88 -207 88 -206Z"/>
</svg>