<svg xmlns="http://www.w3.org/2000/svg" viewBox="0 -1024 1024 1024">
	<path fill="#111111" d="M121 -471Q119 -479 113.5 -508.5Q108 -538 105.5 -552Q103 -566 99 -590Q95 -614 93.5 -633Q92 -652 92 -670Q92 -728 113 -764L148 -824Q150 -828 152 -831Q153 -831 153 -831L205 -801Q213 -797 213 -735Q213 -723 212.5 -707.5Q212 -692 212 -686V-685Q214 -652 214 -619Q214 -560 208 -502Q222 -428 222 -389Q222 -383 222 -376Q245 -406 274.5 -426.5Q304 -447 330 -447Q342 -444 352 -438L404 -408Q453 -380 453 -303Q453 -294 452 -285Q453 -277 453 -270Q453 -241 439 -217L404 -156Q391 -133 368.5 -119.5Q346 -106 319 -106Q309 -106 299 -108Q310 -85 314 -79Q320 -64 329 -53Q352 -47 382 -47Q407 -47 425 -72L459 -140L516 -111L502 -84Q482 -44 467 -23Q463 -17 454.5 -2.5Q446 12 440.5 20.5Q435 29 424 36Q413 43 399 43Q347 43 317 26L265 -4Q248 -14 237 -30Q236 -18 235 -16L200 45L148 15Q144 13 144 -45Q144 -88 147 -139Q146 -154 146 -169Q143 -175 143 -181Q143 -188 144 -194Q143 -208 142 -223Q120 -165 92 -109L94 -102L7 -73L5 -79Q99 -265 121 -471ZM366 -272Q366 -325 341 -356Q294 -352 248 -296Q245 -287 244 -279Q240 -247 238 -215L245 -211Q248 -209 254 -199Q260 -199 266 -199Q273 -199 280 -199Q291 -197 302 -197Q337 -197 364 -219Q366 -229 366 -239Q366 -247 365 -255Q366 -263 366 -272Z"/>
	<path fill="#800080" d="M156 -720Q156 -708 155.5 -692.5Q155 -677 155 -670Q157 -637 157 -604Q157 -545 151 -487Q165 -412 165 -374Q165 -364 166 -353Q168 -355 205 -392Q250 -437 290 -437Q313 -431 329 -415L365 -380Q396 -348 396 -287Q396 -279 395 -270Q396 -262 396 -254Q396 -210 366 -180L331 -145Q302 -116 262 -116Q251 -116 240 -119Q235 -118 230 -118Q252 -71 257 -64Q259 -59 262 -54Q292 -37 342 -37Q350 -37 358 -40Q372 -64 375 -68L403 -124Q412 -142 431 -142Q444 -142 453.5 -132.5Q463 -123 463 -110Q463 -103 459 -96L445 -68Q442 -63 430.5 -43.5Q419 -24 411 -16L376 19Q362 33 342 33Q273 33 241 2L206 -34Q193 -46 187 -64Q185 -67 181 -74Q181 -57 181 -43Q181 -3 179 0L143 35Q143 35 143 35L107 0Q104 -4 104 -60Q104 -103 107 -155Q106 -169 105 -184Q103 -190 103 -196Q103 -201 104 -205Q102 -228 101 -251Q74 -170 35 -94Q39 -83 39 -77Q39 -64 29 -54Q19 -44 6 -44Q-19 -44 -26 -67L-35 -94Q59 -280 81 -487Q79 -494 73 -524Q67 -554 65 -567.5Q63 -581 59 -605Q55 -629 53.5 -648Q52 -667 52 -685Q52 -749 77 -786Q101 -821 112 -821Q113 -821 114 -820L149 -785Q156 -778 156 -720ZM325 -287Q325 -330 309 -359Q300 -364 290 -367Q259 -367 223 -338Q191 -298 187 -264Q184 -233 181 -203Q191 -193 193 -192Q209 -189 226 -189Q233 -189 240 -189Q251 -187 262 -187Q289 -187 311 -200Q326 -225 326 -254Q326 -262 325 -270Q325 -279 325 -287Z"/>
	<path fill="#daa520" d="M117 -777Q97 -742 97 -685Q97 -634 119 -522Q122 -563 122 -604Q122 -637 120 -670Q120 -677 120.5 -692.5Q121 -708 121 -720Q121 -761 117 -777ZM87 -685Q87 -751 113 -789Q114 -791 117 -791Q122 -791 125 -784Q127 -779 129 -769Q131 -752 131 -720Q131 -708 130.5 -692.5Q130 -677 130 -670Q132 -637 132 -604Q132 -545 126 -487Q140 -413 140 -374Q140 -341 148 -226Q150 -245 152 -265Q157 -310 204 -358.5Q251 -407 295 -407Q296 -407 296 -407Q335 -396 353 -363Q371 -330 371 -287Q371 -279 370 -270Q371 -262 371 -254Q371 -210 341 -178.5Q311 -147 267 -147Q256 -147 245 -149Q238 -148 231 -148Q231 -148 227.5 -148.5Q224 -149 219.5 -149Q215 -149 209.5 -149.5Q204 -150 198.5 -151Q193 -152 189 -153Q229 -69 231 -67Q231 -66 232 -66Q254 -7 347 -7Q359 -7 369 -14Q379 -21 384.5 -28Q390 -35 398 -50Q406 -64 411 -71L425 -98Q426 -101 429 -101Q434 -101 434 -96Q434 -95 433 -94L419 -66Q419 -65 419 -65Q415 -59 406.5 -44Q398 -29 392 -20.5Q386 -12 374 -4.5Q362 3 347 3Q248 3 223 -62Q217 -69 195 -116Q184 -141 176 -156Q162 -161 153 -168Q153 -161 152 -155Q156 -87 156 -43Q156 -20 155 -8Q154 5 148 5Q143 5 142 -1Q141 -5 141 -12Q139 -30 139 -60Q139 -103 142 -155Q141 -169 141 -183Q138 -189 138 -196Q138 -198 140 -200Q130 -351 130 -374Q130 -405 122 -453Q97 -265 10 -94Q12 -89 12 -88Q12 -83 7 -83Q3 -83 2 -86Q0 -93 0 -94Q0 -95 1 -96Q94 -282 116 -486Q114 -494 108.5 -523.5Q103 -553 100.5 -567Q98 -581 94 -605Q90 -629 88.5 -648Q87 -667 87 -685ZM245 -159Q246 -159 246 -159Q257 -157 267 -157Q306 -157 333.5 -185.5Q361 -214 361 -254Q361 -262 360 -269Q360 -270 360 -270Q360 -273 360.5 -278.5Q361 -284 361 -287Q361 -378 294 -397Q255 -397 211 -350.5Q167 -304 162 -263Q158 -232 156 -201H157Q161 -201 166 -195Q172 -187 183 -165Q205 -158 231 -158Q233 -158 238 -158.5Q243 -159 245 -159ZM169 -170Q160 -188 156 -191H155Q154 -186 154 -181Q159 -175 169 -170Z"/>
</svg>