<svg xmlns="http://www.w3.org/2000/svg" viewBox="0 -1024 1024 1024">
	<path fill="#111111" d="M28 -143Q14 -198 14 -215Q14 -232 18 -255Q26 -302 47 -338L82 -398Q111 -449 155 -457Q168 -464 184 -464Q202 -464 217 -456L269 -426Q288 -415 291 -395Q324 -368 334 -327Q335 -313 344.5 -289.5Q354 -266 355 -252Q358 -223 367 -204L373 -81L309 -78Q305 -69 301 -61L266 -1Q241 43 206 49Q197 49 178 45Q160 42 145 33L93 3Q61 -16 45 -53Q38 -50 30 -49H5V-139H13Q20 -141 28 -143ZM190 -283Q201 -310 202 -337Q195 -349 188 -359L177 -369Q175 -368 172 -367Q142 -361 118 -335Q110 -311 105 -285Q101 -263 101 -245Q101 -226 109 -196Q120 -206 139.5 -226Q159 -246 165 -251Q180 -269 190 -283ZM243 -189Q243 -210 236 -238L227 -223Q212 -197 182 -161Q176 -155 156 -135Q136 -115 125 -104Q134 -70 156 -46Q177 -41 189 -41Q211 -46 228 -64Q242 -115 242 -164Q242 -169 242 -175Q243 -182 243 -189Z"/>
	<path fill="#800080" d="M27 -135Q26 -145 17.5 -178Q9 -211 9 -230Q9 -248 13 -270Q26 -345 66 -385L101 -420Q123 -442 150 -447Q163 -454 179 -454Q206 -454 223 -438L258 -402Q267 -393 270 -381L278 -372Q304 -346 312 -312Q313 -297 322.5 -274Q332 -251 333 -237Q336 -208 345 -189L350 -92Q350 -91 350 -90Q350 -75 340 -64.5Q330 -54 315 -54Q300 -54 289 -66Q275 -34 258 -17L223 18Q205 35 184 39Q176 39 156 35Q124 29 101 6L66 -30Q49 -46 39 -69Q24 -62 8 -59H0Q-15 -59 -25 -69Q-35 -79 -35 -94Q-35 -109 -25 -119Q-15 -129 0 -129H8Q18 -131 27 -135ZM125 -206Q194 -286 197 -352Q191 -363 184 -372Q180 -377 176 -383Q162 -383 150 -377Q134 -373 120 -365Q93 -326 83 -270Q79 -248 79 -230Q80 -210 89 -173Q113 -192 125 -206ZM237 -204Q237 -225 231 -253Q218 -233 195 -206Q194 -204 158 -169Q110 -120 100 -111Q103 -77 120 -49Q137 -39 156.5 -35Q176 -31 184 -31Q195 -33 204 -39Q212 -52 221 -70Q237 -126 237 -179Q237 -184 237 -190Q237 -197 237 -204Z"/>
	<path fill="#daa520" d="M64 -121Q63 -138 53.5 -174Q44 -210 44 -230Q44 -248 48 -271Q57 -322 83.5 -365Q110 -408 153 -417Q167 -424 184 -424Q205 -424 222.5 -413Q240 -402 244 -382Q277 -355 287 -313Q287 -313 287 -312Q288 -299 297 -276Q306 -253 308 -238Q311 -209 319 -191Q320 -190 320 -189L325 -92Q325 -87 320 -87Q315 -87 315 -91L310 -188Q301 -207 298 -236Q297 -250 287.5 -273Q278 -296 277 -311Q269 -344 245 -368Q244 -362 242 -355Q242 -354 242 -353Q258 -325 264 -301Q265 -294 269.5 -278.5Q274 -263 276.5 -253.5Q279 -244 281 -230Q283 -216 283 -204Q283 -197 282 -190Q282 -184 282 -179Q282 -126 266 -69Q266 -68 266 -68Q235 0 190 9Q189 9 189 9Q180 9 160 5Q119 -3 94 -35Q69 -67 65 -110Q40 -95 14 -89Q14 -89 13 -89H5Q0 -89 0 -94Q0 -99 5 -99H12Q38 -105 64 -121ZM73 -127Q88 -138 101.5 -150Q115 -162 136 -183.5Q157 -205 161 -209Q229 -290 232 -351Q226 -362 219 -371L191 -398Q189 -400 189 -402Q189 -407 194 -407Q195 -407 195 -407Q212 -403 228 -394Q214 -414 184 -414Q169 -414 157 -408Q157 -407 156 -407Q117 -399 92 -359Q67 -319 58 -269Q54 -247 54 -230Q54 -211 63 -176.5Q72 -142 73 -127ZM272 -190Q272 -192 272.5 -197Q273 -202 273 -204Q273 -215 271 -229Q269 -243 266.5 -252Q264 -261 260 -276.5Q256 -292 254 -299Q250 -315 240 -335Q232 -278 169 -203Q169 -203 168 -202Q161 -195 146.5 -180Q132 -165 123 -156Q114 -147 100.5 -135.5Q87 -124 74 -116Q77 -74 100.5 -43.5Q124 -13 162 -5Q181 -1 189 -1Q228 -9 256 -72Q272 -127 272 -179Q272 -181 272 -184.5Q272 -188 272 -190ZM235 -373Q235 -375 235 -377Q224 -385 213 -390L226 -378Q227 -377 227 -377Q231 -372 234 -366Q235 -370 235 -373Z"/>
</svg>