<svg xmlns="http://www.w3.org/2000/svg" viewBox="0 -1024 1024 1024">
	<path fill="#111111" d="M177 -106Q178 -106 180 -106Q182 -106 183 -106Q186 -106 189 -105L217 -88Q234 -88 257 -102Q241 -126 199 -154Q143 -107 100.5 -79.5Q58 -52 26 -52H5V-142H9Q51 -142 130 -202Q90 -237 90 -282Q90 -330 106 -357L141 -418Q155 -442 181 -452Q185 -452 193.5 -452.5Q202 -453 206 -453Q234 -453 247 -446Q283 -429 299 -416L335 -386L337 -328L321 -284Q303 -235 286 -224Q275 -216 258 -203Q260 -202 272 -194Q284 -186 287.5 -184Q291 -182 300.5 -175Q310 -168 315 -164Q320 -160 326.5 -154Q333 -148 338 -142L353 -146L379 -59Q375 -57 367 -54.5Q359 -52 355 -51Q353 -46 350 -42L315 19Q299 46 278 46Q237 46 211 31L159 1Q134 -13 134 -38Q134 -41 135 -43L170 -104Q172 -106 177 -106ZM250 -300L248 -356L241 -361Q234 -362 223 -362Q219 -362 210.5 -362Q202 -362 198 -362Q188 -358 180 -352Q177 -335 177 -312Q177 -281 196 -256Q235 -289 250 -300Z"/>
	<path fill="#800080" d="M173 -97Q174 -97 176 -96.5Q178 -96 179 -96Q184 -96 188 -92Q189 -91 191.5 -88.5Q194 -86 195 -85Q196 -84 198 -82.5Q200 -81 202 -80.5Q204 -80 207 -79Q210 -78 213 -78Q232 -78 263 -98Q259 -109 252 -118Q240 -128 215.5 -143.5Q191 -159 181 -166Q124 -118 80.5 -90Q37 -62 5 -62H1Q-14 -62 -24 -72Q-34 -82 -34 -97Q-34 -112 -24 -122Q-14 -132 1 -132H5Q50 -132 140 -203L117 -225Q86 -257 86 -297Q86 -361 114 -389L149 -425Q161 -436 177 -442Q181 -442 189.5 -442.5Q198 -443 202 -443Q230 -443 243 -436L279 -406Q314 -377 314 -371L316 -313L300 -269Q295 -253 265 -234Q251 -224 228 -206Q258 -187 273 -171L308 -136Q313 -131 317 -127L349 -136Q354 -138 359 -138Q373 -138 383 -128Q393 -118 393 -104Q393 -93 386 -84Q379 -75 368 -71Q349 -66 340 -63Q340 -34 318 -11L283 24Q270 36 257 36Q202 36 177 12L142 -24Q130 -36 130 -53Q130 -58 131 -60L167 -95Q168 -97 173 -97ZM177 -372Q173 -370 170 -368Q156 -342 156 -297Q156 -267 173 -243Q177 -240 181 -237Q227 -276 234 -281L246 -313L244 -365L243 -366Q230 -372 202 -372Q198 -372 189.5 -372Q181 -372 177 -372Z"/>
	<path fill="#daa520" d="M177 -66Q178 -66 180 -66Q182 -66 183 -66Q191 -66 199 -57Q207 -48 217 -48Q229 -48 244 -55.5Q259 -63 275.5 -74.5Q292 -86 300 -89Q295 -107 280 -124Q265 -141 252 -150.5Q239 -160 214 -177Q194 -189 186 -195Q149 -164 123.5 -145Q98 -126 65 -109Q32 -92 9 -92H5Q0 -92 0 -97Q0 -102 5 -102H9Q58 -102 177 -201Q120 -244 120 -297Q120 -388 179 -412Q180 -412 181 -412Q185 -412 193.5 -412Q202 -412 206 -412Q235 -412 249 -406Q250 -405 250 -405L286 -375Q288 -373 288 -371L290 -313Q290 -312 290 -311L274 -267Q273 -266 272 -265Q254 -253 193 -202Q202 -196 220 -184.5Q238 -173 249 -165.5Q260 -158 273.5 -146Q287 -134 296 -121Q305 -108 310 -93Q311 -94 352 -106Q352 -106 353 -106Q358 -106 358 -101Q358 -97 354 -96L314 -84Q313 -84 312 -83Q314 -74 314 -63Q314 -40 298 -17Q282 6 261 6Q226 6 195 -7.5Q164 -21 164 -53Q164 -61 169 -64Q171 -66 177 -66ZM130 -297Q130 -248 185 -208Q248 -261 265 -272L280 -314L278 -369L244 -397Q232 -402 206 -402Q202 -402 194 -402Q186 -402 182 -402Q130 -381 130 -297ZM174 -56ZM177 -56Q174 -56 174 -56Q174 -56 174 -53Q174 -28 201.5 -16Q229 -4 261 -4Q277 -4 290.5 -23.5Q304 -43 304 -63Q304 -71 303 -79Q294 -75 278 -64Q239 -38 217 -38Q203 -38 191 -50Q186 -56 183 -56Q182 -56 180 -56Q178 -56 177 -56Z"/>
</svg>