<svg xmlns="http://www.w3.org/2000/svg" viewBox="0 -1024 1024 1024">
	<path fill="#111111" d="M379 -349Q379 -328 380.5 -282.5Q382 -237 382 -214Q382 -207 382 -200Q383 -197 394 -135.5Q405 -74 418 -50Q419 -50 420 -50Q431 -50 441 -56Q444 -65 461 -130L535 -111Q524 -68 512 -49L477 12Q461 41 437 41Q432 41 426 39Q425 39 424 39Q413 39 404 34L352 4Q342 -2 334 -14L320 11Q299 47 260 47Q252 47 242 45Q239 46 236 46Q218 46 202 36L150 6Q106 -19 94 -90Q78 -67 58 -49L5 -107L41 -139Q58 -155 73 -175Q78 -185 82 -197Q80 -218 80 -241Q80 -322 100 -411Q106 -437 116 -454Q126 -471 135 -471Q137 -471 138 -470L190 -440Q200 -435 200 -394Q200 -377 199 -365Q190 -286 169 -227Q172 -192 179 -161Q179 -157 179 -152Q179 -88 213 -45Q216 -45 219 -45Q222 -45 225 -45Q235 -43 243 -43Q266 -43 283 -56Q294 -98 295 -170Q292 -181 283 -214Q274 -247 270 -265L260 -311Q258 -387 258 -387Q258 -396 291 -444L299 -459Q305 -469 309 -469L361 -439Q362 -438 367.5 -422Q373 -406 373 -403V-391Q373 -388 376 -381.5Q379 -375 379 -371Z"/>
	<path fill="#800080" d="M322 -334Q322 -313 324 -267.5Q326 -222 326 -198Q326 -191 326 -185Q328 -176 337.5 -121Q347 -66 358 -42Q362 -41 367 -41Q368 -41 369 -41Q375 -40 380 -40Q385 -40 389 -41Q398 -59 412 -113Q415 -124 424 -131.5Q433 -139 445 -139Q459 -139 469 -129Q479 -119 479 -105Q479 -100 478 -96Q463 -36 444 -17L409 18Q396 31 380 31Q375 31 369 29Q368 29 367 29Q351 29 338 17L303 -18Q299 -23 295 -29Q290 -22 285 -17L250 19Q231 37 204 37Q195 37 185 35Q182 36 179 36Q150 36 128 13L93 -22Q61 -54 53 -111Q49 -106 45 -102L9 -67Q-5 -52 -17 -52Q-27 -52 -35 -59.5Q-43 -67 -43 -78Q-43 -90 -34 -97L-11 -119Q21 -157 42 -212Q40 -233 40 -256Q40 -337 60 -426Q63 -441 73 -451Q83 -461 95 -461Q98 -461 100 -459L135 -424Q144 -415 144 -378Q144 -362 142 -350Q134 -271 112 -212Q115 -177 122 -146Q122 -142 122 -137Q122 -84 147 -43Q162 -35 179 -35Q182 -35 185 -35Q195 -33 204 -33Q218 -33 230 -39Q254 -84 255 -185Q252 -197 243 -229.5Q234 -262 230 -280L220 -326L218 -402Q219 -404 223 -411.5Q227 -419 230 -422L265 -457Q267 -459 269 -459L305 -424Q306 -422 311 -406.5Q316 -391 316 -388V-376Q316 -372 319 -365.5Q322 -359 322 -356Z"/>
	<path fill="#daa520" d="M102 -417Q84 -333 84 -256Q84 -247 85 -239Q99 -288 106 -351Q107 -362 107 -378Q107 -407 102 -417ZM280 -376V-388Q277 -400 271 -416Q269 -414 266 -408Q263 -402 262 -401L264 -327L274 -281Q276 -271 289 -224Q289 -238 287.5 -276.5Q286 -315 286 -334V-356Q286 -358 284 -364Q280 -371 280 -376ZM96 -137Q96 -87 120 -46Q144 -5 183 -5Q184 -5 186 -5Q188 -5 189 -5Q189 -5 190 -5Q199 -3 208 -3Q287 -3 289 -184Q285 -201 276.5 -233Q268 -265 264 -279L254 -325Q254 -325 254 -326L252 -402Q252 -403 253 -405Q254 -407 257.5 -413Q261 -419 263 -422Q268 -429 273 -429Q275 -429 277 -427Q278 -426 280 -423Q290 -398 290 -388V-376Q290 -373 293 -366.5Q296 -360 296 -356V-334Q296 -313 297.5 -267.5Q299 -222 299 -198Q299 -192 299 -186Q304 -166 309 -137Q319 -70 331 -44Q347 -11 371 -11Q371 -11 372 -11Q373 -11 373 -11Q374 -11 374 -11Q379 -10 384 -10Q396 -10 406 -17.5Q416 -25 423 -40.5Q430 -56 434 -68Q438 -80 442 -97Q443 -101 447 -101Q452 -101 452 -96Q452 -95 452 -95Q448 -79 446 -71.5Q444 -64 437.5 -47.5Q431 -31 424.5 -22.5Q418 -14 407.5 -7Q397 0 384 0Q373 -1 373 -1Q372 -1 371 -1Q368 -4 356.5 -9.5Q345 -15 336 -22.5Q327 -30 322 -40Q310 -67 298 -143Q288 7 208 7Q189 5 189 5Q186 5 183 5Q138 5 112 -39.5Q86 -84 86 -137Q86 -141 86 -146Q81 -167 78 -191Q52 -130 8 -90Q7 -89 5 -89Q0 -89 0 -94Q0 -96 2 -98Q49 -141 76 -213Q74 -234 74 -256Q74 -338 94 -427Q95 -431 99 -431Q109 -431 114 -415Q117 -402 117 -378Q117 -362 116 -349Q108 -270 86 -211Q89 -177 96 -147Q96 -147 96 -146Q96 -145 96 -142Q96 -139 96 -137Z"/>
</svg>