<svg xmlns="http://www.w3.org/2000/svg" viewBox="0 -1024 1024 1024">
	<path fill="#111111" d="M382 -310Q382 -311 382 -314.5Q382 -318 382 -320Q382 -356 391 -372L426 -432Q434 -446 449 -446Q458 -446 467 -441L518 -411Q551 -392 576 -316Q601 -240 601 -204Q601 -193 600 -182Q619 -172 681 -136L718 -107L669 -46Q665 -50 601 -100Q594 -104 589 -107Q581 -78 569 -56L534 4Q504 56 450 56Q418 56 380 35L331 6Q306 40 258 40Q232 40 214 30L162 0Q122 -23 111 -106Q86 -75 54 -52L5 -119L37 -142Q73 -168 100 -204Q99 -209 98 -214Q95 -225 95 -245Q95 -280 102.5 -323Q110 -366 118 -380L153 -441Q155 -445 157 -445Q158 -445 158 -444L210 -414Q216 -411 217 -376Q217 -370 217 -364Q217 -296 188 -233Q190 -218 194 -181Q196 -150 198.5 -132.5Q201 -115 208 -90.5Q215 -66 226 -51Q233 -50 241 -50Q253 -50 264 -53Q242 -84 242 -114Q242 -147 250 -162L285 -222Q292 -234 305 -234Q320 -234 328 -230L380 -200Q393 -192 393 -164Q393 -100 372 -64L370 -61Q379 -51 390 -43Q413 -34 433 -34Q471 -34 497 -60Q510 -99 513 -150Q454 -184 418 -220Q382 -256 382 -302Q382 -306 382 -310ZM469 -332Q469 -294 498 -259Q485 -304 469 -335Q469 -334 469 -332Z"/>
	<path fill="#800080" d="M344 -325Q344 -327 344 -330.5Q344 -334 344 -336Q344 -380 358 -394L393 -429Q400 -436 411 -436Q426 -436 441 -422L476 -386Q505 -358 525.5 -289Q546 -220 546 -189Q546 -185 546 -181Q581 -162 591 -156L662 -100Q673 -91 673 -78Q673 -66 665 -58Q657 -50 645 -50Q636 -50 628 -56L591 -86Q584 -90 539 -114Q527 -47 495 -15L460 20Q433 46 395 46Q368 46 337 31Q306 16 282 -8L267 6Q243 30 203 30Q166 30 144 8L109 -27Q81 -55 72 -129Q71 -128 35 -92Q18 -75 -1 -62Q-9 -56 -18 -56Q-30 -56 -38 -64.5Q-46 -73 -46 -85Q-46 -99 -35 -108Q8 -139 16 -146Q44 -179 62 -217Q61 -224 60 -229Q57 -240 57 -261Q57 -298 65.5 -344Q74 -390 82 -398L117 -434Q118 -435 119 -435Q120 -435 121 -434L156 -399Q161 -394 162 -361Q163 -355 163 -348Q163 -281 133 -217Q136 -203 139 -166Q147 -81 164 -48Q181 -40 203 -40Q225 -40 243 -48Q204 -89 204 -129Q204 -170 216 -183L252 -218Q258 -224 267 -224Q286 -224 295 -216L330 -181Q338 -172 338 -149Q338 -86 318 -50Q359 -24 395 -24Q420 -24 441 -36Q467 -79 474 -152Q442 -173 421 -194L386 -229Q343 -271 343 -317Q343 -321 344 -325ZM414 -325Q414 -321 414 -317Q414 -281 440 -247Q454 -236 471 -224Q455 -311 423 -363Q420 -365 416 -365Q414 -353 414 -336Q414 -334 414 -330.5Q414 -327 414 -325Z"/>
	<path fill="#daa520" d="M128 -348Q128 -355 128 -361Q127 -381 125 -392Q118 -378 110.5 -335.5Q103 -293 103 -261Q103 -244 105 -233Q128 -289 128 -348ZM250 -129Q250 -93 285 -54Q304 -89 304 -149Q304 -167 300 -174Q294 -184 273 -184Q250 -184 250 -129ZM390 -325Q390 -324 390 -321Q390 -318 390 -317Q390 -245 512 -174Q512 -181 512 -189Q512 -206 502.5 -246.5Q493 -287 479 -323Q449 -396 417 -396Q390 -396 390 -336Q390 -334 390 -330.5Q390 -327 390 -325ZM380 -336Q380 -406 417 -406Q456 -406 488 -326Q503 -290 512.5 -248.5Q522 -207 522 -189Q522 -179 521 -168Q534 -161 560.5 -147Q587 -133 600 -125L637 -96Q639 -94 639 -92Q639 -87 634 -87Q632 -87 631 -88L594 -117Q582 -124 556.5 -137.5Q531 -151 521 -157Q518 -126 512 -99Q506 -72 493 -44.5Q480 -17 456.5 -0.5Q433 16 401 16Q374 16 343 1Q312 -14 287 -38Q260 0 209 0Q190 0 175 -6Q160 -12 150 -20Q140 -28 132 -43.5Q124 -59 120 -70Q116 -81 112.5 -102Q109 -123 108 -133.5Q107 -144 105 -165Q103 -190 101 -201Q66 -135 8 -93Q7 -92 5 -92Q0 -92 0 -97Q0 -100 2 -101Q64 -146 98 -218Q97 -223 96 -228Q93 -239 93 -261Q93 -307 105 -360Q109 -381 114 -392Q116 -398 118 -401Q121 -404 125 -404Q132 -404 134 -394Q138 -379 138 -348Q138 -280 109 -217Q112 -202 115 -166Q117 -137 119 -121Q121 -105 127.5 -80.5Q134 -56 143 -43Q152 -30 169 -20Q186 -10 209 -10Q256 -10 280 -45Q240 -87 240 -129Q240 -129 240 -130.5Q240 -132 240 -132Q240 -194 273 -194Q300 -194 308 -179Q314 -169 314 -149Q314 -84 293 -47Q316 -23 345.5 -8.5Q375 6 401 6Q430 6 451.5 -10Q473 -26 485 -52.5Q497 -79 503 -106Q509 -133 511 -162Q452 -196 416 -233Q380 -270 380 -317Q380 -321 380 -325Q380 -327 380 -330.5Q380 -334 380 -336Z"/>
</svg>