<svg xmlns="http://www.w3.org/2000/svg" viewBox="0 -1024 1024 1024">
	<path fill="#111111" d="M447 13Q435 13 415 11Q395 9 383 9Q372 9 362 4L310 -26Q270 -50 269 -144Q263 -141 258 -138Q250 -117 250 -103Q250 -75 243 -62L208 -1Q202 9 191 9Q184 9 173 3L122 -27L103 -41Q103 -68 117 -92L152 -152Q172 -186 225 -219Q239 -251 239 -269Q239 -319 198 -357Q182 -362 167 -362Q151 -362 138 -356Q138 -354 138 -351Q138 -328 145 -317Q150 -314 150 -308Q150 -291 119 -203Q92 -125 92 -112Q92 -108 93 -107L59 -127V-46Q59 -46 58 -47L6 -77Q5 -77 5 -81Q5 -94 32 -172Q63 -261 63 -278Q63 -281 62 -283L59 -285Q57 -286 54 -300.5Q51 -315 51 -321Q51 -347 61 -364L96 -424Q113 -453 150 -453Q179 -453 208 -435L260 -405Q304 -380 320 -337L346 -382Q382 -445 434 -445Q437 -445 444 -446.5Q451 -448 454 -448Q458 -448 461 -446L513 -416Q518 -413 518 -403Q518 -370 502 -342L467 -282Q441 -236 356 -190Q356 -184 356 -179Q356 -116 375 -81Q383 -81 400.5 -79Q418 -77 430 -77Q444 -77 454 -81V-107H471Q475 -114 480 -119.5Q485 -125 487 -128L475 -107H541Q541 -103 539 -98L522 -70Q522 -65 520 -62L485 -1Q477 13 447 13ZM428 -343Q429 -347 430 -352Q403 -344 382 -319Q378 -310 375 -301Q408 -322 428 -343Z"/>
	<path fill="#800080" d="M92 -293Q92 -276 64.5 -197Q37 -118 35 -103Q36 -97 36 -92Q36 -77 26 -66.5Q16 -56 1 -56Q0 -56 0 -57L-36 -92Q-37 -93 -37 -96Q-37 -110 -10 -188Q21 -276 21 -293Q21 -295 21 -296L17 -300Q15 -303 12.5 -316.5Q10 -330 10 -336Q10 -372 28 -391L64 -426Q80 -443 108 -443Q157 -443 197 -403L232 -367Q252 -347 261 -323Q276 -353 295 -372L330 -407Q359 -435 393 -435Q396 -435 403 -436.5Q410 -438 413 -438Q419 -438 421 -435L457 -400Q460 -396 460 -388Q460 -336 419 -295L384 -259Q356 -231 300 -201Q298 -182 298 -164Q298 -107 313 -73Q319 -71 325 -71Q337 -71 357 -69Q377 -67 389 -67Q394 -67 398 -68Q399 -69 403.5 -74Q408 -79 410.5 -83Q413 -87 413 -92Q413 -106 423 -116.5Q433 -127 448 -127Q463 -127 473 -116.5Q483 -106 483 -92Q483 -85 473.5 -74Q464 -63 464 -56Q464 -48 459 -43L423 -7Q413 3 389 3Q377 3 357 1Q337 -1 325 -1Q307 -1 294 -14L258 -49Q227 -81 227 -163Q221 -159 215 -157Q192 -110 192 -88Q192 -53 181 -41L146 -6Q141 -1 133 -1Q117 -1 97 -20L62 -56Q62 -99 97 -135L133 -171Q146 -184 165 -197Q198 -260 198 -284Q198 -318 177 -348Q143 -372 108 -372Q96 -372 85 -368Q80 -354 80 -336Q80 -319 86 -304Q92 -298 92 -293ZM364 -313Q382 -337 387 -364Q367 -363 349 -351Q329 -322 315 -280Q344 -297 364 -313Z"/>
	<path fill="#daa520" d="M395 -27Q383 -27 363 -29Q343 -31 331 -31Q298 -31 281 -69Q264 -107 264 -164Q264 -186 267 -210Q221 -186 201 -174Q168 -111 168 -88Q168 -31 140 -31Q131 -31 121 -36.5Q111 -42 105 -47L100 -53Q98 -54 98 -56Q98 -96 123 -125.5Q148 -155 193 -182Q234 -261 234 -284Q234 -333 195.5 -367.5Q157 -402 115 -402Q89 -402 72.5 -386Q56 -370 56 -336Q56 -320 62 -305Q68 -303 68 -293Q68 -275 37 -186Q10 -109 10 -96Q12 -94 12 -92Q12 -87 7 -87Q0 -87 0 -96Q0 -110 27 -189Q58 -277 58 -293Q58 -294 58 -295Q55 -296 53 -301Q46 -317 46 -336Q46 -374 65.5 -393Q85 -412 115 -412Q161 -412 202.5 -374.5Q244 -337 244 -284Q244 -259 209 -191Q223 -198 268 -222Q279 -298 313 -351.5Q347 -405 399 -405Q402 -405 409 -406.5Q416 -408 419 -408Q428 -408 433 -402Q436 -397 436 -388Q436 -357 423.5 -331Q411 -305 385 -283.5Q359 -262 336.5 -248Q314 -234 277 -215Q274 -189 274 -164Q274 -109 289 -75Q304 -41 331 -41Q343 -41 363 -39Q383 -37 395 -37Q410 -37 420 -42Q430 -47 430 -56Q430 -65 441 -77Q449 -87 449 -92Q449 -97 454 -97Q459 -97 459 -92Q459 -83 449 -71Q440 -61 440 -56Q440 -40 426.5 -33.5Q413 -27 395 -27ZM399 -395Q354 -395 322.5 -346.5Q291 -298 279 -227Q313 -245 335.5 -259Q358 -273 381 -293Q404 -313 415 -336.5Q426 -360 426 -388Q426 -394 425 -396Q423 -398 419 -398Q416 -398 409.5 -396.5Q403 -395 399 -395ZM140 -41Q158 -41 158 -88Q158 -112 185 -164Q110 -116 108 -58Q127 -41 140 -41Z"/>
</svg>