<svg xmlns="http://www.w3.org/2000/svg" viewBox="0 -1024 1024 1024">
	<path fill="#111111" d="M114 170Q114 168 113.5 164Q113 160 113 158Q113 134 126 112L161 52Q169 37 183 25Q187 21 194 14.5Q201 8 206 4Q211 0 217.5 -5Q224 -10 231 -13Q237 -15 243.5 -19Q250 -23 257 -28Q264 -33 268 -35Q254 -39 238 -39Q222 -39 206 -35Q199 -33 194 -33Q188 -33 185 -35L133 -65Q129 -67 129 -72Q129 -78 138 -93Q152 -117 154 -123Q157 -131 189 -183Q203 -207 236 -247Q269 -287 279 -301Q295 -320 307 -337Q308 -339 313 -352Q318 -365 322 -372Q303 -370 268.5 -358.5Q234 -347 215 -345Q212 -264 176 -200L141 -140Q101 -71 34 -49L5 -135L17 -139Q68 -156 104 -202Q128 -261 128 -328Q128 -337 128 -347Q128 -348 128 -348Q110 -351 104 -355L52 -385Q48 -387 48 -390Q48 -391 48 -393L83 -453Q88 -461 121 -471Q129 -474 135 -474Q143 -474 149 -470L201 -440Q203 -439 205 -437Q220 -439 255 -450.5Q290 -462 311 -463Q319 -464 340 -466.5Q361 -469 373 -469Q394 -469 409.5 -460.5Q425 -452 425 -439Q425 -431 408 -402Q403 -392 401 -385Q392 -361 379 -337L344 -276Q326 -246 296 -211Q284 -195 261.5 -167Q239 -139 231 -129Q260 -127 283 -113L335 -83Q338 -81 342 -79Q347 -82 355.5 -88.5Q364 -95 368 -98L382 -135L447 -109L435 -79Q415 -29 400 -19Q393 -14 383 -6Q383 -3 383 1Q383 4 382.5 9.5Q382 15 382 18Q382 26 383 42.5Q384 59 384 68Q384 107 371 129L336 190Q332 197 326 203Q321 209 312.5 224.5Q304 240 294 248.5Q284 257 268 257Q256 257 232 259Q208 261 196 261Q195 261 195 261Q187 261 182 258L130 228Q114 219 114 174Q114 173 114 171.5Q114 170 114 170ZM296 51Q295 51 294 51Q286 54 271.5 64Q257 74 248 77Q237 83 201 114Q200 121 200 127Q200 129 200.5 133Q201 137 201 139Q201 140 201 141.5Q201 143 201 143Q201 160 202 170Q243 167 251 167Q276 167 293 137Q297 121 297 98Q297 90 296.5 74Q296 58 296 51Z"/>
	<path fill="#800080" d="M98 155Q98 152 97.5 148.5Q97 145 97 143Q97 104 127 74L162 39Q163 38 179 24Q201 5 215 -3Q224 -6 238.5 -16Q253 -26 261 -29Q264 -31 268 -32Q267 -32 267 -32Q240 -48 205 -48Q189 -48 173 -45Q166 -43 161 -43Q153 -43 151 -46L115 -82Q113 -84 113 -87Q113 -94 126 -115Q135 -131 138 -138Q152 -162 184.5 -202Q217 -242 228 -256Q279 -316 298 -370Q299 -376 303 -383Q299 -383 295 -383Q274 -381 237.5 -369Q201 -357 183 -355Q183 -349 183 -343Q183 -285 164 -230Q145 -175 108 -138L72 -103Q41 -72 1 -59Q-4 -57 -10 -57Q-23 -57 -33 -67Q-43 -77 -43 -90Q-43 -115 -20 -122L1 -129Q30 -139 54 -158Q112 -232 112 -343Q112 -350 112 -357Q75 -360 68 -367L33 -402Q31 -404 31 -405Q31 -408 34 -410L69 -445Q76 -452 105 -461Q113 -464 120 -464Q131 -464 138 -457L169 -425Q193 -425 234 -438.5Q275 -452 295 -453Q303 -454 324 -456.5Q345 -459 357 -459Q371 -459 381.5 -448.5Q392 -438 392 -424Q392 -415 381 -395Q371 -378 368 -370Q349 -316 298 -256Q288 -242 255.5 -202Q223 -162 208 -138Q206 -131 199 -119Q202 -119 205 -119Q256 -119 288 -87L315 -60Q323 -66 337 -77L353 -118Q362 -139 384 -139Q397 -139 407 -129.5Q417 -120 417 -106Q417 -100 414 -94L402 -64Q397 -50 367 -29Q359 -23 346 -13Q350 1 350 16Q350 19 350 24.5Q350 30 350 33Q350 41 350.5 58Q351 75 351 83Q351 134 328 158Q323 164 314 179Q305 194 299 200L264 236Q252 247 235 247Q223 247 199 249Q175 251 163 251Q162 251 162 251Q151 251 144 245L109 209Q98 198 98 159Q98 158 98 156.5Q98 155 98 155ZM279 33Q270 38 261 41Q253 44 238.5 54Q224 64 215 67Q202 75 185 90Q168 114 168 143Q168 145 168 148.5Q168 152 168 155Q168 155 168 156.5Q168 158 168 159Q168 173 169 181Q179 180 201 178.5Q223 177 235 177Q241 177 246 175Q252 164 258 158Q280 134 280 83Q280 75 279.5 58Q279 41 279 33Z"/>
	<path fill="#daa520" d="M173 -385Q161 -385 158 -385Q158 -384 158 -384Q158 -373 156 -362Q157 -352 157 -343Q157 -289 141.5 -238.5Q126 -188 91 -147Q56 -106 7 -89Q6 -89 5 -89Q0 -89 0 -94Q0 -98 3 -99Q72 -122 109.5 -191.5Q147 -261 147 -343Q147 -346 146.5 -352.5Q146 -359 146 -362Q146 -362 146 -363Q148 -374 148 -384Q148 -385 148 -385Q114 -386 93 -390Q80 -392 73 -395Q66 -399 66 -405Q66 -412 75 -418Q85 -424 108 -431Q116 -433 124 -433Q153 -433 157 -395Q163 -395 169 -395Q170 -395 171 -395Q172 -395 173 -395Q196 -395 237 -408.5Q278 -422 299 -423Q306 -423 327.5 -426Q349 -429 361 -429Q366 -429 366 -424Q366 -414 353 -393Q344 -376 342 -369V-368Q323 -313 271 -253Q261 -239 228.5 -199Q196 -159 182 -136Q179 -128 169 -112Q158 -92 158 -87Q158 -86 158 -86Q158 -84 165 -84Q172 -84 176 -85Q193 -89 209 -89Q244 -89 272.5 -73Q301 -57 315 -28Q323 -34 340.5 -47.5Q358 -61 367 -67L378 -96Q380 -99 383 -99Q388 -99 388 -94Q388 -93 388 -92L376 -62Q375 -61 374 -60Q365 -53 346.5 -39Q328 -25 318 -19Q324 -2 324 16Q324 19 324 24.5Q324 30 324 33Q324 41 324.5 58Q325 75 325 83Q325 136 301 161Q295 167 286.5 183Q278 199 267.5 208Q257 217 239 217Q227 217 202.5 219Q178 221 166 221Q154 221 146.5 215Q139 209 136 197.5Q133 186 132.5 178.5Q132 171 132 159Q132 158 132 156.5Q132 155 132 155Q132 154 132 153.5Q132 153 132 152Q132 147 132 143Q132 99 168 66Q170 64 174 60.5Q178 57 180 56Q202 36 217 28Q217 27 217 27Q226 24 240.5 14.5Q255 5 263 1Q283 -7 306 -22Q294 -49 268 -64Q242 -79 209 -79Q194 -79 178 -75Q172 -74 165 -74Q148 -74 148 -87Q148 -95 161 -117Q170 -133 172 -140Q172 -140 173 -141Q187 -165 220 -205Q253 -245 263 -259Q314 -318 332 -371Q334 -379 343.5 -395.5Q353 -412 355 -419Q345 -419 326.5 -416.5Q308 -414 299 -413Q279 -412 238 -398.5Q197 -385 173 -385ZM124 -423Q118 -423 110 -421Q89 -415 80 -409Q76 -406 76 -405V-406Q80 -402 101 -399Q120 -396 147 -395Q144 -423 124 -423ZM142 155Q142 155 142 156.5Q142 158 142 159Q142 175 143 184.5Q144 194 149.5 202.5Q155 211 166 211Q167 211 167 211Q179 211 203 209Q227 207 239 207Q254 207 262 199.5Q270 192 279 176Q288 161 293 155Q315 132 315 83Q315 75 314.5 58Q314 41 314 33Q314 30 314 24.5Q314 19 314 16Q314 1 310 -13Q287 2 267 11Q259 14 245 23.5Q231 33 221 37Q212 42 174 74Q142 104 142 143Q142 145 142 148.5Q142 152 142 155Z"/>
</svg>