<svg xmlns="http://www.w3.org/2000/svg" viewBox="0 -1024 1024 1024">
	<path fill="#000088" d="M99 -458Q99 -475 99 -491Q99 -566 129 -638Q159 -710 210 -769Q233 -794 247 -804Q259 -813 271 -813Q282 -813 290 -805Q296 -799 298 -791Q299 -786 299 -779Q299 -776 299 -774Q308 -711 341 -528Q341 -528 341 -527L362 -374Q362 -373 362 -372L368 -232Q369 -216 371.5 -173.5Q374 -131 377 -109Q388 -70 394 -42Q402 -18 405 -5Q407 3 407 8Q407 11 406 15Q404 22 399 27Q392 35 381 35Q364 35 354 15Q350 8 347 -2Q337 -26 334 -49Q324 -73 317 -115Q310 -157 307 -168Q301 -182 285 -232Q269 -282 256 -304Q255 -305 254 -306Q231 -356 156 -387Q158 -369 162.5 -336Q167 -303 169 -288Q176 -227 176 -197Q176 -173 173 -152Q169 -52 109 8Q101 17 91 24Q84 29 76 29H70Q60 29 52.5 21.5Q45 14 45 4Q45 -5 51.5 -12.5Q58 -20 67 -21Q92 -43 107 -79.5Q122 -116 123 -156Q123 -158 123 -159Q126 -176 126 -196Q126 -223 117 -296Q116 -308 110.5 -345.5Q105 -383 103 -405Q78 -412 70 -412Q64 -412 59 -415Q54 -417 48 -423L21 -427Q12 -429 6 -436Q0 -443 0 -452Q0 -462 7.5 -469.5Q15 -477 25 -477Q27 -477 29 -477L65 -471Q74 -469 81 -461Q89 -460 99 -458ZM149 -479Q149 -461 150 -442Q224 -417 265 -376Q286 -355 299 -329Q308 -315 315 -297L312 -369L291 -520Q286 -559 272.5 -633Q259 -707 254 -742Q251 -739 248 -736Q202 -684 175.5 -619.5Q149 -555 149 -490Q149 -489 149 -485Q149 -481 149 -479Z"/>
	<path fill="#800080" d="M149 -458Q149 -475 149 -491Q149 -566 179 -638Q209 -710 260 -769Q283 -794 297 -804Q309 -813 321 -813Q332 -813 340 -805Q346 -799 348 -791Q349 -786 349 -779Q349 -776 349 -774Q358 -711 391 -528Q391 -528 391 -527L412 -374Q412 -373 412 -372L418 -232Q419 -216 421.5 -173.5Q424 -131 427 -109Q438 -70 444 -42Q452 -18 455 -5Q457 3 457 8Q457 11 456 15Q454 22 449 27Q442 35 431 35Q414 35 404 15Q400 8 397 -2Q387 -26 384 -49Q374 -73 367 -115Q360 -157 357 -168Q351 -182 335 -232Q319 -282 306 -304Q305 -305 304 -306Q281 -356 206 -387Q208 -369 212.5 -336Q217 -303 219 -288Q226 -227 226 -197Q226 -173 223 -152Q219 -52 159 8Q151 17 141 24Q134 29 126 29H120Q110 29 102.5 21.5Q95 14 95 4Q95 -5 101.5 -12.5Q108 -20 117 -21Q142 -43 157 -79.5Q172 -116 173 -156Q173 -158 173 -159Q176 -176 176 -196Q176 -223 167 -296Q166 -308 160.5 -345.5Q155 -383 153 -405Q128 -412 120 -412Q114 -412 109 -415Q104 -417 98 -423L71 -427Q62 -429 56 -436Q50 -443 50 -452Q50 -462 57.5 -469.5Q65 -477 75 -477Q77 -477 79 -477L115 -471Q124 -469 131 -461Q139 -460 149 -458ZM199 -479Q199 -461 200 -442Q274 -417 315 -376Q336 -355 349 -329Q358 -315 365 -297L362 -369L341 -520Q336 -559 322.5 -633Q309 -707 304 -742Q301 -739 298 -736Q252 -684 225.5 -619.5Q199 -555 199 -490Q199 -489 199 -485Q199 -481 199 -479Z"/>
	<path fill="#daa520" d="M301 -793Q309 -793 309 -779Q309 -776 309 -773Q315 -734 330 -651Q345 -568 351 -525L372 -372Q372 -371 372 -371L378 -230Q379 -215 381.5 -171.5Q384 -128 387 -105Q399 -65 405 -36Q417 -1 417 8Q417 15 411 15Q408 15 406 13Q405 11 403 9Q400 4 397 -5Q386 -31 383 -55Q373 -77 366 -119.5Q359 -162 356 -174Q350 -189 333.5 -240Q317 -291 303 -314Q303 -315 302 -315Q271 -381 162 -417Q162 -415 179 -285Q186 -226 186 -197Q186 -174 183 -154Q181 -106 162.5 -62.5Q144 -19 109 8Q108 9 106 9H100Q95 9 95 4Q95 -1 100 -1H104Q137 -26 154 -67.5Q171 -109 173 -155Q173 -156 173 -156Q176 -174 176 -197Q176 -224 167 -298Q166 -304 160 -350Q154 -396 152 -420Q148 -421 141.5 -423Q135 -425 132 -426Q112 -432 100 -432Q98 -432 96 -433.5Q94 -435 88 -441L54 -447Q50 -448 50 -452Q50 -457 55 -457Q55 -457 56 -457L92 -451Q94 -451 96 -448Q100 -444 101 -442Q112 -442 143 -433Q147 -432 151 -431Q149 -456 149 -479Q149 -485 149 -491Q149 -561 177.5 -630.5Q206 -700 255 -755Q269 -771 278 -779Q293 -793 301 -793ZM299 -779Q299 -781 299 -782Q293 -779 285 -772Q276 -764 263 -749Q215 -694 187 -626.5Q159 -559 159 -491Q159 -489 159 -485Q159 -481 159 -479Q159 -455 161 -427Q277 -391 311 -319Q327 -295 343 -244Q359 -193 366 -178Q366 -178 366 -177Q370 -162 374 -135Q373 -149 371.5 -181Q370 -213 368 -230L362 -371L341 -523Q335 -567 320 -650Q305 -733 299 -772Q299 -773 299 -773Q299 -773 299 -775Q299 -777 299 -779Z"/>
</svg>