<svg xmlns="http://www.w3.org/2000/svg" viewBox="0 -1024 1024 1024">
	<path fill="#000088" d="M324 -435Q289 -435 249 -416.5Q209 -398 169.5 -379.5Q130 -361 95 -361Q70 -361 44 -371Q27 -371 7 -390L-28 -426Q-44 -442 -44 -456V-459Q-44 -473 -34 -483.5Q-24 -494 -9 -494Q6 -494 16 -483.5Q26 -473 26 -459V-456Q26 -451 29 -445Q37 -441 44 -441Q70 -432 95 -432Q130 -432 169.5 -450.5Q209 -469 249 -487Q289 -505 324 -505Q325 -505 341 -504L405 -467Q413 -460 428.5 -447Q444 -434 452 -427Q461 -419 461 -407Q461 -396 453 -388Q445 -380 434 -380Q424 -380 417 -387L405 -396L341 -433Q325 -435 324 -435Z"/>
	<path fill="#800080" d="M373 -435Q338 -435 298 -416.5Q258 -398 218.5 -379.5Q179 -361 144 -361Q119 -361 93 -371Q76 -371 56 -390L21 -426Q5 -442 5 -456V-459Q5 -473 15 -483.5Q25 -494 40 -494Q55 -494 65 -483.5Q75 -473 75 -459V-456Q75 -451 78 -445Q86 -441 93 -441Q119 -432 144 -432Q179 -432 218.5 -450.5Q258 -469 298 -487Q338 -505 373 -505Q374 -505 390 -504L454 -467L501 -427Q510 -419 510 -407Q510 -396 502 -388Q494 -380 483 -380Q473 -380 466 -387L454 -396L390 -433Q374 -435 373 -435Z"/>
	<path fill="#daa520" d="M358 -465Q323 -465 283.5 -446.5Q244 -428 204.5 -409.5Q165 -391 129 -391Q103 -391 77 -401Q58 -402 37 -423Q20 -441 20 -456V-459Q20 -464 25 -464Q30 -464 30 -459V-456Q30 -445 44 -430Q63 -411 78 -411Q79 -411 80 -411Q105 -401 129 -401Q148 -401 169 -407Q190 -413 203.5 -419Q217 -425 241 -438Q265 -450 278.5 -456Q292 -462 314.5 -468.5Q337 -475 358 -475Q359 -475 376 -473Q377 -473 378 -473L442 -436Q442 -436 443 -435L454 -426Q456 -424 456 -422Q456 -417 451 -417Q449 -417 447 -418L437 -427L374 -464Q360 -465 358 -465Z"/>
</svg>