<svg xmlns="http://www.w3.org/2000/svg" viewBox="0 -1024 1024 1024">
	<path fill="#000088" d="M360 -425Q325 -425 285 -406.5Q245 -388 205.5 -369.5Q166 -351 131 -351Q106 -351 80 -361Q71 -361 61 -367L9 -397Q-5 -405 -15 -417.5Q-25 -430 -25 -440V-474H62V-471Q62 -461 72 -448Q93 -442 114 -442Q149 -442 188.5 -460.5Q228 -479 268 -497Q308 -515 343 -515Q344 -515 360 -514Q455 -459 477 -447L488 -437L436 -377Q428 -383 412.5 -396Q397 -409 390 -416L377 -423Q361 -425 360 -425Z"/>
	<path fill="#800080" d="M373 -435Q338 -435 298 -416.5Q258 -398 218.5 -379.5Q179 -361 144 -361Q119 -361 93 -371Q76 -371 56 -390L21 -426Q5 -442 5 -456V-459Q5 -473 15 -483.5Q25 -494 40 -494Q55 -494 65 -483.5Q75 -473 75 -459V-456Q75 -451 78 -445Q86 -441 93 -441Q119 -432 144 -432Q179 -432 218.5 -450.5Q258 -469 298 -487Q338 -505 373 -505Q374 -505 390 -504L454 -467L501 -427Q510 -419 510 -407Q510 -396 502 -388Q494 -380 483 -380Q473 -380 466 -387L454 -396L390 -433Q374 -435 373 -435Z"/>
	<path fill="#daa520" d="M358 -465Q323 -465 283.5 -446.5Q244 -428 204.5 -409.5Q165 -391 129 -391Q103 -391 77 -401Q58 -402 37 -423Q20 -441 20 -456V-459Q20 -464 25 -464Q30 -464 30 -459V-456Q30 -445 44 -430Q63 -411 78 -411Q79 -411 80 -411Q105 -401 129 -401Q148 -401 169 -407Q190 -413 203.5 -419Q217 -425 241 -438Q265 -450 278.5 -456Q292 -462 314.5 -468.5Q337 -475 358 -475Q359 -475 376 -473Q377 -473 378 -473L442 -436Q442 -436 443 -435L454 -426Q456 -424 456 -422Q456 -417 451 -417Q449 -417 447 -418L437 -427L374 -464Q360 -465 358 -465Z"/>
</svg>