<svg xmlns="http://www.w3.org/2000/svg" viewBox="0 -1024 1024 1024">
	<path fill="#000088" d="M-197 -239L-232 -204L-267 -239L-232 -274ZM336 -709Q336 -696 327 -687.5Q318 -679 306 -679Q297 -679 290 -684L125 -789L-39 -684Q-46 -679 -55 -679Q-67 -679 -76 -687.5Q-85 -696 -85 -709Q-85 -725 -71 -734L125 -859L322 -734Q336 -725 336 -709Z"/>
	<path fill="#800080" d="M-147 -239L-182 -204L-217 -239L-182 -274ZM386 -709Q386 -696 377 -687.5Q368 -679 356 -679Q347 -679 340 -684L175 -789L11 -684Q4 -679 -5 -679Q-17 -679 -26 -687.5Q-35 -696 -35 -709Q-35 -725 -21 -734L175 -859L372 -734Q386 -725 386 -709Z"/>
	<path fill="#daa520" d="M75 -234Q70 -234 70 -239Q70 -244 75 -244Q80 -244 80 -239Q80 -234 75 -234ZM602 -719Q602 -714 597 -714Q596 -714 594 -715L432 -818L271 -715Q269 -714 268 -714Q263 -714 263 -719Q263 -722 265 -723L429 -828Q431 -829 432 -829Q433 -829 435 -828L600 -723Q602 -722 602 -719Z"/>
</svg>