<svg xmlns="http://www.w3.org/2000/svg" viewBox="0 -1024 1024 1024">
	<path fill="#000088" d="M-197 -239L-232 -204L-267 -239L-232 -274ZM336 -709Q336 -696 327 -687.5Q318 -679 306 -679Q297 -679 290 -684L125 -789L-39 -684Q-46 -679 -55 -679Q-67 -679 -76 -687.5Q-85 -696 -85 -709Q-85 -725 -71 -734L125 -859L322 -734Q336 -725 336 -709Z"/>
	<path fill="#800080" d="M-147 -239L-182 -204L-217 -239L-182 -274ZM386 -709Q386 -696 377 -687.5Q368 -679 356 -679Q347 -679 340 -684L175 -789L11 -684Q4 -679 -5 -679Q-17 -679 -26 -687.5Q-35 -696 -35 -709Q-35 -725 -21 -734L175 -859L372 -734Q386 -725 386 -709Z"/>
	<path fill="#daa520" d="M55 -234Q50 -234 50 -239Q50 -244 55 -244Q60 -244 60 -239Q60 -234 55 -234ZM582 -719Q582 -714 577 -714Q576 -714 574 -715L412 -818L251 -715Q249 -714 248 -714Q243 -714 243 -719Q243 -722 245 -723L409 -828Q411 -829 412 -829Q413 -829 415 -828L580 -723Q582 -722 582 -719Z"/>
</svg>