<svg xmlns="http://www.w3.org/2000/svg" viewBox="0 -1024 1024 1024">
	<path fill="#000088" d="M272 -551L45 -318Q37 -311 27 -311Q17 -311 9.5 -318.5Q2 -326 2 -336Q2 -346 9 -353L236 -586Q244 -593 254 -593Q264 -593 271.5 -585.5Q279 -578 279 -568Q279 -558 272 -551ZM42 -583L274 -357Q281 -349 281 -339Q281 -329 273.5 -321.5Q266 -314 256 -314Q246 -314 239 -321L7 -547Q0 -555 0 -565Q0 -575 7.5 -582.5Q15 -590 25 -590Q35 -590 42 -583ZM114 -614Q114 -624 121.5 -631.5Q129 -639 139 -639Q149 -639 156.5 -631.5Q164 -624 164 -614L167 -290Q167 -280 159.5 -272.5Q152 -265 142 -265Q132 -265 124.5 -272.5Q117 -280 117 -290Z"/>
	<path fill="#800080" d="M322 -551L95 -318Q87 -311 77 -311Q67 -311 59.5 -318.5Q52 -326 52 -336Q52 -346 59 -353L286 -586Q294 -593 304 -593Q314 -593 321.5 -585.5Q329 -578 329 -568Q329 -558 322 -551ZM92 -583L324 -357Q331 -349 331 -339Q331 -329 323.5 -321.5Q316 -314 306 -314Q296 -314 289 -321L57 -547Q50 -555 50 -565Q50 -575 57.5 -582.5Q65 -590 75 -590Q85 -590 92 -583ZM164 -614Q164 -624 171.5 -631.5Q179 -639 189 -639Q199 -639 206.5 -631.5Q214 -624 214 -614L217 -290Q217 -280 209.5 -272.5Q202 -265 192 -265Q182 -265 174.5 -272.5Q167 -280 167 -290Z"/>
	<path fill="#daa520" d="M304 -573Q309 -573 309 -568Q309 -566 308 -565L81 -333Q79 -331 77 -331Q72 -331 72 -336Q72 -338 73 -339L300 -571Q302 -573 304 -573ZM70 -565Q70 -570 75 -570Q77 -570 78 -569L309 -343Q311 -341 311 -339Q311 -334 306 -334Q304 -334 303 -335L72 -561Q70 -563 70 -565ZM194 -614L197 -290Q197 -285 192 -285Q187 -285 187 -290L184 -614Q184 -619 189 -619Q194 -619 194 -614Z"/>
</svg>