<svg xmlns="http://www.w3.org/2000/svg" viewBox="0 -1024 1024 1024">
	<path fill="#000088" d="M232 -191Q232 -113 289 -66Q337 -47 393 -47Q412 -47 426 -57Q430 -75 430 -95Q430 -123 435 -132L470 -192Q472 -196 475 -196Q477 -196 480 -195L532 -165Q540 -160 563 -127Q585 -97 597 -83Q621 -84 637 -95Q643 -123 643 -170Q643 -233 611 -289.5Q579 -346 526 -385Q471 -410 413 -410Q335 -410 274 -394Q295 -391 322 -376L366 -350Q385 -341 402 -341H419V-251Q397 -251 368 -268L323 -293Q300 -305 278 -305Q255 -305 239 -294Q232 -264 232 -210Q232 -207 232 -200.5Q232 -194 232 -191ZM145 -179Q145 -265 165 -300L200 -361Q202 -365 205 -369Q161 -346 131 -310Q112 -260 112 -194Q112 -106 149 -24.5Q186 57 250 105Q294 124 342 124Q512 127 621 127Q633 127 643 122V94H661L670 77Q671 75 673.5 72.5Q676 70 677 69L662 94H730Q730 96 729 99L721 112Q721 124 715 133L680 194Q667 217 638 217L359 214Q296 214 241 182L189 152Q114 109 69.5 21Q25 -67 25 -164Q25 -251 60 -312L95 -372Q169 -500 396 -500Q469 -500 535 -462L587 -432Q651 -395 690.5 -333Q730 -271 730 -200Q730 -121 711 -88L676 -27Q656 7 611 7Q601 7 590 1L538 -29Q523 -38 505 -59Q502 -55 500 -50L465 10Q446 43 410 43Q334 43 278 11L226 -19Q145 -66 145 -161Q145 -164 145 -170Q145 -176 145 -179Z"/>
	<path fill="#800080" d="M170 -176Q170 -179 170 -186Q170 -193 170 -196Q170 -310 209 -349Q235 -375 276 -375Q312 -375 365 -343Q400 -321 417 -321Q427 -321 434.5 -313.5Q442 -306 442 -296Q442 -286 434.5 -278.5Q427 -271 417 -271Q402 -271 385.5 -276.5Q369 -282 362 -286Q355 -290 339 -300Q298 -325 276 -325Q256 -325 245 -314Q231 -300 225 -268Q220 -242 220 -193Q220 -190 220 -184.5Q220 -179 220 -176Q220 -117 258 -80Q283 -54 323.5 -40.5Q364 -27 408 -27Q423 -27 433 -37Q455 -59 455 -110Q455 -131 458 -144Q461 -159 469 -167Q478 -176 490 -176Q505 -176 519 -162Q527 -153 547 -127Q571 -92 585 -79Q600 -63 609 -63Q632 -63 645 -75Q668 -99 668 -185Q668 -278 595 -351Q558 -388 510 -409Q462 -430 411 -430Q238 -430 161 -353Q100 -292 100 -179Q100 -108 126.5 -39.5Q153 29 200 76Q268 144 357 144Q357 144 359 144Q534 147 636 147Q646 147 652.5 141.5Q659 136 659 127Q659 113 669 102Q671 95 678 89.5Q685 84 693 84Q703 84 710.5 91.5Q718 99 718 109Q718 122 709 133Q706 160 685 178.5Q664 197 636 197Q528 197 357 194Q247 194 164 111Q110 57 80 -20.5Q50 -98 50 -179Q50 -313 126 -389Q217 -480 411 -480Q472 -480 529.5 -455Q587 -430 630 -386Q718 -299 718 -185Q718 -78 680 -40Q653 -13 609 -13Q580 -13 549 -43Q533 -59 505 -99Q502 -35 469 -2Q444 23 408 23Q290 23 222 -44Q170 -97 170 -176Z"/>
	<path fill="#daa520" d="M190 -176Q190 -179 190 -185Q190 -191 190 -195Q190 -215 190.5 -228.5Q191 -242 193.5 -263Q196 -284 202 -298.5Q208 -313 217 -327Q226 -341 241 -348Q256 -355 276 -355Q307 -355 354 -326Q395 -301 417 -301Q422 -301 422 -296Q422 -291 417 -291Q392 -291 349 -317Q304 -345 276 -345Q255 -345 240.5 -335Q226 -325 218 -311.5Q210 -298 206 -275.5Q202 -253 201 -236Q200 -219 200 -195Q200 -191 200 -185Q200 -179 200 -176Q200 -93 261.5 -50Q323 -7 408 -7Q442 -7 458.5 -37Q475 -67 475 -110Q475 -140 480 -149Q484 -156 490 -156Q497 -156 507 -145Q514 -138 530 -115Q546 -94 556.5 -80.5Q567 -67 582 -55Q597 -43 609 -43Q656 -43 672 -79.5Q688 -116 688 -185Q688 -290 604 -370Q520 -450 411 -450Q80 -450 80 -179Q80 -94 114 -16Q148 62 212.5 113Q277 164 357 164Q527 167 636 167Q654 167 666.5 155.5Q679 144 679 127Q679 121 685 115Q688 111 688 109Q688 104 693 104Q698 104 698 109Q698 115 692 121Q689 125 689 127Q689 148 673.5 162.5Q658 177 636 177Q528 177 357 174Q294 174 239 143Q184 112 148 62Q112 12 91 -51Q70 -114 70 -179Q70 -324 159.5 -392Q249 -460 411 -460Q524 -460 611 -377.5Q698 -295 698 -185Q698 -152 695 -128.5Q692 -105 683.5 -81.5Q675 -58 656 -45.5Q637 -33 609 -33Q589 -33 567 -54Q550 -70 522 -109Q506 -131 500 -138Q493 -146 490 -146Q485 -142 485 -110Q485 -65 466.5 -31Q448 3 408 3Q353 3 305 -14.5Q257 -32 223.5 -74Q190 -116 190 -176Z"/>
</svg>