<svg xmlns="http://www.w3.org/2000/svg" viewBox="0 -1024 1024 1024">
	<path fill="#000088" d="M120 -176Q120 -179 120 -186Q120 -193 120 -196Q120 -310 159 -349Q185 -375 226 -375Q262 -375 315 -343Q350 -321 367 -321Q377 -321 384.5 -313.5Q392 -306 392 -296Q392 -286 384.5 -278.5Q377 -271 367 -271Q352 -271 335.5 -276.5Q319 -282 312 -286Q305 -290 289 -300Q248 -325 226 -325Q206 -325 195 -314Q181 -300 175 -268Q170 -242 170 -193Q170 -190 170 -184.5Q170 -179 170 -176Q170 -117 208 -80Q233 -54 273.5 -40.5Q314 -27 358 -27Q373 -27 383 -37Q405 -59 405 -110Q405 -131 408 -144Q411 -159 419 -167Q428 -176 440 -176Q455 -176 469 -162Q477 -153 497 -127Q521 -92 535 -79Q550 -63 559 -63Q582 -63 595 -75Q618 -99 618 -185Q618 -278 545 -351Q508 -388 460 -409Q412 -430 361 -430Q188 -430 111 -353Q50 -292 50 -179Q50 -108 76.5 -39.5Q103 29 150 76Q218 144 307 144Q307 144 309 144Q484 147 586 147Q596 147 602.5 141.5Q609 136 609 127Q609 113 619 102Q621 95 628 89.5Q635 84 643 84Q653 84 660.5 91.5Q668 99 668 109Q668 122 659 133Q656 160 635 178.5Q614 197 586 197Q478 197 307 194Q197 194 114 111Q60 57 30 -20.5Q0 -98 0 -179Q0 -313 76 -389Q167 -480 361 -480Q422 -480 479.5 -455Q537 -430 580 -386Q668 -299 668 -185Q668 -78 630 -40Q603 -13 559 -13Q530 -13 499 -43Q483 -59 455 -99Q452 -35 419 -2Q394 23 358 23Q240 23 172 -44Q120 -97 120 -176Z"/>
	<path fill="#800080" d="M170 -176Q170 -179 170 -186Q170 -193 170 -196Q170 -310 209 -349Q235 -375 276 -375Q312 -375 365 -343Q400 -321 417 -321Q427 -321 434.5 -313.5Q442 -306 442 -296Q442 -286 434.5 -278.5Q427 -271 417 -271Q402 -271 385.5 -276.5Q369 -282 362 -286Q355 -290 339 -300Q298 -325 276 -325Q256 -325 245 -314Q231 -300 225 -268Q220 -242 220 -193Q220 -190 220 -184.5Q220 -179 220 -176Q220 -117 258 -80Q283 -54 323.5 -40.5Q364 -27 408 -27Q423 -27 433 -37Q455 -59 455 -110Q455 -131 458 -144Q461 -159 469 -167Q478 -176 490 -176Q505 -176 519 -162Q527 -153 547 -127Q571 -92 585 -79Q600 -63 609 -63Q632 -63 645 -75Q668 -99 668 -185Q668 -278 595 -351Q558 -388 510 -409Q462 -430 411 -430Q238 -430 161 -353Q100 -292 100 -179Q100 -108 126.5 -39.5Q153 29 200 76Q268 144 357 144Q357 144 359 144Q534 147 636 147Q646 147 652.5 141.5Q659 136 659 127Q659 113 669 102Q671 95 678 89.5Q685 84 693 84Q703 84 710.5 91.5Q718 99 718 109Q718 122 709 133Q706 160 685 178.5Q664 197 636 197Q528 197 357 194Q247 194 164 111Q110 57 80 -20.5Q50 -98 50 -179Q50 -313 126 -389Q217 -480 411 -480Q472 -480 529.5 -455Q587 -430 630 -386Q718 -299 718 -185Q718 -78 680 -40Q653 -13 609 -13Q580 -13 549 -43Q533 -59 505 -99Q502 -35 469 -2Q444 23 408 23Q290 23 222 -44Q170 -97 170 -176Z"/>
	<path fill="#daa520" d="M190 -176Q190 -179 190 -185Q190 -191 190 -195Q190 -215 190.5 -228.5Q191 -242 193.5 -263Q196 -284 202 -298.5Q208 -313 217 -327Q226 -341 241 -348Q256 -355 276 -355Q307 -355 354 -326Q395 -301 417 -301Q422 -301 422 -296Q422 -291 417 -291Q392 -291 349 -317Q304 -345 276 -345Q255 -345 240.5 -335Q226 -325 218 -311.5Q210 -298 206 -275.5Q202 -253 201 -236Q200 -219 200 -195Q200 -191 200 -185Q200 -179 200 -176Q200 -93 261.5 -50Q323 -7 408 -7Q442 -7 458.5 -37Q475 -67 475 -110Q475 -140 480 -149Q484 -156 490 -156Q497 -156 507 -145Q514 -138 530 -115Q546 -94 556.5 -80.5Q567 -67 582 -55Q597 -43 609 -43Q656 -43 672 -79.5Q688 -116 688 -185Q688 -290 604 -370Q520 -450 411 -450Q80 -450 80 -179Q80 -94 114 -16Q148 62 212.5 113Q277 164 357 164Q527 167 636 167Q654 167 666.5 155.5Q679 144 679 127Q679 121 685 115Q688 111 688 109Q688 104 693 104Q698 104 698 109Q698 115 692 121Q689 125 689 127Q689 148 673.5 162.5Q658 177 636 177Q528 177 357 174Q294 174 239 143Q184 112 148 62Q112 12 91 -51Q70 -114 70 -179Q70 -324 159.5 -392Q249 -460 411 -460Q524 -460 611 -377.5Q698 -295 698 -185Q698 -152 695 -128.5Q692 -105 683.5 -81.5Q675 -58 656 -45.5Q637 -33 609 -33Q589 -33 567 -54Q550 -70 522 -109Q506 -131 500 -138Q493 -146 490 -146Q485 -142 485 -110Q485 -65 466.5 -31Q448 3 408 3Q353 3 305 -14.5Q257 -32 223.5 -74Q190 -116 190 -176Z"/>
</svg>