<svg xmlns="http://www.w3.org/2000/svg" viewBox="0 -1024 1024 1024">
	<path fill="#000088" d="M120 -176Q120 -179 120 -186Q120 -193 120 -196Q120 -310 159 -349Q185 -375 226 -375Q262 -375 315 -343Q350 -321 367 -321Q377 -321 384.5 -313.5Q392 -306 392 -296Q392 -286 384.5 -278.5Q377 -271 367 -271Q352 -271 335.5 -276.5Q319 -282 312 -286Q305 -290 289 -300Q248 -325 226 -325Q206 -325 195 -314Q181 -300 175 -268Q170 -242 170 -193Q170 -190 170 -184.5Q170 -179 170 -176Q170 -117 208 -80Q233 -54 273.5 -40.5Q314 -27 358 -27Q373 -27 383 -37Q405 -59 405 -110Q405 -131 408 -144Q411 -159 419 -167Q428 -176 440 -176Q455 -176 469 -162Q477 -153 497 -127Q521 -92 535 -79Q550 -63 559 -63Q582 -63 595 -75Q618 -99 618 -185Q618 -278 545 -351Q508 -388 460 -409Q412 -430 361 -430Q188 -430 111 -353Q50 -292 50 -179Q50 -108 76.5 -39.5Q103 29 150 76Q218 144 307 144Q307 144 309 144Q484 147 586 147Q596 147 602.5 141.5Q609 136 609 127Q609 113 619 102Q621 95 628 89.5Q635 84 643 84Q653 84 660.5 91.5Q668 99 668 109Q668 122 659 133Q656 160 635 178.5Q614 197 586 197Q478 197 307 194Q197 194 114 111Q60 57 30 -20.5Q0 -98 0 -179Q0 -313 76 -389Q167 -480 361 -480Q422 -480 479.5 -455Q537 -430 580 -386Q668 -299 668 -185Q668 -78 630 -40Q603 -13 559 -13Q530 -13 499 -43Q483 -59 455 -99Q452 -35 419 -2Q394 23 358 23Q240 23 172 -44Q120 -97 120 -176Z"/>
	<path fill="#800080" d="M170 -176Q170 -179 170 -186Q170 -193 170 -196Q170 -310 209 -349Q235 -375 276 -375Q312 -375 365 -343Q400 -321 417 -321Q427 -321 434.5 -313.5Q442 -306 442 -296Q442 -286 434.5 -278.5Q427 -271 417 -271Q402 -271 385.5 -276.5Q369 -282 362 -286Q355 -290 339 -300Q298 -325 276 -325Q256 -325 245 -314Q231 -300 225 -268Q220 -242 220 -193Q220 -190 220 -184.5Q220 -179 220 -176Q220 -117 258 -80Q283 -54 323.5 -40.5Q364 -27 408 -27Q423 -27 433 -37Q455 -59 455 -110Q455 -131 458 -144Q461 -159 469 -167Q478 -176 490 -176Q505 -176 519 -162Q527 -153 547 -127Q571 -92 585 -79Q600 -63 609 -63Q632 -63 645 -75Q668 -99 668 -185Q668 -278 595 -351Q558 -388 510 -409Q462 -430 411 -430Q238 -430 161 -353Q100 -292 100 -179Q100 -108 126.5 -39.5Q153 29 200 76Q268 144 357 144Q357 144 359 144Q534 147 636 147Q646 147 652.5 141.5Q659 136 659 127Q659 113 669 102Q671 95 678 89.5Q685 84 693 84Q703 84 710.5 91.5Q718 99 718 109Q718 122 709 133Q706 160 685 178.5Q664 197 636 197Q528 197 357 194Q247 194 164 111Q110 57 80 -20.5Q50 -98 50 -179Q50 -313 126 -389Q217 -480 411 -480Q472 -480 529.5 -455Q587 -430 630 -386Q718 -299 718 -185Q718 -78 680 -40Q653 -13 609 -13Q580 -13 549 -43Q533 -59 505 -99Q502 -35 469 -2Q444 23 408 23Q290 23 222 -44Q170 -97 170 -176Z"/>
	<path fill="#daa520" d="M170 -176Q170 -179 170 -185Q170 -191 170 -195Q170 -215 170.5 -228.5Q171 -242 173.5 -263Q176 -284 182 -298.5Q188 -313 197 -327Q206 -341 221 -348Q236 -355 256 -355Q287 -355 334 -326Q375 -301 397 -301Q402 -301 402 -296Q402 -291 397 -291Q372 -291 329 -317Q284 -345 256 -345Q235 -345 220.5 -335Q206 -325 198 -311.5Q190 -298 186 -275.5Q182 -253 181 -236Q180 -219 180 -195Q180 -191 180 -185Q180 -179 180 -176Q180 -93 241.5 -50Q303 -7 388 -7Q422 -7 438.5 -37Q455 -67 455 -110Q455 -140 460 -149Q464 -156 470 -156Q477 -156 487 -145Q494 -138 510 -115Q526 -94 536.5 -80.5Q547 -67 562 -55Q577 -43 589 -43Q636 -43 652 -79.5Q668 -116 668 -185Q668 -290 584 -370Q500 -450 391 -450Q60 -450 60 -179Q60 -94 94 -16Q128 62 192.5 113Q257 164 337 164Q507 167 616 167Q634 167 646.5 155.5Q659 144 659 127Q659 121 665 115Q668 111 668 109Q668 104 673 104Q678 104 678 109Q678 115 672 121Q669 125 669 127Q669 148 653.5 162.5Q638 177 616 177Q508 177 337 174Q274 174 219 143Q164 112 128 62Q92 12 71 -51Q50 -114 50 -179Q50 -324 139.5 -392Q229 -460 391 -460Q504 -460 591 -377.5Q678 -295 678 -185Q678 -152 675 -128.5Q672 -105 663.5 -81.5Q655 -58 636 -45.5Q617 -33 589 -33Q569 -33 547 -54Q530 -70 502 -109Q486 -131 480 -138Q473 -146 470 -146Q465 -142 465 -110Q465 -65 446.5 -31Q428 3 388 3Q333 3 285 -14.5Q237 -32 203.5 -74Q170 -116 170 -176Z"/>
</svg>