<svg xmlns="http://www.w3.org/2000/svg" viewBox="0 -1024 1024 1024">
	<path fill="#000088" d="M225 -739Q224 -739 222.5 -739Q221 -739 220 -739Q212 -739 201.5 -740.5Q191 -742 179.5 -744.5Q168 -747 162 -748Q159 -749 155 -749Q135 -749 119 -732Q103 -715 98 -694Q98 -693 91 -665L76 -606L59 -497L50 -294L62 -178Q90 -76 114 -14Q116 -10 116 -5Q116 5 108.5 12.5Q101 20 91 20Q74 20 68 4Q43 -61 13 -166Q12 -168 12 -170L0 -290Q0 -292 0 -293Q0 -294 0 -294L9 -501Q9 -503 9 -504L27 -615Q27 -616 28 -617Q43 -680 44 -683Q47 -694 48 -699Q48 -701 49 -704Q57 -740 84 -767Q116 -799 156 -799Q167 -799 190 -794.5Q213 -790 219 -789Q222 -789 226 -789Q242 -789 267 -776Q279 -768 284 -768Q338 -758 377 -719Q434 -662 434 -578Q434 -575 433 -571Q421 -528 385 -491Q328 -435 252 -425Q338 -371 376 -333Q443 -266 443 -194Q443 -105 393 -56Q345 -7 259 -7Q239 -7 221 -13.5Q203 -20 183.5 -30.5Q164 -41 154 -45Q143 -49 140 -59L107 -149Q105 -153 105 -157L102 -226Q102 -226 102 -227Q102 -237 109.5 -244.5Q117 -252 127 -252Q137 -252 145 -245Q152 -238 152 -228L155 -163L183 -87Q190 -84 204 -76Q242 -57 259 -57Q324 -57 358 -91Q393 -126 393 -194Q393 -245 341 -297Q307 -332 228 -381Q188 -407 177 -417Q168 -426 166 -437Q154 -446 154 -460Q154 -479 176 -490Q181 -492 185 -493.5Q189 -495 193 -495Q202 -495 209 -489Q216 -483 218 -474Q222 -473 227 -473Q259 -473 292 -487.5Q325 -502 349 -527Q375 -552 384 -581Q383 -633 352.5 -671.5Q322 -710 276 -718Q262 -721 242 -732Q229 -739 225 -739Z"/>
	<path fill="#800080" d="M275 -739Q274 -739 272.5 -739Q271 -739 270 -739Q262 -739 251.5 -740.5Q241 -742 229.5 -744.5Q218 -747 212 -748Q209 -749 205 -749Q185 -749 169 -732Q153 -715 148 -694Q148 -693 141 -665L126 -606L109 -497L100 -294L112 -178Q140 -76 164 -14Q166 -10 166 -5Q166 5 158.5 12.5Q151 20 141 20Q124 20 118 4Q93 -61 63 -166Q62 -168 62 -170L50 -290Q50 -292 50 -293Q50 -294 50 -294L59 -501Q59 -503 59 -504L77 -615Q77 -616 78 -617Q93 -680 94 -683Q97 -694 98 -699Q98 -701 99 -704Q107 -740 134 -767Q166 -799 206 -799Q217 -799 240 -794.5Q263 -790 269 -789Q272 -789 276 -789Q292 -789 317 -776Q329 -768 334 -768Q388 -758 427 -719Q484 -662 484 -578Q484 -575 483 -571Q471 -528 435 -491Q378 -435 302 -425Q388 -371 426 -333Q493 -266 493 -194Q493 -105 443 -56Q395 -7 309 -7Q289 -7 271 -13.5Q253 -20 233.5 -30.5Q214 -41 204 -45Q193 -49 190 -59L157 -149Q155 -153 155 -157L152 -226Q152 -226 152 -227Q152 -237 159.5 -244.5Q167 -252 177 -252Q187 -252 195 -245Q202 -238 202 -228L205 -163L233 -87Q240 -84 254 -76Q292 -57 309 -57Q374 -57 408 -91Q443 -126 443 -194Q443 -245 391 -297Q357 -332 278 -381Q238 -407 227 -417Q218 -426 216 -437Q204 -446 204 -460Q204 -479 226 -490Q231 -492 235 -493.5Q239 -495 243 -495Q252 -495 259 -489Q266 -483 268 -474Q272 -473 277 -473Q309 -473 342 -487.5Q375 -502 399 -527Q425 -552 434 -581Q433 -633 402.5 -671.5Q372 -710 326 -718Q312 -721 292 -732Q279 -739 275 -739Z"/>
	<path fill="#daa520" d="M185 -779Q196 -779 218.5 -774Q241 -769 250 -769Q252 -769 255 -769Q267 -769 285 -759Q303 -749 311 -748Q371 -737 407.5 -688.5Q444 -640 444 -578Q444 -577 444 -577Q429 -521 373.5 -482Q318 -443 258 -443Q242 -443 225 -446Q225 -444 225 -443Q227 -436 274 -407Q303 -388 319 -377.5Q335 -367 364.5 -343.5Q394 -320 410 -300Q426 -280 439.5 -251.5Q453 -223 453 -194Q453 -114 409.5 -70.5Q366 -27 289 -27Q273 -27 256 -33Q239 -39 220 -49.5Q201 -60 191 -63Q189 -64 188 -66L155 -156Q155 -157 155 -158L152 -227Q152 -232 157 -232Q162 -232 162 -227L165 -159L197 -72Q205 -69 224 -59Q243 -49 259 -43Q275 -37 289 -37Q362 -37 402.5 -77Q443 -117 443 -194Q443 -221 430.5 -247.5Q418 -274 402 -293.5Q386 -313 358.5 -335.5Q331 -358 313.5 -369.5Q296 -381 268 -398Q238 -418 228 -425Q215 -435 215 -443Q215 -444 215 -449Q204 -453 204 -460Q204 -469 221 -475Q222 -475 223 -475Q228 -475 228 -470Q228 -470 228 -469Q227 -463 226 -457Q242 -453 258 -453Q314 -453 366.5 -490Q419 -527 434 -579Q434 -637 399.5 -682.5Q365 -728 309 -738Q299 -740 282 -749Q265 -759 255 -759Q254 -759 252.5 -759Q251 -759 250 -759Q241 -759 218.5 -763.5Q196 -768 195 -768Q190 -769 185 -769Q158 -769 136.5 -747Q115 -725 108 -697Q108 -696 102 -670L87 -610L69 -499L60 -293L72 -174Q101 -70 126 -7Q126 -6 126 -5Q126 0 121 0Q118 0 116 -3Q92 -67 62 -172L50 -292V-293L59 -500Q59 -501 59 -501L77 -612Q93 -675 94 -678Q98 -694 98 -698Q98 -699 98 -699Q105 -730 129.5 -754.5Q154 -779 185 -779ZM217 -462Q217 -461 217 -459Q215 -460 215 -460Q216 -461 217 -462Z"/>
</svg>