<svg xmlns="http://www.w3.org/2000/svg" viewBox="0 -1024 1024 1024">
	<path fill="#000088" d="M359 -94Q359 -81 349.5 -71.5Q340 -62 327 -62Q305 -62 296 -82L55 -665Q53 -671 53 -677Q53 -691 62.5 -700.5Q72 -710 85 -710Q107 -710 116 -690L357 -107Q359 -101 359 -94Z"/>
	<path fill="#800080" d="M409 -94Q409 -81 399.5 -71.5Q390 -62 377 -62Q355 -62 346 -82L105 -665Q103 -671 103 -677Q103 -691 112.5 -700.5Q122 -710 135 -710Q157 -710 166 -690L407 -107Q409 -101 409 -94Z"/>
	<path fill="#daa520" d="M311 -107Q311 -102 306 -102Q303 -102 301 -105L70 -663Q70 -664 70 -665Q70 -670 75 -670Q78 -670 80 -667L311 -109Q311 -108 311 -107Z"/>
</svg>