<svg xmlns="http://www.w3.org/2000/svg" viewBox="0 -1024 1024 1024">
	<path fill="#000088" d="M25 247V157H92V-773H25V-863H127Q149 -863 164 -854.5Q179 -846 179 -833V187Q179 212 168.5 229.5Q158 247 144 247Z"/>
	<path fill="#800080" d="M201 -853Q216 -853 226 -842.5Q236 -832 236 -818V202Q236 217 226 227Q216 237 201 237H99Q84 237 74 227Q64 217 64 202Q64 187 74 177Q84 167 99 167H166V-783H99Q84 -783 74 -793Q64 -803 64 -818Q64 -833 74 -843Q84 -853 99 -853Z"/>
	<path fill="#daa520" d="M75 207Q70 207 70 202Q70 197 75 197H172V-813H75Q70 -813 70 -818Q70 -823 75 -823H177Q182 -823 182 -818V202Q182 207 177 207Z"/>
</svg>