<svg xmlns="http://www.w3.org/2000/svg" viewBox="0 -1024 1024 1024">
	<path fill="#000088" d="M84 -783V167H151Q166 167 176 177Q186 187 186 202Q186 217 176 227Q166 237 151 237H49Q34 237 24 227Q14 217 14 202V-818Q14 -833 24 -843Q34 -853 49 -853H151Q166 -853 176 -843Q186 -833 186 -818Q186 -803 176 -793Q166 -783 151 -783Z"/>
	<path fill="#800080" d="M134 -783V167H201Q216 167 226 177Q236 187 236 202Q236 217 226 227Q216 237 201 237H99Q84 237 74 227Q64 217 64 202V-818Q64 -833 74 -843Q84 -853 99 -853H201Q216 -853 226 -843Q236 -833 236 -818Q236 -803 226 -793Q216 -783 201 -783Z"/>
	<path fill="#daa520" d="M60 -813V197H157Q162 197 162 202Q162 207 157 207H55Q50 207 50 202V-818Q50 -823 55 -823H157Q162 -823 162 -818Q162 -813 157 -813Z"/>
</svg>