<svg xmlns="http://www.w3.org/2000/svg" viewBox="0 -1024 1024 1024">
	<path fill="#000088" d="M151 -853Q166 -853 176 -842.5Q186 -832 186 -818V202Q186 217 176 227Q166 237 151 237H49Q34 237 24 227Q14 217 14 202Q14 187 24 177Q34 167 49 167H116V-783H49Q34 -783 24 -793Q14 -803 14 -818Q14 -833 24 -843Q34 -853 49 -853Z"/>
	<path fill="#800080" d="M201 -853Q216 -853 226 -842.5Q236 -832 236 -818V202Q236 217 226 227Q216 237 201 237H99Q84 237 74 227Q64 217 64 202Q64 187 74 177Q84 167 99 167H166V-783H99Q84 -783 74 -793Q64 -803 64 -818Q64 -833 74 -843Q84 -853 99 -853Z"/>
	<path fill="#daa520" d="M55 207Q50 207 50 202Q50 197 55 197H152V-813H55Q50 -813 50 -818Q50 -823 55 -823H157Q162 -823 162 -818V202Q162 207 157 207Z"/>
</svg>