<svg xmlns="http://www.w3.org/2000/svg" viewBox="0 -1024 1024 1024">
	<path fill="#000088" d="M38 -491Q38 -519 29.5 -581Q21 -643 21 -671Q21 -712 34 -735L69 -796Q85 -824 126 -831L141 -740Q123 -737 109 -729Q108 -717 108 -702Q108 -674 116.5 -611.5Q125 -549 125 -521Q125 -509 117 -495L82 -434Q79 -429 75 -424L85 -418Q99 -410 106 -384.5Q113 -359 114.5 -335Q116 -311 118 -263Q121 -129 140 -74H143L144 -63Q148 -54 157 -49L145 -56L153 17Q151 18 148 18Q132 18 122 11L70 -19Q60 -24 56 -35Q34 -91 31 -232Q28 -332 17 -361Q0 -362 -12.5 -370.5Q-25 -379 -25 -392Q-25 -396 -22 -402L13 -463Q18 -470 38 -491Z"/>
	<path fill="#800080" d="M118 -506Q118 -534 109 -596.5Q100 -659 100 -687Q100 -741 124 -764L160 -800Q176 -816 204 -820Q207 -821 209 -821Q224 -821 234 -810.5Q244 -800 244 -786Q244 -773 236 -763Q228 -753 215 -751Q191 -748 181 -743Q171 -722 171 -687Q171 -659 179.5 -596.5Q188 -534 188 -506Q188 -491 178.5 -476.5Q169 -462 152.5 -445Q136 -428 131 -421L155 -398Q166 -387 171.5 -361.5Q177 -336 178.5 -314Q180 -292 181 -247Q184 -118 202 -64Q206 -63 211 -63Q214 -63 216 -63.5Q218 -64 220 -64Q235 -64 245 -53.5Q255 -43 255 -28Q255 -15 246 -5Q237 5 224 6Q214 8 211 8Q189 8 178 -4L143 -39Q138 -44 136 -50Q114 -107 110 -247Q108 -342 99 -372Q97 -372 95.5 -372Q94 -372 91 -371.5Q88 -371 87 -371Q74 -371 64.5 -381.5Q55 -392 55 -407Q55 -417 79 -443Q118 -483 118 -506Z"/>
	<path fill="#daa520" d="M83 -506Q83 -534 74.5 -596.5Q66 -659 66 -687Q66 -778 138 -790Q139 -790 139 -790Q144 -790 144 -785Q144 -781 140 -780Q104 -774 90 -750.5Q76 -727 76 -687Q76 -659 84.5 -596.5Q93 -534 93 -506Q93 -494 85.5 -480.5Q78 -467 72 -460Q66 -453 53 -439Q36 -421 32 -412Q62 -412 74 -371Q83 -340 86 -247Q89 -107 111 -52Q118 -33 146 -33Q148 -33 149.5 -33Q151 -33 151 -33Q156 -33 156 -28Q156 -24 152 -23Q149 -23 146 -23Q111 -23 101 -48Q91 -75 85 -113Q79 -151 78 -176Q77 -201 76 -247Q74 -328 65.5 -365Q57 -402 31 -402Q30 -402 28 -402Q26 -402 25 -402Q20 -402 20 -407Q20 -419 46 -446Q83 -485 83 -506Z"/>
</svg>