<svg xmlns="http://www.w3.org/2000/svg" viewBox="0 -1024 1024 1024">
	<path fill="#000088" d="M68 -506Q68 -534 59 -596.5Q50 -659 50 -687Q50 -741 74 -764L110 -800Q126 -816 154 -820Q157 -821 159 -821Q174 -821 184 -810.5Q194 -800 194 -786Q194 -773 186 -763Q178 -753 165 -751Q141 -748 131 -743Q121 -722 121 -687Q121 -659 129.5 -596.5Q138 -534 138 -506Q138 -491 128.5 -476.5Q119 -462 102.5 -445Q86 -428 81 -421L105 -398Q116 -387 121.5 -361.5Q127 -336 128.5 -314Q130 -292 131 -247Q134 -118 152 -64Q156 -63 161 -63Q164 -63 166 -63.5Q168 -64 170 -64Q185 -64 195 -53.5Q205 -43 205 -28Q205 -15 196 -5Q187 5 174 6Q164 8 161 8Q139 8 128 -4L93 -39Q88 -44 86 -50Q64 -107 60 -247Q58 -342 49 -372Q47 -372 45.5 -372Q44 -372 41 -371.5Q38 -371 37 -371Q24 -371 14.5 -381.5Q5 -392 5 -407Q5 -417 29 -443Q68 -483 68 -506Z"/>
	<path fill="#800080" d="M118 -506Q118 -534 109 -596.5Q100 -659 100 -687Q100 -741 124 -764L160 -800Q176 -816 204 -820Q207 -821 209 -821Q224 -821 234 -810.5Q244 -800 244 -786Q244 -773 236 -763Q228 -753 215 -751Q191 -748 181 -743Q171 -722 171 -687Q171 -659 179.5 -596.5Q188 -534 188 -506Q188 -491 178.5 -476.5Q169 -462 152.5 -445Q136 -428 131 -421L155 -398Q166 -387 171.5 -361.5Q177 -336 178.5 -314Q180 -292 181 -247Q184 -118 202 -64Q206 -63 211 -63Q214 -63 216 -63.5Q218 -64 220 -64Q235 -64 245 -53.5Q255 -43 255 -28Q255 -15 246 -5Q237 5 224 6Q214 8 211 8Q189 8 178 -4L143 -39Q138 -44 136 -50Q114 -107 110 -247Q108 -342 99 -372Q97 -372 95.5 -372Q94 -372 91 -371.5Q88 -371 87 -371Q74 -371 64.5 -381.5Q55 -392 55 -407Q55 -417 79 -443Q118 -483 118 -506Z"/>
	<path fill="#daa520" d="M83 -506Q83 -534 74.5 -596.5Q66 -659 66 -687Q66 -778 138 -790Q139 -790 139 -790Q144 -790 144 -785Q144 -781 140 -780Q104 -774 90 -750.5Q76 -727 76 -687Q76 -659 84.5 -596.5Q93 -534 93 -506Q93 -494 85.5 -480.5Q78 -467 72 -460Q66 -453 53 -439Q36 -421 32 -412Q62 -412 74 -371Q83 -340 86 -247Q89 -107 111 -52Q118 -33 146 -33Q148 -33 149.5 -33Q151 -33 151 -33Q156 -33 156 -28Q156 -24 152 -23Q149 -23 146 -23Q111 -23 101 -48Q91 -75 85 -113Q79 -151 78 -176Q77 -201 76 -247Q74 -328 65.5 -365Q57 -402 31 -402Q30 -402 28 -402Q26 -402 25 -402Q20 -402 20 -407Q20 -419 46 -446Q83 -485 83 -506Z"/>
</svg>