<svg xmlns="http://www.w3.org/2000/svg" viewBox="0 -1024 1024 1024">
	<path fill="#000088" d="M169 -371Q168 -371 165 -371.5Q162 -372 160.5 -372Q159 -372 157 -372Q148 -342 146 -247Q142 -107 120 -50Q118 -44 113 -39L78 -4Q67 8 45 8Q42 8 32 6Q19 5 10 -5Q1 -15 1 -28Q1 -43 11.5 -53.5Q22 -64 36 -64Q38 -64 40 -63.5Q42 -63 45 -63Q50 -63 54 -64Q72 -118 75 -247Q76 -292 77.5 -314Q79 -336 84.5 -361.5Q90 -387 101 -398L125 -421Q120 -428 103.5 -445Q87 -462 77.5 -476.5Q68 -491 68 -506Q68 -534 76.5 -596.5Q85 -659 85 -687Q85 -722 75 -743Q65 -748 41 -751Q28 -753 20 -763Q12 -773 12 -786Q12 -800 22 -810.5Q32 -821 46 -821Q49 -821 52 -820Q80 -816 96 -800L132 -764Q156 -741 156 -687Q156 -659 147 -596.5Q138 -534 138 -506Q138 -483 177 -443Q201 -417 201 -407Q201 -392 191.5 -381.5Q182 -371 169 -371Z"/>
	<path fill="#800080" d="M219 -371Q218 -371 215 -371.5Q212 -372 210.5 -372Q209 -372 207 -372Q198 -342 196 -247Q192 -107 170 -50Q168 -44 163 -39L128 -4Q117 8 95 8Q92 8 82 6Q69 5 60 -5Q51 -15 51 -28Q51 -43 61.5 -53.5Q72 -64 86 -64Q88 -64 90 -63.5Q92 -63 95 -63Q100 -63 104 -64Q122 -118 125 -247Q126 -292 127.5 -314Q129 -336 134.5 -361.5Q140 -387 151 -398L175 -421Q170 -428 153.5 -445Q137 -462 127.5 -476.5Q118 -491 118 -506Q118 -534 126.5 -596.5Q135 -659 135 -687Q135 -722 125 -743Q115 -748 91 -751Q78 -753 70 -763Q62 -773 62 -786Q62 -800 72 -810.5Q82 -821 96 -821Q99 -821 102 -820Q130 -816 146 -800L182 -764Q206 -741 206 -687Q206 -659 197 -596.5Q188 -534 188 -506Q188 -483 227 -443Q251 -417 251 -407Q251 -392 241.5 -381.5Q232 -371 219 -371Z"/>
	<path fill="#daa520" d="M83 -506Q83 -534 91.5 -596.5Q100 -659 100 -687Q100 -727 86 -750.5Q72 -774 36 -780Q32 -781 32 -785Q32 -790 37 -790Q37 -790 38 -790Q110 -778 110 -687Q110 -659 101.5 -596.5Q93 -534 93 -506Q93 -485 130 -446Q156 -419 156 -407Q156 -402 151 -402Q150 -402 148 -402Q146 -402 145 -402Q119 -402 110.5 -365Q102 -328 100 -247Q99 -201 98 -176Q97 -151 91 -113Q85 -75 75 -48Q65 -23 30 -23Q27 -23 24 -23Q20 -24 20 -28Q20 -33 25 -33Q25 -33 26.5 -33Q28 -33 30 -33Q58 -33 65 -52Q87 -107 90 -247Q93 -340 102 -371Q114 -412 144 -412Q140 -421 123 -439Q110 -453 104 -460Q98 -467 90.5 -480.5Q83 -494 83 -506Z"/>
</svg>