<svg xmlns="http://www.w3.org/2000/svg" viewBox="0 -1024 1024 1024">
	<path fill="#000088" d="M130 -362Q129 -362 126 -362Q123 -362 122 -362Q117 -362 113 -361Q109 -334 107 -263Q104 -122 82 -65Q81 -63 80 -61L45 0Q35 18 7 18L2 17L-25 14L-15 -73Q-13 -73 -10 -73Q-1 -73 7 -75Q18 -124 20 -232Q21 -271 22 -291Q23 -311 27.5 -335.5Q32 -360 39 -373L63 -415Q60 -418 48 -430.5Q36 -443 30.5 -450Q25 -457 19 -469Q13 -481 13 -491Q13 -519 21.5 -581.5Q30 -644 30 -671Q30 -716 14 -740Q10 -740 4.5 -741Q-1 -742 -7 -743Q-13 -744 -17 -745L-3 -830Q15 -827 28 -820L80 -790Q117 -768 117 -702Q117 -674 108.5 -611.5Q100 -549 100 -521Q100 -498 138 -458Q163 -432 163 -422Q163 -397 153 -379.5Q143 -362 130 -362Z"/>
	<path fill="#800080" d="M219 -371Q218 -371 215 -371.5Q212 -372 210.5 -372Q209 -372 207 -372Q198 -342 196 -247Q192 -107 170 -50Q168 -44 163 -39L128 -4Q117 8 95 8Q92 8 82 6Q69 5 60 -5Q51 -15 51 -28Q51 -43 61.5 -53.5Q72 -64 86 -64Q88 -64 90 -63.5Q92 -63 95 -63Q100 -63 104 -64Q122 -118 125 -247Q126 -292 127.5 -314Q129 -336 134.5 -361.5Q140 -387 151 -398L175 -421Q170 -428 153.5 -445Q137 -462 127.5 -476.5Q118 -491 118 -506Q118 -534 126.5 -596.5Q135 -659 135 -687Q135 -722 125 -743Q115 -748 91 -751Q78 -753 70 -763Q62 -773 62 -786Q62 -800 72 -810.5Q82 -821 96 -821Q99 -821 102 -820Q130 -816 146 -800L182 -764Q206 -741 206 -687Q206 -659 197 -596.5Q188 -534 188 -506Q188 -483 227 -443Q251 -417 251 -407Q251 -392 241.5 -381.5Q232 -371 219 -371Z"/>
	<path fill="#daa520" d="M83 -506Q83 -534 91.5 -596.5Q100 -659 100 -687Q100 -727 86 -750.5Q72 -774 36 -780Q32 -781 32 -785Q32 -790 37 -790Q37 -790 38 -790Q110 -778 110 -687Q110 -659 101.5 -596.5Q93 -534 93 -506Q93 -485 130 -446Q156 -419 156 -407Q156 -402 151 -402Q150 -402 148 -402Q146 -402 145 -402Q119 -402 110.5 -365Q102 -328 100 -247Q99 -201 98 -176Q97 -151 91 -113Q85 -75 75 -48Q65 -23 30 -23Q27 -23 24 -23Q20 -24 20 -28Q20 -33 25 -33Q25 -33 26.5 -33Q28 -33 30 -33Q58 -33 65 -52Q87 -107 90 -247Q93 -340 102 -371Q114 -412 144 -412Q140 -421 123 -439Q110 -453 104 -460Q98 -467 90.5 -480.5Q83 -494 83 -506Z"/>
</svg>