<svg xmlns="http://www.w3.org/2000/svg" viewBox="0 -1024 1024 1024">
	<path fill="#000088" d="M112 -773V157H179V247H77Q55 247 40 238.5Q25 230 25 217V-803Q25 -828 35.5 -845.5Q46 -863 60 -863H179V-773Z"/>
	<path fill="#800080" d="M134 -783V167H201Q216 167 226 177Q236 187 236 202Q236 217 226 227Q216 237 201 237H99Q84 237 74 227Q64 217 64 202V-818Q64 -833 74 -843Q84 -853 99 -853H201Q216 -853 226 -843Q236 -833 236 -818Q236 -803 226 -793Q216 -783 201 -783Z"/>
	<path fill="#daa520" d="M80 -813V197H177Q182 197 182 202Q182 207 177 207H75Q70 207 70 202V-818Q70 -823 75 -823H177Q182 -823 182 -818Q182 -813 177 -813Z"/>
</svg>