<svg xmlns="http://www.w3.org/2000/svg" viewBox="0 -1024 1024 1024">
	<path fill="#000088" d="M414 -682Q414 -668 403.5 -657.5Q393 -647 379 -647Q366 -647 356 -656Q346 -665 344 -678Q340 -708 335 -719Q323 -724 311 -731Q287 -745 274 -745Q229 -745 198 -724Q180 -699 155 -624Q132 -550 110 -522L96 -388L100 -246L108 -190Q117 -153 124 -140Q126 -137 137 -110Q151 -73 162 -55Q168 -53 170 -53H184Q230 -33 280 -33Q319 -33 344 -52L359 -92L361 -154Q362 -168 372 -178Q382 -188 396 -188Q411 -188 421.5 -178Q432 -168 432 -153V-152L430 -92L412 -44L376 -9Q375 -8 372.5 -5.5Q370 -3 368.5 -1Q367 1 365 2Q344 21 326.5 29Q309 37 280 37Q230 37 184 17H170Q157 17 144 4L108 -31Q91 -48 66 -110Q55 -137 53 -140Q42 -159 37 -190L29 -246L25 -388L39 -522Q61 -550 84 -624Q114 -714 144 -744L179 -780Q214 -815 274 -815Q287 -815 311 -801Q330 -791 336 -789Q347 -786 355 -778L390 -743Q410 -723 414 -686Z"/>
	<path fill="#800080" d="M418 -686Q418 -676 410.5 -668.5Q403 -661 393 -661Q384 -661 376.5 -667.5Q369 -674 368 -683Q365 -712 352 -725Q348 -729 344 -730Q333 -733 317.5 -742Q302 -751 296 -753Q291 -755 289 -755Q240 -755 212 -727Q186 -701 158 -616Q134 -542 113 -513L100 -387L104 -248L112 -195Q119 -164 125 -152Q130 -144 139 -119Q161 -63 176 -49Q182 -43 185 -43H199Q204 -43 209 -41Q251 -23 295 -23Q318 -23 331 -29Q342 -34 363 -53Q367 -57 370 -59L384 -97L386 -153Q386 -163 393 -170Q401 -177 411 -177Q421 -177 428.5 -169.5Q436 -162 436 -152Q436 -152 436 -151L434 -91Q434 -87 432 -83L414 -35Q412 -29 407 -25Q403 -22 394.5 -14.5Q386 -7 381.5 -3Q377 1 369 6.5Q361 12 353 16Q329 27 295 27Q243 27 194 7H185Q161 7 141 -13Q119 -35 93 -101Q84 -122 81 -128Q71 -146 63 -184Q62 -185 62 -186L54 -242Q54 -244 54 -245L50 -387Q50 -388 50 -388Q50 -389 50 -391L64 -525Q65 -532 69 -537Q88 -561 111 -632Q121 -665 126.5 -679.5Q132 -694 145.5 -719.5Q159 -745 176 -762Q219 -805 289 -805Q307 -805 338 -788Q353 -780 358 -778Q375 -773 387 -760Q412 -736 418 -689Q418 -688 418 -686Z"/>
	<path fill="#daa520" d="M398 -686Q398 -681 393 -681Q389 -681 388 -685Q381 -740 350 -749Q341 -752 323 -762Q299 -775 289 -775Q260 -775 237 -765.5Q214 -756 200.5 -744.5Q187 -733 174 -709Q161 -685 155 -669Q149 -653 139 -622Q115 -548 94 -520L80 -388L84 -246L92 -191Q100 -156 107 -142Q111 -135 121 -112Q139 -65 152 -47Q168 -23 185 -23H199Q200 -23 201 -23Q247 -3 295 -3Q323 -3 338.5 -10.5Q354 -18 376 -38Q383 -44 387 -47L404 -93L406 -152Q406 -157 411 -157Q416 -157 416 -152L414 -92Q414 -91 414 -90L396 -42Q395 -41 394 -40Q391 -38 381.5 -29.5Q372 -21 368 -18Q364 -15 355 -9Q346 -3 339.5 -0.5Q333 2 322.5 4.5Q312 7 301 7Q298 7 295 7Q246 7 198 -13H185Q163 -13 144 -41Q130 -60 111 -108Q102 -131 99 -138Q90 -153 82 -189L74 -245Q74 -246 74 -246L70 -388V-389L84 -523Q84 -524 85 -525Q105 -552 130 -626Q137 -648 141 -659Q145 -670 153.5 -690Q162 -710 169 -721Q176 -732 188.5 -746Q201 -760 214.5 -767Q228 -774 247.5 -779.5Q267 -785 289 -785Q302 -785 324.5 -773Q347 -761 352 -759Q391 -748 398 -687Q398 -687 398 -686Z"/>
</svg>