<svg xmlns="http://www.w3.org/2000/svg" viewBox="0 -1024 1024 1024">
	<path fill="#000088" d="M7.5 -421.5Q0 -429 0 -439Q0 -449 7.5 -456.5Q15 -464 25 -464Q35 -464 42.5 -456.5Q50 -449 50 -439Q50 -429 42.5 -421.5Q35 -414 25 -414Q15 -414 7.5 -421.5ZM7.5 -11.5Q0 -19 0 -29Q0 -39 7.5 -46.5Q15 -54 25 -54Q35 -54 42.5 -46.5Q50 -39 50 -29Q50 -19 42.5 -11.5Q35 -4 25 -4Q15 -4 7.5 -11.5Z"/>
	<path fill="#800080" d="M57.5 -421.5Q50 -429 50 -439Q50 -449 57.5 -456.5Q65 -464 75 -464Q85 -464 92.5 -456.5Q100 -449 100 -439Q100 -429 92.5 -421.5Q85 -414 75 -414Q65 -414 57.5 -421.5ZM57.5 -11.5Q50 -19 50 -29Q50 -39 57.5 -46.5Q65 -54 75 -54Q85 -54 92.5 -46.5Q100 -39 100 -29Q100 -19 92.5 -11.5Q85 -4 75 -4Q65 -4 57.5 -11.5Z"/>
	<path fill="#daa520" d="M55 -434Q50 -434 50 -439Q50 -444 55 -444Q60 -444 60 -439Q60 -434 55 -434ZM55 -24Q50 -24 50 -29Q50 -34 55 -34Q60 -34 60 -29Q60 -24 55 -24Z"/>
</svg>