<svg xmlns="http://www.w3.org/2000/svg" viewBox="0 -1024 1024 1024">
	<path fill="#000088" d="M27 -26Q27 -36 34.5 -43.5Q42 -51 52 -51Q68 -51 75 -36Q86 -11 86 7Q86 25 74 45Q64 60 49 75Q45 80 41 83Q34 89 25 89Q15 89 7.5 81.5Q0 74 0 64Q0 53 9 45Q22 33 31 19Q36 11 36 7Q36 4 33 -4L29 -16Q27 -21 27 -26Z"/>
	<path fill="#800080" d="M77 -26Q77 -36 84.5 -43.5Q92 -51 102 -51Q118 -51 125 -36Q136 -11 136 7Q136 25 124 45Q114 60 99 75Q95 80 91 83Q84 89 75 89Q65 89 57.5 81.5Q50 74 50 64Q50 53 59 45Q72 33 81 19Q86 11 86 7Q86 4 83 -4L79 -16Q77 -21 77 -26Z"/>
	<path fill="#daa520" d="M106 7Q106 1 104 -6.5Q102 -14 99.5 -19.5Q97 -25 97 -26Q97 -31 102 -31Q105 -31 107 -28Q116 -7 116 7Q116 23 100 44Q90 58 78 68Q77 69 75 69Q70 69 70 64Q70 62 72 60Q75 57 81 51Q87 45 96.5 31Q106 17 106 7Z"/>
</svg>