<svg xmlns="http://www.w3.org/2000/svg" viewBox="0 -1024 1024 1024">
	<path fill="#000088" d="M112 -547Q112 -522 121 -500Q121 -500 124 -497Q182 -446 198 -430L234 -394Q299 -329 299 -266Q299 -239 289 -212Q289 -183 269 -163L233 -128Q212 -107 178 -100V1Q178 16 168 26Q158 36 143 36Q128 36 117.5 26Q107 16 107 1V-111Q103 -114 93 -123Q90 -125 85 -130.5Q80 -136 77 -138L41 -173L26 -227Q25 -230 25 -236Q25 -250 35 -260Q45 -270 59 -270Q85 -270 92 -245Q95 -235 100 -216Q105 -197 107 -191V-203Q107 -218 117.5 -228Q128 -238 143 -238Q158 -238 168 -228Q178 -218 178 -203V-170Q199 -175 212 -183Q218 -195 218 -212Q228 -239 228 -266Q228 -321 179 -377Q174 -381 146 -406Q118 -431 104 -445L68 -480Q62 -486 50 -500Q42 -520 42 -547Q42 -609 84 -651L120 -686Q128 -694 138 -701V-803Q138 -818 148.5 -828Q159 -838 174 -838Q189 -838 199 -828Q209 -818 209 -803L208 -690Q223 -676 233 -670L263 -654Q278 -646 278 -627Q278 -614 269.5 -605Q261 -596 248 -596Q241 -596 233 -600Q222 -606 208 -619V-608Q208 -593 198 -583Q188 -573 173 -573Q158 -573 148 -584.5Q138 -596 138 -611V-630Q112 -592 112 -547Z"/>
	<path fill="#800080" d="M271 -635Q271 -625 263.5 -617.5Q256 -610 246 -610Q240 -610 234 -613Q224 -619 214 -627V-611Q214 -601 206.5 -593.5Q199 -586 189 -586Q179 -586 171.5 -593.5Q164 -601 164 -611V-644Q157 -639 151 -633Q116 -598 116 -547Q116 -529 121 -513Q136 -495 179 -458Q207 -434 221 -421Q235 -408 255 -383.5Q275 -359 286 -335Q301 -302 301 -265Q301 -237 292 -208Q290 -171 265 -146Q237 -118 191 -109Q186 -108 181 -108V1Q181 11 173.5 18.5Q166 26 156 26Q146 26 138.5 18.5Q131 11 131 1V-112Q114 -118 90 -140Q80 -149 74 -154Q68 -159 66 -166L51 -220Q50 -224 50 -227Q50 -237 57.5 -244.5Q65 -252 75 -252Q83 -252 90 -246.5Q97 -241 99 -234L112 -187Q116 -184 123 -177Q128 -173 131 -170V-203Q131 -213 138.5 -220.5Q146 -228 156 -228Q166 -228 173.5 -220.5Q181 -213 181 -203V-158Q181 -159 181 -159Q213 -164 229 -181Q242 -194 242 -212Q242 -216 243 -220Q252 -244 252 -266Q252 -290 241 -314Q232 -333 214 -354.5Q196 -376 183.5 -387.5Q171 -399 146 -420Q98 -462 80 -484Q77 -487 76 -491Q65 -518 65 -547Q65 -618 115 -668Q137 -690 164 -701V-803Q164 -813 171.5 -820.5Q179 -828 189 -828Q199 -828 206.5 -820.5Q214 -813 214 -803V-697Q217 -694 237 -674Q250 -661 258 -657Q271 -650 271 -635Z"/>
	<path fill="#daa520" d="M151 -203Q151 -208 156 -208Q161 -208 161 -203V1Q161 6 156 6Q151 6 151 1ZM184 -803Q184 -808 189 -808Q194 -808 194 -803V-611Q194 -606 189 -606Q184 -606 184 -611ZM251 -635Q251 -630 246 -630Q245 -630 244 -631Q232 -637 212 -658Q196 -674 188 -678Q147 -666 121.5 -628.5Q96 -591 96 -547Q96 -523 103 -503Q119 -483 154 -452.5Q189 -422 214.5 -399Q240 -376 261 -340Q282 -304 282 -266Q281 -237 272 -211Q272 -177 247 -156.5Q222 -136 187 -129Q173 -126 162 -126Q149 -126 138 -130.5Q127 -135 120.5 -140Q114 -145 103 -155Q93 -164 87 -169Q86 -170 85 -172L70 -226Q70 -226 70 -227Q70 -232 75 -232Q79 -232 80 -228L94 -176Q100 -171 110 -162Q121 -152 126.5 -148Q132 -144 141.5 -140Q151 -136 162 -136Q172 -136 185 -139Q218 -145 240 -163.5Q262 -182 262 -212Q262 -213 262 -214Q272 -241 272 -266Q272 -301 251 -336Q230 -371 205 -394Q180 -417 145.5 -447.5Q111 -478 95 -497Q95 -497 94 -498Q86 -521 86 -547Q86 -595 114 -635.5Q142 -676 188 -688Q188 -688 189 -688Q190 -688 191 -688Q200 -683 219 -665Q238 -645 248 -639Q251 -638 251 -635Z"/>
</svg>