<svg xmlns="http://www.w3.org/2000/svg" viewBox="0 -1024 1024 1024">
	<path fill="#000088" d="M221 -635Q221 -625 213.5 -617.5Q206 -610 196 -610Q190 -610 184 -613Q174 -619 164 -627V-611Q164 -601 156.5 -593.5Q149 -586 139 -586Q129 -586 121.5 -593.5Q114 -601 114 -611V-644Q107 -639 101 -633Q66 -598 66 -547Q66 -529 71 -513Q86 -495 129 -458Q157 -434 171 -421Q185 -408 205 -383.5Q225 -359 236 -335Q251 -302 251 -265Q251 -237 242 -208Q240 -171 215 -146Q187 -118 141 -109Q136 -108 131 -108V1Q131 11 123.5 18.5Q116 26 106 26Q96 26 88.5 18.5Q81 11 81 1V-112Q64 -118 40 -140Q30 -149 24 -154Q18 -159 16 -166L1 -220Q0 -224 0 -227Q0 -237 7.5 -244.5Q15 -252 25 -252Q33 -252 40 -246.5Q47 -241 49 -234L62 -187Q66 -184 73 -177Q78 -173 81 -170V-203Q81 -213 88.5 -220.5Q96 -228 106 -228Q116 -228 123.5 -220.5Q131 -213 131 -203V-158Q131 -159 131 -159Q163 -164 179 -181Q192 -194 192 -212Q192 -216 193 -220Q202 -244 202 -266Q202 -290 191 -314Q182 -333 164 -354.5Q146 -376 133.5 -387.5Q121 -399 96 -420Q48 -462 30 -484Q27 -487 26 -491Q15 -518 15 -547Q15 -618 65 -668Q87 -690 114 -701V-803Q114 -813 121.5 -820.5Q129 -828 139 -828Q149 -828 156.5 -820.5Q164 -813 164 -803V-697Q167 -694 187 -674Q200 -661 208 -657Q221 -650 221 -635Z"/>
	<path fill="#800080" d="M271 -635Q271 -625 263.5 -617.5Q256 -610 246 -610Q240 -610 234 -613Q224 -619 214 -627V-611Q214 -601 206.5 -593.5Q199 -586 189 -586Q179 -586 171.5 -593.5Q164 -601 164 -611V-644Q157 -639 151 -633Q116 -598 116 -547Q116 -529 121 -513Q136 -495 179 -458Q207 -434 221 -421Q235 -408 255 -383.5Q275 -359 286 -335Q301 -302 301 -265Q301 -237 292 -208Q290 -171 265 -146Q237 -118 191 -109Q186 -108 181 -108V1Q181 11 173.5 18.5Q166 26 156 26Q146 26 138.5 18.5Q131 11 131 1V-112Q114 -118 90 -140Q80 -149 74 -154Q68 -159 66 -166L51 -220Q50 -224 50 -227Q50 -237 57.5 -244.5Q65 -252 75 -252Q83 -252 90 -246.5Q97 -241 99 -234L112 -187Q116 -184 123 -177Q128 -173 131 -170V-203Q131 -213 138.5 -220.5Q146 -228 156 -228Q166 -228 173.5 -220.5Q181 -213 181 -203V-158Q181 -159 181 -159Q213 -164 229 -181Q242 -194 242 -212Q242 -216 243 -220Q252 -244 252 -266Q252 -290 241 -314Q232 -333 214 -354.5Q196 -376 183.5 -387.5Q171 -399 146 -420Q98 -462 80 -484Q77 -487 76 -491Q65 -518 65 -547Q65 -618 115 -668Q137 -690 164 -701V-803Q164 -813 171.5 -820.5Q179 -828 189 -828Q199 -828 206.5 -820.5Q214 -813 214 -803V-697Q217 -694 237 -674Q250 -661 258 -657Q271 -650 271 -635Z"/>
	<path fill="#daa520" d="M151 -203Q151 -208 156 -208Q161 -208 161 -203V1Q161 6 156 6Q151 6 151 1ZM184 -803Q184 -808 189 -808Q194 -808 194 -803V-611Q194 -606 189 -606Q184 -606 184 -611ZM251 -635Q251 -630 246 -630Q245 -630 244 -631Q232 -637 212 -658Q196 -674 188 -678Q147 -666 121.5 -628.5Q96 -591 96 -547Q96 -523 103 -503Q119 -483 154 -452.5Q189 -422 214.5 -399Q240 -376 261 -340Q282 -304 282 -266Q281 -237 272 -211Q272 -177 247 -156.5Q222 -136 187 -129Q173 -126 162 -126Q149 -126 138 -130.5Q127 -135 120.5 -140Q114 -145 103 -155Q93 -164 87 -169Q86 -170 85 -172L70 -226Q70 -226 70 -227Q70 -232 75 -232Q79 -232 80 -228L94 -176Q100 -171 110 -162Q121 -152 126.5 -148Q132 -144 141.5 -140Q151 -136 162 -136Q172 -136 185 -139Q218 -145 240 -163.5Q262 -182 262 -212Q262 -213 262 -214Q272 -241 272 -266Q272 -301 251 -336Q230 -371 205 -394Q180 -417 145.5 -447.5Q111 -478 95 -497Q95 -497 94 -498Q86 -521 86 -547Q86 -595 114 -635.5Q142 -676 188 -688Q188 -688 189 -688Q190 -688 191 -688Q200 -683 219 -665Q238 -645 248 -639Q251 -638 251 -635Z"/>
</svg>