<svg xmlns="http://www.w3.org/2000/svg" viewBox="0 -1024 1024 1024">
	<path fill="#000088" d="M4 -578Q4 -581 3.5 -586.5Q3 -592 3 -595Q3 -663 51 -728Q59 -742 72 -755Q105 -788 155 -795Q156 -795 158 -795Q175 -795 205.5 -792Q236 -789 250 -789Q268 -789 296 -773Q310 -765 314 -765Q323 -764 330 -757Q337 -750 337 -740Q337 -730 329.5 -722.5Q322 -715 312 -715Q311 -715 310 -715Q295 -716 271 -730Q255 -739 250 -739Q234 -739 204 -742Q174 -745 160 -745Q113 -738 94 -702Q93 -701 92 -699Q53 -647 53 -595Q54 -587 54 -577.5Q54 -568 52.5 -549.5Q51 -531 51 -522Q51 -486 70 -473Q73 -470 75.5 -468Q78 -466 81 -462.5Q84 -459 86 -457Q95 -457 105 -454Q115 -451 118 -451Q128 -449 144 -442Q155 -437 160 -437H188Q198 -437 205.5 -429.5Q213 -422 213 -412Q213 -403 207.5 -396.5Q202 -390 194 -388Q176 -383 153 -369.5Q130 -356 112 -339Q103 -329 96 -320Q94 -317 91 -314Q85 -309 79 -304Q50 -275 50 -229Q50 -226 50.5 -220.5Q51 -215 51 -212Q51 -207 50.5 -197.5Q50 -188 50 -184Q50 -147 61 -129Q63 -126 64 -123Q72 -97 93 -76Q136 -32 204 -31Q208 -31 211 -30Q221 -27 231 -27Q262 -27 290 -55Q296 -61 302 -69L321 -93Q327 -107 330 -110Q338 -117 348 -117Q358 -117 365.5 -109.5Q373 -102 373 -92Q373 -86 370 -81Q363 -67 362 -65Q333 -28 325 -20Q283 23 230 23Q215 23 200 19Q114 16 57 -41Q29 -69 17 -106Q0 -136 0 -181Q0 -188 1 -211Q0 -220 0 -228Q0 -295 44 -339Q50 -346 58 -351Q78 -379 110 -401Q104 -402 94 -405Q88 -407 86 -407Q84 -407 82 -407Q74 -407 67.5 -410Q61 -413 58 -415.5Q55 -418 49 -424Q43 -430 41 -432Q34 -437 28 -442Q1 -470 1 -519Q1 -530 2.5 -549.5Q4 -569 4 -578Z"/>
	<path fill="#800080" d="M54 -578Q54 -581 53.5 -586.5Q53 -592 53 -595Q53 -663 101 -728Q109 -742 122 -755Q155 -788 205 -795Q206 -795 208 -795Q225 -795 255.5 -792Q286 -789 300 -789Q318 -789 346 -773Q360 -765 364 -765Q373 -764 380 -757Q387 -750 387 -740Q387 -730 379.5 -722.5Q372 -715 362 -715Q361 -715 360 -715Q345 -716 321 -730Q305 -739 300 -739Q284 -739 254 -742Q224 -745 210 -745Q163 -738 144 -702Q143 -701 142 -699Q103 -647 103 -595Q104 -587 104 -577.5Q104 -568 102.5 -549.5Q101 -531 101 -522Q101 -486 120 -473Q123 -470 125.5 -468Q128 -466 131 -462.5Q134 -459 136 -457Q145 -457 155 -454Q165 -451 168 -451Q178 -449 194 -442Q205 -437 210 -437H238Q248 -437 255.5 -429.5Q263 -422 263 -412Q263 -403 257.5 -396.5Q252 -390 244 -388Q226 -383 203 -369.5Q180 -356 162 -339Q153 -329 146 -320Q144 -317 141 -314Q135 -309 129 -304Q100 -275 100 -229Q100 -226 100.5 -220.5Q101 -215 101 -212Q101 -207 100.5 -197.5Q100 -188 100 -184Q100 -147 111 -129Q113 -126 114 -123Q122 -97 143 -76Q186 -32 254 -31Q258 -31 261 -30Q271 -27 281 -27Q312 -27 340 -55Q346 -61 352 -69L371 -93Q377 -107 380 -110Q388 -117 398 -117Q408 -117 415.5 -109.5Q423 -102 423 -92Q423 -86 420 -81Q413 -67 412 -65Q383 -28 375 -20Q333 23 280 23Q265 23 250 19Q164 16 107 -41Q79 -69 67 -106Q50 -136 50 -181Q50 -188 51 -211Q50 -220 50 -228Q50 -295 94 -339Q100 -346 108 -351Q128 -379 160 -401Q154 -402 144 -405Q138 -407 136 -407Q134 -407 132 -407Q124 -407 117.5 -410Q111 -413 108 -415.5Q105 -418 99 -424Q93 -430 91 -432Q84 -437 78 -442Q51 -470 51 -519Q51 -530 52.5 -549.5Q54 -569 54 -578Z"/>
	<path fill="#daa520" d="M74 -578Q74 -581 73.5 -586.5Q73 -592 73 -595Q73 -657 118 -717Q131 -741 155 -756Q179 -771 207 -775Q207 -775 208 -775Q224 -775 254.5 -772Q285 -769 300 -769Q313 -769 336 -756Q354 -746 362 -745Q367 -745 367 -740Q367 -735 362 -735Q362 -735 361 -735Q351 -736 330.5 -747.5Q310 -759 300 -759Q285 -759 254.5 -762Q224 -765 208 -765Q182 -762 160 -747.5Q138 -733 126 -712Q126 -711 126 -711Q83 -654 83 -595V-594Q84 -587 84 -578Q84 -569 82.5 -549.5Q81 -530 81 -520Q81 -475 109 -456Q111 -454 117 -448Q127 -437 132 -437Q134 -437 136 -437Q142 -437 151.5 -434Q161 -431 165 -431Q172 -430 186 -423.5Q200 -417 210 -417H238Q243 -417 243 -412Q243 -408 239 -407Q212 -400 180 -378.5Q148 -357 130 -331Q129 -331 129 -330Q80 -293 80 -229Q80 -226 80.5 -220.5Q81 -215 81 -212Q81 -207 80.5 -197Q80 -187 80 -183Q80 -142 94 -119Q94 -118 95 -117Q109 -69 155 -40.5Q201 -12 254 -11Q255 -11 255 -11Q268 -7 281 -7Q330 -7 368 -57L388 -83L393 -94Q395 -97 398 -97Q403 -97 403 -92Q403 -91 402 -90L396 -78Q396 -77 396 -77L376 -51Q335 3 281 3Q267 3 253 -1Q197 -2 149 -32.5Q101 -63 85 -114Q70 -139 70 -183Q70 -191 71 -212Q70 -220 70 -229Q70 -297 122 -337Q153 -381 209 -407Q198 -407 184 -413.5Q170 -420 163 -421Q160 -422 150.5 -424.5Q141 -427 136 -427Q135 -427 133.5 -427Q132 -427 132 -427Q126 -427 120.5 -431Q115 -435 110.5 -440.5Q106 -446 103 -448Q71 -470 71 -520Q71 -530 72.5 -549.5Q74 -569 74 -578Z"/>
</svg>