<svg xmlns="http://www.w3.org/2000/svg" viewBox="0 -1024 1024 1024">
	<path fill="#000088" d="M29 -578Q29 -581 28.5 -587Q28 -593 28 -595Q28 -656 72 -714Q80 -728 89 -737L124 -772Q152 -800 193 -805Q208 -805 239 -802Q270 -799 285 -799Q297 -799 317.5 -787.5Q338 -776 347 -775H354Q368 -773 377 -763Q386 -753 386 -740Q386 -726 375 -715.5Q364 -705 350 -705Q339 -705 319 -716Q295 -729 285 -729Q270 -729 239 -732Q208 -735 193 -735Q167 -732 145 -718Q144 -718 144 -716Q144 -714 143 -714Q99 -656 99 -595V-578Q99 -568 98 -549Q97 -530 97 -520Q97 -488 108 -471Q114 -467 117 -467Q118 -467 119 -467.5Q120 -468 121 -468Q126 -468 135.5 -464.5Q145 -461 149 -461Q156 -460 170.5 -453.5Q185 -447 195 -447H223V-377Q185 -367 149 -338Q148 -337 148 -336Q148 -334 147 -334L120 -308Q96 -276 96 -229Q96 -227 96.5 -221Q97 -215 97 -212Q97 -207 96.5 -197.5Q96 -188 96 -183Q96 -141 111 -116Q116 -98 130 -77Q176 -43 239 -41Q251 -37 266 -37Q296 -37 324 -57L342 -80Q346 -87 352 -100.5Q358 -114 362 -120Q371 -138 390 -138Q403 -138 412.5 -128.5Q422 -119 422 -106Q422 -96 413 -80L393 -54Q389 -48 378 -37L343 -2Q308 33 266 33Q251 33 239 29Q160 27 110 -23L75 -58Q51 -82 40 -116Q25 -141 25 -183Q25 -188 25.5 -197.5Q26 -207 26 -212Q26 -215 25.5 -221Q25 -227 25 -229Q25 -285 61 -321L81 -341Q85 -346 95 -356Q101 -362 113.5 -375Q126 -388 133 -395Q125 -397 121 -397H117Q111 -397 103 -405L91 -417Q83 -423 81 -425L46 -460Q26 -480 26 -520Q26 -530 27.5 -549Q29 -568 29 -578Z"/>
	<path fill="#800080" d="M54 -578Q54 -581 53.5 -586.5Q53 -592 53 -595Q53 -663 101 -728Q109 -742 122 -755Q155 -788 205 -795Q206 -795 208 -795Q225 -795 255.5 -792Q286 -789 300 -789Q318 -789 346 -773Q360 -765 364 -765Q373 -764 380 -757Q387 -750 387 -740Q387 -730 379.5 -722.5Q372 -715 362 -715Q361 -715 360 -715Q345 -716 321 -730Q305 -739 300 -739Q284 -739 254 -742Q224 -745 210 -745Q163 -738 144 -702Q143 -701 142 -699Q103 -647 103 -595Q104 -587 104 -577.5Q104 -568 102.5 -549.5Q101 -531 101 -522Q101 -486 120 -473Q123 -470 125.5 -468Q128 -466 131 -462.5Q134 -459 136 -457Q145 -457 155 -454Q165 -451 168 -451Q178 -449 194 -442Q205 -437 210 -437H238Q248 -437 255.5 -429.5Q263 -422 263 -412Q263 -403 257.5 -396.5Q252 -390 244 -388Q226 -383 203 -369.5Q180 -356 162 -339Q153 -329 146 -320Q144 -317 141 -314Q135 -309 129 -304Q100 -275 100 -229Q100 -226 100.5 -220.5Q101 -215 101 -212Q101 -207 100.5 -197.5Q100 -188 100 -184Q100 -147 111 -129Q113 -126 114 -123Q122 -97 143 -76Q186 -32 254 -31Q258 -31 261 -30Q271 -27 281 -27Q312 -27 340 -55Q346 -61 352 -69L371 -93Q377 -107 380 -110Q388 -117 398 -117Q408 -117 415.5 -109.5Q423 -102 423 -92Q423 -86 420 -81Q413 -67 412 -65Q383 -28 375 -20Q333 23 280 23Q265 23 250 19Q164 16 107 -41Q79 -69 67 -106Q50 -136 50 -181Q50 -188 51 -211Q50 -220 50 -228Q50 -295 94 -339Q100 -346 108 -351Q128 -379 160 -401Q154 -402 144 -405Q138 -407 136 -407Q134 -407 132 -407Q124 -407 117.5 -410Q111 -413 108 -415.5Q105 -418 99 -424Q93 -430 91 -432Q84 -437 78 -442Q51 -470 51 -519Q51 -530 52.5 -549.5Q54 -569 54 -578Z"/>
	<path fill="#daa520" d="M74 -578Q74 -581 73.5 -586.5Q73 -592 73 -595Q73 -657 118 -717Q131 -741 155 -756Q179 -771 207 -775Q207 -775 208 -775Q224 -775 254.5 -772Q285 -769 300 -769Q313 -769 336 -756Q354 -746 362 -745Q367 -745 367 -740Q367 -735 362 -735Q362 -735 361 -735Q351 -736 330.5 -747.5Q310 -759 300 -759Q285 -759 254.5 -762Q224 -765 208 -765Q182 -762 160 -747.5Q138 -733 126 -712Q126 -711 126 -711Q83 -654 83 -595V-594Q84 -587 84 -578Q84 -569 82.5 -549.5Q81 -530 81 -520Q81 -475 109 -456Q111 -454 117 -448Q127 -437 132 -437Q134 -437 136 -437Q142 -437 151.5 -434Q161 -431 165 -431Q172 -430 186 -423.5Q200 -417 210 -417H238Q243 -417 243 -412Q243 -408 239 -407Q212 -400 180 -378.5Q148 -357 130 -331Q129 -331 129 -330Q80 -293 80 -229Q80 -226 80.5 -220.5Q81 -215 81 -212Q81 -207 80.5 -197Q80 -187 80 -183Q80 -142 94 -119Q94 -118 95 -117Q109 -69 155 -40.5Q201 -12 254 -11Q255 -11 255 -11Q268 -7 281 -7Q330 -7 368 -57L388 -83L393 -94Q395 -97 398 -97Q403 -97 403 -92Q403 -91 402 -90L396 -78Q396 -77 396 -77L376 -51Q335 3 281 3Q267 3 253 -1Q197 -2 149 -32.5Q101 -63 85 -114Q70 -139 70 -183Q70 -191 71 -212Q70 -220 70 -229Q70 -297 122 -337Q153 -381 209 -407Q198 -407 184 -413.5Q170 -420 163 -421Q160 -422 150.5 -424.5Q141 -427 136 -427Q135 -427 133.5 -427Q132 -427 132 -427Q126 -427 120.5 -431Q115 -435 110.5 -440.5Q106 -446 103 -448Q71 -470 71 -520Q71 -530 72.5 -549.5Q74 -569 74 -578Z"/>
</svg>