<svg xmlns="http://www.w3.org/2000/svg" viewBox="0 -1024 1024 1024">
	<path fill="#000088" d="M63 -73Q72 -40 83 -27Q94 -40 103 -73Q116 -125 116 -194Q116 -263 103 -315Q94 -348 83 -361Q72 -348 63 -315Q50 -263 50 -194Q50 -125 63 -73ZM63 -461Q72 -428 83 -415Q94 -428 103 -461Q116 -513 116 -582Q116 -651 103 -703Q94 -736 83 -749Q72 -736 63 -703Q50 -651 50 -582Q50 -513 63 -461ZM15 -328Q26 -368 40 -388Q26 -408 15 -448Q0 -506 0 -582Q0 -658 15 -716Q28 -765 49 -786Q64 -801 83 -801Q102 -801 117 -786Q138 -765 151 -716Q166 -658 166 -582Q166 -506 151 -448Q140 -408 125 -388Q140 -368 151 -328Q166 -270 166 -194Q166 -118 151 -60Q138 -11 117 10Q102 25 83 25Q64 25 49 10Q28 -11 15 -60Q0 -118 0 -194Q0 -270 15 -328Z"/>
	<path fill="#800080" d="M113 -73Q122 -40 133 -27Q144 -40 153 -73Q166 -125 166 -194Q166 -263 153 -315Q144 -348 133 -361Q122 -348 113 -315Q100 -263 100 -194Q100 -125 113 -73ZM113 -461Q122 -428 133 -415Q144 -428 153 -461Q166 -513 166 -582Q166 -651 153 -703Q144 -736 133 -749Q122 -736 113 -703Q100 -651 100 -582Q100 -513 113 -461ZM65 -328Q76 -368 90 -388Q76 -408 65 -448Q50 -506 50 -582Q50 -658 65 -716Q78 -765 99 -786Q114 -801 133 -801Q152 -801 167 -786Q188 -765 201 -716Q216 -658 216 -582Q216 -506 201 -448Q190 -408 175 -388Q190 -368 201 -328Q216 -270 216 -194Q216 -118 201 -60Q188 -11 167 10Q152 25 133 25Q114 25 99 10Q78 -11 65 -60Q50 -118 50 -194Q50 -270 65 -328Z"/>
	<path fill="#daa520" d="M91 -432Q108 -383 133 -383Q158 -383 175 -432Q196 -491 196 -582Q196 -673 175 -732Q158 -781 133 -781Q108 -781 91 -732Q70 -673 70 -582Q70 -491 91 -432ZM100 -729Q115 -771 133 -771Q151 -771 166 -729Q186 -671 186 -582Q186 -493 166 -435Q151 -393 133 -393Q115 -393 100 -435Q80 -493 80 -582Q80 -671 100 -729ZM91 -344Q108 -393 133 -393Q158 -393 175 -344Q196 -285 196 -194Q196 -103 175 -44Q158 5 133 5Q108 5 91 -44Q70 -103 70 -194Q70 -285 91 -344ZM100 -47Q115 -5 133 -5Q151 -5 166 -47Q186 -105 186 -194Q186 -283 166 -341Q151 -383 133 -383Q115 -383 100 -341Q80 -283 80 -194Q80 -105 100 -47Z"/>
</svg>