<svg xmlns="http://www.w3.org/2000/svg" viewBox="0 -1024 1024 1024">
	<path fill="#000088" d="M63 -73Q72 -40 83 -27Q94 -40 103 -73Q116 -125 116 -194Q116 -263 103 -315Q94 -348 83 -361Q72 -348 63 -315Q50 -263 50 -194Q50 -125 63 -73ZM63 -461Q72 -428 83 -415Q94 -428 103 -461Q116 -513 116 -582Q116 -651 103 -703Q94 -736 83 -749Q72 -736 63 -703Q50 -651 50 -582Q50 -513 63 -461ZM15 -328Q26 -368 40 -388Q26 -408 15 -448Q0 -506 0 -582Q0 -658 15 -716Q28 -765 49 -786Q64 -801 83 -801Q102 -801 117 -786Q138 -765 151 -716Q166 -658 166 -582Q166 -506 151 -448Q140 -408 125 -388Q140 -368 151 -328Q166 -270 166 -194Q166 -118 151 -60Q138 -11 117 10Q102 25 83 25Q64 25 49 10Q28 -11 15 -60Q0 -118 0 -194Q0 -270 15 -328Z"/>
	<path fill="#800080" d="M113 -73Q122 -40 133 -27Q144 -40 153 -73Q166 -125 166 -194Q166 -263 153 -315Q144 -348 133 -361Q122 -348 113 -315Q100 -263 100 -194Q100 -125 113 -73ZM113 -461Q122 -428 133 -415Q144 -428 153 -461Q166 -513 166 -582Q166 -651 153 -703Q144 -736 133 -749Q122 -736 113 -703Q100 -651 100 -582Q100 -513 113 -461ZM65 -328Q76 -368 90 -388Q76 -408 65 -448Q50 -506 50 -582Q50 -658 65 -716Q78 -765 99 -786Q114 -801 133 -801Q152 -801 167 -786Q188 -765 201 -716Q216 -658 216 -582Q216 -506 201 -448Q190 -408 175 -388Q190 -368 201 -328Q216 -270 216 -194Q216 -118 201 -60Q188 -11 167 10Q152 25 133 25Q114 25 99 10Q78 -11 65 -60Q50 -118 50 -194Q50 -270 65 -328Z"/>
	<path fill="#daa520" d="M71 -432Q88 -383 113 -383Q138 -383 155 -432Q176 -491 176 -582Q176 -673 155 -732Q138 -781 113 -781Q88 -781 71 -732Q50 -673 50 -582Q50 -491 71 -432ZM80 -729Q95 -771 113 -771Q131 -771 146 -729Q166 -671 166 -582Q166 -493 146 -435Q131 -393 113 -393Q95 -393 80 -435Q60 -493 60 -582Q60 -671 80 -729ZM71 -344Q88 -393 113 -393Q138 -393 155 -344Q176 -285 176 -194Q176 -103 155 -44Q138 5 113 5Q88 5 71 -44Q50 -103 50 -194Q50 -285 71 -344ZM80 -47Q95 -5 113 -5Q131 -5 146 -47Q166 -105 166 -194Q166 -283 146 -341Q131 -383 113 -383Q95 -383 80 -341Q60 -283 60 -194Q60 -105 80 -47Z"/>
</svg>