<svg xmlns="http://www.w3.org/2000/svg" viewBox="0 -1024 1024 1024">
	<path fill="#000088" d="M66 -768L102 -803Q110 -811 118 -811Q127 -811 135 -803L170 -768Q188 -750 200 -698.5Q212 -647 212 -582Q212 -517 200 -465.5Q188 -414 170 -396L135 -361Q127 -353 118 -353Q110 -353 102 -361L66 -396Q48 -414 36.5 -465.5Q25 -517 25 -582Q25 -647 36.5 -698.5Q48 -750 66 -768ZM118 -736Q96 -681 96 -582Q96 -483 118 -428Q141 -486 141 -582Q141 -678 118 -736ZM66 -380L102 -415Q110 -423 118 -423Q127 -423 135 -415L170 -380Q188 -362 200 -310.5Q212 -259 212 -194Q212 -129 200 -77.5Q188 -26 170 -8L135 27Q127 35 118 35Q110 35 102 27L66 -8Q48 -26 36.5 -77.5Q25 -129 25 -194Q25 -259 36.5 -310.5Q48 -362 66 -380ZM118 -348Q96 -293 96 -194Q96 -95 118 -40Q141 -98 141 -194Q141 -290 118 -348Z"/>
	<path fill="#800080" d="M113 -73Q122 -40 133 -27Q144 -40 153 -73Q166 -125 166 -194Q166 -263 153 -315Q144 -348 133 -361Q122 -348 113 -315Q100 -263 100 -194Q100 -125 113 -73ZM113 -461Q122 -428 133 -415Q144 -428 153 -461Q166 -513 166 -582Q166 -651 153 -703Q144 -736 133 -749Q122 -736 113 -703Q100 -651 100 -582Q100 -513 113 -461ZM65 -328Q76 -368 90 -388Q76 -408 65 -448Q50 -506 50 -582Q50 -658 65 -716Q78 -765 99 -786Q114 -801 133 -801Q152 -801 167 -786Q188 -765 201 -716Q216 -658 216 -582Q216 -506 201 -448Q190 -408 175 -388Q190 -368 201 -328Q216 -270 216 -194Q216 -118 201 -60Q188 -11 167 10Q152 25 133 25Q114 25 99 10Q78 -11 65 -60Q50 -118 50 -194Q50 -270 65 -328Z"/>
	<path fill="#daa520" d="M91 -432Q108 -383 133 -383Q158 -383 175 -432Q196 -491 196 -582Q196 -673 175 -732Q158 -781 133 -781Q108 -781 91 -732Q70 -673 70 -582Q70 -491 91 -432ZM100 -729Q115 -771 133 -771Q151 -771 166 -729Q186 -671 186 -582Q186 -493 166 -435Q151 -393 133 -393Q115 -393 100 -435Q80 -493 80 -582Q80 -671 100 -729ZM91 -344Q108 -393 133 -393Q158 -393 175 -344Q196 -285 196 -194Q196 -103 175 -44Q158 5 133 5Q108 5 91 -44Q70 -103 70 -194Q70 -285 91 -344ZM100 -47Q115 -5 133 -5Q151 -5 166 -47Q186 -105 186 -194Q186 -283 166 -341Q151 -383 133 -383Q115 -383 100 -341Q80 -283 80 -194Q80 -105 100 -47Z"/>
</svg>