<svg xmlns="http://www.w3.org/2000/svg" viewBox="0 -1024 1024 1024">
	<path fill="#000088" d="M25 -347Q15 -347 7.5 -354.5Q0 -362 0 -372Q0 -382 7.5 -389.5Q15 -397 25 -397H373Q383 -397 390.5 -389.5Q398 -382 398 -372Q398 -362 390.5 -354.5Q383 -347 373 -347ZM25 -447Q15 -447 7.5 -454.5Q0 -462 0 -472Q0 -482 7.5 -489.5Q15 -497 25 -497H373Q383 -497 390.5 -489.5Q398 -482 398 -472Q398 -462 390.5 -454.5Q383 -447 373 -447Z"/>
	<path fill="#800080" d="M75 -347Q65 -347 57.5 -354.5Q50 -362 50 -372Q50 -382 57.5 -389.5Q65 -397 75 -397H423Q433 -397 440.5 -389.5Q448 -382 448 -372Q448 -362 440.5 -354.5Q433 -347 423 -347ZM75 -447Q65 -447 57.5 -454.5Q50 -462 50 -472Q50 -482 57.5 -489.5Q65 -497 75 -497H423Q433 -497 440.5 -489.5Q448 -482 448 -472Q448 -462 440.5 -454.5Q433 -447 423 -447Z"/>
	<path fill="#daa520" d="M55 -367Q50 -367 50 -372Q50 -377 55 -377H403Q408 -377 408 -372Q408 -367 403 -367ZM55 -467Q50 -467 50 -472Q50 -477 55 -477H403Q408 -477 408 -472Q408 -467 403 -467Z"/>
</svg>