<svg xmlns="http://www.w3.org/2000/svg" viewBox="0 -1024 1024 1024">
	<path fill="#000088" d="M0 -812Q0 -822 7.5 -829.5Q15 -837 25 -837Q35 -837 42.5 -829.5Q50 -822 50 -812L56 -323Q56 -313 48.5 -305.5Q41 -298 31 -298Q21 -298 13.5 -305.5Q6 -313 6 -323ZM9 -203Q9 -213 16.5 -220.5Q24 -228 34 -228Q44 -228 51.5 -220.5Q59 -213 59 -203V-137Q59 -127 51.5 -119.5Q44 -112 34 -112Q24 -112 16.5 -119.5Q9 -127 9 -137Z"/>
	<path fill="#800080" d="M50 -812Q50 -822 57.5 -829.5Q65 -837 75 -837Q85 -837 92.5 -829.5Q100 -822 100 -812L106 -323Q106 -313 98.5 -305.5Q91 -298 81 -298Q71 -298 63.5 -305.5Q56 -313 56 -323ZM59 -203Q59 -213 66.5 -220.5Q74 -228 84 -228Q94 -228 101.5 -220.5Q109 -213 109 -203V-137Q109 -127 101.5 -119.5Q94 -112 84 -112Q74 -112 66.5 -119.5Q59 -127 59 -137Z"/>
	<path fill="#daa520" d="M60 -812L66 -323Q66 -318 61 -318Q56 -318 56 -323Q50 -812 50 -812Q50 -817 55 -817Q60 -817 60 -812ZM59 -203Q59 -208 64 -208Q69 -208 69 -203V-137Q69 -132 64 -132Q59 -132 59 -137Z"/>
</svg>