<svg xmlns="http://www.w3.org/2000/svg" viewBox="0 -1024 1024 1024">
	<path fill="#000088" d="M53 -399Q43 -399 35.5 -406.5Q28 -414 28 -424Q28 -434 35.5 -441.5Q43 -449 53 -449H61Q78 -449 96 -445.5Q114 -442 135 -436.5Q156 -431 166 -429L250 -425Q260 -425 267 -418Q274 -410 274 -400Q274 -390 266.5 -382.5Q259 -375 249 -375Q248 -375 248 -375L162 -379Q160 -379 158 -379Q148 -381 127.5 -386.5Q107 -392 90.5 -395.5Q74 -399 61 -399ZM111 -286Q111 -327 115.5 -408Q120 -489 120 -529Q120 -539 120 -549Q118 -567 117.5 -602Q117 -637 117 -651Q90 -662 58 -707Q45 -725 40 -729Q32 -737 32 -748Q32 -748 32 -749L34 -805Q34 -815 41 -822Q49 -829 59 -829Q69 -829 76 -822L126 -774Q127 -773 128 -772Q153 -743 161 -698Q172 -700 183 -706Q203 -716 247 -745Q276 -764 288 -772Q300 -780 325 -791.5Q350 -803 371 -807Q381 -808 390 -808Q426 -808 447 -787Q463 -771 465 -748Q471 -739 475 -718Q477 -707 479 -705Q482 -699 482 -692Q482 -682 474.5 -674.5Q467 -667 457 -667Q443 -667 435 -679Q430 -689 426 -708Q423 -722 421 -725Q416 -731 416 -739.5Q416 -748 412 -752Q405 -758 389 -758Q384 -758 379 -757Q347 -752 275 -703Q228 -672 205 -661Q184 -651 167 -647Q167 -637 167.5 -603Q168 -569 170 -552Q170 -549 170 -529Q170 -488 165.5 -407Q161 -326 161 -286Q161 -261 162 -239Q162 -239 162 -238Q162 -235 161 -233Q159 -222 159 -197Q159 -185 160 -159.5Q161 -134 161 -121Q161 -92 157 -71Q151 -27 128 -5Q104 19 65 19Q63 19 53 19Q26 18 13 10Q0 2 0 -12Q0 -22 7.5 -29.5Q15 -37 25 -37Q32 -37 37 -34Q41 -32 56 -31Q65 -31 66 -31Q84 -31 93 -40Q104 -51 108 -79Q111 -96 111 -122Q111 -135 110 -161Q109 -187 109 -200Q109 -224 112 -240Q111 -262 111 -286Z"/>
	<path fill="#800080" d="M103 -399Q93 -399 85.5 -406.5Q78 -414 78 -424Q78 -434 85.5 -441.5Q93 -449 103 -449H111Q128 -449 146 -445.5Q164 -442 185 -436.5Q206 -431 216 -429L300 -425Q310 -425 317 -418Q324 -410 324 -400Q324 -390 316.5 -382.5Q309 -375 299 -375Q298 -375 298 -375L212 -379Q210 -379 208 -379Q198 -381 177.5 -386.5Q157 -392 140.5 -395.5Q124 -399 111 -399ZM161 -286Q161 -327 165.5 -408Q170 -489 170 -529Q170 -539 170 -549Q168 -567 167.5 -602Q167 -637 167 -651Q140 -662 108 -707Q95 -725 90 -729Q82 -737 82 -748Q82 -748 82 -749L84 -805Q84 -815 91 -822Q99 -829 109 -829Q119 -829 126 -822L176 -774Q177 -773 178 -772Q203 -743 211 -698Q222 -700 233 -706Q253 -716 297 -745Q326 -764 338 -772Q350 -780 375 -791.5Q400 -803 421 -807Q431 -808 440 -808Q476 -808 497 -787Q513 -771 515 -748Q521 -739 525 -718Q527 -707 529 -705Q532 -699 532 -692Q532 -682 524.5 -674.5Q517 -667 507 -667Q493 -667 485 -679Q480 -689 476 -708Q473 -722 471 -725Q466 -731 466 -739.5Q466 -748 462 -752Q455 -758 439 -758Q434 -758 429 -757Q397 -752 325 -703Q278 -672 255 -661Q234 -651 217 -647Q217 -637 217.5 -603Q218 -569 220 -552Q220 -549 220 -529Q220 -488 215.5 -407Q211 -326 211 -286Q211 -261 212 -239Q212 -239 212 -238Q212 -235 211 -233Q209 -222 209 -197Q209 -185 210 -159.5Q211 -134 211 -121Q211 -92 207 -71Q201 -27 178 -5Q154 19 115 19Q113 19 103 19Q76 18 63 10Q50 2 50 -12Q50 -22 57.5 -29.5Q65 -37 75 -37Q82 -37 87 -34Q91 -32 106 -31Q115 -31 116 -31Q134 -31 143 -40Q154 -51 158 -79Q161 -96 161 -122Q161 -135 160 -161Q159 -187 159 -200Q159 -224 162 -240Q161 -262 161 -286Z"/>
	<path fill="#daa520" d="M103 -419Q98 -419 98 -424Q98 -429 103 -429H111Q126 -429 143.5 -425.5Q161 -422 182 -416.5Q203 -411 214 -409L299 -405Q304 -405 304 -400Q304 -395 299 -395L213 -399Q212 -399 212 -399Q202 -401 181 -406.5Q160 -412 143 -415.5Q126 -419 111 -419ZM181 -286Q181 -326 185.5 -407Q190 -488 190 -529Q190 -540 190 -550Q188 -569 187.5 -608Q187 -647 186 -666Q172 -668 159.5 -677.5Q147 -687 141 -695Q135 -703 125 -718Q111 -738 104 -744Q102 -746 102 -748L104 -804Q104 -809 109 -809Q111 -809 112 -808L162 -760Q163 -759 163 -759Q189 -729 195 -675Q210 -675 230.5 -683.5Q251 -692 266.5 -701.5Q282 -711 308 -728Q334 -746 348 -754.5Q362 -763 384 -773.5Q406 -784 424 -787Q432 -788 440 -788Q438 -790 438 -790.5Q438 -791 439 -791Q449 -791 472 -775Q495 -759 496 -742Q501 -734 505 -714Q508 -700 511 -695Q512 -693 512 -692Q512 -687 507 -687Q504 -687 503 -689Q499 -696 495.5 -713.5Q492 -731 487 -737Q486 -738 486 -740Q486 -759 473 -768.5Q460 -778 440 -778Q433 -778 426 -777Q390 -771 314 -720Q286 -701 272 -692.5Q258 -684 235.5 -674.5Q213 -665 196 -665Q197 -647 197.5 -608Q198 -569 200 -550Q200 -548 200 -529Q200 -488 195.5 -407Q191 -326 191 -286Q191 -261 192 -238Q192 -237 192 -237Q189 -223 189 -199Q189 -186 190 -160Q191 -134 191 -122Q191 -95 188 -75.5Q185 -56 177 -37Q169 -18 151.5 -8.5Q134 1 109 -1Q82 -2 73 -8Q70 -9 70 -12Q70 -17 75 -17Q76 -17 77 -16Q85 -12 109 -11Q112 -11 115 -11Q154 -11 167.5 -40Q181 -69 181 -122Q181 -134 180 -160Q179 -186 179 -199Q179 -224 182 -238Q181 -261 181 -286ZM155 -753L114 -793L112 -750Q119 -743 133 -724Q142 -710 148 -702.5Q154 -695 164 -687Q174 -679 184 -676Q178 -725 155 -753Z"/>
</svg>