<svg xmlns="http://www.w3.org/2000/svg" viewBox="0 -1024 1024 1024">
	<path fill="#000088" d="M99 -389Q84 -389 74 -399Q64 -409 64 -424Q64 -439 74 -449Q84 -459 99 -459H107Q127 -459 167 -449Q207 -439 209 -439L298 -435Q312 -434 322 -424Q332 -414 332 -400Q332 -386 321.5 -375.5Q311 -365 297 -365H295L209 -369Q207 -369 167 -379Q127 -389 107 -389ZM146 -286Q146 -326 151 -407Q156 -488 156 -529V-550Q154 -568 153.5 -603Q153 -638 152 -651L149 -654L114 -690Q105 -699 91 -718Q77 -737 72 -743L68 -748L70 -804L105 -839Q163 -785 190 -756Q205 -740 214 -709Q243 -717 307 -759Q385 -810 421 -817Q431 -819 436 -819Q461 -819 475 -805L511 -769Q522 -758 522 -740Q528 -733 532 -713Q536 -695 538 -692Q543 -684 543 -676Q543 -663 534 -654.5Q525 -646 512 -646Q494 -646 486 -661L468 -692Q464 -699 461 -713Q457 -735 452 -740Q452 -741 451.5 -743Q451 -745 451 -746Q441 -748 436 -748Q426 -748 421 -747Q384 -741 316.5 -695.5Q249 -650 224 -641Q224 -634 224 -600.5Q224 -567 226 -550Q226 -546 226.5 -539Q227 -532 227 -529Q227 -488 222 -407Q217 -326 217 -286Q217 -254 218 -238Q215 -222 215 -199Q215 -186 216 -160Q217 -134 217 -122Q217 -47 192 -22L156 13Q139 30 111 30Q109 30 106 29.5Q103 29 101 29Q81 29 71 23L40 6Q25 -2 25 -21Q25 -34 34 -42.5Q43 -51 56 -51Q64 -51 71 -47Q77 -43 105 -41H111Q122 -41 136 -45Q146 -68 146 -122Q146 -134 145 -160Q144 -186 144 -199Q144 -216 148 -238Q146 -270 146 -286Z"/>
	<path fill="#800080" d="M103 -399Q93 -399 85.5 -406.5Q78 -414 78 -424Q78 -434 85.5 -441.5Q93 -449 103 -449H111Q128 -449 146 -445.5Q164 -442 185 -436.5Q206 -431 216 -429L300 -425Q310 -425 317 -418Q324 -410 324 -400Q324 -390 316.5 -382.5Q309 -375 299 -375Q298 -375 298 -375L212 -379Q210 -379 208 -379Q198 -381 177.5 -386.5Q157 -392 140.5 -395.5Q124 -399 111 -399ZM161 -286Q161 -327 165.5 -408Q170 -489 170 -529Q170 -539 170 -549Q168 -567 167.5 -602Q167 -637 167 -651Q140 -662 108 -707Q95 -725 90 -729Q82 -737 82 -748Q82 -748 82 -749L84 -805Q84 -815 91 -822Q99 -829 109 -829Q119 -829 126 -822L176 -774Q177 -773 178 -772Q203 -743 211 -698Q222 -700 233 -706Q253 -716 297 -745Q326 -764 338 -772Q350 -780 375 -791.5Q400 -803 421 -807Q431 -808 440 -808Q476 -808 497 -787Q513 -771 515 -748Q521 -739 525 -718Q527 -707 529 -705Q532 -699 532 -692Q532 -682 524.5 -674.5Q517 -667 507 -667Q493 -667 485 -679Q480 -689 476 -708Q473 -722 471 -725Q466 -731 466 -739.5Q466 -748 462 -752Q455 -758 439 -758Q434 -758 429 -757Q397 -752 325 -703Q278 -672 255 -661Q234 -651 217 -647Q217 -637 217.5 -603Q218 -569 220 -552Q220 -549 220 -529Q220 -488 215.5 -407Q211 -326 211 -286Q211 -261 212 -239Q212 -239 212 -238Q212 -235 211 -233Q209 -222 209 -197Q209 -185 210 -159.5Q211 -134 211 -121Q211 -92 207 -71Q201 -27 178 -5Q154 19 115 19Q113 19 103 19Q76 18 63 10Q50 2 50 -12Q50 -22 57.5 -29.5Q65 -37 75 -37Q82 -37 87 -34Q91 -32 106 -31Q115 -31 116 -31Q134 -31 143 -40Q154 -51 158 -79Q161 -96 161 -122Q161 -135 160 -161Q159 -187 159 -200Q159 -224 162 -240Q161 -262 161 -286Z"/>
	<path fill="#daa520" d="M103 -419Q98 -419 98 -424Q98 -429 103 -429H111Q126 -429 143.5 -425.5Q161 -422 182 -416.5Q203 -411 214 -409L299 -405Q304 -405 304 -400Q304 -395 299 -395L213 -399Q212 -399 212 -399Q202 -401 181 -406.5Q160 -412 143 -415.5Q126 -419 111 -419ZM181 -286Q181 -326 185.5 -407Q190 -488 190 -529Q190 -540 190 -550Q188 -569 187.5 -608Q187 -647 186 -666Q172 -668 159.5 -677.5Q147 -687 141 -695Q135 -703 125 -718Q111 -738 104 -744Q102 -746 102 -748L104 -804Q104 -809 109 -809Q111 -809 112 -808L162 -760Q163 -759 163 -759Q189 -729 195 -675Q210 -675 230.5 -683.5Q251 -692 266.5 -701.5Q282 -711 308 -728Q334 -746 348 -754.5Q362 -763 384 -773.5Q406 -784 424 -787Q432 -788 440 -788Q438 -790 438 -790.5Q438 -791 439 -791Q449 -791 472 -775Q495 -759 496 -742Q501 -734 505 -714Q508 -700 511 -695Q512 -693 512 -692Q512 -687 507 -687Q504 -687 503 -689Q499 -696 495.5 -713.5Q492 -731 487 -737Q486 -738 486 -740Q486 -759 473 -768.5Q460 -778 440 -778Q433 -778 426 -777Q390 -771 314 -720Q286 -701 272 -692.5Q258 -684 235.5 -674.5Q213 -665 196 -665Q197 -647 197.5 -608Q198 -569 200 -550Q200 -548 200 -529Q200 -488 195.5 -407Q191 -326 191 -286Q191 -261 192 -238Q192 -237 192 -237Q189 -223 189 -199Q189 -186 190 -160Q191 -134 191 -122Q191 -95 188 -75.5Q185 -56 177 -37Q169 -18 151.5 -8.5Q134 1 109 -1Q82 -2 73 -8Q70 -9 70 -12Q70 -17 75 -17Q76 -17 77 -16Q85 -12 109 -11Q112 -11 115 -11Q154 -11 167.5 -40Q181 -69 181 -122Q181 -134 180 -160Q179 -186 179 -199Q179 -224 182 -238Q181 -261 181 -286ZM155 -753L114 -793L112 -750Q119 -743 133 -724Q142 -710 148 -702.5Q154 -695 164 -687Q174 -679 184 -676Q178 -725 155 -753Z"/>
</svg>