<svg xmlns="http://www.w3.org/2000/svg" viewBox="0 -1024 1024 1024">
	<path fill="#000088" d="M85 -213Q92 -214 134 -222.5Q176 -231 201 -231Q236 -231 269 -217Q297 -205 317 -185Q332 -169 344 -146.5Q356 -124 361.5 -108.5Q367 -93 376 -63Q392 -9 392 28Q392 71 372 116Q359 144 340 164Q314 190 251 216Q218 230 189 234Q177 235 164 235Q138 235 110 230Q78 223 41 193Q23 179 12 172Q0 165 0 151Q0 141 7.5 133.5Q15 126 25 126Q32 126 38 130Q52 138 72 154Q100 176 120 180Q145 185 164 185Q173 185 183 184Q205 181 231 170Q285 147 304 128Q317 115 326 96Q342 60 342 28Q342 -3 328 -50Q304 -126 281 -150Q268 -163 249 -171Q225 -182 201 -182Q181 -182 139 -172Q91 -162 62 -160Q62 -160 61 -160Q51 -160 43 -167Q36 -174 36 -184L30 -410Q30 -411 30 -411Q30 -421 37.5 -428.5Q45 -436 55 -436H385Q395 -436 402.5 -428.5Q410 -421 410 -411Q410 -401 402.5 -393.5Q395 -386 385 -386H81Z"/>
	<path fill="#800080" d="M135 -213Q142 -214 184 -222.5Q226 -231 251 -231Q286 -231 319 -217Q347 -205 367 -185Q382 -169 394 -146.5Q406 -124 411.5 -108.5Q417 -93 426 -63Q442 -9 442 28Q442 71 422 116Q409 144 390 164Q364 190 301 216Q268 230 239 234Q227 235 214 235Q188 235 160 230Q128 223 91 193Q73 179 62 172Q50 165 50 151Q50 141 57.5 133.5Q65 126 75 126Q82 126 88 130Q102 138 122 154Q150 176 170 180Q195 185 214 185Q223 185 233 184Q255 181 281 170Q335 147 354 128Q367 115 376 96Q392 60 392 28Q392 -3 378 -50Q354 -126 331 -150Q318 -163 299 -171Q275 -182 251 -182Q231 -182 189 -172Q141 -162 112 -160Q112 -160 111 -160Q101 -160 93 -167Q86 -174 86 -184L80 -410Q80 -411 80 -411Q80 -421 87.5 -428.5Q95 -436 105 -436H435Q445 -436 452.5 -428.5Q460 -421 460 -411Q460 -401 452.5 -393.5Q445 -386 435 -386H131Z"/>
	<path fill="#daa520" d="M435 -416Q440 -416 440 -411Q440 -406 435 -406H110L116 -190Q140 -192 182 -201Q228 -211 251 -211Q282 -211 311 -199Q333 -189 348.5 -175Q364 -161 375 -139.5Q386 -118 391.5 -103Q397 -88 407 -57Q422 -6 422 28Q422 67 404 108Q388 143 363 161Q338 179 293 198Q251 215 214 215Q192 215 164 210Q137 204 103 178Q84 162 72 155Q70 154 70 151Q70 146 75 146Q76 146 78 147Q90 154 110 170Q141 195 166 200Q193 205 214 205Q249 205 289 188Q334 170 357 153Q380 136 394 104Q412 65 412 28Q412 -6 397 -56Q388 -85 382.5 -100Q377 -115 366.5 -135Q356 -155 341.5 -167.5Q327 -180 307 -189Q280 -201 251 -201Q229 -201 185 -192Q138 -181 111 -180Q106 -180 106 -185L100 -411Q100 -416 105 -416Z"/>
</svg>