<svg xmlns="http://www.w3.org/2000/svg" viewBox="0 -1024 1024 1024">
	<path fill="#000088" d="M241 -436Q251 -436 258.5 -428.5Q266 -421 266 -411Q266 -405 263 -399L66 -25H345Q355 -25 362.5 -17.5Q370 -10 370 0Q370 10 362.5 17.5Q355 25 345 25H25Q15 25 7.5 17.5Q0 10 0 0Q0 -6 3 -12L219 -423Q226 -436 241 -436ZM266 205Q266 215 258.5 222.5Q251 230 241 230Q231 230 223.5 222.5Q216 215 216 205V-411Q216 -421 223.5 -428.5Q231 -436 241 -436Q251 -436 258.5 -428.5Q266 -421 266 -411ZM271.5 216.5Q264 209 264 199Q264 189 271.5 181.5Q279 174 289 174Q299 174 306.5 181.5Q314 189 314 199Q314 209 306.5 216.5Q299 224 289 224Q279 224 271.5 216.5Z"/>
	<path fill="#800080" d="M291 -436Q301 -436 308.5 -428.5Q316 -421 316 -411Q316 -405 313 -399L116 -25H395Q405 -25 412.5 -17.5Q420 -10 420 0Q420 10 412.5 17.5Q405 25 395 25H75Q65 25 57.5 17.5Q50 10 50 0Q50 -6 53 -12L269 -423Q276 -436 291 -436ZM316 205Q316 215 308.5 222.5Q301 230 291 230Q281 230 273.5 222.5Q266 215 266 205V-411Q266 -421 273.5 -428.5Q281 -436 291 -436Q301 -436 308.5 -428.5Q316 -421 316 -411ZM321.5 216.5Q314 209 314 199Q314 189 321.5 181.5Q329 174 339 174Q349 174 356.5 181.5Q364 189 364 199Q364 209 356.5 216.5Q349 224 339 224Q329 224 321.5 216.5Z"/>
	<path fill="#daa520" d="M291 -416Q296 -416 296 -411Q296 -410 295 -409L83 -5H395Q400 -5 400 0Q400 5 395 5H75Q70 5 70 0Q70 -1 71 -2L287 -413Q288 -416 291 -416ZM296 205Q296 210 291 210Q286 210 286 205V-411Q286 -416 291 -416Q296 -416 296 -411ZM339 204Q334 204 334 199Q334 194 339 194Q344 194 344 199Q344 204 339 204Z"/>
</svg>