<svg xmlns="http://www.w3.org/2000/svg" viewBox="0 -1024 1024 1024">
	<path fill="#000088" d="M276 -233Q276 -224 292 -201Q318 -162 318 -135Q318 -136 318.5 -136Q319 -136 319 -135Q319 -122 307.5 -83.5Q296 -45 279 -28Q235 20 164 22Q163 22 163 22Q158 22 154 20Q129 10 108 -11Q54 -64 29 -190Q12 -278 4 -444Q3 -471 2 -482Q0 -502 0 -523Q0 -586 20 -642.5Q40 -699 79 -738Q140 -799 231 -799Q254 -799 278 -795Q289 -794 300 -792Q311 -790 322.5 -784.5Q334 -779 341.5 -775.5Q349 -772 360.5 -763.5Q372 -755 376.5 -752Q381 -749 393 -739Q405 -729 407 -727Q416 -720 416 -708Q416 -698 408.5 -690.5Q401 -683 391 -683Q382 -683 375 -689Q333 -723 316 -732Q293 -744 274 -745Q272 -745 271 -745Q249 -749 230 -749Q160 -749 114 -703Q83 -672 66.5 -624Q50 -576 50 -522Q50 -504 52 -487Q52 -484 54 -446Q61 -284 78 -200Q101 -89 143 -46Q155 -35 168 -28Q215 -32 243 -62Q243 -62 243 -63Q268 -87 268 -135Q268 -147 250 -173Q226 -209 226 -233Q226 -236 225 -242.5Q224 -249 224 -253Q224 -276 241 -293Q264 -316 303 -316Q314 -316 334.5 -317.5Q355 -319 365.5 -319Q376 -319 384 -317Q408 -314 421 -301Q438 -284 438 -254Q438 -221 414 -166Q394 -120 394 -98Q394 -96 402 -88Q405 -85 406 -84L441 -81Q451 -80 457.5 -73Q464 -66 464 -56Q464 -46 456.5 -38.5Q449 -31 439 -31Q438 -31 437 -31L391 -35Q379 -36 372 -46Q371 -48 365 -54Q344 -76 344 -98Q344 -131 368 -186Q388 -232 388 -254L386 -265Q384 -267 378 -268Q373 -268 366 -268Q357 -268 335.5 -267Q314 -266 303 -266Q285 -266 276 -257Q274 -255 274 -253Q274 -251 275 -244Q276 -237 276 -233Z"/>
	<path fill="#800080" d="M326 -233Q326 -224 342 -201Q368 -162 368 -135Q368 -136 368.5 -136Q369 -136 369 -135Q369 -122 357.5 -83.5Q346 -45 329 -28Q285 20 214 22Q213 22 213 22Q208 22 204 20Q179 10 158 -11Q104 -64 79 -190Q62 -278 54 -444Q53 -471 52 -482Q50 -502 50 -523Q50 -586 70 -642.5Q90 -699 129 -738Q190 -799 281 -799Q304 -799 328 -795Q339 -794 350 -792Q361 -790 372.5 -784.5Q384 -779 391.5 -775.5Q399 -772 410.5 -763.5Q422 -755 426.5 -752Q431 -749 443 -739Q455 -729 457 -727Q466 -720 466 -708Q466 -698 458.5 -690.5Q451 -683 441 -683Q432 -683 425 -689Q383 -723 366 -732Q343 -744 324 -745Q322 -745 321 -745Q299 -749 280 -749Q210 -749 164 -703Q133 -672 116.5 -624Q100 -576 100 -522Q100 -504 102 -487Q102 -484 104 -446Q111 -284 128 -200Q151 -89 193 -46Q205 -35 218 -28Q265 -32 293 -62Q293 -62 293 -63Q318 -87 318 -135Q318 -147 300 -173Q276 -209 276 -233Q276 -236 275 -242.5Q274 -249 274 -253Q274 -276 291 -293Q314 -316 353 -316Q364 -316 384.5 -317.5Q405 -319 415.5 -319Q426 -319 434 -317Q458 -314 471 -301Q488 -284 488 -254Q488 -221 464 -166Q444 -120 444 -98Q444 -96 452 -88Q455 -85 456 -84L491 -81Q501 -80 507.5 -73Q514 -66 514 -56Q514 -46 506.5 -38.5Q499 -31 489 -31Q488 -31 487 -31L441 -35Q429 -36 422 -46Q421 -48 415 -54Q394 -76 394 -98Q394 -131 418 -186Q438 -232 438 -254L436 -265Q434 -267 428 -268Q423 -268 416 -268Q407 -268 385.5 -267Q364 -266 353 -266Q335 -266 326 -257Q324 -255 324 -253Q324 -251 325 -244Q326 -237 326 -233Z"/>
	<path fill="#daa520" d="M284 -253Q284 -250 285 -243.5Q286 -237 286 -233Q286 -218 305 -190Q328 -156 328 -135Q328 -75 295 -42Q256 0 193 2Q192 2 191 2Q120 -27 87 -159Q63 -253 54 -445Q53 -472 52 -484Q50 -503 50 -522Q50 -589 72 -646Q94 -703 143 -741Q192 -779 260 -779Q282 -779 306 -775Q314 -775 323.5 -772.5Q333 -770 340 -768Q347 -766 356.5 -760.5Q366 -755 371 -752.5Q376 -750 386 -742.5Q396 -735 399 -732.5Q402 -730 412.5 -721.5Q423 -713 424 -712Q426 -710 426 -708Q426 -703 421 -703Q419 -703 418 -704Q416 -705 408.5 -711.5Q401 -718 398.5 -720Q396 -722 388 -728Q380 -734 376.5 -736Q373 -738 366 -743Q359 -748 354.5 -750Q350 -752 343 -755.5Q336 -759 330.5 -760.5Q325 -762 318 -763.5Q311 -765 305 -765Q304 -765 304 -765Q281 -769 260 -769Q196 -769 149 -733Q102 -697 81 -642.5Q60 -588 60 -522Q60 -503 62 -485Q62 -482 64 -445Q73 -255 96 -162Q129 -35 194 -8Q252 -10 287 -48V-49Q318 -79 318 -135Q318 -153 297 -184Q276 -215 276 -233Q276 -236 275 -243Q274 -250 274 -253Q274 -274 292.5 -285Q311 -296 333 -296Q344 -296 365 -297.5Q386 -299 396 -299Q418 -299 430 -292Q448 -282 448 -254Q448 -226 426 -175.5Q404 -125 404 -98Q404 -92 407.5 -86.5Q411 -81 417.5 -74Q424 -67 426 -65L469 -61Q474 -61 474 -56Q474 -51 469 -51L423 -55Q420 -55 419 -57Q417 -61 409.5 -68Q402 -75 398 -82Q394 -89 394 -98Q394 -126 416 -176.5Q438 -227 438 -254Q438 -276 425 -284Q416 -289 396 -289Q386 -289 365 -287.5Q344 -286 333 -286Q314 -286 299 -277Q284 -268 284 -253Z"/>
</svg>