<svg xmlns="http://www.w3.org/2000/svg" viewBox="0 -1024 1024 1024">
	<path fill="#000088" d="M-41 -567Q-41 -577 -33.5 -585Q-26 -593 -15 -593Q-3 -593 5 -584L159 -411Q166 -403 166 -393Q166 -383 158.5 -375Q151 -367 140 -367Q128 -367 120 -376L-34 -549Q-41 -557 -41 -567Z"/>
	<path fill="#800080" d="M8 -567Q8 -577 15.5 -585Q23 -593 34 -593Q46 -593 54 -584L208 -411Q215 -403 215 -393Q215 -383 207.5 -375Q200 -367 189 -367Q177 -367 169 -376L15 -549Q8 -557 8 -567Z"/>
	<path fill="#daa520" d="M70 -549Q70 -554 75 -554Q77 -554 79 -552L202 -414Q203 -413 203 -411Q203 -406 198 -406Q196 -406 194 -408L71 -546Q70 -547 70 -549Z"/>
</svg>