<svg xmlns="http://www.w3.org/2000/svg" viewBox="0 -1024 1024 1024">
	<path fill="#000088" d="M0 -635Q0 -645 7.5 -652.5Q15 -660 25 -660Q35 -660 42 -653L276 -429Q284 -422 284 -411Q284 -401 277 -394L55 -159Q48 -151 37 -151Q27 -151 19.5 -158.5Q12 -166 12 -176Q12 -186 19 -193L224 -410L8 -617Q0 -624 0 -635Z"/>
	<path fill="#800080" d="M50 -635Q50 -645 57.5 -652.5Q65 -660 75 -660Q85 -660 92 -653L326 -429Q334 -422 334 -411Q334 -401 327 -394L105 -159Q98 -151 87 -151Q77 -151 69.5 -158.5Q62 -166 62 -176Q62 -186 69 -193L274 -410L58 -617Q50 -624 50 -635Z"/>
	<path fill="#daa520" d="M70 -635Q70 -640 75 -640Q77 -640 78 -639L312 -415Q314 -413 314 -411Q314 -409 313 -408L91 -173Q89 -171 87 -171Q82 -171 82 -176Q82 -178 83 -179L302 -411L72 -631Q70 -633 70 -635Z"/>
</svg>