<svg xmlns="http://www.w3.org/2000/svg" viewBox="0 -1024 1024 1024">
	<path fill="#000088" d="M347 -422Q347 -404 311 -366L89 -131L35 -182L247 -407L25 -620L82 -679L346 -426Q347 -425 347 -422Z"/>
	<path fill="#800080" d="M50 -635Q50 -645 57.5 -652.5Q65 -660 75 -660Q85 -660 92 -653L326 -429Q334 -422 334 -411Q334 -401 327 -394L105 -159Q98 -151 87 -151Q77 -151 69.5 -158.5Q62 -166 62 -176Q62 -186 69 -193L274 -410L58 -617Q50 -624 50 -635Z"/>
	<path fill="#daa520" d="M70 -635Q70 -640 75 -640Q77 -640 78 -639L312 -415Q314 -413 314 -411Q314 -409 313 -408L91 -173Q89 -171 87 -171Q82 -171 82 -176Q82 -178 83 -179L302 -411L72 -631Q70 -633 70 -635Z"/>
</svg>