<svg xmlns="http://www.w3.org/2000/svg" viewBox="0 -1024 1024 1024">
	<path fill="#000088" d="M282 -696Q253 -700 195.5 -728.5Q138 -757 98 -757H96V-716L106 -666Q106 -666 106 -659Q106 -645 96 -635Q86 -625 72 -625Q43 -625 38 -652L25 -716V-782L60 -817Q63 -818 76 -822.5Q89 -827 98 -827Q138 -827 200 -796Q262 -765 302 -765Q303 -765 305 -767L340 -802Q343 -806 348 -807L384 -772Q384 -754 373 -743L358 -729Q350 -696 350 -643Q350 -626 352 -604Q350 -556 350 -532Q350 -475 356 -361Q449 -435 475 -460Q496 -482 514 -508Q506 -591 506 -605Q506 -620 507 -628Q507 -653 518 -707Q529 -761 546 -778L582 -813Q588 -819 594 -819Q595 -819 596 -818L632 -783Q635 -780 635 -758Q635 -756 636 -753V-750Q642 -715 642 -686Q642 -591 584 -508Q584 -506 585 -501Q586 -496 586 -494Q599 -453 601 -330Q602 -275 603.5 -242.5Q605 -210 614.5 -168Q624 -126 641 -100Q657 -91 662 -89L726 -57Q731 -56 740 -53Q749 -50 754 -48Q777 -41 777 -16Q777 -2 767 7.5Q757 17 743 17Q736 17 726 13Q671 -15 662 -19Q640 -27 622 -45L586 -81Q561 -106 548.5 -151.5Q536 -197 534 -231Q532 -265 531 -330Q529 -417 526 -440L493 -407Q461 -375 359 -293Q363 -213 363 -177Q363 -60 325 -22L290 14Q273 31 246 31Q207 29 180 2L145 -33Q126 -52 126 -74Q126 -82 127 -86Q148 -166 224 -242Q266 -284 288 -304Q279 -473 279 -532Q279 -556 281 -604Q279 -626 279 -643Q279 -669 282 -696ZM291 -236Q289 -234 284.5 -230.5Q280 -227 278 -225Q217 -157 198 -86Q196 -78 196 -74Q196 -64 201 -52Q224 -39 246 -39Q258 -39 270 -44Q292 -86 292 -177Q292 -215 291 -236Z"/>
	<path fill="#800080" d="M538 -515Q531 -577 531 -605Q531 -617 532 -629Q532 -662 545 -716Q551 -744 559 -764Q568 -785 579 -796Q592 -809 609 -809Q621 -809 629 -801Q634 -796 636.5 -788.5Q639 -781 640 -753Q646 -719 646 -686Q646 -612 615 -547Q604 -524 589 -502Q590 -500 590 -499Q604 -452 605 -331Q606 -270 608.5 -236.5Q611 -203 622 -161Q633 -119 654 -98Q668 -85 686 -77Q698 -72 751 -45Q760 -42 765 -38Q772 -30 772 -20Q772 -10 764.5 -2.5Q757 5 747 5Q743 5 733 2Q731 1 719 -5Q707 -11 691 -19Q675 -27 668 -31Q640 -42 619 -63Q581 -100 567 -170Q557 -220 556 -330Q554 -413 549 -450Q530 -429 504.5 -405.5Q479 -382 461 -367Q443 -352 410 -325.5Q377 -299 364 -288Q367 -217 367 -177Q367 -132 362 -99Q352 -34 322 -4Q297 21 261 21Q213 21 177 -15Q151 -42 151 -75Q151 -84 153 -92Q169 -156 210.5 -207.5Q252 -259 313 -311Q304 -480 304 -531Q304 -569 306 -603Q304 -621 304 -644Q304 -676 308 -705Q267 -707 204 -739Q147 -767 113 -767Q108 -767 100 -764V-718L110 -671Q110 -668 110 -666Q110 -656 102.5 -648.5Q95 -641 85 -641Q76 -641 69 -647Q62 -653 60 -661L50 -711Q50 -714 50 -716V-782Q50 -790 55.5 -797Q61 -804 68 -806Q72 -807 80 -810Q88 -813 96 -815Q104 -817 113 -817Q135 -817 157.5 -811Q180 -805 192.5 -799.5Q205 -794 227 -783Q284 -755 317 -755Q318 -755 320 -755Q332 -787 354 -795Q358 -797 363 -797Q373 -797 380.5 -789.5Q388 -782 388 -772Q388 -737 361 -718Q354 -686 354 -643Q354 -622 356 -607Q356 -605 356 -604Q356 -603 356 -603Q354 -569 354 -532Q354 -473 361 -350Q456 -426 490 -461Q518 -488 538 -515ZM581 -605Q581 -601 581 -597Q596 -639 596 -685Q596 -698 595 -711Q594 -708 593 -705Q582 -655 582 -628Q582 -624 581.5 -616.5Q581 -609 581 -605ZM315 -247Q303 -235 292 -224Q220 -153 201 -80Q201 -77 201 -74Q201 -56 221.5 -43Q242 -30 261 -29Q277 -29 287 -39Q305 -58 312 -106Q317 -136 317 -177Q317 -200 315 -247Z"/>
	<path fill="#daa520" d="M348 -746Q354 -752 357 -761Q352 -755 348 -746ZM343 -310Q351 -317 397.5 -354Q444 -391 462 -406.5Q480 -422 509.5 -452.5Q539 -483 558 -510Q551 -579 551 -605Q551 -617 552 -628Q552 -668 568 -727Q576 -757 586 -773Q596 -789 609 -789Q617 -789 619 -777Q620 -771 620 -758Q620 -752 620 -751Q626 -717 626 -686Q626 -590 569 -507Q569 -501 570 -495Q584 -450 586 -330Q586 -292 587 -271Q588 -250 590.5 -217Q593 -184 599 -163.5Q605 -143 615 -120Q625 -97 641 -82Q657 -67 679 -59Q688 -55 743 -27Q752 -24 752 -20Q752 -15 747 -15Q746 -15 739 -17Q739 -17 725 -24.5Q711 -32 695 -40Q679 -48 675 -49Q655 -58 639 -72Q623 -86 613 -101Q603 -116 595.5 -141Q588 -166 584.5 -183Q581 -200 579 -232Q577 -264 576.5 -280Q576 -296 576 -330Q574 -449 560 -492Q560 -493 560 -495Q540 -468 510.5 -439Q481 -410 460 -392Q439 -374 399 -342Q359 -310 343 -297Q347 -220 347 -177Q347 1 261 1Q229 0 200 -21.5Q171 -43 171 -74Q171 -82 172 -87Q188 -148 228.5 -198Q269 -248 333 -302Q324 -486 324 -532Q324 -570 326 -604Q324 -621 324 -643Q324 -691 332 -727Q325 -725 317 -725Q277 -725 214.5 -756Q152 -787 113 -787Q107 -787 80 -778V-716L90 -667Q90 -666 90 -666Q90 -661 85 -661Q81 -661 80 -665L70 -715Q70 -716 70 -716V-782Q70 -786 74 -787Q78 -788 85 -791Q92 -794 99 -795.5Q106 -797 113 -797Q154 -797 218 -765Q279 -735 317 -735Q327 -735 335 -738Q344 -770 361 -777Q362 -777 363 -777Q368 -777 368 -772Q368 -743 343 -731Q334 -695 334 -643Q334 -621 336 -605Q336 -604 336 -604Q334 -570 334 -532Q334 -482 343 -310ZM608 -779Q601 -778 595 -767Q585 -753 578 -724Q562 -666 562 -628Q562 -624 561.5 -616.5Q561 -609 561 -605Q561 -578 567 -523Q616 -598 616 -686Q616 -716 610 -749Q610 -751 610 -756V-757Q610 -774 608 -779ZM334 -289Q273 -238 235 -190Q197 -142 182 -85Q181 -80 181 -74Q181 -49 207 -29.5Q233 -10 261 -9Q337 -9 337 -177Q337 -217 334 -289Z"/>
</svg>