<svg xmlns="http://www.w3.org/2000/svg" viewBox="0 -1024 1024 1024">
	<path fill="#000088" d="M488 -515Q481 -577 481 -605Q481 -617 482 -629Q482 -662 495 -716Q501 -744 509 -764Q518 -785 529 -796Q542 -809 559 -809Q571 -809 579 -801Q584 -796 586.5 -788.5Q589 -781 590 -753Q596 -719 596 -686Q596 -612 565 -547Q554 -524 539 -502Q540 -500 540 -499Q554 -452 555 -331Q556 -270 558.5 -236.5Q561 -203 572 -161Q583 -119 604 -98Q618 -85 636 -77Q648 -72 701 -45Q710 -42 715 -38Q722 -30 722 -20Q722 -10 714.5 -2.5Q707 5 697 5Q693 5 683 2Q681 1 669 -5Q657 -11 641 -19Q625 -27 618 -31Q590 -42 569 -63Q531 -100 517 -170Q507 -220 506 -330Q504 -413 499 -450Q480 -429 454.5 -405.5Q429 -382 411 -367Q393 -352 360 -325.5Q327 -299 314 -288Q317 -217 317 -177Q317 -132 312 -99Q302 -34 272 -4Q247 21 211 21Q163 21 127 -15Q101 -42 101 -75Q101 -84 103 -92Q119 -156 160.5 -207.5Q202 -259 263 -311Q254 -480 254 -531Q254 -569 256 -603Q254 -621 254 -644Q254 -676 258 -705Q217 -707 154 -739Q97 -767 63 -767Q58 -767 50 -764V-718L60 -671Q60 -668 60 -666Q60 -656 52.5 -648.5Q45 -641 35 -641Q26 -641 19 -647Q12 -653 10 -661L0 -711Q0 -714 0 -716V-782Q0 -790 5.5 -797Q11 -804 18 -806Q22 -807 30 -810Q38 -813 46 -815Q54 -817 63 -817Q85 -817 107.5 -811Q130 -805 142.5 -799.5Q155 -794 177 -783Q234 -755 267 -755Q268 -755 270 -755Q282 -787 304 -795Q308 -797 313 -797Q323 -797 330.5 -789.5Q338 -782 338 -772Q338 -737 311 -718Q304 -686 304 -643Q304 -622 306 -607Q306 -605 306 -604Q306 -603 306 -603Q304 -569 304 -532Q304 -473 311 -350Q406 -426 440 -461Q468 -488 488 -515ZM531 -605Q531 -601 531 -597Q546 -639 546 -685Q546 -698 545 -711Q544 -708 543 -705Q532 -655 532 -628Q532 -624 531.5 -616.5Q531 -609 531 -605ZM265 -247Q253 -235 242 -224Q170 -153 151 -80Q151 -77 151 -74Q151 -56 171.5 -43Q192 -30 211 -29Q227 -29 237 -39Q255 -58 262 -106Q267 -136 267 -177Q267 -200 265 -247Z"/>
	<path fill="#800080" d="M538 -515Q531 -577 531 -605Q531 -617 532 -629Q532 -662 545 -716Q551 -744 559 -764Q568 -785 579 -796Q592 -809 609 -809Q621 -809 629 -801Q634 -796 636.5 -788.5Q639 -781 640 -753Q646 -719 646 -686Q646 -612 615 -547Q604 -524 589 -502Q590 -500 590 -499Q604 -452 605 -331Q606 -270 608.5 -236.5Q611 -203 622 -161Q633 -119 654 -98Q668 -85 686 -77Q698 -72 751 -45Q760 -42 765 -38Q772 -30 772 -20Q772 -10 764.5 -2.5Q757 5 747 5Q743 5 733 2Q731 1 719 -5Q707 -11 691 -19Q675 -27 668 -31Q640 -42 619 -63Q581 -100 567 -170Q557 -220 556 -330Q554 -413 549 -450Q530 -429 504.5 -405.5Q479 -382 461 -367Q443 -352 410 -325.5Q377 -299 364 -288Q367 -217 367 -177Q367 -132 362 -99Q352 -34 322 -4Q297 21 261 21Q213 21 177 -15Q151 -42 151 -75Q151 -84 153 -92Q169 -156 210.5 -207.5Q252 -259 313 -311Q304 -480 304 -531Q304 -569 306 -603Q304 -621 304 -644Q304 -676 308 -705Q267 -707 204 -739Q147 -767 113 -767Q108 -767 100 -764V-718L110 -671Q110 -668 110 -666Q110 -656 102.5 -648.5Q95 -641 85 -641Q76 -641 69 -647Q62 -653 60 -661L50 -711Q50 -714 50 -716V-782Q50 -790 55.5 -797Q61 -804 68 -806Q72 -807 80 -810Q88 -813 96 -815Q104 -817 113 -817Q135 -817 157.5 -811Q180 -805 192.5 -799.5Q205 -794 227 -783Q284 -755 317 -755Q318 -755 320 -755Q332 -787 354 -795Q358 -797 363 -797Q373 -797 380.5 -789.5Q388 -782 388 -772Q388 -737 361 -718Q354 -686 354 -643Q354 -622 356 -607Q356 -605 356 -604Q356 -603 356 -603Q354 -569 354 -532Q354 -473 361 -350Q456 -426 490 -461Q518 -488 538 -515ZM581 -605Q581 -601 581 -597Q596 -639 596 -685Q596 -698 595 -711Q594 -708 593 -705Q582 -655 582 -628Q582 -624 581.5 -616.5Q581 -609 581 -605ZM315 -247Q303 -235 292 -224Q220 -153 201 -80Q201 -77 201 -74Q201 -56 221.5 -43Q242 -30 261 -29Q277 -29 287 -39Q305 -58 312 -106Q317 -136 317 -177Q317 -200 315 -247Z"/>
	<path fill="#daa520" d="M328 -746Q334 -752 337 -761Q332 -755 328 -746ZM323 -310Q331 -317 377.5 -354Q424 -391 442 -406.5Q460 -422 489.5 -452.5Q519 -483 538 -510Q531 -579 531 -605Q531 -617 532 -628Q532 -668 548 -727Q556 -757 566 -773Q576 -789 589 -789Q597 -789 599 -777Q600 -771 600 -758Q600 -752 600 -751Q606 -717 606 -686Q606 -590 549 -507Q549 -501 550 -495Q564 -450 566 -330Q566 -292 567 -271Q568 -250 570.5 -217Q573 -184 579 -163.5Q585 -143 595 -120Q605 -97 621 -82Q637 -67 659 -59Q668 -55 723 -27Q732 -24 732 -20Q732 -15 727 -15Q726 -15 719 -17Q719 -17 705 -24.5Q691 -32 675 -40Q659 -48 655 -49Q635 -58 619 -72Q603 -86 593 -101Q583 -116 575.5 -141Q568 -166 564.5 -183Q561 -200 559 -232Q557 -264 556.5 -280Q556 -296 556 -330Q554 -449 540 -492Q540 -493 540 -495Q520 -468 490.5 -439Q461 -410 440 -392Q419 -374 379 -342Q339 -310 323 -297Q327 -220 327 -177Q327 1 241 1Q209 0 180 -21.5Q151 -43 151 -74Q151 -82 152 -87Q168 -148 208.5 -198Q249 -248 313 -302Q304 -486 304 -532Q304 -570 306 -604Q304 -621 304 -643Q304 -691 312 -727Q305 -725 297 -725Q257 -725 194.5 -756Q132 -787 93 -787Q87 -787 60 -778V-716L70 -667Q70 -666 70 -666Q70 -661 65 -661Q61 -661 60 -665L50 -715Q50 -716 50 -716V-782Q50 -786 54 -787Q58 -788 65 -791Q72 -794 79 -795.5Q86 -797 93 -797Q134 -797 198 -765Q259 -735 297 -735Q307 -735 315 -738Q324 -770 341 -777Q342 -777 343 -777Q348 -777 348 -772Q348 -743 323 -731Q314 -695 314 -643Q314 -621 316 -605Q316 -604 316 -604Q314 -570 314 -532Q314 -482 323 -310ZM588 -779Q581 -778 575 -767Q565 -753 558 -724Q542 -666 542 -628Q542 -624 541.5 -616.5Q541 -609 541 -605Q541 -578 547 -523Q596 -598 596 -686Q596 -716 590 -749Q590 -751 590 -756V-757Q590 -774 588 -779ZM314 -289Q253 -238 215 -190Q177 -142 162 -85Q161 -80 161 -74Q161 -49 187 -29.5Q213 -10 241 -9Q317 -9 317 -177Q317 -217 314 -289Z"/>
</svg>