<svg xmlns="http://www.w3.org/2000/svg" viewBox="0 -1024 1024 1024">
	<path fill="#000088" d="M25 -386Q15 -386 7.5 -393.5Q0 -401 0 -411Q0 -421 7.5 -428.5Q15 -436 25 -436H373Q383 -436 390.5 -428.5Q398 -421 398 -411Q398 -401 390.5 -393.5Q383 -386 373 -386Z"/>
	<path fill="#800080" d="M75 -386Q65 -386 57.5 -393.5Q50 -401 50 -411Q50 -421 57.5 -428.5Q65 -436 75 -436H423Q433 -436 440.5 -428.5Q448 -421 448 -411Q448 -401 440.5 -393.5Q433 -386 423 -386Z"/>
	<path fill="#daa520" d="M75 -406Q70 -406 70 -411Q70 -416 75 -416H423Q428 -416 428 -411Q428 -406 423 -406Z"/>
</svg>