<svg xmlns="http://www.w3.org/2000/svg" viewBox="0 -1024 1024 1024">
	<path fill="#000088" d="M60 -376Q45 -376 35 -386Q25 -396 25 -411Q25 -426 35 -436Q45 -446 60 -446H408Q423 -446 433.5 -436Q444 -426 444 -411Q444 -396 433.5 -386Q423 -376 408 -376Z"/>
	<path fill="#800080" d="M75 -386Q65 -386 57.5 -393.5Q50 -401 50 -411Q50 -421 57.5 -428.5Q65 -436 75 -436H423Q433 -436 440.5 -428.5Q448 -421 448 -411Q448 -401 440.5 -393.5Q433 -386 423 -386Z"/>
	<path fill="#daa520" d="M75 -406Q70 -406 70 -411Q70 -416 75 -416H423Q428 -416 428 -411Q428 -406 423 -406Z"/>
</svg>