<svg xmlns="http://www.w3.org/2000/svg" viewBox="0 -1024 1024 1024">
	<path fill="#000088" d="M178 -824Q178 -823 178 -820.5Q178 -818 178 -817Q178 -707 202 -489Q226 -262 226 -144Q226 -103 210.5 -64.5Q195 -26 170 -1Q147 22 122 28Q114 30 106 30Q75 30 52 6Q36 -10 24 -36Q23 -38 23 -40L11 -90Q10 -93 10 -96Q10 -106 17.5 -113.5Q25 -121 35 -121Q44 -121 50.5 -115.5Q57 -110 59 -102L71 -54Q78 -38 87 -29Q96 -20 105 -20Q107 -20 110 -21Q122 -23 134 -36Q152 -54 164 -84Q176 -114 176 -144Q176 -197 172 -259.5Q168 -322 164 -365.5Q160 -409 152 -481.5Q144 -554 141 -587H55Q46 -587 39 -593Q14 -615 5 -644Q0 -659 0 -676Q0 -697 7 -719Q21 -762 57 -798Q102 -843 150 -849Q151 -849 153 -849Q163 -849 170.5 -841.5Q178 -834 178 -824ZM50 -677Q50 -667 53 -659Q56 -647 65 -637H136Q129 -721 128 -790Q109 -779 93 -763Q65 -735 55 -703Q50 -689 50 -677Z"/>
	<path fill="#800080" d="M228 -824Q228 -823 228 -820.5Q228 -818 228 -817Q228 -707 252 -489Q276 -262 276 -144Q276 -103 260.5 -64.5Q245 -26 220 -1Q197 22 172 28Q164 30 156 30Q125 30 102 6Q86 -10 74 -36Q73 -38 73 -40L61 -90Q60 -93 60 -96Q60 -106 67.5 -113.5Q75 -121 85 -121Q94 -121 100.5 -115.5Q107 -110 109 -102L121 -54Q128 -38 137 -29Q146 -20 155 -20Q157 -20 160 -21Q172 -23 184 -36Q202 -54 214 -84Q226 -114 226 -144Q226 -197 222 -259.5Q218 -322 214 -365.5Q210 -409 202 -481.5Q194 -554 191 -587H105Q96 -587 89 -593Q64 -615 55 -644Q50 -659 50 -676Q50 -697 57 -719Q71 -762 107 -798Q152 -843 200 -849Q201 -849 203 -849Q213 -849 220.5 -841.5Q228 -834 228 -824ZM100 -677Q100 -667 103 -659Q106 -647 115 -637H186Q179 -721 178 -790Q159 -779 143 -763Q115 -735 105 -703Q100 -689 100 -677Z"/>
	<path fill="#daa520" d="M208 -817Q208 -704 232 -481.5Q256 -259 256 -144Q256 -88 225 -39Q194 10 155 10Q117 10 92 -44Q92 -44 92 -45L80 -95Q80 -95 80 -96Q80 -101 85 -101Q89 -101 90 -97L102 -48Q124 0 155 0Q188 0 217 -45.5Q246 -91 246 -144Q246 -259 222 -481.5Q198 -704 198 -817Q198 -817 198 -818Q156 -810 118 -765.5Q80 -721 80 -677Q80 -641 107 -617H203Q208 -617 208 -612Q208 -607 203 -607H105Q103 -607 102 -608Q70 -636 70 -677Q70 -727 113 -775Q156 -823 202 -829Q203 -829 203 -829Q208 -829 208 -824Q208 -824 208 -821Q208 -818 208 -817Z"/>
</svg>