<svg xmlns="http://www.w3.org/2000/svg" viewBox="0 -1024 1024 1024">
	<path fill="#000088" d="M247 -144Q247 -196 239.5 -259Q232 -322 225 -360.5Q218 -399 202 -476.5Q186 -554 181 -577H90Q89 -578 87.5 -579Q86 -580 85 -581L50 -617Q25 -642 25 -677Q25 -730 75 -780L110 -816Q148 -854 188 -859L224 -824V-822Q224 -710 270 -488Q318 -262 318 -144Q318 -109 304 -74Q290 -39 269 -18L233 17Q210 40 187 40Q167 40 151 24L116 -12Q103 -25 93 -46L81 -96Q80 -99 80 -104Q80 -118 90 -128Q100 -138 114 -138Q141 -138 148 -112L164 -46L170 -34Q179 -31 187 -31Q201 -31 215 -39Q247 -86 247 -144ZM96 -677Q96 -662 101 -647H169Q156 -724 154 -777Q145 -773 129 -761Q96 -718 96 -677Z"/>
	<path fill="#800080" d="M228 -824Q228 -823 228 -820.5Q228 -818 228 -817Q228 -707 252 -489Q276 -262 276 -144Q276 -103 260.5 -64.5Q245 -26 220 -1Q197 22 172 28Q164 30 156 30Q125 30 102 6Q86 -10 74 -36Q73 -38 73 -40L61 -90Q60 -93 60 -96Q60 -106 67.5 -113.5Q75 -121 85 -121Q94 -121 100.5 -115.5Q107 -110 109 -102L121 -54Q128 -38 137 -29Q146 -20 155 -20Q157 -20 160 -21Q172 -23 184 -36Q202 -54 214 -84Q226 -114 226 -144Q226 -197 222 -259.5Q218 -322 214 -365.5Q210 -409 202 -481.5Q194 -554 191 -587H105Q96 -587 89 -593Q64 -615 55 -644Q50 -659 50 -676Q50 -697 57 -719Q71 -762 107 -798Q152 -843 200 -849Q201 -849 203 -849Q213 -849 220.5 -841.5Q228 -834 228 -824ZM100 -677Q100 -667 103 -659Q106 -647 115 -637H186Q179 -721 178 -790Q159 -779 143 -763Q115 -735 105 -703Q100 -689 100 -677Z"/>
	<path fill="#daa520" d="M208 -817Q208 -704 232 -481.5Q256 -259 256 -144Q256 -88 225 -39Q194 10 155 10Q117 10 92 -44Q92 -44 92 -45L80 -95Q80 -95 80 -96Q80 -101 85 -101Q89 -101 90 -97L102 -48Q124 0 155 0Q188 0 217 -45.5Q246 -91 246 -144Q246 -259 222 -481.5Q198 -704 198 -817Q198 -817 198 -818Q156 -810 118 -765.5Q80 -721 80 -677Q80 -641 107 -617H203Q208 -617 208 -612Q208 -607 203 -607H105Q103 -607 102 -608Q70 -636 70 -677Q70 -727 113 -775Q156 -823 202 -829Q203 -829 203 -829Q208 -829 208 -824Q208 -824 208 -821Q208 -818 208 -817Z"/>
</svg>