<svg xmlns="http://www.w3.org/2000/svg" viewBox="0 -1024 1024 1024">
	<path fill="#000088" d="M218 -299Q220 -103 220 -84Q220 -80 219.5 -77.5Q219 -75 218.5 -72Q218 -69 218 -67Q214 -38 188 -11Q154 23 115 23Q100 23 84 14Q69 6 54 -9Q36 -26 26 -46Q16 -64 16 -80Q16 -89 20 -100Q23 -110 31 -123Q45 -149 73 -189Q107 -237 168 -316Q168 -352 168 -382Q168 -425 156 -483Q154 -481 151 -478Q129 -456 109 -456Q104 -456 100 -457Q70 -458 46 -483Q27 -502 14 -532Q0 -565 0 -594Q0 -633 39 -672Q46 -679 61 -692Q76 -705 82 -712Q104 -734 104 -748Q104 -757 107 -768Q108 -771 108 -772Q108 -781 108 -786Q108 -802 115 -810Q123 -817 133 -817Q155 -817 159 -790Q160 -786 161 -774.5Q162 -763 163.5 -754Q165 -745 165 -742Q166 -739 166 -736Q166 -733 166 -726.5Q166 -720 166 -717Q166 -662 191 -555Q218 -443 218 -382Q218 -382 218 -381Q218 -380 218 -379Q238 -404 244 -414L267 -482Q273 -499 291 -499Q301 -499 308.5 -491.5Q316 -484 316 -474Q316 -470 315 -466L291 -394Q290 -391 287 -388Q281 -379 218 -299ZM170 -85Q170 -135 169 -235Q142 -199 127 -178Q79 -112 68 -86L66 -80Q67 -76 70 -69Q84 -44 106 -31Q112 -27 115 -27Q133 -27 153 -47Q166 -60 168 -72Q168 -75 170 -85ZM117 -676Q111 -669 96 -656Q81 -643 74 -636Q50 -612 50 -594Q50 -576 60 -551Q69 -530 81 -518Q92 -507 103 -507Q105 -507 108 -507Q111 -509 116 -514Q132 -530 145 -533Q121 -632 117 -676Z"/>
	<path fill="#800080" d="M268 -299Q270 -103 270 -84Q270 -80 269.5 -77.5Q269 -75 268.5 -72Q268 -69 268 -67Q264 -38 238 -11Q204 23 165 23Q150 23 134 14Q119 6 104 -9Q86 -26 76 -46Q66 -64 66 -80Q66 -89 70 -100Q73 -110 81 -123Q95 -149 123 -189Q157 -237 218 -316Q218 -352 218 -382Q218 -425 206 -483Q204 -481 201 -478Q179 -456 159 -456Q154 -456 150 -457Q120 -458 96 -483Q77 -502 64 -532Q50 -565 50 -594Q50 -633 89 -672Q96 -679 111 -692Q126 -705 132 -712Q154 -734 154 -748Q154 -757 157 -768Q158 -771 158 -772Q158 -781 158 -786Q158 -802 165 -810Q173 -817 183 -817Q205 -817 209 -790Q210 -786 211 -774.5Q212 -763 213.5 -754Q215 -745 215 -742Q216 -739 216 -736Q216 -733 216 -726.5Q216 -720 216 -717Q216 -662 241 -555Q268 -443 268 -382Q268 -382 268 -381Q268 -380 268 -379Q288 -404 294 -414L317 -482Q323 -499 341 -499Q351 -499 358.5 -491.5Q366 -484 366 -474Q366 -470 365 -466L341 -394Q340 -391 337 -388Q331 -379 268 -299ZM220 -85Q220 -135 219 -235Q192 -199 177 -178Q129 -112 118 -86L116 -80Q117 -76 120 -69Q134 -44 156 -31Q162 -27 165 -27Q183 -27 203 -47Q216 -60 218 -72Q218 -75 220 -85ZM167 -676Q161 -669 146 -656Q131 -643 124 -636Q100 -612 100 -594Q100 -576 110 -551Q119 -530 131 -518Q142 -507 153 -507Q155 -507 158 -507Q161 -509 166 -514Q182 -530 195 -533Q171 -632 167 -676Z"/>
	<path fill="#daa520" d="M153 -487Q154 -487 156 -486.5Q158 -486 158 -486Q166 -486 180 -500Q196 -515 207 -515Q212 -515 212 -510Q212 -505 207 -505Q200 -505 187 -492Q171 -476 158 -476Q155 -476 152 -477Q117 -477 93.5 -518Q70 -559 70 -594Q70 -610 79.5 -627Q89 -644 98 -653Q107 -662 125 -678Q142 -693 150.5 -701.5Q159 -710 166.5 -723Q174 -736 174 -748Q174 -753 176 -760.5Q178 -768 178 -772Q178 -781 178 -786Q178 -787 178 -789Q178 -791 178 -791.5Q178 -792 178 -793Q178 -797 183 -797Q188 -797 189 -788Q190 -783 191 -771.5Q192 -760 193.5 -750.5Q195 -741 196 -737Q196 -737 196 -736Q196 -733 196 -726.5Q196 -720 196 -717Q196 -660 222 -550Q248 -440 248 -382Q248 -355 248 -322Q306 -395 312 -404L336 -476Q337 -479 341 -479Q346 -479 346 -474Q346 -473 346 -472L322 -400Q322 -400 321 -399Q316 -392 248 -306Q250 -92 250 -84Q250 -81 249 -76.5Q248 -72 248 -70Q248 -70 248 -69Q245 -43 218.5 -20Q192 3 165 3Q144 3 119 -22Q86 -55 86 -80Q86 -102 139 -178Q174 -227 238 -309Q238 -350 238 -382Q238 -439 212 -549Q186 -659 186 -717Q186 -726 186 -736Q185 -740 184 -748Q184 -733 175 -718Q166 -703 158 -694.5Q150 -686 132 -671Q115 -655 106 -646Q97 -637 88.5 -622.5Q80 -608 80 -594Q80 -563 101 -525Q122 -487 153 -487ZM238 -293Q180 -218 147 -172Q96 -99 96 -80Q96 -59 126 -29Q149 -7 165 -7Q188 -7 211.5 -28Q235 -49 238 -70Q238 -73 239 -77.5Q240 -82 240 -84Q240 -110 238 -293Z"/>
</svg>