<svg xmlns="http://www.w3.org/2000/svg" viewBox="0 -1024 1024 1024">
	<path fill="#000088" d="M218 -299Q220 -103 220 -84Q220 -80 219.5 -77.5Q219 -75 218.5 -72Q218 -69 218 -67Q214 -38 188 -11Q154 23 115 23Q100 23 84 14Q69 6 54 -9Q36 -26 26 -46Q16 -64 16 -80Q16 -89 20 -100Q23 -110 31 -123Q45 -149 73 -189Q107 -237 168 -316Q168 -352 168 -382Q168 -425 156 -483Q154 -481 151 -478Q129 -456 109 -456Q104 -456 100 -457Q70 -458 46 -483Q27 -502 14 -532Q0 -565 0 -594Q0 -633 39 -672Q46 -679 61 -692Q76 -705 82 -712Q104 -734 104 -748Q104 -757 107 -768Q108 -771 108 -772Q108 -781 108 -786Q108 -802 115 -810Q123 -817 133 -817Q155 -817 159 -790Q160 -786 161 -774.5Q162 -763 163.5 -754Q165 -745 165 -742Q166 -739 166 -736Q166 -733 166 -726.5Q166 -720 166 -717Q166 -662 191 -555Q218 -443 218 -382Q218 -382 218 -381Q218 -380 218 -379Q238 -404 244 -414L267 -482Q273 -499 291 -499Q301 -499 308.5 -491.5Q316 -484 316 -474Q316 -470 315 -466L291 -394Q290 -391 287 -388Q281 -379 218 -299ZM170 -85Q170 -135 169 -235Q142 -199 127 -178Q79 -112 68 -86L66 -80Q67 -76 70 -69Q84 -44 106 -31Q112 -27 115 -27Q133 -27 153 -47Q166 -60 168 -72Q168 -75 170 -85ZM117 -676Q111 -669 96 -656Q81 -643 74 -636Q50 -612 50 -594Q50 -576 60 -551Q69 -530 81 -518Q92 -507 103 -507Q105 -507 108 -507Q111 -509 116 -514Q132 -530 145 -533Q121 -632 117 -676Z"/>
	<path fill="#800080" d="M268 -299Q270 -103 270 -84Q270 -80 269.5 -77.5Q269 -75 268.5 -72Q268 -69 268 -67Q264 -38 238 -11Q204 23 165 23Q150 23 134 14Q119 6 104 -9Q86 -26 76 -46Q66 -64 66 -80Q66 -89 70 -100Q73 -110 81 -123Q95 -149 123 -189Q157 -237 218 -316Q218 -352 218 -382Q218 -425 206 -483Q204 -481 201 -478Q179 -456 159 -456Q154 -456 150 -457Q120 -458 96 -483Q77 -502 64 -532Q50 -565 50 -594Q50 -633 89 -672Q96 -679 111 -692Q126 -705 132 -712Q154 -734 154 -748Q154 -757 157 -768Q158 -771 158 -772Q158 -781 158 -786Q158 -802 165 -810Q173 -817 183 -817Q205 -817 209 -790Q210 -786 211 -774.5Q212 -763 213.5 -754Q215 -745 215 -742Q216 -739 216 -736Q216 -733 216 -726.5Q216 -720 216 -717Q216 -662 241 -555Q268 -443 268 -382Q268 -382 268 -381Q268 -380 268 -379Q288 -404 294 -414L317 -482Q323 -499 341 -499Q351 -499 358.5 -491.5Q366 -484 366 -474Q366 -470 365 -466L341 -394Q340 -391 337 -388Q331 -379 268 -299ZM220 -85Q220 -135 219 -235Q192 -199 177 -178Q129 -112 118 -86L116 -80Q117 -76 120 -69Q134 -44 156 -31Q162 -27 165 -27Q183 -27 203 -47Q216 -60 218 -72Q218 -75 220 -85ZM167 -676Q161 -669 146 -656Q131 -643 124 -636Q100 -612 100 -594Q100 -576 110 -551Q119 -530 131 -518Q142 -507 153 -507Q155 -507 158 -507Q161 -509 166 -514Q182 -530 195 -533Q171 -632 167 -676Z"/>
	<path fill="#daa520" d="M133 -487Q134 -487 136 -486.5Q138 -486 138 -486Q146 -486 160 -500Q176 -515 187 -515Q192 -515 192 -510Q192 -505 187 -505Q180 -505 167 -492Q151 -476 138 -476Q135 -476 132 -477Q97 -477 73.5 -518Q50 -559 50 -594Q50 -610 59.5 -627Q69 -644 78 -653Q87 -662 105 -678Q122 -693 130.5 -701.5Q139 -710 146.5 -723Q154 -736 154 -748Q154 -753 156 -760.5Q158 -768 158 -772Q158 -781 158 -786Q158 -787 158 -789Q158 -791 158 -791.5Q158 -792 158 -793Q158 -797 163 -797Q168 -797 169 -788Q170 -783 171 -771.5Q172 -760 173.5 -750.5Q175 -741 176 -737Q176 -737 176 -736Q176 -733 176 -726.5Q176 -720 176 -717Q176 -660 202 -550Q228 -440 228 -382Q228 -355 228 -322Q286 -395 292 -404L316 -476Q317 -479 321 -479Q326 -479 326 -474Q326 -473 326 -472L302 -400Q302 -400 301 -399Q296 -392 228 -306Q230 -92 230 -84Q230 -81 229 -76.5Q228 -72 228 -70Q228 -70 228 -69Q225 -43 198.5 -20Q172 3 145 3Q124 3 99 -22Q66 -55 66 -80Q66 -102 119 -178Q154 -227 218 -309Q218 -350 218 -382Q218 -439 192 -549Q166 -659 166 -717Q166 -726 166 -736Q165 -740 164 -748Q164 -733 155 -718Q146 -703 138 -694.5Q130 -686 112 -671Q95 -655 86 -646Q77 -637 68.5 -622.5Q60 -608 60 -594Q60 -563 81 -525Q102 -487 133 -487ZM218 -293Q160 -218 127 -172Q76 -99 76 -80Q76 -59 106 -29Q129 -7 145 -7Q168 -7 191.5 -28Q215 -49 218 -70Q218 -73 219 -77.5Q220 -82 220 -84Q220 -110 218 -293Z"/>
</svg>