<svg xmlns="http://www.w3.org/2000/svg" viewBox="0 -1024 1024 1024">
	<path fill="#000088" d="M214 -299Q216 -103 216 -84Q216 -80 215.5 -77.5Q215 -75 214.5 -72Q214 -69 214 -67Q210 -38 184 -11Q150 23 111 23Q96 23 80 14Q65 6 50 -9Q32 -26 22 -46Q12 -64 12 -80Q12 -89 16 -100Q19 -110 27 -123Q41 -149 69 -189Q103 -237 164 -316Q164 -352 164 -382Q164 -425 152 -483Q150 -481 147 -478Q125 -456 105 -456Q100 -456 96 -457Q66 -458 42 -483Q23 -502 10 -532Q-4 -565 -4 -594Q-4 -633 35 -672Q42 -679 57 -692Q72 -705 78 -712Q100 -734 100 -748Q100 -757 103 -768Q104 -771 104 -772Q104 -781 104 -786Q104 -802 111 -810Q119 -817 129 -817Q151 -817 155 -790Q156 -786 157 -774.5Q158 -763 159.5 -754Q161 -745 161 -742Q162 -739 162 -736Q162 -733 162 -726.5Q162 -720 162 -717Q162 -662 187 -555Q214 -443 214 -382Q214 -382 214 -381Q214 -380 214 -379Q234 -404 240 -414L263 -482Q269 -499 287 -499Q297 -499 304.5 -491.5Q312 -484 312 -474Q312 -470 311 -466L287 -394Q286 -391 283 -388Q277 -379 214 -299ZM166 -85Q166 -135 165 -235Q138 -199 123 -178Q75 -112 64 -86L62 -80Q63 -76 66 -69Q80 -44 102 -31Q108 -27 111 -27Q129 -27 149 -47Q162 -60 164 -72Q164 -75 166 -85ZM113 -676Q107 -669 92 -656Q77 -643 70 -636Q46 -612 46 -594Q46 -576 56 -551Q65 -530 77 -518Q88 -507 99 -507Q101 -507 104 -507Q107 -509 112 -514Q128 -530 141 -533Q118 -632 113 -676Z"/>
	<path fill="#800080" d="M268 -299Q270 -103 270 -84Q270 -80 269.5 -77.5Q269 -75 268.5 -72Q268 -69 268 -67Q264 -38 238 -11Q204 23 165 23Q150 23 134 14Q119 6 104 -9Q86 -26 76 -46Q66 -64 66 -80Q66 -89 70 -100Q73 -110 81 -123Q95 -149 123 -189Q157 -237 218 -316Q218 -352 218 -382Q218 -425 206 -483Q204 -481 201 -478Q179 -456 159 -456Q154 -456 150 -457Q120 -458 96 -483Q77 -502 64 -532Q50 -565 50 -594Q50 -633 89 -672Q96 -679 111 -692Q126 -705 132 -712Q154 -734 154 -748Q154 -757 157 -768Q158 -771 158 -772Q158 -781 158 -786Q158 -802 165 -810Q173 -817 183 -817Q205 -817 209 -790Q210 -786 211 -774.5Q212 -763 213.5 -754Q215 -745 215 -742Q216 -739 216 -736Q216 -733 216 -726.5Q216 -720 216 -717Q216 -662 241 -555Q268 -443 268 -382Q268 -382 268 -381Q268 -380 268 -379Q288 -404 294 -414L317 -482Q323 -499 341 -499Q351 -499 358.5 -491.5Q366 -484 366 -474Q366 -470 365 -466L341 -394Q340 -391 337 -388Q331 -379 268 -299ZM220 -85Q220 -135 219 -235Q192 -199 177 -178Q129 -112 118 -86L116 -80Q117 -76 120 -69Q134 -44 156 -31Q162 -27 165 -27Q183 -27 203 -47Q216 -60 218 -72Q218 -75 220 -85ZM167 -676Q161 -669 146 -656Q131 -643 124 -636Q100 -612 100 -594Q100 -576 110 -551Q119 -530 131 -518Q142 -507 153 -507Q155 -507 158 -507Q161 -509 166 -514Q182 -530 195 -533Q171 -632 167 -676Z"/>
	<path fill="#daa520" d="M153 -487Q154 -487 156 -486.5Q158 -486 158 -486Q166 -486 180 -500Q196 -515 207 -515Q212 -515 212 -510Q212 -505 207 -505Q200 -505 187 -492Q171 -476 158 -476Q155 -476 152 -477Q117 -477 93.5 -518Q70 -559 70 -594Q70 -610 79.5 -627Q89 -644 98 -653Q107 -662 125 -678Q142 -693 150.5 -701.5Q159 -710 166.5 -723Q174 -736 174 -748Q174 -753 176 -760.5Q178 -768 178 -772Q178 -781 178 -786Q178 -787 178 -789Q178 -791 178 -791.5Q178 -792 178 -793Q178 -797 183 -797Q188 -797 189 -788Q190 -783 191 -771.5Q192 -760 193.5 -750.5Q195 -741 196 -737Q196 -737 196 -736Q196 -733 196 -726.5Q196 -720 196 -717Q196 -660 222 -550Q248 -440 248 -382Q248 -355 248 -322Q306 -395 312 -404L336 -476Q337 -479 341 -479Q346 -479 346 -474Q346 -473 346 -472L322 -400Q322 -400 321 -399Q316 -392 248 -306Q250 -92 250 -84Q250 -81 249 -76.5Q248 -72 248 -70Q248 -70 248 -69Q245 -43 218.5 -20Q192 3 165 3Q144 3 119 -22Q86 -55 86 -80Q86 -102 139 -178Q174 -227 238 -309Q238 -350 238 -382Q238 -439 212 -549Q186 -659 186 -717Q186 -726 186 -736Q185 -740 184 -748Q184 -733 175 -718Q166 -703 158 -694.5Q150 -686 132 -671Q115 -655 106 -646Q97 -637 88.5 -622.5Q80 -608 80 -594Q80 -563 101 -525Q122 -487 153 -487ZM238 -293Q180 -218 147 -172Q96 -99 96 -80Q96 -59 126 -29Q149 -7 165 -7Q188 -7 211.5 -28Q235 -49 238 -70Q238 -73 239 -77.5Q240 -82 240 -84Q240 -110 238 -293Z"/>
</svg>