<svg xmlns="http://www.w3.org/2000/svg" viewBox="0 -1024 1024 1024">
	<path fill="#000088" d="M178 -739Q121 -717 73 -717H25Q15 -717 7.5 -724.5Q0 -732 0 -742Q0 -752 7.5 -759.5Q15 -767 25 -767H73Q97 -767 125.5 -775Q154 -783 171 -790L187 -798Q193 -801 199 -801Q208 -801 215.5 -794.5Q223 -788 224 -779Q238 -667 238 -523Q238 -404 228 -297Q295 -417 372 -494Q406 -528 444 -556Q448 -559 458 -569Q469 -580 498 -612Q538 -654 557 -674Q585 -701 603 -714Q613 -722 622 -726Q632 -731 641 -731Q657 -731 664 -716Q686 -666 686 -618Q686 -591 679 -566Q664 -514 624 -473Q579 -429 514.5 -405Q450 -381 383 -381Q374 -381 366 -382Q364 -374 364 -366Q364 -344 374 -317Q399 -247 469 -177Q523 -123 589 -89Q655 -55 717 -55Q720 -55 721 -56Q725 -60 731 -74Q747 -113 767 -113Q777 -113 784.5 -105.5Q792 -98 792 -88Q792 -77 784 -70Q782 -68 777 -55Q767 -31 757 -21Q741 -5 717 -5Q642 -5 568 -43Q494 -81 433 -142Q356 -220 327 -300Q318 -324 315 -345Q266 -270 203 -139Q178 -29 137 12Q129 20 121 25Q114 29 107 29Q97 29 89.5 21.5Q82 14 82 4Q82 -2 85 -7Q91 -20 156 -156Q188 -302 188 -523Q188 -641 178 -739ZM636 -618Q636 -643 628 -670Q614 -659 593 -638Q577 -622 542.5 -585Q508 -548 493 -533Q481 -521 474 -516Q425 -480 382 -431Q465 -431 538.5 -471.5Q612 -512 630 -579Q636 -598 636 -618Z"/>
	<path fill="#800080" d="M228 -739Q171 -717 123 -717H75Q65 -717 57.5 -724.5Q50 -732 50 -742Q50 -752 57.5 -759.5Q65 -767 75 -767H123Q147 -767 175.5 -775Q204 -783 221 -790L237 -798Q243 -801 249 -801Q258 -801 265.5 -794.5Q273 -788 274 -779Q288 -667 288 -523Q288 -404 278 -297Q345 -417 422 -494Q456 -528 494 -556Q498 -559 508 -569Q519 -580 548 -612Q588 -654 607 -674Q635 -701 653 -714Q663 -722 672 -726Q682 -731 691 -731Q707 -731 714 -716Q736 -666 736 -618Q736 -591 729 -566Q714 -514 674 -473Q629 -429 564.5 -405Q500 -381 433 -381Q424 -381 416 -382Q414 -374 414 -366Q414 -344 424 -317Q449 -247 519 -177Q573 -123 639 -89Q705 -55 767 -55Q770 -55 771 -56Q775 -60 781 -74Q797 -113 817 -113Q827 -113 834.5 -105.5Q842 -98 842 -88Q842 -77 834 -70Q832 -68 827 -55Q817 -31 807 -21Q791 -5 767 -5Q692 -5 618 -43Q544 -81 483 -142Q406 -220 377 -300Q368 -324 365 -345Q316 -270 253 -139Q228 -29 187 12Q179 20 171 25Q164 29 157 29Q147 29 139.5 21.5Q132 14 132 4Q132 -2 135 -7Q141 -20 206 -156Q238 -302 238 -523Q238 -641 228 -739ZM686 -618Q686 -643 678 -670Q664 -659 643 -638Q627 -622 592.5 -585Q558 -548 543 -533Q531 -521 524 -516Q475 -480 432 -431Q515 -431 588.5 -471.5Q662 -512 680 -579Q686 -598 686 -618Z"/>
	<path fill="#daa520" d="M75 -737Q70 -737 70 -742Q70 -747 75 -747H123Q150 -747 181 -755.5Q212 -764 229 -772L247 -780Q248 -781 249 -781Q253 -781 254 -777Q268 -666 268 -523Q268 -328 242 -186Q301 -305 361.5 -391.5Q422 -478 506 -540Q516 -548 563 -598Q618 -657 642 -680Q677 -711 691 -711Q694 -711 696 -708Q716 -661 716 -618Q716 -552 672 -501.5Q628 -451 564.5 -426Q501 -401 433 -401Q417 -401 402 -403Q394 -387 394 -366Q394 -321 427.5 -263.5Q461 -206 512 -155.5Q563 -105 632.5 -70Q702 -35 767 -35Q780 -35 786 -42.5Q792 -50 799 -66Q807 -85 814 -92Q815 -93 817 -93Q822 -93 822 -88Q822 -86 820 -84Q815 -79 808 -63Q804 -51 800.5 -45Q797 -39 788 -32Q779 -25 767 -25Q700 -25 628.5 -60.5Q557 -96 504.5 -148Q452 -200 418 -259.5Q384 -319 384 -366Q384 -391 395 -410Q396 -413 399 -413Q399 -413 400 -413Q416 -411 433 -411Q499 -411 560.5 -435Q622 -459 664 -507.5Q706 -556 706 -618Q706 -658 688 -700Q675 -696 649 -672Q625 -650 570 -591Q523 -540 512 -532Q465 -497 424 -453Q383 -409 348.5 -355.5Q314 -302 289.5 -256Q265 -210 234 -146Q206 -22 160 8Q158 9 157 9Q152 9 152 4Q152 3 153 2Q156 -6 225 -149Q258 -298 258 -523Q258 -660 245 -768Q180 -737 123 -737ZM174 -19Q194 -45 210 -95Q186 -45 174 -19Z"/>
</svg>