<svg xmlns="http://www.w3.org/2000/svg" viewBox="0 -1024 1024 1024">
	<path fill="#000088" d="M60 -707Q45 -707 35 -717Q25 -727 25 -742Q25 -757 35 -767Q45 -777 60 -777H108Q136 -777 167.5 -785.5Q199 -794 216 -802L234 -811L270 -776Q284 -666 284 -523Q284 -431 276 -330Q329 -415 390 -476L425 -512Q458 -545 494 -571L497 -574Q547 -628 575 -656L610 -691Q660 -741 676 -741L712 -706Q731 -664 731 -618Q731 -545 677 -491L641 -456Q601 -416 540.5 -393.5Q480 -371 418 -371H410V-366Q410 -324 435 -273Q460 -222 504 -178Q555 -127 621 -96Q687 -65 752 -65H754Q762 -83 767 -88L802 -123Q812 -131 820 -131Q830 -131 837.5 -123.5Q845 -116 845 -105Q845 -94 838 -87L833 -83Q829 -78 822.5 -61.5Q816 -45 810 -39L774 -3Q766 5 752 5Q683 5 613.5 -30.5Q544 -66 486 -124L451 -160Q367 -244 345 -326Q299 -251 250 -148Q225 -41 190 -6L154 29Q150 33 142 39L107 4Q132 -46 180 -148Q213 -296 213 -523Q213 -636 204 -727Q156 -707 108 -707ZM661 -618Q661 -636 656 -661Q647 -655 627 -636Q620 -628 589.5 -596Q559 -564 546 -551L511 -516Q502 -507 494 -501Q472 -485 443 -458Q433 -448 428 -442Q542 -445 622 -510Q661 -559 661 -618Z"/>
	<path fill="#800080" d="M228 -739Q171 -717 123 -717H75Q65 -717 57.5 -724.5Q50 -732 50 -742Q50 -752 57.5 -759.5Q65 -767 75 -767H123Q147 -767 175.5 -775Q204 -783 221 -790L237 -798Q243 -801 249 -801Q258 -801 265.5 -794.5Q273 -788 274 -779Q288 -667 288 -523Q288 -404 278 -297Q345 -417 422 -494Q456 -528 494 -556Q498 -559 508 -569Q519 -580 548 -612Q588 -654 607 -674Q635 -701 653 -714Q663 -722 672 -726Q682 -731 691 -731Q707 -731 714 -716Q736 -666 736 -618Q736 -591 729 -566Q714 -514 674 -473Q629 -429 564.5 -405Q500 -381 433 -381Q424 -381 416 -382Q414 -374 414 -366Q414 -344 424 -317Q449 -247 519 -177Q573 -123 639 -89Q705 -55 767 -55Q770 -55 771 -56Q775 -60 781 -74Q797 -113 817 -113Q827 -113 834.5 -105.5Q842 -98 842 -88Q842 -77 834 -70Q832 -68 827 -55Q817 -31 807 -21Q791 -5 767 -5Q692 -5 618 -43Q544 -81 483 -142Q406 -220 377 -300Q368 -324 365 -345Q316 -270 253 -139Q228 -29 187 12Q179 20 171 25Q164 29 157 29Q147 29 139.5 21.5Q132 14 132 4Q132 -2 135 -7Q141 -20 206 -156Q238 -302 238 -523Q238 -641 228 -739ZM686 -618Q686 -643 678 -670Q664 -659 643 -638Q627 -622 592.5 -585Q558 -548 543 -533Q531 -521 524 -516Q475 -480 432 -431Q515 -431 588.5 -471.5Q662 -512 680 -579Q686 -598 686 -618Z"/>
	<path fill="#daa520" d="M75 -737Q70 -737 70 -742Q70 -747 75 -747H123Q150 -747 181 -755.5Q212 -764 229 -772L247 -780Q248 -781 249 -781Q253 -781 254 -777Q268 -666 268 -523Q268 -328 242 -186Q301 -305 361.5 -391.5Q422 -478 506 -540Q516 -548 563 -598Q618 -657 642 -680Q677 -711 691 -711Q694 -711 696 -708Q716 -661 716 -618Q716 -552 672 -501.5Q628 -451 564.5 -426Q501 -401 433 -401Q417 -401 402 -403Q394 -387 394 -366Q394 -321 427.5 -263.5Q461 -206 512 -155.5Q563 -105 632.5 -70Q702 -35 767 -35Q780 -35 786 -42.5Q792 -50 799 -66Q807 -85 814 -92Q815 -93 817 -93Q822 -93 822 -88Q822 -86 820 -84Q815 -79 808 -63Q804 -51 800.5 -45Q797 -39 788 -32Q779 -25 767 -25Q700 -25 628.5 -60.5Q557 -96 504.5 -148Q452 -200 418 -259.5Q384 -319 384 -366Q384 -391 395 -410Q396 -413 399 -413Q399 -413 400 -413Q416 -411 433 -411Q499 -411 560.5 -435Q622 -459 664 -507.5Q706 -556 706 -618Q706 -658 688 -700Q675 -696 649 -672Q625 -650 570 -591Q523 -540 512 -532Q465 -497 424 -453Q383 -409 348.5 -355.5Q314 -302 289.5 -256Q265 -210 234 -146Q206 -22 160 8Q158 9 157 9Q152 9 152 4Q152 3 153 2Q156 -6 225 -149Q258 -298 258 -523Q258 -660 245 -768Q180 -737 123 -737ZM174 -19Q194 -45 210 -95Q186 -45 174 -19Z"/>
</svg>