<svg xmlns="http://www.w3.org/2000/svg" viewBox="0 -1024 1024 1024">
	<path fill="#000088" d="M160 -154Q168 -207 168 -253Q168 -290 157 -357.5Q146 -425 144 -443Q144 -444 144 -445Q143 -468 134 -525Q127 -578 124 -603Q109 -601 94 -601Q81 -601 75 -604Q63 -611 52 -621Q28 -646 15 -690Q6 -720 0 -779Q0 -781 0 -782Q0 -792 7.5 -799.5Q15 -807 25 -807Q34 -807 41.5 -800.5Q49 -794 50 -785Q56 -730 63 -704Q74 -666 94 -651Q108 -651 122 -653Q122 -662 122 -670Q126 -738 160 -772Q194 -805 254 -805Q273 -805 281 -798Q285 -793 287 -787Q293 -768 293 -749Q293 -729 286 -710Q262 -644 174 -614Q176 -586 184 -532Q193 -473 194 -448Q196 -431 207 -362Q218 -293 218 -253Q218 -184 205 -116Q211 -110 222.5 -98Q234 -86 240 -80Q264 -56 284 -44.5Q304 -33 328 -33Q331 -33 334 -33Q393 -36 427 -46Q462 -57 481 -76Q507 -101 508 -148L487 -168Q480 -176 480 -186Q480 -196 487.5 -203.5Q495 -211 505 -211Q515 -211 523 -204L551 -176Q558 -168 558 -152Q558 -82 517 -40Q489 -12 442 2Q402 14 336 17Q332 17 328 17Q298 17 270 3.5Q242 -10 227.5 -23Q213 -36 190 -60Q178 -29 161 -12Q142 7 117 7Q115 7 113 7Q72 0 44.5 -38.5Q17 -77 10 -121Q8 -130 8 -139Q8 -157 19 -168Q30 -179 49 -181Q52 -181 56 -181Q65 -181 79 -179Q80 -179 80 -179Q122 -179 160 -154ZM243 -749Q243 -752 243 -755Q212 -753 195 -736Q175 -716 172 -667Q202 -679 220 -697Q233 -711 239 -727Q243 -738 243 -749ZM77 -129Q75 -129 73 -129Q66 -131 59 -131Q60 -130 60 -129Q63 -102 79.5 -75.5Q96 -49 119 -43Q122 -44 126 -48Q134 -56 142 -75Q146 -85 150 -99Q115 -129 80 -129Q80 -129 79 -129Q78 -129 77 -129Z"/>
	<path fill="#800080" d="M210 -154Q218 -207 218 -253Q218 -290 207 -357.5Q196 -425 194 -443Q194 -444 194 -445Q193 -468 184 -525Q177 -578 174 -603Q159 -601 144 -601Q131 -601 125 -604Q113 -611 102 -621Q78 -646 65 -690Q56 -720 50 -779Q50 -781 50 -782Q50 -792 57.5 -799.5Q65 -807 75 -807Q84 -807 91.5 -800.5Q99 -794 100 -785Q106 -730 113 -704Q124 -666 144 -651Q158 -651 172 -653Q172 -662 172 -670Q176 -738 210 -772Q244 -805 304 -805Q323 -805 331 -798Q335 -793 337 -787Q343 -768 343 -749Q343 -729 336 -710Q312 -644 224 -614Q226 -586 234 -532Q243 -473 244 -448Q246 -431 257 -362Q268 -293 268 -253Q268 -184 255 -116Q261 -110 272.5 -98Q284 -86 290 -80Q314 -56 334 -44.5Q354 -33 378 -33Q381 -33 384 -33Q443 -36 477 -46Q512 -57 531 -76Q557 -101 558 -148L537 -168Q530 -176 530 -186Q530 -196 537.5 -203.5Q545 -211 555 -211Q565 -211 573 -204L601 -176Q608 -168 608 -152Q608 -82 567 -40Q539 -12 492 2Q452 14 386 17Q382 17 378 17Q348 17 320 3.5Q292 -10 277.5 -23Q263 -36 240 -60Q228 -29 211 -12Q192 7 167 7Q165 7 163 7Q122 0 94.5 -38.5Q67 -77 60 -121Q58 -130 58 -139Q58 -157 69 -168Q80 -179 99 -181Q102 -181 106 -181Q115 -181 129 -179Q130 -179 130 -179Q172 -179 210 -154ZM293 -749Q293 -752 293 -755Q262 -753 245 -736Q225 -716 222 -667Q252 -679 270 -697Q283 -711 289 -727Q293 -738 293 -749ZM127 -129Q125 -129 123 -129Q116 -131 109 -131Q110 -130 110 -129Q113 -102 129.5 -75.5Q146 -49 169 -43Q172 -44 176 -48Q184 -56 192 -75Q196 -85 200 -99Q165 -129 130 -129Q130 -129 129 -129Q128 -129 127 -129Z"/>
	<path fill="#daa520" d="M205 -118Q218 -183 218 -253Q218 -291 207 -359.5Q196 -428 194 -445V-446Q193 -469 184 -528Q174 -594 173 -626Q147 -621 124 -621Q116 -621 115 -622Q100 -630 88.5 -645.5Q77 -661 71 -675Q65 -689 60 -712.5Q55 -736 54 -747Q53 -758 50 -781V-782Q50 -787 55 -787Q60 -787 60 -781Q64 -745 68 -723Q72 -701 85 -672Q98 -643 118 -631Q121 -631 124 -631Q147 -631 172 -636Q172 -644 172 -651Q172 -785 284 -785Q297 -785 298 -781Q303 -765 303 -749Q303 -704 268 -673Q233 -642 182 -629Q184 -596 194 -529Q203 -471 204 -446Q206 -429 217 -360.5Q228 -292 228 -253Q228 -251 228 -248Q227 -173 213 -110Q221 -102 238 -84Q261 -60 274.5 -48Q288 -36 311 -24.5Q334 -13 358 -13Q361 -13 365 -13Q397 -15 421 -18Q445 -21 472.5 -30Q500 -39 517.5 -53.5Q535 -68 546.5 -93Q558 -118 558 -152Q558 -154 558 -156L531 -182Q530 -184 530 -186Q530 -191 535 -191Q537 -191 539 -190L567 -162Q568 -160 568 -152Q568 -115 555.5 -88Q543 -61 524 -46Q505 -31 476 -21Q447 -11 422.5 -8Q398 -5 365 -3Q362 -3 358 -3Q339 -3 321.5 -8Q304 -13 287.5 -25.5Q271 -38 261.5 -46.5Q252 -55 234 -74Q216 -93 210 -98Q189 -13 147 -13Q147 -13 146 -13Q112 -19 88.5 -53.5Q65 -88 60 -125Q58 -133 58 -139Q58 -161 86 -161Q94 -161 107 -159Q109 -159 110 -159Q158 -159 205 -118ZM182 -651Q182 -645 182 -639Q229 -652 261 -681Q293 -710 293 -749Q293 -762 289 -775Q286 -775 284 -775Q227 -775 204.5 -742.5Q182 -710 182 -651ZM202 -106Q156 -149 110 -149Q110 -149 109 -149Q108 -149 107.5 -149Q107 -149 106 -149Q94 -151 86 -151Q68 -151 68 -139Q68 -134 70 -127Q75 -92 96.5 -60Q118 -28 147 -23Q183 -24 202 -106Z"/>
</svg>