<svg xmlns="http://www.w3.org/2000/svg" viewBox="0 -1024 1024 1024">
	<path fill="#000088" d="M187 -165Q193 -213 193 -253Q193 -291 182 -358.5Q171 -426 169 -446Q168 -471 160 -524.5Q152 -578 151 -592Q144 -591 129 -591H123Q111 -599 106 -604L70 -639Q37 -672 25 -782V-786Q25 -800 35.5 -810.5Q46 -821 60 -821Q73 -821 83 -812Q93 -803 95 -789Q104 -697 124 -661H129Q141 -661 147 -662Q149 -725 178 -754L213 -789Q240 -816 289 -816Q290 -816 294 -815.5Q298 -815 299 -815L334 -780Q339 -762 339 -749Q339 -711 308 -680L273 -644Q255 -626 220 -610Q222 -579 230 -529Q240 -458 240 -446Q242 -426 253 -358.5Q264 -291 264 -253V-248Q264 -177 249 -108Q253 -104 261 -95.5Q269 -87 273 -83Q316 -43 364 -43H371Q471 -49 515 -77Q533 -106 533 -152V-158L505 -186Q498 -193 498 -204Q498 -214 505 -221.5Q512 -229 523 -229Q533 -229 541 -221L604 -158V-152Q604 -92 570 -58L535 -23Q491 21 371 27Q370 27 367.5 27.5Q365 28 364 28Q313 28 258 -27L231 -54Q223 -38 215 -30L179 5Q167 17 153 17Q128 12 111 -5L76 -41Q42 -75 35 -126Q33 -131 33 -139Q33 -147 37 -151L73 -186Q79 -192 91 -192Q94 -192 102.5 -190.5Q111 -189 113 -189H116Q155 -189 187 -165ZM253 -698Q266 -717 268 -744Q251 -741 234 -733Q222 -711 219 -680Q239 -689 253 -698ZM116 -119H113Q112 -119 110 -119.5Q108 -120 107 -120Q112 -89 130 -62Q144 -54 153 -53Q158 -53 160 -54Q169 -70 176 -101Q147 -119 116 -119Z"/>
	<path fill="#800080" d="M210 -154Q218 -207 218 -253Q218 -290 207 -357.5Q196 -425 194 -443Q194 -444 194 -445Q193 -468 184 -525Q177 -578 174 -603Q159 -601 144 -601Q131 -601 125 -604Q113 -611 102 -621Q78 -646 65 -690Q56 -720 50 -779Q50 -781 50 -782Q50 -792 57.5 -799.5Q65 -807 75 -807Q84 -807 91.5 -800.5Q99 -794 100 -785Q106 -730 113 -704Q124 -666 144 -651Q158 -651 172 -653Q172 -662 172 -670Q176 -738 210 -772Q244 -805 304 -805Q323 -805 331 -798Q335 -793 337 -787Q343 -768 343 -749Q343 -729 336 -710Q312 -644 224 -614Q226 -586 234 -532Q243 -473 244 -448Q246 -431 257 -362Q268 -293 268 -253Q268 -184 255 -116Q261 -110 272.5 -98Q284 -86 290 -80Q314 -56 334 -44.5Q354 -33 378 -33Q381 -33 384 -33Q443 -36 477 -46Q512 -57 531 -76Q557 -101 558 -148L537 -168Q530 -176 530 -186Q530 -196 537.5 -203.5Q545 -211 555 -211Q565 -211 573 -204L601 -176Q608 -168 608 -152Q608 -82 567 -40Q539 -12 492 2Q452 14 386 17Q382 17 378 17Q348 17 320 3.5Q292 -10 277.5 -23Q263 -36 240 -60Q228 -29 211 -12Q192 7 167 7Q165 7 163 7Q122 0 94.5 -38.5Q67 -77 60 -121Q58 -130 58 -139Q58 -157 69 -168Q80 -179 99 -181Q102 -181 106 -181Q115 -181 129 -179Q130 -179 130 -179Q172 -179 210 -154ZM293 -749Q293 -752 293 -755Q262 -753 245 -736Q225 -716 222 -667Q252 -679 270 -697Q283 -711 289 -727Q293 -738 293 -749ZM127 -129Q125 -129 123 -129Q116 -131 109 -131Q110 -130 110 -129Q113 -102 129.5 -75.5Q146 -49 169 -43Q172 -44 176 -48Q184 -56 192 -75Q196 -85 200 -99Q165 -129 130 -129Q130 -129 129 -129Q128 -129 127 -129Z"/>
	<path fill="#daa520" d="M225 -118Q238 -183 238 -253Q238 -291 227 -359.5Q216 -428 214 -445V-446Q213 -469 204 -528Q194 -594 193 -626Q167 -621 144 -621Q136 -621 135 -622Q120 -630 108.5 -645.5Q97 -661 91 -675Q85 -689 80 -712.5Q75 -736 74 -747Q73 -758 70 -781V-782Q70 -787 75 -787Q80 -787 80 -781Q84 -745 88 -723Q92 -701 105 -672Q118 -643 138 -631Q141 -631 144 -631Q167 -631 192 -636Q192 -644 192 -651Q192 -785 304 -785Q317 -785 318 -781Q323 -765 323 -749Q323 -704 288 -673Q253 -642 202 -629Q204 -596 214 -529Q223 -471 224 -446Q226 -429 237 -360.5Q248 -292 248 -253Q248 -251 248 -248Q247 -173 233 -110Q241 -102 258 -84Q281 -60 294.5 -48Q308 -36 331 -24.5Q354 -13 378 -13Q381 -13 385 -13Q417 -15 441 -18Q465 -21 492.5 -30Q520 -39 537.5 -53.5Q555 -68 566.5 -93Q578 -118 578 -152Q578 -154 578 -156L551 -182Q550 -184 550 -186Q550 -191 555 -191Q557 -191 559 -190L587 -162Q588 -160 588 -152Q588 -115 575.5 -88Q563 -61 544 -46Q525 -31 496 -21Q467 -11 442.5 -8Q418 -5 385 -3Q382 -3 378 -3Q359 -3 341.5 -8Q324 -13 307.5 -25.5Q291 -38 281.5 -46.5Q272 -55 254 -74Q236 -93 230 -98Q209 -13 167 -13Q167 -13 166 -13Q132 -19 108.5 -53.5Q85 -88 80 -125Q78 -133 78 -139Q78 -161 106 -161Q114 -161 127 -159Q129 -159 130 -159Q178 -159 225 -118ZM202 -651Q202 -645 202 -639Q249 -652 281 -681Q313 -710 313 -749Q313 -762 309 -775Q306 -775 304 -775Q247 -775 224.5 -742.5Q202 -710 202 -651ZM222 -106Q176 -149 130 -149Q130 -149 129 -149Q128 -149 127.5 -149Q127 -149 126 -149Q114 -151 106 -151Q88 -151 88 -139Q88 -134 90 -127Q95 -92 116.5 -60Q138 -28 167 -23Q203 -24 222 -106Z"/>
</svg>