<svg xmlns="http://www.w3.org/2000/svg" viewBox="0 -1024 1024 1024">
	<path fill="#000088" d="M259 -660Q269 -660 276.5 -652.5Q284 -645 284 -635Q284 -624 276 -617L60 -410L265 -193Q272 -186 272 -176Q272 -166 264.5 -158.5Q257 -151 247 -151Q236 -151 229 -159L7 -394Q0 -401 0 -411Q0 -422 8 -429L242 -653Q249 -660 259 -660Z"/>
	<path fill="#800080" d="M309 -660Q319 -660 326.5 -652.5Q334 -645 334 -635Q334 -624 326 -617L110 -410L315 -193Q322 -186 322 -176Q322 -166 314.5 -158.5Q307 -151 297 -151Q286 -151 279 -159L57 -394Q50 -401 50 -411Q50 -422 58 -429L292 -653Q299 -660 309 -660Z"/>
	<path fill="#daa520" d="M289 -640Q294 -640 294 -635Q294 -633 292 -631L62 -411L281 -179Q282 -178 282 -176Q282 -171 277 -171Q275 -171 273 -173L51 -408Q50 -409 50 -411Q50 -413 52 -415L286 -639Q287 -640 289 -640Z"/>
</svg>