<svg xmlns="http://www.w3.org/2000/svg" viewBox="0 -1024 1024 1024">
	<path fill="#000088" d="M388 -376Q388 -375 388 -374Q388 -373 388 -372Q388 -362 380.5 -354.5Q373 -347 363 -347Q348 -347 341 -360Q336 -369 320.5 -399Q305 -429 298.5 -441.5Q292 -454 278.5 -480.5Q265 -507 257 -525Q249 -543 239.5 -567Q230 -591 222 -613Q222 -588 221 -541Q220 -482 219.5 -455Q219 -428 216 -373Q213 -318 207.5 -286.5Q202 -255 191 -207.5Q180 -160 164.5 -126.5Q149 -93 125.5 -55Q102 -17 71 15Q64 23 53 23Q42 23 33 13Q20 0 11 -25Q2 -49 0 -72Q0 -73 0 -74Q0 -84 7.5 -91.5Q15 -99 25 -99Q35 -99 42 -92.5Q49 -86 50 -76Q51 -61 57 -44Q83 -77 102.5 -113.5Q122 -150 134 -193Q146 -236 153.5 -272Q161 -308 164.5 -361Q168 -414 169 -447.5Q170 -481 171 -542Q173 -727 188 -816Q190 -825 197 -831Q204 -837 213 -837Q223 -837 230.5 -829.5Q238 -822 238 -812Q238 -811 238 -809Q238 -807 238 -806Q238 -720 267.5 -636.5Q297 -553 350 -451Q367 -520 395.5 -602Q424 -684 453 -742Q474 -786 491 -802Q504 -816 519 -816Q532 -816 541 -806Q550 -798 553 -783Q556 -770 556 -748Q556 -705 554.5 -618.5Q553 -532 553 -490Q553 -355 566 -269Q587 -135 646 -56L684 -12Q690 -5 690 4Q690 14 682.5 21.5Q675 29 665 29Q654 29 646 20L608 -24Q608 -24 607 -25Q546 -105 524.5 -216.5Q503 -328 503 -488Q503 -531 504.5 -614Q506 -697 506 -736Q502 -728 498 -720Q472 -668 444.5 -590Q417 -512 401 -449Q388 -398 388 -376Z"/>
	<path fill="#800080" d="M438 -376Q438 -375 438 -374Q438 -373 438 -372Q438 -362 430.5 -354.5Q423 -347 413 -347Q398 -347 391 -360Q386 -369 370.5 -399Q355 -429 348.5 -441.5Q342 -454 328.5 -480.5Q315 -507 307 -525Q299 -543 289.5 -567Q280 -591 272 -613Q272 -588 271 -541Q270 -482 269.5 -455Q269 -428 266 -373Q263 -318 257.5 -286.5Q252 -255 241 -207.5Q230 -160 214.5 -126.5Q199 -93 175.5 -55Q152 -17 121 15Q114 23 103 23Q92 23 83 13Q70 0 61 -25Q52 -49 50 -72Q50 -73 50 -74Q50 -84 57.5 -91.5Q65 -99 75 -99Q85 -99 92 -92.5Q99 -86 100 -76Q101 -61 107 -44Q133 -77 152.5 -113.5Q172 -150 184 -193Q196 -236 203.5 -272Q211 -308 214.5 -361Q218 -414 219 -447.5Q220 -481 221 -542Q223 -727 238 -816Q240 -825 247 -831Q254 -837 263 -837Q273 -837 280.5 -829.5Q288 -822 288 -812Q288 -811 288 -809Q288 -807 288 -806Q288 -720 317.5 -636.5Q347 -553 400 -451Q417 -520 445.5 -602Q474 -684 503 -742Q524 -786 541 -802Q554 -816 569 -816Q582 -816 591 -806Q600 -798 603 -783Q606 -770 606 -748Q606 -705 604.5 -618.5Q603 -532 603 -490Q603 -355 616 -269Q637 -135 696 -56L734 -12Q740 -5 740 4Q740 14 732.5 21.5Q725 29 715 29Q704 29 696 20L658 -24Q658 -24 657 -25Q596 -105 574.5 -216.5Q553 -328 553 -488Q553 -531 554.5 -614Q556 -697 556 -736Q552 -728 548 -720Q522 -668 494.5 -590Q467 -512 451 -449Q438 -398 438 -376Z"/>
	<path fill="#daa520" d="M418 -377Q418 -376 418 -374.5Q418 -373 418 -372Q418 -367 413 -367Q410 -367 409 -370Q405 -376 388.5 -407.5Q372 -439 367 -449Q362 -459 347 -488Q332 -517 326 -531.5Q320 -546 308.5 -573Q297 -600 291.5 -618.5Q286 -637 278.5 -662Q271 -687 267 -710Q263 -733 260 -756Q253 -686 251 -541Q250 -484 249.5 -455.5Q249 -427 246 -374.5Q243 -322 237.5 -290Q232 -258 221.5 -213Q211 -168 196 -135Q181 -102 158.5 -65.5Q136 -29 107 1Q105 3 103 3Q101 3 100 2Q87 -8 79.5 -31Q72 -54 70 -74Q70 -79 75 -79Q80 -79 80 -74Q81 -59 87.5 -39Q94 -19 103 -9Q131 -39 152.5 -74.5Q174 -110 188 -142Q202 -174 212.5 -218Q223 -262 228 -293.5Q233 -325 236 -376Q239 -427 239.5 -456.5Q240 -486 241 -541Q243 -725 258 -813Q259 -817 263 -817Q268 -817 268 -806Q268 -762 277.5 -713.5Q287 -665 297.5 -631Q308 -597 332 -544Q356 -491 367.5 -469Q379 -447 409 -391Q415 -451 457 -574.5Q499 -698 534 -759Q545 -778 553.5 -787Q562 -796 569 -796Q576 -796 580 -789Q586 -778 586 -748Q586 -705 584.5 -618Q583 -531 583 -489Q583 -337 603 -228.5Q623 -120 681 -43L719 1Q720 2 720 4Q720 9 715 9Q713 9 711 7L673 -37Q614 -116 593.5 -226Q573 -336 573 -489Q573 -532 574.5 -618.5Q576 -705 576 -748Q576 -771 572 -781Q571 -786 569 -786Q566 -786 561 -780Q553 -772 543 -754Q521 -715 493 -643Q463 -565 440.5 -486.5Q418 -408 418 -377Z"/>
</svg>