<svg xmlns="http://www.w3.org/2000/svg" viewBox="0 -1024 1024 1024">
	<path fill="#000088" d="M388 -376Q388 -375 388 -374Q388 -373 388 -372Q388 -362 380.5 -354.5Q373 -347 363 -347Q348 -347 341 -360Q336 -369 320.5 -399Q305 -429 298.5 -441.5Q292 -454 278.5 -480.5Q265 -507 257 -525Q249 -543 239.5 -567Q230 -591 222 -613Q222 -588 221 -541Q220 -482 219.5 -455Q219 -428 216 -373Q213 -318 207.5 -286.5Q202 -255 191 -207.5Q180 -160 164.5 -126.5Q149 -93 125.5 -55Q102 -17 71 15Q64 23 53 23Q42 23 33 13Q20 0 11 -25Q2 -49 0 -72Q0 -73 0 -74Q0 -84 7.5 -91.5Q15 -99 25 -99Q35 -99 42 -92.5Q49 -86 50 -76Q51 -61 57 -44Q83 -77 102.5 -113.5Q122 -150 134 -193Q146 -236 153.5 -272Q161 -308 164.5 -361Q168 -414 169 -447.5Q170 -481 171 -542Q173 -727 188 -816Q190 -825 197 -831Q204 -837 213 -837Q223 -837 230.5 -829.5Q238 -822 238 -812Q238 -811 238 -809Q238 -807 238 -806Q238 -720 267.5 -636.5Q297 -553 350 -451Q367 -520 395.5 -602Q424 -684 453 -742Q474 -786 491 -802Q504 -816 519 -816Q532 -816 541 -806Q550 -798 553 -783Q556 -770 556 -748Q556 -705 554.5 -618.5Q553 -532 553 -490Q553 -355 566 -269Q587 -135 646 -56L684 -12Q690 -5 690 4Q690 14 682.5 21.5Q675 29 665 29Q654 29 646 20L608 -24Q608 -24 607 -25Q546 -105 524.5 -216.5Q503 -328 503 -488Q503 -531 504.5 -614Q506 -697 506 -736Q502 -728 498 -720Q472 -668 444.5 -590Q417 -512 401 -449Q388 -398 388 -376Z"/>
	<path fill="#800080" d="M438 -376Q438 -375 438 -374Q438 -373 438 -372Q438 -362 430.5 -354.5Q423 -347 413 -347Q398 -347 391 -360Q386 -369 370.5 -399Q355 -429 348.5 -441.5Q342 -454 328.5 -480.5Q315 -507 307 -525Q299 -543 289.5 -567Q280 -591 272 -613Q272 -588 271 -541Q270 -482 269.5 -455Q269 -428 266 -373Q263 -318 257.5 -286.5Q252 -255 241 -207.5Q230 -160 214.5 -126.5Q199 -93 175.5 -55Q152 -17 121 15Q114 23 103 23Q92 23 83 13Q70 0 61 -25Q52 -49 50 -72Q50 -73 50 -74Q50 -84 57.5 -91.5Q65 -99 75 -99Q85 -99 92 -92.5Q99 -86 100 -76Q101 -61 107 -44Q133 -77 152.5 -113.5Q172 -150 184 -193Q196 -236 203.5 -272Q211 -308 214.5 -361Q218 -414 219 -447.5Q220 -481 221 -542Q223 -727 238 -816Q240 -825 247 -831Q254 -837 263 -837Q273 -837 280.5 -829.5Q288 -822 288 -812Q288 -811 288 -809Q288 -807 288 -806Q288 -720 317.5 -636.5Q347 -553 400 -451Q417 -520 445.5 -602Q474 -684 503 -742Q524 -786 541 -802Q554 -816 569 -816Q582 -816 591 -806Q600 -798 603 -783Q606 -770 606 -748Q606 -705 604.5 -618.5Q603 -532 603 -490Q603 -355 616 -269Q637 -135 696 -56L734 -12Q740 -5 740 4Q740 14 732.5 21.5Q725 29 715 29Q704 29 696 20L658 -24Q658 -24 657 -25Q596 -105 574.5 -216.5Q553 -328 553 -488Q553 -531 554.5 -614Q556 -697 556 -736Q552 -728 548 -720Q522 -668 494.5 -590Q467 -512 451 -449Q438 -398 438 -376Z"/>
	<path fill="#daa520" d="M398 -377Q398 -376 398 -374.5Q398 -373 398 -372Q398 -367 393 -367Q390 -367 389 -370Q385 -376 368.5 -407.5Q352 -439 347 -449Q342 -459 327 -488Q312 -517 306 -531.5Q300 -546 288.5 -573Q277 -600 271.5 -618.5Q266 -637 258.5 -662Q251 -687 247 -710Q243 -733 240 -756Q233 -686 231 -541Q230 -484 229.5 -455.5Q229 -427 226 -374.5Q223 -322 217.5 -290Q212 -258 201.5 -213Q191 -168 176 -135Q161 -102 138.5 -65.5Q116 -29 87 1Q85 3 83 3Q81 3 80 2Q67 -8 59.5 -31Q52 -54 50 -74Q50 -79 55 -79Q60 -79 60 -74Q61 -59 67.5 -39Q74 -19 83 -9Q111 -39 132.5 -74.5Q154 -110 168 -142Q182 -174 192.5 -218Q203 -262 208 -293.5Q213 -325 216 -376Q219 -427 219.5 -456.5Q220 -486 221 -541Q223 -725 238 -813Q239 -817 243 -817Q248 -817 248 -806Q248 -762 257.5 -713.5Q267 -665 277.5 -631Q288 -597 312 -544Q336 -491 347.5 -469Q359 -447 389 -391Q395 -451 437 -574.5Q479 -698 514 -759Q525 -778 533.5 -787Q542 -796 549 -796Q556 -796 560 -789Q566 -778 566 -748Q566 -705 564.5 -618Q563 -531 563 -489Q563 -337 583 -228.5Q603 -120 661 -43L699 1Q700 2 700 4Q700 9 695 9Q693 9 691 7L653 -37Q594 -116 573.5 -226Q553 -336 553 -489Q553 -532 554.5 -618.5Q556 -705 556 -748Q556 -771 552 -781Q551 -786 549 -786Q546 -786 541 -780Q533 -772 523 -754Q501 -715 473 -643Q443 -565 420.5 -486.5Q398 -408 398 -377Z"/>
</svg>