<svg xmlns="http://www.w3.org/2000/svg" viewBox="0 -1024 1024 1024">
	<path fill="#000088" d="M602 -748Q602 -705 600.5 -618.5Q599 -532 599 -489Q599 -337 619.5 -227.5Q640 -118 698 -40L736 4Q742 12 742 21Q742 32 734.5 40Q727 48 716 48Q702 48 695 39L627 -40Q569 -118 548.5 -227.5Q528 -337 528 -489Q528 -491 531 -698Q496 -617 465 -516.5Q434 -416 434 -377V-372H363Q286 -520 267 -565V-541Q266 -463 264.5 -420.5Q263 -378 255.5 -309.5Q248 -241 233.5 -195.5Q219 -150 191.5 -97Q164 -44 124 -2L88 33L86 31L50 -4Q30 -24 25 -74V-77Q25 -91 35.5 -101.5Q46 -112 60 -112Q73 -112 83 -103Q93 -94 95 -80Q97 -61 98 -58Q132 -107 152.5 -163Q173 -219 181.5 -290Q190 -361 192.5 -408Q195 -455 196 -541Q198 -725 213 -812H284V-806Q284 -667 381 -473Q406 -565 445 -663Q484 -761 508 -785L544 -820Q550 -826 554 -826Q557 -826 559 -824L594 -789Q602 -781 602 -748Z"/>
	<path fill="#800080" d="M438 -376Q438 -375 438 -374Q438 -373 438 -372Q438 -362 430.5 -354.5Q423 -347 413 -347Q398 -347 391 -360Q386 -369 370.5 -399Q355 -429 348.5 -441.5Q342 -454 328.5 -480.5Q315 -507 307 -525Q299 -543 289.5 -567Q280 -591 272 -613Q272 -588 271 -541Q270 -482 269.5 -455Q269 -428 266 -373Q263 -318 257.5 -286.5Q252 -255 241 -207.5Q230 -160 214.5 -126.5Q199 -93 175.5 -55Q152 -17 121 15Q114 23 103 23Q92 23 83 13Q70 0 61 -25Q52 -49 50 -72Q50 -73 50 -74Q50 -84 57.5 -91.5Q65 -99 75 -99Q85 -99 92 -92.5Q99 -86 100 -76Q101 -61 107 -44Q133 -77 152.5 -113.5Q172 -150 184 -193Q196 -236 203.5 -272Q211 -308 214.5 -361Q218 -414 219 -447.5Q220 -481 221 -542Q223 -727 238 -816Q240 -825 247 -831Q254 -837 263 -837Q273 -837 280.5 -829.5Q288 -822 288 -812Q288 -811 288 -809Q288 -807 288 -806Q288 -720 317.5 -636.5Q347 -553 400 -451Q417 -520 445.5 -602Q474 -684 503 -742Q524 -786 541 -802Q554 -816 569 -816Q582 -816 591 -806Q600 -798 603 -783Q606 -770 606 -748Q606 -705 604.5 -618.5Q603 -532 603 -490Q603 -355 616 -269Q637 -135 696 -56L734 -12Q740 -5 740 4Q740 14 732.5 21.5Q725 29 715 29Q704 29 696 20L658 -24Q658 -24 657 -25Q596 -105 574.5 -216.5Q553 -328 553 -488Q553 -531 554.5 -614Q556 -697 556 -736Q552 -728 548 -720Q522 -668 494.5 -590Q467 -512 451 -449Q438 -398 438 -376Z"/>
	<path fill="#daa520" d="M418 -377Q418 -376 418 -374.5Q418 -373 418 -372Q418 -367 413 -367Q410 -367 409 -370Q405 -376 388.5 -407.5Q372 -439 367 -449Q362 -459 347 -488Q332 -517 326 -531.5Q320 -546 308.5 -573Q297 -600 291.5 -618.5Q286 -637 278.5 -662Q271 -687 267 -710Q263 -733 260 -756Q253 -686 251 -541Q250 -484 249.5 -455.5Q249 -427 246 -374.5Q243 -322 237.5 -290Q232 -258 221.5 -213Q211 -168 196 -135Q181 -102 158.5 -65.5Q136 -29 107 1Q105 3 103 3Q101 3 100 2Q87 -8 79.5 -31Q72 -54 70 -74Q70 -79 75 -79Q80 -79 80 -74Q81 -59 87.5 -39Q94 -19 103 -9Q131 -39 152.5 -74.5Q174 -110 188 -142Q202 -174 212.5 -218Q223 -262 228 -293.5Q233 -325 236 -376Q239 -427 239.5 -456.5Q240 -486 241 -541Q243 -725 258 -813Q259 -817 263 -817Q268 -817 268 -806Q268 -762 277.5 -713.5Q287 -665 297.5 -631Q308 -597 332 -544Q356 -491 367.5 -469Q379 -447 409 -391Q415 -451 457 -574.5Q499 -698 534 -759Q545 -778 553.5 -787Q562 -796 569 -796Q576 -796 580 -789Q586 -778 586 -748Q586 -705 584.5 -618Q583 -531 583 -489Q583 -337 603 -228.5Q623 -120 681 -43L719 1Q720 2 720 4Q720 9 715 9Q713 9 711 7L673 -37Q614 -116 593.5 -226Q573 -336 573 -489Q573 -532 574.5 -618.5Q576 -705 576 -748Q576 -771 572 -781Q571 -786 569 -786Q566 -786 561 -780Q553 -772 543 -754Q521 -715 493 -643Q463 -565 440.5 -486.5Q418 -408 418 -377Z"/>
</svg>