<svg xmlns="http://www.w3.org/2000/svg" viewBox="0 -1024 1024 1024">
	<path fill="#000088" d="M156 -172Q156 -164 156.5 -147.5Q157 -131 157 -122Q157 -88 153 -62Q145 -15 121 9Q97 33 59 33Q57 33 55 33Q39 30 28 19Q14 4 6 -33Q3 -47 2 -51Q0 -55 0 -60Q0 -70 7.5 -77.5Q15 -85 25 -85Q42 -85 48 -69Q51 -61 54.5 -45Q58 -29 60 -23Q61 -19 63 -17Q77 -18 85 -27Q98 -39 103 -70Q107 -91 107 -124Q107 -132 106.5 -148Q106 -164 106 -171Q105 -195 101 -251.5Q97 -308 94.5 -350.5Q92 -393 92 -430Q92 -537 115.5 -620.5Q139 -704 201 -771Q213 -785 224 -790Q232 -794 240 -794Q253 -794 262 -785Q269 -778 272 -767Q274 -759 274 -748Q274 -737 270.5 -707Q267 -677 267 -668Q267 -667 267 -666Q280 -611 280 -539Q280 -502 275.5 -428.5Q271 -355 271 -320Q271 -235 291 -180Q291 -179 291 -178Q294 -169 313 -123Q323 -190 337 -255Q351 -320 372.5 -392Q394 -464 407.5 -508.5Q421 -553 450 -638.5Q479 -724 489 -756Q491 -760 493 -763L511 -787Q518 -797 531 -797Q541 -797 548.5 -789.5Q556 -782 556 -772Q556 -764 551 -757L535 -736Q526 -707 498.5 -625Q471 -543 459 -505Q447 -467 425 -393.5Q403 -320 391.5 -268.5Q380 -217 368 -148.5Q356 -80 350 -16Q349 -6 342 0.5Q335 7 325 7Q315 7 307 0Q300 -7 300 -17Q298 -25 293 -39Q287 -56 269 -99Q247 -152 243 -165Q221 -228 221 -318Q221 -355 225.5 -428.5Q230 -502 230 -538Q230 -606 219 -653Q217 -661 217 -669Q217 -679 221 -718Q177 -662 160 -591Q143 -520 143 -428Q143 -393 145 -351Q147 -309 151 -252.5Q155 -196 156 -173Q156 -173 156 -172Z"/>
	<path fill="#800080" d="M206 -172Q206 -164 206.5 -147.5Q207 -131 207 -122Q207 -88 203 -62Q195 -15 171 9Q147 33 109 33Q107 33 105 33Q89 30 78 19Q64 4 56 -33Q53 -47 52 -51Q50 -55 50 -60Q50 -70 57.5 -77.5Q65 -85 75 -85Q92 -85 98 -69Q101 -61 104.5 -45Q108 -29 110 -23Q111 -19 113 -17Q127 -18 135 -27Q148 -39 153 -70Q157 -91 157 -124Q157 -132 156.5 -148Q156 -164 156 -171Q155 -195 151 -251.5Q147 -308 144.5 -350.5Q142 -393 142 -430Q142 -537 165.5 -620.5Q189 -704 251 -771Q263 -785 274 -790Q282 -794 290 -794Q303 -794 312 -785Q319 -778 322 -767Q324 -759 324 -748Q324 -737 320.5 -707Q317 -677 317 -668Q317 -667 317 -666Q330 -611 330 -539Q330 -502 325.5 -428.5Q321 -355 321 -320Q321 -235 341 -180Q341 -179 341 -178Q344 -169 363 -123Q373 -190 387 -255Q401 -320 422.5 -392Q444 -464 457.5 -508.5Q471 -553 500 -638.5Q529 -724 539 -756Q541 -760 543 -763L561 -787Q568 -797 581 -797Q591 -797 598.5 -789.5Q606 -782 606 -772Q606 -764 601 -757L585 -736Q576 -707 548.5 -625Q521 -543 509 -505Q497 -467 475 -393.5Q453 -320 441.5 -268.5Q430 -217 418 -148.5Q406 -80 400 -16Q399 -6 392 0.5Q385 7 375 7Q365 7 357 0Q350 -7 350 -17Q348 -25 343 -39Q337 -56 319 -99Q297 -152 293 -165Q271 -228 271 -318Q271 -355 275.5 -428.5Q280 -502 280 -538Q280 -606 269 -653Q267 -661 267 -669Q267 -679 271 -718Q227 -662 210 -591Q193 -520 193 -428Q193 -393 195 -351Q197 -309 201 -252.5Q205 -196 206 -173Q206 -173 206 -172Z"/>
	<path fill="#daa520" d="M186 -172Q186 -164 186.5 -148Q187 -132 187 -123Q187 -97 184.5 -77Q182 -57 174.5 -34.5Q167 -12 150.5 0.5Q134 13 109 13Q109 13 108 13Q97 11 90 1.5Q83 -8 81 -15Q79 -22 76 -37Q73 -52 70 -58Q70 -59 70 -60Q70 -65 75 -65Q78 -65 80 -62Q82 -55 85.5 -37.5Q89 -20 94 -9.5Q99 1 109 3Q131 3 145 -8Q159 -19 165.5 -38.5Q172 -58 174.5 -77.5Q177 -97 177 -123Q177 -132 176.5 -148Q176 -164 176 -172Q175 -195 171 -251.5Q167 -308 164.5 -350Q162 -392 162 -429Q162 -533 184.5 -613.5Q207 -694 265 -757Q281 -774 290 -774Q304 -774 304 -748Q304 -737 300.5 -709Q297 -681 297 -670Q297 -665 298 -661Q310 -609 310 -538Q310 -502 305.5 -428.5Q301 -355 301 -319Q301 -232 322 -174Q322 -173 322 -173Q325 -162 347 -110Q368 -60 373 -46Q381 -121 394.5 -192.5Q408 -264 431.5 -348Q455 -432 468 -475Q481 -518 515.5 -621.5Q550 -725 558 -750Q559 -750 559 -751L577 -775Q579 -777 581 -777Q586 -777 586 -772Q586 -770 585 -769L567 -746Q557 -714 530 -633.5Q503 -553 490.5 -513Q478 -473 456 -399.5Q434 -326 422.5 -274Q411 -222 398.5 -152.5Q386 -83 380 -18Q380 -13 375 -13Q370 -13 370 -18Q370 -28 342.5 -94Q315 -160 312 -171Q291 -230 291 -319Q291 -355 295.5 -428.5Q300 -502 300 -538Q300 -608 288 -659Q287 -663 287 -670Q287 -681 290.5 -709Q294 -737 294 -748Q294 -764 290 -764Q285 -764 273 -751Q216 -689 194 -610.5Q172 -532 172 -429Q172 -393 174.5 -350.5Q177 -308 181 -252Q185 -196 186 -172Z"/>
</svg>