<svg xmlns="http://www.w3.org/2000/svg" viewBox="0 -1024 1024 1024">
	<path fill="#000088" d="M156 -172Q156 -164 156.5 -147.5Q157 -131 157 -122Q157 -88 153 -62Q145 -15 121 9Q97 33 59 33Q57 33 55 33Q39 30 28 19Q14 4 6 -33Q3 -47 2 -51Q0 -55 0 -60Q0 -70 7.5 -77.5Q15 -85 25 -85Q42 -85 48 -69Q51 -61 54.5 -45Q58 -29 60 -23Q61 -19 63 -17Q77 -18 85 -27Q98 -39 103 -70Q107 -91 107 -124Q107 -132 106.5 -148Q106 -164 106 -171Q105 -195 101 -251.5Q97 -308 94.5 -350.5Q92 -393 92 -430Q92 -537 115.5 -620.5Q139 -704 201 -771Q213 -785 224 -790Q232 -794 240 -794Q253 -794 262 -785Q269 -778 272 -767Q274 -759 274 -748Q274 -737 270.5 -707Q267 -677 267 -668Q267 -667 267 -666Q280 -611 280 -539Q280 -502 275.5 -428.5Q271 -355 271 -320Q271 -235 291 -180Q291 -179 291 -178Q294 -169 313 -123Q323 -190 337 -255Q351 -320 372.5 -392Q394 -464 407.5 -508.5Q421 -553 450 -638.5Q479 -724 489 -756Q491 -760 493 -763L511 -787Q518 -797 531 -797Q541 -797 548.5 -789.5Q556 -782 556 -772Q556 -764 551 -757L535 -736Q526 -707 498.5 -625Q471 -543 459 -505Q447 -467 425 -393.5Q403 -320 391.5 -268.5Q380 -217 368 -148.5Q356 -80 350 -16Q349 -6 342 0.5Q335 7 325 7Q315 7 307 0Q300 -7 300 -17Q298 -25 293 -39Q287 -56 269 -99Q247 -152 243 -165Q221 -228 221 -318Q221 -355 225.5 -428.5Q230 -502 230 -538Q230 -606 219 -653Q217 -661 217 -669Q217 -679 221 -718Q177 -662 160 -591Q143 -520 143 -428Q143 -393 145 -351Q147 -309 151 -252.5Q155 -196 156 -173Q156 -173 156 -172Z"/>
	<path fill="#800080" d="M206 -172Q206 -164 206.5 -147.5Q207 -131 207 -122Q207 -88 203 -62Q195 -15 171 9Q147 33 109 33Q107 33 105 33Q89 30 78 19Q64 4 56 -33Q53 -47 52 -51Q50 -55 50 -60Q50 -70 57.5 -77.5Q65 -85 75 -85Q92 -85 98 -69Q101 -61 104.5 -45Q108 -29 110 -23Q111 -19 113 -17Q127 -18 135 -27Q148 -39 153 -70Q157 -91 157 -124Q157 -132 156.5 -148Q156 -164 156 -171Q155 -195 151 -251.5Q147 -308 144.5 -350.5Q142 -393 142 -430Q142 -537 165.5 -620.5Q189 -704 251 -771Q263 -785 274 -790Q282 -794 290 -794Q303 -794 312 -785Q319 -778 322 -767Q324 -759 324 -748Q324 -737 320.5 -707Q317 -677 317 -668Q317 -667 317 -666Q330 -611 330 -539Q330 -502 325.5 -428.5Q321 -355 321 -320Q321 -235 341 -180Q341 -179 341 -178Q344 -169 363 -123Q373 -190 387 -255Q401 -320 422.5 -392Q444 -464 457.5 -508.5Q471 -553 500 -638.5Q529 -724 539 -756Q541 -760 543 -763L561 -787Q568 -797 581 -797Q591 -797 598.5 -789.5Q606 -782 606 -772Q606 -764 601 -757L585 -736Q576 -707 548.5 -625Q521 -543 509 -505Q497 -467 475 -393.5Q453 -320 441.5 -268.5Q430 -217 418 -148.5Q406 -80 400 -16Q399 -6 392 0.5Q385 7 375 7Q365 7 357 0Q350 -7 350 -17Q348 -25 343 -39Q337 -56 319 -99Q297 -152 293 -165Q271 -228 271 -318Q271 -355 275.5 -428.5Q280 -502 280 -538Q280 -606 269 -653Q267 -661 267 -669Q267 -679 271 -718Q227 -662 210 -591Q193 -520 193 -428Q193 -393 195 -351Q197 -309 201 -252.5Q205 -196 206 -173Q206 -173 206 -172Z"/>
	<path fill="#daa520" d="M166 -172Q166 -164 166.5 -148Q167 -132 167 -123Q167 -97 164.5 -77Q162 -57 154.5 -34.5Q147 -12 130.5 0.5Q114 13 89 13Q89 13 88 13Q77 11 70 1.5Q63 -8 61 -15Q59 -22 56 -37Q53 -52 50 -58Q50 -59 50 -60Q50 -65 55 -65Q58 -65 60 -62Q62 -55 65.5 -37.5Q69 -20 74 -9.5Q79 1 89 3Q111 3 125 -8Q139 -19 145.5 -38.5Q152 -58 154.5 -77.5Q157 -97 157 -123Q157 -132 156.5 -148Q156 -164 156 -172Q155 -195 151 -251.5Q147 -308 144.5 -350Q142 -392 142 -429Q142 -533 164.5 -613.5Q187 -694 245 -757Q261 -774 270 -774Q284 -774 284 -748Q284 -737 280.5 -709Q277 -681 277 -670Q277 -665 278 -661Q290 -609 290 -538Q290 -502 285.5 -428.5Q281 -355 281 -319Q281 -232 302 -174Q302 -173 302 -173Q305 -162 327 -110Q348 -60 353 -46Q361 -121 374.5 -192.5Q388 -264 411.5 -348Q435 -432 448 -475Q461 -518 495.5 -621.5Q530 -725 538 -750Q539 -750 539 -751L557 -775Q559 -777 561 -777Q566 -777 566 -772Q566 -770 565 -769L547 -746Q537 -714 510 -633.5Q483 -553 470.5 -513Q458 -473 436 -399.5Q414 -326 402.5 -274Q391 -222 378.5 -152.5Q366 -83 360 -18Q360 -13 355 -13Q350 -13 350 -18Q350 -28 322.5 -94Q295 -160 292 -171Q271 -230 271 -319Q271 -355 275.5 -428.5Q280 -502 280 -538Q280 -608 268 -659Q267 -663 267 -670Q267 -681 270.5 -709Q274 -737 274 -748Q274 -764 270 -764Q265 -764 253 -751Q196 -689 174 -610.5Q152 -532 152 -429Q152 -393 154.5 -350.5Q157 -308 161 -252Q165 -196 166 -172Z"/>
</svg>