<svg xmlns="http://www.w3.org/2000/svg" viewBox="0 -1024 1024 1024">
	<path fill="#000088" d="M0 -198Q0 -276 18 -336Q33 -387 57 -411Q77 -430 100 -430Q123 -430 141 -411Q165 -388 181 -336Q199 -277 206 -196Q207 -180 207 -163Q207 -114 193 -62.5Q179 -11 165 17.5Q151 46 124 96Q85 170 70 209Q64 225 47 225Q37 225 29.5 217.5Q22 210 22 200Q22 196 24 191Q39 149 80 73Q134 -28 148 -84Q141 -85 123 -86Q90 -87 72 -92Q45 -99 28 -116Q0 -144 0 -198ZM50 -198Q50 -165 64 -151Q73 -142 92 -139Q102 -137 123.5 -136.5Q145 -136 156 -134Q157 -148 157 -163Q157 -177 156 -192Q150 -267 133 -321Q121 -362 106 -376Q102 -380 100 -380Q97 -380 92 -375Q78 -360 66 -322Q50 -268 50 -198Z"/>
	<path fill="#800080" d="M50 -198Q50 -276 68 -336Q83 -387 107 -411Q127 -430 150 -430Q173 -430 191 -411Q215 -388 231 -336Q249 -277 256 -196Q257 -180 257 -163Q257 -114 243 -62.5Q229 -11 215 17.5Q201 46 174 96Q135 170 120 209Q114 225 97 225Q87 225 79.5 217.5Q72 210 72 200Q72 196 74 191Q89 149 130 73Q184 -28 198 -84Q191 -85 173 -86Q140 -87 122 -92Q95 -99 78 -116Q50 -144 50 -198ZM100 -198Q100 -165 114 -151Q123 -142 142 -139Q152 -137 173.5 -136.5Q195 -136 206 -134Q207 -148 207 -163Q207 -177 206 -192Q200 -267 183 -321Q171 -362 156 -376Q152 -380 150 -380Q147 -380 142 -375Q128 -360 116 -322Q100 -268 100 -198Z"/>
	<path fill="#daa520" d="M211 -108Q211 -103 206 -103Q205 -103 205 -103Q197 -105 174 -106Q132 -108 113 -116Q70 -135 70 -198Q70 -318 108 -379Q127 -410 150 -410Q180 -410 202 -357Q228 -296 236 -195Q237 -179 237 -163Q237 -116 223.5 -67.5Q210 -19 197 9Q184 37 157 87Q117 161 102 202Q100 205 97 205Q92 205 92 200Q92 199 92 198Q107 157 148 82Q175 33 188 5Q201 -23 214 -70Q227 -117 227 -163Q227 -178 226 -194Q218 -293 193 -353Q173 -400 150 -400Q126 -400 106 -354Q80 -293 80 -198Q80 -141 117 -125Q135 -117 175 -116Q198 -115 207 -113Q211 -112 211 -108Z"/>
</svg>