<svg xmlns="http://www.w3.org/2000/svg" viewBox="0 -1024 1024 1024">
	<path fill="#000088" d="M25 -198Q25 -264 39 -317.5Q53 -371 75 -393L110 -428Q123 -441 135 -441Q147 -441 159 -429L194 -394Q240 -348 252 -194Q253 -183 253 -163Q253 -116 239.5 -68Q226 -20 213 7Q200 34 173 84Q134 156 118 200L109 223Q101 245 78 245Q65 245 55 235Q45 225 45 211Q45 208 47 200Q61 163 109 73Q157 -17 171 -75Q167 -75 155 -75.5Q143 -76 138 -76.5Q133 -77 123 -78.5Q113 -80 107 -82Q101 -84 94 -88Q87 -92 81 -98L46 -133Q25 -154 25 -198ZM182 -163Q182 -183 181 -194Q171 -312 141 -369Q140 -369 138 -369.5Q136 -370 135 -370Q131 -370 129 -369Q96 -308 96 -198Q96 -174 103 -155Q120 -148 160 -146Q175 -146 182 -145Z"/>
	<path fill="#800080" d="M50 -198Q50 -276 68 -336Q83 -387 107 -411Q127 -430 150 -430Q173 -430 191 -411Q215 -388 231 -336Q249 -277 256 -196Q257 -180 257 -163Q257 -114 243 -62.5Q229 -11 215 17.5Q201 46 174 96Q135 170 120 209Q114 225 97 225Q87 225 79.5 217.5Q72 210 72 200Q72 196 74 191Q89 149 130 73Q184 -28 198 -84Q191 -85 173 -86Q140 -87 122 -92Q95 -99 78 -116Q50 -144 50 -198ZM100 -198Q100 -165 114 -151Q123 -142 142 -139Q152 -137 173.5 -136.5Q195 -136 206 -134Q207 -148 207 -163Q207 -177 206 -192Q200 -267 183 -321Q171 -362 156 -376Q152 -380 150 -380Q147 -380 142 -375Q128 -360 116 -322Q100 -268 100 -198Z"/>
	<path fill="#daa520" d="M211 -108Q211 -103 206 -103Q205 -103 205 -103Q197 -105 174 -106Q132 -108 113 -116Q70 -135 70 -198Q70 -318 108 -379Q127 -410 150 -410Q180 -410 202 -357Q228 -296 236 -195Q237 -179 237 -163Q237 -116 223.5 -67.5Q210 -19 197 9Q184 37 157 87Q117 161 102 202Q100 205 97 205Q92 205 92 200Q92 199 92 198Q107 157 148 82Q175 33 188 5Q201 -23 214 -70Q227 -117 227 -163Q227 -178 226 -194Q218 -293 193 -353Q173 -400 150 -400Q126 -400 106 -354Q80 -293 80 -198Q80 -141 117 -125Q135 -117 175 -116Q198 -115 207 -113Q211 -112 211 -108Z"/>
</svg>