<svg xmlns="http://www.w3.org/2000/svg" viewBox="0 -1024 1024 1024">
	<path fill="#000088" d="M25 -230Q15 -230 7.5 -237.5Q0 -245 0 -255Q0 -265 7 -273Q14 -280 24 -280L435 -289Q436 -289 436 -289Q446 -289 453.5 -281.5Q461 -274 461 -264Q461 -254 454 -246Q447 -239 437 -239L26 -230Q25 -230 25 -230ZM25 -430Q15 -430 7.5 -437.5Q0 -445 0 -455Q0 -465 7 -473Q14 -480 24 -480L435 -489Q436 -489 436 -489Q446 -489 453.5 -481.5Q461 -474 461 -464Q461 -454 454 -446Q447 -439 437 -439L26 -430Q25 -430 25 -430ZM349 -567Q359 -567 366.5 -559.5Q374 -552 374 -542Q374 -540 374 -538L320 -187Q318 -178 311 -172Q304 -166 295 -166Q285 -166 277.5 -173.5Q270 -181 270 -191Q270 -193 270 -195L324 -546Q326 -555 333 -561Q340 -567 349 -567ZM148 -567Q158 -567 165.5 -559.5Q173 -552 173 -542Q173 -540 173 -538L119 -187Q117 -178 110 -172Q103 -166 94 -166Q84 -166 76.5 -173.5Q69 -181 69 -191Q69 -193 69 -195L123 -546Q125 -555 132 -561Q139 -567 148 -567Z"/>
	<path fill="#800080" d="M75 -230Q65 -230 57.5 -237.5Q50 -245 50 -255Q50 -265 57 -273Q64 -280 74 -280L485 -289Q486 -289 486 -289Q496 -289 503.5 -281.5Q511 -274 511 -264Q511 -254 504 -246Q497 -239 487 -239L76 -230Q75 -230 75 -230ZM75 -430Q65 -430 57.5 -437.5Q50 -445 50 -455Q50 -465 57 -473Q64 -480 74 -480L485 -489Q486 -489 486 -489Q496 -489 503.5 -481.5Q511 -474 511 -464Q511 -454 504 -446Q497 -439 487 -439L76 -430Q75 -430 75 -430ZM399 -567Q409 -567 416.5 -559.5Q424 -552 424 -542Q424 -540 424 -538L370 -187Q368 -178 361 -172Q354 -166 345 -166Q335 -166 327.5 -173.5Q320 -181 320 -191Q320 -193 320 -195L374 -546Q376 -555 383 -561Q390 -567 399 -567ZM198 -567Q208 -567 215.5 -559.5Q223 -552 223 -542Q223 -540 223 -538L169 -187Q167 -178 160 -172Q153 -166 144 -166Q134 -166 126.5 -173.5Q119 -181 119 -191Q119 -193 119 -195L173 -546Q175 -555 182 -561Q189 -567 198 -567Z"/>
	<path fill="#daa520" d="M55 -250Q50 -250 50 -255Q50 -260 55 -260L466 -269Q471 -269 471 -264Q471 -259 466 -259ZM55 -450Q50 -450 50 -455Q50 -460 55 -460L466 -469Q471 -469 471 -464Q471 -459 466 -459ZM379 -547Q384 -547 384 -542Q384 -542 384 -541L330 -190Q329 -186 325 -186Q320 -186 320 -191Q320 -191 320 -192L374 -543Q375 -547 379 -547ZM178 -547Q183 -547 183 -542Q183 -542 183 -541L129 -190Q128 -186 124 -186Q119 -186 119 -191Q119 -191 119 -192L173 -543Q174 -547 178 -547Z"/>
</svg>