<svg xmlns="http://www.w3.org/2000/svg" viewBox="0 -1024 1024 1024">
	<path fill="#000088" d="M27 -220L25 -290L438 -299L439 -229ZM27 -420L25 -490L438 -499L439 -429ZM317 -553L386 -542L330 -180L261 -191ZM116 -553L185 -542L129 -180L60 -191Z"/>
	<path fill="#800080" d="M75 -230Q65 -230 57.5 -237.5Q50 -245 50 -255Q50 -265 57 -273Q64 -280 74 -280L485 -289Q486 -289 486 -289Q496 -289 503.5 -281.5Q511 -274 511 -264Q511 -254 504 -246Q497 -239 487 -239L76 -230Q75 -230 75 -230ZM75 -430Q65 -430 57.5 -437.5Q50 -445 50 -455Q50 -465 57 -473Q64 -480 74 -480L485 -489Q486 -489 486 -489Q496 -489 503.5 -481.5Q511 -474 511 -464Q511 -454 504 -446Q497 -439 487 -439L76 -430Q75 -430 75 -430ZM399 -567Q409 -567 416.5 -559.5Q424 -552 424 -542Q424 -540 424 -538L370 -187Q368 -178 361 -172Q354 -166 345 -166Q335 -166 327.5 -173.5Q320 -181 320 -191Q320 -193 320 -195L374 -546Q376 -555 383 -561Q390 -567 399 -567ZM198 -567Q208 -567 215.5 -559.5Q223 -552 223 -542Q223 -540 223 -538L169 -187Q167 -178 160 -172Q153 -166 144 -166Q134 -166 126.5 -173.5Q119 -181 119 -191Q119 -193 119 -195L173 -546Q175 -555 182 -561Q189 -567 198 -567Z"/>
	<path fill="#daa520" d="M75 -250Q70 -250 70 -255Q70 -260 75 -260L486 -269Q491 -269 491 -264Q491 -259 486 -259ZM75 -450Q70 -450 70 -455Q70 -460 75 -460L486 -469Q491 -469 491 -464Q491 -459 486 -459ZM399 -547Q404 -547 404 -542Q404 -542 404 -541L350 -190Q349 -186 345 -186Q340 -186 340 -191Q340 -191 340 -192L394 -543Q395 -547 399 -547ZM198 -547Q203 -547 203 -542Q203 -542 203 -541L149 -190Q148 -186 144 -186Q139 -186 139 -191Q139 -191 139 -192L193 -543Q194 -547 198 -547Z"/>
</svg>