<svg xmlns="http://www.w3.org/2000/svg" viewBox="0 -1024 1024 1024">
	<path fill="#000088" d="M273 -27Q285 -27 300 -41Q317 -59 334 -93Q354 -133 371 -190Q387 -243 397.5 -298.5Q408 -354 408 -375Q401 -478 353 -588Q352 -501 298 -447Q290 -439 281 -432Q274 -427 265 -427Q255 -427 247.5 -434.5Q240 -442 240 -452Q240 -464 250 -472Q303 -512 303 -592Q303 -628 291 -660.5Q279 -693 258 -714Q228 -744 189 -744Q178 -744 166 -741Q134 -735 111 -712Q88 -689 75 -653Q62 -617 62 -578V-532Q62 -532 62 -531Q61 -502 55.5 -417.5Q50 -333 50 -289Q50 -262 52 -238Q60 -123 119 -64Q133 -50 149 -39H153Q173 -39 213.5 -33Q254 -27 273 -27ZM12 -532V-578Q12 -684 75 -747Q110 -782 157 -791Q173 -794 188 -794Q249 -794 293 -750Q303 -740 311 -729Q315 -731 319 -731Q334 -731 341 -719Q447 -544 458 -378Q458 -377 458 -376Q458 -348 447.5 -291.5Q437 -235 419 -176Q401 -114 379 -71Q358 -29 335 -6Q306 23 273 23Q250 23 206 16Q169 11 153 11H141Q134 11 128 7Q104 -9 84 -28Q12 -101 2 -235Q0 -260 0 -290Q0 -335 5.5 -419Q11 -503 12 -532Z"/>
	<path fill="#800080" d="M323 -27Q335 -27 350 -41Q367 -59 384 -93Q404 -133 421 -190Q437 -243 447.5 -298.5Q458 -354 458 -375Q451 -478 403 -588Q402 -501 348 -447Q340 -439 331 -432Q324 -427 315 -427Q305 -427 297.5 -434.5Q290 -442 290 -452Q290 -464 300 -472Q353 -512 353 -592Q353 -628 341 -660.5Q329 -693 308 -714Q278 -744 239 -744Q228 -744 216 -741Q184 -735 161 -712Q138 -689 125 -653Q112 -617 112 -578V-532Q112 -532 112 -531Q111 -502 105.5 -417.5Q100 -333 100 -289Q100 -262 102 -238Q110 -123 169 -64Q183 -50 199 -39H203Q223 -39 263.5 -33Q304 -27 323 -27ZM62 -532V-578Q62 -684 125 -747Q160 -782 207 -791Q223 -794 238 -794Q299 -794 343 -750Q353 -740 361 -729Q365 -731 369 -731Q384 -731 391 -719Q497 -544 508 -378Q508 -377 508 -376Q508 -348 497.5 -291.5Q487 -235 469 -176Q451 -114 429 -71Q408 -29 385 -6Q356 23 323 23Q300 23 256 16Q219 11 203 11H191Q184 11 178 7Q154 -9 134 -28Q62 -101 52 -235Q50 -260 50 -290Q50 -335 55.5 -419Q61 -503 62 -532Z"/>
	<path fill="#daa520" d="M323 3Q303 3 262.5 -3Q222 -9 203 -9H191Q190 -9 189 -10Q121 -54 95.5 -123.5Q70 -193 70 -289Q70 -334 75.5 -418.5Q81 -503 82 -532V-578Q82 -647 115.5 -703Q149 -759 211 -771Q225 -774 239 -774Q304 -774 343.5 -719Q383 -664 383 -592Q383 -549 367 -510.5Q351 -472 318 -448Q317 -447 315 -447Q310 -447 310 -452Q310 -454 312 -456Q373 -502 373 -592Q373 -661 336 -712.5Q299 -764 239 -764Q226 -764 212 -761Q156 -750 124 -697Q92 -644 92 -578V-532Q91 -502 85.5 -418Q80 -334 80 -289Q80 -195 104.5 -128Q129 -61 193 -19H203Q223 -19 263.5 -13Q304 -7 323 -7Q377 -7 425 -139Q448 -202 463 -274Q478 -346 478 -376Q468 -535 365 -703Q364 -705 364 -706Q364 -711 369 -711Q372 -711 374 -709Q477 -538 488 -376Q488 -345 473 -272.5Q458 -200 435 -136Q384 3 323 3Z"/>
</svg>