<svg xmlns="http://www.w3.org/2000/svg" viewBox="0 -1024 1024 1024">
	<path fill="#000088" d="M25 25Q15 25 7.5 17.5Q0 10 0 0Q0 -10 7.5 -17.5Q15 -25 25 -25H80V-351L60 -331Q52 -324 42 -324Q32 -324 24.5 -331.5Q17 -339 17 -349Q17 -359 24 -367L87 -429Q95 -436 105 -436Q115 -436 122.5 -428.5Q130 -421 130 -411V-25H184Q194 -25 201.5 -17.5Q209 -10 209 0Q209 10 201.5 17.5Q194 25 184 25H105Z"/>
	<path fill="#800080" d="M75 25Q65 25 57.5 17.5Q50 10 50 0Q50 -10 57.5 -17.5Q65 -25 75 -25H130V-351L110 -331Q102 -324 92 -324Q82 -324 74.5 -331.5Q67 -339 67 -349Q67 -359 74 -367L137 -429Q145 -436 155 -436Q165 -436 172.5 -428.5Q180 -421 180 -411V-25H234Q244 -25 251.5 -17.5Q259 -10 259 0Q259 10 251.5 17.5Q244 25 234 25H155Z"/>
	<path fill="#daa520" d="M72 -344Q74 -344 76 -345L130 -399V0Q130 5 135 5Q140 5 140 0V-411Q140 -416 135 -416Q133 -416 131 -415L68 -353Q67 -351 67 -349Q67 -344 72 -344ZM55 5Q50 5 50 0Q50 -5 55 -5H214Q219 -5 219 0Q219 5 214 5Z"/>
</svg>