<svg xmlns="http://www.w3.org/2000/svg" viewBox="0 -1024 1024 1024">
	<path fill="#000088" d="M60 35Q45 35 35 25Q25 15 25 0Q25 -15 35 -25Q45 -35 60 -35H105V-341L77 -314Q67 -306 60 -306Q50 -306 42 -314Q34 -322 34 -332Q34 -342 42 -350L140 -446L176 -411V-35H219Q234 -35 244.5 -25Q255 -15 255 0Q255 15 244.5 25Q234 35 219 35H140Z"/>
	<path fill="#800080" d="M75 25Q65 25 57.5 17.5Q50 10 50 0Q50 -10 57.5 -17.5Q65 -25 75 -25H130V-351L110 -331Q102 -324 92 -324Q82 -324 74.5 -331.5Q67 -339 67 -349Q67 -359 74 -367L137 -429Q145 -436 155 -436Q165 -436 172.5 -428.5Q180 -421 180 -411V-25H234Q244 -25 251.5 -17.5Q259 -10 259 0Q259 10 251.5 17.5Q244 25 234 25H155Z"/>
	<path fill="#daa520" d="M92 -344Q94 -344 96 -345L150 -399V0Q150 5 155 5Q160 5 160 0V-411Q160 -416 155 -416Q153 -416 151 -415L88 -353Q87 -351 87 -349Q87 -344 92 -344ZM75 5Q70 5 70 0Q70 -5 75 -5H234Q239 -5 239 0Q239 5 234 5Z"/>
</svg>