<svg xmlns="http://www.w3.org/2000/svg" viewBox="0 -1024 1024 1024">
	<path fill="#000088" d="M25 25Q15 25 7.5 17.5Q0 10 0 0Q0 -10 7.5 -17.5Q15 -25 25 -25H80V-351L60 -331Q52 -324 42 -324Q32 -324 24.5 -331.5Q17 -339 17 -349Q17 -359 24 -367L87 -429Q95 -436 105 -436Q115 -436 122.5 -428.5Q130 -421 130 -411V-25H184Q194 -25 201.5 -17.5Q209 -10 209 0Q209 10 201.5 17.5Q194 25 184 25H105Z"/>
	<path fill="#800080" d="M75 25Q65 25 57.5 17.5Q50 10 50 0Q50 -10 57.5 -17.5Q65 -25 75 -25H130V-351L110 -331Q102 -324 92 -324Q82 -324 74.5 -331.5Q67 -339 67 -349Q67 -359 74 -367L137 -429Q145 -436 155 -436Q165 -436 172.5 -428.5Q180 -421 180 -411V-25H234Q244 -25 251.5 -17.5Q259 -10 259 0Q259 10 251.5 17.5Q244 25 234 25H155Z"/>
	<path fill="#daa520" d="M92 -344Q94 -344 96 -345L150 -399V0Q150 5 155 5Q160 5 160 0V-411Q160 -416 155 -416Q153 -416 151 -415L88 -353Q87 -351 87 -349Q87 -344 92 -344ZM75 5Q70 5 70 0Q70 -5 75 -5H234Q239 -5 239 0Q239 5 234 5Z"/>
</svg>