<svg xmlns="http://www.w3.org/2000/svg" viewBox="0 -1024 1024 1024">
	<path fill="#000088" d="M327 -447Q370 -447 417 -468Q464 -489 498 -529Q532 -569 532 -614Q532 -710 477 -765Q411 -831 283 -831Q201 -831 165 -823Q131 -816 113 -798Q87 -772 84 -709Q84 -700 84 -691Q84 -618 110 -558Q112 -553 112 -548Q112 -538 104.5 -530.5Q97 -523 87 -523Q71 -523 64 -538Q34 -608 34 -691Q34 -789 78 -833Q108 -864 155 -872.5Q202 -881 283 -881Q431 -881 512 -800Q582 -730 582 -614Q582 -541 522 -481Q483 -442 430.5 -419.5Q378 -397 327 -397Q280 -397 246 -431Q220 -457 207 -494.5Q194 -532 194 -570Q194 -571 194 -572.5Q194 -574 194 -575Q194 -584 195 -590Q198 -604 206 -613Q216 -623 231 -623Q241 -623 248.5 -615.5Q256 -608 256 -598Q256 -584 244 -577Q244 -575 244 -573Q244 -572 244 -571Q244 -570 244 -570Q244 -542 254 -513Q264 -484 281 -467Q301 -447 327 -447ZM160 -173Q160 -175 160 -179Q160 -183 160 -185Q160 -216 158.5 -251Q157 -286 155 -328.5Q153 -371 152 -394Q152 -394 152 -395L150 -671Q150 -681 157.5 -688.5Q165 -696 175 -696Q185 -696 192.5 -688.5Q200 -681 200 -671L202 -396Q203 -373 205 -330Q207 -287 208.5 -252Q210 -217 210 -185Q210 -183 210 -178Q210 -173 210 -171Q210 -117 204 -80Q193 -23 166 4Q143 28 109 28Q78 28 56 6Q46 -5 32 -28Q21 -45 15 -51.5Q9 -58 8 -66L0 -140Q0 -142 0 -143Q0 -153 7.5 -160.5Q15 -168 25 -168Q34 -168 41.5 -161.5Q49 -155 50 -146L57 -80Q63 -73 74 -54.5Q85 -36 92 -30Q99 -22 109 -22Q122 -22 131 -31Q147 -47 154 -89Q160 -121 160 -173Z"/>
	<path fill="#800080" d="M377 -447Q420 -447 467 -468Q514 -489 548 -529Q582 -569 582 -614Q582 -710 527 -765Q461 -831 333 -831Q251 -831 215 -823Q181 -816 163 -798Q137 -772 134 -709Q134 -700 134 -691Q134 -618 160 -558Q162 -553 162 -548Q162 -538 154.5 -530.5Q147 -523 137 -523Q121 -523 114 -538Q84 -608 84 -691Q84 -789 128 -833Q158 -864 205 -872.5Q252 -881 333 -881Q481 -881 562 -800Q632 -730 632 -614Q632 -541 572 -481Q533 -442 480.5 -419.5Q428 -397 377 -397Q330 -397 296 -431Q270 -457 257 -494.5Q244 -532 244 -570Q244 -571 244 -572.5Q244 -574 244 -575Q244 -584 245 -590Q248 -604 256 -613Q266 -623 281 -623Q291 -623 298.5 -615.5Q306 -608 306 -598Q306 -584 294 -577Q294 -575 294 -573Q294 -572 294 -571Q294 -570 294 -570Q294 -542 304 -513Q314 -484 331 -467Q351 -447 377 -447ZM210 -173Q210 -175 210 -179Q210 -183 210 -185Q210 -216 208.5 -251Q207 -286 205 -328.5Q203 -371 202 -394Q202 -394 202 -395L200 -671Q200 -681 207.5 -688.5Q215 -696 225 -696Q235 -696 242.5 -688.5Q250 -681 250 -671L252 -396Q253 -373 255 -330Q257 -287 258.5 -252Q260 -217 260 -185Q260 -183 260 -178Q260 -173 260 -171Q260 -117 254 -80Q243 -23 216 4Q193 28 159 28Q128 28 106 6Q96 -5 82 -28Q71 -45 65 -51.5Q59 -58 58 -66L50 -140Q50 -142 50 -143Q50 -153 57.5 -160.5Q65 -168 75 -168Q84 -168 91.5 -161.5Q99 -155 100 -146L107 -80Q113 -73 124 -54.5Q135 -36 142 -30Q149 -22 159 -22Q172 -22 181 -31Q197 -47 204 -89Q210 -121 210 -173Z"/>
	<path fill="#daa520" d="M254 -498Q254 -498 254 -496.5Q254 -495 254 -494Q254 -441 281.5 -396Q309 -351 357 -351Q435 -351 508.5 -407Q582 -463 582 -538Q582 -655 508.5 -715Q435 -775 313 -775Q207 -775 166 -760Q132 -746 114.5 -717Q97 -688 94 -634Q94 -624 94 -615Q94 -538 122 -474Q122 -473 122 -472Q122 -467 117 -467Q114 -467 112 -470Q84 -536 84 -615Q84 -625 84 -634Q87 -691 106.5 -723Q126 -755 163 -769Q205 -785 313 -785Q438 -785 515 -722Q592 -659 592 -538Q592 -457 515.5 -399Q439 -341 357 -341Q303 -341 273.5 -389.5Q244 -438 244 -494Q244 -495 244 -496.5Q244 -498 244 -498V-499Q244 -527 261 -527Q266 -527 266 -522Q266 -517 261 -517Q254 -517 254 -498ZM210 -172Q210 -174 210 -178.5Q210 -183 210 -185Q210 -222 206 -292Q202 -362 202 -395L200 -671Q200 -676 205 -676Q210 -676 210 -671L212 -395Q213 -372 215 -329.5Q217 -287 218.5 -252Q220 -217 220 -185Q220 -183 220 -178.5Q220 -174 220 -172Q220 -71 196 -28Q175 8 139 8Q118 8 104.5 -4.5Q91 -17 79 -37.5Q67 -58 60 -65Q58 -67 58 -68L50 -142Q50 -143 50 -143Q50 -148 55 -148Q59 -148 60 -144L68 -71Q75 -64 87 -43Q96 -29 101 -22Q106 -15 116.5 -8.5Q127 -2 139 -2Q210 -2 210 -172Z"/>
</svg>