<svg xmlns="http://www.w3.org/2000/svg" viewBox="0 -1024 1024 1024">
	<path fill="#000088" d="M219 -570Q219 -570 219 -574Q219 -590 224 -595L260 -631Q262 -633 267 -633Q282 -633 292 -623Q302 -613 302 -598Q302 -581 290 -571V-570Q290 -513 318 -469Q338 -457 363 -457Q446 -457 521 -517Q557 -563 557 -614Q557 -704 511 -764Q437 -821 319 -821Q194 -821 151 -796Q133 -764 130 -710Q130 -707 129.5 -700.5Q129 -694 129 -691Q129 -617 158 -548Q161 -542 161 -535Q161 -522 151.5 -512.5Q142 -503 128 -503Q108 -503 99 -522L87 -548Q59 -614 59 -691V-710Q62 -782 96 -816L131 -851Q156 -876 199 -883.5Q242 -891 319 -891Q457 -891 530 -818L565 -783Q628 -720 628 -614Q628 -552 575 -499L540 -463Q505 -428 456.5 -407.5Q408 -387 363 -387Q326 -387 299 -414L264 -449Q219 -494 219 -570ZM185 -172V-185Q185 -223 181 -293.5Q177 -364 177 -395L175 -671Q175 -686 185.5 -696.5Q196 -707 211 -707Q225 -707 235.5 -696.5Q246 -686 246 -672L248 -395Q256 -211 256 -185V-172Q256 -49 220 -13L184 22Q168 38 145 38Q124 38 109 23L74 -12Q66 -20 53.5 -40.5Q41 -61 33 -69L25 -143V-147Q25 -161 35.5 -171.5Q46 -182 60 -182Q74 -182 84 -173Q94 -164 95 -151L104 -69Q112 -61 127 -35Q135 -32 145 -32Q152 -32 164 -36Q185 -78 185 -172Z"/>
	<path fill="#800080" d="M377 -447Q420 -447 467 -468Q514 -489 548 -529Q582 -569 582 -614Q582 -710 527 -765Q461 -831 333 -831Q251 -831 215 -823Q181 -816 163 -798Q137 -772 134 -709Q134 -700 134 -691Q134 -618 160 -558Q162 -553 162 -548Q162 -538 154.5 -530.5Q147 -523 137 -523Q121 -523 114 -538Q84 -608 84 -691Q84 -789 128 -833Q158 -864 205 -872.5Q252 -881 333 -881Q481 -881 562 -800Q632 -730 632 -614Q632 -541 572 -481Q533 -442 480.5 -419.5Q428 -397 377 -397Q330 -397 296 -431Q270 -457 257 -494.5Q244 -532 244 -570Q244 -571 244 -572.5Q244 -574 244 -575Q244 -584 245 -590Q248 -604 256 -613Q266 -623 281 -623Q291 -623 298.5 -615.5Q306 -608 306 -598Q306 -584 294 -577Q294 -575 294 -573Q294 -572 294 -571Q294 -570 294 -570Q294 -542 304 -513Q314 -484 331 -467Q351 -447 377 -447ZM210 -173Q210 -175 210 -179Q210 -183 210 -185Q210 -216 208.5 -251Q207 -286 205 -328.5Q203 -371 202 -394Q202 -394 202 -395L200 -671Q200 -681 207.5 -688.5Q215 -696 225 -696Q235 -696 242.5 -688.5Q250 -681 250 -671L252 -396Q253 -373 255 -330Q257 -287 258.5 -252Q260 -217 260 -185Q260 -183 260 -178Q260 -173 260 -171Q260 -117 254 -80Q243 -23 216 4Q193 28 159 28Q128 28 106 6Q96 -5 82 -28Q71 -45 65 -51.5Q59 -58 58 -66L50 -140Q50 -142 50 -143Q50 -153 57.5 -160.5Q65 -168 75 -168Q84 -168 91.5 -161.5Q99 -155 100 -146L107 -80Q113 -73 124 -54.5Q135 -36 142 -30Q149 -22 159 -22Q172 -22 181 -31Q197 -47 204 -89Q210 -121 210 -173Z"/>
	<path fill="#daa520" d="M274 -498Q274 -498 274 -496.5Q274 -495 274 -494Q274 -441 301.5 -396Q329 -351 377 -351Q455 -351 528.5 -407Q602 -463 602 -538Q602 -655 528.5 -715Q455 -775 333 -775Q227 -775 186 -760Q152 -746 134.5 -717Q117 -688 114 -634Q114 -624 114 -615Q114 -538 142 -474Q142 -473 142 -472Q142 -467 137 -467Q134 -467 132 -470Q104 -536 104 -615Q104 -625 104 -634Q107 -691 126.5 -723Q146 -755 183 -769Q225 -785 333 -785Q458 -785 535 -722Q612 -659 612 -538Q612 -457 535.5 -399Q459 -341 377 -341Q323 -341 293.5 -389.5Q264 -438 264 -494Q264 -495 264 -496.5Q264 -498 264 -498V-499Q264 -527 281 -527Q286 -527 286 -522Q286 -517 281 -517Q274 -517 274 -498ZM230 -172Q230 -174 230 -178.5Q230 -183 230 -185Q230 -222 226 -292Q222 -362 222 -395L220 -671Q220 -676 225 -676Q230 -676 230 -671L232 -395Q233 -372 235 -329.5Q237 -287 238.5 -252Q240 -217 240 -185Q240 -183 240 -178.5Q240 -174 240 -172Q240 -71 216 -28Q195 8 159 8Q138 8 124.5 -4.5Q111 -17 99 -37.5Q87 -58 80 -65Q78 -67 78 -68L70 -142Q70 -143 70 -143Q70 -148 75 -148Q79 -148 80 -144L88 -71Q95 -64 107 -43Q116 -29 121 -22Q126 -15 136.5 -8.5Q147 -2 159 -2Q230 -2 230 -172Z"/>
</svg>