<svg xmlns="http://www.w3.org/2000/svg" viewBox="0 -1024 1024 1024">
	<path fill="#000088" d="M25 74Q15 74 7.5 66.5Q0 59 0 49Q0 33 14 27L16 21Q30 -16 41 -126Q54 -272 54 -467Q54 -689 37 -840Q30 -902 22 -937Q18 -951 14 -961Q0 -968 0 -983Q0 -993 7.5 -1000.5Q15 -1008 25 -1008Q38 -1008 48 -998Q55 -991 61 -979Q66 -967 70 -949Q80 -911 87 -845Q104 -692 104 -467Q104 -242 87 -89Q80 -23 70 15Q66 33 61 45Q55 57 48 64Q38 74 25 74Z"/>
	<path fill="#800080" d="M75 74Q65 74 57.5 66.5Q50 59 50 49Q50 33 64 27L66 21Q80 -16 91 -126Q104 -272 104 -467Q104 -689 87 -840Q80 -902 72 -937Q68 -951 64 -961Q50 -968 50 -983Q50 -993 57.5 -1000.5Q65 -1008 75 -1008Q88 -1008 98 -998Q105 -991 111 -979Q116 -967 120 -949Q130 -911 137 -845Q154 -692 154 -467Q154 -242 137 -89Q130 -23 120 15Q116 33 111 45Q105 57 98 64Q88 74 75 74Z"/>
	<path fill="#daa520" d="M75 54Q70 54 70 49Q70 44 75 44Q80 44 87 22Q97 -9 105 -73Q124 -227 124 -467Q124 -707 105 -861Q97 -925 87 -956Q80 -978 75 -978Q70 -978 70 -983Q70 -988 75 -988Q87 -988 97 -959Q107 -927 115 -862Q134 -708 134 -467Q134 -226 115 -72Q107 -7 97 25Q87 54 75 54Z"/>
</svg>