<svg xmlns="http://www.w3.org/2000/svg" viewBox="0 -1024 1024 1024">
	<path fill="#000088" d="M50 -467Q50 -272 63 -126Q74 -16 88 21L90 27Q104 33 104 49Q104 59 96.5 66.5Q89 74 79 74Q66 74 56 64Q49 57 43 45Q38 33 34 15Q24 -23 17 -89Q0 -242 0 -467Q0 -692 17 -845Q24 -911 34 -949Q38 -967 43 -979Q49 -991 56 -998Q66 -1008 79 -1008Q89 -1008 96.5 -1000.5Q104 -993 104 -983Q104 -968 90 -961Q86 -951 82 -937Q74 -902 67 -840Q50 -689 50 -467Z"/>
	<path fill="#800080" d="M100 -467Q100 -272 113 -126Q124 -16 138 21L140 27Q154 33 154 49Q154 59 146.5 66.5Q139 74 129 74Q116 74 106 64Q99 57 93 45Q88 33 84 15Q74 -23 67 -89Q50 -242 50 -467Q50 -692 67 -845Q74 -911 84 -949Q88 -967 93 -979Q99 -991 106 -998Q116 -1008 129 -1008Q139 -1008 146.5 -1000.5Q154 -993 154 -983Q154 -968 140 -961Q136 -951 132 -937Q124 -902 117 -840Q100 -689 100 -467Z"/>
	<path fill="#daa520" d="M129 54Q117 54 107 25Q97 -7 89 -72Q70 -226 70 -467Q70 -708 89 -862Q97 -927 107 -959Q117 -988 129 -988Q134 -988 134 -983Q134 -978 129 -978Q124 -978 117 -956Q107 -925 99 -861Q80 -707 80 -467Q80 -227 99 -73Q107 -9 117 22Q124 44 129 44Q134 44 134 49Q134 54 129 54Z"/>
</svg>