<svg xmlns="http://www.w3.org/2000/svg" viewBox="0 -1024 1024 1024">
	<path fill="#000088" d="M131 18Q150 28 150 49Q150 64 139.5 74Q129 84 114 84Q111 84 109 82L73 46Q53 26 39 -121Q25 -268 25 -467Q25 -666 39 -813Q53 -960 73 -980L109 -1016Q111 -1018 114 -1018Q129 -1018 139.5 -1008Q150 -998 150 -983Q150 -962 131 -952Q96 -832 96 -467Q96 -102 131 18Z"/>
	<path fill="#800080" d="M100 -467Q100 -272 113 -126Q124 -16 138 21L140 27Q154 33 154 49Q154 59 146.5 66.5Q139 74 129 74Q116 74 106 64Q99 57 93 45Q88 33 84 15Q74 -23 67 -89Q50 -242 50 -467Q50 -692 67 -845Q74 -911 84 -949Q88 -967 93 -979Q99 -991 106 -998Q116 -1008 129 -1008Q139 -1008 146.5 -1000.5Q154 -993 154 -983Q154 -968 140 -961Q136 -951 132 -937Q124 -902 117 -840Q100 -689 100 -467Z"/>
	<path fill="#daa520" d="M129 54Q117 54 107 25Q97 -7 89 -72Q70 -226 70 -467Q70 -708 89 -862Q97 -927 107 -959Q117 -988 129 -988Q134 -988 134 -983Q134 -978 129 -978Q124 -978 117 -956Q107 -925 99 -861Q80 -707 80 -467Q80 -227 99 -73Q107 -9 117 22Q124 44 129 44Q134 44 134 49Q134 54 129 54Z"/>
</svg>