<svg xmlns="http://www.w3.org/2000/svg" viewBox="0 -1024 1024 1024">
	<path fill="#000088" d="M344 -366L379 -401Q393 -415 411 -415Q429 -415 443 -401L479 -366Q498 -347 498 -317Q498 -287 479 -268L443 -233Q429 -219 411 -219Q393 -219 379 -233L344 -268Q325 -287 325 -317Q325 -347 344 -366ZM400 -291Q408 -289 411 -289Q414 -289 422 -291Q427 -304 427 -317Q427 -330 422 -343Q414 -345 411 -345Q408 -345 400 -343Q396 -332 396 -317Q396 -302 400 -291ZM44 -666L79 -701Q93 -715 111 -715Q129 -715 143 -701L179 -666Q198 -647 198 -617Q198 -587 179 -568L143 -533Q129 -519 111 -519Q93 -519 79 -533L44 -568Q25 -587 25 -617Q25 -647 44 -666ZM100 -591Q108 -589 111 -589Q114 -589 122 -591Q127 -604 127 -617Q127 -630 122 -643Q114 -645 111 -645Q108 -645 100 -643Q96 -632 96 -617Q96 -602 100 -591ZM414 -692Q426 -692 434.5 -684Q443 -676 443 -664Q443 -655 438 -647L84 -149Q75 -136 60 -136Q48 -136 40 -144.5Q32 -153 32 -165Q32 -174 37 -182L391 -680Q400 -692 414 -692Z"/>
	<path fill="#800080" d="M376 -384Q398 -405 426 -405Q454 -405 476 -384Q502 -357 502 -317Q502 -277 476 -250Q454 -229 426 -229Q398 -229 376 -250Q350 -277 350 -317Q350 -357 376 -384ZM412 -286Q418 -279 426 -279Q434 -279 440 -286Q452 -297 452 -317Q452 -337 440 -348Q434 -355 426 -355Q418 -355 412 -348Q400 -337 400 -317Q400 -297 412 -286ZM76 -684Q98 -705 126 -705Q154 -705 176 -684Q202 -657 202 -617Q202 -577 176 -550Q154 -529 126 -529Q98 -529 76 -550Q50 -577 50 -617Q50 -657 76 -684ZM112 -586Q118 -579 126 -579Q134 -579 140 -586Q152 -597 152 -617Q152 -637 140 -648Q134 -655 126 -655Q118 -655 112 -648Q100 -637 100 -617Q100 -597 112 -586ZM417 -672Q427 -672 434.5 -664.5Q442 -657 442 -647Q442 -639 437 -633L107 -168Q100 -157 87 -157Q77 -157 69.5 -164.5Q62 -172 62 -182Q62 -190 67 -196L397 -661Q404 -672 417 -672Z"/>
	<path fill="#daa520" d="M386 -269Q370 -289 370 -317Q370 -345 386 -365Q402 -385 426 -385Q450 -385 466 -365Q482 -345 482 -317Q482 -289 466 -269Q450 -249 426 -249Q402 -249 386 -269ZM393.5 -358Q380 -341 380 -317Q380 -293 393.5 -276Q407 -259 426 -259Q445 -259 458.5 -276Q472 -293 472 -317Q472 -341 458.5 -358Q445 -375 426 -375Q407 -375 393.5 -358ZM86 -569Q70 -589 70 -617Q70 -645 86 -665Q102 -685 126 -685Q150 -685 166 -665Q182 -645 182 -617Q182 -589 166 -569Q150 -549 126 -549Q102 -549 86 -569ZM93.5 -658Q80 -641 80 -617Q80 -593 93.5 -576Q107 -559 126 -559Q145 -559 158.5 -576Q172 -593 172 -617Q172 -641 158.5 -658Q145 -675 126 -675Q107 -675 93.5 -658ZM417 -652Q422 -652 422 -647Q422 -645 421 -644L91 -179Q90 -177 87 -177Q82 -177 82 -182Q82 -184 83 -185L413 -650Q414 -652 417 -652Z"/>
</svg>