<svg xmlns="http://www.w3.org/2000/svg" viewBox="0 -1024 1024 1024">
	<path fill="#000088" d="M131 -554Q131 -564 138.5 -571.5Q146 -579 156 -579Q166 -579 173.5 -571.5Q181 -564 181 -554V-273Q181 -263 173.5 -255.5Q166 -248 156 -248Q146 -248 138.5 -255.5Q131 -263 131 -273ZM25 -386Q15 -386 7.5 -393.5Q0 -401 0 -411Q0 -421 7.5 -428.5Q15 -436 25 -436H304Q314 -436 321.5 -428.5Q329 -421 329 -411Q329 -401 321.5 -393.5Q314 -386 304 -386Z"/>
	<path fill="#800080" d="M181 -554Q181 -564 188.5 -571.5Q196 -579 206 -579Q216 -579 223.5 -571.5Q231 -564 231 -554V-273Q231 -263 223.5 -255.5Q216 -248 206 -248Q196 -248 188.5 -255.5Q181 -263 181 -273ZM75 -386Q65 -386 57.5 -393.5Q50 -401 50 -411Q50 -421 57.5 -428.5Q65 -436 75 -436H354Q364 -436 371.5 -428.5Q379 -421 379 -411Q379 -401 371.5 -393.5Q364 -386 354 -386Z"/>
	<path fill="#daa520" d="M201 -554Q201 -559 206 -559Q211 -559 211 -554V-273Q211 -268 206 -268Q201 -268 201 -273ZM75 -406Q70 -406 70 -411Q70 -416 75 -416H354Q359 -416 359 -411Q359 -406 354 -406Z"/>
</svg>