<svg xmlns="http://www.w3.org/2000/svg" viewBox="0 -1024 1024 1024">
	<path fill="#000088" d="M96 -396Q96 -224 170 -130Q207 -100 259 -93Q259 -93 265 -99Q303 -126 317 -138Q397 -233 397 -397Q397 -414 395 -446Q397 -472 397 -487Q397 -616 343 -689Q306 -715 259 -715Q251 -715 231 -713Q231 -713 215 -713Q173 -713 143 -694Q98 -628 96 -438Q96 -438 96 -396ZM432 6Q432 6 432 8Q432 32 404 64Q386 85 384 88L349 123H277Q262 123 251.5 113Q241 103 241 88Q241 73 251.5 63Q262 53 277 53H343Q361 31 361 8V6Q361 -15 337 -41L334 -38Q317 -21 285 -21Q285 -21 281 -21Q203 -24 152 -75L117 -111Q69 -159 47 -236.5Q25 -314 25 -396Q25 -404 25.5 -417Q26 -430 26 -438Q27 -501 29.5 -539.5Q32 -578 46.5 -632Q61 -686 89 -714L124 -749Q159 -784 215 -784Q218 -784 223 -783.5Q228 -783 231 -783Q233 -783 243.5 -784.5Q254 -786 259 -786Q319 -786 361 -744L397 -709Q433 -673 450.5 -612.5Q468 -552 468 -487Q468 -472 466 -446Q468 -414 468 -397Q468 -216 371 -119L356 -104H374Q377 -98 377 -91Q377 -84 375 -81Q380 -71 395 -56Q410 -41 421 -25.5Q432 -10 432 6Z"/>
	<path fill="#800080" d="M229 -724Q184 -724 157 -696Q126 -665 112 -598Q102 -545 101 -436Q101 -432 100.5 -418.5Q100 -405 100 -397Q100 -300 124 -213Q151 -119 198 -71Q237 -32 289 -28Q288 -32 288 -35Q288 -48 299 -55Q370 -106 401 -224Q422 -302 422 -395Q422 -420 420 -444Q420 -445 420 -446Q420 -447 420 -448Q422 -467 422 -487Q422 -546 408 -596Q392 -658 358 -691Q324 -725 274 -725Q262 -725 249 -723Q247 -723 245 -723Q243 -723 237.5 -723.5Q232 -724 229 -724ZM386 59Q386 52 379 41Q377 39 350 9Q327 22 300 22Q221 22 163 -36Q106 -93 76 -200Q50 -293 50 -396Q50 -408 50 -419Q50 -424 50.5 -448Q51 -472 51.5 -480.5Q52 -489 52.5 -510Q53 -531 54.5 -543.5Q56 -556 58 -574Q60 -592 63 -608Q80 -690 121 -731Q164 -774 230 -774Q237 -774 245 -773Q259 -775 273 -775Q345 -775 394 -726Q436 -684 457 -609Q472 -552 472 -488Q472 -466 470 -446Q472 -420 472 -395Q472 -294 447.5 -205.5Q423 -117 377 -60Q381 -50 381 -39Q381 -35 381 -32Q385 -26 396 -15Q409 -1 415 5.5Q421 12 428.5 28Q436 44 436 59Q436 76 429.5 91.5Q423 107 417.5 114Q412 121 402 133Q389 147 385 154Q378 166 363 166H291Q281 166 273.5 158.5Q266 151 266 141Q266 131 273.5 123.5Q281 116 291 116H350Q355 110 365 99Q386 75 386 61Q386 61 386 60.5Q386 60 386 59Z"/>
	<path fill="#daa520" d="M406 61Q406 61 406 60Q406 59 406 59Q406 46 396.5 32.5Q387 19 372.5 4Q358 -11 353 -18Q335 2 300 2Q297 2 295 2Q244 1 203.5 -27.5Q163 -56 139 -98.5Q115 -141 98.5 -195.5Q82 -250 76 -299.5Q70 -349 70 -396Q70 -405 70.5 -418.5Q71 -432 71 -437Q71 -465 71.5 -479.5Q72 -494 73.5 -524.5Q75 -555 78 -572.5Q81 -590 86.5 -617.5Q92 -645 99.5 -661.5Q107 -678 119.5 -697.5Q132 -717 147 -728Q162 -739 183.5 -746.5Q205 -754 230 -754Q237 -754 245 -753Q260 -755 274 -755Q322 -755 358 -730.5Q394 -706 413.5 -665.5Q433 -625 442.5 -580Q452 -535 452 -487Q452 -466 450 -446Q452 -421 452 -395Q452 -324 440.5 -259Q429 -194 397.5 -130Q366 -66 316 -31Q315 -30 313 -30Q308 -30 308 -35Q308 -38 310 -39Q379 -88 410.5 -186.5Q442 -285 442 -395Q442 -421 440 -446Q440 -446 440 -446Q442 -466 442 -487Q442 -534 433 -578Q424 -622 405 -660.5Q386 -699 352 -722Q318 -745 274 -745Q260 -745 246 -743Q246 -743 245 -743Q243 -743 237.5 -743.5Q232 -744 230 -744Q200 -744 176.5 -732.5Q153 -721 137.5 -705Q122 -689 111 -661Q100 -633 94.5 -610Q89 -587 85.5 -550.5Q82 -514 81.5 -493Q81 -472 81 -436Q81 -432 80.5 -418.5Q80 -405 80 -396Q80 -349 86 -300Q92 -251 108 -198Q124 -145 147.5 -104.5Q171 -64 209.5 -36.5Q248 -9 296 -8Q296 -8 297.5 -8Q299 -8 300 -8Q314 -8 328 -14Q342 -20 348 -29Q346 -34 346 -40Q346 -56 353 -56Q357 -56 358 -53Q361 -46 361 -39Q361 -33 359 -28Q364 -19 379.5 -3.5Q395 12 405.5 27.5Q416 43 416 59Q416 77 408 91.5Q400 106 386.5 120.5Q373 135 368 144Q366 146 363 146H291Q286 146 286 141Q286 136 291 136H361Q366 128 379 113Q406 83 406 61Z"/>
</svg>