<svg xmlns="http://www.w3.org/2000/svg" viewBox="0 -1024 1024 1024">
	<path fill="#000088" d="M179 -724Q134 -724 107 -696Q76 -665 62 -598Q52 -545 51 -436Q51 -432 50.5 -418.5Q50 -405 50 -397Q50 -300 74 -213Q101 -119 148 -71Q187 -32 239 -28Q238 -32 238 -35Q238 -48 249 -55Q320 -106 351 -224Q372 -302 372 -395Q372 -420 370 -444Q370 -445 370 -446Q370 -447 370 -448Q372 -467 372 -487Q372 -546 358 -596Q342 -658 308 -691Q274 -725 224 -725Q212 -725 199 -723Q197 -723 195 -723Q193 -723 187.5 -723.5Q182 -724 179 -724ZM336 59Q336 52 329 41Q327 39 300 9Q277 22 250 22Q171 22 113 -36Q56 -93 26 -200Q0 -293 0 -396Q0 -408 0 -419Q0 -424 0.5 -448Q1 -472 1.5 -480.5Q2 -489 2.5 -510Q3 -531 4.5 -543.5Q6 -556 8 -574Q10 -592 13 -608Q30 -690 71 -731Q114 -774 180 -774Q187 -774 195 -773Q209 -775 223 -775Q295 -775 344 -726Q386 -684 407 -609Q422 -552 422 -488Q422 -466 420 -446Q422 -420 422 -395Q422 -294 397.5 -205.5Q373 -117 327 -60Q331 -50 331 -39Q331 -35 331 -32Q335 -26 346 -15Q359 -1 365 5.5Q371 12 378.5 28Q386 44 386 59Q386 76 379.5 91.5Q373 107 367.5 114Q362 121 352 133Q339 147 335 154Q328 166 313 166H241Q231 166 223.5 158.5Q216 151 216 141Q216 131 223.5 123.5Q231 116 241 116H300Q305 110 315 99Q336 75 336 61Q336 61 336 60.5Q336 60 336 59Z"/>
	<path fill="#800080" d="M229 -724Q184 -724 157 -696Q126 -665 112 -598Q102 -545 101 -436Q101 -432 100.5 -418.5Q100 -405 100 -397Q100 -300 124 -213Q151 -119 198 -71Q237 -32 289 -28Q288 -32 288 -35Q288 -48 299 -55Q370 -106 401 -224Q422 -302 422 -395Q422 -420 420 -444Q420 -445 420 -446Q420 -447 420 -448Q422 -467 422 -487Q422 -546 408 -596Q392 -658 358 -691Q324 -725 274 -725Q262 -725 249 -723Q247 -723 245 -723Q243 -723 237.5 -723.5Q232 -724 229 -724ZM386 59Q386 52 379 41Q377 39 350 9Q327 22 300 22Q221 22 163 -36Q106 -93 76 -200Q50 -293 50 -396Q50 -408 50 -419Q50 -424 50.5 -448Q51 -472 51.5 -480.5Q52 -489 52.5 -510Q53 -531 54.5 -543.5Q56 -556 58 -574Q60 -592 63 -608Q80 -690 121 -731Q164 -774 230 -774Q237 -774 245 -773Q259 -775 273 -775Q345 -775 394 -726Q436 -684 457 -609Q472 -552 472 -488Q472 -466 470 -446Q472 -420 472 -395Q472 -294 447.5 -205.5Q423 -117 377 -60Q381 -50 381 -39Q381 -35 381 -32Q385 -26 396 -15Q409 -1 415 5.5Q421 12 428.5 28Q436 44 436 59Q436 76 429.5 91.5Q423 107 417.5 114Q412 121 402 133Q389 147 385 154Q378 166 363 166H291Q281 166 273.5 158.5Q266 151 266 141Q266 131 273.5 123.5Q281 116 291 116H350Q355 110 365 99Q386 75 386 61Q386 61 386 60.5Q386 60 386 59Z"/>
	<path fill="#daa520" d="M406 61Q406 61 406 60Q406 59 406 59Q406 46 396.5 32.5Q387 19 372.5 4Q358 -11 353 -18Q335 2 300 2Q297 2 295 2Q244 1 203.5 -27.5Q163 -56 139 -98.5Q115 -141 98.5 -195.5Q82 -250 76 -299.5Q70 -349 70 -396Q70 -405 70.5 -418.5Q71 -432 71 -437Q71 -465 71.5 -479.5Q72 -494 73.5 -524.5Q75 -555 78 -572.5Q81 -590 86.5 -617.5Q92 -645 99.5 -661.5Q107 -678 119.5 -697.5Q132 -717 147 -728Q162 -739 183.5 -746.5Q205 -754 230 -754Q237 -754 245 -753Q260 -755 274 -755Q322 -755 358 -730.5Q394 -706 413.5 -665.5Q433 -625 442.5 -580Q452 -535 452 -487Q452 -466 450 -446Q452 -421 452 -395Q452 -324 440.5 -259Q429 -194 397.5 -130Q366 -66 316 -31Q315 -30 313 -30Q308 -30 308 -35Q308 -38 310 -39Q379 -88 410.5 -186.5Q442 -285 442 -395Q442 -421 440 -446Q440 -446 440 -446Q442 -466 442 -487Q442 -534 433 -578Q424 -622 405 -660.5Q386 -699 352 -722Q318 -745 274 -745Q260 -745 246 -743Q246 -743 245 -743Q243 -743 237.5 -743.5Q232 -744 230 -744Q200 -744 176.5 -732.5Q153 -721 137.5 -705Q122 -689 111 -661Q100 -633 94.5 -610Q89 -587 85.5 -550.5Q82 -514 81.5 -493Q81 -472 81 -436Q81 -432 80.5 -418.5Q80 -405 80 -396Q80 -349 86 -300Q92 -251 108 -198Q124 -145 147.5 -104.5Q171 -64 209.5 -36.5Q248 -9 296 -8Q296 -8 297.5 -8Q299 -8 300 -8Q314 -8 328 -14Q342 -20 348 -29Q346 -34 346 -40Q346 -56 353 -56Q357 -56 358 -53Q361 -46 361 -39Q361 -33 359 -28Q364 -19 379.5 -3.5Q395 12 405.5 27.5Q416 43 416 59Q416 77 408 91.5Q400 106 386.5 120.5Q373 135 368 144Q366 146 363 146H291Q286 146 286 141Q286 136 291 136H361Q366 128 379 113Q406 83 406 61Z"/>
</svg>