<svg xmlns="http://www.w3.org/2000/svg" viewBox="0 -1024 1024 1024">
	<path fill="#000088" d="M179 -724Q134 -724 107 -696Q76 -665 62 -598Q52 -545 51 -436Q51 -432 50.5 -418.5Q50 -405 50 -397Q50 -300 74 -213Q101 -119 148 -71Q187 -32 239 -28Q238 -32 238 -35Q238 -48 249 -55Q320 -106 351 -224Q372 -302 372 -395Q372 -420 370 -444Q370 -445 370 -446Q370 -447 370 -448Q372 -467 372 -487Q372 -546 358 -596Q342 -658 308 -691Q274 -725 224 -725Q212 -725 199 -723Q197 -723 195 -723Q193 -723 187.5 -723.5Q182 -724 179 -724ZM336 59Q336 52 329 41Q327 39 300 9Q277 22 250 22Q171 22 113 -36Q56 -93 26 -200Q0 -293 0 -396Q0 -408 0 -419Q0 -424 0.5 -448Q1 -472 1.5 -480.5Q2 -489 2.5 -510Q3 -531 4.5 -543.5Q6 -556 8 -574Q10 -592 13 -608Q30 -690 71 -731Q114 -774 180 -774Q187 -774 195 -773Q209 -775 223 -775Q295 -775 344 -726Q386 -684 407 -609Q422 -552 422 -488Q422 -466 420 -446Q422 -420 422 -395Q422 -294 397.5 -205.5Q373 -117 327 -60Q331 -50 331 -39Q331 -35 331 -32Q335 -26 346 -15Q359 -1 365 5.5Q371 12 378.5 28Q386 44 386 59Q386 76 379.5 91.5Q373 107 367.5 114Q362 121 352 133Q339 147 335 154Q328 166 313 166H241Q231 166 223.5 158.5Q216 151 216 141Q216 131 223.5 123.5Q231 116 241 116H300Q305 110 315 99Q336 75 336 61Q336 61 336 60.5Q336 60 336 59Z"/>
	<path fill="#800080" d="M229 -724Q184 -724 157 -696Q126 -665 112 -598Q102 -545 101 -436Q101 -432 100.5 -418.5Q100 -405 100 -397Q100 -300 124 -213Q151 -119 198 -71Q237 -32 289 -28Q288 -32 288 -35Q288 -48 299 -55Q370 -106 401 -224Q422 -302 422 -395Q422 -420 420 -444Q420 -445 420 -446Q420 -447 420 -448Q422 -467 422 -487Q422 -546 408 -596Q392 -658 358 -691Q324 -725 274 -725Q262 -725 249 -723Q247 -723 245 -723Q243 -723 237.5 -723.5Q232 -724 229 -724ZM386 59Q386 52 379 41Q377 39 350 9Q327 22 300 22Q221 22 163 -36Q106 -93 76 -200Q50 -293 50 -396Q50 -408 50 -419Q50 -424 50.5 -448Q51 -472 51.5 -480.5Q52 -489 52.5 -510Q53 -531 54.5 -543.5Q56 -556 58 -574Q60 -592 63 -608Q80 -690 121 -731Q164 -774 230 -774Q237 -774 245 -773Q259 -775 273 -775Q345 -775 394 -726Q436 -684 457 -609Q472 -552 472 -488Q472 -466 470 -446Q472 -420 472 -395Q472 -294 447.5 -205.5Q423 -117 377 -60Q381 -50 381 -39Q381 -35 381 -32Q385 -26 396 -15Q409 -1 415 5.5Q421 12 428.5 28Q436 44 436 59Q436 76 429.5 91.5Q423 107 417.5 114Q412 121 402 133Q389 147 385 154Q378 166 363 166H291Q281 166 273.5 158.5Q266 151 266 141Q266 131 273.5 123.5Q281 116 291 116H350Q355 110 365 99Q386 75 386 61Q386 61 386 60.5Q386 60 386 59Z"/>
	<path fill="#daa520" d="M386 61Q386 61 386 60Q386 59 386 59Q386 46 376.5 32.5Q367 19 352.5 4Q338 -11 333 -18Q315 2 280 2Q277 2 275 2Q224 1 183.5 -27.5Q143 -56 119 -98.5Q95 -141 78.5 -195.5Q62 -250 56 -299.5Q50 -349 50 -396Q50 -405 50.5 -418.5Q51 -432 51 -437Q51 -465 51.5 -479.5Q52 -494 53.5 -524.5Q55 -555 58 -572.5Q61 -590 66.5 -617.5Q72 -645 79.5 -661.5Q87 -678 99.5 -697.5Q112 -717 127 -728Q142 -739 163.5 -746.5Q185 -754 210 -754Q217 -754 225 -753Q240 -755 254 -755Q302 -755 338 -730.5Q374 -706 393.5 -665.5Q413 -625 422.5 -580Q432 -535 432 -487Q432 -466 430 -446Q432 -421 432 -395Q432 -324 420.5 -259Q409 -194 377.5 -130Q346 -66 296 -31Q295 -30 293 -30Q288 -30 288 -35Q288 -38 290 -39Q359 -88 390.5 -186.5Q422 -285 422 -395Q422 -421 420 -446Q420 -446 420 -446Q422 -466 422 -487Q422 -534 413 -578Q404 -622 385 -660.5Q366 -699 332 -722Q298 -745 254 -745Q240 -745 226 -743Q226 -743 225 -743Q223 -743 217.5 -743.5Q212 -744 210 -744Q180 -744 156.5 -732.5Q133 -721 117.5 -705Q102 -689 91 -661Q80 -633 74.5 -610Q69 -587 65.5 -550.5Q62 -514 61.5 -493Q61 -472 61 -436Q61 -432 60.5 -418.5Q60 -405 60 -396Q60 -349 66 -300Q72 -251 88 -198Q104 -145 127.5 -104.5Q151 -64 189.5 -36.5Q228 -9 276 -8Q276 -8 277.5 -8Q279 -8 280 -8Q294 -8 308 -14Q322 -20 328 -29Q326 -34 326 -40Q326 -56 333 -56Q337 -56 338 -53Q341 -46 341 -39Q341 -33 339 -28Q344 -19 359.5 -3.5Q375 12 385.5 27.5Q396 43 396 59Q396 77 388 91.5Q380 106 366.5 120.5Q353 135 348 144Q346 146 343 146H271Q266 146 266 141Q266 136 271 136H341Q346 128 359 113Q386 83 386 61Z"/>
</svg>