<svg xmlns="http://www.w3.org/2000/svg" viewBox="0 -1024 1024 1024">
	<path fill="#000088" d="M124 -375V-212Q124 -202 116.5 -194.5Q109 -187 99 -187Q89 -187 81.5 -194.5Q74 -202 74 -212V-400Q74 -410 81.5 -417.5Q89 -425 99 -425H179Q206 -470 206 -508Q206 -515 205 -522Q201 -554 175 -586Q143 -613 111 -613Q108 -613 104 -613Q78 -610 50 -591V-570Q50 -560 42.5 -552.5Q35 -545 25 -545Q15 -545 7.5 -552.5Q0 -560 0 -570V-604Q0 -616 10 -624Q55 -658 99 -662Q105 -663 111 -663Q162 -663 209 -623Q211 -622 212 -620Q248 -576 255 -528Q256 -518 256 -508Q256 -450 214 -386Q206 -375 193 -375ZM78 -152Q78 -162 85.5 -169.5Q93 -177 103 -177Q113 -177 120.5 -169.5Q128 -162 128 -152V-108Q128 -98 120.5 -90.5Q113 -83 103 -83Q93 -83 85.5 -90.5Q78 -98 78 -108Z"/>
	<path fill="#800080" d="M174 -375V-212Q174 -202 166.5 -194.5Q159 -187 149 -187Q139 -187 131.5 -194.5Q124 -202 124 -212V-400Q124 -410 131.5 -417.5Q139 -425 149 -425H229Q256 -470 256 -508Q256 -515 255 -522Q251 -554 225 -586Q193 -613 161 -613Q158 -613 154 -613Q128 -610 100 -591V-570Q100 -560 92.5 -552.5Q85 -545 75 -545Q65 -545 57.5 -552.5Q50 -560 50 -570V-604Q50 -616 60 -624Q105 -658 149 -662Q155 -663 161 -663Q212 -663 259 -623Q261 -622 262 -620Q298 -576 305 -528Q306 -518 306 -508Q306 -450 264 -386Q256 -375 243 -375ZM128 -152Q128 -162 135.5 -169.5Q143 -177 153 -177Q163 -177 170.5 -169.5Q178 -162 178 -152V-108Q178 -98 170.5 -90.5Q163 -83 153 -83Q143 -83 135.5 -90.5Q128 -98 128 -108Z"/>
	<path fill="#daa520" d="M134 -395V-212Q134 -207 129 -207Q124 -207 124 -212V-400Q124 -405 129 -405H220Q256 -460 256 -507.5Q256 -555 219 -600Q181 -633 141 -633Q102 -633 60 -602V-570Q60 -565 55 -565Q50 -565 50 -570V-604Q50 -606 52 -608Q97 -643 141 -643Q185 -643 226 -608Q227 -608 227 -607Q266 -559 266 -507.5Q266 -456 227 -397Q226 -395 223 -395ZM128 -152Q128 -157 133 -157Q138 -157 138 -152V-108Q138 -103 133 -103Q128 -103 128 -108Z"/>
</svg>