<svg xmlns="http://www.w3.org/2000/svg" viewBox="0 -1024 1024 1024">
	<path fill="#000088" d="M170 -764Q185 -764 195.5 -754Q206 -744 206 -729V-728L203 -615Q202 -601 191.5 -591Q181 -581 167 -581Q152 -581 142 -591Q132 -601 132 -616V-617L135 -730Q136 -744 146 -754Q156 -764 170 -764ZM63 -764Q78 -764 88.5 -754Q99 -744 99 -729V-728L96 -615Q95 -601 84.5 -591Q74 -581 60 -581Q45 -581 35 -591Q25 -601 25 -616V-617L28 -730Q29 -744 39 -754Q49 -764 63 -764Z"/>
	<path fill="#800080" d="M50 -737Q50 -747 57.5 -754.5Q65 -762 75 -762Q85 -762 93 -755Q100 -748 100 -738L103 -672Q103 -672 103 -671Q103 -661 95.5 -653.5Q88 -646 78 -646Q68 -646 60 -653Q53 -660 53 -670L50 -736Q50 -736 50 -737ZM140 -740Q140 -750 147.5 -757.5Q155 -765 165 -765Q175 -765 183 -758Q190 -751 190 -741L193 -675Q193 -675 193 -674Q193 -664 185.5 -656.5Q178 -649 168 -649Q158 -649 150 -656Q143 -663 143 -673L140 -739Q140 -739 140 -740Z"/>
	<path fill="#daa520" d="M70 -737Q70 -742 75 -742Q80 -742 80 -737L83 -671Q83 -666 78 -666Q73 -666 73 -671ZM160 -740Q160 -745 165 -745Q170 -745 170 -740L173 -674Q173 -669 168 -669Q163 -669 163 -674Z"/>
</svg>