<svg xmlns="http://www.w3.org/2000/svg" viewBox="0 -1024 1024 1024">
	<path fill="#000088" d="M53 -728Q53 -728 53 -727L50 -616Q50 -606 43 -599Q35 -592 25 -592Q15 -592 7.5 -599.5Q0 -607 0 -617Q0 -617 0 -618L3 -729Q3 -739 10 -746Q18 -753 28 -753Q38 -753 45.5 -745.5Q53 -738 53 -728Z"/>
	<path fill="#800080" d="M103 -728Q103 -728 103 -727L100 -616Q100 -606 93 -599Q85 -592 75 -592Q65 -592 57.5 -599.5Q50 -607 50 -617Q50 -617 50 -618L53 -729Q53 -739 60 -746Q68 -753 78 -753Q88 -753 95.5 -745.5Q103 -738 103 -728Z"/>
	<path fill="#daa520" d="M78 -733Q83 -733 83 -728L80 -617Q80 -612 75 -612Q70 -612 70 -617L73 -728Q73 -733 78 -733Z"/>
</svg>