<svg xmlns="http://www.w3.org/2000/svg" viewBox="0 -1024 1024 1024">
	<path fill="#000088" d="M0 -737Q0 -747 7.5 -754.5Q15 -762 25 -762Q35 -762 43 -755Q50 -748 50 -738L53 -672Q53 -672 53 -671Q53 -661 45.5 -653.5Q38 -646 28 -646Q18 -646 10 -653Q3 -660 3 -670L0 -736Q0 -736 0 -737ZM90 -740Q90 -750 97.5 -757.5Q105 -765 115 -765Q125 -765 133 -758Q140 -751 140 -741L143 -675Q143 -675 143 -674Q143 -664 135.5 -656.5Q128 -649 118 -649Q108 -649 100 -656Q93 -663 93 -673L90 -739Q90 -739 90 -740Z"/>
	<path fill="#800080" d="M50 -737Q50 -747 57.5 -754.5Q65 -762 75 -762Q85 -762 93 -755Q100 -748 100 -738L103 -672Q103 -672 103 -671Q103 -661 95.5 -653.5Q88 -646 78 -646Q68 -646 60 -653Q53 -660 53 -670L50 -736Q50 -736 50 -737ZM140 -740Q140 -750 147.5 -757.5Q155 -765 165 -765Q175 -765 183 -758Q190 -751 190 -741L193 -675Q193 -675 193 -674Q193 -664 185.5 -656.5Q178 -649 168 -649Q158 -649 150 -656Q143 -663 143 -673L140 -739Q140 -739 140 -740Z"/>
	<path fill="#daa520" d="M50 -737Q50 -742 55 -742Q60 -742 60 -737L63 -671Q63 -666 58 -666Q53 -666 53 -671ZM140 -740Q140 -745 145 -745Q150 -745 150 -740L153 -674Q153 -669 148 -669Q143 -669 143 -674Z"/>
</svg>