<svg xmlns="http://www.w3.org/2000/svg" viewBox="0 -1024 1024 1024">
	<path fill="#000088" d="M63 -764Q78 -764 88.5 -754Q99 -744 99 -729V-728L96 -615Q95 -601 84.5 -591Q74 -581 60 -581Q45 -581 35 -591Q25 -601 25 -616V-617L28 -730Q29 -744 39 -754Q49 -764 63 -764Z"/>
	<path fill="#800080" d="M103 -728Q103 -728 103 -727L100 -616Q100 -606 93 -599Q85 -592 75 -592Q65 -592 57.5 -599.5Q50 -607 50 -617Q50 -617 50 -618L53 -729Q53 -739 60 -746Q68 -753 78 -753Q88 -753 95.5 -745.5Q103 -738 103 -728Z"/>
	<path fill="#daa520" d="M78 -733Q83 -733 83 -728L80 -617Q80 -612 75 -612Q70 -612 70 -617L73 -728Q73 -733 78 -733Z"/>
</svg>