<svg xmlns="http://www.w3.org/2000/svg" viewBox="0 -1024 1024 1024">
	<path fill="#000088" d="M130 -678Q130 -579 204 -505Q216 -493 231 -481Q266 -548 283 -600Q300 -652 300 -716Q300 -736 291 -745Q277 -759 237 -759Q184 -759 165 -755Q149 -752 143 -746Q138 -741 135 -730Q130 -713 130 -678ZM253 -151Q263 -151 270 -144Q279 -136 293 -134Q296 -136 299 -139Q305 -145 305 -152Q305 -157 303 -163Q299 -171 291 -179Q269 -202 244 -202Q234 -202 229 -196Q220 -187 220 -162Q220 -127 237 -78Q253 -33 273 -13Q285 -1 297 -1Q344 -1 382 -39Q405 -62 418.5 -93Q432 -124 432 -154Q432 -243 363 -312Q354 -321 343.5 -330.5Q333 -340 319.5 -350.5Q306 -361 297.5 -367.5Q289 -374 271.5 -386.5Q254 -399 248 -404Q209 -325 193 -262Q191 -253 187 -235.5Q183 -218 182 -216Q187 -225 194 -232Q214 -252 244 -252Q289 -252 326 -215Q347 -194 353 -170Q355 -162 355 -153Q355 -124 334 -103Q325 -94 311 -86Q306 -83 299 -83Q278 -83 258 -93Q245 -100 236 -108Q228 -115 228 -126Q228 -136 235.5 -143.5Q243 -151 253 -151ZM80 -678Q80 -754 108 -781Q125 -799 156 -804Q179 -809 237 -809Q298 -809 326 -781Q350 -757 350 -716Q350 -664 337 -612.5Q324 -561 310.5 -530Q297 -499 271 -449Q281 -442 299 -428Q325 -409 337 -400Q349 -391 372 -371.5Q395 -352 407 -338.5Q419 -325 436 -302.5Q453 -280 461 -259Q469 -238 475.5 -211Q482 -184 482 -154Q482 -113 465 -73.5Q448 -34 418 -4Q365 49 297 49Q265 49 238 22Q209 -6 190 -61Q170 -119 170 -162Q170 -166 170 -170Q142 -68 90 -17Q71 2 48 16Q42 31 25 31Q15 31 7.5 23.5Q0 16 0 6V0Q0 -15 14 -22Q37 -34 55 -52Q63 -61 70.5 -70.5Q78 -80 85 -92Q92 -104 96.5 -113.5Q101 -123 107 -139Q113 -155 116 -163.5Q119 -172 124 -191.5Q129 -211 131 -218Q133 -225 138 -246.5Q143 -268 145 -274Q162 -345 208 -435Q149 -483 114.5 -540.5Q80 -598 80 -678Z"/>
	<path fill="#800080" d="M180 -678Q180 -579 254 -505Q266 -493 281 -481Q316 -548 333 -600Q350 -652 350 -716Q350 -736 341 -745Q327 -759 287 -759Q234 -759 215 -755Q199 -752 193 -746Q188 -741 185 -730Q180 -713 180 -678ZM303 -151Q313 -151 320 -144Q329 -136 343 -134Q346 -136 349 -139Q355 -145 355 -152Q355 -157 353 -163Q349 -171 341 -179Q319 -202 294 -202Q284 -202 279 -196Q270 -187 270 -162Q270 -127 287 -78Q303 -33 323 -13Q335 -1 347 -1Q394 -1 432 -39Q455 -62 468.5 -93Q482 -124 482 -154Q482 -243 413 -312Q404 -321 393.5 -330.5Q383 -340 369.5 -350.5Q356 -361 347.5 -367.5Q339 -374 321.5 -386.5Q304 -399 298 -404Q259 -325 243 -262Q241 -253 237 -235.5Q233 -218 232 -216Q237 -225 244 -232Q264 -252 294 -252Q339 -252 376 -215Q397 -194 403 -170Q405 -162 405 -153Q405 -124 384 -103Q375 -94 361 -86Q356 -83 349 -83Q328 -83 308 -93Q295 -100 286 -108Q278 -115 278 -126Q278 -136 285.5 -143.5Q293 -151 303 -151ZM130 -678Q130 -754 158 -781Q175 -799 206 -804Q229 -809 287 -809Q348 -809 376 -781Q400 -757 400 -716Q400 -664 387 -612.5Q374 -561 360.5 -530Q347 -499 321 -449Q331 -442 349 -428Q375 -409 387 -400Q399 -391 422 -371.5Q445 -352 457 -338.5Q469 -325 486 -302.5Q503 -280 511 -259Q519 -238 525.5 -211Q532 -184 532 -154Q532 -113 515 -73.5Q498 -34 468 -4Q415 49 347 49Q315 49 288 22Q259 -6 240 -61Q220 -119 220 -162Q220 -166 220 -170Q192 -68 140 -17Q121 2 98 16Q92 31 75 31Q65 31 57.5 23.5Q50 16 50 6V0Q50 -15 64 -22Q87 -34 105 -52Q113 -61 120.5 -70.5Q128 -80 135 -92Q142 -104 146.5 -113.5Q151 -123 157 -139Q163 -155 166 -163.5Q169 -172 174 -191.5Q179 -211 181 -218Q183 -225 188 -246.5Q193 -268 195 -274Q212 -345 258 -435Q199 -483 164.5 -540.5Q130 -598 130 -678Z"/>
	<path fill="#daa520" d="M267 -779Q192 -779 171 -769Q154 -760 147 -740Q140 -720 140 -678Q140 -602 173 -550Q206 -498 267 -449Q290 -493 299 -512.5Q308 -532 323 -569.5Q338 -607 344 -642Q350 -677 350 -716Q350 -779 267 -779ZM275 -443Q289 -433 317 -412.5Q345 -392 360.5 -379.5Q376 -367 400 -346.5Q424 -326 437.5 -308Q451 -290 465 -265.5Q479 -241 485.5 -213.5Q492 -186 492 -154Q492 -86 443.5 -28.5Q395 29 327 29Q294 29 267 -11Q245 -42 232.5 -87.5Q220 -133 220 -162Q220 -197 235 -214.5Q250 -232 274 -232Q306 -232 335.5 -207Q365 -182 365 -152.5Q365 -123 331 -104Q330 -103 329 -103Q300 -103 280 -122Q278 -124 278 -126Q278 -131 283 -131Q285 -131 286 -130Q304 -114 328 -113Q355 -129 355 -152Q355 -177 328.5 -199.5Q302 -222 274 -222Q230 -222 230 -162Q230 -141 238.5 -105.5Q247 -70 261 -40Q290 19 327 19Q390 19 436 -35.5Q482 -90 482 -154Q482 -190 471.5 -222.5Q461 -255 448 -277Q435 -299 408 -325Q381 -351 363.5 -365Q346 -379 312 -404Q284 -424 271 -434Q221 -337 204 -267Q202 -258 198 -241Q188 -203 183 -183.5Q178 -164 166 -130Q154 -96 141 -76Q128 -56 107 -33.5Q86 -11 60 3V6Q60 11 55 11Q50 11 50 6V0Q50 -3 53 -4Q68 -13 81.5 -22.5Q95 -32 106.5 -46.5Q118 -61 126.5 -71.5Q135 -82 143.5 -102Q152 -122 156.5 -131.5Q161 -141 168 -166Q175 -191 177 -198.5Q179 -206 186 -235Q193 -264 194 -269Q212 -341 263 -440Q200 -490 165 -544.5Q130 -599 130 -678Q130 -722 138 -745Q146 -768 167 -778Q190 -789 267 -789Q360 -789 360 -716Q360 -676 354 -640Q348 -604 332.5 -565Q317 -526 307.5 -507Q298 -488 275 -443Z"/>
</svg>