<svg xmlns="http://www.w3.org/2000/svg" viewBox="0 -1024 1024 1024">
	<path fill="#000088" d="M130 -678Q130 -579 204 -505Q216 -493 231 -481Q266 -548 283 -600Q300 -652 300 -716Q300 -736 291 -745Q277 -759 237 -759Q184 -759 165 -755Q149 -752 143 -746Q138 -741 135 -730Q130 -713 130 -678ZM253 -151Q263 -151 270 -144Q279 -136 293 -134Q296 -136 299 -139Q305 -145 305 -152Q305 -157 303 -163Q299 -171 291 -179Q269 -202 244 -202Q234 -202 229 -196Q220 -187 220 -162Q220 -127 237 -78Q253 -33 273 -13Q285 -1 297 -1Q344 -1 382 -39Q405 -62 418.5 -93Q432 -124 432 -154Q432 -243 363 -312Q354 -321 343.5 -330.5Q333 -340 319.5 -350.5Q306 -361 297.5 -367.5Q289 -374 271.5 -386.5Q254 -399 248 -404Q209 -325 193 -262Q191 -253 187 -235.5Q183 -218 182 -216Q187 -225 194 -232Q214 -252 244 -252Q289 -252 326 -215Q347 -194 353 -170Q355 -162 355 -153Q355 -124 334 -103Q325 -94 311 -86Q306 -83 299 -83Q278 -83 258 -93Q245 -100 236 -108Q228 -115 228 -126Q228 -136 235.5 -143.5Q243 -151 253 -151ZM80 -678Q80 -754 108 -781Q125 -799 156 -804Q179 -809 237 -809Q298 -809 326 -781Q350 -757 350 -716Q350 -664 337 -612.5Q324 -561 310.5 -530Q297 -499 271 -449Q281 -442 299 -428Q325 -409 337 -400Q349 -391 372 -371.5Q395 -352 407 -338.5Q419 -325 436 -302.5Q453 -280 461 -259Q469 -238 475.5 -211Q482 -184 482 -154Q482 -113 465 -73.5Q448 -34 418 -4Q365 49 297 49Q265 49 238 22Q209 -6 190 -61Q170 -119 170 -162Q170 -166 170 -170Q142 -68 90 -17Q71 2 48 16Q42 31 25 31Q15 31 7.5 23.5Q0 16 0 6V0Q0 -15 14 -22Q37 -34 55 -52Q63 -61 70.5 -70.5Q78 -80 85 -92Q92 -104 96.5 -113.5Q101 -123 107 -139Q113 -155 116 -163.5Q119 -172 124 -191.5Q129 -211 131 -218Q133 -225 138 -246.5Q143 -268 145 -274Q162 -345 208 -435Q149 -483 114.5 -540.5Q80 -598 80 -678Z"/>
	<path fill="#800080" d="M180 -678Q180 -579 254 -505Q266 -493 281 -481Q316 -548 333 -600Q350 -652 350 -716Q350 -736 341 -745Q327 -759 287 -759Q234 -759 215 -755Q199 -752 193 -746Q188 -741 185 -730Q180 -713 180 -678ZM303 -151Q313 -151 320 -144Q329 -136 343 -134Q346 -136 349 -139Q355 -145 355 -152Q355 -157 353 -163Q349 -171 341 -179Q319 -202 294 -202Q284 -202 279 -196Q270 -187 270 -162Q270 -127 287 -78Q303 -33 323 -13Q335 -1 347 -1Q394 -1 432 -39Q455 -62 468.5 -93Q482 -124 482 -154Q482 -243 413 -312Q404 -321 393.5 -330.5Q383 -340 369.5 -350.5Q356 -361 347.5 -367.5Q339 -374 321.5 -386.5Q304 -399 298 -404Q259 -325 243 -262Q241 -253 237 -235.5Q233 -218 232 -216Q237 -225 244 -232Q264 -252 294 -252Q339 -252 376 -215Q397 -194 403 -170Q405 -162 405 -153Q405 -124 384 -103Q375 -94 361 -86Q356 -83 349 -83Q328 -83 308 -93Q295 -100 286 -108Q278 -115 278 -126Q278 -136 285.5 -143.5Q293 -151 303 -151ZM130 -678Q130 -754 158 -781Q175 -799 206 -804Q229 -809 287 -809Q348 -809 376 -781Q400 -757 400 -716Q400 -664 387 -612.5Q374 -561 360.5 -530Q347 -499 321 -449Q331 -442 349 -428Q375 -409 387 -400Q399 -391 422 -371.5Q445 -352 457 -338.5Q469 -325 486 -302.5Q503 -280 511 -259Q519 -238 525.5 -211Q532 -184 532 -154Q532 -113 515 -73.5Q498 -34 468 -4Q415 49 347 49Q315 49 288 22Q259 -6 240 -61Q220 -119 220 -162Q220 -166 220 -170Q192 -68 140 -17Q121 2 98 16Q92 31 75 31Q65 31 57.5 23.5Q50 16 50 6V0Q50 -15 64 -22Q87 -34 105 -52Q113 -61 120.5 -70.5Q128 -80 135 -92Q142 -104 146.5 -113.5Q151 -123 157 -139Q163 -155 166 -163.5Q169 -172 174 -191.5Q179 -211 181 -218Q183 -225 188 -246.5Q193 -268 195 -274Q212 -345 258 -435Q199 -483 164.5 -540.5Q130 -598 130 -678Z"/>
	<path fill="#daa520" d="M287 -779Q212 -779 191 -769Q174 -760 167 -740Q160 -720 160 -678Q160 -602 193 -550Q226 -498 287 -449Q310 -493 319 -512.5Q328 -532 343 -569.5Q358 -607 364 -642Q370 -677 370 -716Q370 -779 287 -779ZM295 -443Q309 -433 337 -412.5Q365 -392 380.5 -379.5Q396 -367 420 -346.5Q444 -326 457.5 -308Q471 -290 485 -265.5Q499 -241 505.5 -213.5Q512 -186 512 -154Q512 -86 463.5 -28.5Q415 29 347 29Q314 29 287 -11Q265 -42 252.5 -87.5Q240 -133 240 -162Q240 -197 255 -214.5Q270 -232 294 -232Q326 -232 355.5 -207Q385 -182 385 -152.5Q385 -123 351 -104Q350 -103 349 -103Q320 -103 300 -122Q298 -124 298 -126Q298 -131 303 -131Q305 -131 306 -130Q324 -114 348 -113Q375 -129 375 -152Q375 -177 348.5 -199.5Q322 -222 294 -222Q250 -222 250 -162Q250 -141 258.5 -105.5Q267 -70 281 -40Q310 19 347 19Q410 19 456 -35.5Q502 -90 502 -154Q502 -190 491.5 -222.5Q481 -255 468 -277Q455 -299 428 -325Q401 -351 383.5 -365Q366 -379 332 -404Q304 -424 291 -434Q241 -337 224 -267Q222 -258 218 -241Q208 -203 203 -183.5Q198 -164 186 -130Q174 -96 161 -76Q148 -56 127 -33.5Q106 -11 80 3V6Q80 11 75 11Q70 11 70 6V0Q70 -3 73 -4Q88 -13 101.5 -22.5Q115 -32 126.5 -46.5Q138 -61 146.5 -71.5Q155 -82 163.5 -102Q172 -122 176.5 -131.5Q181 -141 188 -166Q195 -191 197 -198.5Q199 -206 206 -235Q213 -264 214 -269Q232 -341 283 -440Q220 -490 185 -544.5Q150 -599 150 -678Q150 -722 158 -745Q166 -768 187 -778Q210 -789 287 -789Q380 -789 380 -716Q380 -676 374 -640Q368 -604 352.5 -565Q337 -526 327.5 -507Q318 -488 295 -443Z"/>
</svg>