<svg xmlns="http://www.w3.org/2000/svg" viewBox="0 -1024 1024 1024">
	<path fill="#000088" d="M58 -39Q58 -52 67 -61.5Q76 -71 90 -71Q111 -71 120 -52L132 -26Q141 -6 141 7Q141 28 111 58L76 93L69 99Q60 106 52 106Q41 106 33 98Q25 90 25 79Q25 66 34 59L56 40Q70 22 70 7Q70 1 68 -7Q66 -15 64 -20L61 -26Q58 -32 58 -39ZM106 -388L71 -353L35 -388L71 -423Z"/>
	<path fill="#800080" d="M77 -26Q77 -36 84.5 -43.5Q92 -51 102 -51Q118 -51 125 -36Q136 -11 136 7Q136 25 124 45Q114 60 99 75Q95 80 91 83Q84 89 75 89Q65 89 57.5 81.5Q50 74 50 64Q50 53 59 45Q72 33 81 19Q86 11 86 7Q86 4 83 -4L79 -16Q77 -21 77 -26ZM59 -370.5Q52 -378 52 -388Q52 -398 59 -405.5Q66 -413 76.5 -413Q87 -413 94 -405.5Q101 -398 101 -388Q101 -378 94 -370.5Q87 -363 76.5 -363Q66 -363 59 -370.5Z"/>
	<path fill="#daa520" d="M106 7Q106 1 104 -6.5Q102 -14 99.5 -19.5Q97 -25 97 -26Q97 -31 102 -31Q105 -31 107 -28Q116 -7 116 7Q116 23 100 44Q90 58 78 68Q77 69 75 69Q70 69 70 64Q70 62 72 60Q75 57 81 51Q87 45 96.5 31Q106 17 106 7ZM77 -383Q72 -383 72 -388Q72 -393 77 -393Q82 -393 82 -388Q82 -383 77 -383Z"/>
</svg>