<svg xmlns="http://www.w3.org/2000/svg" viewBox="0 -1024 1024 1024">
	<path fill="#000088" d="M27 -26Q27 -36 34.5 -43.5Q42 -51 52 -51Q68 -51 75 -36Q86 -11 86 7Q86 25 74 45Q64 60 49 75Q45 80 41 83Q34 89 25 89Q15 89 7.5 81.5Q0 74 0 64Q0 53 9 45Q22 33 31 19Q36 11 36 7Q36 4 33 -4L29 -16Q27 -21 27 -26ZM9 -370.5Q2 -378 2 -388Q2 -398 9 -405.5Q16 -413 26.5 -413Q37 -413 44 -405.5Q51 -398 51 -388Q51 -378 44 -370.5Q37 -363 26.5 -363Q16 -363 9 -370.5Z"/>
	<path fill="#800080" d="M77 -26Q77 -36 84.5 -43.5Q92 -51 102 -51Q118 -51 125 -36Q136 -11 136 7Q136 25 124 45Q114 60 99 75Q95 80 91 83Q84 89 75 89Q65 89 57.5 81.5Q50 74 50 64Q50 53 59 45Q72 33 81 19Q86 11 86 7Q86 4 83 -4L79 -16Q77 -21 77 -26ZM59 -370.5Q52 -378 52 -388Q52 -398 59 -405.5Q66 -413 76.5 -413Q87 -413 94 -405.5Q101 -398 101 -388Q101 -378 94 -370.5Q87 -363 76.5 -363Q66 -363 59 -370.5Z"/>
	<path fill="#daa520" d="M106 7Q106 1 104 -6.5Q102 -14 99.5 -19.5Q97 -25 97 -26Q97 -31 102 -31Q105 -31 107 -28Q116 -7 116 7Q116 23 100 44Q90 58 78 68Q77 69 75 69Q70 69 70 64Q70 62 72 60Q75 57 81 51Q87 45 96.5 31Q106 17 106 7ZM77 -383Q72 -383 72 -388Q72 -393 77 -393Q82 -393 82 -388Q82 -383 77 -383Z"/>
</svg>