<svg xmlns="http://www.w3.org/2000/svg" viewBox="0 -1024 1024 1024">
	<path fill="#000088" d="M62 -376Q47 -376 36.5 -386Q26 -396 26 -411Q26 -426 36.5 -436Q47 -446 62 -446H246L281 -411L91 218Q84 242 59 242Q45 242 35 232Q25 222 25 208Q25 201 26 198L200 -376Z"/>
	<path fill="#800080" d="M75 -386Q65 -386 57.5 -393.5Q50 -401 50 -411Q50 -421 57.5 -428.5Q65 -436 75 -436H259Q269 -436 276.5 -428.5Q284 -421 284 -411Q284 -407 283 -404L99 205Q94 223 75 223Q65 223 57.5 215.5Q50 208 50 198Q50 194 51 191L225 -386Z"/>
	<path fill="#daa520" d="M75 -406Q70 -406 70 -411Q70 -416 75 -416H259Q264 -416 264 -411Q264 -410 264 -410L80 199Q79 203 75 203Q70 203 70 198Q70 197 70 197L252 -406Z"/>
</svg>