<svg xmlns="http://www.w3.org/2000/svg" viewBox="0 -1024 1024 1024">
	<path fill="#000088" d="M25 -386Q15 -386 7.5 -393.5Q0 -401 0 -411Q0 -421 7.5 -428.5Q15 -436 25 -436H209Q219 -436 226.5 -428.5Q234 -421 234 -411Q234 -407 233 -404L49 205Q44 223 25 223Q15 223 7.5 215.5Q0 208 0 198Q0 194 1 191L175 -386Z"/>
	<path fill="#800080" d="M75 -386Q65 -386 57.5 -393.5Q50 -401 50 -411Q50 -421 57.5 -428.5Q65 -436 75 -436H259Q269 -436 276.5 -428.5Q284 -421 284 -411Q284 -407 283 -404L99 205Q94 223 75 223Q65 223 57.5 215.5Q50 208 50 198Q50 194 51 191L225 -386Z"/>
	<path fill="#daa520" d="M55 -406Q50 -406 50 -411Q50 -416 55 -416H239Q244 -416 244 -411Q244 -410 244 -410L60 199Q59 203 55 203Q50 203 50 198Q50 197 50 197L232 -406Z"/>
</svg>