<svg xmlns="http://www.w3.org/2000/svg" viewBox="0 -1024 1024 1024">
	<path fill="#000088" d="M125 -366Q131 -366 134 -365Q166 -357 181 -342L216 -307Q246 -277 246 -197Q246 -131 232.5 -77.5Q219 -24 197 -2L161 33Q149 45 136 45Q124 45 113 34L77 -1Q36 -42 26 -197Q26 -201 25.5 -209Q25 -217 25 -221Q25 -282 45.5 -351Q66 -420 91.5 -470.5Q117 -521 151 -588.5Q185 -656 201 -698L210 -722Q219 -743 241 -743Q254 -743 264 -733.5Q274 -724 274 -710L271 -698Q255 -657 205 -557Q138 -424 120 -366ZM176 -197Q176 -252 160 -286Q148 -292 134 -295Q108 -302 104 -305Q96 -268 96 -221V-197Q102 -85 131 -26Q132 -26 133.5 -25.5Q135 -25 136 -25Q141 -25 143 -26Q176 -87 176 -197Z"/>
	<path fill="#800080" d="M124 -330Q124 -340 131 -347.5Q138 -355 149 -355Q152 -355 155 -354Q193 -344 213 -324Q251 -287 251 -197Q251 -120 233 -59Q218 -8 194 15Q174 35 151 35Q128 35 110 17Q87 -6 72 -57Q56 -114 51 -195Q50 -208 50 -221Q50 -267 59 -312Q68 -357 88 -407Q108 -457 121.5 -485.5Q135 -514 163 -569Q210 -662 227 -707Q234 -723 251 -723Q261 -723 268.5 -715.5Q276 -708 276 -698Q276 -693 274 -689Q256 -642 207 -546Q172 -477 153.5 -437Q135 -397 117.5 -335.5Q100 -274 100 -220Q100 -209 101 -199Q105 -123 120 -71Q132 -32 145 -19Q149 -15 151 -15Q153 -15 158 -20Q173 -35 185 -73Q201 -127 201 -197Q201 -266 178 -289Q168 -299 142 -306Q135 -308 129.5 -315Q124 -322 124 -330Z"/>
	<path fill="#daa520" d="M144 -330Q144 -335 149 -335Q149 -335 150 -335Q193 -323 210 -296Q231 -263 231 -197Q231 -77 193 -16Q174 15 151 15Q121 15 100 -37Q77 -95 71 -197Q70 -209 70 -221Q70 -265 78.5 -308.5Q87 -352 106 -400Q125 -448 139 -477Q153 -506 180 -560Q228 -654 246 -700Q247 -703 251 -703Q256 -703 256 -698Q256 -697 255 -696Q239 -654 205.5 -587Q172 -520 146.5 -469Q121 -418 100.5 -349.5Q80 -281 80 -221Q80 -209 81 -197Q87 -97 110 -41Q128 5 151 5Q175 5 194 -41Q221 -102 221 -197Q221 -260 202 -291Q187 -315 147 -325Q144 -326 144 -330Z"/>
</svg>