<svg xmlns="http://www.w3.org/2000/svg" viewBox="0 -1024 1024 1024">
	<path fill="#000088" d="M74 -330Q74 -340 81 -347.5Q88 -355 99 -355Q102 -355 105 -354Q143 -344 163 -324Q201 -287 201 -197Q201 -120 183 -59Q168 -8 144 15Q124 35 101 35Q78 35 60 17Q37 -6 22 -57Q6 -114 1 -195Q0 -208 0 -221Q0 -267 9 -312Q18 -357 38 -407Q58 -457 71.5 -485.5Q85 -514 113 -569Q160 -662 177 -707Q184 -723 201 -723Q211 -723 218.5 -715.5Q226 -708 226 -698Q226 -693 224 -689Q206 -642 157 -546Q122 -477 103.5 -437Q85 -397 67.5 -335.5Q50 -274 50 -220Q50 -209 51 -199Q55 -123 70 -71Q82 -32 95 -19Q99 -15 101 -15Q103 -15 108 -20Q123 -35 135 -73Q151 -127 151 -197Q151 -266 128 -289Q118 -299 92 -306Q85 -308 79.5 -315Q74 -322 74 -330Z"/>
	<path fill="#800080" d="M124 -330Q124 -340 131 -347.5Q138 -355 149 -355Q152 -355 155 -354Q193 -344 213 -324Q251 -287 251 -197Q251 -120 233 -59Q218 -8 194 15Q174 35 151 35Q128 35 110 17Q87 -6 72 -57Q56 -114 51 -195Q50 -208 50 -221Q50 -267 59 -312Q68 -357 88 -407Q108 -457 121.5 -485.5Q135 -514 163 -569Q210 -662 227 -707Q234 -723 251 -723Q261 -723 268.5 -715.5Q276 -708 276 -698Q276 -693 274 -689Q256 -642 207 -546Q172 -477 153.5 -437Q135 -397 117.5 -335.5Q100 -274 100 -220Q100 -209 101 -199Q105 -123 120 -71Q132 -32 145 -19Q149 -15 151 -15Q153 -15 158 -20Q173 -35 185 -73Q201 -127 201 -197Q201 -266 178 -289Q168 -299 142 -306Q135 -308 129.5 -315Q124 -322 124 -330Z"/>
	<path fill="#daa520" d="M144 -330Q144 -335 149 -335Q149 -335 150 -335Q193 -323 210 -296Q231 -263 231 -197Q231 -77 193 -16Q174 15 151 15Q121 15 100 -37Q77 -95 71 -197Q70 -209 70 -221Q70 -265 78.5 -308.5Q87 -352 106 -400Q125 -448 139 -477Q153 -506 180 -560Q228 -654 246 -700Q247 -703 251 -703Q256 -703 256 -698Q256 -697 255 -696Q239 -654 205.5 -587Q172 -520 146.5 -469Q121 -418 100.5 -349.5Q80 -281 80 -221Q80 -209 81 -197Q87 -97 110 -41Q128 5 151 5Q175 5 194 -41Q221 -102 221 -197Q221 -260 202 -291Q187 -315 147 -325Q144 -326 144 -330Z"/>
</svg>