<svg xmlns="http://www.w3.org/2000/svg" viewBox="0 -1024 1024 1024">
	<path fill="#000088" d="M58 -62Q44 -62 34.5 -72Q25 -82 25 -95Q25 -103 27 -107L269 -690Q277 -710 299 -710Q313 -710 322.5 -700.5Q332 -691 332 -678Q332 -671 329 -665L88 -82Q80 -62 58 -62Z"/>
	<path fill="#800080" d="M75 -82Q65 -82 57.5 -89.5Q50 -97 50 -107Q50 -112 52 -117L283 -675Q289 -690 306 -690Q316 -690 323.5 -682.5Q331 -675 331 -665Q331 -660 329 -655L98 -97Q92 -82 75 -82Z"/>
	<path fill="#daa520" d="M75 -102Q70 -102 70 -107Q70 -108 70 -109L301 -667Q303 -670 306 -670Q311 -670 311 -665Q311 -664 311 -663L80 -105Q78 -102 75 -102Z"/>
</svg>