<svg xmlns="http://www.w3.org/2000/svg" viewBox="0 -1024 1024 1024">
	<path fill="#000088" d="M25 -82Q15 -82 7.5 -89.5Q0 -97 0 -107Q0 -112 2 -117L233 -675Q239 -690 256 -690Q266 -690 273.5 -682.5Q281 -675 281 -665Q281 -660 279 -655L48 -97Q42 -82 25 -82Z"/>
	<path fill="#800080" d="M75 -82Q65 -82 57.5 -89.5Q50 -97 50 -107Q50 -112 52 -117L283 -675Q289 -690 306 -690Q316 -690 323.5 -682.5Q331 -675 331 -665Q331 -660 329 -655L98 -97Q92 -82 75 -82Z"/>
	<path fill="#daa520" d="M75 -102Q70 -102 70 -107Q70 -108 70 -109L301 -667Q303 -670 306 -670Q311 -670 311 -665Q311 -664 311 -663L80 -105Q78 -102 75 -102Z"/>
</svg>