<svg xmlns="http://www.w3.org/2000/svg" viewBox="0 -1024 1024 1024">
	<path fill="#000088" d="M378 79Q378 109 366 139Q358 161 342 176Q303 215 214 215Q160 215 85 184Q43 167 18 160Q11 158 5.5 151Q0 144 0 136Q0 126 7.5 118.5Q15 111 25 111Q28 111 32 112Q60 120 104 138Q128 148 140.5 152.5Q153 157 173 161Q193 165 214 165Q282 165 307 141Q315 132 320 121Q328 99 328 79Q328 62 323 45Q313 17 287 -17Q277 -30 265 -41Q235 -72 166 -109Q113 -138 84 -158Q73 -166 73 -179Q73 -189 80 -196L257 -386H26Q16 -386 8.5 -393.5Q1 -401 1 -411Q1 -421 8.5 -428.5Q16 -436 26 -436H314Q324 -436 331.5 -428.5Q339 -421 339 -411Q339 -401 332 -394L136 -184Q154 -173 190 -153.5Q226 -134 251.5 -117Q277 -100 301 -76Q352 -25 370 29Q378 53 378 79Z"/>
	<path fill="#800080" d="M428 79Q428 109 416 139Q408 161 392 176Q353 215 264 215Q210 215 135 184Q93 167 68 160Q61 158 55.5 151Q50 144 50 136Q50 126 57.5 118.5Q65 111 75 111Q78 111 82 112Q110 120 154 138Q178 148 190.5 152.5Q203 157 223 161Q243 165 264 165Q332 165 357 141Q365 132 370 121Q378 99 378 79Q378 62 373 45Q363 17 337 -17Q327 -30 315 -41Q285 -72 216 -109Q163 -138 134 -158Q123 -166 123 -179Q123 -189 130 -196L307 -386H76Q66 -386 58.5 -393.5Q51 -401 51 -411Q51 -421 58.5 -428.5Q66 -436 76 -436H364Q374 -436 381.5 -428.5Q389 -421 389 -411Q389 -401 382 -394L186 -184Q204 -173 240 -153.5Q276 -134 301.5 -117Q327 -100 351 -76Q402 -25 420 29Q428 53 428 79Z"/>
	<path fill="#daa520" d="M388 79Q388 105 378 132Q352 195 244 195Q220 195 197 190Q174 185 160.5 180.5Q147 176 122 166Q80 148 54 141Q50 140 50 136Q50 131 55 131Q56 131 56 131Q83 139 126 156Q150 166 163.5 171Q177 176 199 180.5Q221 185 244 185Q346 185 368 128Q378 103 378 79Q378 29 333 -29Q314 -52 291 -71.5Q268 -91 252 -100.5Q236 -110 205 -127Q154 -155 125 -175Q123 -176 123 -179Q123 -181 124 -182L333 -406H56Q51 -406 51 -411Q51 -416 56 -416H344Q349 -416 349 -411Q349 -409 348 -408L136 -180Q161 -163 205 -139.5Q249 -116 281 -93Q313 -70 341 -35Q388 25 388 79Z"/>
</svg>