<svg xmlns="http://www.w3.org/2000/svg" viewBox="0 -1024 1024 1024">
	<path fill="#000088" d="M291 -280Q291 -327 268 -366Q248 -376 228 -376Q206 -376 186.5 -369Q167 -362 156 -355.5Q145 -349 125 -334Q95 -312 71 -299Q63 -295 57 -295Q44 -295 34.5 -304.5Q25 -314 25 -327Q25 -346 42 -355L71 -369Q95 -382 125 -404Q145 -419 156 -425.5Q167 -432 186.5 -439Q206 -446 228 -446Q263 -446 287 -422L322 -386Q340 -368 349 -343Q362 -307 362 -280Q362 -239 334 -199Q307 -162 287 -142L251 -107Q218 -74 163 -35H326Q341 -35 351 -25Q361 -15 361 0Q361 15 351 25Q341 35 326 35H71V-35Q109 -68 159 -104Q207 -137 233 -160Q248 -178 263 -199Q291 -239 291 -280Z"/>
	<path fill="#800080" d="M232 -436Q277 -436 309 -404Q330 -383 341 -352Q355 -313 355 -280Q355 -229 323 -185Q300 -152 273 -125Q259 -110 241.5 -95.5Q224 -81 212 -72Q200 -63 178.5 -48Q157 -33 146 -25H330Q340 -25 347.5 -17.5Q355 -10 355 0Q355 10 347.5 17.5Q340 25 330 25H75Q65 25 57.5 17.5Q50 10 50 0Q50 -11 59 -19Q91 -47 149 -89Q210 -132 238 -160Q260 -182 283 -214Q305 -245 305 -280Q305 -304 295 -334Q287 -356 274 -369Q256 -386 232 -386Q214 -386 198 -380.5Q182 -375 172.5 -369Q163 -363 144 -349Q109 -323 86 -312Q81 -309 75 -309Q65 -309 57.5 -316.5Q50 -324 50 -334Q50 -349 64 -356Q83 -366 114 -389Q135 -404 147 -412Q159 -420 183 -428Q207 -436 232 -436Z"/>
	<path fill="#daa520" d="M330 5H75Q70 5 70 0Q70 -2 72 -4Q103 -32 161 -72Q193 -96 210.5 -109.5Q228 -123 253.5 -148Q279 -173 299 -202Q325 -239 325 -280Q325 -307 313 -341Q302 -371 281.5 -388.5Q261 -406 232 -406Q211 -406 192 -399.5Q173 -393 162.5 -386Q152 -379 132 -365Q99 -340 77 -330Q76 -329 75 -329Q70 -329 70 -334Q70 -337 73 -338Q94 -349 126 -373Q146 -388 157.5 -395Q169 -402 189.5 -409Q210 -416 232 -416Q264 -416 287.5 -396.5Q311 -377 323 -345Q335 -309 335 -280Q335 -236 307 -196Q286 -166 260.5 -140.5Q235 -115 217 -101.5Q199 -88 166 -64Q116 -28 88 -5H330Q335 -5 335 0Q335 5 330 5Z"/>
</svg>