<svg xmlns="http://www.w3.org/2000/svg" viewBox="0 -1024 1024 1024">
	<path fill="#000088" d="M182 -436Q227 -436 259 -404Q280 -383 291 -352Q305 -313 305 -280Q305 -229 273 -185Q250 -152 223 -125Q209 -110 191.5 -95.5Q174 -81 162 -72Q150 -63 128.5 -48Q107 -33 96 -25H280Q290 -25 297.5 -17.5Q305 -10 305 0Q305 10 297.5 17.5Q290 25 280 25H25Q15 25 7.5 17.5Q0 10 0 0Q0 -11 9 -19Q41 -47 99 -89Q160 -132 188 -160Q210 -182 233 -214Q255 -245 255 -280Q255 -304 245 -334Q237 -356 224 -369Q206 -386 182 -386Q164 -386 148 -380.5Q132 -375 122.5 -369Q113 -363 94 -349Q59 -323 36 -312Q31 -309 25 -309Q15 -309 7.5 -316.5Q0 -324 0 -334Q0 -349 14 -356Q33 -366 64 -389Q85 -404 97 -412Q109 -420 133 -428Q157 -436 182 -436Z"/>
	<path fill="#800080" d="M232 -436Q277 -436 309 -404Q330 -383 341 -352Q355 -313 355 -280Q355 -229 323 -185Q300 -152 273 -125Q259 -110 241.5 -95.5Q224 -81 212 -72Q200 -63 178.5 -48Q157 -33 146 -25H330Q340 -25 347.5 -17.5Q355 -10 355 0Q355 10 347.5 17.5Q340 25 330 25H75Q65 25 57.5 17.5Q50 10 50 0Q50 -11 59 -19Q91 -47 149 -89Q210 -132 238 -160Q260 -182 283 -214Q305 -245 305 -280Q305 -304 295 -334Q287 -356 274 -369Q256 -386 232 -386Q214 -386 198 -380.5Q182 -375 172.5 -369Q163 -363 144 -349Q109 -323 86 -312Q81 -309 75 -309Q65 -309 57.5 -316.5Q50 -324 50 -334Q50 -349 64 -356Q83 -366 114 -389Q135 -404 147 -412Q159 -420 183 -428Q207 -436 232 -436Z"/>
	<path fill="#daa520" d="M310 5H55Q50 5 50 0Q50 -2 52 -4Q83 -32 141 -72Q173 -96 190.5 -109.5Q208 -123 233.5 -148Q259 -173 279 -202Q305 -239 305 -280Q305 -307 293 -341Q282 -371 261.5 -388.5Q241 -406 212 -406Q191 -406 172 -399.5Q153 -393 142.5 -386Q132 -379 112 -365Q79 -340 57 -330Q56 -329 55 -329Q50 -329 50 -334Q50 -337 53 -338Q74 -349 106 -373Q126 -388 137.5 -395Q149 -402 169.5 -409Q190 -416 212 -416Q244 -416 267.5 -396.5Q291 -377 303 -345Q315 -309 315 -280Q315 -236 287 -196Q266 -166 240.5 -140.5Q215 -115 197 -101.5Q179 -88 146 -64Q96 -28 68 -5H310Q315 -5 315 0Q315 5 310 5Z"/>
</svg>