<svg xmlns="http://www.w3.org/2000/svg" viewBox="0 -1024 1024 1024">
	<path fill="#000088" d="M233 -386Q233 -435 244 -530Q255 -625 255 -673Q255 -708 237 -726Q230 -733 224 -733Q220 -733 215 -728Q208 -722 203 -708Q198 -693 187 -682Q165 -661 131 -661Q76 -661 34 -703Q4 -732 0 -768Q0 -769 0 -771Q0 -781 7.5 -788.5Q15 -796 25 -796Q34 -796 41.5 -789.5Q49 -783 50 -774Q52 -756 69 -739Q97 -711 131 -711Q145 -711 151 -717Q155 -721 157 -726Q166 -750 183 -766.5Q200 -783 225 -783Q229 -783 234 -782Q255 -779 272 -762Q305 -729 305 -673Q305 -624 294.5 -528.5Q284 -433 284 -385Q284 -368 286 -327Q293 -217 306 -152Q316 -105 329 -75Q340 -49 353 -36Q365 -24 378 -24Q424 -24 459 -59Q490 -90 512 -147Q487 -233 480 -348Q478 -388 478 -431Q478 -591 508 -785Q510 -794 517 -800Q524 -806 533 -806Q550 -806 556 -790Q578 -733 591.5 -640.5Q605 -548 605 -446Q605 -399 602 -354Q594 -232 564 -146Q582 -91 607 -50Q620 -30 646 -30Q655 -30 665 -33L676 -51Q683 -64 698 -64Q708 -64 715.5 -56.5Q723 -49 723 -39Q723 -32 720 -27L704 1Q699 10 689 13Q667 20 646 20Q605 20 578 -7Q571 -14 565 -24Q549 -49 536 -80Q517 -46 494 -23Q445 26 378 26Q344 26 318 0Q298 -20 283 -55Q268 -90 257 -142Q253 -164 249.5 -186.5Q246 -209 243.5 -232Q241 -255 240 -269.5Q239 -284 237.5 -308.5Q236 -333 235 -341Q233 -363 233 -386ZM540 -255Q555 -340 555 -443Q555 -547 540 -644Q528 -529 528 -431Q528 -334 540 -255Z"/>
	<path fill="#800080" d="M283 -386Q283 -435 294 -530Q305 -625 305 -673Q305 -708 287 -726Q280 -733 274 -733Q270 -733 265 -728Q258 -722 253 -708Q248 -693 237 -682Q215 -661 181 -661Q126 -661 84 -703Q54 -732 50 -768Q50 -769 50 -771Q50 -781 57.5 -788.5Q65 -796 75 -796Q84 -796 91.5 -789.5Q99 -783 100 -774Q102 -756 119 -739Q147 -711 181 -711Q195 -711 201 -717Q205 -721 207 -726Q216 -750 233 -766.5Q250 -783 275 -783Q279 -783 284 -782Q305 -779 322 -762Q355 -729 355 -673Q355 -624 344.5 -528.5Q334 -433 334 -385Q334 -368 336 -327Q343 -217 356 -152Q366 -105 379 -75Q390 -49 403 -36Q415 -24 428 -24Q474 -24 509 -59Q540 -90 562 -147Q537 -233 530 -348Q528 -388 528 -431Q528 -591 558 -785Q560 -794 567 -800Q574 -806 583 -806Q600 -806 606 -790Q628 -733 641.5 -640.5Q655 -548 655 -446Q655 -399 652 -354Q644 -232 614 -146Q632 -91 657 -50Q670 -30 696 -30Q705 -30 715 -33L726 -51Q733 -64 748 -64Q758 -64 765.5 -56.5Q773 -49 773 -39Q773 -32 770 -27L754 1Q749 10 739 13Q717 20 696 20Q655 20 628 -7Q621 -14 615 -24Q599 -49 586 -80Q567 -46 544 -23Q495 26 428 26Q394 26 368 0Q348 -20 333 -55Q318 -90 307 -142Q303 -164 299.5 -186.5Q296 -209 293.5 -232Q291 -255 290 -269.5Q289 -284 287.5 -308.5Q286 -333 285 -341Q283 -363 283 -386ZM590 -255Q605 -340 605 -443Q605 -547 590 -644Q578 -529 578 -431Q578 -334 590 -255Z"/>
	<path fill="#daa520" d="M284 -385Q284 -434 294.5 -529.5Q305 -625 305 -673Q305 -708 289 -730.5Q273 -753 254 -753Q229 -753 215 -715Q202 -681 161 -681Q124 -681 89.5 -707.5Q55 -734 50 -770Q50 -770 50 -771Q50 -776 55 -776Q59 -776 60 -772Q64 -739 96 -715Q128 -691 161 -691Q195 -691 205 -719Q222 -763 254 -763Q279 -763 297 -737Q315 -711 315 -673Q315 -625 304.5 -529.5Q294 -434 294 -385Q294 -367 296 -326Q317 -4 408 -4Q511 -4 563 -147Q528 -262 528 -431Q528 -589 558 -782Q559 -786 563 -786Q566 -786 568 -783Q589 -728 602 -636.5Q615 -545 615 -445Q615 -264 573 -146Q592 -85 620 -40Q639 -10 676 -10Q691 -10 709 -15L724 -41Q725 -44 728 -44Q733 -44 733 -39Q733 -38 732 -37L716 -9Q715 -7 713 -6Q693 0 676 0Q633 0 612 -34Q586 -76 568 -131Q513 6 408 6Q348 6 317 -105Q295 -181 286 -325Q284 -367 284 -385ZM605 -445Q605 -637 565 -761Q538 -580 538 -431Q538 -274 568 -163Q605 -277 605 -445Z"/>
</svg>