<svg xmlns="http://www.w3.org/2000/svg" viewBox="0 -1024 1024 1024">
	<path fill="#000088" d="M259 -385Q259 -434 269.5 -529Q280 -624 280 -673Q280 -699 270 -721Q264 -723 260 -723Q259 -723 256.5 -722.5Q254 -722 253 -722Q252 -721 252 -719.5Q252 -718 251 -717Q247 -706 240 -700L205 -664Q191 -650 166 -650Q123 -650 87 -686L52 -721Q28 -745 25 -771V-775Q25 -789 35.5 -799.5Q46 -810 60 -810Q73 -810 83 -801Q93 -792 95 -779L96 -771Q97 -756 107 -740Q137 -721 166 -721Q173 -721 183 -723Q188 -736 198 -746L233 -782Q245 -794 260 -794Q275 -794 290 -779L326 -744Q351 -719 351 -673Q351 -624 340 -529Q329 -434 329 -385Q329 -376 329.5 -366Q330 -356 331 -344.5Q332 -333 332 -326Q345 -113 390 -40Q400 -34 414 -34Q457 -34 494 -61Q518 -92 538 -146Q503 -265 503 -431Q503 -592 533 -781H604Q651 -662 651 -445Q651 -262 609 -146Q626 -90 651 -46Q662 -41 682 -41Q694 -41 700 -42L716 -69Q725 -85 742 -85Q755 -85 764 -76Q773 -67 773 -54Q773 -46 769 -39L753 -11L718 24Q698 30 682 30Q651 30 632 11L596 -24Q590 -30 586 -37Q574 -57 569 -67Q560 -54 547 -41L512 -6Q470 36 414 36Q390 36 371 17L336 -18Q278 -76 261 -326Q259 -366 259 -385ZM580 -445Q580 -492 577 -537Q574 -485 574 -431Q574 -387 577 -345Q580 -378 580 -445Z"/>
	<path fill="#800080" d="M283 -386Q283 -435 294 -530Q305 -625 305 -673Q305 -708 287 -726Q280 -733 274 -733Q270 -733 265 -728Q258 -722 253 -708Q248 -693 237 -682Q215 -661 181 -661Q126 -661 84 -703Q54 -732 50 -768Q50 -769 50 -771Q50 -781 57.5 -788.5Q65 -796 75 -796Q84 -796 91.5 -789.5Q99 -783 100 -774Q102 -756 119 -739Q147 -711 181 -711Q195 -711 201 -717Q205 -721 207 -726Q216 -750 233 -766.5Q250 -783 275 -783Q279 -783 284 -782Q305 -779 322 -762Q355 -729 355 -673Q355 -624 344.5 -528.5Q334 -433 334 -385Q334 -368 336 -327Q343 -217 356 -152Q366 -105 379 -75Q390 -49 403 -36Q415 -24 428 -24Q474 -24 509 -59Q540 -90 562 -147Q537 -233 530 -348Q528 -388 528 -431Q528 -591 558 -785Q560 -794 567 -800Q574 -806 583 -806Q600 -806 606 -790Q628 -733 641.5 -640.5Q655 -548 655 -446Q655 -399 652 -354Q644 -232 614 -146Q632 -91 657 -50Q670 -30 696 -30Q705 -30 715 -33L726 -51Q733 -64 748 -64Q758 -64 765.5 -56.5Q773 -49 773 -39Q773 -32 770 -27L754 1Q749 10 739 13Q717 20 696 20Q655 20 628 -7Q621 -14 615 -24Q599 -49 586 -80Q567 -46 544 -23Q495 26 428 26Q394 26 368 0Q348 -20 333 -55Q318 -90 307 -142Q303 -164 299.5 -186.5Q296 -209 293.5 -232Q291 -255 290 -269.5Q289 -284 287.5 -308.5Q286 -333 285 -341Q283 -363 283 -386ZM590 -255Q605 -340 605 -443Q605 -547 590 -644Q578 -529 578 -431Q578 -334 590 -255Z"/>
	<path fill="#daa520" d="M304 -385Q304 -434 314.5 -529.5Q325 -625 325 -673Q325 -708 309 -730.5Q293 -753 274 -753Q249 -753 235 -715Q222 -681 181 -681Q144 -681 109.5 -707.5Q75 -734 70 -770Q70 -770 70 -771Q70 -776 75 -776Q79 -776 80 -772Q84 -739 116 -715Q148 -691 181 -691Q215 -691 225 -719Q242 -763 274 -763Q299 -763 317 -737Q335 -711 335 -673Q335 -625 324.5 -529.5Q314 -434 314 -385Q314 -367 316 -326Q337 -4 428 -4Q531 -4 583 -147Q548 -262 548 -431Q548 -589 578 -782Q579 -786 583 -786Q586 -786 588 -783Q609 -728 622 -636.5Q635 -545 635 -445Q635 -264 593 -146Q612 -85 640 -40Q659 -10 696 -10Q711 -10 729 -15L744 -41Q745 -44 748 -44Q753 -44 753 -39Q753 -38 752 -37L736 -9Q735 -7 733 -6Q713 0 696 0Q653 0 632 -34Q606 -76 588 -131Q533 6 428 6Q368 6 337 -105Q315 -181 306 -325Q304 -367 304 -385ZM625 -445Q625 -637 585 -761Q558 -580 558 -431Q558 -274 588 -163Q625 -277 625 -445Z"/>
</svg>