<svg xmlns="http://www.w3.org/2000/svg" viewBox="0 -1024 1024 1024">
	<path fill="#000088" d="M-65 166L479 172Q494 172 504 182Q514 192 514 207Q514 222 503.5 232.5Q493 243 479 242L-65 236Q-80 236 -90 226Q-100 216 -100 201Q-100 186 -89.5 175.5Q-79 165 -65 166Z"/>
	<path fill="#800080" d="M-15 166L529 172Q544 172 554 182Q564 192 564 207Q564 222 553.5 232.5Q543 243 529 242L-15 236Q-30 236 -40 226Q-50 216 -50 201Q-50 186 -39.5 175.5Q-29 165 -15 166Z"/>
	<path fill="#daa520" d="M75 168L618 174Q623 174 623 179Q623 184 618 184L75 178Q70 178 70 173Q70 168 75 168Z"/>
</svg>