<svg xmlns="http://www.w3.org/2000/svg" viewBox="0 -1024 1024 1024">
	<path fill="#000088" d="M238 -756Q228 -756 220.5 -763.5Q213 -771 213 -781Q213 -791 220 -798Q227 -805 237 -806L410 -816Q419 -817 433 -817Q447 -817 458 -818Q469 -819 477 -821Q484 -823 491 -823Q518 -823 531 -790Q533 -786 533 -781Q533 -771 525.5 -763.5Q518 -756 508 -756Q491 -756 485 -771Q473 -769 461.5 -768Q450 -767 436.5 -767Q423 -767 414 -766Q414 -766 413 -766L239 -756Q239 -756 238 -756ZM492 -773ZM-32 -756Q-33 -756 -35.5 -756Q-38 -756 -40 -756Q-50 -756 -57.5 -763.5Q-65 -771 -65 -781Q-65 -791 -57.5 -798.5Q-50 -806 -40 -806Q-39 -806 -36 -806Q-33 -806 -32 -806Q-29 -806 -27 -806Q-9 -805 35 -799.5Q79 -794 102 -794Q118 -794 132 -796Q138 -797 160 -803.5Q182 -810 196 -810Q196 -810 197 -810Q198 -810 200 -810Q201 -810 201 -810Q201 -810 202 -810Q211 -810 218 -802.5Q225 -795 225 -785Q225 -781 225 -778Q223 -773 221 -769Q217 -763 211 -756L215 -676Q215 -676 215 -675Q215 -674 215 -674L209 -568Q209 -567 209 -566L199 -488Q199 -486 198 -484Q196 -478 194.5 -469Q193 -460 192 -449Q191 -438 190 -432H191Q202 -433 213 -433Q289 -433 330 -390Q385 -333 399 -210Q400 -200 400 -190Q400 -119 345 -83Q306 -57 251 -57Q210 -57 189 -73Q166 -91 159 -119.5Q152 -148 149 -196Q146 -243 141 -258Q128 -291 128 -333Q128 -359 133 -395Q129 -401 129 -409Q129 -421 139 -429Q142 -448 143 -461Q146 -484 149 -496L159 -571L165 -675L162 -751Q149 -748 140 -746Q122 -744 102 -744Q77 -744 32 -749.5Q-13 -755 -29 -756Q-30 -756 -32 -756ZM197 -810ZM192 -382Q191 -382 182 -382Q178 -353 178 -333Q178 -300 187 -276Q196 -254 198.5 -204.5Q201 -155 206 -137.5Q211 -120 219 -113Q225 -109 234 -108Q243 -107 251 -107Q291 -107 317 -124Q350 -146 350 -190Q350 -197 349 -204Q337 -311 294 -356Q268 -383 213 -383Q204 -383 195 -382Q193 -382 192 -382Z"/>
	<path fill="#800080" d="M288 -756Q278 -756 270.5 -763.5Q263 -771 263 -781Q263 -791 270 -798Q277 -805 287 -806L460 -816Q469 -817 483 -817Q497 -817 508 -818Q519 -819 527 -821Q534 -823 541 -823Q568 -823 581 -790Q583 -786 583 -781Q583 -771 575.5 -763.5Q568 -756 558 -756Q541 -756 535 -771Q523 -769 511.5 -768Q500 -767 486.5 -767Q473 -767 464 -766Q464 -766 463 -766L289 -756Q289 -756 288 -756ZM542 -773ZM18 -756Q17 -756 14.5 -756Q12 -756 10 -756Q0 -756 -7.5 -763.5Q-15 -771 -15 -781Q-15 -791 -7.5 -798.5Q0 -806 10 -806Q11 -806 14 -806Q17 -806 18 -806Q21 -806 23 -806Q41 -805 85 -799.5Q129 -794 152 -794Q168 -794 182 -796Q188 -797 210 -803.5Q232 -810 246 -810Q246 -810 247 -810Q248 -810 250 -810Q251 -810 251 -810Q251 -810 252 -810Q261 -810 268 -802.5Q275 -795 275 -785Q275 -781 275 -778Q273 -773 271 -769Q267 -763 261 -756L265 -676Q265 -676 265 -675Q265 -674 265 -674L259 -568Q259 -567 259 -566L249 -488Q249 -486 248 -484Q246 -478 244.5 -469Q243 -460 242 -449Q241 -438 240 -432H241Q252 -433 263 -433Q339 -433 380 -390Q435 -333 449 -210Q450 -200 450 -190Q450 -119 395 -83Q356 -57 301 -57Q260 -57 239 -73Q216 -91 209 -119.5Q202 -148 199 -196Q196 -243 191 -258Q178 -291 178 -333Q178 -359 183 -395Q179 -401 179 -409Q179 -421 189 -429Q192 -448 193 -461Q196 -484 199 -496L209 -571L215 -675L212 -751Q199 -748 190 -746Q172 -744 152 -744Q127 -744 82 -749.5Q37 -755 21 -756Q20 -756 18 -756ZM247 -810ZM242 -382Q241 -382 232 -382Q228 -353 228 -333Q228 -300 237 -276Q246 -254 248.5 -204.5Q251 -155 256 -137.5Q261 -120 269 -113Q275 -109 284 -108Q293 -107 301 -107Q341 -107 367 -124Q400 -146 400 -190Q400 -197 399 -204Q387 -311 344 -356Q318 -383 263 -383Q254 -383 245 -382Q243 -382 242 -382Z"/>
	<path fill="#daa520" d="M288 -776Q283 -776 283 -781Q283 -786 288 -786L462 -796Q471 -797 485.5 -797Q500 -797 511 -798Q522 -799 533 -802Q537 -803 541 -803Q555 -803 563 -783Q563 -782 563 -781Q563 -776 558 -776Q555 -776 553 -779Q548 -793 541 -793Q539 -793 535 -792Q524 -789 512.5 -788Q501 -787 486.5 -787Q472 -787 462 -786ZM18 -776Q17 -776 14 -776Q11 -776 10 -776Q5 -776 5 -781Q5 -786 18 -786Q21 -786 22 -786Q39 -785 83.5 -779.5Q128 -774 152 -774Q170 -774 185 -776Q192 -777 213.5 -783.5Q235 -790 246 -790Q248 -790 249 -790Q250 -790 250 -790Q255 -790 255 -785Q255 -783 255 -783Q255 -781 254 -780Q245 -767 241 -761L245 -675Q245 -675 245 -675L239 -569Q239 -569 239 -568L229 -490Q229 -489 221 -440Q220 -435 217 -413L242 -412Q252 -413 263 -413Q330 -413 366 -376Q416 -324 429 -208Q430 -199 430 -190Q430 -136 393.5 -106.5Q357 -77 301 -77Q291 -77 282 -78Q268 -79 257.5 -84.5Q247 -90 240.5 -100.5Q234 -111 230 -119.5Q226 -128 223.5 -144.5Q221 -161 220.5 -170Q220 -179 219 -197Q216 -248 209 -265Q198 -295 198 -333Q198 -360 205 -404Q199 -404 199 -409Q199 -414 204 -414Q204 -414 206 -414Q212 -446 213 -459Q216 -481 219 -492L229 -569L235 -675L231 -763Q231 -765 232 -766Q234 -769 242 -780Q233 -779 214 -773Q195 -767 187 -766Q171 -764 152 -764Q128 -764 83.5 -769.5Q39 -775 22 -776Q20 -776 18 -776ZM215 -403Q208 -360 208 -333Q208 -297 219 -269Q226 -250 229 -198Q230 -171 232 -157Q234 -143 239 -125Q244 -107 255 -98.5Q266 -90 282 -88Q292 -87 301 -87Q354 -87 387 -114Q420 -141 420 -190Q420 -198 419 -206Q406 -319 358 -370Q326 -403 263 -403Q252 -403 243 -402Q242 -402 242 -402Q242 -402 215 -403Z"/>
</svg>