<svg xmlns="http://www.w3.org/2000/svg" viewBox="0 -1024 1024 1024">
	<path fill="#000088" d="M185 -801Q204 -802 252 -810.5Q300 -819 327 -819Q343 -819 358.5 -816.5Q374 -814 392.5 -810Q411 -806 420 -805L438 -803Q447 -802 453.5 -795Q460 -788 460 -778Q460 -768 452.5 -760.5Q445 -753 435 -753Q428 -753 413 -755Q404 -757 386.5 -760.5Q369 -764 354 -766.5Q339 -769 327 -769Q302 -769 251 -760Q200 -751 173 -751Q173 -751 172 -751Q171 -751 170 -751Q170 -751 169 -751Q158 -751 150 -759Q142 -767 142 -778Q142 -786 147 -794Q155 -807 169 -807Q178 -807 185 -801ZM165 -79Q163 -79 158 -79Q153 -79 150 -79Q108 -79 82 -109Q68 -126 66 -148Q66 -149 66 -150Q66 -190 80 -233.5Q94 -277 107 -301Q120 -325 147 -371Q173 -415 186 -441Q199 -467 211.5 -506Q224 -545 224 -580Q224 -608 213 -629Q202 -650 170 -680Q126 -720 59 -738Q58 -738 56 -738Q39 -745 -0.5 -747.5Q-40 -750 -57 -754Q-76 -758 -76 -778Q-76 -788 -68.5 -795.5Q-61 -803 -51 -803Q-48 -803 -45 -802Q-35 -800 -18 -798Q-34 -822 -34 -850Q-34 -866 -28 -878Q-22 -890 -9 -898Q4 -906 8.5 -908.5Q13 -911 26 -916Q41 -922 44 -924Q50 -929 58 -929L112 -931Q113 -931 113 -931Q123 -931 130.5 -923.5Q138 -916 138 -906Q138 -896 131 -888.5Q124 -881 114 -881L67 -879Q61 -876 45 -869Q16 -858 16 -850Q16 -822 51 -804Q65 -797 85 -791Q105 -785 120 -782Q135 -779 162.5 -774Q190 -769 200 -767Q279 -751 329 -685Q364 -639 386 -564Q401 -510 418 -397Q429 -325 435 -296Q436 -293 436 -290Q436 -206 390 -138.5Q344 -71 257 -71Q241 -71 210 -75Q179 -79 165 -79ZM165 -129Q181 -129 212 -125Q243 -121 257 -121Q317 -121 351 -169.5Q385 -218 386 -287Q379 -318 369 -389Q352 -499 338 -550Q319 -616 289 -655Q256 -698 207 -713Q239 -684 256.5 -654Q274 -624 274 -580Q274 -537 259.5 -491Q245 -445 231.5 -419Q218 -393 190 -346Q165 -304 152.5 -279.5Q140 -255 128 -219Q116 -183 116 -151Q117 -146 121 -141Q131 -129 150 -129Q153 -129 158 -129Q163 -129 165 -129Z"/>
	<path fill="#800080" d="M235 -801Q254 -802 302 -810.5Q350 -819 377 -819Q393 -819 408.5 -816.5Q424 -814 442.5 -810Q461 -806 470 -805L488 -803Q497 -802 503.5 -795Q510 -788 510 -778Q510 -768 502.5 -760.5Q495 -753 485 -753Q478 -753 463 -755Q454 -757 436.5 -760.5Q419 -764 404 -766.5Q389 -769 377 -769Q352 -769 301 -760Q250 -751 223 -751Q223 -751 222 -751Q221 -751 220 -751Q220 -751 219 -751Q208 -751 200 -759Q192 -767 192 -778Q192 -786 197 -794Q205 -807 219 -807Q228 -807 235 -801ZM215 -79Q213 -79 208 -79Q203 -79 200 -79Q158 -79 132 -109Q118 -126 116 -148Q116 -149 116 -150Q116 -190 130 -233.5Q144 -277 157 -301Q170 -325 197 -371Q223 -415 236 -441Q249 -467 261.5 -506Q274 -545 274 -580Q274 -608 263 -629Q252 -650 220 -680Q176 -720 109 -738Q108 -738 106 -738Q89 -745 49.5 -747.5Q10 -750 -7 -754Q-26 -758 -26 -778Q-26 -788 -18.5 -795.5Q-11 -803 -1 -803Q2 -803 5 -802Q15 -800 32 -798Q16 -822 16 -850Q16 -866 22 -878Q28 -890 41 -898Q54 -906 58.5 -908.5Q63 -911 76 -916Q91 -922 94 -924Q100 -929 108 -929L162 -931Q163 -931 163 -931Q173 -931 180.5 -923.5Q188 -916 188 -906Q188 -896 181 -888.5Q174 -881 164 -881L117 -879Q111 -876 95 -869Q66 -858 66 -850Q66 -822 101 -804Q115 -797 135 -791Q155 -785 170 -782Q185 -779 212.5 -774Q240 -769 250 -767Q329 -751 379 -685Q414 -639 436 -564Q451 -510 468 -397Q479 -325 485 -296Q486 -293 486 -290Q486 -206 440 -138.5Q394 -71 307 -71Q291 -71 260 -75Q229 -79 215 -79ZM215 -129Q231 -129 262 -125Q293 -121 307 -121Q367 -121 401 -169.5Q435 -218 436 -287Q429 -318 419 -389Q402 -499 388 -550Q369 -616 339 -655Q306 -698 257 -713Q289 -684 306.5 -654Q324 -624 324 -580Q324 -537 309.5 -491Q295 -445 281.5 -419Q268 -393 240 -346Q215 -304 202.5 -279.5Q190 -255 178 -219Q166 -183 166 -151Q167 -146 171 -141Q181 -129 200 -129Q203 -129 208 -129Q213 -129 215 -129Z"/>
	<path fill="#daa520" d="M212 -778Q212 -787 219 -787Q224 -787 224 -782Q224 -781 224 -781Q249 -781 300 -790Q351 -799 377 -799Q391 -799 406.5 -796.5Q422 -794 440 -790Q458 -786 468 -785L486 -783Q490 -782 490 -778Q490 -773 485 -773Q485 -773 484 -773Q466 -775 466 -775Q457 -777 439 -780.5Q421 -784 406 -786.5Q391 -789 377 -789Q352 -789 300.5 -780Q249 -771 223 -771Q222 -771 222 -771Q222 -771 221 -771Q220 -771 220 -771Q212 -771 212 -778ZM215 -99Q213 -99 208 -99Q203 -99 200 -99Q177 -99 157.5 -113Q138 -127 136 -150Q136 -187 149 -227.5Q162 -268 175 -292.5Q188 -317 214 -361Q241 -407 254 -432.5Q267 -458 280.5 -500Q294 -542 294 -580Q294 -616 279.5 -641Q265 -666 234 -694Q186 -738 114 -757Q114 -757 113 -757Q94 -764 54 -766.5Q14 -769 -2 -773Q-6 -774 -6 -778Q-6 -783 -1 -783Q0 -783 0 -783Q16 -779 49.5 -777Q83 -775 99 -772Q36 -799 36 -850Q36 -863 45 -873.5Q54 -884 61.5 -887.5Q69 -891 84 -897Q101 -904 106 -908Q107 -909 109 -909L163 -911Q168 -911 168 -906Q168 -901 163 -901L111 -899Q105 -895 87 -888Q74 -882 66.5 -878.5Q59 -875 52.5 -867.5Q46 -860 46 -850Q46 -834 53 -821Q60 -808 74 -798Q88 -788 102.5 -781Q117 -774 139.5 -768.5Q162 -763 177 -760Q192 -757 216 -752Q237 -749 246 -747Q271 -742 293 -731Q315 -720 331.5 -707Q348 -694 363 -673Q378 -652 387.5 -635Q397 -618 406.5 -589.5Q416 -561 421 -543Q426 -525 432 -492.5Q438 -460 440.5 -443.5Q443 -427 448 -394Q459 -321 466 -291Q466 -291 466 -290Q466 -212 425 -151.5Q384 -91 307 -91Q292 -91 261 -95Q230 -99 215 -99ZM215 -109Q230 -109 261 -105Q292 -101 307 -101Q355 -101 390 -129.5Q425 -158 440.5 -200Q456 -242 456 -289Q449 -320 438 -392Q432 -434 428.5 -456.5Q425 -479 416.5 -518Q408 -557 399 -580.5Q390 -604 375.5 -634Q361 -664 343 -682Q325 -700 300 -715.5Q275 -731 244 -737Q235 -739 204 -744.5Q173 -750 155 -754Q205 -734 240 -702Q273 -672 288.5 -645.5Q304 -619 304 -580Q304 -540 290.5 -497Q277 -454 263.5 -428Q250 -402 223 -356Q197 -312 184 -287.5Q171 -263 158.5 -224Q146 -185 146 -150Q148 -132 164.5 -120.5Q181 -109 200 -109Q203 -109 208 -109Q213 -109 215 -109Z"/>
</svg>