<svg xmlns="http://www.w3.org/2000/svg" viewBox="0 -1024 1024 1024">
	<path fill="#000088" d="M291 -759Q281 -759 273.5 -766.5Q266 -774 266 -784Q266 -794 273 -801.5Q280 -809 291 -809L441 -811Q451 -811 458.5 -803.5Q466 -796 466 -786Q466 -776 459 -768.5Q452 -761 441 -761ZM186 -764Q29 -759 7 -759H-51Q-61 -759 -68.5 -766.5Q-76 -774 -76 -784Q-76 -794 -68.5 -801.5Q-61 -809 -51 -809H7Q49 -809 134.5 -812Q220 -815 263 -815Q273 -815 280.5 -807.5Q288 -800 288 -790Q288 -780 280.5 -772.5Q273 -765 263 -765L258 -761Q235 -744 206 -711Q169 -668 133.5 -614Q98 -560 79 -513Q75 -503 72 -494Q86 -503 115 -532Q158 -574 183 -590Q219 -613 253 -613Q296 -613 325.5 -586.5Q355 -560 370 -521Q386 -481 386 -440Q386 -397 371.5 -326Q357 -255 332 -193Q305 -126 272 -91Q237 -55 197 -55Q174 -55 153.5 -63Q133 -71 119.5 -80.5Q106 -90 90 -109.5Q74 -129 68 -138Q62 -147 48 -169Q21 -214 6 -228Q1 -233 -1 -239L-49 -413Q-50 -415 -50 -417L-56 -471Q-56 -473 -56 -474Q-56 -484 -48.5 -491.5Q-41 -499 -31 -499Q-21 -499 -14 -492.5Q-7 -486 -6 -477L0 -425L45 -259Q62 -241 91 -196Q120 -149 142.5 -127Q165 -105 197 -105Q216 -105 236 -126Q262 -154 286 -211Q308 -268 322 -336Q336 -404 336 -440Q336 -472 324 -503Q313 -529 297 -545Q278 -563 253 -563Q233 -563 210 -548Q189 -535 150 -496Q116 -463 99 -451Q72 -433 45 -433Q34 -433 26 -439Q16 -447 16 -460Q16 -500 46 -562Q78 -628 132 -700Q160 -737 186 -764ZM171 36Q178 40 191 18Q196 10 196 15Q196 34 188 47Q180 60 168 60Q143 60 124 43.5Q105 27 105 1Q105 -14 116 -26Q125 -36 142 -43Q147 -45 152 -45Q162 -45 169.5 -37.5Q177 -30 177 -20Q177 -14 195 5Q199 9 194 7Q153 -23 138.5 -19Q124 -15 133 23Q132 26 131 29Q131 30 132 30Q144 27 171 36Z"/>
	<path fill="#800080" d="M341 -759Q331 -759 323.5 -766.5Q316 -774 316 -784Q316 -794 323 -801.5Q330 -809 341 -809L491 -811Q501 -811 508.5 -803.5Q516 -796 516 -786Q516 -776 509 -768.5Q502 -761 491 -761ZM236 -764Q79 -759 57 -759H-1Q-11 -759 -18.5 -766.5Q-26 -774 -26 -784Q-26 -794 -18.5 -801.5Q-11 -809 -1 -809H57Q99 -809 184.5 -812Q270 -815 313 -815Q323 -815 330.5 -807.5Q338 -800 338 -790Q338 -780 330.5 -772.5Q323 -765 313 -765L308 -761Q285 -744 256 -711Q219 -668 183.5 -614Q148 -560 129 -513Q125 -503 122 -494Q136 -503 165 -532Q208 -574 233 -590Q269 -613 303 -613Q346 -613 375.5 -586.5Q405 -560 420 -521Q436 -481 436 -440Q436 -397 421.5 -326Q407 -255 382 -193Q355 -126 322 -91Q287 -55 247 -55Q224 -55 203.5 -63Q183 -71 169.5 -80.5Q156 -90 140 -109.5Q124 -129 118 -138Q112 -147 98 -169Q71 -214 56 -228Q51 -233 49 -239L1 -413Q0 -415 0 -417L-6 -471Q-6 -473 -6 -474Q-6 -484 1.5 -491.5Q9 -499 19 -499Q29 -499 36 -492.5Q43 -486 44 -477L50 -425L95 -259Q112 -241 141 -196Q170 -149 192.5 -127Q215 -105 247 -105Q266 -105 286 -126Q312 -154 336 -211Q358 -268 372 -336Q386 -404 386 -440Q386 -472 374 -503Q363 -529 347 -545Q328 -563 303 -563Q283 -563 260 -548Q239 -535 200 -496Q166 -463 149 -451Q122 -433 95 -433Q84 -433 76 -439Q66 -447 66 -460Q66 -500 96 -562Q128 -628 182 -700Q210 -737 236 -764ZM221 36Q228 40 241 18Q246 10 246 15Q246 34 238 47Q230 60 218 60Q193 60 174 43.5Q155 27 155 1Q155 -14 166 -26Q175 -36 192 -43Q197 -45 202 -45Q212 -45 219.5 -37.5Q227 -30 227 -20Q227 -14 245 5Q249 9 244 7Q203 -23 188.5 -19Q174 -15 183 23Q182 26 181 29Q181 30 182 30Q194 27 221 36Z"/>
	<path fill="#daa520" d="M341 -789L491 -791Q496 -791 496 -786Q496 -781 491 -781Q341 -779 341 -779Q336 -779 336 -784Q336 -789 341 -789ZM289 -785Q256 -784 177.5 -781.5Q99 -779 57 -779H-1Q-6 -779 -6 -784Q-6 -789 -1 -789H57Q99 -789 185 -792Q271 -795 313 -795Q318 -795 318 -790Q318 -785 313 -785Q302 -785 277 -762Q245 -733 206 -682Q162 -622 129.5 -561Q97 -500 96 -463Q96 -463 97 -463Q98 -463 99 -463Q114 -463 132.5 -476.5Q151 -490 179 -518Q204 -542 218 -554Q232 -566 256.5 -579.5Q281 -593 303 -593Q357 -593 386.5 -543.5Q416 -494 416 -440Q416 -400 401.5 -330Q387 -260 363 -200Q313 -75 247 -75Q213 -75 185.5 -94.5Q158 -114 142.5 -138.5Q127 -163 106 -195Q85 -227 70 -242Q69 -243 68 -245L20 -419L14 -473Q14 -474 14 -474Q14 -479 19 -479Q23 -479 24 -475L30 -421L77 -249Q95 -232 124 -185Q139 -160 148.5 -147Q158 -134 174 -117Q190 -100 208 -92.5Q226 -85 247 -85Q306 -85 354 -204Q378 -262 392 -331.5Q406 -401 406 -440Q406 -491 378.5 -537Q351 -583 303 -583Q283 -583 261 -571Q239 -559 224.5 -546.5Q210 -534 186 -511Q165 -490 155.5 -481.5Q146 -473 129.5 -463Q113 -453 99 -453Q99 -453 97.5 -453Q96 -453 95 -453Q86 -453 86 -460Q86 -517 149.5 -617Q213 -717 270 -769Q281 -779 289 -785ZM208 -36Q210 -36 212 -38Q222 -51 244 -51Q258 -51 267.5 -42.5Q277 -34 277 -22Q277 -10 267.5 -1.5Q258 7 244 7Q239 7 239 12Q239 17 244 17Q262 17 274.5 5.5Q287 -6 287 -22Q287 -38 274.5 -49.5Q262 -61 244 -61Q217 -61 204 -44Q203 -43 203 -41Q203 -36 208 -36ZM244 7Q249 7 249 12Q249 17 244 17Q226 17 213.5 5.5Q201 -6 201 -22Q201 -36 226 -48Q227 -48 228 -48Q233 -48 233 -43Q233 -40 230 -38Q211 -30 211 -22Q211 -10 220.5 -1.5Q230 7 244 7Z"/>
</svg>