<svg xmlns="http://www.w3.org/2000/svg" viewBox="0 -1024 1024 1024">
	<path fill="#000088" d="M75 -1146Q75 -1149 74.5 -1155Q74 -1161 74 -1164Q74 -1174 81.5 -1181.5Q89 -1189 99 -1189Q109 -1189 116 -1182.5Q123 -1176 124 -1167Q125 -1157 125 -1146Q125 -1128 116 -1072Q114 -1064 114 -1057Q114 -1024 140.5 -1001Q167 -978 204 -978Q215 -978 226 -980Q256 -987 273 -987Q291 -987 303 -981Q316 -974 323 -962Q328 -952 328 -940Q328 -921 320 -902Q312 -883 305.5 -874.5Q299 -866 286 -851Q274 -838 270 -831Q265 -824 264 -819Q272 -808 282 -797Q288 -792 295 -786Q301 -787 317 -793Q333 -799 344 -801Q347 -801 419 -805Q426 -811 435 -811Q440 -811 449 -809Q471 -803 471 -783Q471 -775 467 -768Q462 -762 456 -759Q452 -758 446 -757Q434 -755 397 -754Q360 -753 350 -751Q345 -751 331 -745Q304 -735 291 -735Q284 -735 277 -738Q272 -740 266 -744Q243 -761 225 -789Q220 -795 218 -801Q214 -809 214 -816Q214 -834 224 -852Q231 -864 248 -884Q277 -917 278 -937Q276 -937 273 -937Q262 -937 236 -932Q220 -928 204 -928Q148 -928 106 -964.5Q64 -1001 64 -1057Q64 -1069 69 -1094Q75 -1130 75 -1146ZM139 -236Q139 -234 139 -230Q139 -226 139 -224Q139 -193 150.5 -166.5Q162 -140 182 -130Q194 -124 208 -124Q212 -124 217 -125Q270 -131 286 -142Q308 -157 309 -213Q277 -197 248 -197Q229 -197 219 -204Q197 -218 197 -256Q197 -289 229 -316Q266 -347 306 -347Q323 -347 335 -333Q347 -319 353 -290Q359 -258 359 -222Q359 -132 315 -101Q289 -83 223 -75Q215 -74 208 -74Q143 -74 109 -137Q89 -176 89 -224Q89 -231 89 -237V-239Q89 -308 98 -344Q108 -387 118 -487Q130 -614 148 -672Q162 -717 183 -751H-40Q-50 -751 -57.5 -758.5Q-65 -766 -65 -776Q-65 -786 -57.5 -793.5Q-50 -801 -40 -801H214Q216 -801 218 -802Q223 -805 228 -805Q229 -805 230 -805H231Q232 -805 234.5 -805Q237 -805 240 -805Q250 -805 257.5 -797.5Q265 -790 265 -780Q265 -769 257 -762Q216 -724 196 -658Q180 -606 168.5 -492.5Q157 -379 146 -332Q139 -302 139 -236ZM299 -296Q303 -287 306 -269Q268 -247 248 -247Q247 -252 247 -256Q247 -266 262 -278Q278 -292 299 -296Z"/>
	<path fill="#800080" d="M125 -1146Q125 -1149 124.5 -1155Q124 -1161 124 -1164Q124 -1174 131.5 -1181.5Q139 -1189 149 -1189Q159 -1189 166 -1182.5Q173 -1176 174 -1167Q175 -1157 175 -1146Q175 -1128 166 -1072Q164 -1064 164 -1057Q164 -1024 190.5 -1001Q217 -978 254 -978Q265 -978 276 -980Q306 -987 323 -987Q341 -987 353 -981Q366 -974 373 -962Q378 -952 378 -940Q378 -921 370 -902Q362 -883 355.5 -874.5Q349 -866 336 -851Q324 -838 320 -831Q315 -824 314 -819Q322 -808 332 -797Q338 -792 345 -786Q351 -787 367 -793Q383 -799 394 -801Q397 -801 469 -805Q476 -811 485 -811Q490 -811 499 -809Q521 -803 521 -783Q521 -775 517 -768Q512 -762 506 -759Q502 -758 496 -757Q484 -755 447 -754Q410 -753 400 -751Q395 -751 381 -745Q354 -735 341 -735Q334 -735 327 -738Q322 -740 316 -744Q293 -761 275 -789Q270 -795 268 -801Q264 -809 264 -816Q264 -834 274 -852Q281 -864 298 -884Q327 -917 328 -937Q326 -937 323 -937Q312 -937 286 -932Q270 -928 254 -928Q198 -928 156 -964.5Q114 -1001 114 -1057Q114 -1069 119 -1094Q125 -1130 125 -1146ZM189 -236Q189 -234 189 -230Q189 -226 189 -224Q189 -193 200.5 -166.5Q212 -140 232 -130Q244 -124 258 -124Q262 -124 267 -125Q320 -131 336 -142Q358 -157 359 -213Q327 -197 298 -197Q279 -197 269 -204Q247 -218 247 -256Q247 -289 279 -316Q316 -347 356 -347Q373 -347 385 -333Q397 -319 403 -290Q409 -258 409 -222Q409 -132 365 -101Q339 -83 273 -75Q265 -74 258 -74Q193 -74 159 -137Q139 -176 139 -224Q139 -231 139 -237V-239Q139 -308 148 -344Q158 -387 168 -487Q180 -614 198 -672Q212 -717 233 -751H10Q0 -751 -7.5 -758.5Q-15 -766 -15 -776Q-15 -786 -7.5 -793.5Q0 -801 10 -801H264Q266 -801 268 -802Q273 -805 278 -805Q279 -805 280 -805H281Q282 -805 284.5 -805Q287 -805 290 -805Q300 -805 307.5 -797.5Q315 -790 315 -780Q315 -769 307 -762Q266 -724 246 -658Q230 -606 218.5 -492.5Q207 -379 196 -332Q189 -302 189 -236ZM349 -296Q353 -287 356 -269Q318 -247 298 -247Q297 -252 297 -256Q297 -266 312 -278Q328 -292 349 -296Z"/>
	<path fill="#daa520" d="M254 -958Q266 -958 288.5 -962.5Q311 -967 323 -967Q358 -967 358 -940Q358 -925 351.5 -909.5Q345 -894 339 -886Q333 -878 321 -864Q294 -833 294 -816L295 -813Q299 -805 312 -790Q325 -775 335 -768Q338 -766 341 -765Q350 -766 369 -773Q388 -780 396 -781Q407 -782 441 -783.5Q475 -785 480 -785Q480 -786 480 -786Q480 -791 485 -791Q489 -791 496 -789Q501 -787 501 -783Q501 -780 498 -778Q497 -777 493 -776Q485 -775 448 -774Q408 -772 398 -771Q390 -770 371 -763Q352 -756 341 -755Q336 -755 328 -761Q308 -775 291 -800Q284 -810 284 -816Q284 -837 313 -871Q325 -884 331 -892Q337 -900 342.5 -913.5Q348 -927 348 -940Q348 -957 323 -957Q309 -957 282 -951Q268 -948 254 -948Q206 -948 170 -979Q134 -1010 134 -1057Q134 -1068 138 -1090Q145 -1128 145 -1146Q145 -1155 144 -1163Q144 -1163 144 -1164Q144 -1169 149 -1169Q153 -1169 154 -1165Q155 -1156 155 -1146Q155 -1129 146 -1075Q144 -1066 144 -1057Q144 -1015 176.5 -986.5Q209 -958 254 -958ZM276 -773Q268 -771 266 -771H10Q5 -771 5 -776Q5 -781 10 -781H266Q273 -782 276 -783Q278 -785 280 -785Q280 -785 281 -785Q282 -785 284.5 -785Q287 -785 290 -785Q295 -785 295 -780Q295 -778 293 -776Q267 -752 249.5 -720Q232 -688 221.5 -644Q211 -600 207 -569.5Q203 -539 198 -484Q188 -382 177 -337Q169 -304 169 -236Q169 -234 169 -230Q169 -226 169 -224Q169 -176 192.5 -140Q216 -104 258 -104Q264 -104 269 -105Q328 -112 348 -126Q379 -148 379 -222Q379 -255 373 -284Q367 -317 356 -317Q330 -317 303.5 -297Q277 -277 277 -256Q277 -227 292 -227Q293 -227 295 -227Q297 -227 298 -227Q324 -227 367 -252Q369 -253 370 -253Q375 -253 375 -248Q375 -245 373 -244Q327 -217 298 -217Q294 -217 292 -217Q267 -217 267 -256Q267 -283 297 -305Q327 -327 356 -327Q375 -327 383 -286Q389 -256 389 -222Q389 -143 353 -118Q331 -102 271 -95Q264 -94 258 -94Q211 -94 185 -133.5Q159 -173 159 -224Q159 -230 159 -236Q159 -305 167 -339Q178 -384 188 -485Q193 -539 196.5 -567Q200 -595 209.5 -639Q219 -683 235 -715Q251 -747 276 -773Z"/>
</svg>