<svg xmlns="http://www.w3.org/2000/svg" viewBox="0 -1024 1024 1024">
	<path fill="#000088" d="M-335 102Q-344 102 -352 94.5Q-360 87 -360 76Q-360 70 -356 64Q-354 59 -348 54Q-341 48 -315 32Q-314 31 -313 30Q-299 24 -271.5 5.5Q-244 -13 -228 -20Q-221 -34 -206 -34Q-196 -34 -188.5 -26.5Q-181 -19 -181 -9V-3Q-181 14 -197 20Q-213 27 -252 53Q-183 71 -121 129Q-113 136 -113 147Q-113 157 -120.5 164.5Q-128 172 -138 172Q-148 172 -155 165Q-188 134 -228.5 114.5Q-269 95 -306 95Q-310 95 -314 96Q-322 99 -327 101Q-330 102 -334 102ZM-148 -118Q-138 -118 -130.5 -110.5Q-123 -103 -123 -93Q-123 -79 -134 -72Q-142 -67 -162 -54Q-182 -41 -193 -33.5Q-204 -26 -221 -15.5Q-238 -5 -254 3.5Q-270 12 -286 19Q-268 26 -236.5 37Q-205 48 -193 53L-163 58Q-155 60 -149 67Q-143 74 -143 83Q-143 93 -150.5 100.5Q-158 108 -168 108Q-170 108 -173 108L-205 102Q-207 101 -209 100Q-212 99 -231 92Q-292 71 -320 59Q-341 51 -352 46Q-364 40 -369 33Q-375 26 -375 17Q-375 -2 -357 -7Q-344 -11 -330.5 -16Q-317 -21 -300.5 -29.5Q-284 -38 -273.5 -43.5Q-263 -49 -243 -61.5Q-223 -74 -216.5 -78Q-210 -82 -187 -97Q-164 -112 -162 -114Q-155 -118 -148 -118Z"/>
	<path fill="#800080" d="M-285 102Q-294 102 -302 94.5Q-310 87 -310 76Q-310 70 -306 64Q-304 59 -298 54Q-291 48 -265 32Q-264 31 -263 30Q-249 24 -221.5 5.5Q-194 -13 -178 -20Q-171 -34 -156 -34Q-146 -34 -138.5 -26.5Q-131 -19 -131 -9V-3Q-131 14 -147 20Q-163 27 -202 53Q-133 71 -71 129Q-63 136 -63 147Q-63 157 -70.5 164.5Q-78 172 -88 172Q-98 172 -105 165Q-138 134 -178.5 114.5Q-219 95 -256 95Q-260 95 -264 96Q-272 99 -277 101Q-280 102 -284 102ZM-98 -118Q-88 -118 -80.5 -110.5Q-73 -103 -73 -93Q-73 -79 -84 -72Q-92 -67 -112 -54Q-132 -41 -143 -33.5Q-154 -26 -171 -15.5Q-188 -5 -204 3.5Q-220 12 -236 19Q-218 26 -186.5 37Q-155 48 -143 53L-113 58Q-105 60 -99 67Q-93 74 -93 83Q-93 93 -100.5 100.5Q-108 108 -118 108Q-120 108 -123 108L-155 102Q-157 101 -159 100Q-162 99 -181 92Q-242 71 -270 59Q-291 51 -302 46Q-314 40 -319 33Q-325 26 -325 17Q-325 -2 -307 -7Q-294 -11 -280.5 -16Q-267 -21 -250.5 -29.5Q-234 -38 -223.5 -43.5Q-213 -49 -193 -61.5Q-173 -74 -166.5 -78Q-160 -82 -137 -97Q-114 -112 -112 -114Q-105 -118 -98 -118Z"/>
	<path fill="#daa520" d="M-256 65Q-169 65 -85 143Q-83 145 -83 147Q-83 152 -88 152Q-90 152 -91 151Q-173 75 -256 75Q-263 75 -269 76Q-281 82 -284 82Q-290 82 -290 76Q-290 74 -288 72Q-286 70 -277 64Q-269 58 -255 49Q-254 49 -254 48Q-240 41 -209.5 21Q-179 1 -161 -6V-9Q-161 -14 -156 -14Q-151 -14 -151 -9V-3Q-151 0 -154 2Q-173 9 -204 29.5Q-235 50 -250 57Q-255 61 -262 66Q-259 65 -256 65ZM-98 -98Q-93 -98 -93 -93Q-93 -90 -95 -89Q-101 -85 -124.5 -69.5Q-148 -54 -157.5 -48Q-167 -42 -188 -29Q-209 -16 -222.5 -9.5Q-236 -3 -254.5 5.5Q-273 14 -289 19Q-265 30 -171 64Q-152 71 -149 72L-117 78Q-113 79 -113 83Q-113 88 -118 88Q-118 88 -119 88L-151 82Q-151 82 -152 82Q-155 80 -174 74Q-235 52 -263 41Q-283 33 -293 28Q-299 25 -301 23Q-305 20 -305 17Q-305 13 -301 12Q-285 8 -266 -0.5Q-247 -9 -234 -15Q-221 -21 -197 -35.5Q-173 -50 -165.5 -54.5Q-158 -59 -130.5 -77.5Q-103 -96 -101 -97Q-99 -98 -98 -98Z"/>
</svg>