<svg xmlns="http://www.w3.org/2000/svg" viewBox="0 -1024 1024 1024">
	<path fill="#000088" d="M339 -169Q339 -176 339.5 -190.5Q340 -205 340 -212V-244Q340 -245 340 -247Q344 -277 346 -299Q326 -315 302 -325Q286 -331 286 -348Q286 -358 293.5 -365.5Q301 -373 311 -373Q316 -373 320 -371Q338 -364 354 -354Q362 -413 373 -461Q382 -505 397.5 -553.5Q413 -602 425 -634Q437 -666 458.5 -721Q480 -776 490 -801Q496 -817 513 -817Q513 -817 514 -817L596 -815Q603 -815 609 -811L621 -803Q632 -795 632 -782Q632 -772 624.5 -764.5Q617 -757 607 -757Q599 -757 587 -765L530 -767Q525 -755 501 -694Q477 -633 468 -608.5Q459 -584 444.5 -537Q430 -490 421 -451Q409 -393 399 -319Q463 -255 463 -170Q463 -152 460 -133Q460 -130 460.5 -124Q461 -118 461 -115Q461 -99 452 -88Q443 -77 427 -77Q370 -77 350 -113Q339 -133 339 -169ZM389 -169Q389 -146 394 -138Q398 -130 410 -128Q410 -131 410 -133Q410 -138 410 -143Q413 -156 413 -170Q413 -211 391 -249Q390 -246 390 -243V-212Q390 -205 389.5 -190.5Q389 -176 389 -169ZM31 -759Q23 -759 5 -757Q-13 -755 -22 -755Q-47 -755 -63 -764Q-76 -772 -76 -786Q-76 -796 -68.5 -803.5Q-61 -811 -51 -811Q-44 -811 -39 -808Q-33 -805 -22 -805Q-14 -805 4 -807Q22 -809 31 -809Q94 -809 220.5 -818Q347 -827 411 -827Q414 -827 419 -826Q433 -823 451 -817Q471 -810 479 -802Q487 -794 487 -782Q487 -767 474 -759Q351 -687 85 -507Q83 -506 80 -504Q261 -495 320 -406Q348 -365 348 -310Q348 -259 324.5 -212Q301 -165 260 -135Q216 -103 163 -103Q140 -103 116 -110.5Q92 -118 80 -125Q68 -132 45 -146Q15 -164 -1 -171Q-10 -175 -14 -185L-30 -225Q-32 -229 -32 -234Q-32 -244 -24.5 -251.5Q-17 -259 -7 -259Q10 -259 16 -243L29 -213Q44 -205 71 -188Q91 -176 102.5 -170Q114 -164 130.5 -158.5Q147 -153 163 -153Q200 -153 231 -176Q261 -198 279.5 -235Q298 -272 298 -310Q298 -350 279 -378Q253 -416 190 -436Q129 -455 35 -455Q31 -455 22 -454Q13 -453 9 -453Q6 -452 2 -452Q1 -452 1 -452Q-11 -452 -18 -462Q-24 -469 -24 -478Q-24 -490 -14 -501Q-8 -507 2 -514Q14 -523 43 -540Q55 -547 84 -567Q295 -710 406 -777Q344 -777 219.5 -768Q95 -759 31 -759Z"/>
	<path fill="#800080" d="M389 -169Q389 -176 389.5 -190.5Q390 -205 390 -212V-244Q390 -245 390 -247Q394 -277 396 -299Q376 -315 352 -325Q336 -331 336 -348Q336 -358 343.5 -365.5Q351 -373 361 -373Q366 -373 370 -371Q388 -364 404 -354Q412 -413 423 -461Q432 -505 447.5 -553.5Q463 -602 475 -634Q487 -666 508.5 -721Q530 -776 540 -801Q546 -817 563 -817Q563 -817 564 -817L646 -815Q653 -815 659 -811L671 -803Q682 -795 682 -782Q682 -772 674.5 -764.5Q667 -757 657 -757Q649 -757 637 -765L580 -767Q575 -755 551 -694Q527 -633 518 -608.5Q509 -584 494.5 -537Q480 -490 471 -451Q459 -393 449 -319Q513 -255 513 -170Q513 -152 510 -133Q510 -130 510.5 -124Q511 -118 511 -115Q511 -99 502 -88Q493 -77 477 -77Q420 -77 400 -113Q389 -133 389 -169ZM439 -169Q439 -146 444 -138Q448 -130 460 -128Q460 -131 460 -133Q460 -138 460 -143Q463 -156 463 -170Q463 -211 441 -249Q440 -246 440 -243V-212Q440 -205 439.5 -190.5Q439 -176 439 -169ZM81 -759Q73 -759 55 -757Q37 -755 28 -755Q3 -755 -13 -764Q-26 -772 -26 -786Q-26 -796 -18.5 -803.5Q-11 -811 -1 -811Q6 -811 11 -808Q17 -805 28 -805Q36 -805 54 -807Q72 -809 81 -809Q144 -809 270.5 -818Q397 -827 461 -827Q464 -827 469 -826Q483 -823 501 -817Q521 -810 529 -802Q537 -794 537 -782Q537 -767 524 -759Q401 -687 135 -507Q133 -506 130 -504Q311 -495 370 -406Q398 -365 398 -310Q398 -259 374.5 -212Q351 -165 310 -135Q266 -103 213 -103Q190 -103 166 -110.5Q142 -118 130 -125Q118 -132 95 -146Q65 -164 49 -171Q40 -175 36 -185L20 -225Q18 -229 18 -234Q18 -244 25.5 -251.5Q33 -259 43 -259Q60 -259 66 -243L79 -213Q94 -205 121 -188Q141 -176 152.5 -170Q164 -164 180.5 -158.5Q197 -153 213 -153Q250 -153 281 -176Q311 -198 329.5 -235Q348 -272 348 -310Q348 -350 329 -378Q303 -416 240 -436Q179 -455 85 -455Q81 -455 72 -454Q63 -453 59 -453Q56 -452 52 -452Q51 -452 51 -452Q39 -452 32 -462Q26 -469 26 -478Q26 -490 36 -501Q42 -507 52 -514Q64 -523 93 -540Q105 -547 134 -567Q345 -710 456 -777Q394 -777 269.5 -768Q145 -759 81 -759Z"/>
	<path fill="#daa520" d="M409 -169Q409 -176 409.5 -190.5Q410 -205 410 -212V-244Q410 -244 410 -245Q414 -281 417 -307Q391 -330 359 -343Q356 -345 356 -348Q356 -353 361 -353Q362 -353 363 -353Q393 -340 419 -319Q429 -397 442 -457Q451 -500 466.5 -548Q482 -596 494 -627.5Q506 -659 527.5 -714.5Q549 -770 558 -794Q560 -797 563 -797L645 -795Q647 -795 648 -794L660 -786Q662 -785 662 -782Q662 -777 657 -777Q655 -777 654 -778L643 -785L566 -787Q558 -765 536 -709Q514 -653 502.5 -622.5Q491 -592 476 -544.5Q461 -497 452 -455Q439 -393 428 -311Q493 -251 493 -170Q493 -153 490 -137Q490 -135 490 -132.5Q490 -130 490.5 -123.5Q491 -117 491 -115Q491 -97 477 -97Q432 -97 418 -123Q409 -138 409 -169ZM419 -169Q419 -141 426 -128Q438 -107 477 -107Q481 -107 481 -115Q481 -117 480.5 -123.5Q480 -130 480 -133Q480 -136 480 -139Q483 -154 483 -170Q483 -243 426 -299Q424 -275 420 -244V-212Q420 -205 419.5 -190.5Q419 -176 419 -169ZM81 -779Q73 -779 54.5 -777Q36 -775 28 -775Q9 -775 -3 -782Q-6 -783 -6 -786Q-6 -791 -1 -791Q0 -791 1 -790Q11 -785 28 -785Q36 -785 54 -787Q72 -789 81 -789Q145 -789 271 -798Q397 -807 461 -807Q466 -807 484 -801Q502 -795 509.5 -791Q517 -787 517 -782Q517 -779 514 -777Q390 -704 124 -524Q121 -522 108 -514Q71 -492 61 -483Q61 -483 70.5 -484Q80 -485 85 -485Q378 -485 378 -310Q378 -239 330.5 -181Q283 -123 213 -123Q193 -123 172 -129.5Q151 -136 139 -142.5Q127 -149 106 -163Q74 -182 57 -189Q55 -190 54 -192L38 -232Q38 -233 38 -234Q38 -239 43 -239Q46 -239 48 -236L63 -198Q80 -190 111 -171Q132 -158 144 -151.5Q156 -145 175 -139Q194 -133 213 -133Q278 -133 323 -187.5Q368 -242 368 -310Q368 -475 85 -475Q80 -475 70 -474Q60 -473 56 -473Q53 -472 52 -472Q46 -472 46 -478Q46 -482 51 -487Q55 -492 64 -498Q75 -506 103 -523Q115 -530 145 -550Q380 -710 504 -783Q484 -793 461 -797Q398 -797 271.5 -788Q145 -779 81 -779Z"/>
</svg>