<svg xmlns="http://www.w3.org/2000/svg" viewBox="0 -1024 1024 1024">
	<path fill="#000088" d="M90 -290Q88 -290 86 -290Q86 -290 86 -290Q77 -290 69 -295Q56 -304 56 -321Q56 -350 91 -372Q110 -384 166 -407Q232 -433 255 -449Q275 -463 277 -476Q230 -575 141 -647.5Q52 -720 -58 -753Q-76 -758 -76 -777Q-76 -787 -68.5 -794.5Q-61 -802 -51 -802Q-47 -802 -44 -801Q78 -765 176.5 -684Q275 -603 326 -490Q328 -485 328 -480Q328 -440 284 -409Q265 -395 240 -383.5Q215 -372 184 -360Q153 -348 137 -340H147Q148 -340 149 -340Q232 -333 281 -322Q331 -311 365 -293V-294Q365 -381 381 -440Q378 -446 376 -452Q350 -508 344 -587Q341 -621 341 -639Q341 -658 348 -676.5Q355 -695 361 -704Q367 -713 378 -727Q393 -745 398 -755Q403 -765 413 -768L497 -792Q499 -793 502 -793L604 -802Q605 -802 606 -802Q606 -802 607 -802L703 -799Q713 -799 720 -791.5Q727 -784 727 -774Q727 -764 719.5 -756.5Q712 -749 702 -749Q702 -749 701 -749L607 -752L509 -743L437 -723Q431 -713 417 -696Q407 -683 402.5 -677Q398 -671 394.5 -661Q391 -651 391 -639Q391 -623 394 -587Q398 -539 409 -504Q422 -523 438 -536Q471 -562 516 -562Q518 -562 519 -562Q551 -558 576 -532Q607 -500 607 -459Q607 -455 606.5 -446.5Q606 -438 606 -434Q606 -394 599 -376Q589 -352 566 -341Q548 -332 522 -332Q521 -332 520 -332Q462 -337 420 -381Q415 -343 415 -294Q415 -279 416 -255Q450 -218 450 -167Q450 -130 438 -100Q434 -88 427 -82Q419 -75 408 -75Q392 -75 383 -90Q377 -99 374 -119Q368 -151 368 -195Q368 -210 367 -233Q334 -259 270 -274Q224 -284 146 -290ZM557 -459Q557 -480 540 -497Q528 -510 514 -512Q476 -511 453 -479Q443 -465 435 -444Q467 -387 523 -382Q537 -382 545 -386Q550 -388 552 -394Q556 -403 556 -434Q556 -437 556.5 -446Q557 -455 557 -459Z"/>
	<path fill="#800080" d="M140 -290Q138 -290 136 -290Q136 -290 136 -290Q127 -290 119 -295Q106 -304 106 -321Q106 -350 141 -372Q160 -384 216 -407Q282 -433 305 -449Q325 -463 327 -476Q280 -575 191 -647.5Q102 -720 -8 -753Q-26 -758 -26 -777Q-26 -787 -18.5 -794.5Q-11 -802 -1 -802Q3 -802 6 -801Q128 -765 226.5 -684Q325 -603 376 -490Q378 -485 378 -480Q378 -440 334 -409Q315 -395 290 -383.5Q265 -372 234 -360Q203 -348 187 -340H197Q198 -340 199 -340Q282 -333 331 -322Q381 -311 415 -293V-294Q415 -381 431 -440Q428 -446 426 -452Q400 -508 394 -587Q391 -621 391 -639Q391 -658 398 -676.5Q405 -695 411 -704Q417 -713 428 -727Q443 -745 448 -755Q453 -765 463 -768L547 -792Q549 -793 552 -793L654 -802Q655 -802 656 -802Q656 -802 657 -802L753 -799Q763 -799 770 -791.5Q777 -784 777 -774Q777 -764 769.5 -756.5Q762 -749 752 -749Q752 -749 751 -749L657 -752L559 -743L487 -723Q481 -713 467 -696Q457 -683 452.5 -677Q448 -671 444.5 -661Q441 -651 441 -639Q441 -623 444 -587Q448 -539 459 -504Q472 -523 488 -536Q521 -562 566 -562Q568 -562 569 -562Q601 -558 626 -532Q657 -500 657 -459Q657 -455 656.5 -446.5Q656 -438 656 -434Q656 -394 649 -376Q639 -352 616 -341Q598 -332 572 -332Q571 -332 570 -332Q512 -337 470 -381Q465 -343 465 -294Q465 -279 466 -255Q500 -218 500 -167Q500 -130 488 -100Q484 -88 477 -82Q469 -75 458 -75Q442 -75 433 -90Q427 -99 424 -119Q418 -151 418 -195Q418 -210 417 -233Q384 -259 320 -274Q274 -284 196 -290ZM607 -459Q607 -480 590 -497Q578 -510 564 -512Q526 -511 503 -479Q493 -465 485 -444Q517 -387 573 -382Q587 -382 595 -386Q600 -388 602 -394Q606 -403 606 -434Q606 -437 606.5 -446Q607 -455 607 -459Z"/>
	<path fill="#daa520" d="M136 -321Q136 -320 136.5 -320Q137 -320 138 -320Q139 -320 140 -320H197Q246 -316 278 -312Q310 -308 359 -293.5Q408 -279 436 -257Q435 -279 435 -294Q435 -384 452 -441Q448 -450 444 -460Q420 -513 414 -589Q411 -622 411 -639Q411 -662 420 -680Q429 -698 444.5 -716.5Q460 -735 466 -746Q467 -748 469 -749L553 -773Q553 -773 554 -773L656 -782L752 -779Q757 -779 757 -774Q757 -769 752 -769L656 -772L555 -763L473 -740Q467 -728 451 -708Q441 -695 436 -688Q431 -681 426 -667.5Q421 -654 421 -639Q421 -623 424 -585Q430 -516 454 -464Q454 -463 455.5 -459.5Q457 -456 457 -455Q489 -542 566 -542Q566 -542 567 -542Q595 -539 616 -513.5Q637 -488 637 -459Q637 -455 636.5 -446.5Q636 -438 636 -434Q636 -398 630 -383Q618 -352 572 -352Q500 -358 459 -428Q445 -375 445 -294Q445 -278 446 -247Q480 -215 480 -167Q480 -134 469 -107Q465 -95 458 -95Q453 -95 449 -103Q446 -109 443 -123Q438 -152 438 -195Q438 -211 437 -242Q411 -266 363.5 -281.5Q316 -297 281 -301.5Q246 -306 197 -310H140Q139 -310 138 -310Q137 -310 136 -310Q133 -310 130 -312Q126 -314 126 -321Q126 -339 151 -355Q169 -366 223 -388Q292 -416 317 -433Q347 -455 348 -479Q300 -585 206.5 -661.5Q113 -738 -2 -772Q-6 -773 -6 -777Q-6 -782 -1 -782Q0 -782 0 -782Q118 -747 213 -668.5Q308 -590 358 -482Q358 -481 358 -480Q358 -450 323 -425Q297 -407 227 -379Q174 -358 157 -346Q136 -333 136 -321ZM627 -459Q627 -484 608.5 -506.5Q590 -529 566 -532Q492 -532 463 -442Q501 -368 572 -362Q611 -362 621 -387Q626 -400 626 -434Q626 -438 626.5 -446.5Q627 -455 627 -459ZM448 -195Q448 -159 452 -131Q455 -114 458 -106Q460 -109 461 -113Q470 -139 470 -167Q470 -204 447 -231Q448 -210 448 -195Z"/>
</svg>