<svg xmlns="http://www.w3.org/2000/svg" viewBox="0 -1024 1024 1024">
	<path fill="#000088" d="M25 -343Q25 -336 26.5 -321Q28 -306 28 -298Q28 -293 32 -281Q49 -235 83 -192Q93 -179 101 -172Q106 -179 112 -190Q123 -212 128 -232V-238Q128 -248 135.5 -255.5Q143 -263 153 -263Q163 -263 170.5 -255.5Q178 -248 178 -238V-232Q178 -228 177 -221Q175 -215 173 -207Q157 -157 135 -135Q120 -120 102 -120Q92 -120 82 -126Q73 -130 64 -139Q47 -155 28 -183Q5 -217 -9 -250Q-22 -280 -22 -298Q-22 -305 -23.5 -320Q-25 -335 -25 -343Q-25 -372 -11 -405Q1 -433 19 -451Q46 -479 78 -479Q169 -479 231 -429Q310 -366 310 -253Q310 -220 293 -171Q343 -202 370 -229Q410 -269 410 -310Q410 -341 403 -367.5Q396 -394 386 -413.5Q376 -433 356.5 -452Q337 -471 321 -483.5Q305 -496 275.5 -511Q246 -526 227.5 -534.5Q209 -543 174 -558Q131 -577 109.5 -586.5Q88 -596 55 -615Q22 -634 -1 -654Q-10 -662 -10 -673Q-10 -675 -10 -677L8 -785Q10 -794 17 -800Q24 -806 33 -806Q43 -806 50.5 -798.5Q58 -791 58 -781Q58 -779 58 -777L42 -683Q84 -651 193 -604Q222 -592 235.5 -586Q249 -580 276 -567Q303 -554 317.5 -544.5Q332 -535 354.5 -519.5Q377 -504 389.5 -490Q402 -476 417.5 -455.5Q433 -435 441 -414Q449 -393 454.5 -366.5Q460 -340 460 -310Q460 -248 405 -193Q368 -156 278 -104Q264 -96 257 -92Q247 -74 237 -61Q230 -52 224 -47Q213 -39 202 -39Q188 -39 180.5 -49Q173 -59 173 -73Q173 -85 181 -96Q187 -104 198 -113Q207 -120 220 -128Q224 -136 228 -145Q260 -213 260 -253Q260 -342 199 -390Q151 -429 78 -429Q63 -429 47 -406Q25 -374 25 -343Z"/>
	<path fill="#800080" d="M75 -343Q75 -336 76.5 -321Q78 -306 78 -298Q78 -293 82 -281Q99 -235 133 -192Q143 -179 151 -172Q156 -179 162 -190Q173 -212 178 -232V-238Q178 -248 185.5 -255.5Q193 -263 203 -263Q213 -263 220.5 -255.5Q228 -248 228 -238V-232Q228 -228 227 -221Q225 -215 223 -207Q207 -157 185 -135Q170 -120 152 -120Q142 -120 132 -126Q123 -130 114 -139Q97 -155 78 -183Q55 -217 41 -250Q28 -280 28 -298Q28 -305 26.5 -320Q25 -335 25 -343Q25 -372 39 -405Q51 -433 69 -451Q96 -479 128 -479Q219 -479 281 -429Q360 -366 360 -253Q360 -220 343 -171Q393 -202 420 -229Q460 -269 460 -310Q460 -341 453 -367.5Q446 -394 436 -413.5Q426 -433 406.5 -452Q387 -471 371 -483.5Q355 -496 325.5 -511Q296 -526 277.5 -534.5Q259 -543 224 -558Q181 -577 159.5 -586.5Q138 -596 105 -615Q72 -634 49 -654Q40 -662 40 -673Q40 -675 40 -677L58 -785Q60 -794 67 -800Q74 -806 83 -806Q93 -806 100.5 -798.5Q108 -791 108 -781Q108 -779 108 -777L92 -683Q134 -651 243 -604Q272 -592 285.5 -586Q299 -580 326 -567Q353 -554 367.5 -544.5Q382 -535 404.5 -519.5Q427 -504 439.5 -490Q452 -476 467.5 -455.5Q483 -435 491 -414Q499 -393 504.5 -366.5Q510 -340 510 -310Q510 -248 455 -193Q418 -156 328 -104Q314 -96 307 -92Q297 -74 287 -61Q280 -52 274 -47Q263 -39 252 -39Q238 -39 230.5 -49Q223 -59 223 -73Q223 -85 231 -96Q237 -104 248 -113Q257 -120 270 -128Q274 -136 278 -145Q310 -213 310 -253Q310 -342 249 -390Q201 -429 128 -429Q113 -429 97 -406Q75 -374 75 -343Z"/>
	<path fill="#daa520" d="M55 -343Q55 -335 56.5 -320.5Q58 -306 58 -298Q58 -285 71.5 -256Q85 -227 103 -200Q120 -174 134 -161Q146 -150 152 -150Q164 -150 180 -180Q187 -195 192.5 -211.5Q198 -228 198 -232V-238Q198 -243 203 -243Q208 -243 208 -238V-232Q208 -214 189 -176Q170 -140 152 -140Q142 -140 127 -154Q104 -176 76 -225Q48 -274 48 -298Q48 -305 46.5 -320Q45 -335 45 -343Q45 -365 55.5 -392Q66 -419 84 -437Q104 -459 128 -459Q222 -459 281 -402Q340 -345 340 -253Q340 -202 301 -123Q304 -125 311 -129Q341 -146 357.5 -156Q374 -166 401 -186Q428 -206 442.5 -222.5Q457 -239 468.5 -262.5Q480 -286 480 -310Q480 -343 472 -372.5Q464 -402 453.5 -423.5Q443 -445 421 -465.5Q399 -486 382.5 -499Q366 -512 335 -528.5Q304 -545 285.5 -553Q267 -561 232 -576Q190 -594 168 -604Q146 -614 114.5 -632.5Q83 -651 62 -669Q60 -671 60 -673Q60 -673 60 -674L78 -782Q79 -786 83 -786Q88 -786 88 -781Q88 -781 88 -780L70 -675Q91 -657 121.5 -640Q152 -623 173.5 -613Q195 -603 236 -586Q271 -570 289.5 -562Q308 -554 340 -537Q372 -520 389 -507Q406 -494 428.5 -472Q451 -450 462 -428Q473 -406 481.5 -375.5Q490 -345 490 -310Q490 -284 477.5 -259Q465 -234 450.5 -216.5Q436 -199 407.5 -178.5Q379 -158 363.5 -148.5Q348 -139 318 -121Q300 -111 292 -106Q281 -86 271 -73Q260 -59 252 -59Q243 -59 243 -73Q243 -84 261 -97Q269 -104 285 -114Q303 -147 316.5 -186.5Q330 -226 330 -253Q330 -341 274.5 -395Q219 -449 128 -449Q109 -449 91 -430Q75 -414 65 -388.5Q55 -363 55 -343ZM253 -73Q253 -71 253 -69Q262 -75 274 -95Q270 -92 267 -90Q253 -79 253 -73Z"/>
</svg>