<svg xmlns="http://www.w3.org/2000/svg" viewBox="0 -1024 1024 1024">
	<path fill="#000088" d="M312 -779Q255 -779 140 -768.5Q25 -758 -33 -758H-51Q-61 -758 -68.5 -765.5Q-76 -773 -76 -783Q-76 -793 -68.5 -800.5Q-61 -808 -51 -808H-33Q24 -808 139 -818.5Q254 -829 312 -829Q322 -829 370.5 -822Q419 -815 439 -810Q454 -807 459 -803Q464 -806 469 -806L598 -814Q599 -814 600 -814Q610 -814 617.5 -806.5Q625 -799 625 -789Q625 -779 618 -772Q611 -765 602 -764L491 -757L426 -516Q397 -407 397 -339Q397 -332 397 -325Q398 -302 398 -259V-256V-253Q398 -196 400 -167Q401 -153 403 -140Q412 -130 419 -122Q433 -106 439 -98Q447 -87 450 -80Q451 -75 451 -70Q451 -57 441 -49Q434 -44 425 -44Q421 -44 417 -45Q384 -53 367 -91Q361 -103 357 -118Q293 -197 230 -248Q183 -286 156.5 -306Q130 -326 87 -351Q44 -376 7 -387Q-2 -385 -24 -384Q-44 -383 -51 -383Q-61 -383 -68.5 -390.5Q-76 -398 -76 -408Q-76 -420 -67 -427Q-48 -443 -24 -443Q-13 -443 7 -438Q52 -450 94 -473Q136 -496 178 -534Q220 -572 247 -601Q274 -630 319 -681Q371 -740 397 -767Q359 -774 312 -779ZM347 -339Q347 -414 378 -528L432 -732Q407 -705 357 -648Q316 -601 294.5 -578Q273 -555 234.5 -517.5Q196 -480 159 -454.5Q122 -429 82 -412Q112 -397 146 -374Q180 -351 199 -336.5Q218 -322 256 -291Q305 -251 348 -205Q348 -222 348 -253V-256V-259Q348 -301 347 -323Q347 -331 347 -339Z"/>
	<path fill="#800080" d="M362 -779Q305 -779 190 -768.5Q75 -758 17 -758H-1Q-11 -758 -18.5 -765.5Q-26 -773 -26 -783Q-26 -793 -18.5 -800.5Q-11 -808 -1 -808H17Q74 -808 189 -818.5Q304 -829 362 -829Q372 -829 420.5 -822Q469 -815 489 -810Q504 -807 509 -803Q514 -806 519 -806L648 -814Q649 -814 650 -814Q660 -814 667.5 -806.5Q675 -799 675 -789Q675 -779 668 -772Q661 -765 652 -764L541 -757L476 -516Q447 -407 447 -339Q447 -332 447 -325Q448 -302 448 -259V-256V-253Q448 -196 450 -167Q451 -153 453 -140Q462 -130 469 -122Q483 -106 489 -98Q497 -87 500 -80Q501 -75 501 -70Q501 -57 491 -49Q484 -44 475 -44Q471 -44 467 -45Q434 -53 417 -91Q411 -103 407 -118Q343 -197 280 -248Q233 -286 206.5 -306Q180 -326 137 -351Q94 -376 57 -387Q48 -385 26 -384Q6 -383 -1 -383Q-11 -383 -18.5 -390.5Q-26 -398 -26 -408Q-26 -420 -17 -427Q2 -443 26 -443Q37 -443 57 -438Q102 -450 144 -473Q186 -496 228 -534Q270 -572 297 -601Q324 -630 369 -681Q421 -740 447 -767Q409 -774 362 -779ZM397 -339Q397 -414 428 -528L482 -732Q457 -705 407 -648Q366 -601 344.5 -578Q323 -555 284.5 -517.5Q246 -480 209 -454.5Q172 -429 132 -412Q162 -397 196 -374Q230 -351 249 -336.5Q268 -322 306 -291Q355 -251 398 -205Q398 -222 398 -253V-256V-259Q398 -301 397 -323Q397 -331 397 -339Z"/>
	<path fill="#daa520" d="M362 -799Q303 -800 187.5 -789Q72 -778 17 -778H-1Q-6 -778 -6 -783Q-6 -788 -1 -788H17Q74 -788 189 -798.5Q304 -809 362 -809Q369 -809 418.5 -802Q468 -795 484 -791Q496 -788 499 -786Q501 -784 501 -781Q501 -779 499 -777Q463 -743 405.5 -678Q348 -613 307 -567.5Q266 -522 203 -476.5Q140 -431 76 -412Q114 -400 158.5 -373.5Q203 -347 226.5 -328.5Q250 -310 299 -271Q360 -221 422 -148Q418 -177 418 -253V-259Q418 -301 417 -324Q417 -331 417 -339Q417 -411 447 -523L516 -782Q517 -786 521 -786L650 -794Q655 -794 655 -789Q655 -784 650 -784L525 -776L457 -521Q427 -410 427 -339Q427 -332 427 -324Q428 -302 428 -259V-253Q428 -195 430 -165Q431 -147 435 -132Q448 -116 453 -109Q467 -93 473 -86Q481 -75 481 -70Q481 -64 475 -64Q473 -64 472 -64Q438 -73 425 -127Q359 -210 293 -263Q242 -304 216 -324Q190 -344 144 -370.5Q98 -397 57 -407Q54 -407 51 -406Q37 -403 -1 -403Q-6 -403 -6 -408Q-6 -410 -4 -412Q10 -423 26 -423Q36 -423 57 -418Q110 -431 160 -460Q210 -489 253.5 -530Q297 -571 333 -610.5Q369 -650 412.5 -700Q456 -750 488 -780Q468 -785 424.5 -792Q381 -799 362 -799ZM467 -76Q463 -83 443 -106Q453 -84 467 -76Z"/>
</svg>