<svg xmlns="http://www.w3.org/2000/svg" viewBox="0 -1024 1024 1024">
	<path fill="#000088" d="M82 -746Q63 -753 33 -753L-49 -749Q-50 -749 -50 -749Q-60 -749 -67.5 -756.5Q-75 -764 -75 -774Q-75 -784 -68 -791Q-61 -798 -51 -799L31 -803Q31 -803 32 -803Q59 -803 82 -798Q101 -794 115 -787Q132 -797 154 -797Q163 -797 172 -792Q179 -789 188 -782Q198 -775 217 -756Q227 -746 230 -743Q236 -738 238 -730L258 -654Q259 -652 259 -650L265 -578Q265 -577 265 -576Q265 -575 265 -573L259 -519Q259 -517 258 -515L246 -473Q226 -399 226 -309Q226 -264 231 -215Q232 -202 245 -172Q263 -131 263 -110Q263 -100 255.5 -92.5Q248 -85 238 -85Q228 -85 220.5 -92.5Q213 -100 213 -110L212 -107Q206 -116 192 -125Q185 -130 179 -133Q138 -132 127 -122Q124 -119 119 -117Q114 -115 103 -107Q84 -93 70 -90Q65 -88 52 -81Q24 -65 6 -65Q-19 -65 -35 -81Q-46 -92 -55 -115Q-59 -126 -61 -128Q-67 -135 -67 -144Q-67 -154 -60 -162L-54 -168Q-46 -175 -36 -175Q-26 -175 -18.5 -167.5Q-11 -160 -11 -150Q-11 -146 -12 -142Q-2 -119 -2 -118Q0 -116 1 -116Q3 -115 6 -115Q11 -115 27 -124Q46 -135 58 -138Q62 -139 75 -148Q88 -157 96 -161Q112 -174 130 -178Q148 -182 179 -183Q180 -183 180 -183Q184 -183 187 -182Q182 -197 181 -209Q176 -262 176 -309Q176 -410 198 -487L209 -527L215 -576L209 -644L192 -710Q189 -712 182 -720Q160 -742 151 -747Q150 -747 149 -747Q151 -738 151 -730Q151 -704 135 -688Q123 -675 106 -675Q93 -675 85 -682Q75 -690 75 -704Q75 -705 75 -707Q75 -709 75 -710Q75 -729 82 -746Z"/>
	<path fill="#800080" d="M132 -746Q113 -753 83 -753L1 -749Q0 -749 0 -749Q-10 -749 -17.5 -756.5Q-25 -764 -25 -774Q-25 -784 -18 -791Q-11 -798 -1 -799L81 -803Q81 -803 82 -803Q109 -803 132 -798Q151 -794 165 -787Q182 -797 204 -797Q213 -797 222 -792Q229 -789 238 -782Q248 -775 267 -756Q277 -746 280 -743Q286 -738 288 -730L308 -654Q309 -652 309 -650L315 -578Q315 -577 315 -576Q315 -575 315 -573L309 -519Q309 -517 308 -515L296 -473Q276 -399 276 -309Q276 -264 281 -215Q282 -202 295 -172Q313 -131 313 -110Q313 -100 305.5 -92.5Q298 -85 288 -85Q278 -85 270.5 -92.5Q263 -100 263 -110L262 -107Q256 -116 242 -125Q235 -130 229 -133Q188 -132 177 -122Q174 -119 169 -117Q164 -115 153 -107Q134 -93 120 -90Q115 -88 102 -81Q74 -65 56 -65Q31 -65 15 -81Q4 -92 -5 -115Q-9 -126 -11 -128Q-17 -135 -17 -144Q-17 -154 -10 -162L-4 -168Q4 -175 14 -175Q24 -175 31.5 -167.5Q39 -160 39 -150Q39 -146 38 -142Q48 -119 48 -118Q50 -116 51 -116Q53 -115 56 -115Q61 -115 77 -124Q96 -135 108 -138Q112 -139 125 -148Q138 -157 146 -161Q162 -174 180 -178Q198 -182 229 -183Q230 -183 230 -183Q234 -183 237 -182Q232 -197 231 -209Q226 -262 226 -309Q226 -410 248 -487L259 -527L265 -576L259 -644L242 -710Q239 -712 232 -720Q210 -742 201 -747Q200 -747 199 -747Q201 -738 201 -730Q201 -704 185 -688Q173 -675 156 -675Q143 -675 135 -682Q125 -690 125 -704Q125 -705 125 -707Q125 -709 125 -710Q125 -729 132 -746Z"/>
	<path fill="#daa520" d="M145 -704Q145 -705 145 -707Q145 -709 145 -710Q145 -736 159 -754Q136 -773 82 -773L0 -769Q-5 -769 -5 -774Q-5 -779 0 -779L82 -783Q141 -783 166 -762Q181 -777 204 -777Q212 -777 225 -767Q234 -760 253 -742Q264 -731 267 -728Q268 -727 269 -725L289 -649Q289 -649 289 -648L295 -576Q295 -576 295 -575L289 -521L277 -479Q256 -402 256 -309Q256 -263 261 -213Q263 -197 277 -164Q293 -127 293 -110Q293 -105 288 -105Q283 -105 283 -110Q283 -117 266 -132Q242 -153 230 -153Q212 -153 204 -152Q196 -151 183.5 -147.5Q171 -144 163 -136Q163 -136 162 -135Q155 -133 140 -122.5Q125 -112 115 -109Q109 -107 89 -96Q69 -85 56 -85Q43 -85 33.5 -92Q24 -99 21 -105Q18 -111 13 -122Q8 -136 4 -141Q3 -142 3 -144Q3 -146 4 -148L10 -154Q12 -155 14 -155Q19 -155 19 -150Q19 -148 15 -144Q18 -138 23.5 -123.5Q29 -109 36 -102Q43 -95 56 -95Q66 -95 87 -107Q104 -116 113 -119Q121 -121 136 -132Q149 -141 157 -144Q177 -163 230 -163Q248 -163 278 -135Q278 -135 265.5 -165.5Q253 -196 251 -211Q246 -263 246 -309Q246 -404 267 -481L279 -523L285 -576L279 -647L260 -721Q254 -726 240 -739.5Q226 -753 219 -759Q209 -767 204 -767Q186 -767 173 -755Q181 -744 181 -730Q181 -718 175 -706.5Q169 -695 156 -695Q151 -695 149 -696Q145 -698 145 -704ZM155 -705Q155 -705 156 -705Q171 -705 171 -730Q171 -739 166 -747Q155 -731 155 -710Q155 -708 155 -705Z"/>
</svg>