<svg xmlns="http://www.w3.org/2000/svg" viewBox="0 -1024 1024 1024">
	<path fill="#000088" d="M313 -834Q313 -843 313 -861.5Q313 -880 313 -889Q300 -898 284 -908Q268 -917 250 -927Q230 -927 221 -923Q207 -917 191 -899Q172 -878 140 -878Q89 -878 57 -918Q39 -940 39 -965Q39 -966 39 -966.5Q39 -967 39 -968Q39 -978 46.5 -985Q54 -992 64 -992Q74 -992 81.5 -984.5Q89 -977 89 -967Q89 -967 89 -966.5Q89 -966 89 -965Q89 -957 96 -949Q103 -940 116.5 -934Q130 -928 140 -928Q150 -928 153 -931Q177 -958 201 -969Q221 -977 253 -977Q253 -977 254 -977Q255 -977 256 -977Q262 -977 268 -974Q294 -960 317 -946Q335 -935 344 -928Q355 -921 359 -914Q363 -907 363 -900Q363 -897 363 -893Q363 -882 363 -863Q363 -844 363 -834Q363 -811 364 -802Q370 -803 376 -805Q404 -813 429 -813Q481 -813 516.5 -779Q552 -745 572 -693Q598 -726 662 -769Q694 -791 712 -805Q719 -810 727 -810Q737 -810 744.5 -802.5Q752 -795 752 -785Q752 -773 742 -765Q724 -751 690 -728Q663 -709 648.5 -698.5Q634 -688 617.5 -670Q601 -652 590 -630Q594 -611 596.5 -591.5Q599 -572 600 -560.5Q601 -549 602.5 -523Q604 -497 605 -488Q608 -438 608 -419Q608 -383 591 -291Q577 -212 565 -172Q563 -164 557 -142.5Q551 -121 547 -111Q544 -97 542 -92Q540 -88 538 -85Q536 -82 534 -79Q527 -73 517 -73Q502 -73 495 -86Q479 -115 469 -162Q466 -172 460 -190.5Q454 -209 450.5 -226Q447 -243 447 -261Q447 -263 447 -268Q447 -273 447 -275Q447 -284 444 -303.5Q441 -323 441 -333Q441 -339 441 -343Q445 -385 458.5 -427Q472 -469 492 -517Q512 -565 520 -592Q528 -616 537 -636Q522 -695 496 -728Q468 -763 429 -763Q411 -763 392 -757Q372 -751 360 -751Q340 -751 328 -764Q320 -773 316 -787Q313 -801 313 -834ZM515 -181Q516 -184 517 -186Q528 -223 542 -300Q558 -388 558 -419Q558 -440 555 -482Q552 -524 552 -532Q550 -526 534.5 -488Q519 -450 514 -434.5Q509 -419 501 -390.5Q493 -362 491 -339Q491 -336 491 -333Q491 -325 494 -305.5Q497 -286 497 -275Q497 -273 497 -268Q497 -263 497 -261Q497 -250 500 -236.5Q503 -223 508.5 -205Q514 -187 515 -181ZM245 -810Q245 -810 246 -810L370 -806Q380 -806 387 -798.5Q394 -791 394 -781Q394 -771 386.5 -763.5Q379 -756 369 -756Q369 -756 368 -756L244 -760Q234 -760 227 -767.5Q220 -775 220 -785Q220 -795 227.5 -802.5Q235 -810 245 -810ZM1 -341Q1 -329 2 -309Q3 -289 3 -283Q6 -196 18 -162Q24 -178 41 -178Q44 -178 47 -177L95 -165Q107 -162 112 -151Q113 -148 128 -115Q130 -110 130 -105Q130 -92 124 -83Q115 -70 99 -66Q91 -64 80 -64Q79 -64 78 -64Q77 -64 77 -64Q39 -64 12 -84Q-22 -109 -35 -165Q-41 -188 -43.5 -211.5Q-46 -235 -46.5 -269Q-47 -303 -48 -315.5Q-49 -328 -49 -341Q-49 -473 43 -637Q44 -638 44 -639Q78 -691 138 -760H-51Q-61 -760 -68.5 -767.5Q-76 -775 -76 -785Q-76 -795 -68.5 -802.5Q-61 -810 -51 -810H193Q203 -810 210.5 -802.5Q218 -795 218 -785Q218 -775 212 -768Q209 -766 195 -750Q181 -734 177.5 -730Q174 -726 161.5 -711.5Q149 -697 144 -691Q139 -685 129 -672.5Q119 -660 113 -652Q107 -644 99.5 -633Q92 -622 86 -612Q1 -469 1 -341ZM74 -114Q72 -118 71 -120L37 -128Q51 -115 74 -114Z"/>
	<path fill="#800080" d="M619 -539Q621 -539 624.5 -538.5Q628 -538 630 -538Q646 -538 657 -549Q665 -557 672 -571.5Q679 -586 682.5 -597Q686 -608 691.5 -629Q697 -650 699 -657Q703 -671 703 -682Q703 -704 687 -719Q672 -732 646 -740Q616 -749 579 -749Q537 -740 518 -706Q504 -681 498 -638Q498 -638 497 -637Q493 -617 493 -599Q493 -573 502 -549Q511 -525 530.5 -501Q550 -477 567.5 -460Q585 -443 616 -416Q644 -392 656 -381.5Q668 -371 691 -346.5Q714 -322 725 -303.5Q736 -285 745 -257.5Q754 -230 754 -202Q754 -181 751 -168Q731 -80 669 -69Q644 -65 635 -65Q624 -65 615 -67.5Q606 -70 597 -74.5Q588 -79 583 -80Q579 -82 576 -84L550 -104Q540 -112 540 -124Q540 -134 547.5 -141.5Q555 -149 565 -149Q573 -149 580 -144L603 -126Q606 -125 613 -122Q620 -119 625 -117Q630 -115 634.5 -115Q639 -115 661 -119Q689 -124 702 -179Q704 -191 704 -202Q704 -227 695.5 -250Q687 -273 668 -296Q649 -319 631.5 -335.5Q614 -352 584 -379Q556 -403 543.5 -414Q531 -425 507.5 -450Q484 -475 473 -494.5Q462 -514 452.5 -542Q443 -570 443 -599Q443 -622 448 -646Q456 -698 474 -731Q506 -786 572 -799Q575 -799 577 -799Q630 -799 673.5 -783.5Q717 -768 738 -736Q753 -712 753 -682Q753 -663 747 -643Q744 -635 739.5 -617.5Q735 -600 731 -586.5Q727 -573 722 -560Q709 -531 692 -514Q666 -488 630 -488Q624 -488 617 -489H609Q599 -489 591.5 -496.5Q584 -504 584 -514Q584 -524 591.5 -531.5Q599 -539 609 -539ZM295 -810Q295 -810 296 -810L420 -806Q430 -806 437 -798.5Q444 -791 444 -781Q444 -771 436.5 -763.5Q429 -756 419 -756Q419 -756 418 -756L294 -760Q284 -760 277 -767.5Q270 -775 270 -785Q270 -795 277.5 -802.5Q285 -810 295 -810ZM51 -341Q51 -329 52 -309Q53 -289 53 -283Q56 -196 68 -162Q74 -178 91 -178Q94 -178 97 -177L145 -165Q157 -162 162 -151Q163 -148 178 -115Q180 -110 180 -105Q180 -92 174 -83Q165 -70 149 -66Q141 -64 130 -64Q129 -64 128 -64Q127 -64 127 -64Q89 -64 62 -84Q28 -109 15 -165Q9 -188 6.5 -211.5Q4 -235 3.5 -269Q3 -303 2 -315.5Q1 -328 1 -341Q1 -473 93 -637Q94 -638 94 -639Q128 -691 188 -760H-1Q-11 -760 -18.5 -767.5Q-26 -775 -26 -785Q-26 -795 -18.5 -802.5Q-11 -810 -1 -810H243Q253 -810 260.5 -802.5Q268 -795 268 -785Q268 -775 262 -768Q259 -766 245 -750Q231 -734 227.5 -730Q224 -726 211.5 -711.5Q199 -697 194 -691Q189 -685 179 -672.5Q169 -660 163 -652Q157 -644 149.5 -633Q142 -622 136 -612Q51 -469 51 -341ZM124 -114Q122 -118 121 -120L87 -128Q101 -115 124 -114Z"/>
	<path fill="#daa520" d="M383 -834Q383 -844 383 -863Q383 -882 383 -893Q383 -896 383 -899Q373 -910 305 -947Q304 -947 303 -947Q286 -947 277 -945.5Q268 -944 254 -936Q240 -928 226 -912Q213 -898 190 -898Q162 -898 135.5 -918Q109 -938 109 -965Q109 -966 109 -966.5Q109 -967 109 -967Q109 -972 114 -972Q119 -972 119 -967Q119 -967 119 -966.5Q119 -966 119 -965Q119 -943 142 -925.5Q165 -908 190 -908Q209 -908 218 -918Q234 -936 250 -945Q266 -954 276.5 -955.5Q287 -957 306 -957Q307 -957 308 -956Q334 -943 356 -929Q374 -919 383 -912Q387 -909 390 -906Q393 -903 393 -900Q393 -897 393 -893Q393 -882 393 -863Q393 -844 393 -834Q393 -802 396 -791.5Q399 -781 410 -781Q418 -781 432 -786Q457 -793 479 -793Q577 -793 615 -647Q629 -671 648 -691.5Q667 -712 681 -723Q695 -734 723 -753Q756 -775 774 -789Q775 -790 777 -790Q782 -790 782 -785Q782 -783 780 -781Q762 -767 729 -745Q699 -724 684.5 -713Q670 -702 651 -680.5Q632 -659 619 -633Q623 -614 626 -593Q629 -572 630 -561Q631 -550 632.5 -522.5Q634 -495 635 -487Q638 -437 638 -419Q638 -385 622 -295Q607 -216 596 -178Q595 -176 586.5 -145.5Q578 -115 574 -101Q572 -96 571 -95Q571 -93 567 -93Q564 -93 563 -96Q548 -122 538 -166Q538 -168 527.5 -204Q517 -240 517 -261Q517 -263 517 -268Q517 -273 517 -275Q517 -285 514 -304Q511 -323 511 -333Q511 -338 511 -341Q515 -381 528 -422.5Q541 -464 561 -512Q581 -560 589 -586Q598 -612 608 -634Q593 -700 561 -741.5Q529 -783 479 -783Q458 -783 436 -776Q419 -771 410 -771Q393 -771 388 -785.5Q383 -800 383 -834ZM527 -275Q527 -273 527 -268Q527 -263 527 -261Q527 -242 537 -206.5Q547 -171 548 -168Q556 -133 566 -111Q569 -121 576.5 -147.5Q584 -174 586 -180Q597 -219 612 -297Q628 -386 628 -419Q628 -437 625 -486Q618 -587 612 -617Q605 -601 599 -582Q591 -557 571 -509Q551 -461 538 -420Q525 -379 521 -341Q521 -337 521 -333Q521 -324 524 -304.5Q527 -285 527 -275ZM290 -785Q290 -790 295 -790L419 -786Q424 -786 424 -781Q424 -776 419 -776L295 -780Q290 -780 290 -785ZM31 -341Q31 -329 32 -309Q33 -289 33 -283Q34 -255 35 -239Q36 -223 39 -197.5Q42 -172 48.5 -156.5Q55 -141 64.5 -125Q74 -109 90 -101.5Q106 -94 127 -94Q149 -94 150 -104Q139 -129 135 -137L90 -148Q86 -149 86 -153Q86 -158 91 -158Q92 -158 92 -158L140 -146Q143 -145 144 -143Q160 -107 160 -105Q160 -84 128 -84Q127 -84 127 -84Q106 -84 90 -91.5Q74 -99 63.5 -109Q53 -119 45.5 -137.5Q38 -156 34 -170Q30 -184 27.5 -209Q25 -234 24.5 -246Q24 -258 23 -282Q23 -289 22 -309Q21 -329 21 -341Q21 -468 111 -627Q111 -628 111 -628Q150 -688 232 -780H-1Q-6 -780 -6 -785Q-6 -790 -1 -790H243Q248 -790 248 -785Q248 -783 247 -782Q244 -779 230 -763Q216 -747 212 -742.5Q208 -738 195.5 -724Q183 -710 178 -703.5Q173 -697 162.5 -684.5Q152 -672 146 -663.5Q140 -655 132.5 -644Q125 -633 119 -622Q31 -474 31 -341Z"/>
</svg>