<svg xmlns="http://www.w3.org/2000/svg" viewBox="0 -1024 1024 1024">
	<path fill="#000088" d="M-152 -84Q-152 -73 -160 -66Q-168 -59 -178 -59Q-185 -59 -190 -61L-373 6L-304 8Q-299 8 -295 10L-229 40Q-227 41 -226 42L-178 72Q-166 79 -166 93Q-166 103 -173.5 110.5Q-181 118 -191 118Q-198 118 -204 114L-251 85L-311 58L-504 52Q-514 52 -521 44.5Q-528 37 -528 27Q-528 10 -512 4L-204 -109Q-196 -119 -183 -119Q-171 -119 -163 -112.5Q-155 -106 -154 -95Q-152 -90 -152 -84Z"/>
	<path fill="#800080" d="M-102 -84Q-102 -73 -110 -66Q-118 -59 -128 -59Q-135 -59 -140 -61L-323 6L-254 8Q-249 8 -245 10L-179 40Q-177 41 -176 42L-128 72Q-116 79 -116 93Q-116 103 -123.5 110.5Q-131 118 -141 118Q-148 118 -154 114L-201 85L-261 58L-454 52Q-464 52 -471 44.5Q-478 37 -478 27Q-478 10 -462 4L-154 -109Q-146 -119 -133 -119Q-121 -119 -113 -112.5Q-105 -106 -104 -95Q-102 -90 -102 -84Z"/>
	<path fill="#daa520" d="M-133 -99Q-124 -99 -124 -93Q-124 -91 -125 -90Q-122 -87 -122 -84Q-122 -79 -128 -79Q-132 -79 -141 -82L-427 23L-255 28Q-254 28 -253 28L-187 58Q-187 59 -186 59L-138 89Q-136 90 -136 93Q-136 98 -141 98Q-142 98 -144 97L-191 67L-256 38L-453 32Q-458 32 -458 27Q-458 24 -455 22L-143 -92Q-142 -92 -141 -92Q-140 -92 -139 -92Q-140 -92 -140 -93Q-140 -99 -133 -99Z"/>
</svg>