<svg xmlns="http://www.w3.org/2000/svg" viewBox="0 -1024 1024 1024">
	<path fill="#000088" d="M73 -587Q76 -587 81 -586.5Q86 -586 88 -586Q122 -586 156 -610Q191 -635 226 -686Q233 -696 239 -701Q248 -708 259 -708Q276 -708 284 -692Q288 -684 288 -674Q288 -645 279.5 -617Q271 -589 261.5 -569.5Q252 -550 231.5 -525Q211 -500 200 -488Q189 -476 165 -452Q112 -400 94 -372Q90 -367 85 -364L68 -355Q179 -327 246 -278Q246 -290 246 -305Q246 -308 246 -313Q246 -318 246 -320Q247 -405 269 -477Q278 -505 292 -566.5Q306 -628 321.5 -671Q337 -714 363 -750Q379 -774 405 -794Q435 -815 460 -815Q475 -815 488 -807Q500 -800 500 -786Q500 -776 492.5 -768.5Q485 -761 475 -761Q468 -761 462 -765Q461 -765 460 -765Q451 -765 435 -753Q416 -739 403 -722Q388 -700 375 -668Q362 -636 355.5 -612Q349 -588 339 -546Q325 -490 317 -463Q297 -397 296 -320Q296 -319 296 -317Q296 -315 296 -314Q296 -308 296 -305Q296 -259 298 -229Q325 -196 337 -157Q339 -151 339 -142Q339 -139 338.5 -134.5Q338 -130 338 -128Q338 -111 334 -95Q332 -84 327 -78Q318 -67 305 -67Q294 -67 285.5 -74Q277 -81 274 -93Q273 -100 273 -108Q273 -109 273 -109.5Q273 -110 273 -110Q273 -111 273 -113.5Q273 -116 273 -117Q273 -124 272 -129Q256 -153 250 -209Q230 -229 203 -247Q136 -290 26 -313H15L-23 -307Q-25 -307 -27 -307Q-37 -307 -44.5 -314.5Q-52 -322 -52 -332Q-52 -347 -39 -354L56 -405Q74 -432 137.5 -496Q201 -560 220 -600Q157 -536 88 -536Q80 -536 72 -537Q20 -537 -7 -549Q-38 -561 -52 -589Q-64 -611 -64 -644Q-64 -680 -51 -711Q-47 -719 -42 -727Q-69 -749 -77 -777Q-78 -780 -78 -784Q-78 -794 -70.5 -801.5Q-63 -809 -53 -809Q-34 -809 -29 -791Q-25 -777 -9 -765Q23 -789 65 -789Q72 -789 80 -787Q87 -785 93 -781Q108 -772 108 -756Q108 -721 82 -705Q66 -695 45 -695Q25 -695 1 -703Q-14 -677 -14 -644Q-14 -624 -8 -612Q-2 -600 12 -595Q30 -587 73 -587Z"/>
	<path fill="#800080" d="M123 -587Q126 -587 131 -586.5Q136 -586 138 -586Q172 -586 206 -610Q241 -635 276 -686Q283 -696 289 -701Q298 -708 309 -708Q326 -708 334 -692Q338 -684 338 -674Q338 -645 329.5 -617Q321 -589 311.5 -569.5Q302 -550 281.5 -525Q261 -500 250 -488Q239 -476 215 -452Q162 -400 144 -372Q140 -367 135 -364L118 -355Q229 -327 296 -278Q296 -290 296 -305Q296 -308 296 -313Q296 -318 296 -320Q297 -405 319 -477Q328 -505 342 -566.5Q356 -628 371.5 -671Q387 -714 413 -750Q429 -774 455 -794Q485 -815 510 -815Q525 -815 538 -807Q550 -800 550 -786Q550 -776 542.5 -768.5Q535 -761 525 -761Q518 -761 512 -765Q511 -765 510 -765Q501 -765 485 -753Q466 -739 453 -722Q438 -700 425 -668Q412 -636 405.5 -612Q399 -588 389 -546Q375 -490 367 -463Q347 -397 346 -320Q346 -319 346 -317Q346 -315 346 -314Q346 -308 346 -305Q346 -259 348 -229Q375 -196 387 -157Q389 -151 389 -142Q389 -139 388.5 -134.5Q388 -130 388 -128Q388 -111 384 -95Q382 -84 377 -78Q368 -67 355 -67Q344 -67 335.5 -74Q327 -81 324 -93Q323 -100 323 -108Q323 -109 323 -109.5Q323 -110 323 -110Q323 -111 323 -113.5Q323 -116 323 -117Q323 -124 322 -129Q306 -153 300 -209Q280 -229 253 -247Q186 -290 76 -313H65L27 -307Q25 -307 23 -307Q13 -307 5.5 -314.5Q-2 -322 -2 -332Q-2 -347 11 -354L106 -405Q124 -432 187.5 -496Q251 -560 270 -600Q207 -536 138 -536Q130 -536 122 -537Q70 -537 43 -549Q12 -561 -2 -589Q-14 -611 -14 -644Q-14 -680 -1 -711Q3 -719 8 -727Q-19 -749 -27 -777Q-28 -780 -28 -784Q-28 -794 -20.5 -801.5Q-13 -809 -3 -809Q16 -809 21 -791Q25 -777 41 -765Q73 -789 115 -789Q122 -789 130 -787Q137 -785 143 -781Q158 -772 158 -756Q158 -721 132 -705Q116 -695 95 -695Q75 -695 51 -703Q36 -677 36 -644Q36 -624 42 -612Q48 -600 62 -595Q80 -587 123 -587Z"/>
	<path fill="#daa520" d="M115 -759Q78 -759 52 -735Q74 -726 95 -725Q128 -725 128 -755Q124 -759 115 -759ZM316 -320Q317 -402 338 -471Q347 -499 361 -559.5Q375 -620 390 -662.5Q405 -705 429 -739Q442 -758 465.5 -776.5Q489 -795 510 -795Q520 -795 528 -790Q530 -789 530 -786Q530 -781 525 -781Q524 -781 522 -782Q517 -785 510 -785Q493 -785 471 -767.5Q449 -750 437 -733Q414 -700 399.5 -658Q385 -616 370.5 -555.5Q356 -495 348 -469Q327 -400 326 -320Q326 -318 326 -313Q326 -308 326 -305Q326 -256 329 -221Q356 -189 368 -151Q369 -148 369 -142Q369 -140 368.5 -135Q368 -130 368 -128Q368 -119 366 -105Q365 -98 363 -93Q360 -87 355 -87Q343 -87 343 -109Q343 -110 343 -110Q343 -111 343 -113.5Q343 -116 343 -117Q343 -133 339 -139Q324 -162 319 -217Q248 -298 78 -333H63L24 -327Q23 -327 23 -327Q18 -327 18 -332Q18 -335 21 -336L120 -390Q139 -419 194 -474Q222 -502 236.5 -518.5Q251 -535 271 -562Q291 -589 299.5 -616Q308 -643 308 -674Q308 -675 308 -677Q305 -674 301 -669Q222 -556 138 -556Q130 -556 123 -557Q97 -557 79 -560Q61 -563 43 -571Q25 -579 15.5 -597.5Q6 -616 6 -644Q6 -696 36 -732Q1 -752 -8 -783Q-8 -783 -8 -784Q-8 -789 -3 -789Q1 -789 2 -785Q10 -758 43 -740Q72 -769 115 -769Q125 -769 132 -764Q138 -761 138 -756Q138 -715 95 -715Q71 -715 45 -728Q16 -694 16 -644Q16 -596 43 -581.5Q70 -567 123 -567Q126 -567 130.5 -566.5Q135 -566 138 -566Q217 -566 293 -675Q302 -688 309 -688Q318 -688 318 -674Q318 -642 309 -613Q300 -584 279.5 -556Q259 -528 244 -511.5Q229 -495 201 -466Q146 -412 127 -383Q126 -382 125 -382L51 -341Q63 -343 63 -343H79Q80 -343 80 -343Q244 -309 318 -233Q316 -261 316 -305Q316 -308 316 -313Q316 -318 316 -320ZM353 -110Q353 -102 354 -99Q356 -104 356 -110Q358 -121 358 -128Q358 -130 358.5 -135Q359 -140 359 -142Q359 -146 358 -149Q349 -177 331 -202Q336 -161 347 -145Q353 -136 353 -117Q353 -116 353 -113.5Q353 -111 353 -110Z"/>
</svg>