<svg xmlns="http://www.w3.org/2000/svg" viewBox="0 -1024 1024 1024">
	<path fill="#000088" d="M193 -776Q193 -766 200 -758.5Q207 -751 217 -751L295 -749Q296 -749 296 -749Q297 -749 298 -749L322 -751Q332 -752 338.5 -759Q345 -766 345 -776Q345 -786 337.5 -793.5Q330 -801 320 -801Q319 -801 295 -799L243 -800Q242 -807 240.5 -816.5Q239 -826 238 -833Q237 -847 235.5 -855Q234 -863 229 -872.5Q224 -882 216 -888Q205 -896 191 -896Q188 -896 184 -895Q162 -895 125 -885Q94 -878 79 -878Q72 -878 66 -879Q64 -879 62 -879Q60 -879 55.5 -878.5Q51 -878 49 -878Q30 -878 16 -886Q0 -895 -6 -916Q-11 -935 -30 -935Q-40 -935 -47.5 -927.5Q-55 -920 -55 -910Q-55 -907 -54 -904Q-45 -869 -18 -848.5Q9 -828 49 -828Q55 -828 61 -829Q70 -828 79 -828Q100 -828 137 -837Q169 -845 186 -845Q187 -840 188.5 -826.5Q190 -813 192 -806Q193 -796 193 -783Q193 -781 193 -779Q193 -777 193 -776ZM82 -746Q63 -753 33 -753L-49 -749Q-50 -749 -50 -749Q-60 -749 -67.5 -756.5Q-75 -764 -75 -774Q-75 -784 -68 -791Q-61 -798 -51 -799L31 -803Q31 -803 32 -803Q59 -803 82 -798Q101 -794 115 -787Q132 -797 154 -797Q163 -797 172 -792Q179 -789 188 -782Q198 -775 217 -756Q227 -746 230 -743Q236 -738 238 -730L258 -654Q259 -652 259 -650L265 -578Q265 -577 265 -576Q265 -575 265 -573L259 -519Q259 -517 258 -515L246 -473Q226 -399 226 -309Q226 -264 231 -215Q232 -202 245 -172Q263 -131 263 -110Q263 -100 255.5 -92.5Q248 -85 238 -85Q228 -85 220.5 -92.5Q213 -100 213 -110L212 -107Q206 -116 192 -125Q185 -130 179 -133Q138 -132 127 -122Q124 -119 119 -117Q114 -115 103 -107Q84 -93 70 -90Q65 -88 52 -81Q24 -65 6 -65Q-19 -65 -35 -81Q-46 -92 -55 -115Q-59 -126 -61 -128Q-67 -135 -67 -144Q-67 -154 -60 -162L-54 -168Q-46 -175 -36 -175Q-26 -175 -18.5 -167.5Q-11 -160 -11 -150Q-11 -146 -12 -142Q-2 -119 -2 -118Q0 -116 1 -116Q3 -115 6 -115Q11 -115 27 -124Q46 -135 58 -138Q62 -139 75 -148Q88 -157 96 -161Q112 -174 130 -178Q148 -182 179 -183Q180 -183 180 -183Q184 -183 187 -182Q182 -197 181 -209Q176 -262 176 -309Q176 -410 198 -487L209 -527L215 -576L209 -644L192 -710Q189 -712 182 -720Q160 -742 151 -747Q150 -747 149 -747Q151 -738 151 -730Q151 -704 135 -688Q123 -675 106 -675Q93 -675 85 -682Q75 -690 75 -704Q75 -705 75 -707Q75 -709 75 -710Q75 -729 82 -746Z"/>
	<path fill="#800080" d="M243 -776Q243 -766 250 -758.5Q257 -751 267 -751L345 -749Q346 -749 346 -749Q347 -749 348 -749L372 -751Q382 -752 388.5 -759Q395 -766 395 -776Q395 -786 387.5 -793.5Q380 -801 370 -801Q369 -801 345 -799L293 -800Q292 -807 290.5 -816.5Q289 -826 288 -833Q287 -847 285.5 -855Q284 -863 279 -872.5Q274 -882 266 -888Q255 -896 241 -896Q238 -896 234 -895Q212 -895 175 -885Q144 -878 129 -878Q122 -878 116 -879Q114 -879 112 -879Q110 -879 105.5 -878.5Q101 -878 99 -878Q80 -878 66 -886Q50 -895 44 -916Q39 -935 20 -935Q10 -935 2.5 -927.5Q-5 -920 -5 -910Q-5 -907 -4 -904Q5 -869 32 -848.5Q59 -828 99 -828Q105 -828 111 -829Q120 -828 129 -828Q150 -828 187 -837Q219 -845 236 -845Q237 -840 238.5 -826.5Q240 -813 242 -806Q243 -796 243 -783Q243 -781 243 -779Q243 -777 243 -776ZM132 -746Q113 -753 83 -753L1 -749Q0 -749 0 -749Q-10 -749 -17.5 -756.5Q-25 -764 -25 -774Q-25 -784 -18 -791Q-11 -798 -1 -799L81 -803Q81 -803 82 -803Q109 -803 132 -798Q151 -794 165 -787Q182 -797 204 -797Q213 -797 222 -792Q229 -789 238 -782Q248 -775 267 -756Q277 -746 280 -743Q286 -738 288 -730L308 -654Q309 -652 309 -650L315 -578Q315 -577 315 -576Q315 -575 315 -573L309 -519Q309 -517 308 -515L296 -473Q276 -399 276 -309Q276 -264 281 -215Q282 -202 295 -172Q313 -131 313 -110Q313 -100 305.5 -92.5Q298 -85 288 -85Q278 -85 270.5 -92.5Q263 -100 263 -110L262 -107Q256 -116 242 -125Q235 -130 229 -133Q188 -132 177 -122Q174 -119 169 -117Q164 -115 153 -107Q134 -93 120 -90Q115 -88 102 -81Q74 -65 56 -65Q31 -65 15 -81Q4 -92 -5 -115Q-9 -126 -11 -128Q-17 -135 -17 -144Q-17 -154 -10 -162L-4 -168Q4 -175 14 -175Q24 -175 31.5 -167.5Q39 -160 39 -150Q39 -146 38 -142Q48 -119 48 -118Q50 -116 51 -116Q53 -115 56 -115Q61 -115 77 -124Q96 -135 108 -138Q112 -139 125 -148Q138 -157 146 -161Q162 -174 180 -178Q198 -182 229 -183Q230 -183 230 -183Q234 -183 237 -182Q232 -197 231 -209Q226 -262 226 -309Q226 -410 248 -487L259 -527L265 -576L259 -644L242 -710Q239 -712 232 -720Q210 -742 201 -747Q200 -747 199 -747Q201 -738 201 -730Q201 -704 185 -688Q173 -675 156 -675Q143 -675 135 -682Q125 -690 125 -704Q125 -705 125 -707Q125 -709 125 -710Q125 -729 132 -746Z"/>
	<path fill="#daa520" d="M236 -865Q217 -865 182.5 -856.5Q148 -848 129 -848Q120 -848 112 -849Q105 -848 99 -848Q68 -848 45.5 -863Q23 -878 15 -909Q15 -909 15 -910Q15 -915 20 -915Q24 -915 25 -911Q39 -858 99 -858Q101 -858 105.5 -858.5Q110 -859 112 -859Q112 -859 113 -859Q121 -858 129 -858Q147 -858 181.5 -866.5Q216 -875 236 -875Q239 -876 241 -876Q250 -876 255.5 -872Q261 -868 263.5 -859Q266 -850 266.5 -845.5Q267 -841 268 -831Q270 -818 271 -813Q273 -803 273 -783Q273 -782 273 -781L346 -779L370 -781Q375 -781 375 -776Q375 -771 370 -771L346 -769L268 -771Q263 -771 263 -776Q263 -777 263 -779Q263 -781 263 -783Q263 -796 261 -811.5Q259 -827 258 -830Q257 -848 253.5 -857Q250 -866 241 -866Q241 -866 239 -865.5Q237 -865 236 -865ZM145 -704Q145 -705 145 -707Q145 -709 145 -710Q145 -736 159 -754Q136 -773 82 -773L0 -769Q-5 -769 -5 -774Q-5 -779 0 -779L82 -783Q141 -783 166 -762Q181 -777 204 -777Q212 -777 225 -767Q234 -760 253 -742Q264 -731 267 -728Q268 -727 269 -725L289 -649Q289 -649 289 -648L295 -576Q295 -576 295 -575L289 -521L277 -479Q256 -402 256 -309Q256 -263 261 -213Q263 -197 277 -164Q293 -127 293 -110Q293 -105 288 -105Q283 -105 283 -110Q283 -117 266 -132Q242 -153 230 -153Q212 -153 204 -152Q196 -151 183.5 -147.5Q171 -144 163 -136Q163 -136 162 -135Q155 -133 140 -122.5Q125 -112 115 -109Q109 -107 89 -96Q69 -85 56 -85Q43 -85 33.5 -92Q24 -99 21 -105Q18 -111 13 -122Q8 -136 4 -141Q3 -142 3 -144Q3 -146 4 -148L10 -154Q12 -155 14 -155Q19 -155 19 -150Q19 -148 15 -144Q18 -138 23.5 -123.5Q29 -109 36 -102Q43 -95 56 -95Q66 -95 87 -107Q104 -116 113 -119Q121 -121 136 -132Q149 -141 157 -144Q177 -163 230 -163Q248 -163 278 -135Q278 -135 265.5 -165.5Q253 -196 251 -211Q246 -263 246 -309Q246 -404 267 -481L279 -523L285 -576L279 -647L260 -721Q254 -726 240 -739.5Q226 -753 219 -759Q209 -767 204 -767Q186 -767 173 -755Q181 -744 181 -730Q181 -718 175 -706.5Q169 -695 156 -695Q151 -695 149 -696Q145 -698 145 -704ZM155 -705Q155 -705 156 -705Q171 -705 171 -730Q171 -739 166 -747Q155 -731 155 -710Q155 -708 155 -705Z"/>
</svg>