<svg xmlns="http://www.w3.org/2000/svg" viewBox="0 -1024 1024 1024">
	<path fill="#000088" d="M579 -797Q589 -797 596.5 -789.5Q604 -782 604 -772Q604 -762 597.5 -755Q591 -748 581 -747L535 -743Q534 -743 533 -743Q533 -743 532 -743L354 -747Q353 -747 352 -747L239 -759L-19 -763Q-30 -763 -37 -770.5Q-44 -778 -44 -788Q-44 -798 -36.5 -805.5Q-29 -813 -19 -813L241 -809Q243 -809 244 -809L357 -797L532 -793L577 -797Q578 -797 579 -797ZM192 -566Q192 -576 199.5 -583.5Q207 -591 217 -591H223Q231 -591 238 -586Q242 -583 256 -573Q270 -563 276 -558Q282 -553 292.5 -544.5Q303 -536 311.5 -527.5Q320 -519 328 -510Q334 -503 334 -494Q334 -484 326.5 -476.5Q319 -469 309 -469Q298 -469 290 -478Q272 -499 215 -541Q205 -542 198.5 -549Q192 -556 192 -566ZM301 -219Q338 -167 338 -114Q338 -100 333 -90Q325 -73 307 -73Q288 -73 283 -91Q280 -102 271.5 -123.5Q263 -145 257.5 -164Q252 -183 251 -202Q220 -240 167 -277Q129 -304 84.5 -327.5Q40 -351 14 -362L-12 -373Q-28 -379 -28 -396Q-28 -408 -19 -416Q11 -439 87 -465Q147 -485 169 -499.5Q191 -514 199 -532Q192 -563 163 -591Q136 -617 62 -661Q27 -683 11 -693Q-5 -703 -30.5 -724.5Q-56 -746 -71 -768Q-76 -774 -76 -782Q-76 -792 -68.5 -799.5Q-61 -807 -51 -807Q-38 -807 -31 -796Q-15 -774 13.5 -753Q42 -732 88 -704Q167 -657 198 -627Q241 -584 250 -534Q250 -532 250 -530Q250 -526 249 -522Q242 -500 227.5 -483Q213 -466 189.5 -453.5Q166 -441 149.5 -434.5Q133 -428 103 -418Q71 -406 53 -399Q133 -362 196 -318Q228 -296 253 -273Q256 -433 268 -507Q285 -610 325 -675Q381 -766 485 -788Q492 -791 498.5 -792.5Q505 -794 513 -794.5Q521 -795 526 -796Q528 -797 531 -797Q541 -797 548.5 -789.5Q556 -782 556 -772Q556 -763 550.5 -756Q545 -749 536 -748Q533 -747 525.5 -746Q518 -745 512.5 -744Q507 -743 505 -742Q502 -740 498 -739Q413 -722 367 -649Q332 -592 317 -499Q312 -467 309 -430Q306 -393 305 -367.5Q304 -342 303.5 -297Q303 -252 302 -231Q302 -229 301.5 -225Q301 -221 301 -219Z"/>
	<path fill="#800080" d="M629 -797Q639 -797 646.5 -789.5Q654 -782 654 -772Q654 -762 647.5 -755Q641 -748 631 -747L585 -743Q584 -743 583 -743Q583 -743 582 -743L404 -747Q403 -747 402 -747L289 -759L31 -763Q20 -763 13 -770.5Q6 -778 6 -788Q6 -798 13.5 -805.5Q21 -813 31 -813L291 -809Q293 -809 294 -809L407 -797L582 -793L627 -797Q628 -797 629 -797ZM242 -566Q242 -576 249.5 -583.5Q257 -591 267 -591H273Q281 -591 288 -586Q292 -583 306 -573Q320 -563 326 -558Q332 -553 342.5 -544.5Q353 -536 361.5 -527.5Q370 -519 378 -510Q384 -503 384 -494Q384 -484 376.5 -476.5Q369 -469 359 -469Q348 -469 340 -478Q322 -499 265 -541Q255 -542 248.5 -549Q242 -556 242 -566ZM351 -219Q388 -167 388 -114Q388 -100 383 -90Q375 -73 357 -73Q338 -73 333 -91Q330 -102 321.5 -123.5Q313 -145 307.5 -164Q302 -183 301 -202Q270 -240 217 -277Q179 -304 134.5 -327.5Q90 -351 64 -362L38 -373Q22 -379 22 -396Q22 -408 31 -416Q61 -439 137 -465Q197 -485 219 -499.5Q241 -514 249 -532Q242 -563 213 -591Q186 -617 112 -661Q77 -683 61 -693Q45 -703 19.5 -724.5Q-6 -746 -21 -768Q-26 -774 -26 -782Q-26 -792 -18.5 -799.5Q-11 -807 -1 -807Q12 -807 19 -796Q35 -774 63.5 -753Q92 -732 138 -704Q217 -657 248 -627Q291 -584 300 -534Q300 -532 300 -530Q300 -526 299 -522Q292 -500 277.5 -483Q263 -466 239.5 -453.5Q216 -441 199.5 -434.5Q183 -428 153 -418Q121 -406 103 -399Q183 -362 246 -318Q278 -296 303 -273Q306 -433 318 -507Q335 -610 375 -675Q431 -766 535 -788Q542 -791 548.5 -792.5Q555 -794 563 -794.5Q571 -795 576 -796Q578 -797 581 -797Q591 -797 598.5 -789.5Q606 -782 606 -772Q606 -763 600.5 -756Q595 -749 586 -748Q583 -747 575.5 -746Q568 -745 562.5 -744Q557 -743 555 -742Q552 -740 548 -739Q463 -722 417 -649Q382 -592 367 -499Q362 -467 359 -430Q356 -393 355 -367.5Q354 -342 353.5 -297Q353 -252 352 -231Q352 -229 351.5 -225Q351 -221 351 -219Z"/>
	<path fill="#daa520" d="M629 -777Q634 -777 634 -772Q634 -767 629 -767L583 -763Q583 -763 405 -767Q405 -767 404 -767L291 -779L31 -783Q26 -783 26 -788Q26 -793 31 -793L291 -789Q291 -789 292 -789L405 -777L583 -773ZM267 -561Q262 -561 262 -566Q262 -571 267 -571H273Q275 -571 276 -570Q280 -567 294 -557Q308 -547 313.5 -542.5Q319 -538 329.5 -529.5Q340 -521 348 -513.5Q356 -506 363 -497Q364 -496 364 -494Q364 -489 359 -489Q357 -489 355 -491Q350 -497 343 -504Q336 -511 330 -516Q324 -521 315 -528Q306 -535 301.5 -538.5Q297 -542 286 -550Q275 -558 271 -561ZM368 -114Q368 -93 357 -93Q353 -93 352 -97Q349 -108 340.5 -130.5Q332 -153 326.5 -172Q321 -191 321 -209Q288 -252 228 -294Q190 -321 144 -345Q98 -369 72 -380L45 -391Q42 -393 42 -396Q42 -398 44 -400Q70 -421 144 -446Q171 -455 186 -461Q201 -467 221 -477.5Q241 -488 252.5 -501Q264 -514 270 -530Q266 -554 253 -574.5Q240 -595 216 -614.5Q192 -634 174 -646Q156 -658 123 -679Q89 -699 72 -710Q55 -721 31.5 -740.5Q8 -760 -5 -779Q-6 -780 -6 -782Q-6 -787 -1 -787Q2 -787 3 -785Q16 -767 38 -748Q60 -729 78 -718Q96 -707 128 -687Q156 -670 169.5 -661.5Q183 -653 206.5 -636Q230 -619 242 -605Q254 -591 265 -571.5Q276 -552 280 -531Q280 -530 280 -530Q280 -529 280 -528Q274 -509 261 -494.5Q248 -480 226.5 -469Q205 -458 190.5 -452Q176 -446 147 -436Q82 -414 57 -397Q156 -357 234 -302Q289 -264 321 -225Q321 -229 322 -232Q323 -249 323 -286Q323 -287 323 -288Q324 -341 325 -370.5Q326 -400 331 -454Q336 -508 344 -541Q352 -574 368 -617.5Q384 -661 406.5 -687.5Q429 -714 463.5 -737Q498 -760 541 -769Q547 -771 553 -772.5Q559 -774 567 -775Q575 -776 580 -777Q580 -777 581 -777Q586 -777 586 -772Q586 -768 582 -767Q578 -766 570 -765Q562 -764 555.5 -763Q549 -762 545 -760Q545 -759 544 -759Q511 -752 483.5 -737.5Q456 -723 436 -705Q416 -687 400 -658.5Q384 -630 374 -606Q364 -582 356 -544.5Q348 -507 344.5 -481Q341 -455 338 -413.5Q335 -372 334.5 -349Q334 -326 333 -286Q333 -249 332 -232Q332 -232 332 -231Q331 -223 331 -214Q331 -214 331 -213Q368 -163 368 -114ZM358 -114Q358 -153 332 -193Q334 -180 338 -167Q342 -154 349 -136Q356 -118 358 -112Q358 -113 358 -114Z"/>
</svg>