<svg xmlns="http://www.w3.org/2000/svg" viewBox="0 -1024 1024 1024">
	<path fill="#000088" d="M-104 -834Q-104 -843 -104 -861.5Q-104 -880 -104 -889Q-117 -898 -133 -908Q-149 -917 -167 -927Q-187 -927 -196 -923Q-210 -917 -226 -899Q-245 -878 -277 -878Q-328 -878 -360 -918Q-378 -940 -378 -965Q-378 -966 -378 -966.5Q-378 -967 -378 -968Q-378 -978 -370.5 -985Q-363 -992 -353 -992Q-343 -992 -335.5 -984.5Q-328 -977 -328 -967Q-328 -967 -328 -966.5Q-328 -966 -328 -965Q-328 -957 -321 -949Q-314 -940 -300.5 -934Q-287 -928 -277 -928Q-267 -928 -264 -931Q-240 -958 -216 -969Q-196 -977 -164 -977Q-164 -977 -163 -977Q-162 -977 -161 -977Q-155 -977 -149 -974Q-123 -960 -100 -946Q-82 -935 -73 -928Q-62 -921 -58 -914Q-54 -907 -54 -900Q-54 -897 -54 -893Q-54 -882 -54 -863Q-54 -844 -54 -834Q-54 -811 -53 -802Q-47 -803 -41 -805Q-13 -813 12 -813Q64 -813 99.5 -779Q135 -745 155 -693Q181 -726 245 -769Q277 -791 295 -805Q302 -810 310 -810Q320 -810 327.5 -802.5Q335 -795 335 -785Q335 -773 325 -765Q307 -751 273 -728Q246 -709 231.5 -698.5Q217 -688 200.5 -670Q184 -652 173 -630Q177 -611 179.5 -591.5Q182 -572 183 -560.5Q184 -549 185.5 -523Q187 -497 188 -488Q191 -438 191 -419Q191 -383 174 -291Q160 -212 148 -172Q146 -164 140 -142.5Q134 -121 130 -111Q127 -97 125 -92Q123 -88 121 -85Q119 -82 117 -79Q110 -73 100 -73Q85 -73 78 -86Q62 -115 52 -162Q49 -172 43 -190.5Q37 -209 33.5 -226Q30 -243 30 -261Q30 -263 30 -268Q30 -273 30 -275Q30 -284 27 -303.5Q24 -323 24 -333Q24 -339 24 -343Q28 -385 41.5 -427Q55 -469 75 -517Q95 -565 103 -592Q111 -616 120 -636Q105 -695 79 -728Q51 -763 12 -763Q-6 -763 -25 -757Q-45 -751 -57 -751Q-77 -751 -89 -764Q-97 -773 -101 -787Q-104 -801 -104 -834ZM98 -181Q99 -184 100 -186Q111 -223 125 -300Q141 -388 141 -419Q141 -440 138 -482Q135 -524 135 -532Q133 -526 117.5 -488Q102 -450 97 -434.5Q92 -419 84 -390.5Q76 -362 74 -339Q74 -336 74 -333Q74 -325 77 -305.5Q80 -286 80 -275Q80 -273 80 -268Q80 -263 80 -261Q80 -250 83 -236.5Q86 -223 91.5 -205Q97 -187 98 -181Z"/>
	<path fill="#800080" d="M-54 -834Q-54 -843 -54 -861.5Q-54 -880 -54 -889Q-67 -898 -83 -908Q-99 -917 -117 -927Q-137 -927 -146 -923Q-160 -917 -176 -899Q-195 -878 -227 -878Q-278 -878 -310 -918Q-328 -940 -328 -965Q-328 -966 -328 -966.5Q-328 -967 -328 -968Q-328 -978 -320.5 -985Q-313 -992 -303 -992Q-293 -992 -285.5 -984.5Q-278 -977 -278 -967Q-278 -967 -278 -966.5Q-278 -966 -278 -965Q-278 -957 -271 -949Q-264 -940 -250.5 -934Q-237 -928 -227 -928Q-217 -928 -214 -931Q-190 -958 -166 -969Q-146 -977 -114 -977Q-114 -977 -113 -977Q-112 -977 -111 -977Q-105 -977 -99 -974Q-73 -960 -50 -946Q-32 -935 -23 -928Q-12 -921 -8 -914Q-4 -907 -4 -900Q-4 -897 -4 -893Q-4 -882 -4 -863Q-4 -844 -4 -834Q-4 -811 -3 -802Q3 -803 9 -805Q37 -813 62 -813Q114 -813 149.5 -779Q185 -745 205 -693Q231 -726 295 -769Q327 -791 345 -805Q352 -810 360 -810Q370 -810 377.5 -802.5Q385 -795 385 -785Q385 -773 375 -765Q357 -751 323 -728Q296 -709 281.5 -698.5Q267 -688 250.5 -670Q234 -652 223 -630Q227 -611 229.5 -591.5Q232 -572 233 -560.5Q234 -549 235.5 -523Q237 -497 238 -488Q241 -438 241 -419Q241 -383 224 -291Q210 -212 198 -172Q196 -164 190 -142.5Q184 -121 180 -111Q177 -97 175 -92Q173 -88 171 -85Q169 -82 167 -79Q160 -73 150 -73Q135 -73 128 -86Q112 -115 102 -162Q99 -172 93 -190.5Q87 -209 83.5 -226Q80 -243 80 -261Q80 -263 80 -268Q80 -273 80 -275Q80 -284 77 -303.5Q74 -323 74 -333Q74 -339 74 -343Q78 -385 91.5 -427Q105 -469 125 -517Q145 -565 153 -592Q161 -616 170 -636Q155 -695 129 -728Q101 -763 62 -763Q44 -763 25 -757Q5 -751 -7 -751Q-27 -751 -39 -764Q-47 -773 -51 -787Q-54 -801 -54 -834ZM148 -181Q149 -184 150 -186Q161 -223 175 -300Q191 -388 191 -419Q191 -440 188 -482Q185 -524 185 -532Q183 -526 167.5 -488Q152 -450 147 -434.5Q142 -419 134 -390.5Q126 -362 124 -339Q124 -336 124 -333Q124 -325 127 -305.5Q130 -286 130 -275Q130 -273 130 -268Q130 -263 130 -261Q130 -250 133 -236.5Q136 -223 141.5 -205Q147 -187 148 -181Z"/>
	<path fill="#daa520" d="M-34 -834Q-34 -844 -34 -863Q-34 -882 -34 -893Q-34 -896 -34 -899Q-44 -910 -112 -947Q-113 -947 -114 -947Q-131 -947 -140 -945.5Q-149 -944 -163 -936Q-177 -928 -191 -912Q-204 -898 -227 -898Q-255 -898 -281.5 -918Q-308 -938 -308 -965Q-308 -966 -308 -966.5Q-308 -967 -308 -967Q-308 -972 -303 -972Q-298 -972 -298 -967Q-298 -967 -298 -966.5Q-298 -966 -298 -965Q-298 -943 -275 -925.5Q-252 -908 -227 -908Q-208 -908 -199 -918Q-183 -936 -167 -945Q-151 -954 -140.5 -955.5Q-130 -957 -111 -957Q-110 -957 -109 -956Q-83 -943 -61 -929Q-43 -919 -34 -912Q-30 -909 -27 -906Q-24 -903 -24 -900Q-24 -897 -24 -893Q-24 -882 -24 -863Q-24 -844 -24 -834Q-24 -802 -21 -791.5Q-18 -781 -7 -781Q1 -781 15 -786Q40 -793 62 -793Q160 -793 198 -647Q212 -671 231 -691.5Q250 -712 264 -723Q278 -734 306 -753Q339 -775 357 -789Q358 -790 360 -790Q365 -790 365 -785Q365 -783 363 -781Q345 -767 312 -745Q282 -724 267.5 -713Q253 -702 234 -680.5Q215 -659 202 -633Q206 -614 209 -593Q212 -572 213 -561Q214 -550 215.5 -522.5Q217 -495 218 -487Q221 -437 221 -419Q221 -385 205 -295Q190 -216 179 -178Q178 -176 169.5 -145.5Q161 -115 157 -101Q155 -96 154 -95Q154 -93 150 -93Q147 -93 146 -96Q131 -122 121 -166Q121 -168 110.5 -204Q100 -240 100 -261Q100 -263 100 -268Q100 -273 100 -275Q100 -285 97 -304Q94 -323 94 -333Q94 -338 94 -341Q98 -381 111 -422.5Q124 -464 144 -512Q164 -560 172 -586Q181 -612 191 -634Q176 -700 144 -741.5Q112 -783 62 -783Q41 -783 19 -776Q2 -771 -7 -771Q-24 -771 -29 -785.5Q-34 -800 -34 -834ZM110 -275Q110 -273 110 -268Q110 -263 110 -261Q110 -242 120 -206.5Q130 -171 131 -168Q139 -133 149 -111Q152 -121 159.5 -147.5Q167 -174 169 -180Q180 -219 195 -297Q211 -386 211 -419Q211 -437 208 -486Q201 -587 195 -617Q188 -601 182 -582Q174 -557 154 -509Q134 -461 121 -420Q108 -379 104 -341Q104 -337 104 -333Q104 -324 107 -304.5Q110 -285 110 -275Z"/>
</svg>