<svg xmlns="http://www.w3.org/2000/svg" viewBox="0 -1024 1024 1024">
	<path fill="#000088" d="M45 -794Q57 -794 64 -785.5Q71 -777 71 -764Q71 -759 69 -754Q66 -733 66 -713Q66 -681 74.5 -651.5Q83 -622 103 -591.5Q123 -561 140 -540Q157 -519 188 -485Q215 -454 228 -439Q241 -424 263.5 -393Q286 -362 296.5 -339Q307 -316 316 -282.5Q325 -249 325 -215Q325 -211 325 -207Q324 -163 284 -123Q236 -75 180 -75Q177 -75 170.5 -75Q164 -75 160 -75Q114 -75 82 -80Q41 -86 16 -102Q-25 -127 -25 -172Q-25 -193 -14 -208Q-6 -218 13 -228Q24 -234 27 -237Q32 -243 55 -248Q58 -248 60 -248Q70 -248 77.5 -240.5Q85 -233 85 -223Q85 -214 79.5 -207Q74 -200 65 -198L57 -197Q50 -191 37 -184Q28 -180 26 -178Q25 -176 25 -172Q25 -155 42 -144Q59 -134 90 -129Q118 -125 160 -125Q164 -125 170.5 -125Q177 -125 180 -125Q195 -125 214.5 -134.5Q234 -144 249 -159Q274 -184 275 -209Q275 -212 275 -215Q275 -249 266 -280Q257 -311 236.5 -342.5Q216 -374 199 -395Q182 -416 150 -451Q123 -482 111 -496.5Q99 -511 76.5 -541Q54 -571 43.5 -594Q33 -617 24.5 -649Q16 -681 16 -713Q16 -738 20 -764Q20 -767 20 -769Q20 -779 27.5 -786.5Q35 -794 45 -794ZM21 -764Z"/>
	<path fill="#800080" d="M95 -794Q107 -794 114 -785.5Q121 -777 121 -764Q121 -759 119 -754Q116 -733 116 -713Q116 -681 124.5 -651.5Q133 -622 153 -591.5Q173 -561 190 -540Q207 -519 238 -485Q265 -454 278 -439Q291 -424 313.5 -393Q336 -362 346.5 -339Q357 -316 366 -282.5Q375 -249 375 -215Q375 -211 375 -207Q374 -163 334 -123Q286 -75 230 -75Q227 -75 220.5 -75Q214 -75 210 -75Q164 -75 132 -80Q91 -86 66 -102Q25 -127 25 -172Q25 -193 36 -208Q44 -218 63 -228Q74 -234 77 -237Q82 -243 105 -248Q108 -248 110 -248Q120 -248 127.5 -240.5Q135 -233 135 -223Q135 -214 129.5 -207Q124 -200 115 -198L107 -197Q100 -191 87 -184Q78 -180 76 -178Q75 -176 75 -172Q75 -155 92 -144Q109 -134 140 -129Q168 -125 210 -125Q214 -125 220.5 -125Q227 -125 230 -125Q245 -125 264.5 -134.5Q284 -144 299 -159Q324 -184 325 -209Q325 -212 325 -215Q325 -249 316 -280Q307 -311 286.5 -342.5Q266 -374 249 -395Q232 -416 200 -451Q173 -482 161 -496.5Q149 -511 126.5 -541Q104 -571 93.5 -594Q83 -617 74.5 -649Q66 -681 66 -713Q66 -738 70 -764Q70 -767 70 -769Q70 -779 77.5 -786.5Q85 -794 95 -794ZM71 -764Z"/>
	<path fill="#daa520" d="M90 -769Q90 -774 95 -774Q101 -774 101 -764Q101 -761 100 -759Q96 -736 96 -713Q96 -678 105.5 -645.5Q115 -613 136.5 -580.5Q158 -548 174.5 -527.5Q191 -507 223 -471Q256 -434 272.5 -413.5Q289 -393 312 -358.5Q335 -324 345 -289Q355 -254 355 -215Q355 -212 355 -208Q354 -166 313 -130.5Q272 -95 230 -95Q227 -95 220.5 -95Q214 -95 210 -95Q45 -95 45 -172Q45 -188 52.5 -196.5Q60 -205 73 -211.5Q86 -218 91 -223Q92 -225 94 -225L109 -228Q110 -228 110 -228Q115 -228 115 -223Q115 -219 111 -218L97 -215Q91 -209 77 -202Q69 -197 65.5 -194.5Q62 -192 58.5 -186.5Q55 -181 55 -172Q55 -105 210 -105Q214 -105 220.5 -105Q227 -105 230 -105Q268 -105 306 -138Q344 -171 345 -208Q345 -212 345 -215Q345 -252 335.5 -285.5Q326 -319 303.5 -353Q281 -387 264.5 -407.5Q248 -428 215.5 -464.5Q183 -501 166.5 -521Q150 -541 127.5 -575Q105 -609 95.5 -642.5Q86 -676 86 -713Q86 -737 90 -761Q91 -764 91 -764.5Q91 -765 90.5 -766.5Q90 -768 90 -769Z"/>
</svg>