<svg xmlns="http://www.w3.org/2000/svg" viewBox="0 -1024 1024 1024">
	<path fill="#000088" d="M541 -803Q551 -803 558.5 -795.5Q566 -788 566 -778Q566 -768 559 -760.5Q552 -753 542 -753L448 -749Q448 -749 447 -749Q446 -749 445 -749L366 -755L164 -761Q154 -761 147 -768.5Q140 -776 140 -786Q140 -796 147.5 -803.5Q155 -811 165 -811Q165 -811 166 -811L368 -805Q368 -805 369 -805L447 -799L540 -803Q540 -803 541 -803ZM-76 -784Q-76 -794 -68.5 -801.5Q-61 -809 -51 -809Q-45 -809 -40 -806Q-16 -795 56 -780Q97 -771 120 -765Q143 -759 173.5 -745.5Q204 -732 222 -714Q250 -725 275 -725Q313 -725 351 -706.5Q389 -688 414 -656Q442 -621 442 -580Q442 -483 379 -414.5Q316 -346 222 -328Q227 -309 237.5 -267Q248 -225 257.5 -193Q267 -161 277 -143Q291 -117 309 -117Q309 -117 332 -123L346 -130Q351 -133 357 -133Q367 -133 374.5 -125.5Q382 -118 382 -108Q382 -93 368 -86L352 -78Q350 -77 348 -76Q346 -75 343 -74.5Q340 -74 338 -73Q320 -67 309 -67Q262 -67 233 -119Q215 -152 192 -245Q179 -296 171 -323Q169 -323 167 -323Q123 -323 85 -332Q53 -341 38 -356Q26 -369 26 -386Q26 -400 30.5 -418.5Q35 -437 43 -450Q58 -475 83 -475Q133 -475 168 -436Q189 -413 205 -376Q285 -388 338.5 -444Q392 -500 392 -580Q392 -604 375 -626Q358 -647 329.5 -661Q301 -675 275 -675Q265 -675 251 -671Q258 -654 260 -635Q260 -633 260 -632Q260 -622 255 -606Q241 -565 222 -545Q209 -531 193 -531Q186 -531 168 -535Q124 -546 98 -556Q85 -561 79.5 -568Q74 -575 74 -584Q74 -602 90 -608Q104 -612 123 -638Q138 -657 148 -666Q160 -678 175 -688Q142 -711 55.5 -729Q-31 -747 -62 -762Q-76 -768 -76 -784ZM151 -374Q147 -380 144 -385Q121 -423 87 -425Q84 -420 82 -415Q78 -403 76 -389Q95 -377 151 -374ZM150 -592Q173 -585 188 -582Q192 -588 196 -595Q206 -614 210 -632Q209 -641 206 -649Q192 -640 182 -630Q176 -624 165 -609.5Q154 -595 150 -592Z"/>
	<path fill="#800080" d="M591 -803Q601 -803 608.5 -795.5Q616 -788 616 -778Q616 -768 609 -760.5Q602 -753 592 -753L498 -749Q498 -749 497 -749Q496 -749 495 -749L416 -755L214 -761Q204 -761 197 -768.5Q190 -776 190 -786Q190 -796 197.5 -803.5Q205 -811 215 -811Q215 -811 216 -811L418 -805Q418 -805 419 -805L497 -799L590 -803Q590 -803 591 -803ZM-26 -784Q-26 -794 -18.5 -801.5Q-11 -809 -1 -809Q5 -809 10 -806Q34 -795 106 -780Q147 -771 170 -765Q193 -759 223.5 -745.5Q254 -732 272 -714Q300 -725 325 -725Q363 -725 401 -706.5Q439 -688 464 -656Q492 -621 492 -580Q492 -483 429 -414.5Q366 -346 272 -328Q277 -309 287.5 -267Q298 -225 307.5 -193Q317 -161 327 -143Q341 -117 359 -117Q359 -117 382 -123L396 -130Q401 -133 407 -133Q417 -133 424.5 -125.5Q432 -118 432 -108Q432 -93 418 -86L402 -78Q400 -77 398 -76Q396 -75 393 -74.5Q390 -74 388 -73Q370 -67 359 -67Q312 -67 283 -119Q265 -152 242 -245Q229 -296 221 -323Q219 -323 217 -323Q173 -323 135 -332Q103 -341 88 -356Q76 -369 76 -386Q76 -400 80.5 -418.5Q85 -437 93 -450Q108 -475 133 -475Q183 -475 218 -436Q239 -413 255 -376Q335 -388 388.5 -444Q442 -500 442 -580Q442 -604 425 -626Q408 -647 379.5 -661Q351 -675 325 -675Q315 -675 301 -671Q308 -654 310 -635Q310 -633 310 -632Q310 -622 305 -606Q291 -565 272 -545Q259 -531 243 -531Q236 -531 218 -535Q174 -546 148 -556Q135 -561 129.5 -568Q124 -575 124 -584Q124 -602 140 -608Q154 -612 173 -638Q188 -657 198 -666Q210 -678 225 -688Q192 -711 105.5 -729Q19 -747 -12 -762Q-26 -768 -26 -784ZM201 -374Q197 -380 194 -385Q171 -423 137 -425Q134 -420 132 -415Q128 -403 126 -389Q145 -377 201 -374ZM200 -592Q223 -585 238 -582Q242 -588 246 -595Q256 -614 260 -632Q259 -641 256 -649Q242 -640 232 -630Q226 -624 215 -609.5Q204 -595 200 -592Z"/>
	<path fill="#daa520" d="M591 -783Q596 -783 596 -778Q596 -773 591 -773L497 -769Q497 -769 417 -775L215 -781Q210 -781 210 -786Q210 -791 215 -791L417 -785L497 -779ZM96 -386Q96 -406 105.5 -430.5Q115 -455 133 -455Q205 -455 242 -354Q334 -363 398 -425.5Q462 -488 462 -580Q462 -626 418 -660.5Q374 -695 325 -695Q302 -695 273 -681Q287 -660 290 -633Q290 -632 290 -632Q290 -620 279 -594.5Q268 -569 257 -559Q250 -551 243 -551Q234 -551 202.5 -560Q171 -569 156 -575Q151 -576 148 -578Q144 -581 144 -584.5Q144 -588 147 -589Q166 -596 189 -625Q203 -643 212 -652Q232 -671 258 -685Q243 -703 214.5 -716.5Q186 -730 163.5 -736Q141 -742 100 -750Q25 -766 -3 -780Q-6 -781 -6 -784Q-6 -789 -1 -789Q0 -789 1 -788Q28 -775 102 -760Q144 -751 166.5 -745.5Q189 -740 220 -725Q251 -710 267 -690Q299 -705 325 -705Q377 -705 424.5 -668Q472 -631 472 -580Q472 -485 406.5 -419.5Q341 -354 246 -344Q255 -316 271 -252Q279 -221 283.5 -203Q288 -185 296.5 -162Q305 -139 313 -127Q321 -115 333 -106Q345 -97 359 -97Q360 -97 389 -105L405 -112Q406 -113 407 -113Q412 -113 412 -108Q412 -105 409 -104L393 -96Q393 -95 392 -95Q389 -94 382.5 -92Q376 -90 370 -88.5Q364 -87 359 -87Q345 -87 333 -92.5Q321 -98 311.5 -112Q302 -126 295.5 -137Q289 -148 281.5 -172.5Q274 -197 271 -208.5Q268 -220 261 -250Q246 -314 235 -344Q226 -343 217 -343Q178 -343 137 -352.5Q96 -362 96 -386ZM217 -353Q224 -353 231 -353Q196 -445 133 -445Q123 -445 115 -426Q106 -406 106 -386Q106 -371 143 -362Q176 -353 217 -353ZM243 -561Q246 -561 250 -566Q256 -572 263 -585Q280 -616 280 -632Q277 -657 264 -677Q238 -663 218 -644Q213 -639 194 -615.5Q175 -592 160 -584Q175 -578 206 -569.5Q237 -561 243 -561Z"/>
</svg>