<svg xmlns="http://www.w3.org/2000/svg" viewBox="0 -1024 1024 1024">
	<path fill="#000088" d="M138 -751Q138 -761 145.5 -768.5Q153 -776 163 -776Q173 -776 180.5 -768.5Q188 -761 188 -751V-745Q188 -720 180.5 -690.5Q173 -661 166.5 -645Q160 -629 146 -595Q118 -530 111 -497Q197 -521 236 -530Q260 -536 268 -536Q277 -536 284 -530Q330 -492 358.5 -439.5Q387 -387 387 -329Q387 -319 385 -298Q380 -241 372 -210Q361 -165 340 -138Q308 -96 256 -96Q196 -96 151 -125Q135 -135 119 -150Q103 -165 95.5 -175Q88 -185 73 -204Q36 -252 13 -269Q5 -275 3 -285L-12 -378Q-12 -378 -12 -379L-21 -448Q-21 -449 -21 -450L-24 -576Q-24 -577 -24 -577Q-24 -587 -16.5 -594.5Q-9 -602 1 -602Q11 -602 18.5 -595Q26 -588 26 -578L29 -453Q36 -393 51 -303Q76 -282 112 -235Q152 -183 178 -167Q210 -146 256 -146Q284 -146 300 -168Q315 -187 323 -222Q330 -248 336 -312Q337 -321 337 -329Q337 -371 316.5 -412Q296 -453 260 -485Q240 -481 189 -467L89 -439Q86 -438 82 -438Q72 -438 64.5 -445.5Q57 -453 57 -463Q57 -488 64.5 -518Q72 -548 78.5 -564Q85 -580 100 -614Q138 -704 138 -745Z"/>
	<path fill="#800080" d="M187 -751Q187 -761 194.5 -768.5Q202 -776 212 -776Q222 -776 229.5 -768.5Q237 -761 237 -751V-745Q237 -720 229.5 -690.5Q222 -661 215.5 -645Q209 -629 195 -595Q167 -530 160 -497Q246 -521 285 -530Q309 -536 317 -536Q326 -536 333 -530Q379 -492 407.5 -439.5Q436 -387 436 -329Q436 -319 434 -298Q429 -241 421 -210Q410 -165 389 -138Q357 -96 305 -96Q245 -96 200 -125Q184 -135 168 -150Q152 -165 144.5 -175Q137 -185 122 -204Q85 -252 62 -269Q54 -275 52 -285L37 -378Q37 -378 37 -379L28 -448Q28 -449 28 -450L25 -576Q25 -577 25 -577Q25 -587 32.5 -594.5Q40 -602 50 -602Q60 -602 67.5 -595Q75 -588 75 -578L78 -453Q85 -393 100 -303Q125 -282 161 -235Q201 -183 227 -167Q259 -146 305 -146Q333 -146 349 -168Q364 -187 372 -222Q379 -248 385 -312Q386 -321 386 -329Q386 -371 365.5 -412Q345 -453 309 -485Q289 -481 238 -467L138 -439Q135 -438 131 -438Q121 -438 113.5 -445.5Q106 -453 106 -463Q106 -488 113.5 -518Q121 -548 127.5 -564Q134 -580 149 -614Q187 -704 187 -745Z"/>
	<path fill="#daa520" d="M207 -751Q207 -756 212 -756Q217 -756 217 -751V-745Q217 -706 197.5 -656Q178 -606 158 -556.5Q138 -507 136 -470Q297 -516 317 -516Q319 -516 320 -515Q364 -479 390 -430.5Q416 -382 416 -329Q416 -320 414 -300Q412 -280 411 -269.5Q410 -259 406 -236.5Q402 -214 397.5 -200.5Q393 -187 385 -169Q377 -151 366.5 -141Q356 -131 340 -123.5Q324 -116 305 -116Q267 -116 237 -127.5Q207 -139 186.5 -159.5Q166 -180 150 -201Q134 -222 114 -246Q94 -270 74 -285Q72 -286 72 -288Q55 -395 48 -450Q48 -451 48 -451L45 -577Q45 -582 50 -582Q55 -582 55 -577L58 -451Q65 -395 82 -292Q107 -272 146 -222Q165 -198 176 -185.5Q187 -173 206.5 -156.5Q226 -140 250 -133Q274 -126 305 -126Q325 -126 340.5 -133.5Q356 -141 366 -157Q376 -173 383 -188Q390 -203 394 -227.5Q398 -252 400 -266Q402 -280 404 -304Q405 -308 405 -310Q406 -320 406 -329Q406 -379 381.5 -425Q357 -471 315 -506Q305 -505 259 -493Q213 -481 173 -470L132 -458Q132 -458 131 -458Q126 -458 126 -463Q126 -485 133 -512.5Q140 -540 146.5 -557Q153 -574 167 -606Q207 -700 207 -745Z"/>
</svg>