<svg xmlns="http://www.w3.org/2000/svg" viewBox="0 -1024 1024 1024">
	<path fill="#000088" d="M-26 -385Q-28 -385 -30 -385Q-32 -385 -33 -385Q-33 -385 -34 -385Q-35 -385 -36 -385Q-42 -386 -47 -388Q-59 -396 -59 -410Q-59 -429 -48 -448Q-38 -468 -17 -490Q12 -519 95 -582Q189 -653 223 -689Q234 -700 243 -711Q194 -680 161 -664Q112 -641 77 -641Q55 -641 37 -649Q-5 -653 -29 -682Q-45 -701 -45 -725Q-45 -728 -45 -731Q-45 -749 -44 -767Q-45 -767 -45 -767Q-46 -767 -47.5 -767Q-49 -767 -50 -767Q-61 -767 -68 -774.5Q-75 -782 -75 -792Q-75 -802 -67.5 -809.5Q-60 -817 -50 -817Q-49 -817 -47.5 -817Q-46 -817 -45 -817Q-40 -817 -36 -817Q-25 -853 0.5 -880.5Q26 -908 65 -938Q72 -943 80 -943Q98 -943 134.5 -946Q171 -949 189 -949Q197 -950 205 -950Q212 -950 216 -949Q224 -948 230 -945Q243 -937 243 -922Q243 -917 241 -912Q211 -844 133 -805Q77 -778 7 -770Q5 -750 5 -730Q5 -729 5 -727.5Q5 -726 5 -725Q5 -719 9 -714Q21 -700 45 -699Q51 -699 56 -696Q64 -691 76 -691Q101 -691 140 -710Q171 -724 228 -761Q254 -778 264 -783Q272 -788 278 -790Q286 -793 292 -793Q307 -793 315 -782Q321 -774 321 -764Q321 -763 321 -762Q337 -785 348 -795Q353 -800 357 -802Q365 -806 372 -806Q374 -806 375 -806L418 -813Q420 -813 422 -813Q432 -813 439.5 -805.5Q447 -798 447 -788Q447 -779 441 -772Q435 -765 426 -763L379 -756Q370 -746 359 -727Q304 -611 290 -558Q290 -557 289 -555Q267 -493 255 -425Q243 -357 234 -261Q258 -215 268 -168Q275 -139 275 -122Q275 -103 266 -92.5Q257 -82 243 -82Q231 -82 218 -92Q209 -99 199 -111Q188 -125 177 -140Q173 -146 173 -154Q173 -155 173 -157Q177 -187 183 -250Q146 -315 95 -351Q46 -385 -7 -385Q-8 -385 -10.5 -385Q-13 -385 -14 -385ZM175 -899Q163 -898 134 -895.5Q105 -893 89 -893Q39 -854 21 -823Q127 -840 175 -899ZM191 -328Q207 -476 242 -571Q254 -618 281 -678Q272 -667 259 -654Q222 -615 125 -542Q45 -482 19 -455Q9 -444 2 -435Q109 -430 191 -328Z"/>
	<path fill="#800080" d="M24 -385Q22 -385 20 -385Q18 -385 17 -385Q17 -385 16 -385Q15 -385 14 -385Q8 -386 3 -388Q-9 -396 -9 -410Q-9 -429 2 -448Q12 -468 33 -490Q62 -519 145 -582Q239 -653 273 -689Q284 -700 293 -711Q244 -680 211 -664Q162 -641 127 -641Q105 -641 87 -649Q45 -653 21 -682Q5 -701 5 -725Q5 -728 5 -731Q5 -749 6 -767Q5 -767 5 -767Q4 -767 2.5 -767Q1 -767 0 -767Q-11 -767 -18 -774.5Q-25 -782 -25 -792Q-25 -802 -17.5 -809.5Q-10 -817 0 -817Q1 -817 2.5 -817Q4 -817 5 -817Q10 -817 14 -817Q25 -853 50.5 -880.5Q76 -908 115 -938Q122 -943 130 -943Q148 -943 184.5 -946Q221 -949 239 -949Q247 -950 255 -950Q262 -950 266 -949Q274 -948 280 -945Q293 -937 293 -922Q293 -917 291 -912Q261 -844 183 -805Q127 -778 57 -770Q55 -750 55 -730Q55 -729 55 -727.5Q55 -726 55 -725Q55 -719 59 -714Q71 -700 95 -699Q101 -699 106 -696Q114 -691 126 -691Q151 -691 190 -710Q221 -724 278 -761Q304 -778 314 -783Q322 -788 328 -790Q336 -793 342 -793Q357 -793 365 -782Q371 -774 371 -764Q371 -763 371 -762Q387 -785 398 -795Q403 -800 407 -802Q415 -806 422 -806Q424 -806 425 -806L468 -813Q470 -813 472 -813Q482 -813 489.5 -805.5Q497 -798 497 -788Q497 -779 491 -772Q485 -765 476 -763L429 -756Q420 -746 409 -727Q354 -611 340 -558Q340 -557 339 -555Q317 -493 305 -425Q293 -357 284 -261Q308 -215 318 -168Q325 -139 325 -122Q325 -103 316 -92.5Q307 -82 293 -82Q281 -82 268 -92Q259 -99 249 -111Q238 -125 227 -140Q223 -146 223 -154Q223 -155 223 -157Q227 -187 233 -250Q196 -315 145 -351Q96 -385 43 -385Q42 -385 39.5 -385Q37 -385 36 -385ZM225 -899Q213 -898 184 -895.5Q155 -893 139 -893Q89 -854 71 -823Q177 -840 225 -899ZM241 -328Q257 -476 292 -571Q304 -618 331 -678Q322 -667 309 -654Q272 -615 175 -542Q95 -482 69 -455Q59 -444 52 -435Q159 -430 241 -328Z"/>
	<path fill="#daa520" d="M16 -405Q11 -405 11 -410Q11 -438 48 -476Q75 -504 157 -566Q198 -597 221.5 -615.5Q245 -634 275 -662Q305 -690 321 -714.5Q337 -739 341 -763Q336 -761 328 -757Q319 -752 294 -735Q259 -713 239.5 -701Q220 -689 185.5 -675Q151 -661 126 -661Q107 -661 93 -669Q67 -670 46 -685Q25 -700 25 -725Q25 -728 25 -730Q25 -758 29 -788Q17 -787 5 -787Q4 -787 2.5 -787Q1 -787 0 -787Q-5 -787 -5 -792Q-5 -797 5 -797Q17 -797 30 -798Q37 -834 62 -862.5Q87 -891 127 -922Q128 -923 130 -923Q148 -923 185 -926Q222 -929 240 -929Q248 -930 255 -930Q262 -930 266 -929Q273 -927 273 -922Q273 -921 273 -920Q246 -859 181 -826.5Q116 -794 39 -788Q35 -758 35 -730Q35 -729 35 -727.5Q35 -726 35 -725Q35 -705 53 -692.5Q71 -680 94 -679Q95 -679 96 -678Q109 -671 126 -671Q176 -671 288 -744Q314 -761 324 -766Q336 -773 342 -773Q351 -773 351 -764Q351 -763 351 -761Q348 -741 334 -718Q320 -695 305 -678Q290 -661 260.5 -635.5Q231 -610 214.5 -597.5Q198 -585 163 -558Q82 -497 55 -469Q24 -438 21 -415Q23 -415 24 -415H36Q39 -415 43 -415Q108 -415 163 -375Q218 -335 255 -272Q272 -446 311 -565Q338 -647 381 -740Q385 -749 400 -767Q407 -776 412 -781Q418 -786 422 -786Q424 -786 425 -785L471 -793Q472 -793 472 -793Q477 -793 477 -788Q477 -784 473 -783L425 -775Q424 -775 424 -775Q423 -775 422 -776Q416 -771 410 -764Q399 -750 391 -736Q335 -618 321 -563Q321 -563 321 -562Q304 -517 292 -460.5Q280 -404 275 -363.5Q270 -323 264 -257Q288 -211 299 -163Q305 -136 305 -122Q305 -102 293 -102Q287 -102 280 -108Q273 -113 265 -124Q254 -137 244 -151Q243 -152 243 -154Q243 -154 243 -155Q246 -184 253 -254Q218 -320 163 -362.5Q108 -405 43 -405Q42 -405 39.5 -405Q37 -405 36 -405H24Q22 -405 20 -405Q18 -405 17 -405Q17 -405 16 -405ZM240 -919Q222 -919 185.5 -916Q149 -913 132 -913Q94 -884 70.5 -857.5Q47 -831 41 -799Q113 -805 174 -834.5Q235 -864 261 -919Q258 -920 255 -920Q252 -920 248.5 -919.5Q245 -919 242.5 -919Q240 -919 240 -919ZM295 -122Q295 -135 289 -161Q280 -200 262 -238Q257 -184 253 -155Q263 -141 272 -130Q280 -121 286 -116Q291 -112 293 -112Q295 -114 295 -122Z"/>
</svg>