<svg xmlns="http://www.w3.org/2000/svg" viewBox="0 -1024 1024 1024">
	<path fill="#000088" d="M-41 -1130Q-41 -1133 -41.5 -1139Q-42 -1145 -42 -1148Q-42 -1158 -34.5 -1165.5Q-27 -1173 -17 -1173Q-7 -1173 0 -1166.5Q7 -1160 8 -1151Q9 -1141 9 -1130Q9 -1112 0 -1056Q-2 -1048 -2 -1041Q-2 -1008 24.5 -985Q51 -962 88 -962Q99 -962 110 -964Q140 -971 157 -971Q175 -971 187 -965Q200 -958 207 -946Q212 -936 212 -924Q212 -905 204 -886Q196 -867 189.5 -858.5Q183 -850 170 -835Q158 -822 154 -815Q149 -808 148 -803Q156 -792 166 -781Q172 -776 179 -770Q185 -771 201 -777Q217 -783 228 -785Q231 -785 303 -789Q310 -795 319 -795Q324 -795 333 -793Q355 -787 355 -767Q355 -759 351 -752Q346 -746 340 -743Q336 -742 330 -741Q318 -739 281 -738Q244 -737 234 -735Q229 -735 215 -729Q188 -719 175 -719Q168 -719 161 -722Q156 -724 150 -728Q127 -745 109 -773Q104 -779 102 -785Q98 -793 98 -800Q98 -818 108 -836Q115 -848 132 -868Q161 -901 162 -921Q160 -921 157 -921Q146 -921 120 -916Q104 -912 88 -912Q32 -912 -10 -948.5Q-52 -985 -52 -1041Q-52 -1053 -47 -1078Q-41 -1114 -41 -1130ZM-26 -809Q37 -809 68 -785Q69 -785 70 -785Q117 -785 147 -754Q166 -733 179 -698Q190 -670 197 -628Q199 -617 199 -605Q199 -556 169 -510Q207 -480 227 -432Q247 -384 247 -332Q247 -326 247 -319Q249 -307 249 -295Q249 -186 122 -96Q87 -70 49 -70Q8 -70 -16 -99Q-35 -124 -35 -162V-172L-53 -265Q-53 -268 -53 -270Q-53 -280 -45.5 -287.5Q-38 -295 -28 -295Q-19 -295 -12 -289Q-5 -283 -3 -275L15 -179Q15 -176 15 -174V-162Q15 -141 23 -131Q32 -120 49 -120Q71 -120 94 -136Q199 -211 199 -295Q199 -304 197 -314Q197 -316 197 -318Q197 -320 197 -325Q197 -330 197 -332Q197 -376 181.5 -413Q166 -450 137 -472Q94 -433 42 -433Q31 -433 22 -440Q16 -445 10 -453Q3 -465 -3 -481Q-7 -494 -7 -504Q-7 -525 14 -537Q32 -547 62 -547Q96 -547 126 -535Q149 -570 149 -605Q149 -613 147 -620Q141 -657 132 -681Q123 -706 110 -719Q100 -731 88 -734Q84 -715 70 -703Q50 -687 24 -687Q13 -687 6 -694.5Q-1 -702 -1 -713Q-1 -736 13 -755Q-6 -759 -24 -759Q-25 -759 -27 -759Q-31 -758 -32 -758Q-38 -755 -44 -755Q-54 -755 -61.5 -762.5Q-69 -770 -69 -780Q-69 -794 -58 -801Q-50 -806 -30 -809Q-28 -809 -26 -809ZM45 -495Q52 -497 58 -497Q59 -497 60 -497Q61 -497 62 -497Q74 -497 84 -495Q68 -486 51 -484Q47 -490 45 -495Z"/>
	<path fill="#800080" d="M9 -1130Q9 -1133 8.5 -1139Q8 -1145 8 -1148Q8 -1158 15.5 -1165.5Q23 -1173 33 -1173Q43 -1173 50 -1166.5Q57 -1160 58 -1151Q59 -1141 59 -1130Q59 -1112 50 -1056Q48 -1048 48 -1041Q48 -1008 74.5 -985Q101 -962 138 -962Q149 -962 160 -964Q190 -971 207 -971Q225 -971 237 -965Q250 -958 257 -946Q262 -936 262 -924Q262 -905 254 -886Q246 -867 239.5 -858.5Q233 -850 220 -835Q208 -822 204 -815Q199 -808 198 -803Q206 -792 216 -781Q222 -776 229 -770Q235 -771 251 -777Q267 -783 278 -785Q281 -785 353 -789Q360 -795 369 -795Q374 -795 383 -793Q405 -787 405 -767Q405 -759 401 -752Q396 -746 390 -743Q386 -742 380 -741Q368 -739 331 -738Q294 -737 284 -735Q279 -735 265 -729Q238 -719 225 -719Q218 -719 211 -722Q206 -724 200 -728Q177 -745 159 -773Q154 -779 152 -785Q148 -793 148 -800Q148 -818 158 -836Q165 -848 182 -868Q211 -901 212 -921Q210 -921 207 -921Q196 -921 170 -916Q154 -912 138 -912Q82 -912 40 -948.5Q-2 -985 -2 -1041Q-2 -1053 3 -1078Q9 -1114 9 -1130ZM24 -809Q87 -809 118 -785Q119 -785 120 -785Q167 -785 197 -754Q216 -733 229 -698Q240 -670 247 -628Q249 -617 249 -605Q249 -556 219 -510Q257 -480 277 -432Q297 -384 297 -332Q297 -326 297 -319Q299 -307 299 -295Q299 -186 172 -96Q137 -70 99 -70Q58 -70 34 -99Q15 -124 15 -162V-172L-3 -265Q-3 -268 -3 -270Q-3 -280 4.5 -287.5Q12 -295 22 -295Q31 -295 38 -289Q45 -283 47 -275L65 -179Q65 -176 65 -174V-162Q65 -141 73 -131Q82 -120 99 -120Q121 -120 144 -136Q249 -211 249 -295Q249 -304 247 -314Q247 -316 247 -318Q247 -320 247 -325Q247 -330 247 -332Q247 -376 231.5 -413Q216 -450 187 -472Q144 -433 92 -433Q81 -433 72 -440Q66 -445 60 -453Q53 -465 47 -481Q43 -494 43 -504Q43 -525 64 -537Q82 -547 112 -547Q146 -547 176 -535Q199 -570 199 -605Q199 -613 197 -620Q191 -657 182 -681Q173 -706 160 -719Q150 -731 138 -734Q134 -715 120 -703Q100 -687 74 -687Q63 -687 56 -694.5Q49 -702 49 -713Q49 -736 63 -755Q44 -759 26 -759Q25 -759 23 -759Q19 -758 18 -758Q12 -755 6 -755Q-4 -755 -11.5 -762.5Q-19 -770 -19 -780Q-19 -794 -8 -801Q0 -806 20 -809Q22 -809 24 -809ZM95 -495Q102 -497 108 -497Q109 -497 110 -497Q111 -497 112 -497Q124 -497 134 -495Q118 -486 101 -484Q97 -490 95 -495Z"/>
	<path fill="#daa520" d="M138 -942Q150 -942 172.5 -946.5Q195 -951 207 -951Q242 -951 242 -924Q242 -909 235.5 -893.5Q229 -878 223 -870Q217 -862 205 -848Q178 -817 178 -800L179 -797Q183 -789 196 -774Q209 -759 219 -752Q222 -750 225 -749Q234 -750 253 -757Q272 -764 280 -765Q291 -766 325 -767.5Q359 -769 364 -769Q364 -770 364 -770Q364 -775 369 -775Q373 -775 380 -773Q385 -771 385 -767Q385 -764 382 -762Q381 -761 377 -760Q369 -759 332 -758Q292 -756 282 -755Q274 -754 255 -747Q236 -740 225 -739Q220 -739 212 -745Q192 -759 175 -784Q168 -794 168 -800Q168 -821 197 -855Q209 -868 215 -876Q221 -884 226.5 -897.5Q232 -911 232 -924Q232 -941 207 -941Q193 -941 166 -935Q152 -932 138 -932Q90 -932 54 -963Q18 -994 18 -1041Q18 -1052 22 -1074Q29 -1112 29 -1130Q29 -1139 28 -1147Q28 -1147 28 -1148Q28 -1153 33 -1153Q37 -1153 38 -1149Q39 -1140 39 -1130Q39 -1113 30 -1059Q28 -1050 28 -1041Q28 -999 60.5 -970.5Q93 -942 138 -942ZM74 -707Q69 -707 69 -713Q69 -729 78 -742Q87 -755 101 -761Q94 -766 82 -770Q56 -779 24 -779Q11 -777 9 -776Q7 -775 6 -775Q1 -775 1 -780Q1 -782 2.5 -784Q4 -786 7 -786.5Q10 -787 12.5 -787.5Q15 -788 19 -788.5Q23 -789 23 -789Q24 -789 24 -789Q58 -789 85 -780Q103 -774 112 -765Q116 -765 120 -765Q123 -765 126 -765Q204 -764 227 -625Q229 -615 229 -605Q229 -552 191 -506Q232 -481 254.5 -433.5Q277 -386 277 -332Q277 -323 277 -318Q279 -306 279 -295Q279 -196 161 -112Q131 -90 99 -90Q71 -90 53 -108.5Q35 -127 35 -162V-174L17 -269Q17 -270 17 -270Q17 -275 22 -275Q26 -275 27 -271L45 -175Q45 -174 45 -174V-162Q45 -131 60 -115.5Q75 -100 99 -100Q127 -100 155 -120Q269 -201 269 -295Q269 -306 267 -317Q267 -318 267 -318Q267 -320 267 -325Q267 -330 267 -332Q267 -385 245.5 -430Q224 -475 185 -498Q144 -453 92 -453Q83 -453 73 -471Q63 -490 63 -504Q63 -517 79 -522Q95 -527 112 -527Q150 -527 182 -511Q219 -554 219 -605Q219 -614 217 -623Q195 -755 126 -755Q125 -755 123 -755Q121 -755 120 -755Q119 -755 117 -755Q119 -751 119 -746Q119 -729 107 -719Q93 -707 74 -707ZM108 -517Q99 -517 86 -513.5Q73 -510 73 -504Q73 -496 80 -481Q87 -466 92 -463Q138 -463 175 -503Q146 -517 112 -517Q111 -517 110 -517Q109 -517 108 -517ZM109 -746Q109 -750 107 -753Q96 -749 88.5 -739Q81 -729 79 -718Q109 -722 109 -746Z"/>
</svg>