<svg xmlns="http://www.w3.org/2000/svg" viewBox="0 -1024 1024 1024">
	<path fill="#000088" d="M-44 -795Q-48 -795 -52 -795.5Q-56 -796 -58 -796Q-68 -796 -75.5 -803.5Q-83 -811 -83 -821Q-83 -831 -75.5 -838.5Q-68 -846 -58 -846Q-55 -846 -50.5 -845.5Q-46 -845 -44 -845Q-34 -845 -26 -849Q-11 -857 -11 -880Q-13 -883 -16 -885Q-24 -890 -37 -895Q-64 -904 -79 -904Q-147 -904 -283 -868Q-331 -855 -357 -848.5Q-383 -842 -426 -835.5Q-469 -829 -505 -829Q-533 -829 -554 -842Q-582 -859 -596.5 -894Q-611 -929 -611 -971Q-611 -1045 -550 -1110Q-506 -1158 -435 -1193Q-353 -1233 -274 -1242Q-251 -1244 -228 -1244Q-146 -1244 -75.5 -1212Q-5 -1180 42 -1125.5Q89 -1071 115 -999.5Q141 -928 141 -850Q141 -838 141 -833Q143 -835 145 -837Q150 -844 159 -845L186 -851Q188 -852 191 -852Q201 -852 208.5 -844.5Q216 -837 216 -827Q216 -818 210.5 -811Q205 -804 196 -803L178 -798Q146 -760 130 -737Q129 -718 129 -692Q129 -646 131 -541.5Q133 -437 133 -386Q133 -228 122 -152Q117 -123 111 -104Q105 -86 97 -75Q83 -55 62 -55Q35 -55 20 -86Q14 -97 11 -112Q3 -142 -1 -205Q-1 -220 -2 -224Q-5 -251 -5 -280Q-5 -337 10.5 -438.5Q26 -540 28 -580Q34 -680 81 -753Q82 -759 83 -763Q91 -806 91 -850Q91 -944 52.5 -1022Q14 -1100 -60 -1147Q-134 -1194 -228 -1194Q-248 -1194 -268 -1192Q-339 -1185 -413 -1148Q-475 -1117 -514 -1076Q-561 -1026 -561 -971Q-561 -939 -551 -914Q-543 -893 -529 -885Q-519 -879 -505 -879Q-434 -879 -293.5 -916.5Q-153 -954 -79 -954Q-64 -954 -39 -947Q-13 -941 5 -931Q39 -911 39 -881Q39 -855 29 -836Q18 -815 -3 -805Q-22 -795 -44 -795ZM80 -602Q79 -590 78 -576Q76 -536 60.5 -435Q45 -334 45 -280Q45 -276 49 -208Q53 -141 62 -115Q70 -135 75 -179Q83 -250 83 -386Q83 -442 80 -602Z"/>
	<path fill="#800080" d="M6 -795Q2 -795 -2 -795.5Q-6 -796 -8 -796Q-18 -796 -25.5 -803.5Q-33 -811 -33 -821Q-33 -831 -25.5 -838.5Q-18 -846 -8 -846Q-5 -846 -0.5 -845.5Q4 -845 6 -845Q16 -845 24 -849Q39 -857 39 -880Q37 -883 34 -885Q26 -890 13 -895Q-14 -904 -29 -904Q-97 -904 -233 -868Q-281 -855 -307 -848.5Q-333 -842 -376 -835.5Q-419 -829 -455 -829Q-483 -829 -504 -842Q-532 -859 -546.5 -894Q-561 -929 -561 -971Q-561 -1045 -500 -1110Q-456 -1158 -385 -1193Q-303 -1233 -224 -1242Q-201 -1244 -178 -1244Q-96 -1244 -25.5 -1212Q45 -1180 92 -1125.5Q139 -1071 165 -999.5Q191 -928 191 -850Q191 -838 191 -833Q193 -835 195 -837Q200 -844 209 -845L236 -851Q238 -852 241 -852Q251 -852 258.5 -844.5Q266 -837 266 -827Q266 -818 260.5 -811Q255 -804 246 -803L228 -798Q196 -760 180 -737Q179 -718 179 -692Q179 -646 181 -541.5Q183 -437 183 -386Q183 -228 172 -152Q167 -123 161 -104Q155 -86 147 -75Q133 -55 112 -55Q85 -55 70 -86Q64 -97 61 -112Q53 -142 49 -205Q49 -220 48 -224Q45 -251 45 -280Q45 -337 60.5 -438.5Q76 -540 78 -580Q84 -680 131 -753Q132 -759 133 -763Q141 -806 141 -850Q141 -944 102.5 -1022Q64 -1100 -10 -1147Q-84 -1194 -178 -1194Q-198 -1194 -218 -1192Q-289 -1185 -363 -1148Q-425 -1117 -464 -1076Q-511 -1026 -511 -971Q-511 -939 -501 -914Q-493 -893 -479 -885Q-469 -879 -455 -879Q-384 -879 -243.5 -916.5Q-103 -954 -29 -954Q-14 -954 11 -947Q37 -941 55 -931Q89 -911 89 -881Q89 -855 79 -836Q68 -815 47 -805Q28 -795 6 -795ZM130 -602Q129 -590 128 -576Q126 -536 110.5 -435Q95 -334 95 -280Q95 -276 99 -208Q103 -141 112 -115Q120 -135 125 -179Q133 -250 133 -386Q133 -442 130 -602Z"/>
	<path fill="#daa520" d="M6 -815Q3 -815 -1.5 -815.5Q-6 -816 -8 -816Q-13 -816 -13 -821Q-13 -826 -8 -826Q-5 -826 -1 -825.5Q3 -825 6 -825Q16 -825 25.5 -827.5Q35 -830 47 -843.5Q59 -857 59 -881Q59 -898 27 -911Q-5 -924 -29 -924Q-99 -924 -238 -887Q-285 -874 -311 -868Q-337 -862 -378.5 -855.5Q-420 -849 -455 -849Q-480 -849 -498 -861Q-516 -873 -524.5 -893Q-533 -913 -537 -932Q-541 -951 -541 -971Q-541 -1022 -509 -1068Q-477 -1114 -428 -1145Q-379 -1176 -324.5 -1196.5Q-270 -1217 -222 -1222Q-200 -1224 -178 -1224Q-75 -1224 6 -1172Q87 -1120 129 -1035.5Q171 -951 171 -850Q171 -807 164 -765Q179 -787 210 -824Q211 -826 213 -826L240 -832Q240 -832 241 -832Q246 -832 246 -827Q246 -823 242 -822L217 -816Q178 -770 160 -743Q159 -726 159 -692Q159 -646 161 -541.5Q163 -437 163 -386Q163 -229 152 -155Q146 -113 136 -94Q126 -75 112 -75Q91 -75 80 -117Q73 -145 69 -207Q65 -275 65 -280Q65 -336 80.5 -437Q96 -538 98 -578Q104 -675 150 -746Q151 -754 152 -759Q161 -804 161 -850Q161 -948 120 -1031Q79 -1114 0.5 -1164Q-78 -1214 -178 -1214Q-199 -1214 -220 -1212Q-269 -1207 -322 -1187Q-375 -1167 -422 -1136.5Q-469 -1106 -500 -1062Q-531 -1018 -531 -971Q-531 -928 -513 -893.5Q-495 -859 -455 -859Q-382 -859 -242 -896.5Q-102 -934 -29 -934Q-3 -934 31 -920Q69 -905 69 -881Q69 -854 55 -837.5Q41 -821 29 -818Q17 -815 6 -815ZM149 -692Q149 -712 149 -726Q113 -665 108 -578Q106 -537 90.5 -436Q75 -335 75 -280Q75 -275 79 -207Q83 -147 90 -120Q98 -85 112 -85Q122 -85 130 -107Q141 -134 146 -194Q153 -264 153 -386Q153 -437 151 -541.5Q149 -646 149 -692Z"/>
</svg>