<svg xmlns="http://www.w3.org/2000/svg" viewBox="0 -1024 1024 1024">
	<path fill="#000088" d="M225 -411Q225 -421 232.5 -428.5Q240 -436 250 -436Q260 -436 267.5 -429Q275 -422 275 -411L278 -92Q278 -81 270.5 -74Q263 -67 253 -67Q243 -67 235.5 -74Q228 -81 228 -91ZM25 -411Q25 -421 32.5 -428.5Q40 -436 50 -436Q60 -436 67.5 -429Q75 -422 75 -411L78 -92Q78 -81 70.5 -74Q63 -67 53 -67Q43 -67 35.5 -74Q28 -81 28 -91Z"/>
	<path fill="#800080" d="M275 -411Q275 -421 282.5 -428.5Q290 -436 300 -436Q310 -436 317.5 -429Q325 -422 325 -411L328 -92Q328 -81 320.5 -74Q313 -67 303 -67Q293 -67 285.5 -74Q278 -81 278 -91ZM75 -411Q75 -421 82.5 -428.5Q90 -436 100 -436Q110 -436 117.5 -429Q125 -422 125 -411L128 -92Q128 -81 120.5 -74Q113 -67 103 -67Q93 -67 85.5 -74Q78 -81 78 -91Z"/>
	<path fill="#daa520" d="M305 -411L308 -92Q308 -87 303 -87Q298 -87 298 -92Q295 -411 295 -411Q295 -416 300 -416Q305 -416 305 -411ZM105 -411L108 -92Q108 -87 103 -87Q98 -87 98 -92L95 -411Q95 -416 100 -416Q105 -416 105 -411Z"/>
</svg>