<svg xmlns="http://www.w3.org/2000/svg" viewBox="0 -1024 1024 1024">
	<path fill="#000088" d="M319 -158Q319 -167 320 -185Q321 -203 321 -211Q321 -216 321 -220Q285 -239 238 -254Q220 -260 220 -278Q220 -288 227.5 -295.5Q235 -303 245 -303Q249 -303 252 -302Q290 -290 319 -277Q319 -477 422 -697Q443 -741 467 -771Q484 -792 502 -803Q521 -815 540 -815Q562 -815 581 -799Q590 -792 590 -780Q590 -770 582.5 -762.5Q575 -755 565 -755Q556 -755 549 -761Q544 -765 540 -765Q535 -765 528 -761Q518 -754 506 -739Q486 -714 468 -675Q369 -465 369 -275Q369 -262 369 -249Q454 -192 454 -107Q454 -86 448 -77Q441 -68 429 -64Q421 -62 410 -62Q406 -62 399.5 -62.5Q393 -63 391 -63Q370 -63 355 -72Q336 -83 328 -104Q319 -124 319 -158ZM404 -112Q402 -152 370 -184Q369 -167 369 -158Q369 -134 374 -123Q376 -117 380 -115Q384 -113 391 -113Q392 -113 404 -112ZM-11 -778Q-2 -789 11 -789Q14 -789 17 -788Q24 -787 37 -784Q50 -781 55 -776Q62 -768 62 -758Q62 -746 56 -737Q52 -731 47 -727Q65 -730 90 -742Q94 -752 100 -760Q116 -783 138 -783Q149 -783 157.5 -775.5Q166 -768 166 -756Q166 -739 152 -725Q168 -733 171 -734Q188 -739 216 -771Q224 -780 228 -785Q237 -802 253 -802Q264 -802 272 -793Q278 -786 278 -777Q278 -773 277 -769Q276 -766 273 -757Q264 -734 262 -724Q262 -723 262 -722Q262 -716 259 -711Q254 -701 230 -638Q225 -587 181 -533Q170 -519 159 -507Q148 -495 134 -482Q120 -469 111.5 -461.5Q103 -454 86 -440Q69 -426 64 -422Q143 -389 207 -297Q229 -451 253 -558Q277 -667 303 -722Q318 -752 334 -768Q352 -785 373 -785Q376 -785 380 -784Q398 -779 415 -755Q422 -745 424 -743Q436 -736 436 -722Q436 -712 428.5 -704.5Q421 -697 411 -697Q404 -697 398 -701Q387 -708 374 -726Q371 -729 369 -732Q368 -731 367 -730Q358 -720 348 -700Q325 -651 301 -547Q273 -422 248 -230Q263 -202 280 -167Q285 -154 285 -136Q285 -99 269 -75Q256 -55 235 -55Q224 -55 217 -63Q187 -94 187 -138Q187 -145 191 -173Q194 -201 196 -220Q114 -364 12 -386Q3 -387 -2.5 -394Q-8 -401 -8 -410Q-8 -417 -5 -422Q0 -431 14 -444Q23 -452 47 -473Q114 -529 142 -564Q178 -608 180 -646Q180 -650 182 -653Q185 -660 190 -673.5Q195 -687 196 -690Q192 -688 188 -687Q185 -685 177 -681Q145 -665 125 -665Q124 -665 122 -665Q122 -665 120 -665Q118 -665 116 -665Q116 -665 115 -665Q90 -665 81 -684Q59 -677 45 -677Q43 -677 35 -678Q-5 -682 -17 -700Q-25 -711 -25 -724Q-25 -725 -25 -725Q-32 -729 -39.5 -736.5Q-47 -744 -50 -746Q-57 -751 -63 -762Q-76 -769 -76 -784Q-76 -794 -68.5 -801.5Q-61 -809 -51 -809Q-49 -809 -46 -809Q-30 -805 -20 -787Q-19 -786 -19 -785Q-15 -782 -11 -778Z"/>
	<path fill="#800080" d="M369 -158Q369 -167 370 -185Q371 -203 371 -211Q371 -216 371 -220Q335 -239 288 -254Q270 -260 270 -278Q270 -288 277.5 -295.5Q285 -303 295 -303Q299 -303 302 -302Q340 -290 369 -277Q369 -477 472 -697Q493 -741 517 -771Q534 -792 552 -803Q571 -815 590 -815Q612 -815 631 -799Q640 -792 640 -780Q640 -770 632.5 -762.5Q625 -755 615 -755Q606 -755 599 -761Q594 -765 590 -765Q585 -765 578 -761Q568 -754 556 -739Q536 -714 518 -675Q419 -465 419 -275Q419 -262 419 -249Q504 -192 504 -107Q504 -86 498 -77Q491 -68 479 -64Q471 -62 460 -62Q456 -62 449.5 -62.5Q443 -63 441 -63Q420 -63 405 -72Q386 -83 378 -104Q369 -124 369 -158ZM454 -112Q452 -152 420 -184Q419 -167 419 -158Q419 -134 424 -123Q426 -117 430 -115Q434 -113 441 -113Q442 -113 454 -112ZM39 -778Q48 -789 61 -789Q64 -789 67 -788Q74 -787 87 -784Q100 -781 105 -776Q112 -768 112 -758Q112 -746 106 -737Q102 -731 97 -727Q115 -730 140 -742Q144 -752 150 -760Q166 -783 188 -783Q199 -783 207.5 -775.5Q216 -768 216 -756Q216 -739 202 -725Q218 -733 221 -734Q238 -739 266 -771Q274 -780 278 -785Q287 -802 303 -802Q314 -802 322 -793Q328 -786 328 -777Q328 -773 327 -769Q326 -766 323 -757Q314 -734 312 -724Q312 -723 312 -722Q312 -716 309 -711Q304 -701 280 -638Q275 -587 231 -533Q220 -519 209 -507Q198 -495 184 -482Q170 -469 161.5 -461.5Q153 -454 136 -440Q119 -426 114 -422Q193 -389 257 -297Q279 -451 303 -558Q327 -667 353 -722Q368 -752 384 -768Q402 -785 423 -785Q426 -785 430 -784Q448 -779 465 -755Q472 -745 474 -743Q486 -736 486 -722Q486 -712 478.5 -704.5Q471 -697 461 -697Q454 -697 448 -701Q437 -708 424 -726Q421 -729 419 -732Q418 -731 417 -730Q408 -720 398 -700Q375 -651 351 -547Q323 -422 298 -230Q313 -202 330 -167Q335 -154 335 -136Q335 -99 319 -75Q306 -55 285 -55Q274 -55 267 -63Q237 -94 237 -138Q237 -145 241 -173Q244 -201 246 -220Q164 -364 62 -386Q53 -387 47.5 -394Q42 -401 42 -410Q42 -417 45 -422Q50 -431 64 -444Q73 -452 97 -473Q164 -529 192 -564Q228 -608 230 -646Q230 -650 232 -653Q235 -660 240 -673.5Q245 -687 246 -690Q242 -688 238 -687Q235 -685 227 -681Q195 -665 175 -665Q174 -665 172 -665Q172 -665 170 -665Q168 -665 166 -665Q166 -665 165 -665Q140 -665 131 -684Q109 -677 95 -677Q93 -677 85 -678Q45 -682 33 -700Q25 -711 25 -724Q25 -725 25 -725Q18 -729 10.5 -736.5Q3 -744 0 -746Q-7 -751 -13 -762Q-26 -769 -26 -784Q-26 -794 -18.5 -801.5Q-11 -809 -1 -809Q1 -809 4 -809Q20 -805 30 -787Q31 -786 31 -785Q35 -782 39 -778Z"/>
	<path fill="#daa520" d="M390 -158Q390 -167 391 -185Q392 -203 392 -211Q392 -212 391 -232Q351 -256 295 -273Q291 -274 291 -278Q291 -283 296 -283Q297 -283 297 -283Q352 -266 390 -244Q390 -260 390 -275Q390 -471 491 -688Q498 -703 506 -717Q514 -731 528 -751Q542 -771 558.5 -783Q575 -795 591 -795Q606 -795 619 -784Q621 -782 621 -780Q621 -775 616 -775Q614 -775 613 -776Q602 -785 591 -785Q573 -785 552 -763Q531 -741 520 -722Q509 -703 501 -684Q400 -469 400 -275Q400 -256 401 -238Q485 -186 485 -107Q485 -101 485 -96Q485 -82 461 -82Q458 -82 451.5 -82.5Q445 -83 442 -83Q390 -83 390 -158ZM475 -107Q475 -177 402 -225Q402 -219 402 -211Q402 -203 401 -185Q400 -167 400 -158Q400 -126 409 -109.5Q418 -93 442 -93Q445 -93 451.5 -92.5Q458 -92 461 -92Q475 -92 475 -96Q475 -98 475 -101.5Q475 -105 475 -107ZM167 -685Q149 -685 149 -700Q149 -705 151 -713Q117 -697 96 -697Q95 -697 88 -698Q79 -699 75 -699.5Q71 -700 62.5 -702.5Q54 -705 50 -710.5Q46 -716 46 -724Q46 -727 47 -731Q47 -733 48 -738Q40 -740 34.5 -743.5Q29 -747 23 -753Q17 -759 13 -762Q9 -765 5 -772Q2 -779 -1 -779Q-5 -780 -5 -784Q-5 -789 0 -789Q0 -789 1 -789Q8 -788 12.5 -779.5Q17 -771 19 -770Q24 -766 31 -759Q42 -750 50 -748Q52 -758 54 -763Q57 -769 62 -769Q66 -769 87 -764Q93 -762 93 -758Q93 -737 62 -737Q60 -737 58 -737Q57 -732 57 -730Q57 -729 56.5 -727Q56 -725 56 -724Q56 -716 64.5 -712.5Q73 -709 90 -707Q93 -707 95 -707Q95 -707 96 -707Q97 -707 104 -709Q111 -711 119.5 -713Q128 -715 138.5 -719Q149 -723 156 -727Q171 -763 189 -763Q197 -763 197 -756Q197 -739 164 -720Q159 -706 159 -700Q159 -696 160.5 -695.5Q162 -695 167 -695Q168 -695 170.5 -695Q173 -695 174 -695Q174 -695 175 -695Q176 -695 176 -695Q184 -695 192.5 -698Q201 -701 213 -707Q225 -713 228 -715Q238 -718 248 -725.5Q258 -733 264 -739Q270 -745 281 -757Q292 -769 296 -773Q299 -779 300 -780Q302 -782 304 -782Q309 -782 309 -777Q309 -775 305 -764Q293 -732 293 -724Q293 -723 293 -722.5Q293 -722 293 -722Q293 -721 292 -720Q288 -712 261 -643Q259 -615 245 -587.5Q231 -560 205 -532Q179 -504 163 -489Q147 -474 117 -450Q85 -423 77 -413Q186 -386 270 -240Q295 -429 323 -554Q347 -661 372 -713Q397 -765 424 -765Q425 -765 425 -765Q436 -762 447.5 -746Q459 -730 465 -726Q467 -725 467 -722Q467 -717 462 -717Q461 -717 459 -718Q452 -723 441 -737Q431 -753 423 -755Q403 -754 381 -709Q357 -657 333 -552Q304 -423 279 -226Q295 -196 313 -158Q316 -150 316 -136Q316 -105 304 -86Q296 -75 286 -75Q284 -75 282 -77Q258 -102 258 -138Q258 -144 261 -170Q265 -202 268 -224Q180 -382 67 -405Q63 -406 63 -410Q63 -411 64 -412Q70 -423 111 -457Q139 -481 156.5 -497Q174 -513 198.5 -539.5Q223 -566 236 -592.5Q249 -619 251 -644Q251 -645 251 -646Q279 -716 283 -723Q283 -723 283 -724Q283 -732 290 -751Q256 -713 232 -705Q229 -704 216.5 -697.5Q204 -691 195 -688Q186 -685 176 -685Q175 -685 174 -685Q173 -685 170.5 -685Q168 -685 167 -685ZM60 -747Q61 -747 62 -747Q80 -747 82 -754Q76 -756 63 -759Q61 -754 60 -747ZM172 -737Q183 -746 186 -753Q180 -750 172 -737ZM306 -136Q306 -148 303 -154Q289 -184 276 -209Q274 -193 271 -169Q268 -143 268 -138Q268 -108 288 -85Q294 -87 299 -97Q306 -114 306 -136Z"/>
</svg>