<svg xmlns="http://www.w3.org/2000/svg" viewBox="0 -1024 1024 1024">
	<path fill="#000088" d="M188 -879Q184 -879 176 -879Q168 -879 163 -879Q145 -879 110 -863Q65 -843 35 -843Q-3 -843 -28 -888Q-48 -922 -54 -960Q-54 -962 -54 -964Q-54 -974 -46.5 -981.5Q-39 -989 -29 -989Q-20 -989 -13 -983Q-6 -977 -4 -968Q0 -938 15 -913Q26 -893 35 -893Q54 -893 90 -909Q134 -929 163 -929Q167 -929 175.5 -929Q184 -929 188 -929Q220 -929 235 -921Q260 -906 260 -860Q260 -840 247 -819Q287 -825 307 -829Q326 -832 341 -832Q355 -832 368.5 -829Q382 -826 389.5 -823Q397 -820 410.5 -814Q424 -808 430 -806H452Q462 -806 469.5 -798.5Q477 -791 477 -781Q477 -771 469.5 -763.5Q462 -756 452 -756H425Q420 -756 416 -758Q406 -761 390 -769Q361 -782 341 -782Q330 -782 315 -779Q299 -777 254 -769.5Q209 -762 191 -759Q188 -759 186 -759Q175 -759 167 -766.5Q159 -774 159 -785Q159 -792 163 -799Q166 -804 177 -814Q195 -832 202 -842Q210 -853 210 -860Q210 -877 208 -878Q202 -879 188 -879ZM72 -67Q72 -56 64.5 -49Q57 -42 47 -42Q40 -42 31 -47Q22 -55 8 -62Q-10 -72 -20 -72Q-43 -72 -57 -101Q-66 -119 -73 -152Q-86 -213 -86 -241Q-86 -251 -78.5 -258.5Q-71 -266 -61 -266Q-51 -266 -44 -259.5Q-37 -253 -36 -243Q-33 -209 -27 -175Q-20 -137 -12 -122Q7 -119 32 -106Q49 -97 63 -86Q72 -79 72 -67ZM132 -737Q118 -737 87 -735.5Q56 -734 40 -734Q-30 -734 -65 -761Q-75 -769 -75 -781Q-75 -791 -67.5 -798.5Q-60 -806 -50 -806Q-42 -806 -35 -801Q-13 -784 40 -784Q55 -784 86 -785.5Q117 -787 132 -787Q189 -787 220 -770Q232 -762 232 -748Q232 -746 232 -744L212 -625Q209 -598 195 -551Q181 -501 180 -474Q179 -451 169 -410.5Q159 -370 158 -362Q163 -364 170 -371Q181 -384 204 -425Q234 -480 254 -500Q285 -532 323 -532Q343 -532 362 -513Q377 -498 392 -470Q407 -441 418 -408Q428 -380 428 -359Q428 -309 393 -240Q343 -141 250 -96Q180 -62 91 -62Q68 -62 49 -76Q21 -96 2 -148Q-17 -201 -34 -324Q-41 -381 -45 -391Q-46 -395 -46 -399Q-46 -409 -38.5 -416.5Q-31 -424 -21 -424Q-3 -424 3 -407Q8 -393 16 -331Q32 -213 49 -165Q63 -128 78 -116Q84 -112 91 -112Q169 -112 229 -141Q306 -178 349 -262Q378 -321 378 -359Q378 -362 378 -366Q378 -372 372 -388Q356 -438 333 -469Q324 -482 321 -482Q305 -481 289.5 -465.5Q274 -450 248 -402.5Q222 -355 207 -338Q181 -310 151 -310Q150 -310 148.5 -310Q147 -310 145 -310Q138 -310 133 -311Q124 -312 117 -317Q106 -325 106 -339Q106 -364 119 -414Q130 -456 130 -476Q131 -508 145.5 -558Q160 -608 162 -631Q162 -631 162 -632L179 -733Q161 -737 132 -737ZM322 -482Q322 -482 323 -482Z"/>
	<path fill="#800080" d="M238 -879Q234 -879 226 -879Q218 -879 213 -879Q195 -879 160 -863Q115 -843 85 -843Q47 -843 22 -888Q2 -922 -4 -960Q-4 -962 -4 -964Q-4 -974 3.5 -981.5Q11 -989 21 -989Q30 -989 37 -983Q44 -977 46 -968Q50 -938 65 -913Q76 -893 85 -893Q104 -893 140 -909Q184 -929 213 -929Q217 -929 225.5 -929Q234 -929 238 -929Q270 -929 285 -921Q310 -906 310 -860Q310 -840 297 -819Q337 -825 357 -829Q376 -832 391 -832Q405 -832 418.5 -829Q432 -826 439.5 -823Q447 -820 460.5 -814Q474 -808 480 -806H502Q512 -806 519.5 -798.5Q527 -791 527 -781Q527 -771 519.5 -763.5Q512 -756 502 -756H475Q470 -756 466 -758Q456 -761 440 -769Q411 -782 391 -782Q380 -782 365 -779Q349 -777 304 -769.5Q259 -762 241 -759Q238 -759 236 -759Q225 -759 217 -766.5Q209 -774 209 -785Q209 -792 213 -799Q216 -804 227 -814Q245 -832 252 -842Q260 -853 260 -860Q260 -877 258 -878Q252 -879 238 -879ZM122 -67Q122 -56 114.5 -49Q107 -42 97 -42Q90 -42 81 -47Q72 -55 58 -62Q40 -72 30 -72Q7 -72 -7 -101Q-16 -119 -23 -152Q-36 -213 -36 -241Q-36 -251 -28.5 -258.5Q-21 -266 -11 -266Q-1 -266 6 -259.5Q13 -253 14 -243Q17 -209 23 -175Q30 -137 38 -122Q57 -119 82 -106Q99 -97 113 -86Q122 -79 122 -67ZM182 -737Q168 -737 137 -735.5Q106 -734 90 -734Q20 -734 -15 -761Q-25 -769 -25 -781Q-25 -791 -17.5 -798.5Q-10 -806 0 -806Q8 -806 15 -801Q37 -784 90 -784Q105 -784 136 -785.5Q167 -787 182 -787Q239 -787 270 -770Q282 -762 282 -748Q282 -746 282 -744L262 -625Q259 -598 245 -551Q231 -501 230 -474Q229 -451 219 -410.5Q209 -370 208 -362Q213 -364 220 -371Q231 -384 254 -425Q284 -480 304 -500Q335 -532 373 -532Q393 -532 412 -513Q427 -498 442 -470Q457 -441 468 -408Q478 -380 478 -359Q478 -309 443 -240Q393 -141 300 -96Q230 -62 141 -62Q118 -62 99 -76Q71 -96 52 -148Q33 -201 16 -324Q9 -381 5 -391Q4 -395 4 -399Q4 -409 11.5 -416.5Q19 -424 29 -424Q47 -424 53 -407Q58 -393 66 -331Q82 -213 99 -165Q113 -128 128 -116Q134 -112 141 -112Q219 -112 279 -141Q356 -178 399 -262Q428 -321 428 -359Q428 -362 428 -366Q428 -372 422 -388Q406 -438 383 -469Q374 -482 371 -482Q355 -481 339.5 -465.5Q324 -450 298 -402.5Q272 -355 257 -338Q231 -310 201 -310Q200 -310 198.5 -310Q197 -310 195 -310Q188 -310 183 -311Q174 -312 167 -317Q156 -325 156 -339Q156 -364 169 -414Q180 -456 180 -476Q181 -508 195.5 -558Q210 -608 212 -631Q212 -631 212 -632L229 -733Q211 -737 182 -737ZM372 -482Q372 -482 373 -482Z"/>
	<path fill="#daa520" d="M238 -899Q234 -899 226 -899Q218 -899 213 -899Q191 -899 152 -882Q110 -863 85 -863Q59 -863 39 -898Q21 -928 16 -963Q16 -964 16 -964Q16 -969 21 -969Q25 -969 26 -965Q31 -932 48 -903Q65 -873 85 -873Q108 -873 148.5 -891Q189 -909 213 -909Q217 -909 225.5 -909Q234 -909 238 -909Q265 -909 275 -903Q290 -894 290 -860Q290 -854 288.5 -848Q287 -842 283.5 -836Q280 -830 277.5 -825.5Q275 -821 269.5 -815Q264 -809 261.5 -806Q259 -803 253 -797Q247 -791 246 -790Q262 -793 302 -799.5Q342 -806 360 -809Q377 -812 391 -812Q408 -812 421 -808.5Q434 -805 452 -796.5Q470 -788 476 -786H502Q507 -786 507 -781Q507 -776 502 -776H475Q474 -776 473 -776Q464 -780 448 -787Q415 -802 391 -802Q378 -802 362 -799Q346 -797 301 -789.5Q256 -782 238 -779Q237 -779 236 -779Q229 -779 229 -785Q229 -788 233 -792Q235 -794 241 -800Q280 -838 280 -860Q280 -889 269 -895Q262 -899 238 -899ZM127 -92Q127 -94 125 -96Q86 -127 55 -127Q50 -127 45 -139Q38 -153 31 -183Q28 -201 24.5 -221.5Q21 -242 20 -254L19 -266Q19 -271 14 -271Q9 -271 9 -266Q9 -240 22 -181Q28 -150 36 -134Q44 -117 55 -117Q67 -117 83 -109.5Q99 -102 109 -95L119 -88Q120 -87 122 -87Q127 -87 127 -92ZM182 -757Q167 -757 136 -755.5Q105 -754 90 -754Q27 -754 -3 -777Q-5 -779 -5 -781Q-5 -786 0 -786Q2 -786 3 -785Q30 -764 90 -764Q105 -764 136 -765.5Q167 -767 182 -767Q234 -767 260 -752Q262 -751 262 -748Q262 -748 262 -747L242 -627Q240 -604 225.5 -554Q211 -504 210 -475Q210 -453 198 -407.5Q186 -362 186 -341Q189 -340 195 -340Q196 -340 198 -340Q200 -340 201 -340Q220 -340 235.5 -358.5Q251 -377 272 -416Q285 -440 292 -451Q299 -462 312.5 -479.5Q326 -497 340.5 -504.5Q355 -512 373 -512Q396 -512 424 -460Q456 -401 458 -367Q458 -363 458 -359Q458 -313 425 -249Q383 -165 309.5 -123.5Q236 -82 141 -82Q97 -82 71 -155Q52 -206 36 -327Q28 -385 24 -397Q24 -398 24 -399Q24 -404 29 -404Q33 -404 34 -401Q38 -388 46 -328Q62 -208 80 -158Q104 -92 141 -92Q335 -92 417 -253Q448 -316 448 -359Q448 -363 448 -367Q447 -378 437.5 -405Q428 -432 415 -456Q390 -502 373 -502Q358 -502 345 -495Q332 -488 320 -473Q308 -458 300.5 -445.5Q293 -433 281 -411Q269 -390 263.5 -381Q258 -372 247 -357Q236 -342 225 -336Q214 -330 201 -330Q200 -330 198.5 -330Q197 -330 195 -330Q186 -330 181 -332Q176 -334 176 -339Q176 -362 188 -408Q200 -454 200 -475Q201 -505 215.5 -555.5Q230 -606 232 -629L251 -745Q228 -757 182 -757Z"/>
</svg>