<svg xmlns="http://www.w3.org/2000/svg" viewBox="0 -1024 1024 1024">
	<path fill="#000088" d="M22 -411Q22 -421 29.5 -428.5Q37 -436 47 -436Q57 -436 64.5 -429Q72 -422 72 -411L75 -92Q75 -81 67.5 -74Q60 -67 50 -67Q40 -67 32.5 -74Q25 -81 25 -91Z"/>
	<path fill="#800080" d="M72 -411Q72 -421 79.5 -428.5Q87 -436 97 -436Q107 -436 114.5 -429Q122 -422 122 -411L125 -92Q125 -81 117.5 -74Q110 -67 100 -67Q90 -67 82.5 -74Q75 -81 75 -91Z"/>
	<path fill="#daa520" d="M102 -411L105 -92Q105 -87 100 -87Q95 -87 95 -92Q92 -411 92 -411Q92 -416 97 -416Q102 -416 102 -411Z"/>
</svg>