<svg xmlns="http://www.w3.org/2000/svg" viewBox="0 -1024 1024 1024">
	<path fill="#000088" d="M447 -277Q447 -287 444 -308Q441 -329 441 -341Q441 -342 441 -343Q445 -385 458.5 -427Q472 -469 492 -517Q512 -565 520 -592Q525 -607 530 -620Q506 -669 460.5 -705.5Q415 -742 360 -758Q342 -763 342 -782Q342 -792 349.5 -799.5Q357 -807 367 -807Q371 -807 374 -806Q429 -790 477.5 -755.5Q526 -721 558 -673Q565 -685 573 -695Q599 -726 662 -769Q694 -791 712 -805Q719 -810 727 -810Q737 -810 744.5 -802.5Q752 -795 752 -785Q752 -773 742 -765Q724 -751 690 -728Q647 -699 624.5 -677.5Q602 -656 585 -620Q602 -576 602 -530Q602 -514 605 -477Q608 -440 608 -422Q608 -407 606.5 -392Q605 -377 602.5 -359.5Q600 -342 599 -332Q599 -331 599 -330Q596 -316 591 -291Q586 -266 583.5 -250Q581 -234 575.5 -212.5Q570 -191 565 -172Q563 -164 557 -142.5Q551 -121 548 -110Q543 -93 540 -88Q533 -73 517 -73Q502 -73 495 -86Q494 -88 488.5 -97Q483 -106 480.5 -111Q478 -116 474.5 -124.5Q471 -133 469 -141.5Q467 -150 467 -159Q467 -162 468 -165Q466 -174 459.5 -193Q453 -212 450 -228Q447 -244 447 -261Q447 -263 447 -268.5Q447 -274 447 -277ZM552 -530Q552 -531 552 -532Q549 -525 534.5 -488Q520 -451 514.5 -435.5Q509 -420 501 -391.5Q493 -363 491 -340Q491 -330 494 -309Q497 -288 497 -277Q497 -274 497 -268.5Q497 -263 497 -261Q497 -250 500 -236.5Q503 -223 508.5 -205Q514 -187 515 -181Q516 -184 517 -186Q524 -211 549 -339Q550 -347 552.5 -364.5Q555 -382 556.5 -396Q558 -410 558 -422Q558 -423 558 -425Q558 -427 558 -428Q558 -444 555 -479Q552 -514 552 -530ZM245 -810Q245 -810 246 -810L370 -806Q380 -806 387 -798.5Q394 -791 394 -781Q394 -771 386.5 -763.5Q379 -756 369 -756Q369 -756 368 -756L244 -760Q234 -760 227 -767.5Q220 -775 220 -785Q220 -795 227.5 -802.5Q235 -810 245 -810ZM1 -341Q1 -329 2 -309Q3 -289 3 -283Q6 -196 18 -162Q24 -178 41 -178Q44 -178 47 -177L95 -165Q107 -162 112 -151Q113 -148 128 -115Q130 -110 130 -105Q130 -92 124 -83Q115 -70 99 -66Q91 -64 80 -64Q79 -64 78 -64Q77 -64 77 -64Q39 -64 12 -84Q-22 -109 -35 -165Q-41 -188 -43.5 -211.5Q-46 -235 -46.5 -269Q-47 -303 -48 -315.5Q-49 -328 -49 -341Q-49 -473 43 -637Q44 -638 44 -639Q78 -691 138 -760H-51Q-61 -760 -68.5 -767.5Q-76 -775 -76 -785Q-76 -795 -68.5 -802.5Q-61 -810 -51 -810H193Q203 -810 210.5 -802.5Q218 -795 218 -785Q218 -775 212 -768Q209 -766 195 -750Q181 -734 177.5 -730Q174 -726 161.5 -711.5Q149 -697 144 -691Q139 -685 129 -672.5Q119 -660 113 -652Q107 -644 99.5 -633Q92 -622 86 -612Q1 -469 1 -341ZM74 -114Q72 -118 71 -120L37 -128Q51 -115 74 -114Z"/>
	<path fill="#800080" d="M497 -277Q497 -287 494 -308Q491 -329 491 -341Q491 -342 491 -343Q495 -385 508.5 -427Q522 -469 542 -517Q562 -565 570 -592Q575 -607 580 -620Q556 -669 510.5 -705.5Q465 -742 410 -758Q392 -763 392 -782Q392 -792 399.5 -799.5Q407 -807 417 -807Q421 -807 424 -806Q479 -790 527.5 -755.5Q576 -721 608 -673Q615 -685 623 -695Q649 -726 712 -769Q744 -791 762 -805Q769 -810 777 -810Q787 -810 794.5 -802.5Q802 -795 802 -785Q802 -773 792 -765Q774 -751 740 -728Q697 -699 674.5 -677.5Q652 -656 635 -620Q652 -576 652 -530Q652 -514 655 -477Q658 -440 658 -422Q658 -407 656.5 -392Q655 -377 652.5 -359.5Q650 -342 649 -332Q649 -331 649 -330Q646 -316 641 -291Q636 -266 633.5 -250Q631 -234 625.5 -212.5Q620 -191 615 -172Q613 -164 607 -142.5Q601 -121 598 -110Q593 -93 590 -88Q583 -73 567 -73Q552 -73 545 -86Q544 -88 538.5 -97Q533 -106 530.5 -111Q528 -116 524.5 -124.5Q521 -133 519 -141.5Q517 -150 517 -159Q517 -162 518 -165Q516 -174 509.5 -193Q503 -212 500 -228Q497 -244 497 -261Q497 -263 497 -268.5Q497 -274 497 -277ZM602 -530Q602 -531 602 -532Q599 -525 584.5 -488Q570 -451 564.5 -435.5Q559 -420 551 -391.5Q543 -363 541 -340Q541 -330 544 -309Q547 -288 547 -277Q547 -274 547 -268.5Q547 -263 547 -261Q547 -250 550 -236.5Q553 -223 558.5 -205Q564 -187 565 -181Q566 -184 567 -186Q574 -211 599 -339Q600 -347 602.5 -364.5Q605 -382 606.5 -396Q608 -410 608 -422Q608 -423 608 -425Q608 -427 608 -428Q608 -444 605 -479Q602 -514 602 -530ZM295 -810Q295 -810 296 -810L420 -806Q430 -806 437 -798.5Q444 -791 444 -781Q444 -771 436.5 -763.5Q429 -756 419 -756Q419 -756 418 -756L294 -760Q284 -760 277 -767.5Q270 -775 270 -785Q270 -795 277.5 -802.5Q285 -810 295 -810ZM51 -341Q51 -329 52 -309Q53 -289 53 -283Q56 -196 68 -162Q74 -178 91 -178Q94 -178 97 -177L145 -165Q157 -162 162 -151Q163 -148 178 -115Q180 -110 180 -105Q180 -92 174 -83Q165 -70 149 -66Q141 -64 130 -64Q129 -64 128 -64Q127 -64 127 -64Q89 -64 62 -84Q28 -109 15 -165Q9 -188 6.5 -211.5Q4 -235 3.5 -269Q3 -303 2 -315.5Q1 -328 1 -341Q1 -473 93 -637Q94 -638 94 -639Q128 -691 188 -760H-1Q-11 -760 -18.5 -767.5Q-26 -775 -26 -785Q-26 -795 -18.5 -802.5Q-11 -810 -1 -810H243Q253 -810 260.5 -802.5Q268 -795 268 -785Q268 -775 262 -768Q259 -766 245 -750Q231 -734 227.5 -730Q224 -726 211.5 -711.5Q199 -697 194 -691Q189 -685 179 -672.5Q169 -660 163 -652Q157 -644 149.5 -633Q142 -622 136 -612Q51 -469 51 -341ZM124 -114Q122 -118 121 -120L87 -128Q101 -115 124 -114Z"/>
	<path fill="#daa520" d="M517 -277Q517 -287 514 -308.5Q511 -330 511 -341Q515 -381 528 -422.5Q541 -464 561 -512Q581 -560 589 -586Q595 -604 602 -621Q577 -676 527 -718Q477 -760 416 -777Q412 -778 412 -782Q412 -787 417 -787Q418 -787 418 -787Q479 -769 530 -728.5Q581 -688 608 -633Q622 -662 642 -685Q662 -708 677.5 -720Q693 -732 723 -753Q756 -775 774 -789Q775 -790 777 -790Q782 -790 782 -785Q782 -783 780 -781Q762 -767 729 -745Q705 -728 693 -719.5Q681 -711 664 -695.5Q647 -680 635.5 -662Q624 -644 613 -621Q632 -577 632 -530Q632 -513 635 -476Q638 -439 638 -422Q638 -408 636.5 -393.5Q635 -379 632.5 -361.5Q630 -344 629 -334Q626 -321 621.5 -295.5Q617 -270 614 -254.5Q611 -239 606 -217.5Q601 -196 596 -178Q595 -175 586.5 -144.5Q578 -114 574 -101Q572 -96 571 -95Q569 -93 567 -93Q564 -93 563 -96Q562 -97 556.5 -106Q551 -115 549 -119Q547 -123 543.5 -131Q540 -139 538.5 -145.5Q537 -152 537 -159Q537 -163 538 -167Q536 -177 530 -195Q524 -213 520.5 -229.5Q517 -246 517 -261Q517 -263 517 -268.5Q517 -274 517 -277ZM527 -277Q527 -274 527 -268.5Q527 -263 527 -261Q527 -242 537 -206.5Q547 -171 548 -168Q548 -168 548 -167Q548 -166 547.5 -163.5Q547 -161 547 -159Q547 -141 566 -110Q569 -120 576.5 -147Q584 -174 586 -180Q591 -198 596 -219.5Q601 -241 604 -256.5Q607 -272 611.5 -297Q616 -322 619 -336Q620 -345 622.5 -362.5Q625 -380 626.5 -394.5Q628 -409 628 -422Q628 -423 628 -425Q628 -427 628 -428Q628 -444 625 -479Q622 -514 622 -530Q622 -570 608 -608Q603 -596 599 -582Q591 -557 571 -509Q551 -461 538 -420Q525 -379 521 -341Q521 -330 524 -309Q527 -288 527 -277ZM290 -785Q290 -790 295 -790L419 -786Q424 -786 424 -781Q424 -776 419 -776L295 -780Q290 -780 290 -785ZM31 -341Q31 -329 32 -309Q33 -289 33 -283Q34 -255 35 -239Q36 -223 39 -197.5Q42 -172 48.5 -156.5Q55 -141 64.5 -125Q74 -109 90 -101.5Q106 -94 127 -94Q149 -94 150 -104Q139 -129 135 -137L90 -148Q86 -149 86 -153Q86 -158 91 -158Q92 -158 92 -158L140 -146Q143 -145 144 -143Q160 -107 160 -105Q160 -84 128 -84Q127 -84 127 -84Q106 -84 90 -91.5Q74 -99 63.5 -109Q53 -119 45.5 -137.5Q38 -156 34 -170Q30 -184 27.5 -209Q25 -234 24.5 -246Q24 -258 23 -282Q23 -289 22 -309Q21 -329 21 -341Q21 -468 111 -627Q111 -628 111 -628Q150 -688 232 -780H-1Q-6 -780 -6 -785Q-6 -790 -1 -790H243Q248 -790 248 -785Q248 -783 247 -782Q244 -779 230 -763Q216 -747 212 -742.5Q208 -738 195.5 -724Q183 -710 178 -703.5Q173 -697 162.5 -684.5Q152 -672 146 -663.5Q140 -655 132.5 -644Q125 -633 119 -622Q31 -474 31 -341Z"/>
</svg>