<svg xmlns="http://www.w3.org/2000/svg" viewBox="0 -1024 1024 1024">
	<path fill="#000088" d="M238 -760Q228 -760 220.5 -767.5Q213 -775 213 -785Q213 -795 220.5 -802.5Q228 -810 238 -810H768Q778 -810 785.5 -802.5Q793 -795 793 -785Q793 -775 785.5 -767.5Q778 -760 768 -760ZM584 -210Q584 -214 584 -221.5Q584 -229 584 -233Q584 -246 585 -255Q550 -293 520 -305Q504 -311 504 -328Q504 -338 511.5 -345.5Q519 -353 529 -353Q534 -353 538 -351Q569 -339 601 -311Q609 -341 618 -400Q627 -459 633 -485Q633 -486 633 -486Q658 -588 700 -653Q709 -668 720 -682Q731 -696 738 -704.5Q745 -713 759.5 -727.5Q774 -742 779 -746.5Q784 -751 802.5 -767Q821 -783 824 -787Q831 -793 840 -793L916 -797Q916 -797 917 -797Q927 -797 934.5 -789.5Q942 -782 942 -772Q942 -762 935 -755Q928 -748 918 -747L851 -743Q849 -741 839 -732.5Q829 -724 826.5 -721.5Q824 -719 815 -711Q806 -703 803 -700Q800 -697 792.5 -689.5Q785 -682 781.5 -678Q778 -674 772 -667Q766 -660 761.5 -654Q757 -648 752 -641Q747 -634 742 -627Q705 -568 681 -474Q677 -455 665.5 -381.5Q654 -308 641 -268Q693 -201 698 -138Q698 -137 698 -136Q698 -123 691.5 -110Q685 -97 680 -92Q675 -87 665 -76Q658 -70 655 -65Q653 -62 652 -58Q646 -43 629 -43Q619 -43 611.5 -50.5Q604 -58 604 -68Q604 -77 608 -84Q608 -88 608 -91Q608 -112 594 -141Q584 -163 584 -200Q584 -201 584 -202.5Q584 -204 584 -204.5Q584 -205 584 -206Q584 -207 584 -208Q584 -208 584 -209Q584 -210 584 -210ZM646 -148Q643 -164 635 -181Q636 -173 646 -148ZM-7 -747Q-10 -747 -15 -747Q-20 -747 -23 -747H-43Q-53 -747 -60.5 -754.5Q-68 -762 -68 -772Q-68 -782 -60.5 -789.5Q-53 -797 -43 -797H-23Q-20 -797 -15 -797Q-10 -797 -7 -797Q104 -797 166 -783Q226 -769 263 -740Q289 -752 316 -752Q337 -752 357 -745Q420 -744 470 -699Q514 -659 538 -598Q562 -537 562 -476Q562 -464 562 -460Q560 -449 558 -426Q553 -359 537 -327Q523 -265 485 -213.5Q447 -162 390 -141Q376 -135 346 -122Q317 -109 303 -103Q289 -97 262 -90Q235 -83 212 -83Q186 -78 163 -78Q125 -78 94 -92.5Q63 -107 43.5 -129.5Q24 -152 9.5 -183.5Q-5 -215 -12.5 -245Q-20 -275 -24 -309Q-25 -320 -46 -382L-65 -416Q-68 -422 -68 -428Q-68 -438 -60.5 -445.5Q-53 -453 -43 -453Q-28 -453 -21 -440L-1 -404Q0 -402 1 -400Q7 -382 14 -359Q25 -325 26 -315Q34 -230 67 -179Q100 -128 163 -128Q182 -128 204 -132Q206 -133 209 -133Q233 -133 260 -141.5Q287 -150 323.5 -166.5Q360 -183 372 -187Q416 -204 447 -246Q478 -288 488 -341Q489 -345 491 -348Q504 -371 508 -430Q510 -454 512 -466Q512 -471 512 -476Q512 -526 491.5 -578.5Q471 -631 436 -662Q400 -695 356 -695Q355 -695 354 -695Q353 -695 353 -695Q348 -695 344 -697Q331 -702 316 -702Q308 -702 300 -700Q322 -664 322 -616Q322 -588 304.5 -565.5Q287 -543 257 -543Q238 -543 223 -552Q207 -562 199 -582Q192 -600 192 -633Q192 -677 220 -709Q194 -725 155 -734Q98 -747 -7 -747ZM242 -628Q242 -609 245 -600Q247 -596 248 -595Q251 -593 257 -593Q262 -593 267 -599Q272 -605 272 -616Q272 -650 257 -674Q242 -656 242 -633Q242 -633 242 -631Q242 -629 242 -628Z"/>
	<path fill="#800080" d="M288 -760Q278 -760 270.5 -767.5Q263 -775 263 -785Q263 -795 270.5 -802.5Q278 -810 288 -810H818Q828 -810 835.5 -802.5Q843 -795 843 -785Q843 -775 835.5 -767.5Q828 -760 818 -760ZM634 -210Q634 -214 634 -221.5Q634 -229 634 -233Q634 -246 635 -255Q600 -293 570 -305Q554 -311 554 -328Q554 -338 561.5 -345.5Q569 -353 579 -353Q584 -353 588 -351Q619 -339 651 -311Q659 -341 668 -400Q677 -459 683 -485Q683 -486 683 -486Q708 -588 750 -653Q759 -668 770 -682Q781 -696 788 -704.5Q795 -713 809.5 -727.5Q824 -742 829 -746.5Q834 -751 852.5 -767Q871 -783 874 -787Q881 -793 890 -793L966 -797Q966 -797 967 -797Q977 -797 984.5 -789.5Q992 -782 992 -772Q992 -762 985 -755Q978 -748 968 -747L901 -743Q899 -741 889 -732.5Q879 -724 876.5 -721.5Q874 -719 865 -711Q856 -703 853 -700Q850 -697 842.5 -689.5Q835 -682 831.5 -678Q828 -674 822 -667Q816 -660 811.5 -654Q807 -648 802 -641Q797 -634 792 -627Q755 -568 731 -474Q727 -455 715.5 -381.5Q704 -308 691 -268Q743 -201 748 -138Q748 -137 748 -136Q748 -123 741.5 -110Q735 -97 730 -92Q725 -87 715 -76Q708 -70 705 -65Q703 -62 702 -58Q696 -43 679 -43Q669 -43 661.5 -50.5Q654 -58 654 -68Q654 -77 658 -84Q658 -88 658 -91Q658 -112 644 -141Q634 -163 634 -200Q634 -201 634 -202.5Q634 -204 634 -204.5Q634 -205 634 -206Q634 -207 634 -208Q634 -208 634 -209Q634 -210 634 -210ZM696 -148Q693 -164 685 -181Q686 -173 696 -148ZM43 -747Q40 -747 35 -747Q30 -747 27 -747H7Q-3 -747 -10.5 -754.5Q-18 -762 -18 -772Q-18 -782 -10.5 -789.5Q-3 -797 7 -797H27Q30 -797 35 -797Q40 -797 43 -797Q154 -797 216 -783Q276 -769 313 -740Q339 -752 366 -752Q387 -752 407 -745Q470 -744 520 -699Q564 -659 588 -598Q612 -537 612 -476Q612 -464 612 -460Q610 -449 608 -426Q603 -359 587 -327Q573 -265 535 -213.5Q497 -162 440 -141Q426 -135 396 -122Q367 -109 353 -103Q339 -97 312 -90Q285 -83 262 -83Q236 -78 213 -78Q175 -78 144 -92.5Q113 -107 93.5 -129.5Q74 -152 59.5 -183.5Q45 -215 37.5 -245Q30 -275 26 -309Q25 -320 4 -382L-15 -416Q-18 -422 -18 -428Q-18 -438 -10.5 -445.5Q-3 -453 7 -453Q22 -453 29 -440L49 -404Q50 -402 51 -400Q57 -382 64 -359Q75 -325 76 -315Q84 -230 117 -179Q150 -128 213 -128Q232 -128 254 -132Q256 -133 259 -133Q283 -133 310 -141.5Q337 -150 373.5 -166.5Q410 -183 422 -187Q466 -204 497 -246Q528 -288 538 -341Q539 -345 541 -348Q554 -371 558 -430Q560 -454 562 -466Q562 -471 562 -476Q562 -526 541.5 -578.5Q521 -631 486 -662Q450 -695 406 -695Q405 -695 404 -695Q403 -695 403 -695Q398 -695 394 -697Q381 -702 366 -702Q358 -702 350 -700Q372 -664 372 -616Q372 -588 354.5 -565.5Q337 -543 307 -543Q288 -543 273 -552Q257 -562 249 -582Q242 -600 242 -633Q242 -677 270 -709Q244 -725 205 -734Q148 -747 43 -747ZM292 -628Q292 -609 295 -600Q297 -596 298 -595Q301 -593 307 -593Q312 -593 317 -599Q322 -605 322 -616Q322 -650 307 -674Q292 -656 292 -633Q292 -633 292 -631Q292 -629 292 -628Z"/>
	<path fill="#daa520" d="M288 -780Q283 -780 283 -785Q283 -790 288 -790H818Q823 -790 823 -785Q823 -780 818 -780ZM654 -210Q654 -214 654 -222Q654 -230 654 -233V-234Q654 -250 657 -261Q616 -308 577 -323Q574 -325 574 -328Q574 -333 579 -333Q580 -333 581 -333Q620 -317 661 -272Q674 -312 686 -387Q698 -462 702 -481Q727 -580 767 -643Q775 -656 785.5 -669.5Q796 -683 803 -691.5Q810 -700 824.5 -714Q839 -728 843.5 -732Q848 -736 866 -752.5Q884 -769 888 -772Q889 -773 891 -773L967 -777Q972 -777 972 -772Q972 -767 967 -767L893 -763Q889 -759 875 -746.5Q861 -734 856 -729.5Q851 -725 839.5 -714Q828 -703 822 -696.5Q816 -690 806.5 -679.5Q797 -669 789.5 -659Q782 -649 775 -637Q736 -576 712 -479Q708 -463 695.5 -384Q683 -305 668 -264Q723 -198 728 -136Q728 -124 720.5 -113Q713 -102 701.5 -91Q690 -80 686 -73Q683 -63 679 -63Q674 -63 674 -68Q674 -73 677 -78Q678 -84 678 -91Q678 -117 662 -150Q654 -168 654 -204Q654 -205 654 -206Q654 -207 654 -208Q654 -209 654 -210ZM664 -210Q664 -209 664 -208Q664 -207 664 -206Q664 -205 664 -204Q664 -170 672 -154Q688 -120 688 -92Q718 -122 718 -136Q714 -191 665 -251Q664 -244 664 -233Q664 -230 664 -222Q664 -214 664 -210ZM43 -767Q40 -767 35 -767Q30 -767 27 -767H7Q2 -767 2 -772Q2 -777 7 -777H27Q30 -777 35 -777Q40 -777 43 -777Q83 -777 110.5 -775.5Q138 -774 179.5 -769Q221 -764 254.5 -750.5Q288 -737 310 -716Q336 -732 366 -732Q386 -732 404 -725Q404 -725 404.5 -725Q405 -725 406 -725Q461 -725 505.5 -684.5Q550 -644 571 -588Q592 -532 592 -476Q592 -466 592 -463Q590 -451 588 -421.5Q586 -392 581.5 -372Q577 -352 568 -334Q556 -275 520.5 -227Q485 -179 433 -159Q420 -155 383 -138Q346 -121 317 -112Q288 -103 260 -103Q235 -98 213 -98Q172 -98 140.5 -116Q109 -134 90 -166Q71 -198 60.5 -234Q50 -270 46 -311Q45 -324 22 -390L3 -426Q2 -427 2 -428Q2 -433 7 -433Q10 -433 11 -430L31 -394Q32 -394 37.5 -377.5Q43 -361 49 -340.5Q55 -320 56 -313Q60 -271 70 -236.5Q80 -202 98 -172Q116 -142 145.5 -125Q175 -108 213 -108Q234 -108 258 -113Q258 -113 259 -113Q286 -113 314.5 -121.5Q343 -130 380 -147Q417 -164 429 -169Q479 -187 513 -233.5Q547 -280 558 -337Q558 -338 559 -338Q568 -355 572 -374Q576 -393 578 -422.5Q580 -452 582 -464Q582 -470 582 -476Q582 -531 561.5 -584.5Q541 -638 499 -676.5Q457 -715 406 -715Q404 -715 403 -715Q402 -715 401 -715Q384 -722 366 -722Q340 -722 318 -709Q352 -673 352 -616Q352 -595 339.5 -579Q327 -563 307 -563Q292 -563 282.5 -569Q273 -575 268.5 -586.5Q264 -598 263 -608.5Q262 -619 262 -633Q262 -681 302 -711Q280 -730 248.5 -742Q217 -754 177.5 -759Q138 -764 110 -765.5Q82 -767 43 -767ZM272 -628Q272 -573 307 -573Q322 -573 332 -585.5Q342 -598 342 -616Q342 -669 309 -704Q272 -677 272 -633Q272 -632 272 -630.5Q272 -629 272 -628Z"/>
</svg>