<svg xmlns="http://www.w3.org/2000/svg" viewBox="0 -1024 1024 1024">
	<path fill="#000088" d="M358 -756Q240 -756 199 -756Q53 -756 -52 -758Q-62 -758 -69 -765.5Q-76 -773 -76 -783Q-76 -793 -68.5 -800.5Q-61 -808 -51 -808Q-51 -808 -50 -808Q53 -806 199 -806Q244 -806 332.5 -806Q421 -806 465 -806Q516 -806 558 -806Q571 -806 578 -796Q612 -825 650 -832Q655 -833 661 -833Q668 -833 681 -830Q688 -829 690 -829Q691 -829 692 -829Q693 -829 694 -829Q704 -829 720 -824Q734 -820 745 -815Q753 -811 757 -803L766 -785Q769 -780 769 -774Q769 -764 761.5 -756.5Q754 -749 744 -749Q729 -749 722 -763L717 -772Q702 -777 694 -779Q692 -779 690 -779Q684 -779 674.5 -781Q665 -783 661 -783Q659 -783 658 -782Q631 -778 605 -752Q574 -721 548 -663Q524 -608 508.5 -542.5Q493 -477 490 -436Q488 -411 481 -361Q474 -311 472 -288Q583 -243 583 -153Q583 -143 578 -128Q566 -91 548 -72Q535 -59 520 -59Q517 -59 513 -60Q496 -64 483 -71Q470 -78 461 -90Q452 -102 446.5 -111.5Q441 -121 437.5 -137.5Q434 -154 432.5 -162Q431 -170 429 -186Q427 -202 425 -209Q422 -230 422 -252Q386 -262 336 -270Q323 -204 283.5 -150.5Q244 -97 183 -73Q182 -72 177 -68.5Q172 -65 169 -63Q166 -61 160.5 -59.5Q155 -58 150 -58Q141 -58 133 -62Q63 -97 50 -179Q49 -186 49 -194Q49 -234 78 -261Q107 -288 144 -297Q153 -300 183.5 -309Q214 -318 236 -322Q258 -326 281 -326Q287 -326 293 -326Q293 -328 293 -330Q293 -365 256 -404Q225 -435 146 -484Q108 -509 95 -519Q84 -528 79 -536Q71 -546 71 -558Q71 -607 128 -651Q198 -707 358 -756ZM343 -320Q389 -313 424 -304Q425 -323 431.5 -369Q438 -415 440 -440Q443 -486 459 -554.5Q475 -623 503 -684Q520 -723 540 -752Q403 -722 297 -683Q204 -648 158 -612Q125 -586 121 -562Q126 -558 134 -552Q144 -545 173 -527Q257 -474 292 -438Q343 -385 343 -330Q343 -326 343 -320ZM515 -111Q529 -131 533 -153Q533 -202 473 -233Q473 -225 475 -217Q486 -147 489 -139Q494 -128 500 -121.5Q506 -115 515 -111ZM99 -194Q99 -191 100 -187Q108 -135 149 -110Q158 -116 165 -119Q211 -137 242.5 -179.5Q274 -222 287 -276Q284 -276 281 -276Q264 -276 243.5 -272Q223 -268 193.5 -259.5Q164 -251 156 -249Q122 -240 107 -217Q99 -206 99 -194Z"/>
	<path fill="#800080" d="M408 -756Q290 -756 249 -756Q103 -756 -2 -758Q-12 -758 -19 -765.5Q-26 -773 -26 -783Q-26 -793 -18.5 -800.5Q-11 -808 -1 -808Q-1 -808 0 -808Q103 -806 249 -806Q294 -806 382.5 -806Q471 -806 515 -806Q566 -806 608 -806Q621 -806 628 -796Q662 -825 700 -832Q705 -833 711 -833Q718 -833 731 -830Q738 -829 740 -829Q741 -829 742 -829Q743 -829 744 -829Q754 -829 770 -824Q784 -820 795 -815Q803 -811 807 -803L816 -785Q819 -780 819 -774Q819 -764 811.5 -756.5Q804 -749 794 -749Q779 -749 772 -763L767 -772Q752 -777 744 -779Q742 -779 740 -779Q734 -779 724.5 -781Q715 -783 711 -783Q709 -783 708 -782Q681 -778 655 -752Q624 -721 598 -663Q574 -608 558.5 -542.5Q543 -477 540 -436Q538 -411 531 -361Q524 -311 522 -288Q633 -243 633 -153Q633 -143 628 -128Q616 -91 598 -72Q585 -59 570 -59Q567 -59 563 -60Q546 -64 533 -71Q520 -78 511 -90Q502 -102 496.5 -111.5Q491 -121 487.5 -137.5Q484 -154 482.5 -162Q481 -170 479 -186Q477 -202 475 -209Q472 -230 472 -252Q436 -262 386 -270Q373 -204 333.5 -150.5Q294 -97 233 -73Q232 -72 227 -68.5Q222 -65 219 -63Q216 -61 210.5 -59.5Q205 -58 200 -58Q191 -58 183 -62Q113 -97 100 -179Q99 -186 99 -194Q99 -234 128 -261Q157 -288 194 -297Q203 -300 233.5 -309Q264 -318 286 -322Q308 -326 331 -326Q337 -326 343 -326Q343 -328 343 -330Q343 -365 306 -404Q275 -435 196 -484Q158 -509 145 -519Q134 -528 129 -536Q121 -546 121 -558Q121 -607 178 -651Q248 -707 408 -756ZM393 -320Q439 -313 474 -304Q475 -323 481.5 -369Q488 -415 490 -440Q493 -486 509 -554.5Q525 -623 553 -684Q570 -723 590 -752Q453 -722 347 -683Q254 -648 208 -612Q175 -586 171 -562Q176 -558 184 -552Q194 -545 223 -527Q307 -474 342 -438Q393 -385 393 -330Q393 -326 393 -320ZM565 -111Q579 -131 583 -153Q583 -202 523 -233Q523 -225 525 -217Q536 -147 539 -139Q544 -128 550 -121.5Q556 -115 565 -111ZM149 -194Q149 -191 150 -187Q158 -135 199 -110Q208 -116 215 -119Q261 -137 292.5 -179.5Q324 -222 337 -276Q334 -276 331 -276Q314 -276 293.5 -272Q273 -268 243.5 -259.5Q214 -251 206 -249Q172 -240 157 -217Q149 -206 149 -194Z"/>
	<path fill="#daa520" d="M515 -776Q471 -776 382.5 -776Q294 -776 249 -776Q103 -776 -1 -778Q-6 -778 -6 -783Q-6 -788 -1 -788Q103 -786 249 -786Q294 -786 382.5 -786Q471 -786 515 -786Q566 -786 608 -786Q613 -786 613 -781Q613 -777 609 -776Q466 -749 340 -701Q244 -665 196 -628Q151 -593 151 -558Q151 -553 164 -542Q175 -533 212 -510Q241 -492 255 -482.5Q269 -473 295.5 -452.5Q322 -432 336 -415.5Q350 -399 361.5 -376Q373 -353 373 -330Q373 -318 371 -303Q446 -292 492 -278Q493 -306 500.5 -360Q508 -414 510 -438Q513 -482 529 -549.5Q545 -617 571 -676Q626 -800 703 -812Q707 -813 711 -813Q716 -813 725.5 -811Q735 -809 740 -809Q741 -809 742 -809Q743 -809 744 -809Q759 -809 787 -797Q789 -796 789 -794L798 -776Q799 -775 799 -774Q799 -769 794 -769Q791 -769 790 -772L781 -788Q755 -799 744 -799Q743 -799 742 -799Q741 -799 740 -799Q735 -799 725.5 -801Q716 -803 711 -803Q708 -803 705 -802Q633 -790 580 -671Q554 -614 538.5 -547.5Q523 -481 520 -438Q518 -413 510.5 -358Q503 -303 502 -274Q613 -235 613 -153Q613 -141 603 -118.5Q593 -96 584 -86Q577 -79 570 -79Q569 -79 568 -79Q552 -83 540 -91.5Q528 -100 521 -109Q514 -118 509 -134Q504 -150 502.5 -160Q501 -170 498 -189Q496 -204 495 -212Q491 -235 491 -260Q491 -263 491 -267Q445 -282 370 -293Q360 -225 322.5 -169.5Q285 -114 226 -91Q224 -91 215.5 -84.5Q207 -78 200 -78Q196 -78 192 -80Q132 -111 120 -182Q119 -188 119 -194Q119 -225 143 -247.5Q167 -270 199 -278Q208 -280 238 -289Q268 -298 289 -302Q310 -306 331 -306Q343 -306 361 -304Q363 -319 363 -330Q363 -355 349.5 -380Q336 -405 308.5 -428.5Q281 -452 261 -466Q241 -480 207 -501Q169 -525 158 -534Q141 -548 141 -558Q141 -598 190 -636Q239 -674 337 -711Q434 -747 562 -776Q540 -776 515 -776ZM570 -89Q573 -89 576 -93Q582 -98 588 -110Q603 -138 603 -153Q603 -226 501 -263Q501 -262 501 -260Q501 -236 505 -214Q506 -207 509 -186.5Q512 -166 513.5 -158Q515 -150 519.5 -135.5Q524 -121 530 -114Q536 -107 546 -99.5Q556 -92 570 -89ZM200 -88Q203 -88 211 -94Q218 -99 222 -101Q278 -123 314.5 -176Q351 -229 360 -294Q342 -296 331 -296Q311 -296 290 -292Q269 -288 239.5 -279Q210 -270 201 -268Q172 -261 150.5 -241Q129 -221 129 -194Q129 -189 130 -184Q141 -117 196 -88Q198 -88 200 -88Z"/>
</svg>