<svg xmlns="http://www.w3.org/2000/svg" viewBox="0 -1024 1024 1024">
	<path fill="#000088" d="M96 -747Q77 -747 38.5 -749.5Q0 -752 -18 -752Q-33 -752 -38 -751Q-46 -750 -51 -750Q-55 -750 -58 -751Q-66 -752 -71 -757Q-80 -765 -80 -776Q-80 -785 -74 -792Q-66 -803 -53 -803Q-48 -803 -43 -801Q-36 -802 -18 -802Q1 -802 39 -799.5Q77 -797 96 -797Q101 -797 110.5 -797Q120 -797 125 -797Q154 -797 213 -792.5Q272 -788 301 -788Q315 -788 328 -789Q362 -791 413 -795Q426 -799 439 -799Q446 -799 449 -798Q453 -798 455 -797Q487 -806 530 -806Q532 -806 535.5 -806Q539 -806 541 -806Q553 -806 585 -806.5Q617 -807 629 -807Q640 -807 646 -807Q656 -807 663 -799.5Q670 -792 670 -782Q670 -772 662.5 -764.5Q655 -757 645 -757Q643 -757 638 -757Q633 -757 629 -757Q618 -757 585.5 -756.5Q553 -756 541 -756Q539 -756 535.5 -756Q532 -756 530 -756Q439 -756 414 -703Q401 -676 396 -604Q394 -567 392 -552Q434 -581 481 -581Q510 -581 533 -566Q586 -529 586 -420Q586 -384 571 -360Q548 -323 499 -323Q458 -323 419 -340.5Q380 -358 356 -383Q346 -394 338 -406Q307 -342 292 -268Q319 -221 337 -166Q340 -154 340 -141Q340 -109 325 -89Q312 -73 294 -73Q283 -73 273 -80Q260 -89 250 -112Q236 -145 234 -166Q233 -177 233 -190Q233 -222 239 -259Q184 -347 95 -399Q43 -371 -11 -371Q-32 -371 -47 -391Q-56 -401 -61 -416Q-68 -434 -68 -448Q-68 -458 -61 -466Q-55 -473 -45 -475Q-34 -479 -10 -479Q9 -479 28 -477Q45 -476 51 -474Q73 -466 93 -457Q105 -465 117 -476Q169 -519 257 -639Q311 -712 336 -739Q318 -738 301 -738Q271 -738 212.5 -742.5Q154 -747 125 -747Q120 -747 110.5 -747Q101 -747 96 -747ZM140 -430Q206 -387 254 -325Q281 -418 325 -483Q328 -505 334 -521Q343 -544 346 -607Q350 -661 355 -685Q336 -662 297 -610Q265 -566 248 -544Q231 -522 200 -487.5Q169 -453 140 -430ZM481 -531Q428 -531 381 -473Q377 -469 374 -464Q374 -459 374 -458Q374 -437 392 -418Q408 -400 435 -388Q468 -373 499 -373Q520 -373 528 -387Q536 -399 536 -420Q536 -461 527 -489Q519 -515 504 -524Q495 -531 481 -531ZM290 -147Q290 -150 285 -163Q287 -156 290 -147ZM-10 -429Q-11 -429 -12 -429Q-10 -424 -8 -421Q11 -421 30 -427Q10 -429 -10 -429Z"/>
	<path fill="#800080" d="M146 -747Q127 -747 88.5 -749.5Q50 -752 32 -752Q17 -752 12 -751Q4 -750 -1 -750Q-5 -750 -8 -751Q-16 -752 -21 -757Q-30 -765 -30 -776Q-30 -785 -24 -792Q-16 -803 -3 -803Q2 -803 7 -801Q14 -802 32 -802Q51 -802 89 -799.5Q127 -797 146 -797Q151 -797 160.5 -797Q170 -797 175 -797Q204 -797 263 -792.5Q322 -788 351 -788Q365 -788 378 -789Q412 -791 463 -795Q476 -799 489 -799Q496 -799 499 -798Q503 -798 505 -797Q537 -806 580 -806Q582 -806 585.5 -806Q589 -806 591 -806Q603 -806 635 -806.5Q667 -807 679 -807Q690 -807 696 -807Q706 -807 713 -799.5Q720 -792 720 -782Q720 -772 712.5 -764.5Q705 -757 695 -757Q693 -757 688 -757Q683 -757 679 -757Q668 -757 635.5 -756.5Q603 -756 591 -756Q589 -756 585.5 -756Q582 -756 580 -756Q489 -756 464 -703Q451 -676 446 -604Q444 -567 442 -552Q484 -581 531 -581Q560 -581 583 -566Q636 -529 636 -420Q636 -384 621 -360Q598 -323 549 -323Q508 -323 469 -340.5Q430 -358 406 -383Q396 -394 388 -406Q357 -342 342 -268Q369 -221 387 -166Q390 -154 390 -141Q390 -109 375 -89Q362 -73 344 -73Q333 -73 323 -80Q310 -89 300 -112Q286 -145 284 -166Q283 -177 283 -190Q283 -222 289 -259Q234 -347 145 -399Q93 -371 39 -371Q18 -371 3 -391Q-6 -401 -11 -416Q-18 -434 -18 -448Q-18 -458 -11 -466Q-5 -473 5 -475Q16 -479 40 -479Q59 -479 78 -477Q95 -476 101 -474Q123 -466 143 -457Q155 -465 167 -476Q219 -519 307 -639Q361 -712 386 -739Q368 -738 351 -738Q321 -738 262.5 -742.5Q204 -747 175 -747Q170 -747 160.5 -747Q151 -747 146 -747ZM190 -430Q256 -387 304 -325Q331 -418 375 -483Q378 -505 384 -521Q393 -544 396 -607Q400 -661 405 -685Q386 -662 347 -610Q315 -566 298 -544Q281 -522 250 -487.5Q219 -453 190 -430ZM531 -531Q478 -531 431 -473Q427 -469 424 -464Q424 -459 424 -458Q424 -437 442 -418Q458 -400 485 -388Q518 -373 549 -373Q570 -373 578 -387Q586 -399 586 -420Q586 -461 577 -489Q569 -515 554 -524Q545 -531 531 -531ZM340 -147Q340 -150 335 -163Q337 -156 340 -147ZM40 -429Q39 -429 38 -429Q40 -424 42 -421Q61 -421 80 -427Q60 -429 40 -429Z"/>
	<path fill="#daa520" d="M-2 -770Q-10 -770 -10 -776Q-10 -779 -6 -782Q-5 -783 -3 -783Q0 -783 2 -780Q3 -780 6 -780.5Q9 -781 11 -781Q21 -782 32 -782Q51 -782 89 -779.5Q127 -777 146 -777Q151 -777 160.5 -777Q170 -777 175 -777Q204 -777 263 -772.5Q322 -768 351 -768Q366 -768 379 -769Q418 -771 467 -775Q478 -779 489 -779Q490 -779 492 -779Q494 -779 494.5 -779Q495 -779 495 -779Q500 -779 500 -774Q533 -786 580 -786Q582 -786 585.5 -786Q589 -786 591 -786Q603 -786 635.5 -786.5Q668 -787 679 -787Q690 -787 695 -787Q700 -787 700 -782Q700 -777 695 -777Q693 -777 688 -777Q683 -777 679 -777Q668 -777 635.5 -776.5Q603 -776 591 -776Q589 -776 585.5 -776Q582 -776 580 -776Q476 -776 445 -712Q431 -681 426 -605Q422 -538 412 -510Q408 -502 407 -491Q464 -561 531 -561Q565 -561 585.5 -535Q606 -509 611 -481Q616 -453 616 -420Q616 -386 599.5 -364.5Q583 -343 549 -343Q552 -341 552 -340Q552 -339 551 -339Q540 -339 503.5 -355Q467 -371 430.5 -400Q394 -429 394 -456Q342 -375 321 -265Q350 -216 368 -160Q370 -151 370 -141Q370 -116 359 -101Q353 -93 344 -93Q330 -93 318 -120Q306 -150 304 -168Q303 -178 303 -190Q303 -223 310 -263Q253 -359 156 -416Q151 -419 145 -422Q92 -391 39 -391Q28 -391 18 -403Q2 -424 2 -448Q2 -455 14 -457Q23 -459 40 -459Q82 -459 95 -455Q121 -446 144 -434Q176 -454 211 -489.5Q246 -525 267 -552Q288 -579 323 -627Q386 -713 416 -741Q430 -755 443 -763Q377 -758 351 -758Q322 -758 263 -762.5Q204 -767 175 -767Q170 -767 160.5 -767Q151 -767 146 -767Q127 -767 89 -769.5Q51 -772 32 -772Q15 -772 9 -771Q2 -770 -1 -770Q-2 -770 -2 -770ZM313 -278Q337 -395 395 -475Q397 -500 402 -514Q412 -540 416 -605Q421 -684 436 -716Q452 -750 485 -767Q479 -766 469 -766Q448 -758 423 -734Q394 -707 331 -621Q296 -573 276 -547.5Q256 -522 221 -485.5Q186 -449 154 -428Q252 -373 313 -278ZM531 -551Q469 -551 415 -486Q410 -479 405 -472Q404 -460 404 -458Q404 -415 451.5 -384Q499 -353 549 -353Q606 -353 606 -420Q606 -551 531 -551ZM360 -141Q360 -149 358 -156Q342 -206 318 -250Q313 -217 313 -190Q313 -178 314 -168Q316 -152 328 -124Q336 -103 344 -103Q348 -103 351 -108Q360 -119 360 -141ZM40 -449Q19 -449 12 -446Q13 -434 21 -417.5Q29 -401 39 -401Q39 -401 38 -401Q42 -401 58.5 -404Q75 -407 98.5 -414Q122 -421 134 -428Q114 -438 91 -445Q81 -449 40 -449Z"/>
</svg>