<svg xmlns="http://www.w3.org/2000/svg" viewBox="0 -1024 1024 1024">
	<path fill="#000088" d="M392 -944Q392 -942 392 -939.5Q392 -937 392 -937Q392 -931 392 -926Q392 -877 361 -857Q353 -844 329 -801L538 -805L593 -809Q594 -809 595 -809Q605 -809 612.5 -801.5Q620 -794 620 -784Q620 -774 613.5 -767Q607 -760 597 -759L541 -755Q540 -755 539 -755L311 -751Q302 -751 295 -757Q295 -757 292 -759Q289 -761 288.5 -761.5Q288 -762 285.5 -764Q283 -766 282 -766.5Q281 -767 279 -769Q277 -771 276 -772.5Q275 -774 273.5 -776.5Q272 -779 271.5 -781.5Q271 -784 270.5 -786.5Q270 -789 270 -792Q270 -799 273 -804Q312 -874 320 -887Q323 -892 326 -894Q329 -897 333 -899Q342 -903 342 -926Q342 -928 342 -930Q314 -927 258 -900Q232 -888 218.5 -882Q205 -876 179.5 -869.5Q154 -863 131 -863Q128 -863 125 -864Q91 -871 59 -899Q21 -931 8 -967Q6 -972 6 -976Q6 -986 13.5 -993.5Q21 -1001 31 -1001Q48 -1001 54 -985Q63 -961 91 -937Q113 -919 134 -913Q170 -914 236 -945Q261 -957 273.5 -962.5Q286 -968 310 -974.5Q334 -981 355 -981Q377 -981 387 -964Q392 -956 392 -945ZM-13 -795Q3 -795 35.5 -798.5Q68 -802 85 -802Q96 -802 105 -801Q168 -797 205 -789Q253 -779 281 -758Q324 -726 324 -673Q324 -648 306 -592Q289 -539 288 -512Q296 -518 307 -520Q309 -520 312 -524Q317 -527 327 -539Q339 -552 346 -558.5Q353 -565 368 -573Q383 -581 399 -581Q402 -581 405 -580Q434 -574 459 -532Q477 -515 488 -495Q499 -475 503.5 -450Q508 -425 509.5 -411Q511 -397 512 -368Q512 -348 512 -341Q512 -259 482 -205Q466 -143 445 -111Q413 -62 364 -62Q353 -62 319 -66Q284 -70 267 -70Q226 -70 193 -112Q172 -139 142 -205Q125 -243 119 -252Q116 -256 115 -260L75 -404Q74 -406 74 -407L70 -435Q70 -437 70 -439Q70 -449 77.5 -456.5Q85 -464 95 -464Q104 -464 111 -458Q118 -452 120 -443L124 -416L162 -278Q170 -265 188 -225Q215 -165 232 -143Q250 -120 267 -120Q287 -120 319 -116.5Q351 -113 361 -112Q362 -112 364 -112Q386 -112 404 -139Q420 -163 435 -221Q436 -225 437 -228Q462 -270 462 -341Q462 -347 462 -367Q461 -402 459 -420Q457 -438 448 -460Q439 -482 422 -498Q419 -500 417 -504Q409 -519 402 -526Q399 -529 396 -531Q390 -529 383 -523Q376 -518 363 -503.5Q350 -489 342 -483Q330 -474 318 -471Q316 -469 314 -468Q298 -449 280 -449Q276 -449 272 -450Q251 -452 242 -470Q237 -479 237 -491Q237 -494 237.5 -499.5Q238 -505 238 -507Q238 -532 243.5 -556Q249 -580 258 -607.5Q267 -635 271 -650Q274 -662 274 -673Q274 -701 251 -718Q232 -732 194 -740Q161 -748 102 -751Q89 -752 85 -752Q70 -752 37 -748.5Q4 -745 -13 -745Q-27 -745 -39 -747H-45Q-55 -747 -62.5 -754.5Q-70 -762 -70 -772Q-70 -782 -62.5 -789.5Q-55 -797 -45 -797H-37Q-35 -797 -33 -797Q-24 -795 -13 -795Z"/>
	<path fill="#800080" d="M442 -944Q442 -942 442 -939.5Q442 -937 442 -937Q442 -931 442 -926Q442 -877 411 -857Q403 -844 379 -801L588 -805L643 -809Q644 -809 645 -809Q655 -809 662.5 -801.5Q670 -794 670 -784Q670 -774 663.5 -767Q657 -760 647 -759L591 -755Q590 -755 589 -755L361 -751Q352 -751 345 -757Q345 -757 342 -759Q339 -761 338.5 -761.5Q338 -762 335.5 -764Q333 -766 332 -766.5Q331 -767 329 -769Q327 -771 326 -772.5Q325 -774 323.5 -776.5Q322 -779 321.5 -781.5Q321 -784 320.5 -786.5Q320 -789 320 -792Q320 -799 323 -804Q362 -874 370 -887Q373 -892 376 -894Q379 -897 383 -899Q392 -903 392 -926Q392 -928 392 -930Q364 -927 308 -900Q282 -888 268.5 -882Q255 -876 229.5 -869.5Q204 -863 181 -863Q178 -863 175 -864Q141 -871 109 -899Q71 -931 58 -967Q56 -972 56 -976Q56 -986 63.5 -993.5Q71 -1001 81 -1001Q98 -1001 104 -985Q113 -961 141 -937Q163 -919 184 -913Q220 -914 286 -945Q311 -957 323.5 -962.5Q336 -968 360 -974.5Q384 -981 405 -981Q427 -981 437 -964Q442 -956 442 -945ZM37 -795Q53 -795 85.5 -798.5Q118 -802 135 -802Q146 -802 155 -801Q218 -797 255 -789Q303 -779 331 -758Q374 -726 374 -673Q374 -648 356 -592Q339 -539 338 -512Q346 -518 357 -520Q359 -520 362 -524Q367 -527 377 -539Q389 -552 396 -558.5Q403 -565 418 -573Q433 -581 449 -581Q452 -581 455 -580Q484 -574 509 -532Q527 -515 538 -495Q549 -475 553.5 -450Q558 -425 559.5 -411Q561 -397 562 -368Q562 -348 562 -341Q562 -259 532 -205Q516 -143 495 -111Q463 -62 414 -62Q403 -62 369 -66Q334 -70 317 -70Q276 -70 243 -112Q222 -139 192 -205Q175 -243 169 -252Q166 -256 165 -260L125 -404Q124 -406 124 -407L120 -435Q120 -437 120 -439Q120 -449 127.5 -456.5Q135 -464 145 -464Q154 -464 161 -458Q168 -452 170 -443L174 -416L212 -278Q220 -265 238 -225Q265 -165 282 -143Q300 -120 317 -120Q337 -120 369 -116.5Q401 -113 411 -112Q412 -112 414 -112Q436 -112 454 -139Q470 -163 485 -221Q486 -225 487 -228Q512 -270 512 -341Q512 -347 512 -367Q511 -402 509 -420Q507 -438 498 -460Q489 -482 472 -498Q469 -500 467 -504Q459 -519 452 -526Q449 -529 446 -531Q440 -529 433 -523Q426 -518 413 -503.5Q400 -489 392 -483Q380 -474 368 -471Q366 -469 364 -468Q348 -449 330 -449Q326 -449 322 -450Q301 -452 292 -470Q287 -479 287 -491Q287 -494 287.5 -499.5Q288 -505 288 -507Q288 -532 293.5 -556Q299 -580 308 -607.5Q317 -635 321 -650Q324 -662 324 -673Q324 -701 301 -718Q282 -732 244 -740Q211 -748 152 -751Q139 -752 135 -752Q120 -752 87 -748.5Q54 -745 37 -745Q23 -745 11 -747H5Q-5 -747 -12.5 -754.5Q-20 -762 -20 -772Q-20 -782 -12.5 -789.5Q-5 -797 5 -797H13Q15 -797 17 -797Q26 -795 37 -795Z"/>
	<path fill="#daa520" d="M412 -936Q412 -937 412 -939.5Q412 -942 412 -944Q412 -948 411 -949Q410 -951 405 -951Q368 -951 299 -918Q275 -907 261.5 -901Q248 -895 225 -889Q202 -883 181 -883Q180 -883 180 -883Q147 -891 116.5 -919Q86 -947 76 -974Q76 -975 76 -976Q76 -981 81 -981Q84 -981 86 -978Q95 -953 123.5 -926.5Q152 -900 182 -893Q223 -893 295 -927Q365 -961 405 -961Q416 -961 420 -954Q422 -950 422 -944Q422 -942 422 -939.5Q422 -937 422 -936Q422 -931 422 -926Q422 -884 395 -871V-870Q387 -856 350 -791Q352 -788 359 -783Q362 -782 363 -781L589 -785L645 -789Q650 -789 650 -784Q650 -779 645 -779L589 -775Q361 -771 361 -771Q359 -771 358 -772Q356 -773 351 -776.5Q346 -780 343 -783.5Q340 -787 340 -792Q340 -793 341 -794Q380 -864 387 -877Q388 -878 389 -878Q390 -880 391 -881Q412 -890 412 -926Q412 -928 412 -931Q412 -934 412 -936ZM37 -775Q53 -775 86 -778.5Q119 -782 135 -782Q145 -782 153 -781Q179 -780 196.5 -778Q214 -776 240 -772Q266 -768 284 -760.5Q302 -753 319 -742Q336 -731 345 -713.5Q354 -696 354 -673Q354 -659 350 -643Q347 -629 338 -602Q329 -575 323.5 -552Q318 -529 318 -507Q318 -504 317.5 -499Q317 -494 317 -491Q317 -480 325 -480Q326 -480 327.5 -479.5Q329 -479 330 -479Q334 -479 342 -488Q352 -499 360 -500Q370 -502 392 -525Q403 -537 408.5 -542.5Q414 -548 426 -554.5Q438 -561 449 -561Q450 -561 450 -561Q472 -556 493 -519Q500 -512 506 -504.5Q512 -497 516.5 -491Q521 -485 524.5 -475Q528 -465 530.5 -460Q533 -455 535 -443Q537 -431 538 -427Q539 -423 540 -409Q541 -395 541 -392Q541 -389 541.5 -373.5Q542 -358 542 -355Q542 -348 542 -341Q542 -263 514 -213Q508 -193 504.5 -181Q501 -169 492 -148Q483 -127 473.5 -114.5Q464 -102 448 -92Q432 -82 414 -82Q411 -82 409 -82Q399 -83 367 -86.5Q335 -90 317 -90Q302 -90 287.5 -99Q273 -108 263.5 -117.5Q254 -127 242.5 -148Q231 -169 226 -179.5Q221 -190 211 -213Q193 -253 185 -264Q184 -265 184 -266L144 -410L140 -438Q140 -439 140 -439Q140 -444 145 -444Q149 -444 150 -440L154 -412L194 -269Q202 -258 220 -217Q231 -191 239.5 -175Q248 -159 260.5 -139Q273 -119 287 -109.5Q301 -100 317 -100Q336 -100 368 -96.5Q400 -93 409 -92Q412 -92 414 -92Q433 -92 449 -103.5Q465 -115 475.5 -137Q486 -159 492 -175.5Q498 -192 504 -216Q504 -217 505 -218Q532 -265 532 -341Q532 -347 532 -368Q531 -404 529 -423Q527 -442 516.5 -468Q506 -494 486 -512Q485 -513 485 -514Q466 -547 448 -551Q429 -551 399 -518Q375 -492 362 -490Q357 -489 350 -481Q339 -469 330 -469Q327 -469 324 -470Q307 -470 307 -491Q307 -494 307.5 -499.5Q308 -505 308 -507Q308 -530 313.5 -553.5Q319 -577 328 -604Q337 -631 340 -645Q344 -660 344 -673Q344 -697 331.5 -714.5Q319 -732 301 -741.5Q283 -751 255 -758Q227 -765 205 -767Q183 -769 153 -771Q140 -772 135 -772Q119 -772 86 -768.5Q53 -765 37 -765Q24 -765 13 -767H5Q0 -767 0 -772Q0 -777 5 -777H13Q13 -777 14 -777Q24 -775 37 -775Z"/>
</svg>