<svg xmlns="http://www.w3.org/2000/svg" viewBox="0 -1024 1024 1024">
	<path fill="#000088" d="M24 -704Q24 -675 42 -654.5Q60 -634 100 -605Q121 -590 130 -583Q139 -576 156 -560.5Q173 -545 181 -527.5Q189 -510 192 -489Q192 -488 192 -486Q192 -457 173.5 -436Q155 -415 129 -404Q106 -394 77 -389Q70 -388 63 -388Q23 -388 -12 -423Q-49 -460 -60 -511Q-60 -513 -60 -516Q-60 -526 -52.5 -533.5Q-45 -541 -35 -541Q-26 -541 -19 -535.5Q-12 -530 -10 -521Q-3 -485 24 -458Q44 -438 63 -438Q66 -438 69 -439Q115 -446 133 -465Q141 -474 142 -485Q139 -506 122 -523Q105 -540 71 -565Q48 -581 37 -590Q26 -599 8 -617.5Q-10 -636 -18 -657.5Q-26 -679 -26 -704Q-26 -707 -26 -708Q-26 -709 -26 -711Q-26 -750 2 -782Q37 -820 86 -823Q124 -825 137 -825Q185 -825 221 -804Q267 -777 291 -717Q301 -736 310.5 -748.5Q320 -761 338 -774.5Q356 -788 378 -792Q380 -793 393.5 -799Q407 -805 417 -805H419L433 -810Q437 -811 441 -811Q451 -811 458.5 -803.5Q466 -796 466 -786Q466 -768 449 -762L431 -756Q427 -755 423 -755H418Q416 -754 405.5 -749.5Q395 -745 388 -744Q370 -740 357 -725Q344 -710 328 -680Q313 -653 310 -647Q316 -607 316 -556Q316 -537 314.5 -503Q313 -469 313 -451Q313 -430 314 -387Q315 -344 315 -323Q315 -214 288 -145Q286 -140 283 -128Q272 -96 260 -83Q241 -65 211 -65Q206 -65 201 -67Q164 -84 164 -146Q164 -160 166 -180Q164 -202 164 -224Q164 -277 174 -338Q184 -399 195 -441Q206 -483 225 -549Q246 -624 258 -653Q254 -674 247 -692Q230 -741 196 -760Q171 -775 137 -775Q125 -775 88 -773Q65 -772 44.5 -753.5Q24 -735 24 -711Q24 -710 24 -709Q24 -708 24 -707.5Q24 -707 24 -706Q24 -705 24 -704ZM219 -116Q223 -117 226 -121Q228 -124 231 -131.5Q234 -139 237 -149Q240 -159 242 -163Q265 -224 265 -323Q265 -344 264 -386.5Q263 -429 263 -451Q263 -476 265 -507Q214 -331 214 -224Q214 -203 216 -182Q216 -181 216 -180Q216 -179 216 -178Q214 -158 214 -146Q214 -125 219 -116Z"/>
	<path fill="#800080" d="M74 -704Q74 -675 92 -654.5Q110 -634 150 -605Q171 -590 180 -583Q189 -576 206 -560.5Q223 -545 231 -527.5Q239 -510 242 -489Q242 -488 242 -486Q242 -457 223.5 -436Q205 -415 179 -404Q156 -394 127 -389Q120 -388 113 -388Q73 -388 38 -423Q1 -460 -10 -511Q-10 -513 -10 -516Q-10 -526 -2.5 -533.5Q5 -541 15 -541Q24 -541 31 -535.5Q38 -530 40 -521Q47 -485 74 -458Q94 -438 113 -438Q116 -438 119 -439Q165 -446 183 -465Q191 -474 192 -485Q189 -506 172 -523Q155 -540 121 -565Q98 -581 87 -590Q76 -599 58 -617.5Q40 -636 32 -657.5Q24 -679 24 -704Q24 -707 24 -708Q24 -709 24 -711Q24 -750 52 -782Q87 -820 136 -823Q174 -825 187 -825Q235 -825 271 -804Q317 -777 341 -717Q351 -736 360.5 -748.5Q370 -761 388 -774.5Q406 -788 428 -792Q430 -793 443.5 -799Q457 -805 467 -805H469L483 -810Q487 -811 491 -811Q501 -811 508.5 -803.5Q516 -796 516 -786Q516 -768 499 -762L481 -756Q477 -755 473 -755H468Q466 -754 455.5 -749.5Q445 -745 438 -744Q420 -740 407 -725Q394 -710 378 -680Q363 -653 360 -647Q366 -607 366 -556Q366 -537 364.5 -503Q363 -469 363 -451Q363 -430 364 -387Q365 -344 365 -323Q365 -214 338 -145Q336 -140 333 -128Q322 -96 310 -83Q291 -65 261 -65Q256 -65 251 -67Q214 -84 214 -146Q214 -160 216 -180Q214 -202 214 -224Q214 -277 224 -338Q234 -399 245 -441Q256 -483 275 -549Q296 -624 308 -653Q304 -674 297 -692Q280 -741 246 -760Q221 -775 187 -775Q175 -775 138 -773Q115 -772 94.5 -753.5Q74 -735 74 -711Q74 -710 74 -709Q74 -708 74 -707.5Q74 -707 74 -706Q74 -705 74 -704ZM269 -116Q273 -117 276 -121Q278 -124 281 -131.5Q284 -139 287 -149Q290 -159 292 -163Q315 -224 315 -323Q315 -344 314 -386.5Q313 -429 313 -451Q313 -476 315 -507Q264 -331 264 -224Q264 -203 266 -182Q266 -181 266 -180Q266 -179 266 -178Q264 -158 264 -146Q264 -125 269 -116Z"/>
	<path fill="#daa520" d="M27 -733Q22 -733 22 -738Q22 -743 27 -743Q32 -743 32 -738Q32 -733 27 -733ZM54 -704Q54 -675 70 -651Q86 -627 109.5 -609.5Q133 -592 157 -575.5Q181 -559 200 -536.5Q219 -514 222 -487Q222 -486 222 -486Q220 -424 124 -409Q119 -408 113 -408Q77 -408 47.5 -441.5Q18 -475 10 -515Q10 -515 10 -516Q10 -521 15 -521Q19 -521 20 -517Q27 -480 54.5 -449Q82 -418 113 -418Q118 -418 122 -419Q210 -433 212 -486Q209 -506 196 -524Q183 -542 170 -552.5Q157 -563 133 -581Q111 -596 100 -605Q89 -614 73.5 -630Q58 -646 51 -664.5Q44 -683 44 -704Q44 -706 44 -708Q44 -709 44 -711Q44 -747 72.5 -774Q101 -801 137 -803Q174 -805 187 -805Q305 -805 336 -666Q337 -669 351 -695Q361 -712 366.5 -720.5Q372 -729 382 -742Q392 -755 404.5 -762.5Q417 -770 432 -773Q435 -774 447.5 -779.5Q460 -785 467 -785H472L489 -791Q490 -791 491 -791Q496 -791 496 -786Q496 -782 493 -781L475 -775Q474 -775 473 -775H467Q462 -775 450 -769.5Q438 -764 434 -763Q427 -762 421 -759.5Q415 -757 409.5 -753Q404 -749 400 -746Q396 -743 390.5 -736.5Q385 -730 383 -727.5Q381 -725 375.5 -716Q370 -707 369 -705Q368 -703 362 -692.5Q356 -682 355 -682Q344 -662 339 -650Q346 -608 346 -556Q346 -537 344.5 -503Q343 -469 343 -451Q343 -429 344 -386.5Q345 -344 345 -323Q345 -218 320 -152Q318 -147 313.5 -134Q309 -121 306.5 -115Q304 -109 298 -100.5Q292 -92 283 -88.5Q274 -85 261 -85Q260 -85 259 -85Q234 -97 234 -146Q234 -159 236 -180Q234 -202 234 -224Q234 -298 249.5 -371Q265 -444 294 -543Q316 -621 329 -651Q302 -795 187 -795Q175 -795 137 -793Q105 -791 79.5 -766.5Q54 -742 54 -711Q54 -710 54 -709Q54 -708 54 -707.5Q54 -707 54 -706Q54 -705 54 -704ZM333 -451Q333 -469 334.5 -503Q336 -537 336 -556Q336 -598 332 -632Q322 -607 304 -541Q285 -476 274 -434Q263 -392 253.5 -333.5Q244 -275 244 -224Q244 -202 246 -180Q246 -180 246 -180Q244 -159 244 -146Q244 -104 262 -95Q281 -95 289 -104.5Q297 -114 304 -138Q308 -150 310 -156Q335 -220 335 -323Q335 -344 334 -386.5Q333 -429 333 -451Z"/>
</svg>