<svg xmlns="http://www.w3.org/2000/svg" viewBox="0 -1024 1024 1024">
	<path fill="#000088" d="M156 -247Q163 -247 168 -244Q183 -242 188 -228Q199 -201 199 -177Q199 -177 199 -173Q199 -169 199 -166Q199 -148 195 -138Q187 -119 168 -119Q162 -119 155 -121Q149 -123 141 -127Q104 -144 85 -167Q74 -181 74 -195Q74 -204 80 -213Q81 -216 87 -224Q93 -232 102 -234L150 -246Q153 -247 156 -247ZM133 -190Q139 -185 149 -179Q149 -186 147 -194ZM519 -347Q519 -334 519.5 -306.5Q520 -279 520 -266Q520 -261 520 -256Q532 -244 542 -232Q586 -178 586 -123V-99Q586 -93 584 -86Q579 -68 570 -59Q561 -52 551 -52Q540 -52 532 -60Q503 -86 487.5 -134Q472 -182 470 -234Q419 -279 340 -317.5Q261 -356 181 -378Q101 -401 51 -401Q49 -401 42 -399Q27 -391 24 -389Q19 -386 12 -386Q2 -386 -5.5 -393.5Q-13 -401 -13 -411Q-13 -424 -3 -433Q2 -438 11 -442Q17 -444 24 -446Q381 -650 509 -742Q449 -731 354 -731Q338 -731 303 -731Q274 -731 241.5 -732.5Q209 -734 184.5 -735.5Q160 -737 121.5 -740.5Q83 -744 65 -746Q47 -748 3 -752.5Q-41 -757 -54 -758Q-63 -759 -69.5 -766Q-76 -773 -76 -783Q-76 -793 -68.5 -800.5Q-61 -808 -51 -808Q-50 -808 -48 -808Q208 -782 307 -781Q338 -781 354 -781Q465 -781 531 -798Q557 -805 571 -805Q587 -805 596 -797Q606 -788 606 -775Q606 -765 599 -755Q595 -748 586 -739Q570 -724 538 -701Q477 -657 357 -584Q254 -521 120 -444Q155 -438 195 -426Q267 -406 341 -372Q415 -338 470 -298Q469 -334 469 -347Q469 -426 479.5 -486.5Q490 -547 522 -598Q535 -620 554.5 -659.5Q574 -699 581 -711Q608 -760 614 -786Q615 -795 622 -800.5Q629 -806 638 -806H696Q706 -806 713.5 -798.5Q721 -791 721 -781Q721 -771 713.5 -763.5Q706 -756 696 -756H657Q644 -723 625 -687Q619 -675 599 -635Q579 -595 564 -572Q538 -529 528.5 -475Q519 -421 519 -347Z"/>
	<path fill="#800080" d="M206 -247Q213 -247 218 -244Q233 -242 238 -228Q249 -201 249 -177Q249 -177 249 -173Q249 -169 249 -166Q249 -148 245 -138Q237 -119 218 -119Q212 -119 205 -121Q199 -123 191 -127Q154 -144 135 -167Q124 -181 124 -195Q124 -204 130 -213Q131 -216 137 -224Q143 -232 152 -234L200 -246Q203 -247 206 -247ZM183 -190Q189 -185 199 -179Q199 -186 197 -194ZM569 -347Q569 -334 569.5 -306.5Q570 -279 570 -266Q570 -261 570 -256Q582 -244 592 -232Q636 -178 636 -123V-99Q636 -93 634 -86Q629 -68 620 -59Q611 -52 601 -52Q590 -52 582 -60Q553 -86 537.5 -134Q522 -182 520 -234Q469 -279 390 -317.5Q311 -356 231 -378Q151 -401 101 -401Q99 -401 92 -399Q77 -391 74 -389Q69 -386 62 -386Q52 -386 44.5 -393.5Q37 -401 37 -411Q37 -424 47 -433Q52 -438 61 -442Q67 -444 74 -446Q431 -650 559 -742Q499 -731 404 -731Q388 -731 353 -731Q324 -731 291.5 -732.5Q259 -734 234.5 -735.5Q210 -737 171.5 -740.5Q133 -744 115 -746Q97 -748 53 -752.5Q9 -757 -4 -758Q-13 -759 -19.5 -766Q-26 -773 -26 -783Q-26 -793 -18.5 -800.5Q-11 -808 -1 -808Q0 -808 2 -808Q258 -782 357 -781Q388 -781 404 -781Q515 -781 581 -798Q607 -805 621 -805Q637 -805 646 -797Q656 -788 656 -775Q656 -765 649 -755Q645 -748 636 -739Q620 -724 588 -701Q527 -657 407 -584Q304 -521 170 -444Q205 -438 245 -426Q317 -406 391 -372Q465 -338 520 -298Q519 -334 519 -347Q519 -426 529.5 -486.5Q540 -547 572 -598Q585 -620 604.5 -659.5Q624 -699 631 -711Q658 -760 664 -786Q665 -795 672 -800.5Q679 -806 688 -806H746Q756 -806 763.5 -798.5Q771 -791 771 -781Q771 -771 763.5 -763.5Q756 -756 746 -756H707Q694 -723 675 -687Q669 -675 649 -635Q629 -595 614 -572Q588 -529 578.5 -475Q569 -421 569 -347Z"/>
	<path fill="#daa520" d="M219 -177Q219 -195 210 -217Q210 -218 210 -219Q209 -218 207 -217L161 -206Q155 -197 154 -195Q154 -186 176 -170Q202 -151 217 -149Q219 -154 219 -166Q219 -169 219 -172Q219 -175 219 -177ZM229 -166Q229 -155 228 -149Q225 -139 218 -139Q202 -139 170 -162Q144 -181 144 -195Q144 -198 147 -203Q148 -205 152 -210Q155 -214 157 -215L205 -227Q205 -227 206 -227Q211 -227 211 -222Q213 -224 215 -224Q218 -224 220 -221Q229 -197 229 -177Q229 -175 229 -172Q229 -169 229 -166ZM550 -266Q550 -264 550 -259Q550 -254 550 -252Q550 -250 550 -248Q616 -186 616 -123V-99Q616 -92 612 -83Q607 -72 601 -72Q598 -72 596 -74Q583 -86 574 -103Q542 -160 540 -243Q501 -279 442 -313Q358 -360 259.5 -390.5Q161 -421 101 -421Q96 -421 85 -418Q65 -407 64 -407Q63 -406 62 -406Q57 -406 57 -411Q57 -416 62 -420Q68 -424 81 -428Q255 -526 391 -609Q510 -682 570 -725Q601 -747 615 -761Q624 -770 626 -775Q624 -775 621 -775Q611 -775 588 -769Q519 -751 404 -751Q388 -751 353 -751Q256 -752 -2 -778Q-6 -778 -6 -783Q-6 -788 -1 -788Q-1 -788 0 -788Q257 -762 357 -761Q388 -761 404 -761Q518 -761 586 -779Q609 -785 621 -785Q636 -785 636 -775Q636 -767 622 -754Q607 -740 576 -717Q449 -626 107 -431Q170 -429 267 -398.5Q364 -368 447 -321Q502 -290 540 -257Q540 -261 540 -266Q540 -279 539.5 -306Q539 -333 539 -347Q539 -424 549 -482Q559 -540 589 -588Q603 -610 622.5 -649.5Q642 -689 649 -701Q677 -753 683 -782Q684 -786 688 -786H746Q751 -786 751 -781Q751 -776 746 -776H692Q684 -745 657 -697Q651 -685 631 -645Q611 -605 597 -582Q568 -536 558.5 -479.5Q549 -423 549 -347Q549 -333 549.5 -306Q550 -279 550 -266ZM606 -123Q606 -177 550 -233Q554 -159 582 -107Q590 -93 601 -83Q602 -85 603 -88Q606 -95 606 -99Z"/>
</svg>