<svg xmlns="http://www.w3.org/2000/svg" viewBox="0 -1024 1024 1024">
	<path fill="#000088" d="M36 -814Q51 -814 61.5 -814Q72 -814 77.5 -814Q83 -814 84 -814H85Q86 -814 86 -814Q87 -814 92 -813Q97 -812 101 -808Q114 -807 132 -805L307 -787L466 -793L615 -811Q617 -811 618 -811L849 -808Q860 -808 867 -800.5Q874 -793 874 -783Q874 -773 866.5 -765.5Q859 -758 849 -758L619 -761L471 -743Q470 -743 469 -743L307 -737Q306 -737 306 -737Q305 -737 303 -737L126 -755Q94 -758 80 -761Q71 -762 68 -764Q54 -764 36 -764H18Q8 -764 0.5 -771.5Q-7 -779 -7 -789Q-7 -799 0.5 -806.5Q8 -814 18 -814ZM9 -302Q9 -302 5 -302Q1 -302 -5.5 -302.5Q-12 -303 -18 -303Q-31 -303 -39 -302Q-45 -299 -51 -299Q-61 -299 -68.5 -306.5Q-76 -314 -76 -324Q-76 -351 -54 -375Q-34 -398 8 -421Q64 -450 220 -503Q365 -553 414 -578Q446 -595 459 -610Q463 -613 465 -617Q414 -666 321 -689Q274 -701 147 -716.5Q20 -732 -41 -753Q-58 -759 -58 -777Q-58 -787 -50.5 -794.5Q-43 -802 -33 -802Q-29 -802 -25 -801Q33 -780 170 -764Q234 -756 273 -749.5Q312 -743 360.5 -730Q409 -717 445.5 -695Q482 -673 511 -641Q517 -634 517 -624Q517 -599 496 -576Q477 -555 437 -534Q385 -506 234 -455Q83 -404 32 -376Q9 -364 -6 -352Q2 -352 9 -352Q12 -352 14 -352Q47 -352 96 -335Q145 -318 163 -316Q207 -309 282 -283Q357 -257 423 -222Q455 -204 479 -187Q481 -253 498.5 -329Q516 -405 532 -450.5Q548 -496 580 -580Q628 -705 645 -766Q647 -772 651 -777L681 -807Q689 -814 699 -814Q709 -814 716.5 -806.5Q724 -799 724 -789Q724 -779 717 -771L691 -746Q674 -685 627 -562Q595 -477 578 -429Q561 -381 545 -306.5Q529 -232 529 -168Q529 -164 533 -142Q568 -103 568 -63Q568 -57 566 -51Q563 -45 560 -40Q551 -29 537 -29Q525 -29 515 -38Q509 -44 504 -54Q494 -74 486 -118Q455 -148 399 -178Q338 -210 265.5 -235.5Q193 -261 155 -266Q132 -270 90 -285Q40 -302 14 -302Q14 -302 12 -302Q10 -302 9 -302ZM155 -66Q162 -62 175 -84Q180 -92 180 -87Q180 -68 172 -55Q164 -42 152 -42Q127 -42 108 -58.5Q89 -75 89 -101Q89 -116 100 -128Q109 -138 126 -145Q131 -147 136 -147Q146 -147 153.5 -139.5Q161 -132 161 -122Q159 -116 178 -95Q137 -125 122.5 -121Q108 -117 117 -79Q116 -76 115 -74H116Q118 -75 120 -76Q122 -77 132 -75Q142 -73 155 -66Z"/>
	<path fill="#800080" d="M86 -814Q101 -814 111.5 -814Q122 -814 127.5 -814Q133 -814 134 -814H135Q136 -814 136 -814Q137 -814 142 -813Q147 -812 151 -808Q164 -807 182 -805L357 -787L516 -793L665 -811Q667 -811 668 -811L899 -808Q910 -808 917 -800.5Q924 -793 924 -783Q924 -773 916.5 -765.5Q909 -758 899 -758L669 -761L521 -743Q520 -743 519 -743L357 -737Q356 -737 356 -737Q355 -737 353 -737L176 -755Q144 -758 130 -761Q121 -762 118 -764Q104 -764 86 -764H68Q58 -764 50.5 -771.5Q43 -779 43 -789Q43 -799 50.5 -806.5Q58 -814 68 -814ZM59 -302Q59 -302 55 -302Q51 -302 44.5 -302.5Q38 -303 32 -303Q19 -303 11 -302Q5 -299 -1 -299Q-11 -299 -18.5 -306.5Q-26 -314 -26 -324Q-26 -351 -4 -375Q16 -398 58 -421Q114 -450 270 -503Q415 -553 464 -578Q496 -595 509 -610Q513 -613 515 -617Q464 -666 371 -689Q324 -701 197 -716.5Q70 -732 9 -753Q-8 -759 -8 -777Q-8 -787 -0.5 -794.5Q7 -802 17 -802Q21 -802 25 -801Q83 -780 220 -764Q284 -756 323 -749.5Q362 -743 410.5 -730Q459 -717 495.5 -695Q532 -673 561 -641Q567 -634 567 -624Q567 -599 546 -576Q527 -555 487 -534Q435 -506 284 -455Q133 -404 82 -376Q59 -364 44 -352Q52 -352 59 -352Q62 -352 64 -352Q97 -352 146 -335Q195 -318 213 -316Q257 -309 332 -283Q407 -257 473 -222Q505 -204 529 -187Q531 -253 548.5 -329Q566 -405 582 -450.5Q598 -496 630 -580Q678 -705 695 -766Q697 -772 701 -777L731 -807Q739 -814 749 -814Q759 -814 766.5 -806.5Q774 -799 774 -789Q774 -779 767 -771L741 -746Q724 -685 677 -562Q645 -477 628 -429Q611 -381 595 -306.5Q579 -232 579 -168Q579 -164 583 -142Q618 -103 618 -63Q618 -57 616 -51Q613 -45 610 -40Q601 -29 587 -29Q575 -29 565 -38Q559 -44 554 -54Q544 -74 536 -118Q505 -148 449 -178Q388 -210 315.5 -235.5Q243 -261 205 -266Q182 -270 140 -285Q90 -302 64 -302Q64 -302 62 -302Q60 -302 59 -302ZM205 -66Q212 -62 225 -84Q230 -92 230 -87Q230 -68 222 -55Q214 -42 202 -42Q177 -42 158 -58.5Q139 -75 139 -101Q139 -116 150 -128Q159 -138 176 -145Q181 -147 186 -147Q196 -147 203.5 -139.5Q211 -132 211 -122Q209 -116 228 -95Q187 -125 172.5 -121Q158 -117 167 -79Q166 -76 165 -74H166Q168 -75 170 -76Q172 -77 182 -75Q192 -73 205 -66Z"/>
	<path fill="#daa520" d="M86 -794Q124 -794 134 -794Q134 -794 134 -795Q139 -795 140 -790Q153 -788 180 -785L356 -767L518 -773L667 -791Q668 -791 668 -791L899 -788Q904 -788 904 -783Q904 -778 899 -778L668 -781L519 -763Q518 -763 518 -763L356 -757H355L178 -775Q147 -778 134 -780Q129 -781 127 -782Q124 -783 123 -784Q108 -784 86 -784H68Q63 -784 63 -789Q63 -794 68 -794ZM59 -322Q59 -322 57.5 -322Q56 -322 53.5 -322Q51 -322 47.5 -322Q44 -322 40 -322.5Q36 -323 32 -323Q9 -323 3 -321Q1 -319 -1 -319Q-6 -319 -6 -324Q-6 -364 67 -403Q121 -432 276 -484Q423 -534 473 -561Q535 -593 537 -622Q515 -646 485 -664Q455 -682 428 -693Q401 -704 359 -712.5Q317 -721 290.5 -724.5Q264 -728 216 -734Q76 -751 15 -772Q12 -773 12 -777Q12 -782 17 -782Q18 -782 19 -782Q78 -760 217 -744Q267 -738 292.5 -734.5Q318 -731 361.5 -722Q405 -713 432.5 -702Q460 -691 491.5 -672Q523 -653 546 -627Q547 -626 547 -624Q547 -588 478 -552Q426 -524 275 -473Q124 -422 72 -394Q11 -362 5 -331Q14 -333 32 -333Q45 -333 59 -332Q62 -332 64 -332Q94 -332 143 -315.5Q192 -299 210 -296Q251 -290 325.5 -264Q400 -238 463 -204Q519 -174 552 -145Q549 -163 549 -168Q549 -219 556.5 -270.5Q564 -322 581.5 -379Q599 -436 611.5 -472Q624 -508 649 -573Q697 -698 714 -760Q715 -762 715 -763L745 -793Q747 -794 749 -794Q754 -794 754 -789Q754 -787 753 -785L723 -756Q706 -694 658 -569Q626 -483 609 -435Q592 -387 575.5 -310.5Q559 -234 559 -168Q559 -161 564 -133Q598 -97 598 -63Q598 -49 587 -49Q579 -49 572 -63Q562 -82 554 -128Q521 -162 458.5 -195.5Q396 -229 322 -254.5Q248 -280 208 -286Q187 -289 147 -303Q93 -322 64 -322Q64 -322 62 -322Q60 -322 59 -322ZM587 -59Q588 -61 588 -63Q588 -87 567 -113Q574 -81 581 -67Q584 -61 587 -59ZM358 -136Q360 -136 362 -138Q372 -151 394 -151Q408 -151 417.5 -142.5Q427 -134 427 -122Q427 -110 417.5 -101.5Q408 -93 394 -93Q389 -93 389 -88Q389 -83 394 -83Q412 -83 424.5 -94.5Q437 -106 437 -122Q437 -138 424.5 -149.5Q412 -161 394 -161Q367 -161 354 -144Q353 -143 353 -141Q353 -136 358 -136ZM394 -93Q399 -93 399 -88Q399 -83 394 -83Q376 -83 363.5 -94.5Q351 -106 351 -122Q351 -136 376 -148Q377 -148 378 -148Q383 -148 383 -143Q383 -140 380 -138Q361 -130 361 -122Q361 -110 370.5 -101.5Q380 -93 394 -93Z"/>
</svg>