<svg xmlns="http://www.w3.org/2000/svg" viewBox="0 -1024 1024 1024">
	<path fill="#000088" d="M-33 -643Q-43 -643 -50.5 -650.5Q-58 -658 -58 -668Q-58 -671 -57 -674Q-57 -678 -57 -685.5Q-57 -693 -56.5 -696.5Q-56 -700 -54.5 -705.5Q-53 -711 -50 -716Q-43 -725 -6 -780Q0 -789 10 -791Q74 -803 138 -815Q141 -815 143 -815H259Q263 -815 274 -812L340 -794Q340 -794 379 -782Q396 -776 396 -758Q396 -748 388.5 -740.5Q381 -733 371 -733Q367 -733 363 -734Q339 -742 261 -764L256 -765H145L30 -743Q2 -704 -7 -690Q-7 -685 -7 -680Q-7 -679 -7 -677Q-7 -675 -7 -674Q-7 -668 -9 -661Q-14 -643 -33 -643ZM320 -166Q320 -168 320 -173Q320 -178 320 -181Q320 -194 318 -221Q316 -248 316 -259Q316 -276 316 -292Q316 -414 338 -539Q346 -582 359 -620Q358 -645 358 -657Q357 -694 354 -715Q351 -738 346 -750Q340 -748 333 -744Q330 -742 288 -710Q267 -694 246 -662Q219 -623 193 -547Q189 -529 186 -523Q183 -516 177 -512Q171 -507 163 -507Q149 -507 141 -519Q138 -525 138 -532Q138 -536 139 -541Q140 -548 145 -560Q151 -588 151 -602Q151 -637 121 -670Q92 -701 43 -724.5Q-6 -748 -54 -756Q-63 -758 -69 -765Q-75 -772 -75 -781Q-75 -791 -67.5 -798.5Q-60 -806 -50 -806Q-48 -806 -46 -806Q26 -793 93 -755.5Q160 -718 187 -662Q195 -677 204 -690Q230 -728 258 -750Q262 -753 272 -761.5Q282 -770 290.5 -776Q299 -782 308 -788Q331 -801 351 -801Q379 -801 392 -769Q400 -750 404 -719Q407 -725 411 -732Q413 -735 415 -738L465 -788Q469 -791 473 -793L507 -807Q512 -809 517 -809Q527 -809 534.5 -801.5Q542 -794 542 -784Q542 -767 527 -761L497 -749L453 -705Q424 -653 410 -613Q421 -411 421 -370Q421 -345 420 -321Q420 -319 421 -303Q424 -241 424 -203Q424 -148 418 -119Q413 -95 402 -84Q391 -73 377 -73Q366 -73 357 -82Q354 -85 350 -91Q338 -110 326 -143Q323 -150 322 -155Q320 -161 320 -166ZM371 -370Q371 -386 370 -403Q366 -347 366 -292Q366 -276 366 -261Q366 -249 368 -222.5Q370 -196 370 -181Q370 -174 370 -168Q371 -165 373 -160Q374 -179 374 -203Q374 -240 371 -300Q370 -318 370 -321Q370 -329 370.5 -345.5Q371 -362 371 -370Z"/>
	<path fill="#800080" d="M17 -643Q7 -643 -0.5 -650.5Q-8 -658 -8 -668Q-8 -671 -7 -674Q-7 -678 -7 -685.5Q-7 -693 -6.5 -696.5Q-6 -700 -4.5 -705.5Q-3 -711 0 -716Q7 -725 44 -780Q50 -789 60 -791Q124 -803 188 -815Q191 -815 193 -815H309Q313 -815 324 -812L390 -794Q390 -794 429 -782Q446 -776 446 -758Q446 -748 438.5 -740.5Q431 -733 421 -733Q417 -733 413 -734Q389 -742 311 -764L306 -765H195L80 -743Q52 -704 43 -690Q43 -685 43 -680Q43 -679 43 -677Q43 -675 43 -674Q43 -668 41 -661Q36 -643 17 -643ZM370 -166Q370 -168 370 -173Q370 -178 370 -181Q370 -194 368 -221Q366 -248 366 -259Q366 -276 366 -292Q366 -414 388 -539Q396 -582 409 -620Q408 -645 408 -657Q407 -694 404 -715Q401 -738 396 -750Q390 -748 383 -744Q380 -742 338 -710Q317 -694 296 -662Q269 -623 243 -547Q239 -529 236 -523Q233 -516 227 -512Q221 -507 213 -507Q199 -507 191 -519Q188 -525 188 -532Q188 -536 189 -541Q190 -548 195 -560Q201 -588 201 -602Q201 -637 171 -670Q142 -701 93 -724.5Q44 -748 -4 -756Q-13 -758 -19 -765Q-25 -772 -25 -781Q-25 -791 -17.5 -798.5Q-10 -806 0 -806Q2 -806 4 -806Q76 -793 143 -755.5Q210 -718 237 -662Q245 -677 254 -690Q280 -728 308 -750Q312 -753 322 -761.5Q332 -770 340.5 -776Q349 -782 358 -788Q381 -801 401 -801Q429 -801 442 -769Q450 -750 454 -719Q457 -725 461 -732Q463 -735 465 -738L515 -788Q519 -791 523 -793L557 -807Q562 -809 567 -809Q577 -809 584.5 -801.5Q592 -794 592 -784Q592 -767 577 -761L547 -749L503 -705Q474 -653 460 -613Q471 -411 471 -370Q471 -345 470 -321Q470 -319 471 -303Q474 -241 474 -203Q474 -148 468 -119Q463 -95 452 -84Q441 -73 427 -73Q416 -73 407 -82Q404 -85 400 -91Q388 -110 376 -143Q373 -150 372 -155Q370 -161 370 -166ZM421 -370Q421 -386 420 -403Q416 -347 416 -292Q416 -276 416 -261Q416 -249 418 -222.5Q420 -196 420 -181Q420 -174 420 -168Q421 -165 423 -160Q424 -179 424 -203Q424 -240 421 -300Q420 -318 420 -321Q420 -329 420.5 -345.5Q421 -362 421 -370Z"/>
	<path fill="#daa520" d="M18 -663Q13 -663 13 -668Q13 -669 13 -669Q14 -671 14 -681Q14 -699 18 -705Q24 -714 62 -769Q63 -771 65 -771Q65 -771 193 -795Q194 -795 194 -795H310Q311 -795 319 -793Q399 -771 424 -763Q427 -762 427 -758Q427 -753 422 -753Q421 -753 420 -753Q396 -762 317 -783L309 -785H194L69 -761Q33 -710 26 -699Q25 -697 24.5 -683.5Q24 -670 23 -666.5Q22 -663 18 -663ZM214 -527Q208 -527 208 -532Q208 -537 215 -556Q222 -586 222 -602Q222 -645 186 -683.5Q150 -722 101 -744.5Q52 -767 0 -776Q-4 -777 -4 -781Q-4 -786 1 -786Q1 -786 2 -786Q40 -779 79 -763.5Q118 -748 153 -725.5Q188 -703 210 -670.5Q232 -638 232 -602Q251 -647 272 -679Q296 -714 321 -734Q323 -736 337.5 -748Q352 -760 359 -765Q366 -770 379 -775.5Q392 -781 402 -781Q423 -781 432 -738Q434 -725 435.5 -711Q437 -697 437.5 -687.5Q438 -678 438.5 -662.5Q439 -647 439 -641Q454 -676 480 -722Q480 -723 480 -724L530 -774Q531 -774 532 -775L566 -789Q567 -789 568 -789Q573 -789 573 -784Q573 -781 570 -779L537 -766L488 -717Q456 -660 441 -616Q452 -407 452 -370Q452 -345 451 -322V-321Q451 -319 452 -302Q455 -241 455 -203Q455 -150 450 -123Q443 -93 428 -93Q425 -93 422 -96Q420 -98 418 -101Q411 -113 401 -136Q391 -159 391 -166Q391 -168 391 -173Q391 -178 391 -181Q391 -195 389 -221.5Q387 -248 387 -260Q387 -276 387 -292Q387 -412 409 -535Q417 -579 431 -617Q429 -645 429 -658Q427 -710 422 -736Q415 -771 402 -771Q395 -771 387.5 -768Q380 -765 371 -759.5Q362 -754 356 -749.5Q350 -745 340 -737Q330 -729 327 -726Q303 -708 280 -673.5Q257 -639 233 -574Q228 -562 225 -553Q222 -540 219 -533Q218 -530 217 -529Q216 -527 214 -527ZM442 -370Q442 -423 432 -589Q424 -563 419 -533Q397 -411 397 -292Q397 -276 397 -260Q397 -249 399 -222Q401 -195 401 -181Q401 -173 401 -166Q401 -161 410 -141Q422 -111 429 -103H428Q435 -103 440 -125Q445 -151 445 -203Q445 -240 442 -301Q441 -318 441 -321Q441 -329 441.5 -345.5Q442 -362 442 -370Z"/>
</svg>