<svg xmlns="http://www.w3.org/2000/svg" viewBox="0 -1024 1024 1024">
	<path fill="#000088" d="M211 -803Q211 -803 212 -803L367 -799L442 -803L458 -806Q460 -807 463 -807Q473 -807 480.5 -799.5Q488 -792 488 -782Q488 -773 482.5 -766Q477 -759 468 -758L450 -754Q448 -753 446 -753L368 -749Q368 -749 367 -749Q367 -749 366 -749L210 -753Q200 -753 193 -760.5Q186 -768 186 -778Q186 -788 193.5 -795.5Q201 -803 211 -803ZM154 -810Q176 -810 189 -800Q207 -787 207 -761Q207 -746 201 -726Q199 -721 181 -676Q163 -631 162 -616Q162 -614 161 -612Q155 -587 151.5 -537.5Q148 -488 144 -465Q130 -396 130 -318Q130 -260 136 -220Q144 -175 160 -149Q179 -119 211 -119Q249 -119 274 -142Q316 -179 316 -258Q316 -266 313 -276Q310 -253 293 -240Q281 -231 266 -231Q262 -231 259 -231Q241 -231 228 -237Q216 -242 209 -251Q198 -264 198 -282Q198 -328 217 -356Q234 -381 261 -381Q292 -381 318 -360Q340 -341 353 -313.5Q366 -286 366 -258Q366 -156 308 -104Q268 -69 211 -69Q151 -69 118 -123Q96 -157 87 -212Q80 -256 80 -318Q80 -401 94 -475Q99 -497 102.5 -546Q106 -595 112 -622Q114 -646 138 -702Q149 -729 153 -741Q157 -753 157 -760Q156 -760 154 -760Q140 -760 114 -752Q111 -751 107 -751Q92 -751 78 -751Q10 -751 -44 -757H-51Q-61 -757 -68.5 -764.5Q-76 -772 -76 -782Q-76 -792 -68.5 -799.5Q-61 -807 -51 -807H-43Q-42 -807 -40 -807Q12 -801 78 -801Q90 -801 103 -801Q134 -810 154 -810ZM261 -281Q262 -281 263 -281Q264 -284 264 -286Q265 -296 272 -302.5Q279 -309 289 -309Q294 -309 299 -307Q293 -315 286 -321Q274 -331 261 -331Q256 -328 253 -315Q248 -300 248 -283Q254 -281 261 -281Z"/>
	<path fill="#800080" d="M261 -803Q261 -803 262 -803L417 -799L492 -803L508 -806Q510 -807 513 -807Q523 -807 530.5 -799.5Q538 -792 538 -782Q538 -773 532.5 -766Q527 -759 518 -758L500 -754Q498 -753 496 -753L418 -749Q418 -749 417 -749Q417 -749 416 -749L260 -753Q250 -753 243 -760.5Q236 -768 236 -778Q236 -788 243.5 -795.5Q251 -803 261 -803ZM204 -810Q226 -810 239 -800Q257 -787 257 -761Q257 -746 251 -726Q249 -721 231 -676Q213 -631 212 -616Q212 -614 211 -612Q205 -587 201.5 -537.5Q198 -488 194 -465Q180 -396 180 -318Q180 -260 186 -220Q194 -175 210 -149Q229 -119 261 -119Q299 -119 324 -142Q366 -179 366 -258Q366 -266 363 -276Q360 -253 343 -240Q331 -231 316 -231Q312 -231 309 -231Q291 -231 278 -237Q266 -242 259 -251Q248 -264 248 -282Q248 -328 267 -356Q284 -381 311 -381Q342 -381 368 -360Q390 -341 403 -313.5Q416 -286 416 -258Q416 -156 358 -104Q318 -69 261 -69Q201 -69 168 -123Q146 -157 137 -212Q130 -256 130 -318Q130 -401 144 -475Q149 -497 152.5 -546Q156 -595 162 -622Q164 -646 188 -702Q199 -729 203 -741Q207 -753 207 -760Q206 -760 204 -760Q190 -760 164 -752Q161 -751 157 -751Q142 -751 128 -751Q60 -751 6 -757H-1Q-11 -757 -18.5 -764.5Q-26 -772 -26 -782Q-26 -792 -18.5 -799.5Q-11 -807 -1 -807H7Q8 -807 10 -807Q62 -801 128 -801Q140 -801 153 -801Q184 -810 204 -810ZM311 -281Q312 -281 313 -281Q314 -284 314 -286Q315 -296 322 -302.5Q329 -309 339 -309Q344 -309 349 -307Q343 -315 336 -321Q324 -331 311 -331Q306 -328 303 -315Q298 -300 298 -283Q304 -281 311 -281Z"/>
	<path fill="#daa520" d="M256 -778Q256 -783 261 -783L417 -779L494 -783L512 -787Q512 -787 513 -787Q518 -787 518 -782Q518 -778 514 -777L496 -773Q496 -773 495 -773L417 -769Q417 -769 261 -773Q256 -773 256 -778ZM268 -282Q268 -309 278 -335Q288 -361 311 -361Q346 -361 371 -327.5Q396 -294 396 -258Q396 -187 361.5 -138Q327 -89 261 -89Q150 -89 150 -318Q150 -399 164 -471Q168 -493 171.5 -542.5Q175 -592 182 -619Q184 -640 206 -694Q227 -744 227 -761Q227 -771 222 -775.5Q217 -780 204 -780Q187 -780 158 -771Q158 -771 157 -771Q142 -771 128 -771Q60 -771 7 -777H-1Q-6 -777 -6 -782Q-6 -787 -1 -787H7Q7 -787 8 -787Q61 -781 128 -781Q141 -781 156 -781Q186 -790 204 -790Q237 -790 237 -761Q237 -742 215 -690Q193 -638 192 -618Q192 -617 192 -617Q185 -591 181.5 -541Q178 -491 174 -469Q160 -398 160 -318Q160 -99 261 -99Q322 -99 354 -144.5Q386 -190 386 -258Q386 -291 363.5 -321Q341 -351 311 -351Q294 -351 286 -328Q278 -305 278 -282Q278 -261 311 -261Q312 -261 313.5 -261Q315 -261 316 -261Q323 -261 328 -267.5Q333 -274 334 -284Q334 -289 339 -289Q344 -289 344 -284Q343 -271 335.5 -261Q328 -251 316 -251Q313 -251 311 -251Q268 -251 268 -282Z"/>
</svg>