<svg xmlns="http://www.w3.org/2000/svg" viewBox="0 -1024 1024 1024">
	<path fill="#000088" d="M29 -448Q40 -465 67 -465Q86 -465 115 -458L391 -461Q401 -461 408.5 -453.5Q416 -446 416 -436Q416 -426 408.5 -418.5Q401 -411 391 -411L113 -408Q136 -396 186 -379Q208 -371 218 -367.5Q228 -364 249 -355Q270 -346 281 -338.5Q292 -331 308 -318.5Q324 -306 333 -292.5Q342 -279 350 -260.5Q358 -242 361 -221Q362 -219 362 -217Q362 -191 354.5 -168.5Q347 -146 336.5 -130.5Q326 -115 307 -101Q288 -87 274.5 -79Q261 -71 236.5 -62Q212 -53 201 -49.5Q190 -46 166 -40Q156 -37 145 -37Q128 -37 112 -46.5Q96 -56 89 -64Q82 -72 70 -87Q57 -105 50 -111Q49 -112 49 -112Q29 -132 18 -161.5Q7 -191 5 -208.5Q3 -226 1 -261Q-3 -312 -8 -333Q-9 -335 -9 -337Q-11 -352 -14.5 -382Q-18 -412 -20 -431Q-22 -450 -23.5 -476.5Q-25 -503 -25 -526Q-25 -544 -24 -554Q-24 -585 -18 -648.5Q-12 -712 -12 -742V-748Q-12 -758 -5 -765.5Q2 -773 12.5 -773Q23 -773 30.5 -765.5Q38 -758 38 -748V-742Q38 -711 32 -647Q26 -583 26 -553Q26 -548 25.5 -539Q25 -530 25 -526Q25 -492 29 -448ZM145 -87Q149 -87 153 -88Q183 -96 201.5 -102Q220 -108 243 -119Q266 -130 279 -142Q292 -154 301.5 -173Q311 -192 312 -215Q308 -235 299 -251Q290 -267 279 -278Q268 -289 248 -299.5Q228 -310 212.5 -316Q197 -322 169 -332Q91 -359 58 -383Q42 -394 33 -406Q40 -348 40 -345Q47 -319 51 -265Q54 -220 60.5 -193Q67 -166 84 -148Q94 -139 110 -117Q123 -101 129 -95Q137 -87 145 -87Z"/>
	<path fill="#800080" d="M79 -448Q90 -465 117 -465Q136 -465 165 -458L441 -461Q451 -461 458.5 -453.5Q466 -446 466 -436Q466 -426 458.5 -418.5Q451 -411 441 -411L163 -408Q186 -396 236 -379Q258 -371 268 -367.5Q278 -364 299 -355Q320 -346 331 -338.5Q342 -331 358 -318.5Q374 -306 383 -292.5Q392 -279 400 -260.5Q408 -242 411 -221Q412 -219 412 -217Q412 -191 404.5 -168.5Q397 -146 386.5 -130.5Q376 -115 357 -101Q338 -87 324.5 -79Q311 -71 286.5 -62Q262 -53 251 -49.5Q240 -46 216 -40Q206 -37 195 -37Q178 -37 162 -46.5Q146 -56 139 -64Q132 -72 120 -87Q107 -105 100 -111Q99 -112 99 -112Q79 -132 68 -161.5Q57 -191 55 -208.5Q53 -226 51 -261Q47 -312 42 -333Q41 -335 41 -337Q39 -352 35.5 -382Q32 -412 30 -431Q28 -450 26.5 -476.5Q25 -503 25 -526Q25 -544 26 -554Q26 -585 32 -648.5Q38 -712 38 -742V-748Q38 -758 45 -765.5Q52 -773 62.5 -773Q73 -773 80.5 -765.5Q88 -758 88 -748V-742Q88 -711 82 -647Q76 -583 76 -553Q76 -548 75.5 -539Q75 -530 75 -526Q75 -492 79 -448ZM195 -87Q199 -87 203 -88Q233 -96 251.5 -102Q270 -108 293 -119Q316 -130 329 -142Q342 -154 351.5 -173Q361 -192 362 -215Q358 -235 349 -251Q340 -267 329 -278Q318 -289 298 -299.5Q278 -310 262.5 -316Q247 -322 219 -332Q141 -359 108 -383Q92 -394 83 -406Q90 -348 90 -345Q97 -319 101 -265Q104 -220 110.5 -193Q117 -166 134 -148Q144 -139 160 -117Q173 -101 179 -95Q187 -87 195 -87Z"/>
	<path fill="#daa520" d="M56 -553Q56 -548 55.5 -539Q55 -530 55 -526Q55 -504 56.5 -478Q58 -452 60 -433.5Q62 -415 65.5 -385Q69 -355 71 -341Q77 -317 81 -264Q83 -231 85.5 -213.5Q88 -196 96.5 -172.5Q105 -149 120 -134Q129 -126 144 -105Q154 -92 160 -85.5Q166 -79 175.5 -73Q185 -67 195 -67Q202 -67 208 -69Q240 -77 257.5 -83Q275 -89 302 -101.5Q329 -114 344 -128Q359 -142 370.5 -165Q382 -188 382 -217Q378 -241 367 -260.5Q356 -280 343.5 -292Q331 -304 308 -316Q285 -328 270 -334Q255 -340 226 -350Q150 -377 120 -399Q94 -417 94 -431Q94 -445 117 -445Q134 -445 162 -438L441 -441Q446 -441 446 -436Q446 -431 441 -431Q162 -428 162 -428Q161 -428 160 -428Q133 -435 117 -435Q104 -435 104 -431Q104 -423 126 -407Q155 -386 229 -360Q259 -349 274 -343.5Q289 -338 313.5 -325Q338 -312 351 -299Q364 -286 376 -265Q388 -244 392 -218Q392 -217 392 -217Q392 -195 385.5 -175.5Q379 -156 370 -142.5Q361 -129 344.5 -116.5Q328 -104 315 -96.5Q302 -89 280 -81Q258 -73 245.5 -69Q233 -65 211 -59Q203 -57 195 -57Q183 -57 171 -64.5Q159 -72 153 -78.5Q147 -85 136 -99Q122 -119 113 -126Q96 -143 87 -168.5Q78 -194 75.5 -211.5Q73 -229 71 -263Q67 -315 61 -339Q59 -354 55.5 -384Q52 -414 50 -432.5Q48 -451 46.5 -477.5Q45 -504 45 -526Q45 -578 52 -649Q58 -712 58 -742V-748Q58 -753 63 -753Q68 -753 68 -748V-742Q68 -711 62 -647.5Q56 -584 56 -553Z"/>
</svg>