<svg xmlns="http://www.w3.org/2000/svg" viewBox="0 -1024 1024 1024">
	<path fill="#000088" d="M151 -539Q153 -539 156.5 -538.5Q160 -538 162 -538Q178 -538 189 -549Q197 -557 204 -571.5Q211 -586 214.5 -597Q218 -608 223.5 -629Q229 -650 231 -657Q235 -671 235 -682Q235 -704 219 -719Q204 -732 178 -740Q148 -749 111 -749Q69 -740 50 -706Q36 -681 30 -638Q30 -638 29 -637Q25 -617 25 -599Q25 -573 34 -549Q43 -525 62.5 -501Q82 -477 99.5 -460Q117 -443 148 -416Q176 -392 188 -381.5Q200 -371 223 -346.5Q246 -322 257 -303.5Q268 -285 277 -257.5Q286 -230 286 -202Q286 -181 283 -168Q263 -80 201 -69Q176 -65 167 -65Q156 -65 147 -67.5Q138 -70 129 -74.5Q120 -79 115 -80Q111 -82 108 -84L82 -104Q72 -112 72 -124Q72 -134 79.5 -141.5Q87 -149 97 -149Q105 -149 112 -144L135 -126Q138 -125 145 -122Q152 -119 157 -117Q162 -115 166.5 -115Q171 -115 193 -119Q221 -124 234 -179Q236 -191 236 -202Q236 -227 227.5 -250Q219 -273 200 -296Q181 -319 163.5 -335.5Q146 -352 116 -379Q88 -403 75.5 -414Q63 -425 39.5 -450Q16 -475 5 -494.5Q-6 -514 -15.5 -542Q-25 -570 -25 -599Q-25 -622 -20 -646Q-12 -698 6 -731Q38 -786 104 -799Q107 -799 109 -799Q162 -799 205.5 -783.5Q249 -768 270 -736Q285 -712 285 -682Q285 -663 279 -643Q276 -635 271.5 -617.5Q267 -600 263 -586.5Q259 -573 254 -560Q241 -531 224 -514Q198 -488 162 -488Q156 -488 149 -489H141Q131 -489 123.5 -496.5Q116 -504 116 -514Q116 -524 123.5 -531.5Q131 -539 141 -539Z"/>
	<path fill="#800080" d="M201 -539Q203 -539 206.5 -538.5Q210 -538 212 -538Q228 -538 239 -549Q247 -557 254 -571.5Q261 -586 264.5 -597Q268 -608 273.5 -629Q279 -650 281 -657Q285 -671 285 -682Q285 -704 269 -719Q254 -732 228 -740Q198 -749 161 -749Q119 -740 100 -706Q86 -681 80 -638Q80 -638 79 -637Q75 -617 75 -599Q75 -573 84 -549Q93 -525 112.5 -501Q132 -477 149.5 -460Q167 -443 198 -416Q226 -392 238 -381.5Q250 -371 273 -346.5Q296 -322 307 -303.5Q318 -285 327 -257.5Q336 -230 336 -202Q336 -181 333 -168Q313 -80 251 -69Q226 -65 217 -65Q206 -65 197 -67.5Q188 -70 179 -74.5Q170 -79 165 -80Q161 -82 158 -84L132 -104Q122 -112 122 -124Q122 -134 129.5 -141.5Q137 -149 147 -149Q155 -149 162 -144L185 -126Q188 -125 195 -122Q202 -119 207 -117Q212 -115 216.5 -115Q221 -115 243 -119Q271 -124 284 -179Q286 -191 286 -202Q286 -227 277.5 -250Q269 -273 250 -296Q231 -319 213.5 -335.5Q196 -352 166 -379Q138 -403 125.5 -414Q113 -425 89.5 -450Q66 -475 55 -494.5Q44 -514 34.5 -542Q25 -570 25 -599Q25 -622 30 -646Q38 -698 56 -731Q88 -786 154 -799Q157 -799 159 -799Q212 -799 255.5 -783.5Q299 -768 320 -736Q335 -712 335 -682Q335 -663 329 -643Q326 -635 321.5 -617.5Q317 -600 313 -586.5Q309 -573 304 -560Q291 -531 274 -514Q248 -488 212 -488Q206 -488 199 -489H191Q181 -489 173.5 -496.5Q166 -504 166 -514Q166 -524 173.5 -531.5Q181 -539 191 -539Z"/>
	<path fill="#daa520" d="M201 -519Q203 -519 206.5 -518.5Q210 -518 212 -518Q224 -518 234.5 -522Q245 -526 253 -535Q261 -544 266.5 -552.5Q272 -561 277.5 -576Q283 -591 286 -600Q289 -609 293.5 -626.5Q298 -644 300 -651Q305 -668 305 -682Q305 -713 282 -733.5Q259 -754 227.5 -761.5Q196 -769 159 -769Q111 -760 89 -727Q67 -694 60 -641Q55 -619 55 -599Q55 -569 66 -540.5Q77 -512 95.5 -489.5Q114 -467 137.5 -444Q161 -421 185.5 -401.5Q210 -382 233.5 -358.5Q257 -335 275.5 -313Q294 -291 305 -262Q316 -233 316 -202Q316 -188 314 -173Q296 -97 248 -89Q224 -85 217 -85Q208 -85 200.5 -87.5Q193 -90 184.5 -94Q176 -98 171 -99Q171 -100 170 -100L144 -120Q142 -122 142 -124Q142 -129 147 -129Q149 -129 150 -128L175 -108Q180 -107 187.5 -103Q195 -99 202 -97Q209 -95 217 -95Q223 -95 246 -99Q288 -106 304 -175Q306 -189 306 -202Q306 -231 296.5 -257Q287 -283 265.5 -308.5Q244 -334 227.5 -350Q211 -366 179 -394Q152 -417 139 -429Q126 -441 104.5 -464Q83 -487 72.5 -505Q62 -523 53.5 -548Q45 -573 45 -599Q45 -620 50 -643Q58 -698 82 -733.5Q106 -769 158 -779Q158 -779 159 -779Q186 -779 211.5 -774.5Q237 -770 261.5 -759.5Q286 -749 300.5 -729Q315 -709 315 -682Q315 -669 304 -627Q298 -605 295 -594.5Q292 -584 283.5 -564.5Q275 -545 266.5 -535Q258 -525 243.5 -516.5Q229 -508 212 -508Q206 -508 201 -509H191Q186 -509 186 -514Q186 -519 191 -519Z"/>
</svg>