<svg xmlns="http://www.w3.org/2000/svg" viewBox="0 -1024 1024 1024">
	<path fill="#000088" d="M178 -440Q178 -449 179 -460Q180 -471 180.5 -479.5Q181 -488 183.5 -499.5Q186 -511 187 -518Q188 -525 191.5 -537.5Q195 -550 196.5 -555.5Q198 -561 202.5 -575Q207 -589 208 -592Q209 -595 214 -610.5Q219 -626 219 -628Q217 -633 217 -638Q217 -652 229 -660Q242 -702 260 -735Q270 -753 279 -763Q291 -776 303 -778L354 -801Q358 -803 363 -803L411 -805Q411 -805 412 -805Q422 -805 429.5 -797.5Q437 -790 437 -780Q437 -770 430 -762.5Q423 -755 413 -755L370 -753L320 -731Q319 -730 317 -730Q307 -719 293 -689Q315 -696 334 -696Q341 -696 349 -695Q398 -694 421 -647Q435 -620 435 -586Q435 -571 428 -549Q419 -520 405 -499Q421 -471 421 -438Q421 -435 421 -434Q421 -432 421 -429Q421 -369 370 -334Q365 -330 359 -329Q340 -327 319 -327Q252 -327 215 -350Q186 -368 181 -396Q178 -417 178 -440ZM334 -646Q322 -646 305 -640Q292 -636 271 -625Q270 -621 263 -599.5Q256 -578 254 -571.5Q252 -565 246.5 -546.5Q241 -528 239 -518Q237 -508 233.5 -492.5Q230 -477 229 -464.5Q228 -452 228 -440Q228 -422 231 -405Q233 -395 250 -388Q276 -377 319 -377Q333 -377 346 -378Q371 -398 371 -429Q371 -430 371 -431.5Q371 -433 371 -434Q371 -435 371 -436Q371 -437 371 -438Q371 -453 365 -468Q360 -467 356 -467Q355 -467 352.5 -467Q350 -467 349 -467Q306 -467 287 -478Q279 -483 273 -491Q265 -502 265 -516Q265 -531 280 -542Q291 -549 309 -549Q312 -549 316 -549Q320 -549 324 -549Q348 -549 369 -537Q377 -552 382 -569Q385 -581 385 -586Q385 -604 378.5 -620Q372 -636 361 -642Q354 -645 346 -645Q344 -645 340 -645.5Q336 -646 334 -646ZM82 -746Q63 -753 33 -753L-49 -749Q-50 -749 -50 -749Q-60 -749 -67.5 -756.5Q-75 -764 -75 -774Q-75 -784 -68 -791Q-61 -798 -51 -799L31 -803Q31 -803 32 -803Q59 -803 82 -798Q101 -794 115 -787Q132 -797 154 -797Q163 -797 172 -792Q179 -789 188 -782Q198 -775 217 -756Q227 -746 230 -743Q236 -738 238 -730L258 -654Q259 -652 259 -650L265 -578Q265 -577 265 -576Q265 -575 265 -573L259 -519Q259 -517 258 -515L246 -473Q226 -399 226 -309Q226 -264 231 -215Q234 -188 248 -143Q251 -139 254 -135Q263 -122 263 -110Q263 -105 262 -101Q261 -94 256 -88Q249 -79 237 -79Q218 -79 209 -103Q206 -109 204 -116Q198 -121 192 -125Q185 -130 179 -133Q157 -132 119 -117Q114 -115 103 -107Q84 -93 70 -90Q65 -88 52 -81Q24 -65 6 -65Q-19 -65 -35 -81Q-46 -92 -55 -115Q-59 -126 -61 -128Q-67 -135 -67 -144Q-67 -154 -60 -162L-54 -168Q-46 -175 -36 -175Q-26 -175 -18.5 -167.5Q-11 -160 -11 -150Q-11 -146 -12 -142Q-2 -119 -2 -118Q0 -116 1 -116Q3 -115 6 -115Q11 -115 27 -124Q46 -135 58 -138Q62 -139 75 -148Q90 -159 101 -163Q150 -183 180 -183Q183 -183 186 -183Q182 -199 181 -209Q176 -262 176 -309Q176 -410 198 -487L209 -527L215 -576L209 -644L192 -710Q189 -712 182 -720Q160 -742 151 -747Q150 -747 149 -747Q151 -738 151 -730Q151 -704 135 -688Q123 -675 106 -675Q93 -675 85 -682Q75 -690 75 -704Q75 -705 75 -707Q75 -709 75 -710Q75 -729 82 -746Z"/>
	<path fill="#800080" d="M228 -440Q228 -449 229 -460Q230 -471 230.5 -479.5Q231 -488 233.5 -499.5Q236 -511 237 -518Q238 -525 241.5 -537.5Q245 -550 246.5 -555.5Q248 -561 252.5 -575Q257 -589 258 -592Q259 -595 264 -610.5Q269 -626 269 -628Q267 -633 267 -638Q267 -652 279 -660Q292 -702 310 -735Q320 -753 329 -763Q341 -776 353 -778L404 -801Q408 -803 413 -803L461 -805Q461 -805 462 -805Q472 -805 479.5 -797.5Q487 -790 487 -780Q487 -770 480 -762.5Q473 -755 463 -755L420 -753L370 -731Q369 -730 367 -730Q357 -719 343 -689Q365 -696 384 -696Q391 -696 399 -695Q448 -694 471 -647Q485 -620 485 -586Q485 -571 478 -549Q469 -520 455 -499Q471 -471 471 -438Q471 -435 471 -434Q471 -432 471 -429Q471 -369 420 -334Q415 -330 409 -329Q390 -327 369 -327Q302 -327 265 -350Q236 -368 231 -396Q228 -417 228 -440ZM384 -646Q372 -646 355 -640Q342 -636 321 -625Q320 -621 313 -599.5Q306 -578 304 -571.5Q302 -565 296.5 -546.5Q291 -528 289 -518Q287 -508 283.5 -492.5Q280 -477 279 -464.5Q278 -452 278 -440Q278 -422 281 -405Q283 -395 300 -388Q326 -377 369 -377Q383 -377 396 -378Q421 -398 421 -429Q421 -430 421 -431.5Q421 -433 421 -434Q421 -435 421 -436Q421 -437 421 -438Q421 -453 415 -468Q410 -467 406 -467Q405 -467 402.5 -467Q400 -467 399 -467Q356 -467 337 -478Q329 -483 323 -491Q315 -502 315 -516Q315 -531 330 -542Q341 -549 359 -549Q362 -549 366 -549Q370 -549 374 -549Q398 -549 419 -537Q427 -552 432 -569Q435 -581 435 -586Q435 -604 428.5 -620Q422 -636 411 -642Q404 -645 396 -645Q394 -645 390 -645.5Q386 -646 384 -646ZM132 -746Q113 -753 83 -753L1 -749Q0 -749 0 -749Q-10 -749 -17.5 -756.5Q-25 -764 -25 -774Q-25 -784 -18 -791Q-11 -798 -1 -799L81 -803Q81 -803 82 -803Q109 -803 132 -798Q151 -794 165 -787Q182 -797 204 -797Q213 -797 222 -792Q229 -789 238 -782Q248 -775 267 -756Q277 -746 280 -743Q286 -738 288 -730L308 -654Q309 -652 309 -650L315 -578Q315 -577 315 -576Q315 -575 315 -573L309 -519Q309 -517 308 -515L296 -473Q276 -399 276 -309Q276 -264 281 -215Q284 -188 298 -143Q301 -139 304 -135Q313 -122 313 -110Q313 -105 312 -101Q311 -94 306 -88Q299 -79 287 -79Q268 -79 259 -103Q256 -109 254 -116Q248 -121 242 -125Q235 -130 229 -133Q207 -132 169 -117Q164 -115 153 -107Q134 -93 120 -90Q115 -88 102 -81Q74 -65 56 -65Q31 -65 15 -81Q4 -92 -5 -115Q-9 -126 -11 -128Q-17 -135 -17 -144Q-17 -154 -10 -162L-4 -168Q4 -175 14 -175Q24 -175 31.5 -167.5Q39 -160 39 -150Q39 -146 38 -142Q48 -119 48 -118Q50 -116 51 -116Q53 -115 56 -115Q61 -115 77 -124Q96 -135 108 -138Q112 -139 125 -148Q140 -159 151 -163Q200 -183 230 -183Q233 -183 236 -183Q232 -199 231 -209Q226 -262 226 -309Q226 -410 248 -487L259 -527L265 -576L259 -644L242 -710Q239 -712 232 -720Q210 -742 201 -747Q200 -747 199 -747Q201 -738 201 -730Q201 -704 185 -688Q173 -675 156 -675Q143 -675 135 -682Q125 -690 125 -704Q125 -705 125 -707Q125 -709 125 -710Q125 -729 132 -746Z"/>
	<path fill="#daa520" d="M248 -440Q248 -459 250 -477.5Q252 -496 258.5 -521.5Q265 -547 267.5 -556Q270 -565 281 -598.5Q292 -632 292 -633Q287 -633 287 -638Q287 -641 296 -646Q300 -658 303 -669Q310 -692 328 -725Q337 -741 344 -750Q352 -759 359 -759L412 -783Q413 -783 414 -783L462 -785Q467 -785 467 -780Q467 -775 462 -775L415 -773L362 -749Q361 -749 360 -749Q357 -749 352 -743Q345 -736 337 -720Q319 -688 313 -667Q311 -660 308 -652Q356 -676 384 -676Q390 -676 397 -675Q431 -675 448 -647.5Q465 -620 465 -586Q465 -558 445 -521Q438 -508 431 -500Q451 -473 451 -438Q451 -436 451 -434Q451 -431 451 -429Q451 -380 409 -350Q408 -349 407 -349Q389 -347 369 -347Q325 -347 291 -359Q257 -371 251 -399Q248 -419 248 -440ZM441 -438Q441 -470 423 -493Q415 -487 406 -487Q405 -487 402.5 -487Q400 -487 399 -487Q397 -488 379.5 -489.5Q362 -491 348.5 -497Q335 -503 335 -516Q335 -517 335 -518Q340 -529 359 -529Q362 -529 366 -529Q370 -529 374 -529Q403 -529 424 -508Q430 -515 436 -526Q455 -561 455 -586Q455 -618 440 -641.5Q425 -665 396 -665Q395 -665 395 -665Q390 -666 384 -666Q358 -666 304 -639Q302 -632 292.5 -602Q283 -572 279 -559.5Q275 -547 269 -522.5Q263 -498 260.5 -478.5Q258 -459 258 -440Q258 -420 261 -401Q266 -379 297 -368Q328 -357 369 -357Q388 -357 404 -359Q441 -385 441 -429Q441 -430 441 -431.5Q441 -433 441 -434Q441 -435 441 -436Q441 -437 441 -438ZM359 -519Q348 -519 345 -515Q346 -497 399 -497Q400 -497 402.5 -497Q405 -497 406 -497Q411 -497 417 -501Q398 -519 374 -519Q373 -519 370 -519Q367 -519 366 -519Q365 -519 362.5 -519Q360 -519 359 -519ZM145 -704Q145 -705 145 -707Q145 -709 145 -710Q145 -736 159 -754Q136 -773 82 -773L0 -769Q-5 -769 -5 -774Q-5 -779 0 -779L82 -783Q141 -783 166 -762Q181 -777 204 -777Q212 -777 225 -767Q234 -760 253 -742Q264 -731 267 -728Q268 -727 269 -725L289 -649Q289 -649 289 -648L295 -576Q295 -576 295 -575L289 -521L277 -479Q256 -402 256 -309Q256 -263 261 -213Q264 -184 280 -133Q293 -120 293 -110Q293 -105 292 -103Q290 -99 286.5 -99Q283 -99 281 -103Q277 -109 271 -127Q268 -130 266 -132Q242 -153 230 -153Q205 -153 162 -135Q155 -133 140 -122.5Q125 -112 115 -109Q109 -107 89 -96Q69 -85 56 -85Q43 -85 33.5 -92Q24 -99 21 -105Q18 -111 13 -122Q8 -136 4 -141Q3 -142 3 -144Q3 -146 4 -148L10 -154Q12 -155 14 -155Q19 -155 19 -150Q19 -148 15 -144Q18 -138 23.5 -123.5Q29 -109 36 -102Q43 -95 56 -95Q66 -95 87 -107Q104 -116 113 -119Q121 -121 136 -132Q150 -141 158 -145Q204 -163 230 -163Q251 -157 266 -146Q253 -189 251 -211Q246 -263 246 -309Q246 -404 267 -481L279 -523L285 -576L279 -647L260 -721Q254 -726 240 -739.5Q226 -753 219 -759Q209 -767 204 -767Q186 -767 173 -755Q181 -744 181 -730Q181 -718 175 -706.5Q169 -695 156 -695Q151 -695 149 -696Q145 -698 145 -704ZM155 -705Q155 -705 156 -705Q171 -705 171 -730Q171 -739 166 -747Q155 -731 155 -710Q155 -708 155 -705Z"/>
</svg>