<svg xmlns="http://www.w3.org/2000/svg" viewBox="0 -1024 1024 1024">
	<path fill="#000088" d="M-355 114Q-348 118 -335 96Q-330 88 -330 93Q-330 112 -338 125Q-346 138 -358 138Q-383 138 -402 121.5Q-421 105 -421 79Q-421 64 -410 52Q-401 42 -384 35Q-379 33 -374 33Q-364 33 -356.5 40.5Q-349 48 -349 58Q-351 64 -332 85Q-373 55 -387.5 59Q-402 63 -393 101Q-394 104 -395 106H-394Q-392 105 -390 104Q-388 103 -378 105Q-368 107 -355 114Z"/>
	<path fill="#800080" d="M-305 114Q-298 118 -285 96Q-280 88 -280 93Q-280 112 -288 125Q-296 138 -308 138Q-333 138 -352 121.5Q-371 105 -371 79Q-371 64 -360 52Q-351 42 -334 35Q-329 33 -324 33Q-314 33 -306.5 40.5Q-299 48 -299 58Q-301 64 -282 85Q-323 55 -337.5 59Q-352 63 -343 101Q-344 104 -345 106H-344Q-342 105 -340 104Q-338 103 -328 105Q-318 107 -305 114Z"/>
	<path fill="#daa520" d="M-374 -30Q-372 -30 -370 -32Q-360 -45 -338 -45Q-324 -45 -314.5 -36.5Q-305 -28 -305 -16Q-305 -4 -314.5 4.5Q-324 13 -338 13Q-343 13 -343 18Q-343 23 -338 23Q-320 23 -307.5 11.5Q-295 0 -295 -16Q-295 -32 -307.5 -43.5Q-320 -55 -338 -55Q-365 -55 -378 -38Q-379 -37 -379 -35Q-379 -30 -374 -30ZM-338 13Q-333 13 -333 18Q-333 23 -338 23Q-356 23 -368.5 11.5Q-381 0 -381 -16Q-381 -30 -356 -42Q-355 -42 -354 -42Q-349 -42 -349 -37Q-349 -34 -352 -32Q-371 -24 -371 -16Q-371 -4 -361.5 4.5Q-352 13 -338 13Z"/>
</svg>