<svg xmlns="http://www.w3.org/2000/svg" viewBox="0 -1024 1024 1024">
	<path fill="#000088" d="M254 -757Q241 -757 230 -748Q206 -728 194 -672Q218 -667 226 -667Q244 -667 260.5 -675Q277 -683 286 -695.5Q295 -708 295 -723Q295 -742 289 -750Q285 -756 268 -756Q266 -756 261 -756.5Q256 -757 254 -757ZM226 -617Q214 -617 189 -622Q190 -559 210 -527Q236 -486 312 -486Q338 -487 388 -506Q409 -514 418 -517Q433 -521 444 -521Q456 -521 466 -516Q495 -503 495 -452Q495 -437 493 -418Q493 -409 493 -401Q493 -249 423 -155Q381 -99 319 -76Q294 -66 269 -66Q260 -65 251 -65Q132 -65 63 -181Q50 -197 39.5 -214Q29 -231 14 -261Q-1 -291 -4 -297Q-25 -337 -47 -382Q-49 -387 -49 -393Q-49 -403 -41.5 -410.5Q-34 -418 -24 -418Q-8 -418 -1 -404Q20 -359 40 -321Q45 -312 54.5 -292.5Q64 -273 70 -262Q76 -251 85 -236Q94 -221 103 -211Q105 -209 106 -208Q160 -115 251 -115Q254 -115 259.5 -115.5Q265 -116 268 -116Q284 -116 301 -122Q350 -141 383 -185Q443 -265 443 -401Q443 -404 443 -410Q443 -416 443 -419Q443 -420 443 -422Q445 -439 445 -451.5Q445 -464 443 -471Q439 -471 432 -469Q425 -466 406 -459Q347 -437 313 -436Q312 -436 312 -436Q209 -436 168 -501Q139 -546 139 -631Q139 -632 139 -634Q14 -667 -50 -738Q-53 -741 -57.5 -746.5Q-62 -752 -64 -755Q-83 -759 -83 -779Q-83 -789 -75.5 -796.5Q-68 -804 -58 -804H-54Q-47 -804 -40 -800Q-34 -796 -29.5 -791Q-25 -786 -20.5 -780.5Q-16 -775 -13 -772Q39 -714 145 -684Q146 -690 148 -696Q165 -759 198 -787Q223 -807 254 -807Q262 -807 270 -806Q311 -805 329 -780Q343 -762 345 -731Q345 -727 345 -723Q345 -676 308.5 -646.5Q272 -617 226 -617Z"/>
	<path fill="#800080" d="M304 -757Q291 -757 280 -748Q256 -728 244 -672Q268 -667 276 -667Q294 -667 310.5 -675Q327 -683 336 -695.5Q345 -708 345 -723Q345 -742 339 -750Q335 -756 318 -756Q316 -756 311 -756.5Q306 -757 304 -757ZM276 -617Q264 -617 239 -622Q240 -559 260 -527Q286 -486 362 -486Q388 -487 438 -506Q459 -514 468 -517Q483 -521 494 -521Q506 -521 516 -516Q545 -503 545 -452Q545 -437 543 -418Q543 -409 543 -401Q543 -249 473 -155Q431 -99 369 -76Q344 -66 319 -66Q310 -65 301 -65Q182 -65 113 -181Q100 -197 89.5 -214Q79 -231 64 -261Q49 -291 46 -297Q25 -337 3 -382Q1 -387 1 -393Q1 -403 8.5 -410.5Q16 -418 26 -418Q42 -418 49 -404Q70 -359 90 -321Q95 -312 104.5 -292.5Q114 -273 120 -262Q126 -251 135 -236Q144 -221 153 -211Q155 -209 156 -208Q210 -115 301 -115Q304 -115 309.5 -115.5Q315 -116 318 -116Q334 -116 351 -122Q400 -141 433 -185Q493 -265 493 -401Q493 -404 493 -410Q493 -416 493 -419Q493 -420 493 -422Q495 -439 495 -451.5Q495 -464 493 -471Q489 -471 482 -469Q475 -466 456 -459Q397 -437 363 -436Q362 -436 362 -436Q259 -436 218 -501Q189 -546 189 -631Q189 -632 189 -634Q64 -667 0 -738Q-3 -741 -7.5 -746.5Q-12 -752 -14 -755Q-33 -759 -33 -779Q-33 -789 -25.5 -796.5Q-18 -804 -8 -804H-4Q3 -804 10 -800Q16 -796 20.5 -791Q25 -786 29.5 -780.5Q34 -775 37 -772Q89 -714 195 -684Q196 -690 198 -696Q215 -759 248 -787Q273 -807 304 -807Q312 -807 320 -806Q361 -805 379 -780Q393 -762 395 -731Q395 -727 395 -723Q395 -676 358.5 -646.5Q322 -617 276 -617Z"/>
	<path fill="#daa520" d="M304 -777Q251 -777 227 -688Q223 -672 221 -657Q236 -653 253 -650Q268 -647 276 -647Q311 -647 338 -669Q365 -691 365 -723Q365 -748 355 -762Q345 -776 318 -776Q318 -776 317 -776Q311 -777 304 -777ZM318 -96Q338 -96 358 -104Q399 -119 430 -151Q461 -183 478.5 -224Q496 -265 504.5 -309.5Q513 -354 513 -401Q513 -404 513 -410Q513 -416 513 -419Q513 -419 513 -420Q515 -438 515 -452Q515 -475 510 -483Q505 -491 494 -491Q483 -491 448 -478Q392 -456 362 -456Q270 -456 235 -511Q209 -552 209 -631Q209 -640 210 -649Q78 -682 14 -752Q13 -753 6 -762Q-1 -771 -6 -774H-8Q-13 -774 -13 -779Q-13 -784 -8 -784H-4Q-3 -784 -1 -783Q3 -780 7 -776Q11 -772 15 -766.5Q19 -761 22 -758Q83 -691 211 -659Q213 -675 217 -690Q244 -787 304 -787Q311 -787 318 -786Q350 -786 363 -768Q375 -752 375 -723Q375 -686 344.5 -661.5Q314 -637 276 -637Q276 -637 273 -637Q270 -637 266.5 -637.5Q263 -638 258.5 -638.5Q254 -639 251 -640Q234 -643 220 -647Q219 -639 219 -631Q219 -555 243 -517Q275 -466 362 -466Q392 -467 445 -487Q481 -501 494 -501Q525 -501 525 -452Q525 -438 523 -419Q523 -410 523 -401Q523 -353 514.5 -307.5Q506 -262 488 -219.5Q470 -177 437.5 -144Q405 -111 362 -94Q340 -86 318 -86Q309 -85 301 -85Q193 -85 130 -192Q120 -204 110 -219.5Q100 -235 94 -246.5Q88 -258 78.5 -277.5Q69 -297 64 -307Q43 -346 21 -391Q21 -392 21 -393Q21 -398 26 -398Q29 -398 31 -395Q52 -350 72 -311Q77 -302 87 -282.5Q97 -263 103 -251.5Q109 -240 118.5 -225Q128 -210 138 -198Q198 -95 301 -95Q304 -95 309.5 -95.5Q315 -96 318 -96Z"/>
</svg>