<svg xmlns="http://www.w3.org/2000/svg" viewBox="0 -1024 1024 1024">
	<path fill="#000088" d="M18 -296Q18 -290 20.5 -273Q23 -256 23 -249Q23 -242 21 -236Q20 -230 20 -224Q20 -205 53 -185L62 -248Q64 -257 71 -263Q78 -269 87 -269Q97 -269 104.5 -261.5Q112 -254 112 -244Q112 -242 112 -240L102 -170Q101 -168 96 -156Q91 -145 87 -140Q76 -127 61 -127Q55 -127 44 -133Q26 -143 19 -147.5Q12 -152 -2.5 -164Q-17 -176 -23.5 -191Q-30 -206 -30 -224Q-30 -235 -27 -247Q-27 -248 -27 -249Q-27 -254 -29.5 -271Q-32 -288 -32 -294Q-33 -301 -33 -308Q-33 -358 3 -392Q39 -426 88 -426Q96 -426 104 -425Q110 -426 116 -426Q163 -426 205 -398Q213 -392 220 -386Q239 -409 264 -428Q285 -445 312 -452Q313 -535 340 -594Q350 -616 366 -638Q382 -660 393 -672Q404 -684 426 -705Q487 -767 513 -814Q520 -827 535 -827Q541 -827 547 -824L593 -800Q606 -793 606 -778Q606 -768 598.5 -760.5Q591 -753 581 -753Q575 -753 569 -756L544 -769Q518 -727 461 -670Q434 -643 420 -626.5Q406 -610 390.5 -583.5Q375 -557 369 -525Q363 -493 362 -450Q395 -438 424 -400Q459 -354 481 -285Q496 -235 496 -202Q496 -176 489 -150Q483 -127 472.5 -116Q462 -105 447 -105Q415 -105 389 -143Q363 -182 343 -257Q323 -332 315 -400Q303 -395 294 -388Q272 -371 255 -350Q290 -305 301 -249Q314 -190 314 -168Q314 -162 312 -150Q307 -118 297 -105Q287 -93 273 -93Q267 -93 261 -96Q217 -119 193.5 -165.5Q170 -212 170 -264Q170 -265 170 -265Q172 -306 192 -345Q185 -351 177 -356Q148 -376 116 -376Q114 -376 109.5 -375.5Q105 -375 103 -375Q100 -375 95 -375.5Q90 -376 88 -376Q58 -376 37.5 -356.5Q17 -337 17 -308Q17 -306 17.5 -302Q18 -298 18 -296ZM446 -202Q446 -222 437 -256Q426 -294 408 -331Q390 -368 368 -388Q391 -230 430 -171Q435 -164 440 -160Q442 -166 443 -172Q446 -189 446 -202ZM220 -263Q220 -196 262 -156Q263 -163 264 -168Q264 -185 253 -239Q246 -271 228 -301Q221 -282 220 -263ZM172 -770Q158 -770 130 -770.5Q102 -771 89 -771Q-3 -771 -45 -760Q-48 -759 -51 -759Q-61 -759 -68.5 -766.5Q-76 -774 -76 -784Q-76 -803 -57 -808Q-10 -821 89 -821Q102 -821 130.5 -820.5Q159 -820 172 -820Q180 -820 193.5 -820.5Q207 -821 213 -821Q242 -821 300 -817Q358 -813 387 -813Q388 -813 464 -815Q465 -815 465 -815Q475 -815 482.5 -807.5Q490 -800 490 -790Q490 -780 483 -772.5Q476 -765 466 -765Q388 -763 387 -763Q357 -763 299.5 -767Q242 -771 213 -771Q196 -770 172 -770Z"/>
	<path fill="#800080" d="M68 -296Q68 -290 70.5 -273Q73 -256 73 -249Q73 -242 71 -236Q70 -230 70 -224Q70 -205 103 -185L112 -248Q114 -257 121 -263Q128 -269 137 -269Q147 -269 154.5 -261.5Q162 -254 162 -244Q162 -242 162 -240L152 -170Q151 -168 146 -156Q141 -145 137 -140Q126 -127 111 -127Q105 -127 94 -133Q76 -143 69 -147.5Q62 -152 47.5 -164Q33 -176 26.5 -191Q20 -206 20 -224Q20 -235 23 -247Q23 -248 23 -249Q23 -254 20.5 -271Q18 -288 18 -294Q17 -301 17 -308Q17 -358 53 -392Q89 -426 138 -426Q146 -426 154 -425Q160 -426 166 -426Q213 -426 255 -398Q263 -392 270 -386Q289 -409 314 -428Q335 -445 362 -452Q363 -535 390 -594Q400 -616 416 -638Q432 -660 443 -672Q454 -684 476 -705Q537 -767 563 -814Q570 -827 585 -827Q591 -827 597 -824L643 -800Q656 -793 656 -778Q656 -768 648.5 -760.5Q641 -753 631 -753Q625 -753 619 -756L594 -769Q568 -727 511 -670Q484 -643 470 -626.5Q456 -610 440.5 -583.5Q425 -557 419 -525Q413 -493 412 -450Q445 -438 474 -400Q509 -354 531 -285Q546 -235 546 -202Q546 -176 539 -150Q533 -127 522.5 -116Q512 -105 497 -105Q465 -105 439 -143Q413 -182 393 -257Q373 -332 365 -400Q353 -395 344 -388Q322 -371 305 -350Q340 -305 351 -249Q364 -190 364 -168Q364 -162 362 -150Q357 -118 347 -105Q337 -93 323 -93Q317 -93 311 -96Q267 -119 243.5 -165.5Q220 -212 220 -264Q220 -265 220 -265Q222 -306 242 -345Q235 -351 227 -356Q198 -376 166 -376Q164 -376 159.5 -375.5Q155 -375 153 -375Q150 -375 145 -375.5Q140 -376 138 -376Q108 -376 87.5 -356.5Q67 -337 67 -308Q67 -306 67.5 -302Q68 -298 68 -296ZM496 -202Q496 -222 487 -256Q476 -294 458 -331Q440 -368 418 -388Q441 -230 480 -171Q485 -164 490 -160Q492 -166 493 -172Q496 -189 496 -202ZM270 -263Q270 -196 312 -156Q313 -163 314 -168Q314 -185 303 -239Q296 -271 278 -301Q271 -282 270 -263ZM222 -770Q208 -770 180 -770.5Q152 -771 139 -771Q47 -771 5 -760Q2 -759 -1 -759Q-11 -759 -18.5 -766.5Q-26 -774 -26 -784Q-26 -803 -7 -808Q40 -821 139 -821Q152 -821 180.5 -820.5Q209 -820 222 -820Q230 -820 243.5 -820.5Q257 -821 263 -821Q292 -821 350 -817Q408 -813 437 -813Q438 -813 514 -815Q515 -815 515 -815Q525 -815 532.5 -807.5Q540 -800 540 -790Q540 -780 533 -772.5Q526 -765 516 -765Q438 -763 437 -763Q407 -763 349.5 -767Q292 -771 263 -771Q246 -770 222 -770Z"/>
	<path fill="#daa520" d="M48 -296Q48 -290 50.5 -272.5Q53 -255 53 -249Q53 -244 52 -241Q50 -232 50 -224Q50 -212 54.5 -202.5Q59 -193 70 -184.5Q81 -176 88 -171.5Q95 -167 112 -157Q114 -160 118 -168Q121 -174 122 -176L132 -245Q133 -249 137 -249Q142 -249 142 -244Q142 -244 142 -243L132 -173Q132 -172 131 -171Q130 -170 128 -164Q120 -147 111 -147Q110 -147 109 -148Q107 -149 103 -151Q87 -159 79.5 -164.5Q72 -170 61 -179Q50 -188 45 -199.5Q40 -211 40 -224Q40 -233 42 -243Q43 -245 43 -249Q43 -255 40.5 -272Q38 -289 38 -296Q37 -302 37 -308Q37 -349 66.5 -377.5Q96 -406 138 -406Q146 -406 153 -405Q160 -406 166 -406Q226 -406 273 -357Q294 -387 326 -412Q355 -435 382 -435Q382 -440 382 -444Q382 -494 390 -532Q398 -570 416 -600Q434 -630 448 -646.5Q462 -663 490 -691Q553 -755 581 -804Q582 -807 585 -807Q586 -807 587 -806L633 -782Q636 -781 636 -778Q636 -773 631 -773Q630 -773 629 -774L587 -795Q559 -747 497 -684Q469 -656 455.5 -640.5Q442 -625 424.5 -595.5Q407 -566 399.5 -529.5Q392 -493 392 -444Q392 -440 392 -434Q438 -428 478 -358Q499 -319 512.5 -274.5Q526 -230 526 -202Q526 -179 520 -155Q512 -125 497 -125Q475 -125 456 -154Q436 -184 418 -242Q390 -335 383 -425Q359 -425 332 -404Q300 -379 280 -349Q319 -304 332 -245Q344 -188 344 -168Q344 -161 340 -144Q336 -127 332 -120Q328 -113 323 -113Q322 -113 321 -114Q282 -134 261 -175.5Q240 -217 240 -264Q242 -308 267 -348Q222 -396 166 -396Q164 -396 159.5 -395.5Q155 -395 153 -395Q153 -395 152 -395Q145 -396 138 -396Q100 -396 73.5 -370.5Q47 -345 47 -308Q47 -306 47.5 -302Q48 -298 48 -296ZM516 -202Q516 -228 503 -272Q490 -316 469 -353Q433 -416 393 -424Q401 -334 428 -245Q445 -188 464 -160Q481 -135 497 -135Q504 -135 510 -157Q516 -180 516 -202ZM334 -168Q334 -187 322 -243Q310 -298 274 -340Q252 -303 250 -264Q250 -220 269 -181.5Q288 -143 323 -124Q326 -127 329 -138Q334 -157 334 -168ZM222 -790Q208 -790 180 -790.5Q152 -791 139 -791Q44 -791 0 -779Q0 -779 -1 -779Q-6 -779 -6 -784Q-6 -788 -2 -789Q43 -801 139 -801Q152 -801 180 -800.5Q208 -800 222 -800Q229 -800 243 -800.5Q257 -801 263 -801Q292 -801 350 -797Q408 -793 437 -793Q438 -793 515 -795Q520 -795 520 -790Q520 -785 515 -785Q438 -783 437 -783Q408 -783 350 -787Q292 -791 263 -791Q246 -790 222 -790Z"/>
</svg>