<svg xmlns="http://www.w3.org/2000/svg" viewBox="0 -1024 1024 1024">
	<path fill="#000088" d="M345 -752Q335 -752 327.5 -759.5Q320 -767 320 -777Q320 -787 327 -794.5Q334 -802 345 -802L471 -804Q481 -804 488.5 -796.5Q496 -789 496 -779Q496 -769 489 -761.5Q482 -754 471 -754ZM240 -79Q230 -79 210 -78.5Q190 -78 180 -78Q93 -78 61 -110Q43 -112 33 -122Q26 -131 26 -144Q26 -162 39 -178Q62 -206 150 -243Q164 -250 168 -251Q241 -287 273 -320Q307 -355 310 -396Q310 -451 276 -487Q224 -542 115 -544Q109 -536 105 -528Q131 -530 155 -530Q206 -530 243 -501Q290 -464 290 -399Q290 -350 245 -315Q216 -293 169 -278.5Q122 -264 77 -264Q18 -264 -27 -303.5Q-72 -343 -72 -403Q-72 -474 -26 -529.5Q20 -585 89 -593Q140 -660 243 -750Q206 -746 163 -746Q121 -746 47 -750.5Q-27 -755 -52 -756Q-62 -756 -69 -763.5Q-76 -771 -76 -781Q-76 -791 -68.5 -798.5Q-61 -806 -51 -806Q-51 -806 -50 -806Q-25 -805 49 -800.5Q123 -796 163 -796Q206 -796 242 -800Q262 -802 294 -802Q297 -802 304.5 -802Q312 -802 315 -802Q325 -802 332.5 -794.5Q340 -787 340 -777Q340 -765 331 -757Q255 -698 188 -630Q168 -610 152 -592Q191 -587 225 -575Q279 -556 312 -521Q360 -471 360 -395Q360 -394 360 -393Q356 -333 308 -285Q270 -246 190 -207Q185 -204 169 -197Q107 -171 86 -154Q90 -151 94 -147Q111 -128 180 -128Q190 -128 210 -128.5Q230 -129 240 -129Q256 -129 266 -128Q275 -127 281.5 -120Q288 -113 288 -103Q288 -93 280.5 -85.5Q273 -78 263 -78Q262 -78 260 -78Q253 -79 240 -79ZM240 -399Q240 -440 212 -462Q189 -480 155 -480Q102 -479 84 -475Q77 -468 67 -468Q57 -468 49.5 -475.5Q42 -483 42 -493Q42 -493 42.5 -497.5Q43 -502 44 -507Q45 -512 46.5 -518Q48 -524 49 -528Q17 -510 -2.5 -476Q-22 -442 -22 -403Q-22 -366 7.5 -340Q37 -314 77 -314Q114 -314 155 -326Q192 -338 215 -355Q240 -375 240 -399Z"/>
	<path fill="#800080" d="M395 -752Q385 -752 377.5 -759.5Q370 -767 370 -777Q370 -787 377 -794.5Q384 -802 395 -802L521 -804Q531 -804 538.5 -796.5Q546 -789 546 -779Q546 -769 539 -761.5Q532 -754 521 -754ZM290 -79Q280 -79 260 -78.5Q240 -78 230 -78Q143 -78 111 -110Q93 -112 83 -122Q76 -131 76 -144Q76 -162 89 -178Q112 -206 200 -243Q214 -250 218 -251Q291 -287 323 -320Q357 -355 360 -396Q360 -451 326 -487Q274 -542 165 -544Q159 -536 155 -528Q181 -530 205 -530Q256 -530 293 -501Q340 -464 340 -399Q340 -350 295 -315Q266 -293 219 -278.5Q172 -264 127 -264Q68 -264 23 -303.5Q-22 -343 -22 -403Q-22 -474 24 -529.5Q70 -585 139 -593Q190 -660 293 -750Q256 -746 213 -746Q171 -746 97 -750.5Q23 -755 -2 -756Q-12 -756 -19 -763.5Q-26 -771 -26 -781Q-26 -791 -18.5 -798.5Q-11 -806 -1 -806Q-1 -806 0 -806Q25 -805 99 -800.5Q173 -796 213 -796Q256 -796 292 -800Q312 -802 344 -802Q347 -802 354.5 -802Q362 -802 365 -802Q375 -802 382.5 -794.5Q390 -787 390 -777Q390 -765 381 -757Q305 -698 238 -630Q218 -610 202 -592Q241 -587 275 -575Q329 -556 362 -521Q410 -471 410 -395Q410 -394 410 -393Q406 -333 358 -285Q320 -246 240 -207Q235 -204 219 -197Q157 -171 136 -154Q140 -151 144 -147Q161 -128 230 -128Q240 -128 260 -128.5Q280 -129 290 -129Q306 -129 316 -128Q325 -127 331.5 -120Q338 -113 338 -103Q338 -93 330.5 -85.5Q323 -78 313 -78Q312 -78 310 -78Q303 -79 290 -79ZM290 -399Q290 -440 262 -462Q239 -480 205 -480Q152 -479 134 -475Q127 -468 117 -468Q107 -468 99.5 -475.5Q92 -483 92 -493Q92 -493 92.5 -497.5Q93 -502 94 -507Q95 -512 96.5 -518Q98 -524 99 -528Q67 -510 47.5 -476Q28 -442 28 -403Q28 -366 57.5 -340Q87 -314 127 -314Q164 -314 205 -326Q242 -338 265 -355Q290 -375 290 -399Z"/>
	<path fill="#daa520" d="M395 -782L521 -784Q526 -784 526 -779Q526 -774 521 -774Q395 -772 395 -772Q390 -772 390 -777Q390 -782 395 -782ZM320 -399Q320 -370 299 -346.5Q278 -323 246.5 -310Q215 -297 184 -290.5Q153 -284 127 -284Q76 -284 37 -318Q-2 -352 -2 -403Q-2 -469 41.5 -519.5Q85 -570 149 -574Q174 -607 217 -651Q276 -711 351 -772Q347 -772 344 -772Q313 -772 296 -770Q258 -766 213 -766Q172 -766 97.5 -770.5Q23 -775 -1 -776Q-6 -776 -6 -781Q-6 -786 -1 -786Q24 -785 98 -780.5Q172 -776 213 -776Q257 -776 294 -780Q313 -782 344 -782Q347 -782 354.5 -782Q362 -782 365 -782Q370 -782 370 -777Q370 -775 368 -773Q292 -713 224 -644Q187 -606 162 -574Q206 -573 245.5 -563Q285 -553 318 -532Q351 -511 370.5 -476Q390 -441 390 -395Q388 -363 373.5 -336.5Q359 -310 333.5 -289Q308 -268 285.5 -254Q263 -240 231 -225Q227 -222 211 -216Q159 -194 136 -179Q106 -160 106 -145Q106 -145 106 -144Q106 -140 114 -140Q125 -138 129 -134Q152 -108 230 -108Q240 -108 260 -108.5Q280 -109 290 -109Q304 -109 314 -108Q318 -107 318 -103Q318 -98 313 -98Q313 -98 312 -98Q304 -99 290 -99Q280 -99 260 -98.5Q240 -98 230 -98Q147 -98 121 -128Q120 -129 113 -130Q96 -132 96 -144Q96 -165 131 -187Q155 -203 207 -225Q223 -231 227 -233Q259 -249 281 -262.5Q303 -276 328 -296Q353 -316 366 -341Q379 -366 380 -395Q381 -439 362.5 -472.5Q344 -506 312 -525.5Q280 -545 240.5 -554.5Q201 -564 157 -564Q156 -564 155 -564Q128 -527 123 -503Q134 -506 153 -508Q180 -510 205 -510Q255 -510 287.5 -479Q320 -448 320 -399ZM310 -399Q310 -444 281 -472Q252 -500 205 -500Q138 -500 122 -492V-493Q122 -488 117 -488Q112 -488 112 -493Q112 -521 141 -563Q85 -556 46.5 -509.5Q8 -463 8 -403Q8 -356 43.5 -325Q79 -294 127 -294Q161 -294 200.5 -303.5Q240 -313 275 -338.5Q310 -364 310 -399Z"/>
</svg>