<svg xmlns="http://www.w3.org/2000/svg" viewBox="0 -1024 1024 1024">
	<path fill="#000088" d="M29 -277Q29 -287 26 -308Q23 -329 23 -341Q23 -342 23 -343Q27 -385 40.5 -427Q54 -469 74 -517Q94 -565 102 -592Q107 -607 112 -620Q88 -669 42.5 -705.5Q-3 -742 -58 -758Q-76 -763 -76 -782Q-76 -792 -68.5 -799.5Q-61 -807 -51 -807Q-47 -807 -44 -806Q11 -790 59.5 -755.5Q108 -721 140 -673Q147 -685 155 -695Q181 -726 244 -769Q276 -791 294 -805Q301 -810 309 -810Q319 -810 326.5 -802.5Q334 -795 334 -785Q334 -773 324 -765Q306 -751 272 -728Q229 -699 206.5 -677.5Q184 -656 167 -620Q184 -576 184 -530Q184 -514 187 -477Q190 -440 190 -422Q190 -407 188.5 -392Q187 -377 184.5 -359.5Q182 -342 181 -332Q181 -331 181 -330Q178 -316 173 -291Q168 -266 165.5 -250Q163 -234 157.5 -212.5Q152 -191 147 -172Q145 -164 139 -142.5Q133 -121 130 -110Q125 -93 122 -88Q115 -73 99 -73Q84 -73 77 -86Q76 -88 70.5 -97Q65 -106 62.5 -111Q60 -116 56.5 -124.5Q53 -133 51 -141.5Q49 -150 49 -159Q49 -162 50 -165Q48 -174 41.5 -193Q35 -212 32 -228Q29 -244 29 -261Q29 -263 29 -268.5Q29 -274 29 -277ZM134 -530Q134 -531 134 -532Q131 -525 116.5 -488Q102 -451 96.5 -435.5Q91 -420 83 -391.5Q75 -363 73 -340Q73 -330 76 -309Q79 -288 79 -277Q79 -274 79 -268.5Q79 -263 79 -261Q79 -250 82 -236.5Q85 -223 90.5 -205Q96 -187 97 -181Q98 -184 99 -186Q106 -211 131 -339Q132 -347 134.5 -364.5Q137 -382 138.5 -396Q140 -410 140 -422Q140 -423 140 -425Q140 -427 140 -428Q140 -444 137 -479Q134 -514 134 -530Z"/>
	<path fill="#800080" d="M79 -277Q79 -287 76 -308Q73 -329 73 -341Q73 -342 73 -343Q77 -385 90.5 -427Q104 -469 124 -517Q144 -565 152 -592Q157 -607 162 -620Q138 -669 92.5 -705.5Q47 -742 -8 -758Q-26 -763 -26 -782Q-26 -792 -18.5 -799.5Q-11 -807 -1 -807Q3 -807 6 -806Q61 -790 109.5 -755.5Q158 -721 190 -673Q197 -685 205 -695Q231 -726 294 -769Q326 -791 344 -805Q351 -810 359 -810Q369 -810 376.5 -802.5Q384 -795 384 -785Q384 -773 374 -765Q356 -751 322 -728Q279 -699 256.5 -677.5Q234 -656 217 -620Q234 -576 234 -530Q234 -514 237 -477Q240 -440 240 -422Q240 -407 238.5 -392Q237 -377 234.5 -359.5Q232 -342 231 -332Q231 -331 231 -330Q228 -316 223 -291Q218 -266 215.5 -250Q213 -234 207.5 -212.5Q202 -191 197 -172Q195 -164 189 -142.5Q183 -121 180 -110Q175 -93 172 -88Q165 -73 149 -73Q134 -73 127 -86Q126 -88 120.5 -97Q115 -106 112.5 -111Q110 -116 106.5 -124.5Q103 -133 101 -141.5Q99 -150 99 -159Q99 -162 100 -165Q98 -174 91.5 -193Q85 -212 82 -228Q79 -244 79 -261Q79 -263 79 -268.5Q79 -274 79 -277ZM184 -530Q184 -531 184 -532Q181 -525 166.5 -488Q152 -451 146.5 -435.5Q141 -420 133 -391.5Q125 -363 123 -340Q123 -330 126 -309Q129 -288 129 -277Q129 -274 129 -268.5Q129 -263 129 -261Q129 -250 132 -236.5Q135 -223 140.5 -205Q146 -187 147 -181Q148 -184 149 -186Q156 -211 181 -339Q182 -347 184.5 -364.5Q187 -382 188.5 -396Q190 -410 190 -422Q190 -423 190 -425Q190 -427 190 -428Q190 -444 187 -479Q184 -514 184 -530Z"/>
	<path fill="#daa520" d="M99 -277Q99 -287 96 -308.5Q93 -330 93 -341Q97 -381 110 -422.5Q123 -464 143 -512Q163 -560 171 -586Q177 -604 184 -621Q159 -676 109 -718Q59 -760 -2 -777Q-6 -778 -6 -782Q-6 -787 -1 -787Q0 -787 0 -787Q61 -769 112 -728.5Q163 -688 190 -633Q204 -662 224 -685Q244 -708 259.5 -720Q275 -732 305 -753Q338 -775 356 -789Q357 -790 359 -790Q364 -790 364 -785Q364 -783 362 -781Q344 -767 311 -745Q287 -728 275 -719.5Q263 -711 246 -695.5Q229 -680 217.5 -662Q206 -644 195 -621Q214 -577 214 -530Q214 -513 217 -476Q220 -439 220 -422Q220 -408 218.5 -393.5Q217 -379 214.5 -361.5Q212 -344 211 -334Q208 -321 203.5 -295.5Q199 -270 196 -254.5Q193 -239 188 -217.5Q183 -196 178 -178Q177 -175 168.5 -144.5Q160 -114 156 -101Q154 -96 153 -95Q151 -93 149 -93Q146 -93 145 -96Q144 -97 138.5 -106Q133 -115 131 -119Q129 -123 125.5 -131Q122 -139 120.5 -145.5Q119 -152 119 -159Q119 -163 120 -167Q118 -177 112 -195Q106 -213 102.5 -229.5Q99 -246 99 -261Q99 -263 99 -268.5Q99 -274 99 -277ZM109 -277Q109 -274 109 -268.5Q109 -263 109 -261Q109 -242 119 -206.5Q129 -171 130 -168Q130 -168 130 -167Q130 -166 129.5 -163.5Q129 -161 129 -159Q129 -141 148 -110Q151 -120 158.5 -147Q166 -174 168 -180Q173 -198 178 -219.5Q183 -241 186 -256.5Q189 -272 193.5 -297Q198 -322 201 -336Q202 -345 204.5 -362.5Q207 -380 208.5 -394.5Q210 -409 210 -422Q210 -423 210 -425Q210 -427 210 -428Q210 -444 207 -479Q204 -514 204 -530Q204 -570 190 -608Q185 -596 181 -582Q173 -557 153 -509Q133 -461 120 -420Q107 -379 103 -341Q103 -330 106 -309Q109 -288 109 -277Z"/>
</svg>