<svg xmlns="http://www.w3.org/2000/svg" viewBox="0 -1024 1024 1024">
	<path fill="#000088" d="M107 -473Q125 -473 140.5 -485Q156 -497 179 -523Q200 -547 212 -557Q212 -558 213 -558Q215 -569 229 -679Q218 -709 207 -721Q195 -732 173 -739Q160 -743 147 -743Q103 -743 67 -699Q66 -697 64 -696Q28 -666 25 -610Q25 -600 32 -582Q42 -556 58 -528Q84 -486 105 -473Q105 -473 106 -473Q107 -473 107 -473ZM194 -112L197 -448Q197 -450 197 -452L200 -471Q155 -423 107 -423Q85 -423 63 -442Q44 -458 24 -488Q2 -523 -13 -559Q-25 -590 -25 -610Q-25 -611 -25 -611Q-21 -689 30 -733Q80 -793 147 -793Q167 -793 187 -787Q222 -777 242 -757Q263 -736 279 -690Q280 -686 280 -682Q280 -680 280 -679Q271 -610 247 -446L244 -112Q244 -101 236.5 -94Q229 -87 219 -87Q209 -87 201.5 -94.5Q194 -102 194 -112Z"/>
	<path fill="#800080" d="M157 -473Q175 -473 190.5 -485Q206 -497 229 -523Q250 -547 262 -557Q262 -558 263 -558Q265 -569 279 -679Q268 -709 257 -721Q245 -732 223 -739Q210 -743 197 -743Q153 -743 117 -699Q116 -697 114 -696Q78 -666 75 -610Q75 -600 82 -582Q92 -556 108 -528Q134 -486 155 -473Q155 -473 156 -473Q157 -473 157 -473ZM244 -112L247 -448Q247 -450 247 -452L250 -471Q205 -423 157 -423Q135 -423 113 -442Q94 -458 74 -488Q52 -523 37 -559Q25 -590 25 -610Q25 -611 25 -611Q29 -689 80 -733Q130 -793 197 -793Q217 -793 237 -787Q272 -777 292 -757Q313 -736 329 -690Q330 -686 330 -682Q330 -680 330 -679Q321 -610 297 -446L294 -112Q294 -101 286.5 -94Q279 -87 269 -87Q259 -87 251.5 -94.5Q244 -102 244 -112Z"/>
	<path fill="#daa520" d="M157 -453Q181 -453 201 -467.5Q221 -482 243 -508Q265 -534 275 -542Q276 -543 278 -543Q280 -543 281 -542Q285 -569 300 -681Q288 -717 273.5 -733Q259 -749 229 -758Q213 -763 197 -763Q143 -763 102 -712Q102 -711 101 -711Q58 -676 55 -610Q55 -594 68 -563.5Q81 -533 99 -505Q133 -453 155 -453Q155 -453 156 -453Q157 -453 157 -453ZM264 -112L267 -448Q267 -448 267 -449L280 -533Q271 -525 248 -498Q225 -471 204 -457Q183 -443 157 -443Q156 -443 155 -443Q128 -443 91 -499Q72 -529 58.5 -560.5Q45 -592 45 -610Q48 -680 94 -719Q139 -773 197 -773Q214 -773 231 -768Q264 -758 280.5 -739.5Q297 -721 310 -684Q310 -683 310 -682Q310 -682 310 -681Q302 -612 277 -448L274 -112Q274 -107 269 -107Q264 -107 264 -112Z"/>
</svg>