<svg xmlns="http://www.w3.org/2000/svg" viewBox="0 -1024 1024 1024">
	<path fill="#000088" d="M192 -815Q192 -805 184.5 -797.5Q177 -790 167 -790Q161 -790 156 -792Q135 -803 121 -811Q107 -819 89.5 -834Q72 -849 60 -868Q28 -916 28 -998Q28 -1057 94 -1097Q140 -1125 214.5 -1141.5Q289 -1158 362 -1158Q401 -1158 439.5 -1148.5Q478 -1139 504.5 -1127.5Q531 -1116 565 -1093Q599 -1070 616 -1056.5Q633 -1043 666 -1015Q700 -987 720 -971.5Q740 -956 769 -937.5Q798 -919 826 -911Q854 -903 884 -903H885L941 -925Q945 -927 950 -927Q960 -927 967.5 -919.5Q975 -912 975 -902Q975 -885 959 -879L899 -855Q895 -853 890 -853H884Q846 -853 812 -862.5Q778 -872 743.5 -894Q709 -916 689.5 -931Q670 -946 633 -977Q595 -1010 572 -1027Q549 -1044 513 -1066.5Q477 -1089 440.5 -1098.5Q404 -1108 362 -1108Q311 -1108 253 -1098.5Q195 -1089 152 -1071Q78 -1040 78 -998Q78 -931 102 -895Q121 -865 178 -838Q192 -831 192 -815ZM29 -275Q29 -284 26 -303.5Q23 -323 23 -333Q23 -339 23 -343Q27 -385 40.5 -427Q54 -469 74 -517Q94 -565 102 -592Q107 -607 112 -620Q88 -669 42.5 -705.5Q-3 -742 -58 -758Q-76 -763 -76 -782Q-76 -792 -68.5 -799.5Q-61 -807 -51 -807Q-47 -807 -44 -806Q11 -790 59.5 -755.5Q108 -721 140 -673Q147 -685 155 -695Q181 -726 244 -769Q276 -791 294 -805Q301 -810 309 -810Q319 -810 326.5 -802.5Q334 -795 334 -785Q334 -773 324 -765Q306 -751 272 -728Q229 -699 206.5 -677.5Q184 -656 167 -620Q184 -576 184 -530Q184 -513 187 -475Q190 -437 190 -419Q190 -383 173 -291Q159 -212 147 -172Q145 -164 139 -142.5Q133 -121 129 -111Q126 -97 124 -92Q122 -88 120 -85Q118 -82 116 -79Q109 -73 99 -73Q84 -73 77 -86Q61 -115 51 -162Q48 -172 42 -190.5Q36 -209 32.5 -226Q29 -243 29 -261Q29 -263 29 -268Q29 -273 29 -275ZM97 -181Q98 -184 99 -186Q110 -223 124 -300Q140 -388 140 -419Q140 -437 137 -474.5Q134 -512 134 -530Q134 -531 134 -532Q132 -525 116.5 -487.5Q101 -450 96 -434.5Q91 -419 83 -390.5Q75 -362 73 -339Q73 -336 73 -333Q73 -325 76 -305.5Q79 -286 79 -275Q79 -273 79 -268Q79 -263 79 -261Q79 -250 82 -236.5Q85 -223 90.5 -205Q96 -187 97 -181Z"/>
	<path fill="#800080" d="M242 -815Q242 -805 234.5 -797.5Q227 -790 217 -790Q211 -790 206 -792Q185 -803 171 -811Q157 -819 139.5 -834Q122 -849 110 -868Q78 -916 78 -998Q78 -1057 144 -1097Q190 -1125 264.5 -1141.5Q339 -1158 412 -1158Q451 -1158 489.5 -1148.5Q528 -1139 554.5 -1127.5Q581 -1116 615 -1093Q649 -1070 666 -1056.5Q683 -1043 716 -1015Q750 -987 770 -971.5Q790 -956 819 -937.5Q848 -919 876 -911Q904 -903 934 -903H935L991 -925Q995 -927 1000 -927Q1010 -927 1017.5 -919.5Q1025 -912 1025 -902Q1025 -885 1009 -879L949 -855Q945 -853 940 -853H934Q896 -853 862 -862.5Q828 -872 793.5 -894Q759 -916 739.5 -931Q720 -946 683 -977Q645 -1010 622 -1027Q599 -1044 563 -1066.5Q527 -1089 490.5 -1098.5Q454 -1108 412 -1108Q361 -1108 303 -1098.5Q245 -1089 202 -1071Q128 -1040 128 -998Q128 -931 152 -895Q171 -865 228 -838Q242 -831 242 -815ZM79 -275Q79 -284 76 -303.5Q73 -323 73 -333Q73 -339 73 -343Q77 -385 90.5 -427Q104 -469 124 -517Q144 -565 152 -592Q157 -607 162 -620Q138 -669 92.5 -705.5Q47 -742 -8 -758Q-26 -763 -26 -782Q-26 -792 -18.5 -799.5Q-11 -807 -1 -807Q3 -807 6 -806Q61 -790 109.5 -755.5Q158 -721 190 -673Q197 -685 205 -695Q231 -726 294 -769Q326 -791 344 -805Q351 -810 359 -810Q369 -810 376.5 -802.5Q384 -795 384 -785Q384 -773 374 -765Q356 -751 322 -728Q279 -699 256.5 -677.5Q234 -656 217 -620Q234 -576 234 -530Q234 -513 237 -475Q240 -437 240 -419Q240 -383 223 -291Q209 -212 197 -172Q195 -164 189 -142.5Q183 -121 179 -111Q176 -97 174 -92Q172 -88 170 -85Q168 -82 166 -79Q159 -73 149 -73Q134 -73 127 -86Q111 -115 101 -162Q98 -172 92 -190.5Q86 -209 82.5 -226Q79 -243 79 -261Q79 -263 79 -268Q79 -273 79 -275ZM147 -181Q148 -184 149 -186Q160 -223 174 -300Q190 -388 190 -419Q190 -437 187 -474.5Q184 -512 184 -530Q184 -531 184 -532Q182 -525 166.5 -487.5Q151 -450 146 -434.5Q141 -419 133 -390.5Q125 -362 123 -339Q123 -336 123 -333Q123 -325 126 -305.5Q129 -286 129 -275Q129 -273 129 -268Q129 -263 129 -261Q129 -250 132 -236.5Q135 -223 140.5 -205Q146 -187 147 -181Z"/>
	<path fill="#daa520" d="M222 -815Q222 -810 217 -810Q216 -810 215 -810Q187 -824 170 -835.5Q153 -847 134.5 -868Q116 -889 107 -921.5Q98 -954 98 -998Q98 -1045 154 -1080Q201 -1108 273 -1123Q345 -1138 412 -1138Q449 -1138 485 -1129Q521 -1120 546.5 -1109.5Q572 -1099 604.5 -1077Q637 -1055 654 -1041Q671 -1027 703 -1000Q738 -970 757.5 -955Q777 -940 808.5 -920Q840 -900 870.5 -891.5Q901 -883 934 -883H939L998 -907Q999 -907 1000 -907Q1005 -907 1005 -902Q1005 -899 1002 -897L942 -873Q941 -873 940 -873H934Q899 -873 867.5 -882Q836 -891 803.5 -911.5Q771 -932 751.5 -947Q732 -962 696 -993Q657 -1026 634 -1043.5Q611 -1061 573 -1084Q535 -1107 495.5 -1117.5Q456 -1128 412 -1128Q347 -1128 275.5 -1113.5Q204 -1099 159 -1071Q108 -1040 108 -998Q108 -955 116 -924.5Q124 -894 142 -874Q160 -854 176 -843.5Q192 -833 219 -820Q222 -818 222 -815ZM99 -275Q99 -285 96 -304Q93 -323 93 -333Q93 -338 93 -341Q97 -381 110 -422.5Q123 -464 143 -512Q163 -560 171 -586Q177 -604 184 -621Q159 -676 109 -718Q59 -760 -2 -777Q-6 -778 -6 -782Q-6 -787 -1 -787Q0 -787 0 -787Q61 -769 112 -728.5Q163 -688 190 -633Q204 -662 224 -685Q244 -708 259.5 -720Q275 -732 305 -753Q338 -775 356 -789Q357 -790 359 -790Q364 -790 364 -785Q364 -783 362 -781Q344 -767 311 -745Q287 -728 275 -719.5Q263 -711 246 -695.5Q229 -680 217.5 -662Q206 -644 195 -621Q214 -577 214 -530Q214 -513 217 -475Q220 -437 220 -419Q220 -385 204 -295Q189 -216 178 -178Q177 -176 168.5 -145.5Q160 -115 156 -101Q154 -96 153 -95Q153 -93 149 -93Q146 -93 145 -96Q130 -122 120 -166Q120 -168 109.5 -204Q99 -240 99 -261Q99 -263 99 -268Q99 -273 99 -275ZM109 -275Q109 -273 109 -268Q109 -263 109 -261Q109 -242 119 -206.5Q129 -171 130 -168Q138 -133 148 -111Q151 -121 158.5 -147.5Q166 -174 168 -180Q179 -219 194 -297Q210 -386 210 -419Q210 -437 207 -474.5Q204 -512 204 -530Q204 -570 190 -608Q185 -596 181 -582Q173 -557 153 -509Q133 -461 120 -420Q107 -379 103 -341Q103 -337 103 -333Q103 -324 106 -304.5Q109 -285 109 -275Z"/>
</svg>