<svg xmlns="http://www.w3.org/2000/svg" viewBox="0 -1024 1024 1024">
	<path fill="#000088" d="M58 -734Q58 -723 59 -701Q60 -679 60 -668Q60 -650 50 -638Q40 -627 25 -627Q-12 -627 -28 -668Q-34 -684 -34 -700Q-34 -727 -20 -750Q-33 -753 -45 -753H-51Q-61 -753 -68.5 -760.5Q-76 -768 -76 -778Q-76 -788 -68.5 -795.5Q-61 -803 -51 -803H-45Q-24 -803 -3 -798Q9 -795 19 -790Q43 -803 69 -803Q122 -803 159 -768Q210 -719 210 -628Q210 -581 185 -531.5Q160 -482 119 -443Q98 -423 75 -408Q92 -398 108 -383Q128 -366 148.5 -341Q169 -316 182 -296.5Q195 -277 215.5 -245Q236 -213 246 -198Q254 -228 254 -238Q254 -239 254 -241Q254 -243 254 -244Q254 -246 254 -248Q255 -255 258 -272Q267 -332 271.5 -361Q276 -390 288 -445Q300 -500 312.5 -535.5Q325 -571 346.5 -614.5Q368 -658 395 -693Q404 -704 476 -792Q481 -798 488 -800L522 -810Q525 -811 529 -811Q539 -811 546.5 -803.5Q554 -796 554 -786Q554 -767 536 -762L509 -754Q439 -668 435 -663Q416 -639 400.5 -609.5Q385 -580 374.5 -558Q364 -536 353 -496Q342 -456 337.5 -438.5Q333 -421 324.5 -371Q316 -321 314 -310Q312 -299 304 -243Q304 -240 304 -238Q304 -220 296 -191Q290 -170 290 -161Q290 -156 288 -152Q288 -151 288 -150Q288 -147 289 -144Q292 -141 293 -138Q295 -136 297 -134Q304 -126 304 -116Q304 -115 304 -115L302 -77Q301 -67 294 -60Q287 -53 277 -53Q268 -53 261 -59Q254 -65 252 -73L244 -115Q244 -116 244 -117Q220 -144 175 -215Q112 -312 75 -346Q46 -371 17 -381Q-9 -373 -35 -373Q-50 -373 -59 -384Q-64 -392 -64 -401Q-64 -402 -64 -403Q-64 -404 -64 -404Q-64 -421 -49 -430Q-43 -433 -36 -435Q-29 -437 -23 -437Q-4 -437 14 -433Q51 -448 84 -479Q118 -511 139 -552.5Q160 -594 160 -628Q160 -698 124 -732Q102 -753 69 -753Q62 -753 55 -751Q58 -743 58 -734Z"/>
	<path fill="#800080" d="M108 -734Q108 -723 109 -701Q110 -679 110 -668Q110 -650 100 -638Q90 -627 75 -627Q38 -627 22 -668Q16 -684 16 -700Q16 -727 30 -750Q17 -753 5 -753H-1Q-11 -753 -18.5 -760.5Q-26 -768 -26 -778Q-26 -788 -18.5 -795.5Q-11 -803 -1 -803H5Q26 -803 47 -798Q59 -795 69 -790Q93 -803 119 -803Q172 -803 209 -768Q260 -719 260 -628Q260 -581 235 -531.5Q210 -482 169 -443Q148 -423 125 -408Q142 -398 158 -383Q178 -366 198.5 -341Q219 -316 232 -296.5Q245 -277 265.5 -245Q286 -213 296 -198Q304 -228 304 -238Q304 -239 304 -241Q304 -243 304 -244Q304 -246 304 -248Q305 -255 308 -272Q317 -332 321.5 -361Q326 -390 338 -445Q350 -500 362.5 -535.5Q375 -571 396.5 -614.5Q418 -658 445 -693Q454 -704 526 -792Q531 -798 538 -800L572 -810Q575 -811 579 -811Q589 -811 596.5 -803.5Q604 -796 604 -786Q604 -767 586 -762L559 -754Q489 -668 485 -663Q466 -639 450.5 -609.5Q435 -580 424.5 -558Q414 -536 403 -496Q392 -456 387.5 -438.5Q383 -421 374.5 -371Q366 -321 364 -310Q362 -299 354 -243Q354 -240 354 -238Q354 -220 346 -191Q340 -170 340 -161Q340 -156 338 -152Q338 -151 338 -150Q338 -147 339 -144Q342 -141 343 -138Q345 -136 347 -134Q354 -126 354 -116Q354 -115 354 -115L352 -77Q351 -67 344 -60Q337 -53 327 -53Q318 -53 311 -59Q304 -65 302 -73L294 -115Q294 -116 294 -117Q270 -144 225 -215Q162 -312 125 -346Q96 -371 67 -381Q41 -373 15 -373Q0 -373 -9 -384Q-14 -392 -14 -401Q-14 -402 -14 -403Q-14 -404 -14 -404Q-14 -421 1 -430Q7 -433 14 -435Q21 -437 27 -437Q46 -437 64 -433Q101 -448 134 -479Q168 -511 189 -552.5Q210 -594 210 -628Q210 -698 174 -732Q152 -753 119 -753Q112 -753 105 -751Q108 -743 108 -734Z"/>
	<path fill="#daa520" d="M88 -734Q88 -723 89 -701Q90 -679 90 -668Q90 -647 75 -647Q56 -647 46 -664.5Q36 -682 36 -700Q36 -735 62 -760Q40 -773 5 -773H-1Q-6 -773 -6 -778Q-6 -783 -1 -783H5Q47 -783 70 -767Q92 -783 119 -783Q120 -783 121 -783Q180 -781 210 -736Q240 -691 240 -628Q240 -566 193 -500.5Q146 -435 81 -408Q117 -394 151.5 -361.5Q186 -329 207.5 -296.5Q229 -264 259 -217.5Q289 -171 308 -147Q308 -149 308 -150Q308 -157 310 -163Q311 -175 317.5 -199.5Q324 -224 324 -238Q324 -239 324 -241Q324 -243 324 -244Q324 -244 324 -245Q325 -253 328 -269Q338 -342 345 -381Q352 -420 367.5 -481.5Q383 -543 406 -591.5Q429 -640 461 -681Q466 -687 541 -779Q542 -780 544 -781L578 -791Q578 -791 579 -791Q584 -791 584 -786Q584 -782 580 -781L548 -772Q473 -681 469 -675Q437 -634 414.5 -587Q392 -540 377.5 -480Q363 -420 355.5 -380.5Q348 -341 338 -268Q335 -252 334 -244Q334 -241 334 -238Q334 -223 327.5 -198Q321 -173 320 -162Q320 -161 320 -160Q318 -155 318 -150Q318 -141 323 -133Q324 -132 324 -130V-128Q328 -124 333 -120Q334 -118 334 -116L332 -78Q332 -73 327 -73Q323 -73 322 -77L314 -119Q314 -120 314 -120V-124Q291 -150 259 -198.5Q227 -247 203 -284.5Q179 -322 142 -356.5Q105 -391 66 -402Q40 -393 15 -393Q10 -393 7 -396Q6 -398 6 -401Q6 -402 6 -403Q6 -404 6 -404Q6 -417 27 -417Q47 -417 66 -412Q131 -435 180.5 -501Q230 -567 230 -628Q230 -688 202.5 -729.5Q175 -771 121 -773Q120 -773 119 -773Q97 -773 78 -760Q88 -749 88 -734ZM27 -407Q19 -407 16 -404Q16 -404 16 -403Q30 -403 44 -406Q36 -407 27 -407ZM70 -753Q46 -731 46 -700Q46 -685 54 -671Q62 -657 75 -657Q80 -657 80 -668Q80 -679 79 -701Q78 -723 78 -734Q78 -745 70 -753Z"/>
</svg>