<svg xmlns="http://www.w3.org/2000/svg" viewBox="0 -1024 1024 1024">
	<path fill="#000088" d="M253 -757Q252 -757 249 -757Q246 -757 245 -757Q225 -757 208 -745Q186 -729 171 -695Q226 -693 262 -653.5Q298 -614 298 -558Q298 -534 286 -497Q280 -478 272 -467Q259 -449 241 -449Q239 -449 238 -449Q177 -456 143 -510Q141 -496 136 -486Q128 -467 111 -457Q97 -449 77 -449Q71 -449 66 -451Q-7 -486 -7 -535Q-7 -543 -5 -552Q9 -612 39 -646Q56 -665 79 -677Q57 -708 20 -730.5Q-17 -753 -55 -759Q-64 -761 -70 -768Q-76 -775 -76 -784Q-76 -794 -68.5 -801.5Q-61 -809 -51 -809Q-49 -809 -47 -809Q2 -800 47 -772.5Q92 -745 121 -705Q141 -758 179 -786Q209 -807 245 -807Q248 -807 252 -807Q268 -810 284 -810Q334 -810 376.5 -786Q419 -762 443 -721Q460 -747 478 -776Q482 -781 488 -784L536 -808Q541 -811 547 -811Q557 -811 564.5 -803.5Q572 -796 572 -786Q572 -771 558 -764L516 -743Q485 -694 466 -663Q469 -646 469 -628Q469 -610 466 -592Q463 -568 458 -519Q450 -442 445 -400.5Q440 -359 425 -294.5Q410 -230 389 -179Q386 -171 381 -151.5Q376 -132 371 -118Q366 -104 359 -90Q354 -80 348 -74Q338 -65 326 -65Q309 -65 300 -81Q294 -92 294 -114Q294 -117 295 -119Q307 -179 324 -301Q335 -380 342 -422Q349 -464 365 -531Q381 -598 402 -651Q404 -658 412 -671Q398 -710 363 -735Q328 -760 284 -760Q271 -760 257 -757Q255 -757 253 -757ZM403 -475Q391 -415 374 -294Q391 -364 403 -475ZM156 -642Q156 -636 158.5 -621.5Q161 -607 162 -603Q167 -563 185 -535.5Q203 -508 234 -501Q247 -530 248 -558Q249 -596 225.5 -620.5Q202 -645 167 -645Q161 -645 156 -645Q156 -643 156 -642ZM43 -535Q43 -527 52 -519Q61 -510 82 -499Q85 -500 87 -501Q89 -502 90 -506Q93 -512 95 -535Q98 -558 101 -569Q105 -585 105 -601Q105 -617 101 -632Q87 -625 76 -613Q54 -589 43 -540Q43 -538 43 -535Z"/>
	<path fill="#800080" d="M303 -757Q302 -757 299 -757Q296 -757 295 -757Q275 -757 258 -745Q236 -729 221 -695Q276 -693 312 -653.5Q348 -614 348 -558Q348 -534 336 -497Q330 -478 322 -467Q309 -449 291 -449Q289 -449 288 -449Q227 -456 193 -510Q191 -496 186 -486Q178 -467 161 -457Q147 -449 127 -449Q121 -449 116 -451Q43 -486 43 -535Q43 -543 45 -552Q59 -612 89 -646Q106 -665 129 -677Q107 -708 70 -730.5Q33 -753 -5 -759Q-14 -761 -20 -768Q-26 -775 -26 -784Q-26 -794 -18.5 -801.5Q-11 -809 -1 -809Q1 -809 3 -809Q52 -800 97 -772.5Q142 -745 171 -705Q191 -758 229 -786Q259 -807 295 -807Q298 -807 302 -807Q318 -810 334 -810Q384 -810 426.5 -786Q469 -762 493 -721Q510 -747 528 -776Q532 -781 538 -784L586 -808Q591 -811 597 -811Q607 -811 614.5 -803.5Q622 -796 622 -786Q622 -771 608 -764L566 -743Q535 -694 516 -663Q519 -646 519 -628Q519 -610 516 -592Q513 -568 508 -519Q500 -442 495 -400.5Q490 -359 475 -294.5Q460 -230 439 -179Q436 -171 431 -151.5Q426 -132 421 -118Q416 -104 409 -90Q404 -80 398 -74Q388 -65 376 -65Q359 -65 350 -81Q344 -92 344 -114Q344 -117 345 -119Q357 -179 374 -301Q385 -380 392 -422Q399 -464 415 -531Q431 -598 452 -651Q454 -658 462 -671Q448 -710 413 -735Q378 -760 334 -760Q321 -760 307 -757Q305 -757 303 -757ZM453 -475Q441 -415 424 -294Q441 -364 453 -475ZM206 -642Q206 -636 208.5 -621.5Q211 -607 212 -603Q217 -563 235 -535.5Q253 -508 284 -501Q297 -530 298 -558Q299 -596 275.5 -620.5Q252 -645 217 -645Q211 -645 206 -645Q206 -643 206 -642ZM93 -535Q93 -527 102 -519Q111 -510 132 -499Q135 -500 137 -501Q139 -502 140 -506Q143 -512 145 -535Q148 -558 151 -569Q155 -585 155 -601Q155 -617 151 -632Q137 -625 126 -613Q104 -589 93 -540Q93 -538 93 -535Z"/>
	<path fill="#daa520" d="M303 -777Q302 -777 299 -777Q296 -777 295 -777Q257 -777 230 -746.5Q203 -716 192 -674Q204 -675 217 -675Q265 -675 296.5 -641Q328 -607 328 -558Q328 -538 317 -503Q312 -487 306 -479Q299 -469 291 -469Q291 -469 290 -469Q247 -474 220 -506Q193 -538 184 -584Q183 -572 180 -561Q177 -552 175 -532Q174 -517 172 -509Q170 -501 165.5 -490Q161 -479 151.5 -474Q142 -469 127 -469Q126 -469 125 -469Q63 -498 63 -535Q63 -541 64 -547Q86 -644 159 -667Q136 -709 91.5 -739.5Q47 -770 -2 -779Q-6 -780 -6 -784Q-6 -789 -1 -789Q-1 -789 0 -789Q52 -780 99 -747.5Q146 -715 169 -670Q175 -671 181 -672Q182 -674 182 -675Q194 -720 223 -753.5Q252 -787 295 -787Q300 -787 303 -787Q318 -790 334 -790Q388 -790 431 -759.5Q474 -729 491 -679Q510 -712 545 -765Q546 -766 547 -766L595 -790Q596 -791 597 -791Q602 -791 602 -786Q602 -783 599 -782L552 -758Q515 -700 494 -666Q499 -647 499 -628Q499 -612 496 -595Q493 -569 487 -511.5Q481 -454 477 -423Q473 -392 465.5 -346.5Q458 -301 447 -262Q436 -223 420 -186Q417 -178 412 -158.5Q407 -139 402.5 -125.5Q398 -112 391 -100Q383 -85 376 -85Q371 -85 368 -90Q364 -97 364 -114Q364 -115 364 -115Q377 -175 394 -298Q405 -376 412 -418.5Q419 -461 434.5 -526.5Q450 -592 470 -644Q472 -649 484 -668Q470 -717 428.5 -748.5Q387 -780 334 -780Q319 -780 304 -777Q303 -777 303 -777ZM176 -652Q177 -657 178 -662Q175 -661 173 -661Q175 -656 176 -652ZM374 -113Q374 -101 376 -95Q379 -99 383 -104Q389 -116 393.5 -129.5Q398 -143 403 -162Q408 -181 410 -189Q410 -190 410 -190Q426 -226 437 -264.5Q448 -303 456 -348.5Q464 -394 467.5 -424.5Q471 -455 477 -513Q483 -571 486 -597Q489 -612 489 -628Q489 -641 487 -654Q481 -643 480 -640Q460 -589 444.5 -524Q429 -459 422 -416.5Q415 -374 404 -297Q387 -174 374 -113ZM186 -642Q186 -634 189 -619Q192 -604 192 -601Q198 -553 223 -518.5Q248 -484 291 -479Q294 -479 297 -484Q303 -492 307 -507Q318 -539 318 -558Q318 -604 289.5 -634.5Q261 -665 217 -665Q202 -665 189 -663Q186 -653 186 -646Q186 -645 186 -644Q186 -643 186 -642ZM73 -535Q73 -505 128 -479Q139 -479 146.5 -483Q154 -487 157.5 -495.5Q161 -504 162.5 -511Q164 -518 165 -533Q167 -554 170 -563Q175 -582 175 -601Q175 -630 163 -658Q126 -647 105 -619Q84 -591 74 -545Q73 -540 73 -535Z"/>
</svg>