<svg xmlns="http://www.w3.org/2000/svg" viewBox="0 -1024 1024 1024">
	<path fill="#000088" d="M215 -806Q366 -804 439 -802L451 -805Q454 -806 457 -806Q468 -806 475 -798.5Q482 -791 482 -781Q482 -761 463 -757L447 -753Q445 -752 441 -752Q359 -754 215 -756Q205 -756 197.5 -763.5Q190 -771 190 -781Q190 -791 197.5 -798.5Q205 -806 215 -806ZM-51 -750Q-62 -750 -69 -757.5Q-76 -765 -76 -777Q-76 -791 -66 -798Q-59 -804 -50 -804Q-41 -804 -35 -800Q-30 -800 -18 -800Q-6 -800 0 -800Q18 -800 45 -802Q72 -804 94 -804Q153 -804 178 -794Q202 -783 202 -761Q202 -756 201 -752Q186 -712 143 -645Q139 -635 129 -616Q98 -557 98 -525Q98 -475 110 -454Q128 -428 129 -427Q134 -422 139 -422Q185 -422 215 -440Q254 -465 254 -519Q254 -520 254 -520Q254 -527 248 -527Q247 -527 245 -526.5Q243 -526 241 -526Q232 -526 225 -532Q222 -535 217 -535Q206 -535 187 -522Q169 -510 156 -495Q147 -484 135 -484Q122 -484 115 -495Q110 -501 110 -509Q110 -518 117 -526Q118 -527 120 -530Q128 -539 140 -556Q162 -588 182 -598Q206 -610 258 -610Q300 -610 328 -595Q400 -555 400 -470Q401 -467 401 -465Q401 -434 374 -395Q289 -269 178 -232Q189 -209 195 -200Q214 -169 229 -146L263 -126L323 -122Q333 -121 339.5 -114Q346 -107 346 -97Q346 -87 339 -79.5Q332 -72 321 -72Q321 -72 320 -72L254 -76Q248 -76 243 -79L199 -105Q194 -108 190 -113Q173 -139 152 -174Q148 -181 144 -188.5Q140 -196 135.5 -205.5Q131 -215 128 -220Q110 -218 91 -218Q75 -218 64 -226Q48 -238 48 -261Q48 -280 64 -294Q72 -302 81 -306Q91 -310 99 -310Q103 -310 107 -309Q134 -301 153 -277Q253 -305 333 -423Q351 -449 351 -465Q351 -466 350.5 -467Q350 -468 350 -469Q350 -496 342 -514Q331 -536 303 -551Q298 -554 292 -556Q304 -540 304 -520Q304 -437 241 -398Q199 -372 139 -372Q129 -372 120.5 -375Q112 -378 106.5 -381Q101 -384 94.5 -391.5Q88 -399 85.5 -402.5Q83 -406 76.5 -415.5Q70 -425 69 -427Q68 -427 68 -428Q50 -458 48 -518Q48 -522 48 -525Q48 -546 54.5 -569Q61 -592 66.5 -604Q72 -616 84 -639Q94 -658 99 -667Q99 -669 100 -670Q133 -722 146 -751Q128 -754 94 -754Q64 -754 48 -752Q29 -750 0 -750Q-6 -750 -18.5 -750Q-31 -750 -38 -750Q-40 -750 -44 -750Q-48 -750 -51 -750Z"/>
	<path fill="#800080" d="M265 -806Q416 -804 489 -802L501 -805Q504 -806 507 -806Q518 -806 525 -798.5Q532 -791 532 -781Q532 -761 513 -757L497 -753Q495 -752 491 -752Q409 -754 265 -756Q255 -756 247.5 -763.5Q240 -771 240 -781Q240 -791 247.5 -798.5Q255 -806 265 -806ZM-1 -750Q-12 -750 -19 -757.5Q-26 -765 -26 -777Q-26 -791 -16 -798Q-9 -804 0 -804Q9 -804 15 -800Q20 -800 32 -800Q44 -800 50 -800Q68 -800 95 -802Q122 -804 144 -804Q203 -804 228 -794Q252 -783 252 -761Q252 -756 251 -752Q236 -712 193 -645Q189 -635 179 -616Q148 -557 148 -525Q148 -475 160 -454Q178 -428 179 -427Q184 -422 189 -422Q235 -422 265 -440Q304 -465 304 -519Q304 -520 304 -520Q304 -527 298 -527Q297 -527 295 -526.5Q293 -526 291 -526Q282 -526 275 -532Q272 -535 267 -535Q256 -535 237 -522Q219 -510 206 -495Q197 -484 185 -484Q172 -484 165 -495Q160 -501 160 -509Q160 -518 167 -526Q168 -527 170 -530Q178 -539 190 -556Q212 -588 232 -598Q256 -610 308 -610Q350 -610 378 -595Q450 -555 450 -470Q451 -467 451 -465Q451 -434 424 -395Q339 -269 228 -232Q239 -209 245 -200Q264 -169 279 -146L313 -126L373 -122Q383 -121 389.5 -114Q396 -107 396 -97Q396 -87 389 -79.5Q382 -72 371 -72Q371 -72 370 -72L304 -76Q298 -76 293 -79L249 -105Q244 -108 240 -113Q223 -139 202 -174Q198 -181 194 -188.5Q190 -196 185.5 -205.5Q181 -215 178 -220Q160 -218 141 -218Q125 -218 114 -226Q98 -238 98 -261Q98 -280 114 -294Q122 -302 131 -306Q141 -310 149 -310Q153 -310 157 -309Q184 -301 203 -277Q303 -305 383 -423Q401 -449 401 -465Q401 -466 400.5 -467Q400 -468 400 -469Q400 -496 392 -514Q381 -536 353 -551Q348 -554 342 -556Q354 -540 354 -520Q354 -437 291 -398Q249 -372 189 -372Q179 -372 170.5 -375Q162 -378 156.5 -381Q151 -384 144.5 -391.5Q138 -399 135.5 -402.5Q133 -406 126.5 -415.5Q120 -425 119 -427Q118 -427 118 -428Q100 -458 98 -518Q98 -522 98 -525Q98 -546 104.5 -569Q111 -592 116.5 -604Q122 -616 134 -639Q144 -658 149 -667Q149 -669 150 -670Q183 -722 196 -751Q178 -754 144 -754Q114 -754 98 -752Q79 -750 50 -750Q44 -750 31.5 -750Q19 -750 12 -750Q10 -750 6 -750Q2 -750 -1 -750Z"/>
	<path fill="#daa520" d="M266 -786Q415 -784 492 -782L507 -786Q508 -786 508 -786Q513 -786 513 -781Q513 -777 510 -776L494 -772Q493 -772 492 -772Q411 -774 266 -776Q261 -776 261 -781Q261 -786 266 -786ZM1 -784Q6 -784 7 -780Q10 -780 13 -780Q20 -780 32.5 -780Q45 -780 51 -780Q69 -780 96 -782Q123 -784 145 -784Q185 -784 207 -779Q233 -774 233 -761Q233 -760 233 -759Q219 -721 177 -655Q173 -646 162.5 -625.5Q152 -605 146 -592.5Q140 -580 134.5 -561Q129 -542 129 -525Q129 -524 129 -522Q129 -520 129 -519Q131 -467 145 -444Q147 -441 151 -434Q158 -423 162 -417.5Q166 -412 173.5 -407Q181 -402 190 -402Q249 -402 287 -431Q325 -460 325 -519Q325 -520 325 -520Q325 -531 317.5 -539Q310 -547 299 -547Q298 -547 296 -546.5Q294 -546 292 -546Q291 -546 289 -547Q280 -555 268 -555Q249 -555 227 -539Q205 -523 192 -508Q190 -505 189 -505Q188 -504 186 -504Q181 -504 181 -509Q181 -511 183 -512Q184 -514 186 -516Q195 -527 207 -544Q226 -572 242 -580Q262 -590 298 -590Q304 -590 309 -590Q346 -590 369 -577Q402 -559 417 -532Q432 -505 432 -465Q432 -440 409 -406Q318 -272 201 -245Q205 -237 214 -218Q223 -199 229 -190Q249 -156 266 -131L308 -106L373 -102Q377 -102 377 -97Q377 -92 372 -92L306 -96Q305 -96 304 -97L260 -123Q259 -123 258 -124Q241 -150 220 -184Q214 -194 204.5 -214Q195 -234 190 -243Q167 -238 142 -238Q119 -238 119 -261Q119 -273 129.5 -281.5Q140 -290 150 -290Q151 -290 152 -290Q177 -282 195 -254Q311 -279 400 -412Q422 -443 422 -465Q422 -466 421.5 -467Q421 -468 421 -469Q421 -504 407.5 -528Q394 -552 364 -569Q343 -580 309 -580Q307 -580 303.5 -580Q300 -580 298 -580Q265 -580 250 -573Q235 -566 221 -547Q247 -565 268 -565Q283 -565 294 -556Q296 -557 299 -557Q314 -557 324.5 -546Q335 -535 335 -520Q335 -455 294 -423.5Q253 -392 190 -392Q182 -392 175 -394.5Q168 -397 162 -403Q156 -409 152.5 -413Q149 -417 143.5 -426.5Q138 -436 136 -438Q121 -464 119 -519Q119 -522 119 -525Q119 -543 124.5 -563Q130 -583 136 -595.5Q142 -608 153 -629Q164 -650 168 -659Q168 -659 168 -660Q209 -724 223 -762Q221 -766 205 -770Q184 -774 145 -774Q123 -774 96 -772Q69 -770 51 -770Q45 -770 32.5 -770Q20 -770 13 -770Q6 -770 0 -770Q-5 -770 -5 -777Q-5 -784 1 -784ZM129 -261Q129 -253 132 -250.5Q135 -248 142 -248Q164 -248 185 -252Q170 -274 150 -280Q144 -280 136.5 -273.5Q129 -267 129 -261Z"/>
</svg>