<svg xmlns="http://www.w3.org/2000/svg" viewBox="0 -1024 1024 1024">
	<path fill="#000088" d="M-26 -809Q37 -809 68 -785Q69 -785 70 -785Q117 -785 147 -754Q166 -733 179 -698Q190 -670 197 -628Q199 -617 199 -605Q199 -556 169 -510Q207 -480 227 -432Q247 -384 247 -332Q247 -326 247 -319Q249 -307 249 -295Q249 -186 122 -96Q87 -70 49 -70Q8 -70 -16 -99Q-35 -124 -35 -162V-172L-53 -265Q-53 -268 -53 -270Q-53 -280 -45.5 -287.5Q-38 -295 -28 -295Q-19 -295 -12 -289Q-5 -283 -3 -275L15 -179Q15 -176 15 -174V-162Q15 -141 23 -131Q32 -120 49 -120Q71 -120 94 -136Q199 -211 199 -295Q199 -304 197 -314Q197 -316 197 -318Q197 -320 197 -325Q197 -330 197 -332Q197 -376 181.5 -413Q166 -450 137 -472Q94 -433 42 -433Q31 -433 22 -440Q16 -445 10 -453Q3 -465 -3 -481Q-7 -494 -7 -504Q-7 -525 14 -537Q32 -547 62 -547Q96 -547 126 -535Q149 -570 149 -605Q149 -613 147 -620Q141 -657 132 -681Q123 -706 110 -719Q100 -731 88 -734Q84 -715 70 -703Q50 -687 24 -687Q13 -687 6 -694.5Q-1 -702 -1 -713Q-1 -736 13 -755Q-6 -759 -24 -759Q-25 -759 -27 -759Q-31 -758 -32 -758Q-38 -755 -44 -755Q-54 -755 -61.5 -762.5Q-69 -770 -69 -780Q-69 -794 -58 -801Q-50 -806 -30 -809Q-28 -809 -26 -809ZM45 -495Q47 -490 51 -484Q68 -486 84 -495Q74 -497 62 -497Q61 -497 60 -497Q59 -497 58 -497Q52 -497 45 -495Z"/>
	<path fill="#800080" d="M24 -809Q87 -809 118 -785Q119 -785 120 -785Q167 -785 197 -754Q216 -733 229 -698Q240 -670 247 -628Q249 -617 249 -605Q249 -556 219 -510Q257 -480 277 -432Q297 -384 297 -332Q297 -326 297 -319Q299 -307 299 -295Q299 -186 172 -96Q137 -70 99 -70Q58 -70 34 -99Q15 -124 15 -162V-172L-3 -265Q-3 -268 -3 -270Q-3 -280 4.5 -287.5Q12 -295 22 -295Q31 -295 38 -289Q45 -283 47 -275L65 -179Q65 -176 65 -174V-162Q65 -141 73 -131Q82 -120 99 -120Q121 -120 144 -136Q249 -211 249 -295Q249 -304 247 -314Q247 -316 247 -318Q247 -320 247 -325Q247 -330 247 -332Q247 -376 231.5 -413Q216 -450 187 -472Q144 -433 92 -433Q81 -433 72 -440Q66 -445 60 -453Q53 -465 47 -481Q43 -494 43 -504Q43 -525 64 -537Q82 -547 112 -547Q146 -547 176 -535Q199 -570 199 -605Q199 -613 197 -620Q191 -657 182 -681Q173 -706 160 -719Q150 -731 138 -734Q134 -715 120 -703Q100 -687 74 -687Q63 -687 56 -694.5Q49 -702 49 -713Q49 -736 63 -755Q44 -759 26 -759Q25 -759 23 -759Q19 -758 18 -758Q12 -755 6 -755Q-4 -755 -11.5 -762.5Q-19 -770 -19 -780Q-19 -794 -8 -801Q0 -806 20 -809Q22 -809 24 -809ZM95 -495Q97 -490 101 -484Q118 -486 134 -495Q124 -497 112 -497Q111 -497 110 -497Q109 -497 108 -497Q102 -497 95 -495Z"/>
	<path fill="#daa520" d="M74 -707Q69 -707 69 -713Q69 -729 78 -742Q87 -755 101 -761Q94 -766 82 -770Q56 -779 24 -779Q11 -777 9 -776Q7 -775 6 -775Q1 -775 1 -780Q1 -782 2.5 -784Q4 -786 7 -786.5Q10 -787 12.5 -787.5Q15 -788 19 -788.5Q23 -789 23 -789Q24 -789 24 -789Q58 -789 85 -780Q103 -774 112 -765Q116 -765 120 -765Q123 -765 126 -765Q204 -764 227 -625Q229 -615 229 -605Q229 -552 191 -506Q232 -481 254.5 -433.5Q277 -386 277 -332Q277 -323 277 -318Q279 -306 279 -295Q279 -196 161 -112Q131 -90 99 -90Q71 -90 53 -108.5Q35 -127 35 -162V-174L17 -269Q17 -270 17 -270Q17 -275 22 -275Q26 -275 27 -271L45 -175Q45 -174 45 -174V-162Q45 -131 60 -115.5Q75 -100 99 -100Q127 -100 155 -120Q269 -201 269 -295Q269 -306 267 -317Q267 -318 267 -318Q267 -320 267 -325Q267 -330 267 -332Q267 -385 245.5 -430Q224 -475 185 -498Q144 -453 92 -453Q83 -453 73 -471Q63 -490 63 -504Q63 -517 79 -522Q95 -527 112 -527Q150 -527 182 -511Q219 -554 219 -605Q219 -614 217 -623Q195 -755 126 -755Q125 -755 123 -755Q121 -755 120 -755Q119 -755 117 -755Q119 -751 119 -746Q119 -729 107 -719Q93 -707 74 -707ZM108 -517Q99 -517 86 -513.5Q73 -510 73 -504Q73 -496 80 -481Q87 -466 92 -463Q138 -463 175 -503Q146 -517 112 -517Q111 -517 110 -517Q109 -517 108 -517ZM109 -746Q109 -750 107 -753Q96 -749 88.5 -739Q81 -729 79 -718Q109 -722 109 -746Z"/>
</svg>