<svg xmlns="http://www.w3.org/2000/svg" viewBox="0 -1024 1024 1024">
	<path fill="#000088" d="M499 -727Q498 -727 496.5 -727Q495 -727 494 -727Q494 -727 493 -727Q492 -727 492 -727Q463 -727 451 -747Q446 -756 446 -768Q446 -796 464 -826Q472 -839 491 -862Q529 -910 530 -937Q524 -941 514 -943Q493 -948 458 -948Q411 -948 353.5 -940Q296 -932 275 -924Q269 -922 252.5 -916Q236 -910 226.5 -906.5Q217 -903 202 -899Q187 -895 173 -893Q159 -891 145 -891Q141 -891 139 -891Q90 -898 61 -949Q41 -982 24 -1060Q16 -1095 11 -1108Q10 -1112 10 -1116Q10 -1126 17.5 -1133.5Q25 -1141 35 -1141Q53 -1141 59 -1124Q64 -1109 73 -1071Q89 -1001 104 -974Q121 -945 145 -941Q155 -941 166 -942.5Q177 -944 191 -948.5Q205 -953 212.5 -955Q220 -957 237.5 -963.5Q255 -970 259 -972Q287 -981 345.5 -989.5Q404 -998 458 -998Q492 -998 516 -994Q540 -990 554 -981Q580 -966 580 -940Q580 -918 570.5 -895.5Q561 -873 553.5 -862.5Q546 -852 530 -831Q513 -810 507 -800Q499 -787 497 -777Q498 -777 499 -777Q525 -777 557.5 -784Q590 -791 628.5 -802Q667 -813 686 -816Q688 -817 691 -817Q692 -817 693 -817L857 -801Q867 -800 873.5 -793Q880 -786 880 -776Q880 -766 872.5 -758.5Q865 -751 855 -751Q854 -751 853 -751L692 -767Q674 -763 634.5 -751.5Q595 -740 562.5 -733.5Q530 -727 499 -727ZM-66 -780Q-66 -790 -58.5 -797.5Q-51 -805 -41 -805Q-40 -805 -39 -805Q-27 -804 -7 -801Q13 -798 22 -797Q86 -790 118 -751Q182 -743 217 -722Q258 -698 277 -652Q296 -604 296 -495Q296 -489 293 -480Q291 -472 286 -461Q276 -439 257 -404Q219 -335 169 -256Q362 -427 518 -578Q584 -685 673 -745Q679 -749 687 -749Q697 -749 704.5 -741.5Q712 -734 712 -724Q712 -715 705 -704Q701 -696 692 -685Q674 -663 636 -625Q604 -591 558 -547Q529 -499 502 -437Q501 -436 501 -435Q470 -380 468 -287Q468 -223 480 -190Q491 -158 513 -156Q544 -154 597 -134Q637 -118 657 -116Q664 -115 669 -115Q699 -115 713 -128L756 -179Q763 -188 775 -188Q785 -188 792.5 -180.5Q800 -173 800 -163Q800 -154 794 -147L750 -95Q749 -94 748 -93Q720 -65 669 -65Q634 -65 578 -87Q534 -105 510 -106Q468 -108 443 -150Q429 -175 423 -213Q417 -248 418 -287Q420 -382 449 -444Q270 -277 122 -150Q67 -102 36 -78Q28 -69 20 -64Q2 -50 -13 -50Q-23 -50 -30.5 -57.5Q-38 -65 -38 -75Q-38 -85 -31.5 -92Q-25 -99 -16 -100Q-12 -102 -5 -107Q4 -116 18 -132Q68 -189 141.5 -307Q215 -425 240 -481L246 -495Q246 -594 230 -634Q219 -661 197.5 -675.5Q176 -690 140 -697Q140 -695 140 -692Q140 -682 135.5 -654Q131 -626 127 -613Q119 -587 99 -587Q72 -587 48 -595Q34 -600 26 -607Q18 -616 18 -628Q18 -638 22 -656Q33 -712 55 -737Q36 -745 16 -747Q7 -748 -13 -751Q-33 -754 -43 -755Q-53 -756 -59.5 -763Q-66 -770 -66 -780ZM81 -639Q85 -657 90 -692Q90 -693 89 -699Q77 -679 70 -641Q75 -640 81 -639Z"/>
	<path fill="#800080" d="M549 -727Q548 -727 546.5 -727Q545 -727 544 -727Q544 -727 543 -727Q542 -727 542 -727Q513 -727 501 -747Q496 -756 496 -768Q496 -796 514 -826Q522 -839 541 -862Q579 -910 580 -937Q574 -941 564 -943Q543 -948 508 -948Q461 -948 403.5 -940Q346 -932 325 -924Q319 -922 302.5 -916Q286 -910 276.5 -906.5Q267 -903 252 -899Q237 -895 223 -893Q209 -891 195 -891Q191 -891 189 -891Q140 -898 111 -949Q91 -982 74 -1060Q66 -1095 61 -1108Q60 -1112 60 -1116Q60 -1126 67.5 -1133.5Q75 -1141 85 -1141Q103 -1141 109 -1124Q114 -1109 123 -1071Q139 -1001 154 -974Q171 -945 195 -941Q205 -941 216 -942.5Q227 -944 241 -948.5Q255 -953 262.5 -955Q270 -957 287.5 -963.5Q305 -970 309 -972Q337 -981 395.5 -989.5Q454 -998 508 -998Q542 -998 566 -994Q590 -990 604 -981Q630 -966 630 -940Q630 -918 620.5 -895.5Q611 -873 603.5 -862.5Q596 -852 580 -831Q563 -810 557 -800Q549 -787 547 -777Q548 -777 549 -777Q575 -777 607.5 -784Q640 -791 678.5 -802Q717 -813 736 -816Q738 -817 741 -817Q742 -817 743 -817L907 -801Q917 -800 923.5 -793Q930 -786 930 -776Q930 -766 922.5 -758.5Q915 -751 905 -751Q904 -751 903 -751L742 -767Q724 -763 684.5 -751.5Q645 -740 612.5 -733.5Q580 -727 549 -727ZM-16 -780Q-16 -790 -8.5 -797.5Q-1 -805 9 -805Q10 -805 11 -805Q23 -804 43 -801Q63 -798 72 -797Q136 -790 168 -751Q232 -743 267 -722Q308 -698 327 -652Q346 -604 346 -495Q346 -489 343 -480Q341 -472 336 -461Q326 -439 307 -404Q269 -335 219 -256Q412 -427 568 -578Q634 -685 723 -745Q729 -749 737 -749Q747 -749 754.5 -741.5Q762 -734 762 -724Q762 -715 755 -704Q751 -696 742 -685Q724 -663 686 -625Q654 -591 608 -547Q579 -499 552 -437Q551 -436 551 -435Q520 -380 518 -287Q518 -223 530 -190Q541 -158 563 -156Q594 -154 647 -134Q687 -118 707 -116Q714 -115 719 -115Q749 -115 763 -128L806 -179Q813 -188 825 -188Q835 -188 842.5 -180.5Q850 -173 850 -163Q850 -154 844 -147L800 -95Q799 -94 798 -93Q770 -65 719 -65Q684 -65 628 -87Q584 -105 560 -106Q518 -108 493 -150Q479 -175 473 -213Q467 -248 468 -287Q470 -382 499 -444Q320 -277 172 -150Q117 -102 86 -78Q78 -69 70 -64Q52 -50 37 -50Q27 -50 19.5 -57.5Q12 -65 12 -75Q12 -85 18.5 -92Q25 -99 34 -100Q38 -102 45 -107Q54 -116 68 -132Q118 -189 191.5 -307Q265 -425 290 -481L296 -495Q296 -594 280 -634Q269 -661 247.5 -675.5Q226 -690 190 -697Q190 -695 190 -692Q190 -682 185.5 -654Q181 -626 177 -613Q169 -587 149 -587Q122 -587 98 -595Q84 -600 76 -607Q68 -616 68 -628Q68 -638 72 -656Q83 -712 105 -737Q86 -745 66 -747Q57 -748 37 -751Q17 -754 7 -755Q-3 -756 -9.5 -763Q-16 -770 -16 -780ZM131 -639Q135 -657 140 -692Q140 -693 139 -699Q127 -679 120 -641Q125 -640 131 -639Z"/>
	<path fill="#daa520" d="M549 -747Q548 -747 546.5 -747Q545 -747 544 -747Q516 -747 516 -768Q516 -783 523 -799Q530 -815 536.5 -824Q543 -833 557 -850Q571 -868 578.5 -878.5Q586 -889 593 -906.5Q600 -924 600 -940Q600 -949 589 -955Q567 -968 508 -968Q458 -968 400 -960Q342 -952 319 -943Q313 -941 296.5 -935Q280 -929 271 -926Q262 -923 247.5 -919Q233 -915 220 -913Q207 -911 195 -911Q193 -911 192 -911Q176 -913 162.5 -920.5Q149 -928 139.5 -942Q130 -956 123 -967.5Q116 -979 110 -1000Q104 -1021 101 -1031.5Q98 -1042 93 -1064Q85 -1101 80 -1114Q80 -1115 80 -1116Q80 -1121 85 -1121Q89 -1121 90 -1118Q95 -1104 103 -1066Q109 -1042 112.5 -1027.5Q116 -1013 124 -991.5Q132 -970 140.5 -957.5Q149 -945 163 -934Q177 -923 193 -921Q194 -921 194.5 -921Q195 -921 195 -921Q207 -921 219 -923Q231 -925 245 -929Q259 -933 268 -935.5Q277 -938 293.5 -944.5Q310 -951 315 -953Q340 -962 398.5 -970Q457 -978 508 -978Q570 -978 594 -964Q610 -955 610 -940Q610 -922 602 -903Q594 -884 586.5 -873.5Q579 -863 564 -844Q551 -828 544.5 -818.5Q538 -809 532 -795Q526 -781 526 -768Q526 -761 530 -759Q534 -757 544 -757Q545 -757 546.5 -757Q548 -757 549 -757Q577 -757 610 -764Q643 -771 682 -782Q721 -793 740 -797Q740 -797 741 -797L905 -781Q910 -781 910 -776Q910 -771 905 -771L741 -787Q722 -783 683 -772Q644 -761 611 -754Q578 -747 549 -747ZM4 -780Q4 -785 9 -785Q21 -784 41 -781Q61 -778 70 -777Q132 -770 158 -732Q165 -732 182 -729Q234 -721 264 -700.5Q294 -680 308 -645Q326 -600 326 -495Q326 -481 289 -413Q253 -348 203 -269Q153 -190 111 -136Q197 -209 338 -336.5Q479 -464 584 -566Q648 -670 734 -728Q735 -729 737 -729Q742 -729 742 -724Q742 -717 726 -698Q709 -676 672 -639Q639 -605 592 -559Q562 -510 534 -445Q533 -445 533 -445Q499 -384 498 -287Q497 -141 561 -136Q589 -135 635.5 -116.5Q682 -98 705 -96Q713 -95 719 -95Q757 -95 777 -114L821 -166Q823 -168 825 -168Q830 -168 830 -163Q830 -161 829 -160L785 -108Q785 -108 784 -107Q762 -85 719 -85Q687 -85 637.5 -105Q588 -125 561 -126Q488 -132 488 -287Q490 -388 525 -449Q545 -496 566 -534Q359 -336 159 -165Q104 -117 73 -93Q65 -85 58 -79Q45 -70 37 -70Q32 -70 32 -75Q32 -80 37 -80L65 -100Q66 -100 66 -100Q73 -108 82 -118Q119 -160 173 -241Q234 -333 280 -418Q316 -483 316 -495Q316 -598 299 -641Q286 -674 258 -692.5Q230 -711 180 -719Q168 -721 164 -722Q170 -708 170 -692Q170 -686 165.5 -657.5Q161 -629 157 -618Q156 -614 155 -611Q153 -607 149 -607Q132 -607 112 -612Q101 -614 95 -618Q88 -622 88 -628Q88 -654 103 -694Q118 -733 137 -733Q140 -733 142 -733Q143 -733 144 -733Q119 -761 68 -767Q60 -768 39.5 -771Q19 -774 9 -775Q4 -775 4 -780ZM720 -705Q664 -663 618 -599Q653 -634 678 -660Q706 -688 720 -705ZM137 -723Q125 -723 113 -690Q98 -652 98 -628Q102 -624 114 -621Q130 -618 147 -617Q150 -625 155 -656Q160 -687 160 -692Q160 -709 152 -723Q147 -723 142 -723Q141 -723 139.5 -723Q138 -723 137 -723Z"/>
</svg>