<svg xmlns="http://www.w3.org/2000/svg" viewBox="0 -1024 1024 1024">
	<path fill="#000088" d="M375 -761Q365 -761 357.5 -768.5Q350 -776 350 -786Q350 -804 367 -810Q384 -815 415 -816Q442 -816 452 -821Q456 -823 462 -823Q462 -823 463 -823L694 -817Q698 -817 702 -815L741 -800Q757 -794 757 -777Q757 -767 749.5 -759.5Q742 -752 732 -752Q727 -752 723 -754L688 -767L467 -773Q450 -766 416 -766Q392 -765 383 -762Q379 -761 375 -761ZM137 -749Q115 -749 72 -753.5Q29 -758 8 -758Q-18 -758 -39 -753Q-42 -752 -45 -752H-51Q-61 -752 -68.5 -759.5Q-76 -767 -76 -777Q-76 -787 -68.5 -794.5Q-61 -802 -51 -802H-48Q-22 -808 8 -808Q30 -808 73 -803.5Q116 -799 137 -799Q142 -799 151 -799Q160 -799 165 -799Q182 -799 260 -792Q285 -797 307 -797Q367 -797 393 -758Q397 -751 397 -744Q397 -717 371 -700Q341 -680 294 -680Q293 -680 291 -680Q289 -680 287 -680Q255 -680 239 -689Q218 -701 218 -723Q218 -726 218 -729Q153 -705 106 -652Q83 -627 78 -617Q73 -607 73 -591Q73 -551 113 -524Q145 -502 201 -490Q255 -478 312 -478Q319 -478 326 -474Q335 -468 349 -468Q372 -468 408 -486Q436 -500 492 -539Q526 -563 540 -570Q551 -577 560 -580Q569 -583 578 -583Q596 -583 606 -569Q613 -559 613 -546Q613 -544 613 -541Q608 -519 600.5 -472Q593 -425 588 -399Q583 -373 571.5 -335.5Q560 -298 545 -267Q515 -180 452 -122Q393 -68 323 -62Q306 -61 290 -61Q212 -61 156 -96Q135 -108 114.5 -128Q94 -148 82.5 -161Q71 -174 49 -202Q5 -258 -23 -285Q-28 -290 -30 -297L-57 -402Q-58 -405 -58 -408Q-58 -418 -50.5 -425.5Q-43 -433 -33 -433Q-14 -433 -9 -414L16 -316Q45 -288 89 -233Q108 -208 120 -194Q132 -180 149 -164Q166 -148 182 -138Q226 -111 290 -111Q304 -111 319 -112Q372 -116 418 -159Q473 -209 498 -284Q499 -285 499 -287Q508 -304 515 -324.5Q522 -345 526.5 -360.5Q531 -376 536.5 -401.5Q542 -427 544 -439Q546 -451 551.5 -482Q557 -513 558 -523Q547 -516 521 -498Q462 -457 430 -441Q384 -418 349 -418Q345 -418 329 -421Q313 -424 305 -428Q245 -429 190 -441Q125 -455 85 -483Q23 -524 23 -591Q23 -618 33 -639Q41 -655 68 -686Q102 -723 145 -749Q141 -749 137 -749ZM341 -740Q333 -744 322 -746Q316 -740 306 -740Q297 -737 283 -730Q285 -730 287 -730Q289 -730 291 -730Q293 -730 294 -730Q322 -730 341 -740Z"/>
	<path fill="#800080" d="M425 -761Q415 -761 407.5 -768.5Q400 -776 400 -786Q400 -804 417 -810Q434 -815 465 -816Q492 -816 502 -821Q506 -823 512 -823Q512 -823 513 -823L744 -817Q748 -817 752 -815L791 -800Q807 -794 807 -777Q807 -767 799.5 -759.5Q792 -752 782 -752Q777 -752 773 -754L738 -767L517 -773Q500 -766 466 -766Q442 -765 433 -762Q429 -761 425 -761ZM187 -749Q165 -749 122 -753.5Q79 -758 58 -758Q32 -758 11 -753Q8 -752 5 -752H-1Q-11 -752 -18.5 -759.5Q-26 -767 -26 -777Q-26 -787 -18.5 -794.5Q-11 -802 -1 -802H2Q28 -808 58 -808Q80 -808 123 -803.5Q166 -799 187 -799Q192 -799 201 -799Q210 -799 215 -799Q232 -799 310 -792Q335 -797 357 -797Q417 -797 443 -758Q447 -751 447 -744Q447 -717 421 -700Q391 -680 344 -680Q343 -680 341 -680Q339 -680 337 -680Q305 -680 289 -689Q268 -701 268 -723Q268 -726 268 -729Q203 -705 156 -652Q133 -627 128 -617Q123 -607 123 -591Q123 -551 163 -524Q195 -502 251 -490Q305 -478 362 -478Q369 -478 376 -474Q385 -468 399 -468Q422 -468 458 -486Q486 -500 542 -539Q576 -563 590 -570Q601 -577 610 -580Q619 -583 628 -583Q646 -583 656 -569Q663 -559 663 -546Q663 -544 663 -541Q658 -519 650.5 -472Q643 -425 638 -399Q633 -373 621.5 -335.5Q610 -298 595 -267Q565 -180 502 -122Q443 -68 373 -62Q356 -61 340 -61Q262 -61 206 -96Q185 -108 164.5 -128Q144 -148 132.5 -161Q121 -174 99 -202Q55 -258 27 -285Q22 -290 20 -297L-7 -402Q-8 -405 -8 -408Q-8 -418 -0.5 -425.5Q7 -433 17 -433Q36 -433 41 -414L66 -316Q95 -288 139 -233Q158 -208 170 -194Q182 -180 199 -164Q216 -148 232 -138Q276 -111 340 -111Q354 -111 369 -112Q422 -116 468 -159Q523 -209 548 -284Q549 -285 549 -287Q558 -304 565 -324.5Q572 -345 576.5 -360.5Q581 -376 586.5 -401.5Q592 -427 594 -439Q596 -451 601.5 -482Q607 -513 608 -523Q597 -516 571 -498Q512 -457 480 -441Q434 -418 399 -418Q395 -418 379 -421Q363 -424 355 -428Q295 -429 240 -441Q175 -455 135 -483Q73 -524 73 -591Q73 -618 83 -639Q91 -655 118 -686Q152 -723 195 -749Q191 -749 187 -749ZM391 -740Q383 -744 372 -746Q366 -740 356 -740Q347 -737 333 -730Q335 -730 337 -730Q339 -730 341 -730Q343 -730 344 -730Q372 -730 391 -740Z"/>
	<path fill="#daa520" d="M425 -781Q420 -781 420 -786Q420 -790 423 -791Q437 -795 466.5 -795.5Q496 -796 510 -803Q511 -803 512 -803L743 -797Q744 -797 745 -797L784 -782Q787 -780 787 -777Q787 -772 782 -772Q781 -772 780 -772L742 -787L513 -793Q499 -787 469 -786Q439 -785 427 -781Q426 -781 425 -781ZM187 -769Q166 -769 122.5 -773.5Q79 -778 58 -778Q29 -778 6 -772Q6 -772 5 -772H-1Q-6 -772 -6 -777Q-6 -782 -1 -782H4Q29 -788 58 -788Q80 -788 123 -783.5Q166 -779 187 -779Q192 -779 201 -779Q210 -779 215 -779Q229 -779 312 -772Q336 -777 357 -777Q406 -777 426 -747Q427 -745 427 -744Q427 -721 399 -710.5Q371 -700 344 -700Q343 -700 341 -700Q339 -700 337 -700Q288 -700 288 -723Q288 -743 328 -761Q321 -761 312 -762Q311 -762 308 -761Q305 -760 303 -760Q208 -740 141 -666Q125 -648 119.5 -641Q114 -634 108.5 -620.5Q103 -607 103 -591Q103 -540 152 -508Q191 -481 251 -469.5Q311 -458 362 -458Q363 -458 365 -457Q379 -448 399 -448Q420 -448 450 -461Q480 -474 500.5 -487Q521 -500 554 -522Q556 -524 561 -528Q612 -563 628 -563Q634 -563 638.5 -558.5Q643 -554 643 -546Q643 -546 643 -545Q639 -523 631 -476Q623 -429 618 -403.5Q613 -378 602 -341Q591 -304 577 -274Q552 -201 497 -144.5Q442 -88 371 -82Q355 -81 340 -81Q305 -81 275.5 -88.5Q246 -96 226.5 -106Q207 -116 184.5 -137Q162 -158 150 -172Q138 -186 115 -214Q70 -271 41 -299Q40 -300 39 -302L12 -407Q12 -407 12 -408Q12 -413 17 -413Q21 -413 22 -409L48 -306Q78 -277 123 -220Q146 -192 157.5 -178.5Q169 -165 191 -144.5Q213 -124 231.5 -114.5Q250 -105 278.5 -98Q307 -91 340 -91Q354 -91 371 -92Q437 -97 490 -152Q543 -207 567 -278Q582 -308 592.5 -344.5Q603 -381 608 -406Q613 -431 621 -478Q629 -525 633 -546Q632 -553 628 -553Q615 -553 559 -514Q525 -490 506 -478Q487 -466 454.5 -452Q422 -438 399 -438Q377 -438 361 -448Q307 -448 247 -459.5Q187 -471 146 -499Q93 -535 93 -591Q93 -609 99 -624Q105 -639 111.5 -647Q118 -655 133 -672Q195 -741 281 -765Q237 -769 215 -769Q210 -769 201 -769Q192 -769 187 -769ZM417 -743Q400 -766 360 -767Q361 -766 361 -765Q361 -760 356 -760Q342 -757 320 -745.5Q298 -734 298 -723Q298 -710 337 -710Q339 -710 341 -710Q343 -710 344 -710Q366 -710 391 -718Q416 -726 417 -743Z"/>
</svg>