<svg xmlns="http://www.w3.org/2000/svg" viewBox="0 -1024 1024 1024">
	<path fill="#000088" d="M-284 -1029Q-284 -1029 -282.5 -1029Q-281 -1029 -280 -1029Q-253 -1029 -238 -1008Q-228 -993 -228 -974Q-228 -948 -245 -938Q-253 -934 -262 -934Q-265 -934 -268 -935Q-280 -938 -296 -944Q-309 -950 -314 -954Q-329 -961 -329 -977Q-329 -983 -326 -988L-314 -1012Q-310 -1021 -300 -1025Q-295 -1028 -289 -1029Q-286 -1029 -284 -1029ZM-502 -957Q-491 -957 -484 -949Q-451 -916 -384 -896Q-379 -894 -364.5 -889Q-350 -884 -339.5 -881.5Q-329 -879 -319 -879Q-286 -880 -263.5 -881.5Q-241 -883 -212.5 -888Q-184 -893 -164 -901Q-144 -909 -124.5 -924Q-105 -939 -91 -960Q-84 -972 -70 -972Q-60 -972 -52.5 -964.5Q-45 -957 -45 -947Q-45 -940 -49 -934Q-64 -910 -83.5 -891.5Q-103 -873 -127.5 -862.5Q-152 -852 -172.5 -845Q-193 -838 -223.5 -835Q-254 -832 -271 -831Q-288 -830 -318 -829Q-319 -829 -319 -829Q-334 -829 -347 -832Q-360 -835 -376 -840.5Q-392 -846 -398 -848Q-478 -871 -520 -915Q-527 -922 -527 -932Q-527 -942 -519.5 -949.5Q-512 -957 -502 -957Z"/>
	<path fill="#800080" d="M-234 -1029Q-234 -1029 -232.5 -1029Q-231 -1029 -230 -1029Q-203 -1029 -188 -1008Q-178 -993 -178 -974Q-178 -948 -195 -938Q-203 -934 -212 -934Q-215 -934 -218 -935Q-230 -938 -246 -944Q-259 -950 -264 -954Q-279 -961 -279 -977Q-279 -983 -276 -988L-264 -1012Q-260 -1021 -250 -1025Q-245 -1028 -239 -1029Q-236 -1029 -234 -1029ZM-452 -957Q-441 -957 -434 -949Q-401 -916 -334 -896Q-329 -894 -314.5 -889Q-300 -884 -289.5 -881.5Q-279 -879 -269 -879Q-236 -880 -213.5 -881.5Q-191 -883 -162.5 -888Q-134 -893 -114 -901Q-94 -909 -74.5 -924Q-55 -939 -41 -960Q-34 -972 -20 -972Q-10 -972 -2.5 -964.5Q5 -957 5 -947Q5 -940 1 -934Q-14 -910 -33.5 -891.5Q-53 -873 -77.5 -862.5Q-102 -852 -122.5 -845Q-143 -838 -173.5 -835Q-204 -832 -221 -831Q-238 -830 -268 -829Q-269 -829 -269 -829Q-284 -829 -297 -832Q-310 -835 -326 -840.5Q-342 -846 -348 -848Q-428 -871 -470 -915Q-477 -922 -477 -932Q-477 -942 -469.5 -949.5Q-462 -957 -452 -957Z"/>
	<path fill="#daa520" d="M-208 -974Q-208 -999 -230 -999Q-232 -999 -234 -999Q-236 -998 -238 -997L-247 -979Q-245 -979 -243 -976Q-232 -969 -211 -964Q-208 -965 -208 -974ZM-259 -977Q-259 -978 -258 -979L-246 -1003Q-246 -1005 -240 -1007Q-239 -1009 -234 -1009Q-234 -1009 -232.5 -1009Q-231 -1009 -230 -1009Q-215 -1009 -206.5 -999Q-198 -989 -198 -974Q-198 -954 -212 -954Q-213 -954 -213 -954Q-234 -959 -248 -967Q-252 -970 -253 -972Q-253 -972 -254 -972Q-259 -972 -259 -977ZM-457 -932Q-457 -937 -452 -937Q-450 -937 -448 -935Q-412 -898 -340 -877Q-334 -875 -319 -869.5Q-304 -864 -292.5 -861.5Q-281 -859 -269 -859Q-234 -860 -212.5 -861.5Q-191 -863 -159 -868Q-127 -873 -106 -882Q-85 -891 -62.5 -908.5Q-40 -926 -24 -950Q-23 -952 -20 -952Q-15 -952 -15 -947Q-15 -946 -16 -944Q-32 -919 -56 -900.5Q-80 -882 -102 -872.5Q-124 -863 -157.5 -857.5Q-191 -852 -212 -851Q-233 -850 -269 -849Q-282 -849 -294 -851.5Q-306 -854 -321.5 -860Q-337 -866 -342 -867Q-417 -889 -456 -929Q-457 -930 -457 -932Z"/>
</svg>