<svg xmlns="http://www.w3.org/2000/svg" viewBox="0 -1024 1024 1024">
	<path fill="#000088" d="M370 -85Q370 -75 362.5 -67.5Q355 -60 345 -60Q337 -60 330 -65L264 -113Q263 -114 262 -115Q250 -125 210 -159Q114 -238 75 -279Q45 -310 30 -333Q15 -358 15 -378Q15 -400 31 -414Q43 -424 61 -427Q156 -448 205 -467Q32 -584 -24 -746Q-25 -750 -25 -754Q-25 -764 -17.5 -771.5Q-10 -779 0 -779Q18 -779 24 -762Q53 -677 118 -607Q183 -537 271 -484Q283 -477 283 -463Q283 -448 269 -441Q204 -408 71 -379Q68 -378 65 -377Q67 -369 73 -360Q85 -341 111 -314Q148 -275 242 -197Q282 -164 295 -152L360 -105Q370 -98 370 -85Z"/>
	<path fill="#800080" d="M420 -85Q420 -75 412.5 -67.5Q405 -60 395 -60Q387 -60 380 -65L314 -113Q313 -114 312 -115Q300 -125 260 -159Q164 -238 125 -279Q95 -310 80 -333Q65 -358 65 -378Q65 -400 81 -414Q93 -424 111 -427Q206 -448 255 -467Q82 -584 26 -746Q25 -750 25 -754Q25 -764 32.5 -771.5Q40 -779 50 -779Q68 -779 74 -762Q103 -677 168 -607Q233 -537 321 -484Q333 -477 333 -463Q333 -448 319 -441Q254 -408 121 -379Q118 -378 115 -377Q117 -369 123 -360Q135 -341 161 -314Q198 -275 292 -197Q332 -164 345 -152L410 -105Q420 -98 420 -85Z"/>
	<path fill="#daa520" d="M400 -85Q400 -80 395 -80Q393 -80 392 -81L326 -129Q313 -141 273 -174Q178 -253 139 -293Q85 -349 85 -378Q85 -401 115 -408Q238 -435 298 -463Q104 -582 45 -752Q45 -753 45 -754Q45 -759 50 -759Q54 -759 55 -756Q113 -585 311 -467Q313 -466 313 -463Q313 -460 310 -459Q248 -427 117 -398Q95 -393 95 -378Q95 -353 146 -300Q185 -260 279 -182Q320 -148 332 -137L398 -89Q400 -88 400 -85Z"/>
</svg>