<svg xmlns="http://www.w3.org/2000/svg" viewBox="0 -1024 1024 1024">
	<path fill="#000088" d="M468 -755Q435 -755 367.5 -754Q300 -753 267 -753Q176 -753 110 -758Q100 -759 93.5 -766Q87 -773 87 -783Q87 -793 94.5 -800.5Q102 -808 112 -808Q113 -808 114 -808Q178 -803 267 -803Q300 -803 367.5 -804Q435 -805 468 -805Q503 -805 532 -804Q587 -804 695 -793Q803 -782 856 -782H892L921 -788Q924 -788 926 -788Q936 -788 943.5 -780.5Q951 -773 951 -763Q951 -754 945 -747Q939 -740 931 -738L899 -732Q896 -732 894 -732H856Q802 -732 694 -743Q586 -754 532 -754Q521 -754 500 -754.5Q479 -755 468 -755ZM563 -268Q562 -268 560 -267.5Q558 -267 557 -267Q547 -267 539.5 -274.5Q532 -282 532 -292Q532 -301 537.5 -307.5Q543 -314 551 -316Q557 -318 563 -318Q565 -318 566.5 -317.5Q568 -317 570 -317Q572 -317 574 -317Q580 -317 585 -316Q591 -343 601 -378L620 -481Q621 -482 621 -483L665 -635Q666 -637 667 -640L711 -724Q713 -727 716 -730Q722 -736 732 -751Q740 -763 744.5 -769Q749 -775 763 -784Q777 -793 793 -793Q811 -793 824 -774Q835 -758 844.5 -725.5Q854 -693 854 -672V-643Q862 -612 876 -565Q877 -609 896 -639Q896 -664 915 -699Q928 -722 928 -731Q928 -732 928 -732.5Q928 -733 928 -734Q928 -762 941 -784Q945 -791 950.5 -797Q956 -803 959 -805.5Q962 -808 969 -813Q976 -818 977 -820Q984 -825 993 -825Q1003 -825 1010.5 -817.5Q1018 -810 1018 -800Q1018 -788 1009 -780Q987 -764 984 -758Q978 -748 978 -734Q978 -733 978 -732.5Q978 -732 978 -731Q978 -708 959 -675Q946 -651 946 -639Q946 -638 946 -635.5Q946 -633 946 -632Q946 -624 941 -617Q926 -597 926 -561Q926 -560 926 -558.5Q926 -557 926 -556Q926 -542 920.5 -516.5Q915 -491 914 -485Q912 -471 908 -455Q935 -354 935 -275Q935 -257 934 -238Q934 -237 934 -234Q934 -224 935 -201Q936 -178 936 -166Q936 -113 923 -91Q910 -67 885 -67Q864 -67 852 -72Q839 -78 829 -93Q825 -100 820 -103Q809 -110 808 -123L804 -219Q804 -219 804 -220Q804 -222 804 -224L820 -312Q821 -313 821 -314Q844 -406 849 -427Q854 -444 857 -454Q851 -476 832 -537.5Q813 -599 805 -634Q804 -637 804 -640V-672Q804 -685 796 -712Q792 -728 786 -740Q782 -736 773 -723Q761 -705 753 -697L712 -619L669 -470L650 -367Q649 -366 649 -365Q636 -319 630 -284Q647 -261 656.5 -221.5Q666 -182 666 -144Q666 -137 662 -129Q660 -125 656 -120Q643 -101 627 -86Q621 -80 617 -78Q611 -75 605 -75Q587 -75 581 -92Q570 -125 570 -168Q570 -185 576 -254Q577 -260 577 -266Q575 -267 573 -267Q571 -267 567.5 -267.5Q564 -268 563 -268ZM886 -166Q886 -178 885 -200.5Q884 -223 884 -234Q884 -239 884 -242Q885 -259 885 -275Q885 -309 880 -346L869 -303L854 -218L858 -137Q863 -132 872 -118Q875 -117 880 -117Q886 -131 886 -166ZM297 -121Q312 -121 341.5 -119Q371 -117 385 -117Q404 -117 424 -133Q454 -157 480 -207Q506 -257 520 -308Q532 -350 532 -376Q532 -414 515 -478.5Q498 -543 471 -596Q443 -649 413 -675Q389 -695 365 -695Q305 -695 277 -672Q293 -664 304 -652Q330 -625 330 -576Q330 -551 310 -529Q287 -503 257 -503Q240 -503 227 -513Q219 -519 213 -529Q200 -552 200 -598V-600Q200 -625 205 -645Q158 -660 129 -682L-59 -748Q-76 -754 -76 -772Q-76 -782 -68.5 -789.5Q-61 -797 -51 -797Q-47 -797 -43 -796L149 -728Q153 -726 156 -724Q180 -706 226 -691Q240 -709 260 -721Q300 -745 365 -745Q432 -745 487 -666Q525 -613 551 -532Q582 -440 582 -376Q582 -343 568 -294Q552 -234 522.5 -179Q493 -124 455 -94Q421 -67 385 -67Q370 -67 340.5 -69Q311 -71 297 -71Q212 -71 153 -98Q87 -128 51 -194Q36 -220 25 -255.5Q14 -291 10 -313Q6 -335 -1 -378Q-12 -441 -22.5 -480Q-33 -519 -51 -546Q-56 -552 -56 -560Q-56 -570 -48.5 -577.5Q-41 -585 -31 -585Q-18 -585 -11 -574Q7 -550 19.5 -514Q32 -478 36 -456Q40 -434 48 -386Q68 -265 95 -218Q122 -169 170.5 -145Q219 -121 297 -121ZM252 -628Q250 -615 250 -600Q250 -578 252 -566Q254 -558 257 -553Q265 -554 273 -563Q280 -570 280 -576Q280 -598 273.5 -609.5Q267 -621 252 -628Z"/>
	<path fill="#800080" d="M518 -755Q485 -755 417.5 -754Q350 -753 317 -753Q226 -753 160 -758Q150 -759 143.5 -766Q137 -773 137 -783Q137 -793 144.5 -800.5Q152 -808 162 -808Q163 -808 164 -808Q228 -803 317 -803Q350 -803 417.5 -804Q485 -805 518 -805Q553 -805 582 -804Q637 -804 745 -793Q853 -782 906 -782H942L971 -788Q974 -788 976 -788Q986 -788 993.5 -780.5Q1001 -773 1001 -763Q1001 -754 995 -747Q989 -740 981 -738L949 -732Q946 -732 944 -732H906Q852 -732 744 -743Q636 -754 582 -754Q571 -754 550 -754.5Q529 -755 518 -755ZM613 -268Q612 -268 610 -267.5Q608 -267 607 -267Q597 -267 589.5 -274.5Q582 -282 582 -292Q582 -301 587.5 -307.5Q593 -314 601 -316Q607 -318 613 -318Q615 -318 616.5 -317.5Q618 -317 620 -317Q622 -317 624 -317Q630 -317 635 -316Q641 -343 651 -378L670 -481Q671 -482 671 -483L715 -635Q716 -637 717 -640L761 -724Q763 -727 766 -730Q772 -736 782 -751Q790 -763 794.5 -769Q799 -775 813 -784Q827 -793 843 -793Q861 -793 874 -774Q885 -758 894.5 -725.5Q904 -693 904 -672V-643Q912 -612 926 -565Q927 -609 946 -639Q946 -664 965 -699Q978 -722 978 -731Q978 -732 978 -732.5Q978 -733 978 -734Q978 -762 991 -784Q995 -791 1000.5 -797Q1006 -803 1009 -805.5Q1012 -808 1019 -813Q1026 -818 1027 -820Q1034 -825 1043 -825Q1053 -825 1060.5 -817.5Q1068 -810 1068 -800Q1068 -788 1059 -780Q1037 -764 1034 -758Q1028 -748 1028 -734Q1028 -733 1028 -732.5Q1028 -732 1028 -731Q1028 -708 1009 -675Q996 -651 996 -639Q996 -638 996 -635.5Q996 -633 996 -632Q996 -624 991 -617Q976 -597 976 -561Q976 -560 976 -558.5Q976 -557 976 -556Q976 -542 970.5 -516.5Q965 -491 964 -485Q962 -471 958 -455Q985 -354 985 -275Q985 -257 984 -238Q984 -237 984 -234Q984 -224 985 -201Q986 -178 986 -166Q986 -113 973 -91Q960 -67 935 -67Q914 -67 902 -72Q889 -78 879 -93Q875 -100 870 -103Q859 -110 858 -123L854 -219Q854 -219 854 -220Q854 -222 854 -224L870 -312Q871 -313 871 -314Q894 -406 899 -427Q904 -444 907 -454Q901 -476 882 -537.5Q863 -599 855 -634Q854 -637 854 -640V-672Q854 -685 846 -712Q842 -728 836 -740Q832 -736 823 -723Q811 -705 803 -697L762 -619L719 -470L700 -367Q699 -366 699 -365Q686 -319 680 -284Q697 -261 706.5 -221.5Q716 -182 716 -144Q716 -137 712 -129Q710 -125 706 -120Q693 -101 677 -86Q671 -80 667 -78Q661 -75 655 -75Q637 -75 631 -92Q620 -125 620 -168Q620 -185 626 -254Q627 -260 627 -266Q625 -267 623 -267Q621 -267 617.5 -267.5Q614 -268 613 -268ZM936 -166Q936 -178 935 -200.5Q934 -223 934 -234Q934 -239 934 -242Q935 -259 935 -275Q935 -309 930 -346L919 -303L904 -218L908 -137Q913 -132 922 -118Q925 -117 930 -117Q936 -131 936 -166ZM347 -121Q362 -121 391.5 -119Q421 -117 435 -117Q454 -117 474 -133Q504 -157 530 -207Q556 -257 570 -308Q582 -350 582 -376Q582 -414 565 -478.5Q548 -543 521 -596Q493 -649 463 -675Q439 -695 415 -695Q355 -695 327 -672Q343 -664 354 -652Q380 -625 380 -576Q380 -551 360 -529Q337 -503 307 -503Q290 -503 277 -513Q269 -519 263 -529Q250 -552 250 -598V-600Q250 -625 255 -645Q208 -660 179 -682L-9 -748Q-26 -754 -26 -772Q-26 -782 -18.5 -789.5Q-11 -797 -1 -797Q3 -797 7 -796L199 -728Q203 -726 206 -724Q230 -706 276 -691Q290 -709 310 -721Q350 -745 415 -745Q482 -745 537 -666Q575 -613 601 -532Q632 -440 632 -376Q632 -343 618 -294Q602 -234 572.5 -179Q543 -124 505 -94Q471 -67 435 -67Q420 -67 390.5 -69Q361 -71 347 -71Q262 -71 203 -98Q137 -128 101 -194Q86 -220 75 -255.5Q64 -291 60 -313Q56 -335 49 -378Q38 -441 27.5 -480Q17 -519 -1 -546Q-6 -552 -6 -560Q-6 -570 1.5 -577.5Q9 -585 19 -585Q32 -585 39 -574Q57 -550 69.5 -514Q82 -478 86 -456Q90 -434 98 -386Q118 -265 145 -218Q172 -169 220.5 -145Q269 -121 347 -121ZM302 -628Q300 -615 300 -600Q300 -578 302 -566Q304 -558 307 -553Q315 -554 323 -563Q330 -570 330 -576Q330 -598 323.5 -609.5Q317 -621 302 -628Z"/>
	<path fill="#daa520" d="M518 -775Q485 -775 417.5 -774Q350 -773 317 -773Q226 -773 162 -778Q157 -778 157 -783Q157 -788 162 -788Q227 -783 317 -783Q350 -783 417.5 -784Q485 -785 518 -785Q553 -785 582 -784Q636 -784 744.5 -773Q853 -762 906 -762H944L975 -768Q976 -768 976 -768Q981 -768 981 -763Q981 -759 977 -758L945 -752Q944 -752 944 -752H906Q852 -752 744 -763Q636 -774 582 -774Q571 -774 550 -774.5Q529 -775 518 -775ZM613 -288Q612 -288 610 -287.5Q608 -287 607 -287Q602 -287 602 -292Q602 -298 613 -298Q637 -298 650 -287Q656 -324 670 -373L690 -477L734 -629Q734 -630 735 -630L779 -714Q779 -715 780 -716Q787 -723 798 -740Q806 -751 810 -756Q814 -761 823.5 -767Q833 -773 843 -773Q851 -773 858 -763Q864 -754 870 -736Q884 -697 884 -672V-641Q892 -608 910.5 -547Q929 -486 932 -475Q933 -482 934 -488.5Q935 -495 940.5 -520Q946 -545 946 -556Q946 -559 946 -561Q946 -605 966 -633Q966 -636 966 -639Q966 -658 983 -689Q998 -716 998 -731Q998 -732 998 -732.5Q998 -733 998 -734Q998 -743 999 -750.5Q1000 -758 1003.5 -764Q1007 -770 1009 -774.5Q1011 -779 1016.5 -784Q1022 -789 1024 -791Q1026 -793 1032.5 -798Q1039 -803 1040 -804Q1041 -805 1043 -805Q1048 -805 1048 -800Q1048 -798 1046 -796Q1045 -795 1037.5 -789.5Q1030 -784 1028.5 -782Q1027 -780 1021.5 -774Q1016 -768 1014 -763.5Q1012 -759 1010 -751Q1008 -743 1008 -734Q1008 -733 1008 -732.5Q1008 -732 1008 -731Q1008 -714 992 -685Q976 -656 976 -639Q976 -638 976 -635.5Q976 -633 976 -632Q976 -630 975 -629Q956 -603 956 -561Q956 -560 956 -558.5Q956 -557 956 -556Q956 -544 950.5 -519Q945 -494 944 -487Q942 -472 938 -454Q965 -352 965 -275Q965 -257 964 -240Q964 -237 964 -234Q964 -224 965 -201Q966 -178 966 -166Q966 -119 956 -100Q948 -87 935 -87Q918 -87 910 -91Q902 -94 895.5 -104Q889 -114 880 -120Q878 -121 878 -124L874 -220Q874 -220 874 -221L890 -309Q913 -401 919 -421Q925 -443 927 -454Q921 -478 902 -541Q883 -604 874 -639Q874 -639 874 -640V-672Q874 -695 861 -733Q855 -749 850 -757Q846 -763 843 -763Q832 -763 824.5 -756Q817 -749 807 -734Q795 -717 787 -709L744 -626L700 -475L680 -371Q665 -318 659 -279Q664 -273 669 -266Q696 -219 696 -144Q696 -140 690 -132Q678 -114 663 -100Q661 -98 660 -97Q657 -95 655 -95Q651 -95 650 -98Q640 -128 640 -168Q640 -184 646 -252Q647 -264 649 -276Q637 -287 623 -287Q621 -287 617.5 -287.5Q614 -288 613 -288ZM954 -234Q954 -238 954 -240Q955 -258 955 -275Q955 -345 933 -434Q931 -429 928 -419Q923 -399 900 -307L884 -220L888 -127Q897 -121 904 -110Q909 -102 915 -99.5Q921 -97 935 -97Q942 -97 947 -105Q956 -121 956 -166Q956 -178 955 -201Q954 -224 954 -234ZM650 -168Q650 -134 658 -109Q679 -130 685 -143L686 -144Q686 -198 669 -242Q664 -255 657 -265Q657 -258 656 -252Q650 -183 650 -168ZM347 -101Q362 -101 391 -99Q420 -97 435 -97Q491 -97 543 -188Q569 -234 585.5 -289Q602 -344 602 -376Q602 -417 584.5 -483.5Q567 -550 539 -605Q482 -715 415 -715Q323 -715 294 -664Q326 -652 343 -633.5Q360 -615 360 -576Q360 -556 342.5 -539.5Q325 -523 307 -523Q270 -523 270 -595Q270 -596 270 -597.5Q270 -599 270 -600Q270 -633 280 -658Q278 -659 269 -661.5Q260 -664 257 -665Q254 -666 246 -669Q238 -672 234 -673.5Q230 -675 223 -678.5Q216 -682 211 -684.5Q206 -687 200 -691Q194 -695 189 -700L-3 -767Q-6 -768 -6 -772Q-6 -777 -1 -777Q0 -777 1 -777L193 -709Q193 -708 194 -708Q201 -702 209.5 -697.5Q218 -693 223.5 -690Q229 -687 239.5 -682.5Q250 -678 253 -677Q256 -676 269.5 -671.5Q283 -667 285 -667Q316 -725 415 -725Q488 -725 548 -610Q577 -553 594.5 -486Q612 -419 612 -376Q612 -342 595 -286.5Q578 -231 551 -183Q497 -87 435 -87Q420 -87 391 -89Q362 -91 347 -91Q281 -91 232 -109.5Q183 -128 156.5 -151.5Q130 -175 110.5 -221Q91 -267 84.5 -296.5Q78 -326 68 -381Q61 -425 56.5 -449Q52 -473 41 -504.5Q30 -536 15 -557Q14 -558 14 -560Q14 -565 19 -565Q22 -565 23 -563Q39 -541 50.5 -507.5Q62 -474 66.5 -451Q71 -428 78 -383Q78 -383 78 -382Q85 -342 89 -322Q93 -302 103 -266.5Q113 -231 124 -212Q135 -193 155.5 -168.5Q176 -144 201 -131.5Q226 -119 263.5 -110Q301 -101 347 -101ZM350 -576Q350 -612 335.5 -628Q321 -644 290 -655Q280 -632 280 -600Q280 -533 307 -533Q321 -533 335.5 -547Q350 -561 350 -576Z"/>
</svg>