<svg xmlns="http://www.w3.org/2000/svg" viewBox="0 -1024 1024 1024">
	<path fill="#000088" d="M25 -658Q15 -658 7.5 -665.5Q0 -673 0 -683Q0 -684 0 -685Q4 -734 39.5 -776.5Q75 -819 126 -819Q140 -819 148 -811Q200 -760 212 -672Q247 -454 279 -301Q302 -188 321 -125Q327 -106 333 -91Q339 -126 345 -229Q358 -430 381 -528Q413 -665 480 -732Q547 -798 646 -798Q658 -798 666 -788Q700 -744 708 -731Q728 -696 728 -663Q728 -659 728 -654Q728 -650 726.5 -624Q725 -598 722 -584Q717 -562 704 -549Q684 -529 646 -529Q601 -529 581 -549Q569 -562 563 -590Q559 -609 553 -615Q546 -622 546 -632Q546 -642 553.5 -649.5Q561 -657 571 -657Q582 -657 589 -649Q605 -633 611 -601Q614 -587 617 -584Q622 -579 646 -579Q663 -579 669 -584Q672 -588 674 -596Q676 -604 677 -628.5Q678 -653 678 -658Q678 -661 678 -663Q678 -682 665 -706Q657 -719 634 -748Q564 -744 516 -696Q459 -639 430 -516Q407 -422 395 -226Q388 -107 379 -69Q376 -53 372 -42Q360 -15 337 -15Q323 -15 312 -27Q302 -36 293 -56.5Q284 -77 273 -111Q254 -176 230 -290Q198 -444 162 -664Q162 -664 162 -665Q154 -727 119 -769Q100 -766 82 -749Q69 -736 60 -716.5Q51 -697 50 -681Q49 -671 42 -664.5Q35 -658 25 -658Z"/>
	<path fill="#800080" d="M75 -658Q65 -658 57.5 -665.5Q50 -673 50 -683Q50 -684 50 -685Q54 -734 89.5 -776.5Q125 -819 176 -819Q190 -819 198 -811Q250 -760 262 -672Q297 -454 329 -301Q352 -188 371 -125Q377 -106 383 -91Q389 -126 395 -229Q408 -430 431 -528Q463 -665 530 -732Q597 -798 696 -798Q708 -798 716 -788Q750 -744 758 -731Q778 -696 778 -663Q778 -659 778 -654Q778 -650 776.5 -624Q775 -598 772 -584Q767 -562 754 -549Q734 -529 696 -529Q651 -529 631 -549Q619 -562 613 -590Q609 -609 603 -615Q596 -622 596 -632Q596 -642 603.5 -649.5Q611 -657 621 -657Q632 -657 639 -649Q655 -633 661 -601Q664 -587 667 -584Q672 -579 696 -579Q713 -579 719 -584Q722 -588 724 -596Q726 -604 727 -628.5Q728 -653 728 -658Q728 -661 728 -663Q728 -682 715 -706Q707 -719 684 -748Q614 -744 566 -696Q509 -639 480 -516Q457 -422 445 -226Q438 -107 429 -69Q426 -53 422 -42Q410 -15 387 -15Q373 -15 362 -27Q352 -36 343 -56.5Q334 -77 323 -111Q304 -176 280 -290Q248 -444 212 -664Q212 -664 212 -665Q204 -727 169 -769Q150 -766 132 -749Q119 -736 110 -716.5Q101 -697 100 -681Q99 -671 92 -664.5Q85 -658 75 -658Z"/>
	<path fill="#daa520" d="M748 -663Q748 -670 746.5 -678Q745 -686 743.5 -691.5Q742 -697 737.5 -705.5Q733 -714 730.5 -718.5Q728 -723 721.5 -732Q715 -741 712.5 -744Q710 -747 702.5 -756.5Q695 -766 694 -768Q645 -768 606 -748Q567 -728 541 -700Q515 -672 494.5 -622.5Q474 -573 463 -533.5Q452 -494 443.5 -429.5Q435 -365 432 -328Q429 -291 425 -227Q418 -110 410 -73Q402 -35 387 -35Q378 -35 369 -49Q360 -63 350 -94Q330 -152 305 -270Q270 -429 232 -667Q228 -700 213 -734Q198 -768 178 -789Q177 -789 176 -789Q137 -789 110 -754Q83 -719 80 -683Q80 -678 75 -678Q70 -678 70 -683Q74 -723 103 -761Q132 -799 176 -799Q182 -799 184 -798Q206 -775 221.5 -739.5Q237 -704 242 -669Q280 -431 314 -272Q340 -155 360 -97Q369 -68 378 -55Q384 -45 387 -45Q394 -45 400 -75Q408 -111 415 -228Q415 -229 415 -231Q419 -296 422 -331.5Q425 -367 434 -433.5Q443 -500 454 -539.5Q465 -579 486.5 -630Q508 -681 535 -709.5Q562 -738 603.5 -758Q645 -778 696 -778Q698 -778 700 -776Q702 -774 712.5 -760.5Q723 -747 726.5 -742.5Q730 -738 738 -725.5Q746 -713 749 -705Q752 -697 755 -685.5Q758 -674 758 -663Q758 -659 758 -656Q757 -648 756.5 -630.5Q756 -613 755 -601Q754 -589 750 -579Q738 -549 696 -549Q664 -549 649 -560Q638 -569 632 -594Q627 -618 617 -629Q616 -630 616 -632Q616 -637 621 -637Q623 -637 625 -635Q636 -623 642 -596Q647 -575 655 -568Q667 -559 696 -559Q731 -559 741 -583Q744 -591 745 -603Q746 -615 746.5 -632Q747 -649 748 -656Q748 -660 748 -663Z"/>
</svg>