<svg xmlns="http://www.w3.org/2000/svg" viewBox="0 -1024 1024 1024">
	<path fill="#000088" d="M25 -658Q15 -658 7.5 -665.5Q0 -673 0 -683Q0 -684 0 -685Q4 -734 39.5 -776.5Q75 -819 126 -819Q140 -819 148 -811Q200 -760 212 -672Q247 -454 279 -301Q302 -188 321 -125Q327 -106 333 -91Q339 -126 345 -229Q358 -430 381 -528Q413 -665 480 -732Q547 -798 646 -798Q658 -798 666 -788Q700 -744 708 -731Q728 -696 728 -663Q728 -659 728 -654Q728 -650 726.5 -624Q725 -598 722 -584Q717 -562 704 -549Q684 -529 646 -529Q601 -529 581 -549Q569 -562 563 -590Q559 -609 553 -615Q546 -622 546 -632Q546 -642 553.5 -649.5Q561 -657 571 -657Q582 -657 589 -649Q605 -633 611 -601Q614 -587 617 -584Q622 -579 646 -579Q663 -579 669 -584Q672 -588 674 -596Q676 -604 677 -628.5Q678 -653 678 -658Q678 -661 678 -663Q678 -682 665 -706Q657 -719 634 -748Q564 -744 516 -696Q459 -639 430 -516Q407 -422 395 -226Q388 -107 379 -69Q376 -53 372 -42Q360 -15 337 -15Q323 -15 312 -27Q302 -36 293 -56.5Q284 -77 273 -111Q254 -176 230 -290Q198 -444 162 -664Q162 -664 162 -665Q154 -727 119 -769Q100 -766 82 -749Q69 -736 60 -716.5Q51 -697 50 -681Q49 -671 42 -664.5Q35 -658 25 -658Z"/>
	<path fill="#800080" d="M75 -658Q65 -658 57.5 -665.5Q50 -673 50 -683Q50 -684 50 -685Q54 -734 89.5 -776.5Q125 -819 176 -819Q190 -819 198 -811Q250 -760 262 -672Q297 -454 329 -301Q352 -188 371 -125Q377 -106 383 -91Q389 -126 395 -229Q408 -430 431 -528Q463 -665 530 -732Q597 -798 696 -798Q708 -798 716 -788Q750 -744 758 -731Q778 -696 778 -663Q778 -659 778 -654Q778 -650 776.5 -624Q775 -598 772 -584Q767 -562 754 -549Q734 -529 696 -529Q651 -529 631 -549Q619 -562 613 -590Q609 -609 603 -615Q596 -622 596 -632Q596 -642 603.5 -649.5Q611 -657 621 -657Q632 -657 639 -649Q655 -633 661 -601Q664 -587 667 -584Q672 -579 696 -579Q713 -579 719 -584Q722 -588 724 -596Q726 -604 727 -628.5Q728 -653 728 -658Q728 -661 728 -663Q728 -682 715 -706Q707 -719 684 -748Q614 -744 566 -696Q509 -639 480 -516Q457 -422 445 -226Q438 -107 429 -69Q426 -53 422 -42Q410 -15 387 -15Q373 -15 362 -27Q352 -36 343 -56.5Q334 -77 323 -111Q304 -176 280 -290Q248 -444 212 -664Q212 -664 212 -665Q204 -727 169 -769Q150 -766 132 -749Q119 -736 110 -716.5Q101 -697 100 -681Q99 -671 92 -664.5Q85 -658 75 -658Z"/>
	<path fill="#daa520" d="M728 -663Q728 -670 726.5 -678Q725 -686 723.5 -691.5Q722 -697 717.5 -705.5Q713 -714 710.5 -718.5Q708 -723 701.5 -732Q695 -741 692.5 -744Q690 -747 682.5 -756.5Q675 -766 674 -768Q625 -768 586 -748Q547 -728 521 -700Q495 -672 474.5 -622.5Q454 -573 443 -533.5Q432 -494 423.5 -429.5Q415 -365 412 -328Q409 -291 405 -227Q398 -110 390 -73Q382 -35 367 -35Q358 -35 349 -49Q340 -63 330 -94Q310 -152 285 -270Q250 -429 212 -667Q208 -700 193 -734Q178 -768 158 -789Q157 -789 156 -789Q117 -789 90 -754Q63 -719 60 -683Q60 -678 55 -678Q50 -678 50 -683Q54 -723 83 -761Q112 -799 156 -799Q162 -799 164 -798Q186 -775 201.5 -739.5Q217 -704 222 -669Q260 -431 294 -272Q320 -155 340 -97Q349 -68 358 -55Q364 -45 367 -45Q374 -45 380 -75Q388 -111 395 -228Q395 -229 395 -231Q399 -296 402 -331.5Q405 -367 414 -433.5Q423 -500 434 -539.5Q445 -579 466.5 -630Q488 -681 515 -709.5Q542 -738 583.5 -758Q625 -778 676 -778Q678 -778 680 -776Q682 -774 692.5 -760.5Q703 -747 706.5 -742.5Q710 -738 718 -725.5Q726 -713 729 -705Q732 -697 735 -685.5Q738 -674 738 -663Q738 -659 738 -656Q737 -648 736.5 -630.5Q736 -613 735 -601Q734 -589 730 -579Q718 -549 676 -549Q644 -549 629 -560Q618 -569 612 -594Q607 -618 597 -629Q596 -630 596 -632Q596 -637 601 -637Q603 -637 605 -635Q616 -623 622 -596Q627 -575 635 -568Q647 -559 676 -559Q711 -559 721 -583Q724 -591 725 -603Q726 -615 726.5 -632Q727 -649 728 -656Q728 -660 728 -663Z"/>
</svg>