<svg xmlns="http://www.w3.org/2000/svg" viewBox="0 -1024 1024 1024">
	<path fill="#000088" d="M730 -499Q722 -499 708 -497Q694 -495 687 -495Q630 -495 592 -533L557 -568Q525 -600 524 -644Q524 -671 537 -704.5Q550 -738 573 -761L608 -796Q635 -823 667 -823Q679 -823 689 -813L724 -777Q765 -736 792 -581Q795 -584 799 -586L832 -616Q841 -623 850 -623Q860 -623 868 -615.5Q876 -608 876 -597Q876 -587 867 -578Q856 -568 834 -547.5Q812 -527 801 -517Q802 -510 802.5 -497.5Q803 -485 803 -478Q809 -352 809 -337Q809 -118 728 -37L693 -2Q647 44 574 48Q565 52 555 52Q542 52 534 44L499 9Q490 0 482 -28Q481 -27 480 -25.5Q479 -24 477 -22.5Q475 -21 474 -20L438 15Q414 39 367 39Q292 39 271 18L235 -18Q215 -38 215 -98Q215 -213 255 -437Q285 -604 291 -673Q284 -667 275 -667Q272 -667 268 -669Q246 -669 228 -687L192 -722Q183 -731 171 -749Q170 -749 168.5 -749.5Q167 -750 166 -750Q141 -750 127 -743L119 -735Q116 -732 111 -724.5Q106 -717 103 -713L70 -678Q61 -669 51 -669Q40 -669 32.5 -676.5Q25 -684 25 -695Q25 -704 32 -713Q37 -718 43.5 -728Q50 -738 55 -742L78 -765Q80 -768 84 -772L119 -807Q132 -820 166 -820Q178 -820 188 -810L223 -775Q224 -774 245 -744Q257 -739 268 -739Q270 -738 275 -738H277Q278 -740 287 -761Q292 -773 294 -775L329 -810H330L366 -775Q367 -774 367 -765V-761Q365 -652 325.5 -433.5Q286 -215 286 -98Q286 -60 293 -40Q320 -31 367 -31Q400 -31 422 -43Q432 -55 437 -60L459 -82L476 -173H547L550 -38Q551 -35 552.5 -28Q554 -21 555 -18Q565 -18 574 -22Q631 -25 674 -56Q738 -140 738 -337Q738 -397 732 -499ZM687 -566Q704 -566 712 -568Q715 -569 723 -569Q700 -699 671 -752Q670 -752 669 -752.5Q668 -753 667 -753Q648 -753 627 -741Q595 -694 595 -644Q596 -613 612 -588Q647 -566 687 -566Z"/>
	<path fill="#800080" d="M50 -713Q50 -723 57 -730Q59 -733 64 -740Q76 -757 86 -765Q91 -770 99 -779Q107 -788 114.5 -794.5Q122 -801 132 -804Q147 -810 174 -810Q196 -810 213 -792Q221 -784 233.5 -765.5Q246 -747 253 -740Q264 -729 276 -729Q280 -729 283 -728Q284 -729 285 -730Q291 -735 295.5 -743.5Q300 -752 305 -765Q310 -778 312 -781Q315 -788 319 -792Q324 -797 330 -799Q333 -800 338 -800Q348 -800 356 -793Q360 -788 362 -781Q364 -775 364 -765Q364 -763 364 -761Q362 -648 323 -432Q310 -359 303 -317.5Q296 -276 289.5 -213Q283 -150 283 -98Q283 -49 296 -35Q302 -29 316 -26Q335 -21 375 -21Q399 -21 413 -27Q426 -32 442 -54Q454 -70 463 -78Q470 -85 478 -92L494 -178Q496 -186 503 -192Q510 -198 519 -198Q529 -198 537 -191Q544 -184 544 -174L547 -42Q552 -24 554.5 -18Q557 -12 560 -9Q561 -8 563 -8Q567 -8 573 -10Q577 -12 581 -12Q644 -16 683 -55Q734 -105 749 -218Q756 -270 756 -337Q756 -376 749 -509Q743 -509 738 -509Q729 -509 724 -508Q710 -506 694 -506Q627 -506 582 -551Q544 -588 542 -643Q542 -643 542 -644Q542 -680 560 -720Q575 -756 598 -779Q632 -813 675 -813Q696 -813 714 -795Q731 -778 746 -744Q773 -681 791 -571Q792 -571 792 -571L823 -600Q830 -606 840 -606Q850 -606 857.5 -598.5Q865 -591 865 -581Q865 -570 857 -562L824 -532Q822 -531 815 -526Q804 -519 799 -516Q799 -511 799.5 -505Q800 -499 800.5 -491.5Q801 -484 801 -480Q806 -387 806 -337Q806 -267 799 -212Q781 -82 718 -20Q667 32 587 38Q574 42 563 42Q540 42 524 26Q510 12 498 -31Q497 -34 497 -41Q491 -36 481 -22.5Q471 -9 464 -2Q450 11 433 19Q410 29 375 29Q332 29 305.5 23.5Q279 18 261 0Q233 -28 233 -98Q233 -153 240 -218.5Q247 -284 253.5 -325Q260 -366 274 -441Q303 -604 310 -686Q297 -678 283 -678Q278 -678 272 -679Q241 -680 218 -704Q207 -715 192 -737Q182 -753 178 -757Q175 -759 174 -760Q156 -760 149 -758Q146 -756 140 -749Q128 -736 118 -727Q113 -722 105.5 -711Q98 -700 93 -695Q85 -688 75 -688Q65 -688 57.5 -695.5Q50 -703 50 -713ZM695 -556Q705 -556 716 -558Q725 -559 738 -559Q740 -559 742 -559Q725 -666 700 -724Q689 -750 679 -760Q676 -762 675 -763Q633 -763 606 -700Q592 -670 592 -645Q594 -605 623.5 -580.5Q653 -556 695 -556Z"/>
	<path fill="#daa520" d="M276 -709Q277 -709 279.5 -708.5Q282 -708 283 -708Q294 -708 306 -723Q314 -735 326 -763Q331 -775 333 -777.5Q335 -780 338 -780Q342 -780 343 -774Q344 -771 344 -765Q344 -763 344 -761Q342 -668 322 -548.5Q302 -429 282.5 -311Q263 -193 263 -98Q263 -31 291 -14Q313 -1 375 -1Q400 -1 416.5 -7.5Q433 -14 439.5 -20.5Q446 -27 458 -41Q478 -68 496 -80L514 -174Q515 -178 519 -178Q524 -178 524 -173L527 -39Q532 -21 534.5 -13.5Q537 -6 544.5 3Q552 12 563 12Q570 12 580 8Q581 8 582 8Q629 5 665 -16.5Q701 -38 721.5 -70Q742 -102 755 -148Q768 -194 772 -238.5Q776 -283 776 -337Q776 -374 769 -512Q769 -517 767 -528Q738 -529 738 -529Q728 -529 721 -528Q708 -526 695 -526Q642 -526 603 -558.5Q564 -591 562 -644Q562 -691 593.5 -742Q625 -793 675 -793Q695 -793 712 -765Q730 -738 746 -683Q765 -617 776 -538Q778 -539 804 -555L837 -585Q838 -586 840 -586Q845 -586 845 -581Q845 -579 843 -577L810 -547Q810 -547 804 -543Q787 -532 782 -529Q779 -528 777 -528Q779 -519 781 -479Q786 -387 786 -337Q786 -283 782 -238Q778 -193 764.5 -145.5Q751 -98 729.5 -64.5Q708 -31 670.5 -8Q633 15 583 18Q572 22 563 22Q558 22 553.5 21Q549 20 545 17Q541 14 538.5 12Q536 10 533 5Q530 0 528.5 -2Q527 -4 525 -10.5Q523 -17 522 -19Q521 -21 519 -28.5Q517 -36 517 -37Q517 -37 517 -38L515 -125L506 -76Q506 -74 504 -73Q486 -61 466 -35Q454 -20 446 -12.5Q438 -5 419.5 2Q401 9 375 9Q310 9 286 -6Q267 -17 260 -38.5Q253 -60 253 -98Q253 -193 272 -310.5Q291 -428 311.5 -546.5Q332 -665 334 -757Q323 -730 314 -717Q299 -698 283 -698Q279 -698 275 -699Q259 -699 245.5 -708Q232 -717 225.5 -725Q219 -733 209 -748Q188 -780 174 -780Q150 -780 142 -776.5Q134 -773 124 -762Q114 -750 105 -742Q99 -737 90.5 -725.5Q82 -714 79 -710Q77 -708 75 -708Q70 -708 70 -713Q70 -715 71 -716Q75 -720 83.5 -732Q92 -744 99 -750Q107 -757 117 -768Q127 -780 138 -785Q149 -790 174 -790Q183 -790 192 -783.5Q201 -777 205 -771.5Q209 -766 218 -754Q227 -739 233 -731.5Q239 -724 251 -716.5Q263 -709 276 -709ZM738 -539Q741 -539 766 -538Q755 -617 736 -681Q721 -734 704 -760Q689 -783 675 -783Q632 -783 602 -735.5Q572 -688 572 -644Q574 -596 610 -566Q646 -536 695 -536Q702 -536 716 -537.5Q730 -539 738 -539Z"/>
</svg>