<svg xmlns="http://www.w3.org/2000/svg" viewBox="0 -1024 1024 1024">
	<path fill="#000088" d="M51 -531Q36 -585 36 -664Q36 -668 36 -677.5Q36 -687 36 -692Q36 -695 37 -698Q45 -729 72.5 -752Q100 -775 133 -788Q171 -801 223 -801Q285 -801 313 -773Q325 -760 338 -732Q352 -701 368 -687Q375 -681 377 -672L389 -588Q389 -586 389 -584Q389 -583 389 -583L383 -454Q383 -450 381 -446L351 -363Q370 -374 386 -384Q386 -397 387 -411Q387 -523 412 -611Q439 -705 492 -758Q556 -822 652 -822Q655 -822 664 -823Q673 -824 679 -824Q703 -824 715 -812Q725 -802 725 -788Q725 -783 725.5 -771Q726 -759 726 -753Q726 -742 725 -733Q715 -667 688.5 -609Q662 -551 620 -505Q578 -459 535.5 -425Q493 -391 437 -356Q441 -288 467 -224.5Q493 -161 536 -118Q599 -55 683 -51Q696 -50 707 -50Q755 -50 772 -66Q784 -78 786 -104Q777 -110 757 -122L726 -127Q717 -129 711 -136Q705 -143 705 -152Q705 -162 712.5 -169.5Q720 -177 730 -177Q732 -177 734 -177L770 -171Q775 -170 779.5 -167Q784 -164 794.5 -157.5Q805 -151 811 -148Q827 -137 832 -130Q836 -123 836 -116Q836 -60 807 -31Q787 -11 755 -5Q735 0 708 0Q697 0 681 -1Q618 -4 565 -33.5Q512 -63 476.5 -109.5Q441 -156 418.5 -211.5Q396 -267 389 -327Q367 -314 325 -290L318 -272Q318 -271 317 -270L269 -174Q268 -171 266 -169Q256 -157 230 -109Q182 -20 150 12Q111 50 70 50Q54 50 40 37Q25 21 13 -14Q0 -52 0 -74Q0 -77 1 -80Q14 -135 56 -173V-174Q88 -201 129.5 -230Q171 -259 201.5 -277Q232 -295 284 -325L333 -460L339 -583L329 -656Q309 -675 292 -711Q283 -732 277 -738Q264 -751 223 -751Q180 -751 150 -740Q120 -730 101 -710Q90 -699 86 -688Q86 -685 86 -676.5Q86 -668 86 -664Q86 -589 100 -540Q101 -537 101 -533Q101 -531 101 -528Q101 -526 101 -524Q101 -514 93.5 -506.5Q86 -499 76 -499Q65 -499 57.5 -507.5Q50 -516 50 -528Q50 -530 51 -531ZM675 -774Q672 -773 664.5 -772.5Q657 -772 652 -772Q576 -772 527 -723Q483 -679 460 -597Q438 -518 437 -416Q510 -464 558 -511Q657 -610 675 -741Q676 -745 676 -753Q676 -759 675 -774ZM50 -72Q53 -52 60 -30Q67 -11 75 0Q93 -3 114 -24Q141 -51 186 -133Q213 -183 226 -199L250 -247Q146 -186 90 -136Q60 -110 50 -72Z"/>
	<path fill="#800080" d="M101 -531Q86 -585 86 -664Q86 -668 86 -677.5Q86 -687 86 -692Q86 -695 87 -698Q95 -729 122.5 -752Q150 -775 183 -788Q221 -801 273 -801Q335 -801 363 -773Q375 -760 388 -732Q402 -701 418 -687Q425 -681 427 -672L439 -588Q439 -586 439 -584Q439 -583 439 -583L433 -454Q433 -450 431 -446L401 -363Q420 -374 436 -384Q436 -397 437 -411Q437 -523 462 -611Q489 -705 542 -758Q606 -822 702 -822Q705 -822 714 -823Q723 -824 729 -824Q753 -824 765 -812Q775 -802 775 -788Q775 -783 775.5 -771Q776 -759 776 -753Q776 -742 775 -733Q765 -667 738.5 -609Q712 -551 670 -505Q628 -459 585.5 -425Q543 -391 487 -356Q491 -288 517 -224.5Q543 -161 586 -118Q649 -55 733 -51Q746 -50 757 -50Q805 -50 822 -66Q834 -78 836 -104Q827 -110 807 -122L776 -127Q767 -129 761 -136Q755 -143 755 -152Q755 -162 762.5 -169.5Q770 -177 780 -177Q782 -177 784 -177L820 -171Q825 -170 829.5 -167Q834 -164 844.5 -157.5Q855 -151 861 -148Q877 -137 882 -130Q886 -123 886 -116Q886 -60 857 -31Q837 -11 805 -5Q785 0 758 0Q747 0 731 -1Q668 -4 615 -33.5Q562 -63 526.5 -109.5Q491 -156 468.5 -211.5Q446 -267 439 -327Q417 -314 375 -290L368 -272Q368 -271 367 -270L319 -174Q318 -171 316 -169Q306 -157 280 -109Q232 -20 200 12Q161 50 120 50Q104 50 90 37Q75 21 63 -14Q50 -52 50 -74Q50 -77 51 -80Q64 -135 106 -173V-174Q138 -201 179.5 -230Q221 -259 251.5 -277Q282 -295 334 -325L383 -460L389 -583L379 -656Q359 -675 342 -711Q333 -732 327 -738Q314 -751 273 -751Q230 -751 200 -740Q170 -730 151 -710Q140 -699 136 -688Q136 -685 136 -676.5Q136 -668 136 -664Q136 -589 150 -540Q151 -537 151 -533Q151 -531 151 -528Q151 -526 151 -524Q151 -514 143.5 -506.5Q136 -499 126 -499Q115 -499 107.5 -507.5Q100 -516 100 -528Q100 -530 101 -531ZM725 -774Q722 -773 714.5 -772.5Q707 -772 702 -772Q626 -772 577 -723Q533 -679 510 -597Q488 -518 487 -416Q560 -464 608 -511Q707 -610 725 -741Q726 -745 726 -753Q726 -759 725 -774ZM100 -72Q103 -52 110 -30Q117 -11 125 0Q143 -3 164 -24Q191 -51 236 -133Q263 -183 276 -199L300 -247Q196 -186 140 -136Q110 -110 100 -72Z"/>
	<path fill="#daa520" d="M110 -528Q110 -527 110.5 -526Q111 -525 111 -524Q111 -519 106 -519Q100 -519 100 -528Q100 -530 101 -533Q86 -586 86 -664Q86 -668 86 -677.5Q86 -687 86 -692Q86 -693 86 -693Q93 -719 117 -738.5Q141 -758 170 -769Q204 -781 253 -781Q296 -781 318 -767Q335 -757 350 -724Q366 -688 385 -672Q387 -671 387 -669L399 -585Q399 -584 399 -584L393 -455Q393 -454 393 -453L344 -319Q403 -352 436 -372Q436 -378 436 -382Q436 -396 437 -410Q437 -451 441 -490.5Q445 -530 454 -576.5Q463 -623 481.5 -661.5Q500 -700 525.5 -732.5Q551 -765 591.5 -783.5Q632 -802 682 -802Q686 -802 695 -803Q704 -804 709 -804Q735 -804 735 -788Q735 -782 735.5 -770.5Q736 -759 736 -753Q736 -743 735 -736Q726 -671 700 -615.5Q674 -560 632.5 -515.5Q591 -471 548 -437Q505 -403 446 -367Q449 -306 467.5 -248Q486 -190 519 -142.5Q552 -95 602 -64.5Q652 -34 712 -31Q727 -30 738 -30Q781 -30 802 -42Q836 -61 836 -114Q834 -116 794 -141L759 -147Q755 -148 755 -152Q755 -157 760 -157Q760 -157 761 -157L797 -151Q798 -151 799 -150Q803 -147 815 -140Q827 -133 833 -129Q842 -123 844 -120Q846 -118 846 -116Q846 -55 807 -34Q783 -20 738 -20Q726 -20 712 -21Q650 -24 598 -55Q546 -86 512.5 -134.5Q479 -183 459.5 -241.5Q440 -300 437 -361Q405 -342 339 -304L330 -279Q330 -279 329 -279L281 -183Q281 -182 281 -182Q269 -168 242 -118Q227 -90 220 -77.5Q213 -65 196 -40Q179 -15 166.5 -3Q154 9 136 19.5Q118 30 100 30Q82 30 67 -8Q50 -48 50 -74Q50 -75 50 -75Q62 -124 100 -159Q131 -186 173.5 -215Q216 -244 246 -262Q276 -280 330 -311L383 -456L389 -584L377 -665Q357 -683 341 -720Q327 -750 312 -759Q293 -771 253 -771Q206 -771 174 -759Q147 -750 124.5 -731.5Q102 -713 96 -691Q96 -687 96 -677.5Q96 -668 96 -664Q96 -586 111 -534Q111 -534 111 -533Q111 -532 110.5 -530.5Q110 -529 110 -528ZM709 -794Q705 -794 695.5 -793Q686 -792 682 -792Q625 -792 581.5 -766Q538 -740 513.5 -701Q489 -662 473 -608Q457 -554 452 -507Q447 -460 447 -410Q446 -396 446 -382Q446 -381 446 -379Q503 -414 545 -447Q587 -480 626.5 -524Q666 -568 691 -621.5Q716 -675 725 -738Q726 -744 726 -753Q726 -759 725.5 -770.5Q725 -782 725 -788Q725 -794 709 -794ZM100 20Q119 20 138 8Q157 -4 175 -28.5Q193 -53 204.5 -72Q216 -91 234 -123Q261 -173 273 -188L320 -283L325 -296Q172 -209 106 -151Q71 -119 60 -73Q61 -49 76 -12Q89 20 100 20Z"/>
</svg>