<svg xmlns="http://www.w3.org/2000/svg" viewBox="0 -1024 1024 1024">
	<path fill="#000088" d="M51 -531Q36 -585 36 -664Q36 -668 36 -677.5Q36 -687 36 -692Q36 -695 37 -698Q45 -729 72.5 -752Q100 -775 133 -788Q171 -801 223 -801Q285 -801 313 -773Q325 -760 338 -732Q352 -701 368 -687Q375 -681 377 -672L389 -588Q389 -586 389 -584Q389 -583 389 -583L383 -454Q383 -450 381 -446L351 -363Q370 -374 386 -384Q386 -397 387 -411Q387 -523 412 -611Q439 -705 492 -758Q556 -822 652 -822Q655 -822 664 -823Q673 -824 679 -824Q703 -824 715 -812Q725 -802 725 -788Q725 -783 725.5 -771Q726 -759 726 -753Q726 -742 725 -733Q715 -667 688.5 -609Q662 -551 620 -505Q578 -459 535.5 -425Q493 -391 437 -356Q441 -288 467 -224.5Q493 -161 536 -118Q599 -55 683 -51Q696 -50 707 -50Q755 -50 772 -66Q784 -78 786 -104Q777 -110 757 -122L726 -127Q717 -129 711 -136Q705 -143 705 -152Q705 -162 712.5 -169.5Q720 -177 730 -177Q732 -177 734 -177L770 -171Q775 -170 779.5 -167Q784 -164 794.5 -157.5Q805 -151 811 -148Q827 -137 832 -130Q836 -123 836 -116Q836 -60 807 -31Q787 -11 755 -5Q735 0 708 0Q697 0 681 -1Q618 -4 565 -33.5Q512 -63 476.5 -109.5Q441 -156 418.5 -211.5Q396 -267 389 -327Q367 -314 325 -290L318 -272Q318 -271 317 -270L269 -174Q268 -171 266 -169Q256 -157 230 -109Q182 -20 150 12Q111 50 70 50Q54 50 40 37Q25 21 13 -14Q0 -52 0 -74Q0 -77 1 -80Q14 -135 56 -173V-174Q88 -201 129.5 -230Q171 -259 201.5 -277Q232 -295 284 -325L333 -460L339 -583L329 -656Q309 -675 292 -711Q283 -732 277 -738Q264 -751 223 -751Q180 -751 150 -740Q120 -730 101 -710Q90 -699 86 -688Q86 -685 86 -676.5Q86 -668 86 -664Q86 -589 100 -540Q101 -537 101 -533Q101 -531 101 -528Q101 -526 101 -524Q101 -514 93.5 -506.5Q86 -499 76 -499Q65 -499 57.5 -507.5Q50 -516 50 -528Q50 -530 51 -531ZM675 -774Q672 -773 664.5 -772.5Q657 -772 652 -772Q576 -772 527 -723Q483 -679 460 -597Q438 -518 437 -416Q510 -464 558 -511Q657 -610 675 -741Q676 -745 676 -753Q676 -759 675 -774ZM50 -72Q53 -52 60 -30Q67 -11 75 0Q93 -3 114 -24Q141 -51 186 -133Q213 -183 226 -199L250 -247Q146 -186 90 -136Q60 -110 50 -72Z"/>
	<path fill="#800080" d="M101 -531Q86 -585 86 -664Q86 -668 86 -677.5Q86 -687 86 -692Q86 -695 87 -698Q95 -729 122.5 -752Q150 -775 183 -788Q221 -801 273 -801Q335 -801 363 -773Q375 -760 388 -732Q402 -701 418 -687Q425 -681 427 -672L439 -588Q439 -586 439 -584Q439 -583 439 -583L433 -454Q433 -450 431 -446L401 -363Q420 -374 436 -384Q436 -397 437 -411Q437 -523 462 -611Q489 -705 542 -758Q606 -822 702 -822Q705 -822 714 -823Q723 -824 729 -824Q753 -824 765 -812Q775 -802 775 -788Q775 -783 775.5 -771Q776 -759 776 -753Q776 -742 775 -733Q765 -667 738.5 -609Q712 -551 670 -505Q628 -459 585.5 -425Q543 -391 487 -356Q491 -288 517 -224.5Q543 -161 586 -118Q649 -55 733 -51Q746 -50 757 -50Q805 -50 822 -66Q834 -78 836 -104Q827 -110 807 -122L776 -127Q767 -129 761 -136Q755 -143 755 -152Q755 -162 762.5 -169.5Q770 -177 780 -177Q782 -177 784 -177L820 -171Q825 -170 829.5 -167Q834 -164 844.5 -157.5Q855 -151 861 -148Q877 -137 882 -130Q886 -123 886 -116Q886 -60 857 -31Q837 -11 805 -5Q785 0 758 0Q747 0 731 -1Q668 -4 615 -33.5Q562 -63 526.5 -109.5Q491 -156 468.5 -211.5Q446 -267 439 -327Q417 -314 375 -290L368 -272Q368 -271 367 -270L319 -174Q318 -171 316 -169Q306 -157 280 -109Q232 -20 200 12Q161 50 120 50Q104 50 90 37Q75 21 63 -14Q50 -52 50 -74Q50 -77 51 -80Q64 -135 106 -173V-174Q138 -201 179.5 -230Q221 -259 251.5 -277Q282 -295 334 -325L383 -460L389 -583L379 -656Q359 -675 342 -711Q333 -732 327 -738Q314 -751 273 -751Q230 -751 200 -740Q170 -730 151 -710Q140 -699 136 -688Q136 -685 136 -676.5Q136 -668 136 -664Q136 -589 150 -540Q151 -537 151 -533Q151 -531 151 -528Q151 -526 151 -524Q151 -514 143.5 -506.5Q136 -499 126 -499Q115 -499 107.5 -507.5Q100 -516 100 -528Q100 -530 101 -531ZM725 -774Q722 -773 714.5 -772.5Q707 -772 702 -772Q626 -772 577 -723Q533 -679 510 -597Q488 -518 487 -416Q560 -464 608 -511Q707 -610 725 -741Q726 -745 726 -753Q726 -759 725 -774ZM100 -72Q103 -52 110 -30Q117 -11 125 0Q143 -3 164 -24Q191 -51 236 -133Q263 -183 276 -199L300 -247Q196 -186 140 -136Q110 -110 100 -72Z"/>
	<path fill="#daa520" d="M130 -528Q130 -527 130.5 -526Q131 -525 131 -524Q131 -519 126 -519Q120 -519 120 -528Q120 -530 121 -533Q106 -586 106 -664Q106 -668 106 -677.5Q106 -687 106 -692Q106 -693 106 -693Q113 -719 137 -738.5Q161 -758 190 -769Q224 -781 273 -781Q316 -781 338 -767Q355 -757 370 -724Q386 -688 405 -672Q407 -671 407 -669L419 -585Q419 -584 419 -584L413 -455Q413 -454 413 -453L364 -319Q423 -352 456 -372Q456 -378 456 -382Q456 -396 457 -410Q457 -451 461 -490.5Q465 -530 474 -576.5Q483 -623 501.5 -661.5Q520 -700 545.5 -732.5Q571 -765 611.5 -783.5Q652 -802 702 -802Q706 -802 715 -803Q724 -804 729 -804Q755 -804 755 -788Q755 -782 755.5 -770.5Q756 -759 756 -753Q756 -743 755 -736Q746 -671 720 -615.5Q694 -560 652.5 -515.5Q611 -471 568 -437Q525 -403 466 -367Q469 -306 487.5 -248Q506 -190 539 -142.5Q572 -95 622 -64.5Q672 -34 732 -31Q747 -30 758 -30Q801 -30 822 -42Q856 -61 856 -114Q854 -116 814 -141L779 -147Q775 -148 775 -152Q775 -157 780 -157Q780 -157 781 -157L817 -151Q818 -151 819 -150Q823 -147 835 -140Q847 -133 853 -129Q862 -123 864 -120Q866 -118 866 -116Q866 -55 827 -34Q803 -20 758 -20Q746 -20 732 -21Q670 -24 618 -55Q566 -86 532.5 -134.5Q499 -183 479.5 -241.5Q460 -300 457 -361Q425 -342 359 -304L350 -279Q350 -279 349 -279L301 -183Q301 -182 301 -182Q289 -168 262 -118Q247 -90 240 -77.5Q233 -65 216 -40Q199 -15 186.5 -3Q174 9 156 19.5Q138 30 120 30Q102 30 87 -8Q70 -48 70 -74Q70 -75 70 -75Q82 -124 120 -159Q151 -186 193.5 -215Q236 -244 266 -262Q296 -280 350 -311L403 -456L409 -584L397 -665Q377 -683 361 -720Q347 -750 332 -759Q313 -771 273 -771Q226 -771 194 -759Q167 -750 144.5 -731.5Q122 -713 116 -691Q116 -687 116 -677.5Q116 -668 116 -664Q116 -586 131 -534Q131 -534 131 -533Q131 -532 130.5 -530.5Q130 -529 130 -528ZM729 -794Q725 -794 715.5 -793Q706 -792 702 -792Q645 -792 601.5 -766Q558 -740 533.5 -701Q509 -662 493 -608Q477 -554 472 -507Q467 -460 467 -410Q466 -396 466 -382Q466 -381 466 -379Q523 -414 565 -447Q607 -480 646.5 -524Q686 -568 711 -621.5Q736 -675 745 -738Q746 -744 746 -753Q746 -759 745.5 -770.5Q745 -782 745 -788Q745 -794 729 -794ZM120 20Q139 20 158 8Q177 -4 195 -28.5Q213 -53 224.5 -72Q236 -91 254 -123Q281 -173 293 -188L340 -283L345 -296Q192 -209 126 -151Q91 -119 80 -73Q81 -49 96 -12Q109 20 120 20Z"/>
</svg>