<svg xmlns="http://www.w3.org/2000/svg" viewBox="0 -1024 1024 1024">
	<path fill="#000088" d="M207 -631Q207 -647 207.5 -675Q208 -703 208 -717Q208 -719 208 -722Q191 -708 154 -671Q146 -664 136 -664Q64 -664 28 -700Q0 -728 0 -773V-779Q0 -789 7.5 -796.5Q15 -804 25 -804Q35 -804 42.5 -796.5Q50 -789 50 -779V-773Q50 -748 63 -735Q82 -716 126 -714Q170 -757 190 -770Q200 -778 209 -780Q215 -782 221 -782Q246 -782 254 -756Q258 -743 258 -716Q258 -703 257.5 -675Q257 -647 257 -631Q257 -629 257 -624Q257 -619 257 -617Q257 -617 257 -616Q255 -579 255 -555Q255 -491 267 -443.5Q279 -396 311 -361Q312 -359 321 -348.5Q330 -338 334 -334Q342 -326 349 -324Q357 -321 370 -321Q372 -321 375 -321Q387 -318 399 -318Q457 -318 502 -364Q508 -369 513 -375L491 -469Q481 -486 476 -544Q473 -581 473 -598Q473 -636 483 -665Q482 -670 482 -675Q482 -693 487 -709Q500 -752 534 -764Q544 -767 555 -767Q563 -767 571 -765Q574 -765 582 -766Q590 -767 595 -767Q599 -767 602 -766Q617 -765 627 -755Q638 -744 638 -725Q638 -716 639 -696Q640 -676 640 -666Q640 -648 638 -634Q634 -614 630 -573Q625 -532 622 -512Q619 -492 609 -458Q599 -424 584 -399Q577 -380 566 -363Q575 -309 596 -165Q596 -164 596 -163L602 -82Q602 -81 602 -80V-47Q602 -41 599 -36Q594 -25 585 -17Q565 3 529 11Q506 16 452 17Q449 17 447 17Q372 17 327 -28Q285 -70 285 -137Q285 -149 291 -164Q298 -182 311 -194Q327 -210 346 -210Q363 -210 377 -196Q388 -184 397 -165Q407 -142 407 -125Q407 -119 406 -113.5Q405 -108 402.5 -103Q400 -98 400 -97Q397 -86 387 -82L375 -76Q370 -73 364 -73Q357 -73 351 -76Q380 -33 447 -33Q535 -33 552 -54V-79L546 -158Q544 -176 539 -208Q534 -240 530 -266Q526 -292 523 -315Q467 -268 399 -268Q383 -268 367 -271Q342 -271 324 -280Q316 -284 308.5 -290Q301 -296 297 -300.5Q293 -305 284.5 -314.5Q276 -324 273 -327Q234 -372 219.5 -427Q205 -482 205 -551Q205 -574 207 -617Q207 -624 207 -631ZM588 -716Q572 -715 568 -715Q566 -715 561 -716Q556 -717 554 -717Q549 -717 544 -713Q538 -707 535 -695Q532 -686 532 -674Q532 -672 532.5 -668Q533 -664 533 -662Q533 -657 531 -653Q523 -631 523 -598Q523 -580 526 -548Q529 -516 531 -506L534 -493Q537 -489 538 -485L549 -439Q569 -480 580 -579Q585 -621 588 -642Q590 -652 590 -666Q590 -675 589 -692.5Q588 -710 588 -716ZM357 -125Q357 -131 351 -145Q348 -151 345 -157Q337 -147 335 -137Q335 -118 339 -103Q341 -110 346 -116Q349 -119 356 -122Q356 -123 356.5 -124Q357 -125 357 -125Z"/>
	<path fill="#800080" d="M257 -631Q257 -647 257.5 -675Q258 -703 258 -717Q258 -719 258 -722Q241 -708 204 -671Q196 -664 186 -664Q114 -664 78 -700Q50 -728 50 -773V-779Q50 -789 57.5 -796.5Q65 -804 75 -804Q85 -804 92.5 -796.5Q100 -789 100 -779V-773Q100 -748 113 -735Q132 -716 176 -714Q220 -757 240 -770Q250 -778 259 -780Q265 -782 271 -782Q296 -782 304 -756Q308 -743 308 -716Q308 -703 307.5 -675Q307 -647 307 -631Q307 -629 307 -624Q307 -619 307 -617Q307 -617 307 -616Q305 -579 305 -555Q305 -491 317 -443.5Q329 -396 361 -361Q362 -359 371 -348.5Q380 -338 384 -334Q392 -326 399 -324Q407 -321 420 -321Q422 -321 425 -321Q437 -318 449 -318Q507 -318 552 -364Q558 -369 563 -375L541 -469Q531 -486 526 -544Q523 -581 523 -598Q523 -636 533 -665Q532 -670 532 -675Q532 -693 537 -709Q550 -752 584 -764Q594 -767 605 -767Q613 -767 621 -765Q624 -765 632 -766Q640 -767 645 -767Q649 -767 652 -766Q667 -765 677 -755Q688 -744 688 -725Q688 -716 689 -696Q690 -676 690 -666Q690 -648 688 -634Q684 -614 680 -573Q675 -532 672 -512Q669 -492 659 -458Q649 -424 634 -399Q627 -380 616 -363Q625 -309 646 -165Q646 -164 646 -163L652 -82Q652 -81 652 -80V-47Q652 -41 649 -36Q644 -25 635 -17Q615 3 579 11Q556 16 502 17Q499 17 497 17Q422 17 377 -28Q335 -70 335 -137Q335 -149 341 -164Q348 -182 361 -194Q377 -210 396 -210Q413 -210 427 -196Q438 -184 447 -165Q457 -142 457 -125Q457 -119 456 -113.5Q455 -108 452.5 -103Q450 -98 450 -97Q447 -86 437 -82L425 -76Q420 -73 414 -73Q407 -73 401 -76Q430 -33 497 -33Q585 -33 602 -54V-79L596 -158Q594 -176 589 -208Q584 -240 580 -266Q576 -292 573 -315Q517 -268 449 -268Q433 -268 417 -271Q392 -271 374 -280Q366 -284 358.5 -290Q351 -296 347 -300.5Q343 -305 334.5 -314.5Q326 -324 323 -327Q284 -372 269.5 -427Q255 -482 255 -551Q255 -574 257 -617Q257 -624 257 -631ZM638 -716Q622 -715 618 -715Q616 -715 611 -716Q606 -717 604 -717Q599 -717 594 -713Q588 -707 585 -695Q582 -686 582 -674Q582 -672 582.5 -668Q583 -664 583 -662Q583 -657 581 -653Q573 -631 573 -598Q573 -580 576 -548Q579 -516 581 -506L584 -493Q587 -489 588 -485L599 -439Q619 -480 630 -579Q635 -621 638 -642Q640 -652 640 -666Q640 -675 639 -692.5Q638 -710 638 -716ZM407 -125Q407 -131 401 -145Q398 -151 395 -157Q387 -147 385 -137Q385 -118 389 -103Q391 -110 396 -116Q399 -119 406 -122Q406 -123 406.5 -124Q407 -125 407 -125Z"/>
	<path fill="#daa520" d="M257 -631Q257 -647 257.5 -675Q258 -703 258 -716Q258 -752 251 -752Q244 -752 229 -740Q211 -726 170 -685Q168 -684 166 -684Q117 -684 83.5 -704.5Q50 -725 50 -773V-779Q50 -784 55 -784Q60 -784 60 -779V-773Q60 -695 164 -694Q204 -734 223 -748Q241 -762 251 -762Q259 -762 263 -755Q267 -748 267.5 -739.5Q268 -731 268 -716Q268 -703 267.5 -675Q267 -647 267 -631Q267 -624 267 -617Q265 -576 265 -553Q265 -487 278 -436.5Q291 -386 326 -347Q329 -343 336 -336Q348 -321 354 -315.5Q360 -310 371.5 -305.5Q383 -301 400 -301Q400 -301 401 -301Q415 -298 429 -298Q468 -298 504 -317.5Q540 -337 564 -370L563 -376L539 -477Q531 -490 527 -533Q523 -583 523 -598Q523 -635 533 -663Q532 -668 532 -675Q532 -702 545.5 -724.5Q559 -747 584 -747Q591 -747 599 -745Q603 -745 612 -746Q621 -747 625 -747Q634 -747 639 -744Q648 -738 648 -725Q648 -715 649 -695.5Q650 -676 650 -666Q650 -649 648 -637Q645 -619 638.5 -562.5Q632 -506 623.5 -472Q615 -438 597 -408Q588 -387 575 -368Q585 -303 606 -162V-161L612 -80V-47Q612 -46 611 -45Q608 -38 603.5 -33Q599 -28 594 -24Q589 -20 581.5 -17Q574 -14 569 -12Q564 -10 554 -8.5Q544 -7 539.5 -6Q535 -5 524 -4.5Q513 -4 509.5 -3.5Q506 -3 494.5 -3Q483 -3 481 -3Q479 -3 477 -3Q414 -3 374.5 -39Q335 -75 335 -137Q335 -153 348 -171.5Q361 -190 376 -190Q390 -190 403 -168Q417 -144 417 -125Q417 -120 416 -116.5Q415 -113 413 -109Q411 -105 410.5 -102.5Q410 -100 408 -100L396 -94Q395 -93 394 -93Q389 -93 389 -98Q389 -101 392 -102L402 -108Q407 -121 407 -125Q407 -141 394 -163Q385 -180 376 -180Q367 -180 357 -167Q345 -151 345 -137Q345 -79 381 -46Q417 -13 477 -13Q478 -13 489 -13Q516 -14 533.5 -15.5Q551 -17 572.5 -25Q594 -33 602 -48V-80L596 -160Q575 -306 566 -357Q540 -325 504 -306.5Q468 -288 429 -288Q414 -288 400 -291Q374 -291 360 -299.5Q346 -308 328 -329Q322 -337 318 -341Q282 -382 268.5 -434Q255 -486 255 -553Q255 -577 257 -617Q257 -624 257 -631ZM638 -725Q638 -733 634 -735Q631 -737 625 -737Q621 -737 612 -736Q603 -735 598 -735Q597 -735 597 -735Q590 -737 584 -737Q565 -737 553.5 -718Q542 -699 542 -675Q542 -672 542.5 -668Q543 -664 543 -662Q543 -661 543 -660Q533 -634 533 -598Q533 -584 537 -533Q540 -493 548 -482Q549 -481 549 -480L572 -382Q581 -396 587 -412Q587 -412 588 -413Q605 -442 613.5 -475.5Q622 -509 628.5 -565Q635 -621 638 -639Q640 -650 640 -666Q640 -676 639 -695.5Q638 -715 638 -725Z"/>
</svg>