<svg xmlns="http://www.w3.org/2000/svg" viewBox="0 -1024 1024 1024">
	<path fill="#000088" d="M684 -725Q684 -715 685 -695Q686 -675 686 -666Q686 -656 684 -638Q681 -619 674.5 -563Q668 -507 659.5 -473.5Q651 -440 633 -410Q626 -392 610 -369Q613 -350 621.5 -305Q630 -260 635 -226Q640 -192 642 -161L648 -80V-47Q646 -42 638 -34L603 1Q599 5 594 8.5Q589 12 582 14.5Q575 17 570 19Q565 21 556 22.5Q547 24 543 24.5Q539 25 527.5 25.5Q516 26 513.5 26Q511 26 499 26.5Q487 27 486 27H482Q417 27 380 -10L345 -45Q310 -80 310 -137Q310 -158 328 -176L364 -212Q372 -220 381 -220Q389 -220 395 -214L430 -178Q439 -169 446 -152Q453 -135 453 -125Q453 -121 452 -117.5Q451 -114 449.5 -110Q448 -106 447 -104L411 -69L402 -64Q438 -43 482 -43Q484 -43 488 -43.5Q492 -44 494 -44Q549 -44 577 -54V-80L571 -161Q569 -177 565 -206.5Q561 -236 557.5 -260Q554 -284 550 -305Q500 -258 434 -258Q420 -258 405 -261Q372 -261 352 -281Q307 -326 302 -332Q296 -340 292 -344Q230 -413 230 -553Q230 -575 232 -617V-631Q232 -646 232.5 -671.5Q233 -697 233 -710Q212 -693 171 -654Q109 -654 81 -682L46 -717Q25 -738 25 -773V-779Q25 -794 35 -804Q45 -814 60 -814Q75 -814 85.5 -804Q96 -794 96 -779V-773Q96 -755 103 -738Q131 -724 171 -724Q239 -792 256 -792Q260 -792 262 -790L298 -755Q304 -749 304 -716Q304 -702 303.5 -675Q303 -648 303 -631V-617Q301 -575 301 -553Q301 -413 363 -344Q364 -343 366 -340Q381 -331 405 -331Q420 -328 434 -328Q489 -328 536 -365Q536 -366 537 -367Q538 -368 539 -369L538 -377L514 -479Q505 -493 502 -533Q498 -575 498 -598Q498 -636 508 -662Q507 -666 507 -675Q507 -711 526 -730L562 -766Q573 -777 590 -777Q593 -777 603 -775Q608 -775 617 -776Q626 -777 630 -777Q640 -777 644 -773L680 -738Q684 -734 684 -725ZM614 -705H603Q593 -707 590 -707Q589 -707 586.5 -706.5Q584 -706 583 -706Q578 -689 578 -675Q578 -666 579 -662Q568 -633 568 -598Q568 -586 573 -533Q576 -493 585 -479L587 -469Q596 -500 603 -561Q610 -622 613 -638Q615 -656 615 -666Q615 -692 614 -705ZM382 -125Q382 -131 381 -135V-124Z"/>
	<path fill="#800080" d="M257 -631Q257 -647 257.5 -675Q258 -703 258 -717Q258 -719 258 -722Q241 -708 204 -671Q196 -664 186 -664Q114 -664 78 -700Q50 -728 50 -773V-779Q50 -789 57.5 -796.5Q65 -804 75 -804Q85 -804 92.5 -796.5Q100 -789 100 -779V-773Q100 -748 113 -735Q132 -716 176 -714Q220 -757 240 -770Q250 -778 259 -780Q265 -782 271 -782Q296 -782 304 -756Q308 -743 308 -716Q308 -703 307.5 -675Q307 -647 307 -631Q307 -629 307 -624Q307 -619 307 -617Q307 -617 307 -616Q305 -579 305 -555Q305 -491 317 -443.5Q329 -396 361 -361Q362 -359 371 -348.5Q380 -338 384 -334Q392 -326 399 -324Q407 -321 420 -321Q422 -321 425 -321Q437 -318 449 -318Q507 -318 552 -364Q558 -369 563 -375L541 -469Q531 -486 526 -544Q523 -581 523 -598Q523 -636 533 -665Q532 -670 532 -675Q532 -693 537 -709Q550 -752 584 -764Q594 -767 605 -767Q613 -767 621 -765Q624 -765 632 -766Q640 -767 645 -767Q649 -767 652 -766Q667 -765 677 -755Q688 -744 688 -725Q688 -716 689 -696Q690 -676 690 -666Q690 -648 688 -634Q684 -614 680 -573Q675 -532 672 -512Q669 -492 659 -458Q649 -424 634 -399Q627 -380 616 -363Q625 -309 646 -165Q646 -164 646 -163L652 -82Q652 -81 652 -80V-47Q652 -41 649 -36Q644 -25 635 -17Q615 3 579 11Q556 16 502 17Q499 17 497 17Q422 17 377 -28Q335 -70 335 -137Q335 -149 341 -164Q348 -182 361 -194Q377 -210 396 -210Q413 -210 427 -196Q438 -184 447 -165Q457 -142 457 -125Q457 -119 456 -113.5Q455 -108 452.5 -103Q450 -98 450 -97Q447 -86 437 -82L425 -76Q420 -73 414 -73Q407 -73 401 -76Q430 -33 497 -33Q585 -33 602 -54V-79L596 -158Q594 -176 589 -208Q584 -240 580 -266Q576 -292 573 -315Q517 -268 449 -268Q433 -268 417 -271Q392 -271 374 -280Q366 -284 358.5 -290Q351 -296 347 -300.5Q343 -305 334.5 -314.5Q326 -324 323 -327Q284 -372 269.5 -427Q255 -482 255 -551Q255 -574 257 -617Q257 -624 257 -631ZM638 -716Q622 -715 618 -715Q616 -715 611 -716Q606 -717 604 -717Q599 -717 594 -713Q588 -707 585 -695Q582 -686 582 -674Q582 -672 582.5 -668Q583 -664 583 -662Q583 -657 581 -653Q573 -631 573 -598Q573 -580 576 -548Q579 -516 581 -506L584 -493Q587 -489 588 -485L599 -439Q619 -480 630 -579Q635 -621 638 -642Q640 -652 640 -666Q640 -675 639 -692.5Q638 -710 638 -716ZM407 -125Q407 -131 401 -145Q398 -151 395 -157Q387 -147 385 -137Q385 -118 389 -103Q391 -110 396 -116Q399 -119 406 -122Q406 -123 406.5 -124Q407 -125 407 -125Z"/>
	<path fill="#daa520" d="M277 -631Q277 -647 277.5 -675Q278 -703 278 -716Q278 -752 271 -752Q264 -752 249 -740Q231 -726 190 -685Q188 -684 186 -684Q137 -684 103.5 -704.5Q70 -725 70 -773V-779Q70 -784 75 -784Q80 -784 80 -779V-773Q80 -695 184 -694Q224 -734 243 -748Q261 -762 271 -762Q279 -762 283 -755Q287 -748 287.5 -739.5Q288 -731 288 -716Q288 -703 287.5 -675Q287 -647 287 -631Q287 -624 287 -617Q285 -576 285 -553Q285 -487 298 -436.5Q311 -386 346 -347Q349 -343 356 -336Q368 -321 374 -315.5Q380 -310 391.5 -305.5Q403 -301 420 -301Q420 -301 421 -301Q435 -298 449 -298Q488 -298 524 -317.5Q560 -337 584 -370L583 -376L559 -477Q551 -490 547 -533Q543 -583 543 -598Q543 -635 553 -663Q552 -668 552 -675Q552 -702 565.5 -724.5Q579 -747 604 -747Q611 -747 619 -745Q623 -745 632 -746Q641 -747 645 -747Q654 -747 659 -744Q668 -738 668 -725Q668 -715 669 -695.5Q670 -676 670 -666Q670 -649 668 -637Q665 -619 658.5 -562.5Q652 -506 643.5 -472Q635 -438 617 -408Q608 -387 595 -368Q605 -303 626 -162V-161L632 -80V-47Q632 -46 631 -45Q628 -38 623.5 -33Q619 -28 614 -24Q609 -20 601.5 -17Q594 -14 589 -12Q584 -10 574 -8.5Q564 -7 559.5 -6Q555 -5 544 -4.5Q533 -4 529.5 -3.5Q526 -3 514.5 -3Q503 -3 501 -3Q499 -3 497 -3Q434 -3 394.5 -39Q355 -75 355 -137Q355 -153 368 -171.5Q381 -190 396 -190Q410 -190 423 -168Q437 -144 437 -125Q437 -120 436 -116.5Q435 -113 433 -109Q431 -105 430.5 -102.5Q430 -100 428 -100L416 -94Q415 -93 414 -93Q409 -93 409 -98Q409 -101 412 -102L422 -108Q427 -121 427 -125Q427 -141 414 -163Q405 -180 396 -180Q387 -180 377 -167Q365 -151 365 -137Q365 -79 401 -46Q437 -13 497 -13Q498 -13 509 -13Q536 -14 553.5 -15.5Q571 -17 592.5 -25Q614 -33 622 -48V-80L616 -160Q595 -306 586 -357Q560 -325 524 -306.5Q488 -288 449 -288Q434 -288 420 -291Q394 -291 380 -299.5Q366 -308 348 -329Q342 -337 338 -341Q302 -382 288.5 -434Q275 -486 275 -553Q275 -577 277 -617Q277 -624 277 -631ZM658 -725Q658 -733 654 -735Q651 -737 645 -737Q641 -737 632 -736Q623 -735 618 -735Q617 -735 617 -735Q610 -737 604 -737Q585 -737 573.5 -718Q562 -699 562 -675Q562 -672 562.5 -668Q563 -664 563 -662Q563 -661 563 -660Q553 -634 553 -598Q553 -584 557 -533Q560 -493 568 -482Q569 -481 569 -480L592 -382Q601 -396 607 -412Q607 -412 608 -413Q625 -442 633.5 -475.5Q642 -509 648.5 -565Q655 -621 658 -639Q660 -650 660 -666Q660 -676 659 -695.5Q658 -715 658 -725Z"/>
</svg>