<svg xmlns="http://www.w3.org/2000/svg" viewBox="0 -1024 1024 1024">
	<path fill="#000088" d="M299 -221Q299 -204 301 -166Q303 -128 303 -109Q303 -81 300 -60Q293 -6 267 21Q240 47 196 47Q182 47 167 45Q157 47 149 47Q124 47 107 30Q81 4 81 -73Q81 -75 81 -77Q81 -107 90 -137Q99 -167 107 -184Q115 -201 132 -231Q148 -259 156 -274Q157 -278 160 -280L207 -329Q174 -387 128 -408Q114 -415 114 -431Q114 -444 120 -460Q126 -475 138 -494Q154 -520 195.5 -572Q237 -624 251 -645Q269 -671 274 -687Q284 -720 299 -758Q236 -733 226 -731Q208 -726 196 -726Q190 -726 184 -727Q158 -727 114.5 -737.5Q71 -748 55 -750Q60 -725 62 -713Q62 -712 62 -710Q62 -700 54.5 -692.5Q47 -685 37 -685Q28 -685 20.5 -691.5Q13 -698 12 -707Q11 -718 6.5 -740Q2 -762 0 -772Q0 -774 0 -776Q0 -786 7.5 -793.5Q15 -801 25 -801Q27 -801 30 -801Q31 -801 34.5 -801Q38 -801 40 -801Q68 -801 119 -788Q165 -777 187 -777Q188 -777 190.5 -776.5Q193 -776 195 -776Q203 -776 213 -779Q226 -783 259 -796.5Q292 -810 307 -813Q317 -816 324 -816Q341 -816 350 -806Q360 -796 360 -782Q360 -773 356 -761Q352 -751 345 -738Q331 -703 322 -673Q315 -649 293 -617Q278 -596 236.5 -544Q195 -492 180 -468Q171 -454 167 -444Q211 -418 243 -367L295 -421Q295 -422 296 -422L338 -461Q345 -468 355 -468Q365 -468 372.5 -460.5Q380 -453 380 -443Q380 -432 372 -425L331 -386L268 -320Q286 -280 298 -227Q299 -224 299 -221ZM171 -5Q186 -2 197 -2Q219 -2 231 -14Q246 -29 251 -66Q253 -84 253 -109Q253 -127 251 -164Q249 -201 249 -218Q241 -252 230 -281L199 -248Q191 -234 176 -207Q160 -178 152 -162.5Q144 -147 137.5 -123.5Q131 -100 131 -76Q131 -17 142 -6Q145 -3 149 -3Q150 -3 156.5 -4.5Q163 -6 166 -6Q169 -6 171 -5Z"/>
	<path fill="#800080" d="M349 -221Q349 -204 351 -166Q353 -128 353 -109Q353 -81 350 -60Q343 -6 317 21Q290 47 246 47Q232 47 217 45Q207 47 199 47Q174 47 157 30Q131 4 131 -73Q131 -75 131 -77Q131 -107 140 -137Q149 -167 157 -184Q165 -201 182 -231Q198 -259 206 -274Q207 -278 210 -280L257 -329Q224 -387 178 -408Q164 -415 164 -431Q164 -444 170 -460Q176 -475 188 -494Q204 -520 245.5 -572Q287 -624 301 -645Q319 -671 324 -687Q334 -720 349 -758Q286 -733 276 -731Q258 -726 246 -726Q240 -726 234 -727Q208 -727 164.5 -737.5Q121 -748 105 -750Q110 -725 112 -713Q112 -712 112 -710Q112 -700 104.5 -692.5Q97 -685 87 -685Q78 -685 70.5 -691.5Q63 -698 62 -707Q61 -718 56.5 -740Q52 -762 50 -772Q50 -774 50 -776Q50 -786 57.5 -793.5Q65 -801 75 -801Q77 -801 80 -801Q81 -801 84.5 -801Q88 -801 90 -801Q118 -801 169 -788Q215 -777 237 -777Q238 -777 240.5 -776.5Q243 -776 245 -776Q253 -776 263 -779Q276 -783 309 -796.5Q342 -810 357 -813Q367 -816 374 -816Q391 -816 400 -806Q410 -796 410 -782Q410 -773 406 -761Q402 -751 395 -738Q381 -703 372 -673Q365 -649 343 -617Q328 -596 286.5 -544Q245 -492 230 -468Q221 -454 217 -444Q261 -418 293 -367L345 -421Q345 -422 346 -422L388 -461Q395 -468 405 -468Q415 -468 422.5 -460.5Q430 -453 430 -443Q430 -432 422 -425L381 -386L318 -320Q336 -280 348 -227Q349 -224 349 -221ZM221 -5Q236 -2 247 -2Q269 -2 281 -14Q296 -29 301 -66Q303 -84 303 -109Q303 -127 301 -164Q299 -201 299 -218Q291 -252 280 -281L249 -248Q241 -234 226 -207Q210 -178 202 -162.5Q194 -147 187.5 -123.5Q181 -100 181 -76Q181 -17 192 -6Q195 -3 199 -3Q200 -3 206.5 -4.5Q213 -6 216 -6Q219 -6 221 -5Z"/>
	<path fill="#daa520" d="M329 -221Q329 -203 331 -165Q333 -127 333 -109Q333 -80 330 -58.5Q327 -37 318 -16Q309 5 291 16.5Q273 28 247 28Q233 28 216 24Q207 27 199 27Q182 27 171.5 17.5Q161 8 157 -10.5Q153 -29 152 -41.5Q151 -54 151 -74V-75Q151 -102 159 -130.5Q167 -159 175.5 -176.5Q184 -194 200.5 -223.5Q217 -253 224 -265Q224 -266 224 -266L281 -326Q244 -400 187 -426Q184 -428 184 -431Q184 -447 198 -472Q212 -497 224 -512.5Q236 -528 264 -563Q333 -649 343 -681.5Q353 -714 367 -751Q367 -751 368 -751Q380 -773 380 -782Q380 -786 375 -786Q364 -786 323 -769Q267 -746 246 -746Q241 -746 236 -747Q212 -747 163 -759Q114 -771 90 -771Q89 -771 85.5 -771Q82 -771 81 -771Q82 -763 86 -742.5Q90 -722 92 -711Q92 -710 92 -710Q92 -705 87 -705Q83 -705 82 -709Q81 -721 76.5 -742.5Q72 -764 70 -775Q70 -775 70 -776Q70 -781 75 -781Q76 -781 77 -781Q78 -781 78 -781Q80 -781 84 -781Q88 -781 90 -781Q115 -781 164 -769Q213 -757 237 -757Q238 -757 241 -756.5Q244 -756 246 -756Q265 -756 319 -778Q362 -796 375 -796Q390 -796 390 -782Q390 -770 377 -747Q363 -710 353 -679Q348 -662 333.5 -639.5Q319 -617 307.5 -602Q296 -587 272 -557Q197 -464 194 -434Q251 -406 289 -334L359 -407L360 -408L402 -447Q403 -448 405 -448Q410 -448 410 -443Q410 -441 408 -439L367 -400L294 -324Q315 -280 329 -222Q329 -222 329 -221ZM323 -109Q323 -127 321 -165Q319 -203 319 -220Q306 -275 286 -316L232 -260Q224 -245 209 -217Q192 -187 184 -170.5Q176 -154 168.5 -128Q161 -102 161 -75Q161 -56 162 -43Q163 -30 166.5 -14.5Q170 1 178 9Q186 17 199 17Q206 17 215 14Q215 14 216 14Q217 14 217 14Q233 18 247 18Q291 18 307 -15.5Q323 -49 323 -109Z"/>
</svg>