<svg xmlns="http://www.w3.org/2000/svg" viewBox="0 -1024 1024 1024">
	<path fill="#000088" d="M299 -221Q299 -204 301 -166Q303 -128 303 -109Q303 -81 300 -60Q293 -6 267 21Q240 47 196 47Q182 47 167 45Q157 47 149 47Q124 47 107 30Q81 4 81 -73Q81 -75 81 -77Q81 -107 90 -137Q99 -167 107 -184Q115 -201 132 -231Q148 -259 156 -274Q157 -278 160 -280L207 -329Q174 -387 128 -408Q114 -415 114 -431Q114 -444 120 -460Q126 -475 138 -494Q154 -520 195.5 -572Q237 -624 251 -645Q269 -671 274 -687Q284 -720 299 -758Q236 -733 226 -731Q208 -726 196 -726Q190 -726 184 -727Q158 -727 114.5 -737.5Q71 -748 55 -750Q60 -725 62 -713Q62 -712 62 -710Q62 -700 54.5 -692.5Q47 -685 37 -685Q28 -685 20.5 -691.5Q13 -698 12 -707Q11 -718 6.5 -740Q2 -762 0 -772Q0 -774 0 -776Q0 -786 7.5 -793.5Q15 -801 25 -801Q27 -801 30 -801Q31 -801 34.5 -801Q38 -801 40 -801Q68 -801 119 -788Q165 -777 187 -777Q188 -777 190.5 -776.5Q193 -776 195 -776Q203 -776 213 -779Q226 -783 259 -796.5Q292 -810 307 -813Q317 -816 324 -816Q341 -816 350 -806Q360 -796 360 -782Q360 -773 356 -761Q352 -751 345 -738Q331 -703 322 -673Q315 -649 293 -617Q278 -596 236.5 -544Q195 -492 180 -468Q171 -454 167 -444Q211 -418 243 -367L295 -421Q295 -422 296 -422L338 -461Q345 -468 355 -468Q365 -468 372.5 -460.5Q380 -453 380 -443Q380 -432 372 -425L331 -386L268 -320Q286 -280 298 -227Q299 -224 299 -221ZM171 -5Q186 -2 197 -2Q219 -2 231 -14Q246 -29 251 -66Q253 -84 253 -109Q253 -127 251 -164Q249 -201 249 -218Q241 -252 230 -281L199 -248Q191 -234 176 -207Q160 -178 152 -162.5Q144 -147 137.5 -123.5Q131 -100 131 -76Q131 -17 142 -6Q145 -3 149 -3Q150 -3 156.5 -4.5Q163 -6 166 -6Q169 -6 171 -5Z"/>
	<path fill="#800080" d="M349 -221Q349 -204 351 -166Q353 -128 353 -109Q353 -81 350 -60Q343 -6 317 21Q290 47 246 47Q232 47 217 45Q207 47 199 47Q174 47 157 30Q131 4 131 -73Q131 -75 131 -77Q131 -107 140 -137Q149 -167 157 -184Q165 -201 182 -231Q198 -259 206 -274Q207 -278 210 -280L257 -329Q224 -387 178 -408Q164 -415 164 -431Q164 -444 170 -460Q176 -475 188 -494Q204 -520 245.5 -572Q287 -624 301 -645Q319 -671 324 -687Q334 -720 349 -758Q286 -733 276 -731Q258 -726 246 -726Q240 -726 234 -727Q208 -727 164.5 -737.5Q121 -748 105 -750Q110 -725 112 -713Q112 -712 112 -710Q112 -700 104.5 -692.5Q97 -685 87 -685Q78 -685 70.5 -691.5Q63 -698 62 -707Q61 -718 56.5 -740Q52 -762 50 -772Q50 -774 50 -776Q50 -786 57.5 -793.5Q65 -801 75 -801Q77 -801 80 -801Q81 -801 84.5 -801Q88 -801 90 -801Q118 -801 169 -788Q215 -777 237 -777Q238 -777 240.5 -776.5Q243 -776 245 -776Q253 -776 263 -779Q276 -783 309 -796.5Q342 -810 357 -813Q367 -816 374 -816Q391 -816 400 -806Q410 -796 410 -782Q410 -773 406 -761Q402 -751 395 -738Q381 -703 372 -673Q365 -649 343 -617Q328 -596 286.5 -544Q245 -492 230 -468Q221 -454 217 -444Q261 -418 293 -367L345 -421Q345 -422 346 -422L388 -461Q395 -468 405 -468Q415 -468 422.5 -460.5Q430 -453 430 -443Q430 -432 422 -425L381 -386L318 -320Q336 -280 348 -227Q349 -224 349 -221ZM221 -5Q236 -2 247 -2Q269 -2 281 -14Q296 -29 301 -66Q303 -84 303 -109Q303 -127 301 -164Q299 -201 299 -218Q291 -252 280 -281L249 -248Q241 -234 226 -207Q210 -178 202 -162.5Q194 -147 187.5 -123.5Q181 -100 181 -76Q181 -17 192 -6Q195 -3 199 -3Q200 -3 206.5 -4.5Q213 -6 216 -6Q219 -6 221 -5Z"/>
	<path fill="#daa520" d="M309 -221Q309 -203 311 -165Q313 -127 313 -109Q313 -80 310 -58.5Q307 -37 298 -16Q289 5 271 16.5Q253 28 227 28Q213 28 196 24Q187 27 179 27Q162 27 151.5 17.5Q141 8 137 -10.5Q133 -29 132 -41.5Q131 -54 131 -74V-75Q131 -102 139 -130.5Q147 -159 155.5 -176.5Q164 -194 180.5 -223.5Q197 -253 204 -265Q204 -266 204 -266L261 -326Q224 -400 167 -426Q164 -428 164 -431Q164 -447 178 -472Q192 -497 204 -512.5Q216 -528 244 -563Q313 -649 323 -681.5Q333 -714 347 -751Q347 -751 348 -751Q360 -773 360 -782Q360 -786 355 -786Q344 -786 303 -769Q247 -746 226 -746Q221 -746 216 -747Q192 -747 143 -759Q94 -771 70 -771Q69 -771 65.5 -771Q62 -771 61 -771Q62 -763 66 -742.5Q70 -722 72 -711Q72 -710 72 -710Q72 -705 67 -705Q63 -705 62 -709Q61 -721 56.5 -742.5Q52 -764 50 -775Q50 -775 50 -776Q50 -781 55 -781Q56 -781 57 -781Q58 -781 58 -781Q60 -781 64 -781Q68 -781 70 -781Q95 -781 144 -769Q193 -757 217 -757Q218 -757 221 -756.5Q224 -756 226 -756Q245 -756 299 -778Q342 -796 355 -796Q370 -796 370 -782Q370 -770 357 -747Q343 -710 333 -679Q328 -662 313.5 -639.5Q299 -617 287.5 -602Q276 -587 252 -557Q177 -464 174 -434Q231 -406 269 -334L339 -407L340 -408L382 -447Q383 -448 385 -448Q390 -448 390 -443Q390 -441 388 -439L347 -400L274 -324Q295 -280 309 -222Q309 -222 309 -221ZM303 -109Q303 -127 301 -165Q299 -203 299 -220Q286 -275 266 -316L212 -260Q204 -245 189 -217Q172 -187 164 -170.5Q156 -154 148.5 -128Q141 -102 141 -75Q141 -56 142 -43Q143 -30 146.5 -14.5Q150 1 158 9Q166 17 179 17Q186 17 195 14Q195 14 196 14Q197 14 197 14Q213 18 227 18Q271 18 287 -15.5Q303 -49 303 -109Z"/>
</svg>