<svg xmlns="http://www.w3.org/2000/svg" viewBox="0 -1024 1024 1024">
	<path fill="#000088" d="M73 -394L108 -430Q119 -441 132 -441Q146 -441 157 -430L192 -394Q213 -373 226.5 -321Q240 -269 240 -205Q240 -141 226.5 -89Q213 -37 192 -16L157 20Q146 31 132 31Q119 31 108 20L73 -16Q52 -37 38.5 -89Q25 -141 25 -205Q25 -269 38.5 -321Q52 -373 73 -394ZM126 -40Q127 -40 129 -39.5Q131 -39 132 -39Q133 -39 135 -39.5Q137 -40 138 -40Q169 -99 169 -205Q169 -311 138 -370Q137 -370 135 -370.5Q133 -371 132 -371Q131 -371 129 -370.5Q127 -370 126 -370Q96 -313 96 -205Q96 -97 126 -40Z"/>
	<path fill="#800080" d="M67 -340Q82 -389 105 -412Q124 -431 147 -431Q170 -431 189 -412Q212 -389 227 -340Q244 -281 244 -205Q244 -129 227 -70Q212 -21 189 2Q170 21 147 21Q124 21 105 2Q82 -21 67 -70Q50 -129 50 -205Q50 -281 67 -340ZM115 -85Q126 -48 140 -33Q145 -29 147 -29Q149 -29 154 -33Q168 -48 179 -85Q194 -137 194 -205Q194 -273 179 -325Q168 -362 154 -377Q149 -381 147 -381Q145 -381 140 -377Q126 -362 115 -325Q100 -273 100 -205Q100 -137 115 -85Z"/>
	<path fill="#daa520" d="M106 -381Q125 -411 147 -411Q169 -411 188 -381Q224 -322 224 -205Q224 -88 188 -29Q169 1 147 1Q125 1 106 -29Q70 -88 70 -205Q70 -322 106 -381ZM105 -53Q124 -9 147 -9Q170 -9 189 -53Q214 -112 214 -205Q214 -298 189 -357Q170 -401 147 -401Q124 -401 105 -357Q80 -298 80 -205Q80 -112 105 -53Z"/>
</svg>