<svg xmlns="http://www.w3.org/2000/svg" viewBox="0 -1024 1024 1024">
	<path fill="#000088" d="M17 -340Q32 -389 55 -412Q74 -431 97 -431Q120 -431 139 -412Q162 -389 177 -340Q194 -281 194 -205Q194 -129 177 -70Q162 -21 139 2Q120 21 97 21Q74 21 55 2Q32 -21 17 -70Q0 -129 0 -205Q0 -281 17 -340ZM65 -85Q76 -48 90 -33Q95 -29 97 -29Q99 -29 104 -33Q118 -48 129 -85Q144 -137 144 -205Q144 -273 129 -325Q118 -362 104 -377Q99 -381 97 -381Q95 -381 90 -377Q76 -362 65 -325Q50 -273 50 -205Q50 -137 65 -85Z"/>
	<path fill="#800080" d="M67 -340Q82 -389 105 -412Q124 -431 147 -431Q170 -431 189 -412Q212 -389 227 -340Q244 -281 244 -205Q244 -129 227 -70Q212 -21 189 2Q170 21 147 21Q124 21 105 2Q82 -21 67 -70Q50 -129 50 -205Q50 -281 67 -340ZM115 -85Q126 -48 140 -33Q145 -29 147 -29Q149 -29 154 -33Q168 -48 179 -85Q194 -137 194 -205Q194 -273 179 -325Q168 -362 154 -377Q149 -381 147 -381Q145 -381 140 -377Q126 -362 115 -325Q100 -273 100 -205Q100 -137 115 -85Z"/>
	<path fill="#daa520" d="M86 -381Q105 -411 127 -411Q149 -411 168 -381Q204 -322 204 -205Q204 -88 168 -29Q149 1 127 1Q105 1 86 -29Q50 -88 50 -205Q50 -322 86 -381ZM85 -53Q104 -9 127 -9Q150 -9 169 -53Q194 -112 194 -205Q194 -298 169 -357Q150 -401 127 -401Q104 -401 85 -357Q60 -298 60 -205Q60 -112 85 -53Z"/>
</svg>