<svg xmlns="http://www.w3.org/2000/svg" viewBox="0 -1024 1024 1024">
	<path fill="#000088" d="M17 -340Q32 -389 55 -412Q74 -431 97 -431Q120 -431 139 -412Q162 -389 177 -340Q194 -281 194 -205Q194 -129 177 -70Q162 -21 139 2Q120 21 97 21Q74 21 55 2Q32 -21 17 -70Q0 -129 0 -205Q0 -281 17 -340ZM65 -85Q76 -48 90 -33Q95 -29 97 -29Q99 -29 104 -33Q118 -48 129 -85Q144 -137 144 -205Q144 -273 129 -325Q118 -362 104 -377Q99 -381 97 -381Q95 -381 90 -377Q76 -362 65 -325Q50 -273 50 -205Q50 -137 65 -85Z"/>
	<path fill="#800080" d="M67 -340Q82 -389 105 -412Q124 -431 147 -431Q170 -431 189 -412Q212 -389 227 -340Q244 -281 244 -205Q244 -129 227 -70Q212 -21 189 2Q170 21 147 21Q124 21 105 2Q82 -21 67 -70Q50 -129 50 -205Q50 -281 67 -340ZM115 -85Q126 -48 140 -33Q145 -29 147 -29Q149 -29 154 -33Q168 -48 179 -85Q194 -137 194 -205Q194 -273 179 -325Q168 -362 154 -377Q149 -381 147 -381Q145 -381 140 -377Q126 -362 115 -325Q100 -273 100 -205Q100 -137 115 -85Z"/>
	<path fill="#daa520" d="M106 -381Q125 -411 147 -411Q169 -411 188 -381Q224 -322 224 -205Q224 -88 188 -29Q169 1 147 1Q125 1 106 -29Q70 -88 70 -205Q70 -322 106 -381ZM105 -53Q124 -9 147 -9Q170 -9 189 -53Q214 -112 214 -205Q214 -298 189 -357Q170 -401 147 -401Q124 -401 105 -357Q80 -298 80 -205Q80 -112 105 -53Z"/>
</svg>