<svg xmlns="http://www.w3.org/2000/svg" viewBox="0 -1024 1024 1024">
	<path fill="#cccccc" d="M141 39H147C152 35 157 31 162 26L197 -9C235 -47 252 -103 254 -155C256 -169 257 -183 257 -197C257 -226 254 -256 250 -285C246 -315 242 -344 238 -374C259 -365 280 -354 298 -340C303 -333 308 -325 312 -317C338 -275 346 -223 366 -176C377 -135 376 -93 393 -56C396 -27 410 4 415 9L450 45H452L487 10C487 10 488 9 488 8C488 3 485 -10 476 -35C471 -59 465 -81 458 -104C453 -146 453 -188 449 -230L443 -371L422 -524C411 -607 392 -688 380 -773V-779C380 -782 380 -786 379 -787L343 -823H342C336 -823 325 -814 316 -805C300 -789 279 -768 264 -752C201 -681 159 -587 159 -491V-479V-470C153 -471 148 -472 141 -472L132 -481L96 -487C94 -487 92 -488 90 -488C71 -488 55 -472 55 -453C55 -436 67 -422 84 -419C100 -416 115 -414 131 -411L138 -404C139 -403 141 -402 141 -402C150 -402 156 -400 164 -398C168 -365 173 -332 177 -299C181 -266 186 -231 186 -197C186 -183 185 -169 183 -155C182 -112 170 -67 145 -31H141C121 -31 105 -16 105 4C105 24 121 39 141 39ZM230 -491C230 -577 264 -661 316 -729C326 -659 342 -593 351 -524L372 -371L374 -333C368 -342 361 -351 353 -359L318 -394C294 -418 263 -434 231 -447C230 -457 230 -468 230 -479Z"/>
	<path fill="#ff22ac" d="M108 36H114C119 36 124 34 129 30C151 13 171 -10 185 -35C210 -78 220 -124 222 -166C225 -182 226 -198 226 -213C226 -245 222 -275 218 -303C215 -327 211 -351 208 -375C249 -357 286 -330 304 -292C304 -291 305 -291 305 -291C329 -252 338 -199 357 -153C367 -112 367 -73 384 -34C387 -15 392 2 397 15C400 21 402 26 404 30C407 35 411 42 420 42C422 42 425 42 430 39C436 35 444 28 448 20C454 9 456 2 456 -1V-7C456 -13 455 -16 454 -21C452 -29 449 -41 443 -57C438 -80 432 -102 426 -124C421 -164 421 -206 417 -247L411 -387V-390L390 -542V-543C376 -624 361 -705 349 -788V-793C349 -796 348 -798 348 -801C347 -805 346 -814 339 -818C337 -819 335 -820 332 -820C325 -820 317 -816 312 -813C305 -809 299 -804 294 -799C282 -788 272 -777 268 -772C246 -747 227 -719 210 -690C172 -624 149 -549 149 -476V-467C145 -468 141 -469 136 -469C133 -473 129 -477 124 -478L88 -484H86C77 -484 65 -475 57 -462C52 -454 50 -444 50 -437C50 -428 53 -421 61 -420L93 -415C96 -412 97 -410 102 -407C103 -406 103 -405 108 -405C122 -405 140 -399 153 -395C157 -356 162 -319 167 -281C171 -249 176 -212 176 -181C176 -169 176 -157 174 -147C174 -145 173 -144 173 -142C172 -109 163 -77 150 -55C144 -45 138 -36 129 -28C120 -27 109 -19 102 -6C97 2 95 12 95 19C95 28 99 36 108 36ZM198 -494V-505C198 -564 215 -621 244 -670C260 -697 279 -722 301 -745C313 -663 330 -585 341 -505L362 -354L364 -313C360 -323 355 -333 349 -342C320 -401 263 -431 200 -452C199 -466 198 -480 198 -494Z"/>
	<path fill="#11ff90" d="M105 -442C104 -442 98 -449 96 -451L60 -457L50 -447L86 -441C88 -439 94 -432 95 -432C107 -432 118 -429 129 -425C136 -423 144 -421 152 -419C156 -377 162 -335 167 -294C171 -263 176 -229 176 -197C176 -184 175 -172 173 -160C171 -101 149 -38 101 -1H105L95 9H111C159 -28 181 -91 183 -150C185 -164 186 -178 186 -192V-202C186 -231 183 -261 179 -290C174 -332 167 -373 163 -415C219 -396 276 -367 302 -312C328 -270 336 -218 356 -171C367 -130 366 -88 383 -51C387 -20 402 15 406 15H416C417 15 417 14 417 13V3C417 -2 414 -15 405 -40C400 -64 394 -86 387 -109C382 -151 382 -193 378 -235L372 -376L351 -529C340 -611 321 -692 309 -776V-784C309 -788 309 -793 306 -793H296C286 -793 261 -765 254 -757C191 -686 149 -592 149 -496V-486V-474C149 -460 149 -446 150 -432C136 -436 121 -442 105 -442ZM373 -147C371 -158 369 -170 366 -181C346 -228 338 -280 312 -322C284 -381 221 -410 162 -429C160 -449 159 -470 159 -491C160 -585 202 -677 264 -747C270 -753 287 -773 299 -780V-779C299 -777 298 -775 298 -773C311 -687 329 -603 341 -519L362 -366L368 -225C370 -199 371 -173 373 -147Z"/>
</svg>