<svg xmlns="http://www.w3.org/2000/svg" viewBox="0 -1024 1024 1024">
	<path fill="#cccccc" d="M195 -423C189 -446 190 -469 180 -491V-644L204 -707C212 -713 223 -717 240 -717C252 -682 252 -628 252 -593C252 -580 252 -569 253 -563C254 -557 254 -552 254 -547C254 -500 233 -464 204 -432ZM369 -307C349 -307 334 -292 334 -272C334 -252 325 -219 309 -187L288 -218C259 -260 240 -324 217 -374L259 -416C295 -452 325 -491 325 -547C325 -552 325 -557 324 -563C323 -569 323 -580 323 -593C323 -640 322 -717 296 -743L261 -779C255 -785 248 -787 240 -787C216 -787 205 -780 196 -771L179 -754C177 -752 174 -750 171 -748L136 -713L109 -644V-491C122 -461 117 -429 133 -401C137 -393 142 -385 146 -376L123 -353C86 -316 55 -275 55 -215C55 -175 64 -149 82 -131L118 -96C146 -68 193 -63 252 -63C268 -63 285 -72 300 -87L303 -91L342 -34C347 -26 356 -22 366 -22C382 -22 395 -35 395 -51C395 -57 393 -62 390 -67L345 -133C379 -174 405 -240 405 -272C405 -292 389 -307 369 -307ZM167 -324C182 -286 197 -247 217 -218L272 -138C266 -135 258 -133 252 -133C206 -133 166 -137 138 -152C130 -168 126 -188 126 -215C126 -259 143 -294 167 -324Z"/>
	<path fill="#ff22ac" d="M365 -304C356 -304 345 -295 337 -282C332 -274 329 -264 329 -257C329 -252 328 -242 324 -229C319 -214 311 -196 302 -180L258 -245C235 -279 217 -332 199 -376C226 -401 250 -427 270 -461C288 -492 298 -526 298 -562C298 -568 298 -574 297 -580V-608C296 -664 296 -756 256 -779C250 -782 244 -784 236 -784C222 -784 209 -781 198 -776C183 -769 172 -756 166 -750C160 -744 160 -744 156 -742C147 -737 140 -727 135 -715L108 -646C106 -640 104 -634 104 -629V-476C104 -472 105 -470 106 -467C111 -456 113 -443 115 -429C118 -413 121 -394 131 -376C131 -375 132 -374 132 -373C113 -354 95 -333 80 -306C62 -274 50 -237 50 -200C50 -141 70 -107 102 -88C134 -70 178 -66 226 -66C246 -66 265 -77 283 -92L318 -41C320 -38 323 -35 328 -35C337 -35 349 -44 357 -57C362 -65 364 -75 364 -82C364 -87 363 -91 361 -94L327 -144C344 -171 360 -205 369 -233C375 -252 379 -271 379 -287C379 -296 374 -304 365 -304ZM214 -720C217 -720 219 -719 221 -718C230 -713 238 -697 242 -673C247 -644 248 -606 248 -578C248 -565 248 -555 249 -546C250 -541 249 -536 249 -531C249 -509 244 -494 236 -481C223 -458 201 -437 180 -418C178 -421 177 -423 175 -426C168 -438 167 -451 164 -467C162 -480 160 -496 154 -511V-651L171 -696C177 -701 182 -707 185 -710C191 -717 191 -716 194 -717C197 -718 203 -720 214 -720ZM100 -230C100 -255 105 -271 114 -286C122 -300 136 -315 152 -331C172 -284 189 -231 216 -191L256 -131C253 -130 248 -130 248 -130C201 -130 162 -133 137 -148C112 -162 100 -187 100 -230Z"/>
	<path fill="#11ff90" d="M249 -547C249 -551 248 -554 248 -558C247 -564 247 -575 247 -588C247 -643 245 -742 203 -747C166 -745 165 -722 141 -708L114 -639V-496C127 -466 122 -434 138 -406C141 -400 145 -394 148 -387C197 -432 247 -477 249 -547ZM154 -373C176 -324 194 -264 222 -223L275 -145C307 -186 329 -247 329 -277L339 -267C339 -236 315 -174 283 -133L324 -72L314 -62L274 -122C258 -105 240 -93 222 -93H212C117 -93 50 -107 50 -210V-220C50 -290 93 -335 138 -377C135 -384 131 -390 128 -396C112 -424 117 -456 104 -486V-649L131 -718C156 -733 156 -757 200 -757H210C256 -757 256 -654 257 -598C257 -585 257 -574 258 -568C259 -562 259 -557 259 -552V-542C259 -467 204 -420 154 -373ZM144 -364C101 -324 62 -280 60 -215C62 -120 125 -104 214 -103C232 -104 250 -116 266 -134L212 -213C184 -254 166 -315 144 -364Z"/>
</svg>