<svg xmlns="http://www.w3.org/2000/svg" viewBox="0 -1024 1024 1024">
	<path fill="#cccccc" d="M444 -682V-686C442 -706 434 -729 420 -743L385 -778C380 -783 373 -787 366 -789C358 -791 350 -796 341 -801C329 -808 316 -815 304 -815C260 -815 231 -802 209 -780L174 -744C144 -714 129 -669 114 -624C102 -586 90 -549 69 -522L55 -388L59 -246L67 -190C70 -172 74 -156 83 -140C87 -133 91 -122 96 -110C107 -83 120 -49 138 -31L174 4C182 12 190 17 200 17H214C244 30 276 37 310 37C353 37 371 23 395 2C399 -1 402 -5 406 -9L442 -44L460 -92L462 -152V-153C462 -173 446 -188 426 -188C407 -188 392 -173 391 -154L389 -92L374 -52C358 -40 340 -33 310 -33C276 -33 244 -40 214 -53H200C197 -53 195 -54 192 -55C182 -72 174 -92 167 -110C162 -122 158 -133 154 -140C145 -156 142 -173 138 -190L130 -246L126 -388L140 -522C161 -549 173 -586 185 -624C197 -660 208 -696 228 -724C247 -737 272 -745 304 -745C316 -745 329 -738 341 -731C349 -726 357 -722 365 -719C371 -706 372 -693 374 -678C376 -661 391 -647 409 -647C428 -647 444 -663 444 -682Z"/>
	<path fill="#ff22ac" d="M422 -184C413 -184 401 -175 393 -162C388 -154 386 -146 386 -139L384 -86L374 -59C361 -48 353 -41 344 -37C336 -33 322 -30 305 -30C273 -30 243 -37 215 -49C213 -50 212 -50 210 -50H196C193 -50 190 -51 186 -53C178 -57 170 -67 163 -80C154 -96 146 -116 139 -134C134 -146 130 -156 125 -165C118 -178 115 -193 111 -210L103 -263L99 -401L112 -520C133 -553 145 -592 156 -625C166 -656 175 -684 186 -702C195 -717 203 -727 219 -736C232 -743 251 -748 277 -748C283 -748 295 -743 308 -736C317 -731 326 -726 336 -723C356 -717 365 -691 368 -668C369 -660 373 -654 381 -654C390 -654 402 -663 410 -676C415 -684 417 -694 417 -701V-704C413 -736 399 -775 365 -785C345 -791 326 -812 300 -812C270 -812 245 -806 222 -794C193 -778 169 -751 152 -722C132 -688 121 -654 111 -623C101 -593 93 -566 83 -549C81 -545 78 -542 76 -539C69 -530 65 -520 64 -511L50 -377V-373L54 -231V-227L62 -171C62 -170 63 -170 63 -169C67 -151 70 -134 80 -115C83 -109 87 -99 92 -87C99 -69 108 -48 119 -29C128 -14 138 0 151 8C157 12 164 14 173 14H185C215 27 247 34 283 34C305 34 322 31 339 23C363 12 378 -4 396 -19C403 -25 408 -34 412 -43L430 -91C432 -96 433 -100 433 -105L435 -165V-167C435 -176 431 -184 422 -184Z"/>
	<path fill="#11ff90" d="M170 -23C137 -23 116 -76 101 -115C96 -127 92 -138 88 -145C79 -161 76 -178 72 -195L64 -251L60 -385L74 -517C95 -544 108 -581 120 -619C144 -694 169 -771 267 -775C286 -773 308 -754 326 -749C353 -741 365 -709 368 -681L378 -691C375 -719 363 -751 336 -759C328 -761 320 -766 311 -771C299 -778 286 -785 274 -785H264C160 -785 135 -706 110 -629C98 -591 85 -554 64 -527L50 -391L54 -241L62 -185C65 -167 69 -151 78 -135C82 -128 86 -117 91 -105C106 -66 127 -13 160 -13H174C204 0 236 7 270 7H280H286C325 6 341 -9 364 -29C368 -32 372 -35 376 -39L394 -87L396 -147L386 -157L384 -97L366 -49C362 -45 358 -42 354 -39C331 -19 314 -4 275 -3C243 -4 212 -11 184 -23Z"/>
</svg>