<svg xmlns="http://www.w3.org/2000/svg" viewBox="0 -1024 1024 1024">
	<path fill="#cccccc" d="M147 -122V-112C134 -110 123 -105 115 -97L79 -62C72 -55 67 -44 66 -30V-28C66 -23 68 -19 71 -16L106 20C116 30 139 31 155 37L190 2C198 -12 204 -27 208 -43C228 -42 252 -39 271 -39C302 -39 325 -51 344 -70L379 -105C422 -148 441 -225 467 -286L480 -426L398 -667C391 -686 380 -703 367 -716L332 -751C301 -782 253 -797 205 -797C166 -797 137 -786 118 -767L83 -732C69 -718 60 -700 56 -678C56 -676 55 -673 55 -671C55 -652 71 -636 90 -636C104 -636 117 -645 122 -658V-408V-403C122 -315 147 -211 147 -122ZM271 -109C254 -109 235 -112 217 -113V-122C217 -211 192 -315 192 -403V-408V-676C192 -696 177 -711 157 -711C148 -711 140 -708 134 -703C135 -706 137 -709 139 -712C156 -722 178 -727 205 -727C244 -727 282 -717 312 -697C318 -688 323 -678 327 -667L409 -426L396 -286C373 -233 358 -170 326 -125C311 -115 292 -109 271 -109Z"/>
	<path fill="#ff22ac" d="M189 -111C189 -120 190 -128 190 -137C190 -227 165 -330 165 -417V-422V-691C165 -700 161 -708 152 -708C143 -708 131 -699 123 -686C118 -678 116 -668 116 -661V-394V-388C116 -299 141 -196 141 -109C111 -104 89 -89 74 -63C65 -48 61 -33 60 -19V-14C60 6 70 14 78 19C92 27 108 28 123 33C124 33 125 34 127 34C136 34 148 25 156 12C167 -7 175 -27 180 -46C201 -45 222 -42 243 -42C307 -42 348 -90 373 -133C402 -183 414 -232 435 -282C437 -287 439 -292 439 -297L452 -438V-441C452 -444 452 -447 451 -449L369 -690C347 -756 283 -794 200 -794C165 -794 133 -786 106 -765C92 -754 80 -740 70 -723C60 -706 55 -688 51 -671C50 -668 50 -666 50 -663C50 -654 54 -646 63 -646C72 -646 84 -655 92 -668C95 -674 97 -680 98 -685C100 -694 103 -699 105 -703C107 -707 109 -710 114 -714C124 -722 146 -730 177 -730C210 -730 243 -723 269 -708C294 -694 313 -671 322 -644L403 -409L391 -281C374 -240 357 -186 338 -153C328 -136 319 -125 307 -117C297 -111 285 -106 266 -106C243 -106 213 -110 189 -111ZM112 -42C117 -39 123 -37 132 -35L135 -47C126 -46 117 -44 112 -42Z"/>
	<path fill="#11ff90" d="M115 -6C126 -27 133 -49 137 -74C103 -73 75 -64 70 -29C74 -14 97 -11 115 -6ZM116 -398V-408V-413V-681L126 -671V-403C127 -316 151 -215 151 -127V-117C151 -106 151 -95 150 -84C177 -84 207 -80 234 -79C331 -82 356 -209 391 -291L403 -424L321 -662C299 -725 236 -756 169 -757C105 -755 70 -724 60 -673L50 -683C61 -735 97 -767 164 -767H174C243 -767 309 -737 331 -672L414 -429L401 -281C365 -198 340 -69 240 -69H230C204 -69 175 -73 149 -74C146 -44 138 -17 124 7C124 7 122 10 122 10C122 10 114 7 114 7C94 0 60 -1 60 -23V-33V-35C64 -75 96 -84 135 -84H139C140 -96 141 -109 141 -122C140 -209 116 -311 116 -398Z"/>
</svg>