<svg xmlns="http://www.w3.org/2000/svg" viewBox="0 -1024 1024 1024">
	<path fill="#cccccc" d="M59 -578C59 -559 56 -539 56 -520C56 -497 60 -476 76 -460L111 -425C114 -422 117 -420 121 -417L133 -405C137 -401 142 -397 147 -397H151C155 -397 159 -396 163 -395C150 -382 138 -369 125 -356C120 -351 115 -346 111 -341L91 -321C65 -295 55 -265 55 -229C55 -224 56 -218 56 -212C56 -202 55 -193 55 -183C55 -160 58 -136 70 -116C77 -94 89 -74 105 -58L140 -23C173 10 222 28 269 29C278 32 287 33 296 33C325 33 352 19 373 -2L408 -37C413 -42 419 -48 423 -54L443 -80C447 -87 452 -95 452 -106C452 -123 437 -138 420 -138C408 -138 397 -130 392 -120C385 -107 379 -93 372 -80L354 -57C337 -45 317 -37 296 -37C287 -37 278 -38 269 -41C231 -42 191 -54 160 -77C152 -89 145 -102 141 -116C129 -136 126 -160 126 -183C126 -193 127 -202 127 -212C127 -218 126 -224 126 -229C126 -259 133 -285 150 -308L177 -334C178 -335 178 -337 179 -338C203 -357 231 -371 253 -377V-447H225C206 -447 196 -459 179 -461C170 -462 161 -468 151 -468C150 -468 148 -467 147 -467C144 -467 141 -469 138 -471C129 -485 127 -502 127 -520C127 -539 129 -559 129 -578V-595C129 -637 147 -680 173 -714C174 -715 174 -717 175 -718C189 -727 206 -733 223 -735C254 -735 284 -729 315 -729C327 -729 338 -722 349 -716C360 -710 368 -705 380 -705C399 -705 416 -721 416 -740C416 -758 402 -773 384 -775H377C357 -777 337 -799 315 -799C284 -799 254 -805 223 -805C197 -802 172 -790 154 -772L119 -737C112 -730 107 -723 102 -714C76 -680 58 -637 58 -595C58 -590 59 -584 59 -578Z"/>
	<path fill="#ff22ac" d="M54 -564C54 -546 51 -526 51 -506C51 -467 61 -440 87 -422L92 -417C98 -411 106 -400 120 -400H124C131 -400 142 -395 150 -394H153C140 -383 127 -370 116 -355C100 -342 85 -325 74 -306C56 -275 50 -243 50 -214C50 -208 51 -203 51 -197C51 -188 50 -179 50 -169C50 -143 52 -116 66 -92C79 -51 108 -21 142 -2C172 15 206 25 240 26C249 29 259 30 268 30C311 30 353 3 384 -38L404 -63C409 -69 412 -77 416 -85C420 -92 422 -101 422 -107C422 -116 418 -124 409 -124C400 -124 388 -115 380 -102C378 -99 377 -95 375 -92L359 -71C345 -52 322 -34 292 -34C285 -34 276 -35 268 -37C267 -37 266 -38 265 -38C235 -39 204 -47 177 -62C147 -80 123 -106 113 -138C113 -139 112 -141 111 -142C101 -158 99 -176 99 -196C99 -205 100 -216 100 -226C100 -231 99 -238 99 -243C99 -263 104 -277 109 -286C113 -292 118 -300 129 -308C133 -311 137 -315 140 -320C147 -330 159 -342 174 -353C193 -367 214 -377 230 -381C237 -383 245 -386 252 -392C263 -402 269 -414 269 -424C269 -436 261 -444 249 -444H221C214 -444 207 -446 199 -450C193 -453 186 -457 177 -458C167 -459 159 -464 147 -464H143C137 -467 131 -477 124 -482C111 -491 106 -500 103 -511C101 -518 100 -526 100 -535C100 -553 103 -573 103 -592C103 -598 103 -604 102 -610C102 -643 118 -675 135 -698C137 -700 139 -703 140 -706C149 -722 172 -735 197 -738C227 -738 257 -732 288 -732C295 -732 304 -727 315 -721C325 -716 336 -709 349 -708H350C359 -708 371 -717 379 -730C384 -738 386 -748 386 -755C386 -764 382 -771 374 -772C368 -772 360 -777 350 -782C339 -788 327 -796 311 -796C280 -796 250 -802 219 -802H217C168 -796 129 -766 106 -727C100 -718 94 -709 88 -699C67 -662 53 -620 53 -580C53 -574 54 -570 54 -564Z"/>
	<path fill="#11ff90" d="M54 -578C54 -561 51 -542 51 -525V-515C51 -488 56 -464 81 -447C88 -442 97 -427 107 -427H115C123 -426 131 -422 139 -421C156 -419 166 -407 185 -407C154 -393 121 -368 101 -339C65 -311 50 -276 50 -234V-224C50 -220 51 -214 51 -210C51 -202 50 -196 50 -188V-178C50 -155 53 -131 65 -111C86 -41 160 -2 229 -1C238 2 247 3 256 3H266C302 3 334 -19 357 -49L377 -75L383 -87L373 -97L367 -85L347 -59C325 -30 295 -9 261 -7C254 -7 246 -9 239 -11C170 -12 96 -51 75 -121C64 -140 60 -161 60 -183C60 -193 62 -204 62 -214C62 -219 60 -223 60 -228C61 -268 77 -303 111 -329C137 -367 187 -398 223 -407L263 -417H195C176 -417 166 -429 149 -431C140 -432 131 -437 121 -437H114C105 -439 98 -452 91 -457C68 -473 62 -496 61 -521C61 -538 64 -556 64 -573V-583C64 -588 63 -592 63 -597C65 -637 83 -677 107 -709C123 -740 156 -760 192 -765C220 -764 247 -759 275 -759C297 -759 317 -737 337 -735L347 -745C327 -747 307 -769 285 -769C254 -769 224 -775 193 -775H183C147 -770 114 -750 97 -719C71 -685 53 -642 53 -600V-590C53 -586 54 -582 54 -578Z"/>
</svg>