<svg xmlns="http://www.w3.org/2000/svg" viewBox="0 -1024 1024 1024">
	<path fill="#cccccc" d="M55 -812L61 -322C61 -303 77 -287 96 -287C116 -287 132 -303 132 -323L126 -813C126 -832 109 -848 90 -848C70 -848 55 -832 55 -812ZM64 -203V-137C64 -117 79 -102 99 -102C119 -102 135 -117 135 -137V-203C135 -223 119 -238 99 -238C79 -238 64 -223 64 -203Z"/>
	<path fill="#ff22ac" d="M50 -797L56 -308C56 -299 61 -291 70 -291C79 -291 90 -300 98 -313C103 -321 106 -331 106 -338L100 -827C100 -836 95 -844 86 -844C77 -844 66 -835 58 -822C53 -814 50 -804 50 -797ZM73 -105C82 -105 93 -114 101 -127C106 -135 109 -145 109 -152V-218C109 -227 104 -235 95 -235C86 -235 75 -226 67 -213C62 -205 59 -195 59 -188V-122C59 -113 64 -105 73 -105Z"/>
	<path fill="#11ff90" d="M50 -807L56 -318L66 -328L60 -817ZM59 -208V-142L69 -132V-198Z"/>
</svg>