<svg xmlns="http://www.w3.org/2000/svg" viewBox="0 -1024 1024 1024">
	<path fill="#cccccc" d="M171 -224L167 -376H461C481 -376 496 -391 496 -411C496 -431 481 -446 461 -446H131L96 -411L102 -185L137 -150C164 -151 188 -156 210 -161C233 -166 255 -171 277 -171C296 -171 314 -168 335 -159C343 -156 349 -152 355 -148C372 -123 381 -92 392 -57C402 -26 408 2 408 28C408 53 403 78 390 106C387 114 382 121 378 127C361 139 340 148 317 158C289 170 266 175 240 175C225 175 209 173 191 170C165 165 149 152 132 138C123 131 113 123 101 116C96 113 91 111 85 111C68 111 55 125 55 142C55 153 61 163 70 168L101 186C113 193 123 202 132 209C149 223 165 235 191 240C209 243 225 246 240 246C266 246 289 240 317 228C350 214 377 202 398 181L433 146C444 135 453 123 460 106C473 78 478 53 478 28C478 2 472 -25 463 -56C449 -101 438 -139 410 -167L375 -203C364 -214 351 -222 335 -229C314 -238 296 -242 277 -242C241 -242 205 -230 171 -224Z"/>
	<path fill="#ff22ac" d="M446 -443H116C96 -443 80 -422 80 -397V-396L86 -169C86 -160 93 -153 100 -153C128 -154 154 -160 176 -165C199 -170 220 -175 240 -175C257 -175 274 -171 293 -163C345 -140 359 -97 378 -35C388 -4 393 21 393 42C393 62 388 81 379 102C371 119 364 127 344 139C331 147 315 155 295 163C270 174 248 178 225 178C211 178 197 176 179 173C155 168 142 157 125 144C116 137 106 129 93 121C91 120 88 119 86 119C77 119 66 128 58 141C53 149 50 159 50 166C50 173 52 178 57 181C89 200 108 228 151 237C169 240 186 242 202 242C230 242 256 236 287 223C307 215 327 207 345 196C368 182 391 162 409 130C413 124 416 117 419 110C435 74 441 43 441 13C441 -18 435 -47 426 -78C409 -135 393 -187 341 -217C336 -220 330 -223 325 -225C303 -235 282 -238 262 -238C238 -238 214 -233 191 -228C173 -224 155 -220 135 -218L131 -379H424C433 -379 444 -388 452 -401C457 -409 460 -419 460 -426C460 -435 455 -443 446 -443Z"/>
	<path fill="#11ff90" d="M226 -211C204 -211 182 -207 159 -202C140 -198 119 -193 96 -191L91 -406H410L420 -416H80L86 -179L96 -180C123 -181 147 -187 169 -192C190 -197 210 -200 231 -201C248 -200 265 -197 284 -189C343 -163 358 -113 377 -52C386 -23 391 3 392 28C391 51 386 75 374 101C352 150 316 167 266 188C240 199 218 204 194 205C180 205 166 203 150 200C124 195 108 183 91 169C82 162 72 153 60 146L50 156C62 163 72 172 81 179C98 193 114 205 140 210C158 213 174 215 189 215H199C225 215 248 210 276 198C326 177 362 160 384 111C397 83 402 58 402 33V23C402 -3 396 -30 387 -61C368 -123 353 -173 294 -199C273 -208 255 -211 236 -211Z"/>
</svg>