<svg xmlns="http://www.w3.org/2000/svg" viewBox="0 -1024 1024 1024">
	<path fill="#cccccc" d="M350 -342C356 -344 367 -345 368 -345C385 -345 402 -339 417 -329C433 -306 443 -278 443 -254C443 -199 399 -153 399 -98C399 -80 415 -72 423 -60L458 -25L504 -21H507C526 -21 543 -37 543 -56C543 -74 528 -89 510 -91C496 -92 484 -93 470 -94V-98C470 -153 514 -199 514 -254C514 -285 497 -323 471 -349L436 -384C417 -403 393 -415 368 -415C352 -415 335 -411 324 -400L288 -364C282 -358 279 -351 279 -342C279 -336 281 -329 281 -322C281 -305 291 -291 301 -276C312 -260 323 -243 323 -223C323 -198 317 -172 304 -151C282 -136 254 -128 228 -127C217 -131 208 -137 199 -143C141 -222 134 -360 129 -458C129 -467 128 -476 128 -484C127 -497 126 -509 126 -522C126 -588 144 -653 181 -701C211 -724 249 -739 296 -739C310 -739 324 -738 340 -735C386 -733 424 -699 456 -673C461 -669 467 -666 474 -666C489 -666 501 -679 501 -694C501 -703 497 -710 491 -715L456 -743C424 -769 386 -803 340 -805C324 -808 310 -809 296 -809C239 -809 195 -789 162 -756L127 -720C79 -672 55 -598 55 -522C55 -509 56 -497 57 -484C57 -476 58 -467 58 -458C63 -351 71 -198 145 -124L181 -89C195 -75 210 -64 228 -57C261 -58 297 -70 322 -95L358 -130L362 -134C385 -157 394 -190 394 -223C394 -243 383 -260 372 -276C362 -291 352 -305 352 -322C352 -329 350 -336 350 -342Z"/>
	<path fill="#ff22ac" d="M276 -307C276 -294 279 -285 283 -277C291 -258 307 -241 315 -224C318 -217 318 -213 318 -209C318 -189 314 -172 309 -164C307 -160 304 -157 301 -154C296 -148 286 -141 274 -136C260 -130 244 -125 227 -124C176 -146 147 -196 130 -256C110 -325 106 -408 103 -474C103 -484 102 -493 101 -502C100 -513 100 -525 100 -536C100 -587 111 -633 130 -666C141 -684 154 -700 172 -713C195 -730 228 -742 269 -742C282 -742 296 -741 311 -738H313C330 -737 348 -731 365 -721C383 -711 399 -697 415 -684C419 -681 423 -676 430 -676C439 -676 450 -685 458 -698C463 -706 466 -716 466 -723C466 -729 464 -734 460 -737C442 -752 423 -769 400 -782C382 -793 361 -801 338 -802C322 -805 307 -806 292 -806C274 -806 256 -804 240 -800C174 -785 127 -740 96 -686C64 -630 50 -569 50 -509C50 -495 51 -481 52 -467C52 -459 54 -451 54 -442C57 -375 61 -289 83 -213C102 -146 135 -86 197 -61C198 -60 200 -60 202 -60C251 -62 292 -82 320 -113C329 -122 337 -133 343 -144C362 -177 368 -209 368 -237C368 -278 341 -298 329 -325C327 -330 326 -335 326 -337C326 -341 325 -343 325 -346C330 -347 336 -348 342 -348C354 -348 366 -345 378 -338C398 -327 414 -307 425 -286C434 -269 438 -251 438 -239C438 -221 432 -206 421 -180C410 -155 394 -120 394 -83C394 -69 399 -61 403 -55C409 -47 416 -41 421 -34C423 -31 427 -28 431 -28L477 -24H478C487 -24 498 -33 506 -46C511 -54 514 -64 514 -71C514 -80 509 -87 501 -88L461 -91C458 -94 455 -97 453 -100C449 -104 445 -109 444 -113C444 -131 450 -146 461 -172C472 -197 488 -232 488 -269C488 -293 481 -315 470 -336C457 -362 437 -384 413 -398C398 -406 382 -412 364 -412C351 -412 338 -410 324 -403C313 -398 298 -388 286 -367C278 -353 274 -338 274 -327C274 -318 276 -313 276 -307Z"/>
	<path fill="#11ff90" d="M284 -342C287 -363 311 -374 333 -375C389 -371 435 -306 438 -254C435 -202 394 -157 394 -103V-93C394 -75 410 -67 418 -55L464 -51L474 -61L428 -65C421 -76 406 -85 404 -100C407 -151 448 -196 448 -249V-259C448 -313 398 -385 338 -385H328C304 -385 274 -373 274 -347V-337C274 -331 276 -324 276 -317C276 -300 286 -286 296 -271C306 -256 317 -240 318 -222C317 -192 307 -160 286 -139C263 -114 230 -101 197 -98C79 -147 69 -337 63 -463C63 -472 62 -481 62 -489C61 -500 60 -511 60 -522C62 -646 127 -766 261 -769C274 -769 286 -767 300 -765C346 -763 384 -729 416 -703L426 -713C394 -739 356 -773 310 -775C294 -778 280 -779 266 -779H256C117 -779 50 -654 50 -527V-517C50 -504 51 -492 52 -479C52 -471 53 -462 53 -453C59 -327 69 -135 188 -87C188 -87 189 -87 189 -87C189 -87 198 -87 198 -87C233 -88 271 -102 296 -129C319 -151 328 -186 328 -218V-228C328 -248 317 -265 306 -281C296 -296 286 -310 286 -327C286 -332 285 -337 284 -342Z"/>
</svg>