<svg xmlns="http://www.w3.org/2000/svg" viewBox="0 -1024 1024 1024">
	<path fill="#cccccc" d="M312 -696C310 -678 309 -660 309 -643C309 -628 310 -615 311 -604C310 -580 309 -556 309 -532C309 -456 314 -379 318 -304C296 -284 275 -263 254 -242C209 -197 173 -147 157 -86C156 -82 156 -78 156 -74C156 -58 164 -44 175 -33L210 2C227 19 254 30 276 31C294 31 309 25 320 14L355 -22C387 -54 393 -125 393 -177C393 -218 391 -253 389 -293C435 -330 482 -366 523 -407L556 -440C560 -406 560 -368 561 -330C562 -234 563 -134 616 -81L652 -45C663 -34 676 -25 692 -19C701 -15 756 13 756 13C761 15 767 17 773 17C792 17 807 3 807 -16C807 -31 797 -44 784 -48C775 -51 765 -54 756 -57C756 -57 701 -85 692 -89C684 -92 678 -96 671 -100C634 -156 632 -245 631 -330C630 -391 630 -450 616 -494C616 -499 614 -503 614 -508C649 -558 672 -616 672 -686C672 -706 670 -727 666 -750C666 -751 665 -754 665 -758C665 -767 666 -779 662 -783L626 -818C625 -819 625 -819 624 -819C620 -819 616 -817 612 -813L576 -778C549 -751 537 -646 537 -628C536 -620 536 -613 536 -605C536 -573 541 -539 544 -508C532 -491 519 -475 505 -460C468 -425 426 -393 386 -361C383 -418 380 -475 380 -532C380 -556 381 -580 382 -604C381 -615 380 -628 380 -643C380 -671 382 -704 388 -729L403 -743C410 -750 414 -759 414 -772L378 -807C375 -806 372 -804 370 -802L335 -767C334 -766 334 -765 332 -765C253 -765 207 -827 128 -827C112 -827 103 -820 90 -817L55 -782V-716L68 -652C71 -636 85 -625 102 -625C121 -625 136 -640 136 -659V-666L126 -716V-757H128C201 -757 246 -705 312 -696ZM321 -236C322 -215 322 -200 322 -177C322 -135 319 -80 300 -44C293 -41 285 -39 276 -39C262 -39 245 -44 231 -52C228 -59 226 -66 226 -74C226 -78 227 -82 228 -86C242 -139 271 -184 308 -225C312 -229 317 -232 321 -236Z"/>
	<path fill="#ff22ac" d="M372 -803C370 -803 369 -804 368 -803C352 -797 337 -779 328 -762C293 -762 263 -777 232 -792C201 -807 168 -824 124 -824C105 -824 95 -816 82 -813C64 -808 50 -789 50 -767V-702C50 -700 51 -698 51 -696L61 -646C62 -639 66 -634 74 -634C83 -634 94 -643 102 -656C107 -664 110 -674 110 -681C110 -683 109 -684 109 -686L100 -733V-760H102C138 -760 168 -746 199 -730C230 -715 263 -698 306 -698H309C306 -677 304 -651 304 -629C304 -614 305 -601 306 -589C305 -565 305 -541 305 -517C305 -446 309 -376 312 -307C297 -294 282 -280 268 -266C220 -218 174 -158 154 -82C152 -75 151 -67 151 -60C151 -46 154 -34 159 -25C168 -8 182 3 197 12C213 21 232 28 250 28C264 28 277 25 291 17C308 7 324 -10 335 -29C359 -71 366 -129 366 -191C366 -228 365 -257 364 -292C426 -343 492 -391 546 -453C554 -416 555 -367 556 -315C557 -207 558 -80 643 -31C649 -28 655 -25 661 -23C669 -20 724 9 724 9C727 11 732 12 736 12C745 12 756 3 764 -10C769 -18 772 -28 772 -35C772 -42 769 -47 764 -50C762 -51 759 -52 757 -53C750 -56 703 -81 693 -85C609 -119 607 -227 605 -345C604 -404 604 -464 590 -512C593 -516 595 -520 597 -524C628 -577 645 -636 645 -701C645 -723 643 -745 639 -768C639 -779 639 -795 635 -805C633 -810 628 -816 620 -816C598 -816 579 -791 571 -777C556 -752 549 -724 543 -693C536 -659 532 -630 532 -615C531 -607 532 -598 532 -590C532 -561 534 -534 537 -507C526 -492 513 -478 499 -464C459 -425 408 -385 361 -347C358 -413 354 -480 354 -546C354 -570 355 -594 356 -617V-618C356 -619 355 -621 355 -622C354 -631 354 -644 354 -658C354 -678 355 -701 358 -719C364 -725 370 -731 375 -740C384 -756 388 -774 388 -787C388 -797 380 -803 372 -803ZM582 -643C582 -646 584 -677 590 -706C591 -710 592 -713 593 -717C595 -700 596 -685 596 -670C596 -638 591 -611 582 -586C581 -598 581 -609 581 -620C581 -628 582 -636 582 -643ZM315 -251C316 -221 317 -195 317 -163C317 -131 314 -93 307 -68C305 -59 302 -53 300 -49C297 -45 296 -42 292 -40C288 -38 281 -36 272 -36C260 -36 245 -40 232 -48C220 -55 209 -65 204 -75C201 -81 200 -86 200 -89V-91C205 -111 213 -129 223 -146C238 -172 259 -197 284 -222C294 -232 304 -242 315 -251Z"/>
	<path fill="#11ff90" d="M538 -512C484 -435 398 -375 323 -313C320 -385 314 -459 314 -532C314 -557 315 -581 316 -606C315 -617 314 -629 314 -643C314 -672 317 -704 324 -729C338 -735 348 -748 348 -767V-781L338 -777C327 -773 319 -758 314 -739C309 -737 302 -735 296 -735C221 -738 175 -797 98 -797H88C72 -797 63 -790 50 -787V-711L60 -661L70 -671L60 -721V-777C72 -780 81 -786 94 -787C169 -784 215 -725 292 -725H302C305 -725 308 -726 311 -726C306 -702 304 -673 304 -648V-638C304 -624 305 -612 306 -602C305 -580 304 -538 304 -537V-527C304 -453 309 -377 313 -304C240 -243 175 -178 152 -91C151 -87 151 -83 151 -79V-69C151 -29 199 0 236 1H246C318 1 327 -102 327 -172V-182C327 -222 326 -256 324 -295C398 -357 483 -416 540 -491V-489C554 -445 555 -386 556 -325C558 -209 559 -87 652 -49C661 -45 716 -17 716 -17L722 -15L732 -25L726 -27C726 -27 671 -55 662 -59C569 -97 568 -219 566 -335C565 -396 564 -455 550 -499C550 -501 549 -503 549 -505C583 -555 606 -611 606 -681V-691C606 -711 604 -732 600 -755V-763C600 -773 600 -789 594 -789H584C549 -789 532 -653 532 -633C531 -625 531 -618 531 -610V-600C531 -571 535 -541 538 -512ZM547 -526C544 -552 541 -579 541 -605C541 -611 542 -617 542 -623C542 -642 557 -760 587 -777C590 -772 590 -761 590 -753V-745C594 -724 596 -705 596 -686C595 -624 576 -572 547 -526ZM314 -286C316 -249 317 -215 317 -177C317 -109 307 -14 242 -9C207 -12 165 -38 161 -74C161 -76 162 -79 162 -81C184 -165 245 -227 314 -286Z"/>
</svg>