<svg xmlns="http://www.w3.org/2000/svg" viewBox="0 -1024 1024 1024">
	<path fill="#cccccc" d="M277 -144C277 -106 264 -67 245 -39C236 -34 227 -31 217 -31C211 -31 206 -32 200 -34L194 -46L178 -112C174 -127 160 -138 144 -138C125 -138 110 -123 110 -104C110 -101 110 -99 111 -96L123 -46C130 -31 138 -20 146 -12L181 24C192 35 205 40 217 40C233 40 249 31 263 17L299 -18C327 -46 348 -96 348 -144C348 -262 324 -375 300 -488C277 -599 254 -710 254 -822V-824L218 -859C192 -856 163 -839 140 -816L105 -780C76 -751 55 -713 55 -677C55 -655 62 -635 80 -617L115 -581C117 -579 118 -579 120 -577H211C238 -440 277 -293 277 -144ZM126 -677C126 -706 139 -735 159 -761C167 -767 175 -773 184 -777C186 -733 192 -690 199 -647H131C128 -656 126 -667 126 -677Z"/>
	<path fill="#ff22ac" d="M214 -856H212C165 -850 110 -808 77 -751C61 -723 50 -691 50 -662C50 -657 50 -652 51 -648C54 -622 66 -600 86 -583C88 -581 91 -580 94 -580H192C195 -580 198 -581 202 -583C228 -440 272 -281 272 -129C272 -102 264 -77 254 -59C245 -44 236 -34 226 -30C222 -28 218 -27 213 -27C208 -27 202 -29 196 -32C186 -38 175 -49 166 -69L155 -117C154 -123 149 -128 142 -128C133 -128 122 -119 114 -106C109 -98 106 -88 106 -81C106 -79 107 -77 107 -75L119 -25C119 -24 119 -23 120 -22C131 3 145 20 161 29C170 34 180 37 190 37C199 37 210 34 220 30C276 5 322 -82 322 -159C322 -281 297 -396 273 -509C250 -620 228 -729 228 -837C228 -848 223 -856 214 -856ZM100 -692C100 -706 104 -718 111 -731C125 -755 152 -778 179 -788C180 -739 185 -692 192 -644H121C107 -657 101 -671 100 -684Z"/>
	<path fill="#11ff90" d="M50 -672C50 -648 59 -625 80 -607H178L188 -617H90C70 -634 61 -655 60 -677C63 -738 124 -803 178 -817C178 -705 201 -594 224 -483C247 -372 271 -261 272 -146C271 -76 226 -5 181 0C162 -2 143 -18 128 -51L116 -101L106 -91L118 -41C135 -5 155 10 176 10H186C234 10 282 -66 282 -139V-149C282 -267 258 -380 234 -493C211 -603 189 -712 188 -823V-830L178 -829C120 -821 50 -748 50 -682Z"/>
</svg>