<svg xmlns="http://www.w3.org/2000/svg" viewBox="0 -1024 1024 1024">
	<path fill="#cccccc" d="M217 -165C197 -180 174 -189 146 -189H143C135 -190 127 -192 121 -192C113 -192 107 -190 103 -186L67 -151C64 -148 63 -144 63 -139C63 -135 63 -131 65 -126C69 -98 83 -64 106 -41L141 -5C153 7 167 14 183 17C193 17 201 13 209 5L245 -30C251 -36 256 -44 261 -54L288 -27C317 2 349 28 394 28C396 28 399 27 401 27C461 24 526 16 565 -23L600 -58C621 -79 634 -109 634 -152V-158L571 -221C566 -226 560 -229 553 -229C539 -229 528 -218 528 -204C528 -197 530 -191 535 -186L563 -158V-152C563 -121 557 -96 545 -77C506 -52 452 -46 401 -43H394C357 -43 328 -60 303 -83C295 -91 287 -100 279 -108C291 -163 294 -227 294 -248V-253C294 -319 276 -383 270 -446C269 -470 264 -499 260 -529C256 -555 252 -583 250 -610C270 -619 289 -630 303 -644L338 -680C357 -699 369 -722 369 -749C369 -759 367 -769 364 -780L329 -815C326 -815 322 -816 319 -816C284 -816 259 -805 243 -789L208 -754C187 -733 178 -700 177 -662C171 -661 165 -661 159 -661H154C133 -699 129 -748 125 -789C123 -807 108 -821 90 -821C71 -821 55 -805 55 -786V-782C60 -737 66 -673 100 -639L136 -604C141 -599 147 -595 153 -591H159C166 -591 174 -591 181 -592C186 -546 197 -489 199 -446C205 -383 223 -319 223 -253C223 -234 222 -205 217 -165ZM283 -698C273 -691 261 -685 249 -680C251 -700 256 -718 264 -733C274 -738 285 -742 298 -744C297 -727 292 -711 283 -698ZM146 -119C169 -119 188 -112 206 -101C202 -84 197 -67 190 -54C188 -53 186 -53 183 -53C175 -54 167 -58 160 -62C148 -80 140 -101 137 -120C139 -120 141 -119 143 -119Z"/>
	<path fill="#ff22ac" d="M214 -164C194 -177 170 -186 141 -186H139C132 -187 124 -188 117 -188C114 -188 110 -189 107 -188C102 -187 97 -186 89 -181C83 -177 75 -170 68 -158C60 -144 58 -135 58 -124C58 -117 59 -112 61 -106C67 -66 90 -18 127 4C135 9 143 12 153 14H156C166 14 177 11 188 3C208 -10 222 -32 232 -55C253 -33 275 -10 302 6C321 17 342 24 367 24H375C415 22 457 18 496 3C526 -9 559 -28 583 -70C600 -100 608 -132 608 -166C608 -175 607 -182 603 -186L575 -214C573 -216 570 -218 566 -218C557 -218 546 -209 538 -196C533 -188 530 -178 530 -171C530 -165 532 -161 535 -158L558 -134C558 -111 553 -97 549 -90C543 -80 529 -68 504 -58C474 -46 433 -42 395 -40H389C369 -40 353 -45 337 -54C307 -71 280 -104 254 -130C255 -137 257 -145 258 -152C266 -204 268 -244 268 -268C268 -338 249 -399 243 -463C241 -510 230 -565 225 -612C230 -614 235 -617 240 -619C270 -633 301 -655 323 -693C337 -716 342 -741 342 -764C342 -777 341 -790 337 -802C335 -808 330 -812 325 -812H315C267 -812 225 -794 197 -746C188 -730 182 -714 178 -698C175 -685 174 -672 173 -659C167 -658 161 -658 155 -658H152C113 -683 105 -747 100 -798C99 -807 95 -814 86 -814C77 -814 66 -805 58 -792C53 -784 50 -774 50 -767V-764C55 -713 63 -628 119 -596C123 -594 128 -594 133 -594C146 -594 160 -596 174 -598C176 -568 181 -538 185 -510C189 -480 193 -452 194 -430V-428C200 -367 218 -301 218 -239C218 -223 218 -198 214 -164ZM293 -734C293 -723 290 -717 288 -713C283 -705 269 -689 245 -678C238 -674 229 -672 221 -669C221 -692 225 -713 232 -726C235 -731 248 -748 292 -748C293 -743 293 -738 293 -734ZM116 -122H119C154 -122 180 -104 200 -86C197 -74 191 -61 188 -56C185 -52 186 -51 185 -51C185 -51 182 -50 179 -50C173 -51 168 -54 162 -57C140 -70 123 -97 115 -122Z"/>
	<path fill="#11ff90" d="M353 -3H363H370C463 -8 568 -25 568 -147V-157V-163L540 -191L530 -181L558 -153V-152C555 -35 451 -18 360 -13H358C294 -16 254 -72 214 -111C225 -164 228 -223 228 -243V-248V-258C228 -324 210 -388 204 -451C203 -475 198 -504 194 -534C189 -565 185 -597 183 -628C244 -643 303 -683 303 -744V-754C303 -764 301 -774 298 -785H289H279C194 -785 172 -728 172 -656V-646V-637C156 -633 139 -631 124 -631H122C73 -659 65 -735 60 -787L50 -777C55 -725 63 -649 112 -621H119H129C143 -621 157 -622 172 -625C174 -592 179 -557 184 -524C188 -494 193 -465 194 -441C200 -379 217 -317 218 -253C218 -233 215 -174 204 -121C179 -143 152 -159 115 -159H112C104 -160 97 -161 91 -161H81C67 -161 58 -157 58 -144V-134C58 -130 58 -126 60 -121C66 -79 95 -21 142 -13H152C181 -13 200 -50 211 -95C250 -56 289 -3 353 -3ZM293 -749C290 -694 238 -656 182 -640V-651C183 -719 205 -773 284 -775H288C291 -766 293 -757 293 -749ZM110 -149C147 -148 176 -129 201 -105C191 -64 174 -29 149 -24C104 -34 76 -90 70 -131C69 -134 68 -137 68 -139C70 -147 77 -150 86 -151C91 -151 97 -150 103 -149Z"/>
</svg>