<svg xmlns="http://www.w3.org/2000/svg" viewBox="0 -1024 1024 1024">
	<path fill="#cccccc" d="M234 -172C229 -255 220 -347 220 -429C220 -525 233 -614 276 -690C275 -683 274 -676 274 -670C274 -666 274 -663 275 -660C284 -621 288 -580 288 -538C288 -466 279 -391 279 -319C279 -267 283 -218 299 -172C306 -145 357 -38 357 -18H428C454 -292 541 -518 616 -748L634 -772C638 -777 640 -783 640 -789C640 -805 627 -817 611 -817C602 -817 594 -813 589 -806C575 -787 559 -767 545 -748C483 -557 413 -369 376 -155C373 -162 371 -168 370 -172C354 -218 349 -267 349 -319C349 -391 358 -466 358 -538C358 -580 355 -621 346 -660C345 -663 345 -666 345 -670C345 -691 352 -727 352 -748C352 -757 350 -764 347 -767L312 -803C311 -804 310 -805 308 -805C304 -805 299 -802 291 -794L255 -758C254 -757 252 -756 251 -754C169 -665 150 -553 150 -429C150 -347 158 -255 163 -172C163 -156 164 -140 164 -123C164 -92 162 -57 150 -31C146 -29 141 -29 136 -28C134 -39 132 -51 128 -60L118 -84C113 -96 102 -105 88 -105C70 -105 55 -90 55 -72C55 -68 55 -64 57 -60C65 -41 64 -13 78 1L113 36C116 39 121 42 127 43C146 43 160 37 171 26L206 -9C231 -34 235 -82 235 -123C235 -140 234 -156 234 -172Z"/>
	<path fill="#ff22ac" d="M206 -187V-188C201 -270 192 -364 192 -444C192 -541 205 -621 241 -683C250 -699 261 -713 274 -728C273 -706 267 -679 267 -655C267 -650 267 -644 269 -639C278 -603 281 -564 281 -524C281 -452 272 -377 272 -304C272 -251 276 -198 293 -150C297 -135 308 -112 319 -85C328 -64 337 -42 343 -25C347 -14 350 -4 350 -2C350 6 354 13 363 13C372 13 383 5 391 -7C396 -14 398 -22 399 -29C424 -293 508 -514 582 -740C591 -752 606 -769 606 -787C606 -796 601 -804 592 -804C584 -804 575 -798 568 -788L550 -764C546 -759 543 -753 541 -747C476 -549 403 -356 366 -129C355 -155 343 -185 341 -193C341 -194 340 -194 340 -195C325 -237 321 -284 321 -333C321 -404 330 -480 330 -553C330 -596 327 -640 317 -681V-683C317 -701 323 -740 323 -762C323 -777 321 -801 301 -801C287 -801 271 -787 259 -774C239 -752 222 -728 207 -703C170 -639 154 -571 147 -503C144 -474 143 -444 143 -414C143 -331 151 -241 156 -157C156 -141 157 -125 157 -109C157 -95 156 -81 155 -68C153 -51 149 -37 147 -33C146 -31 146 -30 141 -28C137 -26 131 -24 122 -24C121 -24 119 -24 118 -25C111 -29 109 -40 105 -58C103 -66 101 -75 98 -84C96 -89 92 -92 86 -92C77 -92 66 -83 58 -70C53 -62 50 -52 50 -45C50 -42 51 -39 52 -36C54 -32 55 -26 57 -18C60 -2 64 24 83 35C87 37 92 40 98 40C112 40 125 37 138 30C154 21 170 6 181 -13C196 -40 201 -65 204 -88C206 -105 206 -122 206 -137Z"/>
	<path fill="#11ff90" d="M156 -167C156 -153 157 -138 157 -123C157 -68 148 -3 92 3C66 -4 69 -42 60 -65L50 -55C60 -31 56 8 84 13H94C159 13 167 -59 167 -118V-128C167 -145 166 -161 166 -177C161 -259 152 -349 152 -429C153 -551 173 -661 254 -749C260 -756 265 -760 269 -762C272 -759 273 -755 273 -748C272 -727 267 -695 267 -675V-665C267 -661 267 -658 268 -655C277 -618 280 -578 280 -538C280 -467 271 -394 271 -324V-314C271 -262 276 -213 292 -167C299 -140 350 -33 350 -13V34H356L360 -13C386 -287 473 -513 548 -743L566 -767L556 -777L538 -753C465 -530 382 -312 353 -50C347 -68 336 -91 327 -113C316 -140 305 -166 302 -177C286 -221 281 -269 281 -319C281 -389 290 -462 290 -533V-543C290 -585 287 -626 278 -665C278 -667 277 -669 277 -671C278 -692 284 -723 284 -743V-753C284 -766 281 -774 275 -774H265C260 -774 254 -770 244 -759C162 -670 142 -558 142 -434V-424C142 -342 151 -250 156 -167Z"/>
</svg>