<svg xmlns="http://www.w3.org/2000/svg" viewBox="0 -1024 1024 1024">
	<path fill="#cccccc" d="M57 -220L469 -229L468 -299L55 -290ZM57 -420L469 -429L468 -499L55 -490ZM347 -553L291 -191L360 -180L416 -542ZM146 -553L90 -191L159 -180L215 -542Z"/>
	<path fill="#ff22ac" d="M497 -296L86 -287C77 -287 66 -278 58 -265C53 -257 50 -247 50 -240C50 -231 55 -223 64 -223L475 -232C484 -232 495 -241 503 -254C508 -262 511 -272 511 -279C511 -288 506 -296 497 -296ZM497 -496L86 -487C77 -487 66 -478 58 -465C53 -457 50 -447 50 -440C50 -431 55 -423 64 -423L475 -432C484 -432 495 -441 503 -454C508 -462 511 -472 511 -479C511 -488 506 -496 497 -496ZM334 -159C343 -159 354 -168 362 -181C366 -187 368 -194 369 -200L423 -551C423 -553 424 -555 424 -557C424 -566 419 -574 410 -574C401 -574 390 -565 382 -552C378 -546 376 -539 375 -533L321 -182C321 -180 320 -178 320 -176C320 -167 325 -159 334 -159ZM133 -159C142 -159 153 -168 161 -181C165 -187 167 -194 168 -200L222 -551C222 -553 223 -555 223 -557C223 -566 218 -574 209 -574C200 -574 189 -565 181 -552C177 -546 175 -539 174 -533L120 -182C120 -180 119 -178 119 -176C119 -167 124 -159 133 -159Z"/>
	<path fill="#11ff90" d="M60 -250L471 -259L461 -269L50 -260ZM60 -450L471 -459L461 -469L50 -460ZM374 -547L320 -196L330 -186L384 -537ZM173 -547L119 -196L129 -186L183 -537Z"/>
</svg>