<svg xmlns="http://www.w3.org/2000/svg" viewBox="0 -1024 1024 1024">
	<path fill="#cccccc" d="M126 -289C126 -368 135 -453 138 -532V-578C138 -625 151 -674 177 -710C197 -724 222 -733 254 -733C280 -733 303 -725 322 -712C345 -679 358 -635 358 -592C358 -553 348 -515 326 -484L297 -462C290 -457 286 -448 286 -439C286 -423 298 -411 314 -411C320 -411 326 -413 331 -417C336 -421 340 -424 345 -429L381 -465C404 -488 419 -518 425 -551C446 -495 459 -436 463 -376C463 -329 426 -133 365 -45C357 -41 340 -37 339 -37C300 -37 257 -49 219 -49H207C200 -54 193 -60 186 -65C138 -125 126 -202 126 -289ZM219 21C257 21 300 33 339 33C355 33 369 26 383 12L418 -24C490 -96 534 -324 534 -376C526 -494 480 -607 420 -706L401 -737C396 -746 386 -752 375 -752C370 -752 364 -751 360 -748L341 -767C318 -790 289 -804 254 -804C245 -804 236 -803 227 -801C200 -796 176 -783 158 -765L123 -729C86 -692 67 -634 67 -578V-532C64 -453 55 -368 55 -289C55 -193 70 -108 132 -46L167 -11C179 1 192 11 207 21Z"/>
	<path fill="#ff22ac" d="M291 -437C291 -444 293 -454 298 -462C302 -469 307 -474 312 -478C323 -486 330 -496 336 -506C346 -523 353 -550 353 -579C353 -587 352 -595 351 -604C344 -653 320 -699 281 -722C265 -731 247 -737 227 -737C180 -737 151 -714 134 -685C121 -662 112 -629 112 -593V-547V-545C109 -466 99 -381 99 -304C99 -262 102 -222 111 -187C125 -131 152 -83 206 -46H214C253 -46 295 -34 334 -34C344 -34 351 -38 358 -45C364 -51 371 -60 379 -73C398 -107 418 -162 432 -214C449 -278 459 -342 459 -361C454 -435 432 -508 401 -578C398 -547 388 -516 371 -486C357 -463 340 -442 319 -426C314 -422 309 -420 304 -420C295 -420 291 -428 291 -437ZM63 -518V-563C63 -670 122 -780 219 -798C229 -800 240 -801 250 -801C275 -801 297 -794 316 -783C337 -771 353 -754 367 -733C371 -736 376 -738 380 -738C385 -738 389 -735 391 -732C452 -632 500 -517 508 -393V-391C508 -359 497 -294 478 -222C463 -164 443 -103 414 -53C394 -19 357 30 312 30C289 30 267 26 246 23C226 20 208 18 192 18H180C177 18 175 17 173 16C112 -24 79 -80 63 -146C53 -187 50 -230 50 -275C50 -355 60 -439 63 -518Z"/>
	<path fill="#11ff90" d="M50 -294V-284C50 -170 71 -71 166 -9H178C216 -9 259 3 298 3H308C405 3 468 -310 468 -371V-381C460 -499 414 -612 354 -711L344 -701C404 -603 449 -491 458 -374C454 -300 394 -13 302 -7C265 -8 224 -19 188 -19H176C82 -80 61 -177 60 -289C60 -366 69 -449 72 -527V-573C72 -657 113 -745 196 -761C204 -762 212 -764 219 -764C302 -761 351 -676 353 -592C352 -540 332 -488 290 -457L300 -447C343 -479 363 -533 363 -587V-597C363 -685 312 -774 224 -774H214C205 -774 195 -773 186 -771C103 -755 62 -667 62 -583V-537C59 -458 50 -373 50 -294Z"/>
</svg>