<svg xmlns="http://www.w3.org/2000/svg" viewBox="0 -1024 1024 1024">
	<path fill="#cccccc" d="M186 -554V-273C186 -253 201 -238 221 -238C241 -238 257 -253 257 -273V-554C257 -574 241 -589 221 -589C201 -589 186 -574 186 -554ZM90 -376H369C389 -376 405 -391 405 -411C405 -431 389 -446 369 -446H90C70 -446 55 -431 55 -411C55 -391 70 -376 90 -376Z"/>
	<path fill="#ff22ac" d="M195 -241C204 -241 215 -250 223 -263C228 -271 231 -281 231 -288V-569C231 -578 226 -586 217 -586C208 -586 197 -577 189 -564C184 -556 181 -546 181 -539V-258C181 -249 186 -241 195 -241ZM365 -443H86C77 -443 66 -434 58 -421C53 -413 50 -403 50 -396C50 -387 55 -379 64 -379H343C352 -379 363 -388 371 -401C376 -409 379 -419 379 -426C379 -435 374 -443 365 -443Z"/>
	<path fill="#11ff90" d="M181 -559V-278L191 -268V-549ZM50 -406H329L339 -416H60Z"/>
</svg>