<svg xmlns="http://www.w3.org/2000/svg" viewBox="0 -1024 1024 1024">
	<path fill="#cccccc" d="M126 -396V-438C127 -519 129 -629 173 -694C192 -706 216 -713 245 -713H261C271 -714 280 -715 289 -715C322 -715 350 -705 373 -689C412 -636 427 -557 427 -487C427 -473 426 -459 425 -446C426 -430 427 -413 427 -397C427 -302 407 -209 347 -138C331 -124 312 -111 295 -99L289 -93C254 -98 224 -111 200 -130C144 -201 126 -309 126 -396ZM462 6C462 -30 418 -54 405 -81C407 -84 407 -87 407 -91C407 -95 406 -100 404 -104H386L401 -119C474 -192 498 -294 498 -397C498 -413 497 -430 496 -446C497 -459 498 -473 498 -487C498 -566 478 -658 427 -709L391 -744C365 -770 332 -786 289 -786C280 -786 271 -784 261 -783C256 -783 250 -784 245 -784C205 -784 176 -771 154 -749L119 -714C59 -654 57 -528 56 -438C56 -423 55 -411 55 -396C55 -300 78 -180 147 -111L182 -75C214 -43 256 -23 311 -21H315C332 -21 353 -27 364 -38L367 -41C380 -27 391 -12 391 6V8C391 27 383 41 373 53H307C287 53 271 68 271 88C271 108 287 123 307 123H379L414 88C419 79 427 72 434 64C448 48 462 32 462 8Z"/>
	<path fill="#ff22ac" d="M292 -89C296 -99 303 -110 311 -115C342 -138 363 -162 379 -190C407 -239 422 -306 422 -383C422 -398 422 -413 421 -429V-432V-435C422 -447 422 -459 422 -472C422 -559 396 -662 328 -701C309 -712 287 -718 262 -718C254 -718 245 -717 236 -716H234C229 -716 224 -717 219 -717C199 -717 182 -713 170 -707C151 -699 141 -689 133 -674C122 -655 113 -623 108 -588C102 -544 101 -494 100 -452C100 -438 99 -425 99 -411C99 -281 144 -104 292 -89ZM267 103C267 96 269 86 274 78C282 65 293 56 302 56H362C368 49 384 32 386 28C387 27 387 28 387 23V21C387 19 385 13 381 6C372 -9 354 -25 342 -40C328 -31 307 -24 289 -24C249 -24 216 -34 188 -50C83 -111 50 -264 50 -381C50 -389 51 -396 51 -404C52 -457 51 -510 60 -570C66 -611 76 -654 99 -694C118 -727 145 -753 176 -767C196 -776 217 -781 241 -781C246 -781 251 -780 256 -780C266 -781 276 -782 285 -782C315 -782 341 -775 363 -762C443 -716 472 -601 472 -502C472 -487 471 -474 470 -460C471 -444 472 -427 472 -411C472 -288 439 -192 379 -120C380 -116 381 -111 381 -106C381 -104 380 -100 380 -98C393 -80 413 -67 425 -46C431 -37 436 -25 436 -9C436 11 430 31 420 48C410 65 400 76 393 84C386 92 381 97 380 99C372 112 361 120 352 120H280C271 120 267 112 267 103Z"/>
	<path fill="#11ff90" d="M326 -88V-98C326 -101 326 -104 327 -107C318 -99 308 -90 298 -83L288 -93C388 -165 421 -280 422 -397C422 -414 421 -431 420 -447C421 -460 422 -473 422 -487C421 -603 377 -741 254 -745C245 -745 236 -743 227 -742C222 -742 216 -744 210 -744C65 -740 63 -554 61 -433C61 -420 60 -409 60 -396C61 -256 111 -67 280 -61C298 -62 318 -70 327 -82C327 -84 326 -86 326 -88ZM386 7C383 -23 348 -45 333 -68C322 -57 302 -51 285 -51H275H270C99 -56 50 -251 50 -391V-401C50 -416 51 -428 51 -443C53 -565 55 -754 205 -754H215C218 -754 221 -753 224 -753C233 -754 241 -755 249 -755H259C388 -755 432 -611 432 -492V-482C432 -469 432 -457 431 -445C432 -431 432 -416 432 -402V-392C432 -289 408 -188 336 -115C338 -110 342 -102 342 -96V-86C342 -84 341 -84 341 -82C356 -57 396 -33 396 1V11V13C396 37 382 53 368 69C361 77 353 84 348 93H266L276 83H338C353 59 384 41 386 7Z"/>
</svg>