<svg xmlns="http://www.w3.org/2000/svg" viewBox="0 -1024 1024 1024">
	<path fill="#cccccc" d="M200 -764C181 -764 166 -749 165 -730L162 -617V-616C162 -596 177 -581 197 -581C216 -581 232 -596 233 -615L236 -728V-729C236 -749 220 -764 200 -764ZM93 -764C74 -764 59 -749 58 -730L55 -617V-616C55 -596 70 -581 90 -581C109 -581 125 -596 126 -615L129 -728V-729C129 -749 113 -764 93 -764Z"/>
	<path fill="#ff22ac" d="M50 -752V-751L54 -655C55 -642 65 -631 79 -631C93 -631 104 -642 104 -656V-657L100 -753C99 -766 89 -777 75 -777C61 -777 50 -766 50 -752ZM140 -755V-754L144 -658C145 -645 155 -634 169 -634C183 -634 194 -645 194 -659V-660L190 -756C189 -769 179 -780 165 -780C151 -780 140 -769 140 -755Z"/>
	<path fill="#11ff90" d="M50 -715L60 -716V-842L50 -841ZM140 -718L150 -719V-845L140 -844Z"/>
</svg>