<svg xmlns="http://www.w3.org/2000/svg" viewBox="0 -1024 1024 1024">
	<path fill="#cccccc" d="M620 -147C607 -147 595 -140 590 -128C583 -111 575 -92 568 -75C559 -66 551 -59 542 -49C532 -42 522 -37 510 -37C498 -37 486 -41 476 -47C451 -84 438 -134 432 -166C420 -229 423 -295 414 -359C442 -371 468 -389 490 -411L526 -446C556 -476 576 -512 576 -548C576 -617 557 -678 514 -721L478 -757C439 -796 380 -819 298 -819C288 -820 280 -821 271 -821C234 -821 206 -808 186 -788L151 -753C102 -704 94 -611 89 -538V-536C89 -517 105 -500 124 -500C143 -500 158 -516 159 -534C163 -600 170 -680 205 -733C223 -744 244 -751 271 -751C280 -751 288 -750 298 -749C368 -749 421 -731 459 -702C490 -661 505 -608 505 -548C505 -519 492 -491 472 -465C450 -447 424 -432 399 -424C397 -431 395 -437 392 -444C389 -458 368 -490 351 -507L316 -542C309 -549 303 -553 298 -553C296 -553 295 -553 294 -552L258 -516C255 -513 255 -506 255 -499C255 -461 272 -420 299 -393L334 -358C337 -355 341 -352 344 -349C351 -287 350 -225 361 -166C368 -127 388 -61 423 -26L458 9C473 24 490 33 510 33C528 33 544 23 558 9L593 -27C600 -34 606 -41 612 -48C620 -57 629 -65 638 -74L650 -102C652 -106 652 -110 652 -115C652 -133 638 -147 620 -147ZM306 -258C306 -389 268 -518 250 -640C251 -646 252 -652 252 -659C252 -678 236 -694 217 -694C199 -694 184 -681 182 -664L179 -640C197 -518 235 -389 235 -258C235 -233 236 -210 236 -181C236 -128 233 -64 212 -23C206 -20 198 -19 190 -19C177 -19 161 -25 146 -34C142 -42 140 -50 140 -58H138C153 -75 165 -89 165 -89L130 -124H129L94 -88C91 -85 55 -45 55 -44L90 -9C90 -9 93 -11 94 -12L126 20C144 38 170 51 190 51C207 51 220 45 231 34L266 -1C301 -36 307 -117 307 -181C307 -210 306 -233 306 -258ZM88 -18C75 -20 64 -30 64 -44C64 -48 66 -52 67 -55Z"/>
	<path fill="#ff22ac" d="M610 -134C601 -134 590 -125 582 -112C578 -105 575 -97 572 -90C557 -75 538 -50 525 -40C520 -36 514 -34 506 -34C497 -34 488 -36 479 -41C461 -51 446 -73 434 -97C419 -127 409 -163 405 -186C395 -242 396 -303 389 -362C407 -369 427 -379 444 -391C475 -412 503 -441 524 -477C540 -504 550 -535 550 -563C550 -659 516 -739 441 -782C403 -804 355 -816 295 -816C285 -817 276 -818 267 -818C247 -818 228 -815 211 -808C177 -794 150 -765 132 -734C114 -703 104 -670 98 -638C90 -598 86 -560 84 -526V-523C84 -514 89 -506 98 -506C107 -506 118 -515 126 -528C130 -536 133 -543 133 -550C135 -583 138 -620 145 -652C150 -678 158 -700 166 -714C181 -739 204 -754 245 -754C253 -754 261 -753 270 -752H272C328 -752 372 -741 406 -721C472 -683 500 -613 500 -533C500 -520 497 -509 490 -497C480 -481 462 -461 439 -445C421 -432 400 -423 380 -417C376 -434 371 -451 364 -467C360 -482 350 -498 338 -514C328 -527 318 -540 307 -546C303 -548 300 -550 294 -550C291 -550 288 -550 284 -548C277 -545 267 -536 260 -525C252 -511 251 -501 250 -494V-484C250 -460 256 -439 264 -419C276 -391 294 -366 317 -350C319 -349 321 -348 324 -348C328 -348 332 -349 337 -349C348 -282 344 -213 357 -146C362 -119 372 -81 389 -47C402 -20 420 5 444 19C456 26 469 30 484 30C523 30 555 -9 572 -29C581 -39 588 -46 591 -49C598 -54 604 -62 608 -71L619 -98C622 -104 624 -112 624 -117C624 -126 619 -134 610 -134ZM224 -654C225 -659 226 -664 226 -669C226 -678 221 -686 212 -686C203 -686 192 -677 184 -664C180 -658 178 -651 177 -645C176 -639 174 -633 174 -626C174 -625 175 -622 175 -621C193 -501 230 -369 230 -243C230 -218 232 -196 232 -167C232 -146 231 -124 229 -102C226 -75 222 -45 212 -28C209 -23 208 -22 204 -20C201 -18 195 -16 186 -16C162 -16 132 -38 121 -54C119 -56 119 -59 118 -61L121 -64C128 -72 139 -84 139 -103C139 -113 134 -121 125 -121C119 -121 113 -117 111 -115C104 -110 101 -106 94 -98C85 -88 75 -75 66 -65C60 -57 50 -47 50 -30C50 -20 55 -12 64 -12C67 -12 69 -12 71 -13C81 7 99 23 118 34C133 43 148 48 164 48C177 48 190 45 203 37C220 27 235 11 246 -8C273 -56 281 -124 281 -196C281 -225 280 -249 280 -273C280 -408 242 -531 224 -654Z"/>
	<path fill="#11ff90" d="M250 -504V-494C250 -449 275 -399 310 -375H320C325 -375 329 -375 334 -376C347 -306 343 -231 356 -161C366 -106 400 3 470 3H480C520 3 545 -48 572 -69L584 -97L574 -107L562 -79C536 -58 511 -11 474 -7C408 -12 376 -118 366 -171C353 -238 358 -310 346 -378C423 -393 510 -468 510 -543V-553C510 -686 439 -789 268 -789C258 -790 250 -791 241 -791H231C105 -791 91 -646 84 -543L94 -533C100 -635 115 -777 236 -781C243 -781 250 -780 258 -779C426 -779 498 -680 500 -550C498 -479 417 -407 344 -389C340 -409 334 -430 326 -449C321 -469 284 -523 268 -523H258C252 -523 250 -514 250 -504ZM263 -511C281 -502 312 -457 316 -439C323 -422 328 -405 332 -387C328 -386 323 -386 319 -386C285 -410 262 -456 260 -499C260 -505 261 -509 263 -511ZM231 -181C231 -100 220 6 155 11C124 8 81 -24 75 -56L76 -57C93 -76 99 -84 99 -84V-94H89C89 -94 50 -50 50 -49V-39H60L65 -44C73 -11 119 21 150 21H160C231 21 241 -92 241 -176V-186C241 -215 240 -238 240 -263C240 -393 202 -519 184 -640L186 -649L176 -659C175 -653 174 -646 173 -640C191 -516 230 -386 230 -253C230 -230 231 -208 231 -181Z"/>
</svg>