<svg xmlns="http://www.w3.org/2000/svg" viewBox="0 -1024 1024 1024">
	<path fill="#cccccc" d="M88 -39C88 -34 89 -30 91 -26C91 -26 100 -6 100 7C100 18 94 30 86 40L64 59C58 64 55 71 55 79C55 94 67 106 82 106C89 106 94 103 99 99C99 99 102 97 106 93L141 58C151 48 171 26 171 7C171 -6 162 -26 162 -26L150 -52C145 -63 133 -71 120 -71C102 -71 88 -57 88 -39ZM136 -388L101 -423L65 -388L101 -353Z"/>
	<path fill="#ff22ac" d="M63 96C68 96 74 93 80 88C81 87 88 82 97 72C112 56 135 25 135 -8C135 -24 127 -42 124 -50C122 -54 119 -58 113 -58C104 -58 92 -49 84 -36C79 -28 77 -18 77 -11C77 -7 78 -5 79 -2C79 -2 81 3 83 10C84 14 86 18 86 20C82 28 69 40 69 40C65 44 60 48 57 54C52 62 50 72 50 79C50 88 54 96 63 96ZM65 -356C74 -356 85 -365 93 -378C98 -386 101 -396 101 -403C101 -412 96 -420 87 -420C78 -420 67 -411 59 -398C54 -390 51 -380 51 -373C51 -364 56 -356 65 -356Z"/>
	<path fill="#11ff90" d="M96 2C96 -11 87 -31 87 -31L77 -21C77 -21 84 -6 86 7C82 32 50 59 50 59L60 69C60 69 96 38 96 12ZM62 -383V-393H52V-383Z"/>
</svg>