<svg xmlns="http://www.w3.org/2000/svg" viewBox="0 -1024 1024 1024">
	<path fill="#cccccc" d="M92 -376H230L56 198C55 201 55 205 55 208C55 227 70 242 89 242C104 242 117 232 121 218L311 -411L276 -446H92C72 -446 56 -431 56 -411C56 -391 72 -376 92 -376Z"/>
	<path fill="#ff22ac" d="M64 230C73 230 84 221 92 208C94 204 97 200 98 196L282 -413C283 -416 283 -421 283 -424C283 -434 279 -443 270 -443H86C77 -443 66 -434 58 -421C53 -413 50 -403 50 -396C50 -387 55 -379 64 -379H227L52 200C51 204 50 209 50 213C50 222 55 230 64 230Z"/>
	<path fill="#11ff90" d="M247 -416H60L50 -406H231L50 193L60 203Z"/>
</svg>