<svg xmlns="http://www.w3.org/2000/svg" viewBox="0 -1024 1024 1024">
	<path fill="#cccccc" d="M155 -366H150C171 -432 204 -495 235 -557C259 -605 283 -652 301 -698C302 -702 304 -706 304 -710C304 -728 289 -743 271 -743C257 -743 245 -734 240 -722L231 -698C175 -553 55 -398 55 -221C55 -213 56 -205 56 -197C62 -106 79 -29 107 -1L143 34C150 41 158 45 166 45C175 45 183 41 191 33L227 -2C256 -31 276 -108 276 -197C276 -258 264 -289 246 -307L211 -342C197 -356 180 -361 164 -365C161 -366 158 -366 155 -366ZM206 -197C206 -126 193 -63 173 -26C171 -25 168 -25 166 -25C164 -25 163 -26 161 -26C143 -63 130 -126 126 -197V-221C126 -250 128 -277 134 -305C142 -299 153 -298 164 -295C173 -293 182 -290 190 -286C199 -267 206 -239 206 -197Z"/>
	<path fill="#ff22ac" d="M261 -730C252 -730 241 -721 233 -708C231 -705 230 -703 229 -700C213 -658 189 -613 165 -565C112 -461 50 -338 50 -206C50 -198 49 -189 50 -181C54 -124 62 -71 75 -31C85 1 99 25 118 36C124 40 131 42 139 42C149 42 160 38 171 30C185 20 198 4 207 -12C221 -36 230 -62 237 -91C246 -127 250 -169 250 -212C250 -295 226 -331 197 -348C185 -355 174 -358 163 -361C162 -361 160 -362 159 -362C150 -362 139 -353 131 -340C126 -332 123 -322 123 -315C123 -307 126 -301 133 -299C144 -296 153 -293 162 -288C183 -276 200 -252 200 -182C200 -143 197 -108 190 -80C185 -58 177 -41 172 -32C169 -26 167 -24 166 -23C165 -23 164 -22 161 -22C159 -22 156 -22 153 -24C143 -30 131 -48 122 -76C111 -111 103 -159 100 -213C100 -220 99 -229 99 -236C99 -346 149 -444 203 -550C227 -598 252 -646 271 -696C273 -702 275 -708 275 -713C275 -722 270 -730 261 -730Z"/>
	<path fill="#11ff90" d="M236 -693L226 -703C170 -558 50 -403 50 -226V-216C50 -208 51 -200 51 -192C58 -78 85 15 126 15H136C177 15 211 -78 211 -192V-202C211 -309 172 -325 134 -335L124 -325C161 -315 200 -300 201 -197C200 -90 169 -2 131 5C93 -2 68 -93 61 -202C61 -208 60 -215 60 -221C62 -396 181 -549 236 -693Z"/>
</svg>