<svg xmlns="http://www.w3.org/2000/svg" viewBox="0 -1024 1024 1024">
	<path fill="#cccccc" d="M88 -62C102 -62 113 -70 118 -82L359 -665C361 -669 362 -674 362 -678C362 -696 347 -710 329 -710C315 -710 304 -702 299 -690L57 -107C55 -103 55 -99 55 -95C55 -77 70 -62 88 -62Z"/>
	<path fill="#ff22ac" d="M317 -697C308 -697 297 -688 289 -675C288 -673 286 -670 285 -668L54 -110C51 -104 50 -97 50 -92C50 -83 55 -75 64 -75C73 -75 84 -84 92 -97C93 -99 95 -102 96 -104L327 -662C330 -668 331 -675 331 -680C331 -689 326 -697 317 -697Z"/>
	<path fill="#11ff90" d="M60 -102L291 -660L281 -670L50 -112Z"/>
</svg>