<svg xmlns="http://www.w3.org/2000/svg" viewBox="0 -1024 1024 1024">
	<path fill="#cccccc" d="M180 -636C180 -645 176 -653 170 -658L152 -672C139 -692 132 -719 127 -746C127 -747 126 -747 126 -748C129 -748 132 -749 135 -749C167 -749 209 -728 251 -706C295 -683 341 -660 380 -659V-34C376 -35 372 -36 367 -39C360 -44 355 -48 349 -52V-74C349 -94 333 -109 313 -109C293 -109 278 -94 278 -74V-40L313 -5C333 8 348 18 367 31C373 35 378 37 383 37C389 37 394 34 399 29L434 -6C440 -12 446 -22 451 -30V-686L453 -697L470 -715C480 -725 490 -740 497 -760C495 -766 492 -771 489 -774L453 -810C450 -813 447 -814 444 -814C441 -814 438 -814 435 -811L400 -775C397 -772 393 -766 392 -758L387 -730C385 -730 385 -729 383 -729C344 -729 296 -754 251 -777C209 -799 167 -819 135 -819C117 -819 103 -817 96 -810L61 -775C57 -771 55 -765 55 -757C55 -754 55 -750 56 -746C62 -711 73 -676 94 -655L129 -620C135 -614 143 -609 153 -609C168 -609 180 -621 180 -636Z"/>
	<path fill="#ff22ac" d="M375 -664V-31C373 -32 372 -33 370 -34C353 -45 338 -54 322 -65V-89C322 -98 318 -106 309 -106C300 -106 288 -97 280 -84C275 -76 273 -66 273 -59V-25C273 -18 275 -13 279 -10C299 4 314 13 333 26C339 30 348 34 356 34C375 34 391 17 400 6C408 -5 412 -11 416 -19C421 -27 424 -37 424 -45V-690C442 -707 457 -733 467 -760C469 -765 470 -770 470 -775C470 -778 470 -780 469 -782C465 -794 459 -803 451 -808C447 -810 444 -811 439 -811C434 -811 428 -810 421 -806C413 -801 405 -791 399 -781C388 -762 388 -748 384 -726H378C370 -726 360 -727 350 -730C320 -737 286 -755 252 -772C210 -794 169 -816 131 -816C118 -816 108 -816 96 -812C88 -809 72 -802 60 -781C54 -770 51 -760 50 -752V-742C50 -736 50 -731 51 -726C58 -686 72 -645 101 -621C103 -619 105 -618 108 -618C117 -618 129 -627 137 -640C142 -648 144 -658 144 -665C144 -671 143 -676 139 -679C121 -694 109 -721 102 -752H108C135 -752 176 -733 218 -711C252 -694 287 -675 321 -667C332 -664 344 -662 355 -662C362 -662 369 -663 375 -664Z"/>
	<path fill="#11ff90" d="M348 -4C345 -5 341 -6 337 -9C318 -22 303 -32 283 -45V-69L273 -79V-35C293 -22 308 -12 327 1C333 5 338 7 343 7H353C368 7 377 -11 385 -25V-681L388 -697C406 -706 420 -725 431 -755C431 -755 433 -760 433 -760C433 -760 431 -765 431 -765C427 -778 420 -784 413 -784H403C396 -784 389 -777 387 -763L378 -707C368 -702 358 -700 347 -699C309 -701 264 -724 221 -746C179 -768 137 -789 105 -789H95C66 -789 50 -784 50 -762V-752C50 -749 50 -745 51 -741C58 -703 70 -665 95 -645L105 -655C80 -675 68 -713 61 -751C61 -753 60 -755 60 -757C62 -774 76 -778 99 -779C131 -778 170 -757 211 -736C256 -713 303 -689 342 -689H352C360 -689 368 -690 375 -692V-691V-35C368 -23 360 -7 348 -4ZM419 -760C411 -740 402 -727 391 -717L397 -753C399 -764 403 -770 408 -773C412 -771 416 -767 419 -760Z"/>
</svg>