<svg xmlns="http://www.w3.org/2000/svg" viewBox="0 -1024 1024 1024">
	<path fill="#cccccc" d="M289 -385C289 -364 290 -346 291 -326C296 -254 307 -77 366 -18L401 17C413 29 428 36 444 36C483 36 515 21 542 -6L577 -41C585 -49 592 -57 599 -67C604 -57 610 -47 616 -37C619 -32 622 -28 626 -24L662 11C675 24 692 30 712 30C723 30 735 28 748 24L783 -11L799 -39C802 -44 803 -48 803 -54C803 -71 789 -85 772 -85C761 -85 751 -78 746 -69L730 -42C724 -41 718 -41 712 -41C701 -41 690 -42 681 -46C664 -76 650 -110 639 -146C669 -229 681 -339 681 -445C681 -580 662 -710 634 -781H563C547 -680 533 -555 533 -431C533 -331 543 -231 568 -146C556 -113 542 -84 524 -61C501 -44 475 -34 444 -34C435 -34 427 -36 420 -40C376 -112 366 -262 362 -326C361 -346 359 -364 359 -385C359 -482 381 -576 381 -673C381 -704 371 -729 356 -744L320 -779C311 -788 301 -794 290 -794C281 -794 271 -790 263 -782L228 -746C222 -740 217 -733 213 -723C208 -722 202 -721 196 -721C177 -721 156 -728 137 -740C131 -750 127 -760 126 -771L125 -779C123 -796 108 -810 90 -810C71 -810 55 -794 55 -775V-771C57 -752 68 -735 82 -721L117 -686C139 -664 169 -650 196 -650C211 -650 225 -654 235 -664L270 -700C275 -705 278 -710 281 -717C282 -719 282 -720 283 -722C285 -722 288 -723 290 -723C294 -723 297 -722 300 -721C306 -708 310 -692 310 -673C310 -576 289 -482 289 -385ZM610 -445C610 -412 610 -378 607 -345C605 -373 604 -402 604 -431C604 -466 605 -502 607 -537C609 -507 610 -476 610 -445Z"/>
	<path fill="#ff22ac" d="M283 -371C283 -356 284 -341 285 -326C289 -270 292 -193 311 -110C324 -52 345 2 382 24C392 30 403 33 416 33C444 33 472 25 497 10C530 -10 558 -42 579 -80C589 -55 601 -32 614 -11C628 11 651 27 684 27C697 27 711 24 725 20C734 17 743 10 749 -1L765 -29C770 -37 772 -47 772 -54C772 -63 768 -71 759 -71C750 -71 738 -62 730 -49C728 -46 726 -42 724 -39C718 -38 713 -37 707 -37C683 -37 667 -47 657 -63C639 -91 625 -124 614 -159C642 -245 654 -350 654 -460C654 -597 635 -729 606 -804C604 -809 600 -814 593 -814C583 -814 571 -804 564 -789C561 -783 559 -777 558 -772C542 -669 528 -543 528 -417C528 -312 537 -219 561 -134C555 -120 549 -108 543 -97C529 -73 515 -57 496 -46C481 -37 462 -31 439 -31C432 -31 424 -33 417 -37C391 -52 372 -97 359 -152C343 -220 338 -299 335 -342C334 -362 333 -380 333 -400C333 -496 354 -590 354 -688C354 -736 336 -769 311 -783C303 -787 294 -790 285 -790C276 -790 267 -788 256 -782C243 -774 229 -759 219 -742C215 -735 212 -728 209 -721C206 -720 200 -717 192 -717C178 -717 160 -723 144 -732C130 -740 118 -750 110 -762C103 -771 100 -781 99 -789C98 -797 94 -803 86 -803C77 -803 65 -794 57 -781C52 -773 50 -763 50 -756V-753C52 -735 59 -720 68 -708C79 -693 93 -680 109 -671C127 -660 149 -654 169 -654H180C198 -656 224 -665 243 -699C246 -705 249 -710 251 -716C253 -720 254 -724 256 -725C257 -726 260 -726 263 -726C267 -726 271 -725 276 -722C292 -713 305 -688 305 -658C305 -562 283 -469 283 -371ZM592 -252C582 -312 577 -376 577 -445C577 -512 582 -580 588 -644C599 -581 605 -505 605 -429C605 -366 601 -307 592 -252Z"/>
	<path fill="#11ff90" d="M284 -390V-380C284 -359 285 -341 286 -321C291 -235 307 6 403 6H413C486 6 535 -47 567 -127C578 -92 593 -60 611 -32C625 -10 646 0 671 0H681C692 0 704 -2 717 -6L733 -34L723 -44L707 -16C696 -13 686 -10 676 -10C653 -11 634 -22 621 -42C602 -73 587 -108 575 -146C604 -229 615 -336 615 -440V-450C615 -585 596 -715 568 -786L561 -804C544 -696 528 -568 528 -436V-426C528 -328 537 -230 561 -147C530 -64 482 -7 409 -4C316 -10 301 -246 296 -331C295 -350 294 -366 294 -385C295 -480 315 -573 315 -668V-678C315 -729 287 -763 259 -763H249C232 -763 216 -751 205 -722C197 -702 181 -692 161 -691C118 -694 66 -730 60 -776L50 -766C56 -718 112 -681 156 -681H166C188 -681 207 -690 215 -712C225 -738 239 -751 254 -753C280 -749 304 -717 305 -671C304 -577 284 -485 284 -390ZM605 -445C605 -347 594 -247 568 -167C546 -247 538 -338 538 -431C538 -545 551 -660 565 -756C588 -683 605 -566 605 -445Z"/>
</svg>