<svg xmlns="http://www.w3.org/2000/svg" viewBox="0 -1024 1024 1024">
	<path fill="#cccccc" d="M162 -664V-692C164 -698 166 -704 169 -709C181 -717 194 -724 207 -729C233 -738 259 -741 288 -741C311 -741 328 -738 340 -733C350 -712 356 -694 375 -675L382 -667L394 -584L388 -455L342 -327C269 -285 197 -242 138 -190L133 -185L98 -150C76 -128 61 -101 55 -74C55 -58 69 0 88 19L124 54C128 58 131 60 135 60C158 60 178 48 197 29L233 -6C263 -36 288 -82 309 -121C323 -148 336 -171 348 -185L396 -281L398 -288C414 -297 430 -307 446 -316C458 -235 493 -155 548 -100L584 -65C627 -22 681 6 747 9C756 9 765 10 773 10C807 10 836 6 855 -13L890 -49C904 -63 912 -84 912 -116C912 -116 912 -117 911 -118L875 -153C869 -159 843 -173 831 -181L795 -187C793 -187 792 -188 790 -188C771 -188 755 -172 755 -153C755 -136 767 -122 784 -119C800 -116 815 -114 831 -111C833 -110 837 -107 841 -105C840 -91 837 -80 833 -70C816 -63 796 -61 773 -61H747C690 -64 642 -86 602 -119C548 -183 518 -271 513 -357C560 -387 603 -420 641 -458L676 -494C740 -558 786 -635 801 -737C802 -742 802 -747 802 -753C802 -764 801 -777 801 -788C801 -791 800 -792 798 -794L763 -830C759 -834 752 -834 744 -834C735 -834 725 -832 717 -832C655 -832 610 -811 575 -776L540 -741C502 -703 478 -650 463 -594L453 -668L439 -682C428 -695 422 -709 416 -722C410 -735 405 -746 396 -755L361 -791C348 -804 327 -811 288 -811C259 -811 233 -808 207 -799C187 -792 164 -779 148 -763L113 -728C103 -718 94 -705 91 -692V-664C91 -617 94 -575 106 -533C106 -531 105 -530 105 -528C105 -526 106 -525 106 -524L112 -504C116 -490 130 -480 145 -480C164 -480 178 -495 178 -514C178 -518 178 -521 177 -524C177 -525 176 -526 176 -528C176 -530 177 -531 177 -533C165 -575 162 -617 162 -664ZM431 -378L442 -409C441 -401 441 -392 441 -384C438 -382 434 -380 431 -378ZM717 -762C720 -762 727 -763 731 -763V-753C731 -747 731 -742 730 -737C717 -644 679 -569 622 -511C591 -479 552 -454 513 -428C515 -521 532 -643 593 -721C625 -746 666 -762 717 -762ZM153 -132C197 -169 248 -201 301 -232L277 -185C265 -171 252 -148 238 -121C221 -90 202 -54 180 -26C168 -17 155 -12 142 -11C132 -35 126 -63 126 -74C131 -94 140 -114 153 -132Z"/>
	<path fill="#ff22ac" d="M101 -516V-514C101 -503 104 -492 115 -492C124 -492 135 -501 143 -514C148 -522 151 -532 151 -539C151 -541 150 -542 150 -543C150 -545 151 -546 151 -548C151 -551 151 -553 150 -555C139 -595 136 -633 136 -678V-699C145 -713 169 -726 187 -733C209 -741 234 -744 262 -744C290 -744 306 -740 316 -734C330 -726 334 -714 342 -697C349 -681 359 -661 379 -643L389 -568L384 -449L340 -328C262 -283 184 -238 117 -179L116 -178C87 -151 62 -112 52 -69C51 -66 50 -62 50 -59C50 -50 52 -43 54 -33C59 -10 68 18 80 36C84 43 89 49 96 53C100 55 104 57 109 57C123 57 138 53 152 45C170 35 187 21 201 5C232 -30 254 -71 276 -112C285 -129 299 -155 308 -166C311 -170 314 -174 316 -178L364 -274C366 -278 367 -282 369 -287C392 -300 415 -313 438 -327C443 -269 459 -213 484 -163C512 -106 553 -58 606 -28C647 -4 690 7 748 7C767 7 785 5 803 0C823 -6 848 -20 866 -52C881 -78 886 -104 886 -131C886 -138 885 -139 884 -141C881 -148 874 -151 868 -155C857 -162 844 -170 834 -176C833 -177 831 -178 829 -178L793 -184H791C782 -184 771 -175 763 -162C758 -154 755 -144 755 -137C755 -128 759 -121 767 -120L800 -115C811 -108 827 -98 836 -92C835 -78 832 -72 832 -72C832 -72 830 -67 815 -62C803 -58 787 -57 768 -57C716 -57 678 -67 641 -88C557 -136 499 -241 488 -358C518 -377 547 -397 575 -419C629 -462 679 -514 717 -579C746 -629 765 -685 774 -746C775 -754 776 -761 776 -768C776 -780 775 -792 775 -803C775 -818 768 -823 763 -826C756 -830 748 -831 740 -831C731 -831 721 -829 713 -829C672 -829 636 -820 603 -802C562 -779 528 -742 504 -700C478 -656 463 -607 453 -560C441 -502 437 -445 437 -397V-383L395 -359L430 -454C432 -459 433 -464 433 -468L439 -597V-598C439 -599 438 -602 438 -603L426 -687C425 -691 424 -695 421 -697C403 -713 396 -729 388 -746C380 -763 372 -782 351 -794C336 -803 314 -808 284 -808C254 -808 226 -805 197 -795C179 -789 160 -779 142 -765C128 -754 113 -739 101 -718C96 -709 91 -698 88 -688C87 -684 86 -680 86 -677V-649C86 -601 89 -559 101 -516ZM691 -765C700 -765 709 -767 718 -767C721 -767 723 -766 725 -766C725 -757 726 -747 726 -739V-728C719 -677 703 -635 682 -599C654 -551 615 -509 566 -470C541 -450 514 -432 486 -414C486 -418 487 -421 487 -425C487 -470 490 -523 501 -573C509 -613 522 -651 539 -680C555 -707 574 -728 602 -744C625 -757 654 -765 691 -765ZM100 -85C106 -104 115 -118 129 -131C179 -175 242 -215 308 -253L281 -198C265 -177 253 -153 240 -129C223 -97 200 -58 180 -35C171 -25 163 -18 154 -13C147 -9 141 -7 132 -7C130 -8 126 -11 123 -16C114 -30 106 -56 102 -74C101 -78 100 -82 100 -85Z"/>
	<path fill="#11ff90" d="M100 -530V-523C100 -521 101 -520 101 -519L110 -528V-523C110 -527 111 -531 112 -534L111 -538C99 -579 96 -619 96 -664V-687C105 -721 144 -747 177 -759C201 -768 225 -771 252 -771C316 -770 327 -746 340 -717C348 -700 356 -680 377 -663L389 -581L383 -460L330 -312C247 -265 164 -218 98 -160C73 -137 57 -108 50 -79V-69C50 -49 71 30 95 30H105C164 30 208 -52 243 -116C257 -143 270 -166 282 -180L330 -276L340 -302C372 -320 404 -340 436 -359C443 -200 539 -30 707 -21C716 -21 725 -20 733 -20H743C802 -20 846 -35 846 -111V-121C846 -125 812 -144 801 -151L765 -157L755 -147L791 -141C803 -133 833 -117 836 -112C833 -46 792 -31 738 -30C731 -30 724 -31 717 -31C550 -40 455 -207 447 -365C587 -451 710 -553 735 -732C736 -737 736 -742 736 -748V-758C736 -769 735 -782 735 -793C735 -802 725 -804 714 -804H704C695 -804 685 -802 677 -802C473 -802 437 -563 437 -415C436 -406 436 -396 436 -387V-377V-375C407 -357 377 -339 347 -322L393 -450L399 -587L387 -673C366 -690 358 -710 350 -727C337 -757 326 -781 258 -781H248C219 -781 193 -778 167 -769C134 -757 95 -731 86 -697V-669V-659C86 -613 88 -572 100 -530ZM725 -783C725 -773 726 -764 726 -754C726 -750 726 -746 725 -742C700 -567 582 -466 446 -381V-382C446 -390 447 -398 447 -405C447 -553 483 -792 687 -792C693 -792 702 -794 709 -794C718 -793 725 -790 725 -783ZM61 -71C68 -99 84 -128 108 -150C170 -204 245 -249 322 -293L320 -286L272 -190C260 -176 247 -153 233 -126C199 -64 157 14 102 20C81 15 64 -45 61 -71Z"/>
</svg>