<svg xmlns="http://www.w3.org/2000/svg" viewBox="0 -1024 1024 1024">
	<path fill="#cccccc" d="M714 -725C714 -731 713 -735 710 -738L674 -773C671 -776 666 -777 660 -777C651 -777 642 -775 633 -775C628 -776 624 -777 620 -777C608 -777 599 -773 592 -766L556 -730C543 -717 537 -695 537 -675C537 -671 537 -666 538 -662C530 -641 528 -620 528 -598C528 -576 530 -554 532 -533C533 -519 536 -491 544 -479L568 -377L569 -369C568 -368 567 -366 566 -365C537 -342 501 -328 464 -328C454 -328 445 -329 435 -331C417 -331 406 -334 396 -340C395 -341 394 -343 393 -344C341 -402 331 -476 331 -553C331 -574 332 -596 333 -617V-631C333 -663 334 -688 334 -716C334 -736 333 -750 328 -755L292 -790C290 -792 288 -792 286 -792C273 -792 248 -771 201 -724C177 -724 153 -728 133 -738C129 -748 126 -759 126 -773V-779C126 -799 110 -814 90 -814C70 -814 55 -799 55 -779V-773C55 -748 63 -730 76 -717L111 -682C132 -661 167 -654 201 -654C229 -681 249 -699 263 -710C263 -683 262 -661 262 -631V-617C261 -596 260 -574 260 -553C260 -476 270 -402 322 -344C326 -340 329 -336 332 -332C348 -313 365 -298 382 -281C395 -268 408 -261 435 -261C445 -259 454 -258 464 -258C507 -258 549 -276 580 -305C588 -257 594 -209 601 -161L607 -80V-54C582 -45 549 -44 524 -44C520 -44 516 -43 512 -43C481 -43 454 -51 432 -64L441 -69L477 -104C479 -111 483 -116 483 -125C483 -137 473 -165 460 -178L425 -214C421 -218 416 -220 411 -220C405 -220 399 -217 394 -212L358 -176C347 -165 340 -147 340 -137C340 -98 353 -67 375 -45L410 -10C434 14 470 27 512 27H516C555 26 607 27 633 1L668 -34C672 -38 676 -42 678 -47V-80L672 -161C667 -231 651 -301 640 -369C649 -382 657 -395 663 -410C703 -476 700 -555 714 -638C715 -647 716 -656 716 -666C716 -685 714 -706 714 -725ZM644 -705C645 -692 645 -679 645 -666C645 -656 644 -647 643 -638C633 -581 632 -522 617 -469L615 -479C607 -491 604 -519 603 -533C601 -554 598 -576 598 -598C598 -620 601 -641 609 -662C608 -666 608 -671 608 -675C608 -685 610 -696 613 -706C615 -706 618 -707 620 -707C624 -707 628 -706 633 -705ZM412 -125L411 -124V-135C412 -131 412 -128 412 -125Z"/>
	<path fill="#ff22ac" d="M257 -616V-603C256 -582 256 -561 256 -540C256 -459 267 -378 322 -316C335 -301 347 -284 364 -274C375 -267 389 -264 407 -264C417 -262 428 -261 438 -261C485 -261 531 -280 570 -316C580 -259 588 -201 597 -143L602 -64V-52C579 -41 540 -40 508 -40C470 -40 438 -52 417 -71L424 -74C435 -79 443 -91 448 -105C450 -110 457 -126 457 -140C457 -148 456 -153 454 -160C452 -168 448 -176 444 -184C438 -195 432 -207 421 -213C417 -215 413 -217 407 -217C396 -217 383 -210 372 -200C363 -192 356 -182 351 -173C342 -157 335 -139 335 -122C335 -61 362 -20 401 3C425 17 453 24 485 24H490C517 23 545 24 575 16C604 8 627 -8 643 -35C647 -43 652 -53 652 -62V-94V-97L646 -178C646 -179 645 -179 645 -180C636 -245 627 -310 616 -373C622 -383 627 -393 631 -403C647 -431 657 -460 664 -487C677 -541 678 -592 687 -646C689 -658 690 -669 690 -680C690 -700 688 -721 688 -740C688 -763 677 -774 657 -774C648 -774 640 -772 631 -772C626 -773 621 -774 616 -774C609 -774 602 -773 595 -770C579 -764 562 -748 551 -729C543 -714 538 -700 535 -687C533 -678 532 -669 532 -660C532 -657 533 -655 533 -652C525 -627 523 -609 523 -583C523 -559 526 -538 528 -516C530 -498 532 -469 541 -455L561 -368C537 -344 501 -325 460 -325C451 -325 443 -326 434 -328H431C415 -328 407 -331 399 -335C390 -340 383 -348 373 -360C370 -364 366 -368 362 -372C314 -426 305 -492 305 -566C305 -587 306 -608 307 -630V-632V-645C307 -676 308 -703 308 -731C308 -740 308 -748 307 -755C305 -770 301 -789 282 -789C271 -789 260 -783 249 -775C232 -763 213 -745 188 -721C166 -722 145 -726 129 -735C110 -746 100 -764 100 -788V-794C100 -803 95 -811 86 -811C77 -811 66 -802 58 -789C53 -781 50 -771 50 -764V-758C50 -714 69 -689 94 -675C117 -662 147 -657 175 -657C181 -657 188 -661 194 -667C217 -690 235 -706 246 -715C251 -719 256 -723 258 -724C259 -719 259 -709 259 -702C259 -674 257 -648 257 -616ZM607 -708C616 -708 625 -710 633 -710C636 -710 637 -709 638 -709C638 -690 640 -670 640 -652C640 -643 640 -636 639 -630C628 -563 627 -488 603 -436L588 -500L585 -506C580 -513 578 -539 577 -550C575 -570 572 -593 572 -613C572 -631 575 -649 579 -661C581 -667 583 -671 583 -676C583 -680 582 -685 582 -689C582 -696 583 -704 585 -708C586 -709 589 -710 593 -710C596 -710 599 -710 603 -709C604 -709 606 -708 607 -708ZM405 -120C401 -116 397 -109 394 -103C388 -117 385 -133 385 -150C385 -151 386 -152 386 -153C390 -151 395 -144 399 -135C402 -130 404 -125 405 -120Z"/>
	<path fill="#11ff90" d="M257 -636V-626V-620C256 -599 255 -558 255 -558V-548C255 -471 265 -397 317 -339C321 -335 324 -331 327 -327C347 -304 358 -291 395 -291C405 -289 414 -288 424 -288H434C485 -288 533 -314 566 -353C577 -288 586 -222 596 -156L602 -75V-52C582 -13 521 -14 477 -13C403 -15 348 -59 345 -135C347 -149 360 -174 376 -179C391 -173 405 -142 407 -125C406 -119 403 -114 401 -109L389 -103L399 -93L411 -99C413 -106 417 -111 417 -120V-130C417 -146 400 -190 381 -190H371C352 -190 335 -157 335 -142V-132C335 -50 393 -3 472 -3H482H486C530 -4 592 -3 612 -42V-85L606 -166C601 -233 587 -300 576 -366C585 -378 592 -391 597 -405C637 -471 634 -550 648 -633C649 -642 650 -651 650 -661V-671C650 -690 648 -711 648 -730C648 -744 640 -747 630 -747H620C614 -747 608 -745 602 -745C598 -746 593 -747 589 -747H579C546 -747 532 -711 532 -680V-670V-665C525 -646 523 -606 523 -603V-593C523 -571 525 -549 527 -528C528 -514 531 -486 539 -474L563 -372C531 -330 482 -300 429 -298C421 -298 413 -299 405 -301C368 -301 357 -314 337 -337C334 -341 331 -345 327 -349C276 -406 265 -478 265 -553C265 -573 266 -594 267 -614V-631C267 -660 268 -685 268 -711V-721C268 -747 266 -762 256 -762H246C233 -762 208 -740 161 -694C109 -696 60 -716 60 -778V-774L50 -784V-768C50 -702 106 -684 161 -684H171C212 -724 236 -746 250 -751C256 -747 258 -735 258 -716C258 -689 257 -666 257 -636ZM638 -720C638 -702 640 -684 640 -666C640 -658 639 -650 638 -643C624 -560 627 -481 587 -415C583 -405 578 -394 572 -385L549 -484C541 -496 538 -524 537 -538C535 -558 533 -578 533 -598C533 -619 537 -640 544 -660C543 -665 542 -670 542 -675C543 -703 557 -734 585 -737C588 -737 590 -736 593 -735H603C610 -735 618 -736 625 -736C633 -735 638 -732 638 -720Z"/>
</svg>