<svg xmlns="http://www.w3.org/2000/svg" viewBox="0 -1024 1024 1024">
	<path fill="#cccccc" d="M55 -205C55 -118 75 -44 103 -16L138 20C146 28 153 31 162 31C171 31 179 28 187 20L222 -16C250 -44 270 -118 270 -205C270 -292 250 -366 222 -394L187 -430C179 -438 171 -441 162 -441C153 -441 146 -438 138 -430L103 -394C75 -366 55 -292 55 -205ZM126 -205C126 -273 137 -334 156 -370C158 -370 160 -371 162 -371C164 -371 166 -370 168 -370C187 -334 199 -273 199 -205C199 -137 187 -76 168 -40C166 -40 164 -39 162 -39C160 -39 158 -40 156 -40C137 -76 126 -137 126 -205Z"/>
	<path fill="#ff22ac" d="M50 -190C50 -133 58 -82 71 -43C82 -12 96 11 115 22C121 26 128 28 136 28C146 28 157 24 168 16C182 6 193 -8 202 -24C216 -47 224 -74 231 -102C239 -137 244 -178 244 -220C244 -277 236 -328 223 -367C212 -398 198 -421 179 -432C173 -436 166 -438 158 -438C148 -438 137 -434 126 -426C112 -416 101 -402 92 -386C78 -363 70 -336 63 -308C55 -273 50 -232 50 -190ZM100 -220C100 -258 104 -292 110 -319C115 -341 121 -358 126 -366C129 -371 132 -373 132 -373C132 -373 133 -374 136 -374C138 -374 141 -373 144 -371C154 -365 167 -348 176 -321C187 -288 194 -241 194 -190C194 -152 190 -118 184 -91C179 -69 173 -52 168 -44C165 -39 162 -37 162 -37C162 -37 161 -36 158 -36C156 -36 153 -37 150 -39C140 -45 127 -62 118 -89C107 -122 100 -169 100 -220Z"/>
	<path fill="#11ff90" d="M50 -210V-200C50 -89 82 1 122 1H132C172 1 204 -89 204 -200V-210C204 -321 172 -411 132 -411H122C82 -411 50 -321 50 -210ZM127 -401C164 -394 193 -309 194 -205C193 -101 164 -16 127 -9C90 -16 61 -101 60 -205C61 -309 90 -394 127 -401Z"/>
</svg>