<svg xmlns="http://www.w3.org/2000/svg" viewBox="0 -1024 1024 1024">
	<path fill="#000088" d="M565 -227Q565 -225 565 -220Q565 -215 565 -213Q565 -185 562 -170Q545 -89 503 -46L468 -11Q439 18 404 18Q372 18 318 7Q264 -4 248 -6Q228 -8 213 -23L178 -58Q171 -65 165 -75Q154 -63 107 -16Q80 11 50 33Q42 39 33 39Q21 39 13 30.5Q5 22 5 11Q5 -3 16 -12Q70 -53 89 -70Q115 -98 138 -131Q124 -165 114 -179Q113 -180 99 -233L84 -341L78 -527Q86 -608 96 -713Q97 -717 101.5 -729.5Q106 -742 108.5 -748Q111 -754 115.5 -763Q120 -772 126 -779Q129 -783 135.5 -795.5Q142 -808 148 -813L183 -849Q189 -855 197 -856Q215 -856 228 -844L263 -809Q271 -801 276.5 -787.5Q282 -774 284.5 -764.5Q287 -755 290.5 -736Q294 -717 295 -710Q320 -599 320 -535Q320 -534 319.5 -530Q319 -526 319 -524Q320 -498 320 -491Q320 -419 304 -348Q309 -355 314 -360L350 -395Q361 -406 368 -406Q404 -406 427.5 -399Q451 -392 471 -372L506 -337Q511 -332 517 -325L534 -368Q535 -381 537 -410Q538 -423 548 -432.5Q558 -442 572 -442Q587 -442 597 -431.5Q607 -421 607 -407Q607 -405 607 -404L604 -368L574 -293Q571 -285 553 -270Q565 -247 565 -227ZM249 -535Q249 -599 225 -710Q223 -717 220 -733.5Q217 -750 214.5 -762Q212 -774 207 -785Q204 -785 201 -786Q198 -782 196 -779Q191 -772 186.5 -763Q182 -754 179.5 -748Q177 -742 172.5 -729.5Q168 -717 166 -713Q157 -608 148 -527L154 -341L169 -233Q171 -227 174 -215.5Q177 -204 179 -199Q250 -337 250 -491Q250 -498 249 -524Q249 -526 249 -530Q249 -534 249 -535ZM495 -227Q495 -233 493 -240Q481 -239 458 -231Q442 -224 423 -224Q404 -224 383 -231Q366 -231 354 -243L319 -278Q308 -289 296 -319Q268 -216 209 -131Q224 -94 232 -81Q240 -77 248 -76Q264 -74 318 -63Q372 -52 404 -52Q428 -53 449 -67Q479 -108 492 -170Q495 -185 495 -213Q495 -215 495 -220Q495 -225 495 -227ZM458 -301Q460 -302 462 -303Q456 -313 453 -316Q424 -336 368 -336Q368 -336 367 -336Q364 -330 364 -326Q371 -309 374 -302Q378 -301 383 -301Q404 -295 423 -295Q442 -295 458 -301Z"/>
	<path fill="#800080" d="M516 -227Q516 -225 516 -220Q516 -215 516 -213Q516 -185 513 -170Q496 -89 454 -46L419 -11Q390 18 355 18Q323 18 269 7Q215 -4 199 -6Q179 -8 164 -23L129 -58Q122 -65 116 -75Q105 -63 58 -16Q31 11 1 33Q-7 39 -16 39Q-28 39 -36 30.5Q-44 22 -44 11Q-44 -3 -33 -12Q21 -53 40 -70Q66 -98 89 -131Q75 -165 65 -179Q64 -180 50 -233L35 -341L29 -527Q37 -608 47 -713Q48 -717 52.5 -729.5Q57 -742 59.5 -748Q62 -754 66.5 -763Q71 -772 77 -779Q80 -783 86.5 -795.5Q93 -808 99 -813L134 -849Q140 -855 148 -856Q166 -856 179 -844L214 -809Q222 -801 227.5 -787.5Q233 -774 235.5 -764.5Q238 -755 241.5 -736Q245 -717 246 -710Q271 -599 271 -535Q271 -534 270.5 -530Q270 -526 270 -524Q271 -498 271 -491Q271 -419 255 -348Q260 -355 265 -360L301 -395Q312 -406 319 -406Q355 -406 378.5 -399Q402 -392 422 -372L457 -337Q462 -332 468 -325L485 -368Q486 -381 488 -410Q489 -423 499 -432.5Q509 -442 523 -442Q538 -442 548 -431.5Q558 -421 558 -407Q558 -405 558 -404L555 -368L525 -293Q522 -285 504 -270Q516 -247 516 -227ZM200 -535Q200 -599 176 -710Q174 -717 171 -733.5Q168 -750 165.5 -762Q163 -774 158 -785Q155 -785 152 -786Q149 -782 147 -779Q142 -772 137.5 -763Q133 -754 130.5 -748Q128 -742 123.5 -729.5Q119 -717 117 -713Q108 -608 99 -527L105 -341L120 -233Q122 -227 125 -215.5Q128 -204 130 -199Q201 -337 201 -491Q201 -498 200 -524Q200 -526 200 -530Q200 -534 200 -535ZM446 -227Q446 -233 444 -240Q432 -239 409 -231Q393 -224 374 -224Q355 -224 334 -231Q317 -231 305 -243L270 -278Q259 -289 247 -319Q219 -216 160 -131Q175 -94 183 -81Q191 -77 199 -76Q215 -74 269 -63Q323 -52 355 -52Q379 -53 400 -67Q430 -108 443 -170Q446 -185 446 -213Q446 -215 446 -220Q446 -225 446 -227ZM409 -301Q411 -302 413 -303Q407 -313 404 -316Q375 -336 319 -336Q319 -336 318 -336Q315 -330 315 -326Q322 -309 325 -302Q329 -301 334 -301Q355 -295 374 -295Q393 -295 409 -301Z"/>
	<path fill="#daa520" d="M254 -535Q254 -598 230 -709Q229 -715 226 -731.5Q223 -748 221 -756.5Q219 -765 214.5 -778Q210 -791 205 -798Q200 -805 191.5 -810.5Q183 -816 172 -816Q166 -815 160.5 -808Q155 -801 149 -790.5Q143 -780 140 -776Q130 -763 111 -712Q102 -608 93 -527L99 -341L114 -234Q128 -182 129 -181Q138 -168 149 -141Q255 -299 255 -491Q255 -507 254 -524Q254 -526 254 -529.5Q254 -533 254 -535ZM343 -366Q336 -366 325 -353Q311 -337 309 -327Q316 -308 320.5 -299Q325 -290 335 -280.5Q345 -271 358 -271Q359 -271 359 -271Q380 -265 398 -265Q416 -265 431 -271Q456 -280 469 -280H481Q477 -287 465 -305Q440 -342 414 -354Q388 -366 343 -366ZM510 -213Q510 -184 507 -169Q501 -143 491.5 -118Q482 -93 467 -68Q452 -43 429 -27.5Q406 -12 379 -12Q347 -12 292.5 -23Q238 -34 222 -36Q208 -38 196 -45.5Q184 -53 175 -67Q166 -81 160.5 -91.5Q155 -102 147 -121Q96 -49 28 2Q27 3 25 3Q20 3 20 -2Q20 -4 22 -6Q91 -58 143 -132Q129 -163 120 -176Q119 -177 119 -178Q119 -179 104 -232L89 -340Q89 -341 89 -341L83 -527V-528Q92 -607 101 -713Q101 -714 101 -715Q103 -719 107.5 -731.5Q112 -744 114.5 -750Q117 -756 121.5 -765.5Q126 -775 132 -782Q135 -786 141 -798Q147 -810 154 -817Q161 -824 171 -826Q172 -826 172 -826Q186 -826 197 -819Q208 -812 214 -803.5Q220 -795 225 -779Q230 -763 231.5 -755Q233 -747 236 -730Q239 -717 240 -711Q264 -599 264 -535Q264 -529 264 -524Q265 -507 265 -491Q265 -395 236.5 -302Q208 -209 154 -130Q165 -104 172 -90Q179 -76 193 -62Q207 -48 224 -46Q240 -44 293.5 -33Q347 -22 379 -22Q410 -23 436 -48Q462 -73 476 -104.5Q490 -136 497 -171Q500 -185 500 -213Q500 -215 500 -220Q500 -225 500 -227Q500 -246 487 -270H469Q458 -270 435 -261Q418 -255 398 -255Q379 -255 357 -261Q345 -261 335.5 -266.5Q326 -272 319 -282.5Q312 -293 309 -300Q306 -307 301 -321Q299 -325 299 -326Q299 -339 317 -359Q332 -376 343 -376Q390 -376 418.5 -362.5Q447 -349 473 -311Q488 -289 492 -281Q494 -282 510 -296L539 -369L542 -404Q542 -409 547 -409Q552 -409 552 -404L549 -368Q549 -367 549 -366L519 -291Q518 -290 517 -289Q515 -288 508 -281.5Q501 -275 497 -272Q510 -248 510 -227Q510 -225 510 -220Q510 -215 510 -213Z"/>
</svg>