<svg xmlns="http://www.w3.org/2000/svg" viewBox="0 -1024 1024 1024">
	<path fill="#000088" d="M237 -520Q237 -583 213 -695Q211 -702 208 -719.5Q205 -737 202 -749.5Q199 -762 194 -773Q188 -770 184 -763Q181 -757 176.5 -744.5Q172 -732 171 -728Q161 -623 153 -542L159 -356L174 -248Q175 -242 178 -231.5Q181 -221 182 -216Q238 -341 238 -475Q238 -482 237 -509Q237 -511 237 -514.5Q237 -518 237 -520ZM483 -212Q483 -219 481 -227Q470 -224 463 -221Q446 -215 427.5 -215Q409 -215 388 -221Q377 -221 368 -226L316 -256Q300 -265 288 -294Q269 -239 239 -188L214 -144Q232 -101 243 -85Q252 -84 306 -73Q360 -62 392 -62Q432 -63 463 -100Q474 -126 480 -155Q483 -169 483 -197Q483 -200 483 -204.5Q483 -209 483 -212ZM411 -305Q424 -305 435 -308Q430 -315 424 -321Q405 -326 375 -326Q379 -315 383 -308Q398 -305 411 -305ZM570 -228Q570 -200 567 -185Q556 -136 534 -97L499 -37Q462 27 409 28Q377 28 322.5 17Q268 6 253 4Q241 3 231 -3L179 -33Q167 -40 156 -56Q111 1 55 43L5 -23L38 -47Q83 -82 122 -126Q111 -151 102 -164Q101 -165 87 -218L72 -326L66 -512Q74 -591 84 -698Q101 -743 106 -752L141 -813Q143 -817 150 -826L161 -845Q172 -864 185 -866Q197 -866 206 -861L258 -831Q270 -824 278 -807.5Q286 -791 289 -778.5Q292 -766 296 -744Q298 -731 300 -725Q324 -614 324 -550Q324 -549 324 -545Q324 -541 324 -539Q325 -513 325 -506Q325 -433 307 -360L322 -385Q329 -397 339 -406.5Q349 -416 356 -416Q407 -416 435 -400L487 -370Q503 -361 518 -344L522 -353Q525 -389 528 -426L612 -419L609 -383L579 -308Q571 -289 563 -274Q570 -257 570 -242Q570 -240 570 -235Q570 -230 570 -228Z"/>
	<path fill="#800080" d="M516 -227Q516 -225 516 -220Q516 -215 516 -213Q516 -185 513 -170Q496 -89 454 -46L419 -11Q390 18 355 18Q323 18 269 7Q215 -4 199 -6Q179 -8 164 -23L129 -58Q122 -65 116 -75Q105 -63 58 -16Q31 11 1 33Q-7 39 -16 39Q-28 39 -36 30.5Q-44 22 -44 11Q-44 -3 -33 -12Q21 -53 40 -70Q66 -98 89 -131Q75 -165 65 -179Q64 -180 50 -233L35 -341L29 -527Q37 -608 47 -713Q48 -717 52.5 -729.5Q57 -742 59.5 -748Q62 -754 66.5 -763Q71 -772 77 -779Q80 -783 86.5 -795.5Q93 -808 99 -813L134 -849Q140 -855 148 -856Q166 -856 179 -844L214 -809Q222 -801 227.5 -787.5Q233 -774 235.5 -764.5Q238 -755 241.5 -736Q245 -717 246 -710Q271 -599 271 -535Q271 -534 270.5 -530Q270 -526 270 -524Q271 -498 271 -491Q271 -419 255 -348Q260 -355 265 -360L301 -395Q312 -406 319 -406Q355 -406 378.5 -399Q402 -392 422 -372L457 -337Q462 -332 468 -325L485 -368L488 -410Q489 -423 499 -432.5Q509 -442 523 -442Q538 -442 548 -431.5Q558 -421 558 -407Q558 -405 558 -404L555 -368L525 -293Q522 -285 504 -270Q516 -247 516 -227ZM200 -535Q200 -599 176 -710Q174 -717 171 -733.5Q168 -750 165.5 -762Q163 -774 158 -785Q155 -785 152 -786Q149 -782 147 -779Q142 -772 137.5 -763Q133 -754 130.5 -748Q128 -742 123.5 -729.5Q119 -717 117 -713Q108 -608 99 -527L105 -341L120 -233Q122 -227 125 -215.5Q128 -204 130 -199Q201 -337 201 -491Q201 -498 200 -524Q200 -526 200 -530Q200 -534 200 -535ZM446 -227Q446 -233 444 -240Q432 -239 409 -231Q393 -224 374 -224Q355 -224 334 -231Q317 -231 305 -243L270 -278Q259 -289 247 -319Q219 -216 160 -131Q175 -94 183 -81Q191 -77 199 -76Q215 -74 269 -63Q323 -52 355 -52Q379 -53 400 -67Q430 -108 443 -170Q446 -185 446 -213Q446 -215 446 -220Q446 -225 446 -227ZM409 -301Q411 -302 413 -303Q407 -313 404 -316Q375 -336 319 -336Q319 -336 318 -336Q315 -330 315 -326Q322 -309 325 -302Q329 -301 334 -301Q355 -295 374 -295Q393 -295 409 -301Z"/>
	<path fill="#daa520" d="M264 -535Q264 -598 240 -709Q239 -715 236 -731.5Q233 -748 231 -756.5Q229 -765 224.5 -778Q220 -791 215 -798Q210 -805 201.5 -810.5Q193 -816 182 -816Q176 -815 170.5 -808Q165 -801 159 -790.5Q153 -780 150 -776Q140 -763 121 -712Q112 -608 103 -527L109 -341L124 -234Q138 -182 139 -181Q148 -168 159 -141Q265 -299 265 -491Q265 -507 264 -524Q264 -526 264 -529.5Q264 -533 264 -535ZM353 -366Q346 -366 335 -353Q321 -337 319 -327Q326 -308 330.5 -299Q335 -290 345 -280.5Q355 -271 368 -271Q369 -271 369 -271Q390 -265 408 -265Q426 -265 441 -271Q466 -280 479 -280H491Q487 -287 475 -305Q450 -342 424 -354Q398 -366 353 -366ZM520 -213Q520 -184 517 -169Q511 -143 501.5 -118Q492 -93 477 -68Q462 -43 439 -27.5Q416 -12 389 -12Q357 -12 302.5 -23Q248 -34 232 -36Q218 -38 206 -45.5Q194 -53 185 -67Q176 -81 170.5 -91.5Q165 -102 157 -121Q106 -49 38 2Q37 3 35 3Q30 3 30 -2Q30 -4 32 -6Q101 -58 153 -132Q139 -163 130 -176Q129 -177 129 -178Q129 -179 114 -232L99 -340Q99 -341 99 -341L93 -527V-528Q102 -607 111 -713Q111 -714 111 -715Q113 -719 117.5 -731.5Q122 -744 124.5 -750Q127 -756 131.5 -765.5Q136 -775 142 -782Q145 -786 151 -798Q157 -810 164 -817Q171 -824 181 -826Q182 -826 182 -826Q196 -826 207 -819Q218 -812 224 -803.5Q230 -795 235 -779Q240 -763 241.5 -755Q243 -747 246 -730Q249 -717 250 -711Q274 -599 274 -535Q274 -529 274 -524Q275 -507 275 -491Q275 -395 246.5 -302Q218 -209 164 -130Q175 -104 182 -90Q189 -76 203 -62Q217 -48 234 -46Q250 -44 303.5 -33Q357 -22 389 -22Q420 -23 446 -48Q472 -73 486 -104.5Q500 -136 507 -171Q510 -185 510 -213Q510 -215 510 -220Q510 -225 510 -227Q510 -246 497 -270H479Q468 -270 445 -261Q428 -255 408 -255Q389 -255 367 -261Q355 -261 345.5 -266.5Q336 -272 329 -282.5Q322 -293 319 -300Q316 -307 311 -321Q309 -325 309 -326Q309 -339 327 -359Q342 -376 353 -376Q400 -376 428.5 -362.5Q457 -349 483 -311Q498 -289 502 -281Q504 -282 520 -296L549 -369L552 -404Q552 -409 557 -409Q562 -409 562 -404L559 -368Q559 -367 559 -366L529 -291Q528 -290 527 -289Q525 -288 518 -281.5Q511 -275 507 -272Q520 -248 520 -227Q520 -225 520 -220Q520 -215 520 -213Z"/>
</svg>