<svg xmlns="http://www.w3.org/2000/svg" viewBox="0 -1024 1024 1024">
	<path fill="#000088" d="M345 -238Q345 -255 342 -275Q332 -332 318 -353Q301 -356 280 -356Q231 -356 202 -332Q192 -293 192 -206Q197 -188 203 -169Q305 -181 343 -212Q345 -224 345 -238ZM277 -41Q282 -41 287 -41Q366 -53 416 -107Q405 -135 395 -169L383 -148Q366 -118 330 -103.5Q294 -89 240 -81Q253 -57 268 -41Q273 -41 277 -41ZM434 -477L435 -431Q449 -330 455 -300Q452 -376 434 -477ZM388 -816Q391 -816 395 -814L447 -784Q471 -770 480 -716Q486 -680 504 -595Q522 -510 532 -443.5Q542 -377 543 -314Q545 -209 506 -132Q527 -79 549 -50Q557 -51 565.5 -53Q574 -55 584.5 -59Q595 -63 600 -64L636 -136L693 -107L657 -35Q627 24 622 25Q616 27 604 31Q592 35 582 37.5Q572 40 562 40Q551 40 540 34L488 4Q469 -7 450 -37Q398 36 304 49Q299 50 294 50Q276 50 259 40L207 10Q172 -10 143 -70Q76 -62 40 -46L5 -129L23 -137Q56 -151 110 -158Q107 -167 105 -176Q105 -214 106 -237Q107 -260 112.5 -288.5Q118 -317 129 -336L164 -397Q193 -446 263 -446Q307 -446 331 -432L347 -423L342 -614L357 -755Q360 -779 369 -797.5Q378 -816 388 -816Z"/>
	<path fill="#800080" d="M241 -366Q203 -366 178 -352Q162 -324 157.5 -286.5Q153 -249 153 -191Q158 -174 163 -157Q269 -169 309 -193Q323 -218 323 -253Q323 -270 320 -290Q312 -336 303 -355Q280 -366 241 -366ZM255 -31Q260 -31 265 -31Q326 -40 370 -75Q385 -93 396 -116Q384 -146 373 -183Q369 -178 364 -174L329 -139Q293 -103 189 -90Q202 -63 216 -43Q235 -31 255 -31ZM391 -593L396 -416Q398 -407 401 -383Q404 -359 405 -351.5Q406 -344 409 -326Q412 -308 414.5 -296.5Q417 -285 421 -267.5Q425 -250 430 -232Q434 -264 434 -299Q431 -398 391 -593ZM363 -807Q372 -807 380 -799L415 -763Q434 -744 441 -701Q447 -665 465 -579.5Q483 -494 493 -428Q503 -362 504 -299Q504 -191 467 -116Q485 -73 503 -46Q513 -40 523 -40Q537 -40 562 -49L598 -120Q607 -137 626 -137Q639 -137 648.5 -128Q658 -119 658 -106Q658 -98 654 -92L618 -20Q603 10 583 15Q577 17 565 21Q553 25 543 27.5Q533 30 523 30Q504 30 485 11L450 -24Q438 -36 425 -57Q425 -56 389 -20Q340 29 265 39Q260 40 255 40Q225 40 198 13L162 -23Q141 -44 122 -82Q40 -73 1 -56Q-5 -54 -12 -54Q-25 -54 -34.5 -63.5Q-44 -73 -44 -86Q-44 -108 -24 -116L1 -127Q35 -141 95 -149Q88 -170 83 -191Q83 -236 84.5 -263Q86 -290 95.5 -322Q105 -354 123 -372L158 -407Q187 -436 241 -436Q299 -436 323 -412L327 -408L326 -416L320 -629L335 -770Q336 -785 344.5 -796Q353 -807 363 -807Z"/>
	<path fill="#daa520" d="M387 -253Q387 -270 384 -289Q375 -343 362 -362Q341 -396 275 -396Q251 -396 232.5 -390Q214 -384 201.5 -374.5Q189 -365 180.5 -348.5Q172 -332 167.5 -317Q163 -302 160.5 -278Q158 -254 157.5 -236.5Q157 -219 157 -192Q166 -157 178 -125Q203 -128 214.5 -129Q226 -130 248 -133.5Q270 -137 281 -140Q292 -143 309.5 -148.5Q327 -154 336 -160Q345 -166 356.5 -175Q368 -184 373.5 -195.5Q379 -207 383 -221.5Q387 -236 387 -253ZM498 -299Q496 -362 486.5 -428Q477 -494 459 -579Q441 -664 435 -700Q431 -723 422 -741Q416 -755 408 -761L394 -629L400 -416L412 -330Q428 -228 466 -129Q498 -199 498 -299ZM171 -114Q77 -104 37 -87Q36 -87 35 -87Q30 -87 30 -92Q30 -95 33 -96Q75 -114 168 -124Q156 -155 147 -190Q147 -190 147 -191Q147 -219 147.5 -236Q148 -253 150.5 -278.5Q153 -304 158 -319.5Q163 -335 172.5 -353.5Q182 -372 195 -382Q208 -392 228.5 -399Q249 -406 275 -406Q346 -406 371 -368Q385 -346 394 -291Q397 -271 397 -253Q397 -235 393 -219Q389 -203 383 -191Q377 -179 364.5 -169Q352 -159 342.5 -152Q333 -145 314.5 -139Q296 -133 284.5 -130Q273 -127 251 -123.5Q229 -120 217.5 -119Q206 -118 182 -115Q195 -81 211 -57Q247 0 289 0Q294 0 298 -1Q409 -17 460 -116Q419 -218 402 -328L390 -415V-416L384 -629V-630L399 -771Q400 -775 404 -775Q405 -775 406 -775Q421 -768 431 -746Q441 -724 445 -702Q451 -666 469 -580.5Q487 -495 496.5 -428.5Q506 -362 508 -299Q508 -191 471 -116Q515 -10 557 -10Q566 -10 575.5 -12.5Q585 -15 596.5 -19Q608 -23 614 -24L649 -94Q650 -97 653 -97Q658 -97 658 -92Q658 -90 657 -89L621 -18Q620 -16 618 -15Q612 -14 600 -9.5Q588 -5 577.5 -2.5Q567 0 557 0Q552 -6 532 -22Q512 -38 494 -58.5Q476 -79 465 -105Q411 -7 300 9Q294 10 289 10Q221 10 171 -114Z"/>
</svg>