<svg xmlns="http://www.w3.org/2000/svg" viewBox="0 -1024 1024 1024">
	<path fill="#000088" d="M287 -637Q287 -626 285.5 -603.5Q284 -581 284 -571Q284 -567 284 -564Q287 -531 287 -500Q287 -370 242 -268Q246 -265 250 -261L285 -225Q298 -213 314 -184Q321 -170 325 -156L377 -143L450 -132Q463 -130 471 -120Q479 -110 479 -97Q479 -83 469 -72.5Q459 -62 445 -62Q442 -62 439 -63L377 -73L330 -84Q330 -38 316 -18Q306 5 297 14L262 49Q252 59 239 59Q231 59 225 53L190 18Q185 13 181.5 5.5Q178 -2 176 -8Q174 -14 171.5 -24Q169 -34 168 -38Q154 -81 149 -134L122 -107Q89 -74 47 -49Q40 -44 31 -44Q19 -44 10 -53Q1 -62 1 -75Q1 -92 16 -100L47 -119Q78 -138 104 -161Q126 -186 144 -216Q144 -218 144 -219Q144 -223 144 -228Q144 -233 144 -238Q144 -239 144 -240.5Q144 -242 144 -243Q144 -246 145 -247Q146 -291 146 -299Q146 -320 145 -361.5Q144 -403 144 -423Q144 -512 156 -572Q156 -573 156 -573Q156 -578 155.5 -587Q155 -596 155 -600Q155 -616 158 -626Q163 -686 182 -708Q211 -743 217 -743Q229 -743 236 -736L271 -700Q287 -685 287 -637ZM244 -15Q245 -17 246 -18Q259 -38 259 -89Q259 -102 259 -108Q252 -111 235 -128Q232 -131 226 -135.5Q220 -140 219 -140Q224 -84 238 -38Q239 -34 241 -26.5Q243 -19 244 -15ZM232 -203Q230 -204 227 -205Q231 -202 234 -200Q233 -202 232 -203Z"/>
	<path fill="#800080" d="M238 -637Q238 -626 236.5 -603.5Q235 -581 235 -571Q235 -567 235 -564Q238 -531 238 -500Q238 -370 193 -268Q197 -265 201 -261L236 -225Q249 -213 265 -184Q272 -170 276 -156L328 -143L401 -132Q414 -130 422 -120Q430 -110 430 -97Q430 -83 420 -72.5Q410 -62 396 -62Q393 -62 390 -63L328 -73L281 -84Q281 -38 267 -18Q257 5 248 14L213 49Q203 59 190 59Q182 59 176 53L141 18Q136 13 132.5 5.5Q129 -2 127 -8Q125 -14 122.5 -24Q120 -34 119 -38Q105 -81 100 -134L73 -107Q40 -74 -2 -49Q-9 -44 -18 -44Q-30 -44 -39 -53Q-48 -62 -48 -75Q-48 -92 -33 -100L-2 -119Q29 -138 55 -161Q77 -186 95 -216Q95 -218 95 -219Q95 -223 95 -228Q95 -233 95 -238Q95 -239 95 -240.5Q95 -242 95 -243Q95 -246 96 -247Q97 -291 97 -299Q97 -320 96 -361.5Q95 -403 95 -423Q95 -512 107 -572Q107 -573 107 -573Q107 -578 106.5 -587Q106 -596 106 -600Q106 -616 109 -626Q114 -686 133 -708Q162 -743 168 -743Q180 -743 187 -736L222 -700Q238 -685 238 -637ZM195 -15Q196 -17 197 -18Q210 -38 210 -89Q210 -102 210 -108Q203 -111 186 -128Q183 -131 177 -135.5Q171 -140 170 -140Q175 -84 189 -38Q190 -34 192 -26.5Q194 -19 195 -15ZM183 -203Q181 -204 178 -205Q182 -202 185 -200Q184 -202 183 -203Z"/>
	<path fill="#daa520" d="M234 -573Q234 -572 234 -571Q223 -512 223 -423Q223 -403 223.5 -361.5Q224 -320 224 -299Q224 -284 223 -253Q227 -253 232 -251Q285 -358 285 -500Q285 -531 282 -564Q282 -567 282 -571Q282 -581 283 -603.5Q284 -626 284 -637Q284 -700 257 -703Q241 -682 236 -626Q236 -625 236 -625Q233 -615 233 -600Q233 -596 233.5 -587Q234 -578 234 -573ZM223 -235Q225 -238 227 -242Q224 -243 223 -243Q223 -239 223 -235ZM328 -126L293 -139Q292 -140 291 -141Q283 -151 257.5 -169Q232 -187 223 -201Q225 -108 246 -39Q247 -35 249.5 -25Q252 -15 255 -7.5Q258 0 261 6Q268 19 277 19Q297 18 314 -20Q315 -20 315 -21Q327 -40 327 -89Q327 -90 327.5 -108Q328 -126 328 -126ZM246 -237Q242 -237 236 -239Q231 -228 225 -219Q232 -200 266 -175Q289 -159 298 -148L326 -138Q323 -160 313 -182Q280 -237 253 -237Q252 -237 249.5 -237Q247 -237 246 -237ZM212 -243Q212 -247 213 -248Q214 -289 214 -299Q214 -320 213.5 -361.5Q213 -403 213 -423Q213 -513 224 -572Q224 -573 224 -573Q224 -578 223.5 -587Q223 -596 223 -600Q223 -616 226 -627Q232 -688 251 -711Q253 -713 255 -713Q294 -713 294 -637Q294 -626 293 -603.5Q292 -581 292 -571Q292 -567 292 -564Q295 -532 295 -500Q295 -357 241 -248Q244 -247 245.5 -247Q247 -247 249.5 -247Q252 -247 253 -247Q265 -247 275.5 -241.5Q286 -236 295.5 -224.5Q305 -213 309.5 -206Q314 -199 321 -186Q321 -186 322 -186Q334 -161 337 -134L344 -131L416 -113L478 -103Q482 -102 482 -98Q482 -93 477 -93Q477 -93 476 -93L414 -103L342 -121Q342 -121 338 -123Q338 -118 338 -114Q338 -101 337.5 -87Q337 -73 337 -61.5Q337 -50 333.5 -38Q330 -26 323 -16Q318 -3 313.5 4.5Q309 12 299 20.5Q289 29 277 29Q262 29 252 11Q248 4 245.5 -3.5Q243 -11 240 -21.5Q237 -32 236 -37Q215 -106 213 -199Q164 -126 88 -80Q86 -79 85 -79Q80 -79 80 -84Q80 -87 82 -88Q163 -137 213 -217Q213 -218 213 -218.5Q213 -219 213 -219Q213 -223 213 -227Q212 -232 212 -238Q212 -239 212 -240.5Q212 -242 212 -243Z"/>
</svg>