<svg xmlns="http://www.w3.org/2000/svg" viewBox="0 -1024 1024 1024">
	<path fill="#000088" d="M287 -637Q287 -626 285.5 -603.5Q284 -581 284 -571Q284 -567 284 -564Q287 -531 287 -500Q287 -370 242 -268Q246 -265 250 -261L285 -225Q298 -213 314 -184Q321 -170 325 -156L377 -143L450 -132Q463 -130 471 -120Q479 -110 479 -97Q479 -83 469 -72.5Q459 -62 445 -62Q442 -62 439 -63L377 -73L330 -84Q330 -38 316 -18Q306 5 297 14L262 49Q252 59 239 59Q231 59 225 53L190 18Q185 13 181.5 5.5Q178 -2 176 -8Q174 -14 171.5 -24Q169 -34 168 -38Q154 -81 149 -134L122 -107Q89 -74 47 -49Q40 -44 31 -44Q19 -44 10 -53Q1 -62 1 -75Q1 -92 16 -100L47 -119Q78 -138 104 -161Q126 -186 144 -216Q144 -218 144 -219Q144 -223 144 -228Q144 -233 144 -238Q144 -239 144 -240.5Q144 -242 144 -243Q144 -246 145 -247Q146 -291 146 -299Q146 -320 145 -361.5Q144 -403 144 -423Q144 -512 156 -572Q156 -573 156 -573Q156 -578 155.5 -587Q155 -596 155 -600Q155 -616 158 -626Q163 -686 182 -708Q211 -743 217 -743Q229 -743 236 -736L271 -700Q287 -685 287 -637ZM244 -15Q245 -17 246 -18Q259 -38 259 -89Q259 -102 259 -108Q252 -111 235 -128Q232 -131 226 -135.5Q220 -140 219 -140Q224 -84 238 -38Q239 -34 241 -26.5Q243 -19 244 -15ZM232 -203Q230 -204 227 -205Q231 -202 234 -200Q233 -202 232 -203Z"/>
	<path fill="#800080" d="M238 -637Q238 -626 236.5 -603.5Q235 -581 235 -571Q235 -567 235 -564Q238 -531 238 -500Q238 -370 193 -268Q197 -265 201 -261L236 -225Q249 -213 265 -184Q272 -170 276 -156L328 -143L401 -132Q414 -130 422 -120Q430 -110 430 -97Q430 -83 420 -72.5Q410 -62 396 -62Q393 -62 390 -63L328 -73L281 -84Q281 -38 267 -18Q257 5 248 14L213 49Q203 59 190 59Q182 59 176 53L141 18Q136 13 132.5 5.5Q129 -2 127 -8Q125 -14 122.5 -24Q120 -34 119 -38Q105 -81 100 -134L73 -107Q40 -74 -2 -49Q-9 -44 -18 -44Q-30 -44 -39 -53Q-48 -62 -48 -75Q-48 -92 -33 -100L-2 -119Q29 -138 55 -161Q77 -186 95 -216Q95 -218 95 -219Q95 -223 95 -228Q95 -233 95 -238Q95 -239 95 -240.5Q95 -242 95 -243Q95 -246 96 -247Q97 -291 97 -299Q97 -320 96 -361.5Q95 -403 95 -423Q95 -512 107 -572Q107 -573 107 -573Q107 -578 106.5 -587Q106 -596 106 -600Q106 -616 109 -626Q114 -686 133 -708Q162 -743 168 -743Q180 -743 187 -736L222 -700Q238 -685 238 -637ZM195 -15Q196 -17 197 -18Q210 -38 210 -89Q210 -102 210 -108Q203 -111 186 -128Q183 -131 177 -135.5Q171 -140 170 -140Q175 -84 189 -38Q190 -34 192 -26.5Q194 -19 195 -15ZM183 -203Q181 -204 178 -205Q182 -202 185 -200Q184 -202 183 -203Z"/>
	<path fill="#daa520" d="M174 -573Q174 -572 174 -571Q163 -512 163 -423Q163 -403 163.5 -361.5Q164 -320 164 -299Q164 -284 163 -253Q167 -253 172 -251Q225 -358 225 -500Q225 -531 222 -564Q222 -567 222 -571Q222 -581 223 -603.5Q224 -626 224 -637Q224 -700 197 -703Q181 -682 176 -626Q176 -625 176 -625Q173 -615 173 -600Q173 -596 173.5 -587Q174 -578 174 -573ZM163 -235Q165 -238 167 -242Q164 -243 163 -243Q163 -239 163 -235ZM268 -126L233 -139Q232 -140 231 -141Q223 -151 197.5 -169Q172 -187 163 -201Q165 -108 186 -39Q187 -35 189.5 -25Q192 -15 195 -7.5Q198 0 201 6Q208 19 217 19Q237 18 254 -20Q255 -20 255 -21Q267 -40 267 -89Q267 -90 267.5 -108Q268 -126 268 -126ZM186 -237Q182 -237 176 -239Q171 -228 165 -219Q172 -200 206 -175Q229 -159 238 -148L266 -138Q263 -160 253 -182Q220 -237 193 -237Q192 -237 189.5 -237Q187 -237 186 -237ZM152 -243Q152 -247 153 -248Q154 -289 154 -299Q154 -320 153.5 -361.5Q153 -403 153 -423Q153 -513 164 -572Q164 -573 164 -573Q164 -578 163.5 -587Q163 -596 163 -600Q163 -616 166 -627Q172 -688 191 -711Q193 -713 195 -713Q234 -713 234 -637Q234 -626 233 -603.5Q232 -581 232 -571Q232 -567 232 -564Q235 -532 235 -500Q235 -357 181 -248Q184 -247 185.5 -247Q187 -247 189.5 -247Q192 -247 193 -247Q205 -247 215.5 -241.5Q226 -236 235.5 -224.5Q245 -213 249.5 -206Q254 -199 261 -186Q261 -186 262 -186Q274 -161 277 -134L284 -131L356 -113L418 -103Q422 -102 422 -98Q422 -93 417 -93Q417 -93 416 -93L354 -103L282 -121Q282 -121 278 -123Q278 -118 278 -114Q278 -101 277.5 -87Q277 -73 277 -61.5Q277 -50 273.5 -38Q270 -26 263 -16Q258 -3 253.5 4.5Q249 12 239 20.5Q229 29 217 29Q202 29 192 11Q188 4 185.5 -3.5Q183 -11 180 -21.5Q177 -32 176 -37Q155 -106 153 -199Q104 -126 28 -80Q26 -79 25 -79Q20 -79 20 -84Q20 -87 22 -88Q103 -137 153 -217Q153 -218 153 -218.5Q153 -219 153 -219Q153 -223 153 -227Q152 -232 152 -238Q152 -239 152 -240.5Q152 -242 152 -243Z"/>
</svg>