<svg xmlns="http://www.w3.org/2000/svg" viewBox="0 -1024 1024 1024">
	<path fill="#000088" d="M51 -47L5 -119L34 -137Q44 -144 59.5 -161.5Q75 -179 80 -183Q82 -186 85 -189L100 -234L170 -211L162 -187Q155 -166 127 -127Q113 -108 97 -93Q92 -88 76.5 -70.5Q61 -53 51 -47ZM304 -61Q298 -61 286 -61.5Q274 -62 268 -62Q255 -62 247 -61Q209 -56 190 -56Q167 -56 154 -63L102 -93Q87 -102 82 -124Q77 -146 77 -191Q77 -193 77 -195Q77 -259 112 -321L147 -381Q192 -459 254 -459Q280 -459 306 -444L358 -414Q365 -410 372 -405Q377 -402 385.5 -385Q394 -368 400 -352L406 -337L412 -207L411 -158L418 -155Q417 -153 411 -143L410 -80L422 -100Q424 -104 441 -122L449 -137L502 -107L459 -33Q450 -23 444 -16L433 3Q423 21 403 33Q401 53 390 127L372 179Q368 188 337 239Q320 266 297 266Q293 266 289 265Q283 266 278 266Q254 266 237 256L185 226Q166 215 161 195Q142 165 142 138Q142 134 143 129Q143 106 152 89L187 28Q194 17 204 8.5Q214 0 230.5 -6.5Q247 -13 258 -16Q269 -19 292 -24.5Q315 -30 323 -32V-62Q315 -61 304 -61ZM280 176Q289 176 298 171L303 157Q315 84 316 64Q252 79 230 93Q230 96 230 99Q229 103 229 108Q229 135 248 165Q249 170 251 175Q256 175 261.5 175Q267 175 272 175Q276 176 280 176ZM287 -152Q310 -152 324 -155L325 -177L319 -307Q303 -347 291 -366Q281 -368 271 -368Q223 -368 183 -319Q163 -270 163 -225Q163 -223 164 -221Q164 -168 171 -146Q172 -146 173 -146Q192 -146 230 -151Q238 -152 251 -152Q257 -152 269 -152Q281 -152 287 -152Z"/>
	<path fill="#800080" d="M-16 -52Q-28 -52 -37 -61Q-46 -70 -46 -82Q-46 -99 -32 -107Q0 -127 0 -128Q4 -131 25 -152Q34 -162 41 -172L56 -217Q63 -240 88 -240Q101 -240 111 -230Q121 -220 121 -207Q121 -201 119 -196L111 -172Q101 -157 70 -126Q70 -126 62 -117Q54 -108 50 -104L15 -69Q7 -61 0 -56.5Q-7 -52 -16 -52ZM254 -71Q248 -71 236 -71.5Q224 -72 218 -72Q205 -72 196 -71Q158 -66 140 -66Q109 -66 96 -79L61 -114Q43 -132 43 -206Q43 -208 43 -210Q43 -253 61.5 -300.5Q80 -348 110 -379L146 -414Q181 -449 221 -449Q253 -449 286 -425Q287 -425 287 -424L323 -389Q328 -384 336 -367Q344 -350 350 -336L355 -322L361 -192V-176Q371 -167 371 -154Q371 -142 361 -129L360 -64L373 -78L398 -122Q407 -138 425 -138Q437 -138 446 -129Q455 -120 455 -107Q455 -99 451 -92L443 -78Q425 -58 423 -54Q417 -37 404 -25L369 11Q363 16 357 21L349 82L339 142L321 194Q316 202 311 208L275 243Q262 256 247 256Q242 256 238 255Q233 256 228 256Q194 256 174 237L139 201Q130 192 127 180Q108 150 108 123Q108 119 109 114Q109 80 129 59L165 24Q174 15 191 7Q208 -1 218.5 -4.5Q229 -8 256 -14Q283 -20 289 -22V-74Q275 -71 254 -71ZM247 186Q250 186 254 185L269 142Q281 68 282 50Q277 52 258 56.5Q239 61 230.5 63Q222 65 208.5 69.5Q195 74 186 79Q179 94 179 114Q179 119 179 123Q179 150 197 180Q211 185 228 185Q233 185 238 185Q242 186 247 186ZM254 -142Q276 -142 290 -145L291 -192L285 -322Q275 -347 265 -367Q243 -378 221 -378Q191 -378 164 -359Q141 -328 127 -287Q113 -246 113 -210Q113 -208 113 -206Q113 -159 119 -138Q128 -136 140 -136Q158 -136 196 -141Q205 -142 218 -142Q224 -142 236 -142Q248 -142 254 -142Z"/>
	<path fill="#daa520" d="M35 -87Q30 -87 30 -92Q30 -95 32 -96Q42 -102 57.5 -119.5Q73 -137 78 -142Q94 -156 106 -174L114 -198Q115 -201 119 -201Q124 -201 124 -196Q124 -195 124 -194L116 -170Q116 -170 115 -169Q102 -150 84 -134Q80 -130 64.5 -112.5Q49 -95 38 -88Q36 -87 35 -87ZM289 -102Q283 -102 271 -102Q259 -102 253 -102Q240 -102 232 -101Q194 -96 175 -96Q130 -96 117 -126Q108 -149 108 -206Q108 -208 108 -210Q108 -254 126 -301.5Q144 -349 179 -384Q214 -419 256 -419Q290 -419 324 -394Q331 -389 344 -360Q360 -327 360 -322L366 -192V-145Q366 -145 367 -145Q372 -145 372 -140Q372 -139 372 -138Q369 -132 365 -128L364 -5Q405 -23 418 -56Q421 -62 439 -81L447 -94Q448 -97 451 -97Q456 -97 456 -92Q456 -91 455 -90L447 -76Q447 -75 443 -70.5Q439 -66 434.5 -60.5Q430 -55 428 -52Q412 -13 363 6L354 83L344 143Q344 143 344 144L326 196Q326 196 325 197Q307 226 282 226Q277 226 273 225Q268 226 263 226Q238 226 218 214.5Q198 203 192 182Q174 151 174 123Q174 118 174 114Q174 93 182 77.5Q190 62 199.5 52.5Q209 43 228.5 35Q248 27 260 24Q272 21 296 15Q335 6 354 -1Q354 -23 354.5 -65Q355 -107 355 -117Q335 -102 289 -102ZM282 216Q301 216 316 192L334 141L344 81L353 10Q336 16 298 25Q274 30 262 33.5Q250 37 232.5 44Q215 51 206 59.5Q197 68 190.5 82Q184 96 184 114Q184 116 184 119Q184 122 184 123Q184 149 201 177Q202 178 202 179Q207 196 224 206Q241 216 263 216Q265 216 268 215.5Q271 215 272.5 215Q274 215 277 215.5Q280 216 282 216ZM118 -206Q118 -151 127 -130Q132 -117 143 -111.5Q154 -106 175 -106Q193 -106 230 -111Q239 -112 253 -112Q259 -112 271 -112Q283 -112 289 -112Q338 -112 355 -131L356 -192L350 -321Q343 -340 335 -356Q323 -382 318 -386Q287 -409 256 -409Q219 -409 186 -376.5Q153 -344 135.5 -298.5Q118 -253 118 -210Q118 -209 118 -208Q118 -207 118 -206Z"/>
</svg>