<svg xmlns="http://www.w3.org/2000/svg" viewBox="0 -1024 1024 1024">
	<path fill="#000088" d="M481 -130Q481 -144 482 -170.5Q483 -197 483 -209Q483 -217 482.5 -231Q482 -245 482 -251Q481 -339 463 -373Q458 -375 452 -378Q438 -378 419 -364Q415 -358 403 -344Q390 -327 377.5 -290.5Q365 -254 358 -242Q357 -237 351 -223Q345 -209 345 -200Q345 -196 346 -191L328 -98L319 4Q318 17 309 27Q298 37 283.5 37Q269 37 259 27Q249 17 249 4L243 -104L234 -182V-203L233 -204Q217 -183 164 -129Q113 -79 50 -56Q45 -54 39 -54Q25 -54 15.5 -64Q6 -74 6 -88Q6 -111 28 -119L50 -127Q102 -145 146 -183Q189 -233 221 -304Q217 -331 213.5 -362.5Q210 -394 206.5 -432Q203 -470 201 -491L183 -641L177 -758L183 -821L186 -827Q194 -843 203.5 -852.5Q213 -862 221 -862Q231 -862 238 -855L274 -820Q282 -811 290 -782Q295 -764 298 -758Q315 -648 325 -584L328 -413Q314 -355 291 -304L297 -262Q300 -269 306 -288.5Q312 -308 318 -320.5Q324 -333 333 -344Q355 -372 367 -384L403 -420Q431 -448 452 -448Q470 -441 483 -429L518 -393Q534 -378 542 -351Q550 -324 551 -305Q552 -286 553 -251Q553 -245 553.5 -231Q554 -217 554 -209Q554 -197 553 -170.5Q552 -144 552 -130Q552 -69 563 -38Q566 -37 569 -37Q573 -37 578 -39L600 -68Q613 -94 626 -120Q635 -137 654 -137Q667 -137 676.5 -128Q686 -119 686 -106Q686 -98 682 -92L670 -68L625 -8Q601 24 590 27Q588 28 584 29.5Q580 31 576.5 32Q573 33 569 33Q553 33 542 22L507 -13Q481 -39 481 -130Z"/>
	<path fill="#800080" d="M432 -130Q432 -144 433 -170.5Q434 -197 434 -209Q434 -217 433.5 -231Q433 -245 433 -251Q432 -339 414 -373Q409 -375 403 -378Q389 -378 370 -364Q366 -358 354 -344Q341 -327 328.5 -290.5Q316 -254 309 -242Q308 -237 302 -223Q296 -209 296 -200Q296 -196 297 -191L279 -98L270 4Q269 17 260 27Q249 37 234.5 37Q220 37 210 27Q200 17 200 4L194 -104L185 -182V-203L184 -204Q168 -183 115 -129Q64 -79 1 -56Q-4 -54 -10 -54Q-24 -54 -33.5 -64Q-43 -74 -43 -88Q-43 -111 -21 -119L1 -127Q53 -145 97 -183Q140 -233 172 -304Q168 -331 164.5 -362.5Q161 -394 157.5 -432Q154 -470 152 -491L134 -641L128 -758L134 -821L137 -827Q145 -843 154.5 -852.5Q164 -862 172 -862Q182 -862 189 -855L225 -820Q233 -811 241 -782Q246 -764 249 -758Q266 -648 276 -584L279 -413Q265 -355 242 -304L248 -262Q251 -269 257 -288.5Q263 -308 269 -320.5Q275 -333 284 -344Q306 -372 318 -384L354 -420Q382 -448 403 -448Q421 -441 434 -429L469 -393Q485 -378 493 -351Q501 -324 502 -305Q503 -286 504 -251Q504 -245 504.5 -231Q505 -217 505 -209Q505 -197 504 -170.5Q503 -144 503 -130Q503 -69 514 -38Q517 -37 520 -37Q524 -37 529 -39L551 -68L577 -120Q586 -137 605 -137Q618 -137 627.5 -128Q637 -119 637 -106Q637 -98 633 -92L621 -68L576 -8Q552 24 541 27Q539 28 535 29.5Q531 31 527.5 32Q524 33 520 33Q504 33 493 22L458 -13Q432 -39 432 -130Z"/>
	<path fill="#daa520" d="M323 -414L320 -584Q310 -647 293 -756Q290 -763 285 -781Q282 -794 279 -801Q276 -808 271 -814.5Q266 -821 259 -822L258 -820L252 -758L258 -641L276 -492Q277 -478 283 -416.5Q289 -355 293 -323Q311 -366 323 -414ZM556 -130Q556 -7 604 -7Q606 -7 622 -12L666 -71L678 -94Q679 -97 682 -97Q687 -97 687 -92Q687 -90 686 -89L674 -66Q674 -65 674 -65L629 -5Q628 -4 626 -3Q624 -2 620 -0.5Q616 1 612 2Q608 3 604 3Q546 3 546 -130Q546 -144 547 -170.5Q548 -197 548 -209Q548 -217 547.5 -231Q547 -245 547 -251Q547 -276 546.5 -290.5Q546 -305 542.5 -327Q539 -349 533 -362Q527 -375 515 -388Q503 -401 486 -408Q471 -407 451 -390Q435 -376 407 -341Q394 -325 381.5 -288.5Q369 -252 363 -240Q362 -236 356 -222Q350 -208 350 -200Q350 -196 351 -192Q351 -192 351 -191.5Q351 -191 351 -190L333 -97L324 4Q324 9 319 9Q314 9 314 4L308 -104L299 -181Q299 -182 299 -182V-203L288 -286Q215 -132 87 -87Q86 -87 85 -87Q80 -87 80 -92Q80 -95 83 -96Q213 -142 286 -304Q282 -331 279 -362.5Q276 -394 272 -431.5Q268 -469 266 -490L248 -640Q248 -641 248 -641L242 -758Q242 -758 242 -758L248 -821Q248 -822 249 -823Q253 -832 256 -832Q268 -832 276.5 -822.5Q285 -813 288 -805.5Q291 -798 295 -783Q299 -766 302 -761Q303 -760 303 -759Q319 -649 330 -585Q330 -584 330 -584L333 -413Q333 -412 333 -412Q318 -354 296 -303L309 -204Q309 -203 309 -203V-182L318 -105V-104L320 -66L323 -98Q323 -99 323 -99L341 -191Q340 -195 340 -200Q340 -210 346 -224Q352 -238 353 -243Q353 -244 354 -244Q360 -257 372.5 -293.5Q385 -330 399 -347Q428 -383 444 -397Q468 -418 487 -418Q488 -418 489 -418Q508 -410 521.5 -395.5Q535 -381 542 -367Q549 -353 552.5 -328.5Q556 -304 556.5 -291Q557 -278 557 -251Q557 -245 557.5 -231Q558 -217 558 -209Q558 -197 557 -170.5Q556 -144 556 -130Z"/>
</svg>