<svg xmlns="http://www.w3.org/2000/svg" viewBox="0 -1024 1024 1024">
	<path fill="#000088" d="M450 -114Q450 -128 451 -155Q452 -182 452 -194Q452 -202 451.5 -215.5Q451 -229 451 -236Q450 -267 449.5 -284Q449 -301 443 -325.5Q437 -350 426 -366Q402 -358 365 -313Q349 -269 343 -257Q342 -252 336 -238Q330 -224 330 -215Q330 -211 331 -206L313 -113L304 -11Q303 6 291 22Q272 49 246 49Q234 49 226 40.5Q218 32 217 19L211 -89L202 -167V-186Q135 -82 35 -46L5 -132L18 -137Q114 -171 180 -268Q185 -278 189 -288Q186 -315 182.5 -346.5Q179 -378 175.5 -416Q172 -454 169 -476L151 -626L145 -743L151 -806L154 -812Q185 -872 189 -872Q196 -872 202 -869L254 -839Q266 -832 275 -797Q280 -779 283 -773Q300 -663 310 -599L313 -428Q299 -370 276 -319L280 -289Q286 -304 292 -315L327 -376Q332 -383 339 -392Q391 -458 420 -458Q428 -456 434 -452L486 -422Q500 -414 510.5 -399.5Q521 -385 526 -372Q531 -359 534 -337.5Q537 -316 537 -303Q537 -290 538 -266Q538 -260 538.5 -246Q539 -232 539 -225Q539 -212 538 -185.5Q537 -159 537 -145Q537 -81 549 -50Q556 -53 558 -53L590 -96L611 -136L667 -107L655 -83Q633 -40 620 -23L575 37Q573 38 569 39.5Q565 41 561.5 42Q558 43 554 43Q544 43 535 38L483 8Q450 -11 450 -114Z"/>
	<path fill="#800080" d="M432 -130Q432 -144 433 -170.5Q434 -197 434 -209Q434 -217 433.5 -231Q433 -245 433 -251Q432 -339 414 -373Q409 -375 403 -378Q389 -378 370 -364Q366 -358 354 -344Q341 -327 328.5 -290.5Q316 -254 309 -242Q308 -237 302 -223Q296 -209 296 -200Q296 -196 297 -191L279 -98L270 4Q269 17 260 27Q249 37 234.5 37Q220 37 210 27Q200 17 200 4L194 -104L185 -182V-203L184 -204Q168 -183 115 -129Q64 -79 1 -56Q-4 -54 -10 -54Q-24 -54 -33.5 -64Q-43 -74 -43 -88Q-43 -111 -21 -119L1 -127Q53 -145 97 -183Q140 -233 172 -304Q168 -331 164.5 -362.5Q161 -394 157.5 -432Q154 -470 152 -491L134 -641L128 -758L134 -821L137 -827Q145 -843 154.5 -852.5Q164 -862 172 -862Q182 -862 189 -855L225 -820Q233 -811 241 -782Q246 -764 249 -758Q266 -648 276 -584L279 -413Q265 -355 242 -304L248 -262Q251 -269 257 -288.5Q263 -308 269 -320.5Q275 -333 284 -344Q306 -372 318 -384L354 -420Q382 -448 403 -448Q421 -441 434 -429L469 -393Q485 -378 493 -351Q501 -324 502 -305Q503 -286 504 -251Q504 -245 504.5 -231Q505 -217 505 -209Q505 -197 504 -170.5Q503 -144 503 -130Q503 -69 514 -38Q517 -37 520 -37Q524 -37 529 -39L551 -68L577 -120Q586 -137 605 -137Q618 -137 627.5 -128Q637 -119 637 -106Q637 -98 633 -92L621 -68L576 -8Q552 24 541 27Q539 28 535 29.5Q531 31 527.5 32Q524 33 520 33Q504 33 493 22L458 -13Q432 -39 432 -130Z"/>
	<path fill="#daa520" d="M273 -414L270 -584Q260 -647 243 -756Q240 -763 235 -781Q232 -794 229 -801Q226 -808 221 -814.5Q216 -821 209 -822L208 -820L202 -758L208 -641L226 -492Q227 -478 233 -416.5Q239 -355 243 -323Q261 -366 273 -414ZM506 -130Q506 -7 554 -7Q556 -7 572 -12L616 -71L628 -94Q629 -97 632 -97Q637 -97 637 -92Q637 -90 636 -89L624 -66Q624 -65 624 -65L579 -5Q578 -4 576 -3Q574 -2 570 -0.5Q566 1 562 2Q558 3 554 3Q496 3 496 -130Q496 -144 497 -170.5Q498 -197 498 -209Q498 -217 497.5 -231Q497 -245 497 -251Q497 -276 496.5 -290.5Q496 -305 492.5 -327Q489 -349 483 -362Q477 -375 465 -388Q453 -401 436 -408Q421 -407 401 -390Q385 -376 357 -341Q344 -325 331.5 -288.5Q319 -252 313 -240Q312 -236 306 -222Q300 -208 300 -200Q300 -196 301 -192Q301 -192 301 -191.5Q301 -191 301 -190L283 -97L274 4Q274 9 269 9Q264 9 264 4L258 -104L249 -181Q249 -182 249 -182V-203L238 -286Q165 -132 37 -87Q36 -87 35 -87Q30 -87 30 -92Q30 -95 33 -96Q163 -142 236 -304Q232 -331 229 -362.5Q226 -394 222 -431.5Q218 -469 216 -490L198 -640Q198 -641 198 -641L192 -758Q192 -758 192 -758L198 -821Q198 -822 199 -823Q203 -832 206 -832Q218 -832 226.5 -822.5Q235 -813 238 -805.5Q241 -798 245 -783Q249 -766 252 -761Q253 -760 253 -759Q269 -649 280 -585Q280 -584 280 -584L283 -413Q283 -412 283 -412Q268 -354 246 -303L259 -204Q259 -203 259 -203V-182L268 -105V-104L270 -66L273 -98Q273 -99 273 -99L291 -191Q290 -195 290 -200Q290 -210 296 -224Q302 -238 303 -243Q303 -244 304 -244Q310 -257 322.5 -293.5Q335 -330 349 -347Q378 -383 394 -397Q418 -418 437 -418Q438 -418 439 -418Q458 -410 471.5 -395.5Q485 -381 492 -367Q499 -353 502.5 -328.5Q506 -304 506.5 -291Q507 -278 507 -251Q507 -245 507.5 -231Q508 -217 508 -209Q508 -197 507 -170.5Q506 -144 506 -130Z"/>
</svg>