<svg xmlns="http://www.w3.org/2000/svg" viewBox="0 -1024 1024 1024">
	<path fill="#000088" d="M211 -559Q224 -559 233.5 -549.5Q243 -540 243 -527Q243 -518 238 -510L242 -504V-500Q242 -498 240 -496L205 -461Q203 -459 201 -459Q194 -459 190 -463L155 -498Q154 -499 154 -500Q155 -502 155.5 -508.5Q156 -515 159 -518L161 -520Q159 -526 159 -532Q159 -544 167.5 -553Q176 -562 188 -562Q196 -562 203 -558Q207 -559 211 -559ZM234 -361Q234 -356 234.5 -348Q235 -340 235 -335Q235 -272 214 -219Q218 -190 239 -81Q240 -84 240 -86V-100Q240 -112 247 -121Q256 -131 271 -131Q286 -131 298 -121Q307 -112 312 -92Q313 -88 313 -84Q313 -63 296 -54Q293 -48 292 -48Q284 -33 253 8Q264 99 264 154Q264 165 260 185.5Q256 206 248 213L213 248Q210 251 207 251Q184 248 171 235L135 200Q125 189 125 176Q125 169 128 162Q127 157 127 153Q127 124 140 88Q147 54 182 8Q178 -30 157 -136L131 -110Q98 -77 51 -63Q46 -61 41 -61Q27 -61 17 -71Q7 -81 7 -95Q7 -106 14 -115Q21 -124 31 -127L51 -133Q85 -144 112 -165Q131 -189 143 -219Q138 -260 138 -294Q138 -315 140 -334Q140 -339 140 -344Q140 -350 139.5 -361Q139 -372 139 -377Q139 -399 150 -411L186 -446Q187 -448 189 -449Q192 -449 199 -443L234 -408Q236 -405 236 -404Q236 -397 235 -382.5Q234 -368 234 -361Z"/>
	<path fill="#800080" d="M162 -559Q175 -559 184.5 -549.5Q194 -540 194 -527Q194 -518 189 -510L193 -504V-500Q193 -498 191 -496L156 -461Q154 -459 152 -459Q145 -459 141 -463L106 -498Q105 -499 105 -500Q106 -502 106.5 -508.5Q107 -515 110 -518L112 -520Q110 -526 110 -532Q110 -544 118.5 -553Q127 -562 139 -562Q147 -562 154 -558Q158 -559 162 -559ZM185 -361Q185 -356 185.5 -348Q186 -340 186 -335Q186 -272 165 -219Q169 -190 190 -81Q191 -84 191 -86V-100Q191 -112 198 -121Q207 -131 222 -131Q237 -131 249 -121Q258 -112 263 -92Q264 -88 264 -84Q264 -63 247 -54Q243 -48 243 -48Q235 -33 204 8Q215 99 215 154Q215 165 211 185.5Q207 206 199 213L164 248Q161 251 158 251Q135 248 122 235L86 200Q76 189 76 176Q76 169 79 162Q78 157 78 153Q78 124 91 88Q98 54 133 8Q129 -30 108 -136L82 -110Q49 -77 2 -63Q-3 -61 -8 -61Q-22 -61 -32 -71Q-42 -81 -42 -95Q-42 -106 -35 -115Q-28 -124 -18 -127L2 -133Q36 -144 63 -165Q82 -189 94 -219Q89 -260 89 -294Q89 -315 91 -334Q91 -339 91 -344Q91 -350 90.5 -361Q90 -372 90 -377Q90 -399 101 -411L137 -446Q138 -448 140 -449Q143 -449 150 -443L185 -408Q187 -405 187 -404Q187 -397 186 -382.5Q185 -368 185 -361Z"/>
	<path fill="#daa520" d="M231 -525Q236 -525 236 -520Q238 -518 241 -513Q244 -508 245 -507Q246 -506 246 -504V-500Q246 -489 235 -489Q229 -489 223 -493Q218 -496 218 -500Q218 -501 219 -502Q219 -504 220 -508Q221 -521 229 -524Q230 -525 231 -525ZM229 -501Q232 -500 235 -499Q235 -499 236 -500V-502L230 -511Q230 -510 229.5 -506.5Q229 -503 229 -501ZM230 -403Q228 -405 224 -408Q213 -398 213 -377Q213 -372 214 -361Q215 -350 215 -344Q212 -302 212 -294Q212 -269 215 -241Q228 -285 228 -335Q228 -340 228 -348Q228 -356 228 -361Q228 -368 229 -382Q230 -396 230 -403ZM210 -201Q170 -119 86 -93Q86 -93 85 -93Q80 -93 80 -98Q80 -102 84 -103Q171 -130 207 -220Q202 -260 202 -294Q202 -315 204 -334Q205 -340 205 -344Q205 -350 204 -361Q203 -372 203 -377Q203 -404 220 -418Q221 -419 223 -419Q225 -419 228 -417Q231 -416 234 -413Q240 -408 240 -404Q240 -397 239 -382.5Q238 -368 238 -361Q238 -356 238 -348Q238 -340 238 -335Q238 -271 218 -218Q222 -182 236 -111.5Q250 -41 255 -5Q278 -34 287 -50Q304 -81 304 -86V-100Q304 -105 309 -105Q313 -105 314 -101Q316 -93 316 -92Q316 -90 314 -88V-86Q314 -78 295 -46Q287 -30 257 9Q268 99 268 154Q268 172 261 195Q254 221 241 221Q241 221 240 221Q219 218 204 206Q189 194 189 176Q189 169 192 161Q192 157 192 153Q192 123 204 87Q212 52 246 6Q242 -32 228 -101.5Q214 -171 210 -201ZM202 162Q202 163 202 164Q199 170 199 176Q199 189 211 198.5Q223 208 241 211Q247 210 252 192Q258 170 258 154Q258 102 248 20Q221 58 214 89Q214 89 214 90Q202 125 202 153Q202 154 202 157Q202 160 202 162Z"/>
</svg>