<svg xmlns="http://www.w3.org/2000/svg" viewBox="0 -1024 1024 1024">
	<path fill="#000088" d="M121 -471Q119 -479 113.5 -508.5Q108 -538 105.5 -552Q103 -566 99 -590Q95 -614 93.5 -633Q92 -652 92 -670Q92 -728 113 -764L148 -824Q150 -828 152 -831Q153 -831 153 -831L205 -801Q213 -797 213 -735Q213 -723 212.5 -707.5Q212 -692 212 -686V-685Q214 -652 214 -619Q214 -560 208 -502Q222 -428 222 -389Q222 -383 222 -376Q245 -406 274.5 -426.5Q304 -447 330 -447Q342 -444 352 -438L404 -408Q453 -380 453 -303Q453 -294 452 -285Q453 -277 453 -270Q453 -241 439 -217L404 -156Q391 -133 368.5 -119.5Q346 -106 319 -106Q309 -106 299 -108Q310 -85 314 -79Q320 -64 329 -53Q352 -47 382 -47Q407 -47 425 -72L459 -140L516 -111L502 -84Q482 -44 467 -23Q463 -17 454.5 -2.5Q446 12 440.5 20.5Q435 29 424 36Q413 43 399 43Q347 43 317 26L265 -4Q248 -14 237 -30Q236 -18 235 -16L200 45L148 15Q144 13 144 -45Q144 -88 147 -139Q146 -154 146 -169Q143 -175 143 -181Q143 -188 144 -194Q143 -208 142 -223Q120 -165 92 -109L94 -102L7 -73L5 -79Q99 -265 121 -471ZM366 -272Q366 -325 341 -356Q294 -352 248 -296Q245 -287 244 -279Q240 -247 238 -215L245 -211Q248 -209 254 -199Q260 -199 266 -199Q273 -199 280 -199Q291 -197 302 -197Q337 -197 364 -219Q366 -229 366 -239Q366 -247 365 -255Q366 -263 366 -272Z"/>
	<path fill="#800080" d="M156 -720Q156 -708 155.5 -692.5Q155 -677 155 -670Q157 -637 157 -604Q157 -545 151 -487Q165 -412 165 -374Q165 -364 166 -353Q168 -355 205 -392Q250 -437 290 -437Q313 -431 329 -415L365 -380Q396 -348 396 -287Q396 -279 395 -270Q396 -262 396 -254Q396 -210 366 -180L331 -145Q302 -116 262 -116Q251 -116 240 -119Q235 -118 230 -118Q252 -71 257 -64Q259 -59 262 -54Q292 -37 342 -37Q350 -37 358 -40Q372 -64 375 -68L403 -124Q412 -142 431 -142Q444 -142 453.5 -132.5Q463 -123 463 -110Q463 -103 459 -96L445 -68Q442 -63 430.5 -43.5Q419 -24 411 -16L376 19Q362 33 342 33Q273 33 241 2L206 -34Q193 -46 187 -64Q185 -67 181 -74Q181 -57 181 -43Q181 -3 179 0L143 35Q143 35 143 35L107 0Q104 -4 104 -60Q104 -103 107 -155Q106 -169 105 -184Q103 -190 103 -196Q103 -201 104 -205Q102 -228 101 -251Q74 -170 35 -94Q39 -83 39 -77Q39 -64 29 -54Q19 -44 6 -44Q-19 -44 -26 -67L-35 -94Q59 -280 81 -487Q79 -494 73 -524Q67 -554 65 -567.5Q63 -581 59 -605Q55 -629 53.5 -648Q52 -667 52 -685Q52 -749 77 -786Q101 -821 112 -821Q113 -821 114 -820L149 -785Q156 -778 156 -720ZM325 -287Q325 -330 309 -359Q300 -364 290 -367Q259 -367 223 -338Q191 -298 187 -264Q184 -233 181 -203Q191 -193 193 -192Q209 -189 226 -189Q233 -189 240 -189Q251 -187 262 -187Q289 -187 311 -200Q326 -225 326 -254Q326 -262 325 -270Q325 -279 325 -287Z"/>
	<path fill="#daa520" d="M147 -777Q127 -742 127 -685Q127 -634 149 -522Q152 -563 152 -604Q152 -637 150 -670Q150 -677 150.5 -692.5Q151 -708 151 -720Q151 -761 147 -777ZM117 -685Q117 -751 143 -789Q144 -791 147 -791Q152 -791 155 -784Q157 -779 159 -769Q161 -752 161 -720Q161 -708 160.5 -692.5Q160 -677 160 -670Q162 -637 162 -604Q162 -545 156 -487Q170 -413 170 -374Q170 -341 178 -226Q180 -245 182 -265Q187 -310 234 -358.5Q281 -407 325 -407Q326 -407 326 -407Q365 -396 383 -363Q401 -330 401 -287Q401 -279 400 -270Q401 -262 401 -254Q401 -210 371 -178.5Q341 -147 297 -147Q286 -147 275 -149Q268 -148 261 -148Q261 -148 257.5 -148.5Q254 -149 249.5 -149Q245 -149 239.5 -149.5Q234 -150 228.5 -151Q223 -152 219 -153Q259 -69 261 -67Q261 -66 262 -66Q284 -7 377 -7Q389 -7 399 -14Q409 -21 414.5 -28Q420 -35 428 -50Q436 -64 441 -71L455 -98Q456 -101 459 -101Q464 -101 464 -96Q464 -95 463 -94L449 -66Q449 -65 449 -65Q445 -59 436.5 -44Q428 -29 422 -20.5Q416 -12 404 -4.5Q392 3 377 3Q278 3 253 -62Q247 -69 225 -116Q214 -141 206 -156Q192 -161 183 -168Q183 -161 182 -155Q186 -87 186 -43Q186 -20 185 -8Q184 5 178 5Q173 5 172 -1Q171 -5 171 -12Q169 -30 169 -60Q169 -103 172 -155Q171 -169 171 -183Q168 -189 168 -196Q168 -198 170 -200Q160 -351 160 -374Q160 -405 152 -453Q127 -265 40 -94Q42 -89 42 -88Q42 -83 37 -83Q33 -83 32 -86Q30 -93 30 -94Q30 -95 31 -96Q124 -282 146 -486Q144 -494 138.5 -523.5Q133 -553 130.5 -567Q128 -581 124 -605Q120 -629 118.5 -648Q117 -667 117 -685ZM275 -159Q276 -159 276 -159Q287 -157 297 -157Q336 -157 363.5 -185.5Q391 -214 391 -254Q391 -262 390 -269Q390 -270 390 -270Q390 -273 390.5 -278.5Q391 -284 391 -287Q391 -378 324 -397Q285 -397 241 -350.5Q197 -304 192 -263Q188 -232 186 -201H187Q191 -201 196 -195Q202 -187 213 -165Q235 -158 261 -158Q263 -158 268 -158.5Q273 -159 275 -159ZM199 -170Q190 -188 186 -191H185Q184 -186 184 -181Q189 -175 199 -170Z"/>
</svg>