<svg xmlns="http://www.w3.org/2000/svg" viewBox="0 -1024 1024 1024">
	<path fill="#000088" d="M205 -720Q205 -708 204.5 -692.5Q204 -677 204 -670Q206 -637 206 -604Q206 -545 200 -487Q214 -412 214 -374Q214 -364 215 -353Q217 -355 254 -392Q299 -437 339 -437Q362 -431 378 -415L414 -380Q445 -348 445 -287Q445 -279 444 -270Q445 -262 445 -254Q445 -210 415 -180L380 -145Q351 -116 311 -116Q300 -116 289 -119Q284 -118 279 -118Q301 -71 306 -64Q308 -59 311 -54Q341 -37 391 -37Q399 -37 407 -40Q421 -64 424 -68Q428 -77 437.5 -96Q447 -115 452 -124Q461 -142 480 -142Q493 -142 502.5 -132.5Q512 -123 512 -110Q512 -103 508 -96L494 -68Q491 -63 479.5 -43.5Q468 -24 460 -16L425 19Q411 33 391 33Q322 33 290 2L255 -34Q242 -46 236 -64Q234 -67 230 -74Q230 -57 230 -43Q230 -3 228 0L192 35Q192 35 192 35L156 0Q153 -4 153 -60Q153 -103 156 -155Q155 -169 154 -184Q152 -190 152 -196Q152 -201 153 -205Q151 -228 150 -251Q123 -170 84 -94Q88 -83 88 -77Q88 -64 78 -54Q68 -44 55 -44Q30 -44 23 -67Q22 -70 18.5 -79.5Q15 -89 14 -94Q108 -280 130 -487Q128 -494 122 -524Q116 -554 114 -567.5Q112 -581 108 -605Q104 -629 102.5 -648Q101 -667 101 -685Q101 -749 126 -786Q150 -821 161 -821Q162 -821 163 -820L198 -785Q205 -778 205 -720ZM374 -287Q374 -330 358 -359Q349 -364 339 -367Q308 -367 272 -338Q240 -298 236 -264Q233 -233 230 -203Q240 -193 242 -192Q258 -189 275 -189Q282 -189 289 -189Q300 -187 311 -187Q338 -187 360 -200Q375 -225 375 -254Q375 -262 374 -270Q374 -279 374 -287Z"/>
	<path fill="#800080" d="M156 -720Q156 -708 155.5 -692.5Q155 -677 155 -670Q157 -637 157 -604Q157 -545 151 -487Q165 -412 165 -374Q165 -364 166 -353Q168 -355 205 -392Q250 -437 290 -437Q313 -431 329 -415L365 -380Q396 -348 396 -287Q396 -279 395 -270Q396 -262 396 -254Q396 -210 366 -180L331 -145Q302 -116 262 -116Q251 -116 240 -119Q235 -118 230 -118Q252 -71 257 -64Q259 -59 262 -54Q292 -37 342 -37Q350 -37 358 -40Q372 -64 375 -68L403 -124Q412 -142 431 -142Q444 -142 453.5 -132.5Q463 -123 463 -110Q463 -103 459 -96L445 -68Q442 -63 430.5 -43.5Q419 -24 411 -16L376 19Q362 33 342 33Q273 33 241 2L206 -34Q193 -46 187 -64Q185 -67 181 -74Q181 -57 181 -43Q181 -3 179 0L143 35Q143 35 143 35L107 0Q104 -4 104 -60Q104 -103 107 -155Q106 -169 105 -184Q103 -190 103 -196Q103 -201 104 -205Q102 -228 101 -251Q74 -170 35 -94Q39 -83 39 -77Q39 -64 29 -54Q19 -44 6 -44Q-19 -44 -26 -67L-35 -94Q59 -280 81 -487Q79 -494 73 -524Q67 -554 65 -567.5Q63 -581 59 -605Q55 -629 53.5 -648Q52 -667 52 -685Q52 -749 77 -786Q101 -821 112 -821Q113 -821 114 -820L149 -785Q156 -778 156 -720ZM325 -287Q325 -330 309 -359Q300 -364 290 -367Q259 -367 223 -338Q191 -298 187 -264Q184 -233 181 -203Q191 -193 193 -192Q209 -189 226 -189Q233 -189 240 -189Q251 -187 262 -187Q289 -187 311 -200Q326 -225 326 -254Q326 -262 325 -270Q325 -279 325 -287Z"/>
	<path fill="#daa520" d="M197 -777Q177 -742 177 -685Q177 -634 199 -522Q202 -563 202 -604Q202 -637 200 -670Q200 -677 200.5 -692.5Q201 -708 201 -720Q201 -761 197 -777ZM167 -685Q167 -751 193 -789Q194 -791 197 -791Q202 -791 205 -784Q207 -779 209 -769Q211 -752 211 -720Q211 -708 210.5 -692.5Q210 -677 210 -670Q212 -637 212 -604Q212 -545 206 -487Q220 -413 220 -374Q220 -341 228 -226Q230 -245 232 -265Q237 -310 284 -358.5Q331 -407 375 -407Q376 -407 376 -407Q415 -396 433 -363Q451 -330 451 -287Q451 -279 450 -270Q451 -262 451 -254Q451 -210 421 -178.5Q391 -147 347 -147Q336 -147 325 -149Q318 -148 311 -148Q311 -148 307.5 -148.5Q304 -149 299.5 -149Q295 -149 289.5 -149.5Q284 -150 278.5 -151Q273 -152 269 -153Q309 -69 311 -67Q311 -66 312 -66Q334 -7 427 -7Q439 -7 449 -14Q459 -21 464.5 -28Q470 -35 478 -50Q486 -64 491 -71L505 -98Q506 -101 509 -101Q514 -101 514 -96Q514 -95 513 -94L499 -66Q499 -65 499 -65Q495 -59 486.5 -44Q478 -29 472 -20.5Q466 -12 454 -4.5Q442 3 427 3Q328 3 303 -62Q297 -69 275 -116Q264 -141 256 -156Q242 -161 233 -168Q233 -161 232 -155Q236 -87 236 -43Q236 -20 235 -8Q234 5 228 5Q223 5 222 -1Q221 -5 221 -12Q219 -30 219 -60Q219 -103 222 -155Q221 -169 221 -183Q218 -189 218 -196Q218 -198 220 -200Q210 -351 210 -374Q210 -405 202 -453Q177 -265 90 -94Q92 -89 92 -88Q92 -83 87 -83Q83 -83 82 -86Q80 -93 80 -94Q80 -95 81 -96Q174 -282 196 -486Q194 -494 188.5 -523.5Q183 -553 180.5 -567Q178 -581 174 -605Q170 -629 168.5 -648Q167 -667 167 -685ZM325 -159Q326 -159 326 -159Q337 -157 347 -157Q386 -157 413.5 -185.5Q441 -214 441 -254Q441 -262 440 -269Q440 -270 440 -270Q440 -273 440.5 -278.5Q441 -284 441 -287Q441 -378 374 -397Q335 -397 291 -350.5Q247 -304 242 -263Q238 -232 236 -201H237Q241 -201 246 -195Q252 -187 263 -165Q285 -158 311 -158Q313 -158 318 -158.5Q323 -159 325 -159ZM249 -170Q240 -188 236 -191H235Q234 -186 234 -181Q239 -175 249 -170Z"/>
</svg>