<svg xmlns="http://www.w3.org/2000/svg" viewBox="0 -1024 1024 1024">
	<path fill="#000088" d="M149 -242Q134 -347 134 -437Q134 -561 157 -711Q157 -713 159 -728Q161 -743 161.5 -746.5Q162 -750 164 -762.5Q166 -775 167.5 -780.5Q169 -786 172 -795.5Q175 -805 178.5 -812Q182 -819 187 -825Q211 -860 222 -860Q230 -860 236 -854L271 -819Q292 -798 292 -707Q292 -693 291 -671.5Q290 -650 290 -640Q290 -637 290 -636Q292 -604 292 -574Q292 -374 220 -242Q241 -88 268 -27Q273 -27 279 -30Q286 -40 311 -92L324 -119Q333 -137 353 -137Q366 -137 375.5 -128Q385 -119 385 -105Q385 -99 376 -81Q352 -27 332 -7L297 28Q281 44 264 44Q257 44 250 37L214 2Q186 -26 162 -161Q156 -154 150 -148L114 -113Q102 -101 89 -90Q88 -76 78 -67Q68 -58 54 -58Q39 -58 29 -68Q19 -78 19 -93V-99Q19 -111 54 -134Q76 -149 96 -166Q126 -200 149 -242ZM220 -640Q220 -644 220 -657Q205 -539 205 -437Q205 -420 206 -403Q221 -482 221 -574Q221 -604 220 -636Q220 -637 220 -640Z"/>
	<path fill="#800080" d="M100 -242Q85 -347 85 -437Q85 -561 108 -711Q108 -713 110 -728Q112 -743 112.5 -746.5Q113 -750 115 -762.5Q117 -775 118.5 -780.5Q120 -786 123 -795.5Q126 -805 129.5 -812Q133 -819 138 -825Q162 -860 173 -860Q181 -860 187 -854L222 -819Q243 -798 243 -707Q243 -693 242 -671.5Q241 -650 241 -640Q241 -637 241 -636Q243 -604 243 -574Q243 -374 171 -242Q192 -88 219 -27Q224 -27 230 -30Q237 -40 262 -92L275 -119Q284 -137 304 -137Q317 -137 326.5 -128Q336 -119 336 -105Q336 -99 327 -81Q303 -27 283 -7L248 28Q232 44 215 44Q208 44 201 37L165 2Q137 -26 113 -161Q107 -154 101 -148L65 -113Q53 -101 40 -90Q39 -76 29 -67Q19 -58 5 -58Q-10 -58 -20 -68Q-30 -78 -30 -93V-99Q-30 -111 5 -134Q27 -149 47 -166Q77 -200 100 -242ZM171 -640Q171 -644 171 -657Q156 -539 156 -437Q156 -420 157 -403Q172 -482 172 -574Q172 -604 171 -636Q171 -637 171 -640Z"/>
	<path fill="#daa520" d="M282 -707Q282 -693 281.5 -671.5Q281 -650 281 -640Q281 -637 281 -636Q283 -604 283 -574Q283 -386 218 -258Q206 -353 206 -437Q206 -560 228 -710Q228 -713 229.5 -724.5Q231 -736 231.5 -740Q232 -744 233.5 -754Q235 -764 236.5 -769Q238 -774 240 -782.5Q242 -791 244 -796Q246 -801 249 -807.5Q252 -814 255 -820Q268 -817 275 -792Q282 -763 282 -707ZM291 -640Q291 -650 291.5 -671.5Q292 -693 292 -707Q292 -765 284 -795Q275 -830 253 -830Q250 -830 249 -828Q244 -821 240.5 -813.5Q237 -806 234 -797Q231 -788 229 -781.5Q227 -775 225 -763.5Q223 -752 222.5 -747.5Q222 -743 220 -729Q218 -715 218 -712Q196 -561 196 -437Q196 -347 210 -243Q161 -156 82 -103Q80 -102 80 -99V-93Q80 -88 85 -88Q90 -88 90 -93V-96Q165 -146 212 -227Q234 -75 262 -18Q277 14 295 14Q319 14 341 -15Q348 -24 354.5 -34.5Q361 -45 364.5 -52.5Q368 -60 373.5 -72.5Q379 -85 382 -89Q382 -90 382 -92Q382 -97 377 -97Q374 -97 372 -94Q370 -89 364.5 -76.5Q359 -64 355.5 -57Q352 -50 346 -40Q340 -30 333 -21Q314 4 295 4Q283 4 271 -22Q243 -80 220 -241Q293 -374 293 -574Q293 -605 291 -636Q291 -638 291 -640Z"/>
</svg>