<svg xmlns="http://www.w3.org/2000/svg" viewBox="0 -1024 1024 1024">
	<path fill="#000088" d="M294 -722Q294 -709 293.5 -687Q293 -665 293 -655Q293 -653 293 -651Q295 -620 295 -589Q295 -390 222 -257Q243 -104 270 -42Q280 -48 289 -60Q296 -75 325 -135L384 -107Q361 -59 359 -55L324 6Q295 54 267 54Q263 54 259 52L207 22Q176 4 149 -139Q123 -106 92 -80V-78H89Q74 -65 57 -54L71 -78H5V-84Q5 -121 40 -144Q94 -180 134 -232Q121 -334 121 -421Q121 -545 143 -696Q143 -699 144.5 -711.5Q146 -724 147 -728.5Q148 -733 149.5 -743.5Q151 -754 152.5 -760Q154 -766 156.5 -774Q159 -782 162 -789Q165 -796 168 -802L203 -863Q206 -867 208 -870Q213 -870 217 -868L269 -838Q294 -823 294 -722Z"/>
	<path fill="#800080" d="M100 -242Q85 -347 85 -437Q85 -561 108 -711Q108 -713 110 -728Q112 -743 112.5 -746.5Q113 -750 115 -762.5Q117 -775 118.5 -780.5Q120 -786 123 -795.5Q126 -805 129.5 -812Q133 -819 138 -825Q162 -860 173 -860Q181 -860 187 -854L222 -819Q243 -798 243 -707Q243 -693 242 -671.5Q241 -650 241 -640Q241 -637 241 -636Q243 -604 243 -574Q243 -374 171 -242Q192 -88 219 -27Q224 -27 230 -30Q237 -40 262 -92L275 -119Q284 -137 304 -137Q317 -137 326.5 -128Q336 -119 336 -105Q336 -99 327 -81Q303 -27 283 -7L248 28Q232 44 215 44Q208 44 201 37L165 2Q137 -26 113 -161Q107 -154 101 -148L65 -113Q53 -101 40 -90Q39 -76 29 -67Q19 -58 5 -58Q-10 -58 -20 -68Q-30 -78 -30 -93V-99Q-30 -111 5 -134Q27 -149 47 -166Q77 -200 100 -242ZM171 -640Q171 -644 171 -657Q156 -539 156 -437Q156 -420 157 -403Q172 -482 172 -574Q172 -604 171 -636Q171 -637 171 -640Z"/>
	<path fill="#daa520" d="M232 -707Q232 -693 231.5 -671.5Q231 -650 231 -640Q231 -637 231 -636Q233 -604 233 -574Q233 -386 168 -258Q156 -353 156 -437Q156 -560 178 -710Q178 -713 179.5 -724.5Q181 -736 181.5 -740Q182 -744 183.5 -754Q185 -764 186.5 -769Q188 -774 190 -782.5Q192 -791 194 -796Q196 -801 199 -807.5Q202 -814 205 -820Q218 -817 225 -792Q232 -763 232 -707ZM241 -640Q241 -650 241.5 -671.5Q242 -693 242 -707Q242 -765 234 -795Q225 -830 203 -830Q200 -830 199 -828Q194 -821 190.5 -813.5Q187 -806 184 -797Q181 -788 179 -781.5Q177 -775 175 -763.5Q173 -752 172.5 -747.5Q172 -743 170 -729Q168 -715 168 -712Q146 -561 146 -437Q146 -347 160 -243Q111 -156 32 -103Q30 -102 30 -99V-93Q30 -88 35 -88Q40 -88 40 -93V-96Q115 -146 162 -227Q184 -75 212 -18Q227 14 245 14Q269 14 291 -15Q298 -24 304.5 -34.5Q311 -45 314.5 -52.5Q318 -60 323.5 -72.5Q329 -85 332 -89Q332 -90 332 -92Q332 -97 327 -97Q324 -97 322 -94Q320 -89 314.5 -76.5Q309 -64 305.5 -57Q302 -50 296 -40Q290 -30 283 -21Q264 4 245 4Q233 4 221 -22Q193 -80 170 -241Q243 -374 243 -574Q243 -605 241 -636Q241 -638 241 -640Z"/>
</svg>