<svg xmlns="http://www.w3.org/2000/svg" viewBox="0 -1024 1024 1024">
	<path fill="#000088" d="M328 -186Q328 -179 328.5 -163.5Q329 -148 329 -139Q329 -53 312 -24L277 36Q268 51 255 51Q237 51 222.5 43Q208 35 203 21Q194 -1 193 -47Q193 -52 193 -57Q193 -80 204.5 -119Q216 -158 217 -177Q219 -185 225 -211.5Q231 -238 236 -251Q233 -275 227 -295Q226 -297 221.5 -317.5Q217 -338 211 -347Q210 -349 205 -358Q196 -354 184 -337L164 -301Q163 -300 156 -289Q122 -223 104 -155Q101 -148 92 -105V-71H5V-75Q14 -117 17 -125Q39 -208 86 -289Q95 -304 113.5 -335.5Q132 -367 141 -382L160 -415Q179 -449 194 -449H204Q206 -449 209 -450Q212 -451 214 -451Q215 -451 216 -450L268 -420Q273 -417 278 -411.5Q283 -406 285.5 -402Q288 -398 292.5 -389Q297 -380 298 -377Q301 -373 303 -368Q309 -377 316 -385Q318 -388 333 -410Q348 -432 359.5 -441.5Q371 -451 384 -451Q389 -450 394 -447L446 -417Q453 -413 459 -406Q464 -411 472 -422Q480 -433 485 -439Q490 -445 501 -450Q512 -455 526 -455Q530 -455 534 -453L586 -423Q597 -417 610 -384Q615 -369 618 -365Q623 -307 634 -101L635 -53L664 -135L732 -111L718 -71Q670 29 661 35Q646 45 630 45Q618 45 612 41L560 11Q550 6 549 -7Q548 -61 537 -261L531 -335Q529 -338 520 -361Q506 -355 492 -336Q492 -335 490 -330Q488 -325 488 -322Q488 -320 488 -317Q494 -298 494 -268Q494 -261 494 -247Q494 -233 494 -226Q494 -202 498 -185.5Q502 -169 502 -98Q502 -27 493 -11L458 49Q456 53 453 53Q452 53 450 52L398 22Q394 19 389 10Q384 1 383 -1Q377 -9 369 -31L371 -161Q381 -212 401 -292Q400 -296 397.5 -306.5Q395 -317 395 -323Q395 -340 386 -357Q376 -352 367 -341.5Q358 -331 348 -315.5Q338 -300 333 -295Q328 -289 323 -282Q328 -250 328 -209Q328 -205 328 -197.5Q328 -190 328 -186Z"/>
	<path fill="#800080" d="M275 -171Q275 -164 275.5 -148.5Q276 -133 276 -123Q276 -24 253 -1L218 34Q211 41 202 41Q192 41 182.5 31.5Q173 22 167 6Q158 -17 157 -62Q156 -67 156 -72Q156 -95 167.5 -134Q179 -173 181 -192Q183 -200 189 -226.5Q195 -253 200 -267Q197 -290 191 -310Q190 -312 185 -332.5Q180 -353 175 -362Q173 -365 171 -369Q169 -369 168 -369H158Q157 -367 151.5 -356.5Q146 -346 143 -342Q79 -244 51 -140Q48 -133 39 -90V-86Q39 -71 29 -61Q19 -51 4 -51Q-11 -51 -21 -61Q-31 -71 -31 -86V-90Q-22 -133 -19 -140Q8 -244 73 -342Q75 -345 81 -356Q97 -386 107 -396L142 -431Q150 -439 158 -439H168Q170 -439 173 -440Q176 -441 178 -441Q183 -439 188 -434L223 -399Q228 -394 245 -362Q249 -357 251 -349Q276 -384 283 -391L318 -426Q333 -441 348 -441Q360 -438 371 -427L406 -392Q408 -390 409 -388Q412 -392 415 -395L450 -430Q465 -445 490 -445Q497 -445 503 -439L538 -404Q547 -396 557 -368Q563 -354 565 -350Q571 -292 581 -86L583 -36Q584 -36 585 -36L595 -56L616 -118Q624 -140 648 -140Q662 -140 671.5 -130.5Q681 -121 681 -107Q681 -101 679 -96L665 -56L643 -10Q636 7 608 25Q593 35 577 35Q562 35 554 28L519 -7Q514 -12 513 -22Q511 -76 501 -276L495 -350Q492 -353 484 -374Q475 -374 467 -371Q461 -363 449 -351Q448 -347 443 -331Q438 -315 435 -307Q435 -304 435 -302Q442 -283 442 -253Q442 -246 441.5 -232Q441 -218 441 -211Q441 -186 445.5 -170Q450 -154 450 -83Q450 -5 439 6L403 42Q402 43 400 43Q397 42 394 39L359 4Q356 1 352.5 -6Q349 -13 347 -16Q340 -24 333 -46L335 -176Q345 -227 364 -307Q364 -311 361.5 -321.5Q359 -332 359 -338Q358 -354 351 -370Q349 -370 348 -371Q341 -371 335 -368Q317 -342 315 -340Q297 -317 277 -280Q274 -274 271 -267Q276 -234 276 -194Q276 -190 275.5 -182.5Q275 -175 275 -171Z"/>
	<path fill="#daa520" d="M208 -401Q207 -401 204 -400Q201 -399 199 -399H189Q182 -399 172 -387Q165 -378 151 -354Q146 -343 143 -339Q79 -242 52 -139Q52 -138 52 -138Q49 -131 40 -89V-86Q40 -81 35 -81Q30 -81 30 -86V-90Q30 -91 30 -91Q39 -134 42 -142Q70 -247 135 -345Q137 -348 143 -358Q156 -383 165 -394Q177 -409 189 -409H199Q201 -409 204 -410Q207 -411 209 -411Q210 -411 211 -410Q218 -407 223.5 -401Q229 -395 231.5 -391Q234 -387 239 -377Q244 -367 245 -365Q250 -358 252.5 -349Q255 -340 257.5 -328.5Q260 -317 262 -311Q266 -298 269 -283Q288 -320 307 -343Q309 -346 324 -368.5Q339 -391 351.5 -401Q364 -411 379 -411Q380 -411 380 -411Q401 -404 415 -383Q429 -362 430 -338Q430 -334 432 -327L440 -354Q441 -355 442 -356Q451 -363 462 -379.5Q473 -396 486 -405.5Q499 -415 521 -415Q533 -415 542 -402Q549 -393 557 -370Q563 -356 565 -353Q566 -352 566 -350Q571 -292 582 -86L584 -22Q586 -5 608 -5Q623 -5 635 -13L656 -58L670 -98Q671 -101 675 -101Q680 -101 680 -96Q680 -95 680 -94L666 -54L644 -8Q643 -7 642 -6Q626 5 608 5Q577 5 574 -21V-22Q573 -76 562 -276L556 -348Q553 -353 548 -367Q533 -405 521 -405Q502 -405 492.5 -398Q483 -391 472 -375Q459 -357 449 -349Q436 -307 436 -307Q436 -305 436 -303Q442 -283 442 -253Q442 -246 442 -232Q442 -218 442 -211Q442 -187 446 -171Q450 -154 450 -83Q450 -38 447 -14Q444 -1 441 5Q437 13 431 13Q430 13 429 13Q423 11 420 6.5Q417 2 414 -4Q411 -10 409 -13Q402 -22 394 -44Q394 -45 394 -46L396 -176Q396 -177 396 -177Q406 -229 426 -307Q425 -311 422.5 -321.5Q420 -332 420 -338Q420 -358 407.5 -376.5Q395 -395 378 -401Q358 -400 328 -356Q319 -342 315 -337Q297 -315 277 -278Q273 -269 272 -266Q276 -234 276 -194Q276 -190 276 -182.5Q276 -175 276 -171Q276 -164 276.5 -148.5Q277 -133 277 -123Q277 -61 268 -29Q257 11 233 11Q230 11 228 8Q219 -16 218 -62Q218 -67 218 -72Q218 -95 229.5 -134.5Q241 -174 242 -192Q242 -193 242 -193Q245 -202 250.5 -228Q256 -254 261 -267Q258 -289 252 -309Q251 -311 246.5 -331Q242 -351 237 -359Q236 -360 232 -369Q219 -395 208 -401ZM432 -253Q432 -271 430 -284Q418 -236 406 -175L404 -47Q411 -26 417 -19Q418 -17 422.5 -8Q427 1 431 3Q434 -1 437 -16Q440 -39 440 -83Q440 -153 436 -169Q432 -186 432 -211Q432 -218 432 -232Q432 -246 432 -253ZM266 -194Q266 -221 264 -243Q262 -236 258.5 -218.5Q255 -201 252 -191Q251 -173 239.5 -133.5Q228 -94 228 -72Q228 -70 228 -66.5Q228 -63 228 -62Q229 -21 236 1Q251 -2 258 -31Q267 -63 267 -123Q267 -133 266.5 -148.5Q266 -164 266 -171Q266 -175 266 -182.5Q266 -190 266 -194Z"/>
</svg>