<svg xmlns="http://www.w3.org/2000/svg" viewBox="0 -1024 1024 1024">
	<path fill="#000088" d="M291 -391Q293 -394 299.5 -403Q306 -412 308.5 -415.5Q311 -419 317 -426.5Q323 -434 327.5 -437.5Q332 -441 339 -446Q346 -451 352.5 -453.5Q359 -456 367.5 -457.5Q376 -459 386 -459Q391 -459 397 -456L449 -426Q457 -421 470 -405Q477 -396 480 -393L488 -337Q486 -323 480 -284Q474 -245 472 -223Q469 -197 465 -50Q466 -51 468 -52L498 -104Q499 -106 518 -135L571 -101L540 -53Q536 -43 533 -37L498 23Q484 47 457 47Q449 47 445 45L393 15Q390 13 385.5 8Q381 3 377 1Q378 -16 378.5 -59.5Q379 -103 380.5 -134Q382 -165 385 -193Q387 -214 393 -253.5Q399 -293 401 -307L393 -363Q391 -364 388 -368Q354 -363 327 -327Q319 -308 312 -290L308 -141L298 -57Q298 -39 287 -21L252 40Q247 49 241 49Q206 49 189 19Q179 1 179 -33Q179 -38 179 -45Q178 -53 178 -62Q178 -119 203 -179L211 -225Q218 -242 225 -259V-265L219 -327Q217 -330 208 -353Q207 -352 191 -333Q179 -318 168 -302Q155 -275 142.5 -243Q130 -211 115 -169.5Q100 -128 92 -107L70 -51L5 -77Q12 -95 31.5 -148.5Q51 -202 65.5 -237Q80 -272 98 -303L133 -364Q152 -396 174 -423Q175 -425 179.5 -430.5Q184 -436 186.5 -439Q189 -442 193 -446Q197 -450 201.5 -451.5Q206 -453 210 -453Q214 -453 218 -451L270 -421Q281 -415 291 -391Z"/>
	<path fill="#800080" d="M-1 -47Q-14 -47 -24 -56.5Q-34 -66 -34 -80Q-34 -86 -31 -92Q-24 -112 -4.5 -166Q15 -220 25.5 -245.5Q36 -271 57 -310Q78 -349 103 -378Q104 -380 107.5 -384Q111 -388 113.5 -391.5Q116 -395 119 -398L154 -433Q164 -443 174 -443Q181 -443 188 -437L223 -401Q231 -393 240 -373Q247 -382 253 -389L288 -424Q313 -449 350 -449Q359 -449 370 -439L406 -403Q410 -399 416 -391Q427 -380 427 -378L435 -322Q433 -308 427.5 -268.5Q422 -229 419 -208Q417 -182 412 -34Q414 -34 415 -34Q426 -57 429 -62L467 -122Q476 -136 492 -136Q505 -136 513.5 -127Q522 -118 522 -106Q522 -97 517 -90L499 -62Q496 -56 487.5 -37Q479 -18 471 -10L436 25Q424 37 404 37Q397 37 392.5 34.5Q388 32 383.5 27.5Q379 23 376 21Q341 0 341 -14Q341 -31 342 -74.5Q343 -118 344.5 -149Q346 -180 349 -208Q351 -229 357 -268.5Q363 -308 365 -322L357 -377Q353 -379 350 -379Q325 -379 306 -367Q303 -364 296 -353.5Q289 -343 285 -338Q272 -307 259 -274L255 -126L245 -42Q245 -35 241 -20.5Q237 -6 230 1L195 36Q192 39 188 39Q173 39 153 4Q142 -14 142 -48Q142 -53 143 -60Q142 -69 142 -78Q142 -135 167 -194L175 -240Q182 -257 188 -274L189 -280L183 -342Q182 -343 170 -372Q169 -372 168 -372Q146 -343 125.5 -305Q105 -267 95 -241.5Q85 -216 66 -164.5Q47 -113 39 -92L30 -68Q22 -47 -1 -47Z"/>
	<path fill="#daa520" d="M35 -87Q30 -87 30 -92Q30 -93 30 -94Q38 -114 57.5 -168Q77 -222 87.5 -248Q98 -274 119.5 -312.5Q141 -351 165 -381Q166 -382 172.5 -390.5Q179 -399 182 -402Q185 -405 191.5 -409Q198 -413 205 -413Q218 -413 228 -398Q235 -388 245 -362Q251 -348 253 -345Q254 -344 254 -342L258 -296Q267 -318 276 -340Q277 -340 277 -341Q280 -345 291 -361Q302 -377 308 -383.5Q314 -390 325.5 -400.5Q337 -411 350.5 -415Q364 -419 381 -419Q391 -419 399 -412.5Q407 -406 415 -395.5Q423 -385 426 -382Q428 -381 428 -379L436 -323Q436 -322 436 -322Q436 -322 436 -321Q434 -307 428 -268Q422 -229 420 -207Q417 -180 415.5 -149.5Q414 -119 413.5 -76Q413 -33 412 -17Q415 -14 420 -10Q426 -3 435 -3Q448 -3 457.5 -9.5Q467 -16 470.5 -22.5Q474 -29 480 -43Q487 -58 491 -65L509 -93Q510 -95 513 -95Q518 -95 518 -90Q518 -89 517 -87L499 -59Q495 -53 489 -39Q485 -28 481.5 -22.5Q478 -17 472 -9Q466 -1 456.5 3Q447 7 435 7Q427 7 422 4.5Q417 2 412.5 -3Q408 -8 404 -10Q402 -11 402 -14Q407 -174 410 -208Q410 -209 410 -209Q418 -261 426 -322L418 -376Q416 -378 409 -386Q391 -409 381 -409Q366 -409 353.5 -405.5Q341 -402 330.5 -392Q320 -382 314.5 -376Q309 -370 299 -355Q289 -340 285 -336Q273 -305 260 -273L256 -126V-125L246 -42Q246 -29 238 -11Q230 9 219 9Q216 9 215 6Q204 -13 204 -48Q204 -53 204 -60Q203 -69 203 -78Q203 -135 228 -195L236 -241Q236 -241 236 -242Q243 -259 250 -275V-280L244 -340Q242 -345 236 -359Q226 -383 220 -392Q212 -403 205 -403Q202 -403 198.5 -401.5Q195 -400 191 -396Q187 -392 185 -389.5Q183 -387 178.5 -381.5Q174 -376 173 -375Q149 -346 128 -307.5Q107 -269 96.5 -243.5Q86 -218 66.5 -164Q47 -110 40 -90Q38 -87 35 -87ZM214 -60Q214 -58 214 -54Q214 -50 214 -48Q214 -19 221 -2Q226 -6 229 -14Q236 -31 236 -42Q236 -42 236 -43L246 -126L249 -247Q248 -243 246 -239L238 -193Q238 -193 238 -192Q213 -134 213 -78Q213 -75 213.5 -69Q214 -63 214 -60Z"/>
</svg>