<svg xmlns="http://www.w3.org/2000/svg" viewBox="0 -1024 1024 1024">
	<path fill="#000088" d="M76 -135Q75 -145 66.5 -178Q58 -211 58 -230Q58 -248 62 -270Q75 -345 115 -385L150 -420Q172 -442 199 -447Q212 -454 228 -454Q255 -454 272 -438L307 -402Q316 -393 319 -381L327 -372Q353 -346 361 -312Q362 -297 371.5 -274Q381 -251 382 -237Q385 -208 394 -189L399 -92Q399 -91 399 -90Q399 -75 389 -64.5Q379 -54 364 -54Q349 -54 338 -66Q324 -34 307 -17L272 18Q254 35 233 39Q225 39 205 35Q173 29 150 6L115 -30Q98 -46 88 -69Q73 -62 57 -59H49Q34 -59 24 -69Q14 -79 14 -94Q14 -109 24 -119Q34 -129 49 -129H57Q67 -131 76 -135ZM174 -206Q243 -286 246 -352Q240 -363 233 -372Q229 -377 225 -383Q211 -383 199 -377Q183 -373 169 -365Q142 -326 132 -270Q128 -248 128 -230Q129 -210 138 -173Q162 -192 174 -206ZM286 -204Q286 -225 280 -253Q267 -233 244 -206Q243 -204 207 -169Q159 -120 149 -111Q152 -77 169 -49Q186 -39 205.5 -35Q225 -31 233 -31Q244 -33 253 -39Q261 -52 270 -70Q286 -126 286 -179Q286 -184 286 -190Q286 -197 286 -204Z"/>
	<path fill="#800080" d="M27 -135Q26 -145 17.5 -178Q9 -211 9 -230Q9 -248 13 -270Q26 -345 66 -385L101 -420Q123 -442 150 -447Q163 -454 179 -454Q206 -454 223 -438L258 -402Q267 -393 270 -381L278 -372Q304 -346 312 -312Q313 -297 322.5 -274Q332 -251 333 -237Q336 -208 345 -189L350 -92Q350 -91 350 -90Q350 -75 340 -64.5Q330 -54 315 -54Q300 -54 289 -66Q275 -34 258 -17L223 18Q205 35 184 39Q176 39 156 35Q124 29 101 6L66 -30Q49 -46 39 -69Q24 -62 8 -59H0Q-15 -59 -25 -69Q-35 -79 -35 -94Q-35 -109 -25 -119Q-15 -129 0 -129H8Q18 -131 27 -135ZM125 -206Q194 -286 197 -352Q191 -363 184 -372Q180 -377 176 -383Q162 -383 150 -377Q134 -373 120 -365Q93 -326 83 -270Q79 -248 79 -230Q80 -210 89 -173Q113 -192 125 -206ZM237 -204Q237 -225 231 -253Q218 -233 195 -206Q194 -204 158 -169Q110 -120 100 -111Q103 -77 120 -49Q137 -39 156.5 -35Q176 -31 184 -31Q195 -33 204 -39Q212 -52 221 -70Q237 -126 237 -179Q237 -184 237 -190Q237 -197 237 -204Z"/>
	<path fill="#daa520" d="M144 -121Q143 -138 133.5 -174Q124 -210 124 -230Q124 -248 128 -271Q137 -322 163.5 -365Q190 -408 233 -417Q247 -424 264 -424Q285 -424 302.5 -413Q320 -402 324 -382Q357 -355 367 -313Q367 -313 367 -312Q368 -299 377 -276Q386 -253 388 -238Q391 -209 399 -191Q400 -190 400 -189L405 -92Q405 -87 400 -87Q395 -87 395 -91L390 -188Q381 -207 378 -236Q377 -250 367.5 -273Q358 -296 357 -311Q349 -344 325 -368Q324 -362 322 -355Q322 -354 322 -353Q338 -325 344 -301Q345 -294 349.5 -278.5Q354 -263 356.5 -253.5Q359 -244 361 -230Q363 -216 363 -204Q363 -197 362 -190Q362 -184 362 -179Q362 -126 346 -69Q346 -68 346 -68Q315 0 270 9Q269 9 269 9Q260 9 240 5Q199 -3 174 -35Q149 -67 145 -110Q120 -95 94 -89Q94 -89 93 -89H85Q80 -89 80 -94Q80 -99 85 -99H92Q118 -105 144 -121ZM153 -127Q168 -138 181.5 -150Q195 -162 216 -183.5Q237 -205 241 -209Q309 -290 312 -351Q306 -362 299 -371L271 -398Q269 -400 269 -402Q269 -407 274 -407Q275 -407 275 -407Q292 -403 308 -394Q294 -414 264 -414Q249 -414 237 -408Q237 -407 236 -407Q197 -399 172 -359Q147 -319 138 -269Q134 -247 134 -230Q134 -211 143 -176.5Q152 -142 153 -127ZM352 -190Q352 -192 352.5 -197Q353 -202 353 -204Q353 -215 351 -229Q349 -243 346.5 -252Q344 -261 340 -276.5Q336 -292 334 -299Q330 -315 320 -335Q312 -278 249 -203Q249 -203 248 -202Q241 -195 226.5 -180Q212 -165 203 -156Q194 -147 180.5 -135.5Q167 -124 154 -116Q157 -74 180.5 -43.5Q204 -13 242 -5Q261 -1 269 -1Q308 -9 336 -72Q352 -127 352 -179Q352 -181 352 -184.5Q352 -188 352 -190ZM315 -373Q315 -375 315 -377Q304 -385 293 -390L306 -378Q307 -377 307 -377Q311 -372 314 -366Q315 -370 315 -373Z"/>
</svg>