<svg xmlns="http://www.w3.org/2000/svg" viewBox="0 -1024 1024 1024">
	<path fill="#000088" d="M28 -143Q14 -198 14 -215Q14 -232 18 -255Q26 -302 47 -338L82 -398Q111 -449 155 -457Q168 -464 184 -464Q202 -464 217 -456L269 -426Q288 -415 291 -395Q324 -368 334 -327Q335 -313 344.5 -289.5Q354 -266 355 -252Q358 -223 367 -204L373 -81L309 -78Q305 -69 301 -61L266 -1Q241 43 206 49Q197 49 178 45Q160 42 145 33L93 3Q61 -16 45 -53Q38 -50 30 -49H5V-139H13Q20 -141 28 -143ZM190 -283Q201 -310 202 -337Q195 -349 188 -359L177 -369Q175 -368 172 -367Q142 -361 118 -335Q110 -311 105 -285Q101 -263 101 -245Q101 -226 109 -196Q120 -206 139.5 -226Q159 -246 165 -251Q180 -269 190 -283ZM243 -189Q243 -210 236 -238L227 -223Q212 -197 182 -161Q176 -155 156 -135Q136 -115 125 -104Q134 -70 156 -46Q177 -41 189 -41Q211 -46 228 -64Q242 -115 242 -164Q242 -169 242 -175Q243 -182 243 -189Z"/>
	<path fill="#800080" d="M27 -135Q26 -145 17.5 -178Q9 -211 9 -230Q9 -248 13 -270Q26 -345 66 -385L101 -420Q123 -442 150 -447Q163 -454 179 -454Q206 -454 223 -438L258 -402Q267 -393 270 -381L278 -372Q304 -346 312 -312Q313 -297 322.5 -274Q332 -251 333 -237Q336 -208 345 -189L350 -92Q350 -91 350 -90Q350 -75 340 -64.5Q330 -54 315 -54Q300 -54 289 -66Q275 -34 258 -17L223 18Q205 35 184 39Q176 39 156 35Q124 29 101 6L66 -30Q49 -46 39 -69Q24 -62 8 -59H0Q-15 -59 -25 -69Q-35 -79 -35 -94Q-35 -109 -25 -119Q-15 -129 0 -129H8Q18 -131 27 -135ZM125 -206Q194 -286 197 -352Q191 -363 184 -372Q180 -377 176 -383Q162 -383 150 -377Q134 -373 120 -365Q93 -326 83 -270Q79 -248 79 -230Q80 -210 89 -173Q113 -192 125 -206ZM237 -204Q237 -225 231 -253Q218 -233 195 -206Q194 -204 158 -169Q110 -120 100 -111Q103 -77 120 -49Q137 -39 156.5 -35Q176 -31 184 -31Q195 -33 204 -39Q212 -52 221 -70Q237 -126 237 -179Q237 -184 237 -190Q237 -197 237 -204Z"/>
	<path fill="#daa520" d="M94 -121Q93 -138 83.5 -174Q74 -210 74 -230Q74 -248 78 -271Q87 -322 113.5 -365Q140 -408 183 -417Q197 -424 214 -424Q235 -424 252.5 -413Q270 -402 274 -382Q307 -355 317 -313Q317 -313 317 -312Q318 -299 327 -276Q336 -253 338 -238Q341 -209 349 -191Q350 -190 350 -189L355 -92Q355 -87 350 -87Q345 -87 345 -91L340 -188Q331 -207 328 -236Q327 -250 317.5 -273Q308 -296 307 -311Q299 -344 275 -368Q274 -362 272 -355Q272 -354 272 -353Q288 -325 294 -301Q295 -294 299.5 -278.5Q304 -263 306.5 -253.5Q309 -244 311 -230Q313 -216 313 -204Q313 -197 312 -190Q312 -184 312 -179Q312 -126 296 -69Q296 -68 296 -68Q265 0 220 9Q219 9 219 9Q210 9 190 5Q149 -3 124 -35Q99 -67 95 -110Q70 -95 44 -89Q44 -89 43 -89H35Q30 -89 30 -94Q30 -99 35 -99H42Q68 -105 94 -121ZM103 -127Q118 -138 131.5 -150Q145 -162 166 -183.5Q187 -205 191 -209Q259 -290 262 -351Q256 -362 249 -371L221 -398Q219 -400 219 -402Q219 -407 224 -407Q225 -407 225 -407Q242 -403 258 -394Q244 -414 214 -414Q199 -414 187 -408Q187 -407 186 -407Q147 -399 122 -359Q97 -319 88 -269Q84 -247 84 -230Q84 -211 93 -176.5Q102 -142 103 -127ZM302 -190Q302 -192 302.5 -197Q303 -202 303 -204Q303 -215 301 -229Q299 -243 296.5 -252Q294 -261 290 -276.5Q286 -292 284 -299Q280 -315 270 -335Q262 -278 199 -203Q199 -203 198 -202Q191 -195 176.5 -180Q162 -165 153 -156Q144 -147 130.5 -135.5Q117 -124 104 -116Q107 -74 130.5 -43.5Q154 -13 192 -5Q211 -1 219 -1Q258 -9 286 -72Q302 -127 302 -179Q302 -181 302 -184.5Q302 -188 302 -190ZM265 -373Q265 -375 265 -377Q254 -385 243 -390L256 -378Q257 -377 257 -377Q261 -372 264 -366Q265 -370 265 -373Z"/>
</svg>