<svg xmlns="http://www.w3.org/2000/svg" viewBox="0 -1024 1024 1024">
	<path fill="#000088" d="M216 -58Q225 -39 225 -28Q225 -9 237 47Q251 121 251 153Q251 193 235 210L199 245Q190 255 181 255Q171 255 162.5 244Q154 233 153 218L145 128L136 -85L133 -90Q133 -91 132.5 -94.5Q132 -98 132 -99Q132 -100 132 -100L130 -136L58 -55Q50 -46 38 -46Q27 -46 19.5 -54Q12 -62 12 -72Q12 -82 19 -90L67 -144Q68 -145 73 -151Q110 -191 123 -241L121 -260Q110 -335 109 -344Q103 -371 103 -388Q103 -401 107 -405L142 -440Q143 -441 144 -441Q146 -441 148 -439L183 -404Q188 -399 192 -387L204 -398Q222 -417 247 -417Q275 -417 299 -393L335 -357Q365 -327 365 -282Q365 -280 365 -275Q365 -270 365 -267Q365 -253 367 -224Q369 -195 369 -180Q357 -139 335 -116Q364 -118 373 -127Q380 -134 391 -134Q401 -134 408.5 -126.5Q416 -119 416 -109Q416 -98 408 -90L373 -56Q361 -45 324 -45Q300 -45 284 -51Q278 -53 256 -58Q247 -56 236 -56Q224 -56 216 -58ZM294 -267Q294 -270 294.5 -275Q295 -280 295 -282Q295 -312 280 -337Q263 -346 247 -346Q236 -346 225 -342L203 -298L200 -186L204 -141Q226 -137 256 -129Q270 -132 281 -138Q292 -155 299 -180Q299 -195 296.5 -224Q294 -253 294 -267Z"/>
	<path fill="#800080" d="M167 -58Q176 -39 176 -28Q176 -9 188 47Q202 121 202 153Q202 193 186 210L150 245Q141 255 132 255Q122 255 113.5 244Q105 233 104 218L96 128L87 -85L84 -90Q84 -91 83.5 -94.5Q83 -98 83 -99Q83 -100 83 -100L81 -136L9 -55Q1 -46 -11 -46Q-22 -46 -29.5 -54Q-37 -62 -37 -72Q-37 -82 -30 -90L18 -144Q19 -145 24 -151Q61 -191 74 -241L72 -260Q61 -335 60 -344Q54 -371 54 -388Q54 -401 58 -405L93 -440Q94 -441 95 -441Q97 -441 99 -439L134 -404Q139 -399 143 -387L155 -398Q173 -417 198 -417Q226 -417 250 -393L286 -357Q316 -327 316 -282Q316 -280 316 -275Q316 -270 316 -267Q316 -253 318 -224Q320 -195 320 -180Q308 -139 286 -116Q315 -118 324 -127Q331 -134 342 -134Q352 -134 359.5 -126.5Q367 -119 367 -109Q367 -98 359 -90L324 -56Q312 -45 275 -45Q251 -45 235 -51Q229 -53 207 -58Q198 -56 187 -56Q175 -56 167 -58ZM245 -267Q245 -270 245.5 -275Q246 -280 246 -282Q246 -312 231 -337Q214 -346 198 -346Q187 -346 176 -342L154 -298L151 -186L155 -141Q177 -137 207 -129Q221 -132 232 -138Q243 -155 250 -180Q250 -195 247.5 -224Q245 -253 245 -267Z"/>
	<path fill="#daa520" d="M190 -336Q190 -367 182 -389Q179 -395 176 -399Q174 -395 174 -388Q174 -372 180 -345Q181 -338 190 -278Q190 -282 190 -285Q190 -297 188 -309Q188 -310 188 -310Q188 -310 188 -311Q190 -324 190 -336ZM242 153Q242 121 227 48Q216 -9 216 -28Q216 -38 209 -53L216 128L223 210Q242 195 242 153ZM366 -267Q366 -253 368 -224Q370 -195 370 -180Q370 -179 370 -179Q351 -113 306 -94Q314 -92 317 -91Q332 -85 355 -85Q390 -85 401 -95Q402 -97 404 -97Q409 -97 409 -92Q409 -89 407 -88Q394 -75 355 -75Q331 -75 313 -81Q308 -83 287 -88Q278 -87 267 -87Q262 -87 257 -87Q247 -88 228.5 -94.5Q210 -101 207 -102V-87Q208 -86 208 -84Q208 -76 216 -60Q226 -41 226 -28Q226 -10 237 46Q252 120 252 153Q252 208 221 223Q220 223 219 223Q214 223 214 218L206 128L197 -84L195 -87Q194 -88 194 -90L190 -164Q190 -164 191 -186Q191 -186 187 -217Q171 -174 137 -141L89 -87Q87 -85 85 -85Q80 -85 80 -90Q80 -92 81 -93L129 -147V-148Q171 -188 184 -241L182 -259Q172 -335 170 -343Q164 -371 164 -388Q164 -401 168 -406Q171 -411 175.5 -411Q180 -411 184 -406Q188 -401 191 -392Q200 -369 200 -336Q200 -323 198 -310Q198 -309 198 -308L223 -356Q223 -357 223 -357Q245 -387 278 -387Q312 -387 339 -355.5Q366 -324 366 -282Q366 -280 366 -275Q366 -270 366 -267ZM356 -267Q356 -270 356 -275Q356 -280 356 -282Q356 -320 331.5 -348.5Q307 -377 278 -377Q251 -377 231 -351L204 -297L201 -186Q201 -179 203 -153.5Q205 -128 206 -114Q207 -114 207 -114Q227 -114 288 -99Q339 -110 360 -181Q360 -195 358 -224Q356 -253 356 -267Z"/>
</svg>