<svg xmlns="http://www.w3.org/2000/svg" viewBox="0 -1024 1024 1024">
	<path fill="#000088" d="M216 -58Q225 -39 225 -28Q225 -9 237 47Q251 121 251 153Q251 193 235 210L199 245Q190 255 181 255Q171 255 162.5 244Q154 233 153 218L145 128L136 -85L133 -90Q133 -91 132.5 -94.5Q132 -98 132 -99Q132 -100 132 -100L130 -136L58 -55Q50 -46 38 -46Q27 -46 19.5 -54Q12 -62 12 -72Q12 -82 19 -90L67 -144Q68 -145 73 -151Q110 -191 123 -241L121 -260Q110 -335 109 -344Q103 -371 103 -388Q103 -401 107 -405L142 -440Q143 -441 144 -441Q146 -441 148 -439L183 -404Q188 -399 192 -387L204 -398Q222 -417 247 -417Q275 -417 299 -393L335 -357Q365 -327 365 -282Q365 -280 365 -275Q365 -270 365 -267Q365 -253 367 -224Q369 -195 369 -180Q357 -139 335 -116Q364 -118 373 -127Q380 -134 391 -134Q401 -134 408.5 -126.5Q416 -119 416 -109Q416 -98 408 -90L373 -56Q361 -45 324 -45Q300 -45 284 -51Q278 -53 256 -58Q247 -56 236 -56Q224 -56 216 -58ZM294 -267Q294 -270 294.5 -275Q295 -280 295 -282Q295 -312 280 -337Q263 -346 247 -346Q236 -346 225 -342L203 -298L200 -186L204 -141Q226 -137 256 -129Q270 -132 281 -138Q292 -155 299 -180Q299 -195 296.5 -224Q294 -253 294 -267Z"/>
	<path fill="#800080" d="M167 -58Q176 -39 176 -28Q176 -9 188 47Q202 121 202 153Q202 193 186 210L150 245Q141 255 132 255Q122 255 113.5 244Q105 233 104 218L96 128L87 -85L84 -90Q84 -91 83.5 -94.5Q83 -98 83 -99Q83 -100 83 -100L81 -136L9 -55Q1 -46 -11 -46Q-22 -46 -29.5 -54Q-37 -62 -37 -72Q-37 -82 -30 -90L18 -144Q19 -145 24 -151Q61 -191 74 -241L72 -260Q61 -335 60 -344Q54 -371 54 -388Q54 -401 58 -405L93 -440Q94 -441 95 -441Q97 -441 99 -439L134 -404Q139 -399 143 -387L155 -398Q173 -417 198 -417Q226 -417 250 -393L286 -357Q316 -327 316 -282Q316 -280 316 -275Q316 -270 316 -267Q316 -253 318 -224Q320 -195 320 -180Q308 -139 286 -116Q315 -118 324 -127Q331 -134 342 -134Q352 -134 359.5 -126.5Q367 -119 367 -109Q367 -98 359 -90L324 -56Q312 -45 275 -45Q251 -45 235 -51Q229 -53 207 -58Q198 -56 187 -56Q175 -56 167 -58ZM245 -267Q245 -270 245.5 -275Q246 -280 246 -282Q246 -312 231 -337Q214 -346 198 -346Q187 -346 176 -342L154 -298L151 -186L155 -141Q177 -137 207 -129Q221 -132 232 -138Q243 -155 250 -180Q250 -195 247.5 -224Q245 -253 245 -267Z"/>
	<path fill="#daa520" d="M130 -336Q130 -367 122 -389Q119 -395 116 -399Q114 -395 114 -388Q114 -372 120 -345Q121 -338 130 -278Q130 -282 130 -285Q130 -297 128 -309Q128 -310 128 -310Q128 -310 128 -311Q130 -324 130 -336ZM182 153Q182 121 167 48Q156 -9 156 -28Q156 -38 149 -53L156 128L163 210Q182 195 182 153ZM306 -267Q306 -253 308 -224Q310 -195 310 -180Q310 -179 310 -179Q291 -113 246 -94Q254 -92 257 -91Q272 -85 295 -85Q330 -85 341 -95Q342 -97 344 -97Q349 -97 349 -92Q349 -89 347 -88Q334 -75 295 -75Q271 -75 253 -81Q248 -83 227 -88Q218 -87 207 -87Q202 -87 197 -87Q187 -88 168.5 -94.5Q150 -101 147 -102V-87Q148 -86 148 -84Q148 -76 156 -60Q166 -41 166 -28Q166 -10 177 46Q192 120 192 153Q192 208 161 223Q160 223 159 223Q154 223 154 218L146 128L137 -84L135 -87Q134 -88 134 -90L130 -164Q130 -164 131 -186Q131 -186 127 -217Q111 -174 77 -141L29 -87Q27 -85 25 -85Q20 -85 20 -90Q20 -92 21 -93L69 -147V-148Q111 -188 124 -241L122 -259Q112 -335 110 -343Q104 -371 104 -388Q104 -401 108 -406Q111 -411 115.5 -411Q120 -411 124 -406Q128 -401 131 -392Q140 -369 140 -336Q140 -323 138 -310Q138 -309 138 -308L163 -356Q163 -357 163 -357Q185 -387 218 -387Q252 -387 279 -355.5Q306 -324 306 -282Q306 -280 306 -275Q306 -270 306 -267ZM296 -267Q296 -270 296 -275Q296 -280 296 -282Q296 -320 271.5 -348.5Q247 -377 218 -377Q191 -377 171 -351L144 -297L141 -186Q141 -179 143 -153.5Q145 -128 146 -114Q147 -114 147 -114Q167 -114 228 -99Q279 -110 300 -181Q300 -195 298 -224Q296 -253 296 -267Z"/>
</svg>