<svg xmlns="http://www.w3.org/2000/svg" viewBox="0 -1024 1024 1024">
	<path fill="#000088" d="M57 -41H28V-111L5 -71Q17 -134 19 -145L26 -189L106 -175Q104 -164 92 -101Q87 -75 77 -58Q67 -41 57 -41ZM152 -439Q156 -439 179 -439.5Q202 -440 206 -440H223V-436Q229 -438 235 -438Q248 -438 256.5 -430.5Q265 -423 268 -411Q271 -398 281 -371Q302 -312 302 -271Q302 -179 281 -143L267 -119L268 -71L280 31Q285 53 288 79L300 59Q320 25 340 1L372 -43L426 -4L357 91Q347 103 336 119Q331 130 328 139Q316 174 310 183L275 244Q272 250 269 250Q269 250 268 250L216 220Q211 216 209 175Q205 137 193 61Q189 38 181 -43Q176 -43 171 -43Q144 -43 120 -56L68 -86Q44 -100 29.5 -125Q15 -150 15 -179Q15 -280 46 -334L81 -394Q107 -439 152 -439ZM169 -349Q139 -349 118 -329Q102 -279 102 -209Q102 -167 131 -136Q142 -133 154 -133Q168 -133 179 -136L177 -273L180 -349Q171 -349 169 -349Z"/>
	<path fill="#800080" d="M-4 -51Q-19 -51 -29 -61Q-39 -71 -39 -86Q-39 -107 -21 -117Q-18 -131 -11 -171Q-9 -184 0.5 -192.5Q10 -201 23 -201Q37 -201 47.5 -190.5Q58 -180 58 -166Q58 -163 57 -160Q56 -149 43 -86Q40 -71 30 -61Q20 -51 8 -51ZM120 -429Q124 -429 147 -429.5Q170 -430 174 -430Q185 -430 194 -424Q214 -417 219 -396Q223 -383 232 -356Q253 -297 253 -256Q253 -223 252 -201.5Q251 -180 243 -153Q235 -126 219 -111L218 -110L219 -56L231 46Q236 68 239 93Q256 65 273 46L329 -32Q338 -43 352 -43Q364 -43 372.5 -35Q381 -27 381 -15Q381 -6 375 2L343 46Q325 67 306.5 98.5Q288 130 279 154Q264 197 258 203L223 239Q222 240 220 240Q219 240 219 239L183 204Q178 199 177 160Q170 90 161 46L149 -56Q136 -53 122 -53Q80 -53 49 -83L14 -118Q-17 -150 -17 -194Q-17 -323 31 -372L66 -407Q89 -429 120 -429ZM53 -194Q53 -164 69 -138Q94 -123 122 -123Q136 -123 147 -126L145 -288L147 -359Q124 -359 120 -359Q101 -359 85 -351Q53 -297 53 -194Z"/>
	<path fill="#daa520" d="M35 -81Q30 -81 30 -86Q30 -91 35 -91H43Q54 -148 56 -161Q57 -165 61 -165Q66 -165 66 -160Q66 -160 66 -159Q64 -148 52 -85Q51 -81 47 -81ZM159 -399Q163 -399 186 -399.5Q209 -400 213 -400Q218 -400 218 -395Q218 -401 223 -401Q227 -401 228 -397Q231 -384 241 -358Q262 -298 262 -256Q262 -223 260.5 -201.5Q259 -180 251 -152Q243 -124 227 -108L228 -56L240 45Q249 89 256 160Q257 188 260 197Q262 194 265 188Q269 178 278 152Q287 128 306 96.5Q325 65 343 43L375 -1Q376 -3 379 -3Q384 -3 384 2Q384 4 383 5L351 49Q333 70 314.5 101Q296 132 288 156Q277 185 272 196Q269 202 267 205Q263 210 259 210Q253 210 250 197Q247 187 246 160Q239 91 230 47L218 -55V-56L217 -99Q195 -83 161 -83Q116 -83 84 -116Q52 -149 52 -194Q52 -226 56 -257Q60 -288 70.5 -322.5Q81 -357 103.5 -378Q126 -399 159 -399ZM227 -366L224 -288L227 -123Q252 -157 252 -256Q252 -267 250.5 -278Q249 -289 248 -296.5Q247 -304 243.5 -316Q240 -328 238.5 -332.5Q237 -337 232.5 -350.5Q228 -364 227 -366ZM159 -389Q131 -389 110.5 -369.5Q90 -350 80 -318.5Q70 -287 66 -256.5Q62 -226 62 -194Q62 -153 91 -123Q120 -93 161 -93Q196 -93 217 -112L214 -288L218 -394Q217 -390 213 -390Q209 -390 186 -389.5Q163 -389 159 -389Z"/>
</svg>