<svg xmlns="http://www.w3.org/2000/svg" viewBox="0 -1024 1024 1024">
	<path fill="#000088" d="M329 -444Q331 -444 334.5 -444.5Q338 -445 340 -445Q346 -445 347 -443L383 -407Q385 -405 385 -394Q385 -371 364 -350L338 -323L343 -169L355 -82L380 -43L417 -46L426 -76Q442 -110 446 -116Q455 -134 474 -134Q487 -134 496.5 -124.5Q506 -115 506 -102Q506 -95 496 -76L478 -13Q474 2 464.5 11.5Q455 21 443 22L368 28Q355 28 333 -7L285 -82L273 -169L269 -277Q253 -271 235 -266Q258 -193 258 -133Q258 -64 227 -33L191 2Q168 26 128 26Q125 26 122 25Q102 25 87 11L52 -25Q42 -35 29 -61Q16 -87 12 -94Q7 -101 7 -110Q7 -123 15.5 -131.5Q24 -140 36 -140Q52 -140 60 -127L82 -94Q87 -87 95.5 -69.5Q104 -52 106 -48Q114 -45 122 -45Q125 -45 128 -45Q153 -45 171 -54Q187 -84 187 -133Q187 -187 168 -254Q159 -254 150 -254Q95 -254 73 -275L37 -311Q26 -322 26 -339Q26 -342 27 -346Q27 -363 33 -384.5Q39 -406 51 -418L86 -453Q95 -462 107 -462Q114 -462 122 -455L157 -419Q167 -410 183 -379Q187 -372 196 -357.5Q205 -343 210 -331Q242 -337 270 -348L279 -400Q281 -414 314 -435Q316 -436 318 -439Q320 -442 322.5 -443Q325 -444 329 -444ZM97 -332Q116 -325 143 -324Q132 -347 123 -361Q122 -362 106 -391Q97 -368 97 -346Q97 -342 97 -338.5Q97 -335 97 -332Z"/>
	<path fill="#800080" d="M280 -444Q282 -444 285.5 -444.5Q289 -445 291 -445Q297 -445 298 -443L334 -407Q336 -405 336 -394Q336 -371 315 -350L289 -323L294 -169L306 -82L331 -43L368 -46L377 -76L397 -116Q406 -134 425 -134Q438 -134 447.5 -124.5Q457 -115 457 -102Q457 -95 447 -76L429 -13Q425 2 415.5 11.5Q406 21 394 22L319 28Q306 28 284 -7L236 -82L224 -169L220 -277Q204 -271 186 -266Q209 -193 209 -133Q209 -64 178 -33L142 2Q119 26 79 26Q76 26 73 25Q53 25 38 11L3 -25Q-7 -35 -20 -61Q-33 -87 -37 -94Q-42 -101 -42 -110Q-42 -123 -33.5 -131.5Q-25 -140 -13 -140Q3 -140 11 -127L33 -94Q38 -87 46.5 -69.5Q55 -52 57 -48Q65 -45 73 -45Q76 -45 79 -45Q104 -45 122 -54Q138 -84 138 -133Q138 -187 119 -254Q110 -254 101 -254Q46 -254 24 -275L-12 -311Q-23 -322 -23 -339Q-23 -342 -22 -346Q-22 -363 -16 -384.5Q-10 -406 2 -418L37 -453Q46 -462 58 -462Q65 -462 73 -455L108 -419Q118 -410 134 -379Q138 -372 147 -357.5Q156 -343 161 -331Q193 -337 221 -348L230 -400Q232 -414 265 -435Q267 -436 269 -439Q271 -442 273.5 -443Q276 -444 280 -444ZM48 -332Q67 -325 94 -324Q83 -347 74 -361Q73 -362 57 -391Q48 -368 48 -346Q48 -342 48 -338.5Q48 -335 48 -332Z"/>
	<path fill="#daa520" d="M367 -414Q369 -414 372.5 -414Q376 -414 378 -414Q388 -414 391 -408Q393 -404 393 -394Q393 -362 358 -335Q352 -331 345 -327L351 -169L363 -84L409 -12L477 -18L494 -77Q494 -78 495 -78L501 -90Q502 -93 505 -93Q510 -93 510 -88Q510 -87 509 -86L504 -74L486 -12Q485 -8 481 -8L406 -2Q403 -2 402 -4L354 -79Q353 -80 353 -81L341 -168V-169L335 -321Q293 -297 236 -288Q265 -204 265 -133Q265 -76 242 -40.5Q219 -5 166 -5Q162 -5 160 -5Q147 -5 136.5 -10Q126 -15 117.5 -26Q109 -37 105 -44Q101 -51 94 -65Q86 -84 81 -91Q80 -92 80 -94Q80 -99 85 -99Q88 -99 89 -97Q94 -90 105.5 -65Q117 -40 129 -27.5Q141 -15 160 -15Q161 -15 163 -15Q165 -15 166 -15Q255 -15 255 -133Q255 -203 226 -286Q206 -284 188 -284Q147 -284 120.5 -297Q94 -310 94 -339Q94 -342 95 -346Q95 -374 108 -403Q121 -432 145 -432Q156 -432 168 -417Q176 -407 190 -382Q197 -368 200 -364Q216 -341 232 -298Q292 -307 335 -332L347 -401Q347 -403 349 -404Q351 -405 353.5 -408Q356 -411 359 -412.5Q362 -414 367 -414ZM105 -346Q105 -345 104.5 -342.5Q104 -340 104 -339Q104 -317 127 -305.5Q150 -294 188 -294Q204 -294 222 -296Q207 -337 192 -358Q189 -363 181 -377Q168 -401 160 -411Q151 -422 145 -422Q126 -422 115.5 -395.5Q105 -369 105 -346ZM367 -404Q364 -404 361 -401Q358 -399 357 -397L347 -339Q349 -341 352 -343Q383 -367 383 -394L382 -404Q381 -404 378 -404Q376 -404 372.5 -404Q369 -404 367 -404Z"/>
</svg>