<svg xmlns="http://www.w3.org/2000/svg" viewBox="0 -1024 1024 1024">
	<path fill="#000088" d="M322 -454Q324 -454 327.5 -454Q331 -454 333 -454Q337 -454 339 -453L391 -423Q395 -421 395 -409Q395 -396 387 -382L352 -322Q350 -318 348 -315L353 -184L365 -97L392 -55L418 -57L419 -61L455 -132L512 -103L506 -91L488 -28Q481 -3 471 14.5Q461 32 453 32L378 38Q376 38 375 38Q345 38 326 8L278 -67L267 -145Q267 -95 250 -66L215 -5Q191 35 138 35Q135 35 132 35Q119 35 108 29L56 -1Q45 -8 36 -21Q27 -34 19 -52Q11 -70 5 -79L79 -128L92 -109Q97 -101 106 -82Q115 -63 120 -55Q121 -55 121 -55Q154 -55 176 -71Q180 -92 180 -117Q180 -174 160 -244Q117 -244 94 -257L42 -287Q19 -300 19 -323Q19 -327 20 -331Q20 -364 35 -391L70 -451Q82 -472 100 -472Q104 -472 108 -470L160 -440Q172 -433 192 -395Q196 -388 205.5 -372.5Q215 -357 221 -345Q246 -351 268 -361L272 -385Q279 -428 307 -445Q309 -446 311 -449Q313 -452 315.5 -453Q318 -454 322 -454ZM106 -354Q106 -344 110 -337Q116 -336 123 -335Q119 -341 116 -346Q113 -350 107 -361Q106 -357 106 -354ZM262 -261Q257 -259 251 -258Q261 -222 265 -189Z"/>
	<path fill="#800080" d="M280 -444Q282 -444 285.5 -444.5Q289 -445 291 -445Q297 -445 298 -443L334 -407Q336 -405 336 -394Q336 -371 315 -350L289 -323L294 -169L306 -82L331 -43L368 -46L377 -76L397 -116Q406 -134 425 -134Q438 -134 447.5 -124.5Q457 -115 457 -102Q457 -95 447 -76L429 -13Q425 2 415.5 11.5Q406 21 394 22L319 28Q306 28 284 -7L236 -82L224 -169L220 -277Q204 -271 186 -266Q209 -193 209 -133Q209 -64 178 -33L142 2Q119 26 79 26Q76 26 73 25Q53 25 38 11L3 -25Q-7 -35 -20 -61Q-33 -87 -37 -94Q-42 -101 -42 -110Q-42 -123 -33.5 -131.5Q-25 -140 -13 -140Q3 -140 11 -127L33 -94Q38 -87 46.5 -69.5Q55 -52 57 -48Q65 -45 73 -45Q76 -45 79 -45Q104 -45 122 -54Q138 -84 138 -133Q138 -187 119 -254Q110 -254 101 -254Q46 -254 24 -275L-12 -311Q-23 -322 -23 -339Q-23 -342 -22 -346Q-22 -363 -16 -384.5Q-10 -406 2 -418L37 -453Q46 -462 58 -462Q65 -462 73 -455L108 -419Q118 -410 134 -379Q138 -372 147 -357.5Q156 -343 161 -331Q193 -337 221 -348L230 -400Q232 -414 265 -435Q267 -436 269 -439Q271 -442 273.5 -443Q276 -444 280 -444ZM48 -332Q67 -325 94 -324Q83 -347 74 -361Q73 -362 57 -391Q48 -368 48 -346Q48 -342 48 -338.5Q48 -335 48 -332Z"/>
	<path fill="#daa520" d="M317 -414Q319 -414 322.5 -414Q326 -414 328 -414Q338 -414 341 -408Q343 -404 343 -394Q343 -362 308 -335Q302 -331 295 -327L301 -169L313 -84L359 -12L427 -18L444 -77Q444 -78 445 -78L451 -90Q452 -93 455 -93Q460 -93 460 -88Q460 -87 459 -86L454 -74L436 -12Q435 -8 431 -8L356 -2Q353 -2 352 -4L304 -79Q303 -80 303 -81L291 -168V-169L285 -321Q243 -297 186 -288Q215 -204 215 -133Q215 -76 192 -40.5Q169 -5 116 -5Q112 -5 110 -5Q97 -5 86.5 -10Q76 -15 67.5 -26Q59 -37 55 -44Q51 -51 44 -65Q36 -84 31 -91Q30 -92 30 -94Q30 -99 35 -99Q38 -99 39 -97Q44 -90 55.5 -65Q67 -40 79 -27.5Q91 -15 110 -15Q111 -15 113 -15Q115 -15 116 -15Q205 -15 205 -133Q205 -203 176 -286Q156 -284 138 -284Q97 -284 70.5 -297Q44 -310 44 -339Q44 -342 45 -346Q45 -374 58 -403Q71 -432 95 -432Q106 -432 118 -417Q126 -407 140 -382Q147 -368 150 -364Q166 -341 182 -298Q242 -307 285 -332L297 -401Q297 -403 299 -404Q301 -405 303.5 -408Q306 -411 309 -412.5Q312 -414 317 -414ZM55 -346Q55 -345 54.5 -342.5Q54 -340 54 -339Q54 -317 77 -305.5Q100 -294 138 -294Q154 -294 172 -296Q157 -337 142 -358Q139 -363 131 -377Q118 -401 110 -411Q101 -422 95 -422Q76 -422 65.5 -395.5Q55 -369 55 -346ZM317 -404Q314 -404 311 -401Q308 -399 307 -397L297 -339Q299 -341 302 -343Q333 -367 333 -394L332 -404Q331 -404 328 -404Q326 -404 322.5 -404Q319 -404 317 -404Z"/>
</svg>