<svg xmlns="http://www.w3.org/2000/svg" viewBox="0 -1024 1024 1024">
	<path fill="#000088" d="M222 -97Q223 -97 225 -96.5Q227 -96 228 -96Q233 -96 237 -92Q238 -91 240.5 -88.5Q243 -86 244 -85Q245 -84 247 -82.5Q249 -81 251 -80.5Q253 -80 256 -79Q259 -78 262 -78Q281 -78 312 -98Q308 -109 301 -118Q289 -128 264.5 -143.5Q240 -159 230 -166Q173 -118 129.5 -90Q86 -62 54 -62H50Q35 -62 25 -72Q15 -82 15 -97Q15 -112 25 -122Q35 -132 50 -132H54Q99 -132 189 -203L166 -225Q135 -257 135 -297Q135 -361 163 -389L198 -425Q210 -436 226 -442Q230 -442 238.5 -442.5Q247 -443 251 -443Q279 -443 292 -436L328 -406Q363 -377 363 -371L365 -313L349 -269Q344 -253 314 -234Q300 -224 277 -206Q307 -187 322 -171L357 -136Q362 -131 366 -127L398 -136Q403 -138 408 -138Q422 -138 432 -128Q442 -118 442 -104Q442 -93 435 -84Q428 -75 417 -71Q398 -66 389 -63Q389 -34 367 -11L332 24Q319 36 306 36Q251 36 226 12L191 -24Q179 -36 179 -53Q179 -58 180 -60L216 -95Q217 -97 222 -97ZM226 -372Q222 -370 219 -368Q205 -342 205 -297Q205 -267 222 -243Q226 -240 230 -237Q276 -276 283 -281L295 -313L293 -365L292 -366Q279 -372 251 -372Q247 -372 238.5 -372Q230 -372 226 -372Z"/>
	<path fill="#800080" d="M173 -97Q174 -97 176 -96.5Q178 -96 179 -96Q184 -96 188 -92Q189 -91 191.5 -88.5Q194 -86 195 -85Q196 -84 198 -82.5Q200 -81 202 -80.5Q204 -80 207 -79Q210 -78 213 -78Q232 -78 263 -98Q259 -109 252 -118Q240 -128 215.5 -143.5Q191 -159 181 -166Q124 -118 80.5 -90Q37 -62 5 -62H1Q-14 -62 -24 -72Q-34 -82 -34 -97Q-34 -112 -24 -122Q-14 -132 1 -132H5Q50 -132 140 -203L117 -225Q86 -257 86 -297Q86 -361 114 -389L149 -425Q161 -436 177 -442Q181 -442 189.5 -442.5Q198 -443 202 -443Q230 -443 243 -436L279 -406Q314 -377 314 -371L316 -313L300 -269Q295 -253 265 -234Q251 -224 228 -206Q258 -187 273 -171L308 -136Q313 -131 317 -127L349 -136Q354 -138 359 -138Q373 -138 383 -128Q393 -118 393 -104Q393 -93 386 -84Q379 -75 368 -71Q349 -66 340 -63Q340 -34 318 -11L283 24Q270 36 257 36Q202 36 177 12L142 -24Q130 -36 130 -53Q130 -58 131 -60L167 -95Q168 -97 173 -97ZM177 -372Q173 -370 170 -368Q156 -342 156 -297Q156 -267 173 -243Q177 -240 181 -237Q227 -276 234 -281L246 -313L244 -365L243 -366Q230 -372 202 -372Q198 -372 189.5 -372Q181 -372 177 -372Z"/>
	<path fill="#daa520" d="M257 -66Q258 -66 260 -66Q262 -66 263 -66Q271 -66 279 -57Q287 -48 297 -48Q309 -48 324 -55.5Q339 -63 355.5 -74.5Q372 -86 380 -89Q375 -107 360 -124Q345 -141 332 -150.5Q319 -160 294 -177Q274 -189 266 -195Q229 -164 203.5 -145Q178 -126 145 -109Q112 -92 89 -92H85Q80 -92 80 -97Q80 -102 85 -102H89Q138 -102 257 -201Q200 -244 200 -297Q200 -388 259 -412Q260 -412 261 -412Q265 -412 273.5 -412Q282 -412 286 -412Q315 -412 329 -406Q330 -405 330 -405L366 -375Q368 -373 368 -371L370 -313Q370 -312 370 -311L354 -267Q353 -266 352 -265Q334 -253 273 -202Q282 -196 300 -184.5Q318 -173 329 -165.5Q340 -158 353.5 -146Q367 -134 376 -121Q385 -108 390 -93Q391 -94 432 -106Q432 -106 433 -106Q438 -106 438 -101Q438 -97 434 -96L394 -84Q393 -84 392 -83Q394 -74 394 -63Q394 -40 378 -17Q362 6 341 6Q306 6 275 -7.5Q244 -21 244 -53Q244 -61 249 -64Q251 -66 257 -66ZM210 -297Q210 -248 265 -208Q328 -261 345 -272L360 -314L358 -369L324 -397Q312 -402 286 -402Q282 -402 274 -402Q266 -402 262 -402Q210 -381 210 -297ZM254 -56ZM257 -56Q254 -56 254 -56Q254 -56 254 -53Q254 -28 281.5 -16Q309 -4 341 -4Q357 -4 370.5 -23.5Q384 -43 384 -63Q384 -71 383 -79Q374 -75 358 -64Q319 -38 297 -38Q283 -38 271 -50Q266 -56 263 -56Q262 -56 260 -56Q258 -56 257 -56Z"/>
</svg>