<svg xmlns="http://www.w3.org/2000/svg" viewBox="0 -1024 1024 1024">
	<path fill="#000088" d="M371 -334Q371 -313 373 -267.5Q375 -222 375 -198Q375 -191 375 -185Q377 -176 386.5 -121Q396 -66 407 -42Q411 -41 416 -41Q417 -41 418 -41Q424 -40 429 -40Q434 -40 438 -41Q447 -59 461 -113Q464 -124 473 -131.5Q482 -139 494 -139Q508 -139 518 -129Q528 -119 528 -105Q528 -100 527 -96Q512 -36 493 -17L458 18Q445 31 429 31Q424 31 418 29Q417 29 416 29Q400 29 387 17L352 -18Q348 -23 344 -29Q339 -22 334 -17L299 19Q280 37 253 37Q244 37 234 35Q231 36 228 36Q199 36 177 13L142 -22Q110 -54 102 -111Q98 -106 94 -102L58 -67Q44 -52 32 -52Q22 -52 14 -59.5Q6 -67 6 -78Q6 -90 15 -97L38 -119Q70 -157 91 -212Q89 -233 89 -256Q89 -337 109 -426Q112 -441 122 -451Q132 -461 144 -461Q147 -461 149 -459L184 -424Q193 -415 193 -378Q193 -362 191 -350Q183 -271 161 -212Q164 -177 171 -146Q171 -142 171 -137Q171 -84 196 -43Q211 -35 228 -35Q231 -35 234 -35Q244 -33 253 -33Q267 -33 279 -39Q303 -84 304 -185Q301 -197 292 -229.5Q283 -262 279 -280L269 -326L267 -402Q268 -404 272 -411.5Q276 -419 279 -422L314 -457Q316 -459 318 -459L354 -424Q355 -422 360 -406.5Q365 -391 365 -388V-376Q365 -372 368 -365.5Q371 -359 371 -356Z"/>
	<path fill="#800080" d="M322 -334Q322 -313 324 -267.5Q326 -222 326 -198Q326 -191 326 -185Q328 -176 337.5 -121Q347 -66 358 -42Q362 -41 367 -41Q368 -41 369 -41Q375 -40 380 -40Q385 -40 389 -41Q398 -59 412 -113Q415 -124 424 -131.5Q433 -139 445 -139Q459 -139 469 -129Q479 -119 479 -105Q479 -100 478 -96Q463 -36 444 -17L409 18Q396 31 380 31Q375 31 369 29Q368 29 367 29Q351 29 338 17L303 -18Q299 -23 295 -29Q290 -22 285 -17L250 19Q231 37 204 37Q195 37 185 35Q182 36 179 36Q150 36 128 13L93 -22Q61 -54 53 -111Q49 -106 45 -102L9 -67Q-5 -52 -17 -52Q-27 -52 -35 -59.5Q-43 -67 -43 -78Q-43 -90 -34 -97L-11 -119Q21 -157 42 -212Q40 -233 40 -256Q40 -337 60 -426Q63 -441 73 -451Q83 -461 95 -461Q98 -461 100 -459L135 -424Q144 -415 144 -378Q144 -362 142 -350Q134 -271 112 -212Q115 -177 122 -146Q122 -142 122 -137Q122 -84 147 -43Q162 -35 179 -35Q182 -35 185 -35Q195 -33 204 -33Q218 -33 230 -39Q254 -84 255 -185Q252 -197 243 -229.5Q234 -262 230 -280L220 -326L218 -402Q219 -404 223 -411.5Q227 -419 230 -422L265 -457Q267 -459 269 -459L305 -424Q306 -422 311 -406.5Q316 -391 316 -388V-376Q316 -372 319 -365.5Q322 -359 322 -356Z"/>
	<path fill="#daa520" d="M182 -417Q164 -333 164 -256Q164 -247 165 -239Q179 -288 186 -351Q187 -362 187 -378Q187 -407 182 -417ZM360 -376V-388Q357 -400 351 -416Q349 -414 346 -408Q343 -402 342 -401L344 -327L354 -281Q356 -271 369 -224Q369 -238 367.5 -276.5Q366 -315 366 -334V-356Q366 -358 364 -364Q360 -371 360 -376ZM176 -137Q176 -87 200 -46Q224 -5 263 -5Q264 -5 266 -5Q268 -5 269 -5Q269 -5 270 -5Q279 -3 288 -3Q367 -3 369 -184Q365 -201 356.5 -233Q348 -265 344 -279L334 -325Q334 -325 334 -326L332 -402Q332 -403 333 -405Q334 -407 337.5 -413Q341 -419 343 -422Q348 -429 353 -429Q355 -429 357 -427Q358 -426 360 -423Q370 -398 370 -388V-376Q370 -373 373 -366.5Q376 -360 376 -356V-334Q376 -313 377.5 -267.5Q379 -222 379 -198Q379 -192 379 -186Q384 -166 389 -137Q399 -70 411 -44Q427 -11 451 -11Q451 -11 452 -11Q453 -11 453 -11Q454 -11 454 -11Q459 -10 464 -10Q476 -10 486 -17.5Q496 -25 503 -40.5Q510 -56 514 -68Q518 -80 522 -97Q523 -101 527 -101Q532 -101 532 -96Q532 -95 532 -95Q528 -79 526 -71.5Q524 -64 517.5 -47.5Q511 -31 504.5 -22.5Q498 -14 487.5 -7Q477 0 464 0Q453 -1 453 -1Q452 -1 451 -1Q448 -4 436.5 -9.5Q425 -15 416 -22.5Q407 -30 402 -40Q390 -67 378 -143Q368 7 288 7Q269 5 269 5Q266 5 263 5Q218 5 192 -39.5Q166 -84 166 -137Q166 -141 166 -146Q161 -167 158 -191Q132 -130 88 -90Q87 -89 85 -89Q80 -89 80 -94Q80 -96 82 -98Q129 -141 156 -213Q154 -234 154 -256Q154 -338 174 -427Q175 -431 179 -431Q189 -431 194 -415Q197 -402 197 -378Q197 -362 196 -349Q188 -270 166 -211Q169 -177 176 -147Q176 -147 176 -146Q176 -145 176 -142Q176 -139 176 -137Z"/>
</svg>