<svg xmlns="http://www.w3.org/2000/svg" viewBox="0 -1024 1024 1024">
	<path fill="#000088" d="M84 -93Q84 -78 74 -68Q64 -58 49 -58Q34 -58 24 -68Q14 -78 14 -93V-95Q18 -102 20 -117Q22 -132 24 -137Q26 -158 32.5 -198Q39 -238 40 -244Q42 -254 45 -277Q48 -300 51 -312Q52 -339 59 -356Q59 -358 60 -366.5Q61 -375 62 -378Q63 -381 65.5 -386.5Q68 -392 71 -395Q78 -402 78 -402Q80 -405 81 -406L117 -441Q119 -443 121 -443Q132 -443 141.5 -433.5Q151 -424 156 -408Q158 -402 167 -392.5Q176 -383 177 -382Q198 -350 198 -349Q209 -334 209 -317Q212 -310 215 -291Q218 -272 222 -263Q227 -243 241 -207Q255 -171 258 -159L267 -127Q271 -86 272 -50Q277 -58 281 -63Q285 -72 325 -147Q340 -176 344 -192L349 -228L338 -238Q307 -270 290 -298Q269 -331 267 -357Q264 -382 264 -384Q264 -398 270 -405L305 -440Q310 -444 317 -445Q329 -445 339.5 -441Q350 -437 361.5 -429.5Q373 -422 380 -419Q407 -408 415 -384L422 -363L424 -289Q424 -285 422.5 -262.5Q421 -240 419 -229L435 -213Q446 -202 449 -194L489 -143L525 -101Q530 -87 530 -81Q530 -68 520.5 -58Q511 -48 497 -48Q474 -48 466 -70Q464 -76 460 -86.5Q456 -97 455 -101Q410 -154 403 -163Q399 -153 382 -122Q361 -84 351 -63Q349 -60 337.5 -41Q326 -22 318 -14L282 22Q272 32 261 34Q260 34 248 33Q230 32 213 -2L203 -22Q199 -99 197 -127Q189 -154 188 -159Q184 -171 170 -207Q156 -243 152 -263Q147 -272 144 -291Q141 -310 139 -317Q138 -334 128 -349Q127 -349 127 -350Q123 -334 121 -312Q119 -300 115.5 -277Q112 -254 110 -244Q109 -238 103 -198Q97 -158 94 -137Q92 -132 90.5 -117Q89 -102 84 -95ZM351 -365Q342 -370 335 -372Q336 -369 336.5 -364Q337 -359 337 -357Q339 -335 353 -310L352 -363Z"/>
	<path fill="#800080" d="M35 -93Q35 -78 25 -68Q15 -58 0 -58Q-15 -58 -25 -68Q-35 -78 -35 -93V-95Q-31 -102 -29 -117Q-27 -132 -25 -137Q-23 -158 -16.5 -198Q-10 -238 -9 -244Q-7 -254 -4 -277Q-1 -300 2 -312Q3 -339 10 -356Q10 -358 11 -366.5Q12 -375 13 -378Q14 -381 16.5 -386.5Q19 -392 22 -395Q29 -402 29 -402Q31 -405 32 -406L68 -441Q70 -443 72 -443Q83 -443 92.5 -433.5Q102 -424 107 -408Q109 -402 118 -392.5Q127 -383 128 -382Q149 -350 149 -349Q160 -334 160 -317Q163 -310 166 -291Q169 -272 173 -263Q178 -243 192 -207Q206 -171 209 -159L218 -127Q222 -86 223 -50Q228 -58 232 -63Q236 -72 276 -147Q291 -176 295 -192L300 -228L289 -238Q258 -270 241 -298Q220 -331 218 -357Q215 -382 215 -384Q215 -398 221 -405L256 -440Q261 -444 268 -445Q280 -445 290.5 -441Q301 -437 312.5 -429.5Q324 -422 331 -419Q358 -408 366 -384L373 -363L375 -289Q375 -285 373.5 -262.5Q372 -240 370 -229L386 -213Q397 -202 400 -194L440 -143L476 -101Q481 -87 481 -81Q481 -68 471.5 -58Q462 -48 448 -48Q425 -48 417 -70L406 -101Q361 -154 354 -163Q350 -153 333 -122Q312 -84 302 -63Q300 -60 288.5 -41Q277 -22 269 -14L233 22Q223 32 212 34Q211 34 199 33Q181 32 164 -2L154 -22Q150 -99 148 -127Q140 -154 139 -159Q135 -171 121 -207Q107 -243 103 -263Q98 -272 95 -291Q92 -310 90 -317Q89 -334 79 -349Q78 -349 78 -350Q74 -334 72 -312Q70 -300 66.5 -277Q63 -254 61 -244Q60 -238 54 -198Q48 -158 45 -137Q43 -132 41.5 -117Q40 -102 35 -95ZM302 -365Q293 -370 286 -372Q287 -369 287.5 -364Q288 -359 288 -357Q290 -335 304 -310L303 -363Z"/>
	<path fill="#daa520" d="M162 -410Q163 -404 172 -395.5Q181 -387 182 -385Q183 -383 185.5 -379.5Q188 -376 189 -374Q199 -360 203 -351Q214 -336 215 -318Q217 -311 220 -292Q223 -273 227 -265Q228 -265 228 -264Q232 -244 246 -208.5Q260 -173 264 -160Q273 -131 273 -127Q276 -98 279 -23L287 -7Q293 -6 296 -6Q307 -9 315 -17.5Q323 -26 334.5 -44.5Q346 -63 348 -66Q352 -74 392 -149Q406 -178 410 -193L415 -226Q376 -263 357 -295Q336 -329 333 -356Q330 -381 330 -384Q330 -412 352 -415Q353 -415 353 -415Q366 -415 377 -410.5Q388 -406 399.5 -398.5Q411 -391 418 -389Q420 -388 421 -386L428 -365Q428 -364 428 -363L430 -289L426 -235Q426 -234 425 -230Q450 -206 454 -197L494 -146L530 -104Q530 -104 531 -103L534 -95Q534 -94 534 -93Q534 -88 529 -88Q526 -88 522 -98L486 -140L446 -191Q446 -192 445 -192Q442 -200 424 -218L420 -191Q416 -174 400 -145Q361 -70 357 -61Q356 -60 356 -60Q354 -57 342.5 -37.5Q331 -18 321.5 -8.5Q312 1 298 4Q298 4 297 4Q296 4 284 3Q281 3 280 0L270 -20Q269 -21 269 -22Q265 -98 263 -126Q256 -153 254 -158Q250 -170 236.5 -205.5Q223 -241 218 -261Q214 -271 211 -289.5Q208 -308 205 -315Q205 -316 205 -317Q204 -332 195 -346Q195 -347 194 -347Q194 -348 174 -379Q172 -382 165 -389Q158 -396 155 -401Q149 -394 149 -394Q146 -392 143.5 -388.5Q141 -385 140 -380.5Q139 -376 138 -373Q137 -370 136 -364Q135 -358 135 -355Q135 -355 135 -354Q128 -338 127 -312Q127 -311 127 -311Q124 -299 121 -276Q118 -253 116 -243Q115 -237 108.5 -197.5Q102 -158 100 -136Q100 -136 100 -135Q98 -130 96.5 -115.5Q95 -101 90 -94V-93Q90 -88 85 -88Q80 -88 80 -93V-95Q80 -97 81 -98Q85 -104 86.5 -118.5Q88 -133 90 -138Q92 -160 98.5 -199Q105 -238 106 -245Q108 -255 111 -278Q114 -301 117 -313Q119 -340 125 -357Q126 -360 126.5 -367Q127 -374 128 -377Q129 -380 130.5 -385.5Q132 -391 135.5 -395Q139 -399 143 -402Q144 -403 146 -406Q148 -409 150.5 -411Q153 -413 157 -413Q161 -413 162 -410ZM340 -384Q340 -382 343 -357.5Q346 -333 365 -301Q383 -271 416 -238L420 -289L418 -362L412 -380Q406 -383 395 -390Q384 -397 374 -401Q364 -405 353 -405Q340 -403 340 -384Z"/>
</svg>