<svg xmlns="http://www.w3.org/2000/svg" viewBox="0 -1024 1024 1024">
	<path fill="#000088" d="M286 -215Q280 -245 280 -260Q280 -264 281 -268Q281 -277 279 -296Q277 -315 277 -324Q276 -347 276 -348Q276 -390 289 -414Q297 -430 306.5 -439.5Q316 -449 324 -449Q325 -449 327 -448L362 -413Q369 -406 372 -359Q373 -350 373 -348Q377 -328 377 -307Q377 -256 357 -215Q358 -213 361 -196Q365 -173 365 -160Q372 -135 375 -102L395 -129Q403 -142 418 -142Q430 -142 438.5 -133.5Q447 -125 447 -113Q447 -104 441 -96L431 -82L407 -36Q387 -9 379 1Q378 29 374.5 94Q371 159 371 192Q372 197 372 199Q372 205 370 207L334 243Q333 244 330 244Q328 244 326 243Q304 246 290 246Q259 246 247 234L212 198Q204 190 204 177Q204 172 205 166Q204 163 204 159Q204 142 213 128Q222 114 240 95Q258 75 265 64Q281 37 308 1Q308 -7 308 -15Q308 -42 307 -66Q303 -117 298 -144L294 -141Q260 -107 208 -107Q196 -107 186 -116L150 -152Q143 -159 138 -171Q117 -138 88 -103Q93 -95 93 -86Q93 -72 83 -62.5Q73 -53 59 -53Q53 -53 48 -55Q47 -55 47 -55L12 -91Q10 -92 10 -94Q10 -95 11 -96Q89 -188 118 -271Q116 -283 112.5 -306.5Q109 -330 109 -334L105 -412Q105 -424 140 -447Q143 -450 147 -450Q150 -450 154 -446L189 -411Q197 -403 201 -380.5Q205 -358 205 -346Q205 -345 205 -344Q202 -308 189 -271L201 -196Q203 -186 206 -177Q207 -177 208 -177Q247 -177 275 -196Q281 -205 286 -215ZM275 159Q275 163 275 166Q275 170 274 174Q282 175 290 175Q295 175 301 175Q301 148 304 102Q275 134 275 159Z"/>
	<path fill="#800080" d="M237 -215Q231 -245 231 -260Q231 -264 232 -268Q232 -277 230 -296Q228 -315 228 -324Q227 -347 227 -348Q227 -390 240 -414Q248 -430 257.5 -439.5Q267 -449 275 -449Q276 -449 278 -448L313 -413Q320 -406 323 -359Q324 -350 324 -348Q328 -328 328 -307Q328 -256 308 -215Q309 -213 312 -196Q316 -173 316 -160Q323 -135 326 -102L346 -129Q354 -142 369 -142Q381 -142 389.5 -133.5Q398 -125 398 -113Q398 -104 392 -96L382 -82L358 -36Q338 -10 330 1Q329 29 325.5 94Q322 159 322 192Q323 197 323 199Q323 205 321 207L285 243Q284 244 281 244Q279 244 277 243Q255 246 241 246Q210 246 198 234L163 198Q155 190 155 177Q155 172 156 166Q155 163 155 159Q155 142 164 128Q173 114 191 95Q209 75 216 64Q232 37 259 1Q259 -7 259 -15Q259 -42 258 -66Q254 -117 249 -144L245 -141Q211 -107 159 -107Q147 -107 137 -116L101 -152Q94 -159 89 -171Q68 -138 39 -103Q44 -95 44 -86Q44 -72 34 -62.5Q24 -53 10 -53Q4 -53 -1 -55Q-2 -55 -2 -55L-37 -91Q-39 -92 -39 -94Q-39 -95 -38 -96Q40 -188 69 -271Q67 -283 63.5 -306.5Q60 -330 60 -334L56 -412Q56 -424 91 -447Q94 -450 98 -450Q101 -450 105 -446L140 -411Q148 -403 152 -380.5Q156 -358 156 -346Q156 -345 156 -344Q153 -308 140 -271L152 -196Q154 -186 157 -177Q158 -177 159 -177Q198 -177 226 -196Q232 -205 237 -215ZM226 159Q226 163 226 166Q226 170 225 174Q233 175 241 175Q246 175 252 175Q252 148 255 102Q226 134 226 159Z"/>
	<path fill="#daa520" d="M205 -346Q205 -366 198 -388Q193 -409 186 -409Q185 -409 185 -409L188 -334L195 -293Q202 -319 204 -345Q205 -345 205 -346ZM360 -260Q360 -248 363 -232Q376 -267 376 -307Q376 -328 373 -347Q372 -349 371 -358Q369 -393 365 -405Q356 -384 356 -348Q356 -347 356 -324Q357 -316 358.5 -296.5Q360 -277 360 -268Q360 -267 360 -264Q360 -261 360 -260ZM359 -201Q321 -137 247 -137Q227 -137 215.5 -155Q204 -173 201 -195L191 -252Q161 -177 90 -94Q92 -93 92 -90Q92 -85 87 -85Q80 -85 80 -94Q80 -97 82 -99Q159 -190 188 -272Q186 -284 182.5 -306.5Q179 -329 179 -333L178 -334L174 -412Q174 -419 186 -419Q200 -419 208 -391Q215 -367 215 -346Q215 -344 214 -343Q211 -307 198 -271L210 -197Q214 -177 223.5 -162Q233 -147 247 -147Q322 -147 356 -216Q350 -244 350 -260Q350 -264 350 -268Q350 -276 349 -295Q346 -319 346 -348Q346 -391 359 -416Q360 -419 363 -419Q369 -419 372 -413Q378 -402 381 -359Q382 -350 382 -349Q386 -329 386 -307Q386 -256 366 -215Q368 -209 368 -205Q374 -172 374 -161Q382 -128 386 -66Q388 -43 388 -15Q388 -14 388 -14Q393 -20 407 -39L431 -84Q431 -85 431 -85L441 -99Q443 -101 445 -101Q450 -101 450 -96Q450 -94 450 -93L440 -79L416 -34Q416 -33 415 -33Q396 -7 388 3Q387 31 383.5 94.5Q380 158 380 192Q381 196 381 199Q381 214 370 214Q365 213 365 213Q344 216 330 216Q273 216 273 177Q273 171 274 166Q274 163 274 159Q274 146 280.5 132.5Q287 119 293 112Q299 105 311 92Q329 72 335 61Q352 34 378 -1Q378 -8 378 -15Q378 -42 376 -66Q372 -127 365 -159Q364 -159 364 -160Q364 -172 359 -201ZM371 199Q371 198 370.5 195.5Q370 193 370 192Q370 159 373.5 98.5Q377 38 378 17Q357 44 344 67Q337 78 318 98Q307 111 301 118Q295 125 289.5 136.5Q284 148 284 159Q284 160 284 162.5Q284 165 284 166Q284 166 284 167Q283 172 283 177Q283 206 330 206Q343 206 365 203Q366 203 367.5 203.5Q369 204 370 204Q371 204 371 199Z"/>
</svg>