<svg xmlns="http://www.w3.org/2000/svg" viewBox="0 -1024 1024 1024">
	<path fill="#000088" d="M286 -215Q280 -245 280 -260Q280 -264 281 -268Q281 -277 279 -296Q277 -315 277 -324Q276 -347 276 -348Q276 -390 289 -414Q297 -430 306.5 -439.5Q316 -449 324 -449Q325 -449 327 -448L362 -413Q369 -406 372 -359Q373 -350 373 -348Q377 -328 377 -307Q377 -256 357 -215Q358 -213 361 -196Q365 -173 365 -160Q372 -135 375 -102L395 -129Q403 -142 418 -142Q430 -142 438.5 -133.5Q447 -125 447 -113Q447 -104 441 -96L431 -82L407 -36Q387 -9 379 1Q378 29 374.5 94Q371 159 371 192Q372 197 372 199Q372 205 370 207L334 243Q333 244 330 244Q328 244 326 243Q304 246 290 246Q259 246 247 234L212 198Q204 190 204 177Q204 172 205 166Q204 163 204 159Q204 142 213 128Q222 114 240 95Q258 75 265 64Q281 37 308 1Q308 -7 308 -15Q308 -42 307 -66Q303 -117 298 -144L294 -141Q260 -107 208 -107Q196 -107 186 -116L150 -152Q143 -159 138 -171Q117 -138 88 -103Q93 -95 93 -86Q93 -72 83 -62.5Q73 -53 59 -53Q53 -53 48 -55Q47 -55 47 -55L12 -91Q10 -92 10 -94Q10 -95 11 -96Q89 -188 118 -271Q116 -283 112.5 -306.5Q109 -330 109 -334L105 -412Q105 -424 140 -447Q143 -450 147 -450Q150 -450 154 -446L189 -411Q197 -403 201 -380.5Q205 -358 205 -346Q205 -345 205 -344Q202 -308 189 -271L201 -196Q203 -186 206 -177Q207 -177 208 -177Q247 -177 275 -196Q281 -205 286 -215ZM275 159Q275 163 275 166Q275 170 274 174Q282 175 290 175Q295 175 301 175Q301 148 304 102Q275 134 275 159Z"/>
	<path fill="#800080" d="M237 -215Q231 -245 231 -260Q231 -264 232 -268Q232 -277 230 -296Q228 -315 228 -324Q227 -347 227 -348Q227 -390 240 -414Q248 -430 257.5 -439.5Q267 -449 275 -449Q276 -449 278 -448L313 -413Q320 -406 323 -359Q324 -350 324 -348Q328 -328 328 -307Q328 -256 308 -215Q309 -213 312 -196Q316 -173 316 -160Q323 -135 326 -102L346 -129Q354 -142 369 -142Q381 -142 389.5 -133.5Q398 -125 398 -113Q398 -104 392 -96L382 -82L358 -36Q338 -9 330 1Q329 29 325.5 94Q322 159 322 192Q323 197 323 199Q323 205 321 207L285 243Q284 244 281 244Q279 244 277 243Q255 246 241 246Q210 246 198 234L163 198Q155 190 155 177Q155 172 156 166Q155 163 155 159Q155 142 164 128Q173 114 191 95Q209 75 216 64Q232 37 259 1Q259 -7 259 -15Q259 -42 258 -66Q254 -117 249 -144L245 -141Q211 -107 159 -107Q147 -107 137 -116L101 -152Q94 -159 89 -171Q68 -138 39 -103Q44 -95 44 -86Q44 -72 34 -62.5Q24 -53 10 -53Q4 -53 -1 -55Q-2 -55 -2 -55L-37 -91Q-39 -92 -39 -94Q-39 -95 -38 -96Q40 -188 69 -271Q67 -283 63.5 -306.5Q60 -330 60 -334L56 -412Q56 -424 91 -447Q94 -450 98 -450Q101 -450 105 -446L140 -411Q148 -403 152 -380.5Q156 -358 156 -346Q156 -345 156 -344Q153 -308 140 -271L152 -196Q154 -186 157 -177Q158 -177 159 -177Q198 -177 226 -196Q232 -205 237 -215ZM226 159Q226 163 226 166Q226 170 225 174Q233 175 241 175Q246 175 252 175Q252 148 255 102Q226 134 226 159Z"/>
	<path fill="#daa520" d="M145 -346Q145 -366 138 -388Q133 -409 126 -409Q125 -409 125 -409L128 -334L135 -293Q142 -319 144 -345Q145 -345 145 -346ZM300 -260Q300 -248 303 -232Q316 -267 316 -307Q316 -328 313 -347Q312 -349 311 -358Q309 -393 305 -405Q296 -384 296 -348Q296 -347 296 -324Q297 -316 298.5 -296.5Q300 -277 300 -268Q300 -267 300 -264Q300 -261 300 -260ZM299 -201Q261 -137 187 -137Q167 -137 155.5 -155Q144 -173 141 -195L131 -252Q101 -177 30 -94Q32 -93 32 -90Q32 -85 27 -85Q20 -85 20 -94Q20 -97 22 -99Q99 -190 128 -272Q126 -284 122.5 -306.5Q119 -329 119 -333L118 -334L114 -412Q114 -419 126 -419Q140 -419 148 -391Q155 -367 155 -346Q155 -344 154 -343Q151 -307 138 -271L150 -197Q154 -177 163.5 -162Q173 -147 187 -147Q262 -147 296 -216Q290 -244 290 -260Q290 -264 290 -268Q290 -276 289 -295Q286 -319 286 -348Q286 -391 299 -416Q300 -419 303 -419Q309 -419 312 -413Q318 -402 321 -359Q322 -350 322 -349Q326 -329 326 -307Q326 -256 306 -215Q308 -209 308 -205Q314 -172 314 -161Q322 -128 326 -66Q328 -43 328 -15Q328 -14 328 -14Q333 -20 347 -39L371 -84Q371 -85 371 -85L381 -99Q383 -101 385 -101Q390 -101 390 -96Q390 -94 390 -93L380 -79L356 -34Q356 -33 355 -33Q336 -7 328 3Q327 31 323.5 94.5Q320 158 320 192Q321 196 321 199Q321 214 310 214Q305 213 305 213Q284 216 270 216Q213 216 213 177Q213 171 214 166Q214 163 214 159Q214 146 220.5 132.5Q227 119 233 112Q239 105 251 92Q269 72 275 61Q292 34 318 -1Q318 -8 318 -15Q318 -42 316 -66Q312 -127 305 -159Q304 -159 304 -160Q304 -172 299 -201ZM311 199Q311 198 310.5 195.5Q310 193 310 192Q310 159 313.5 98.5Q317 38 318 17Q297 44 284 67Q277 78 258 98Q247 111 241 118Q235 125 229.5 136.5Q224 148 224 159Q224 160 224 162.5Q224 165 224 166Q224 166 224 167Q223 172 223 177Q223 206 270 206Q283 206 305 203Q306 203 307.5 203.5Q309 204 310 204Q311 204 311 199Z"/>
</svg>