<svg xmlns="http://www.w3.org/2000/svg" viewBox="0 -1024 1024 1024">
	<path fill="#000088" d="M114 170Q114 168 113.5 164Q113 160 113 158Q113 134 126 112L161 52Q169 37 183 25Q187 21 194 14.5Q201 8 206 4Q211 0 217.5 -5Q224 -10 231 -13Q237 -15 243.5 -19Q250 -23 257 -28Q264 -33 268 -35Q254 -39 238 -39Q222 -39 206 -35Q199 -33 194 -33Q188 -33 185 -35L133 -65Q129 -67 129 -72Q129 -78 138 -93Q152 -117 154 -123Q157 -131 189 -183Q203 -207 236 -247Q269 -287 279 -301Q295 -320 307 -337Q308 -339 313 -352Q318 -365 322 -372Q303 -370 268.5 -358.5Q234 -347 215 -345Q212 -264 176 -200L141 -140Q101 -71 34 -49L5 -135L17 -139Q68 -156 104 -202Q128 -261 128 -328Q128 -337 128 -347Q128 -348 128 -348Q110 -351 104 -355L52 -385Q48 -387 48 -390Q48 -391 48 -393L83 -453Q88 -461 121 -471Q129 -474 135 -474Q143 -474 149 -470L201 -440Q203 -439 205 -437Q220 -439 255 -450.5Q290 -462 311 -463Q319 -464 340 -466.5Q361 -469 373 -469Q394 -469 409.5 -460.5Q425 -452 425 -439Q425 -431 408 -402Q403 -392 401 -385Q392 -361 379 -337L344 -276Q326 -246 296 -211Q284 -195 261.5 -167Q239 -139 231 -129Q260 -127 283 -113L335 -83Q338 -81 342 -79Q347 -82 355.5 -88.5Q364 -95 368 -98L382 -135L447 -109L435 -79Q415 -29 400 -19Q393 -14 383 -6Q383 -3 383 1Q383 4 382.5 9.5Q382 15 382 18Q382 26 383 42.5Q384 59 384 68Q384 107 371 129L336 190Q332 197 326 203Q321 209 312.5 224.5Q304 240 294 248.5Q284 257 268 257Q256 257 232 259Q208 261 196 261Q195 261 195 261Q187 261 182 258L130 228Q114 219 114 174Q114 173 114 171.5Q114 170 114 170ZM296 51Q295 51 294 51Q286 54 271.5 64Q257 74 248 77Q237 83 201 114Q200 121 200 127Q200 129 200.5 133Q201 137 201 139Q201 140 201 141.5Q201 143 201 143Q201 160 202 170Q243 167 251 167Q276 167 293 137Q297 121 297 98Q297 90 296.5 74Q296 58 296 51Z"/>
	<path fill="#800080" d="M98 155Q98 152 97.5 148.5Q97 145 97 143Q97 104 127 74L162 39Q163 38 179 24Q201 5 215 -3Q224 -6 238.5 -16Q253 -26 261 -29Q264 -31 268 -32Q267 -32 267 -32Q240 -48 205 -48Q189 -48 173 -45Q166 -43 161 -43Q153 -43 151 -46L115 -82Q113 -84 113 -87Q113 -94 126 -115Q135 -131 138 -138Q152 -162 184.5 -202Q217 -242 228 -256Q279 -316 298 -370Q299 -376 303 -383Q299 -383 295 -383Q274 -381 237.5 -369Q201 -357 183 -355Q183 -349 183 -343Q183 -285 164 -230Q145 -175 108 -138L72 -103Q41 -72 1 -59Q-4 -57 -10 -57Q-23 -57 -33 -67Q-43 -77 -43 -90Q-43 -115 -20 -122L1 -129Q30 -139 54 -158Q112 -232 112 -343Q112 -350 112 -357Q75 -360 68 -367L33 -402Q31 -404 31 -405Q31 -408 34 -410L69 -445Q76 -452 105 -461Q113 -464 120 -464Q131 -464 138 -457L169 -425Q193 -425 234 -438.5Q275 -452 295 -453Q303 -454 324 -456.5Q345 -459 357 -459Q371 -459 381.5 -448.5Q392 -438 392 -424Q392 -415 381 -395Q371 -378 368 -370Q349 -316 298 -256Q288 -242 255.5 -202Q223 -162 208 -138Q206 -131 199 -119Q202 -119 205 -119Q256 -119 288 -87L315 -60Q323 -66 337 -77L353 -118Q362 -139 384 -139Q397 -139 407 -129.5Q417 -120 417 -106Q417 -100 414 -94L402 -64Q397 -50 367 -29Q359 -23 346 -13Q350 1 350 16Q350 19 350 24.5Q350 30 350 33Q350 41 350.5 58Q351 75 351 83Q351 134 328 158Q323 164 314 179Q305 194 299 200L264 236Q252 247 235 247Q223 247 199 249Q175 251 163 251Q162 251 162 251Q151 251 144 245L109 209Q98 198 98 159Q98 158 98 156.5Q98 155 98 155ZM279 33Q270 38 261 41Q253 44 238.5 54Q224 64 215 67Q202 75 185 90Q168 114 168 143Q168 145 168 148.5Q168 152 168 155Q168 155 168 156.5Q168 158 168 159Q168 173 169 181Q179 180 201 178.5Q223 177 235 177Q241 177 246 175Q252 164 258 158Q280 134 280 83Q280 75 279.5 58Q279 41 279 33Z"/>
	<path fill="#daa520" d="M203 -385Q191 -385 188 -385Q188 -384 188 -384Q188 -373 186 -362Q187 -352 187 -343Q187 -289 171.5 -238.5Q156 -188 121 -147Q86 -106 37 -89Q36 -89 35 -89Q30 -89 30 -94Q30 -98 33 -99Q102 -122 139.5 -191.5Q177 -261 177 -343Q177 -346 176.5 -352.5Q176 -359 176 -362Q176 -362 176 -363Q178 -374 178 -384Q178 -385 178 -385Q144 -386 123 -390Q110 -392 103 -395Q96 -399 96 -405Q96 -412 105 -418Q115 -424 138 -431Q146 -433 154 -433Q183 -433 187 -395Q193 -395 199 -395Q200 -395 201 -395Q202 -395 203 -395Q226 -395 267 -408.5Q308 -422 329 -423Q336 -423 357.5 -426Q379 -429 391 -429Q396 -429 396 -424Q396 -414 383 -393Q374 -376 372 -369V-368Q353 -313 301 -253Q291 -239 258.5 -199Q226 -159 212 -136Q209 -128 199 -112Q188 -92 188 -87Q188 -86 188 -86Q188 -84 195 -84Q202 -84 206 -85Q223 -89 239 -89Q274 -89 302.5 -73Q331 -57 345 -28Q353 -34 370.5 -47.5Q388 -61 397 -67L408 -96Q410 -99 413 -99Q418 -99 418 -94Q418 -93 418 -92L406 -62Q405 -61 404 -60Q395 -53 376.5 -39Q358 -25 348 -19Q354 -2 354 16Q354 19 354 24.5Q354 30 354 33Q354 41 354.5 58Q355 75 355 83Q355 136 331 161Q325 167 316.5 183Q308 199 297.5 208Q287 217 269 217Q257 217 232.5 219Q208 221 196 221Q184 221 176.5 215Q169 209 166 197.5Q163 186 162.5 178.5Q162 171 162 159Q162 158 162 156.5Q162 155 162 155Q162 154 162 153.5Q162 153 162 152Q162 147 162 143Q162 99 198 66Q200 64 204 60.5Q208 57 210 56Q232 36 247 28Q247 27 247 27Q256 24 270.5 14.5Q285 5 293 1Q313 -7 336 -22Q324 -49 298 -64Q272 -79 239 -79Q224 -79 208 -75Q202 -74 195 -74Q178 -74 178 -87Q178 -95 191 -117Q200 -133 202 -140Q202 -140 203 -141Q217 -165 250 -205Q283 -245 293 -259Q344 -318 362 -371Q364 -379 373.5 -395.5Q383 -412 385 -419Q375 -419 356.5 -416.5Q338 -414 329 -413Q309 -412 268 -398.5Q227 -385 203 -385ZM154 -423Q148 -423 140 -421Q119 -415 110 -409Q106 -406 106 -405V-406Q110 -402 131 -399Q150 -396 177 -395Q174 -423 154 -423ZM172 155Q172 155 172 156.5Q172 158 172 159Q172 175 173 184.5Q174 194 179.5 202.5Q185 211 196 211Q197 211 197 211Q209 211 233 209Q257 207 269 207Q284 207 292 199.5Q300 192 309 176Q318 161 323 155Q345 132 345 83Q345 75 344.5 58Q344 41 344 33Q344 30 344 24.5Q344 19 344 16Q344 1 340 -13Q317 2 297 11Q289 14 275 23.5Q261 33 251 37Q242 42 204 74Q172 104 172 143Q172 145 172 148.5Q172 152 172 155Z"/>
</svg>