<svg xmlns="http://www.w3.org/2000/svg" viewBox="0 -1024 1024 1024">
	<path fill="#000088" d="M147 155Q147 152 146.5 148.5Q146 145 146 143Q146 104 176 74L211 39Q212 38 228 24Q250 5 264 -3Q273 -6 287.5 -16Q302 -26 310 -29Q313 -31 317 -32H316Q289 -48 254 -48Q238 -48 222 -45Q215 -43 210 -43Q202 -43 200 -46L164 -82Q162 -84 162 -87Q162 -94 175 -115Q184 -131 187 -138Q201 -162 233.5 -202Q266 -242 277 -256Q328 -316 347 -370Q348 -376 352 -383Q348 -383 344 -383Q323 -381 286.5 -369Q250 -357 232 -355Q232 -349 232 -343Q232 -285 213 -230Q194 -175 157 -138L121 -103Q90 -72 50 -59Q45 -57 39 -57Q26 -57 16 -67Q6 -77 6 -90Q6 -115 29 -122L50 -129Q79 -139 103 -158Q161 -232 161 -343Q161 -350 161 -357Q124 -360 117 -367L82 -402Q80 -404 80 -405Q80 -408 83 -410L118 -445Q125 -452 154 -461Q162 -464 169 -464Q180 -464 187 -457L218 -425Q242 -425 283 -438.5Q324 -452 344 -453Q352 -454 373 -456.5Q394 -459 406 -459Q420 -459 430.5 -448.5Q441 -438 441 -424Q441 -415 430 -395Q420 -378 417 -370Q398 -316 347 -256Q337 -242 304.5 -202Q272 -162 257 -138Q255 -131 248 -119Q251 -119 254 -119Q305 -119 337 -87L364 -60Q372 -66 386 -77Q394 -98 402.5 -118.5Q411 -139 433 -139Q446 -139 456 -129.5Q466 -120 466 -106Q466 -100 463 -94L451 -64Q446 -50 416 -29Q408 -23 395 -13Q399 1 399 16Q399 19 399 24.5Q399 30 399 33Q399 41 399.5 58Q400 75 400 83Q400 134 377 158Q372 164 363 179Q354 194 348 200L313 236Q301 247 284 247Q272 247 248 249Q224 251 212 251Q211 251 211 251Q200 251 193 245L158 209Q147 198 147 159Q147 158 147 156.5Q147 155 147 155ZM328 33Q319 38 310 41Q302 44 287.5 54Q273 64 264 67Q251 75 234 90Q217 114 217 143Q217 145 217 148.5Q217 152 217 155Q217 155 217 156.5Q217 158 217 159Q217 173 218 181Q228 180 250 178.5Q272 177 284 177Q290 177 295 175Q301 164 307 158Q329 134 329 83Q329 75 328.5 58Q328 41 328 33Z"/>
	<path fill="#800080" d="M98 155Q98 152 97.5 148.5Q97 145 97 143Q97 104 127 74L162 39Q163 38 179 24Q201 5 215 -3Q224 -6 238.5 -16Q253 -26 261 -29Q264 -31 268 -32Q267 -32 267 -32Q240 -48 205 -48Q189 -48 173 -45Q166 -43 161 -43Q153 -43 151 -46L115 -82Q113 -84 113 -87Q113 -94 126 -115Q135 -131 138 -138Q152 -162 184.5 -202Q217 -242 228 -256Q279 -316 298 -370Q299 -376 303 -383Q299 -383 295 -383Q274 -381 237.5 -369Q201 -357 183 -355Q183 -349 183 -343Q183 -285 164 -230Q145 -175 108 -138L72 -103Q41 -72 1 -59Q-4 -57 -10 -57Q-23 -57 -33 -67Q-43 -77 -43 -90Q-43 -115 -20 -122L1 -129Q30 -139 54 -158Q112 -232 112 -343Q112 -350 112 -357Q75 -360 68 -367L33 -402Q31 -404 31 -405Q31 -408 34 -410L69 -445Q76 -452 105 -461Q113 -464 120 -464Q131 -464 138 -457L169 -425Q193 -425 234 -438.5Q275 -452 295 -453Q303 -454 324 -456.5Q345 -459 357 -459Q371 -459 381.5 -448.5Q392 -438 392 -424Q392 -415 381 -395Q371 -378 368 -370Q349 -316 298 -256Q288 -242 255.5 -202Q223 -162 208 -138Q206 -131 199 -119Q202 -119 205 -119Q256 -119 288 -87L315 -60Q323 -66 337 -77L353 -118Q362 -139 384 -139Q397 -139 407 -129.5Q417 -120 417 -106Q417 -100 414 -94L402 -64Q397 -50 367 -29Q359 -23 346 -13Q350 1 350 16Q350 19 350 24.5Q350 30 350 33Q350 41 350.5 58Q351 75 351 83Q351 134 328 158Q323 164 314 179Q305 194 299 200L264 236Q252 247 235 247Q223 247 199 249Q175 251 163 251Q162 251 162 251Q151 251 144 245L109 209Q98 198 98 159Q98 158 98 156.5Q98 155 98 155ZM279 33Q270 38 261 41Q253 44 238.5 54Q224 64 215 67Q202 75 185 90Q168 114 168 143Q168 145 168 148.5Q168 152 168 155Q168 155 168 156.5Q168 158 168 159Q168 173 169 181Q179 180 201 178.5Q223 177 235 177Q241 177 246 175Q252 164 258 158Q280 134 280 83Q280 75 279.5 58Q279 41 279 33Z"/>
	<path fill="#daa520" d="M253 -385Q241 -385 238 -385Q238 -384 238 -384Q238 -373 236 -362Q237 -352 237 -343Q237 -289 221.5 -238.5Q206 -188 171 -147Q136 -106 87 -89Q86 -89 85 -89Q80 -89 80 -94Q80 -98 83 -99Q152 -122 189.5 -191.5Q227 -261 227 -343Q227 -346 226.5 -352.5Q226 -359 226 -362Q226 -362 226 -363Q228 -374 228 -384Q228 -385 228 -385Q194 -386 173 -390Q160 -392 153 -395Q146 -399 146 -405Q146 -412 155 -418Q165 -424 188 -431Q196 -433 204 -433Q233 -433 237 -395Q243 -395 249 -395Q250 -395 251 -395Q252 -395 253 -395Q276 -395 317 -408.5Q358 -422 379 -423Q386 -423 407.5 -426Q429 -429 441 -429Q446 -429 446 -424Q446 -414 433 -393Q424 -376 422 -369V-368Q403 -313 351 -253Q341 -239 308.5 -199Q276 -159 262 -136Q259 -128 249 -112Q238 -92 238 -87Q238 -86 238 -86Q238 -84 245 -84Q252 -84 256 -85Q273 -89 289 -89Q324 -89 352.5 -73Q381 -57 395 -28Q403 -34 420.5 -47.5Q438 -61 447 -67L458 -96Q460 -99 463 -99Q468 -99 468 -94Q468 -93 468 -92L456 -62Q455 -61 454 -60Q445 -53 426.5 -39Q408 -25 398 -19Q404 -2 404 16Q404 19 404 24.5Q404 30 404 33Q404 41 404.5 58Q405 75 405 83Q405 136 381 161Q375 167 366.5 183Q358 199 347.5 208Q337 217 319 217Q307 217 282.5 219Q258 221 246 221Q234 221 226.5 215Q219 209 216 197.5Q213 186 212.5 178.5Q212 171 212 159Q212 158 212 156.5Q212 155 212 155Q212 154 212 153.5Q212 153 212 152Q212 147 212 143Q212 99 248 66Q250 64 254 60.5Q258 57 260 56Q282 36 297 28Q297 27 297 27Q306 24 320.5 14.5Q335 5 343 1Q363 -7 386 -22Q374 -49 348 -64Q322 -79 289 -79Q274 -79 258 -75Q252 -74 245 -74Q228 -74 228 -87Q228 -95 241 -117Q250 -133 252 -140Q252 -140 253 -141Q267 -165 300 -205Q333 -245 343 -259Q394 -318 412 -371Q414 -379 423.5 -395.5Q433 -412 435 -419Q425 -419 406.5 -416.5Q388 -414 379 -413Q359 -412 318 -398.5Q277 -385 253 -385ZM204 -423Q198 -423 190 -421Q169 -415 160 -409Q156 -406 156 -405V-406Q160 -402 181 -399Q200 -396 227 -395Q224 -423 204 -423ZM222 155Q222 155 222 156.5Q222 158 222 159Q222 175 223 184.5Q224 194 229.5 202.5Q235 211 246 211Q247 211 247 211Q259 211 283 209Q307 207 319 207Q334 207 342 199.5Q350 192 359 176Q368 161 373 155Q395 132 395 83Q395 75 394.5 58Q394 41 394 33Q394 30 394 24.5Q394 19 394 16Q394 1 390 -13Q367 2 347 11Q339 14 325 23.5Q311 33 301 37Q292 42 254 74Q222 104 222 143Q222 145 222 148.5Q222 152 222 155Z"/>
</svg>