<svg xmlns="http://www.w3.org/2000/svg" viewBox="0 -1024 1024 1024">
	<path fill="#000088" d="M88 -199Q88 -144 106 -99Q230 -149 290 -223Q303 -257 303 -295Q303 -314 300 -333Q301 -339 301 -345Q301 -357 296 -367Q285 -368 271 -369Q242 -384 214 -384Q158 -384 114 -328Q88 -267 88 -199ZM409 -159Q409 -131 395 -107L373 -68Q382 -66 392 -66Q396 -66 400 -63L442 -39H443H449L488 -57L525 24Q515 28 495.5 37.5Q476 47 466 51H460Q452 51 444 46L405 24Q381 24 361 12L326 -8Q270 37 189 37Q156 37 127 27Q126 27 124 27Q116 27 108 23L80 7Q38 21 -5 30L-25 -60Q-2 -65 18 -70Q2 -115 2 -168Q2 -258 43 -330L78 -391Q126 -474 197 -474Q225 -474 254 -459Q292 -458 312 -446L364 -416Q388 -403 388 -376Q388 -370 387 -363Q390 -344 390 -326Q390 -285 375 -248L399 -234Q404 -231 407 -189Q407 -184 408 -174.5Q409 -165 409 -159ZM267 -73Q264 -80 263 -88Q245 -73 223 -59Q246 -64 267 -73Z"/>
	<path fill="#800080" d="M95 -183Q95 -128 113 -83Q212 -119 273 -172Q326 -234 326 -311Q326 -329 323 -348Q324 -355 324 -360.5Q324 -366 323 -372Q304 -378 277 -379Q248 -394 220 -394Q185 -394 154 -371Q126 -335 110.5 -285Q95 -235 95 -183ZM196 -44Q251 -44 299 -67Q288 -87 285 -112Q245 -74 186 -44Q191 -44 196 -44ZM416 -143Q416 -99 381 -65L379 -63Q396 -56 415 -56Q421 -56 435 -45Q455 -29 466 -29H472L511 -47Q517 -50 524 -50Q538 -50 547.5 -40.5Q557 -31 557 -18Q557 2 538 11L472 41H466Q455 41 435 26Q421 14 415 14Q375 14 350 -11L338 -23Q282 27 196 27Q162 27 133 17Q132 17 131 17Q117 17 107 7L94 -6Q49 10 1 20Q-3 21 -6 21Q-21 21 -31 11Q-41 1 -41 -13Q-41 -26 -33 -35.5Q-25 -45 -14 -47Q26 -56 51 -63Q50 -65 50 -66Q24 -117 24 -183Q24 -243 44.5 -299.5Q65 -356 100 -390L135 -426Q174 -464 220 -464Q248 -464 277 -449Q327 -448 346 -428L382 -393Q394 -380 394 -360Q394 -355 393 -348Q396 -329 396 -311Q396 -274 384 -241L407 -218Q411 -214 413 -173Q414 -168 415 -159Q416 -150 416 -143Z"/>
	<path fill="#daa520" d="M89 -183Q89 -118 114 -68Q122 -49 123 -48Q174 -66 217 -89.5Q260 -113 298.5 -144.5Q337 -176 358.5 -219Q380 -262 380 -311Q380 -329 377 -347Q377 -348 377 -348Q377 -348 377 -349Q378 -355 378 -360Q378 -407 301 -409Q300 -409 299 -410Q271 -424 244 -424Q201 -424 165 -389Q129 -354 109 -298.5Q89 -243 89 -183ZM400 -143Q400 -149 398.5 -158.5Q397 -168 397 -173Q395 -203 393 -213Q371 -200 359.5 -176.5Q348 -153 348 -126Q348 -92 364 -66Q400 -100 400 -143ZM157 -23Q158 -23 159 -23Q187 -13 220 -13Q302 -13 357 -60Q338 -89 338 -126Q338 -157 352 -183.5Q366 -210 392 -223Q393 -224 394 -224Q399 -224 401 -218Q405 -209 407 -174Q407 -169 408.5 -159.5Q410 -150 410 -143Q410 -95 370 -58Q395 -26 439 -26Q447 -26 463 -13Q480 1 490 1H495L533 -17Q534 -17 535 -17Q540 -17 540 -12Q540 -9 537 -7L498 11Q497 11 496 11H490Q477 11 456 -6Q444 -16 439 -16Q391 -16 363 -51Q305 -3 220 -3Q186 -3 156 -13Q156 -13 155 -13Q133 -13 119 -36Q74 -21 26 -10Q26 -10 25 -10Q20 -10 20 -15Q20 -19 24 -20Q70 -30 114 -45Q111 -49 108 -56Q105 -63 104 -64Q79 -116 79 -183Q79 -245 99.5 -302Q120 -359 158.5 -396.5Q197 -434 244 -434Q273 -434 302 -419Q388 -417 388 -360Q388 -354 387 -348Q390 -329 390 -311Q390 -260 368 -215.5Q346 -171 306.5 -138Q267 -105 223.5 -81Q180 -57 128 -39Q140 -23 155 -23Q155 -23 156 -23Q157 -23 157 -23Z"/>
</svg>