<svg xmlns="http://www.w3.org/2000/svg" viewBox="0 -1024 1024 1024">
	<path fill="#000088" d="M466 -227Q466 -225 466 -220Q466 -215 466 -213Q466 -185 463 -170Q446 -89 404 -46L369 -11Q340 18 305 18Q273 18 219 7Q165 -4 149 -6Q129 -8 114 -23L79 -58Q72 -65 66 -75Q55 -63 8 -16Q-19 11 -49 33Q-57 39 -66 39Q-78 39 -86 30.5Q-94 22 -94 11Q-94 -3 -83 -12Q-29 -53 -10 -70Q16 -98 39 -131Q25 -165 15 -179Q14 -180 0 -233L-15 -341L-21 -527Q-13 -608 -3 -713Q-2 -717 2.5 -729.5Q7 -742 9.5 -748Q12 -754 16.5 -763Q21 -772 27 -779Q30 -783 36.5 -795.5Q43 -808 49 -813L84 -849Q90 -855 98 -856Q116 -856 129 -844L164 -809Q172 -801 177.5 -787.5Q183 -774 185.5 -764.5Q188 -755 191.5 -736Q195 -717 196 -710Q221 -599 221 -535Q221 -534 220.5 -530Q220 -526 220 -524Q221 -498 221 -491Q221 -419 205 -348Q210 -355 215 -360L251 -395Q262 -406 269 -406Q305 -406 328.5 -399Q352 -392 372 -372L407 -337Q412 -332 418 -325L435 -368Q436 -381 438 -410Q439 -423 449 -432.5Q459 -442 473 -442Q488 -442 498 -431.5Q508 -421 508 -407Q508 -405 508 -404L505 -368L475 -293Q472 -285 454 -270Q466 -247 466 -227ZM150 -535Q150 -599 126 -710Q124 -717 121 -733.5Q118 -750 115.5 -762Q113 -774 108 -785Q105 -785 102 -786Q99 -782 97 -779Q92 -772 87.5 -763Q83 -754 80.5 -748Q78 -742 73.5 -729.5Q69 -717 67 -713Q58 -608 49 -527L55 -341L70 -233Q72 -227 75 -215.5Q78 -204 80 -199Q151 -337 151 -491Q151 -498 150 -524Q150 -526 150 -530Q150 -534 150 -535ZM396 -227Q396 -233 394 -240Q382 -239 359 -231Q343 -224 324 -224Q305 -224 284 -231Q267 -231 255 -243L220 -278Q209 -289 197 -319Q169 -216 110 -131Q125 -94 133 -81Q141 -77 149 -76Q165 -74 219 -63Q273 -52 305 -52Q329 -53 350 -67Q380 -108 393 -170Q396 -185 396 -213Q396 -215 396 -220Q396 -225 396 -227ZM359 -301Q361 -302 363 -303Q357 -313 354 -316Q325 -336 269 -336Q269 -336 268 -336Q265 -330 265 -326Q272 -309 275 -302Q279 -301 284 -301Q305 -295 324 -295Q343 -295 359 -301Z"/>
	<path fill="#800080" d="M516 -227Q516 -225 516 -220Q516 -215 516 -213Q516 -185 513 -170Q496 -89 454 -46L419 -11Q390 18 355 18Q323 18 269 7Q215 -4 199 -6Q179 -8 164 -23L129 -58Q122 -65 116 -75Q105 -63 58 -16Q31 11 1 33Q-7 39 -16 39Q-28 39 -36 30.5Q-44 22 -44 11Q-44 -3 -33 -12Q21 -53 40 -70Q66 -98 89 -131Q75 -165 65 -179Q64 -180 50 -233L35 -341L29 -527Q37 -608 47 -713Q48 -717 52.5 -729.5Q57 -742 59.5 -748Q62 -754 66.5 -763Q71 -772 77 -779Q80 -783 86.5 -795.5Q93 -808 99 -813L134 -849Q140 -855 148 -856Q166 -856 179 -844L214 -809Q222 -801 227.5 -787.5Q233 -774 235.5 -764.5Q238 -755 241.5 -736Q245 -717 246 -710Q271 -599 271 -535Q271 -534 270.5 -530Q270 -526 270 -524Q271 -498 271 -491Q271 -419 255 -348Q260 -355 265 -360L301 -395Q312 -406 319 -406Q355 -406 378.5 -399Q402 -392 422 -372L457 -337Q462 -332 468 -325L485 -368Q486 -381 488 -410Q489 -423 499 -432.5Q509 -442 523 -442Q538 -442 548 -431.5Q558 -421 558 -407Q558 -405 558 -404L555 -368L525 -293Q522 -285 504 -270Q516 -247 516 -227ZM200 -535Q200 -599 176 -710Q174 -717 171 -733.5Q168 -750 165.5 -762Q163 -774 158 -785Q155 -785 152 -786Q149 -782 147 -779Q142 -772 137.5 -763Q133 -754 130.5 -748Q128 -742 123.5 -729.5Q119 -717 117 -713Q108 -608 99 -527L105 -341L120 -233Q122 -227 125 -215.5Q128 -204 130 -199Q201 -337 201 -491Q201 -498 200 -524Q200 -526 200 -530Q200 -534 200 -535ZM446 -227Q446 -233 444 -240Q432 -239 409 -231Q393 -224 374 -224Q355 -224 334 -231Q317 -231 305 -243L270 -278Q259 -289 247 -319Q219 -216 160 -131Q175 -94 183 -81Q191 -77 199 -76Q215 -74 269 -63Q323 -52 355 -52Q379 -53 400 -67Q430 -108 443 -170Q446 -185 446 -213Q446 -215 446 -220Q446 -225 446 -227ZM409 -301Q411 -302 413 -303Q407 -313 404 -316Q375 -336 319 -336Q319 -336 318 -336Q315 -330 315 -326Q322 -309 325 -302Q329 -301 334 -301Q355 -295 374 -295Q393 -295 409 -301Z"/>
	<path fill="#daa520" d="M234 -535Q234 -598 210 -709Q209 -715 206 -731.5Q203 -748 201 -756.5Q199 -765 194.5 -778Q190 -791 185 -798Q180 -805 171.5 -810.5Q163 -816 152 -816Q146 -815 140.5 -808Q135 -801 129 -790.5Q123 -780 120 -776Q110 -763 91 -712Q82 -608 73 -527L79 -341L94 -234Q108 -182 109 -181Q118 -168 129 -141Q235 -299 235 -491Q235 -507 234 -524Q234 -526 234 -529.5Q234 -533 234 -535ZM323 -366Q316 -366 305 -353Q291 -337 289 -327Q296 -308 300.5 -299Q305 -290 315 -280.5Q325 -271 338 -271Q339 -271 339 -271Q360 -265 378 -265Q396 -265 411 -271Q436 -280 449 -280H461Q457 -287 445 -305Q420 -342 394 -354Q368 -366 323 -366ZM490 -213Q490 -184 487 -169Q481 -143 471.5 -118Q462 -93 447 -68Q432 -43 409 -27.5Q386 -12 359 -12Q327 -12 272.5 -23Q218 -34 202 -36Q188 -38 176 -45.5Q164 -53 155 -67Q146 -81 140.5 -91.5Q135 -102 127 -121Q76 -49 8 2Q7 3 5 3Q0 3 0 -2Q0 -4 2 -6Q71 -58 123 -132Q109 -163 100 -176Q99 -177 99 -178Q99 -179 84 -232L69 -340Q69 -341 69 -341L63 -527V-528Q72 -607 81 -713Q81 -714 81 -715Q83 -719 87.5 -731.5Q92 -744 94.5 -750Q97 -756 101.5 -765.5Q106 -775 112 -782Q115 -786 121 -798Q127 -810 134 -817Q141 -824 151 -826Q152 -826 152 -826Q166 -826 177 -819Q188 -812 194 -803.5Q200 -795 205 -779Q210 -763 211.5 -755Q213 -747 216 -730Q219 -717 220 -711Q244 -599 244 -535Q244 -529 244 -524Q245 -507 245 -491Q245 -395 216.5 -302Q188 -209 134 -130Q145 -104 152 -90Q159 -76 173 -62Q187 -48 204 -46Q220 -44 273.5 -33Q327 -22 359 -22Q390 -23 416 -48Q442 -73 456 -104.5Q470 -136 477 -171Q480 -185 480 -213Q480 -215 480 -220Q480 -225 480 -227Q480 -246 467 -270H449Q438 -270 415 -261Q398 -255 378 -255Q359 -255 337 -261Q325 -261 315.5 -266.5Q306 -272 299 -282.5Q292 -293 289 -300Q286 -307 281 -321Q279 -325 279 -326Q279 -339 297 -359Q312 -376 323 -376Q370 -376 398.5 -362.5Q427 -349 453 -311Q468 -289 472 -281Q474 -282 490 -296L519 -369L522 -404Q522 -409 527 -409Q532 -409 532 -404L529 -368Q529 -367 529 -366L499 -291Q498 -290 497 -289Q495 -288 488 -281.5Q481 -275 477 -272Q490 -248 490 -227Q490 -225 490 -220Q490 -215 490 -213Z"/>
</svg>