<svg xmlns="http://www.w3.org/2000/svg" viewBox="0 -1024 1024 1024">
	<path fill="#000088" d="M466 -227Q466 -225 466 -220Q466 -215 466 -213Q466 -185 463 -170Q446 -89 404 -46L369 -11Q340 18 305 18Q273 18 219 7Q165 -4 149 -6Q129 -8 114 -23L79 -58Q72 -65 66 -75Q55 -63 8 -16Q-19 11 -49 33Q-57 39 -66 39Q-78 39 -86 30.5Q-94 22 -94 11Q-94 -3 -83 -12Q-29 -53 -10 -70Q16 -98 39 -131Q25 -165 15 -179Q14 -180 0 -233L-15 -341L-21 -527Q-13 -608 -3 -713Q-2 -717 2.5 -729.5Q7 -742 9.5 -748Q12 -754 16.5 -763Q21 -772 27 -779Q30 -783 36.5 -795.5Q43 -808 49 -813L84 -849Q90 -855 98 -856Q116 -856 129 -844L164 -809Q172 -801 177.5 -787.5Q183 -774 185.5 -764.5Q188 -755 191.5 -736Q195 -717 196 -710Q221 -599 221 -535Q221 -534 220.5 -530Q220 -526 220 -524Q221 -498 221 -491Q221 -419 205 -348Q210 -355 215 -360L251 -395Q262 -406 269 -406Q305 -406 328.5 -399Q352 -392 372 -372L407 -337Q412 -332 418 -325L435 -368Q436 -381 438 -410Q439 -423 449 -432.5Q459 -442 473 -442Q488 -442 498 -431.5Q508 -421 508 -407Q508 -405 508 -404L505 -368L475 -293Q472 -285 454 -270Q466 -247 466 -227ZM150 -535Q150 -599 126 -710Q124 -717 121 -733.5Q118 -750 115.5 -762Q113 -774 108 -785Q105 -785 102 -786Q99 -782 97 -779Q92 -772 87.5 -763Q83 -754 80.5 -748Q78 -742 73.5 -729.5Q69 -717 67 -713Q58 -608 49 -527L55 -341L70 -233Q72 -227 75 -215.5Q78 -204 80 -199Q151 -337 151 -491Q151 -498 150 -524Q150 -526 150 -530Q150 -534 150 -535ZM396 -227Q396 -233 394 -240Q382 -239 359 -231Q343 -224 324 -224Q305 -224 284 -231Q267 -231 255 -243L220 -278Q209 -289 197 -319Q169 -216 110 -131Q125 -94 133 -81Q141 -77 149 -76Q165 -74 219 -63Q273 -52 305 -52Q329 -53 350 -67Q380 -108 393 -170Q396 -185 396 -213Q396 -215 396 -220Q396 -225 396 -227ZM359 -301Q361 -302 363 -303Q357 -313 354 -316Q325 -336 269 -336Q269 -336 268 -336Q265 -330 265 -326Q272 -309 275 -302Q279 -301 284 -301Q305 -295 324 -295Q343 -295 359 -301Z"/>
	<path fill="#800080" d="M516 -227Q516 -225 516 -220Q516 -215 516 -213Q516 -185 513 -170Q496 -89 454 -46L419 -11Q390 18 355 18Q323 18 269 7Q215 -4 199 -6Q179 -8 164 -23L129 -58Q122 -65 116 -75Q105 -63 58 -16Q31 11 1 33Q-7 39 -16 39Q-28 39 -36 30.5Q-44 22 -44 11Q-44 -3 -33 -12Q21 -53 40 -70Q66 -98 89 -131Q75 -165 65 -179Q64 -180 50 -233L35 -341L29 -527Q37 -608 47 -713Q48 -717 52.5 -729.5Q57 -742 59.5 -748Q62 -754 66.5 -763Q71 -772 77 -779Q80 -783 86.5 -795.5Q93 -808 99 -813L134 -849Q140 -855 148 -856Q166 -856 179 -844L214 -809Q222 -801 227.5 -787.5Q233 -774 235.5 -764.5Q238 -755 241.5 -736Q245 -717 246 -710Q271 -599 271 -535Q271 -534 270.5 -530Q270 -526 270 -524Q271 -498 271 -491Q271 -419 255 -348Q260 -355 265 -360L301 -395Q312 -406 319 -406Q355 -406 378.5 -399Q402 -392 422 -372L457 -337Q462 -332 468 -325L485 -368L488 -410Q489 -423 499 -432.5Q509 -442 523 -442Q538 -442 548 -431.5Q558 -421 558 -407Q558 -405 558 -404L555 -368L525 -293Q522 -285 504 -270Q516 -247 516 -227ZM200 -535Q200 -599 176 -710Q174 -717 171 -733.5Q168 -750 165.5 -762Q163 -774 158 -785Q155 -785 152 -786Q149 -782 147 -779Q142 -772 137.5 -763Q133 -754 130.5 -748Q128 -742 123.5 -729.5Q119 -717 117 -713Q108 -608 99 -527L105 -341L120 -233Q122 -227 125 -215.5Q128 -204 130 -199Q201 -337 201 -491Q201 -498 200 -524Q200 -526 200 -530Q200 -534 200 -535ZM446 -227Q446 -233 444 -240Q432 -239 409 -231Q393 -224 374 -224Q355 -224 334 -231Q317 -231 305 -243L270 -278Q259 -289 247 -319Q219 -216 160 -131Q175 -94 183 -81Q191 -77 199 -76Q215 -74 269 -63Q323 -52 355 -52Q379 -53 400 -67Q430 -108 443 -170Q446 -185 446 -213Q446 -215 446 -220Q446 -225 446 -227ZM409 -301Q411 -302 413 -303Q407 -313 404 -316Q375 -336 319 -336Q319 -336 318 -336Q315 -330 315 -326Q322 -309 325 -302Q329 -301 334 -301Q355 -295 374 -295Q393 -295 409 -301Z"/>
	<path fill="#daa520" d="M254 -535Q254 -598 230 -709Q229 -715 226 -731.5Q223 -748 221 -756.5Q219 -765 214.5 -778Q210 -791 205 -798Q200 -805 191.5 -810.5Q183 -816 172 -816Q166 -815 160.5 -808Q155 -801 149 -790.5Q143 -780 140 -776Q130 -763 111 -712Q102 -608 93 -527L99 -341L114 -234Q128 -182 129 -181Q138 -168 149 -141Q255 -299 255 -491Q255 -507 254 -524Q254 -526 254 -529.5Q254 -533 254 -535ZM343 -366Q336 -366 325 -353Q311 -337 309 -327Q316 -308 320.5 -299Q325 -290 335 -280.5Q345 -271 358 -271Q359 -271 359 -271Q380 -265 398 -265Q416 -265 431 -271Q456 -280 469 -280H481Q477 -287 465 -305Q440 -342 414 -354Q388 -366 343 -366ZM510 -213Q510 -184 507 -169Q501 -143 491.5 -118Q482 -93 467 -68Q452 -43 429 -27.5Q406 -12 379 -12Q347 -12 292.5 -23Q238 -34 222 -36Q208 -38 196 -45.5Q184 -53 175 -67Q166 -81 160.5 -91.5Q155 -102 147 -121Q96 -49 28 2Q27 3 25 3Q20 3 20 -2Q20 -4 22 -6Q91 -58 143 -132Q129 -163 120 -176Q119 -177 119 -178Q119 -179 104 -232L89 -340Q89 -341 89 -341L83 -527V-528Q92 -607 101 -713Q101 -714 101 -715Q103 -719 107.5 -731.5Q112 -744 114.5 -750Q117 -756 121.5 -765.5Q126 -775 132 -782Q135 -786 141 -798Q147 -810 154 -817Q161 -824 171 -826Q172 -826 172 -826Q186 -826 197 -819Q208 -812 214 -803.5Q220 -795 225 -779Q230 -763 231.5 -755Q233 -747 236 -730Q239 -717 240 -711Q264 -599 264 -535Q264 -529 264 -524Q265 -507 265 -491Q265 -395 236.5 -302Q208 -209 154 -130Q165 -104 172 -90Q179 -76 193 -62Q207 -48 224 -46Q240 -44 293.5 -33Q347 -22 379 -22Q410 -23 436 -48Q462 -73 476 -104.5Q490 -136 497 -171Q500 -185 500 -213Q500 -215 500 -220Q500 -225 500 -227Q500 -246 487 -270H469Q458 -270 435 -261Q418 -255 398 -255Q379 -255 357 -261Q345 -261 335.5 -266.5Q326 -272 319 -282.5Q312 -293 309 -300Q306 -307 301 -321Q299 -325 299 -326Q299 -339 317 -359Q332 -376 343 -376Q390 -376 418.5 -362.5Q447 -349 473 -311Q488 -289 492 -281Q494 -282 510 -296L539 -369L542 -404Q542 -409 547 -409Q552 -409 552 -404L549 -368Q549 -367 549 -366L519 -291Q518 -290 517 -289Q515 -288 508 -281.5Q501 -275 497 -272Q510 -248 510 -227Q510 -225 510 -220Q510 -215 510 -213Z"/>
</svg>