<svg xmlns="http://www.w3.org/2000/svg" viewBox="0 -1024 1024 1024">
	<path fill="#000088" d="M215 -293Q215 -273 216 -237Q289 -264 321 -297Q321 -297 283 -319Q270 -327 270 -359Q270 -379 276 -389Q242 -380 221 -362Q215 -335 215 -293ZM359 -53L506 -140L550 -66L376 37Q375 37 328 34Q325 34 320 34Q280 34 259 25Q256 24 254 23L202 -7Q192 -13 180.5 -23.5Q169 -34 162 -42L156 -50L138 -110Q67 -82 28 -46L-25 -104L11 -137Q52 -174 129 -205Q128 -243 128 -262Q128 -331 148 -366L183 -426Q208 -469 269 -482Q282 -482 303.5 -483Q325 -484 336 -484Q362 -484 374 -477L426 -447Q443 -437 453 -398Q454 -394 454 -389Q454 -382 450 -376L416 -315Q410 -306 397 -300Q395 -297 394 -295L359 -234Q341 -202 308 -181.5Q275 -161 224 -143L243 -80Q251 -70 262 -60Q280 -56 303 -56H311Q358 -53 359 -53Z"/>
	<path fill="#800080" d="M188 -278Q188 -258 190 -220Q258 -245 290 -269Q300 -283 307 -300Q305 -301 304 -302L269 -338Q260 -347 260 -374Q260 -393 264 -402Q262 -402 259 -402Q230 -395 209 -383Q188 -347 188 -278ZM349 -43L496 -130Q503 -135 511 -135Q524 -135 533 -126Q542 -117 542 -104Q542 -87 527 -78L349 27Q348 27 301 24Q298 24 293 24Q253 24 232 15Q217 9 199 -10Q153 -56 146 -65L127 -127Q44 -95 1 -56Q-7 -49 -17 -49Q-27 -49 -35 -57Q-43 -65 -43 -76Q-43 -87 -34 -95L1 -127Q42 -165 120 -195Q117 -264 117 -278Q117 -366 154 -403L189 -438Q214 -463 259 -472Q272 -472 293.5 -473Q315 -474 326 -474Q359 -474 371 -461L407 -426Q418 -414 426 -383Q428 -378 428 -374Q428 -363 419 -355L384 -319Q383 -319 383 -318Q373 -279 345 -250L310 -215Q276 -182 192 -151Q192 -150 192 -149Q192 -148 192 -147Q192 -146 192 -146L216 -65Q225 -59 232 -55Q253 -46 293 -46H301Q348 -43 349 -43Z"/>
	<path fill="#daa520" d="M324 -374Q324 -337 343 -337Q368 -342 370 -343Q371 -352 371 -362Q371 -373 361 -394Q357 -404 353 -408Q350 -411 349 -411Q324 -411 324 -374ZM185 -180Q212 -190 223.5 -194Q235 -198 257.5 -207.5Q280 -217 291 -224Q302 -231 318 -243Q334 -255 342.5 -267Q351 -279 358.5 -296Q366 -313 369 -332Q364 -331 352 -329Q343 -327 343 -327Q314 -327 314 -374Q314 -421 349 -421Q355 -421 360 -415Q367 -407 374 -389Q381 -371 381 -362Q381 -354 380 -346Q411 -356 411 -374Q411 -378 410 -382Q403 -412 392 -422Q381 -433 350 -433Q339 -433 317.5 -432.5Q296 -432 284 -432Q223 -419 202.5 -381Q182 -343 182 -278Q182 -259 183.5 -221.5Q185 -184 185 -180ZM325 -16Q326 -16 344 -14.5Q362 -13 372 -13L517 -99Q519 -100 520 -100Q525 -100 525 -95Q525 -92 523 -91L376 -4Q374 -3 373 -3Q371 -3 325 -6Q321 -6 317 -6Q276 -6 254 -15Q229 -27 201 -62Q200 -63 200 -64L176 -145Q176 -145 176 -146Q176 -147 176 -148Q176 -156 176 -166Q73 -129 28 -88Q27 -87 25 -87Q20 -87 20 -92Q20 -94 22 -95Q68 -138 176 -176Q175 -184 173.5 -221Q172 -258 172 -278Q172 -310 176 -334Q180 -358 191.5 -381Q203 -404 225.5 -419.5Q248 -435 282 -442Q282 -442 283 -442Q296 -442 317.5 -442.5Q339 -443 350 -443Q378 -443 391 -435Q410 -424 420 -384Q421 -379 421 -374Q421 -346 379 -335Q377 -318 371.5 -303Q366 -288 360.5 -276.5Q355 -265 343 -253.5Q331 -242 323.5 -234.5Q316 -227 298.5 -217.5Q281 -208 273.5 -204Q266 -200 244.5 -191.5Q223 -183 216.5 -180.5Q210 -178 186 -169Q186 -158 186 -148Q186 -148 186 -147L210 -67Q237 -34 258 -25Q278 -16 317 -16Q319 -16 321 -16Q323 -16 324 -16Q325 -16 325 -16Z"/>
</svg>