<svg xmlns="http://www.w3.org/2000/svg" viewBox="0 -1024 1024 1024">
	<path fill="#000088" d="M191 -366Q153 -366 128 -352Q112 -324 107.5 -286.5Q103 -249 103 -191Q108 -174 113 -157Q219 -169 259 -193Q273 -218 273 -253Q273 -270 270 -290Q262 -336 253 -355Q230 -366 191 -366ZM205 -31Q210 -31 215 -31Q276 -40 320 -74Q335 -93 346 -116Q334 -146 323 -183Q319 -178 314 -174L279 -139Q243 -103 139 -90Q152 -63 166 -43Q185 -31 205 -31ZM341 -593L346 -416Q348 -407 351 -383Q354 -359 355 -351.5Q356 -344 359 -326Q362 -308 364.5 -296.5Q367 -285 371 -267.5Q375 -250 380 -232Q384 -264 384 -299Q381 -398 341 -593ZM313 -807Q322 -807 330 -799L365 -763Q384 -744 391 -701Q397 -665 415 -579.5Q433 -494 443 -428Q453 -362 454 -299Q454 -191 417 -116Q435 -73 453 -46Q463 -40 473 -40Q487 -40 512 -49Q518 -61 530 -84.5Q542 -108 548 -120Q557 -137 576 -137Q589 -137 598.5 -128Q608 -119 608 -106Q608 -98 604 -92L568 -20Q553 10 533 15Q527 17 515 21Q503 25 493 27.5Q483 30 473 30Q454 30 435 11L400 -24Q388 -36 375 -57Q375 -56 339 -20Q290 29 215 39Q210 40 205 40Q175 40 148 13L112 -23Q91 -44 72 -82Q-10 -73 -49 -56Q-55 -54 -62 -54Q-75 -54 -84.5 -63.5Q-94 -73 -94 -86Q-94 -108 -74 -116L-49 -127Q-15 -141 45 -149Q38 -170 33 -191Q33 -236 34.5 -263Q36 -290 45.5 -322Q55 -354 73 -372L108 -407Q137 -436 191 -436Q249 -436 273 -412L277 -408L276 -416L270 -629L285 -770Q286 -785 294.5 -796Q303 -807 313 -807Z"/>
	<path fill="#800080" d="M241 -366Q203 -366 178 -352Q162 -324 157.5 -286.5Q153 -249 153 -191Q158 -174 163 -157Q269 -169 309 -193Q323 -218 323 -253Q323 -270 320 -290Q312 -336 303 -355Q280 -366 241 -366ZM255 -31Q260 -31 265 -31Q326 -40 370 -74Q385 -93 396 -116Q384 -146 373 -183Q369 -178 364 -174L329 -139Q293 -103 189 -90Q202 -63 216 -43Q235 -31 255 -31ZM391 -593L396 -416Q398 -407 401 -383Q404 -359 405 -351.5Q406 -344 409 -326Q412 -308 414.5 -296.5Q417 -285 421 -267.5Q425 -250 430 -232Q434 -264 434 -299Q431 -398 391 -593ZM363 -807Q372 -807 380 -799L415 -763Q434 -744 441 -701Q447 -665 465 -579.5Q483 -494 493 -428Q503 -362 504 -299Q504 -191 467 -116Q485 -73 503 -46Q513 -40 523 -40Q537 -40 562 -49Q568 -61 580 -84.5Q592 -108 598 -120Q607 -137 626 -137Q639 -137 648.5 -128Q658 -119 658 -106Q658 -98 654 -92L618 -20Q603 10 583 15Q577 17 565 21Q553 25 543 27.5Q533 30 523 30Q504 30 485 11L450 -24Q438 -36 425 -57Q425 -56 389 -20Q340 29 265 39Q260 40 255 40Q225 40 198 13L162 -23Q141 -44 122 -82Q40 -73 1 -56Q-5 -54 -12 -54Q-25 -54 -34.5 -63.5Q-44 -73 -44 -86Q-44 -108 -24 -116L1 -127Q35 -141 95 -149Q88 -170 83 -191Q83 -236 84.5 -263Q86 -290 95.5 -322Q105 -354 123 -372L158 -407Q187 -436 241 -436Q299 -436 323 -412L327 -408L326 -416L320 -629L335 -770Q336 -785 344.5 -796Q353 -807 363 -807Z"/>
	<path fill="#daa520" d="M357 -253Q357 -270 354 -289Q345 -343 332 -362Q311 -396 245 -396Q221 -396 202.5 -390Q184 -384 171.5 -374.5Q159 -365 150.5 -348.5Q142 -332 137.5 -317Q133 -302 130.5 -278Q128 -254 127.5 -236.5Q127 -219 127 -192Q136 -157 148 -125Q173 -128 184.5 -129Q196 -130 218 -133.5Q240 -137 251 -140Q262 -143 279.5 -148.5Q297 -154 306 -160Q315 -166 326.5 -175Q338 -184 343.5 -195.5Q349 -207 353 -221.5Q357 -236 357 -253ZM468 -299Q466 -362 456.5 -428Q447 -494 429 -579Q411 -664 405 -700Q401 -723 392 -741Q386 -755 378 -761L364 -629L370 -416L382 -330Q398 -228 436 -129Q468 -199 468 -299ZM141 -114Q47 -104 7 -87Q6 -87 5 -87Q0 -87 0 -92Q0 -95 3 -96Q45 -114 138 -124Q126 -155 117 -190Q117 -190 117 -191Q117 -219 117.5 -236Q118 -253 120.5 -278.5Q123 -304 128 -319.5Q133 -335 142.5 -353.5Q152 -372 165 -382Q178 -392 198.5 -399Q219 -406 245 -406Q316 -406 341 -368Q355 -346 364 -291Q367 -271 367 -253Q367 -235 363 -219Q359 -203 353 -191Q347 -179 334.5 -169Q322 -159 312.5 -152Q303 -145 284.5 -139Q266 -133 254.5 -130Q243 -127 221 -123.5Q199 -120 187.5 -119Q176 -118 152 -115Q165 -81 181 -57Q217 0 259 0Q264 0 268 -1Q379 -17 430 -116Q389 -218 372 -328L360 -415V-416L354 -629V-630L369 -771Q370 -775 374 -775Q375 -775 376 -775Q391 -768 401 -746Q411 -724 415 -702Q421 -666 439 -580.5Q457 -495 466.5 -428.5Q476 -362 478 -299Q478 -191 441 -116Q485 -10 527 -10Q536 -10 545.5 -12.5Q555 -15 566.5 -19Q578 -23 584 -24L619 -94Q620 -97 623 -97Q628 -97 628 -92Q628 -90 627 -89L591 -18Q590 -16 588 -15Q582 -14 570 -9.5Q558 -5 547.5 -2.5Q537 0 527 0Q522 -6 502 -22Q482 -38 464 -58.5Q446 -79 435 -105Q381 -7 270 9Q264 10 259 10Q191 10 141 -114Z"/>
</svg>