<svg xmlns="http://www.w3.org/2000/svg" viewBox="0 -1024 1024 1024">
	<path fill="#000088" d="M161 -178Q281 -222 339 -296Q351 -326 354 -359Q354 -360 354 -361Q321 -368 289 -368Q264 -368 230.5 -345Q197 -322 171 -289Q168 -280 168 -272Q161 -185 161 -178ZM265 51Q217 51 180 30L128 0Q90 -22 78 -60Q35 -51 -16 -46L-25 -137Q25 -142 74 -153Q74 -155 81 -242Q81 -261 96 -288L131 -348Q155 -389 198 -423.5Q241 -458 272 -458Q272 -458 281 -457.5Q290 -457 302 -455.5Q314 -454 327.5 -452Q341 -450 354 -446.5Q367 -443 374 -439L426 -409Q441 -400 441 -389Q436 -338 411 -295L376 -234Q320 -136 167 -84Q175 -64 192 -48Q219 -39 248 -39Q262 -39 275 -41Q319 -48 351.5 -59Q384 -70 402.5 -81Q421 -92 458 -117Q484 -136 500 -146L515 -167L569 -129L517 -56Q501 -45 475 -27Q438 -1 419.5 10Q401 21 368.5 32Q336 43 292 49Q279 51 265 51Z"/>
	<path fill="#800080" d="M170 -163Q266 -194 326 -245Q371 -299 379 -367Q342 -378 298 -378Q299 -378 299 -378Q297 -378 282.5 -372.5Q268 -367 248.5 -357.5Q229 -348 218 -338Q177 -290 177 -257Q170 -169 170 -163ZM107 -257Q107 -277 123 -304Q139 -331 164 -357L200 -392Q256 -448 298 -448Q324 -448 359.5 -442Q395 -436 409 -422L444 -387Q450 -381 450 -374Q443 -290 380 -227L345 -192Q282 -129 170 -92Q173 -71 184 -54Q222 -29 274 -29Q288 -29 301 -31Q345 -38 377.5 -49Q410 -60 428.5 -71Q447 -82 484 -108Q498 -118 506 -123L530 -155Q538 -168 553 -168Q565 -168 573.5 -159.5Q582 -151 582 -139Q582 -130 576 -122L562 -101Q545 -79 526 -66Q510 -55 484 -37Q447 -11 428.5 0Q410 11 377.5 22Q345 33 301 39Q288 41 274 41Q205 41 164 1L129 -35Q112 -52 104 -74Q53 -62 1 -57Q-1 -56 -2 -56Q-17 -56 -27.5 -66.5Q-38 -77 -38 -92Q-38 -105 -28.5 -115Q-19 -125 -6 -127Q51 -132 100 -143Q99 -152 99 -162Q99 -169 107 -257Z"/>
	<path fill="#daa520" d="M163 -123Q216 -138 260 -159Q304 -180 343 -210.5Q382 -241 406 -283Q430 -325 434 -374Q434 -389 397 -399Q361 -408 322 -408Q287 -408 237 -362Q209 -337 190 -307Q171 -277 171 -257Q164 -169 164 -162Q164 -147 165 -135Q165 -134 165 -134Q165 -132 164.5 -128Q164 -124 163 -123ZM298 1Q311 1 324 -1Q387 -10 419.5 -25Q452 -40 505 -76Q531 -94 546 -105L561 -125Q562 -127 565 -127Q570 -127 570 -122Q570 -120 569 -119L554 -98Q554 -97 553 -97Q537 -86 511 -68Q474 -42 455 -31Q436 -20 403 -8.5Q370 3 326 9Q312 11 298 11Q240 11 196.5 -21Q153 -53 153 -109V-110Q91 -94 26 -87H25Q20 -87 20 -92Q20 -97 24 -97Q91 -104 153 -120Q154 -127 155 -134Q154 -147 154 -162Q154 -170 161 -257Q161 -281 180.5 -312Q200 -343 230 -370Q283 -418 322 -418Q363 -418 399 -408Q444 -397 444 -374Q439 -321 414 -277Q389 -233 348.5 -202Q308 -171 262.5 -149Q217 -127 163 -112Q163 -111 163 -109Q163 -58 203 -28.5Q243 1 298 1Z"/>
</svg>