<svg xmlns="http://www.w3.org/2000/svg" viewBox="0 -1024 1024 1024">
	<path fill="#000088" d="M120 -163Q216 -194 276 -245Q321 -299 329 -367Q292 -378 248 -378Q249 -378 249 -378Q247 -378 232.5 -372.5Q218 -367 198.5 -357.5Q179 -348 168 -338Q127 -290 127 -257Q120 -169 120 -163ZM57 -257Q57 -277 73 -304Q89 -331 114 -357L150 -392Q206 -448 248 -448Q274 -448 309.5 -442Q345 -436 359 -422L394 -387Q400 -381 400 -374Q393 -290 330 -227L295 -192Q232 -129 120 -92Q123 -71 134 -54Q172 -29 224 -29Q238 -29 251 -31Q295 -38 327.5 -49Q360 -60 378.5 -71Q397 -82 434 -108Q448 -118 456 -123L480 -155Q488 -168 503 -168Q515 -168 523.5 -159.5Q532 -151 532 -139Q532 -130 526 -122L512 -101Q495 -79 476 -66Q460 -55 434 -37Q397 -11 378.5 0Q360 11 327.5 22Q295 33 251 39Q238 41 224 41Q155 41 114 1L79 -35Q62 -52 54 -74Q3 -62 -49 -57Q-51 -56 -52 -56Q-67 -56 -77.5 -66.5Q-88 -77 -88 -92Q-88 -105 -78.5 -115Q-69 -125 -56 -127Q1 -132 50 -143Q49 -152 49 -162Q49 -169 57 -257Z"/>
	<path fill="#800080" d="M170 -163Q266 -194 326 -245Q371 -299 379 -367Q342 -378 298 -378Q299 -378 299 -378Q297 -378 282.5 -372.5Q268 -367 248.5 -357.5Q229 -348 218 -338Q177 -290 177 -257Q170 -169 170 -163ZM107 -257Q107 -277 123 -304Q139 -331 164 -357L200 -392Q256 -448 298 -448Q324 -448 359.5 -442Q395 -436 409 -422L444 -387Q450 -381 450 -374Q443 -290 380 -227L345 -192Q282 -129 170 -92Q173 -71 184 -54Q222 -29 274 -29Q288 -29 301 -31Q345 -38 377.5 -49Q410 -60 428.5 -71Q447 -82 484 -108Q498 -118 506 -123L530 -155Q538 -168 553 -168Q565 -168 573.5 -159.5Q582 -151 582 -139Q582 -130 576 -122L562 -101Q545 -79 526 -66Q510 -55 484 -37Q447 -11 428.5 0Q410 11 377.5 22Q345 33 301 39Q288 41 274 41Q205 41 164 1L129 -35Q112 -52 104 -74Q53 -62 1 -57Q-1 -56 -2 -56Q-17 -56 -27.5 -66.5Q-38 -77 -38 -92Q-38 -105 -28.5 -115Q-19 -125 -6 -127Q51 -132 100 -143Q99 -152 99 -162Q99 -169 107 -257Z"/>
	<path fill="#daa520" d="M163 -123Q216 -138 260 -159Q304 -180 343 -210.5Q382 -241 406 -283Q430 -325 434 -374Q434 -389 397 -399Q361 -408 322 -408Q287 -408 237 -362Q209 -337 190 -307Q171 -277 171 -257Q164 -169 164 -162Q164 -147 165 -135Q165 -134 165 -134Q165 -132 164.5 -128Q164 -124 163 -123ZM298 1Q311 1 324 -1Q387 -10 419.5 -25Q452 -40 505 -76Q531 -94 546 -105L561 -125Q562 -127 565 -127Q570 -127 570 -122Q570 -120 569 -119L554 -98Q554 -97 553 -97Q537 -86 511 -68Q474 -42 455 -31Q436 -20 403 -8.5Q370 3 326 9Q312 11 298 11Q240 11 196.5 -21Q153 -53 153 -109V-110Q91 -94 26 -87H25Q20 -87 20 -92Q20 -97 24 -97Q91 -104 153 -120Q154 -127 155 -134Q154 -147 154 -162Q154 -170 161 -257Q161 -281 180.5 -312Q200 -343 230 -370Q283 -418 322 -418Q363 -418 399 -408Q444 -397 444 -374Q439 -321 414 -277Q389 -233 348.5 -202Q308 -171 262.5 -149Q217 -127 163 -112Q163 -111 163 -109Q163 -58 203 -28.5Q243 1 298 1Z"/>
</svg>