<svg xmlns="http://www.w3.org/2000/svg" viewBox="0 -1024 1024 1024">
	<path fill="#000088" d="M21 -47L-25 -119L4 -137Q14 -144 29.5 -161.5Q45 -179 50 -183Q52 -186 55 -189L70 -234L140 -211L132 -187Q125 -166 97 -127Q83 -108 67 -93Q62 -88 46.5 -70.5Q31 -53 21 -47ZM274 -61Q268 -61 256 -61.5Q244 -62 238 -62Q225 -62 217 -61Q179 -56 160 -56Q137 -56 124 -63L72 -93Q57 -102 52 -124Q47 -146 47 -191Q47 -193 47 -195Q47 -259 82 -321L117 -381Q162 -459 224 -459Q250 -459 276 -444L328 -414Q335 -410 342 -405Q347 -402 355.5 -385Q364 -368 370 -352L376 -337L382 -207L381 -158L388 -155Q387 -153 381 -143L380 -80L392 -100Q394 -104 411 -122L419 -137L472 -107L429 -33Q420 -23 414 -16L403 3Q393 21 373 33Q371 53 360 127L342 179Q338 188 307 239Q290 266 267 266Q263 266 259 265Q253 266 248 266Q224 266 207 256L155 226Q136 215 131 195Q112 165 112 138Q112 134 113 129Q113 106 122 89L157 28Q164 17 174 8.5Q184 0 200.5 -6.5Q217 -13 228 -16Q239 -19 262 -24.5Q285 -30 293 -32V-62Q285 -61 274 -61ZM250 176Q259 176 268 171L273 157Q285 84 286 64Q222 79 200 93Q200 96 200 99Q199 103 199 108Q199 135 218 165Q219 170 221 175Q226 175 231.5 175Q237 175 242 175Q246 176 250 176ZM257 -152Q280 -152 294 -155L295 -177L289 -307Q273 -347 261 -366Q251 -368 241 -368Q193 -368 153 -319Q133 -270 133 -225Q133 -223 134 -221Q134 -168 141 -146Q142 -146 143 -146Q162 -146 200 -151Q208 -152 221 -152Q227 -152 239 -152Q251 -152 257 -152Z"/>
	<path fill="#800080" d="M-16 -52Q-28 -52 -37 -61Q-46 -70 -46 -82Q-46 -99 -32 -107Q0 -127 0 -128Q4 -131 25 -152Q34 -162 41 -172L56 -217Q63 -240 88 -240Q101 -240 111 -230Q121 -220 121 -207Q121 -201 119 -196L111 -172Q101 -157 70 -126Q70 -126 62 -117Q54 -108 50 -104L15 -69Q7 -61 0 -56.5Q-7 -52 -16 -52ZM254 -71Q248 -71 236 -71.5Q224 -72 218 -72Q205 -72 196 -71Q158 -66 140 -66Q109 -66 96 -79L61 -114Q43 -132 43 -206Q43 -208 43 -210Q43 -253 61.5 -300.5Q80 -348 110 -379L146 -414Q181 -449 221 -449Q253 -449 286 -425Q287 -425 287 -424L323 -389Q328 -384 336 -367Q344 -350 350 -336L355 -322L361 -192V-176Q371 -167 371 -154Q371 -142 361 -129L360 -64L373 -78L398 -122Q407 -138 425 -138Q437 -138 446 -129Q455 -120 455 -107Q455 -99 451 -92L443 -78Q425 -58 423 -54Q417 -37 404 -25L369 11Q363 16 357 21L349 82L339 142L321 194Q316 202 311 208L275 243Q262 256 247 256Q242 256 238 255Q233 256 228 256Q194 256 174 237L139 201Q130 192 127 180Q108 150 108 123Q108 119 109 114Q109 80 129 59L165 24Q174 15 191 7Q208 -1 218.5 -4.5Q229 -8 256 -14Q283 -20 289 -22V-74Q275 -71 254 -71ZM247 186Q250 186 254 185L269 142Q281 68 282 50Q277 52 258 56.5Q239 61 230.5 63Q222 65 208.5 69.5Q195 74 186 79Q179 94 179 114Q179 119 179 123Q179 150 197 180Q211 185 228 185Q233 185 238 185Q242 186 247 186ZM254 -142Q276 -142 290 -145L291 -192L285 -322Q275 -347 265 -367Q243 -378 221 -378Q191 -378 164 -359Q141 -328 127 -287Q113 -246 113 -210Q113 -208 113 -206Q113 -159 119 -138Q128 -136 140 -136Q158 -136 196 -141Q205 -142 218 -142Q224 -142 236 -142Q248 -142 254 -142Z"/>
	<path fill="#daa520" d="M25 -87Q20 -87 20 -92Q20 -95 22 -96Q32 -102 47.5 -119.5Q63 -137 68 -142Q84 -156 96 -174L104 -198Q105 -201 109 -201Q114 -201 114 -196Q114 -195 114 -194L106 -170Q106 -170 105 -169Q92 -150 74 -134Q70 -130 54.5 -112.5Q39 -95 28 -88Q26 -87 25 -87ZM279 -102Q273 -102 261 -102Q249 -102 243 -102Q230 -102 222 -101Q184 -96 165 -96Q120 -96 107 -126Q98 -149 98 -206Q98 -208 98 -210Q98 -254 116 -301.5Q134 -349 169 -384Q204 -419 246 -419Q280 -419 314 -394Q321 -389 334 -360Q350 -327 350 -322L356 -192V-145Q356 -145 357 -145Q362 -145 362 -140Q362 -139 362 -138Q359 -132 355 -128L354 -5Q395 -23 408 -56Q411 -62 429 -81L437 -94Q438 -97 441 -97Q446 -97 446 -92Q446 -91 445 -90L437 -76Q437 -75 433 -70.5Q429 -66 424.5 -60.5Q420 -55 418 -52Q402 -13 353 6L344 83L334 143Q334 143 334 144L316 196Q316 196 315 197Q297 226 272 226Q267 226 263 225Q258 226 253 226Q228 226 208 214.5Q188 203 182 182Q164 151 164 123Q164 118 164 114Q164 93 172 77.5Q180 62 189.5 52.5Q199 43 218.5 35Q238 27 250 24Q262 21 286 15Q325 6 344 -1Q344 -23 344.5 -65Q345 -107 345 -117Q325 -102 279 -102ZM272 216Q291 216 306 192L324 141L334 81L343 10Q326 16 288 25Q264 30 252 33.5Q240 37 222.5 44Q205 51 196 59.5Q187 68 180.5 82Q174 96 174 114Q174 116 174 119Q174 122 174 123Q174 149 191 177Q192 178 192 179Q197 196 214 206Q231 216 253 216Q255 216 258 215.5Q261 215 262.5 215Q264 215 267 215.5Q270 216 272 216ZM108 -206Q108 -151 117 -130Q122 -117 133 -111.5Q144 -106 165 -106Q183 -106 220 -111Q229 -112 243 -112Q249 -112 261 -112Q273 -112 279 -112Q328 -112 345 -131L346 -192L340 -321Q333 -340 325 -356Q313 -382 308 -386Q277 -409 246 -409Q209 -409 176 -376.5Q143 -344 125.5 -298.5Q108 -253 108 -210Q108 -209 108 -208Q108 -207 108 -206Z"/>
</svg>