<svg xmlns="http://www.w3.org/2000/svg" viewBox="0 -1024 1024 1024">
	<path fill="#000088" d="M-66 -52Q-78 -52 -87 -61Q-96 -70 -96 -82Q-96 -99 -82 -107Q-50 -127 -50 -128Q-46 -131 -25 -152Q-16 -162 -9 -172Q-6 -181 -1 -196.5Q4 -212 6 -217Q13 -240 38 -240Q51 -240 61 -230Q71 -220 71 -207Q71 -201 69 -196L61 -172Q51 -157 20 -126Q20 -126 12 -117Q4 -108 0 -104L-35 -69Q-43 -61 -50 -56.5Q-57 -52 -66 -52ZM204 -71Q198 -71 186 -71.5Q174 -72 168 -72Q155 -72 146 -71Q108 -66 90 -66Q59 -66 46 -79L11 -114Q-7 -132 -7 -206Q-7 -208 -7 -210Q-7 -253 11.5 -300.5Q30 -348 60 -379L96 -414Q131 -449 171 -449Q203 -449 236 -425Q237 -425 237 -424L273 -389Q278 -384 286 -367Q294 -350 300 -336L305 -322L311 -192V-176Q321 -167 321 -154Q321 -142 311 -129L310 -64L323 -78Q327 -85 335.5 -100Q344 -115 348 -122Q357 -138 375 -138Q387 -138 396 -129Q405 -120 405 -107Q405 -99 401 -92L393 -78Q375 -58 373 -54Q367 -37 354 -25L319 11Q313 16 307 21L299 82L289 142L271 194Q266 202 261 208L225 243Q212 256 197 256Q192 256 188 255Q183 256 178 256Q144 256 124 237L89 201Q80 192 77 180Q58 150 58 123Q58 119 59 114Q59 80 79 59L115 24Q124 15 141 7Q158 -1 168.5 -4.5Q179 -8 206 -14Q233 -20 239 -22V-74Q225 -71 204 -71ZM197 186Q200 186 204 185L219 142Q231 68 232 50Q227 52 208 56.5Q189 61 180.5 63Q172 65 158.5 69.5Q145 74 136 79Q129 94 129 114Q129 119 129 123Q129 150 147 180Q161 185 178 185Q183 185 188 185Q192 186 197 186ZM204 -142Q226 -142 240 -145L241 -192L235 -322Q225 -347 215 -367Q193 -378 171 -378Q141 -378 114 -359Q91 -328 77 -287Q63 -246 63 -210Q63 -208 63 -206Q63 -159 69 -138Q78 -136 90 -136Q108 -136 146 -141Q155 -142 168 -142Q174 -142 186 -142Q198 -142 204 -142Z"/>
	<path fill="#800080" d="M-16 -52Q-28 -52 -37 -61Q-46 -70 -46 -82Q-46 -99 -32 -107Q0 -127 0 -128Q4 -131 25 -152Q34 -162 41 -172Q44 -181 49 -196.5Q54 -212 56 -217Q63 -240 88 -240Q101 -240 111 -230Q121 -220 121 -207Q121 -201 119 -196L111 -172Q101 -157 70 -126Q70 -126 62 -117Q54 -108 50 -104L15 -69Q7 -61 0 -56.5Q-7 -52 -16 -52ZM254 -71Q248 -71 236 -71.5Q224 -72 218 -72Q205 -72 196 -71Q158 -66 140 -66Q109 -66 96 -79L61 -114Q43 -132 43 -206Q43 -208 43 -210Q43 -253 61.5 -300.5Q80 -348 110 -379L146 -414Q181 -449 221 -449Q253 -449 286 -425Q287 -425 287 -424L323 -389Q328 -384 336 -367Q344 -350 350 -336L355 -322L361 -192V-176Q371 -167 371 -154Q371 -142 361 -129L360 -64L373 -78Q377 -85 385.5 -100Q394 -115 398 -122Q407 -138 425 -138Q437 -138 446 -129Q455 -120 455 -107Q455 -99 451 -92L443 -78Q425 -58 423 -54Q417 -37 404 -25L369 11Q363 16 357 21L349 82L339 142L321 194Q316 202 311 208L275 243Q262 256 247 256Q242 256 238 255Q233 256 228 256Q194 256 174 237L139 201Q130 192 127 180Q108 150 108 123Q108 119 109 114Q109 80 129 59L165 24Q174 15 191 7Q208 -1 218.5 -4.5Q229 -8 256 -14Q283 -20 289 -22V-74Q275 -71 254 -71ZM247 186Q250 186 254 185L269 142Q281 68 282 50Q277 52 258 56.5Q239 61 230.5 63Q222 65 208.5 69.5Q195 74 186 79Q179 94 179 114Q179 119 179 123Q179 150 197 180Q211 185 228 185Q233 185 238 185Q242 186 247 186ZM254 -142Q276 -142 290 -145L291 -192L285 -322Q275 -347 265 -367Q243 -378 221 -378Q191 -378 164 -359Q141 -328 127 -287Q113 -246 113 -210Q113 -208 113 -206Q113 -159 119 -138Q128 -136 140 -136Q158 -136 196 -141Q205 -142 218 -142Q224 -142 236 -142Q248 -142 254 -142Z"/>
	<path fill="#daa520" d="M5 -87Q0 -87 0 -92Q0 -95 2 -96Q12 -102 27.5 -119.5Q43 -137 48 -142Q64 -156 76 -174L84 -198Q85 -201 89 -201Q94 -201 94 -196Q94 -195 94 -194L86 -170Q86 -170 85 -169Q72 -150 54 -134Q50 -130 34.5 -112.5Q19 -95 8 -88Q6 -87 5 -87ZM259 -102Q253 -102 241 -102Q229 -102 223 -102Q210 -102 202 -101Q164 -96 145 -96Q100 -96 87 -126Q78 -149 78 -206Q78 -208 78 -210Q78 -254 96 -301.5Q114 -349 149 -384Q184 -419 226 -419Q260 -419 294 -394Q301 -389 314 -360Q330 -327 330 -322L336 -192V-145Q336 -145 337 -145Q342 -145 342 -140Q342 -139 342 -138Q339 -132 335 -128L334 -5Q375 -23 388 -56Q391 -62 409 -81L417 -94Q418 -97 421 -97Q426 -97 426 -92Q426 -91 425 -90L417 -76Q417 -75 413 -70.5Q409 -66 404.5 -60.5Q400 -55 398 -52Q382 -13 333 6L324 83L314 143Q314 143 314 144L296 196Q296 196 295 197Q277 226 252 226Q247 226 243 225Q238 226 233 226Q208 226 188 214.5Q168 203 162 182Q144 151 144 123Q144 118 144 114Q144 93 152 77.5Q160 62 169.5 52.5Q179 43 198.5 35Q218 27 230 24Q242 21 266 15Q305 6 324 -1Q324 -23 324.5 -65Q325 -107 325 -117Q305 -102 259 -102ZM252 216Q271 216 286 192L304 141L314 81L323 10Q306 16 268 25Q244 30 232 33.5Q220 37 202.5 44Q185 51 176 59.5Q167 68 160.5 82Q154 96 154 114Q154 116 154 119Q154 122 154 123Q154 149 171 177Q172 178 172 179Q177 196 194 206Q211 216 233 216Q235 216 238 215.5Q241 215 242.5 215Q244 215 247 215.5Q250 216 252 216ZM88 -206Q88 -151 97 -130Q102 -117 113 -111.5Q124 -106 145 -106Q163 -106 200 -111Q209 -112 223 -112Q229 -112 241 -112Q253 -112 259 -112Q308 -112 325 -131L326 -192L320 -321Q313 -340 305 -356Q293 -382 288 -386Q257 -409 226 -409Q189 -409 156 -376.5Q123 -344 105.5 -298.5Q88 -253 88 -210Q88 -209 88 -208Q88 -207 88 -206Z"/>
</svg>