<svg xmlns="http://www.w3.org/2000/svg" viewBox="0 -1024 1024 1024">
	<path fill="#000088" d="M382 -130Q382 -144 383 -170.5Q384 -197 384 -209Q384 -217 383.5 -231Q383 -245 383 -251Q382 -339 364 -373Q359 -375 353 -378Q339 -378 320 -364Q316 -358 304 -344Q291 -327 278.5 -290.5Q266 -254 259 -242Q258 -237 252 -223Q246 -209 246 -200Q246 -196 247 -191L229 -98L220 4Q219 17 210 27Q199 37 184.5 37Q170 37 160 27Q150 17 150 4L144 -104L135 -182V-203L134 -204Q118 -183 65 -129Q14 -79 -49 -56Q-54 -54 -60 -54Q-74 -54 -83.5 -64Q-93 -74 -93 -88Q-93 -111 -71 -119L-49 -127Q3 -145 47 -183Q90 -233 122 -304Q118 -331 114.5 -362.5Q111 -394 107.5 -432Q104 -470 102 -491L84 -641L78 -758L84 -821L87 -827Q95 -843 104.5 -852.5Q114 -862 122 -862Q132 -862 139 -855L175 -820Q183 -811 191 -782Q196 -764 199 -758Q216 -648 226 -584L229 -413Q215 -355 192 -304L198 -262Q201 -269 207 -288.5Q213 -308 219 -320.5Q225 -333 234 -344Q256 -372 268 -384L304 -420Q332 -448 353 -448Q371 -441 384 -429L419 -393Q435 -378 443 -351Q451 -324 452 -305Q453 -286 454 -251Q454 -245 454.5 -231Q455 -217 455 -209Q455 -197 454 -170.5Q453 -144 453 -130Q453 -69 464 -38Q467 -37 470 -37Q474 -37 479 -39L501 -68Q514 -94 527 -120Q536 -137 555 -137Q568 -137 577.5 -128Q587 -119 587 -106Q587 -98 583 -92L571 -68L526 -8Q502 24 491 27Q489 28 485 29.5Q481 31 477.5 32Q474 33 470 33Q454 33 443 22L408 -13Q382 -39 382 -130Z"/>
	<path fill="#800080" d="M432 -130Q432 -144 433 -170.5Q434 -197 434 -209Q434 -217 433.5 -231Q433 -245 433 -251Q432 -339 414 -373Q409 -375 403 -378Q389 -378 370 -364Q366 -358 354 -344Q341 -327 328.5 -290.5Q316 -254 309 -242Q308 -237 302 -223Q296 -209 296 -200Q296 -196 297 -191L279 -98L270 4Q269 17 260 27Q249 37 234.5 37Q220 37 210 27Q200 17 200 4L194 -104L185 -182V-203L184 -204Q168 -183 115 -129Q64 -79 1 -56Q-4 -54 -10 -54Q-24 -54 -33.5 -64Q-43 -74 -43 -88Q-43 -111 -21 -119L1 -127Q53 -145 97 -183Q140 -233 172 -304Q168 -331 164.5 -362.5Q161 -394 157.5 -432Q154 -470 152 -491L134 -641L128 -758L134 -821L137 -827Q145 -843 154.5 -852.5Q164 -862 172 -862Q182 -862 189 -855L225 -820Q233 -811 241 -782Q246 -764 249 -758Q266 -648 276 -584L279 -413Q265 -355 242 -304L248 -262Q251 -269 257 -288.5Q263 -308 269 -320.5Q275 -333 284 -344Q306 -372 318 -384L354 -420Q382 -448 403 -448Q421 -441 434 -429L469 -393Q485 -378 493 -351Q501 -324 502 -305Q503 -286 504 -251Q504 -245 504.5 -231Q505 -217 505 -209Q505 -197 504 -170.5Q503 -144 503 -130Q503 -69 514 -38Q517 -37 520 -37Q524 -37 529 -39L551 -68Q564 -94 577 -120Q586 -137 605 -137Q618 -137 627.5 -128Q637 -119 637 -106Q637 -98 633 -92L621 -68L576 -8Q552 24 541 27Q539 28 535 29.5Q531 31 527.5 32Q524 33 520 33Q504 33 493 22L458 -13Q432 -39 432 -130Z"/>
	<path fill="#daa520" d="M243 -414L240 -584Q230 -647 213 -756Q210 -763 205 -781Q202 -794 199 -801Q196 -808 191 -814.5Q186 -821 179 -822L178 -820L172 -758L178 -641L196 -492Q197 -478 203 -416.5Q209 -355 213 -323Q231 -366 243 -414ZM476 -130Q476 -7 524 -7Q526 -7 542 -12L586 -71L598 -94Q599 -97 602 -97Q607 -97 607 -92Q607 -90 606 -89L594 -66Q594 -65 594 -65L549 -5Q548 -4 546 -3Q544 -2 540 -0.5Q536 1 532 2Q528 3 524 3Q466 3 466 -130Q466 -144 467 -170.5Q468 -197 468 -209Q468 -217 467.5 -231Q467 -245 467 -251Q467 -276 466.5 -290.5Q466 -305 462.5 -327Q459 -349 453 -362Q447 -375 435 -388Q423 -401 406 -408Q391 -407 371 -390Q355 -376 327 -341Q314 -325 301.5 -288.5Q289 -252 283 -240Q282 -236 276 -222Q270 -208 270 -200Q270 -196 271 -192Q271 -192 271 -191.5Q271 -191 271 -190L253 -97L244 4Q244 9 239 9Q234 9 234 4L228 -104L219 -181Q219 -182 219 -182V-203L208 -286Q135 -132 7 -87Q6 -87 5 -87Q0 -87 0 -92Q0 -95 3 -96Q133 -142 206 -304Q202 -331 199 -362.5Q196 -394 192 -431.5Q188 -469 186 -490L168 -640Q168 -641 168 -641L162 -758Q162 -758 162 -758L168 -821Q168 -822 169 -823Q173 -832 176 -832Q188 -832 196.5 -822.5Q205 -813 208 -805.5Q211 -798 215 -783Q219 -766 222 -761Q223 -760 223 -759Q239 -649 250 -585Q250 -584 250 -584L253 -413Q253 -412 253 -412Q238 -354 216 -303L229 -204Q229 -203 229 -203V-182L238 -105V-104L240 -66L243 -98Q243 -99 243 -99L261 -191Q260 -195 260 -200Q260 -210 266 -224Q272 -238 273 -243Q273 -244 274 -244Q280 -257 292.5 -293.5Q305 -330 319 -347Q348 -383 364 -397Q388 -418 407 -418Q408 -418 409 -418Q428 -410 441.5 -395.5Q455 -381 462 -367Q469 -353 472.5 -328.5Q476 -304 476.5 -291Q477 -278 477 -251Q477 -245 477.5 -231Q478 -217 478 -209Q478 -197 477 -170.5Q476 -144 476 -130Z"/>
</svg>