<svg xmlns="http://www.w3.org/2000/svg" viewBox="0 -1024 1024 1024">
	<path fill="#000088" d="M382 -130Q382 -144 383 -170.5Q384 -197 384 -209Q384 -217 383.5 -231Q383 -245 383 -251Q382 -339 364 -373Q359 -375 353 -378Q339 -378 320 -364Q316 -358 304 -344Q291 -327 278.5 -290.5Q266 -254 259 -242Q258 -237 252 -223Q246 -209 246 -200Q246 -196 247 -191L229 -98L220 4Q219 17 210 27Q199 37 184.5 37Q170 37 160 27Q150 17 150 4L144 -104L135 -182V-203L134 -204Q118 -183 65 -129Q14 -79 -49 -56Q-54 -54 -60 -54Q-74 -54 -83.5 -64Q-93 -74 -93 -88Q-93 -111 -71 -119L-49 -127Q3 -145 47 -183Q90 -233 122 -304Q118 -331 114.5 -362.5Q111 -394 107.5 -432Q104 -470 102 -491L84 -641L78 -758L84 -821L87 -827Q95 -843 104.5 -852.5Q114 -862 122 -862Q132 -862 139 -855L175 -820Q183 -811 191 -782Q196 -764 199 -758Q216 -648 226 -584L229 -413Q215 -355 192 -304L198 -262Q201 -269 207 -288.5Q213 -308 219 -320.5Q225 -333 234 -344Q256 -372 268 -384L304 -420Q332 -448 353 -448Q371 -441 384 -429L419 -393Q435 -378 443 -351Q451 -324 452 -305Q453 -286 454 -251Q454 -245 454.5 -231Q455 -217 455 -209Q455 -197 454 -170.5Q453 -144 453 -130Q453 -69 464 -38Q467 -37 470 -37Q474 -37 479 -39L501 -68Q514 -94 527 -120Q536 -137 555 -137Q568 -137 577.5 -128Q587 -119 587 -106Q587 -98 583 -92L571 -68L526 -8Q502 24 491 27Q489 28 485 29.5Q481 31 477.5 32Q474 33 470 33Q454 33 443 22L408 -13Q382 -39 382 -130Z"/>
	<path fill="#800080" d="M432 -130Q432 -144 433 -170.5Q434 -197 434 -209Q434 -217 433.5 -231Q433 -245 433 -251Q432 -339 414 -373Q409 -375 403 -378Q389 -378 370 -364Q366 -358 354 -344Q341 -327 328.5 -290.5Q316 -254 309 -242Q308 -237 302 -223Q296 -209 296 -200Q296 -196 297 -191L279 -98L270 4Q269 17 260 27Q249 37 234.5 37Q220 37 210 27Q200 17 200 4L194 -104L185 -182V-203L184 -204Q168 -183 115 -129Q64 -79 1 -56Q-4 -54 -10 -54Q-24 -54 -33.5 -64Q-43 -74 -43 -88Q-43 -111 -21 -119L1 -127Q53 -145 97 -183Q140 -233 172 -304Q168 -331 164.5 -362.5Q161 -394 157.5 -432Q154 -470 152 -491L134 -641L128 -758L134 -821L137 -827Q145 -843 154.5 -852.5Q164 -862 172 -862Q182 -862 189 -855L225 -820Q233 -811 241 -782Q246 -764 249 -758Q266 -648 276 -584L279 -413Q265 -355 242 -304L248 -262Q251 -269 257 -288.5Q263 -308 269 -320.5Q275 -333 284 -344Q306 -372 318 -384L354 -420Q382 -448 403 -448Q421 -441 434 -429L469 -393Q485 -378 493 -351Q501 -324 502 -305Q503 -286 504 -251Q504 -245 504.5 -231Q505 -217 505 -209Q505 -197 504 -170.5Q503 -144 503 -130Q503 -69 514 -38Q517 -37 520 -37Q524 -37 529 -39L551 -68L577 -120Q586 -137 605 -137Q618 -137 627.5 -128Q637 -119 637 -106Q637 -98 633 -92L621 -68L576 -8Q552 24 541 27Q539 28 535 29.5Q531 31 527.5 32Q524 33 520 33Q504 33 493 22L458 -13Q432 -39 432 -130Z"/>
	<path fill="#daa520" d="M263 -414L260 -584Q250 -647 233 -756Q230 -763 225 -781Q222 -794 219 -801Q216 -808 211 -814.5Q206 -821 199 -822L198 -820L192 -758L198 -641L216 -492Q217 -478 223 -416.5Q229 -355 233 -323Q251 -366 263 -414ZM496 -130Q496 -7 544 -7Q546 -7 562 -12L606 -71L618 -94Q619 -97 622 -97Q627 -97 627 -92Q627 -90 626 -89L614 -66Q614 -65 614 -65L569 -5Q568 -4 566 -3Q564 -2 560 -0.5Q556 1 552 2Q548 3 544 3Q486 3 486 -130Q486 -144 487 -170.5Q488 -197 488 -209Q488 -217 487.5 -231Q487 -245 487 -251Q487 -276 486.5 -290.5Q486 -305 482.5 -327Q479 -349 473 -362Q467 -375 455 -388Q443 -401 426 -408Q411 -407 391 -390Q375 -376 347 -341Q334 -325 321.5 -288.5Q309 -252 303 -240Q302 -236 296 -222Q290 -208 290 -200Q290 -196 291 -192Q291 -192 291 -191.5Q291 -191 291 -190L273 -97L264 4Q264 9 259 9Q254 9 254 4L248 -104L239 -181Q239 -182 239 -182V-203L228 -286Q155 -132 27 -87Q26 -87 25 -87Q20 -87 20 -92Q20 -95 23 -96Q153 -142 226 -304Q222 -331 219 -362.5Q216 -394 212 -431.5Q208 -469 206 -490L188 -640Q188 -641 188 -641L182 -758Q182 -758 182 -758L188 -821Q188 -822 189 -823Q193 -832 196 -832Q208 -832 216.5 -822.5Q225 -813 228 -805.5Q231 -798 235 -783Q239 -766 242 -761Q243 -760 243 -759Q259 -649 270 -585Q270 -584 270 -584L273 -413Q273 -412 273 -412Q258 -354 236 -303L249 -204Q249 -203 249 -203V-182L258 -105V-104L260 -66L263 -98Q263 -99 263 -99L281 -191Q280 -195 280 -200Q280 -210 286 -224Q292 -238 293 -243Q293 -244 294 -244Q300 -257 312.5 -293.5Q325 -330 339 -347Q368 -383 384 -397Q408 -418 427 -418Q428 -418 429 -418Q448 -410 461.5 -395.5Q475 -381 482 -367Q489 -353 492.5 -328.5Q496 -304 496.5 -291Q497 -278 497 -251Q497 -245 497.5 -231Q498 -217 498 -209Q498 -197 497 -170.5Q496 -144 496 -130Z"/>
</svg>