<svg xmlns="http://www.w3.org/2000/svg" viewBox="0 -1024 1024 1024">
	<path fill="#000088" d="M420 -114Q420 -128 421 -155Q422 -182 422 -194Q422 -202 421.5 -215.5Q421 -229 421 -236Q420 -267 419.5 -284Q419 -301 413 -325.5Q407 -350 396 -366Q372 -358 335 -313Q319 -269 313 -257Q312 -252 306 -238Q300 -224 300 -215Q300 -211 301 -206L283 -113L274 -11Q273 6 261 22Q242 49 216 49Q204 49 196 40.5Q188 32 187 19L181 -89L172 -167V-186Q105 -82 5 -46L-25 -132L-12 -137Q84 -171 150 -268Q155 -278 159 -288Q156 -315 152.5 -346.5Q149 -378 145.5 -416Q142 -454 139 -476L121 -626L115 -743L121 -806L124 -812Q155 -872 159 -872Q166 -872 172 -869L224 -839Q236 -832 245 -797Q250 -779 253 -773Q270 -663 280 -599L283 -428Q269 -370 246 -319L250 -289Q256 -304 262 -315L297 -376Q302 -383 309 -392Q361 -458 390 -458Q398 -456 404 -452L456 -422Q470 -414 480.5 -399.5Q491 -385 496 -372Q501 -359 504 -337.5Q507 -316 507 -303Q507 -290 508 -266Q508 -260 508.5 -246Q509 -232 509 -225Q509 -212 508 -185.5Q507 -159 507 -145Q507 -81 519 -50Q526 -53 528 -53L560 -96L581 -136L637 -107L625 -83Q603 -40 590 -23L545 37Q543 38 539 39.5Q535 41 531.5 42Q528 43 524 43Q514 43 505 38L453 8Q420 -11 420 -114Z"/>
	<path fill="#800080" d="M432 -130Q432 -144 433 -170.5Q434 -197 434 -209Q434 -217 433.5 -231Q433 -245 433 -251Q432 -339 414 -373Q409 -375 403 -378Q389 -378 370 -364Q366 -358 354 -344Q341 -327 328.5 -290.5Q316 -254 309 -242Q308 -237 302 -223Q296 -209 296 -200Q296 -196 297 -191L279 -98L270 4Q269 17 260 27Q249 37 234.5 37Q220 37 210 27Q200 17 200 4L194 -104L185 -182V-203L184 -204Q168 -183 115 -129Q64 -79 1 -56Q-4 -54 -10 -54Q-24 -54 -33.5 -64Q-43 -74 -43 -88Q-43 -111 -21 -119L1 -127Q53 -145 97 -183Q140 -233 172 -304Q168 -331 164.5 -362.5Q161 -394 157.5 -432Q154 -470 152 -491L134 -641L128 -758L134 -821L137 -827Q145 -843 154.5 -852.5Q164 -862 172 -862Q182 -862 189 -855L225 -820Q233 -811 241 -782Q246 -764 249 -758Q266 -648 276 -584L279 -413Q265 -355 242 -304L248 -262Q251 -269 257 -288.5Q263 -308 269 -320.5Q275 -333 284 -344Q306 -372 318 -384L354 -420Q382 -448 403 -448Q421 -441 434 -429L469 -393Q485 -378 493 -351Q501 -324 502 -305Q503 -286 504 -251Q504 -245 504.5 -231Q505 -217 505 -209Q505 -197 504 -170.5Q503 -144 503 -130Q503 -69 514 -38Q517 -37 520 -37Q524 -37 529 -39L551 -68L577 -120Q586 -137 605 -137Q618 -137 627.5 -128Q637 -119 637 -106Q637 -98 633 -92L621 -68L576 -8Q552 24 541 27Q539 28 535 29.5Q531 31 527.5 32Q524 33 520 33Q504 33 493 22L458 -13Q432 -39 432 -130Z"/>
	<path fill="#daa520" d="M263 -414L260 -584Q250 -647 233 -756Q230 -763 225 -781Q222 -794 219 -801Q216 -808 211 -814.5Q206 -821 199 -822L198 -820L192 -758L198 -641L216 -492Q217 -478 223 -416.5Q229 -355 233 -323Q251 -366 263 -414ZM496 -130Q496 -7 544 -7Q546 -7 562 -12L606 -71L618 -94Q619 -97 622 -97Q627 -97 627 -92Q627 -90 626 -89L614 -66Q614 -65 614 -65L569 -5Q568 -4 566 -3Q564 -2 560 -0.5Q556 1 552 2Q548 3 544 3Q486 3 486 -130Q486 -144 487 -170.5Q488 -197 488 -209Q488 -217 487.5 -231Q487 -245 487 -251Q487 -276 486.5 -290.5Q486 -305 482.5 -327Q479 -349 473 -362Q467 -375 455 -388Q443 -401 426 -408Q411 -407 391 -390Q375 -376 347 -341Q334 -325 321.5 -288.5Q309 -252 303 -240Q302 -236 296 -222Q290 -208 290 -200Q290 -196 291 -192Q291 -192 291 -191.5Q291 -191 291 -190L273 -97L264 4Q264 9 259 9Q254 9 254 4L248 -104L239 -181Q239 -182 239 -182V-203L228 -286Q155 -132 27 -87Q26 -87 25 -87Q20 -87 20 -92Q20 -95 23 -96Q153 -142 226 -304Q222 -331 219 -362.5Q216 -394 212 -431.5Q208 -469 206 -490L188 -640Q188 -641 188 -641L182 -758Q182 -758 182 -758L188 -821Q188 -822 189 -823Q193 -832 196 -832Q208 -832 216.5 -822.5Q225 -813 228 -805.5Q231 -798 235 -783Q239 -766 242 -761Q243 -760 243 -759Q259 -649 270 -585Q270 -584 270 -584L273 -413Q273 -412 273 -412Q258 -354 236 -303L249 -204Q249 -203 249 -203V-182L258 -105V-104L260 -66L263 -98Q263 -99 263 -99L281 -191Q280 -195 280 -200Q280 -210 286 -224Q292 -238 293 -243Q293 -244 294 -244Q300 -257 312.5 -293.5Q325 -330 339 -347Q368 -383 384 -397Q408 -418 427 -418Q428 -418 429 -418Q448 -410 461.5 -395.5Q475 -381 482 -367Q489 -353 492.5 -328.5Q496 -304 496.5 -291Q497 -278 497 -251Q497 -245 497.5 -231Q498 -217 498 -209Q498 -197 497 -170.5Q496 -144 496 -130Z"/>
</svg>