<svg xmlns="http://www.w3.org/2000/svg" viewBox="0 -1024 1024 1024">
	<path fill="#000088" d="M61 -566Q61 -576 68.5 -583.5Q76 -591 86 -591Q92 -591 97 -588Q105 -593 114 -593Q126 -593 134.5 -585Q143 -577 143 -565Q143 -556 138 -549Q139 -548 141.5 -545.5Q144 -543 145 -542Q143 -531 142 -530L107 -495Q106 -495 106 -495L96 -497Q80 -500 70 -509Q60 -518 60 -528Q60 -530 61 -532Q63 -543 68 -549Q61 -556 61 -566ZM-46 -61Q-61 -61 -71 -71Q-81 -81 -81 -96Q-81 -111 -71 -121Q-61 -131 -46 -131H-42Q-10 -134 15 -150Q20 -157 24 -165L23 -172L19 -248L23 -342L31 -396Q31 -397 35 -402Q35 -403 36.5 -407Q38 -411 39 -412L75 -448Q78 -451 90 -451Q94 -451 97 -448L133 -413Q140 -406 140 -381Q140 -374 139 -364Q129 -226 95 -165L107 -104Q111 -83 125 -63Q156 -40 182 -38Q190 -55 214 -116Q223 -137 245 -137Q258 -137 268 -127.5Q278 -118 278 -104Q278 -98 275 -92Q266 -67 245 -22Q242 -15 216 8L198 26Q191 33 186 33Q172 33 152 23Q132 13 118 1Q111 -5 106 -10L70 -46Q44 -72 38 -99L33 -95Q3 -64 -42 -61Z"/>
	<path fill="#800080" d="M111 -566Q111 -576 118.5 -583.5Q126 -591 136 -591Q142 -591 147 -588Q155 -593 164 -593Q176 -593 184.5 -585Q193 -577 193 -565Q193 -556 188 -549L195 -542Q193 -531 192 -530L157 -495Q156 -495 156 -495L146 -497Q130 -500 120 -509Q110 -518 110 -528Q110 -530 111 -532Q113 -543 118 -549Q111 -556 111 -566ZM4 -61Q-11 -61 -21 -71Q-31 -81 -31 -96Q-31 -111 -21 -121Q-11 -131 4 -131H8Q40 -134 65 -150Q70 -157 74 -165L73 -172L69 -248L73 -342L81 -396Q81 -397 85 -402Q85 -403 86.5 -407Q88 -411 89 -412L125 -448Q128 -451 140 -451Q144 -451 147 -448L183 -413Q190 -406 190 -381Q190 -374 189 -364Q179 -226 145 -165L157 -104Q161 -83 175 -63Q206 -40 232 -38Q240 -55 264 -116Q273 -137 295 -137Q308 -137 318 -127.5Q328 -118 328 -104Q328 -98 325 -92Q316 -67 295 -22Q292 -15 266 8L248 26Q241 33 236 33Q222 33 202 23Q182 13 168 1Q161 -5 156 -10L120 -46Q94 -72 88 -99L83 -95Q53 -64 8 -61Z"/>
	<path fill="#daa520" d="M173 -553Q174 -553 174 -553Q174 -553 175 -553Q177 -553 179 -552L185 -546Q186 -544 186 -542Q186 -538 184 -532Q182 -525 177 -525Q175 -525 166 -527Q162 -528 162 -532Q162 -533 162 -533Q165 -545 169 -551Q170 -553 173 -553ZM173 -536Q174 -536 175 -535Q175 -537 176 -540L175 -541Q174 -539 173 -536ZM25 -91Q20 -91 20 -96Q20 -101 25 -101H29Q91 -105 125 -166Q124 -171 124 -172L120 -248L124 -342Q124 -342 124 -343L132 -397Q132 -399 134 -400Q137 -402 138.5 -408.5Q140 -415 145 -418Q150 -421 161 -421Q181 -421 181 -381Q181 -373 180 -364Q169 -226 136 -164L148 -105Q153 -72 192 -38Q205 -27 224.5 -17Q244 -7 257 -7Q260 -7 271 -18Q275 -23 277 -25Q297 -69 306 -94Q308 -97 311 -97Q316 -97 316 -92Q316 -91 316 -90Q304 -60 304 -60L286 -20Q285 -19 284 -18Q282 -17 278 -12Q265 3 257 3Q241 3 220.5 -7.5Q200 -18 186 -30Q144 -67 138 -103L128 -151Q92 -95 29 -91ZM161 -411Q153 -411 150 -409Q149 -409 148 -405Q146 -398 142 -394L134 -342L130 -248L133 -183Q160 -242 170 -364Q171 -374 171 -381Q171 -411 161 -411Z"/>
</svg>