<svg xmlns="http://www.w3.org/2000/svg" viewBox="0 -1024 1024 1024">
	<path fill="#000088" d="M61 -566Q61 -576 68.5 -583.5Q76 -591 86 -591Q92 -591 97 -588Q105 -593 114 -593Q126 -593 134.5 -585Q143 -577 143 -565Q143 -556 138 -549Q139 -548 141.5 -545.5Q144 -543 145 -542Q143 -531 142 -530L107 -495Q106 -495 106 -495L96 -497Q80 -500 70 -509Q60 -518 60 -528Q60 -530 61 -532Q63 -543 68 -549Q61 -556 61 -566ZM-46 -61Q-61 -61 -71 -71Q-81 -81 -81 -96Q-81 -111 -71 -121Q-61 -131 -46 -131H-42Q-10 -134 15 -150Q20 -157 24 -165L23 -172L19 -248L23 -342L31 -396Q31 -397 35 -402Q35 -403 36.5 -407Q38 -411 39 -412L75 -448Q78 -451 90 -451Q94 -451 97 -448L133 -413Q140 -406 140 -381Q140 -374 139 -364Q129 -226 95 -165L107 -104Q111 -83 125 -63Q156 -40 182 -38Q190 -55 214 -116Q223 -137 245 -137Q258 -137 268 -127.5Q278 -118 278 -104Q278 -98 275 -92Q266 -67 245 -22Q242 -15 216 8L198 26Q191 33 186 33Q172 33 152 23Q132 13 118 1Q111 -5 106 -10L70 -46Q44 -72 38 -99L33 -95Q3 -64 -42 -61Z"/>
	<path fill="#800080" d="M111 -566Q111 -576 118.5 -583.5Q126 -591 136 -591Q142 -591 147 -588Q155 -593 164 -593Q176 -593 184.5 -585Q193 -577 193 -565Q193 -556 188 -549Q189 -548 191.5 -545.5Q194 -543 195 -542Q193 -531 192 -530L157 -495Q156 -495 156 -495L146 -497Q130 -500 120 -509Q110 -518 110 -528Q110 -530 111 -532Q113 -543 118 -549Q111 -556 111 -566ZM4 -61Q-11 -61 -21 -71Q-31 -81 -31 -96Q-31 -111 -21 -121Q-11 -131 4 -131H8Q40 -134 65 -150Q70 -157 74 -165L73 -172L69 -248L73 -342L81 -396Q81 -397 85 -402Q85 -403 86.5 -407Q88 -411 89 -412L125 -448Q128 -451 140 -451Q144 -451 147 -448L183 -413Q190 -406 190 -381Q190 -374 189 -364Q179 -226 145 -165L157 -104Q161 -83 175 -63Q206 -40 232 -38Q240 -55 264 -116Q273 -137 295 -137Q308 -137 318 -127.5Q328 -118 328 -104Q328 -98 325 -92Q316 -67 295 -22Q292 -15 266 8L248 26Q241 33 236 33Q222 33 202 23Q182 13 168 1Q161 -5 156 -10L120 -46Q94 -72 88 -99L83 -95Q53 -64 8 -61Z"/>
	<path fill="#daa520" d="M153 -553Q154 -553 154 -553Q154 -553 155 -553Q157 -553 159 -552L165 -546Q166 -544 166 -542Q166 -538 164 -532Q162 -525 157 -525Q155 -525 146 -527Q142 -528 142 -532Q142 -533 142 -533Q145 -545 149 -551Q150 -553 153 -553ZM153 -536Q154 -536 155 -535Q155 -537 156 -540L155 -541Q154 -539 153 -536ZM5 -91Q0 -91 0 -96Q0 -101 5 -101H9Q71 -105 105 -166Q104 -171 104 -172L100 -248L104 -342Q104 -342 104 -343L112 -397Q112 -399 114 -400Q117 -402 118.5 -408.5Q120 -415 125 -418Q130 -421 141 -421Q161 -421 161 -381Q161 -373 160 -364Q149 -226 116 -164L128 -105Q133 -72 172 -38Q185 -27 204.5 -17Q224 -7 237 -7Q240 -7 251 -18Q255 -23 257 -25Q277 -69 286 -94Q288 -97 291 -97Q296 -97 296 -92Q296 -91 296 -90Q284 -60 284 -60L266 -20Q265 -19 264 -18Q262 -17 258 -12Q245 3 237 3Q221 3 200.5 -7.5Q180 -18 166 -30Q124 -67 118 -103L108 -151Q72 -95 9 -91ZM141 -411Q133 -411 130 -409Q129 -409 128 -405Q126 -398 122 -394L114 -342L110 -248L113 -183Q140 -242 150 -364Q151 -374 151 -381Q151 -411 141 -411Z"/>
</svg>