<svg xmlns="http://www.w3.org/2000/svg" viewBox="0 -1024 1024 1024">
	<path fill="#000088" d="M112 -559Q125 -559 134.5 -549.5Q144 -540 144 -527Q144 -518 139 -510L143 -504V-500Q143 -498 141 -496L106 -461Q104 -459 102 -459Q95 -459 91 -463L56 -498Q55 -499 55 -500Q56 -502 56.5 -508.5Q57 -515 60 -518L62 -520Q60 -526 60 -532Q60 -544 68.5 -553Q77 -562 89 -562Q97 -562 104 -558Q108 -559 112 -559ZM135 -361Q135 -356 135.5 -348Q136 -340 136 -335Q136 -272 115 -219Q119 -190 140 -81Q141 -84 141 -86V-100Q141 -112 148 -121Q157 -131 172 -131Q187 -131 199 -121Q208 -112 213 -92Q214 -88 214 -84Q214 -63 197 -54Q194 -48 193 -48Q185 -33 154 8Q165 99 165 154Q165 165 161 185.5Q157 206 149 213L114 248Q111 251 108 251Q85 248 72 235L36 200Q26 189 26 176Q26 169 29 162Q28 157 28 153Q28 124 41 88Q48 54 83 8Q79 -30 58 -136L32 -110Q-1 -77 -48 -63Q-53 -61 -58 -61Q-72 -61 -82 -71Q-92 -81 -92 -95Q-92 -106 -85 -115Q-78 -124 -68 -127L-48 -133Q-14 -144 13 -165Q32 -189 44 -219Q39 -260 39 -294Q39 -315 41 -334Q41 -339 41 -344Q41 -350 40.5 -361Q40 -372 40 -377Q40 -399 51 -411L87 -446Q88 -448 90 -449Q93 -449 100 -443L135 -408Q137 -405 137 -404Q137 -397 136 -382.5Q135 -368 135 -361Z"/>
	<path fill="#800080" d="M162 -559Q175 -559 184.5 -549.5Q194 -540 194 -527Q194 -518 189 -510L193 -504V-500Q193 -498 191 -496L156 -461Q154 -459 152 -459Q145 -459 141 -463L106 -498Q105 -499 105 -500Q106 -502 106.5 -508.5Q107 -515 110 -518L112 -520Q110 -526 110 -532Q110 -544 118.5 -553Q127 -562 139 -562Q147 -562 154 -558Q158 -559 162 -559ZM185 -361Q185 -356 185.5 -348Q186 -340 186 -335Q186 -272 165 -219Q169 -190 190 -81Q191 -84 191 -86V-100Q191 -112 198 -121Q207 -131 222 -131Q237 -131 249 -121Q258 -112 263 -92Q264 -88 264 -84Q264 -63 247 -54Q244 -48 243 -48Q235 -33 204 8Q215 99 215 154Q215 165 211 185.5Q207 206 199 213L164 248Q161 251 158 251Q135 248 122 235L86 200Q76 189 76 176Q76 169 79 162Q78 157 78 153Q78 124 91 88Q98 54 133 8Q129 -30 108 -136L82 -110Q49 -77 2 -63Q-3 -61 -8 -61Q-22 -61 -32 -71Q-42 -81 -42 -95Q-42 -106 -35 -115Q-28 -124 -18 -127L2 -133Q36 -144 63 -165Q82 -189 94 -219Q89 -260 89 -294Q89 -315 91 -334Q91 -339 91 -344Q91 -350 90.5 -361Q90 -372 90 -377Q90 -399 101 -411L137 -446Q138 -448 140 -449Q143 -449 150 -443L185 -408Q187 -405 187 -404Q187 -397 186 -382.5Q185 -368 185 -361Z"/>
	<path fill="#daa520" d="M151 -525Q156 -525 156 -520Q158 -518 161 -513Q164 -508 165 -507Q166 -506 166 -504V-500Q166 -489 155 -489Q149 -489 143 -493Q138 -496 138 -500Q138 -501 139 -502Q139 -504 140 -508Q141 -521 149 -524Q150 -525 151 -525ZM149 -501Q152 -500 155 -499Q155 -499 156 -500V-502L150 -511Q150 -510 149.5 -506.5Q149 -503 149 -501ZM150 -403Q148 -405 144 -408Q133 -398 133 -377Q133 -372 134 -361Q135 -350 135 -344Q132 -302 132 -294Q132 -269 135 -241Q148 -285 148 -335Q148 -340 148 -348Q148 -356 148 -361Q148 -368 149 -382Q150 -396 150 -403ZM130 -201Q90 -119 6 -93Q6 -93 5 -93Q0 -93 0 -98Q0 -102 4 -103Q91 -130 127 -220Q122 -260 122 -294Q122 -315 124 -334Q125 -340 125 -344Q125 -350 124 -361Q123 -372 123 -377Q123 -404 140 -418Q141 -419 143 -419Q145 -419 148 -417Q151 -416 154 -413Q160 -408 160 -404Q160 -397 159 -382.5Q158 -368 158 -361Q158 -356 158 -348Q158 -340 158 -335Q158 -271 138 -218Q142 -182 156 -111.5Q170 -41 175 -5Q198 -34 207 -50Q224 -81 224 -86V-100Q224 -105 229 -105Q233 -105 234 -101Q236 -93 236 -92Q236 -90 234 -88V-86Q234 -78 215 -46Q207 -30 177 9Q188 99 188 154Q188 172 181 195Q174 221 161 221Q161 221 160 221Q139 218 124 206Q109 194 109 176Q109 169 112 161Q112 157 112 153Q112 123 124 87Q132 52 166 6Q162 -32 148 -101.5Q134 -171 130 -201ZM122 162Q122 163 122 164Q119 170 119 176Q119 189 131 198.5Q143 208 161 211Q167 210 172 192Q178 170 178 154Q178 102 168 20Q141 58 134 89Q134 89 134 90Q122 125 122 153Q122 154 122 157Q122 160 122 162Z"/>
</svg>