<svg xmlns="http://www.w3.org/2000/svg" viewBox="0 -1024 1024 1024">
	<path fill="#000088" d="M112 -559Q125 -559 134.5 -549.5Q144 -540 144 -527Q144 -518 139 -510L143 -504V-500Q143 -498 141 -496L106 -461Q104 -459 102 -459Q95 -459 91 -463L56 -498Q55 -499 55 -500Q56 -502 56.5 -508.5Q57 -515 60 -518L62 -520Q60 -526 60 -532Q60 -544 68.5 -553Q77 -562 89 -562Q97 -562 104 -558Q108 -559 112 -559ZM135 -361Q135 -356 135.5 -348Q136 -340 136 -335Q136 -272 115 -219Q119 -190 140 -81Q141 -84 141 -86V-100Q141 -112 148 -121Q157 -131 172 -131Q187 -131 199 -121Q208 -112 213 -92Q214 -88 214 -84Q214 -63 197 -54Q194 -48 193 -48Q185 -33 154 8Q165 99 165 154Q165 165 161 185.5Q157 206 149 213L114 248Q111 251 108 251Q85 248 72 235L36 200Q26 189 26 176Q26 169 29 162Q28 157 28 153Q28 124 41 88Q48 54 83 8Q79 -30 58 -136L32 -110Q-1 -77 -48 -63Q-53 -61 -58 -61Q-72 -61 -82 -71Q-92 -81 -92 -95Q-92 -106 -85 -115Q-78 -124 -68 -127L-48 -133Q-14 -144 13 -165Q32 -189 44 -219Q39 -260 39 -294Q39 -315 41 -334Q41 -339 41 -344Q41 -350 40.5 -361Q40 -372 40 -377Q40 -399 51 -411L87 -446Q88 -448 90 -449Q93 -449 100 -443L135 -408Q137 -405 137 -404Q137 -397 136 -382.5Q135 -368 135 -361Z"/>
	<path fill="#800080" d="M162 -559Q175 -559 184.5 -549.5Q194 -540 194 -527Q194 -518 189 -510L193 -504V-500Q193 -498 191 -496L156 -461Q154 -459 152 -459Q145 -459 141 -463L106 -498Q105 -499 105 -500Q106 -502 106.5 -508.5Q107 -515 110 -518L112 -520Q110 -526 110 -532Q110 -544 118.5 -553Q127 -562 139 -562Q147 -562 154 -558Q158 -559 162 -559ZM185 -361Q185 -356 185.5 -348Q186 -340 186 -335Q186 -272 165 -219Q169 -190 190 -81Q191 -84 191 -86V-100Q191 -112 198 -121Q207 -131 222 -131Q237 -131 249 -121Q258 -112 263 -92Q264 -88 264 -84Q264 -63 247 -54Q243 -48 243 -48Q235 -33 204 8Q215 99 215 154Q215 165 211 185.5Q207 206 199 213L164 248Q161 251 158 251Q135 248 122 235L86 200Q76 189 76 176Q76 169 79 162Q78 157 78 153Q78 124 91 88Q98 54 133 8Q129 -30 108 -136L82 -110Q49 -77 2 -63Q-3 -61 -8 -61Q-22 -61 -32 -71Q-42 -81 -42 -95Q-42 -106 -35 -115Q-28 -124 -18 -127L2 -133Q36 -144 63 -165Q82 -189 94 -219Q89 -260 89 -294Q89 -315 91 -334Q91 -339 91 -344Q91 -350 90.5 -361Q90 -372 90 -377Q90 -399 101 -411L137 -446Q138 -448 140 -449Q143 -449 150 -443L185 -408Q187 -405 187 -404Q187 -397 186 -382.5Q185 -368 185 -361Z"/>
	<path fill="#daa520" d="M171 -525Q176 -525 176 -520Q178 -518 181 -513Q184 -508 185 -507Q186 -506 186 -504V-500Q186 -489 175 -489Q169 -489 163 -493Q158 -496 158 -500Q158 -501 159 -502Q159 -504 160 -508Q161 -521 169 -524Q170 -525 171 -525ZM169 -501Q172 -500 175 -499Q175 -499 176 -500V-502L170 -511Q170 -510 169.5 -506.5Q169 -503 169 -501ZM170 -403Q168 -405 164 -408Q153 -398 153 -377Q153 -372 154 -361Q155 -350 155 -344Q152 -302 152 -294Q152 -269 155 -241Q168 -285 168 -335Q168 -340 168 -348Q168 -356 168 -361Q168 -368 169 -382Q170 -396 170 -403ZM150 -201Q110 -119 26 -93Q26 -93 25 -93Q20 -93 20 -98Q20 -102 24 -103Q111 -130 147 -220Q142 -260 142 -294Q142 -315 144 -334Q145 -340 145 -344Q145 -350 144 -361Q143 -372 143 -377Q143 -404 160 -418Q161 -419 163 -419Q165 -419 168 -417Q171 -416 174 -413Q180 -408 180 -404Q180 -397 179 -382.5Q178 -368 178 -361Q178 -356 178 -348Q178 -340 178 -335Q178 -271 158 -218Q162 -182 176 -111.5Q190 -41 195 -5Q218 -34 227 -50Q244 -81 244 -86V-100Q244 -105 249 -105Q253 -105 254 -101Q256 -93 256 -92Q256 -90 254 -88V-86Q254 -78 235 -46Q227 -30 197 9Q208 99 208 154Q208 172 201 195Q194 221 181 221Q181 221 180 221Q159 218 144 206Q129 194 129 176Q129 169 132 161Q132 157 132 153Q132 123 144 87Q152 52 186 6Q182 -32 168 -101.5Q154 -171 150 -201ZM142 162Q142 163 142 164Q139 170 139 176Q139 189 151 198.5Q163 208 181 211Q187 210 192 192Q198 170 198 154Q198 102 188 20Q161 58 154 89Q154 89 154 90Q142 125 142 153Q142 154 142 157Q142 160 142 162Z"/>
</svg>