<svg xmlns="http://www.w3.org/2000/svg" viewBox="0 -1024 1024 1024">
	<path fill="#000088" d="M91 -471Q89 -479 83.5 -508.5Q78 -538 75.5 -552Q73 -566 69 -590Q65 -614 63.5 -633Q62 -652 62 -670Q62 -728 83 -764L118 -824Q120 -828 122 -831Q123 -831 123 -831L175 -801Q183 -797 183 -735Q183 -723 182.5 -707.5Q182 -692 182 -686V-685Q184 -652 184 -619Q184 -560 178 -502Q192 -428 192 -389Q192 -383 192 -376Q215 -406 244.5 -426.5Q274 -447 300 -447Q312 -444 322 -438L374 -408Q423 -380 423 -303Q423 -294 422 -285Q423 -277 423 -270Q423 -241 409 -217L374 -156Q361 -133 338.5 -119.5Q316 -106 289 -106Q279 -106 269 -108Q280 -85 284 -79Q290 -64 299 -53Q322 -47 352 -47Q377 -47 395 -72L429 -140L486 -111L472 -84Q452 -44 437 -23Q433 -17 424.5 -2.5Q416 12 410.5 20.5Q405 29 394 36Q383 43 369 43Q317 43 287 26L235 -4Q218 -14 207 -30Q206 -18 205 -16L170 45L118 15Q114 13 114 -45Q114 -88 117 -139Q116 -154 116 -169Q113 -175 113 -181Q113 -188 114 -194Q113 -208 112 -223Q90 -165 62 -109L64 -102L-23 -73L-25 -79Q69 -265 91 -471ZM336 -272Q336 -325 311 -356Q264 -352 218 -296Q215 -287 214 -279Q210 -247 208 -215L215 -211Q218 -209 224 -199Q230 -199 236 -199Q243 -199 250 -199Q261 -197 272 -197Q307 -197 334 -219Q336 -229 336 -239Q336 -247 335 -255Q336 -263 336 -272Z"/>
	<path fill="#800080" d="M156 -720Q156 -708 155.5 -692.5Q155 -677 155 -670Q157 -637 157 -604Q157 -545 151 -487Q165 -412 165 -374Q165 -364 166 -353Q168 -355 205 -392Q250 -437 290 -437Q313 -431 329 -415L365 -380Q396 -348 396 -287Q396 -279 395 -270Q396 -262 396 -254Q396 -210 366 -180L331 -145Q302 -116 262 -116Q251 -116 240 -119Q235 -118 230 -118Q252 -71 257 -64Q259 -59 262 -54Q292 -37 342 -37Q350 -37 358 -40Q372 -64 375 -68L403 -124Q412 -142 431 -142Q444 -142 453.5 -132.5Q463 -123 463 -110Q463 -103 459 -96L445 -68Q442 -63 430.5 -43.5Q419 -24 411 -16L376 19Q362 33 342 33Q273 33 241 2L206 -34Q193 -46 187 -64Q185 -67 181 -74Q181 -57 181 -43Q181 -3 179 0L143 35Q143 35 143 35L107 0Q104 -4 104 -60Q104 -103 107 -155Q106 -169 105 -184Q103 -190 103 -196Q103 -201 104 -205Q102 -228 101 -251Q74 -170 35 -94Q39 -83 39 -77Q39 -64 29 -54Q19 -44 6 -44Q-19 -44 -26 -67L-35 -94Q59 -280 81 -487Q79 -494 73 -524Q67 -554 65 -567.5Q63 -581 59 -605Q55 -629 53.5 -648Q52 -667 52 -685Q52 -749 77 -786Q101 -821 112 -821Q113 -821 114 -820L149 -785Q156 -778 156 -720ZM325 -287Q325 -330 309 -359Q300 -364 290 -367Q259 -367 223 -338Q191 -298 187 -264Q184 -233 181 -203Q191 -193 193 -192Q209 -189 226 -189Q233 -189 240 -189Q251 -187 262 -187Q289 -187 311 -200Q326 -225 326 -254Q326 -262 325 -270Q325 -279 325 -287Z"/>
	<path fill="#daa520" d="M137 -777Q117 -742 117 -685Q117 -634 139 -522Q142 -563 142 -604Q142 -637 140 -670Q140 -677 140.5 -692.5Q141 -708 141 -720Q141 -761 137 -777ZM107 -685Q107 -751 133 -789Q134 -791 137 -791Q142 -791 145 -784Q147 -779 149 -769Q151 -752 151 -720Q151 -708 150.5 -692.5Q150 -677 150 -670Q152 -637 152 -604Q152 -545 146 -487Q160 -413 160 -374Q160 -341 168 -226Q170 -245 172 -265Q177 -310 224 -358.5Q271 -407 315 -407Q316 -407 316 -407Q355 -396 373 -363Q391 -330 391 -287Q391 -279 390 -270Q391 -262 391 -254Q391 -210 361 -178.5Q331 -147 287 -147Q276 -147 265 -149Q258 -148 251 -148Q251 -148 247.5 -148.5Q244 -149 239.5 -149Q235 -149 229.5 -149.5Q224 -150 218.5 -151Q213 -152 209 -153Q249 -69 251 -67Q251 -66 252 -66Q274 -7 367 -7Q379 -7 389 -14Q399 -21 404.5 -28Q410 -35 418 -50Q426 -64 431 -71L445 -98Q446 -101 449 -101Q454 -101 454 -96Q454 -95 453 -94L439 -66Q439 -65 439 -65Q435 -59 426.5 -44Q418 -29 412 -20.5Q406 -12 394 -4.5Q382 3 367 3Q268 3 243 -62Q237 -69 215 -116Q204 -141 196 -156Q182 -161 173 -168Q173 -161 172 -155Q176 -87 176 -43Q176 -20 175 -8Q174 5 168 5Q163 5 162 -1Q161 -5 161 -12Q159 -30 159 -60Q159 -103 162 -155Q161 -169 161 -183Q158 -189 158 -196Q158 -198 160 -200Q150 -351 150 -374Q150 -405 142 -453Q117 -265 30 -94Q32 -89 32 -88Q32 -83 27 -83Q23 -83 22 -86Q20 -93 20 -94Q20 -95 21 -96Q114 -282 136 -486Q134 -494 128.5 -523.5Q123 -553 120.5 -567Q118 -581 114 -605Q110 -629 108.5 -648Q107 -667 107 -685ZM265 -159Q266 -159 266 -159Q277 -157 287 -157Q326 -157 353.5 -185.5Q381 -214 381 -254Q381 -262 380 -269Q380 -270 380 -270Q380 -273 380.5 -278.5Q381 -284 381 -287Q381 -378 314 -397Q275 -397 231 -350.5Q187 -304 182 -263Q178 -232 176 -201H177Q181 -201 186 -195Q192 -187 203 -165Q225 -158 251 -158Q253 -158 258 -158.5Q263 -159 265 -159ZM189 -170Q180 -188 176 -191H175Q174 -186 174 -181Q179 -175 189 -170Z"/>
</svg>