<svg xmlns="http://www.w3.org/2000/svg" viewBox="0 -1024 1024 1024">
	<path fill="#000088" d="M106 -720Q106 -708 105.5 -692.5Q105 -677 105 -670Q107 -637 107 -604Q107 -545 101 -487Q115 -412 115 -374Q115 -364 116 -353Q118 -355 155 -392Q200 -437 240 -437Q263 -431 279 -415L315 -380Q346 -348 346 -287Q346 -279 345 -270Q346 -262 346 -254Q346 -210 316 -180L281 -145Q252 -116 212 -116Q201 -116 190 -119Q185 -118 180 -118Q202 -71 207 -64Q209 -59 212 -54Q242 -37 292 -37Q300 -37 308 -40Q322 -64 325 -68Q329 -77 338.5 -96Q348 -115 353 -124Q362 -142 381 -142Q394 -142 403.5 -132.5Q413 -123 413 -110Q413 -103 409 -96L395 -68Q392 -63 380.5 -43.5Q369 -24 361 -16L326 19Q312 33 292 33Q223 33 191 2L156 -34Q143 -46 137 -64Q135 -67 131 -74Q131 -57 131 -43Q131 -3 129 0L93 35Q93 35 93 35L57 0Q54 -4 54 -60Q54 -103 57 -155Q56 -169 55 -184Q53 -190 53 -196Q53 -201 54 -205Q52 -228 51 -251Q24 -170 -15 -94Q-11 -83 -11 -77Q-11 -64 -21 -54Q-31 -44 -44 -44Q-69 -44 -76 -67Q-77 -70 -80.5 -79.5Q-84 -89 -85 -94Q9 -280 31 -487Q29 -494 23 -524Q17 -554 15 -567.5Q13 -581 9 -605Q5 -629 3.5 -648Q2 -667 2 -685Q2 -749 27 -786Q51 -821 62 -821Q63 -821 64 -820L99 -785Q106 -778 106 -720ZM275 -287Q275 -330 259 -359Q250 -364 240 -367Q209 -367 173 -338Q141 -298 137 -264Q134 -233 131 -203Q141 -193 143 -192Q159 -189 176 -189Q183 -189 190 -189Q201 -187 212 -187Q239 -187 261 -200Q276 -225 276 -254Q276 -262 275 -270Q275 -279 275 -287Z"/>
	<path fill="#800080" d="M156 -720Q156 -708 155.5 -692.5Q155 -677 155 -670Q157 -637 157 -604Q157 -545 151 -487Q165 -412 165 -374Q165 -364 166 -353Q168 -355 205 -392Q250 -437 290 -437Q313 -431 329 -415L365 -380Q396 -348 396 -287Q396 -279 395 -270Q396 -262 396 -254Q396 -210 366 -180L331 -145Q302 -116 262 -116Q251 -116 240 -119Q235 -118 230 -118Q252 -71 257 -64Q259 -59 262 -54Q292 -37 342 -37Q350 -37 358 -40Q372 -64 375 -68Q379 -77 388.5 -96Q398 -115 403 -124Q412 -142 431 -142Q444 -142 453.5 -132.5Q463 -123 463 -110Q463 -103 459 -96L445 -68Q442 -63 430.5 -43.5Q419 -24 411 -16L376 19Q362 33 342 33Q273 33 241 2L206 -34Q193 -46 187 -64Q185 -67 181 -74Q181 -57 181 -43Q181 -3 179 0L143 35Q143 35 143 35L107 0Q104 -4 104 -60Q104 -103 107 -155Q106 -169 105 -184Q103 -190 103 -196Q103 -201 104 -205Q102 -228 101 -251Q74 -170 35 -94Q39 -83 39 -77Q39 -64 29 -54Q19 -44 6 -44Q-19 -44 -26 -67Q-27 -70 -30.5 -79.5Q-34 -89 -35 -94Q59 -280 81 -487Q79 -494 73 -524Q67 -554 65 -567.5Q63 -581 59 -605Q55 -629 53.5 -648Q52 -667 52 -685Q52 -749 77 -786Q101 -821 112 -821Q113 -821 114 -820L149 -785Q156 -778 156 -720ZM325 -287Q325 -330 309 -359Q300 -364 290 -367Q259 -367 223 -338Q191 -298 187 -264Q184 -233 181 -203Q191 -193 193 -192Q209 -189 226 -189Q233 -189 240 -189Q251 -187 262 -187Q289 -187 311 -200Q326 -225 326 -254Q326 -262 325 -270Q325 -279 325 -287Z"/>
	<path fill="#daa520" d="M117 -777Q97 -742 97 -685Q97 -634 119 -522Q122 -563 122 -604Q122 -637 120 -670Q120 -677 120.5 -692.5Q121 -708 121 -720Q121 -761 117 -777ZM87 -685Q87 -751 113 -789Q114 -791 117 -791Q122 -791 125 -784Q127 -779 129 -769Q131 -752 131 -720Q131 -708 130.5 -692.5Q130 -677 130 -670Q132 -637 132 -604Q132 -545 126 -487Q140 -413 140 -374Q140 -341 148 -226Q150 -245 152 -265Q157 -310 204 -358.5Q251 -407 295 -407Q296 -407 296 -407Q335 -396 353 -363Q371 -330 371 -287Q371 -279 370 -270Q371 -262 371 -254Q371 -210 341 -178.5Q311 -147 267 -147Q256 -147 245 -149Q238 -148 231 -148Q231 -148 227.5 -148.5Q224 -149 219.5 -149Q215 -149 209.5 -149.5Q204 -150 198.5 -151Q193 -152 189 -153Q229 -69 231 -67Q231 -66 232 -66Q254 -7 347 -7Q359 -7 369 -14Q379 -21 384.5 -28Q390 -35 398 -50Q406 -64 411 -71L425 -98Q426 -101 429 -101Q434 -101 434 -96Q434 -95 433 -94L419 -66Q419 -65 419 -65Q415 -59 406.5 -44Q398 -29 392 -20.5Q386 -12 374 -4.5Q362 3 347 3Q248 3 223 -62Q217 -69 195 -116Q184 -141 176 -156Q162 -161 153 -168Q153 -161 152 -155Q156 -87 156 -43Q156 -20 155 -8Q154 5 148 5Q143 5 142 -1Q141 -5 141 -12Q139 -30 139 -60Q139 -103 142 -155Q141 -169 141 -183Q138 -189 138 -196Q138 -198 140 -200Q130 -351 130 -374Q130 -405 122 -453Q97 -265 10 -94Q12 -89 12 -88Q12 -83 7 -83Q3 -83 2 -86Q0 -93 0 -94Q0 -95 1 -96Q94 -282 116 -486Q114 -494 108.5 -523.5Q103 -553 100.5 -567Q98 -581 94 -605Q90 -629 88.5 -648Q87 -667 87 -685ZM245 -159Q246 -159 246 -159Q257 -157 267 -157Q306 -157 333.5 -185.5Q361 -214 361 -254Q361 -262 360 -269Q360 -270 360 -270Q360 -273 360.5 -278.5Q361 -284 361 -287Q361 -378 294 -397Q255 -397 211 -350.5Q167 -304 162 -263Q158 -232 156 -201H157Q161 -201 166 -195Q172 -187 183 -165Q205 -158 231 -158Q233 -158 238 -158.5Q243 -159 245 -159ZM169 -170Q160 -188 156 -191H155Q154 -186 154 -181Q159 -175 169 -170Z"/>
</svg>