<svg xmlns="http://www.w3.org/2000/svg" viewBox="0 -1024 1024 1024">
	<path fill="#000088" d="M264 -722Q264 -709 263.5 -687Q263 -665 263 -655Q263 -653 263 -651Q265 -620 265 -589Q265 -390 192 -257Q213 -104 240 -42Q250 -48 259 -60Q266 -75 295 -135L354 -107Q331 -59 329 -55L294 6Q265 54 237 54Q233 54 229 52L177 22Q146 4 119 -139Q93 -106 62 -80V-78H59Q44 -65 27 -54L41 -78H-25V-84Q-25 -121 10 -144Q64 -180 104 -232Q91 -334 91 -421Q91 -545 113 -696Q113 -699 114.5 -711.5Q116 -724 117 -728.5Q118 -733 119.5 -743.5Q121 -754 122.5 -760Q124 -766 126.5 -774Q129 -782 132 -789Q135 -796 138 -802L173 -863Q176 -867 178 -870Q183 -870 187 -868L239 -838Q264 -823 264 -722Z"/>
	<path fill="#800080" d="M100 -242Q85 -347 85 -437Q85 -561 108 -711Q108 -713 110 -728Q112 -743 112.5 -746.5Q113 -750 115 -762.5Q117 -775 118.5 -780.5Q120 -786 123 -795.5Q126 -805 129.5 -812Q133 -819 138 -825Q162 -860 173 -860Q181 -860 187 -854L222 -819Q243 -798 243 -707Q243 -693 242 -671.5Q241 -650 241 -640Q241 -637 241 -636Q243 -604 243 -574Q243 -374 171 -242Q192 -88 219 -27Q224 -27 230 -30Q237 -40 262 -92L275 -119Q284 -137 304 -137Q317 -137 326.5 -128Q336 -119 336 -105Q336 -99 327 -81Q303 -27 283 -7L248 28Q232 44 215 44Q208 44 201 37L165 2Q137 -26 113 -161Q107 -154 101 -148L65 -113Q53 -101 40 -90Q39 -76 29 -67Q19 -58 5 -58Q-10 -58 -20 -68Q-30 -78 -30 -93V-99Q-30 -111 5 -134Q27 -149 47 -166Q77 -200 100 -242ZM171 -640Q171 -644 171 -657Q156 -539 156 -437Q156 -420 157 -403Q172 -482 172 -574Q172 -604 171 -636Q171 -637 171 -640Z"/>
	<path fill="#daa520" d="M222 -707Q222 -693 221.5 -671.5Q221 -650 221 -640Q221 -637 221 -636Q223 -604 223 -574Q223 -386 158 -258Q146 -353 146 -437Q146 -560 168 -710Q168 -713 169.5 -724.5Q171 -736 171.5 -740Q172 -744 173.5 -754Q175 -764 176.5 -769Q178 -774 180 -782.5Q182 -791 184 -796Q186 -801 189 -807.5Q192 -814 195 -820Q208 -817 215 -792Q222 -763 222 -707ZM231 -640Q231 -650 231.5 -671.5Q232 -693 232 -707Q232 -765 224 -795Q215 -830 193 -830Q190 -830 189 -828Q184 -821 180.5 -813.5Q177 -806 174 -797Q171 -788 169 -781.5Q167 -775 165 -763.5Q163 -752 162.5 -747.5Q162 -743 160 -729Q158 -715 158 -712Q136 -561 136 -437Q136 -347 150 -243Q101 -156 22 -103Q20 -102 20 -99V-93Q20 -88 25 -88Q30 -88 30 -93V-96Q105 -146 152 -227Q174 -75 202 -18Q217 14 235 14Q259 14 281 -15Q288 -24 294.5 -34.5Q301 -45 304.5 -52.5Q308 -60 313.5 -72.5Q319 -85 322 -89Q322 -90 322 -92Q322 -97 317 -97Q314 -97 312 -94Q310 -89 304.5 -76.5Q299 -64 295.5 -57Q292 -50 286 -40Q280 -30 273 -21Q254 4 235 4Q223 4 211 -22Q183 -80 160 -241Q233 -374 233 -574Q233 -605 231 -636Q231 -638 231 -640Z"/>
</svg>