<svg xmlns="http://www.w3.org/2000/svg" viewBox="0 -1024 1024 1024">
	<path fill="#000088" d="M50 -242Q35 -347 35 -437Q35 -561 58 -711Q58 -713 60 -728Q62 -743 62.5 -746.5Q63 -750 65 -762.5Q67 -775 68.5 -780.5Q70 -786 73 -795.5Q76 -805 79.5 -812Q83 -819 88 -825Q112 -860 123 -860Q131 -860 137 -854L172 -819Q193 -798 193 -707Q193 -693 192 -671.5Q191 -650 191 -640Q191 -637 191 -636Q193 -604 193 -574Q193 -374 121 -242Q142 -88 169 -27Q174 -27 180 -30Q187 -40 212 -92L225 -119Q234 -137 254 -137Q267 -137 276.5 -128Q286 -119 286 -105Q286 -99 277 -81Q253 -27 233 -7L198 28Q182 44 165 44Q158 44 151 37L115 2Q87 -26 63 -161Q57 -154 51 -148L15 -113Q3 -101 -10 -90Q-11 -76 -21 -67Q-31 -58 -45 -58Q-60 -58 -70 -68Q-80 -78 -80 -93V-99Q-80 -111 -45 -134Q-23 -149 -3 -166Q27 -200 50 -242ZM121 -640Q121 -644 121 -657Q106 -539 106 -437Q106 -420 107 -403Q122 -482 122 -574Q122 -604 121 -636Q121 -637 121 -640Z"/>
	<path fill="#800080" d="M100 -242Q85 -347 85 -437Q85 -561 108 -711Q108 -713 110 -728Q112 -743 112.5 -746.5Q113 -750 115 -762.5Q117 -775 118.5 -780.5Q120 -786 123 -795.5Q126 -805 129.5 -812Q133 -819 138 -825Q162 -860 173 -860Q181 -860 187 -854L222 -819Q243 -798 243 -707Q243 -693 242 -671.5Q241 -650 241 -640Q241 -637 241 -636Q243 -604 243 -574Q243 -374 171 -242Q192 -88 219 -27Q224 -27 230 -30Q237 -40 262 -92L275 -119Q284 -137 304 -137Q317 -137 326.5 -128Q336 -119 336 -105Q336 -99 327 -81Q303 -27 283 -7L248 28Q232 44 215 44Q208 44 201 37L165 2Q137 -26 113 -161Q107 -154 101 -148L65 -113Q53 -101 40 -90Q39 -76 29 -67Q19 -58 5 -58Q-10 -58 -20 -68Q-30 -78 -30 -93V-99Q-30 -111 5 -134Q27 -149 47 -166Q77 -200 100 -242ZM171 -640Q171 -644 171 -657Q156 -539 156 -437Q156 -420 157 -403Q172 -482 172 -574Q172 -604 171 -636Q171 -637 171 -640Z"/>
	<path fill="#daa520" d="M202 -707Q202 -693 201.5 -671.5Q201 -650 201 -640Q201 -637 201 -636Q203 -604 203 -574Q203 -386 138 -258Q126 -353 126 -437Q126 -560 148 -710Q148 -713 149.5 -724.5Q151 -736 151.5 -740Q152 -744 153.5 -754Q155 -764 156.5 -769Q158 -774 160 -782.5Q162 -791 164 -796Q166 -801 169 -807.5Q172 -814 175 -820Q188 -817 195 -792Q202 -763 202 -707ZM211 -640Q211 -650 211.5 -671.5Q212 -693 212 -707Q212 -765 204 -795Q195 -830 173 -830Q170 -830 169 -828Q164 -821 160.5 -813.5Q157 -806 154 -797Q151 -788 149 -781.5Q147 -775 145 -763.5Q143 -752 142.5 -747.5Q142 -743 140 -729Q138 -715 138 -712Q116 -561 116 -437Q116 -347 130 -243Q81 -156 2 -103Q0 -102 0 -99V-93Q0 -88 5 -88Q10 -88 10 -93V-96Q85 -146 132 -227Q154 -75 182 -18Q197 14 215 14Q239 14 261 -15Q268 -24 274.5 -34.5Q281 -45 284.5 -52.5Q288 -60 293.5 -72.5Q299 -85 302 -89Q302 -90 302 -92Q302 -97 297 -97Q294 -97 292 -94Q290 -89 284.5 -76.5Q279 -64 275.5 -57Q272 -50 266 -40Q260 -30 253 -21Q234 4 215 4Q203 4 191 -22Q163 -80 140 -241Q213 -374 213 -574Q213 -605 211 -636Q211 -638 211 -640Z"/>
</svg>