<svg xmlns="http://www.w3.org/2000/svg" viewBox="0 -1024 1024 1024">
	<path fill="#000088" d="M50 -242Q35 -347 35 -437Q35 -561 58 -711Q58 -713 60 -728Q62 -743 62.5 -746.5Q63 -750 65 -762.5Q67 -775 68.5 -780.5Q70 -786 73 -795.5Q76 -805 79.5 -812Q83 -819 88 -825Q112 -860 123 -860Q131 -860 137 -854L172 -819Q193 -798 193 -707Q193 -693 192 -671.5Q191 -650 191 -640Q191 -637 191 -636Q193 -604 193 -574Q193 -374 121 -242Q142 -88 169 -27Q174 -27 180 -30Q187 -40 212 -92L225 -119Q234 -137 254 -137Q267 -137 276.5 -128Q286 -119 286 -105Q286 -99 277 -81Q253 -27 233 -7L198 28Q182 44 165 44Q158 44 151 37L115 2Q87 -26 63 -161Q57 -154 51 -148L15 -113Q3 -101 -10 -90Q-11 -76 -21 -67Q-31 -58 -45 -58Q-60 -58 -70 -68Q-80 -78 -80 -93V-99Q-80 -111 -45 -134Q-23 -149 -3 -166Q27 -200 50 -242ZM121 -640Q121 -644 121 -657Q106 -539 106 -437Q106 -420 107 -403Q122 -482 122 -574Q122 -604 121 -636Q121 -637 121 -640Z"/>
	<path fill="#800080" d="M100 -242Q85 -347 85 -437Q85 -561 108 -711Q108 -713 110 -728Q112 -743 112.5 -746.5Q113 -750 115 -762.5Q117 -775 118.5 -780.5Q120 -786 123 -795.5Q126 -805 129.5 -812Q133 -819 138 -825Q162 -860 173 -860Q181 -860 187 -854L222 -819Q243 -798 243 -707Q243 -693 242 -671.5Q241 -650 241 -640Q241 -637 241 -636Q243 -604 243 -574Q243 -374 171 -242Q192 -88 219 -27Q224 -27 230 -30Q237 -40 262 -92L275 -119Q284 -137 304 -137Q317 -137 326.5 -128Q336 -119 336 -105Q336 -99 327 -81Q303 -27 283 -7L248 28Q232 44 215 44Q208 44 201 37L165 2Q137 -26 113 -161Q107 -154 101 -148L65 -113Q53 -101 40 -90Q39 -76 29 -67Q19 -58 5 -58Q-10 -58 -20 -68Q-30 -78 -30 -93V-99Q-30 -111 5 -134Q27 -149 47 -166Q77 -200 100 -242ZM171 -640Q171 -644 171 -657Q156 -539 156 -437Q156 -420 157 -403Q172 -482 172 -574Q172 -604 171 -636Q171 -637 171 -640Z"/>
	<path fill="#daa520" d="M222 -707Q222 -693 221.5 -671.5Q221 -650 221 -640Q221 -637 221 -636Q223 -604 223 -574Q223 -386 158 -258Q146 -353 146 -437Q146 -560 168 -710Q168 -713 169.5 -724.5Q171 -736 171.5 -740Q172 -744 173.5 -754Q175 -764 176.5 -769Q178 -774 180 -782.5Q182 -791 184 -796Q186 -801 189 -807.5Q192 -814 195 -820Q208 -817 215 -792Q222 -763 222 -707ZM231 -640Q231 -650 231.5 -671.5Q232 -693 232 -707Q232 -765 224 -795Q215 -830 193 -830Q190 -830 189 -828Q184 -821 180.5 -813.5Q177 -806 174 -797Q171 -788 169 -781.5Q167 -775 165 -763.5Q163 -752 162.5 -747.5Q162 -743 160 -729Q158 -715 158 -712Q136 -561 136 -437Q136 -347 150 -243Q101 -156 22 -103Q20 -102 20 -99V-93Q20 -88 25 -88Q30 -88 30 -93V-96Q105 -146 152 -227Q174 -75 202 -18Q217 14 235 14Q259 14 281 -15Q288 -24 294.5 -34.5Q301 -45 304.5 -52.5Q308 -60 313.5 -72.5Q319 -85 322 -89Q322 -90 322 -92Q322 -97 317 -97Q314 -97 312 -94Q310 -89 304.5 -76.5Q299 -64 295.5 -57Q292 -50 286 -40Q280 -30 273 -21Q254 4 235 4Q223 4 211 -22Q183 -80 160 -241Q233 -374 233 -574Q233 -605 231 -636Q231 -638 231 -640Z"/>
</svg>