<svg xmlns="http://www.w3.org/2000/svg" viewBox="0 -1024 1024 1024">
	<path fill="#000088" d="M225 -171Q225 -164 225.5 -148.5Q226 -133 226 -123Q226 -24 203 -1L168 34Q161 41 152 41Q142 41 132.5 31.5Q123 22 117 6Q108 -17 107 -62Q106 -67 106 -72Q106 -95 117.5 -134Q129 -173 131 -192Q133 -200 139 -226.5Q145 -253 150 -267Q147 -290 141 -310Q140 -312 135 -332.5Q130 -353 125 -362Q123 -365 121 -369Q119 -369 118 -369H108Q107 -367 101.5 -356.5Q96 -346 93 -342Q29 -244 1 -140Q-2 -133 -11 -90V-86Q-11 -71 -21 -61Q-31 -51 -46 -51Q-61 -51 -71 -61Q-81 -71 -81 -86V-90Q-72 -133 -69 -140Q-42 -244 23 -342Q25 -345 31 -356Q47 -386 57 -396L92 -431Q100 -439 108 -439H118Q120 -439 123 -440Q126 -441 128 -441Q133 -439 138 -434L173 -399Q178 -394 195 -362Q199 -357 201 -349Q226 -384 233 -391L268 -426Q283 -441 298 -441Q310 -438 321 -427L356 -392Q358 -390 359 -388Q362 -392 365 -395L400 -430Q415 -445 440 -445Q447 -445 453 -439L488 -404Q497 -396 507 -368Q513 -354 515 -350Q521 -292 531 -86L533 -36Q534 -36 535 -36L545 -56Q548 -66 555.5 -87Q563 -108 566 -118Q574 -140 598 -140Q612 -140 621.5 -130.5Q631 -121 631 -107Q631 -101 629 -96L615 -56L593 -10Q586 7 558 25Q543 35 527 35Q512 35 504 28L469 -7Q464 -12 463 -22Q461 -76 451 -276L445 -350Q442 -353 434 -374Q425 -374 417 -371Q411 -363 399 -351Q398 -347 393 -331Q388 -315 385 -307Q385 -304 385 -302Q392 -283 392 -253Q392 -246 391.5 -232Q391 -218 391 -211Q391 -186 395.5 -170Q400 -154 400 -83Q400 -5 389 6L353 42Q352 43 350 43Q347 42 344 39L309 4Q306 1 302.5 -6Q299 -13 297 -16Q290 -24 283 -46L285 -176Q295 -227 314 -307Q314 -311 311.5 -321.5Q309 -332 309 -338Q308 -354 301 -370Q299 -370 298 -371Q291 -371 285 -368Q267 -342 265 -340Q247 -317 227 -280Q224 -274 221 -267Q226 -234 226 -194Q226 -190 225.5 -182.5Q225 -175 225 -171Z"/>
	<path fill="#800080" d="M275 -171Q275 -164 275.5 -148.5Q276 -133 276 -123Q276 -24 253 -1L218 34Q211 41 202 41Q192 41 182.5 31.5Q173 22 167 6Q158 -17 157 -62Q156 -67 156 -72Q156 -95 167.5 -134Q179 -173 181 -192Q183 -200 189 -226.5Q195 -253 200 -267Q197 -290 191 -310Q190 -312 185 -332.5Q180 -353 175 -362Q173 -365 171 -369Q169 -369 168 -369H158Q157 -367 151.5 -356.5Q146 -346 143 -342Q79 -244 51 -140Q48 -133 39 -90V-86Q39 -71 29 -61Q19 -51 4 -51Q-11 -51 -21 -61Q-31 -71 -31 -86V-90Q-22 -133 -19 -140Q8 -244 73 -342Q75 -345 81 -356Q97 -386 107 -396L142 -431Q150 -439 158 -439H168Q170 -439 173 -440Q176 -441 178 -441Q183 -439 188 -434L223 -399Q228 -394 245 -362Q249 -357 251 -349Q276 -384 283 -391L318 -426Q333 -441 348 -441Q360 -438 371 -427L406 -392Q408 -390 409 -388Q412 -392 415 -395L450 -430Q465 -445 490 -445Q497 -445 503 -439L538 -404Q547 -396 557 -368Q563 -354 565 -350Q571 -292 581 -86L583 -36Q584 -36 585 -36L595 -56Q598 -66 605.5 -87Q613 -108 616 -118Q624 -140 648 -140Q662 -140 671.5 -130.5Q681 -121 681 -107Q681 -101 679 -96L665 -56L643 -10Q636 7 608 25Q593 35 577 35Q562 35 554 28L519 -7Q514 -12 513 -22Q511 -76 501 -276L495 -350Q492 -353 484 -374Q475 -374 467 -371Q461 -363 449 -351Q448 -347 443 -331Q438 -315 435 -307Q435 -304 435 -302Q442 -283 442 -253Q442 -246 441.5 -232Q441 -218 441 -211Q441 -186 445.5 -170Q450 -154 450 -83Q450 -5 439 6L403 42Q402 43 400 43Q397 42 394 39L359 4Q356 1 352.5 -6Q349 -13 347 -16Q340 -24 333 -46L335 -176Q345 -227 364 -307Q364 -311 361.5 -321.5Q359 -332 359 -338Q358 -354 351 -370Q349 -370 348 -371Q341 -371 335 -368Q317 -342 315 -340Q297 -317 277 -280Q274 -274 271 -267Q276 -234 276 -194Q276 -190 275.5 -182.5Q275 -175 275 -171Z"/>
	<path fill="#daa520" d="M178 -401Q177 -401 174 -400Q171 -399 169 -399H159Q152 -399 142 -387Q135 -378 121 -354Q116 -343 113 -339Q49 -242 22 -139Q22 -138 22 -138Q19 -131 10 -89V-86Q10 -81 5 -81Q0 -81 0 -86V-90Q0 -91 0 -91Q9 -134 12 -142Q40 -247 105 -345Q107 -348 113 -358Q126 -383 135 -394Q147 -409 159 -409H169Q171 -409 174 -410Q177 -411 179 -411Q180 -411 181 -410Q188 -407 193.5 -401Q199 -395 201.5 -391Q204 -387 209 -377Q214 -367 215 -365Q220 -358 222.5 -349Q225 -340 227.5 -328.5Q230 -317 232 -311Q236 -298 239 -283Q258 -320 277 -343Q279 -346 294 -368.5Q309 -391 321.5 -401Q334 -411 349 -411Q350 -411 350 -411Q371 -404 385 -383Q399 -362 400 -338Q400 -334 402 -327L410 -354Q411 -355 412 -356Q421 -363 432 -379.5Q443 -396 456 -405.5Q469 -415 491 -415Q503 -415 512 -402Q519 -393 527 -370Q533 -356 535 -353Q536 -352 536 -350Q541 -292 552 -86L554 -22Q556 -5 578 -5Q593 -5 605 -13L626 -58L640 -98Q641 -101 645 -101Q650 -101 650 -96Q650 -95 650 -94L636 -54L614 -8Q613 -7 612 -6Q596 5 578 5Q547 5 544 -21V-22Q543 -76 532 -276L526 -348Q523 -353 518 -367Q503 -405 491 -405Q472 -405 462.5 -398Q453 -391 442 -375Q429 -357 419 -349Q406 -307 406 -307Q406 -305 406 -303Q412 -283 412 -253Q412 -246 412 -232Q412 -218 412 -211Q412 -187 416 -171Q420 -154 420 -83Q420 -38 417 -14Q414 -1 411 5Q407 13 401 13Q400 13 399 13Q393 11 390 6.5Q387 2 384 -4Q381 -10 379 -13Q372 -22 364 -44Q364 -45 364 -46L366 -176Q366 -177 366 -177Q376 -229 396 -307Q395 -311 392.5 -321.5Q390 -332 390 -338Q390 -358 377.5 -376.5Q365 -395 348 -401Q328 -400 298 -356Q289 -342 285 -337Q267 -315 247 -278Q243 -269 242 -266Q246 -234 246 -194Q246 -190 246 -182.5Q246 -175 246 -171Q246 -164 246.5 -148.5Q247 -133 247 -123Q247 -61 238 -29Q227 11 203 11Q200 11 198 8Q189 -16 188 -62Q188 -67 188 -72Q188 -95 199.5 -134.5Q211 -174 212 -192Q212 -193 212 -193Q215 -202 220.5 -228Q226 -254 231 -267Q228 -289 222 -309Q221 -311 216.5 -331Q212 -351 207 -359Q206 -360 202 -369Q189 -395 178 -401ZM402 -253Q402 -271 400 -284Q388 -236 376 -175L374 -47Q381 -26 387 -19Q388 -17 392.5 -8Q397 1 401 3Q404 -1 407 -16Q410 -39 410 -83Q410 -153 406 -169Q402 -186 402 -211Q402 -218 402 -232Q402 -246 402 -253ZM236 -194Q236 -221 234 -243Q232 -236 228.5 -218.5Q225 -201 222 -191Q221 -173 209.5 -133.5Q198 -94 198 -72Q198 -70 198 -66.5Q198 -63 198 -62Q199 -21 206 1Q221 -2 228 -31Q237 -63 237 -123Q237 -133 236.5 -148.5Q236 -164 236 -171Q236 -175 236 -182.5Q236 -190 236 -194Z"/>
</svg>