<svg xmlns="http://www.w3.org/2000/svg" viewBox="0 -1024 1024 1024">
	<path fill="#000088" d="M261 -391Q263 -394 269.5 -403Q276 -412 278.5 -415.5Q281 -419 287 -426.5Q293 -434 297.5 -437.5Q302 -441 309 -446Q316 -451 322.5 -453.5Q329 -456 337.5 -457.5Q346 -459 356 -459Q361 -459 367 -456L419 -426Q427 -421 440 -405Q447 -396 450 -393L458 -337Q456 -323 450 -284Q444 -245 442 -223Q439 -197 435 -50Q436 -51 438 -52L468 -104Q469 -106 488 -135L541 -101L510 -53Q506 -43 503 -37L468 23Q454 47 427 47Q419 47 415 45L363 15Q360 13 355.5 8Q351 3 347 1Q348 -16 348.5 -59.5Q349 -103 350.5 -134Q352 -165 355 -193Q357 -214 363 -253.5Q369 -293 371 -307L363 -363Q361 -364 358 -368Q324 -363 297 -327Q289 -308 282 -290L278 -141L268 -57Q268 -39 257 -21L222 40Q217 49 211 49Q176 49 159 19Q149 1 149 -33Q149 -38 149 -45Q148 -53 148 -62Q148 -119 173 -179L181 -225Q188 -242 195 -259V-265L189 -327Q187 -330 178 -353Q177 -352 161 -333Q149 -318 138 -302Q125 -275 112.5 -243Q100 -211 85 -169.5Q70 -128 62 -107L40 -51L-25 -77Q-18 -95 1.5 -148.5Q21 -202 35.5 -237Q50 -272 68 -303L103 -364Q122 -396 144 -423Q145 -425 149.5 -430.5Q154 -436 156.5 -439Q159 -442 163 -446Q167 -450 171.5 -451.5Q176 -453 180 -453Q184 -453 188 -451L240 -421Q251 -415 261 -391Z"/>
	<path fill="#800080" d="M-1 -47Q-14 -47 -24 -56.5Q-34 -66 -34 -80Q-34 -86 -31 -92Q-24 -112 -4.5 -166Q15 -220 25.5 -245.5Q36 -271 57 -310Q78 -349 103 -378Q104 -380 107.5 -384Q111 -388 113.5 -391.5Q116 -395 119 -398L154 -433Q164 -443 174 -443Q181 -443 188 -437L223 -401Q231 -393 240 -373Q247 -382 253 -389L288 -424Q313 -449 350 -449Q359 -449 370 -439L406 -403Q410 -399 416 -391Q427 -380 427 -378L435 -322Q433 -308 427.5 -268.5Q422 -229 419 -208Q417 -182 412 -34Q414 -34 415 -34Q426 -57 429 -62L467 -122Q476 -136 492 -136Q505 -136 513.5 -127Q522 -118 522 -106Q522 -97 517 -90L499 -62Q496 -56 487.5 -37Q479 -18 471 -10L436 25Q424 37 404 37Q397 37 392.5 34.5Q388 32 383.5 27.5Q379 23 376 21Q341 0 341 -14Q341 -31 342 -74.5Q343 -118 344.5 -149Q346 -180 349 -208Q351 -229 357 -268.5Q363 -308 365 -322L357 -377Q353 -379 350 -379Q325 -379 306 -367Q303 -364 296 -353.5Q289 -343 285 -338Q272 -307 259 -274L255 -126L245 -42Q245 -35 241 -20.5Q237 -6 230 1L195 36Q192 39 188 39Q173 39 153 4Q142 -14 142 -48Q142 -53 143 -60Q142 -69 142 -78Q142 -135 167 -194L175 -240Q182 -257 188 -274L189 -280L183 -342Q182 -343 170 -372Q169 -372 168 -372Q146 -343 125.5 -305Q105 -267 95 -241.5Q85 -216 66 -164.5Q47 -113 39 -92L30 -68Q22 -47 -1 -47Z"/>
	<path fill="#daa520" d="M25 -87Q20 -87 20 -92Q20 -93 20 -94Q28 -114 47.5 -168Q67 -222 77.5 -248Q88 -274 109.5 -312.5Q131 -351 155 -381Q156 -382 162.5 -390.5Q169 -399 172 -402Q175 -405 181.5 -409Q188 -413 195 -413Q208 -413 218 -398Q225 -388 235 -362Q241 -348 243 -345Q244 -344 244 -342L248 -296Q257 -318 266 -340Q267 -340 267 -341Q270 -345 281 -361Q292 -377 298 -383.5Q304 -390 315.5 -400.5Q327 -411 340.5 -415Q354 -419 371 -419Q381 -419 389 -412.5Q397 -406 405 -395.5Q413 -385 416 -382Q418 -381 418 -379L426 -323Q426 -322 426 -322Q426 -322 426 -321Q424 -307 418 -268Q412 -229 410 -207Q407 -180 405.5 -149.5Q404 -119 403.5 -76Q403 -33 402 -17Q405 -14 410 -10Q416 -3 425 -3Q438 -3 447.5 -9.5Q457 -16 460.5 -22.5Q464 -29 470 -43Q477 -58 481 -65L499 -93Q500 -95 503 -95Q508 -95 508 -90Q508 -89 507 -87L489 -59Q485 -53 479 -39Q475 -28 471.5 -22.5Q468 -17 462 -9Q456 -1 446.5 3Q437 7 425 7Q417 7 412 4.5Q407 2 402.5 -3Q398 -8 394 -10Q392 -11 392 -14Q397 -174 400 -208Q400 -209 400 -209Q408 -261 416 -322L408 -376Q406 -378 399 -386Q381 -409 371 -409Q356 -409 343.5 -405.5Q331 -402 320.5 -392Q310 -382 304.5 -376Q299 -370 289 -355Q279 -340 275 -336Q263 -305 250 -273L246 -126V-125L236 -42Q236 -29 228 -11Q220 9 209 9Q206 9 205 6Q194 -13 194 -48Q194 -53 194 -60Q193 -69 193 -78Q193 -135 218 -195L226 -241Q226 -241 226 -242Q233 -259 240 -275V-280L234 -340Q232 -345 226 -359Q216 -383 210 -392Q202 -403 195 -403Q192 -403 188.5 -401.5Q185 -400 181 -396Q177 -392 175 -389.5Q173 -387 168.5 -381.5Q164 -376 163 -375Q139 -346 118 -307.5Q97 -269 86.5 -243.5Q76 -218 56.5 -164Q37 -110 30 -90Q28 -87 25 -87ZM204 -60Q204 -58 204 -54Q204 -50 204 -48Q204 -19 211 -2Q216 -6 219 -14Q226 -31 226 -42Q226 -42 226 -43L236 -126L239 -247Q238 -243 236 -239L228 -193Q228 -193 228 -192Q203 -134 203 -78Q203 -75 203.5 -69Q204 -63 204 -60Z"/>
</svg>