<svg xmlns="http://www.w3.org/2000/svg" viewBox="0 -1024 1024 1024">
	<path fill="#000088" d="M-23 -135Q-24 -145 -32.5 -178Q-41 -211 -41 -230Q-41 -248 -37 -270Q-24 -345 16 -385L51 -420Q73 -442 100 -447Q113 -454 129 -454Q156 -454 173 -438L208 -402Q217 -393 220 -381L228 -372Q254 -346 262 -312Q263 -297 272.5 -274Q282 -251 283 -237Q286 -208 295 -189L300 -92Q300 -91 300 -90Q300 -75 290 -64.5Q280 -54 265 -54Q250 -54 239 -66Q225 -34 208 -17L173 18Q155 35 134 39Q126 39 106 35Q74 29 51 6L16 -30Q-1 -46 -11 -69Q-26 -62 -42 -59H-50Q-65 -59 -75 -69Q-85 -79 -85 -94Q-85 -109 -75 -119Q-65 -129 -50 -129H-42Q-32 -131 -23 -135ZM75 -206Q144 -286 147 -352Q141 -363 134 -372Q130 -377 126 -383Q112 -383 100 -377Q84 -373 70 -365Q43 -326 33 -270Q29 -248 29 -230Q30 -210 39 -173Q63 -192 75 -206ZM187 -204Q187 -225 181 -253Q168 -233 145 -206Q144 -204 108 -169Q60 -120 50 -111Q53 -77 70 -49Q87 -39 106.5 -35Q126 -31 134 -31Q145 -33 154 -39Q162 -52 171 -70Q187 -126 187 -179Q187 -184 187 -190Q187 -197 187 -204Z"/>
	<path fill="#800080" d="M27 -135Q26 -145 17.5 -178Q9 -211 9 -230Q9 -248 13 -270Q26 -345 66 -385L101 -420Q123 -442 150 -447Q163 -454 179 -454Q206 -454 223 -438L258 -402Q267 -393 270 -381L278 -372Q304 -346 312 -312Q313 -297 322.5 -274Q332 -251 333 -237Q336 -208 345 -189L350 -92Q350 -91 350 -90Q350 -75 340 -64.5Q330 -54 315 -54Q300 -54 289 -66Q275 -34 258 -17L223 18Q205 35 184 39Q176 39 156 35Q124 29 101 6L66 -30Q49 -46 39 -69Q24 -62 8 -59H0Q-15 -59 -25 -69Q-35 -79 -35 -94Q-35 -109 -25 -119Q-15 -129 0 -129H8Q18 -131 27 -135ZM125 -206Q194 -286 197 -352Q191 -363 184 -372Q180 -377 176 -383Q162 -383 150 -377Q134 -373 120 -365Q93 -326 83 -270Q79 -248 79 -230Q80 -210 89 -173Q113 -192 125 -206ZM237 -204Q237 -225 231 -253Q218 -233 195 -206Q194 -204 158 -169Q110 -120 100 -111Q103 -77 120 -49Q137 -39 156.5 -35Q176 -31 184 -31Q195 -33 204 -39Q212 -52 221 -70Q237 -126 237 -179Q237 -184 237 -190Q237 -197 237 -204Z"/>
	<path fill="#daa520" d="M84 -121Q83 -138 73.5 -174Q64 -210 64 -230Q64 -248 68 -271Q77 -322 103.5 -365Q130 -408 173 -417Q187 -424 204 -424Q225 -424 242.5 -413Q260 -402 264 -382Q297 -355 307 -313Q307 -313 307 -312Q308 -299 317 -276Q326 -253 328 -238Q331 -209 339 -191Q340 -190 340 -189L345 -92Q345 -87 340 -87Q335 -87 335 -91L330 -188Q321 -207 318 -236Q317 -250 307.5 -273Q298 -296 297 -311Q289 -344 265 -368Q264 -362 262 -355Q262 -354 262 -353Q278 -325 284 -301Q285 -294 289.5 -278.5Q294 -263 296.5 -253.5Q299 -244 301 -230Q303 -216 303 -204Q303 -197 302 -190Q302 -184 302 -179Q302 -126 286 -69Q286 -68 286 -68Q255 0 210 9Q209 9 209 9Q200 9 180 5Q139 -3 114 -35Q89 -67 85 -110Q60 -95 34 -89Q34 -89 33 -89H25Q20 -89 20 -94Q20 -99 25 -99H32Q58 -105 84 -121ZM93 -127Q108 -138 121.5 -150Q135 -162 156 -183.5Q177 -205 181 -209Q249 -290 252 -351Q246 -362 239 -371L211 -398Q209 -400 209 -402Q209 -407 214 -407Q215 -407 215 -407Q232 -403 248 -394Q234 -414 204 -414Q189 -414 177 -408Q177 -407 176 -407Q137 -399 112 -359Q87 -319 78 -269Q74 -247 74 -230Q74 -211 83 -176.5Q92 -142 93 -127ZM292 -190Q292 -192 292.5 -197Q293 -202 293 -204Q293 -215 291 -229Q289 -243 286.5 -252Q284 -261 280 -276.5Q276 -292 274 -299Q270 -315 260 -335Q252 -278 189 -203Q189 -203 188 -202Q181 -195 166.5 -180Q152 -165 143 -156Q134 -147 120.5 -135.5Q107 -124 94 -116Q97 -74 120.5 -43.5Q144 -13 182 -5Q201 -1 209 -1Q248 -9 276 -72Q292 -127 292 -179Q292 -181 292 -184.5Q292 -188 292 -190ZM255 -373Q255 -375 255 -377Q244 -385 233 -390L246 -378Q247 -377 247 -377Q251 -372 254 -366Q255 -370 255 -373Z"/>
</svg>