<svg xmlns="http://www.w3.org/2000/svg" viewBox="0 -1024 1024 1024">
	<path fill="#000088" d="M117 -58Q126 -39 126 -28Q126 -9 138 47Q152 121 152 153Q152 193 136 210L100 245Q91 255 82 255Q72 255 63.5 244Q55 233 54 218L46 128L37 -85L34 -90Q34 -91 33.5 -94.5Q33 -98 33 -99Q33 -100 33 -100L31 -136L-41 -55Q-49 -46 -61 -46Q-72 -46 -79.5 -54Q-87 -62 -87 -72Q-87 -82 -80 -90L-32 -144Q-31 -145 -26 -151Q11 -191 24 -241L22 -260Q11 -335 10 -344Q4 -371 4 -388Q4 -401 8 -405L43 -440Q44 -441 45 -441Q47 -441 49 -439L84 -404Q89 -399 93 -387L105 -398Q123 -417 148 -417Q176 -417 200 -393L236 -357Q266 -327 266 -282Q266 -280 266 -275Q266 -270 266 -267Q266 -253 268 -224Q270 -195 270 -180Q258 -139 236 -116Q265 -118 274 -127Q281 -134 292 -134Q302 -134 309.5 -126.5Q317 -119 317 -109Q317 -98 309 -90L274 -56Q262 -45 225 -45Q201 -45 185 -51Q179 -53 157 -58Q148 -56 137 -56Q125 -56 117 -58ZM195 -267Q195 -270 195.5 -275Q196 -280 196 -282Q196 -312 181 -337Q164 -346 148 -346Q137 -346 126 -342L104 -298L101 -186L105 -141Q127 -137 157 -129Q171 -132 182 -138Q193 -155 200 -180Q200 -195 197.5 -224Q195 -253 195 -267Z"/>
	<path fill="#800080" d="M167 -58Q176 -39 176 -28Q176 -9 188 47Q202 121 202 153Q202 193 186 210L150 245Q141 255 132 255Q122 255 113.5 244Q105 233 104 218L96 128L87 -85L84 -90Q84 -91 83.5 -94.5Q83 -98 83 -99Q83 -100 83 -100L81 -136L9 -55Q1 -46 -11 -46Q-22 -46 -29.5 -54Q-37 -62 -37 -72Q-37 -82 -30 -90L18 -144Q19 -145 24 -151Q61 -191 74 -241L72 -260Q61 -335 60 -344Q54 -371 54 -388Q54 -401 58 -405L93 -440Q94 -441 95 -441Q97 -441 99 -439L134 -404Q139 -399 143 -387L155 -398Q173 -417 198 -417Q226 -417 250 -393L286 -357Q316 -327 316 -282Q316 -280 316 -275Q316 -270 316 -267Q316 -253 318 -224Q320 -195 320 -180Q308 -139 286 -116Q315 -118 324 -127Q331 -134 342 -134Q352 -134 359.5 -126.5Q367 -119 367 -109Q367 -98 359 -90L324 -56Q312 -45 275 -45Q251 -45 235 -51Q229 -53 207 -58Q198 -56 187 -56Q175 -56 167 -58ZM245 -267Q245 -270 245.5 -275Q246 -280 246 -282Q246 -312 231 -337Q214 -346 198 -346Q187 -346 176 -342L154 -298L151 -186L155 -141Q177 -137 207 -129Q221 -132 232 -138Q243 -155 250 -180Q250 -195 247.5 -224Q245 -253 245 -267Z"/>
	<path fill="#daa520" d="M130 -336Q130 -367 122 -389Q119 -395 116 -399Q114 -395 114 -388Q114 -372 120 -345Q121 -338 130 -278Q130 -282 130 -285Q130 -297 128 -309Q128 -310 128 -310Q128 -310 128 -311Q130 -324 130 -336ZM182 153Q182 121 167 48Q156 -9 156 -28Q156 -38 149 -53L156 128L163 210Q182 195 182 153ZM306 -267Q306 -253 308 -224Q310 -195 310 -180Q310 -179 310 -179Q291 -113 246 -94Q254 -92 257 -91Q272 -85 295 -85Q330 -85 341 -95Q342 -97 344 -97Q349 -97 349 -92Q349 -89 347 -88Q334 -75 295 -75Q271 -75 253 -81Q248 -83 227 -88Q218 -87 207 -87Q202 -87 197 -87Q187 -88 168.5 -94.5Q150 -101 147 -102V-87Q148 -86 148 -84Q148 -76 156 -60Q166 -41 166 -28Q166 -10 177 46Q192 120 192 153Q192 208 161 223Q160 223 159 223Q154 223 154 218L146 128L137 -84L135 -87Q134 -88 134 -90L130 -164Q130 -164 131 -186Q131 -186 127 -217Q111 -174 77 -141L29 -87Q27 -85 25 -85Q20 -85 20 -90Q20 -92 21 -93L69 -147V-148Q111 -188 124 -241L122 -259Q112 -335 110 -343Q104 -371 104 -388Q104 -401 108 -406Q111 -411 115.5 -411Q120 -411 124 -406Q128 -401 131 -392Q140 -369 140 -336Q140 -323 138 -310Q138 -309 138 -308L163 -356Q163 -357 163 -357Q185 -387 218 -387Q252 -387 279 -355.5Q306 -324 306 -282Q306 -280 306 -275Q306 -270 306 -267ZM296 -267Q296 -270 296 -275Q296 -280 296 -282Q296 -320 271.5 -348.5Q247 -377 218 -377Q191 -377 171 -351L144 -297L141 -186Q141 -179 143 -153.5Q145 -128 146 -114Q147 -114 147 -114Q167 -114 228 -99Q279 -110 300 -181Q300 -195 298 -224Q296 -253 296 -267Z"/>
</svg>