<svg xmlns="http://www.w3.org/2000/svg" viewBox="0 -1024 1024 1024">
	<path fill="#000088" d="M117 -58Q126 -39 126 -28Q126 -9 138 47Q152 121 152 153Q152 193 136 210L100 245Q91 255 82 255Q72 255 63.5 244Q55 233 54 218L46 128L37 -85L34 -90Q34 -91 33.5 -94.5Q33 -98 33 -99Q33 -100 33 -100L31 -136L-41 -55Q-49 -46 -61 -46Q-72 -46 -79.5 -54Q-87 -62 -87 -72Q-87 -82 -80 -90L-32 -144Q-31 -145 -26 -151Q11 -191 24 -241L22 -260Q11 -335 10 -344Q4 -371 4 -388Q4 -401 8 -405L43 -440Q44 -441 45 -441Q47 -441 49 -439L84 -404Q89 -399 93 -387L105 -398Q123 -417 148 -417Q176 -417 200 -393L236 -357Q266 -327 266 -282Q266 -280 266 -275Q266 -270 266 -267Q266 -253 268 -224Q270 -195 270 -180Q258 -139 236 -116Q265 -118 274 -127Q281 -134 292 -134Q302 -134 309.5 -126.5Q317 -119 317 -109Q317 -98 309 -90L274 -56Q262 -45 225 -45Q201 -45 185 -51Q179 -53 157 -58Q148 -56 137 -56Q125 -56 117 -58ZM195 -267Q195 -270 195.5 -275Q196 -280 196 -282Q196 -312 181 -337Q164 -346 148 -346Q137 -346 126 -342L104 -298L101 -186L105 -141Q127 -137 157 -129Q171 -132 182 -138Q193 -155 200 -180Q200 -195 197.5 -224Q195 -253 195 -267Z"/>
	<path fill="#800080" d="M167 -58Q176 -39 176 -28Q176 -9 188 47Q202 121 202 153Q202 193 186 210L150 245Q141 255 132 255Q122 255 113.5 244Q105 233 104 218L96 128L87 -85L84 -90Q84 -91 83.5 -94.5Q83 -98 83 -99Q83 -100 83 -100L81 -136L9 -55Q1 -46 -11 -46Q-22 -46 -29.5 -54Q-37 -62 -37 -72Q-37 -82 -30 -90L18 -144Q19 -145 24 -151Q61 -191 74 -241L72 -260Q61 -335 60 -344Q54 -371 54 -388Q54 -401 58 -405L93 -440Q94 -441 95 -441Q97 -441 99 -439L134 -404Q139 -399 143 -387L155 -398Q173 -417 198 -417Q226 -417 250 -393L286 -357Q316 -327 316 -282Q316 -280 316 -275Q316 -270 316 -267Q316 -253 318 -224Q320 -195 320 -180Q308 -139 286 -116Q315 -118 324 -127Q331 -134 342 -134Q352 -134 359.5 -126.5Q367 -119 367 -109Q367 -98 359 -90L324 -56Q312 -45 275 -45Q251 -45 235 -51Q229 -53 207 -58Q198 -56 187 -56Q175 -56 167 -58ZM245 -267Q245 -270 245.5 -275Q246 -280 246 -282Q246 -312 231 -337Q214 -346 198 -346Q187 -346 176 -342L154 -298L151 -186L155 -141Q177 -137 207 -129Q221 -132 232 -138Q243 -155 250 -180Q250 -195 247.5 -224Q245 -253 245 -267Z"/>
	<path fill="#daa520" d="M110 -336Q110 -367 102 -389Q99 -395 96 -399Q94 -395 94 -388Q94 -372 100 -345Q101 -338 110 -278Q110 -282 110 -285Q110 -297 108 -309Q108 -310 108 -310Q108 -310 108 -311Q110 -324 110 -336ZM162 153Q162 121 147 48Q136 -9 136 -28Q136 -38 129 -53L136 128L143 210Q162 195 162 153ZM286 -267Q286 -253 288 -224Q290 -195 290 -180Q290 -179 290 -179Q271 -113 226 -94Q234 -92 237 -91Q252 -85 275 -85Q310 -85 321 -95Q322 -97 324 -97Q329 -97 329 -92Q329 -89 327 -88Q314 -75 275 -75Q251 -75 233 -81Q228 -83 207 -88Q198 -87 187 -87Q182 -87 177 -87Q167 -88 148.5 -94.5Q130 -101 127 -102V-87Q128 -86 128 -84Q128 -76 136 -60Q146 -41 146 -28Q146 -10 157 46Q172 120 172 153Q172 208 141 223Q140 223 139 223Q134 223 134 218L126 128L117 -84L115 -87Q114 -88 114 -90L110 -164Q110 -164 111 -186Q111 -186 107 -217Q91 -174 57 -141L9 -87Q7 -85 5 -85Q0 -85 0 -90Q0 -92 1 -93L49 -147V-148Q91 -188 104 -241L102 -259Q92 -335 90 -343Q84 -371 84 -388Q84 -401 88 -406Q91 -411 95.5 -411Q100 -411 104 -406Q108 -401 111 -392Q120 -369 120 -336Q120 -323 118 -310Q118 -309 118 -308L143 -356Q143 -357 143 -357Q165 -387 198 -387Q232 -387 259 -355.5Q286 -324 286 -282Q286 -280 286 -275Q286 -270 286 -267ZM276 -267Q276 -270 276 -275Q276 -280 276 -282Q276 -320 251.5 -348.5Q227 -377 198 -377Q171 -377 151 -351L124 -297L121 -186Q121 -179 123 -153.5Q125 -128 126 -114Q127 -114 127 -114Q147 -114 208 -99Q259 -110 280 -181Q280 -195 278 -224Q276 -253 276 -267Z"/>
</svg>