<svg xmlns="http://www.w3.org/2000/svg" viewBox="0 -1024 1024 1024">
	<path fill="#000088" d="M212 -46Q205 -46 200 -47Q200 -45 200 -43Q200 -25 212 32Q227 105 227 138Q227 168 217 185L182 246Q170 267 148 267Q134 267 123.5 257.5Q113 248 112 233L104 143L95 -70L92 -75L90 -112Q84 -105 77 -99L29 -45L-25 -93L61 -189Q69 -197 76 -206Q79 -216 82 -226L80 -245Q69 -320 68 -329Q62 -356 62 -373Q62 -384 64 -388L99 -449Q101 -451 103 -451Q104 -451 105 -450L157 -420Q160 -418 164 -410Q182 -427 205 -427Q222 -427 239 -417L291 -387Q313 -375 327 -350.5Q341 -326 341 -298Q341 -295 340.5 -290Q340 -285 340 -283Q340 -268 342 -239Q344 -210 344 -195Q338 -172 328 -155L313 -129Q326 -132 332 -137L385 -81L348 -46Q337 -35 299 -35Q276 -35 259 -41Q253 -43 232 -48Q222 -46 212 -46ZM253 -252Q253 -255 253.5 -260Q254 -265 254 -267Q254 -306 228 -336Q225 -336 222 -336Q200 -336 182 -320L178 -313L175 -201L179 -147Q196 -144 215 -139Q239 -144 256 -160Q257 -162 258 -165Q258 -180 255.5 -209Q253 -238 253 -252Z"/>
	<path fill="#800080" d="M167 -58Q176 -39 176 -28Q176 -9 188 47Q202 121 202 153Q202 193 186 210L150 245Q141 255 132 255Q122 255 113.5 244Q105 233 104 218L96 128L87 -85L84 -90Q84 -91 83.5 -94.5Q83 -98 83 -99Q83 -100 83 -100L81 -136L9 -55Q1 -46 -11 -46Q-22 -46 -29.5 -54Q-37 -62 -37 -72Q-37 -82 -30 -90L18 -144Q19 -145 24 -151Q61 -191 74 -241L72 -260Q61 -335 60 -344Q54 -371 54 -388Q54 -401 58 -405L93 -440Q94 -441 95 -441Q97 -441 99 -439L134 -404Q139 -399 143 -387L155 -398Q173 -417 198 -417Q226 -417 250 -393L286 -357Q316 -327 316 -282Q316 -280 316 -275Q316 -270 316 -267Q316 -253 318 -224Q320 -195 320 -180Q308 -139 286 -116Q315 -118 324 -127Q331 -134 342 -134Q352 -134 359.5 -126.5Q367 -119 367 -109Q367 -98 359 -90L324 -56Q312 -45 275 -45Q251 -45 235 -51Q229 -53 207 -58Q198 -56 187 -56Q175 -56 167 -58ZM245 -267Q245 -270 245.5 -275Q246 -280 246 -282Q246 -312 231 -337Q214 -346 198 -346Q187 -346 176 -342L154 -298L151 -186L155 -141Q177 -137 207 -129Q221 -132 232 -138Q243 -155 250 -180Q250 -195 247.5 -224Q245 -253 245 -267Z"/>
	<path fill="#daa520" d="M130 -336Q130 -367 122 -389Q119 -395 116 -399Q114 -395 114 -388Q114 -372 120 -345Q121 -338 130 -278Q130 -282 130 -285Q130 -297 128 -309Q128 -310 128 -310Q128 -310 128 -311Q130 -324 130 -336ZM182 153Q182 121 167 48Q156 -9 156 -28Q156 -38 149 -53L156 128L163 210Q182 195 182 153ZM306 -267Q306 -253 308 -224Q310 -195 310 -180Q310 -179 310 -179Q291 -113 246 -94Q254 -92 257 -91Q272 -85 295 -85Q330 -85 341 -95Q342 -97 344 -97Q349 -97 349 -92Q349 -89 347 -88Q334 -75 295 -75Q271 -75 253 -81Q248 -83 227 -88Q218 -87 207 -87Q202 -87 197 -87Q187 -88 168.5 -94.5Q150 -101 147 -102V-87Q148 -86 148 -84Q148 -76 156 -60Q166 -41 166 -28Q166 -10 177 46Q192 120 192 153Q192 208 161 223Q160 223 159 223Q154 223 154 218L146 128L137 -84L135 -87Q134 -88 134 -90L130 -164Q130 -164 131 -186Q131 -186 127 -217Q111 -174 77 -141L29 -87Q27 -85 25 -85Q20 -85 20 -90Q20 -92 21 -93L69 -147V-148Q111 -188 124 -241L122 -259Q112 -335 110 -343Q104 -371 104 -388Q104 -401 108 -406Q111 -411 115.5 -411Q120 -411 124 -406Q128 -401 131 -392Q140 -369 140 -336Q140 -323 138 -310Q138 -309 138 -308L163 -356Q163 -357 163 -357Q185 -387 218 -387Q252 -387 279 -355.5Q306 -324 306 -282Q306 -280 306 -275Q306 -270 306 -267ZM296 -267Q296 -270 296 -275Q296 -280 296 -282Q296 -320 271.5 -348.5Q247 -377 218 -377Q191 -377 171 -351L144 -297L141 -186Q141 -179 143 -153.5Q145 -128 146 -114Q147 -114 147 -114Q167 -114 228 -99Q279 -110 300 -181Q300 -195 298 -224Q296 -253 296 -267Z"/>
</svg>