<svg xmlns="http://www.w3.org/2000/svg" viewBox="0 -1024 1024 1024">
	<path fill="#000088" d="M-54 -51Q-69 -51 -79 -61Q-89 -71 -89 -86Q-89 -107 -71 -117Q-68 -131 -61 -171Q-59 -184 -49.5 -192.5Q-40 -201 -27 -201Q-13 -201 -2.5 -190.5Q8 -180 8 -166Q8 -163 7 -160Q6 -149 -7 -86Q-10 -71 -20 -61Q-30 -51 -42 -51ZM70 -429Q74 -429 97 -429.5Q120 -430 124 -430Q135 -430 144 -424Q164 -417 169 -396Q173 -383 182 -356Q203 -297 203 -256Q203 -223 202 -201.5Q201 -180 193 -153Q185 -126 169 -111L168 -110L169 -56L181 46Q186 68 189 93Q206 65 223 46L279 -32Q288 -43 302 -43Q314 -43 322.5 -35Q331 -27 331 -15Q331 -6 325 2L293 46Q275 67 256.5 98.5Q238 130 229 154Q214 197 208 203L173 239Q172 240 170 240Q169 240 169 239L133 204Q128 199 127 160Q120 90 111 46L99 -56Q86 -53 72 -53Q30 -53 -1 -83L-36 -118Q-67 -150 -67 -194Q-67 -323 -19 -372L16 -407Q39 -429 70 -429ZM3 -194Q3 -164 19 -138Q44 -123 72 -123Q86 -123 97 -126L95 -288L97 -359Q74 -359 70 -359Q51 -359 35 -351Q3 -297 3 -194Z"/>
	<path fill="#800080" d="M-4 -51Q-19 -51 -29 -61Q-39 -71 -39 -86Q-39 -107 -21 -117Q-18 -131 -11 -171Q-9 -184 0.5 -192.5Q10 -201 23 -201Q37 -201 47.5 -190.5Q58 -180 58 -166Q58 -163 57 -160Q56 -149 43 -86Q40 -71 30 -61Q20 -51 8 -51ZM120 -429Q124 -429 147 -429.5Q170 -430 174 -430Q185 -430 194 -424Q214 -417 219 -396Q223 -383 232 -356Q253 -297 253 -256Q253 -223 252 -201.5Q251 -180 243 -153Q235 -126 219 -111L218 -110L219 -56L231 46Q236 68 239 93Q256 65 273 46L329 -32Q338 -43 352 -43Q364 -43 372.5 -35Q381 -27 381 -15Q381 -6 375 2L343 46Q325 67 306.5 98.5Q288 130 279 154Q264 197 258 203L223 239Q222 240 220 240Q219 240 219 239L183 204Q178 199 177 160Q170 90 161 46L149 -56Q136 -53 122 -53Q80 -53 49 -83L14 -118Q-17 -150 -17 -194Q-17 -323 31 -372L66 -407Q89 -429 120 -429ZM53 -194Q53 -164 69 -138Q94 -123 122 -123Q136 -123 147 -126L145 -288L147 -359Q124 -359 120 -359Q101 -359 85 -351Q53 -297 53 -194Z"/>
	<path fill="#daa520" d="M25 -81Q20 -81 20 -86Q20 -91 25 -91H33Q44 -148 46 -161Q47 -165 51 -165Q56 -165 56 -160Q56 -160 56 -159Q54 -148 42 -85Q41 -81 37 -81ZM149 -399Q153 -399 176 -399.5Q199 -400 203 -400Q208 -400 208 -395Q208 -401 213 -401Q217 -401 218 -397Q221 -384 231 -358Q252 -298 252 -256Q252 -223 250.5 -201.5Q249 -180 241 -152Q233 -124 217 -108L218 -56L230 45Q239 89 246 160Q247 188 250 197Q252 194 255 188Q259 178 268 152Q277 128 296 96.5Q315 65 333 43L365 -1Q366 -3 369 -3Q374 -3 374 2Q374 4 373 5L341 49Q323 70 304.5 101Q286 132 278 156Q267 185 262 196Q259 202 257 205Q253 210 249 210Q243 210 240 197Q237 187 236 160Q229 91 220 47L208 -55V-56L207 -99Q185 -83 151 -83Q106 -83 74 -116Q42 -149 42 -194Q42 -226 46 -257Q50 -288 60.5 -322.5Q71 -357 93.5 -378Q116 -399 149 -399ZM217 -366L214 -288L217 -123Q242 -157 242 -256Q242 -267 240.5 -278Q239 -289 238 -296.5Q237 -304 233.5 -316Q230 -328 228.5 -332.5Q227 -337 222.5 -350.5Q218 -364 217 -366ZM149 -389Q121 -389 100.5 -369.5Q80 -350 70 -318.5Q60 -287 56 -256.5Q52 -226 52 -194Q52 -153 81 -123Q110 -93 151 -93Q186 -93 207 -112L204 -288L208 -394Q207 -390 203 -390Q199 -390 176 -389.5Q153 -389 149 -389Z"/>
</svg>