<svg xmlns="http://www.w3.org/2000/svg" viewBox="0 -1024 1024 1024">
	<path fill="#000088" d="M27 -41H-2V-111L-25 -71Q-13 -134 -11 -145L-4 -189L76 -175Q74 -164 62 -101Q57 -75 47 -58Q37 -41 27 -41ZM122 -439Q126 -439 149 -439.5Q172 -440 176 -440H193V-436Q199 -438 205 -438Q218 -438 226.5 -430.5Q235 -423 238 -411Q241 -398 251 -371Q272 -312 272 -271Q272 -179 251 -143L237 -119L238 -71L250 31Q255 53 258 79L270 59Q290 25 310 1L342 -43L396 -4L327 91Q317 103 306 119Q301 130 298 139Q286 174 280 183L245 244Q242 250 239 250Q239 250 238 250L186 220Q181 216 179 175Q175 137 163 61Q159 38 151 -43Q146 -43 141 -43Q114 -43 90 -56L38 -86Q14 -100 -0.5 -125Q-15 -150 -15 -179Q-15 -280 16 -334L51 -394Q77 -439 122 -439ZM139 -349Q109 -349 88 -329Q72 -279 72 -209Q72 -167 101 -136Q112 -133 124 -133Q138 -133 149 -136L147 -273L150 -349Q141 -349 139 -349Z"/>
	<path fill="#800080" d="M-4 -51Q-19 -51 -29 -61Q-39 -71 -39 -86Q-39 -107 -21 -117Q-18 -131 -11 -171Q-9 -184 0.5 -192.5Q10 -201 23 -201Q37 -201 47.5 -190.5Q58 -180 58 -166Q58 -163 57 -160Q56 -149 43 -86Q40 -71 30 -61Q20 -51 8 -51ZM120 -429Q124 -429 147 -429.5Q170 -430 174 -430Q185 -430 194 -424Q214 -417 219 -396Q223 -383 232 -356Q253 -297 253 -256Q253 -223 252 -201.5Q251 -180 243 -153Q235 -126 219 -111L218 -110L219 -56L231 46Q236 68 239 93Q256 65 273 46L329 -32Q338 -43 352 -43Q364 -43 372.5 -35Q381 -27 381 -15Q381 -6 375 2L343 46Q325 67 306.5 98.5Q288 130 279 154Q264 197 258 203L223 239Q222 240 220 240Q219 240 219 239L183 204Q178 199 177 160Q170 90 161 46L149 -56Q136 -53 122 -53Q80 -53 49 -83L14 -118Q-17 -150 -17 -194Q-17 -323 31 -372L66 -407Q89 -429 120 -429ZM53 -194Q53 -164 69 -138Q94 -123 122 -123Q136 -123 147 -126L145 -288L147 -359Q124 -359 120 -359Q101 -359 85 -351Q53 -297 53 -194Z"/>
	<path fill="#daa520" d="M25 -81Q20 -81 20 -86Q20 -91 25 -91H33Q44 -148 46 -161Q47 -165 51 -165Q56 -165 56 -160Q56 -160 56 -159Q54 -148 42 -85Q41 -81 37 -81ZM149 -399Q153 -399 176 -399.5Q199 -400 203 -400Q208 -400 208 -395Q208 -401 213 -401Q217 -401 218 -397Q221 -384 231 -358Q252 -298 252 -256Q252 -223 250.5 -201.5Q249 -180 241 -152Q233 -124 217 -108L218 -56L230 45Q239 89 246 160Q247 188 250 197Q252 194 255 188Q259 178 268 152Q277 128 296 96.5Q315 65 333 43L365 -1Q366 -3 369 -3Q374 -3 374 2Q374 4 373 5L341 49Q323 70 304.5 101Q286 132 278 156Q267 185 262 196Q259 202 257 205Q253 210 249 210Q243 210 240 197Q237 187 236 160Q229 91 220 47L208 -55V-56L207 -99Q185 -83 151 -83Q106 -83 74 -116Q42 -149 42 -194Q42 -226 46 -257Q50 -288 60.5 -322.5Q71 -357 93.5 -378Q116 -399 149 -399ZM217 -366L214 -288L217 -123Q242 -157 242 -256Q242 -267 240.5 -278Q239 -289 238 -296.5Q237 -304 233.5 -316Q230 -328 228.5 -332.5Q227 -337 222.5 -350.5Q218 -364 217 -366ZM149 -389Q121 -389 100.5 -369.5Q80 -350 70 -318.5Q60 -287 56 -256.5Q52 -226 52 -194Q52 -153 81 -123Q110 -93 151 -93Q186 -93 207 -112L204 -288L208 -394Q207 -390 203 -390Q199 -390 176 -389.5Q153 -389 149 -389Z"/>
</svg>