<svg xmlns="http://www.w3.org/2000/svg" viewBox="0 -1024 1024 1024">
	<path fill="#000088" d="M230 -444Q232 -444 235.5 -444.5Q239 -445 241 -445Q247 -445 248 -443L284 -407Q286 -405 286 -394Q286 -371 265 -350L239 -323L244 -169L256 -82L281 -43L318 -46L327 -76Q343 -110 347 -116Q356 -134 375 -134Q388 -134 397.5 -124.5Q407 -115 407 -102Q407 -95 397 -76L379 -13Q375 2 365.5 11.5Q356 21 344 22L269 28Q256 28 234 -7L186 -82L174 -169L170 -277Q154 -271 136 -266Q159 -193 159 -133Q159 -64 128 -33L92 2Q69 26 29 26Q26 26 23 25Q3 25 -12 11L-47 -25Q-57 -35 -70 -61Q-83 -87 -87 -94Q-92 -101 -92 -110Q-92 -123 -83.5 -131.5Q-75 -140 -63 -140Q-47 -140 -39 -127L-17 -94Q-12 -87 -3.5 -69.5Q5 -52 7 -48Q15 -45 23 -45Q26 -45 29 -45Q54 -45 72 -54Q88 -84 88 -133Q88 -187 69 -254Q60 -254 51 -254Q-4 -254 -26 -275L-62 -311Q-73 -322 -73 -339Q-73 -342 -72 -346Q-72 -363 -66 -384.5Q-60 -406 -48 -418L-13 -453Q-4 -462 8 -462Q15 -462 23 -455L58 -419Q68 -410 84 -379Q88 -372 97 -357.5Q106 -343 111 -331Q143 -337 171 -348L180 -400Q182 -414 215 -435Q217 -436 219 -439Q221 -442 223.5 -443Q226 -444 230 -444ZM-2 -332Q17 -325 44 -324Q33 -347 24 -361Q23 -362 7 -391Q-2 -368 -2 -346Q-2 -342 -2 -338.5Q-2 -335 -2 -332Z"/>
	<path fill="#800080" d="M280 -444Q282 -444 285.5 -444.5Q289 -445 291 -445Q297 -445 298 -443L334 -407Q336 -405 336 -394Q336 -371 315 -350L289 -323L294 -169L306 -82L331 -43L368 -46L377 -76L397 -116Q406 -134 425 -134Q438 -134 447.5 -124.5Q457 -115 457 -102Q457 -95 447 -76L429 -13Q425 2 415.5 11.5Q406 21 394 22L319 28Q306 28 284 -7L236 -82L224 -169L220 -277Q204 -271 186 -266Q209 -193 209 -133Q209 -64 178 -33L142 2Q119 26 79 26Q76 26 73 25Q53 25 38 11L3 -25Q-7 -35 -20 -61Q-33 -87 -37 -94Q-42 -101 -42 -110Q-42 -123 -33.5 -131.5Q-25 -140 -13 -140Q3 -140 11 -127L33 -94Q38 -87 46.5 -69.5Q55 -52 57 -48Q65 -45 73 -45Q76 -45 79 -45Q104 -45 122 -54Q138 -84 138 -133Q138 -187 119 -254Q110 -254 101 -254Q46 -254 24 -275L-12 -311Q-23 -322 -23 -339Q-23 -342 -22 -346Q-22 -363 -16 -384.5Q-10 -406 2 -418L37 -453Q46 -462 58 -462Q65 -462 73 -455L108 -419Q118 -410 134 -379Q138 -372 147 -357.5Q156 -343 161 -331Q193 -337 221 -348L230 -400Q232 -414 265 -435Q267 -436 269 -439Q271 -442 273.5 -443Q276 -444 280 -444ZM48 -332Q67 -325 94 -324Q83 -347 74 -361Q73 -362 57 -391Q48 -368 48 -346Q48 -342 48 -338.5Q48 -335 48 -332Z"/>
	<path fill="#daa520" d="M307 -414Q309 -414 312.5 -414Q316 -414 318 -414Q328 -414 331 -408Q333 -404 333 -394Q333 -362 298 -335Q292 -331 285 -327L291 -169L303 -84L349 -12L417 -18L434 -77Q434 -78 435 -78L441 -90Q442 -93 445 -93Q450 -93 450 -88Q450 -87 449 -86L444 -74L426 -12Q425 -8 421 -8L346 -2Q343 -2 342 -4L294 -79Q293 -80 293 -81L281 -168V-169L275 -321Q233 -297 176 -288Q205 -204 205 -133Q205 -76 182 -40.5Q159 -5 106 -5Q102 -5 100 -5Q87 -5 76.5 -10Q66 -15 57.5 -26Q49 -37 45 -44Q41 -51 34 -65Q26 -84 21 -91Q20 -92 20 -94Q20 -99 25 -99Q28 -99 29 -97Q34 -90 45.5 -65Q57 -40 69 -27.5Q81 -15 100 -15Q101 -15 103 -15Q105 -15 106 -15Q195 -15 195 -133Q195 -203 166 -286Q146 -284 128 -284Q87 -284 60.5 -297Q34 -310 34 -339Q34 -342 35 -346Q35 -374 48 -403Q61 -432 85 -432Q96 -432 108 -417Q116 -407 130 -382Q137 -368 140 -364Q156 -341 172 -298Q232 -307 275 -332L287 -401Q287 -403 289 -404Q291 -405 293.5 -408Q296 -411 299 -412.5Q302 -414 307 -414ZM45 -346Q45 -345 44.5 -342.5Q44 -340 44 -339Q44 -317 67 -305.5Q90 -294 128 -294Q144 -294 162 -296Q147 -337 132 -358Q129 -363 121 -377Q108 -401 100 -411Q91 -422 85 -422Q66 -422 55.5 -395.5Q45 -369 45 -346ZM307 -404Q304 -404 301 -401Q298 -399 297 -397L287 -339Q289 -341 292 -343Q323 -367 323 -394L322 -404Q321 -404 318 -404Q316 -404 312.5 -404Q309 -404 307 -404Z"/>
</svg>