<svg xmlns="http://www.w3.org/2000/svg" viewBox="0 -1024 1024 1024">
	<path fill="#000088" d="M292 -454Q294 -454 297.5 -454Q301 -454 303 -454Q307 -454 309 -453L361 -423Q365 -421 365 -409Q365 -396 357 -382L322 -322Q320 -318 318 -315L323 -184L335 -97L362 -55L388 -57L389 -61L425 -132L482 -103L476 -91L458 -28Q451 -3 441 14.5Q431 32 423 32L348 38Q346 38 345 38Q315 38 296 8L248 -67L237 -145Q237 -95 220 -66L185 -5Q161 35 108 35Q105 35 102 35Q89 35 78 29L26 -1Q15 -8 6 -21Q-3 -34 -11 -52Q-19 -70 -25 -79L49 -128L62 -109Q67 -101 76 -82Q85 -63 90 -55Q91 -55 91 -55Q124 -55 146 -71Q150 -92 150 -117Q150 -174 130 -244Q87 -244 64 -257L12 -287Q-11 -300 -11 -323Q-11 -327 -10 -331Q-10 -364 5 -391L40 -451Q52 -472 70 -472Q74 -472 78 -470L130 -440Q142 -433 162 -395Q166 -388 175.5 -372.5Q185 -357 191 -345Q216 -351 238 -361L242 -385Q249 -428 277 -445Q279 -446 281 -449Q283 -452 285.5 -453Q288 -454 292 -454ZM76 -354Q76 -344 80 -337Q86 -336 93 -335Q89 -341 86 -346Q83 -350 77 -361Q76 -357 76 -354ZM232 -261Q227 -259 221 -258Q231 -222 235 -189Z"/>
	<path fill="#800080" d="M280 -444Q282 -444 285.5 -444.5Q289 -445 291 -445Q297 -445 298 -443L334 -407Q336 -405 336 -394Q336 -371 315 -350L289 -323L294 -169L306 -82L331 -43L368 -46L377 -76L397 -116Q406 -134 425 -134Q438 -134 447.5 -124.5Q457 -115 457 -102Q457 -95 447 -76L429 -13Q425 2 415.5 11.5Q406 21 394 22L319 28Q306 28 284 -7L236 -82L224 -169L220 -277Q204 -271 186 -266Q209 -193 209 -133Q209 -64 178 -33L142 2Q119 26 79 26Q76 26 73 25Q53 25 38 11L3 -25Q-7 -35 -20 -61Q-33 -87 -37 -94Q-42 -101 -42 -110Q-42 -123 -33.5 -131.5Q-25 -140 -13 -140Q3 -140 11 -127L33 -94Q38 -87 46.5 -69.5Q55 -52 57 -48Q65 -45 73 -45Q76 -45 79 -45Q104 -45 122 -54Q138 -84 138 -133Q138 -187 119 -254Q110 -254 101 -254Q46 -254 24 -275L-12 -311Q-23 -322 -23 -339Q-23 -342 -22 -346Q-22 -363 -16 -384.5Q-10 -406 2 -418L37 -453Q46 -462 58 -462Q65 -462 73 -455L108 -419Q118 -410 134 -379Q138 -372 147 -357.5Q156 -343 161 -331Q193 -337 221 -348L230 -400Q232 -414 265 -435Q267 -436 269 -439Q271 -442 273.5 -443Q276 -444 280 -444ZM48 -332Q67 -325 94 -324Q83 -347 74 -361Q73 -362 57 -391Q48 -368 48 -346Q48 -342 48 -338.5Q48 -335 48 -332Z"/>
	<path fill="#daa520" d="M307 -414Q309 -414 312.5 -414Q316 -414 318 -414Q328 -414 331 -408Q333 -404 333 -394Q333 -362 298 -335Q292 -331 285 -327L291 -169L303 -84L349 -12L417 -18L434 -77Q434 -78 435 -78L441 -90Q442 -93 445 -93Q450 -93 450 -88Q450 -87 449 -86L444 -74L426 -12Q425 -8 421 -8L346 -2Q343 -2 342 -4L294 -79Q293 -80 293 -81L281 -168V-169L275 -321Q233 -297 176 -288Q205 -204 205 -133Q205 -76 182 -40.5Q159 -5 106 -5Q102 -5 100 -5Q87 -5 76.5 -10Q66 -15 57.5 -26Q49 -37 45 -44Q41 -51 34 -65Q26 -84 21 -91Q20 -92 20 -94Q20 -99 25 -99Q28 -99 29 -97Q34 -90 45.5 -65Q57 -40 69 -27.5Q81 -15 100 -15Q101 -15 103 -15Q105 -15 106 -15Q195 -15 195 -133Q195 -203 166 -286Q146 -284 128 -284Q87 -284 60.5 -297Q34 -310 34 -339Q34 -342 35 -346Q35 -374 48 -403Q61 -432 85 -432Q96 -432 108 -417Q116 -407 130 -382Q137 -368 140 -364Q156 -341 172 -298Q232 -307 275 -332L287 -401Q287 -403 289 -404Q291 -405 293.5 -408Q296 -411 299 -412.5Q302 -414 307 -414ZM45 -346Q45 -345 44.5 -342.5Q44 -340 44 -339Q44 -317 67 -305.5Q90 -294 128 -294Q144 -294 162 -296Q147 -337 132 -358Q129 -363 121 -377Q108 -401 100 -411Q91 -422 85 -422Q66 -422 55.5 -395.5Q45 -369 45 -346ZM307 -404Q304 -404 301 -401Q298 -399 297 -397L287 -339Q289 -341 292 -343Q323 -367 323 -394L322 -404Q321 -404 318 -404Q316 -404 312.5 -404Q309 -404 307 -404Z"/>
</svg>