<svg xmlns="http://www.w3.org/2000/svg" viewBox="0 -1024 1024 1024">
	<path fill="#000088" d="M230 -444Q232 -444 235.5 -444.5Q239 -445 241 -445Q247 -445 248 -443L284 -407Q286 -405 286 -394Q286 -371 265 -350L239 -323L244 -169L256 -82L281 -43L318 -46L327 -76Q343 -110 347 -116Q356 -134 375 -134Q388 -134 397.5 -124.5Q407 -115 407 -102Q407 -95 397 -76L379 -13Q375 2 365.5 11.5Q356 21 344 22L269 28Q256 28 234 -7L186 -82L174 -169L170 -277Q154 -271 136 -266Q159 -193 159 -133Q159 -64 128 -33L92 2Q69 26 29 26Q26 26 23 25Q3 25 -12 11L-47 -25Q-57 -35 -70 -61Q-83 -87 -87 -94Q-92 -101 -92 -110Q-92 -123 -83.5 -131.5Q-75 -140 -63 -140Q-47 -140 -39 -127L-17 -94Q-12 -87 -3.5 -69.5Q5 -52 7 -48Q15 -45 23 -45Q26 -45 29 -45Q54 -45 72 -54Q88 -84 88 -133Q88 -187 69 -254Q60 -254 51 -254Q-4 -254 -26 -275L-62 -311Q-73 -322 -73 -339Q-73 -342 -72 -346Q-72 -363 -66 -384.5Q-60 -406 -48 -418L-13 -453Q-4 -462 8 -462Q15 -462 23 -455L58 -419Q68 -410 84 -379Q88 -372 97 -357.5Q106 -343 111 -331Q143 -337 171 -348L180 -400Q182 -414 215 -435Q217 -436 219 -439Q221 -442 223.5 -443Q226 -444 230 -444ZM-2 -332Q17 -325 44 -324Q33 -347 24 -361Q23 -362 7 -391Q-2 -368 -2 -346Q-2 -342 -2 -338.5Q-2 -335 -2 -332Z"/>
	<path fill="#800080" d="M280 -444Q282 -444 285.5 -444.5Q289 -445 291 -445Q297 -445 298 -443L334 -407Q336 -405 336 -394Q336 -371 315 -350L289 -323L294 -169L306 -82L331 -43L368 -46L377 -76Q393 -110 397 -116Q406 -134 425 -134Q438 -134 447.5 -124.5Q457 -115 457 -102Q457 -95 447 -76L429 -13Q425 2 415.5 11.5Q406 21 394 22L319 28Q306 28 284 -7L236 -82L224 -169L220 -277Q204 -271 186 -266Q209 -193 209 -133Q209 -64 178 -33L142 2Q119 26 79 26Q76 26 73 25Q53 25 38 11L3 -25Q-7 -35 -20 -61Q-33 -87 -37 -94Q-42 -101 -42 -110Q-42 -123 -33.5 -131.5Q-25 -140 -13 -140Q3 -140 11 -127L33 -94Q38 -87 46.5 -69.5Q55 -52 57 -48Q65 -45 73 -45Q76 -45 79 -45Q104 -45 122 -54Q138 -84 138 -133Q138 -187 119 -254Q110 -254 101 -254Q46 -254 24 -275L-12 -311Q-23 -322 -23 -339Q-23 -342 -22 -346Q-22 -363 -16 -384.5Q-10 -406 2 -418L37 -453Q46 -462 58 -462Q65 -462 73 -455L108 -419Q118 -410 134 -379Q138 -372 147 -357.5Q156 -343 161 -331Q193 -337 221 -348L230 -400Q232 -414 265 -435Q267 -436 269 -439Q271 -442 273.5 -443Q276 -444 280 -444ZM48 -332Q67 -325 94 -324Q83 -347 74 -361Q73 -362 57 -391Q48 -368 48 -346Q48 -342 48 -338.5Q48 -335 48 -332Z"/>
	<path fill="#daa520" d="M287 -414Q289 -414 292.5 -414Q296 -414 298 -414Q308 -414 311 -408Q313 -404 313 -394Q313 -362 278 -335Q272 -331 265 -327L271 -169L283 -84L329 -12L397 -18L414 -77Q414 -78 415 -78L421 -90Q422 -93 425 -93Q430 -93 430 -88Q430 -87 429 -86L424 -74L406 -12Q405 -8 401 -8L326 -2Q323 -2 322 -4L274 -79Q273 -80 273 -81L261 -168V-169L255 -321Q213 -297 156 -288Q185 -204 185 -133Q185 -76 162 -40.5Q139 -5 86 -5Q82 -5 80 -5Q67 -5 56.5 -10Q46 -15 37.5 -26Q29 -37 25 -44Q21 -51 14 -65Q6 -84 1 -91Q0 -92 0 -94Q0 -99 5 -99Q8 -99 9 -97Q14 -90 25.5 -65Q37 -40 49 -27.5Q61 -15 80 -15Q81 -15 83 -15Q85 -15 86 -15Q175 -15 175 -133Q175 -203 146 -286Q126 -284 108 -284Q67 -284 40.5 -297Q14 -310 14 -339Q14 -342 15 -346Q15 -374 28 -403Q41 -432 65 -432Q76 -432 88 -417Q96 -407 110 -382Q117 -368 120 -364Q136 -341 152 -298Q212 -307 255 -332L267 -401Q267 -403 269 -404Q271 -405 273.5 -408Q276 -411 279 -412.5Q282 -414 287 -414ZM25 -346Q25 -345 24.5 -342.5Q24 -340 24 -339Q24 -317 47 -305.5Q70 -294 108 -294Q124 -294 142 -296Q127 -337 112 -358Q109 -363 101 -377Q88 -401 80 -411Q71 -422 65 -422Q46 -422 35.5 -395.5Q25 -369 25 -346ZM287 -404Q284 -404 281 -401Q278 -399 277 -397L267 -339Q269 -341 272 -343Q303 -367 303 -394L302 -404Q301 -404 298 -404Q296 -404 292.5 -404Q289 -404 287 -404Z"/>
</svg>