<svg xmlns="http://www.w3.org/2000/svg" viewBox="0 -1024 1024 1024">
	<path fill="#000088" d="M123 -97Q124 -97 126 -96.5Q128 -96 129 -96Q134 -96 138 -92Q139 -91 141.5 -88.5Q144 -86 145 -85Q146 -84 148 -82.5Q150 -81 152 -80.5Q154 -80 157 -79Q160 -78 163 -78Q182 -78 213 -98Q209 -109 202 -118Q190 -128 165.5 -143.5Q141 -159 131 -166Q74 -118 30.5 -90Q-13 -62 -45 -62H-49Q-64 -62 -74 -72Q-84 -82 -84 -97Q-84 -112 -74 -122Q-64 -132 -49 -132H-45Q0 -132 90 -203L67 -225Q36 -257 36 -297Q36 -361 64 -389L99 -425Q111 -436 127 -442Q131 -442 139.5 -442.5Q148 -443 152 -443Q180 -443 193 -436L229 -406Q264 -377 264 -371L266 -313L250 -269Q245 -253 215 -234Q201 -224 178 -206Q208 -187 223 -171L258 -136Q263 -131 267 -127L299 -136Q304 -138 309 -138Q323 -138 333 -128Q343 -118 343 -104Q343 -93 336 -84Q329 -75 318 -71Q299 -66 290 -63Q290 -34 268 -11L233 24Q220 36 207 36Q152 36 127 12L92 -24Q80 -36 80 -53Q80 -58 81 -60L117 -95Q118 -97 123 -97ZM127 -372Q123 -370 120 -368Q106 -342 106 -297Q106 -267 123 -243Q127 -240 131 -237Q177 -276 184 -281L196 -313L194 -365L193 -366Q180 -372 152 -372Q148 -372 139.5 -372Q131 -372 127 -372Z"/>
	<path fill="#800080" d="M173 -97Q174 -97 176 -96.5Q178 -96 179 -96Q184 -96 188 -92Q189 -91 191.5 -88.5Q194 -86 195 -85Q196 -84 198 -82.5Q200 -81 202 -80.5Q204 -80 207 -79Q210 -78 213 -78Q232 -78 263 -98Q259 -109 252 -118Q240 -128 215.5 -143.5Q191 -159 181 -166Q124 -118 80.5 -90Q37 -62 5 -62H1Q-14 -62 -24 -72Q-34 -82 -34 -97Q-34 -112 -24 -122Q-14 -132 1 -132H5Q50 -132 140 -203L117 -225Q86 -257 86 -297Q86 -361 114 -389L149 -425Q161 -436 177 -442Q181 -442 189.5 -442.5Q198 -443 202 -443Q230 -443 243 -436L279 -406Q314 -377 314 -371L316 -313L300 -269Q295 -253 265 -234Q251 -224 228 -206Q258 -187 273 -171L308 -136Q313 -131 317 -127L349 -136Q354 -138 359 -138Q373 -138 383 -128Q393 -118 393 -104Q393 -93 386 -84Q379 -75 368 -71Q349 -66 340 -63Q340 -34 318 -11L283 24Q270 36 257 36Q202 36 177 12L142 -24Q130 -36 130 -53Q130 -58 131 -60L167 -95Q168 -97 173 -97ZM177 -372Q173 -370 170 -368Q156 -342 156 -297Q156 -267 173 -243Q177 -240 181 -237Q227 -276 234 -281L246 -313L244 -365L243 -366Q230 -372 202 -372Q198 -372 189.5 -372Q181 -372 177 -372Z"/>
	<path fill="#daa520" d="M197 -66Q198 -66 200 -66Q202 -66 203 -66Q211 -66 219 -57Q227 -48 237 -48Q249 -48 264 -55.5Q279 -63 295.5 -74.5Q312 -86 320 -89Q315 -107 300 -124Q285 -141 272 -150.5Q259 -160 234 -177Q214 -189 206 -195Q169 -164 143.5 -145Q118 -126 85 -109Q52 -92 29 -92H25Q20 -92 20 -97Q20 -102 25 -102H29Q78 -102 197 -201Q140 -244 140 -297Q140 -388 199 -412Q200 -412 201 -412Q205 -412 213.5 -412Q222 -412 226 -412Q255 -412 269 -406Q270 -405 270 -405L306 -375Q308 -373 308 -371L310 -313Q310 -312 310 -311L294 -267Q293 -266 292 -265Q274 -253 213 -202Q222 -196 240 -184.5Q258 -173 269 -165.5Q280 -158 293.5 -146Q307 -134 316 -121Q325 -108 330 -93Q331 -94 372 -106Q372 -106 373 -106Q378 -106 378 -101Q378 -97 374 -96L334 -84Q333 -84 332 -83Q334 -74 334 -63Q334 -40 318 -17Q302 6 281 6Q246 6 215 -7.5Q184 -21 184 -53Q184 -61 189 -64Q191 -66 197 -66ZM150 -297Q150 -248 205 -208Q268 -261 285 -272L300 -314L298 -369L264 -397Q252 -402 226 -402Q222 -402 214 -402Q206 -402 202 -402Q150 -381 150 -297ZM194 -56ZM197 -56Q194 -56 194 -56Q194 -56 194 -53Q194 -28 221.5 -16Q249 -4 281 -4Q297 -4 310.5 -23.5Q324 -43 324 -63Q324 -71 323 -79Q314 -75 298 -64Q259 -38 237 -38Q223 -38 211 -50Q206 -56 203 -56Q202 -56 200 -56Q198 -56 197 -56Z"/>
</svg>