<svg xmlns="http://www.w3.org/2000/svg" viewBox="0 -1024 1024 1024">
	<path fill="#000088" d="M123 -97Q124 -97 126 -96.5Q128 -96 129 -96Q134 -96 138 -92Q139 -91 141.5 -88.5Q144 -86 145 -85Q146 -84 148 -82.5Q150 -81 152 -80.5Q154 -80 157 -79Q160 -78 163 -78Q182 -78 213 -98Q209 -109 202 -118Q190 -128 165.5 -143.5Q141 -159 131 -166Q74 -118 30.5 -90Q-13 -62 -45 -62H-49Q-64 -62 -74 -72Q-84 -82 -84 -97Q-84 -112 -74 -122Q-64 -132 -49 -132H-45Q0 -132 90 -203L67 -225Q36 -257 36 -297Q36 -361 64 -389L99 -425Q111 -436 127 -442Q131 -442 139.5 -442.5Q148 -443 152 -443Q180 -443 193 -436L229 -406Q264 -377 264 -371L266 -313L250 -269Q245 -253 215 -234Q201 -224 178 -206Q208 -187 223 -171L258 -136Q263 -131 267 -127L299 -136Q304 -138 309 -138Q323 -138 333 -128Q343 -118 343 -104Q343 -93 336 -84Q329 -75 318 -71Q299 -66 290 -63Q290 -34 268 -11L233 24Q220 36 207 36Q152 36 127 12L92 -24Q80 -36 80 -53Q80 -58 81 -60L117 -95Q118 -97 123 -97ZM127 -372Q123 -370 120 -368Q106 -342 106 -297Q106 -267 123 -243Q127 -240 131 -237Q177 -276 184 -281L196 -313L194 -365L193 -366Q180 -372 152 -372Q148 -372 139.5 -372Q131 -372 127 -372Z"/>
	<path fill="#800080" d="M173 -97Q174 -97 176 -96.5Q178 -96 179 -96Q184 -96 188 -92Q189 -91 191.5 -88.5Q194 -86 195 -85Q196 -84 198 -82.5Q200 -81 202 -80.5Q204 -80 207 -79Q210 -78 213 -78Q232 -78 263 -98Q259 -109 252 -118Q240 -128 215.5 -143.5Q191 -159 181 -166Q124 -118 80.5 -90Q37 -62 5 -62H1Q-14 -62 -24 -72Q-34 -82 -34 -97Q-34 -112 -24 -122Q-14 -132 1 -132H5Q50 -132 140 -203L117 -225Q86 -257 86 -297Q86 -361 114 -389L149 -425Q161 -436 177 -442Q181 -442 189.5 -442.5Q198 -443 202 -443Q230 -443 243 -436L279 -406Q314 -377 314 -371L316 -313L300 -269Q295 -253 265 -234Q251 -224 228 -206Q258 -187 273 -171L308 -136Q313 -131 317 -127L349 -136Q354 -138 359 -138Q373 -138 383 -128Q393 -118 393 -104Q393 -93 386 -84Q379 -75 368 -71Q349 -66 340 -63Q340 -34 318 -11L283 24Q270 36 257 36Q202 36 177 12L142 -24Q130 -36 130 -53Q130 -58 131 -60L167 -95Q168 -97 173 -97ZM177 -372Q173 -370 170 -368Q156 -342 156 -297Q156 -267 173 -243Q177 -240 181 -237Q227 -276 234 -281L246 -313L244 -365L243 -366Q230 -372 202 -372Q198 -372 189.5 -372Q181 -372 177 -372Z"/>
	<path fill="#daa520" d="M177 -66Q178 -66 180 -66Q182 -66 183 -66Q191 -66 199 -57Q207 -48 217 -48Q229 -48 244 -55.5Q259 -63 275.5 -74.5Q292 -86 300 -89Q295 -107 280 -124Q265 -141 252 -150.5Q239 -160 214 -177Q194 -189 186 -195Q149 -164 123.5 -145Q98 -126 65 -109Q32 -92 9 -92H5Q0 -92 0 -97Q0 -102 5 -102H9Q58 -102 177 -201Q120 -244 120 -297Q120 -388 179 -412Q180 -412 181 -412Q185 -412 193.5 -412Q202 -412 206 -412Q235 -412 249 -406Q250 -405 250 -405L286 -375Q288 -373 288 -371L290 -313Q290 -312 290 -311L274 -267Q273 -266 272 -265Q254 -253 193 -202Q202 -196 220 -184.5Q238 -173 249 -165.5Q260 -158 273.5 -146Q287 -134 296 -121Q305 -108 310 -93Q311 -94 352 -106Q352 -106 353 -106Q358 -106 358 -101Q358 -97 354 -96L314 -84Q313 -84 312 -83Q314 -74 314 -63Q314 -40 298 -17Q282 6 261 6Q226 6 195 -7.5Q164 -21 164 -53Q164 -61 169 -64Q171 -66 177 -66ZM130 -297Q130 -248 185 -208Q248 -261 265 -272L280 -314L278 -369L244 -397Q232 -402 206 -402Q202 -402 194 -402Q186 -402 182 -402Q130 -381 130 -297ZM174 -56ZM177 -56Q174 -56 174 -56Q174 -56 174 -53Q174 -28 201.5 -16Q229 -4 261 -4Q277 -4 290.5 -23.5Q304 -43 304 -63Q304 -71 303 -79Q294 -75 278 -64Q239 -38 217 -38Q203 -38 191 -50Q186 -56 183 -56Q182 -56 180 -56Q178 -56 177 -56Z"/>
</svg>