<svg xmlns="http://www.w3.org/2000/svg" viewBox="0 -1024 1024 1024">
	<path fill="#000088" d="M35 -545Q25 -545 6 -551Q-13 -557 -23 -557H-27Q-42 -557 -52 -567Q-62 -577 -62 -592Q-62 -607 -52 -617Q-42 -627 -27 -627H-23Q-13 -627 6 -621Q25 -615 35 -615Q57 -615 100.5 -625Q144 -635 165 -635H169L286 -567Q301 -559 301 -541Q301 -528 292 -519Q283 -510 270 -510Q262 -510 255 -515L169 -565H165Q144 -565 100.5 -555Q57 -545 35 -545ZM219 23Q215 23 207.5 23Q200 23 197 23Q170 23 156.5 20.5Q143 18 134 8L98 -27Q90 -35 82 -52L76 -92L67 -191Q40 -146 6 -112L-29 -77Q-40 -66 -51 -57Q-59 -50 -68 -50Q-80 -50 -88 -58Q-96 -66 -96 -78Q-96 -90 -86 -98Q-49 -129 -47 -131Q20 -208 54 -323L52 -346Q44 -394 36 -446L28 -524L24 -626L30 -696L40 -772Q41 -780 74 -807L83 -815Q87 -819 91 -819Q95 -819 99 -816L135 -780Q154 -761 154 -640Q154 -584 149 -495Q148 -479 148 -476Q146 -399 124 -323Q126 -304 130.5 -266.5Q135 -229 136 -210L146 -92L152 -52Q153 -52 153 -51Q165 -47 197 -47Q200 -47 207.5 -47Q215 -47 219 -47Q237 -47 251 -60Q257 -70 267.5 -92Q278 -114 284 -124Q293 -142 312 -142Q325 -142 334.5 -132.5Q344 -123 344 -110Q344 -103 340 -96L320 -56Q312 -39 285 -21Q283 -19 280 -17L259 4Q240 23 219 23Z"/>
	<path fill="#800080" d="M85 -545Q75 -545 56 -551Q37 -557 27 -557H23Q8 -557 -2 -567Q-12 -577 -12 -592Q-12 -607 -2 -617Q8 -627 23 -627H27Q37 -627 56 -621Q75 -615 85 -615Q107 -615 150.5 -625Q194 -635 215 -635H219L336 -567Q351 -559 351 -541Q351 -528 342 -519Q333 -510 320 -510Q312 -510 305 -515L219 -565H215Q194 -565 150.5 -555Q107 -545 85 -545ZM269 23Q265 23 257.5 23Q250 23 247 23Q220 23 206.5 20.5Q193 18 184 8L148 -27Q140 -35 132 -52L126 -92L117 -191Q90 -146 56 -112L21 -77Q10 -66 -1 -57Q-9 -50 -18 -50Q-30 -50 -38 -58Q-46 -66 -46 -78Q-46 -90 -36 -98Q1 -129 3 -131Q70 -208 104 -323L102 -346Q94 -394 86 -446L78 -524L74 -626L80 -696L90 -772Q91 -780 124 -807L133 -815Q137 -819 141 -819Q145 -819 149 -816L185 -780Q204 -761 204 -640Q204 -584 199 -495Q198 -479 198 -476Q196 -399 174 -323Q176 -304 180.5 -266.5Q185 -229 186 -210L196 -92L202 -52Q203 -52 203 -51Q215 -47 247 -47Q250 -47 257.5 -47Q265 -47 269 -47Q287 -47 301 -60L334 -124Q343 -142 362 -142Q375 -142 384.5 -132.5Q394 -123 394 -110Q394 -103 390 -96L370 -56Q362 -39 335 -21Q333 -19 330 -17L309 4Q290 23 269 23Z"/>
	<path fill="#daa520" d="M111 -575Q100 -575 81.5 -581Q63 -587 53 -587H49Q44 -587 44 -592Q44 -597 49 -597H53Q63 -597 82 -591Q101 -585 111 -585Q132 -585 176 -595Q220 -605 241 -605H245Q246 -605 248 -604L334 -554Q336 -553 336 -550Q336 -545 331 -545Q330 -545 328 -546L244 -595H241Q222 -595 180 -585Q134 -575 111 -575ZM167 -779Q166 -779 156 -769L146 -695L140 -626L144 -524L152 -447Q160 -397 167 -351Q182 -413 184 -476Q184 -479 185 -496Q190 -584 190 -640Q190 -711 183 -747Q177 -779 167 -779ZM295 -17Q308 -17 318.5 -24Q329 -31 340 -43Q351 -55 357 -59L377 -98Q378 -101 381 -101Q386 -101 386 -96Q386 -95 385 -94L365 -54Q365 -53 364 -52Q357 -47 345.5 -34.5Q334 -22 322.5 -14.5Q311 -7 295 -7Q291 -7 283.5 -7Q276 -7 273 -7Q232 -7 217 -15Q201 -24 189 -50Q188 -50 188 -51L182 -91V-92Q169 -239 166 -257Q166 -257 162 -298Q117 -162 28 -88Q27 -87 25 -87Q20 -87 20 -92Q20 -94 22 -96Q117 -175 160 -324L158 -345Q150 -393 142 -445L134 -523Q134 -524 134 -524L130 -626L136 -696Q136 -697 136 -697L146 -773Q146 -775 147.5 -776Q149 -777 152.5 -781Q156 -785 159 -787Q162 -789 167 -789Q185 -789 193 -749Q200 -712 200 -640Q200 -583 195 -495Q194 -479 194 -476Q192 -398 170 -323L176 -259Q178 -232 183.5 -176.5Q189 -121 192 -93L198 -54Q209 -31 221.5 -24Q234 -17 273 -17Q276 -17 283.5 -17Q291 -17 295 -17Z"/>
</svg>