<svg xmlns="http://www.w3.org/2000/svg" viewBox="0 -1024 1024 1024">
	<path fill="#000088" d="M35 -545Q25 -545 6 -551Q-13 -557 -23 -557H-27Q-42 -557 -52 -567Q-62 -577 -62 -592Q-62 -607 -52 -617Q-42 -627 -27 -627H-23Q-13 -627 6 -621Q25 -615 35 -615Q57 -615 100.5 -625Q144 -635 165 -635H169L286 -567Q301 -559 301 -541Q301 -528 292 -519Q283 -510 270 -510Q262 -510 255 -515L169 -565H165Q144 -565 100.5 -555Q57 -545 35 -545ZM219 23Q215 23 207.5 23Q200 23 197 23Q170 23 156.5 20.5Q143 18 134 8L98 -27Q90 -35 82 -52L76 -92L67 -191Q40 -146 6 -112L-29 -77Q-40 -66 -51 -57Q-59 -50 -68 -50Q-80 -50 -88 -58Q-96 -66 -96 -78Q-96 -90 -86 -98Q-49 -129 -47 -131Q20 -208 54 -323L52 -346Q44 -394 36 -446L28 -524L24 -626L30 -696L40 -772Q41 -780 74 -807L83 -815Q87 -819 91 -819Q95 -819 99 -816L135 -780Q154 -761 154 -640Q154 -584 149 -495Q148 -479 148 -476Q146 -399 124 -323Q126 -304 130.5 -266.5Q135 -229 136 -210L146 -92L152 -52Q153 -52 153 -51Q165 -47 197 -47Q200 -47 207.5 -47Q215 -47 219 -47Q237 -47 251 -60Q257 -70 267.5 -92Q278 -114 284 -124Q293 -142 312 -142Q325 -142 334.5 -132.5Q344 -123 344 -110Q344 -103 340 -96L320 -56Q312 -39 285 -21Q283 -19 280 -17L259 4Q240 23 219 23Z"/>
	<path fill="#800080" d="M85 -545Q75 -545 56 -551Q37 -557 27 -557H23Q8 -557 -2 -567Q-12 -577 -12 -592Q-12 -607 -2 -617Q8 -627 23 -627H27Q37 -627 56 -621Q75 -615 85 -615Q107 -615 150.5 -625Q194 -635 215 -635H219L336 -567Q351 -559 351 -541Q351 -528 342 -519Q333 -510 320 -510Q312 -510 305 -515L219 -565H215Q194 -565 150.5 -555Q107 -545 85 -545ZM269 23Q265 23 257.5 23Q250 23 247 23Q220 23 206.5 20.5Q193 18 184 8L148 -27Q140 -35 132 -52L126 -92L117 -191Q90 -146 56 -112L21 -77Q10 -66 -1 -57Q-9 -50 -18 -50Q-30 -50 -38 -58Q-46 -66 -46 -78Q-46 -90 -36 -98Q1 -129 3 -131Q70 -208 104 -323L102 -346Q94 -394 86 -446L78 -524L74 -626L80 -696L90 -772Q91 -780 124 -807L133 -815Q137 -819 141 -819Q145 -819 149 -816L185 -780Q204 -761 204 -640Q204 -584 199 -495Q198 -479 198 -476Q196 -399 174 -323Q176 -304 180.5 -266.5Q185 -229 186 -210L196 -92L202 -52Q203 -52 203 -51Q215 -47 247 -47Q250 -47 257.5 -47Q265 -47 269 -47Q287 -47 301 -60Q307 -70 317.5 -92Q328 -114 334 -124Q343 -142 362 -142Q375 -142 384.5 -132.5Q394 -123 394 -110Q394 -103 390 -96L370 -56Q362 -39 335 -21Q333 -19 330 -17L309 4Q290 23 269 23Z"/>
	<path fill="#daa520" d="M91 -575Q80 -575 61.5 -581Q43 -587 33 -587H29Q24 -587 24 -592Q24 -597 29 -597H33Q43 -597 62 -591Q81 -585 91 -585Q112 -585 156 -595Q200 -605 221 -605H225Q226 -605 228 -604L314 -554Q316 -553 316 -550Q316 -545 311 -545Q310 -545 308 -546L224 -595H221Q202 -595 160 -585Q114 -575 91 -575ZM147 -779Q146 -779 136 -769L126 -695L120 -626L124 -524L132 -447Q140 -397 147 -351Q162 -413 164 -476Q164 -479 165 -496Q170 -584 170 -640Q170 -711 163 -747Q157 -779 147 -779ZM275 -17Q288 -17 298.5 -24Q309 -31 320 -43Q331 -55 337 -59L357 -98Q358 -101 361 -101Q366 -101 366 -96Q366 -95 365 -94L345 -54Q345 -53 344 -52Q337 -47 325.5 -34.5Q314 -22 302.5 -14.5Q291 -7 275 -7Q271 -7 263.5 -7Q256 -7 253 -7Q212 -7 197 -15Q181 -24 169 -50Q168 -50 168 -51L162 -91V-92Q149 -239 146 -257Q146 -257 142 -298Q97 -162 8 -88Q7 -87 5 -87Q0 -87 0 -92Q0 -94 2 -96Q97 -175 140 -324L138 -345Q130 -393 122 -445L114 -523Q114 -524 114 -524L110 -626L116 -696Q116 -697 116 -697L126 -773Q126 -775 127.5 -776Q129 -777 132.5 -781Q136 -785 139 -787Q142 -789 147 -789Q165 -789 173 -749Q180 -712 180 -640Q180 -583 175 -495Q174 -479 174 -476Q172 -398 150 -323L156 -259Q158 -232 163.5 -176.5Q169 -121 172 -93L178 -54Q189 -31 201.5 -24Q214 -17 253 -17Q256 -17 263.5 -17Q271 -17 275 -17Z"/>
</svg>