<svg xmlns="http://www.w3.org/2000/svg" viewBox="0 -1024 1024 1024">
	<path fill="#000088" d="M272 -334Q272 -313 274 -267.5Q276 -222 276 -198Q276 -191 276 -185Q278 -176 287.5 -121Q297 -66 308 -42Q312 -41 317 -41Q318 -41 319 -41Q325 -40 330 -40Q335 -40 339 -41Q348 -59 362 -113Q365 -124 374 -131.5Q383 -139 395 -139Q409 -139 419 -129Q429 -119 429 -105Q429 -100 428 -96Q413 -36 394 -17L359 18Q346 31 330 31Q325 31 319 29Q318 29 317 29Q301 29 288 17L253 -18Q249 -23 245 -29Q240 -22 235 -17L200 19Q181 37 154 37Q145 37 135 35Q132 36 129 36Q100 36 78 13L43 -22Q11 -54 3 -111Q-1 -106 -5 -102L-41 -67Q-55 -52 -67 -52Q-77 -52 -85 -59.5Q-93 -67 -93 -78Q-93 -90 -84 -97L-61 -119Q-29 -157 -8 -212Q-10 -233 -10 -256Q-10 -337 10 -426Q13 -441 23 -451Q33 -461 45 -461Q48 -461 50 -459L85 -424Q94 -415 94 -378Q94 -362 92 -350Q84 -271 62 -212Q65 -177 72 -146Q72 -142 72 -137Q72 -84 97 -43Q112 -35 129 -35Q132 -35 135 -35Q145 -33 154 -33Q168 -33 180 -39Q204 -84 205 -185Q202 -197 193 -229.5Q184 -262 180 -280L170 -326L168 -402Q169 -404 173 -411.5Q177 -419 180 -422L215 -457Q217 -459 219 -459L255 -424Q256 -422 261 -406.5Q266 -391 266 -388V-376Q266 -372 269 -365.5Q272 -359 272 -356Z"/>
	<path fill="#800080" d="M322 -334Q322 -313 324 -267.5Q326 -222 326 -198Q326 -191 326 -185Q328 -176 337.5 -121Q347 -66 358 -42Q362 -41 367 -41Q368 -41 369 -41Q375 -40 380 -40Q385 -40 389 -41Q398 -59 412 -113Q415 -124 424 -131.5Q433 -139 445 -139Q459 -139 469 -129Q479 -119 479 -105Q479 -100 478 -96Q463 -36 444 -17L409 18Q396 31 380 31Q375 31 369 29Q368 29 367 29Q351 29 338 17L303 -18Q299 -23 295 -29Q290 -22 285 -17L250 19Q231 37 204 37Q195 37 185 35Q182 36 179 36Q150 36 128 13L93 -22Q61 -54 53 -111Q49 -106 45 -102L9 -67Q-5 -52 -17 -52Q-27 -52 -35 -59.5Q-43 -67 -43 -78Q-43 -90 -34 -97L-11 -119Q21 -157 42 -212Q40 -233 40 -256Q40 -337 60 -426Q63 -441 73 -451Q83 -461 95 -461Q98 -461 100 -459L135 -424Q144 -415 144 -378Q144 -362 142 -350Q134 -271 112 -212Q115 -177 122 -146Q122 -142 122 -137Q122 -84 147 -43Q162 -35 179 -35Q182 -35 185 -35Q195 -33 204 -33Q218 -33 230 -39Q254 -84 255 -185Q252 -197 243 -229.5Q234 -262 230 -280L220 -326L218 -402Q219 -404 223 -411.5Q227 -419 230 -422L265 -457Q267 -459 269 -459L305 -424Q306 -422 311 -406.5Q316 -391 316 -388V-376Q316 -372 319 -365.5Q322 -359 322 -356Z"/>
	<path fill="#daa520" d="M122 -417Q104 -333 104 -256Q104 -247 105 -239Q119 -288 126 -351Q127 -362 127 -378Q127 -407 122 -417ZM300 -376V-388Q297 -400 291 -416Q289 -414 286 -408Q283 -402 282 -401L284 -327L294 -281Q296 -271 309 -224Q309 -238 307.5 -276.5Q306 -315 306 -334V-356Q306 -358 304 -364Q300 -371 300 -376ZM116 -137Q116 -87 140 -46Q164 -5 203 -5Q204 -5 206 -5Q208 -5 209 -5Q209 -5 210 -5Q219 -3 228 -3Q307 -3 309 -184Q305 -201 296.5 -233Q288 -265 284 -279L274 -325Q274 -325 274 -326L272 -402Q272 -403 273 -405Q274 -407 277.5 -413Q281 -419 283 -422Q288 -429 293 -429Q295 -429 297 -427Q298 -426 300 -423Q310 -398 310 -388V-376Q310 -373 313 -366.5Q316 -360 316 -356V-334Q316 -313 317.5 -267.5Q319 -222 319 -198Q319 -192 319 -186Q324 -166 329 -137Q339 -70 351 -44Q367 -11 391 -11Q391 -11 392 -11Q393 -11 393 -11Q394 -11 394 -11Q399 -10 404 -10Q416 -10 426 -17.5Q436 -25 443 -40.5Q450 -56 454 -68Q458 -80 462 -97Q463 -101 467 -101Q472 -101 472 -96Q472 -95 472 -95Q468 -79 466 -71.5Q464 -64 457.5 -47.5Q451 -31 444.5 -22.5Q438 -14 427.5 -7Q417 0 404 0Q393 -1 393 -1Q392 -1 391 -1Q388 -4 376.5 -9.5Q365 -15 356 -22.5Q347 -30 342 -40Q330 -67 318 -143Q308 7 228 7Q209 5 209 5Q206 5 203 5Q158 5 132 -39.5Q106 -84 106 -137Q106 -141 106 -146Q101 -167 98 -191Q72 -130 28 -90Q27 -89 25 -89Q20 -89 20 -94Q20 -96 22 -98Q69 -141 96 -213Q94 -234 94 -256Q94 -338 114 -427Q115 -431 119 -431Q129 -431 134 -415Q137 -402 137 -378Q137 -362 136 -349Q128 -270 106 -211Q109 -177 116 -147Q116 -147 116 -146Q116 -145 116 -142Q116 -139 116 -137Z"/>
</svg>