<svg xmlns="http://www.w3.org/2000/svg" viewBox="0 -1024 1024 1024">
	<path fill="#000088" d="M82 -453Q101 -453 115.5 -445Q130 -437 134 -423Q136 -417 145 -408Q154 -399 155 -397Q176 -365 176 -364Q186 -349 187 -332Q190 -325 192.5 -306Q195 -287 200 -278Q204 -258 218 -222Q232 -186 236 -174L245 -142Q248 -100 250 -66Q252 -69 255 -73Q261 -84 271.5 -104Q282 -124 286 -132Q301 -161 305 -177L310 -213Q270 -250 251 -283Q230 -315 228 -342Q225 -366 225 -369Q225 -380 229 -386L264 -446Q268 -454 278 -455Q295 -455 313 -445L336 -432Q338 -430 341 -429Q390 -409 393 -399L400 -378L402 -304Q402 -300 400 -277.5Q398 -255 397 -243Q424 -218 427 -209L467 -158L503 -116L506 -108L420 -76Q418 -81 416 -86Q371 -139 365 -147Q339 -98 329 -79Q312 -43 294 -18Q292 -15 280.5 4Q269 23 260 32Q251 41 239 44Q238 44 226 43Q187 40 174 13L164 -7Q161 -83 158 -112Q151 -138 149 -144Q145 -156 131 -191.5Q117 -227 113 -248Q109 -257 106 -275.5Q103 -294 100 -302Q100 -310 97 -318Q95 -309 92.5 -289Q90 -269 88 -259Q87 -253 80.5 -213.5Q74 -174 72 -152Q70 -147 68.5 -133Q67 -119 63 -112L62 -110V-78H43L28 -51L43 -78H-25V-80Q-25 -83 -20 -92Q-19 -95 -18 -105.5Q-17 -116 -15 -122Q-13 -143 -6.5 -183Q0 -223 1 -229Q3 -239 6 -262Q9 -285 12 -297Q13 -324 20 -341Q25 -368 28 -374L63 -434Q66 -440 71 -443Q72 -444 75.5 -448.5Q79 -453 82 -453Z"/>
	<path fill="#800080" d="M35 -93Q35 -78 25 -68Q15 -58 0 -58Q-15 -58 -25 -68Q-35 -78 -35 -93V-95Q-31 -102 -29 -117Q-27 -132 -25 -137Q-23 -158 -16.5 -198Q-10 -238 -9 -244Q-7 -254 -4 -277Q-1 -300 2 -312Q3 -339 10 -356Q10 -358 11 -366.5Q12 -375 13 -378Q14 -381 16.5 -386.5Q19 -392 22 -395Q29 -402 29 -402Q31 -405 32 -406L68 -441Q70 -443 72 -443Q83 -443 92.5 -433.5Q102 -424 107 -408Q109 -402 118 -392.5Q127 -383 128 -382Q149 -350 149 -349Q160 -334 160 -317Q163 -310 166 -291Q169 -272 173 -263Q178 -243 192 -207Q206 -171 209 -159L218 -127Q222 -86 223 -50Q228 -58 232 -63Q236 -72 276 -147Q291 -176 295 -192L300 -228L289 -238Q258 -270 241 -298Q220 -331 218 -357Q215 -382 215 -384Q215 -398 221 -405L256 -440Q261 -444 268 -445Q280 -445 290.5 -441Q301 -437 312.5 -429.5Q324 -422 331 -419Q358 -408 366 -384L373 -363L375 -289Q375 -285 373.5 -262.5Q372 -240 370 -229L386 -213Q397 -202 400 -194L440 -143L476 -101Q481 -87 481 -81Q481 -68 471.5 -58Q462 -48 448 -48Q425 -48 417 -70L406 -101Q361 -154 354 -163Q350 -153 333 -122Q312 -84 302 -63Q300 -60 288.5 -41Q277 -22 269 -14L233 22Q223 32 212 34Q211 34 199 33Q181 32 164 -2L154 -22Q150 -99 148 -127Q140 -154 139 -159Q135 -171 121 -207Q107 -243 103 -263Q98 -272 95 -291Q92 -310 90 -317Q89 -334 79 -349Q78 -349 78 -350Q74 -334 72 -312Q70 -300 66.5 -277Q63 -254 61 -244Q60 -238 54 -198Q48 -158 45 -137Q43 -132 41.5 -117Q40 -102 35 -95ZM302 -365Q293 -370 286 -372Q287 -369 287.5 -364Q288 -359 288 -357Q290 -335 304 -310L303 -363Z"/>
	<path fill="#daa520" d="M102 -410Q103 -404 112 -395.5Q121 -387 122 -385Q123 -383 125.5 -379.5Q128 -376 129 -374Q139 -360 143 -351Q154 -336 155 -318Q157 -311 160 -292Q163 -273 167 -265Q168 -265 168 -264Q172 -244 186 -208.5Q200 -173 204 -160Q213 -131 213 -127Q216 -98 219 -23L227 -7Q233 -6 236 -6Q247 -9 255 -17.5Q263 -26 274.5 -44.5Q286 -63 288 -66Q292 -74 332 -149Q346 -178 350 -193L355 -226Q316 -263 297 -295Q276 -329 273 -356Q270 -381 270 -384Q270 -412 292 -415Q293 -415 293 -415Q306 -415 317 -410.5Q328 -406 339.5 -398.5Q351 -391 358 -389Q360 -388 361 -386L368 -365Q368 -364 368 -363L370 -289L366 -235Q366 -234 365 -230Q390 -206 394 -197L434 -146L470 -104Q470 -104 471 -103L474 -95Q474 -94 474 -93Q474 -88 469 -88Q466 -88 462 -98L426 -140L386 -191Q386 -192 385 -192Q382 -200 364 -218L360 -191Q356 -174 340 -145Q301 -70 297 -61Q296 -60 296 -60Q294 -57 282.5 -37.5Q271 -18 261.5 -8.5Q252 1 238 4Q238 4 237 4Q236 4 224 3Q221 3 220 0L210 -20Q209 -21 209 -22Q205 -98 203 -126Q196 -153 194 -158Q190 -170 176.5 -205.5Q163 -241 158 -261Q154 -271 151 -289.5Q148 -308 145 -315Q145 -316 145 -317Q144 -332 135 -346Q135 -347 134 -347Q134 -348 114 -379Q112 -382 105 -389Q98 -396 95 -401Q89 -394 89 -394Q86 -392 83.5 -388.5Q81 -385 80 -380.5Q79 -376 78 -373Q77 -370 76 -364Q75 -358 75 -355Q75 -355 75 -354Q68 -338 67 -312Q67 -311 67 -311Q64 -299 61 -276Q58 -253 56 -243Q55 -237 48.5 -197.5Q42 -158 40 -136Q40 -136 40 -135Q38 -130 36.5 -115.5Q35 -101 30 -94V-93Q30 -88 25 -88Q20 -88 20 -93V-95Q20 -97 21 -98Q25 -104 26.5 -118.5Q28 -133 30 -138Q32 -160 38.5 -199Q45 -238 46 -245Q48 -255 51 -278Q54 -301 57 -313Q59 -340 65 -357Q66 -360 66.5 -367Q67 -374 68 -377Q69 -380 70.5 -385.5Q72 -391 75.5 -395Q79 -399 83 -402Q84 -403 86 -406Q88 -409 90.5 -411Q93 -413 97 -413Q101 -413 102 -410ZM280 -384Q280 -382 283 -357.5Q286 -333 305 -301Q323 -271 356 -238L360 -289L358 -362L352 -380Q346 -383 335 -390Q324 -397 314 -401Q304 -405 293 -405Q280 -403 280 -384Z"/>
</svg>