<svg xmlns="http://www.w3.org/2000/svg" viewBox="0 -1024 1024 1024">
	<path fill="#000088" d="M-15 -93Q-15 -78 -25 -68Q-35 -58 -50 -58Q-65 -58 -75 -68Q-85 -78 -85 -93V-95Q-81 -102 -79 -117Q-77 -132 -75 -137Q-73 -158 -66.5 -198Q-60 -238 -59 -244Q-57 -254 -54 -277Q-51 -300 -48 -312Q-47 -339 -40 -356Q-40 -358 -39 -366.5Q-38 -375 -37 -378Q-36 -381 -33.5 -386.5Q-31 -392 -28 -395Q-21 -402 -21 -402Q-19 -405 -18 -406L18 -441Q20 -443 22 -443Q33 -443 42.5 -433.5Q52 -424 57 -408Q59 -402 68 -392.5Q77 -383 78 -382Q99 -350 99 -349Q110 -334 110 -317Q113 -310 116 -291Q119 -272 123 -263Q128 -243 142 -207Q156 -171 159 -159L168 -127Q172 -86 173 -50Q178 -58 182 -63Q186 -72 226 -147Q241 -176 245 -192L250 -228L239 -238Q208 -270 191 -298Q170 -331 168 -357Q165 -382 165 -384Q165 -398 171 -405L206 -440Q211 -444 218 -445Q230 -445 240.5 -441Q251 -437 262.5 -429.5Q274 -422 281 -419Q308 -408 316 -384L323 -363L325 -289Q325 -285 323.5 -262.5Q322 -240 320 -229L336 -213Q347 -202 350 -194L390 -143L426 -101Q431 -87 431 -81Q431 -68 421.5 -58Q412 -48 398 -48Q375 -48 367 -70Q365 -76 361 -86.5Q357 -97 356 -101Q311 -154 304 -163Q300 -153 283 -122Q262 -84 252 -63Q250 -60 238.5 -41Q227 -22 219 -14L183 22Q173 32 162 34Q161 34 149 33Q131 32 114 -2L104 -22Q100 -99 98 -127Q90 -154 89 -159Q85 -171 71 -207Q57 -243 53 -263Q48 -272 45 -291Q42 -310 40 -317Q39 -334 29 -349Q28 -349 28 -350Q24 -334 22 -312Q20 -300 16.5 -277Q13 -254 11 -244Q10 -238 4 -198Q-2 -158 -5 -137Q-7 -132 -8.5 -117Q-10 -102 -15 -95ZM252 -365Q243 -370 236 -372Q237 -369 237.5 -364Q238 -359 238 -357Q240 -335 254 -310L253 -363Z"/>
	<path fill="#800080" d="M35 -93Q35 -78 25 -68Q15 -58 0 -58Q-15 -58 -25 -68Q-35 -78 -35 -93V-95Q-31 -102 -29 -117Q-27 -132 -25 -137Q-23 -158 -16.5 -198Q-10 -238 -9 -244Q-7 -254 -4 -277Q-1 -300 2 -312Q3 -339 10 -356Q10 -358 11 -366.5Q12 -375 13 -378Q14 -381 16.5 -386.5Q19 -392 22 -395Q29 -402 29 -402Q31 -405 32 -406L68 -441Q70 -443 72 -443Q83 -443 92.5 -433.5Q102 -424 107 -408Q109 -402 118 -392.5Q127 -383 128 -382Q149 -350 149 -349Q160 -334 160 -317Q163 -310 166 -291Q169 -272 173 -263Q178 -243 192 -207Q206 -171 209 -159L218 -127Q222 -86 223 -50Q228 -58 232 -63Q236 -72 276 -147Q291 -176 295 -192L300 -228L289 -238Q258 -270 241 -298Q220 -331 218 -357Q215 -382 215 -384Q215 -398 221 -405L256 -440Q261 -444 268 -445Q280 -445 290.5 -441Q301 -437 312.5 -429.5Q324 -422 331 -419Q358 -408 366 -384L373 -363L375 -289Q375 -285 373.5 -262.5Q372 -240 370 -229L386 -213Q397 -202 400 -194L440 -143L476 -101Q481 -87 481 -81Q481 -68 471.5 -58Q462 -48 448 -48Q425 -48 417 -70L406 -101Q361 -154 354 -163Q350 -153 333 -122Q312 -84 302 -63Q300 -60 288.5 -41Q277 -22 269 -14L233 22Q223 32 212 34Q211 34 199 33Q181 32 164 -2L154 -22Q150 -99 148 -127Q140 -154 139 -159Q135 -171 121 -207Q107 -243 103 -263Q98 -272 95 -291Q92 -310 90 -317Q89 -334 79 -349Q78 -349 78 -350Q74 -334 72 -312Q70 -300 66.5 -277Q63 -254 61 -244Q60 -238 54 -198Q48 -158 45 -137Q43 -132 41.5 -117Q40 -102 35 -95ZM302 -365Q293 -370 286 -372Q287 -369 287.5 -364Q288 -359 288 -357Q290 -335 304 -310L303 -363Z"/>
	<path fill="#daa520" d="M102 -410Q103 -404 112 -395.5Q121 -387 122 -385Q123 -383 125.5 -379.5Q128 -376 129 -374Q139 -360 143 -351Q154 -336 155 -318Q157 -311 160 -292Q163 -273 167 -265Q168 -265 168 -264Q172 -244 186 -208.5Q200 -173 204 -160Q213 -131 213 -127Q216 -98 219 -23L227 -7Q233 -6 236 -6Q247 -9 255 -17.5Q263 -26 274.5 -44.5Q286 -63 288 -66Q292 -74 332 -149Q346 -178 350 -193L355 -226Q316 -263 297 -295Q276 -329 273 -356Q270 -381 270 -384Q270 -412 292 -415Q293 -415 293 -415Q306 -415 317 -410.5Q328 -406 339.5 -398.5Q351 -391 358 -389Q360 -388 361 -386L368 -365Q368 -364 368 -363L370 -289L366 -235Q366 -234 365 -230Q390 -206 394 -197L434 -146L470 -104Q470 -104 471 -103L474 -95Q474 -94 474 -93Q474 -88 469 -88Q466 -88 462 -98L426 -140L386 -191Q386 -192 385 -192Q382 -200 364 -218L360 -191Q356 -174 340 -145Q301 -70 297 -61Q296 -60 296 -60Q294 -57 282.5 -37.5Q271 -18 261.5 -8.5Q252 1 238 4Q238 4 237 4Q236 4 224 3Q221 3 220 0L210 -20Q209 -21 209 -22Q205 -98 203 -126Q196 -153 194 -158Q190 -170 176.5 -205.5Q163 -241 158 -261Q154 -271 151 -289.5Q148 -308 145 -315Q145 -316 145 -317Q144 -332 135 -346Q135 -347 134 -347Q134 -348 114 -379Q112 -382 105 -389Q98 -396 95 -401Q89 -394 89 -394Q86 -392 83.5 -388.5Q81 -385 80 -380.5Q79 -376 78 -373Q77 -370 76 -364Q75 -358 75 -355Q75 -355 75 -354Q68 -338 67 -312Q67 -311 67 -311Q64 -299 61 -276Q58 -253 56 -243Q55 -237 48.5 -197.5Q42 -158 40 -136Q40 -136 40 -135Q38 -130 36.5 -115.5Q35 -101 30 -94V-93Q30 -88 25 -88Q20 -88 20 -93V-95Q20 -97 21 -98Q25 -104 26.5 -118.5Q28 -133 30 -138Q32 -160 38.5 -199Q45 -238 46 -245Q48 -255 51 -278Q54 -301 57 -313Q59 -340 65 -357Q66 -360 66.5 -367Q67 -374 68 -377Q69 -380 70.5 -385.5Q72 -391 75.5 -395Q79 -399 83 -402Q84 -403 86 -406Q88 -409 90.5 -411Q93 -413 97 -413Q101 -413 102 -410ZM280 -384Q280 -382 283 -357.5Q286 -333 305 -301Q323 -271 356 -238L360 -289L358 -362L352 -380Q346 -383 335 -390Q324 -397 314 -401Q304 -405 293 -405Q280 -403 280 -384Z"/>
</svg>