<svg xmlns="http://www.w3.org/2000/svg" viewBox="0 -1024 1024 1024">
	<path fill="#000088" d="M294 -325Q294 -327 294 -330.5Q294 -334 294 -336Q294 -380 308 -394L343 -429Q350 -436 361 -436Q376 -436 391 -422L426 -386Q455 -358 475.5 -289Q496 -220 496 -189Q496 -185 496 -181Q531 -162 541 -156Q559 -142 612 -100Q623 -91 623 -78Q623 -66 615 -58Q607 -50 595 -50Q586 -50 578 -56L541 -86Q534 -89 489 -114Q477 -47 445 -15L410 20Q383 46 345 46Q318 46 287 31Q256 16 232 -8L217 6Q193 30 153 30Q116 30 94 8L59 -27Q31 -55 22 -129Q21 -129 -15 -92Q-32 -75 -51 -62Q-59 -56 -68 -56Q-80 -56 -88 -64.5Q-96 -73 -96 -85Q-96 -99 -85 -108Q-42 -139 -34 -146Q-6 -179 12 -217Q11 -224 10 -229Q7 -240 7 -261Q7 -298 15.5 -344Q24 -390 32 -398L67 -434Q68 -435 69 -435Q70 -435 71 -434L106 -399Q111 -394 112 -361Q113 -355 113 -348Q113 -281 83 -217Q86 -203 89 -166Q97 -81 114 -48Q131 -40 153 -40Q175 -40 193 -48Q154 -89 154 -129Q154 -170 166 -183L202 -218Q208 -224 217 -224Q236 -224 245 -216L280 -181Q288 -172 288 -149Q288 -86 268 -50Q309 -24 345 -24Q370 -24 391 -36Q417 -79 424 -152Q392 -173 371 -194L336 -229Q293 -271 293 -317Q293 -321 294 -325ZM364 -325Q364 -321 364 -317Q364 -281 390 -247Q404 -236 421 -224Q405 -311 373 -363Q370 -365 366 -365Q364 -353 364 -336Q364 -334 364 -330.5Q364 -327 364 -325Z"/>
	<path fill="#800080" d="M344 -325Q344 -327 344 -330.5Q344 -334 344 -336Q344 -380 358 -394L393 -429Q400 -436 411 -436Q426 -436 441 -422L476 -386Q505 -358 525.5 -289Q546 -220 546 -189Q546 -185 546 -181Q581 -162 591 -156Q609 -142 662 -100Q673 -91 673 -78Q673 -66 665 -58Q657 -50 645 -50Q636 -50 628 -56L591 -86Q584 -89 539 -114Q527 -47 495 -15L460 20Q433 46 395 46Q368 46 337 31Q306 16 282 -8L267 6Q243 30 203 30Q166 30 144 8L109 -27Q81 -55 72 -129Q71 -129 35 -92Q18 -75 -1 -62Q-9 -56 -18 -56Q-30 -56 -38 -64.5Q-46 -73 -46 -85Q-46 -99 -35 -108Q8 -139 16 -146Q44 -179 62 -217Q61 -224 60 -229Q57 -240 57 -261Q57 -298 65.5 -344Q74 -390 82 -398L117 -434Q118 -435 119 -435Q120 -435 121 -434L156 -399Q161 -394 162 -361Q163 -355 163 -348Q163 -281 133 -217Q136 -203 139 -166Q147 -81 164 -48Q181 -40 203 -40Q225 -40 243 -48Q204 -89 204 -129Q204 -170 216 -183L252 -218Q258 -224 267 -224Q286 -224 295 -216L330 -181Q338 -172 338 -149Q338 -86 318 -50Q359 -24 395 -24Q420 -24 441 -36Q467 -79 474 -152Q442 -173 421 -194L386 -229Q343 -271 343 -317Q343 -321 344 -325ZM414 -325Q414 -321 414 -317Q414 -281 440 -247Q454 -236 471 -224Q455 -311 423 -363Q420 -365 416 -365Q414 -353 414 -336Q414 -334 414 -330.5Q414 -327 414 -325Z"/>
	<path fill="#daa520" d="M128 -348Q128 -355 128 -361Q127 -381 125 -392Q118 -378 110.5 -335.5Q103 -293 103 -261Q103 -244 105 -233Q128 -289 128 -348ZM250 -129Q250 -93 285 -54Q304 -89 304 -149Q304 -167 300 -174Q294 -184 273 -184Q250 -184 250 -129ZM390 -325Q390 -324 390 -321Q390 -318 390 -317Q390 -245 512 -174Q512 -181 512 -189Q512 -206 502.5 -246.5Q493 -287 479 -323Q449 -396 417 -396Q390 -396 390 -336Q390 -334 390 -330.5Q390 -327 390 -325ZM380 -336Q380 -406 417 -406Q456 -406 488 -326Q503 -290 512.5 -248.5Q522 -207 522 -189Q522 -179 521 -168Q534 -161 560.5 -147Q587 -133 600 -125L637 -96Q639 -94 639 -92Q639 -87 634 -87Q632 -87 631 -88L594 -117Q582 -124 556.5 -137.5Q531 -151 521 -157Q518 -126 512 -99Q506 -72 493 -44.5Q480 -17 456.5 -0.5Q433 16 401 16Q374 16 343 1Q312 -14 287 -38Q260 0 209 0Q190 0 175 -6Q160 -12 150 -20Q140 -28 132 -43.5Q124 -59 120 -70Q116 -81 112.5 -102Q109 -123 108 -133.5Q107 -144 105 -165Q103 -190 101 -201Q66 -135 8 -93Q7 -92 5 -92Q0 -92 0 -97Q0 -100 2 -101Q64 -146 98 -218Q97 -223 96 -228Q93 -239 93 -261Q93 -307 105 -360Q109 -381 114 -392Q116 -398 118 -401Q121 -404 125 -404Q132 -404 134 -394Q138 -379 138 -348Q138 -280 109 -217Q112 -202 115 -166Q117 -137 119 -121Q121 -105 127.5 -80.5Q134 -56 143 -43Q152 -30 169 -20Q186 -10 209 -10Q256 -10 280 -45Q240 -87 240 -129Q240 -129 240 -130.5Q240 -132 240 -132Q240 -194 273 -194Q300 -194 308 -179Q314 -169 314 -149Q314 -84 293 -47Q316 -23 345.5 -8.5Q375 6 401 6Q430 6 451.5 -10Q473 -26 485 -52.5Q497 -79 503 -106Q509 -133 511 -162Q452 -196 416 -233Q380 -270 380 -317Q380 -321 380 -325Q380 -327 380 -330.5Q380 -334 380 -336Z"/>
</svg>