<svg xmlns="http://www.w3.org/2000/svg" viewBox="0 -1024 1024 1024">
	<path fill="#000088" d="M352 -310Q352 -311 352 -314.5Q352 -318 352 -320Q352 -356 361 -372L396 -432Q404 -446 419 -446Q428 -446 437 -441L488 -411Q521 -392 546 -316Q571 -240 571 -204Q571 -193 570 -182Q589 -172 651 -136L688 -107L639 -46Q635 -50 571 -100Q564 -104 559 -107Q551 -78 539 -56L504 4Q474 56 420 56Q388 56 350 35L301 6Q276 40 228 40Q202 40 184 30L132 0Q92 -23 81 -106Q56 -75 24 -52L-25 -119L7 -142Q43 -168 70 -204Q69 -209 68 -214Q65 -225 65 -245Q65 -280 72.5 -323Q80 -366 88 -380L123 -441Q125 -445 127 -445Q128 -445 128 -444L180 -414Q186 -411 187 -376Q187 -370 187 -364Q187 -296 158 -233Q160 -218 164 -181Q166 -150 168.5 -132.5Q171 -115 178 -90.5Q185 -66 196 -51Q203 -50 211 -50Q223 -50 234 -53Q212 -84 212 -114Q212 -147 220 -162L255 -222Q262 -234 275 -234Q290 -234 298 -230L350 -200Q363 -192 363 -164Q363 -100 342 -64L340 -61Q349 -51 360 -43Q383 -34 403 -34Q441 -34 467 -60Q480 -99 483 -150Q424 -184 388 -220Q352 -256 352 -302Q352 -306 352 -310ZM439 -332Q439 -294 468 -259Q455 -304 439 -335Q439 -334 439 -332Z"/>
	<path fill="#800080" d="M344 -325Q344 -327 344 -330.5Q344 -334 344 -336Q344 -380 358 -394L393 -429Q400 -436 411 -436Q426 -436 441 -422L476 -386Q505 -358 525.5 -289Q546 -220 546 -189Q546 -185 546 -181Q581 -162 591 -156L662 -100Q673 -91 673 -78Q673 -66 665 -58Q657 -50 645 -50Q636 -50 628 -56L591 -86Q584 -90 539 -114Q527 -47 495 -15L460 20Q433 46 395 46Q368 46 337 31Q306 16 282 -8L267 6Q243 30 203 30Q166 30 144 8L109 -27Q81 -55 72 -129Q71 -128 35 -92Q18 -75 -1 -62Q-9 -56 -18 -56Q-30 -56 -38 -64.5Q-46 -73 -46 -85Q-46 -99 -35 -108Q8 -139 16 -146Q44 -179 62 -217Q61 -224 60 -229Q57 -240 57 -261Q57 -298 65.5 -344Q74 -390 82 -398L117 -434Q118 -435 119 -435Q120 -435 121 -434L156 -399Q161 -394 162 -361Q163 -355 163 -348Q163 -281 133 -217Q136 -203 139 -166Q147 -81 164 -48Q181 -40 203 -40Q225 -40 243 -48Q204 -89 204 -129Q204 -170 216 -183L252 -218Q258 -224 267 -224Q286 -224 295 -216L330 -181Q338 -172 338 -149Q338 -86 318 -50Q359 -24 395 -24Q420 -24 441 -36Q467 -79 474 -152Q442 -173 421 -194L386 -229Q343 -271 343 -317Q343 -321 344 -325ZM414 -325Q414 -321 414 -317Q414 -281 440 -247Q454 -236 471 -224Q455 -311 423 -363Q420 -365 416 -365Q414 -353 414 -336Q414 -334 414 -330.5Q414 -327 414 -325Z"/>
	<path fill="#daa520" d="M148 -348Q148 -355 148 -361Q147 -381 145 -392Q138 -378 130.5 -335.5Q123 -293 123 -261Q123 -244 125 -233Q148 -289 148 -348ZM270 -129Q270 -93 305 -54Q324 -89 324 -149Q324 -167 320 -174Q314 -184 293 -184Q270 -184 270 -129ZM410 -325Q410 -324 410 -321Q410 -318 410 -317Q410 -245 532 -174Q532 -181 532 -189Q532 -206 522.5 -246.5Q513 -287 499 -323Q469 -396 437 -396Q410 -396 410 -336Q410 -334 410 -330.5Q410 -327 410 -325ZM400 -336Q400 -406 437 -406Q476 -406 508 -326Q523 -290 532.5 -248.5Q542 -207 542 -189Q542 -179 541 -168Q554 -161 580.5 -147Q607 -133 620 -125L657 -96Q659 -94 659 -92Q659 -87 654 -87Q652 -87 651 -88L614 -117Q602 -124 576.5 -137.5Q551 -151 541 -157Q538 -126 532 -99Q526 -72 513 -44.5Q500 -17 476.5 -0.5Q453 16 421 16Q394 16 363 1Q332 -14 307 -38Q280 0 229 0Q210 0 195 -6Q180 -12 170 -20Q160 -28 152 -43.5Q144 -59 140 -70Q136 -81 132.5 -102Q129 -123 128 -133.5Q127 -144 125 -165Q123 -190 121 -201Q86 -135 28 -93Q27 -92 25 -92Q20 -92 20 -97Q20 -100 22 -101Q84 -146 118 -218Q117 -223 116 -228Q113 -239 113 -261Q113 -307 125 -360Q129 -381 134 -392Q136 -398 138 -401Q141 -404 145 -404Q152 -404 154 -394Q158 -379 158 -348Q158 -280 129 -217Q132 -202 135 -166Q137 -137 139 -121Q141 -105 147.5 -80.5Q154 -56 163 -43Q172 -30 189 -20Q206 -10 229 -10Q276 -10 300 -45Q260 -87 260 -129Q260 -129 260 -130.5Q260 -132 260 -132Q260 -194 293 -194Q320 -194 328 -179Q334 -169 334 -149Q334 -84 313 -47Q336 -23 365.5 -8.5Q395 6 421 6Q450 6 471.5 -10Q493 -26 505 -52.5Q517 -79 523 -106Q529 -133 531 -162Q472 -196 436 -233Q400 -270 400 -317Q400 -321 400 -325Q400 -327 400 -330.5Q400 -334 400 -336Z"/>
</svg>