<svg xmlns="http://www.w3.org/2000/svg" viewBox="0 -1024 1024 1024">
	<path fill="#000088" d="M187 -215Q181 -245 181 -260Q181 -264 182 -268Q182 -277 180 -296Q178 -315 178 -324Q177 -347 177 -348Q177 -390 190 -414Q198 -430 207.5 -439.5Q217 -449 225 -449Q226 -449 228 -448L263 -413Q270 -406 273 -359Q274 -350 274 -348Q278 -328 278 -307Q278 -256 258 -215Q259 -213 262 -196Q266 -173 266 -160Q273 -135 276 -102L296 -129Q304 -142 319 -142Q331 -142 339.5 -133.5Q348 -125 348 -113Q348 -104 342 -96L332 -82L308 -36Q288 -9 280 1Q279 29 275.5 94Q272 159 272 192Q273 197 273 199Q273 205 271 207L235 243Q234 244 231 244Q229 244 227 243Q205 246 191 246Q160 246 148 234L113 198Q105 190 105 177Q105 172 106 166Q105 163 105 159Q105 142 114 128Q123 114 141 95Q159 75 166 64Q182 37 209 1Q209 -7 209 -15Q209 -42 208 -66Q204 -117 199 -144L195 -141Q161 -107 109 -107Q97 -107 87 -116L51 -152Q44 -159 39 -171Q18 -138 -11 -103Q-6 -95 -6 -86Q-6 -72 -16 -62.5Q-26 -53 -40 -53Q-46 -53 -51 -55Q-52 -55 -52 -55L-87 -91Q-89 -92 -89 -94Q-89 -95 -88 -96Q-10 -188 19 -271Q17 -283 13.5 -306.5Q10 -330 10 -334L6 -412Q6 -424 41 -447Q44 -450 48 -450Q51 -450 55 -446L90 -411Q98 -403 102 -380.5Q106 -358 106 -346Q106 -345 106 -344Q103 -308 90 -271L102 -196Q104 -186 107 -177Q108 -177 109 -177Q148 -177 176 -196Q182 -205 187 -215ZM176 159Q176 163 176 166Q176 170 175 174Q183 175 191 175Q196 175 202 175Q202 148 205 102Q176 134 176 159Z"/>
	<path fill="#800080" d="M237 -215Q231 -245 231 -260Q231 -264 232 -268Q232 -277 230 -296Q228 -315 228 -324Q227 -347 227 -348Q227 -390 240 -414Q248 -430 257.5 -439.5Q267 -449 275 -449Q276 -449 278 -448L313 -413Q320 -406 323 -359Q324 -350 324 -348Q328 -328 328 -307Q328 -256 308 -215Q309 -213 312 -196Q316 -173 316 -160Q323 -135 326 -102L346 -129Q354 -142 369 -142Q381 -142 389.5 -133.5Q398 -125 398 -113Q398 -104 392 -96L382 -82L358 -36Q338 -9 330 1Q329 29 325.5 94Q322 159 322 192Q323 197 323 199Q323 205 321 207L285 243Q284 244 281 244Q279 244 277 243Q255 246 241 246Q210 246 198 234L163 198Q155 190 155 177Q155 172 156 166Q155 163 155 159Q155 142 164 128Q173 114 191 95Q209 75 216 64Q232 37 259 1Q259 -7 259 -15Q259 -42 258 -66Q254 -117 249 -144L245 -141Q211 -107 159 -107Q147 -107 137 -116L101 -152Q94 -159 89 -171Q68 -138 39 -103Q44 -95 44 -86Q44 -72 34 -62.5Q24 -53 10 -53Q4 -53 -1 -55Q-2 -55 -2 -55L-37 -91Q-39 -92 -39 -94Q-39 -95 -38 -96Q40 -188 69 -271Q67 -283 63.5 -306.5Q60 -330 60 -334L56 -412Q56 -424 91 -447Q94 -450 98 -450Q101 -450 105 -446L140 -411Q148 -403 152 -380.5Q156 -358 156 -346Q156 -345 156 -344Q153 -308 140 -271L152 -196Q154 -186 157 -177Q158 -177 159 -177Q198 -177 226 -196Q232 -205 237 -215ZM226 159Q226 163 226 166Q226 170 225 174Q233 175 241 175Q246 175 252 175Q252 148 255 102Q226 134 226 159Z"/>
	<path fill="#daa520" d="M125 -346Q125 -366 118 -388Q113 -409 106 -409Q105 -409 105 -409L108 -334L115 -293Q122 -319 124 -345Q125 -345 125 -346ZM280 -260Q280 -248 283 -232Q296 -267 296 -307Q296 -328 293 -347Q292 -349 291 -358Q289 -393 285 -405Q276 -384 276 -348Q276 -347 276 -324Q277 -316 278.5 -296.5Q280 -277 280 -268Q280 -267 280 -264Q280 -261 280 -260ZM279 -201Q241 -137 167 -137Q147 -137 135.5 -155Q124 -173 121 -195L111 -252Q81 -177 10 -94Q12 -93 12 -90Q12 -85 7 -85Q0 -85 0 -94Q0 -97 2 -99Q79 -190 108 -272Q106 -284 102.5 -306.5Q99 -329 99 -333L98 -334L94 -412Q94 -419 106 -419Q120 -419 128 -391Q135 -367 135 -346Q135 -344 134 -343Q131 -307 118 -271L130 -197Q134 -177 143.5 -162Q153 -147 167 -147Q242 -147 276 -216Q270 -244 270 -260Q270 -264 270 -268Q270 -276 269 -295Q266 -319 266 -348Q266 -391 279 -416Q280 -419 283 -419Q289 -419 292 -413Q298 -402 301 -359Q302 -350 302 -349Q306 -329 306 -307Q306 -256 286 -215Q288 -209 288 -205Q294 -172 294 -161Q302 -128 306 -66Q308 -43 308 -15Q308 -14 308 -14Q313 -20 327 -39L351 -84Q351 -85 351 -85L361 -99Q363 -101 365 -101Q370 -101 370 -96Q370 -94 370 -93L360 -79L336 -34Q336 -33 335 -33Q316 -7 308 3Q307 31 303.5 94.5Q300 158 300 192Q301 196 301 199Q301 214 290 214Q285 213 285 213Q264 216 250 216Q193 216 193 177Q193 171 194 166Q194 163 194 159Q194 146 200.5 132.5Q207 119 213 112Q219 105 231 92Q249 72 255 61Q272 34 298 -1Q298 -8 298 -15Q298 -42 296 -66Q292 -127 285 -159Q284 -159 284 -160Q284 -172 279 -201ZM291 199Q291 198 290.5 195.5Q290 193 290 192Q290 159 293.5 98.5Q297 38 298 17Q277 44 264 67Q257 78 238 98Q227 111 221 118Q215 125 209.5 136.5Q204 148 204 159Q204 160 204 162.5Q204 165 204 166Q204 166 204 167Q203 172 203 177Q203 206 250 206Q263 206 285 203Q286 203 287.5 203.5Q289 204 290 204Q291 204 291 199Z"/>
</svg>