<svg xmlns="http://www.w3.org/2000/svg" viewBox="0 -1024 1024 1024">
	<path fill="#000088" d="M48 155Q48 152 47.5 148.5Q47 145 47 143Q47 104 77 74L112 39Q113 38 129 24Q151 5 165 -3Q174 -6 188.5 -16Q203 -26 211 -29Q214 -31 218 -32H217Q190 -48 155 -48Q139 -48 123 -45Q116 -43 111 -43Q103 -43 101 -46L65 -82Q63 -84 63 -87Q63 -94 76 -115Q85 -131 88 -138Q102 -162 134.5 -202Q167 -242 178 -256Q229 -316 248 -370Q249 -376 253 -383Q249 -383 245 -383Q224 -381 187.5 -369Q151 -357 133 -355Q133 -349 133 -343Q133 -285 114 -230Q95 -175 58 -138L22 -103Q-9 -72 -49 -59Q-54 -57 -60 -57Q-73 -57 -83 -67Q-93 -77 -93 -90Q-93 -115 -70 -122L-49 -129Q-20 -139 4 -158Q62 -232 62 -343Q62 -350 62 -357Q25 -360 18 -367L-17 -402Q-19 -404 -19 -405Q-19 -408 -16 -410L19 -445Q26 -452 55 -461Q63 -464 70 -464Q81 -464 88 -457L119 -425Q143 -425 184 -438.5Q225 -452 245 -453Q253 -454 274 -456.5Q295 -459 307 -459Q321 -459 331.5 -448.5Q342 -438 342 -424Q342 -415 331 -395Q321 -378 318 -370Q299 -316 248 -256Q238 -242 205.5 -202Q173 -162 158 -138Q156 -131 149 -119Q152 -119 155 -119Q206 -119 238 -87L265 -60Q273 -66 287 -77Q295 -98 303.5 -118.5Q312 -139 334 -139Q347 -139 357 -129.5Q367 -120 367 -106Q367 -100 364 -94L352 -64Q347 -50 317 -29Q309 -23 296 -13Q300 1 300 16Q300 19 300 24.5Q300 30 300 33Q300 41 300.5 58Q301 75 301 83Q301 134 278 158Q273 164 264 179Q255 194 249 200L214 236Q202 247 185 247Q173 247 149 249Q125 251 113 251Q112 251 112 251Q101 251 94 245L59 209Q48 198 48 159Q48 158 48 156.5Q48 155 48 155ZM229 33Q220 38 211 41Q203 44 188.5 54Q174 64 165 67Q152 75 135 90Q118 114 118 143Q118 145 118 148.5Q118 152 118 155Q118 155 118 156.5Q118 158 118 159Q118 173 119 181Q129 180 151 178.5Q173 177 185 177Q191 177 196 175Q202 164 208 158Q230 134 230 83Q230 75 229.5 58Q229 41 229 33Z"/>
	<path fill="#800080" d="M98 155Q98 152 97.5 148.5Q97 145 97 143Q97 104 127 74L162 39Q163 38 179 24Q201 5 215 -3Q224 -6 238.5 -16Q253 -26 261 -29Q264 -31 268 -32H267Q240 -48 205 -48Q189 -48 173 -45Q166 -43 161 -43Q153 -43 151 -46L115 -82Q113 -84 113 -87Q113 -94 126 -115Q135 -131 138 -138Q152 -162 184.5 -202Q217 -242 228 -256Q279 -316 298 -370Q299 -376 303 -383Q299 -383 295 -383Q274 -381 237.5 -369Q201 -357 183 -355Q183 -349 183 -343Q183 -285 164 -230Q145 -175 108 -138L72 -103Q41 -72 1 -59Q-4 -57 -10 -57Q-23 -57 -33 -67Q-43 -77 -43 -90Q-43 -115 -20 -122L1 -129Q30 -139 54 -158Q112 -232 112 -343Q112 -350 112 -357Q75 -360 68 -367L33 -402Q31 -404 31 -405Q31 -408 34 -410L69 -445Q76 -452 105 -461Q113 -464 120 -464Q131 -464 138 -457L169 -425Q193 -425 234 -438.5Q275 -452 295 -453Q303 -454 324 -456.5Q345 -459 357 -459Q371 -459 381.5 -448.5Q392 -438 392 -424Q392 -415 381 -395Q371 -378 368 -370Q349 -316 298 -256Q288 -242 255.5 -202Q223 -162 208 -138Q206 -131 199 -119Q202 -119 205 -119Q256 -119 288 -87L315 -60Q323 -66 337 -77Q345 -98 353.5 -118.5Q362 -139 384 -139Q397 -139 407 -129.5Q417 -120 417 -106Q417 -100 414 -94L402 -64Q397 -50 367 -29Q359 -23 346 -13Q350 1 350 16Q350 19 350 24.5Q350 30 350 33Q350 41 350.5 58Q351 75 351 83Q351 134 328 158Q323 164 314 179Q305 194 299 200L264 236Q252 247 235 247Q223 247 199 249Q175 251 163 251Q162 251 162 251Q151 251 144 245L109 209Q98 198 98 159Q98 158 98 156.5Q98 155 98 155ZM279 33Q270 38 261 41Q253 44 238.5 54Q224 64 215 67Q202 75 185 90Q168 114 168 143Q168 145 168 148.5Q168 152 168 155Q168 155 168 156.5Q168 158 168 159Q168 173 169 181Q179 180 201 178.5Q223 177 235 177Q241 177 246 175Q252 164 258 158Q280 134 280 83Q280 75 279.5 58Q279 41 279 33Z"/>
	<path fill="#daa520" d="M173 -385Q161 -385 158 -385Q158 -384 158 -384Q158 -373 156 -362Q157 -352 157 -343Q157 -289 141.5 -238.5Q126 -188 91 -147Q56 -106 7 -89Q6 -89 5 -89Q0 -89 0 -94Q0 -98 3 -99Q72 -122 109.5 -191.5Q147 -261 147 -343Q147 -346 146.5 -352.5Q146 -359 146 -362Q146 -362 146 -363Q148 -374 148 -384Q148 -385 148 -385Q114 -386 93 -390Q80 -392 73 -395Q66 -399 66 -405Q66 -412 75 -418Q85 -424 108 -431Q116 -433 124 -433Q153 -433 157 -395Q163 -395 169 -395Q170 -395 171 -395Q172 -395 173 -395Q196 -395 237 -408.5Q278 -422 299 -423Q306 -423 327.5 -426Q349 -429 361 -429Q366 -429 366 -424Q366 -414 353 -393Q344 -376 342 -369V-368Q323 -313 271 -253Q261 -239 228.5 -199Q196 -159 182 -136Q179 -128 169 -112Q158 -92 158 -87Q158 -86 158 -86Q158 -84 165 -84Q172 -84 176 -85Q193 -89 209 -89Q244 -89 272.5 -73Q301 -57 315 -28Q323 -34 340.5 -47.5Q358 -61 367 -67L378 -96Q380 -99 383 -99Q388 -99 388 -94Q388 -93 388 -92L376 -62Q375 -61 374 -60Q365 -53 346.5 -39Q328 -25 318 -19Q324 -2 324 16Q324 19 324 24.5Q324 30 324 33Q324 41 324.5 58Q325 75 325 83Q325 136 301 161Q295 167 286.5 183Q278 199 267.5 208Q257 217 239 217Q227 217 202.5 219Q178 221 166 221Q154 221 146.5 215Q139 209 136 197.5Q133 186 132.5 178.5Q132 171 132 159Q132 158 132 156.5Q132 155 132 155Q132 154 132 153.5Q132 153 132 152Q132 147 132 143Q132 99 168 66Q170 64 174 60.5Q178 57 180 56Q202 36 217 28Q217 27 217 27Q226 24 240.5 14.5Q255 5 263 1Q283 -7 306 -22Q294 -49 268 -64Q242 -79 209 -79Q194 -79 178 -75Q172 -74 165 -74Q148 -74 148 -87Q148 -95 161 -117Q170 -133 172 -140Q172 -140 173 -141Q187 -165 220 -205Q253 -245 263 -259Q314 -318 332 -371Q334 -379 343.5 -395.5Q353 -412 355 -419Q345 -419 326.5 -416.5Q308 -414 299 -413Q279 -412 238 -398.5Q197 -385 173 -385ZM124 -423Q118 -423 110 -421Q89 -415 80 -409Q76 -406 76 -405V-406Q80 -402 101 -399Q120 -396 147 -395Q144 -423 124 -423ZM142 155Q142 155 142 156.5Q142 158 142 159Q142 175 143 184.5Q144 194 149.5 202.5Q155 211 166 211Q167 211 167 211Q179 211 203 209Q227 207 239 207Q254 207 262 199.5Q270 192 279 176Q288 161 293 155Q315 132 315 83Q315 75 314.5 58Q314 41 314 33Q314 30 314 24.5Q314 19 314 16Q314 1 310 -13Q287 2 267 11Q259 14 245 23.5Q231 33 221 37Q212 42 174 74Q142 104 142 143Q142 145 142 148.5Q142 152 142 155Z"/>
</svg>