<svg xmlns="http://www.w3.org/2000/svg" viewBox="0 -1024 1024 1024">
	<path fill="#000088" d="M84 170Q84 168 83.5 164Q83 160 83 158Q83 134 96 112L131 52Q139 37 153 25Q157 21 164 14.5Q171 8 176 4Q181 0 187.5 -5Q194 -10 201 -13Q207 -15 213.5 -19Q220 -23 227 -28Q234 -33 238 -35Q224 -39 208 -39Q192 -39 176 -35Q169 -33 164 -33Q158 -33 155 -35L103 -65Q99 -67 99 -72Q99 -78 108 -93Q122 -117 124 -123Q127 -131 159 -183Q173 -207 206 -247Q239 -287 249 -301Q265 -320 277 -337Q278 -339 283 -352Q288 -365 292 -372Q273 -370 238.5 -358.5Q204 -347 185 -345Q182 -264 146 -200L111 -140Q71 -71 4 -49L-25 -135L-13 -139Q38 -156 74 -202Q98 -261 98 -328Q98 -337 98 -347Q98 -348 98 -348Q80 -351 74 -355L22 -385Q18 -387 18 -390Q18 -391 18 -393L53 -453Q58 -461 91 -471Q99 -474 105 -474Q113 -474 119 -470L171 -440Q173 -439 175 -437Q190 -439 225 -450.5Q260 -462 281 -463Q289 -464 310 -466.5Q331 -469 343 -469Q364 -469 379.5 -460.5Q395 -452 395 -439Q395 -431 378 -402Q373 -392 371 -385Q362 -361 349 -337L314 -276Q296 -246 266 -211Q254 -195 231.5 -167Q209 -139 201 -129Q230 -127 253 -113L305 -83Q308 -81 312 -79Q317 -82 325.5 -88.5Q334 -95 338 -98L352 -135L417 -109L405 -79Q385 -29 370 -19Q363 -14 353 -6Q353 -3 353 1Q353 4 352.5 9.5Q352 15 352 18Q352 26 353 42.5Q354 59 354 68Q354 107 341 129L306 190Q302 197 296 203Q291 209 282.5 224.5Q274 240 264 248.5Q254 257 238 257Q226 257 202 259Q178 261 166 261Q165 261 165 261Q157 261 152 258L100 228Q84 219 84 174Q84 173 84 171.5Q84 170 84 170ZM266 51Q265 51 264 51Q256 54 241.5 64Q227 74 218 77Q207 83 171 114Q170 121 170 127Q170 129 170.5 133Q171 137 171 139Q171 140 171 141.5Q171 143 171 143Q171 160 172 170Q213 167 221 167Q246 167 263 137Q267 121 267 98Q267 90 266.5 74Q266 58 266 51Z"/>
	<path fill="#800080" d="M98 155Q98 152 97.5 148.5Q97 145 97 143Q97 104 127 74L162 39Q163 38 179 24Q201 5 215 -3Q224 -6 238.5 -16Q253 -26 261 -29Q264 -31 268 -32Q267 -32 267 -32Q240 -48 205 -48Q189 -48 173 -45Q166 -43 161 -43Q153 -43 151 -46L115 -82Q113 -84 113 -87Q113 -94 126 -115Q135 -131 138 -138Q152 -162 184.5 -202Q217 -242 228 -256Q279 -316 298 -370Q299 -376 303 -383Q299 -383 295 -383Q274 -381 237.5 -369Q201 -357 183 -355Q183 -349 183 -343Q183 -285 164 -230Q145 -175 108 -138L72 -103Q41 -72 1 -59Q-4 -57 -10 -57Q-23 -57 -33 -67Q-43 -77 -43 -90Q-43 -115 -20 -122L1 -129Q30 -139 54 -158Q112 -232 112 -343Q112 -350 112 -357Q75 -360 68 -367L33 -402Q31 -404 31 -405Q31 -408 34 -410L69 -445Q76 -452 105 -461Q113 -464 120 -464Q131 -464 138 -457L169 -425Q193 -425 234 -438.5Q275 -452 295 -453Q303 -454 324 -456.5Q345 -459 357 -459Q371 -459 381.5 -448.5Q392 -438 392 -424Q392 -415 381 -395Q371 -378 368 -370Q349 -316 298 -256Q288 -242 255.5 -202Q223 -162 208 -138Q206 -131 199 -119Q202 -119 205 -119Q256 -119 288 -87L315 -60Q323 -66 337 -77L353 -118Q362 -139 384 -139Q397 -139 407 -129.5Q417 -120 417 -106Q417 -100 414 -94L402 -64Q397 -50 367 -29Q359 -23 346 -13Q350 1 350 16Q350 19 350 24.5Q350 30 350 33Q350 41 350.5 58Q351 75 351 83Q351 134 328 158Q323 164 314 179Q305 194 299 200L264 236Q252 247 235 247Q223 247 199 249Q175 251 163 251Q162 251 162 251Q151 251 144 245L109 209Q98 198 98 159Q98 158 98 156.5Q98 155 98 155ZM279 33Q270 38 261 41Q253 44 238.5 54Q224 64 215 67Q202 75 185 90Q168 114 168 143Q168 145 168 148.5Q168 152 168 155Q168 155 168 156.5Q168 158 168 159Q168 173 169 181Q179 180 201 178.5Q223 177 235 177Q241 177 246 175Q252 164 258 158Q280 134 280 83Q280 75 279.5 58Q279 41 279 33Z"/>
	<path fill="#daa520" d="M193 -385Q181 -385 178 -385Q178 -384 178 -384Q178 -373 176 -362Q177 -352 177 -343Q177 -289 161.5 -238.5Q146 -188 111 -147Q76 -106 27 -89Q26 -89 25 -89Q20 -89 20 -94Q20 -98 23 -99Q92 -122 129.5 -191.5Q167 -261 167 -343Q167 -346 166.5 -352.5Q166 -359 166 -362Q166 -362 166 -363Q168 -374 168 -384Q168 -385 168 -385Q134 -386 113 -390Q100 -392 93 -395Q86 -399 86 -405Q86 -412 95 -418Q105 -424 128 -431Q136 -433 144 -433Q173 -433 177 -395Q183 -395 189 -395Q190 -395 191 -395Q192 -395 193 -395Q216 -395 257 -408.5Q298 -422 319 -423Q326 -423 347.5 -426Q369 -429 381 -429Q386 -429 386 -424Q386 -414 373 -393Q364 -376 362 -369V-368Q343 -313 291 -253Q281 -239 248.5 -199Q216 -159 202 -136Q199 -128 189 -112Q178 -92 178 -87Q178 -86 178 -86Q178 -84 185 -84Q192 -84 196 -85Q213 -89 229 -89Q264 -89 292.5 -73Q321 -57 335 -28Q343 -34 360.5 -47.5Q378 -61 387 -67L398 -96Q400 -99 403 -99Q408 -99 408 -94Q408 -93 408 -92L396 -62Q395 -61 394 -60Q385 -53 366.5 -39Q348 -25 338 -19Q344 -2 344 16Q344 19 344 24.5Q344 30 344 33Q344 41 344.5 58Q345 75 345 83Q345 136 321 161Q315 167 306.5 183Q298 199 287.5 208Q277 217 259 217Q247 217 222.5 219Q198 221 186 221Q174 221 166.5 215Q159 209 156 197.5Q153 186 152.5 178.5Q152 171 152 159Q152 158 152 156.5Q152 155 152 155Q152 154 152 153.5Q152 153 152 152Q152 147 152 143Q152 99 188 66Q190 64 194 60.5Q198 57 200 56Q222 36 237 28Q237 27 237 27Q246 24 260.5 14.5Q275 5 283 1Q303 -7 326 -22Q314 -49 288 -64Q262 -79 229 -79Q214 -79 198 -75Q192 -74 185 -74Q168 -74 168 -87Q168 -95 181 -117Q190 -133 192 -140Q192 -140 193 -141Q207 -165 240 -205Q273 -245 283 -259Q334 -318 352 -371Q354 -379 363.5 -395.5Q373 -412 375 -419Q365 -419 346.5 -416.5Q328 -414 319 -413Q299 -412 258 -398.5Q217 -385 193 -385ZM144 -423Q138 -423 130 -421Q109 -415 100 -409Q96 -406 96 -405V-406Q100 -402 121 -399Q140 -396 167 -395Q164 -423 144 -423ZM162 155Q162 155 162 156.5Q162 158 162 159Q162 175 163 184.5Q164 194 169.5 202.5Q175 211 186 211Q187 211 187 211Q199 211 223 209Q247 207 259 207Q274 207 282 199.5Q290 192 299 176Q308 161 313 155Q335 132 335 83Q335 75 334.5 58Q334 41 334 33Q334 30 334 24.5Q334 19 334 16Q334 1 330 -13Q307 2 287 11Q279 14 265 23.5Q251 33 241 37Q232 42 194 74Q162 104 162 143Q162 145 162 148.5Q162 152 162 155Z"/>
</svg>