<svg xmlns="http://www.w3.org/2000/svg" viewBox="0 -1024 1024 1024">
	<path fill="#000088" d="M141 39Q126 39 115.5 29Q105 19 105 4Q105 -11 115.5 -21Q126 -31 141 -31H145Q181 -83 183 -155Q186 -176 186 -197Q186 -225 177 -299Q175 -315 170.5 -348Q166 -381 164 -398Q148 -402 141 -402Q139 -403 138 -404L131 -411Q123 -412 107.5 -414.5Q92 -417 84 -419Q71 -421 63 -430.5Q55 -440 55 -453Q55 -467 65.5 -477.5Q76 -488 90 -488Q91 -488 93 -487.5Q95 -487 96 -487L132 -481L141 -472Q147 -472 159 -470V-479V-491Q159 -634 264 -752Q279 -768 316 -805Q334 -823 342 -823H343L379 -787Q380 -786 380 -779V-773Q386 -732 401 -649.5Q416 -567 422 -524L443 -371L449 -230Q451 -212 453 -169.5Q455 -127 458 -104Q469 -66 476 -35Q488 -2 488 8L487 10L452 45H450L415 9Q410 4 402.5 -16Q395 -36 393 -56Q383 -77 376 -120Q369 -163 366 -176Q360 -190 343.5 -241.5Q327 -293 312 -317Q306 -328 298 -340Q274 -358 238 -374Q240 -359 244 -329.5Q248 -300 250 -285Q257 -234 257 -197Q257 -176 254 -155Q250 -62 197 -9L162 26Q157 31 147 39ZM230 -491V-479Q230 -457 231 -447Q288 -424 318 -394L353 -359Q364 -348 374 -333L372 -371L351 -524Q346 -560 333.5 -628Q321 -696 316 -729Q230 -617 230 -491Z"/>
	<path fill="#800080" d="M149 -458Q149 -475 149 -491Q149 -566 179 -638Q209 -710 260 -769Q283 -794 297 -804Q309 -813 321 -813Q332 -813 340 -805Q346 -799 348 -791Q349 -786 349 -779Q349 -776 349 -774Q358 -711 391 -528Q391 -528 391 -527L412 -374Q412 -373 412 -372L418 -232Q419 -216 421.5 -173.5Q424 -131 427 -109Q438 -70 444 -42Q452 -18 455 -5Q457 3 457 8Q457 11 456 15Q454 22 449 27Q442 35 431 35Q414 35 404 15Q400 8 397 -2Q387 -26 384 -49Q374 -73 367 -115Q360 -157 357 -168Q351 -182 335 -232Q319 -282 306 -304Q305 -305 304 -306Q281 -356 206 -387Q208 -369 212.5 -336Q217 -303 219 -288Q226 -227 226 -197Q226 -173 223 -152Q219 -52 159 8Q151 17 141 24Q134 29 126 29H120Q110 29 102.5 21.5Q95 14 95 4Q95 -5 101.5 -12.5Q108 -20 117 -21Q142 -43 157 -79.5Q172 -116 173 -156Q173 -158 173 -159Q176 -176 176 -196Q176 -223 167 -296Q166 -308 160.5 -345.5Q155 -383 153 -405Q128 -412 120 -412Q114 -412 109 -415Q104 -417 98 -423L71 -427Q62 -429 56 -436Q50 -443 50 -452Q50 -462 57.5 -469.5Q65 -477 75 -477Q77 -477 79 -477L115 -471Q124 -469 131 -461Q139 -460 149 -458ZM199 -479Q199 -461 200 -442Q274 -417 315 -376Q336 -355 349 -329Q358 -315 365 -297L362 -369L341 -520Q336 -559 322.5 -633Q309 -707 304 -742Q301 -739 298 -736Q252 -684 225.5 -619.5Q199 -555 199 -490Q199 -489 199 -485Q199 -481 199 -479Z"/>
	<path fill="#daa520" d="M321 -793Q329 -793 329 -779Q329 -776 329 -773Q335 -734 350 -651Q365 -568 371 -525L392 -372Q392 -371 392 -371L398 -230Q399 -215 401.5 -171.5Q404 -128 407 -105Q419 -65 425 -36Q437 -1 437 8Q437 15 431 15Q428 15 426 13Q425 11 423 9Q420 4 417 -5Q406 -31 403 -55Q393 -77 386 -119.5Q379 -162 376 -174Q370 -189 353.5 -240Q337 -291 323 -314Q323 -315 322 -315Q291 -381 182 -417Q182 -415 199 -285Q206 -226 206 -197Q206 -174 203 -154Q201 -106 182.5 -62.5Q164 -19 129 8Q128 9 126 9H120Q115 9 115 4Q115 -1 120 -1H124Q157 -26 174 -67.5Q191 -109 193 -155Q193 -156 193 -156Q196 -174 196 -197Q196 -224 187 -298Q186 -304 180 -350Q174 -396 172 -420Q168 -421 161.5 -423Q155 -425 152 -426Q132 -432 120 -432Q118 -432 116 -433.5Q114 -435 108 -441L74 -447Q70 -448 70 -452Q70 -457 75 -457Q75 -457 76 -457L112 -451Q114 -451 116 -448Q120 -444 121 -442Q132 -442 163 -433Q167 -432 171 -431Q169 -456 169 -479Q169 -485 169 -491Q169 -561 197.5 -630.5Q226 -700 275 -755Q289 -771 298 -779Q313 -793 321 -793ZM319 -779Q319 -781 319 -782Q313 -779 305 -772Q296 -764 283 -749Q235 -694 207 -626.5Q179 -559 179 -491Q179 -489 179 -485Q179 -481 179 -479Q179 -455 181 -427Q297 -391 331 -319Q347 -295 363 -244Q379 -193 386 -178Q386 -178 386 -177Q390 -162 394 -135Q393 -149 391.5 -181Q390 -213 388 -230L382 -371L361 -523Q355 -567 340 -650Q325 -733 319 -772Q319 -773 319 -773Q319 -773 319 -775Q319 -777 319 -779Z"/>
</svg>