<svg xmlns="http://www.w3.org/2000/svg" viewBox="0 -1024 1024 1024">
	<path fill="#000088" d="M199 -458Q199 -475 199 -491Q199 -566 229 -638Q259 -710 310 -769Q333 -794 347 -804Q359 -813 371 -813Q382 -813 390 -805Q396 -799 398 -791Q399 -786 399 -779Q399 -776 399 -774Q408 -711 441 -528Q441 -528 441 -527L462 -374Q462 -373 462 -372L468 -232Q469 -216 471.5 -173.5Q474 -131 477 -109Q488 -70 494 -42Q502 -18 505 -5Q507 3 507 8Q507 11 506 15Q504 22 499 27Q492 35 481 35Q464 35 454 15Q450 8 447 -2Q437 -26 434 -49Q424 -73 417 -115Q410 -157 407 -168Q401 -182 385 -232Q369 -282 356 -304Q355 -305 354 -306Q331 -356 256 -387Q258 -369 262.5 -336Q267 -303 269 -288Q276 -227 276 -197Q276 -173 273 -152Q269 -52 209 8Q201 17 191 24Q184 29 176 29H170Q160 29 152.5 21.5Q145 14 145 4Q145 -5 151.5 -12.5Q158 -20 167 -21Q192 -43 207 -79.5Q222 -116 223 -156Q223 -158 223 -159Q226 -176 226 -196Q226 -223 217 -296Q216 -308 210.5 -345.5Q205 -383 203 -405Q178 -412 170 -412Q164 -412 159 -415Q154 -417 148 -423L121 -427Q112 -429 106 -436Q100 -443 100 -452Q100 -462 107.5 -469.5Q115 -477 125 -477Q127 -477 129 -477L165 -471Q174 -469 181 -461Q189 -460 199 -458ZM249 -479Q249 -461 250 -442Q324 -417 365 -376Q386 -355 399 -329Q408 -315 415 -297L412 -369L391 -520Q386 -559 372.5 -633Q359 -707 354 -742Q351 -739 348 -736Q302 -684 275.5 -619.5Q249 -555 249 -490Q249 -489 249 -485Q249 -481 249 -479Z"/>
	<path fill="#800080" d="M149 -458Q149 -475 149 -491Q149 -566 179 -638Q209 -710 260 -769Q283 -794 297 -804Q309 -813 321 -813Q332 -813 340 -805Q346 -799 348 -791Q349 -786 349 -779Q349 -776 349 -774Q358 -711 391 -528Q391 -528 391 -527L412 -374Q412 -373 412 -372L418 -232Q419 -216 421.5 -173.5Q424 -131 427 -109Q438 -70 444 -42Q452 -18 455 -5Q457 3 457 8Q457 11 456 15Q454 22 449 27Q442 35 431 35Q414 35 404 15Q400 8 397 -2Q387 -26 384 -49Q374 -73 367 -115Q360 -157 357 -168Q351 -182 335 -232Q319 -282 306 -304Q305 -305 304 -306Q281 -356 206 -387Q208 -369 212.5 -336Q217 -303 219 -288Q226 -227 226 -197Q226 -173 223 -152Q219 -52 159 8Q151 17 141 24Q134 29 126 29H120Q110 29 102.5 21.5Q95 14 95 4Q95 -5 101.5 -12.5Q108 -20 117 -21Q142 -43 157 -79.5Q172 -116 173 -156Q173 -158 173 -159Q176 -176 176 -196Q176 -223 167 -296Q166 -308 160.5 -345.5Q155 -383 153 -405Q128 -412 120 -412Q114 -412 109 -415Q104 -417 98 -423L71 -427Q62 -429 56 -436Q50 -443 50 -452Q50 -462 57.5 -469.5Q65 -477 75 -477Q77 -477 79 -477L115 -471Q124 -469 131 -461Q139 -460 149 -458ZM199 -479Q199 -461 200 -442Q274 -417 315 -376Q336 -355 349 -329Q358 -315 365 -297L362 -369L341 -520Q336 -559 322.5 -633Q309 -707 304 -742Q301 -739 298 -736Q252 -684 225.5 -619.5Q199 -555 199 -490Q199 -489 199 -485Q199 -481 199 -479Z"/>
	<path fill="#daa520" d="M301 -793Q309 -793 309 -779Q309 -776 309 -773Q315 -734 330 -651Q345 -568 351 -525L372 -372Q372 -371 372 -371L378 -230Q379 -215 381.5 -171.5Q384 -128 387 -105Q399 -65 405 -36Q417 -1 417 8Q417 15 411 15Q408 15 406 13Q405 11 403 9Q400 4 397 -5Q386 -31 383 -55Q373 -77 366 -119.5Q359 -162 356 -174Q350 -189 333.5 -240Q317 -291 303 -314Q303 -315 302 -315Q271 -381 162 -417Q162 -415 179 -285Q186 -226 186 -197Q186 -174 183 -154Q181 -106 162.5 -62.5Q144 -19 109 8Q108 9 106 9H100Q95 9 95 4Q95 -1 100 -1H104Q137 -26 154 -67.5Q171 -109 173 -155Q173 -156 173 -156Q176 -174 176 -197Q176 -224 167 -298Q166 -304 160 -350Q154 -396 152 -420Q148 -421 141.5 -423Q135 -425 132 -426Q112 -432 100 -432Q98 -432 96 -433.5Q94 -435 88 -441L54 -447Q50 -448 50 -452Q50 -457 55 -457Q55 -457 56 -457L92 -451Q94 -451 96 -448Q100 -444 101 -442Q112 -442 143 -433Q147 -432 151 -431Q149 -456 149 -479Q149 -485 149 -491Q149 -561 177.5 -630.5Q206 -700 255 -755Q269 -771 278 -779Q293 -793 301 -793ZM299 -779Q299 -781 299 -782Q293 -779 285 -772Q276 -764 263 -749Q215 -694 187 -626.5Q159 -559 159 -491Q159 -489 159 -485Q159 -481 159 -479Q159 -455 161 -427Q277 -391 311 -319Q327 -295 343 -244Q359 -193 366 -178Q366 -178 366 -177Q370 -162 374 -135Q373 -149 371.5 -181Q370 -213 368 -230L362 -371L341 -523Q335 -567 320 -650Q305 -733 299 -772Q299 -773 299 -773Q299 -773 299 -775Q299 -777 299 -779Z"/>
</svg>