<svg xmlns="http://www.w3.org/2000/svg" viewBox="0 -1024 1024 1024">
	<path fill="#000088" d="M195 -423Q195 -423 204 -432Q254 -487 254 -547Q254 -557 253 -563Q252 -569 252 -593Q252 -682 240 -717Q217 -717 204 -707L180 -644V-491Q186 -478 189.5 -454Q193 -430 195 -423ZM405 -272Q405 -247 387.5 -205Q370 -163 345 -133L390 -67Q395 -59 395 -51Q395 -39 386.5 -30.5Q378 -22 366 -22Q350 -22 342 -34L303 -91L300 -87Q276 -63 252 -63Q151 -63 118 -96L82 -131Q55 -158 55 -215Q55 -285 123 -353L146 -376Q144 -381 139 -389.5Q134 -398 133 -401Q124 -416 119.5 -446.5Q115 -477 109 -491V-644L136 -713L171 -748Q177 -752 179 -754L196 -771Q212 -787 240 -787Q253 -787 261 -779L296 -743Q323 -716 323 -593Q323 -569 324 -563Q325 -557 325 -547Q325 -482 259 -416L217 -374Q225 -357 238 -323.5Q251 -290 263 -263.5Q275 -237 288 -218L309 -187Q334 -237 334 -272Q334 -287 344 -297Q354 -307 369 -307Q384 -307 394.5 -297Q405 -287 405 -272ZM167 -324Q126 -273 126 -215Q126 -176 138 -152Q173 -133 252 -133Q262 -133 272 -138L217 -218Q198 -246 167 -324Z"/>
	<path fill="#800080" d="M299 -547Q299 -517 290.5 -491.5Q282 -466 264 -442Q246 -418 233 -404.5Q220 -391 196 -369Q199 -361 213.5 -325.5Q228 -290 237.5 -268.5Q247 -247 258 -232L295 -177Q306 -197 315 -218Q329 -253 329 -272Q329 -282 336.5 -289.5Q344 -297 354 -297Q364 -297 371.5 -289.5Q379 -282 379 -272Q379 -243 361 -199Q346 -161 325 -132L360 -81Q364 -75 364 -67Q364 -57 357 -49.5Q350 -42 339 -42Q326 -42 319 -53L291 -94Q265 -73 237 -73Q182 -73 145 -81.5Q108 -90 85 -114Q50 -148 50 -215Q50 -266 73 -304.5Q96 -343 135 -381Q133 -385 131 -389Q121 -407 115 -444Q111 -470 106 -481Q104 -486 104 -491V-644Q104 -649 106 -653L133 -722Q136 -730 144 -735Q146 -736 163 -753Q176 -766 191 -772Q206 -777 225 -777Q247 -777 263 -761Q284 -740 292 -689Q297 -656 297 -593Q297 -571 298 -565Q299 -556 299 -547ZM225 -727Q215 -727 208 -725Q204 -723 199 -718Q180 -699 176 -697L154 -639V-496Q160 -481 164 -452Q168 -427 173 -416Q184 -426 191 -433Q220 -462 234.5 -488Q249 -514 249 -546Q249 -553 248 -560.5Q247 -568 247 -593Q246 -683 234 -713Q231 -722 227 -726Q226 -727 226 -727Q226 -727 225 -727ZM100 -215Q100 -169 120 -149Q133 -136 157 -130Q185 -123 237 -123Q238 -123 242 -124.5Q246 -126 252 -129Q258 -132 262 -136L216 -204Q209 -215 202.5 -227Q196 -239 189 -254Q182 -269 178.5 -278Q175 -287 167.5 -306Q160 -325 157 -332Q100 -274 100 -215Z"/>
	<path fill="#daa520" d="M279 -547Q279 -520 271.5 -497Q264 -474 246.5 -452Q229 -430 216.5 -417Q204 -404 180 -381Q175 -377 172 -374Q179 -358 192 -324Q205 -290 217 -264.5Q229 -239 241 -221L295 -142Q301 -149 306 -157Q325 -186 337 -219.5Q349 -253 349 -272Q349 -277 354 -277Q359 -277 359 -272Q359 -250 346.5 -216Q334 -182 314 -152Q308 -142 301 -133L343 -70Q344 -69 344 -67Q344 -62 339 -62Q337 -62 335 -64L294 -125Q265 -93 237 -93Q163 -93 128 -108Q70 -134 70 -215Q70 -264 93.5 -300Q117 -336 160 -376Q154 -389 149 -399Q140 -414 135.5 -444.5Q131 -475 124 -489Q124 -490 124 -491V-644Q124 -645 124 -646L151 -715Q152 -716 154 -717Q161 -722 172 -733Q194 -757 225 -757Q256 -757 268 -705Q276 -671 277 -593Q277 -570 278 -563Q279 -555 279 -547ZM225 -747Q212 -747 203 -744Q194 -741 190 -737.5Q186 -734 179 -727Q168 -715 160 -710L134 -643V-492Q140 -479 144.5 -448.5Q149 -418 157 -403Q162 -395 168 -384Q194 -408 205.5 -420Q217 -432 235.5 -454.5Q254 -477 261.5 -499Q269 -521 269 -547Q269 -554 268 -563Q267 -569 267 -593Q266 -669 258 -703Q248 -747 225 -747ZM80 -215Q80 -140 132 -118Q165 -103 237 -103Q261 -103 288 -134L233 -215Q220 -234 208.5 -259Q197 -284 184 -318Q171 -352 164 -367Q123 -329 101.5 -294.5Q80 -260 80 -215Z"/>
</svg>