<svg xmlns="http://www.w3.org/2000/svg" viewBox="0 -1024 1024 1024">
	<path fill="#000088" d="M349 -547Q349 -517 340.5 -491.5Q332 -466 314 -442Q296 -418 283 -404.5Q270 -391 246 -369Q249 -361 263.5 -325.5Q278 -290 287.5 -268.5Q297 -247 308 -232L345 -177Q356 -197 365 -218Q379 -253 379 -272Q379 -282 386.5 -289.5Q394 -297 404 -297Q414 -297 421.5 -289.5Q429 -282 429 -272Q429 -243 411 -199Q396 -161 375 -132L410 -81Q414 -75 414 -67Q414 -57 407 -49.5Q400 -42 389 -42Q376 -42 369 -53L341 -94Q315 -73 287 -73Q232 -73 195 -81.5Q158 -90 135 -114Q100 -148 100 -215Q100 -266 123 -304.5Q146 -343 185 -381Q183 -385 181 -389Q171 -407 165 -444Q161 -470 156 -481Q154 -486 154 -491V-644Q154 -649 156 -653L183 -722Q186 -730 194 -735Q196 -736 213 -753Q226 -766 241 -772Q256 -777 275 -777Q297 -777 313 -761Q334 -740 342 -689Q347 -656 347 -593Q347 -571 348 -565Q349 -556 349 -547ZM275 -727Q265 -727 258 -725Q254 -723 249 -718Q230 -699 226 -697L204 -639V-496Q210 -481 214 -452Q218 -427 223 -416Q234 -426 241 -433Q270 -462 284.5 -488Q299 -514 299 -546Q299 -553 298 -560.5Q297 -568 297 -593Q296 -683 284 -713Q281 -722 277 -726Q276 -727 276 -727Q276 -727 275 -727ZM150 -215Q150 -169 170 -149Q183 -136 207 -130Q235 -123 287 -123Q288 -123 292 -124.5Q296 -126 302 -129Q308 -132 312 -136L266 -204Q259 -215 252.5 -227Q246 -239 239 -254Q232 -269 228.5 -278Q225 -287 217.5 -306Q210 -325 207 -332Q150 -274 150 -215Z"/>
	<path fill="#800080" d="M299 -547Q299 -517 290.5 -491.5Q282 -466 264 -442Q246 -418 233 -404.5Q220 -391 196 -369Q199 -361 213.5 -325.5Q228 -290 237.5 -268.5Q247 -247 258 -232L295 -177Q306 -197 315 -218Q329 -253 329 -272Q329 -282 336.5 -289.5Q344 -297 354 -297Q364 -297 371.5 -289.5Q379 -282 379 -272Q379 -243 361 -199Q346 -161 325 -132L360 -81Q364 -75 364 -67Q364 -57 357 -49.5Q350 -42 339 -42Q326 -42 319 -53L291 -94Q265 -73 237 -73Q182 -73 145 -81.5Q108 -90 85 -114Q50 -148 50 -215Q50 -266 73 -304.5Q96 -343 135 -381Q133 -385 131 -389Q121 -407 115 -444Q111 -470 106 -481Q104 -486 104 -491V-644Q104 -649 106 -653L133 -722Q136 -730 144 -735Q146 -736 163 -753Q176 -766 191 -772Q206 -777 225 -777Q247 -777 263 -761Q284 -740 292 -689Q297 -656 297 -593Q297 -571 298 -565Q299 -556 299 -547ZM225 -727Q215 -727 208 -725Q204 -723 199 -718Q180 -699 176 -697L154 -639V-496Q160 -481 164 -452Q168 -427 173 -416Q184 -426 191 -433Q220 -462 234.5 -488Q249 -514 249 -546Q249 -553 248 -560.5Q247 -568 247 -593Q246 -683 234 -713Q231 -722 227 -726Q226 -727 226 -727Q226 -727 225 -727ZM100 -215Q100 -169 120 -149Q133 -136 157 -130Q185 -123 237 -123Q238 -123 242 -124.5Q246 -126 252 -129Q258 -132 262 -136L216 -204Q209 -215 202.5 -227Q196 -239 189 -254Q182 -269 178.5 -278Q175 -287 167.5 -306Q160 -325 157 -332Q100 -274 100 -215Z"/>
	<path fill="#daa520" d="M259 -547Q259 -520 251.5 -497Q244 -474 226.5 -452Q209 -430 196.5 -417Q184 -404 160 -381Q155 -377 152 -374Q159 -358 172 -324Q185 -290 197 -264.5Q209 -239 221 -221L275 -142Q281 -149 286 -157Q305 -186 317 -219.5Q329 -253 329 -272Q329 -277 334 -277Q339 -277 339 -272Q339 -250 326.5 -216Q314 -182 294 -152Q288 -142 281 -133L323 -70Q324 -69 324 -67Q324 -62 319 -62Q317 -62 315 -64L274 -125Q245 -93 217 -93Q143 -93 108 -108Q50 -134 50 -215Q50 -264 73.5 -300Q97 -336 140 -376Q134 -389 129 -399Q120 -414 115.5 -444.5Q111 -475 104 -489Q104 -490 104 -491V-644Q104 -645 104 -646L131 -715Q132 -716 134 -717Q141 -722 152 -733Q174 -757 205 -757Q236 -757 248 -705Q256 -671 257 -593Q257 -570 258 -563Q259 -555 259 -547ZM205 -747Q192 -747 183 -744Q174 -741 170 -737.5Q166 -734 159 -727Q148 -715 140 -710L114 -643V-492Q120 -479 124.5 -448.5Q129 -418 137 -403Q142 -395 148 -384Q174 -408 185.5 -420Q197 -432 215.5 -454.5Q234 -477 241.5 -499Q249 -521 249 -547Q249 -554 248 -563Q247 -569 247 -593Q246 -669 238 -703Q228 -747 205 -747ZM60 -215Q60 -140 112 -118Q145 -103 217 -103Q241 -103 268 -134L213 -215Q200 -234 188.5 -259Q177 -284 164 -318Q151 -352 144 -367Q103 -329 81.5 -294.5Q60 -260 60 -215Z"/>
</svg>