<svg xmlns="http://www.w3.org/2000/svg" viewBox="0 -1024 1024 1024">
	<path fill="#000088" d="M344 -611Q355 -611 362.5 -603.5Q370 -596 370 -586Q370 -578 362 -568L101 -301Q93 -293 83 -293Q72 -293 64.5 -300.5Q57 -308 57 -318Q57 -326 65 -336L326 -603Q334 -611 344 -611ZM80 -608Q88 -608 98 -600L364 -340Q372 -332 372 -322Q372 -311 364.5 -303.5Q357 -296 347 -296Q339 -296 329 -304L63 -564Q55 -572 55 -582Q55 -593 62.5 -600.5Q70 -608 80 -608ZM177 -614Q177 -629 187 -639.5Q197 -650 212 -650Q226 -650 236.5 -639.5Q247 -629 247 -615L250 -290Q250 -275 240 -264.5Q230 -254 215 -254Q201 -254 190.5 -264.5Q180 -275 180 -289Z"/>
	<path fill="#800080" d="M322 -551L95 -318Q87 -311 77 -311Q67 -311 59.5 -318.5Q52 -326 52 -336Q52 -346 59 -353L286 -586Q294 -593 304 -593Q314 -593 321.5 -585.5Q329 -578 329 -568Q329 -558 322 -551ZM92 -583L324 -357Q331 -349 331 -339Q331 -329 323.5 -321.5Q316 -314 306 -314Q296 -314 289 -321L57 -547Q50 -555 50 -565Q50 -575 57.5 -582.5Q65 -590 75 -590Q85 -590 92 -583ZM164 -614Q164 -624 171.5 -631.5Q179 -639 189 -639Q199 -639 206.5 -631.5Q214 -624 214 -614L217 -290Q217 -280 209.5 -272.5Q202 -265 192 -265Q182 -265 174.5 -272.5Q167 -280 167 -290Z"/>
	<path fill="#daa520" d="M304 -573Q309 -573 309 -568Q309 -566 308 -565L81 -333Q79 -331 77 -331Q72 -331 72 -336Q72 -338 73 -339L300 -571Q302 -573 304 -573ZM70 -565Q70 -570 75 -570Q77 -570 78 -569L309 -343Q311 -341 311 -339Q311 -334 306 -334Q304 -334 303 -335L72 -561Q70 -563 70 -565ZM194 -614L197 -290Q197 -285 192 -285Q187 -285 187 -290L184 -614Q184 -619 189 -619Q194 -619 194 -614Z"/>
</svg>