<svg xmlns="http://www.w3.org/2000/svg" viewBox="0 -1024 1024 1024">
	<path fill="#000088" d="M372 -551L145 -318Q137 -311 127 -311Q117 -311 109.5 -318.5Q102 -326 102 -336Q102 -346 109 -353L336 -586Q344 -593 354 -593Q364 -593 371.5 -585.5Q379 -578 379 -568Q379 -558 372 -551ZM142 -583L374 -357Q381 -349 381 -339Q381 -329 373.5 -321.5Q366 -314 356 -314Q346 -314 339 -321L107 -547Q100 -555 100 -565Q100 -575 107.5 -582.5Q115 -590 125 -590Q135 -590 142 -583ZM214 -614Q214 -624 221.5 -631.5Q229 -639 239 -639Q249 -639 256.5 -631.5Q264 -624 264 -614L267 -290Q267 -280 259.5 -272.5Q252 -265 242 -265Q232 -265 224.5 -272.5Q217 -280 217 -290Z"/>
	<path fill="#800080" d="M322 -551L95 -318Q87 -311 77 -311Q67 -311 59.5 -318.5Q52 -326 52 -336Q52 -346 59 -353L286 -586Q294 -593 304 -593Q314 -593 321.5 -585.5Q329 -578 329 -568Q329 -558 322 -551ZM92 -583L324 -357Q331 -349 331 -339Q331 -329 323.5 -321.5Q316 -314 306 -314Q296 -314 289 -321L57 -547Q50 -555 50 -565Q50 -575 57.5 -582.5Q65 -590 75 -590Q85 -590 92 -583ZM164 -614Q164 -624 171.5 -631.5Q179 -639 189 -639Q199 -639 206.5 -631.5Q214 -624 214 -614L217 -290Q217 -280 209.5 -272.5Q202 -265 192 -265Q182 -265 174.5 -272.5Q167 -280 167 -290Z"/>
	<path fill="#daa520" d="M304 -573Q309 -573 309 -568Q309 -566 308 -565L81 -333Q79 -331 77 -331Q72 -331 72 -336Q72 -338 73 -339L300 -571Q302 -573 304 -573ZM70 -565Q70 -570 75 -570Q77 -570 78 -569L309 -343Q311 -341 311 -339Q311 -334 306 -334Q304 -334 303 -335L72 -561Q70 -563 70 -565ZM194 -614L197 -290Q197 -285 192 -285Q187 -285 187 -290L184 -614Q184 -619 189 -619Q194 -619 194 -614Z"/>
</svg>