<svg xmlns="http://www.w3.org/2000/svg" viewBox="0 -1024 1024 1024">
	<path fill="#000088" d="M220 -176Q220 -179 220 -186Q220 -193 220 -196Q220 -310 259 -349Q285 -375 326 -375Q362 -375 415 -343Q450 -321 467 -321Q477 -321 484.5 -313.5Q492 -306 492 -296Q492 -286 484.5 -278.5Q477 -271 467 -271Q452 -271 435.5 -276.5Q419 -282 412 -286Q405 -290 389 -300Q348 -325 326 -325Q306 -325 295 -314Q281 -300 275 -268Q270 -242 270 -193Q270 -190 270 -184.5Q270 -179 270 -176Q270 -117 308 -80Q333 -54 373.5 -40.5Q414 -27 458 -27Q473 -27 483 -37Q505 -59 505 -110Q505 -131 508 -144Q511 -159 519 -167Q528 -176 540 -176Q555 -176 569 -162Q577 -153 597 -127Q621 -92 635 -79Q650 -63 659 -63Q682 -63 695 -75Q718 -99 718 -185Q718 -278 645 -351Q608 -388 560 -409Q512 -430 461 -430Q288 -430 211 -353Q150 -292 150 -179Q150 -108 176.5 -39.5Q203 29 250 76Q318 144 407 144Q407 144 409 144Q584 147 686 147Q696 147 702.5 141.5Q709 136 709 127Q709 113 719 102Q721 95 728 89.5Q735 84 743 84Q753 84 760.5 91.5Q768 99 768 109Q768 122 759 133Q756 160 735 178.5Q714 197 686 197Q578 197 407 194Q297 194 214 111Q160 57 130 -20.5Q100 -98 100 -179Q100 -313 176 -389Q267 -480 461 -480Q522 -480 579.5 -455Q637 -430 680 -386Q768 -299 768 -185Q768 -78 730 -40Q703 -13 659 -13Q630 -13 599 -43Q583 -59 555 -99Q552 -35 519 -2Q494 23 458 23Q340 23 272 -44Q220 -97 220 -176Z"/>
	<path fill="#800080" d="M170 -176Q170 -179 170 -186Q170 -193 170 -196Q170 -310 209 -349Q235 -375 276 -375Q312 -375 365 -343Q400 -321 417 -321Q427 -321 434.5 -313.5Q442 -306 442 -296Q442 -286 434.5 -278.5Q427 -271 417 -271Q402 -271 385.5 -276.5Q369 -282 362 -286Q355 -290 339 -300Q298 -325 276 -325Q256 -325 245 -314Q231 -300 225 -268Q220 -242 220 -193Q220 -190 220 -184.5Q220 -179 220 -176Q220 -117 258 -80Q283 -54 323.5 -40.5Q364 -27 408 -27Q423 -27 433 -37Q455 -59 455 -110Q455 -131 458 -144Q461 -159 469 -167Q478 -176 490 -176Q505 -176 519 -162Q527 -153 547 -127Q571 -92 585 -79Q600 -63 609 -63Q632 -63 645 -75Q668 -99 668 -185Q668 -278 595 -351Q558 -388 510 -409Q462 -430 411 -430Q238 -430 161 -353Q100 -292 100 -179Q100 -108 126.5 -39.5Q153 29 200 76Q268 144 357 144Q357 144 359 144Q534 147 636 147Q646 147 652.5 141.5Q659 136 659 127Q659 113 669 102Q671 95 678 89.5Q685 84 693 84Q703 84 710.5 91.5Q718 99 718 109Q718 122 709 133Q706 160 685 178.5Q664 197 636 197Q528 197 357 194Q247 194 164 111Q110 57 80 -20.5Q50 -98 50 -179Q50 -313 126 -389Q217 -480 411 -480Q472 -480 529.5 -455Q587 -430 630 -386Q718 -299 718 -185Q718 -78 680 -40Q653 -13 609 -13Q580 -13 549 -43Q533 -59 505 -99Q502 -35 469 -2Q444 23 408 23Q290 23 222 -44Q170 -97 170 -176Z"/>
	<path fill="#daa520" d="M170 -176Q170 -179 170 -185Q170 -191 170 -195Q170 -215 170.5 -228.5Q171 -242 173.5 -263Q176 -284 182 -298.5Q188 -313 197 -327Q206 -341 221 -348Q236 -355 256 -355Q287 -355 334 -326Q375 -301 397 -301Q402 -301 402 -296Q402 -291 397 -291Q372 -291 329 -317Q284 -345 256 -345Q235 -345 220.5 -335Q206 -325 198 -311.5Q190 -298 186 -275.5Q182 -253 181 -236Q180 -219 180 -195Q180 -191 180 -185Q180 -179 180 -176Q180 -93 241.5 -50Q303 -7 388 -7Q422 -7 438.5 -37Q455 -67 455 -110Q455 -140 460 -149Q464 -156 470 -156Q477 -156 487 -145Q494 -138 510 -115Q526 -94 536.5 -80.5Q547 -67 562 -55Q577 -43 589 -43Q636 -43 652 -79.5Q668 -116 668 -185Q668 -290 584 -370Q500 -450 391 -450Q60 -450 60 -179Q60 -94 94 -16Q128 62 192.5 113Q257 164 337 164Q507 167 616 167Q634 167 646.5 155.5Q659 144 659 127Q659 121 665 115Q668 111 668 109Q668 104 673 104Q678 104 678 109Q678 115 672 121Q669 125 669 127Q669 148 653.5 162.5Q638 177 616 177Q508 177 337 174Q274 174 219 143Q164 112 128 62Q92 12 71 -51Q50 -114 50 -179Q50 -324 139.5 -392Q229 -460 391 -460Q504 -460 591 -377.5Q678 -295 678 -185Q678 -152 675 -128.5Q672 -105 663.5 -81.5Q655 -58 636 -45.5Q617 -33 589 -33Q569 -33 547 -54Q530 -70 502 -109Q486 -131 480 -138Q473 -146 470 -146Q465 -142 465 -110Q465 -65 446.5 -31Q428 3 388 3Q333 3 285 -14.5Q237 -32 203.5 -74Q170 -116 170 -176Z"/>
</svg>