<svg xmlns="http://www.w3.org/2000/svg" viewBox="0 -1024 1024 1024">
	<path fill="#000088" d="M325 -739Q324 -739 322.5 -739Q321 -739 320 -739Q312 -739 301.5 -740.5Q291 -742 279.5 -744.5Q268 -747 262 -748Q259 -749 255 -749Q235 -749 219 -732Q203 -715 198 -694Q198 -693 191 -665L176 -606L159 -497L150 -294L162 -178Q190 -76 214 -14Q216 -10 216 -5Q216 5 208.5 12.5Q201 20 191 20Q174 20 168 4Q143 -61 113 -166Q112 -168 112 -170L100 -290Q100 -292 100 -293Q100 -294 100 -294L109 -501Q109 -503 109 -504L127 -615Q127 -616 128 -617Q143 -680 144 -683Q147 -694 148 -699Q148 -701 149 -704Q157 -740 184 -767Q216 -799 256 -799Q267 -799 290 -794.5Q313 -790 319 -789Q322 -789 326 -789Q342 -789 367 -776Q379 -768 384 -768Q438 -758 477 -719Q534 -662 534 -578Q534 -575 533 -571Q521 -528 485 -491Q428 -435 352 -425Q438 -371 476 -333Q543 -266 543 -194Q543 -105 493 -56Q445 -7 359 -7Q339 -7 321 -13.5Q303 -20 283.5 -30.5Q264 -41 254 -45Q243 -49 240 -59L207 -149Q205 -153 205 -157L202 -226Q202 -226 202 -227Q202 -237 209.5 -244.5Q217 -252 227 -252Q237 -252 245 -245Q252 -238 252 -228L255 -163L283 -87Q290 -84 304 -76Q342 -57 359 -57Q424 -57 458 -91Q493 -126 493 -194Q493 -245 441 -297Q407 -332 328 -381Q288 -407 277 -417Q268 -426 266 -437Q254 -446 254 -460Q254 -479 276 -490Q281 -492 285 -493.5Q289 -495 293 -495Q302 -495 309 -489Q316 -483 318 -474Q322 -473 327 -473Q359 -473 392 -487.5Q425 -502 449 -527Q475 -552 484 -581Q483 -633 452.5 -671.5Q422 -710 376 -718Q362 -721 342 -732Q329 -739 325 -739Z"/>
	<path fill="#800080" d="M275 -739Q274 -739 272.5 -739Q271 -739 270 -739Q262 -739 251.5 -740.5Q241 -742 229.5 -744.5Q218 -747 212 -748Q209 -749 205 -749Q185 -749 169 -732Q153 -715 148 -694Q148 -693 141 -665L126 -606L109 -497L100 -294L112 -178Q140 -76 164 -14Q166 -10 166 -5Q166 5 158.5 12.5Q151 20 141 20Q124 20 118 4Q93 -61 63 -166Q62 -168 62 -170L50 -290Q50 -292 50 -293Q50 -294 50 -294L59 -501Q59 -503 59 -504L77 -615Q77 -616 78 -617Q93 -680 94 -683Q97 -694 98 -699Q98 -701 99 -704Q107 -740 134 -767Q166 -799 206 -799Q217 -799 240 -794.5Q263 -790 269 -789Q272 -789 276 -789Q292 -789 317 -776Q329 -768 334 -768Q388 -758 427 -719Q484 -662 484 -578Q484 -575 483 -571Q471 -528 435 -491Q378 -435 302 -425Q388 -371 426 -333Q493 -266 493 -194Q493 -105 443 -56Q395 -7 309 -7Q289 -7 271 -13.5Q253 -20 233.5 -30.5Q214 -41 204 -45Q193 -49 190 -59L157 -149Q155 -153 155 -157L152 -226Q152 -226 152 -227Q152 -237 159.5 -244.5Q167 -252 177 -252Q187 -252 195 -245Q202 -238 202 -228L205 -163L233 -87Q240 -84 254 -76Q292 -57 309 -57Q374 -57 408 -91Q443 -126 443 -194Q443 -245 391 -297Q357 -332 278 -381Q238 -407 227 -417Q218 -426 216 -437Q204 -446 204 -460Q204 -479 226 -490Q231 -492 235 -493.5Q239 -495 243 -495Q252 -495 259 -489Q266 -483 268 -474Q272 -473 277 -473Q309 -473 342 -487.5Q375 -502 399 -527Q425 -552 434 -581Q433 -633 402.5 -671.5Q372 -710 326 -718Q312 -721 292 -732Q279 -739 275 -739Z"/>
	<path fill="#daa520" d="M185 -779Q196 -779 218.5 -774Q241 -769 250 -769Q252 -769 255 -769Q267 -769 285 -759Q303 -749 311 -748Q371 -737 407.5 -688.5Q444 -640 444 -578Q444 -577 444 -577Q429 -521 373.5 -482Q318 -443 258 -443Q242 -443 225 -446Q225 -444 225 -443Q227 -436 274 -407Q303 -388 319 -377.5Q335 -367 364.5 -343.5Q394 -320 410 -300Q426 -280 439.5 -251.5Q453 -223 453 -194Q453 -114 409.5 -70.5Q366 -27 289 -27Q273 -27 256 -33Q239 -39 220 -49.5Q201 -60 191 -63Q189 -64 188 -66L155 -156Q155 -157 155 -158L152 -227Q152 -232 157 -232Q162 -232 162 -227L165 -159L197 -72Q205 -69 224 -59Q243 -49 259 -43Q275 -37 289 -37Q362 -37 402.5 -77Q443 -117 443 -194Q443 -221 430.5 -247.5Q418 -274 402 -293.5Q386 -313 358.5 -335.5Q331 -358 313.5 -369.5Q296 -381 268 -398Q238 -418 228 -425Q215 -435 215 -443Q215 -444 215 -449Q204 -453 204 -460Q204 -469 221 -475Q222 -475 223 -475Q228 -475 228 -470Q228 -470 228 -469Q227 -463 226 -457Q242 -453 258 -453Q314 -453 366.5 -490Q419 -527 434 -579Q434 -637 399.5 -682.5Q365 -728 309 -738Q299 -740 282 -749Q265 -759 255 -759Q254 -759 252.5 -759Q251 -759 250 -759Q241 -759 218.5 -763.5Q196 -768 195 -768Q190 -769 185 -769Q158 -769 136.5 -747Q115 -725 108 -697Q108 -696 102 -670L87 -610L69 -499L60 -293L72 -174Q101 -70 126 -7Q126 -6 126 -5Q126 0 121 0Q118 0 116 -3Q92 -67 62 -172L50 -292V-293L59 -500Q59 -501 59 -501L77 -612Q93 -675 94 -678Q98 -694 98 -698Q98 -699 98 -699Q105 -730 129.5 -754.5Q154 -779 185 -779ZM217 -462Q217 -461 217 -459Q215 -460 215 -460Q216 -461 217 -462Z"/>
</svg>