<svg xmlns="http://www.w3.org/2000/svg" viewBox="0 -1024 1024 1024">
	<path fill="#000088" d="M325 -739Q324 -739 322.5 -739Q321 -739 320 -739Q312 -739 301.5 -740.5Q291 -742 279.5 -744.5Q268 -747 262 -748Q259 -749 255 -749Q235 -749 219 -732Q203 -715 198 -694Q198 -693 191 -665L176 -606L159 -497L150 -294L162 -178Q190 -76 214 -14Q216 -10 216 -5Q216 5 208.5 12.5Q201 20 191 20Q174 20 168 4Q143 -61 113 -166Q112 -168 112 -170L100 -290Q100 -292 100 -293Q100 -294 100 -294L109 -501Q109 -503 109 -504L127 -615Q127 -616 128 -617Q143 -680 144 -683Q147 -694 148 -699Q148 -701 149 -704Q157 -740 184 -767Q216 -799 256 -799Q267 -799 290 -794.5Q313 -790 319 -789Q322 -789 326 -789Q342 -789 367 -776Q379 -768 384 -768Q438 -758 477 -719Q534 -662 534 -578Q534 -575 533 -571Q521 -528 485 -491Q428 -435 352 -425Q438 -371 476 -333Q543 -266 543 -194Q543 -105 493 -56Q445 -7 359 -7Q339 -7 321 -13.5Q303 -20 283.5 -30.5Q264 -41 254 -45Q243 -49 240 -59L207 -149Q205 -153 205 -157L202 -226Q202 -226 202 -227Q202 -237 209.5 -244.5Q217 -252 227 -252Q237 -252 245 -245Q252 -238 252 -228L255 -163L283 -87Q290 -84 304 -76Q342 -57 359 -57Q424 -57 458 -91Q493 -126 493 -194Q493 -245 441 -297Q407 -332 328 -381Q288 -407 277 -417Q268 -426 266 -437Q254 -446 254 -460Q254 -479 276 -490Q281 -492 285 -493.5Q289 -495 293 -495Q302 -495 309 -489Q316 -483 318 -474Q322 -473 327 -473Q359 -473 392 -487.5Q425 -502 449 -527Q475 -552 484 -581Q483 -633 452.5 -671.5Q422 -710 376 -718Q362 -721 342 -732Q329 -739 325 -739Z"/>
	<path fill="#800080" d="M275 -739Q274 -739 272.5 -739Q271 -739 270 -739Q262 -739 251.5 -740.5Q241 -742 229.5 -744.5Q218 -747 212 -748Q209 -749 205 -749Q185 -749 169 -732Q153 -715 148 -694Q148 -693 141 -665L126 -606L109 -497L100 -294L112 -178Q140 -76 164 -14Q166 -10 166 -5Q166 5 158.5 12.5Q151 20 141 20Q124 20 118 4Q93 -61 63 -166Q62 -168 62 -170L50 -290Q50 -292 50 -293Q50 -294 50 -294L59 -501Q59 -503 59 -504L77 -615Q77 -616 78 -617Q93 -680 94 -683Q97 -694 98 -699Q98 -701 99 -704Q107 -740 134 -767Q166 -799 206 -799Q217 -799 240 -794.5Q263 -790 269 -789Q272 -789 276 -789Q292 -789 317 -776Q329 -768 334 -768Q388 -758 427 -719Q484 -662 484 -578Q484 -575 483 -571Q471 -528 435 -491Q378 -435 302 -425Q388 -371 426 -333Q493 -266 493 -194Q493 -105 443 -56Q395 -7 309 -7Q289 -7 271 -13.5Q253 -20 233.5 -30.5Q214 -41 204 -45Q193 -49 190 -59L157 -149Q155 -153 155 -157L152 -226Q152 -226 152 -227Q152 -237 159.5 -244.5Q167 -252 177 -252Q187 -252 195 -245Q202 -238 202 -228L205 -163L233 -87Q240 -84 254 -76Q292 -57 309 -57Q374 -57 408 -91Q443 -126 443 -194Q443 -245 391 -297Q357 -332 278 -381Q238 -407 227 -417Q218 -426 216 -437Q204 -446 204 -460Q204 -479 226 -490Q231 -492 235 -493.5Q239 -495 243 -495Q252 -495 259 -489Q266 -483 268 -474Q272 -473 277 -473Q309 -473 342 -487.5Q375 -502 399 -527Q425 -552 434 -581Q433 -633 402.5 -671.5Q372 -710 326 -718Q312 -721 292 -732Q279 -739 275 -739Z"/>
	<path fill="#daa520" d="M205 -779Q216 -779 238.5 -774Q261 -769 270 -769Q272 -769 275 -769Q287 -769 305 -759Q323 -749 331 -748Q391 -737 427.5 -688.5Q464 -640 464 -578Q464 -577 464 -577Q449 -521 393.5 -482Q338 -443 278 -443Q262 -443 245 -446Q245 -444 245 -443Q247 -436 294 -407Q323 -388 339 -377.5Q355 -367 384.5 -343.5Q414 -320 430 -300Q446 -280 459.5 -251.5Q473 -223 473 -194Q473 -114 429.5 -70.5Q386 -27 309 -27Q293 -27 276 -33Q259 -39 240 -49.5Q221 -60 211 -63Q209 -64 208 -66L175 -156Q175 -157 175 -158L172 -227Q172 -232 177 -232Q182 -232 182 -227L185 -159L217 -72Q225 -69 244 -59Q263 -49 279 -43Q295 -37 309 -37Q382 -37 422.5 -77Q463 -117 463 -194Q463 -221 450.5 -247.5Q438 -274 422 -293.5Q406 -313 378.5 -335.5Q351 -358 333.5 -369.5Q316 -381 288 -398Q258 -418 248 -425Q235 -435 235 -443Q235 -444 235 -449Q224 -453 224 -460Q224 -469 241 -475Q242 -475 243 -475Q248 -475 248 -470Q248 -470 248 -469Q247 -463 246 -457Q262 -453 278 -453Q334 -453 386.5 -490Q439 -527 454 -579Q454 -637 419.5 -682.5Q385 -728 329 -738Q319 -740 302 -749Q285 -759 275 -759Q274 -759 272.5 -759Q271 -759 270 -759Q261 -759 238.5 -763.5Q216 -768 215 -768Q210 -769 205 -769Q178 -769 156.5 -747Q135 -725 128 -697Q128 -696 122 -670L107 -610L89 -499L80 -293L92 -174Q121 -70 146 -7Q146 -6 146 -5Q146 0 141 0Q138 0 136 -3Q112 -67 82 -172L70 -292V-293L79 -500Q79 -501 79 -501L97 -612Q113 -675 114 -678Q118 -694 118 -698Q118 -699 118 -699Q125 -730 149.5 -754.5Q174 -779 205 -779ZM237 -462Q237 -461 237 -459Q235 -460 235 -460Q236 -461 237 -462Z"/>
</svg>