<svg xmlns="http://www.w3.org/2000/svg" viewBox="0 -1024 1024 1024">
	<path fill="#000088" d="M459 -94Q459 -81 449.5 -71.5Q440 -62 427 -62Q405 -62 396 -82L155 -665Q153 -671 153 -677Q153 -691 162.5 -700.5Q172 -710 185 -710Q207 -710 216 -690L457 -107Q459 -101 459 -94Z"/>
	<path fill="#800080" d="M409 -94Q409 -81 399.5 -71.5Q390 -62 377 -62Q355 -62 346 -82L105 -665Q103 -671 103 -677Q103 -691 112.5 -700.5Q122 -710 135 -710Q157 -710 166 -690L407 -107Q409 -101 409 -94Z"/>
	<path fill="#daa520" d="M291 -107Q291 -102 286 -102Q283 -102 281 -105L50 -663Q50 -664 50 -665Q50 -670 55 -670Q58 -670 60 -667L291 -109Q291 -108 291 -107Z"/>
</svg>