<svg xmlns="http://www.w3.org/2000/svg" viewBox="0 -1024 1024 1024">
	<path fill="#000088" d="M168 -506Q168 -534 159 -596.5Q150 -659 150 -687Q150 -741 174 -764L210 -800Q226 -816 254 -820Q257 -821 259 -821Q274 -821 284 -810.5Q294 -800 294 -786Q294 -773 286 -763Q278 -753 265 -751Q241 -748 231 -743Q221 -722 221 -687Q221 -659 229.5 -596.5Q238 -534 238 -506Q238 -491 228.5 -476.5Q219 -462 202.5 -445Q186 -428 181 -421L205 -398Q216 -387 221.5 -361.5Q227 -336 228.5 -314Q230 -292 231 -247Q234 -118 252 -64Q256 -63 261 -63Q264 -63 266 -63.5Q268 -64 270 -64Q285 -64 295 -53.5Q305 -43 305 -28Q305 -15 296 -5Q287 5 274 6Q264 8 261 8Q239 8 228 -4L193 -39Q188 -44 186 -50Q164 -107 160 -247Q158 -342 149 -372Q147 -372 145.5 -372Q144 -372 141 -371.5Q138 -371 137 -371Q124 -371 114.5 -381.5Q105 -392 105 -407Q105 -417 129 -443Q168 -483 168 -506Z"/>
	<path fill="#800080" d="M118 -506Q118 -534 109 -596.5Q100 -659 100 -687Q100 -741 124 -764L160 -800Q176 -816 204 -820Q207 -821 209 -821Q224 -821 234 -810.5Q244 -800 244 -786Q244 -773 236 -763Q228 -753 215 -751Q191 -748 181 -743Q171 -722 171 -687Q171 -659 179.5 -596.5Q188 -534 188 -506Q188 -491 178.5 -476.5Q169 -462 152.5 -445Q136 -428 131 -421L155 -398Q166 -387 171.5 -361.5Q177 -336 178.5 -314Q180 -292 181 -247Q184 -118 202 -64Q206 -63 211 -63Q214 -63 216 -63.5Q218 -64 220 -64Q235 -64 245 -53.5Q255 -43 255 -28Q255 -15 246 -5Q237 5 224 6Q214 8 211 8Q189 8 178 -4L143 -39Q138 -44 136 -50Q114 -107 110 -247Q108 -342 99 -372Q97 -372 95.5 -372Q94 -372 91 -371.5Q88 -371 87 -371Q74 -371 64.5 -381.5Q55 -392 55 -407Q55 -417 79 -443Q118 -483 118 -506Z"/>
	<path fill="#daa520" d="M63 -506Q63 -534 54.5 -596.5Q46 -659 46 -687Q46 -778 118 -790Q119 -790 119 -790Q124 -790 124 -785Q124 -781 120 -780Q84 -774 70 -750.5Q56 -727 56 -687Q56 -659 64.5 -596.5Q73 -534 73 -506Q73 -494 65.5 -480.5Q58 -467 52 -460Q46 -453 33 -439Q16 -421 12 -412Q42 -412 54 -371Q63 -340 66 -247Q69 -107 91 -52Q98 -33 126 -33Q128 -33 129.5 -33Q131 -33 131 -33Q136 -33 136 -28Q136 -24 132 -23Q129 -23 126 -23Q91 -23 81 -48Q71 -75 65 -113Q59 -151 58 -176Q57 -201 56 -247Q54 -328 45.5 -365Q37 -402 11 -402Q10 -402 8 -402Q6 -402 5 -402Q0 -402 0 -407Q0 -419 26 -446Q63 -485 63 -506Z"/>
</svg>