<svg xmlns="http://www.w3.org/2000/svg" viewBox="0 -1024 1024 1024">
	<path fill="#000088" d="M251 -853Q266 -853 276 -842.5Q286 -832 286 -818V202Q286 217 276 227Q266 237 251 237H149Q134 237 124 227Q114 217 114 202Q114 187 124 177Q134 167 149 167H216V-783H149Q134 -783 124 -793Q114 -803 114 -818Q114 -833 124 -843Q134 -853 149 -853Z"/>
	<path fill="#800080" d="M201 -853Q216 -853 226 -842.5Q236 -832 236 -818V202Q236 217 226 227Q216 237 201 237H99Q84 237 74 227Q64 217 64 202Q64 187 74 177Q84 167 99 167H166V-783H99Q84 -783 74 -793Q64 -803 64 -818Q64 -833 74 -843Q84 -853 99 -853Z"/>
	<path fill="#daa520" d="M55 207Q50 207 50 202Q50 197 55 197H152V-813H55Q50 -813 50 -818Q50 -823 55 -823H157Q162 -823 162 -818V202Q162 207 157 207Z"/>
</svg>