<svg xmlns="http://www.w3.org/2000/svg" viewBox="0 -1024 1024 1024">
	<path fill="#000088" d="M184 -783V167H251Q266 167 276 177Q286 187 286 202Q286 217 276 227Q266 237 251 237H149Q134 237 124 227Q114 217 114 202V-818Q114 -833 124 -843Q134 -853 149 -853H251Q266 -853 276 -843Q286 -833 286 -818Q286 -803 276 -793Q266 -783 251 -783Z"/>
	<path fill="#800080" d="M134 -783V167H201Q216 167 226 177Q236 187 236 202Q236 217 226 227Q216 237 201 237H99Q84 237 74 227Q64 217 64 202V-818Q64 -833 74 -843Q84 -853 99 -853H201Q216 -853 226 -843Q236 -833 236 -818Q236 -803 226 -793Q216 -783 201 -783Z"/>
	<path fill="#daa520" d="M80 -813V197H177Q182 197 182 202Q182 207 177 207H75Q70 207 70 202V-818Q70 -823 75 -823H177Q182 -823 182 -818Q182 -813 177 -813Z"/>
</svg>