<svg xmlns="http://www.w3.org/2000/svg" viewBox="0 -1024 1024 1024">
	<path fill="#000088" d="M468 -686Q468 -676 460.5 -668.5Q453 -661 443 -661Q434 -661 426.5 -667.5Q419 -674 418 -683Q415 -712 402 -725Q398 -729 394 -730Q383 -733 367.5 -742Q352 -751 346 -753Q341 -755 339 -755Q290 -755 262 -727Q236 -701 208 -616Q184 -542 163 -513L150 -387L154 -248L162 -195Q169 -164 175 -152Q180 -144 189 -119Q211 -63 226 -49Q232 -43 235 -43H249Q254 -43 259 -41Q301 -23 345 -23Q368 -23 381 -29Q392 -34 413 -53Q417 -57 420 -59L434 -97L436 -153Q436 -163 443 -170Q451 -177 461 -177Q471 -177 478.5 -169.5Q486 -162 486 -152Q486 -152 486 -151L484 -91Q484 -87 482 -83L464 -35Q462 -29 457 -25Q453 -22 444.5 -14.5Q436 -7 431.5 -3Q427 1 419 6.5Q411 12 403 16Q379 27 345 27Q293 27 244 7H235Q211 7 191 -13Q169 -35 143 -101Q134 -122 131 -128Q121 -146 113 -184Q112 -185 112 -186L104 -242Q104 -244 104 -245L100 -387Q100 -388 100 -388Q100 -389 100 -391L114 -525Q115 -532 119 -537Q138 -561 161 -632Q171 -665 176.5 -679.5Q182 -694 195.5 -719.5Q209 -745 226 -762Q269 -805 339 -805Q357 -805 388 -788Q403 -780 408 -778Q425 -773 437 -760Q462 -736 468 -689Q468 -688 468 -686Z"/>
	<path fill="#800080" d="M418 -686Q418 -676 410.5 -668.5Q403 -661 393 -661Q384 -661 376.5 -667.5Q369 -674 368 -683Q365 -712 352 -725Q348 -729 344 -730Q333 -733 317.5 -742Q302 -751 296 -753Q291 -755 289 -755Q240 -755 212 -727Q186 -701 158 -616Q134 -542 113 -513L100 -387L104 -248L112 -195Q119 -164 125 -152Q130 -144 139 -119Q161 -63 176 -49Q182 -43 185 -43H199Q204 -43 209 -41Q251 -23 295 -23Q318 -23 331 -29Q342 -34 363 -53Q367 -57 370 -59L384 -97L386 -153Q386 -163 393 -170Q401 -177 411 -177Q421 -177 428.5 -169.5Q436 -162 436 -152Q436 -152 436 -151L434 -91Q434 -87 432 -83L414 -35Q412 -29 407 -25Q403 -22 394.5 -14.5Q386 -7 381.5 -3Q377 1 369 6.5Q361 12 353 16Q329 27 295 27Q243 27 194 7H185Q161 7 141 -13Q119 -35 93 -101Q84 -122 81 -128Q71 -146 63 -184Q62 -185 62 -186L54 -242Q54 -244 54 -245L50 -387Q50 -388 50 -388Q50 -389 50 -391L64 -525Q65 -532 69 -537Q88 -561 111 -632Q121 -665 126.5 -679.5Q132 -694 145.5 -719.5Q159 -745 176 -762Q219 -805 289 -805Q307 -805 338 -788Q353 -780 358 -778Q375 -773 387 -760Q412 -736 418 -689Q418 -688 418 -686Z"/>
	<path fill="#daa520" d="M378 -686Q378 -681 373 -681Q369 -681 368 -685Q361 -740 330 -749Q321 -752 303 -762Q279 -775 269 -775Q240 -775 217 -765.5Q194 -756 180.5 -744.5Q167 -733 154 -709Q141 -685 135 -669Q129 -653 119 -622Q95 -548 74 -520L60 -388L64 -246L72 -191Q80 -156 87 -142Q91 -135 101 -112Q119 -65 132 -47Q148 -23 165 -23H179Q180 -23 181 -23Q227 -3 275 -3Q303 -3 318.5 -10.5Q334 -18 356 -38Q363 -44 367 -47L384 -93L386 -152Q386 -157 391 -157Q396 -157 396 -152L394 -92Q394 -91 394 -90L376 -42Q375 -41 374 -40Q371 -38 361.5 -29.5Q352 -21 348 -18Q344 -15 335 -9Q326 -3 319.5 -0.5Q313 2 302.5 4.5Q292 7 281 7Q278 7 275 7Q226 7 178 -13H165Q143 -13 124 -41Q110 -60 91 -108Q82 -131 79 -138Q70 -153 62 -189L54 -245Q54 -246 54 -246L50 -388V-389L64 -523Q64 -524 65 -525Q85 -552 110 -626Q117 -648 121 -659Q125 -670 133.5 -690Q142 -710 149 -721Q156 -732 168.5 -746Q181 -760 194.5 -767Q208 -774 227.5 -779.5Q247 -785 269 -785Q282 -785 304.5 -773Q327 -761 332 -759Q371 -748 378 -687Q378 -687 378 -686Z"/>
</svg>