<svg xmlns="http://www.w3.org/2000/svg" viewBox="0 -1024 1024 1024">
	<path fill="#000088" d="M88 -39Q88 -52 97 -61.5Q106 -71 120 -71Q141 -71 150 -52L162 -26Q171 -6 171 7Q171 28 141 58L106 93L99 99Q90 106 82 106Q71 106 63 98Q55 90 55 79Q55 66 64 59L86 40Q100 22 100 7Q100 1 98 -7Q96 -15 94 -20L91 -26Q88 -32 88 -39Z"/>
	<path fill="#800080" d="M77 -26Q77 -36 84.5 -43.5Q92 -51 102 -51Q118 -51 125 -36Q136 -11 136 7Q136 25 124 45Q114 60 99 75Q95 80 91 83Q84 89 75 89Q65 89 57.5 81.5Q50 74 50 64Q50 53 59 45Q72 33 81 19Q86 11 86 7Q86 4 83 -4L79 -16Q77 -21 77 -26Z"/>
	<path fill="#daa520" d="M106 7Q106 1 104 -6.5Q102 -14 99.5 -19.5Q97 -25 97 -26Q97 -31 102 -31Q105 -31 107 -28Q116 -7 116 7Q116 23 100 44Q90 58 78 68Q77 69 75 69Q70 69 70 64Q70 62 72 60Q75 57 81 51Q87 45 96.5 31Q106 17 106 7Z"/>
</svg>