<svg xmlns="http://www.w3.org/2000/svg" viewBox="0 -1024 1024 1024">
	<path fill="#000088" d="M127 -26Q127 -36 134.5 -43.5Q142 -51 152 -51Q168 -51 175 -36Q186 -11 186 7Q186 25 174 45Q164 60 149 75Q145 80 141 83Q134 89 125 89Q115 89 107.5 81.5Q100 74 100 64Q100 53 109 45Q122 33 131 19Q136 11 136 7Q136 4 133 -4L129 -16Q127 -21 127 -26Z"/>
	<path fill="#800080" d="M77 -26Q77 -36 84.5 -43.5Q92 -51 102 -51Q118 -51 125 -36Q136 -11 136 7Q136 25 124 45Q114 60 99 75Q95 80 91 83Q84 89 75 89Q65 89 57.5 81.5Q50 74 50 64Q50 53 59 45Q72 33 81 19Q86 11 86 7Q86 4 83 -4L79 -16Q77 -21 77 -26Z"/>
	<path fill="#daa520" d="M86 7Q86 1 84 -6.5Q82 -14 79.5 -19.5Q77 -25 77 -26Q77 -31 82 -31Q85 -31 87 -28Q96 -7 96 7Q96 23 80 44Q70 58 58 68Q57 69 55 69Q50 69 50 64Q50 62 52 60Q55 57 61 51Q67 45 76.5 31Q86 17 86 7Z"/>
</svg>