<svg xmlns="http://www.w3.org/2000/svg" viewBox="0 -1024 1024 1024">
	<path fill="#000088" d="M321 -635Q321 -625 313.5 -617.5Q306 -610 296 -610Q290 -610 284 -613Q274 -619 264 -627V-611Q264 -601 256.5 -593.5Q249 -586 239 -586Q229 -586 221.5 -593.5Q214 -601 214 -611V-644Q207 -639 201 -633Q166 -598 166 -547Q166 -529 171 -513Q186 -495 229 -458Q257 -434 271 -421Q285 -408 305 -383.5Q325 -359 336 -335Q351 -302 351 -265Q351 -237 342 -208Q340 -171 315 -146Q287 -118 241 -109Q236 -108 231 -108V1Q231 11 223.5 18.5Q216 26 206 26Q196 26 188.5 18.5Q181 11 181 1V-112Q164 -118 140 -140Q130 -149 124 -154Q118 -159 116 -166L101 -220Q100 -224 100 -227Q100 -237 107.5 -244.5Q115 -252 125 -252Q133 -252 140 -246.5Q147 -241 149 -234L162 -187Q166 -184 173 -177Q178 -173 181 -170V-203Q181 -213 188.5 -220.5Q196 -228 206 -228Q216 -228 223.5 -220.5Q231 -213 231 -203V-158Q231 -159 231 -159Q263 -164 279 -181Q292 -194 292 -212Q292 -216 293 -220Q302 -244 302 -266Q302 -290 291 -314Q282 -333 264 -354.5Q246 -376 233.5 -387.5Q221 -399 196 -420Q148 -462 130 -484Q127 -487 126 -491Q115 -518 115 -547Q115 -618 165 -668Q187 -690 214 -701V-803Q214 -813 221.5 -820.5Q229 -828 239 -828Q249 -828 256.5 -820.5Q264 -813 264 -803V-697Q267 -694 287 -674Q300 -661 308 -657Q321 -650 321 -635Z"/>
	<path fill="#800080" d="M271 -635Q271 -625 263.5 -617.5Q256 -610 246 -610Q240 -610 234 -613Q224 -619 214 -627V-611Q214 -601 206.5 -593.5Q199 -586 189 -586Q179 -586 171.5 -593.5Q164 -601 164 -611V-644Q157 -639 151 -633Q116 -598 116 -547Q116 -529 121 -513Q136 -495 179 -458Q207 -434 221 -421Q235 -408 255 -383.5Q275 -359 286 -335Q301 -302 301 -265Q301 -237 292 -208Q290 -171 265 -146Q237 -118 191 -109Q186 -108 181 -108V1Q181 11 173.5 18.5Q166 26 156 26Q146 26 138.5 18.5Q131 11 131 1V-112Q114 -118 90 -140Q80 -149 74 -154Q68 -159 66 -166L51 -220Q50 -224 50 -227Q50 -237 57.5 -244.5Q65 -252 75 -252Q83 -252 90 -246.5Q97 -241 99 -234L112 -187Q116 -184 123 -177Q128 -173 131 -170V-203Q131 -213 138.5 -220.5Q146 -228 156 -228Q166 -228 173.5 -220.5Q181 -213 181 -203V-158Q181 -159 181 -159Q213 -164 229 -181Q242 -194 242 -212Q242 -216 243 -220Q252 -244 252 -266Q252 -290 241 -314Q232 -333 214 -354.5Q196 -376 183.5 -387.5Q171 -399 146 -420Q98 -462 80 -484Q77 -487 76 -491Q65 -518 65 -547Q65 -618 115 -668Q137 -690 164 -701V-803Q164 -813 171.5 -820.5Q179 -828 189 -828Q199 -828 206.5 -820.5Q214 -813 214 -803V-697Q217 -694 237 -674Q250 -661 258 -657Q271 -650 271 -635Z"/>
	<path fill="#daa520" d="M131 -203Q131 -208 136 -208Q141 -208 141 -203V1Q141 6 136 6Q131 6 131 1ZM164 -803Q164 -808 169 -808Q174 -808 174 -803V-611Q174 -606 169 -606Q164 -606 164 -611ZM231 -635Q231 -630 226 -630Q225 -630 224 -631Q212 -637 192 -658Q176 -674 168 -678Q127 -666 101.5 -628.5Q76 -591 76 -547Q76 -523 83 -503Q99 -483 134 -452.5Q169 -422 194.5 -399Q220 -376 241 -340Q262 -304 262 -266Q261 -237 252 -211Q252 -177 227 -156.5Q202 -136 167 -129Q153 -126 142 -126Q129 -126 118 -130.5Q107 -135 100.5 -140Q94 -145 83 -155Q73 -164 67 -169Q66 -170 65 -172L50 -226Q50 -226 50 -227Q50 -232 55 -232Q59 -232 60 -228L74 -176Q80 -171 90 -162Q101 -152 106.5 -148Q112 -144 121.5 -140Q131 -136 142 -136Q152 -136 165 -139Q198 -145 220 -163.5Q242 -182 242 -212Q242 -213 242 -214Q252 -241 252 -266Q252 -301 231 -336Q210 -371 185 -394Q160 -417 125.5 -447.5Q91 -478 75 -497Q75 -497 74 -498Q66 -521 66 -547Q66 -595 94 -635.5Q122 -676 168 -688Q168 -688 169 -688Q170 -688 171 -688Q180 -683 199 -665Q218 -645 228 -639Q231 -638 231 -635Z"/>
</svg>