<svg xmlns="http://www.w3.org/2000/svg" viewBox="0 -1024 1024 1024">
	<path fill="#000088" d="M104 -578Q104 -581 103.5 -586.5Q103 -592 103 -595Q103 -663 151 -728Q159 -742 172 -755Q205 -788 255 -795Q256 -795 258 -795Q275 -795 305.5 -792Q336 -789 350 -789Q368 -789 396 -773Q410 -765 414 -765Q423 -764 430 -757Q437 -750 437 -740Q437 -730 429.5 -722.5Q422 -715 412 -715Q411 -715 410 -715Q395 -716 371 -730Q355 -739 350 -739Q334 -739 304 -742Q274 -745 260 -745Q213 -738 194 -702Q193 -701 192 -699Q153 -647 153 -595Q154 -587 154 -577.5Q154 -568 152.5 -549.5Q151 -531 151 -522Q151 -486 170 -473Q173 -470 175.5 -468Q178 -466 181 -462.5Q184 -459 186 -457Q195 -457 205 -454Q215 -451 218 -451Q228 -449 244 -442Q255 -437 260 -437H288Q298 -437 305.5 -429.5Q313 -422 313 -412Q313 -403 307.5 -396.5Q302 -390 294 -388Q276 -383 253 -369.5Q230 -356 212 -339Q203 -329 196 -320Q194 -317 191 -314Q185 -309 179 -304Q150 -275 150 -229Q150 -226 150.5 -220.5Q151 -215 151 -212Q151 -207 150.5 -197.5Q150 -188 150 -184Q150 -147 161 -129Q163 -126 164 -123Q172 -97 193 -76Q236 -32 304 -31Q308 -31 311 -30Q321 -27 331 -27Q362 -27 390 -55Q396 -61 402 -69L421 -93Q427 -107 430 -110Q438 -117 448 -117Q458 -117 465.5 -109.5Q473 -102 473 -92Q473 -86 470 -81Q463 -67 462 -65Q433 -28 425 -20Q383 23 330 23Q315 23 300 19Q214 16 157 -41Q129 -69 117 -106Q100 -136 100 -181Q100 -188 101 -211Q100 -220 100 -228Q100 -295 144 -339Q150 -346 158 -351Q178 -379 210 -401Q204 -402 194 -405Q188 -407 186 -407Q184 -407 182 -407Q174 -407 167.5 -410Q161 -413 158 -415.5Q155 -418 149 -424Q143 -430 141 -432Q134 -437 128 -442Q101 -470 101 -519Q101 -530 102.5 -549.5Q104 -569 104 -578Z"/>
	<path fill="#800080" d="M54 -578Q54 -581 53.5 -586.5Q53 -592 53 -595Q53 -663 101 -728Q109 -742 122 -755Q155 -788 205 -795Q206 -795 208 -795Q225 -795 255.5 -792Q286 -789 300 -789Q318 -789 346 -773Q360 -765 364 -765Q373 -764 380 -757Q387 -750 387 -740Q387 -730 379.5 -722.5Q372 -715 362 -715Q361 -715 360 -715Q345 -716 321 -730Q305 -739 300 -739Q284 -739 254 -742Q224 -745 210 -745Q163 -738 144 -702Q143 -701 142 -699Q103 -647 103 -595Q104 -587 104 -577.5Q104 -568 102.5 -549.5Q101 -531 101 -522Q101 -486 120 -473Q123 -470 125.5 -468Q128 -466 131 -462.5Q134 -459 136 -457Q145 -457 155 -454Q165 -451 168 -451Q178 -449 194 -442Q205 -437 210 -437H238Q248 -437 255.5 -429.5Q263 -422 263 -412Q263 -403 257.5 -396.5Q252 -390 244 -388Q226 -383 203 -369.5Q180 -356 162 -339Q153 -329 146 -320Q144 -317 141 -314Q135 -309 129 -304Q100 -275 100 -229Q100 -226 100.5 -220.5Q101 -215 101 -212Q101 -207 100.5 -197.5Q100 -188 100 -184Q100 -147 111 -129Q113 -126 114 -123Q122 -97 143 -76Q186 -32 254 -31Q258 -31 261 -30Q271 -27 281 -27Q312 -27 340 -55Q346 -61 352 -69L371 -93Q377 -107 380 -110Q388 -117 398 -117Q408 -117 415.5 -109.5Q423 -102 423 -92Q423 -86 420 -81Q413 -67 412 -65Q383 -28 375 -20Q333 23 280 23Q265 23 250 19Q164 16 107 -41Q79 -69 67 -106Q50 -136 50 -181Q50 -188 51 -211Q50 -220 50 -228Q50 -295 94 -339Q100 -346 108 -351Q128 -379 160 -401Q154 -402 144 -405Q138 -407 136 -407Q134 -407 132 -407Q124 -407 117.5 -410Q111 -413 108 -415.5Q105 -418 99 -424Q93 -430 91 -432Q84 -437 78 -442Q51 -470 51 -519Q51 -530 52.5 -549.5Q54 -569 54 -578Z"/>
	<path fill="#daa520" d="M74 -578Q74 -581 73.5 -586.5Q73 -592 73 -595Q73 -657 118 -717Q131 -741 155 -756Q179 -771 207 -775Q207 -775 208 -775Q224 -775 254.5 -772Q285 -769 300 -769Q313 -769 336 -756Q354 -746 362 -745Q367 -745 367 -740Q367 -735 362 -735Q362 -735 361 -735Q351 -736 330.5 -747.5Q310 -759 300 -759Q285 -759 254.5 -762Q224 -765 208 -765Q182 -762 160 -747.5Q138 -733 126 -712Q126 -711 126 -711Q83 -654 83 -595V-594Q84 -587 84 -578Q84 -569 82.5 -549.5Q81 -530 81 -520Q81 -475 109 -456Q111 -454 117 -448Q127 -437 132 -437Q134 -437 136 -437Q142 -437 151.5 -434Q161 -431 165 -431Q172 -430 186 -423.5Q200 -417 210 -417H238Q243 -417 243 -412Q243 -408 239 -407Q212 -400 180 -378.5Q148 -357 130 -331Q129 -331 129 -330Q80 -293 80 -229Q80 -226 80.5 -220.5Q81 -215 81 -212Q81 -207 80.5 -197Q80 -187 80 -183Q80 -142 94 -119Q94 -118 95 -117Q109 -69 155 -40.5Q201 -12 254 -11Q255 -11 255 -11Q268 -7 281 -7Q330 -7 368 -57L388 -83L393 -94Q395 -97 398 -97Q403 -97 403 -92Q403 -91 402 -90L396 -78Q396 -77 396 -77L376 -51Q335 3 281 3Q267 3 253 -1Q197 -2 149 -32.5Q101 -63 85 -114Q70 -139 70 -183Q70 -191 71 -212Q70 -220 70 -229Q70 -297 122 -337Q153 -381 209 -407Q198 -407 184 -413.5Q170 -420 163 -421Q160 -422 150.5 -424.5Q141 -427 136 -427Q135 -427 133.5 -427Q132 -427 132 -427Q126 -427 120.5 -431Q115 -435 110.5 -440.5Q106 -446 103 -448Q71 -470 71 -520Q71 -530 72.5 -549.5Q74 -569 74 -578Z"/>
</svg>