<svg xmlns="http://www.w3.org/2000/svg" viewBox="0 -1024 1024 1024">
	<path fill="#000088" d="M104 -578Q104 -581 103.5 -586.5Q103 -592 103 -595Q103 -663 151 -728Q159 -742 172 -755Q205 -788 255 -795Q256 -795 258 -795Q275 -795 305.5 -792Q336 -789 350 -789Q368 -789 396 -773Q410 -765 414 -765Q423 -764 430 -757Q437 -750 437 -740Q437 -730 429.5 -722.5Q422 -715 412 -715Q411 -715 410 -715Q395 -716 371 -730Q355 -739 350 -739Q334 -739 304 -742Q274 -745 260 -745Q213 -738 194 -702Q193 -701 192 -699Q153 -647 153 -595Q154 -587 154 -577.5Q154 -568 152.5 -549.5Q151 -531 151 -522Q151 -486 170 -473Q173 -470 175.5 -468Q178 -466 181 -462.5Q184 -459 186 -457Q195 -457 205 -454Q215 -451 218 -451Q228 -449 244 -442Q255 -437 260 -437H288Q298 -437 305.5 -429.5Q313 -422 313 -412Q313 -403 307.5 -396.5Q302 -390 294 -388Q276 -383 253 -369.5Q230 -356 212 -339Q203 -329 196 -320Q194 -317 191 -314Q185 -309 179 -304Q150 -275 150 -229Q150 -226 150.5 -220.5Q151 -215 151 -212Q151 -207 150.5 -197.5Q150 -188 150 -184Q150 -147 161 -129Q163 -126 164 -123Q172 -97 193 -76Q236 -32 304 -31Q308 -31 311 -30Q321 -27 331 -27Q362 -27 390 -55Q396 -61 402 -69L421 -93Q427 -107 430 -110Q438 -117 448 -117Q458 -117 465.5 -109.5Q473 -102 473 -92Q473 -86 470 -81Q463 -67 462 -65Q433 -28 425 -20Q383 23 330 23Q315 23 300 19Q214 16 157 -41Q129 -69 117 -106Q100 -136 100 -181Q100 -188 101 -211Q100 -220 100 -228Q100 -295 144 -339Q150 -346 158 -351Q178 -379 210 -401Q204 -402 194 -405Q188 -407 186 -407Q184 -407 182 -407Q174 -407 167.5 -410Q161 -413 158 -415.5Q155 -418 149 -424Q143 -430 141 -432Q134 -437 128 -442Q101 -470 101 -519Q101 -530 102.5 -549.5Q104 -569 104 -578Z"/>
	<path fill="#800080" d="M54 -578Q54 -581 53.5 -586.5Q53 -592 53 -595Q53 -663 101 -728Q109 -742 122 -755Q155 -788 205 -795Q206 -795 208 -795Q225 -795 255.5 -792Q286 -789 300 -789Q318 -789 346 -773Q360 -765 364 -765Q373 -764 380 -757Q387 -750 387 -740Q387 -730 379.5 -722.5Q372 -715 362 -715Q361 -715 360 -715Q345 -716 321 -730Q305 -739 300 -739Q284 -739 254 -742Q224 -745 210 -745Q163 -738 144 -702Q143 -701 142 -699Q103 -647 103 -595Q104 -587 104 -577.5Q104 -568 102.5 -549.5Q101 -531 101 -522Q101 -486 120 -473Q123 -470 125.5 -468Q128 -466 131 -462.5Q134 -459 136 -457Q145 -457 155 -454Q165 -451 168 -451Q178 -449 194 -442Q205 -437 210 -437H238Q248 -437 255.5 -429.5Q263 -422 263 -412Q263 -403 257.5 -396.5Q252 -390 244 -388Q226 -383 203 -369.5Q180 -356 162 -339Q153 -329 146 -320Q144 -317 141 -314Q135 -309 129 -304Q100 -275 100 -229Q100 -226 100.5 -220.5Q101 -215 101 -212Q101 -207 100.5 -197.5Q100 -188 100 -184Q100 -147 111 -129Q113 -126 114 -123Q122 -97 143 -76Q186 -32 254 -31Q258 -31 261 -30Q271 -27 281 -27Q312 -27 340 -55Q346 -61 352 -69L371 -93Q377 -107 380 -110Q388 -117 398 -117Q408 -117 415.5 -109.5Q423 -102 423 -92Q423 -86 420 -81Q413 -67 412 -65Q383 -28 375 -20Q333 23 280 23Q265 23 250 19Q164 16 107 -41Q79 -69 67 -106Q50 -136 50 -181Q50 -188 51 -211Q50 -220 50 -228Q50 -295 94 -339Q100 -346 108 -351Q128 -379 160 -401Q154 -402 144 -405Q138 -407 136 -407Q134 -407 132 -407Q124 -407 117.5 -410Q111 -413 108 -415.5Q105 -418 99 -424Q93 -430 91 -432Q84 -437 78 -442Q51 -470 51 -519Q51 -530 52.5 -549.5Q54 -569 54 -578Z"/>
	<path fill="#daa520" d="M54 -578Q54 -581 53.5 -586.5Q53 -592 53 -595Q53 -657 98 -717Q111 -741 135 -756Q159 -771 187 -775Q187 -775 188 -775Q204 -775 234.5 -772Q265 -769 280 -769Q293 -769 316 -756Q334 -746 342 -745Q347 -745 347 -740Q347 -735 342 -735Q342 -735 341 -735Q331 -736 310.5 -747.5Q290 -759 280 -759Q265 -759 234.5 -762Q204 -765 188 -765Q162 -762 140 -747.5Q118 -733 106 -712Q106 -711 106 -711Q63 -654 63 -595V-594Q64 -587 64 -578Q64 -569 62.5 -549.5Q61 -530 61 -520Q61 -475 89 -456Q91 -454 97 -448Q107 -437 112 -437Q114 -437 116 -437Q122 -437 131.5 -434Q141 -431 145 -431Q152 -430 166 -423.5Q180 -417 190 -417H218Q223 -417 223 -412Q223 -408 219 -407Q192 -400 160 -378.5Q128 -357 110 -331Q109 -331 109 -330Q60 -293 60 -229Q60 -226 60.5 -220.5Q61 -215 61 -212Q61 -207 60.5 -197Q60 -187 60 -183Q60 -142 74 -119Q74 -118 75 -117Q89 -69 135 -40.5Q181 -12 234 -11Q235 -11 235 -11Q248 -7 261 -7Q310 -7 348 -57L368 -83L373 -94Q375 -97 378 -97Q383 -97 383 -92Q383 -91 382 -90L376 -78Q376 -77 376 -77L356 -51Q315 3 261 3Q247 3 233 -1Q177 -2 129 -32.5Q81 -63 65 -114Q50 -139 50 -183Q50 -191 51 -212Q50 -220 50 -229Q50 -297 102 -337Q133 -381 189 -407Q178 -407 164 -413.5Q150 -420 143 -421Q140 -422 130.5 -424.5Q121 -427 116 -427Q115 -427 113.5 -427Q112 -427 112 -427Q106 -427 100.5 -431Q95 -435 90.5 -440.5Q86 -446 83 -448Q51 -470 51 -520Q51 -530 52.5 -549.5Q54 -569 54 -578Z"/>
</svg>