<svg xmlns="http://www.w3.org/2000/svg" viewBox="0 -1024 1024 1024">
	<path fill="#000088" d="M59 -578Q59 -581 58.5 -587Q58 -593 58 -595Q58 -656 102 -714Q110 -728 119 -737L154 -772Q182 -800 223 -805Q238 -805 269 -802Q300 -799 315 -799Q327 -799 347.5 -787.5Q368 -776 377 -775H384Q398 -773 407 -763Q416 -753 416 -740Q416 -726 405 -715.5Q394 -705 380 -705Q369 -705 349 -716Q325 -729 315 -729Q300 -729 269 -732Q238 -735 223 -735Q197 -732 175 -718Q174 -718 174 -716Q174 -714 173 -714Q129 -656 129 -595V-578Q129 -568 128 -549Q127 -530 127 -520Q127 -488 138 -471Q144 -467 147 -467Q148 -467 149 -467.5Q150 -468 151 -468Q156 -468 165.5 -464.5Q175 -461 179 -461Q186 -460 200.5 -453.5Q215 -447 225 -447H253V-377Q215 -367 179 -338Q178 -337 178 -336Q178 -334 177 -334L150 -308Q126 -276 126 -229Q126 -227 126.5 -221Q127 -215 127 -212Q127 -207 126.5 -197.5Q126 -188 126 -183Q126 -141 141 -116Q146 -98 160 -77Q206 -43 269 -41Q281 -37 296 -37Q326 -37 354 -57L372 -80Q376 -87 382.5 -100.5Q389 -114 392 -120Q401 -138 420 -138Q433 -138 442.5 -128.5Q452 -119 452 -106Q452 -96 443 -80L423 -54Q419 -48 408 -37L373 -2Q338 33 296 33Q281 33 269 29Q190 27 140 -23L105 -58Q81 -82 70 -116Q55 -141 55 -183Q55 -188 55.5 -197.5Q56 -207 56 -212Q56 -215 55.5 -221Q55 -227 55 -229Q55 -285 91 -321L111 -341Q115 -346 125 -356Q131 -362 143.5 -375Q156 -388 163 -395Q155 -397 151 -397H147Q141 -397 133 -405L121 -417Q113 -423 111 -425L76 -460Q56 -480 56 -520Q56 -530 57.5 -549Q59 -568 59 -578Z"/>
	<path fill="#800080" d="M54 -578Q54 -581 53.5 -586.5Q53 -592 53 -595Q53 -663 101 -728Q109 -742 122 -755Q155 -788 205 -795Q206 -795 208 -795Q225 -795 255.5 -792Q286 -789 300 -789Q318 -789 346 -773Q360 -765 364 -765Q373 -764 380 -757Q387 -750 387 -740Q387 -730 379.5 -722.5Q372 -715 362 -715Q361 -715 360 -715Q345 -716 321 -730Q305 -739 300 -739Q284 -739 254 -742Q224 -745 210 -745Q163 -738 144 -702Q143 -701 142 -699Q103 -647 103 -595Q104 -587 104 -577.5Q104 -568 102.5 -549.5Q101 -531 101 -522Q101 -486 120 -473Q123 -470 125.5 -468Q128 -466 131 -462.5Q134 -459 136 -457Q145 -457 155 -454Q165 -451 168 -451Q178 -449 194 -442Q205 -437 210 -437H238Q248 -437 255.5 -429.5Q263 -422 263 -412Q263 -403 257.5 -396.5Q252 -390 244 -388Q226 -383 203 -369.5Q180 -356 162 -339Q153 -329 146 -320Q144 -317 141 -314Q135 -309 129 -304Q100 -275 100 -229Q100 -226 100.5 -220.5Q101 -215 101 -212Q101 -207 100.5 -197.5Q100 -188 100 -184Q100 -147 111 -129Q113 -126 114 -123Q122 -97 143 -76Q186 -32 254 -31Q258 -31 261 -30Q271 -27 281 -27Q312 -27 340 -55Q346 -61 352 -69L371 -93Q377 -107 380 -110Q388 -117 398 -117Q408 -117 415.5 -109.5Q423 -102 423 -92Q423 -86 420 -81Q413 -67 412 -65Q383 -28 375 -20Q333 23 280 23Q265 23 250 19Q164 16 107 -41Q79 -69 67 -106Q50 -136 50 -181Q50 -188 51 -211Q50 -220 50 -228Q50 -295 94 -339Q100 -346 108 -351Q128 -379 160 -401Q154 -402 144 -405Q138 -407 136 -407Q134 -407 132 -407Q124 -407 117.5 -410Q111 -413 108 -415.5Q105 -418 99 -424Q93 -430 91 -432Q84 -437 78 -442Q51 -470 51 -519Q51 -530 52.5 -549.5Q54 -569 54 -578Z"/>
	<path fill="#daa520" d="M74 -578Q74 -581 73.5 -586.5Q73 -592 73 -595Q73 -657 118 -717Q131 -741 155 -756Q179 -771 207 -775Q207 -775 208 -775Q224 -775 254.5 -772Q285 -769 300 -769Q313 -769 336 -756Q354 -746 362 -745Q367 -745 367 -740Q367 -735 362 -735Q362 -735 361 -735Q351 -736 330.5 -747.5Q310 -759 300 -759Q285 -759 254.5 -762Q224 -765 208 -765Q182 -762 160 -747.5Q138 -733 126 -712Q126 -711 126 -711Q83 -654 83 -595V-594Q84 -587 84 -578Q84 -569 82.5 -549.5Q81 -530 81 -520Q81 -475 109 -456Q111 -454 117 -448Q127 -437 132 -437Q134 -437 136 -437Q142 -437 151.5 -434Q161 -431 165 -431Q172 -430 186 -423.5Q200 -417 210 -417H238Q243 -417 243 -412Q243 -408 239 -407Q212 -400 180 -378.5Q148 -357 130 -331Q129 -331 129 -330Q80 -293 80 -229Q80 -226 80.5 -220.5Q81 -215 81 -212Q81 -207 80.5 -197Q80 -187 80 -183Q80 -142 94 -119Q94 -118 95 -117Q109 -69 155 -40.5Q201 -12 254 -11Q255 -11 255 -11Q268 -7 281 -7Q330 -7 368 -57L388 -83L393 -94Q395 -97 398 -97Q403 -97 403 -92Q403 -91 402 -90L396 -78Q396 -77 396 -77L376 -51Q335 3 281 3Q267 3 253 -1Q197 -2 149 -32.5Q101 -63 85 -114Q70 -139 70 -183Q70 -191 71 -212Q70 -220 70 -229Q70 -297 122 -337Q153 -381 209 -407Q198 -407 184 -413.5Q170 -420 163 -421Q160 -422 150.5 -424.5Q141 -427 136 -427Q135 -427 133.5 -427Q132 -427 132 -427Q126 -427 120.5 -431Q115 -435 110.5 -440.5Q106 -446 103 -448Q71 -470 71 -520Q71 -530 72.5 -549.5Q74 -569 74 -578Z"/>
</svg>