<svg xmlns="http://www.w3.org/2000/svg" viewBox="0 -1024 1024 1024">
	<path fill="#000088" d="M96 -768L132 -803Q140 -811 148 -811Q157 -811 165 -803L200 -768Q218 -750 230 -698.5Q242 -647 242 -582Q242 -517 230 -465.5Q218 -414 200 -396L165 -361Q157 -353 148 -353Q140 -353 132 -361L96 -396Q78 -414 66.5 -465.5Q55 -517 55 -582Q55 -647 66.5 -698.5Q78 -750 96 -768ZM148 -736Q126 -681 126 -582Q126 -483 148 -428Q171 -486 171 -582Q171 -678 148 -736ZM96 -380L132 -415Q140 -423 148 -423Q157 -423 165 -415L200 -380Q218 -362 230 -310.5Q242 -259 242 -194Q242 -129 230 -77.5Q218 -26 200 -8L165 27Q157 35 148 35Q140 35 132 27L96 -8Q78 -26 66.5 -77.5Q55 -129 55 -194Q55 -259 66.5 -310.5Q78 -362 96 -380ZM148 -348Q126 -293 126 -194Q126 -95 148 -40Q171 -98 171 -194Q171 -290 148 -348Z"/>
	<path fill="#800080" d="M113 -73Q122 -40 133 -27Q144 -40 153 -73Q166 -125 166 -194Q166 -263 153 -315Q144 -348 133 -361Q122 -348 113 -315Q100 -263 100 -194Q100 -125 113 -73ZM113 -461Q122 -428 133 -415Q144 -428 153 -461Q166 -513 166 -582Q166 -651 153 -703Q144 -736 133 -749Q122 -736 113 -703Q100 -651 100 -582Q100 -513 113 -461ZM65 -328Q76 -368 90 -388Q76 -408 65 -448Q50 -506 50 -582Q50 -658 65 -716Q78 -765 99 -786Q114 -801 133 -801Q152 -801 167 -786Q188 -765 201 -716Q216 -658 216 -582Q216 -506 201 -448Q190 -408 175 -388Q190 -368 201 -328Q216 -270 216 -194Q216 -118 201 -60Q188 -11 167 10Q152 25 133 25Q114 25 99 10Q78 -11 65 -60Q50 -118 50 -194Q50 -270 65 -328Z"/>
	<path fill="#daa520" d="M91 -432Q108 -383 133 -383Q158 -383 175 -432Q196 -491 196 -582Q196 -673 175 -732Q158 -781 133 -781Q108 -781 91 -732Q70 -673 70 -582Q70 -491 91 -432ZM100 -729Q115 -771 133 -771Q151 -771 166 -729Q186 -671 186 -582Q186 -493 166 -435Q151 -393 133 -393Q115 -393 100 -435Q80 -493 80 -582Q80 -671 100 -729ZM91 -344Q108 -393 133 -393Q158 -393 175 -344Q196 -285 196 -194Q196 -103 175 -44Q158 5 133 5Q108 5 91 -44Q70 -103 70 -194Q70 -285 91 -344ZM100 -47Q115 -5 133 -5Q151 -5 166 -47Q186 -105 186 -194Q186 -283 166 -341Q151 -383 133 -383Q115 -383 100 -341Q80 -283 80 -194Q80 -105 100 -47Z"/>
</svg>