<svg xmlns="http://www.w3.org/2000/svg" viewBox="0 -1024 1024 1024">
	<path fill="#000088" d="M163 -73Q172 -40 183 -27Q194 -40 203 -73Q216 -125 216 -194Q216 -263 203 -315Q194 -348 183 -361Q172 -348 163 -315Q150 -263 150 -194Q150 -125 163 -73ZM163 -461Q172 -428 183 -415Q194 -428 203 -461Q216 -513 216 -582Q216 -651 203 -703Q194 -736 183 -749Q172 -736 163 -703Q150 -651 150 -582Q150 -513 163 -461ZM115 -328Q126 -368 140 -388Q126 -408 115 -448Q100 -506 100 -582Q100 -658 115 -716Q128 -765 149 -786Q164 -801 183 -801Q202 -801 217 -786Q238 -765 251 -716Q266 -658 266 -582Q266 -506 251 -448Q240 -408 225 -388Q240 -368 251 -328Q266 -270 266 -194Q266 -118 251 -60Q238 -11 217 10Q202 25 183 25Q164 25 149 10Q128 -11 115 -60Q100 -118 100 -194Q100 -270 115 -328Z"/>
	<path fill="#800080" d="M113 -73Q122 -40 133 -27Q144 -40 153 -73Q166 -125 166 -194Q166 -263 153 -315Q144 -348 133 -361Q122 -348 113 -315Q100 -263 100 -194Q100 -125 113 -73ZM113 -461Q122 -428 133 -415Q144 -428 153 -461Q166 -513 166 -582Q166 -651 153 -703Q144 -736 133 -749Q122 -736 113 -703Q100 -651 100 -582Q100 -513 113 -461ZM65 -328Q76 -368 90 -388Q76 -408 65 -448Q50 -506 50 -582Q50 -658 65 -716Q78 -765 99 -786Q114 -801 133 -801Q152 -801 167 -786Q188 -765 201 -716Q216 -658 216 -582Q216 -506 201 -448Q190 -408 175 -388Q190 -368 201 -328Q216 -270 216 -194Q216 -118 201 -60Q188 -11 167 10Q152 25 133 25Q114 25 99 10Q78 -11 65 -60Q50 -118 50 -194Q50 -270 65 -328Z"/>
	<path fill="#daa520" d="M71 -432Q88 -383 113 -383Q138 -383 155 -432Q176 -491 176 -582Q176 -673 155 -732Q138 -781 113 -781Q88 -781 71 -732Q50 -673 50 -582Q50 -491 71 -432ZM80 -729Q95 -771 113 -771Q131 -771 146 -729Q166 -671 166 -582Q166 -493 146 -435Q131 -393 113 -393Q95 -393 80 -435Q60 -493 60 -582Q60 -671 80 -729ZM71 -344Q88 -393 113 -393Q138 -393 155 -344Q176 -285 176 -194Q176 -103 155 -44Q138 5 113 5Q88 5 71 -44Q50 -103 50 -194Q50 -285 71 -344ZM80 -47Q95 -5 113 -5Q131 -5 146 -47Q166 -105 166 -194Q166 -283 146 -341Q131 -383 113 -383Q95 -383 80 -341Q60 -283 60 -194Q60 -105 80 -47Z"/>
</svg>