<svg xmlns="http://www.w3.org/2000/svg" viewBox="0 -1024 1024 1024">
	<path fill="#000088" d="M125 -347Q115 -347 107.5 -354.5Q100 -362 100 -372Q100 -382 107.5 -389.5Q115 -397 125 -397H473Q483 -397 490.5 -389.5Q498 -382 498 -372Q498 -362 490.5 -354.5Q483 -347 473 -347ZM125 -447Q115 -447 107.5 -454.5Q100 -462 100 -472Q100 -482 107.5 -489.5Q115 -497 125 -497H473Q483 -497 490.5 -489.5Q498 -482 498 -472Q498 -462 490.5 -454.5Q483 -447 473 -447Z"/>
	<path fill="#800080" d="M75 -347Q65 -347 57.5 -354.5Q50 -362 50 -372Q50 -382 57.5 -389.5Q65 -397 75 -397H423Q433 -397 440.5 -389.5Q448 -382 448 -372Q448 -362 440.5 -354.5Q433 -347 423 -347ZM75 -447Q65 -447 57.5 -454.5Q50 -462 50 -472Q50 -482 57.5 -489.5Q65 -497 75 -497H423Q433 -497 440.5 -489.5Q448 -482 448 -472Q448 -462 440.5 -454.5Q433 -447 423 -447Z"/>
	<path fill="#daa520" d="M75 -367Q70 -367 70 -372Q70 -377 75 -377H423Q428 -377 428 -372Q428 -367 423 -367ZM75 -467Q70 -467 70 -472Q70 -477 75 -477H423Q428 -477 428 -472Q428 -467 423 -467Z"/>
</svg>