<svg xmlns="http://www.w3.org/2000/svg" viewBox="0 -1024 1024 1024">
	<path fill="#000088" d="M55 -812Q55 -827 65 -837.5Q75 -848 90 -848Q104 -848 115 -837.5Q126 -827 126 -813L132 -323Q132 -308 121.5 -297.5Q111 -287 96 -287Q82 -287 71.5 -297.5Q61 -308 61 -322ZM64 -203Q64 -218 74 -228Q84 -238 99 -238Q114 -238 124.5 -228Q135 -218 135 -203V-137Q135 -122 124.5 -112Q114 -102 99 -102Q84 -102 74 -112Q64 -122 64 -137Z"/>
	<path fill="#800080" d="M50 -812Q50 -822 57.5 -829.5Q65 -837 75 -837Q85 -837 92.5 -829.5Q100 -822 100 -812L106 -323Q106 -313 98.5 -305.5Q91 -298 81 -298Q71 -298 63.5 -305.5Q56 -313 56 -323ZM59 -203Q59 -213 66.5 -220.5Q74 -228 84 -228Q94 -228 101.5 -220.5Q109 -213 109 -203V-137Q109 -127 101.5 -119.5Q94 -112 84 -112Q74 -112 66.5 -119.5Q59 -127 59 -137Z"/>
	<path fill="#daa520" d="M80 -812L86 -323Q86 -318 81 -318Q76 -318 76 -323Q70 -812 70 -812Q70 -817 75 -817Q80 -817 80 -812ZM79 -203Q79 -208 84 -208Q89 -208 89 -203V-137Q89 -132 84 -132Q79 -132 79 -137Z"/>
</svg>