<svg xmlns="http://www.w3.org/2000/svg" viewBox="0 -1024 1024 1024">
	<path fill="#000088" d="M153 -399Q143 -399 135.5 -406.5Q128 -414 128 -424Q128 -434 135.5 -441.5Q143 -449 153 -449H161Q178 -449 196 -445.5Q214 -442 235 -436.5Q256 -431 266 -429L350 -425Q360 -425 367 -418Q374 -410 374 -400Q374 -390 366.5 -382.5Q359 -375 349 -375Q348 -375 348 -375L262 -379Q260 -379 258 -379Q248 -381 227.5 -386.5Q207 -392 190.5 -395.5Q174 -399 161 -399ZM211 -286Q211 -327 215.5 -408Q220 -489 220 -529Q220 -539 220 -549Q218 -567 217.5 -602Q217 -637 217 -651Q190 -662 158 -707Q145 -725 140 -729Q132 -737 132 -748Q132 -748 132 -749L134 -805Q134 -815 141 -822Q149 -829 159 -829Q169 -829 176 -822L226 -774Q227 -773 228 -772Q253 -743 261 -698Q272 -700 283 -706Q303 -716 347 -745Q376 -764 388 -772Q400 -780 425 -791.5Q450 -803 471 -807Q481 -808 490 -808Q526 -808 547 -787Q563 -771 565 -748Q571 -739 575 -718Q577 -707 579 -705Q582 -699 582 -692Q582 -682 574.5 -674.5Q567 -667 557 -667Q543 -667 535 -679Q530 -689 526 -708Q523 -722 521 -725Q516 -731 516 -739.5Q516 -748 512 -752Q505 -758 489 -758Q484 -758 479 -757Q447 -752 375 -703Q328 -672 305 -661Q284 -651 267 -647Q267 -637 267.5 -603Q268 -569 270 -552Q270 -549 270 -529Q270 -488 265.5 -407Q261 -326 261 -286Q261 -261 262 -239Q262 -239 262 -238Q262 -235 261 -233Q259 -222 259 -197Q259 -185 260 -159.5Q261 -134 261 -121Q261 -92 257 -71Q251 -27 228 -5Q204 19 165 19Q163 19 153 19Q126 18 113 10Q100 2 100 -12Q100 -22 107.5 -29.5Q115 -37 125 -37Q132 -37 137 -34Q141 -32 156 -31Q165 -31 166 -31Q184 -31 193 -40Q204 -51 208 -79Q211 -96 211 -122Q211 -135 210 -161Q209 -187 209 -200Q209 -224 212 -240Q211 -262 211 -286Z"/>
	<path fill="#800080" d="M103 -399Q93 -399 85.5 -406.5Q78 -414 78 -424Q78 -434 85.5 -441.5Q93 -449 103 -449H111Q128 -449 146 -445.5Q164 -442 185 -436.5Q206 -431 216 -429L300 -425Q310 -425 317 -418Q324 -410 324 -400Q324 -390 316.5 -382.5Q309 -375 299 -375Q298 -375 298 -375L212 -379Q210 -379 208 -379Q198 -381 177.5 -386.5Q157 -392 140.5 -395.5Q124 -399 111 -399ZM161 -286Q161 -327 165.5 -408Q170 -489 170 -529Q170 -539 170 -549Q168 -567 167.5 -602Q167 -637 167 -651Q140 -662 108 -707Q95 -725 90 -729Q82 -737 82 -748Q82 -748 82 -749L84 -805Q84 -815 91 -822Q99 -829 109 -829Q119 -829 126 -822L176 -774Q177 -773 178 -772Q203 -743 211 -698Q222 -700 233 -706Q253 -716 297 -745Q326 -764 338 -772Q350 -780 375 -791.5Q400 -803 421 -807Q431 -808 440 -808Q476 -808 497 -787Q513 -771 515 -748Q521 -739 525 -718Q527 -707 529 -705Q532 -699 532 -692Q532 -682 524.5 -674.5Q517 -667 507 -667Q493 -667 485 -679Q480 -689 476 -708Q473 -722 471 -725Q466 -731 466 -739.5Q466 -748 462 -752Q455 -758 439 -758Q434 -758 429 -757Q397 -752 325 -703Q278 -672 255 -661Q234 -651 217 -647Q217 -637 217.5 -603Q218 -569 220 -552Q220 -549 220 -529Q220 -488 215.5 -407Q211 -326 211 -286Q211 -261 212 -239Q212 -239 212 -238Q212 -235 211 -233Q209 -222 209 -197Q209 -185 210 -159.5Q211 -134 211 -121Q211 -92 207 -71Q201 -27 178 -5Q154 19 115 19Q113 19 103 19Q76 18 63 10Q50 2 50 -12Q50 -22 57.5 -29.5Q65 -37 75 -37Q82 -37 87 -34Q91 -32 106 -31Q115 -31 116 -31Q134 -31 143 -40Q154 -51 158 -79Q161 -96 161 -122Q161 -135 160 -161Q159 -187 159 -200Q159 -224 162 -240Q161 -262 161 -286Z"/>
	<path fill="#daa520" d="M83 -419Q78 -419 78 -424Q78 -429 83 -429H91Q106 -429 123.5 -425.5Q141 -422 162 -416.5Q183 -411 194 -409L279 -405Q284 -405 284 -400Q284 -395 279 -395L193 -399Q192 -399 192 -399Q182 -401 161 -406.5Q140 -412 123 -415.5Q106 -419 91 -419ZM161 -286Q161 -326 165.5 -407Q170 -488 170 -529Q170 -540 170 -550Q168 -569 167.5 -608Q167 -647 166 -666Q152 -668 139.5 -677.5Q127 -687 121 -695Q115 -703 105 -718Q91 -738 84 -744Q82 -746 82 -748L84 -804Q84 -809 89 -809Q91 -809 92 -808L142 -760Q143 -759 143 -759Q169 -729 175 -675Q190 -675 210.5 -683.5Q231 -692 246.5 -701.5Q262 -711 288 -728Q314 -746 328 -754.5Q342 -763 364 -773.5Q386 -784 404 -787Q412 -788 420 -788Q418 -790 418 -790.5Q418 -791 419 -791Q429 -791 452 -775Q475 -759 476 -742Q481 -734 485 -714Q488 -700 491 -695Q492 -693 492 -692Q492 -687 487 -687Q484 -687 483 -689Q479 -696 475.5 -713.5Q472 -731 467 -737Q466 -738 466 -740Q466 -759 453 -768.5Q440 -778 420 -778Q413 -778 406 -777Q370 -771 294 -720Q266 -701 252 -692.5Q238 -684 215.5 -674.5Q193 -665 176 -665Q177 -647 177.5 -608Q178 -569 180 -550Q180 -548 180 -529Q180 -488 175.5 -407Q171 -326 171 -286Q171 -261 172 -238Q172 -237 172 -237Q169 -223 169 -199Q169 -186 170 -160Q171 -134 171 -122Q171 -95 168 -75.5Q165 -56 157 -37Q149 -18 131.5 -8.5Q114 1 89 -1Q62 -2 53 -8Q50 -9 50 -12Q50 -17 55 -17Q56 -17 57 -16Q65 -12 89 -11Q92 -11 95 -11Q134 -11 147.5 -40Q161 -69 161 -122Q161 -134 160 -160Q159 -186 159 -199Q159 -224 162 -238Q161 -261 161 -286ZM135 -753L94 -793L92 -750Q99 -743 113 -724Q122 -710 128 -702.5Q134 -695 144 -687Q154 -679 164 -676Q158 -725 135 -753Z"/>
</svg>