<svg xmlns="http://www.w3.org/2000/svg" viewBox="0 -1024 1024 1024">
	<path fill="#000088" d="M129 -389Q114 -389 104 -399Q94 -409 94 -424Q94 -439 104 -449Q114 -459 129 -459H137Q157 -459 197 -449Q237 -439 239 -439L328 -435Q342 -434 352 -424Q362 -414 362 -400Q362 -386 351.5 -375.5Q341 -365 327 -365H325L239 -369Q237 -369 197 -379Q157 -389 137 -389ZM176 -286Q176 -326 181 -407Q186 -488 186 -529V-550Q184 -568 183.5 -603Q183 -638 182 -651L179 -654L144 -690Q135 -699 121 -718Q107 -737 102 -743L98 -748L100 -804L135 -839Q193 -785 220 -756Q235 -740 244 -709Q273 -717 337 -759Q415 -810 451 -817Q461 -819 466 -819Q491 -819 505 -805L541 -769Q552 -758 552 -740Q558 -733 562 -713Q566 -695 568 -692Q573 -684 573 -676Q573 -663 564 -654.5Q555 -646 542 -646Q524 -646 516 -661L498 -692Q494 -699 491 -713Q487 -735 482 -740Q482 -741 481.5 -743Q481 -745 481 -746Q471 -748 466 -748Q456 -748 451 -747Q414 -741 346.5 -695.5Q279 -650 254 -641Q254 -634 254 -600.5Q254 -567 256 -550Q256 -546 256.5 -539Q257 -532 257 -529Q257 -488 252 -407Q247 -326 247 -286Q247 -254 248 -238Q245 -222 245 -199Q245 -186 246 -160Q247 -134 247 -122Q247 -47 222 -22L186 13Q169 30 141 30Q139 30 136 29.5Q133 29 131 29Q111 29 101 23L70 6Q55 -2 55 -21Q55 -34 64 -42.5Q73 -51 86 -51Q94 -51 101 -47Q107 -43 135 -41H141Q152 -41 166 -45Q176 -68 176 -122Q176 -134 175 -160Q174 -186 174 -199Q174 -216 178 -238Q176 -270 176 -286Z"/>
	<path fill="#800080" d="M103 -399Q93 -399 85.5 -406.5Q78 -414 78 -424Q78 -434 85.5 -441.5Q93 -449 103 -449H111Q128 -449 146 -445.5Q164 -442 185 -436.5Q206 -431 216 -429L300 -425Q310 -425 317 -418Q324 -410 324 -400Q324 -390 316.5 -382.5Q309 -375 299 -375Q298 -375 298 -375L212 -379Q210 -379 208 -379Q198 -381 177.5 -386.5Q157 -392 140.5 -395.5Q124 -399 111 -399ZM161 -286Q161 -327 165.5 -408Q170 -489 170 -529Q170 -539 170 -549Q168 -567 167.5 -602Q167 -637 167 -651Q140 -662 108 -707Q95 -725 90 -729Q82 -737 82 -748Q82 -748 82 -749L84 -805Q84 -815 91 -822Q99 -829 109 -829Q119 -829 126 -822L176 -774Q177 -773 178 -772Q203 -743 211 -698Q222 -700 233 -706Q253 -716 297 -745Q326 -764 338 -772Q350 -780 375 -791.5Q400 -803 421 -807Q431 -808 440 -808Q476 -808 497 -787Q513 -771 515 -748Q521 -739 525 -718Q527 -707 529 -705Q532 -699 532 -692Q532 -682 524.5 -674.5Q517 -667 507 -667Q493 -667 485 -679Q480 -689 476 -708Q473 -722 471 -725Q466 -731 466 -739.5Q466 -748 462 -752Q455 -758 439 -758Q434 -758 429 -757Q397 -752 325 -703Q278 -672 255 -661Q234 -651 217 -647Q217 -637 217.5 -603Q218 -569 220 -552Q220 -549 220 -529Q220 -488 215.5 -407Q211 -326 211 -286Q211 -261 212 -239Q212 -239 212 -238Q212 -235 211 -233Q209 -222 209 -197Q209 -185 210 -159.5Q211 -134 211 -121Q211 -92 207 -71Q201 -27 178 -5Q154 19 115 19Q113 19 103 19Q76 18 63 10Q50 2 50 -12Q50 -22 57.5 -29.5Q65 -37 75 -37Q82 -37 87 -34Q91 -32 106 -31Q115 -31 116 -31Q134 -31 143 -40Q154 -51 158 -79Q161 -96 161 -122Q161 -135 160 -161Q159 -187 159 -200Q159 -224 162 -240Q161 -262 161 -286Z"/>
	<path fill="#daa520" d="M103 -419Q98 -419 98 -424Q98 -429 103 -429H111Q126 -429 143.5 -425.5Q161 -422 182 -416.5Q203 -411 214 -409L299 -405Q304 -405 304 -400Q304 -395 299 -395L213 -399Q212 -399 212 -399Q202 -401 181 -406.5Q160 -412 143 -415.5Q126 -419 111 -419ZM181 -286Q181 -326 185.5 -407Q190 -488 190 -529Q190 -540 190 -550Q188 -569 187.5 -608Q187 -647 186 -666Q172 -668 159.5 -677.5Q147 -687 141 -695Q135 -703 125 -718Q111 -738 104 -744Q102 -746 102 -748L104 -804Q104 -809 109 -809Q111 -809 112 -808L162 -760Q163 -759 163 -759Q189 -729 195 -675Q210 -675 230.5 -683.5Q251 -692 266.5 -701.5Q282 -711 308 -728Q334 -746 348 -754.5Q362 -763 384 -773.5Q406 -784 424 -787Q432 -788 440 -788Q438 -790 438 -790.5Q438 -791 439 -791Q449 -791 472 -775Q495 -759 496 -742Q501 -734 505 -714Q508 -700 511 -695Q512 -693 512 -692Q512 -687 507 -687Q504 -687 503 -689Q499 -696 495.5 -713.5Q492 -731 487 -737Q486 -738 486 -740Q486 -759 473 -768.5Q460 -778 440 -778Q433 -778 426 -777Q390 -771 314 -720Q286 -701 272 -692.5Q258 -684 235.5 -674.5Q213 -665 196 -665Q197 -647 197.5 -608Q198 -569 200 -550Q200 -548 200 -529Q200 -488 195.5 -407Q191 -326 191 -286Q191 -261 192 -238Q192 -237 192 -237Q189 -223 189 -199Q189 -186 190 -160Q191 -134 191 -122Q191 -95 188 -75.5Q185 -56 177 -37Q169 -18 151.5 -8.5Q134 1 109 -1Q82 -2 73 -8Q70 -9 70 -12Q70 -17 75 -17Q76 -17 77 -16Q85 -12 109 -11Q112 -11 115 -11Q154 -11 167.5 -40Q181 -69 181 -122Q181 -134 180 -160Q179 -186 179 -199Q179 -224 182 -238Q181 -261 181 -286ZM155 -753L114 -793L112 -750Q119 -743 133 -724Q142 -710 148 -702.5Q154 -695 164 -687Q174 -679 184 -676Q178 -725 155 -753Z"/>
</svg>