<svg xmlns="http://www.w3.org/2000/svg" viewBox="0 -1024 1024 1024">
	<path fill="#000088" d="M185 -213Q192 -214 234 -222.5Q276 -231 301 -231Q336 -231 369 -217Q397 -205 417 -185Q432 -169 444 -146.5Q456 -124 461.5 -108.5Q467 -93 476 -63Q492 -9 492 28Q492 71 472 116Q459 144 440 164Q414 190 351 216Q318 230 289 234Q277 235 264 235Q238 235 210 230Q178 223 141 193Q123 179 112 172Q100 165 100 151Q100 141 107.5 133.5Q115 126 125 126Q132 126 138 130Q152 138 172 154Q200 176 220 180Q245 185 264 185Q273 185 283 184Q305 181 331 170Q385 147 404 128Q417 115 426 96Q442 60 442 28Q442 -3 428 -50Q404 -126 381 -150Q368 -163 349 -171Q325 -182 301 -182Q281 -182 239 -172Q191 -162 162 -160Q162 -160 161 -160Q151 -160 143 -167Q136 -174 136 -184L130 -410Q130 -411 130 -411Q130 -421 137.5 -428.5Q145 -436 155 -436H485Q495 -436 502.5 -428.5Q510 -421 510 -411Q510 -401 502.5 -393.5Q495 -386 485 -386H181Z"/>
	<path fill="#800080" d="M135 -213Q142 -214 184 -222.5Q226 -231 251 -231Q286 -231 319 -217Q347 -205 367 -185Q382 -169 394 -146.5Q406 -124 411.5 -108.5Q417 -93 426 -63Q442 -9 442 28Q442 71 422 116Q409 144 390 164Q364 190 301 216Q268 230 239 234Q227 235 214 235Q188 235 160 230Q128 223 91 193Q73 179 62 172Q50 165 50 151Q50 141 57.5 133.5Q65 126 75 126Q82 126 88 130Q102 138 122 154Q150 176 170 180Q195 185 214 185Q223 185 233 184Q255 181 281 170Q335 147 354 128Q367 115 376 96Q392 60 392 28Q392 -3 378 -50Q354 -126 331 -150Q318 -163 299 -171Q275 -182 251 -182Q231 -182 189 -172Q141 -162 112 -160Q112 -160 111 -160Q101 -160 93 -167Q86 -174 86 -184L80 -410Q80 -411 80 -411Q80 -421 87.5 -428.5Q95 -436 105 -436H435Q445 -436 452.5 -428.5Q460 -421 460 -411Q460 -401 452.5 -393.5Q445 -386 435 -386H131Z"/>
	<path fill="#daa520" d="M415 -416Q420 -416 420 -411Q420 -406 415 -406H90L96 -190Q120 -192 162 -201Q208 -211 231 -211Q262 -211 291 -199Q313 -189 328.5 -175Q344 -161 355 -139.5Q366 -118 371.5 -103Q377 -88 387 -57Q402 -6 402 28Q402 67 384 108Q368 143 343 161Q318 179 273 198Q231 215 194 215Q172 215 144 210Q117 204 83 178Q64 162 52 155Q50 154 50 151Q50 146 55 146Q56 146 58 147Q70 154 90 170Q121 195 146 200Q173 205 194 205Q229 205 269 188Q314 170 337 153Q360 136 374 104Q392 65 392 28Q392 -6 377 -56Q368 -85 362.5 -100Q357 -115 346.5 -135Q336 -155 321.5 -167.5Q307 -180 287 -189Q260 -201 231 -201Q209 -201 165 -192Q118 -181 91 -180Q86 -180 86 -185L80 -411Q80 -416 85 -416Z"/>
</svg>