<svg xmlns="http://www.w3.org/2000/svg" viewBox="0 -1024 1024 1024">
	<path fill="#000088" d="M171 -224Q182 -226 203.5 -231Q225 -236 243 -239Q261 -242 277 -242Q305 -242 335 -229Q360 -218 375 -203L410 -167Q437 -140 463 -56Q478 -4 478 28Q478 67 460 106Q451 128 433 146L398 181Q376 203 317 228Q275 246 240 246Q227 246 191 240Q163 235 132 209Q107 189 101 186L70 168Q55 160 55 142Q55 129 63.5 120Q72 111 85 111Q93 111 101 116Q112 122 132 138Q165 165 191 170Q221 175 240 175Q277 175 317 158Q361 139 378 127Q387 113 390 106Q408 67 408 28Q408 -7 392 -57Q371 -125 355 -148Q343 -156 335 -159Q307 -171 277 -171Q256 -171 210 -161Q166 -151 137 -150L102 -185L96 -411L131 -446H461Q476 -446 486 -436Q496 -426 496 -411Q496 -396 486 -386Q476 -376 461 -376H167Z"/>
	<path fill="#800080" d="M135 -213Q142 -214 184 -222.5Q226 -231 251 -231Q286 -231 319 -217Q347 -205 367 -185Q382 -169 394 -146.5Q406 -124 411.5 -108.5Q417 -93 426 -63Q442 -9 442 28Q442 71 422 116Q409 144 390 164Q364 190 301 216Q268 230 239 234Q227 235 214 235Q188 235 160 230Q128 223 91 193Q73 179 62 172Q50 165 50 151Q50 141 57.5 133.5Q65 126 75 126Q82 126 88 130Q102 138 122 154Q150 176 170 180Q195 185 214 185Q223 185 233 184Q255 181 281 170Q335 147 354 128Q367 115 376 96Q392 60 392 28Q392 -3 378 -50Q354 -126 331 -150Q318 -163 299 -171Q275 -182 251 -182Q231 -182 189 -172Q141 -162 112 -160Q112 -160 111 -160Q101 -160 93 -167Q86 -174 86 -184L80 -410Q80 -411 80 -411Q80 -421 87.5 -428.5Q95 -436 105 -436H435Q445 -436 452.5 -428.5Q460 -421 460 -411Q460 -401 452.5 -393.5Q445 -386 435 -386H131Z"/>
	<path fill="#daa520" d="M435 -416Q440 -416 440 -411Q440 -406 435 -406H110L116 -190Q140 -192 182 -201Q228 -211 251 -211Q282 -211 311 -199Q333 -189 348.5 -175Q364 -161 375 -139.5Q386 -118 391.5 -103Q397 -88 407 -57Q422 -6 422 28Q422 67 404 108Q388 143 363 161Q338 179 293 198Q251 215 214 215Q192 215 164 210Q137 204 103 178Q84 162 72 155Q70 154 70 151Q70 146 75 146Q76 146 78 147Q90 154 110 170Q141 195 166 200Q193 205 214 205Q249 205 289 188Q334 170 357 153Q380 136 394 104Q412 65 412 28Q412 -6 397 -56Q388 -85 382.5 -100Q377 -115 366.5 -135Q356 -155 341.5 -167.5Q327 -180 307 -189Q280 -201 251 -201Q229 -201 185 -192Q138 -181 111 -180Q106 -180 106 -185L100 -411Q100 -416 105 -416Z"/>
</svg>