<svg xmlns="http://www.w3.org/2000/svg" viewBox="0 -1024 1024 1024">
	<path fill="#000088" d="M58 -567Q58 -577 65.5 -585Q73 -593 84 -593Q96 -593 104 -584L258 -411Q265 -403 265 -393Q265 -383 257.5 -375Q250 -367 239 -367Q227 -367 219 -376L65 -549Q58 -557 58 -567Z"/>
	<path fill="#800080" d="M8 -567Q8 -577 15.5 -585Q23 -593 34 -593Q46 -593 54 -584L208 -411Q215 -403 215 -393Q215 -383 207.5 -375Q200 -367 189 -367Q177 -367 169 -376L15 -549Q8 -557 8 -567Z"/>
	<path fill="#daa520" d="M50 -549Q50 -554 55 -554Q57 -554 59 -552L182 -414Q183 -413 183 -411Q183 -406 178 -406Q176 -406 174 -408L51 -546Q50 -547 50 -549Z"/>
</svg>