<svg xmlns="http://www.w3.org/2000/svg" viewBox="0 -1024 1024 1024">
	<path fill="#000088" d="M100 -635Q100 -645 107.5 -652.5Q115 -660 125 -660Q135 -660 142 -653L376 -429Q384 -422 384 -411Q384 -401 377 -394L155 -159Q148 -151 137 -151Q127 -151 119.5 -158.5Q112 -166 112 -176Q112 -186 119 -193L324 -410L108 -617Q100 -624 100 -635Z"/>
	<path fill="#800080" d="M50 -635Q50 -645 57.5 -652.5Q65 -660 75 -660Q85 -660 92 -653L326 -429Q334 -422 334 -411Q334 -401 327 -394L105 -159Q98 -151 87 -151Q77 -151 69.5 -158.5Q62 -166 62 -176Q62 -186 69 -193L274 -410L58 -617Q50 -624 50 -635Z"/>
	<path fill="#daa520" d="M50 -635Q50 -640 55 -640Q57 -640 58 -639L292 -415Q294 -413 294 -411Q294 -409 293 -408L71 -173Q69 -171 67 -171Q62 -171 62 -176Q62 -178 63 -179L282 -411L52 -631Q50 -633 50 -635Z"/>
</svg>