<svg xmlns="http://www.w3.org/2000/svg" viewBox="0 -1024 1024 1024">
	<path fill="#000088" d="M125 -386Q115 -386 107.5 -393.5Q100 -401 100 -411Q100 -421 107.5 -428.5Q115 -436 125 -436H473Q483 -436 490.5 -428.5Q498 -421 498 -411Q498 -401 490.5 -393.5Q483 -386 473 -386Z"/>
	<path fill="#800080" d="M75 -386Q65 -386 57.5 -393.5Q50 -401 50 -411Q50 -421 57.5 -428.5Q65 -436 75 -436H423Q433 -436 440.5 -428.5Q448 -421 448 -411Q448 -401 440.5 -393.5Q433 -386 423 -386Z"/>
	<path fill="#daa520" d="M55 -406Q50 -406 50 -411Q50 -416 55 -416H403Q408 -416 408 -411Q408 -406 403 -406Z"/>
</svg>