<svg xmlns="http://www.w3.org/2000/svg" viewBox="0 -1024 1024 1024">
	<path fill="#000088" d="M278 -824Q278 -823 278 -820.5Q278 -818 278 -817Q278 -707 302 -489Q326 -262 326 -144Q326 -103 310.5 -64.5Q295 -26 270 -1Q247 22 222 28Q214 30 206 30Q175 30 152 6Q136 -10 124 -36Q123 -38 123 -40L111 -90Q110 -93 110 -96Q110 -106 117.5 -113.5Q125 -121 135 -121Q144 -121 150.5 -115.5Q157 -110 159 -102L171 -54Q178 -38 187 -29Q196 -20 205 -20Q207 -20 210 -21Q222 -23 234 -36Q252 -54 264 -84Q276 -114 276 -144Q276 -197 272 -259.5Q268 -322 264 -365.5Q260 -409 252 -481.5Q244 -554 241 -587H155Q146 -587 139 -593Q114 -615 105 -644Q100 -659 100 -676Q100 -697 107 -719Q121 -762 157 -798Q202 -843 250 -849Q251 -849 253 -849Q263 -849 270.5 -841.5Q278 -834 278 -824ZM150 -677Q150 -667 153 -659Q156 -647 165 -637H236Q229 -721 228 -790Q209 -779 193 -763Q165 -735 155 -703Q150 -689 150 -677Z"/>
	<path fill="#800080" d="M228 -824Q228 -823 228 -820.5Q228 -818 228 -817Q228 -707 252 -489Q276 -262 276 -144Q276 -103 260.5 -64.5Q245 -26 220 -1Q197 22 172 28Q164 30 156 30Q125 30 102 6Q86 -10 74 -36Q73 -38 73 -40L61 -90Q60 -93 60 -96Q60 -106 67.5 -113.5Q75 -121 85 -121Q94 -121 100.5 -115.5Q107 -110 109 -102L121 -54Q128 -38 137 -29Q146 -20 155 -20Q157 -20 160 -21Q172 -23 184 -36Q202 -54 214 -84Q226 -114 226 -144Q226 -197 222 -259.5Q218 -322 214 -365.5Q210 -409 202 -481.5Q194 -554 191 -587H105Q96 -587 89 -593Q64 -615 55 -644Q50 -659 50 -676Q50 -697 57 -719Q71 -762 107 -798Q152 -843 200 -849Q201 -849 203 -849Q213 -849 220.5 -841.5Q228 -834 228 -824ZM100 -677Q100 -667 103 -659Q106 -647 115 -637H186Q179 -721 178 -790Q159 -779 143 -763Q115 -735 105 -703Q100 -689 100 -677Z"/>
	<path fill="#daa520" d="M208 -817Q208 -704 232 -481.5Q256 -259 256 -144Q256 -88 225 -39Q194 10 155 10Q117 10 92 -44Q92 -44 92 -45L80 -95Q80 -95 80 -96Q80 -101 85 -101Q89 -101 90 -97L102 -48Q124 0 155 0Q188 0 217 -45.5Q246 -91 246 -144Q246 -259 222 -481.5Q198 -704 198 -817Q198 -817 198 -818Q156 -810 118 -765.5Q80 -721 80 -677Q80 -641 107 -617H203Q208 -617 208 -612Q208 -607 203 -607H105Q103 -607 102 -608Q70 -636 70 -677Q70 -727 113 -775Q156 -823 202 -829Q203 -829 203 -829Q208 -829 208 -824Q208 -824 208 -821Q208 -818 208 -817Z"/>
</svg>