<svg xmlns="http://www.w3.org/2000/svg" viewBox="0 -1024 1024 1024">
	<path fill="#000088" d="M318 -299Q320 -103 320 -84Q320 -80 319.5 -77.5Q319 -75 318.5 -72Q318 -69 318 -67Q314 -38 288 -11Q254 23 215 23Q200 23 184 14Q169 6 154 -9Q136 -26 126 -46Q116 -64 116 -80Q116 -89 120 -100Q123 -110 131 -123Q145 -149 173 -189Q207 -237 268 -316Q268 -352 268 -382Q268 -425 256 -483Q254 -481 251 -478Q229 -456 209 -456Q204 -456 200 -457Q170 -458 146 -483Q127 -502 114 -532Q100 -565 100 -594Q100 -633 139 -672Q146 -679 161 -692Q176 -705 182 -712Q204 -734 204 -748Q204 -757 207 -768Q208 -771 208 -772Q208 -781 208 -786Q208 -802 215 -810Q223 -817 233 -817Q255 -817 259 -790Q260 -786 261 -774.5Q262 -763 263.5 -754Q265 -745 265 -742Q266 -739 266 -736Q266 -733 266 -726.5Q266 -720 266 -717Q266 -662 291 -555Q318 -443 318 -382Q318 -382 318 -381Q318 -380 318 -379Q338 -404 344 -414L367 -482Q373 -499 391 -499Q401 -499 408.5 -491.5Q416 -484 416 -474Q416 -470 415 -466L391 -394Q390 -391 387 -388Q381 -379 318 -299ZM270 -85Q270 -135 269 -235Q242 -199 227 -178Q179 -112 168 -86L166 -80Q167 -76 170 -69Q184 -44 206 -31Q212 -27 215 -27Q233 -27 253 -47Q266 -60 268 -72Q268 -75 270 -85ZM217 -676Q211 -669 196 -656Q181 -643 174 -636Q150 -612 150 -594Q150 -576 160 -551Q169 -530 181 -518Q192 -507 203 -507Q205 -507 208 -507Q211 -509 216 -514Q232 -530 245 -533Q221 -632 217 -676Z"/>
	<path fill="#800080" d="M268 -299Q270 -103 270 -84Q270 -80 269.5 -77.5Q269 -75 268.5 -72Q268 -69 268 -67Q264 -38 238 -11Q204 23 165 23Q150 23 134 14Q119 6 104 -9Q86 -26 76 -46Q66 -64 66 -80Q66 -89 70 -100Q73 -110 81 -123Q95 -149 123 -189Q157 -237 218 -316Q218 -352 218 -382Q218 -425 206 -483Q204 -481 201 -478Q179 -456 159 -456Q154 -456 150 -457Q120 -458 96 -483Q77 -502 64 -532Q50 -565 50 -594Q50 -633 89 -672Q96 -679 111 -692Q126 -705 132 -712Q154 -734 154 -748Q154 -757 157 -768Q158 -771 158 -772Q158 -781 158 -786Q158 -802 165 -810Q173 -817 183 -817Q205 -817 209 -790Q210 -786 211 -774.5Q212 -763 213.5 -754Q215 -745 215 -742Q216 -739 216 -736Q216 -733 216 -726.5Q216 -720 216 -717Q216 -662 241 -555Q268 -443 268 -382Q268 -382 268 -381Q268 -380 268 -379Q288 -404 294 -414L317 -482Q323 -499 341 -499Q351 -499 358.5 -491.5Q366 -484 366 -474Q366 -470 365 -466L341 -394Q340 -391 337 -388Q331 -379 268 -299ZM220 -85Q220 -135 219 -235Q192 -199 177 -178Q129 -112 118 -86L116 -80Q117 -76 120 -69Q134 -44 156 -31Q162 -27 165 -27Q183 -27 203 -47Q216 -60 218 -72Q218 -75 220 -85ZM167 -676Q161 -669 146 -656Q131 -643 124 -636Q100 -612 100 -594Q100 -576 110 -551Q119 -530 131 -518Q142 -507 153 -507Q155 -507 158 -507Q161 -509 166 -514Q182 -530 195 -533Q171 -632 167 -676Z"/>
	<path fill="#daa520" d="M133 -487Q134 -487 136 -486.5Q138 -486 138 -486Q146 -486 160 -500Q176 -515 187 -515Q192 -515 192 -510Q192 -505 187 -505Q180 -505 167 -492Q151 -476 138 -476Q135 -476 132 -477Q97 -477 73.5 -518Q50 -559 50 -594Q50 -610 59.5 -627Q69 -644 78 -653Q87 -662 105 -678Q122 -693 130.5 -701.5Q139 -710 146.5 -723Q154 -736 154 -748Q154 -753 156 -760.5Q158 -768 158 -772Q158 -781 158 -786Q158 -787 158 -789Q158 -791 158 -791.5Q158 -792 158 -793Q158 -797 163 -797Q168 -797 169 -788Q170 -783 171 -771.5Q172 -760 173.5 -750.5Q175 -741 176 -737Q176 -737 176 -736Q176 -733 176 -726.5Q176 -720 176 -717Q176 -660 202 -550Q228 -440 228 -382Q228 -355 228 -322Q286 -395 292 -404L316 -476Q317 -479 321 -479Q326 -479 326 -474Q326 -473 326 -472L302 -400Q302 -400 301 -399Q296 -392 228 -306Q230 -92 230 -84Q230 -81 229 -76.5Q228 -72 228 -70Q228 -70 228 -69Q225 -43 198.5 -20Q172 3 145 3Q124 3 99 -22Q66 -55 66 -80Q66 -102 119 -178Q154 -227 218 -309Q218 -350 218 -382Q218 -439 192 -549Q166 -659 166 -717Q166 -726 166 -736Q165 -740 164 -748Q164 -733 155 -718Q146 -703 138 -694.5Q130 -686 112 -671Q95 -655 86 -646Q77 -637 68.5 -622.5Q60 -608 60 -594Q60 -563 81 -525Q102 -487 133 -487ZM218 -293Q160 -218 127 -172Q76 -99 76 -80Q76 -59 106 -29Q129 -7 145 -7Q168 -7 191.5 -28Q215 -49 218 -70Q218 -73 219 -77.5Q220 -82 220 -84Q220 -110 218 -293Z"/>
</svg>