<svg xmlns="http://www.w3.org/2000/svg" viewBox="0 -1024 1024 1024">
	<path fill="#000088" d="M359 -660Q369 -660 376.5 -652.5Q384 -645 384 -635Q384 -624 376 -617L160 -410L365 -193Q372 -186 372 -176Q372 -166 364.5 -158.5Q357 -151 347 -151Q336 -151 329 -159L107 -394Q100 -401 100 -411Q100 -422 108 -429L342 -653Q349 -660 359 -660Z"/>
	<path fill="#800080" d="M309 -660Q319 -660 326.5 -652.5Q334 -645 334 -635Q334 -624 326 -617L110 -410L315 -193Q322 -186 322 -176Q322 -166 314.5 -158.5Q307 -151 297 -151Q286 -151 279 -159L57 -394Q50 -401 50 -411Q50 -422 58 -429L292 -653Q299 -660 309 -660Z"/>
	<path fill="#daa520" d="M289 -640Q294 -640 294 -635Q294 -633 292 -631L62 -411L281 -179Q282 -178 282 -176Q282 -171 277 -171Q275 -171 273 -173L51 -408Q50 -409 50 -411Q50 -413 52 -415L286 -639Q287 -640 289 -640Z"/>
</svg>