<svg xmlns="http://www.w3.org/2000/svg" viewBox="0 -1024 1024 1024">
	<path fill="#000088" d="M55 -401Q55 -421 92 -456L326 -680L379 -625L157 -412L366 -191L305 -133L57 -396Q55 -398 55 -401Z"/>
	<path fill="#800080" d="M309 -660Q319 -660 326.5 -652.5Q334 -645 334 -635Q334 -624 326 -617L110 -410L315 -193Q322 -186 322 -176Q322 -166 314.5 -158.5Q307 -151 297 -151Q286 -151 279 -159L57 -394Q50 -401 50 -411Q50 -422 58 -429L292 -653Q299 -660 309 -660Z"/>
	<path fill="#daa520" d="M309 -640Q314 -640 314 -635Q314 -633 312 -631L82 -411L301 -179Q302 -178 302 -176Q302 -171 297 -171Q295 -171 293 -173L71 -408Q70 -409 70 -411Q70 -413 72 -415L306 -639Q307 -640 309 -640Z"/>
</svg>