<svg xmlns="http://www.w3.org/2000/svg" viewBox="0 -1024 1024 1024">
	<path fill="#000088" d="M55 -198Q55 -264 69 -317.5Q83 -371 105 -393L140 -428Q153 -441 165 -441Q177 -441 189 -429L224 -394Q270 -348 282 -194Q283 -183 283 -163Q283 -116 269.5 -68Q256 -20 243 7Q230 34 203 84Q164 156 148 200L139 223Q131 245 108 245Q95 245 85 235Q75 225 75 211Q75 208 77 200Q91 163 139 73Q187 -17 201 -75Q197 -75 185 -75.5Q173 -76 168 -76.5Q163 -77 153 -78.5Q143 -80 137 -82Q131 -84 124 -88Q117 -92 111 -98L76 -133Q55 -154 55 -198ZM212 -163Q212 -183 211 -194Q201 -312 171 -369Q170 -369 168 -369.5Q166 -370 165 -370Q161 -370 159 -369Q126 -308 126 -198Q126 -174 133 -155Q150 -148 190 -146Q205 -146 212 -145Z"/>
	<path fill="#800080" d="M50 -198Q50 -276 68 -336Q83 -387 107 -411Q127 -430 150 -430Q173 -430 191 -411Q215 -388 231 -336Q249 -277 256 -196Q257 -180 257 -163Q257 -114 243 -62.5Q229 -11 215 17.5Q201 46 174 96Q135 170 120 209Q114 225 97 225Q87 225 79.5 217.5Q72 210 72 200Q72 196 74 191Q89 149 130 73Q184 -28 198 -84Q191 -85 173 -86Q140 -87 122 -92Q95 -99 78 -116Q50 -144 50 -198ZM100 -198Q100 -165 114 -151Q123 -142 142 -139Q152 -137 173.5 -136.5Q195 -136 206 -134Q207 -148 207 -163Q207 -177 206 -192Q200 -267 183 -321Q171 -362 156 -376Q152 -380 150 -380Q147 -380 142 -375Q128 -360 116 -322Q100 -268 100 -198Z"/>
	<path fill="#daa520" d="M211 -108Q211 -103 206 -103Q205 -103 205 -103Q197 -105 174 -106Q132 -108 113 -116Q70 -135 70 -198Q70 -318 108 -379Q127 -410 150 -410Q180 -410 202 -357Q228 -296 236 -195Q237 -179 237 -163Q237 -116 223.5 -67.5Q210 -19 197 9Q184 37 157 87Q117 161 102 202Q100 205 97 205Q92 205 92 200Q92 199 92 198Q107 157 148 82Q175 33 188 5Q201 -23 214 -70Q227 -117 227 -163Q227 -178 226 -194Q218 -293 193 -353Q173 -400 150 -400Q126 -400 106 -354Q80 -293 80 -198Q80 -141 117 -125Q135 -117 175 -116Q198 -115 207 -113Q211 -112 211 -108Z"/>
</svg>