<svg xmlns="http://www.w3.org/2000/svg" viewBox="0 -1024 1024 1024">
	<path fill="#000088" d="M125 -230Q115 -230 107.5 -237.5Q100 -245 100 -255Q100 -265 107 -273Q114 -280 124 -280L535 -289Q536 -289 536 -289Q546 -289 553.5 -281.5Q561 -274 561 -264Q561 -254 554 -246Q547 -239 537 -239L126 -230Q125 -230 125 -230ZM125 -430Q115 -430 107.5 -437.5Q100 -445 100 -455Q100 -465 107 -473Q114 -480 124 -480L535 -489Q536 -489 536 -489Q546 -489 553.5 -481.5Q561 -474 561 -464Q561 -454 554 -446Q547 -439 537 -439L126 -430Q125 -430 125 -430ZM449 -567Q459 -567 466.5 -559.5Q474 -552 474 -542Q474 -540 474 -538L420 -187Q418 -178 411 -172Q404 -166 395 -166Q385 -166 377.5 -173.5Q370 -181 370 -191Q370 -193 370 -195L424 -546Q426 -555 433 -561Q440 -567 449 -567ZM248 -567Q258 -567 265.5 -559.5Q273 -552 273 -542Q273 -540 273 -538L219 -187Q217 -178 210 -172Q203 -166 194 -166Q184 -166 176.5 -173.5Q169 -181 169 -191Q169 -193 169 -195L223 -546Q225 -555 232 -561Q239 -567 248 -567Z"/>
	<path fill="#800080" d="M75 -230Q65 -230 57.5 -237.5Q50 -245 50 -255Q50 -265 57 -273Q64 -280 74 -280L485 -289Q486 -289 486 -289Q496 -289 503.5 -281.5Q511 -274 511 -264Q511 -254 504 -246Q497 -239 487 -239L76 -230Q75 -230 75 -230ZM75 -430Q65 -430 57.5 -437.5Q50 -445 50 -455Q50 -465 57 -473Q64 -480 74 -480L485 -489Q486 -489 486 -489Q496 -489 503.5 -481.5Q511 -474 511 -464Q511 -454 504 -446Q497 -439 487 -439L76 -430Q75 -430 75 -430ZM399 -567Q409 -567 416.5 -559.5Q424 -552 424 -542Q424 -540 424 -538L370 -187Q368 -178 361 -172Q354 -166 345 -166Q335 -166 327.5 -173.5Q320 -181 320 -191Q320 -193 320 -195L374 -546Q376 -555 383 -561Q390 -567 399 -567ZM198 -567Q208 -567 215.5 -559.5Q223 -552 223 -542Q223 -540 223 -538L169 -187Q167 -178 160 -172Q153 -166 144 -166Q134 -166 126.5 -173.5Q119 -181 119 -191Q119 -193 119 -195L173 -546Q175 -555 182 -561Q189 -567 198 -567Z"/>
	<path fill="#daa520" d="M55 -250Q50 -250 50 -255Q50 -260 55 -260L466 -269Q471 -269 471 -264Q471 -259 466 -259ZM55 -450Q50 -450 50 -455Q50 -460 55 -460L466 -469Q471 -469 471 -464Q471 -459 466 -459ZM379 -547Q384 -547 384 -542Q384 -542 384 -541L330 -190Q329 -186 325 -186Q320 -186 320 -191Q320 -191 320 -192L374 -543Q375 -547 379 -547ZM178 -547Q183 -547 183 -542Q183 -542 183 -541L129 -190Q128 -186 124 -186Q119 -186 119 -191Q119 -191 119 -192L173 -543Q174 -547 178 -547Z"/>
</svg>