<svg xmlns="http://www.w3.org/2000/svg" viewBox="0 -1024 1024 1024">
	<path fill="#000088" d="M90 35Q75 35 65 25Q55 15 55 0Q55 -15 65 -25Q75 -35 90 -35H135V-341L107 -314Q97 -306 90 -306Q80 -306 72 -314Q64 -322 64 -332Q64 -342 72 -350L170 -446L206 -411V-35H249Q264 -35 274.5 -25Q285 -15 285 0Q285 15 274.5 25Q264 35 249 35H170Z"/>
	<path fill="#800080" d="M75 25Q65 25 57.5 17.5Q50 10 50 0Q50 -10 57.5 -17.5Q65 -25 75 -25H130V-351L110 -331Q102 -324 92 -324Q82 -324 74.5 -331.5Q67 -339 67 -349Q67 -359 74 -367L137 -429Q145 -436 155 -436Q165 -436 172.5 -428.5Q180 -421 180 -411V-25H234Q244 -25 251.5 -17.5Q259 -10 259 0Q259 10 251.5 17.5Q244 25 234 25H155Z"/>
	<path fill="#daa520" d="M92 -344Q94 -344 96 -345L150 -399V0Q150 5 155 5Q160 5 160 0V-411Q160 -416 155 -416Q153 -416 151 -415L88 -353Q87 -351 87 -349Q87 -344 92 -344ZM75 5Q70 5 70 0Q70 -5 75 -5H234Q239 -5 239 0Q239 5 234 5Z"/>
</svg>