<svg xmlns="http://www.w3.org/2000/svg" viewBox="0 -1024 1024 1024">
	<path fill="#000088" d="M427 -447Q470 -447 517 -468Q564 -489 598 -529Q632 -569 632 -614Q632 -710 577 -765Q511 -831 383 -831Q301 -831 265 -823Q231 -816 213 -798Q187 -772 184 -709Q184 -700 184 -691Q184 -618 210 -558Q212 -553 212 -548Q212 -538 204.5 -530.5Q197 -523 187 -523Q171 -523 164 -538Q134 -608 134 -691Q134 -789 178 -833Q208 -864 255 -872.5Q302 -881 383 -881Q531 -881 612 -800Q682 -730 682 -614Q682 -541 622 -481Q583 -442 530.5 -419.5Q478 -397 427 -397Q380 -397 346 -431Q320 -457 307 -494.5Q294 -532 294 -570Q294 -571 294 -572.5Q294 -574 294 -575Q294 -584 295 -590Q298 -604 306 -613Q316 -623 331 -623Q341 -623 348.5 -615.5Q356 -608 356 -598Q356 -584 344 -577Q344 -575 344 -573Q344 -572 344 -571Q344 -570 344 -570Q344 -542 354 -513Q364 -484 381 -467Q401 -447 427 -447ZM260 -173Q260 -175 260 -179Q260 -183 260 -185Q260 -216 258.5 -251Q257 -286 255 -328.5Q253 -371 252 -394Q252 -394 252 -395L250 -671Q250 -681 257.5 -688.5Q265 -696 275 -696Q285 -696 292.5 -688.5Q300 -681 300 -671L302 -396Q303 -373 305 -330Q307 -287 308.5 -252Q310 -217 310 -185Q310 -183 310 -178Q310 -173 310 -171Q310 -117 304 -80Q293 -23 266 4Q243 28 209 28Q178 28 156 6Q146 -5 132 -28Q121 -45 115 -51.5Q109 -58 108 -66L100 -140Q100 -142 100 -143Q100 -153 107.5 -160.5Q115 -168 125 -168Q134 -168 141.5 -161.5Q149 -155 150 -146L157 -80Q163 -73 174 -54.5Q185 -36 192 -30Q199 -22 209 -22Q222 -22 231 -31Q247 -47 254 -89Q260 -121 260 -173Z"/>
	<path fill="#800080" d="M377 -447Q420 -447 467 -468Q514 -489 548 -529Q582 -569 582 -614Q582 -710 527 -765Q461 -831 333 -831Q251 -831 215 -823Q181 -816 163 -798Q137 -772 134 -709Q134 -700 134 -691Q134 -618 160 -558Q162 -553 162 -548Q162 -538 154.5 -530.5Q147 -523 137 -523Q121 -523 114 -538Q84 -608 84 -691Q84 -789 128 -833Q158 -864 205 -872.5Q252 -881 333 -881Q481 -881 562 -800Q632 -730 632 -614Q632 -541 572 -481Q533 -442 480.5 -419.5Q428 -397 377 -397Q330 -397 296 -431Q270 -457 257 -494.5Q244 -532 244 -570Q244 -571 244 -572.5Q244 -574 244 -575Q244 -584 245 -590Q248 -604 256 -613Q266 -623 281 -623Q291 -623 298.5 -615.5Q306 -608 306 -598Q306 -584 294 -577Q294 -575 294 -573Q294 -572 294 -571Q294 -570 294 -570Q294 -542 304 -513Q314 -484 331 -467Q351 -447 377 -447ZM210 -173Q210 -175 210 -179Q210 -183 210 -185Q210 -216 208.5 -251Q207 -286 205 -328.5Q203 -371 202 -394Q202 -394 202 -395L200 -671Q200 -681 207.5 -688.5Q215 -696 225 -696Q235 -696 242.5 -688.5Q250 -681 250 -671L252 -396Q253 -373 255 -330Q257 -287 258.5 -252Q260 -217 260 -185Q260 -183 260 -178Q260 -173 260 -171Q260 -117 254 -80Q243 -23 216 4Q193 28 159 28Q128 28 106 6Q96 -5 82 -28Q71 -45 65 -51.5Q59 -58 58 -66L50 -140Q50 -142 50 -143Q50 -153 57.5 -160.5Q65 -168 75 -168Q84 -168 91.5 -161.5Q99 -155 100 -146L107 -80Q113 -73 124 -54.5Q135 -36 142 -30Q149 -22 159 -22Q172 -22 181 -31Q197 -47 204 -89Q210 -121 210 -173Z"/>
	<path fill="#daa520" d="M254 -498Q254 -498 254 -496.5Q254 -495 254 -494Q254 -441 281.5 -396Q309 -351 357 -351Q435 -351 508.5 -407Q582 -463 582 -538Q582 -655 508.5 -715Q435 -775 313 -775Q207 -775 166 -760Q132 -746 114.5 -717Q97 -688 94 -634Q94 -624 94 -615Q94 -538 122 -474Q122 -473 122 -472Q122 -467 117 -467Q114 -467 112 -470Q84 -536 84 -615Q84 -625 84 -634Q87 -691 106.5 -723Q126 -755 163 -769Q205 -785 313 -785Q438 -785 515 -722Q592 -659 592 -538Q592 -457 515.5 -399Q439 -341 357 -341Q303 -341 273.5 -389.5Q244 -438 244 -494Q244 -495 244 -496.5Q244 -498 244 -498V-499Q244 -527 261 -527Q266 -527 266 -522Q266 -517 261 -517Q254 -517 254 -498ZM210 -172Q210 -174 210 -178.5Q210 -183 210 -185Q210 -222 206 -292Q202 -362 202 -395L200 -671Q200 -676 205 -676Q210 -676 210 -671L212 -395Q213 -372 215 -329.5Q217 -287 218.5 -252Q220 -217 220 -185Q220 -183 220 -178.5Q220 -174 220 -172Q220 -71 196 -28Q175 8 139 8Q118 8 104.5 -4.5Q91 -17 79 -37.5Q67 -58 60 -65Q58 -67 58 -68L50 -142Q50 -143 50 -143Q50 -148 55 -148Q59 -148 60 -144L68 -71Q75 -64 87 -43Q96 -29 101 -22Q106 -15 116.5 -8.5Q127 -2 139 -2Q210 -2 210 -172Z"/>
</svg>