<svg xmlns="http://www.w3.org/2000/svg" viewBox="0 -1024 1024 1024">
	<path fill="#000088" d="M150 -467Q150 -272 163 -126Q174 -16 188 21L190 27Q204 33 204 49Q204 59 196.5 66.5Q189 74 179 74Q166 74 156 64Q149 57 143 45Q138 33 134 15Q124 -23 117 -89Q100 -242 100 -467Q100 -692 117 -845Q124 -911 134 -949Q138 -967 143 -979Q149 -991 156 -998Q166 -1008 179 -1008Q189 -1008 196.5 -1000.5Q204 -993 204 -983Q204 -968 190 -961Q186 -951 182 -937Q174 -902 167 -840Q150 -689 150 -467Z"/>
	<path fill="#800080" d="M100 -467Q100 -272 113 -126Q124 -16 138 21L140 27Q154 33 154 49Q154 59 146.5 66.5Q139 74 129 74Q116 74 106 64Q99 57 93 45Q88 33 84 15Q74 -23 67 -89Q50 -242 50 -467Q50 -692 67 -845Q74 -911 84 -949Q88 -967 93 -979Q99 -991 106 -998Q116 -1008 129 -1008Q139 -1008 146.5 -1000.5Q154 -993 154 -983Q154 -968 140 -961Q136 -951 132 -937Q124 -902 117 -840Q100 -689 100 -467Z"/>
	<path fill="#daa520" d="M109 54Q97 54 87 25Q77 -7 69 -72Q50 -226 50 -467Q50 -708 69 -862Q77 -927 87 -959Q97 -988 109 -988Q114 -988 114 -983Q114 -978 109 -978Q104 -978 97 -956Q87 -925 79 -861Q60 -707 60 -467Q60 -227 79 -73Q87 -9 97 22Q104 44 109 44Q114 44 114 49Q114 54 109 54Z"/>
</svg>