<svg xmlns="http://www.w3.org/2000/svg" viewBox="0 -1024 1024 1024">
	<path fill="#000088" d="M125 74Q115 74 107.5 66.5Q100 59 100 49Q100 33 114 27L116 21Q130 -16 141 -126Q154 -272 154 -467Q154 -689 137 -840Q130 -902 122 -937Q118 -951 114 -961Q100 -968 100 -983Q100 -993 107.5 -1000.5Q115 -1008 125 -1008Q138 -1008 148 -998Q155 -991 161 -979Q166 -967 170 -949Q180 -911 187 -845Q204 -692 204 -467Q204 -242 187 -89Q180 -23 170 15Q166 33 161 45Q155 57 148 64Q138 74 125 74Z"/>
	<path fill="#800080" d="M75 74Q65 74 57.5 66.5Q50 59 50 49Q50 33 64 27L66 21Q80 -16 91 -126Q104 -272 104 -467Q104 -689 87 -840Q80 -902 72 -937Q68 -951 64 -961Q50 -968 50 -983Q50 -993 57.5 -1000.5Q65 -1008 75 -1008Q88 -1008 98 -998Q105 -991 111 -979Q116 -967 120 -949Q130 -911 137 -845Q154 -692 154 -467Q154 -242 137 -89Q130 -23 120 15Q116 33 111 45Q105 57 98 64Q88 74 75 74Z"/>
	<path fill="#daa520" d="M55 54Q50 54 50 49Q50 44 55 44Q60 44 67 22Q77 -9 85 -73Q104 -227 104 -467Q104 -707 85 -861Q77 -925 67 -956Q60 -978 55 -978Q50 -978 50 -983Q50 -988 55 -988Q67 -988 77 -959Q87 -927 95 -862Q114 -708 114 -467Q114 -226 95 -72Q87 -7 77 25Q67 54 55 54Z"/>
</svg>