<svg xmlns="http://www.w3.org/2000/svg" viewBox="0 -1024 1024 1024">
	<path fill="#000088" d="M90 84Q75 84 65 74Q55 64 55 49Q55 28 74 18Q109 -102 109 -467Q109 -832 74 -952Q55 -962 55 -983Q55 -998 65 -1008Q75 -1018 90 -1018Q94 -1018 96 -1016L131 -980Q151 -960 165.5 -812.5Q180 -665 180 -467Q180 -269 165.5 -121.5Q151 26 131 46L96 82Q94 84 90 84Z"/>
	<path fill="#800080" d="M75 74Q65 74 57.5 66.5Q50 59 50 49Q50 33 64 27L66 21Q80 -16 91 -126Q104 -272 104 -467Q104 -689 87 -840Q80 -902 72 -937Q68 -951 64 -961Q50 -968 50 -983Q50 -993 57.5 -1000.5Q65 -1008 75 -1008Q88 -1008 98 -998Q105 -991 111 -979Q116 -967 120 -949Q130 -911 137 -845Q154 -692 154 -467Q154 -242 137 -89Q130 -23 120 15Q116 33 111 45Q105 57 98 64Q88 74 75 74Z"/>
	<path fill="#daa520" d="M75 54Q70 54 70 49Q70 44 75 44Q80 44 87 22Q97 -9 105 -73Q124 -227 124 -467Q124 -707 105 -861Q97 -925 87 -956Q80 -978 75 -978Q70 -978 70 -983Q70 -988 75 -988Q87 -988 97 -959Q107 -927 115 -862Q134 -708 134 -467Q134 -226 115 -72Q107 -7 97 25Q87 54 75 54Z"/>
</svg>