<svg xmlns="http://www.w3.org/2000/svg" viewBox="0 -1024 1024 1024">
	<path fill="#000088" d="M426 -384Q448 -405 476 -405Q504 -405 526 -384Q552 -357 552 -317Q552 -277 526 -250Q504 -229 476 -229Q448 -229 426 -250Q400 -277 400 -317Q400 -357 426 -384ZM462 -286Q468 -279 476 -279Q484 -279 490 -286Q502 -297 502 -317Q502 -337 490 -348Q484 -355 476 -355Q468 -355 462 -348Q450 -337 450 -317Q450 -297 462 -286ZM126 -684Q148 -705 176 -705Q204 -705 226 -684Q252 -657 252 -617Q252 -577 226 -550Q204 -529 176 -529Q148 -529 126 -550Q100 -577 100 -617Q100 -657 126 -684ZM162 -586Q168 -579 176 -579Q184 -579 190 -586Q202 -597 202 -617Q202 -637 190 -648Q184 -655 176 -655Q168 -655 162 -648Q150 -637 150 -617Q150 -597 162 -586ZM467 -672Q477 -672 484.5 -664.5Q492 -657 492 -647Q492 -639 487 -633L157 -168Q150 -157 137 -157Q127 -157 119.5 -164.5Q112 -172 112 -182Q112 -190 117 -196L447 -661Q454 -672 467 -672Z"/>
	<path fill="#800080" d="M376 -384Q398 -405 426 -405Q454 -405 476 -384Q502 -357 502 -317Q502 -277 476 -250Q454 -229 426 -229Q398 -229 376 -250Q350 -277 350 -317Q350 -357 376 -384ZM412 -286Q418 -279 426 -279Q434 -279 440 -286Q452 -297 452 -317Q452 -337 440 -348Q434 -355 426 -355Q418 -355 412 -348Q400 -337 400 -317Q400 -297 412 -286ZM76 -684Q98 -705 126 -705Q154 -705 176 -684Q202 -657 202 -617Q202 -577 176 -550Q154 -529 126 -529Q98 -529 76 -550Q50 -577 50 -617Q50 -657 76 -684ZM112 -586Q118 -579 126 -579Q134 -579 140 -586Q152 -597 152 -617Q152 -637 140 -648Q134 -655 126 -655Q118 -655 112 -648Q100 -637 100 -617Q100 -597 112 -586ZM417 -672Q427 -672 434.5 -664.5Q442 -657 442 -647Q442 -639 437 -633L107 -168Q100 -157 87 -157Q77 -157 69.5 -164.5Q62 -172 62 -182Q62 -190 67 -196L397 -661Q404 -672 417 -672Z"/>
	<path fill="#daa520" d="M386 -269Q370 -289 370 -317Q370 -345 386 -365Q402 -385 426 -385Q450 -385 466 -365Q482 -345 482 -317Q482 -289 466 -269Q450 -249 426 -249Q402 -249 386 -269ZM393.5 -358Q380 -341 380 -317Q380 -293 393.5 -276Q407 -259 426 -259Q445 -259 458.5 -276Q472 -293 472 -317Q472 -341 458.5 -358Q445 -375 426 -375Q407 -375 393.5 -358ZM86 -569Q70 -589 70 -617Q70 -645 86 -665Q102 -685 126 -685Q150 -685 166 -665Q182 -645 182 -617Q182 -589 166 -569Q150 -549 126 -549Q102 -549 86 -569ZM93.5 -658Q80 -641 80 -617Q80 -593 93.5 -576Q107 -559 126 -559Q145 -559 158.5 -576Q172 -593 172 -617Q172 -641 158.5 -658Q145 -675 126 -675Q107 -675 93.5 -658ZM417 -652Q422 -652 422 -647Q422 -645 421 -644L91 -179Q90 -177 87 -177Q82 -177 82 -182Q82 -184 83 -185L413 -650Q414 -652 417 -652Z"/>
</svg>