<svg xmlns="http://www.w3.org/2000/svg" viewBox="0 -1024 1024 1024">
	<path fill="#000088" d="M231 -554Q231 -564 238.5 -571.5Q246 -579 256 -579Q266 -579 273.5 -571.5Q281 -564 281 -554V-273Q281 -263 273.5 -255.5Q266 -248 256 -248Q246 -248 238.5 -255.5Q231 -263 231 -273ZM125 -386Q115 -386 107.5 -393.5Q100 -401 100 -411Q100 -421 107.5 -428.5Q115 -436 125 -436H404Q414 -436 421.5 -428.5Q429 -421 429 -411Q429 -401 421.5 -393.5Q414 -386 404 -386Z"/>
	<path fill="#800080" d="M181 -554Q181 -564 188.5 -571.5Q196 -579 206 -579Q216 -579 223.5 -571.5Q231 -564 231 -554V-273Q231 -263 223.5 -255.5Q216 -248 206 -248Q196 -248 188.5 -255.5Q181 -263 181 -273ZM75 -386Q65 -386 57.5 -393.5Q50 -401 50 -411Q50 -421 57.5 -428.5Q65 -436 75 -436H354Q364 -436 371.5 -428.5Q379 -421 379 -411Q379 -401 371.5 -393.5Q364 -386 354 -386Z"/>
	<path fill="#daa520" d="M181 -554Q181 -559 186 -559Q191 -559 191 -554V-273Q191 -268 186 -268Q181 -268 181 -273ZM55 -406Q50 -406 50 -411Q50 -416 55 -416H334Q339 -416 339 -411Q339 -406 334 -406Z"/>
</svg>