<svg xmlns="http://www.w3.org/2000/svg" viewBox="0 -1024 1024 1024">
	<path fill="#000088" d="M279 -724Q234 -724 207 -696Q176 -665 162 -598Q152 -545 151 -436Q151 -432 150.5 -418.5Q150 -405 150 -397Q150 -300 174 -213Q201 -119 248 -71Q287 -32 339 -28Q338 -32 338 -35Q338 -48 349 -55Q420 -106 451 -224Q472 -302 472 -395Q472 -420 470 -444Q470 -445 470 -446Q470 -447 470 -448Q472 -467 472 -487Q472 -546 458 -596Q442 -658 408 -691Q374 -725 324 -725Q312 -725 299 -723Q297 -723 295 -723Q293 -723 287.5 -723.5Q282 -724 279 -724ZM436 59Q436 52 429 41Q427 39 400 9Q377 22 350 22Q271 22 213 -36Q156 -93 126 -200Q100 -293 100 -396Q100 -408 100 -419Q100 -424 100.5 -448Q101 -472 101.5 -480.5Q102 -489 102.5 -510Q103 -531 104.5 -543.5Q106 -556 108 -574Q110 -592 113 -608Q130 -690 171 -731Q214 -774 280 -774Q287 -774 295 -773Q309 -775 323 -775Q395 -775 444 -726Q486 -684 507 -609Q522 -552 522 -488Q522 -466 520 -446Q522 -420 522 -395Q522 -294 497.5 -205.5Q473 -117 427 -60Q431 -50 431 -39Q431 -35 431 -32Q435 -26 446 -15Q459 -1 465 5.5Q471 12 478.5 28Q486 44 486 59Q486 76 479.5 91.5Q473 107 467.5 114Q462 121 452 133Q439 147 435 154Q428 166 413 166H341Q331 166 323.5 158.5Q316 151 316 141Q316 131 323.5 123.5Q331 116 341 116H400Q405 110 415 99Q436 75 436 61Q436 61 436 60.5Q436 60 436 59Z"/>
	<path fill="#800080" d="M229 -724Q184 -724 157 -696Q126 -665 112 -598Q102 -545 101 -436Q101 -432 100.5 -418.5Q100 -405 100 -397Q100 -300 124 -213Q151 -119 198 -71Q237 -32 289 -28Q288 -32 288 -35Q288 -48 299 -55Q370 -106 401 -224Q422 -302 422 -395Q422 -420 420 -444Q420 -445 420 -446Q420 -447 420 -448Q422 -467 422 -487Q422 -546 408 -596Q392 -658 358 -691Q324 -725 274 -725Q262 -725 249 -723Q247 -723 245 -723Q243 -723 237.5 -723.5Q232 -724 229 -724ZM386 59Q386 52 379 41Q377 39 350 9Q327 22 300 22Q221 22 163 -36Q106 -93 76 -200Q50 -293 50 -396Q50 -408 50 -419Q50 -424 50.5 -448Q51 -472 51.5 -480.5Q52 -489 52.5 -510Q53 -531 54.5 -543.5Q56 -556 58 -574Q60 -592 63 -608Q80 -690 121 -731Q164 -774 230 -774Q237 -774 245 -773Q259 -775 273 -775Q345 -775 394 -726Q436 -684 457 -609Q472 -552 472 -488Q472 -466 470 -446Q472 -420 472 -395Q472 -294 447.5 -205.5Q423 -117 377 -60Q381 -50 381 -39Q381 -35 381 -32Q385 -26 396 -15Q409 -1 415 5.5Q421 12 428.5 28Q436 44 436 59Q436 76 429.5 91.5Q423 107 417.5 114Q412 121 402 133Q389 147 385 154Q378 166 363 166H291Q281 166 273.5 158.5Q266 151 266 141Q266 131 273.5 123.5Q281 116 291 116H350Q355 110 365 99Q386 75 386 61Q386 61 386 60.5Q386 60 386 59Z"/>
	<path fill="#daa520" d="M386 61Q386 61 386 60Q386 59 386 59Q386 46 376.5 32.5Q367 19 352.5 4Q338 -11 333 -18Q315 2 280 2Q277 2 275 2Q224 1 183.5 -27.5Q143 -56 119 -98.5Q95 -141 78.5 -195.5Q62 -250 56 -299.5Q50 -349 50 -396Q50 -405 50.5 -418.5Q51 -432 51 -437Q51 -465 51.5 -479.5Q52 -494 53.5 -524.5Q55 -555 58 -572.5Q61 -590 66.5 -617.5Q72 -645 79.5 -661.5Q87 -678 99.5 -697.5Q112 -717 127 -728Q142 -739 163.5 -746.5Q185 -754 210 -754Q217 -754 225 -753Q240 -755 254 -755Q302 -755 338 -730.5Q374 -706 393.5 -665.5Q413 -625 422.5 -580Q432 -535 432 -487Q432 -466 430 -446Q432 -421 432 -395Q432 -324 420.5 -259Q409 -194 377.5 -130Q346 -66 296 -31Q295 -30 293 -30Q288 -30 288 -35Q288 -38 290 -39Q359 -88 390.5 -186.5Q422 -285 422 -395Q422 -421 420 -446Q420 -446 420 -446Q422 -466 422 -487Q422 -534 413 -578Q404 -622 385 -660.5Q366 -699 332 -722Q298 -745 254 -745Q240 -745 226 -743Q226 -743 225 -743Q223 -743 217.5 -743.5Q212 -744 210 -744Q180 -744 156.5 -732.5Q133 -721 117.5 -705Q102 -689 91 -661Q80 -633 74.5 -610Q69 -587 65.5 -550.5Q62 -514 61.5 -493Q61 -472 61 -436Q61 -432 60.5 -418.5Q60 -405 60 -396Q60 -349 66 -300Q72 -251 88 -198Q104 -145 127.5 -104.5Q151 -64 189.5 -36.5Q228 -9 276 -8Q276 -8 277.5 -8Q279 -8 280 -8Q294 -8 308 -14Q322 -20 328 -29Q326 -34 326 -40Q326 -56 333 -56Q337 -56 338 -53Q341 -46 341 -39Q341 -33 339 -28Q344 -19 359.5 -3.5Q375 12 385.5 27.5Q396 43 396 59Q396 77 388 91.5Q380 106 366.5 120.5Q353 135 348 144Q346 146 343 146H271Q266 146 266 141Q266 136 271 136H341Q346 128 359 113Q386 83 386 61Z"/>
</svg>