<svg xmlns="http://www.w3.org/2000/svg" viewBox="0 -1024 1024 1024">
	<path fill="#000088" d="M224 -375V-212Q224 -202 216.5 -194.5Q209 -187 199 -187Q189 -187 181.5 -194.5Q174 -202 174 -212V-400Q174 -410 181.5 -417.5Q189 -425 199 -425H279Q306 -470 306 -508Q306 -515 305 -522Q301 -554 275 -586Q243 -613 211 -613Q208 -613 204 -613Q178 -610 150 -591V-570Q150 -560 142.5 -552.5Q135 -545 125 -545Q115 -545 107.5 -552.5Q100 -560 100 -570V-604Q100 -616 110 -624Q155 -658 199 -662Q205 -663 211 -663Q262 -663 309 -623Q311 -622 312 -620Q348 -576 355 -528Q356 -518 356 -508Q356 -450 314 -386Q306 -375 293 -375ZM178 -152Q178 -162 185.5 -169.5Q193 -177 203 -177Q213 -177 220.5 -169.5Q228 -162 228 -152V-108Q228 -98 220.5 -90.5Q213 -83 203 -83Q193 -83 185.5 -90.5Q178 -98 178 -108Z"/>
	<path fill="#800080" d="M174 -375V-212Q174 -202 166.5 -194.5Q159 -187 149 -187Q139 -187 131.5 -194.5Q124 -202 124 -212V-400Q124 -410 131.5 -417.5Q139 -425 149 -425H229Q256 -470 256 -508Q256 -515 255 -522Q251 -554 225 -586Q193 -613 161 -613Q158 -613 154 -613Q128 -610 100 -591V-570Q100 -560 92.5 -552.5Q85 -545 75 -545Q65 -545 57.5 -552.5Q50 -560 50 -570V-604Q50 -616 60 -624Q105 -658 149 -662Q155 -663 161 -663Q212 -663 259 -623Q261 -622 262 -620Q298 -576 305 -528Q306 -518 306 -508Q306 -450 264 -386Q256 -375 243 -375ZM128 -152Q128 -162 135.5 -169.5Q143 -177 153 -177Q163 -177 170.5 -169.5Q178 -162 178 -152V-108Q178 -98 170.5 -90.5Q163 -83 153 -83Q143 -83 135.5 -90.5Q128 -98 128 -108Z"/>
	<path fill="#daa520" d="M154 -395V-212Q154 -207 149 -207Q144 -207 144 -212V-400Q144 -405 149 -405H240Q276 -460 276 -507.5Q276 -555 239 -600Q201 -633 161 -633Q122 -633 80 -602V-570Q80 -565 75 -565Q70 -565 70 -570V-604Q70 -606 72 -608Q117 -643 161 -643Q205 -643 246 -608Q247 -608 247 -607Q286 -559 286 -507.5Q286 -456 247 -397Q246 -395 243 -395ZM148 -152Q148 -157 153 -157Q158 -157 158 -152V-108Q158 -103 153 -103Q148 -103 148 -108Z"/>
</svg>