<svg xmlns="http://www.w3.org/2000/svg" viewBox="0 -1024 1024 1024">
	<path fill="#000088" d="M200 -764Q215 -764 225.5 -754Q236 -744 236 -729V-728L233 -615Q232 -601 221.5 -591Q211 -581 197 -581Q182 -581 172 -591Q162 -601 162 -616V-617L165 -730Q166 -744 176 -754Q186 -764 200 -764ZM93 -764Q108 -764 118.5 -754Q129 -744 129 -729V-728L126 -615Q125 -601 114.5 -591Q104 -581 90 -581Q75 -581 65 -591Q55 -601 55 -616V-617L58 -730Q59 -744 69 -754Q79 -764 93 -764Z"/>
	<path fill="#800080" d="M50 -737Q50 -747 57.5 -754.5Q65 -762 75 -762Q85 -762 93 -755Q100 -748 100 -738L103 -672Q103 -672 103 -671Q103 -661 95.5 -653.5Q88 -646 78 -646Q68 -646 60 -653Q53 -660 53 -670L50 -736Q50 -736 50 -737ZM140 -740Q140 -750 147.5 -757.5Q155 -765 165 -765Q175 -765 183 -758Q190 -751 190 -741L193 -675Q193 -675 193 -674Q193 -664 185.5 -656.5Q178 -649 168 -649Q158 -649 150 -656Q143 -663 143 -673L140 -739Q140 -739 140 -740Z"/>
	<path fill="#daa520" d="M70 -737Q70 -742 75 -742Q80 -742 80 -737L83 -671Q83 -666 78 -666Q73 -666 73 -671ZM160 -740Q160 -745 165 -745Q170 -745 170 -740L173 -674Q173 -669 168 -669Q163 -669 163 -674Z"/>
</svg>