<svg xmlns="http://www.w3.org/2000/svg" viewBox="0 -1024 1024 1024">
	<path fill="#000088" d="M153 -728Q153 -728 153 -727L150 -616Q150 -606 143 -599Q135 -592 125 -592Q115 -592 107.5 -599.5Q100 -607 100 -617Q100 -617 100 -618L103 -729Q103 -739 110 -746Q118 -753 128 -753Q138 -753 145.5 -745.5Q153 -738 153 -728Z"/>
	<path fill="#800080" d="M103 -728Q103 -728 103 -727L100 -616Q100 -606 93 -599Q85 -592 75 -592Q65 -592 57.5 -599.5Q50 -607 50 -617Q50 -617 50 -618L53 -729Q53 -739 60 -746Q68 -753 78 -753Q88 -753 95.5 -745.5Q103 -738 103 -728Z"/>
	<path fill="#daa520" d="M58 -733Q63 -733 63 -728L60 -617Q60 -612 55 -612Q50 -612 50 -617L53 -728Q53 -733 58 -733Z"/>
</svg>