<svg xmlns="http://www.w3.org/2000/svg" viewBox="0 -1024 1024 1024">
	<path fill="#000088" d="M100 -737Q100 -747 107.5 -754.5Q115 -762 125 -762Q135 -762 143 -755Q150 -748 150 -738L153 -672Q153 -672 153 -671Q153 -661 145.5 -653.5Q138 -646 128 -646Q118 -646 110 -653Q103 -660 103 -670L100 -736Q100 -736 100 -737ZM190 -740Q190 -750 197.5 -757.5Q205 -765 215 -765Q225 -765 233 -758Q240 -751 240 -741L243 -675Q243 -675 243 -674Q243 -664 235.5 -656.5Q228 -649 218 -649Q208 -649 200 -656Q193 -663 193 -673L190 -739Q190 -739 190 -740Z"/>
	<path fill="#800080" d="M50 -737Q50 -747 57.5 -754.5Q65 -762 75 -762Q85 -762 93 -755Q100 -748 100 -738L103 -672Q103 -672 103 -671Q103 -661 95.5 -653.5Q88 -646 78 -646Q68 -646 60 -653Q53 -660 53 -670L50 -736Q50 -736 50 -737ZM140 -740Q140 -750 147.5 -757.5Q155 -765 165 -765Q175 -765 183 -758Q190 -751 190 -741L193 -675Q193 -675 193 -674Q193 -664 185.5 -656.5Q178 -649 168 -649Q158 -649 150 -656Q143 -663 143 -673L140 -739Q140 -739 140 -740Z"/>
	<path fill="#daa520" d="M50 -737Q50 -742 55 -742Q60 -742 60 -737L63 -671Q63 -666 58 -666Q53 -666 53 -671ZM140 -740Q140 -745 145 -745Q150 -745 150 -740L153 -674Q153 -669 148 -669Q143 -669 143 -674Z"/>
</svg>