<svg xmlns="http://www.w3.org/2000/svg" viewBox="0 -1024 1024 1024">
	<path fill="#000088" d="M620 -147Q634 -147 643 -137.5Q652 -128 652 -115Q652 -106 650 -102L638 -74L612 -48Q600 -34 593 -27L558 9Q534 33 510 33Q482 33 458 9L423 -26Q378 -71 361 -166Q355 -200 350.5 -264.5Q346 -329 344 -349Q342 -350 339 -353Q336 -356 334 -358L299 -393Q255 -437 255 -499Q255 -513 258 -516L294 -552Q295 -553 298 -553Q305 -553 316 -542L351 -507Q364 -494 377 -474Q390 -454 392 -444Q396 -435 399 -424Q437 -436 472 -465Q505 -508 505 -548Q505 -641 459 -702Q397 -749 298 -749Q278 -751 271 -751Q234 -751 205 -733Q168 -676 159 -534Q158 -520 148 -510Q138 -500 124 -500Q110 -500 99.5 -511Q89 -522 89 -536V-538Q92 -586 96 -617.5Q100 -649 114 -689.5Q128 -730 151 -753L186 -788Q219 -821 271 -821Q278 -821 298 -819Q416 -819 478 -757L514 -721Q576 -659 576 -548Q576 -496 526 -446L490 -411Q456 -377 414 -359Q418 -332 421.5 -266Q425 -200 432 -166Q446 -91 476 -47Q493 -37 510 -37Q525 -37 542 -49L568 -75Q572 -84 579 -101.5Q586 -119 590 -128Q598 -147 620 -147ZM306 -258Q306 -246 306.5 -221Q307 -196 307 -181Q307 -42 266 -1L231 34Q214 51 190 51Q157 51 126 20L94 -12L90 -9L55 -44Q55 -45 73 -65Q91 -85 94 -88L129 -124H130L165 -89Q153 -75 138 -58H140Q140 -46 146 -34Q171 -19 190 -19Q204 -19 212 -23Q236 -70 236 -181Q236 -196 235.5 -221Q235 -246 235 -258Q235 -316 225.5 -381Q216 -446 200.5 -523Q185 -600 179 -640L182 -664Q184 -677 194 -685.5Q204 -694 217 -694Q231 -694 241.5 -683.5Q252 -673 252 -659Q252 -652 250 -640Q256 -600 271.5 -523Q287 -446 296.5 -381Q306 -316 306 -258ZM67 -55Q64 -46 64 -44Q64 -22 88 -18Z"/>
	<path fill="#800080" d="M84 -538Q84 -539 84 -540Q90 -625 102 -674Q119 -737 153 -771Q194 -811 257 -811Q270 -811 285 -809Q411 -808 481 -739Q550 -670 550 -548Q550 -486 493 -429Q446 -382 388 -364Q392 -335 395.5 -269.5Q399 -204 406 -171Q413 -130 428 -95.5Q443 -61 460 -44Q477 -27 495 -27Q508 -27 525 -44Q531 -50 544.5 -66Q558 -82 566 -89L576 -112Q583 -127 599 -127Q609 -127 616.5 -119.5Q624 -112 624 -102Q624 -97 622 -92L610 -64Q609 -61 596 -49Q590 -43 578.5 -29.5Q567 -16 560 -9Q528 23 495 23Q456 23 425 -8Q400 -33 382 -76Q364 -119 356.5 -162.5Q349 -206 345 -272Q342 -327 338 -355Q337 -355 335 -355Q327 -355 321 -359Q290 -381 270 -419.5Q250 -458 250 -499Q250 -504 250 -508Q251 -525 261 -534Q270 -543 283 -543Q294 -543 305 -536Q311 -531 318 -524Q335 -508 350 -483Q361 -464 365 -452Q372 -434 378 -413Q423 -429 458 -464Q500 -506 500 -548Q500 -649 445 -704Q390 -759 283 -759Q281 -759 279 -759Q267 -761 255 -761Q214 -761 189 -735Q164 -711 151 -661Q139 -617 134 -536Q133 -527 127 -520Q119 -513 109 -513Q99 -513 91.5 -520.5Q84 -528 84 -538ZM310 -453Q313 -445 317 -438Q316 -442 310 -453ZM224 -640Q230 -601 245.5 -523.5Q261 -446 270.5 -382Q280 -318 280 -258Q280 -246 281 -221Q282 -196 282 -181Q282 -81 261 -27Q250 0 234 17Q209 41 175 41Q157 41 136 32Q96 14 76 -19Q65 -19 57.5 -26.5Q50 -34 50 -43Q50 -53 56 -61Q82 -93 98 -107Q98 -108 99 -109Q106 -114 114 -114Q125 -114 132 -106.5Q139 -99 139 -88Q139 -81 135 -74Q134 -73 129 -68Q125 -62 115 -52Q119 -41 131 -30.5Q143 -20 156 -14Q167 -9 175 -9Q189 -9 198 -19Q219 -39 227 -100Q232 -134 232 -182Q232 -197 231 -221.5Q230 -246 230 -258Q230 -315 220.5 -379Q211 -443 195.5 -520Q180 -597 174 -636Q174 -638 174 -640Q174 -642 176 -658Q178 -666 185 -672.5Q192 -679 201 -679Q211 -679 218.5 -671.5Q226 -664 226 -654Q226 -652 224 -640Z"/>
	<path fill="#daa520" d="M270 -499Q270 -523 283 -523Q289 -523 297 -516Q311 -506 326.5 -482.5Q342 -459 346 -446Q357 -419 363 -388Q421 -401 470.5 -449Q520 -497 520 -548Q520 -652 461.5 -715.5Q403 -779 283 -779Q283 -779 282 -779Q268 -781 256 -781Q227 -781 204 -771Q181 -761 166.5 -740.5Q152 -720 142 -699Q132 -678 126.5 -646.5Q121 -615 118.5 -592.5Q116 -570 114 -538Q114 -533 109 -533Q104 -533 104 -538Q106 -566 107.5 -585Q109 -604 114 -632.5Q119 -661 125 -681Q131 -701 142.5 -723.5Q154 -746 169 -759.5Q184 -773 206.5 -782Q229 -791 256 -791Q269 -791 283 -789Q407 -789 468.5 -722.5Q530 -656 530 -548Q530 -492 478 -441.5Q426 -391 365 -378Q371 -344 375 -273Q379 -202 386 -167Q390 -143 398.5 -118Q407 -93 420 -66.5Q433 -40 452.5 -23.5Q472 -7 495 -7Q511 -7 526.5 -19Q542 -31 558.5 -51Q575 -71 583 -77L594 -104Q596 -107 599 -107Q604 -107 604 -102Q604 -101 603 -100L591 -72Q591 -71 590 -70Q582 -63 565 -42.5Q548 -22 531 -9.5Q514 3 495 3Q468 3 446 -15Q424 -33 410.5 -61.5Q397 -90 389 -115Q381 -140 376 -165Q369 -200 365 -271Q361 -342 355 -377Q345 -375 335 -375Q333 -375 332 -376Q304 -395 287 -429.5Q270 -464 270 -499ZM280 -499Q280 -467 296 -435Q312 -403 336 -385Q345 -385 353 -386Q347 -417 336 -442Q336 -442 336 -443Q332 -461 308 -490Q299 -502 291 -508Q285 -513 283 -513H282Q280 -513 280 -499ZM260 -258Q260 -246 260.5 -221.5Q261 -197 261 -181Q261 -63 232 -14Q211 21 175 21Q149 21 120 0Q91 -21 85 -47Q79 -41 78 -40Q77 -39 75 -39Q70 -39 70 -44Q70 -46 71 -47.5Q72 -49 77 -55Q96 -77 110 -91Q111 -92 111 -93Q113 -94 114 -94Q119 -94 119 -89Q119 -87 118 -85Q118 -85 114 -81Q108 -74 95 -59Q94 -58 94 -58Q94 -35 122 -12Q150 11 175 11Q205 11 224 -19Q251 -65 251 -181Q251 -197 250.5 -221.5Q250 -246 250 -258Q250 -316 240.5 -380.5Q231 -445 215.5 -522Q200 -599 194 -639Q194 -640 194 -640Q194 -640 194 -641L196 -655Q197 -659 201 -659Q206 -659 206 -654Q206 -654 206 -653L204 -640Q210 -600 225.5 -523Q241 -446 250.5 -381.5Q260 -317 260 -258Z"/>
</svg>