<svg xmlns="http://www.w3.org/2000/svg" viewBox="0 -1024 1024 1024">
	<path fill="#000088" d="M134 -538Q134 -539 134 -540Q140 -625 152 -674Q169 -737 203 -771Q244 -811 307 -811Q320 -811 335 -809Q461 -808 531 -739Q600 -670 600 -548Q600 -486 543 -429Q496 -382 438 -364Q442 -335 445.5 -269.5Q449 -204 456 -171Q463 -130 478 -95.5Q493 -61 510 -44Q527 -27 545 -27Q558 -27 575 -44Q581 -50 594.5 -66Q608 -82 616 -89L626 -112Q633 -127 649 -127Q659 -127 666.5 -119.5Q674 -112 674 -102Q674 -97 672 -92L660 -64Q659 -61 646 -49Q640 -43 628.5 -29.5Q617 -16 610 -9Q578 23 545 23Q506 23 475 -8Q450 -33 432 -76Q414 -119 406.5 -162.5Q399 -206 395 -272Q392 -327 388 -355Q387 -355 385 -355Q377 -355 371 -359Q340 -381 320 -419.5Q300 -458 300 -499Q300 -504 300 -508Q301 -525 311 -534Q320 -543 333 -543Q344 -543 355 -536Q361 -531 368 -524Q385 -508 400 -483Q411 -464 415 -452Q422 -434 428 -413Q473 -429 508 -464Q550 -506 550 -548Q550 -649 495 -704Q440 -759 333 -759Q331 -759 329 -759Q317 -761 305 -761Q264 -761 239 -735Q214 -711 201 -661Q189 -617 184 -536Q183 -527 177 -520Q169 -513 159 -513Q149 -513 141.5 -520.5Q134 -528 134 -538ZM360 -453Q363 -445 367 -438Q366 -442 360 -453ZM274 -640Q280 -601 295.5 -523.5Q311 -446 320.5 -382Q330 -318 330 -258Q330 -246 331 -221Q332 -196 332 -181Q332 -81 311 -27Q300 0 284 17Q259 41 225 41Q207 41 186 32Q146 14 126 -19Q115 -19 107.5 -26.5Q100 -34 100 -43Q100 -53 106 -61Q132 -93 148 -107Q148 -108 149 -109Q156 -114 164 -114Q175 -114 182 -106.5Q189 -99 189 -88Q189 -81 185 -74Q184 -73 179 -68Q175 -62 165 -52Q169 -41 181 -30.5Q193 -20 206 -14Q217 -9 225 -9Q239 -9 248 -19Q269 -39 277 -100Q282 -134 282 -182Q282 -197 281 -221.5Q280 -246 280 -258Q280 -315 270.5 -379Q261 -443 245.5 -520Q230 -597 224 -636Q224 -638 224 -640Q224 -642 226 -658Q228 -666 235 -672.5Q242 -679 251 -679Q261 -679 268.5 -671.5Q276 -664 276 -654Q276 -652 274 -640Z"/>
	<path fill="#800080" d="M84 -538Q84 -539 84 -540Q90 -625 102 -674Q119 -737 153 -771Q194 -811 257 -811Q270 -811 285 -809Q411 -808 481 -739Q550 -670 550 -548Q550 -486 493 -429Q446 -382 388 -364Q392 -335 395.5 -269.5Q399 -204 406 -171Q413 -130 428 -95.5Q443 -61 460 -44Q477 -27 495 -27Q508 -27 525 -44Q531 -50 544.5 -66Q558 -82 566 -89L576 -112Q583 -127 599 -127Q609 -127 616.5 -119.5Q624 -112 624 -102Q624 -97 622 -92L610 -64Q609 -61 596 -49Q590 -43 578.5 -29.5Q567 -16 560 -9Q528 23 495 23Q456 23 425 -8Q400 -33 382 -76Q364 -119 356.5 -162.5Q349 -206 345 -272Q342 -327 338 -355Q337 -355 335 -355Q327 -355 321 -359Q290 -381 270 -419.5Q250 -458 250 -499Q250 -504 250 -508Q251 -525 261 -534Q270 -543 283 -543Q294 -543 305 -536Q311 -531 318 -524Q335 -508 350 -483Q361 -464 365 -452Q372 -434 378 -413Q423 -429 458 -464Q500 -506 500 -548Q500 -649 445 -704Q390 -759 283 -759Q281 -759 279 -759Q267 -761 255 -761Q214 -761 189 -735Q164 -711 151 -661Q139 -617 134 -536Q133 -527 127 -520Q119 -513 109 -513Q99 -513 91.5 -520.5Q84 -528 84 -538ZM310 -453Q313 -445 317 -438Q316 -442 310 -453ZM224 -640Q230 -601 245.5 -523.5Q261 -446 270.5 -382Q280 -318 280 -258Q280 -246 281 -221Q282 -196 282 -181Q282 -81 261 -27Q250 0 234 17Q209 41 175 41Q157 41 136 32Q96 14 76 -19Q65 -19 57.5 -26.5Q50 -34 50 -43Q50 -53 56 -61Q82 -93 98 -107Q98 -108 99 -109Q106 -114 114 -114Q125 -114 132 -106.5Q139 -99 139 -88Q139 -81 135 -74Q134 -73 129 -68Q125 -62 115 -52Q119 -41 131 -30.5Q143 -20 156 -14Q167 -9 175 -9Q189 -9 198 -19Q219 -39 227 -100Q232 -134 232 -182Q232 -197 231 -221.5Q230 -246 230 -258Q230 -315 220.5 -379Q211 -443 195.5 -520Q180 -597 174 -636Q174 -638 174 -640Q174 -642 176 -658Q178 -666 185 -672.5Q192 -679 201 -679Q211 -679 218.5 -671.5Q226 -664 226 -654Q226 -652 224 -640Z"/>
	<path fill="#daa520" d="M250 -499Q250 -523 263 -523Q269 -523 277 -516Q291 -506 306.5 -482.5Q322 -459 326 -446Q337 -419 343 -388Q401 -401 450.5 -449Q500 -497 500 -548Q500 -652 441.5 -715.5Q383 -779 263 -779Q263 -779 262 -779Q248 -781 236 -781Q207 -781 184 -771Q161 -761 146.5 -740.5Q132 -720 122 -699Q112 -678 106.5 -646.5Q101 -615 98.5 -592.5Q96 -570 94 -538Q94 -533 89 -533Q84 -533 84 -538Q86 -566 87.5 -585Q89 -604 94 -632.5Q99 -661 105 -681Q111 -701 122.5 -723.5Q134 -746 149 -759.5Q164 -773 186.5 -782Q209 -791 236 -791Q249 -791 263 -789Q387 -789 448.5 -722.5Q510 -656 510 -548Q510 -492 458 -441.5Q406 -391 345 -378Q351 -344 355 -273Q359 -202 366 -167Q370 -143 378.5 -118Q387 -93 400 -66.5Q413 -40 432.5 -23.5Q452 -7 475 -7Q491 -7 506.5 -19Q522 -31 538.5 -51Q555 -71 563 -77L574 -104Q576 -107 579 -107Q584 -107 584 -102Q584 -101 583 -100L571 -72Q571 -71 570 -70Q562 -63 545 -42.5Q528 -22 511 -9.5Q494 3 475 3Q448 3 426 -15Q404 -33 390.5 -61.5Q377 -90 369 -115Q361 -140 356 -165Q349 -200 345 -271Q341 -342 335 -377Q325 -375 315 -375Q313 -375 312 -376Q284 -395 267 -429.5Q250 -464 250 -499ZM260 -499Q260 -467 276 -435Q292 -403 316 -385Q325 -385 333 -386Q327 -417 316 -442Q316 -442 316 -443Q312 -461 288 -490Q279 -502 271 -508Q265 -513 263 -513H262Q260 -513 260 -499ZM240 -258Q240 -246 240.5 -221.5Q241 -197 241 -181Q241 -63 212 -14Q191 21 155 21Q129 21 100 0Q71 -21 65 -47Q59 -41 58 -40Q57 -39 55 -39Q50 -39 50 -44Q50 -46 51 -47.5Q52 -49 57 -55Q76 -77 90 -91Q91 -92 91 -93Q93 -94 94 -94Q99 -94 99 -89Q99 -87 98 -85Q98 -85 94 -81Q88 -74 75 -59Q74 -58 74 -58Q74 -35 102 -12Q130 11 155 11Q185 11 204 -19Q231 -65 231 -181Q231 -197 230.5 -221.5Q230 -246 230 -258Q230 -316 220.5 -380.5Q211 -445 195.5 -522Q180 -599 174 -639Q174 -640 174 -640Q174 -640 174 -641L176 -655Q177 -659 181 -659Q186 -659 186 -654Q186 -654 186 -653L184 -640Q190 -600 205.5 -523Q221 -446 230.5 -381.5Q240 -317 240 -258Z"/>
</svg>