<svg xmlns="http://www.w3.org/2000/svg" viewBox="0 -1024 1024 1024">
	<path fill="#000088" d="M230 -678Q230 -579 304 -505Q316 -493 331 -481Q366 -548 383 -600Q400 -652 400 -716Q400 -736 391 -745Q377 -759 337 -759Q284 -759 265 -755Q249 -752 243 -746Q238 -741 235 -730Q230 -713 230 -678ZM353 -151Q363 -151 370 -144Q379 -136 393 -134Q396 -136 399 -139Q405 -145 405 -152Q405 -157 403 -163Q399 -171 391 -179Q369 -202 344 -202Q334 -202 329 -196Q320 -187 320 -162Q320 -127 337 -78Q353 -33 373 -13Q385 -1 397 -1Q444 -1 482 -39Q505 -62 518.5 -93Q532 -124 532 -154Q532 -243 463 -312Q454 -321 443.5 -330.5Q433 -340 419.5 -350.5Q406 -361 397.5 -367.5Q389 -374 371.5 -386.5Q354 -399 348 -404Q309 -325 293 -262Q291 -253 287 -235.5Q283 -218 282 -216Q287 -225 294 -232Q314 -252 344 -252Q389 -252 426 -215Q447 -194 453 -170Q455 -162 455 -153Q455 -124 434 -103Q425 -94 411 -86Q406 -83 399 -83Q378 -83 358 -93Q345 -100 336 -108Q328 -115 328 -126Q328 -136 335.5 -143.5Q343 -151 353 -151ZM180 -678Q180 -754 208 -781Q225 -799 256 -804Q279 -809 337 -809Q398 -809 426 -781Q450 -757 450 -716Q450 -664 437 -612.5Q424 -561 410.5 -530Q397 -499 371 -449Q381 -442 399 -428Q425 -409 437 -400Q449 -391 472 -371.5Q495 -352 507 -338.5Q519 -325 536 -302.5Q553 -280 561 -259Q569 -238 575.5 -211Q582 -184 582 -154Q582 -113 565 -73.5Q548 -34 518 -4Q465 49 397 49Q365 49 338 22Q309 -6 290 -61Q270 -119 270 -162Q270 -166 270 -170Q242 -68 190 -17Q171 2 148 16Q142 31 125 31Q115 31 107.5 23.5Q100 16 100 6V0Q100 -15 114 -22Q137 -34 155 -52Q163 -61 170.5 -70.5Q178 -80 185 -92Q192 -104 196.5 -113.5Q201 -123 207 -139Q213 -155 216 -163.5Q219 -172 224 -191.5Q229 -211 231 -218Q233 -225 238 -246.5Q243 -268 245 -274Q262 -345 308 -435Q249 -483 214.5 -540.5Q180 -598 180 -678Z"/>
	<path fill="#800080" d="M180 -678Q180 -579 254 -505Q266 -493 281 -481Q316 -548 333 -600Q350 -652 350 -716Q350 -736 341 -745Q327 -759 287 -759Q234 -759 215 -755Q199 -752 193 -746Q188 -741 185 -730Q180 -713 180 -678ZM303 -151Q313 -151 320 -144Q329 -136 343 -134Q346 -136 349 -139Q355 -145 355 -152Q355 -157 353 -163Q349 -171 341 -179Q319 -202 294 -202Q284 -202 279 -196Q270 -187 270 -162Q270 -127 287 -78Q303 -33 323 -13Q335 -1 347 -1Q394 -1 432 -39Q455 -62 468.5 -93Q482 -124 482 -154Q482 -243 413 -312Q404 -321 393.5 -330.5Q383 -340 369.5 -350.5Q356 -361 347.5 -367.5Q339 -374 321.5 -386.5Q304 -399 298 -404Q259 -325 243 -262Q241 -253 237 -235.5Q233 -218 232 -216Q237 -225 244 -232Q264 -252 294 -252Q339 -252 376 -215Q397 -194 403 -170Q405 -162 405 -153Q405 -124 384 -103Q375 -94 361 -86Q356 -83 349 -83Q328 -83 308 -93Q295 -100 286 -108Q278 -115 278 -126Q278 -136 285.5 -143.5Q293 -151 303 -151ZM130 -678Q130 -754 158 -781Q175 -799 206 -804Q229 -809 287 -809Q348 -809 376 -781Q400 -757 400 -716Q400 -664 387 -612.5Q374 -561 360.5 -530Q347 -499 321 -449Q331 -442 349 -428Q375 -409 387 -400Q399 -391 422 -371.5Q445 -352 457 -338.5Q469 -325 486 -302.5Q503 -280 511 -259Q519 -238 525.5 -211Q532 -184 532 -154Q532 -113 515 -73.5Q498 -34 468 -4Q415 49 347 49Q315 49 288 22Q259 -6 240 -61Q220 -119 220 -162Q220 -166 220 -170Q192 -68 140 -17Q121 2 98 16Q92 31 75 31Q65 31 57.5 23.5Q50 16 50 6V0Q50 -15 64 -22Q87 -34 105 -52Q113 -61 120.5 -70.5Q128 -80 135 -92Q142 -104 146.5 -113.5Q151 -123 157 -139Q163 -155 166 -163.5Q169 -172 174 -191.5Q179 -211 181 -218Q183 -225 188 -246.5Q193 -268 195 -274Q212 -345 258 -435Q199 -483 164.5 -540.5Q130 -598 130 -678Z"/>
	<path fill="#daa520" d="M267 -779Q192 -779 171 -769Q154 -760 147 -740Q140 -720 140 -678Q140 -602 173 -550Q206 -498 267 -449Q290 -493 299 -512.5Q308 -532 323 -569.5Q338 -607 344 -642Q350 -677 350 -716Q350 -779 267 -779ZM275 -443Q289 -433 317 -412.5Q345 -392 360.5 -379.5Q376 -367 400 -346.5Q424 -326 437.5 -308Q451 -290 465 -265.5Q479 -241 485.5 -213.5Q492 -186 492 -154Q492 -86 443.5 -28.5Q395 29 327 29Q294 29 267 -11Q245 -42 232.5 -87.5Q220 -133 220 -162Q220 -197 235 -214.5Q250 -232 274 -232Q306 -232 335.5 -207Q365 -182 365 -152.5Q365 -123 331 -104Q330 -103 329 -103Q300 -103 280 -122Q278 -124 278 -126Q278 -131 283 -131Q285 -131 286 -130Q304 -114 328 -113Q355 -129 355 -152Q355 -177 328.5 -199.5Q302 -222 274 -222Q230 -222 230 -162Q230 -141 238.5 -105.5Q247 -70 261 -40Q290 19 327 19Q390 19 436 -35.5Q482 -90 482 -154Q482 -190 471.5 -222.5Q461 -255 448 -277Q435 -299 408 -325Q381 -351 363.5 -365Q346 -379 312 -404Q284 -424 271 -434Q221 -337 204 -267Q202 -258 198 -241Q188 -203 183 -183.5Q178 -164 166 -130Q154 -96 141 -76Q128 -56 107 -33.5Q86 -11 60 3V6Q60 11 55 11Q50 11 50 6V0Q50 -3 53 -4Q68 -13 81.5 -22.5Q95 -32 106.5 -46.5Q118 -61 126.5 -71.5Q135 -82 143.5 -102Q152 -122 156.5 -131.5Q161 -141 168 -166Q175 -191 177 -198.5Q179 -206 186 -235Q193 -264 194 -269Q212 -341 263 -440Q200 -490 165 -544.5Q130 -599 130 -678Q130 -722 138 -745Q146 -768 167 -778Q190 -789 267 -789Q360 -789 360 -716Q360 -676 354 -640Q348 -604 332.5 -565Q317 -526 307.5 -507Q298 -488 275 -443Z"/>
</svg>