<svg xmlns="http://www.w3.org/2000/svg" viewBox="0 -1024 1024 1024">
	<path fill="#000088" d="M426 -716Q426 -665 412 -613Q398 -561 385 -532Q372 -503 343 -448Q415 -396 446 -365L482 -330Q558 -254 558 -154Q558 -79 501 -22L465 14Q420 59 362 59Q340 59 321 40L285 4Q246 -35 229 -124Q209 -71 173 -35L138 1Q136 3 131.5 6.5Q127 10 125 12Q123 25 113 33Q103 41 90 41Q75 41 65 31Q55 21 55 6V0L90 -35Q101 -40 119 -54Q130 -68 140 -86.5Q150 -105 155.5 -117.5Q161 -130 169.5 -156.5Q178 -183 180 -190.5Q182 -198 190 -231.5Q198 -265 199 -268Q216 -339 267 -438Q258 -446 216 -488Q135 -569 135 -678Q135 -744 155 -764L191 -799Q204 -812 228 -815.5Q252 -819 302 -819Q353 -819 374 -798L409 -763Q426 -746 426 -716ZM355 -716Q355 -728 351 -742Q331 -749 302 -749Q236 -749 213 -741Q206 -720 206 -678Q206 -580 271 -505L292 -487Q355 -613 355 -716ZM301 -168Q309 -168 318 -161Q335 -146 359 -144Q360 -147 360 -152Q360 -164 353 -178Q330 -191 309 -191Q302 -191 299 -190Q296 -181 296 -168ZM431 -152Q431 -135 417 -121L382 -85Q378 -81 364 -73Q352 -73 340.5 -77.5Q329 -82 324 -86L318 -91L304 -104Q317 -52 339 -17Q350 -11 362 -11Q407 -11 447 -41Q487 -94 487 -154Q487 -244 427 -312Q413 -324 317 -397Q287 -335 270 -268Q268 -262 265 -250.5Q262 -239 261 -234L277 -250Q289 -262 309 -262Q344 -262 374 -232L409 -197Q431 -175 431 -152Z"/>
	<path fill="#800080" d="M180 -678Q180 -579 254 -505Q266 -493 281 -481Q316 -548 333 -600Q350 -652 350 -716Q350 -736 341 -745Q327 -759 287 -759Q234 -759 215 -755Q199 -752 193 -746Q188 -741 185 -730Q180 -713 180 -678ZM303 -151Q313 -151 320 -144Q329 -136 343 -134Q346 -136 349 -139Q355 -145 355 -152Q355 -157 353 -163Q349 -171 341 -179Q319 -202 294 -202Q284 -202 279 -196Q270 -187 270 -162Q270 -127 287 -78Q303 -33 323 -13Q335 -1 347 -1Q394 -1 432 -39Q455 -62 468.5 -93Q482 -124 482 -154Q482 -243 413 -312Q404 -321 393.5 -330.5Q383 -340 369.5 -350.5Q356 -361 347.5 -367.5Q339 -374 321.5 -386.5Q304 -399 298 -404Q259 -325 243 -262Q241 -253 237 -235.5Q233 -218 232 -216Q237 -225 244 -232Q264 -252 294 -252Q339 -252 376 -215Q397 -194 403 -170Q405 -162 405 -153Q405 -124 384 -103Q375 -94 361 -86Q356 -83 349 -83Q328 -83 308 -93Q295 -100 286 -108Q278 -115 278 -126Q278 -136 285.5 -143.5Q293 -151 303 -151ZM130 -678Q130 -754 158 -781Q175 -799 206 -804Q229 -809 287 -809Q348 -809 376 -781Q400 -757 400 -716Q400 -664 387 -612.5Q374 -561 360.5 -530Q347 -499 321 -449Q331 -442 349 -428Q375 -409 387 -400Q399 -391 422 -371.5Q445 -352 457 -338.5Q469 -325 486 -302.5Q503 -280 511 -259Q519 -238 525.5 -211Q532 -184 532 -154Q532 -113 515 -73.5Q498 -34 468 -4Q415 49 347 49Q315 49 288 22Q259 -6 240 -61Q220 -119 220 -162Q220 -166 220 -170Q192 -68 140 -17Q121 2 98 16Q92 31 75 31Q65 31 57.5 23.5Q50 16 50 6V0Q50 -15 64 -22Q87 -34 105 -52Q113 -61 120.5 -70.5Q128 -80 135 -92Q142 -104 146.5 -113.5Q151 -123 157 -139Q163 -155 166 -163.5Q169 -172 174 -191.5Q179 -211 181 -218Q183 -225 188 -246.5Q193 -268 195 -274Q212 -345 258 -435Q199 -483 164.5 -540.5Q130 -598 130 -678Z"/>
	<path fill="#daa520" d="M287 -779Q212 -779 191 -769Q174 -760 167 -740Q160 -720 160 -678Q160 -602 193 -550Q226 -498 287 -449Q310 -493 319 -512.5Q328 -532 343 -569.5Q358 -607 364 -642Q370 -677 370 -716Q370 -779 287 -779ZM295 -443Q309 -433 337 -412.5Q365 -392 380.5 -379.5Q396 -367 420 -346.5Q444 -326 457.5 -308Q471 -290 485 -265.5Q499 -241 505.5 -213.5Q512 -186 512 -154Q512 -86 463.5 -28.5Q415 29 347 29Q314 29 287 -11Q265 -42 252.5 -87.5Q240 -133 240 -162Q240 -197 255 -214.5Q270 -232 294 -232Q326 -232 355.5 -207Q385 -182 385 -152.5Q385 -123 351 -104Q350 -103 349 -103Q320 -103 300 -122Q298 -124 298 -126Q298 -131 303 -131Q305 -131 306 -130Q324 -114 348 -113Q375 -129 375 -152Q375 -177 348.5 -199.5Q322 -222 294 -222Q250 -222 250 -162Q250 -141 258.5 -105.5Q267 -70 281 -40Q310 19 347 19Q410 19 456 -35.5Q502 -90 502 -154Q502 -190 491.5 -222.5Q481 -255 468 -277Q455 -299 428 -325Q401 -351 383.5 -365Q366 -379 332 -404Q304 -424 291 -434Q241 -337 224 -267Q222 -258 218 -241Q208 -203 203 -183.5Q198 -164 186 -130Q174 -96 161 -76Q148 -56 127 -33.5Q106 -11 80 3V6Q80 11 75 11Q70 11 70 6V0Q70 -3 73 -4Q88 -13 101.5 -22.5Q115 -32 126.5 -46.5Q138 -61 146.5 -71.5Q155 -82 163.5 -102Q172 -122 176.5 -131.5Q181 -141 188 -166Q195 -191 197 -198.5Q199 -206 206 -235Q213 -264 214 -269Q232 -341 283 -440Q220 -490 185 -544.5Q150 -599 150 -678Q150 -722 158 -745Q166 -768 187 -778Q210 -789 287 -789Q380 -789 380 -716Q380 -676 374 -640Q368 -604 352.5 -565Q337 -526 327.5 -507Q318 -488 295 -443Z"/>
</svg>