<svg xmlns="http://www.w3.org/2000/svg" viewBox="0 -1024 1024 1024">
	<path fill="#000088" d="M125 -386Q115 -386 107.5 -393.5Q100 -401 100 -411Q100 -421 107.5 -428.5Q115 -436 125 -436H309Q319 -436 326.5 -428.5Q334 -421 334 -411Q334 -407 333 -404L149 205Q144 223 125 223Q115 223 107.5 215.5Q100 208 100 198Q100 194 101 191L275 -386Z"/>
	<path fill="#800080" d="M75 -386Q65 -386 57.5 -393.5Q50 -401 50 -411Q50 -421 57.5 -428.5Q65 -436 75 -436H259Q269 -436 276.5 -428.5Q284 -421 284 -411Q284 -407 283 -404L99 205Q94 223 75 223Q65 223 57.5 215.5Q50 208 50 198Q50 194 51 191L225 -386Z"/>
	<path fill="#daa520" d="M55 -406Q50 -406 50 -411Q50 -416 55 -416H239Q244 -416 244 -411Q244 -410 244 -410L60 199Q59 203 55 203Q50 203 50 198Q50 197 50 197L232 -406Z"/>
</svg>