<svg xmlns="http://www.w3.org/2000/svg" viewBox="0 -1024 1024 1024">
	<path fill="#000088" d="M174 -330Q174 -340 181 -347.5Q188 -355 199 -355Q202 -355 205 -354Q243 -344 263 -324Q301 -287 301 -197Q301 -120 283 -59Q268 -8 244 15Q224 35 201 35Q178 35 160 17Q137 -6 122 -57Q106 -114 101 -195Q100 -208 100 -221Q100 -267 109 -312Q118 -357 138 -407Q158 -457 171.5 -485.5Q185 -514 213 -569Q260 -662 277 -707Q284 -723 301 -723Q311 -723 318.5 -715.5Q326 -708 326 -698Q326 -693 324 -689Q306 -642 257 -546Q222 -477 203.5 -437Q185 -397 167.5 -335.5Q150 -274 150 -220Q150 -209 151 -199Q155 -123 170 -71Q182 -32 195 -19Q199 -15 201 -15Q203 -15 208 -20Q223 -35 235 -73Q251 -127 251 -197Q251 -266 228 -289Q218 -299 192 -306Q185 -308 179.5 -315Q174 -322 174 -330Z"/>
	<path fill="#800080" d="M124 -330Q124 -340 131 -347.5Q138 -355 149 -355Q152 -355 155 -354Q193 -344 213 -324Q251 -287 251 -197Q251 -120 233 -59Q218 -8 194 15Q174 35 151 35Q128 35 110 17Q87 -6 72 -57Q56 -114 51 -195Q50 -208 50 -221Q50 -267 59 -312Q68 -357 88 -407Q108 -457 121.5 -485.5Q135 -514 163 -569Q210 -662 227 -707Q234 -723 251 -723Q261 -723 268.5 -715.5Q276 -708 276 -698Q276 -693 274 -689Q256 -642 207 -546Q172 -477 153.5 -437Q135 -397 117.5 -335.5Q100 -274 100 -220Q100 -209 101 -199Q105 -123 120 -71Q132 -32 145 -19Q149 -15 151 -15Q153 -15 158 -20Q173 -35 185 -73Q201 -127 201 -197Q201 -266 178 -289Q168 -299 142 -306Q135 -308 129.5 -315Q124 -322 124 -330Z"/>
	<path fill="#daa520" d="M124 -330Q124 -335 129 -335Q129 -335 130 -335Q173 -323 190 -296Q211 -263 211 -197Q211 -77 173 -16Q154 15 131 15Q101 15 80 -37Q57 -95 51 -197Q50 -209 50 -221Q50 -265 58.5 -308.5Q67 -352 86 -400Q105 -448 119 -477Q133 -506 160 -560Q208 -654 226 -700Q227 -703 231 -703Q236 -703 236 -698Q236 -697 235 -696Q219 -654 185.5 -587Q152 -520 126.5 -469Q101 -418 80.5 -349.5Q60 -281 60 -221Q60 -209 61 -197Q67 -97 90 -41Q108 5 131 5Q155 5 174 -41Q201 -102 201 -197Q201 -260 182 -291Q167 -315 127 -325Q124 -326 124 -330Z"/>
</svg>