<svg xmlns="http://www.w3.org/2000/svg" viewBox="0 -1024 1024 1024">
	<path fill="#000088" d="M88 -62Q74 -62 64.5 -72Q55 -82 55 -95Q55 -103 57 -107L299 -690Q307 -710 329 -710Q343 -710 352.5 -700.5Q362 -691 362 -678Q362 -671 359 -665L118 -82Q110 -62 88 -62Z"/>
	<path fill="#800080" d="M75 -82Q65 -82 57.5 -89.5Q50 -97 50 -107Q50 -112 52 -117L283 -675Q289 -690 306 -690Q316 -690 323.5 -682.5Q331 -675 331 -665Q331 -660 329 -655L98 -97Q92 -82 75 -82Z"/>
	<path fill="#daa520" d="M75 -102Q70 -102 70 -107Q70 -108 70 -109L301 -667Q303 -670 306 -670Q311 -670 311 -665Q311 -664 311 -663L80 -105Q78 -102 75 -102Z"/>
</svg>