<svg xmlns="http://www.w3.org/2000/svg" viewBox="0 -1024 1024 1024">
	<path fill="#000088" d="M180 -636Q180 -625 172 -617Q164 -609 153 -609Q140 -609 129 -620L94 -655Q67 -682 56 -746Q55 -750 55 -757Q55 -769 61 -775L96 -810Q105 -819 135 -819Q171 -819 251 -777Q345 -729 383 -729Q384 -729 385 -729.5Q386 -730 387 -730L392 -758Q393 -768 400 -775L435 -811Q438 -814 444 -814Q449 -814 453 -810L489 -774Q494 -769 497 -760Q487 -732 470 -715L453 -697L451 -686V-30Q439 -11 434 -6L399 29Q391 37 383 37Q376 37 367 31Q341 13 313 -5L278 -40V-74Q278 -89 288 -99Q298 -109 313 -109Q328 -109 338.5 -99Q349 -89 349 -74V-52Q352 -50 358.5 -45.5Q365 -41 367 -39Q372 -36 380 -34V-659Q339 -660 251 -706Q169 -749 135 -749Q134 -749 131 -748.5Q128 -748 126 -748V-747L127 -746Q136 -696 152 -672L170 -658Q180 -650 180 -636Z"/>
	<path fill="#800080" d="M145 -650Q145 -640 137.5 -632.5Q130 -625 120 -625Q109 -625 96 -638Q64 -670 51 -742Q50 -750 50 -757Q50 -779 63 -793Q80 -809 120 -809Q144 -809 177 -797Q199 -788 247 -764Q320 -726 351 -721Q360 -719 368 -719Q375 -719 380 -720L387 -762Q391 -782 402 -793Q413 -804 428.5 -804Q444 -804 456 -792Q465 -783 470 -767Q471 -764 471 -760Q471 -756 470 -751Q454 -708 426 -687L425 -684V-30Q425 -23 420 -14Q413 -2 408 4.5Q403 11 392 19Q381 27 368 27Q353 27 338 17Q294 -12 284 -19Q273 -27 273 -40V-74Q273 -84 280.5 -91.5Q288 -99 298 -99Q308 -99 315.5 -91.5Q323 -84 323 -74V-53Q326 -51 366 -25Q366 -25 367 -24Q370 -28 375 -37V-670Q371 -669 366 -669Q355 -669 342 -671Q305 -678 239 -711.5Q173 -745 159 -750Q135 -759 120 -759Q108 -759 100 -757Q100 -755 101 -750Q112 -689 136 -669Q145 -662 145 -650Z"/>
	<path fill="#daa520" d="M368 -3Q379 -3 395 -31V-686Q395 -686 396 -694Q383 -689 367 -689Q348 -689 322.5 -697.5Q297 -706 281 -713.5Q265 -721 234 -737Q151 -779 120 -779Q98 -779 89 -774.5Q80 -770 80 -757Q80 -753 81 -747Q94 -678 123 -654Q125 -652 125 -650Q125 -645 120 -645Q118 -645 117 -646Q84 -672 71 -745Q70 -752 70 -757Q70 -776 83 -782.5Q96 -789 120 -789Q136 -789 158 -781.5Q180 -774 194.5 -767.5Q209 -761 238 -746Q329 -699 367 -699Q385 -699 398 -706L407 -759Q411 -784 428 -784Q444 -784 451 -761Q451 -761 451 -760Q451 -759 451 -758Q435 -716 407 -699L405 -686V-30Q405 -29 402 -24Q396 -14 393.5 -9.5Q391 -5 383.5 1Q376 7 368 7Q359 7 349 0Q305 -29 295 -36Q293 -37 293 -40V-74Q293 -79 298 -79Q303 -79 303 -74V-43Q312 -37 355 -8Q362 -3 368 -3ZM428 -774Q420 -774 417 -757L410 -713Q429 -728 441 -760Q436 -774 428 -774Z"/>
</svg>