<svg xmlns="http://www.w3.org/2000/svg" viewBox="0 -1024 1024 1024">
	<path fill="#000088" d="M462 79Q462 104 452 130Q444 147 433 158L398 194Q367 225 287 225Q239 225 167 196Q127 179 98 171L80 166Q55 159 55 133Q55 119 65 109Q75 99 89 99Q92 99 98 101Q127 109 167 126Q239 155 287 155Q344 155 377 138Q391 112 391 79Q391 27 345 -32Q344 -34 341.5 -36Q339 -38 338 -40Q308 -65 251 -96Q192 -129 171 -144L136 -179L319 -376H99Q84 -376 74 -386Q64 -396 64 -411Q64 -426 74 -436Q84 -446 99 -446H387L423 -411L214 -187Q226 -180 251 -166.5Q276 -153 289 -145Q302 -137 321.5 -123Q341 -109 356 -94L392 -59Q404 -47 416 -32Q462 27 462 79Z"/>
	<path fill="#800080" d="M428 79Q428 109 416 139Q408 161 392 176Q353 215 264 215Q210 215 135 184Q93 167 68 160Q61 158 55.5 151Q50 144 50 136Q50 126 57.5 118.5Q65 111 75 111Q78 111 82 112Q110 120 154 138Q178 148 190.5 152.5Q203 157 223 161Q243 165 264 165Q332 165 357 141Q365 132 370 121Q378 99 378 79Q378 62 373 45Q363 17 337 -17Q327 -30 315 -41Q285 -72 216 -109Q163 -138 134 -158Q123 -166 123 -179Q123 -189 130 -196L307 -386H76Q66 -386 58.5 -393.5Q51 -401 51 -411Q51 -421 58.5 -428.5Q66 -436 76 -436H364Q374 -436 381.5 -428.5Q389 -421 389 -411Q389 -401 382 -394L186 -184Q204 -173 240 -153.5Q276 -134 301.5 -117Q327 -100 351 -76Q402 -25 420 29Q428 53 428 79Z"/>
	<path fill="#daa520" d="M408 79Q408 105 398 132Q372 195 264 195Q240 195 217 190Q194 185 180.5 180.5Q167 176 142 166Q100 148 74 141Q70 140 70 136Q70 131 75 131Q76 131 76 131Q103 139 146 156Q170 166 183.5 171Q197 176 219 180.5Q241 185 264 185Q366 185 388 128Q398 103 398 79Q398 29 353 -29Q334 -52 311 -71.5Q288 -91 272 -100.5Q256 -110 225 -127Q174 -155 145 -175Q143 -176 143 -179Q143 -181 144 -182L353 -406H76Q71 -406 71 -411Q71 -416 76 -416H364Q369 -416 369 -411Q369 -409 368 -408L156 -180Q181 -163 225 -139.5Q269 -116 301 -93Q333 -70 361 -35Q408 25 408 79Z"/>
</svg>