<svg xmlns="http://www.w3.org/2000/svg" viewBox="0 -1024 1024 1024">
	<path fill="#000088" d="M478 79Q478 109 466 139Q458 161 442 176Q403 215 314 215Q260 215 185 184Q143 167 118 160Q111 158 105.5 151Q100 144 100 136Q100 126 107.5 118.5Q115 111 125 111Q128 111 132 112Q160 120 204 138Q228 148 240.5 152.5Q253 157 273 161Q293 165 314 165Q382 165 407 141Q415 132 420 121Q428 99 428 79Q428 62 423 45Q413 17 387 -17Q377 -30 365 -41Q335 -72 266 -109Q213 -138 184 -158Q173 -166 173 -179Q173 -189 180 -196L357 -386H126Q116 -386 108.5 -393.5Q101 -401 101 -411Q101 -421 108.5 -428.5Q116 -436 126 -436H414Q424 -436 431.5 -428.5Q439 -421 439 -411Q439 -401 432 -394L236 -184Q254 -173 290 -153.5Q326 -134 351.5 -117Q377 -100 401 -76Q452 -25 470 29Q478 53 478 79Z"/>
	<path fill="#800080" d="M428 79Q428 109 416 139Q408 161 392 176Q353 215 264 215Q210 215 135 184Q93 167 68 160Q61 158 55.5 151Q50 144 50 136Q50 126 57.5 118.5Q65 111 75 111Q78 111 82 112Q110 120 154 138Q178 148 190.5 152.5Q203 157 223 161Q243 165 264 165Q332 165 357 141Q365 132 370 121Q378 99 378 79Q378 62 373 45Q363 17 337 -17Q327 -30 315 -41Q285 -72 216 -109Q163 -138 134 -158Q123 -166 123 -179Q123 -189 130 -196L307 -386H76Q66 -386 58.5 -393.5Q51 -401 51 -411Q51 -421 58.5 -428.5Q66 -436 76 -436H364Q374 -436 381.5 -428.5Q389 -421 389 -411Q389 -401 382 -394L186 -184Q204 -173 240 -153.5Q276 -134 301.5 -117Q327 -100 351 -76Q402 -25 420 29Q428 53 428 79Z"/>
	<path fill="#daa520" d="M388 79Q388 105 378 132Q352 195 244 195Q220 195 197 190Q174 185 160.5 180.5Q147 176 122 166Q80 148 54 141Q50 140 50 136Q50 131 55 131Q56 131 56 131Q83 139 126 156Q150 166 163.5 171Q177 176 199 180.5Q221 185 244 185Q346 185 368 128Q378 103 378 79Q378 29 333 -29Q314 -52 291 -71.5Q268 -91 252 -100.5Q236 -110 205 -127Q154 -155 125 -175Q123 -176 123 -179Q123 -181 124 -182L333 -406H56Q51 -406 51 -411Q51 -416 56 -416H344Q349 -416 349 -411Q349 -409 348 -408L136 -180Q161 -163 205 -139.5Q249 -116 281 -93Q313 -70 341 -35Q388 25 388 79Z"/>
</svg>