<svg xmlns="http://www.w3.org/2000/svg" viewBox="0 -1024 1024 1024">
	<path fill="#000088" d="M282 -436Q327 -436 359 -404Q380 -383 391 -352Q405 -313 405 -280Q405 -229 373 -185Q350 -152 323 -125Q309 -110 291.5 -95.5Q274 -81 262 -72Q250 -63 228.5 -48Q207 -33 196 -25H380Q390 -25 397.5 -17.5Q405 -10 405 0Q405 10 397.5 17.5Q390 25 380 25H125Q115 25 107.5 17.5Q100 10 100 0Q100 -11 109 -19Q141 -47 199 -89Q260 -132 288 -160Q310 -182 333 -214Q355 -245 355 -280Q355 -304 345 -334Q337 -356 324 -369Q306 -386 282 -386Q264 -386 248 -380.5Q232 -375 222.5 -369Q213 -363 194 -349Q159 -323 136 -312Q131 -309 125 -309Q115 -309 107.5 -316.5Q100 -324 100 -334Q100 -349 114 -356Q133 -366 164 -389Q185 -404 197 -412Q209 -420 233 -428Q257 -436 282 -436Z"/>
	<path fill="#800080" d="M232 -436Q277 -436 309 -404Q330 -383 341 -352Q355 -313 355 -280Q355 -229 323 -185Q300 -152 273 -125Q259 -110 241.5 -95.5Q224 -81 212 -72Q200 -63 178.5 -48Q157 -33 146 -25H330Q340 -25 347.5 -17.5Q355 -10 355 0Q355 10 347.5 17.5Q340 25 330 25H75Q65 25 57.5 17.5Q50 10 50 0Q50 -11 59 -19Q91 -47 149 -89Q210 -132 238 -160Q260 -182 283 -214Q305 -245 305 -280Q305 -304 295 -334Q287 -356 274 -369Q256 -386 232 -386Q214 -386 198 -380.5Q182 -375 172.5 -369Q163 -363 144 -349Q109 -323 86 -312Q81 -309 75 -309Q65 -309 57.5 -316.5Q50 -324 50 -334Q50 -349 64 -356Q83 -366 114 -389Q135 -404 147 -412Q159 -420 183 -428Q207 -436 232 -436Z"/>
	<path fill="#daa520" d="M310 5H55Q50 5 50 0Q50 -2 52 -4Q83 -32 141 -72Q173 -96 190.5 -109.5Q208 -123 233.5 -148Q259 -173 279 -202Q305 -239 305 -280Q305 -307 293 -341Q282 -371 261.5 -388.5Q241 -406 212 -406Q191 -406 172 -399.5Q153 -393 142.5 -386Q132 -379 112 -365Q79 -340 57 -330Q56 -329 55 -329Q50 -329 50 -334Q50 -337 53 -338Q74 -349 106 -373Q126 -388 137.5 -395Q149 -402 169.5 -409Q190 -416 212 -416Q244 -416 267.5 -396.5Q291 -377 303 -345Q315 -309 315 -280Q315 -236 287 -196Q266 -166 240.5 -140.5Q215 -115 197 -101.5Q179 -88 146 -64Q96 -28 68 -5H310Q315 -5 315 0Q315 5 310 5Z"/>
</svg>