<svg xmlns="http://www.w3.org/2000/svg" viewBox="0 -1024 1024 1024">
	<path fill="#000088" d="M289 -385Q289 -434 299.5 -529Q310 -624 310 -673Q310 -699 300 -721Q294 -723 290 -723Q289 -723 286.5 -722.5Q284 -722 283 -722Q282 -721 282 -719.5Q282 -718 281 -717Q276 -706 270 -700L235 -664Q221 -650 196 -650Q153 -650 117 -686L82 -721Q58 -745 55 -771V-775Q55 -789 65.5 -799.5Q76 -810 90 -810Q103 -810 113 -801Q123 -792 125 -779L126 -771Q127 -756 137 -740Q167 -721 196 -721Q203 -721 213 -723Q218 -736 228 -746L263 -782Q275 -794 290 -794Q305 -794 320 -779L356 -744Q381 -719 381 -673Q381 -624 370 -529Q359 -434 359 -385Q359 -376 359.5 -366Q360 -356 361 -344.5Q362 -333 362 -326Q375 -113 420 -40Q430 -34 444 -34Q487 -34 524 -61Q548 -92 568 -146Q533 -265 533 -431Q533 -592 563 -781H634Q681 -662 681 -445Q681 -262 639 -146Q656 -90 681 -46Q692 -41 712 -41Q724 -41 730 -42L746 -69Q755 -85 772 -85Q785 -85 794 -76Q803 -67 803 -54Q803 -46 799 -39L783 -11L748 24Q728 30 712 30Q681 30 662 11L626 -24Q620 -30 616 -37Q604 -57 599 -67Q590 -54 577 -41L542 -6Q500 36 444 36Q420 36 401 17L366 -18Q308 -76 291 -326Q289 -366 289 -385ZM610 -445Q610 -492 607 -537Q604 -485 604 -431Q604 -387 607 -345Q610 -378 610 -445Z"/>
	<path fill="#800080" d="M283 -386Q283 -435 294 -530Q305 -625 305 -673Q305 -708 287 -726Q280 -733 274 -733Q270 -733 265 -728Q258 -722 253 -708Q248 -693 237 -682Q215 -661 181 -661Q126 -661 84 -703Q54 -732 50 -768Q50 -769 50 -771Q50 -781 57.5 -788.5Q65 -796 75 -796Q84 -796 91.5 -789.5Q99 -783 100 -774Q102 -756 119 -739Q147 -711 181 -711Q195 -711 201 -717Q205 -721 207 -726Q216 -750 233 -766.5Q250 -783 275 -783Q279 -783 284 -782Q305 -779 322 -762Q355 -729 355 -673Q355 -624 344.5 -528.5Q334 -433 334 -385Q334 -368 336 -327Q343 -217 356 -152Q366 -105 379 -75Q390 -49 403 -36Q415 -24 428 -24Q474 -24 509 -59Q540 -90 562 -147Q537 -233 530 -348Q528 -388 528 -431Q528 -591 558 -785Q560 -794 567 -800Q574 -806 583 -806Q600 -806 606 -790Q628 -733 641.5 -640.5Q655 -548 655 -446Q655 -399 652 -354Q644 -232 614 -146Q632 -91 657 -50Q670 -30 696 -30Q705 -30 715 -33L726 -51Q733 -64 748 -64Q758 -64 765.5 -56.5Q773 -49 773 -39Q773 -32 770 -27L754 1Q749 10 739 13Q717 20 696 20Q655 20 628 -7Q621 -14 615 -24Q599 -49 586 -80Q567 -46 544 -23Q495 26 428 26Q394 26 368 0Q348 -20 333 -55Q318 -90 307 -142Q303 -164 299.5 -186.5Q296 -209 293.5 -232Q291 -255 290 -269.5Q289 -284 287.5 -308.5Q286 -333 285 -341Q283 -363 283 -386ZM590 -255Q605 -340 605 -443Q605 -547 590 -644Q578 -529 578 -431Q578 -334 590 -255Z"/>
	<path fill="#daa520" d="M304 -385Q304 -434 314.5 -529.5Q325 -625 325 -673Q325 -708 309 -730.5Q293 -753 274 -753Q249 -753 235 -715Q222 -681 181 -681Q144 -681 109.5 -707.5Q75 -734 70 -770Q70 -770 70 -771Q70 -776 75 -776Q79 -776 80 -772Q84 -739 116 -715Q148 -691 181 -691Q215 -691 225 -719Q242 -763 274 -763Q299 -763 317 -737Q335 -711 335 -673Q335 -625 324.5 -529.5Q314 -434 314 -385Q314 -367 316 -326Q337 -4 428 -4Q531 -4 583 -147Q548 -262 548 -431Q548 -589 578 -782Q579 -786 583 -786Q586 -786 588 -783Q609 -728 622 -636.5Q635 -545 635 -445Q635 -264 593 -146Q612 -85 640 -40Q659 -10 696 -10Q711 -10 729 -15L744 -41Q745 -44 748 -44Q753 -44 753 -39Q753 -38 752 -37L736 -9Q735 -7 733 -6Q713 0 696 0Q653 0 632 -34Q606 -76 588 -131Q533 6 428 6Q368 6 337 -105Q315 -181 306 -325Q304 -367 304 -385ZM625 -445Q625 -637 585 -761Q558 -580 558 -431Q558 -274 588 -163Q625 -277 625 -445Z"/>
</svg>