<svg xmlns="http://www.w3.org/2000/svg" viewBox="0 -1024 1024 1024">
	<path fill="#000088" d="M333 -386Q333 -435 344 -530Q355 -625 355 -673Q355 -708 337 -726Q330 -733 324 -733Q320 -733 315 -728Q308 -722 303 -708Q298 -693 287 -682Q265 -661 231 -661Q176 -661 134 -703Q104 -732 100 -768Q100 -769 100 -771Q100 -781 107.5 -788.5Q115 -796 125 -796Q134 -796 141.5 -789.5Q149 -783 150 -774Q152 -756 169 -739Q197 -711 231 -711Q245 -711 251 -717Q255 -721 257 -726Q266 -750 283 -766.5Q300 -783 325 -783Q329 -783 334 -782Q355 -779 372 -762Q405 -729 405 -673Q405 -624 394.5 -528.5Q384 -433 384 -385Q384 -368 386 -327Q393 -217 406 -152Q416 -105 429 -75Q440 -49 453 -36Q465 -24 478 -24Q524 -24 559 -59Q590 -90 612 -147Q587 -233 580 -348Q578 -388 578 -431Q578 -591 608 -785Q610 -794 617 -800Q624 -806 633 -806Q650 -806 656 -790Q678 -733 691.5 -640.5Q705 -548 705 -446Q705 -399 702 -354Q694 -232 664 -146Q682 -91 707 -50Q720 -30 746 -30Q755 -30 765 -33L776 -51Q783 -64 798 -64Q808 -64 815.5 -56.5Q823 -49 823 -39Q823 -32 820 -27L804 1Q799 10 789 13Q767 20 746 20Q705 20 678 -7Q671 -14 665 -24Q649 -49 636 -80Q617 -46 594 -23Q545 26 478 26Q444 26 418 0Q398 -20 383 -55Q368 -90 357 -142Q353 -164 349.5 -186.5Q346 -209 343.5 -232Q341 -255 340 -269.5Q339 -284 337.5 -308.5Q336 -333 335 -341Q333 -363 333 -386ZM640 -255Q655 -340 655 -443Q655 -547 640 -644Q628 -529 628 -431Q628 -334 640 -255Z"/>
	<path fill="#800080" d="M283 -386Q283 -435 294 -530Q305 -625 305 -673Q305 -708 287 -726Q280 -733 274 -733Q270 -733 265 -728Q258 -722 253 -708Q248 -693 237 -682Q215 -661 181 -661Q126 -661 84 -703Q54 -732 50 -768Q50 -769 50 -771Q50 -781 57.5 -788.5Q65 -796 75 -796Q84 -796 91.5 -789.5Q99 -783 100 -774Q102 -756 119 -739Q147 -711 181 -711Q195 -711 201 -717Q205 -721 207 -726Q216 -750 233 -766.5Q250 -783 275 -783Q279 -783 284 -782Q305 -779 322 -762Q355 -729 355 -673Q355 -624 344.5 -528.5Q334 -433 334 -385Q334 -368 336 -327Q343 -217 356 -152Q366 -105 379 -75Q390 -49 403 -36Q415 -24 428 -24Q474 -24 509 -59Q540 -90 562 -147Q537 -233 530 -348Q528 -388 528 -431Q528 -591 558 -785Q560 -794 567 -800Q574 -806 583 -806Q600 -806 606 -790Q628 -733 641.5 -640.5Q655 -548 655 -446Q655 -399 652 -354Q644 -232 614 -146Q632 -91 657 -50Q670 -30 696 -30Q705 -30 715 -33L726 -51Q733 -64 748 -64Q758 -64 765.5 -56.5Q773 -49 773 -39Q773 -32 770 -27L754 1Q749 10 739 13Q717 20 696 20Q655 20 628 -7Q621 -14 615 -24Q599 -49 586 -80Q567 -46 544 -23Q495 26 428 26Q394 26 368 0Q348 -20 333 -55Q318 -90 307 -142Q303 -164 299.5 -186.5Q296 -209 293.5 -232Q291 -255 290 -269.5Q289 -284 287.5 -308.5Q286 -333 285 -341Q283 -363 283 -386ZM590 -255Q605 -340 605 -443Q605 -547 590 -644Q578 -529 578 -431Q578 -334 590 -255Z"/>
	<path fill="#daa520" d="M284 -385Q284 -434 294.5 -529.5Q305 -625 305 -673Q305 -708 289 -730.5Q273 -753 254 -753Q229 -753 215 -715Q202 -681 161 -681Q124 -681 89.5 -707.5Q55 -734 50 -770Q50 -770 50 -771Q50 -776 55 -776Q59 -776 60 -772Q64 -739 96 -715Q128 -691 161 -691Q195 -691 205 -719Q222 -763 254 -763Q279 -763 297 -737Q315 -711 315 -673Q315 -625 304.5 -529.5Q294 -434 294 -385Q294 -367 296 -326Q317 -4 408 -4Q511 -4 563 -147Q528 -262 528 -431Q528 -589 558 -782Q559 -786 563 -786Q566 -786 568 -783Q589 -728 602 -636.5Q615 -545 615 -445Q615 -264 573 -146Q592 -85 620 -40Q639 -10 676 -10Q691 -10 709 -15L724 -41Q725 -44 728 -44Q733 -44 733 -39Q733 -38 732 -37L716 -9Q715 -7 713 -6Q693 0 676 0Q633 0 612 -34Q586 -76 568 -131Q513 6 408 6Q348 6 317 -105Q295 -181 286 -325Q284 -367 284 -385ZM605 -445Q605 -637 565 -761Q538 -580 538 -431Q538 -274 568 -163Q605 -277 605 -445Z"/>
</svg>