<svg xmlns="http://www.w3.org/2000/svg" viewBox="0 -1024 1024 1024">
	<path fill="#000088" d="M35 166L579 172Q594 172 604 182Q614 192 614 207Q614 222 603.5 232.5Q593 243 579 242L35 236Q20 236 10 226Q0 216 0 201Q0 186 10.5 175.5Q21 165 35 166Z"/>
	<path fill="#800080" d="M-15 166L529 172Q544 172 554 182Q564 192 564 207Q564 222 553.5 232.5Q543 243 529 242L-15 236Q-30 236 -40 226Q-50 216 -50 201Q-50 186 -39.5 175.5Q-29 165 -15 166Z"/>
	<path fill="#daa520" d="M75 168L618 174Q623 174 623 179Q623 184 618 184L75 178Q70 178 70 173Q70 168 75 168Z"/>
</svg>