<svg xmlns="http://www.w3.org/2000/svg" viewBox="0 -1024 1024 1024">
	<path fill="#000088" d="M345 -810Q345 -810 346 -810L470 -806Q480 -806 487 -798.5Q494 -791 494 -781Q494 -771 486.5 -763.5Q479 -756 469 -756Q469 -756 468 -756L344 -760Q334 -760 327 -767.5Q320 -775 320 -785Q320 -795 327.5 -802.5Q335 -810 345 -810ZM101 -341Q101 -329 102 -309Q103 -289 103 -283Q106 -196 118 -162Q124 -178 141 -178Q144 -178 147 -177L195 -165Q207 -162 212 -151Q213 -148 228 -115Q230 -110 230 -105Q230 -92 224 -83Q215 -70 199 -66Q191 -64 180 -64Q179 -64 178 -64Q177 -64 177 -64Q139 -64 112 -84Q78 -109 65 -165Q59 -188 56.5 -211.5Q54 -235 53.5 -269Q53 -303 52 -315.5Q51 -328 51 -341Q51 -473 143 -637Q144 -638 144 -639Q178 -691 238 -760H49Q39 -760 31.5 -767.5Q24 -775 24 -785Q24 -795 31.5 -802.5Q39 -810 49 -810H293Q303 -810 310.5 -802.5Q318 -795 318 -785Q318 -775 312 -768Q309 -766 295 -750Q281 -734 277.5 -730Q274 -726 261.5 -711.5Q249 -697 244 -691Q239 -685 229 -672.5Q219 -660 213 -652Q207 -644 199.5 -633Q192 -622 186 -612Q101 -469 101 -341ZM174 -114Q172 -118 171 -120L137 -128Q151 -115 174 -114Z"/>
	<path fill="#800080" d="M295 -810Q295 -810 296 -810L420 -806Q430 -806 437 -798.5Q444 -791 444 -781Q444 -771 436.5 -763.5Q429 -756 419 -756Q419 -756 418 -756L294 -760Q284 -760 277 -767.5Q270 -775 270 -785Q270 -795 277.5 -802.5Q285 -810 295 -810ZM51 -341Q51 -329 52 -309Q53 -289 53 -283Q56 -196 68 -162Q74 -178 91 -178Q94 -178 97 -177L145 -165Q157 -162 162 -151Q163 -148 178 -115Q180 -110 180 -105Q180 -92 174 -83Q165 -70 149 -66Q141 -64 130 -64Q129 -64 128 -64Q127 -64 127 -64Q89 -64 62 -84Q28 -109 15 -165Q9 -188 6.5 -211.5Q4 -235 3.5 -269Q3 -303 2 -315.5Q1 -328 1 -341Q1 -473 93 -637Q94 -638 94 -639Q128 -691 188 -760H-1Q-11 -760 -18.5 -767.5Q-26 -775 -26 -785Q-26 -795 -18.5 -802.5Q-11 -810 -1 -810H243Q253 -810 260.5 -802.5Q268 -795 268 -785Q268 -775 262 -768Q259 -766 245 -750Q231 -734 227.5 -730Q224 -726 211.5 -711.5Q199 -697 194 -691Q189 -685 179 -672.5Q169 -660 163 -652Q157 -644 149.5 -633Q142 -622 136 -612Q51 -469 51 -341ZM124 -114Q122 -118 121 -120L87 -128Q101 -115 124 -114Z"/>
	<path fill="#daa520" d="M290 -785Q290 -790 295 -790L419 -786Q424 -786 424 -781Q424 -776 419 -776L295 -780Q290 -780 290 -785ZM31 -341Q31 -329 32 -309Q33 -289 33 -283Q34 -255 35 -239Q36 -223 39 -197.5Q42 -172 48.5 -156.5Q55 -141 64.5 -125Q74 -109 90 -101.5Q106 -94 127 -94Q149 -94 150 -104Q139 -129 135 -137L90 -148Q86 -149 86 -153Q86 -158 91 -158Q92 -158 92 -158L140 -146Q143 -145 144 -143Q160 -107 160 -105Q160 -84 128 -84Q127 -84 127 -84Q106 -84 90 -91.5Q74 -99 63.5 -109Q53 -119 45.5 -137.5Q38 -156 34 -170Q30 -184 27.5 -209Q25 -234 24.5 -246Q24 -258 23 -282Q23 -289 22 -309Q21 -329 21 -341Q21 -468 111 -627Q111 -628 111 -628Q150 -688 232 -780H-1Q-6 -780 -6 -785Q-6 -790 -1 -790H243Q248 -790 248 -785Q248 -783 247 -782Q244 -779 230 -763Q216 -747 212 -742.5Q208 -738 195.5 -724Q183 -710 178 -703.5Q173 -697 162.5 -684.5Q152 -672 146 -663.5Q140 -655 132.5 -644Q125 -633 119 -622Q31 -474 31 -341Z"/>
</svg>