<svg xmlns="http://www.w3.org/2000/svg" viewBox="0 -1024 1024 1024">
	<path fill="#000088" d="M325 -534Q322 -534 315 -534Q308 -534 306 -534Q275 -534 252 -566Q238 -585 228.5 -614Q219 -643 219 -670Q219 -694 233 -711Q248 -730 274.5 -736.5Q301 -743 340 -743Q340 -743 341 -743Q342 -743 343 -743Q419 -743 467 -682Q500 -641 517 -573Q533 -510 533 -437Q535 -420 535 -403Q535 -296 469.5 -216Q404 -136 301 -112Q286 -108 272 -108Q220 -108 181 -153Q155 -184 137 -233Q119 -282 114 -333L79 -478Q78 -481 78 -483L75 -567Q75 -568 75 -568Q75 -569 75 -570L78 -606Q79 -616 86 -622.5Q93 -629 103 -629Q113 -629 120.5 -621.5Q128 -614 128 -604Q128 -603 128 -602L125 -567L128 -487L163 -343Q164 -341 164 -339Q168 -293 184 -249Q198 -209 219 -186Q243 -158 272 -158Q280 -158 289 -160Q376 -180 430.5 -247Q485 -314 485 -403Q485 -418 483 -433Q483 -435 483 -436Q483 -503 468 -561Q454 -618 427 -651Q394 -693 343 -693Q282 -693 272 -680Q269 -676 269 -670Q269 -638 286 -606Q296 -585 307 -584Q309 -584 314 -584Q319 -584 321 -584Q323 -584 325 -584Q329 -584 333 -583Q352 -578 352 -559Q352 -550 347 -543Q343 -538 336 -535Q332 -534 325 -534Z"/>
	<path fill="#800080" d="M275 -534Q272 -534 265 -534Q258 -534 256 -534Q225 -534 202 -566Q188 -585 178.5 -614Q169 -643 169 -670Q169 -694 183 -711Q198 -730 224.5 -736.5Q251 -743 290 -743Q290 -743 291 -743Q292 -743 293 -743Q369 -743 417 -682Q450 -641 467 -573Q483 -510 483 -437Q485 -420 485 -403Q485 -296 419.5 -216Q354 -136 251 -112Q236 -108 222 -108Q170 -108 131 -153Q105 -184 87 -233Q69 -282 64 -333L29 -478Q28 -481 28 -483L25 -567Q25 -568 25 -568Q25 -569 25 -570L28 -606Q29 -616 36 -622.5Q43 -629 53 -629Q63 -629 70.5 -621.5Q78 -614 78 -604Q78 -603 78 -602L75 -567L78 -487L113 -343Q114 -341 114 -339Q118 -293 134 -249Q148 -209 169 -186Q193 -158 222 -158Q230 -158 239 -160Q326 -180 380.5 -247Q435 -314 435 -403Q435 -418 433 -433Q433 -435 433 -436Q433 -503 418 -561Q404 -618 377 -651Q344 -693 293 -693Q232 -693 222 -680Q219 -676 219 -670Q219 -638 236 -606Q246 -585 257 -584Q259 -584 264 -584Q269 -584 271 -584Q273 -584 275 -584Q279 -584 283 -583Q302 -578 302 -559Q302 -550 297 -543Q293 -538 286 -535Q282 -534 275 -534Z"/>
	<path fill="#daa520" d="M275 -554Q272 -554 257 -554Q257 -554 256 -554Q235 -554 218 -578Q204 -596 196.5 -623Q189 -650 189 -670Q189 -688 198.5 -700Q208 -712 226.5 -716.5Q245 -721 257.5 -722Q270 -723 290 -723Q290 -723 291 -723Q292 -723 293 -723Q334 -723 365.5 -702Q397 -681 415 -650.5Q433 -620 444.5 -579Q456 -538 459.5 -504Q463 -470 463 -436Q465 -420 465 -403Q465 -303 404 -228.5Q343 -154 246 -131Q234 -128 222 -128Q189 -128 162.5 -149.5Q136 -171 120.5 -204.5Q105 -238 96 -271.5Q87 -305 84 -336L48 -483Q48 -483 48 -484L45 -568L48 -604Q48 -609 53 -609Q58 -609 58 -604L55 -568L58 -485L94 -338Q94 -338 94 -337Q97 -307 105.5 -274Q114 -241 129 -209.5Q144 -178 168.5 -158Q193 -138 222 -138Q233 -138 244 -141Q337 -162 396 -234.5Q455 -307 455 -403Q455 -419 453 -435Q453 -436 453 -436Q453 -479 446 -522Q439 -565 423 -610.5Q407 -656 373.5 -684.5Q340 -713 293 -713Q273 -713 260.5 -712Q248 -711 232 -707.5Q216 -704 207.5 -694.5Q199 -685 199 -670Q199 -652 206.5 -626Q214 -600 226 -583Q240 -564 256 -564H257Q259 -564 265 -564Q271 -564 273 -564Q274 -564 275 -564Q275 -564 276 -564Q276 -564 277 -564Q278 -564 280 -563Q282 -562 282 -559L279 -554Q277 -553 277 -553Q276 -553 275.5 -553.5Q275 -554 275 -554Z"/>
</svg>