<svg xmlns="http://www.w3.org/2000/svg" viewBox="0 -1024 1024 1024">
	<path fill="#000088" d="M599 -727Q598 -727 596.5 -727Q595 -727 594 -727Q594 -727 593 -727Q592 -727 592 -727Q563 -727 551 -747Q546 -756 546 -768Q546 -796 564 -826Q572 -839 591 -862Q629 -910 630 -937Q624 -941 614 -943Q593 -948 558 -948Q511 -948 453.5 -940Q396 -932 375 -924Q369 -922 352.5 -916Q336 -910 326.5 -906.5Q317 -903 302 -899Q287 -895 273 -893Q259 -891 245 -891Q241 -891 239 -891Q190 -898 161 -949Q141 -982 124 -1060Q116 -1095 111 -1108Q110 -1112 110 -1116Q110 -1126 117.5 -1133.5Q125 -1141 135 -1141Q153 -1141 159 -1124Q164 -1109 173 -1071Q189 -1001 204 -974Q221 -945 245 -941Q255 -941 266 -942.5Q277 -944 291 -948.5Q305 -953 312.5 -955Q320 -957 337.5 -963.5Q355 -970 359 -972Q387 -981 445.5 -989.5Q504 -998 558 -998Q592 -998 616 -994Q640 -990 654 -981Q680 -966 680 -940Q680 -918 670.5 -895.5Q661 -873 653.5 -862.5Q646 -852 630 -831Q613 -810 607 -800Q599 -787 597 -777Q598 -777 599 -777Q625 -777 657.5 -784Q690 -791 728.5 -802Q767 -813 786 -816Q788 -817 791 -817Q792 -817 793 -817L957 -801Q967 -800 973.5 -793Q980 -786 980 -776Q980 -766 972.5 -758.5Q965 -751 955 -751Q954 -751 953 -751L792 -767Q774 -763 734.5 -751.5Q695 -740 662.5 -733.5Q630 -727 599 -727ZM34 -780Q34 -790 41.5 -797.5Q49 -805 59 -805Q60 -805 61 -805Q73 -804 93 -801Q113 -798 122 -797Q186 -790 218 -751Q282 -743 317 -722Q358 -698 377 -652Q396 -604 396 -495Q396 -489 393 -480Q391 -472 386 -461Q376 -439 357 -404Q319 -335 269 -256Q462 -427 618 -578Q684 -685 773 -745Q779 -749 787 -749Q797 -749 804.5 -741.5Q812 -734 812 -724Q812 -715 805 -704Q801 -696 792 -685Q774 -663 736 -625Q704 -591 658 -547Q629 -499 602 -437Q601 -436 601 -435Q570 -380 568 -287Q568 -223 580 -190Q591 -158 613 -156Q644 -154 697 -134Q737 -118 757 -116Q764 -115 769 -115Q799 -115 813 -128L856 -179Q863 -188 875 -188Q885 -188 892.5 -180.5Q900 -173 900 -163Q900 -154 894 -147L850 -95Q849 -94 848 -93Q820 -65 769 -65Q734 -65 678 -87Q634 -105 610 -106Q568 -108 543 -150Q529 -175 523 -213Q517 -248 518 -287Q520 -382 549 -444Q370 -277 222 -150Q167 -102 136 -78Q128 -69 120 -64Q102 -50 87 -50Q77 -50 69.5 -57.5Q62 -65 62 -75Q62 -85 68.5 -92Q75 -99 84 -100Q88 -102 95 -107Q104 -116 118 -132Q168 -189 241.5 -307Q315 -425 340 -481L346 -495Q346 -594 330 -634Q319 -661 297.5 -675.5Q276 -690 240 -697Q240 -695 240 -692Q240 -682 235.5 -654Q231 -626 227 -613Q219 -587 199 -587Q172 -587 148 -595Q134 -600 126 -607Q118 -616 118 -628Q118 -638 122 -656Q133 -712 155 -737Q136 -745 116 -747Q107 -748 87 -751Q67 -754 57 -755Q47 -756 40.5 -763Q34 -770 34 -780ZM181 -639Q185 -657 190 -692Q190 -693 189 -699Q177 -679 170 -641Q175 -640 181 -639Z"/>
	<path fill="#800080" d="M549 -727Q548 -727 546.5 -727Q545 -727 544 -727Q544 -727 543 -727Q542 -727 542 -727Q513 -727 501 -747Q496 -756 496 -768Q496 -796 514 -826Q522 -839 541 -862Q579 -910 580 -937Q574 -941 564 -943Q543 -948 508 -948Q461 -948 403.5 -940Q346 -932 325 -924Q319 -922 302.5 -916Q286 -910 276.5 -906.5Q267 -903 252 -899Q237 -895 223 -893Q209 -891 195 -891Q191 -891 189 -891Q140 -898 111 -949Q91 -982 74 -1060Q66 -1095 61 -1108Q60 -1112 60 -1116Q60 -1126 67.5 -1133.5Q75 -1141 85 -1141Q103 -1141 109 -1124Q114 -1109 123 -1071Q139 -1001 154 -974Q171 -945 195 -941Q205 -941 216 -942.5Q227 -944 241 -948.5Q255 -953 262.5 -955Q270 -957 287.5 -963.5Q305 -970 309 -972Q337 -981 395.5 -989.5Q454 -998 508 -998Q542 -998 566 -994Q590 -990 604 -981Q630 -966 630 -940Q630 -918 620.5 -895.5Q611 -873 603.5 -862.5Q596 -852 580 -831Q563 -810 557 -800Q549 -787 547 -777Q548 -777 549 -777Q575 -777 607.5 -784Q640 -791 678.5 -802Q717 -813 736 -816Q738 -817 741 -817Q742 -817 743 -817L907 -801Q917 -800 923.5 -793Q930 -786 930 -776Q930 -766 922.5 -758.5Q915 -751 905 -751Q904 -751 903 -751L742 -767Q724 -763 684.5 -751.5Q645 -740 612.5 -733.5Q580 -727 549 -727ZM-16 -780Q-16 -790 -8.5 -797.5Q-1 -805 9 -805Q10 -805 11 -805Q23 -804 43 -801Q63 -798 72 -797Q136 -790 168 -751Q232 -743 267 -722Q308 -698 327 -652Q346 -604 346 -495Q346 -489 343 -480Q341 -472 336 -461Q326 -439 307 -404Q269 -335 219 -256Q412 -427 568 -578Q634 -685 723 -745Q729 -749 737 -749Q747 -749 754.5 -741.5Q762 -734 762 -724Q762 -715 755 -704Q751 -696 742 -685Q724 -663 686 -625Q654 -591 608 -547Q579 -499 552 -437Q551 -436 551 -435Q520 -380 518 -287Q518 -223 530 -190Q541 -158 563 -156Q594 -154 647 -134Q687 -118 707 -116Q714 -115 719 -115Q749 -115 763 -128L806 -179Q813 -188 825 -188Q835 -188 842.5 -180.5Q850 -173 850 -163Q850 -154 844 -147L800 -95Q799 -94 798 -93Q770 -65 719 -65Q684 -65 628 -87Q584 -105 560 -106Q518 -108 493 -150Q479 -175 473 -213Q467 -248 468 -287Q470 -382 499 -444Q320 -277 172 -150Q117 -102 86 -78Q78 -69 70 -64Q52 -50 37 -50Q27 -50 19.5 -57.5Q12 -65 12 -75Q12 -85 18.5 -92Q25 -99 34 -100Q38 -102 45 -107Q54 -116 68 -132Q118 -189 191.5 -307Q265 -425 290 -481L296 -495Q296 -594 280 -634Q269 -661 247.5 -675.5Q226 -690 190 -697Q190 -695 190 -692Q190 -682 185.5 -654Q181 -626 177 -613Q169 -587 149 -587Q122 -587 98 -595Q84 -600 76 -607Q68 -616 68 -628Q68 -638 72 -656Q83 -712 105 -737Q86 -745 66 -747Q57 -748 37 -751Q17 -754 7 -755Q-3 -756 -9.5 -763Q-16 -770 -16 -780ZM131 -639Q135 -657 140 -692Q140 -693 139 -699Q127 -679 120 -641Q125 -640 131 -639Z"/>
	<path fill="#daa520" d="M549 -747Q548 -747 546.5 -747Q545 -747 544 -747Q516 -747 516 -768Q516 -783 523 -799Q530 -815 536.5 -824Q543 -833 557 -850Q571 -868 578.5 -878.5Q586 -889 593 -906.5Q600 -924 600 -940Q600 -949 589 -955Q567 -968 508 -968Q458 -968 400 -960Q342 -952 319 -943Q313 -941 296.5 -935Q280 -929 271 -926Q262 -923 247.5 -919Q233 -915 220 -913Q207 -911 195 -911Q193 -911 192 -911Q176 -913 162.5 -920.5Q149 -928 139.5 -942Q130 -956 123 -967.5Q116 -979 110 -1000Q104 -1021 101 -1031.5Q98 -1042 93 -1064Q85 -1101 80 -1114Q80 -1115 80 -1116Q80 -1121 85 -1121Q89 -1121 90 -1118Q95 -1104 103 -1066Q109 -1042 112.5 -1027.5Q116 -1013 124 -991.5Q132 -970 140.5 -957.5Q149 -945 163 -934Q177 -923 193 -921Q194 -921 194.5 -921Q195 -921 195 -921Q207 -921 219 -923Q231 -925 245 -929Q259 -933 268 -935.5Q277 -938 293.5 -944.5Q310 -951 315 -953Q340 -962 398.5 -970Q457 -978 508 -978Q570 -978 594 -964Q610 -955 610 -940Q610 -922 602 -903Q594 -884 586.5 -873.5Q579 -863 564 -844Q551 -828 544.5 -818.5Q538 -809 532 -795Q526 -781 526 -768Q526 -761 530 -759Q534 -757 544 -757Q545 -757 546.5 -757Q548 -757 549 -757Q577 -757 610 -764Q643 -771 682 -782Q721 -793 740 -797Q740 -797 741 -797L905 -781Q910 -781 910 -776Q910 -771 905 -771L741 -787Q722 -783 683 -772Q644 -761 611 -754Q578 -747 549 -747ZM4 -780Q4 -785 9 -785Q21 -784 41 -781Q61 -778 70 -777Q132 -770 158 -732Q165 -732 182 -729Q234 -721 264 -700.5Q294 -680 308 -645Q326 -600 326 -495Q326 -481 289 -413Q253 -348 203 -269Q153 -190 111 -136Q197 -209 338 -336.5Q479 -464 584 -566Q648 -670 734 -728Q735 -729 737 -729Q742 -729 742 -724Q742 -717 726 -698Q709 -676 672 -639Q639 -605 592 -559Q562 -510 534 -445Q533 -445 533 -445Q499 -384 498 -287Q497 -141 561 -136Q589 -135 635.5 -116.5Q682 -98 705 -96Q713 -95 719 -95Q757 -95 777 -114L821 -166Q823 -168 825 -168Q830 -168 830 -163Q830 -161 829 -160L785 -108Q785 -108 784 -107Q762 -85 719 -85Q687 -85 637.5 -105Q588 -125 561 -126Q488 -132 488 -287Q490 -388 525 -449Q545 -496 566 -534Q359 -336 159 -165Q104 -117 73 -93Q65 -85 58 -79Q45 -70 37 -70Q32 -70 32 -75Q32 -80 37 -80L65 -100Q66 -100 66 -100Q73 -108 82 -118Q119 -160 173 -241Q234 -333 280 -418Q316 -483 316 -495Q316 -598 299 -641Q286 -674 258 -692.5Q230 -711 180 -719Q168 -721 164 -722Q170 -708 170 -692Q170 -686 165.5 -657.5Q161 -629 157 -618Q156 -614 155 -611Q153 -607 149 -607Q132 -607 112 -612Q101 -614 95 -618Q88 -622 88 -628Q88 -654 103 -694Q118 -733 137 -733Q140 -733 142 -733Q143 -733 144 -733Q119 -761 68 -767Q60 -768 39.5 -771Q19 -774 9 -775Q4 -775 4 -780ZM720 -705Q664 -663 618 -599Q653 -634 678 -660Q706 -688 720 -705ZM137 -723Q125 -723 113 -690Q98 -652 98 -628Q102 -624 114 -621Q130 -618 147 -617Q150 -625 155 -656Q160 -687 160 -692Q160 -709 152 -723Q147 -723 142 -723Q141 -723 139.5 -723Q138 -723 137 -723Z"/>
</svg>