<svg xmlns="http://www.w3.org/2000/svg" viewBox="0 -1024 1024 1024">
	<path fill="#000088" d="M285 -801Q304 -802 352 -810.5Q400 -819 427 -819Q443 -819 458.5 -816.5Q474 -814 492.5 -810Q511 -806 520 -805L538 -803Q547 -802 553.5 -795Q560 -788 560 -778Q560 -768 552.5 -760.5Q545 -753 535 -753Q528 -753 513 -755Q504 -757 486.5 -760.5Q469 -764 454 -766.5Q439 -769 427 -769Q402 -769 351 -760Q300 -751 273 -751Q273 -751 272 -751Q271 -751 270 -751Q270 -751 269 -751Q258 -751 250 -759Q242 -767 242 -778Q242 -786 247 -794Q255 -807 269 -807Q278 -807 285 -801ZM265 -79Q263 -79 258 -79Q253 -79 250 -79Q208 -79 182 -109Q168 -126 166 -148Q166 -149 166 -150Q166 -190 180 -233.5Q194 -277 207 -301Q220 -325 247 -371Q273 -415 286 -441Q299 -467 311.5 -506Q324 -545 324 -580Q324 -608 313 -629Q302 -650 270 -680Q226 -720 159 -738Q158 -738 156 -738Q139 -745 99.5 -747.5Q60 -750 43 -754Q24 -758 24 -778Q24 -788 31.5 -795.5Q39 -803 49 -803Q52 -803 55 -802Q65 -800 82 -798Q66 -822 66 -850Q66 -866 72 -878Q78 -890 91 -898Q104 -906 108.5 -908.5Q113 -911 126 -916Q141 -922 144 -924Q150 -929 158 -929L212 -931Q213 -931 213 -931Q223 -931 230.5 -923.5Q238 -916 238 -906Q238 -896 231 -888.5Q224 -881 214 -881L167 -879Q161 -876 145 -869Q116 -858 116 -850Q116 -822 151 -804Q165 -797 185 -791Q205 -785 220 -782Q235 -779 262.5 -774Q290 -769 300 -767Q379 -751 429 -685Q464 -639 486 -564Q501 -510 518 -397Q529 -325 535 -296Q536 -293 536 -290Q536 -206 490 -138.5Q444 -71 357 -71Q341 -71 310 -75Q279 -79 265 -79ZM265 -129Q281 -129 312 -125Q343 -121 357 -121Q417 -121 451 -169.5Q485 -218 486 -287Q479 -318 469 -389Q452 -499 438 -550Q419 -616 389 -655Q356 -698 307 -713Q339 -684 356.5 -654Q374 -624 374 -580Q374 -537 359.5 -491Q345 -445 331.5 -419Q318 -393 290 -346Q265 -304 252.5 -279.5Q240 -255 228 -219Q216 -183 216 -151Q217 -146 221 -141Q231 -129 250 -129Q253 -129 258 -129Q263 -129 265 -129Z"/>
	<path fill="#800080" d="M235 -801Q254 -802 302 -810.5Q350 -819 377 -819Q393 -819 408.5 -816.5Q424 -814 442.5 -810Q461 -806 470 -805L488 -803Q497 -802 503.5 -795Q510 -788 510 -778Q510 -768 502.5 -760.5Q495 -753 485 -753Q478 -753 463 -755Q454 -757 436.5 -760.5Q419 -764 404 -766.5Q389 -769 377 -769Q352 -769 301 -760Q250 -751 223 -751Q223 -751 222 -751Q221 -751 220 -751Q220 -751 219 -751Q208 -751 200 -759Q192 -767 192 -778Q192 -786 197 -794Q205 -807 219 -807Q228 -807 235 -801ZM215 -79Q213 -79 208 -79Q203 -79 200 -79Q158 -79 132 -109Q118 -126 116 -148Q116 -149 116 -150Q116 -190 130 -233.5Q144 -277 157 -301Q170 -325 197 -371Q223 -415 236 -441Q249 -467 261.5 -506Q274 -545 274 -580Q274 -608 263 -629Q252 -650 220 -680Q176 -720 109 -738Q108 -738 106 -738Q89 -745 49.5 -747.5Q10 -750 -7 -754Q-26 -758 -26 -778Q-26 -788 -18.5 -795.5Q-11 -803 -1 -803Q2 -803 5 -802Q15 -800 32 -798Q16 -822 16 -850Q16 -866 22 -878Q28 -890 41 -898Q54 -906 58.5 -908.5Q63 -911 76 -916Q91 -922 94 -924Q100 -929 108 -929L162 -931Q163 -931 163 -931Q173 -931 180.5 -923.5Q188 -916 188 -906Q188 -896 181 -888.5Q174 -881 164 -881L117 -879Q111 -876 95 -869Q66 -858 66 -850Q66 -822 101 -804Q115 -797 135 -791Q155 -785 170 -782Q185 -779 212.5 -774Q240 -769 250 -767Q329 -751 379 -685Q414 -639 436 -564Q451 -510 468 -397Q479 -325 485 -296Q486 -293 486 -290Q486 -206 440 -138.5Q394 -71 307 -71Q291 -71 260 -75Q229 -79 215 -79ZM215 -129Q231 -129 262 -125Q293 -121 307 -121Q367 -121 401 -169.5Q435 -218 436 -287Q429 -318 419 -389Q402 -499 388 -550Q369 -616 339 -655Q306 -698 257 -713Q289 -684 306.5 -654Q324 -624 324 -580Q324 -537 309.5 -491Q295 -445 281.5 -419Q268 -393 240 -346Q215 -304 202.5 -279.5Q190 -255 178 -219Q166 -183 166 -151Q167 -146 171 -141Q181 -129 200 -129Q203 -129 208 -129Q213 -129 215 -129Z"/>
	<path fill="#daa520" d="M212 -778Q212 -787 219 -787Q224 -787 224 -782Q224 -781 224 -781Q249 -781 300 -790Q351 -799 377 -799Q391 -799 406.5 -796.5Q422 -794 440 -790Q458 -786 468 -785L486 -783Q490 -782 490 -778Q490 -773 485 -773Q485 -773 484 -773Q466 -775 466 -775Q457 -777 439 -780.5Q421 -784 406 -786.5Q391 -789 377 -789Q352 -789 300.5 -780Q249 -771 223 -771Q222 -771 222 -771Q222 -771 221 -771Q220 -771 220 -771Q212 -771 212 -778ZM215 -99Q213 -99 208 -99Q203 -99 200 -99Q177 -99 157.5 -113Q138 -127 136 -150Q136 -187 149 -227.5Q162 -268 175 -292.5Q188 -317 214 -361Q241 -407 254 -432.5Q267 -458 280.5 -500Q294 -542 294 -580Q294 -616 279.5 -641Q265 -666 234 -694Q186 -738 114 -757Q114 -757 113 -757Q94 -764 54 -766.5Q14 -769 -2 -773Q-6 -774 -6 -778Q-6 -783 -1 -783Q0 -783 0 -783Q16 -779 49.5 -777Q83 -775 99 -772Q36 -799 36 -850Q36 -863 45 -873.5Q54 -884 61.5 -887.5Q69 -891 84 -897Q101 -904 106 -908Q107 -909 109 -909L163 -911Q168 -911 168 -906Q168 -901 163 -901L111 -899Q105 -895 87 -888Q74 -882 66.5 -878.5Q59 -875 52.5 -867.5Q46 -860 46 -850Q46 -834 53 -821Q60 -808 74 -798Q88 -788 102.5 -781Q117 -774 139.5 -768.5Q162 -763 177 -760Q192 -757 216 -752Q237 -749 246 -747Q271 -742 293 -731Q315 -720 331.5 -707Q348 -694 363 -673Q378 -652 387.5 -635Q397 -618 406.5 -589.5Q416 -561 421 -543Q426 -525 432 -492.5Q438 -460 440.5 -443.5Q443 -427 448 -394Q459 -321 466 -291Q466 -291 466 -290Q466 -212 425 -151.5Q384 -91 307 -91Q292 -91 261 -95Q230 -99 215 -99ZM215 -109Q230 -109 261 -105Q292 -101 307 -101Q355 -101 390 -129.5Q425 -158 440.5 -200Q456 -242 456 -289Q449 -320 438 -392Q432 -434 428.5 -456.5Q425 -479 416.5 -518Q408 -557 399 -580.5Q390 -604 375.5 -634Q361 -664 343 -682Q325 -700 300 -715.5Q275 -731 244 -737Q235 -739 204 -744.5Q173 -750 155 -754Q205 -734 240 -702Q273 -672 288.5 -645.5Q304 -619 304 -580Q304 -540 290.5 -497Q277 -454 263.5 -428Q250 -402 223 -356Q197 -312 184 -287.5Q171 -263 158.5 -224Q146 -185 146 -150Q148 -132 164.5 -120.5Q181 -109 200 -109Q203 -109 208 -109Q213 -109 215 -109Z"/>
</svg>