<svg xmlns="http://www.w3.org/2000/svg" viewBox="0 -1024 1024 1024">
	<path fill="#000088" d="M251 -539Q253 -539 256.5 -538.5Q260 -538 262 -538Q278 -538 289 -549Q297 -557 304 -571.5Q311 -586 314.5 -597Q318 -608 323.5 -629Q329 -650 331 -657Q335 -671 335 -682Q335 -704 319 -719Q304 -732 278 -740Q248 -749 211 -749Q169 -740 150 -706Q136 -681 130 -638Q130 -638 129 -637Q125 -617 125 -599Q125 -573 134 -549Q143 -525 162.5 -501Q182 -477 199.5 -460Q217 -443 248 -416Q276 -392 288 -381.5Q300 -371 323 -346.5Q346 -322 357 -303.5Q368 -285 377 -257.5Q386 -230 386 -202Q386 -181 383 -168Q363 -80 301 -69Q276 -65 267 -65Q256 -65 247 -67.5Q238 -70 229 -74.5Q220 -79 215 -80Q211 -82 208 -84L182 -104Q172 -112 172 -124Q172 -134 179.5 -141.5Q187 -149 197 -149Q205 -149 212 -144L235 -126Q238 -125 245 -122Q252 -119 257 -117Q262 -115 266.5 -115Q271 -115 293 -119Q321 -124 334 -179Q336 -191 336 -202Q336 -227 327.5 -250Q319 -273 300 -296Q281 -319 263.5 -335.5Q246 -352 216 -379Q188 -403 175.5 -414Q163 -425 139.5 -450Q116 -475 105 -494.5Q94 -514 84.5 -542Q75 -570 75 -599Q75 -622 80 -646Q88 -698 106 -731Q138 -786 204 -799Q207 -799 209 -799Q262 -799 305.5 -783.5Q349 -768 370 -736Q385 -712 385 -682Q385 -663 379 -643Q376 -635 371.5 -617.5Q367 -600 363 -586.5Q359 -573 354 -560Q341 -531 324 -514Q298 -488 262 -488Q256 -488 249 -489H241Q231 -489 223.5 -496.5Q216 -504 216 -514Q216 -524 223.5 -531.5Q231 -539 241 -539Z"/>
	<path fill="#800080" d="M201 -539Q203 -539 206.5 -538.5Q210 -538 212 -538Q228 -538 239 -549Q247 -557 254 -571.5Q261 -586 264.5 -597Q268 -608 273.5 -629Q279 -650 281 -657Q285 -671 285 -682Q285 -704 269 -719Q254 -732 228 -740Q198 -749 161 -749Q119 -740 100 -706Q86 -681 80 -638Q80 -638 79 -637Q75 -617 75 -599Q75 -573 84 -549Q93 -525 112.5 -501Q132 -477 149.5 -460Q167 -443 198 -416Q226 -392 238 -381.5Q250 -371 273 -346.5Q296 -322 307 -303.5Q318 -285 327 -257.5Q336 -230 336 -202Q336 -181 333 -168Q313 -80 251 -69Q226 -65 217 -65Q206 -65 197 -67.5Q188 -70 179 -74.5Q170 -79 165 -80Q161 -82 158 -84L132 -104Q122 -112 122 -124Q122 -134 129.5 -141.5Q137 -149 147 -149Q155 -149 162 -144L185 -126Q188 -125 195 -122Q202 -119 207 -117Q212 -115 216.5 -115Q221 -115 243 -119Q271 -124 284 -179Q286 -191 286 -202Q286 -227 277.5 -250Q269 -273 250 -296Q231 -319 213.5 -335.5Q196 -352 166 -379Q138 -403 125.5 -414Q113 -425 89.5 -450Q66 -475 55 -494.5Q44 -514 34.5 -542Q25 -570 25 -599Q25 -622 30 -646Q38 -698 56 -731Q88 -786 154 -799Q157 -799 159 -799Q212 -799 255.5 -783.5Q299 -768 320 -736Q335 -712 335 -682Q335 -663 329 -643Q326 -635 321.5 -617.5Q317 -600 313 -586.5Q309 -573 304 -560Q291 -531 274 -514Q248 -488 212 -488Q206 -488 199 -489H191Q181 -489 173.5 -496.5Q166 -504 166 -514Q166 -524 173.5 -531.5Q181 -539 191 -539Z"/>
	<path fill="#daa520" d="M201 -519Q203 -519 206.5 -518.5Q210 -518 212 -518Q224 -518 234.5 -522Q245 -526 253 -535Q261 -544 266.5 -552.5Q272 -561 277.5 -576Q283 -591 286 -600Q289 -609 293.5 -626.5Q298 -644 300 -651Q305 -668 305 -682Q305 -713 282 -733.5Q259 -754 227.5 -761.5Q196 -769 159 -769Q111 -760 89 -727Q67 -694 60 -641Q55 -619 55 -599Q55 -569 66 -540.5Q77 -512 95.5 -489.5Q114 -467 137.5 -444Q161 -421 185.5 -401.5Q210 -382 233.5 -358.5Q257 -335 275.5 -313Q294 -291 305 -262Q316 -233 316 -202Q316 -188 314 -173Q296 -97 248 -89Q224 -85 217 -85Q208 -85 200.5 -87.5Q193 -90 184.5 -94Q176 -98 171 -99Q171 -100 170 -100L144 -120Q142 -122 142 -124Q142 -129 147 -129Q149 -129 150 -128L175 -108Q180 -107 187.5 -103Q195 -99 202 -97Q209 -95 217 -95Q223 -95 246 -99Q288 -106 304 -175Q306 -189 306 -202Q306 -231 296.5 -257Q287 -283 265.5 -308.5Q244 -334 227.5 -350Q211 -366 179 -394Q152 -417 139 -429Q126 -441 104.5 -464Q83 -487 72.5 -505Q62 -523 53.5 -548Q45 -573 45 -599Q45 -620 50 -643Q58 -698 82 -733.5Q106 -769 158 -779Q158 -779 159 -779Q186 -779 211.5 -774.5Q237 -770 261.5 -759.5Q286 -749 300.5 -729Q315 -709 315 -682Q315 -669 304 -627Q298 -605 295 -594.5Q292 -584 283.5 -564.5Q275 -545 266.5 -535Q258 -525 243.5 -516.5Q229 -508 212 -508Q206 -508 201 -509H191Q186 -509 186 -514Q186 -519 191 -519Z"/>
</svg>