<svg xmlns="http://www.w3.org/2000/svg" viewBox="0 -1024 1024 1024">
	<path fill="#000088" d="M288 -879Q284 -879 276 -879Q268 -879 263 -879Q245 -879 210 -863Q165 -843 135 -843Q97 -843 72 -888Q52 -922 46 -960Q46 -962 46 -964Q46 -974 53.5 -981.5Q61 -989 71 -989Q80 -989 87 -983Q94 -977 96 -968Q100 -938 115 -913Q126 -893 135 -893Q154 -893 190 -909Q234 -929 263 -929Q267 -929 275.5 -929Q284 -929 288 -929Q320 -929 335 -921Q360 -906 360 -860Q360 -840 347 -819Q387 -825 407 -829Q426 -832 441 -832Q455 -832 468.5 -829Q482 -826 489.5 -823Q497 -820 510.5 -814Q524 -808 530 -806H552Q562 -806 569.5 -798.5Q577 -791 577 -781Q577 -771 569.5 -763.5Q562 -756 552 -756H525Q520 -756 516 -758Q506 -761 490 -769Q461 -782 441 -782Q430 -782 415 -779Q399 -777 354 -769.5Q309 -762 291 -759Q288 -759 286 -759Q275 -759 267 -766.5Q259 -774 259 -785Q259 -792 263 -799Q266 -804 277 -814Q295 -832 302 -842Q310 -853 310 -860Q310 -877 308 -878Q302 -879 288 -879ZM172 -67Q172 -56 164.5 -49Q157 -42 147 -42Q140 -42 131 -47Q122 -55 108 -62Q90 -72 80 -72Q57 -72 43 -101Q34 -119 27 -152Q14 -213 14 -241Q14 -251 21.5 -258.5Q29 -266 39 -266Q49 -266 56 -259.5Q63 -253 64 -243Q67 -209 73 -175Q80 -137 88 -122Q107 -119 132 -106Q149 -97 163 -86Q172 -79 172 -67ZM232 -737Q218 -737 187 -735.5Q156 -734 140 -734Q70 -734 35 -761Q25 -769 25 -781Q25 -791 32.5 -798.5Q40 -806 50 -806Q58 -806 65 -801Q87 -784 140 -784Q155 -784 186 -785.5Q217 -787 232 -787Q289 -787 320 -770Q332 -762 332 -748Q332 -746 332 -744L312 -625Q309 -598 295 -551Q281 -501 280 -474Q279 -451 269 -410.5Q259 -370 258 -362Q263 -364 270 -371Q281 -384 304 -425Q334 -480 354 -500Q385 -532 423 -532Q443 -532 462 -513Q477 -498 492 -470Q507 -441 518 -408Q528 -380 528 -359Q528 -309 493 -240Q443 -141 350 -96Q280 -62 191 -62Q168 -62 149 -76Q121 -96 102 -148Q83 -201 66 -324Q59 -381 55 -391Q54 -395 54 -399Q54 -409 61.5 -416.5Q69 -424 79 -424Q97 -424 103 -407Q108 -393 116 -331Q132 -213 149 -165Q163 -128 178 -116Q184 -112 191 -112Q269 -112 329 -141Q406 -178 449 -262Q478 -321 478 -359Q478 -362 478 -366Q478 -372 472 -388Q456 -438 433 -469Q424 -482 421 -482Q405 -481 389.5 -465.5Q374 -450 348 -402.5Q322 -355 307 -338Q281 -310 251 -310Q250 -310 248.5 -310Q247 -310 245 -310Q238 -310 233 -311Q224 -312 217 -317Q206 -325 206 -339Q206 -364 219 -414Q230 -456 230 -476Q231 -508 245.5 -558Q260 -608 262 -631Q262 -631 262 -632L279 -733Q261 -737 232 -737ZM422 -482Q422 -482 423 -482Z"/>
	<path fill="#800080" d="M238 -879Q234 -879 226 -879Q218 -879 213 -879Q195 -879 160 -863Q115 -843 85 -843Q47 -843 22 -888Q2 -922 -4 -960Q-4 -962 -4 -964Q-4 -974 3.5 -981.5Q11 -989 21 -989Q30 -989 37 -983Q44 -977 46 -968Q50 -938 65 -913Q76 -893 85 -893Q104 -893 140 -909Q184 -929 213 -929Q217 -929 225.5 -929Q234 -929 238 -929Q270 -929 285 -921Q310 -906 310 -860Q310 -840 297 -819Q337 -825 357 -829Q376 -832 391 -832Q405 -832 418.5 -829Q432 -826 439.5 -823Q447 -820 460.5 -814Q474 -808 480 -806H502Q512 -806 519.5 -798.5Q527 -791 527 -781Q527 -771 519.5 -763.5Q512 -756 502 -756H475Q470 -756 466 -758Q456 -761 440 -769Q411 -782 391 -782Q380 -782 365 -779Q349 -777 304 -769.5Q259 -762 241 -759Q238 -759 236 -759Q225 -759 217 -766.5Q209 -774 209 -785Q209 -792 213 -799Q216 -804 227 -814Q245 -832 252 -842Q260 -853 260 -860Q260 -877 258 -878Q252 -879 238 -879ZM122 -67Q122 -56 114.5 -49Q107 -42 97 -42Q90 -42 81 -47Q72 -55 58 -62Q40 -72 30 -72Q7 -72 -7 -101Q-16 -119 -23 -152Q-36 -213 -36 -241Q-36 -251 -28.5 -258.5Q-21 -266 -11 -266Q-1 -266 6 -259.5Q13 -253 14 -243Q17 -209 23 -175Q30 -137 38 -122Q57 -119 82 -106Q99 -97 113 -86Q122 -79 122 -67ZM182 -737Q168 -737 137 -735.5Q106 -734 90 -734Q20 -734 -15 -761Q-25 -769 -25 -781Q-25 -791 -17.5 -798.5Q-10 -806 0 -806Q8 -806 15 -801Q37 -784 90 -784Q105 -784 136 -785.5Q167 -787 182 -787Q239 -787 270 -770Q282 -762 282 -748Q282 -746 282 -744L262 -625Q259 -598 245 -551Q231 -501 230 -474Q229 -451 219 -410.5Q209 -370 208 -362Q213 -364 220 -371Q231 -384 254 -425Q284 -480 304 -500Q335 -532 373 -532Q393 -532 412 -513Q427 -498 442 -470Q457 -441 468 -408Q478 -380 478 -359Q478 -309 443 -240Q393 -141 300 -96Q230 -62 141 -62Q118 -62 99 -76Q71 -96 52 -148Q33 -201 16 -324Q9 -381 5 -391Q4 -395 4 -399Q4 -409 11.5 -416.5Q19 -424 29 -424Q47 -424 53 -407Q58 -393 66 -331Q82 -213 99 -165Q113 -128 128 -116Q134 -112 141 -112Q219 -112 279 -141Q356 -178 399 -262Q428 -321 428 -359Q428 -362 428 -366Q428 -372 422 -388Q406 -438 383 -469Q374 -482 371 -482Q355 -481 339.5 -465.5Q324 -450 298 -402.5Q272 -355 257 -338Q231 -310 201 -310Q200 -310 198.5 -310Q197 -310 195 -310Q188 -310 183 -311Q174 -312 167 -317Q156 -325 156 -339Q156 -364 169 -414Q180 -456 180 -476Q181 -508 195.5 -558Q210 -608 212 -631Q212 -631 212 -632L229 -733Q211 -737 182 -737ZM372 -482Q372 -482 373 -482Z"/>
	<path fill="#daa520" d="M238 -899Q234 -899 226 -899Q218 -899 213 -899Q191 -899 152 -882Q110 -863 85 -863Q59 -863 39 -898Q21 -928 16 -963Q16 -964 16 -964Q16 -969 21 -969Q25 -969 26 -965Q31 -932 48 -903Q65 -873 85 -873Q108 -873 148.5 -891Q189 -909 213 -909Q217 -909 225.5 -909Q234 -909 238 -909Q265 -909 275 -903Q290 -894 290 -860Q290 -854 288.5 -848Q287 -842 283.5 -836Q280 -830 277.5 -825.5Q275 -821 269.5 -815Q264 -809 261.5 -806Q259 -803 253 -797Q247 -791 246 -790Q262 -793 302 -799.5Q342 -806 360 -809Q377 -812 391 -812Q408 -812 421 -808.5Q434 -805 452 -796.5Q470 -788 476 -786H502Q507 -786 507 -781Q507 -776 502 -776H475Q474 -776 473 -776Q464 -780 448 -787Q415 -802 391 -802Q378 -802 362 -799Q346 -797 301 -789.5Q256 -782 238 -779Q237 -779 236 -779Q229 -779 229 -785Q229 -788 233 -792Q235 -794 241 -800Q280 -838 280 -860Q280 -889 269 -895Q262 -899 238 -899ZM127 -92Q127 -94 125 -96Q86 -127 55 -127Q50 -127 45 -139Q38 -153 31 -183Q28 -201 24.5 -221.5Q21 -242 20 -254L19 -266Q19 -271 14 -271Q9 -271 9 -266Q9 -240 22 -181Q28 -150 36 -134Q44 -117 55 -117Q67 -117 83 -109.5Q99 -102 109 -95L119 -88Q120 -87 122 -87Q127 -87 127 -92ZM182 -757Q167 -757 136 -755.5Q105 -754 90 -754Q27 -754 -3 -777Q-5 -779 -5 -781Q-5 -786 0 -786Q2 -786 3 -785Q30 -764 90 -764Q105 -764 136 -765.5Q167 -767 182 -767Q234 -767 260 -752Q262 -751 262 -748Q262 -748 262 -747L242 -627Q240 -604 225.5 -554Q211 -504 210 -475Q210 -453 198 -407.5Q186 -362 186 -341Q189 -340 195 -340Q196 -340 198 -340Q200 -340 201 -340Q220 -340 235.5 -358.5Q251 -377 272 -416Q285 -440 292 -451Q299 -462 312.5 -479.5Q326 -497 340.5 -504.5Q355 -512 373 -512Q396 -512 424 -460Q456 -401 458 -367Q458 -363 458 -359Q458 -313 425 -249Q383 -165 309.5 -123.5Q236 -82 141 -82Q97 -82 71 -155Q52 -206 36 -327Q28 -385 24 -397Q24 -398 24 -399Q24 -404 29 -404Q33 -404 34 -401Q38 -388 46 -328Q62 -208 80 -158Q104 -92 141 -92Q335 -92 417 -253Q448 -316 448 -359Q448 -363 448 -367Q447 -378 437.5 -405Q428 -432 415 -456Q390 -502 373 -502Q358 -502 345 -495Q332 -488 320 -473Q308 -458 300.5 -445.5Q293 -433 281 -411Q269 -390 263.5 -381Q258 -372 247 -357Q236 -342 225 -336Q214 -330 201 -330Q200 -330 198.5 -330Q197 -330 195 -330Q186 -330 181 -332Q176 -334 176 -339Q176 -362 188 -408Q200 -454 200 -475Q201 -505 215.5 -555.5Q230 -606 232 -629L251 -745Q228 -757 182 -757Z"/>
</svg>