<svg xmlns="http://www.w3.org/2000/svg" viewBox="0 -1024 1024 1024">
	<path fill="#000088" d="M113 -1146Q113 -1149 112.5 -1155Q112 -1161 112 -1164Q112 -1174 119.5 -1181.5Q127 -1189 137 -1189Q147 -1189 154 -1182.5Q161 -1176 162 -1167Q163 -1157 163 -1146Q163 -1128 154 -1072Q152 -1064 152 -1057Q152 -1024 178.5 -1001Q205 -978 242 -978Q253 -978 264 -980Q294 -987 311 -987Q329 -987 341 -981Q354 -974 361 -962Q366 -952 366 -940Q366 -921 358 -902Q350 -883 343.5 -874.5Q337 -866 324 -851Q312 -838 308 -831Q303 -824 302 -819Q310 -808 320 -797Q326 -792 333 -786Q339 -787 355 -793Q371 -799 382 -801Q385 -801 457 -805Q464 -811 473 -811Q478 -811 487 -809Q509 -803 509 -783Q509 -775 505 -768Q500 -762 494 -759Q490 -758 484 -757Q472 -755 435 -754Q398 -753 388 -751Q383 -751 369 -745Q342 -735 329 -735Q322 -735 315 -738Q310 -740 304 -744Q281 -761 263 -789Q258 -795 256 -801Q252 -809 252 -816Q252 -834 262 -852Q269 -864 286 -884Q315 -917 316 -937Q314 -937 311 -937Q300 -937 274 -932Q258 -928 242 -928Q186 -928 144 -964.5Q102 -1001 102 -1057Q102 -1069 107 -1094Q113 -1130 113 -1146ZM49 -755Q39 -755 31.5 -762.5Q24 -770 24 -780Q24 -789 30 -796Q36 -803 45 -805Q52 -806 58 -806Q65 -806 71 -804Q85 -801 123 -800Q198 -797 228 -779Q255 -763 265 -730Q269 -719 269 -719Q301 -720 306.5 -720.5Q312 -721 317 -721Q368 -721 402.5 -683Q437 -645 442 -594Q443 -587 443 -580Q443 -551 430 -522.5Q417 -494 406 -479.5Q395 -465 372 -439Q359 -424 352 -416Q325 -383 269 -350Q279 -324 288 -279Q303 -209 317 -183Q331 -157 349 -157Q353 -157 357.5 -158Q362 -159 368 -161Q374 -163 377 -164L416 -179Q420 -181 425 -181Q435 -181 442.5 -173.5Q450 -166 450 -156Q450 -139 434 -133L394 -117Q392 -116 386.5 -114.5Q381 -113 379 -112Q362 -107 349 -107Q301 -107 273 -160Q255 -192 239 -269Q231 -308 224 -328Q205 -323 177 -323Q151 -323 136 -341Q120 -360 120 -396Q120 -431 142 -444Q151 -449 162 -449Q165 -449 168 -449Q213 -443 246 -394Q293 -422 314 -448Q321 -456 335 -472Q365 -507 379 -530Q393 -553 393 -580Q393 -618 370 -644.5Q347 -671 317 -671Q314 -671 311 -671Q303 -670 280 -669Q280 -664 280 -660Q280 -634 268 -617Q249 -591 209 -591Q209 -591 208 -591Q207 -591 206 -591Q180 -591 167 -596Q144 -606 144 -627Q144 -629 144 -630Q147 -666 170 -688Q188 -705 218 -713Q218 -713 217 -716Q213 -730 202 -737Q183 -748 121 -750Q78 -751 59 -756Q59 -756 58 -756Q57 -756 53.5 -755.5Q50 -755 49 -755ZM170 -396Q170 -385 172 -378L174 -373Q175 -373 177 -373Q188 -373 198 -374Q185 -392 170 -397Q170 -397 170 -396ZM209 -641Q224 -641 227 -646Q230 -650 230 -660Q230 -662 230 -664Q213 -660 204 -652Q200 -647 197 -641Q201 -641 206 -641Q207 -641 208 -641Q209 -641 209 -641Z"/>
	<path fill="#800080" d="M63 -1146Q63 -1149 62.5 -1155Q62 -1161 62 -1164Q62 -1174 69.5 -1181.5Q77 -1189 87 -1189Q97 -1189 104 -1182.5Q111 -1176 112 -1167Q113 -1157 113 -1146Q113 -1128 104 -1072Q102 -1064 102 -1057Q102 -1024 128.5 -1001Q155 -978 192 -978Q203 -978 214 -980Q244 -987 261 -987Q279 -987 291 -981Q304 -974 311 -962Q316 -952 316 -940Q316 -921 308 -902Q300 -883 293.5 -874.5Q287 -866 274 -851Q262 -838 258 -831Q253 -824 252 -819Q260 -808 270 -797Q276 -792 283 -786Q289 -787 305 -793Q321 -799 332 -801Q335 -801 407 -805Q414 -811 423 -811Q428 -811 437 -809Q459 -803 459 -783Q459 -775 455 -768Q450 -762 444 -759Q440 -758 434 -757Q422 -755 385 -754Q348 -753 338 -751Q333 -751 319 -745Q292 -735 279 -735Q272 -735 265 -738Q260 -740 254 -744Q231 -761 213 -789Q208 -795 206 -801Q202 -809 202 -816Q202 -834 212 -852Q219 -864 236 -884Q265 -917 266 -937Q264 -937 261 -937Q250 -937 224 -932Q208 -928 192 -928Q136 -928 94 -964.5Q52 -1001 52 -1057Q52 -1069 57 -1094Q63 -1130 63 -1146ZM-1 -755Q-11 -755 -18.5 -762.5Q-26 -770 -26 -780Q-26 -789 -20 -796Q-14 -803 -5 -805Q2 -806 8 -806Q15 -806 21 -804Q35 -801 73 -800Q148 -797 178 -779Q205 -763 215 -730Q219 -719 219 -719Q251 -720 256.5 -720.5Q262 -721 267 -721Q318 -721 352.5 -683Q387 -645 392 -594Q393 -587 393 -580Q393 -551 380 -522.5Q367 -494 356 -479.5Q345 -465 322 -439Q309 -424 302 -416Q275 -383 219 -350Q229 -324 238 -279Q253 -209 267 -183Q281 -157 299 -157Q303 -157 307.5 -158Q312 -159 318 -161Q324 -163 327 -164L366 -179Q370 -181 375 -181Q385 -181 392.5 -173.5Q400 -166 400 -156Q400 -139 384 -133L344 -117Q342 -116 336.5 -114.5Q331 -113 329 -112Q312 -107 299 -107Q251 -107 223 -160Q205 -192 189 -269Q181 -308 174 -328Q155 -323 127 -323Q101 -323 86 -341Q70 -360 70 -396Q70 -431 92 -444Q101 -449 112 -449Q115 -449 118 -449Q163 -443 196 -394Q243 -422 264 -448Q271 -456 285 -472Q315 -507 329 -530Q343 -553 343 -580Q343 -618 320 -644.5Q297 -671 267 -671Q264 -671 261 -671Q253 -670 230 -669Q230 -664 230 -660Q230 -634 218 -617Q199 -591 159 -591Q159 -591 158 -591Q157 -591 156 -591Q130 -591 117 -596Q94 -606 94 -627Q94 -629 94 -630Q97 -666 120 -688Q138 -705 168 -713Q168 -713 167 -716Q163 -730 152 -737Q133 -748 71 -750Q28 -751 9 -756Q9 -756 8 -756Q7 -756 3.5 -755.5Q0 -755 -1 -755ZM120 -396Q120 -385 122 -378L124 -373Q125 -373 127 -373Q138 -373 148 -374Q135 -392 120 -397Q120 -397 120 -396ZM159 -641Q174 -641 177 -646Q180 -650 180 -660Q180 -662 180 -664Q163 -660 154 -652Q150 -647 147 -641Q151 -641 156 -641Q157 -641 158 -641Q159 -641 159 -641Z"/>
	<path fill="#daa520" d="M192 -958Q204 -958 226.5 -962.5Q249 -967 261 -967Q296 -967 296 -940Q296 -925 289.5 -909.5Q283 -894 277 -886Q271 -878 259 -864Q232 -833 232 -816L233 -813Q237 -805 250 -790Q263 -775 273 -768Q276 -766 279 -765Q288 -766 307 -773Q326 -780 334 -781Q345 -782 379 -783.5Q413 -785 418 -785Q418 -786 418 -786Q418 -791 423 -791Q427 -791 434 -789Q439 -787 439 -783Q439 -780 436 -778Q435 -777 431 -776Q423 -775 386 -774Q346 -772 336 -771Q328 -770 309 -763Q290 -756 279 -755Q274 -755 266 -761Q246 -775 229 -800Q222 -810 222 -816Q222 -837 251 -871Q263 -884 269 -892Q275 -900 280.5 -913.5Q286 -927 286 -940Q286 -957 261 -957Q247 -957 220 -951Q206 -948 192 -948Q144 -948 108 -979Q72 -1010 72 -1057Q72 -1068 76 -1090Q83 -1128 83 -1146Q83 -1155 82 -1163Q82 -1163 82 -1164Q82 -1169 87 -1169Q91 -1169 92 -1165Q93 -1156 93 -1146Q93 -1129 84 -1075Q82 -1066 82 -1057Q82 -1015 114.5 -986.5Q147 -958 192 -958ZM8 -776Q6 -776 3 -775.5Q0 -775 -1 -775Q-6 -775 -6 -780Q-6 -786 8 -786Q12 -786 16 -785Q32 -781 72 -780Q93 -779 103 -778.5Q113 -778 131.5 -775Q150 -772 160 -766.5Q170 -761 180.5 -750.5Q191 -740 196 -726Q202 -707 204 -698Q213 -699 231.5 -699.5Q250 -700 259 -701Q263 -701 267 -701Q309 -701 338.5 -669Q368 -637 372 -592Q373 -586 373 -580Q373 -561 368 -544Q363 -527 352 -510Q341 -493 333 -482.5Q325 -472 308.5 -454Q292 -436 287 -429Q274 -414 256 -399.5Q238 -385 228.5 -379Q219 -373 193 -358Q208 -327 219 -275Q225 -245 230 -226Q235 -207 244.5 -183.5Q254 -160 267.5 -148.5Q281 -137 299 -137Q305 -137 310.5 -138Q316 -139 322.5 -141.5Q329 -144 334 -145L373 -161Q374 -161 375 -161Q380 -161 380 -156Q380 -153 377 -151L337 -135Q336 -135 336 -135Q332 -134 325 -132Q318 -130 312 -128.5Q306 -127 299 -127Q284 -127 272 -133Q260 -139 251 -152.5Q242 -166 236 -177Q230 -188 224 -209.5Q218 -231 216 -241Q214 -251 209 -273Q199 -324 184 -353Q164 -343 127 -343Q90 -343 90 -396Q90 -429 112 -429Q114 -429 116 -429Q159 -423 189 -367Q213 -381 223 -387.5Q233 -394 250 -407.5Q267 -421 279 -435Q286 -443 300 -459Q321 -483 331.5 -497Q342 -511 352.5 -534Q363 -557 363 -580Q363 -586 362 -592Q358 -633 331 -662Q304 -691 267 -691Q263 -691 259 -691Q250 -690 232 -689.5Q214 -689 207 -688Q210 -672 210 -660Q210 -611 159 -611Q159 -611 158 -611Q157 -611 156 -611Q114 -611 114 -627Q114 -628 114 -628Q119 -688 194 -697Q192 -705 186 -722Q181 -738 170.5 -748Q160 -758 142 -762Q124 -766 110.5 -767.5Q97 -769 72 -770Q31 -771 14 -775Q11 -776 8 -776ZM127 -353Q161 -353 180 -362Q152 -414 114 -419Q113 -419 112 -419Q100 -419 100 -396Q100 -353 127 -353ZM159 -621Q200 -621 200 -660Q200 -671 197 -687Q164 -684 145 -671Q126 -658 124 -628V-627Q124 -625 132 -623Q140 -621 156 -621Q157 -621 158 -621Q159 -621 159 -621Z"/>
</svg>