<svg xmlns="http://www.w3.org/2000/svg" viewBox="0 -1024 1024 1024">
	<path fill="#000088" d="M-52 -84Q-52 -73 -60 -66Q-68 -59 -78 -59Q-85 -59 -90 -61L-273 6L-204 8Q-199 8 -195 10L-129 40Q-127 41 -126 42L-78 72Q-66 79 -66 93Q-66 103 -73.5 110.5Q-81 118 -91 118Q-98 118 -104 114L-151 85L-211 58L-404 52Q-414 52 -421 44.5Q-428 37 -428 27Q-428 10 -412 4L-104 -109Q-96 -119 -83 -119Q-71 -119 -63 -112.5Q-55 -106 -54 -95Q-52 -90 -52 -84Z"/>
	<path fill="#800080" d="M-102 -84Q-102 -73 -110 -66Q-118 -59 -128 -59Q-135 -59 -140 -61L-323 6L-254 8Q-249 8 -245 10L-179 40Q-177 41 -176 42L-128 72Q-116 79 -116 93Q-116 103 -123.5 110.5Q-131 118 -141 118Q-148 118 -154 114L-201 85L-261 58L-454 52Q-464 52 -471 44.5Q-478 37 -478 27Q-478 10 -462 4L-154 -109Q-146 -119 -133 -119Q-121 -119 -113 -112.5Q-105 -106 -104 -95Q-102 -90 -102 -84Z"/>
	<path fill="#daa520" d="M-133 -99Q-124 -99 -124 -93Q-124 -91 -125 -90Q-122 -87 -122 -84Q-122 -79 -128 -79Q-132 -79 -141 -82L-427 23L-255 28Q-254 28 -253 28L-187 58Q-187 59 -186 59L-138 89Q-136 90 -136 93Q-136 98 -141 98Q-142 98 -144 97L-191 67L-256 38L-453 32Q-458 32 -458 27Q-458 24 -455 22L-143 -92Q-142 -92 -141 -92Q-140 -92 -139 -92Q-140 -92 -140 -93Q-140 -99 -133 -99Z"/>
</svg>