<svg xmlns="http://www.w3.org/2000/svg" viewBox="0 -1024 1024 1024">
	<path fill="#000088" d="M318 -383Q318 -435 349 -480Q390 -539 461 -561Q409 -581 389 -594Q376 -602 370 -611Q348 -631 283 -666Q214 -630 169.5 -563.5Q125 -497 125 -425Q125 -423 125 -422Q128 -345 166 -270.5Q204 -196 263 -151Q327 -104 399 -104Q429 -104 459 -112Q461 -113 509 -121Q426 -141 370.5 -199Q315 -257 315 -341Q315 -357 318 -374Q318 -378 318 -383ZM521 -520Q483 -520 447 -501Q411 -482 390 -451Q368 -419 368 -383Q368 -381 368 -378Q368 -375 368 -373Q368 -371 368 -369Q365 -355 365 -341Q365 -263 428.5 -213Q492 -163 578 -163Q588 -163 599 -164Q600 -164 601 -164Q611 -164 618.5 -156.5Q626 -149 626 -139Q626 -125 617 -112Q605 -97 578 -87Q553 -78 497 -68Q477 -65 473 -64Q436 -54 399 -54Q311 -54 234 -111Q164 -163 121 -247.5Q78 -332 75 -420Q75 -421 75 -425Q75 -505 119 -577.5Q163 -650 234 -695L148 -758Q138 -765 138 -778Q138 -788 145.5 -795.5Q153 -803 163 -803Q171 -803 178 -798L278 -725Q281 -723 284 -722Q294 -726 305 -730Q309 -731 313 -731Q323 -731 330.5 -723.5Q338 -716 338 -706Q338 -700 335 -694Q371 -673 391 -659Q406 -648 411 -640Q418 -634 439 -624Q460 -614 514 -594Q548 -581 560 -576Q569 -572 574 -569Q578 -566 581 -562Q588 -555 588 -545Q588 -533 579 -525Q573 -520 565 -519Q561 -518 555 -518Q524 -520 521 -520Z"/>
	<path fill="#800080" d="M268 -383Q268 -435 299 -480Q340 -539 411 -561Q359 -581 339 -594Q326 -602 320 -611Q298 -631 233 -666Q164 -630 119.5 -563.5Q75 -497 75 -425Q75 -423 75 -422Q78 -345 116 -270.5Q154 -196 213 -151Q277 -104 349 -104Q379 -104 409 -112Q411 -113 459 -121Q376 -141 320.5 -199Q265 -257 265 -341Q265 -357 268 -374Q268 -378 268 -383ZM471 -520Q433 -520 397 -501Q361 -482 340 -451Q318 -419 318 -383Q318 -381 318 -378Q318 -375 318 -373Q318 -371 318 -369Q315 -355 315 -341Q315 -263 378.5 -213Q442 -163 528 -163Q538 -163 549 -164Q550 -164 551 -164Q561 -164 568.5 -156.5Q576 -149 576 -139Q576 -125 567 -112Q555 -97 528 -87Q503 -78 447 -68Q427 -65 423 -64Q386 -54 349 -54Q261 -54 184 -111Q114 -163 71 -247.5Q28 -332 25 -420Q25 -421 25 -425Q25 -505 69 -577.5Q113 -650 184 -695L98 -758Q88 -765 88 -778Q88 -788 95.5 -795.5Q103 -803 113 -803Q121 -803 128 -798L228 -725Q231 -723 234 -722Q244 -726 255 -730Q259 -731 263 -731Q273 -731 280.5 -723.5Q288 -716 288 -706Q288 -700 285 -694Q321 -673 341 -659Q356 -648 361 -640Q368 -634 389 -624Q410 -614 464 -594Q498 -581 510 -576Q519 -572 524 -569Q528 -566 531 -562Q538 -555 538 -545Q538 -533 529 -525Q523 -520 515 -519Q511 -518 505 -518Q474 -520 471 -520Z"/>
	<path fill="#daa520" d="M499 -548Q483 -555 439 -571.5Q395 -588 376 -597Q344 -612 337 -622Q330 -632 288 -657Q262 -674 233 -688Q156 -651 105.5 -578.5Q55 -506 55 -425Q55 -423 55 -421Q58 -340 96.5 -263Q135 -186 203 -135Q271 -84 349 -84Q382 -84 415 -93Q421 -94 442 -98Q495 -107 518 -115Q540 -124 545 -134Q536 -133 528 -133Q467 -133 412 -157.5Q357 -182 321 -230.5Q285 -279 285 -341Q285 -357 288 -373Q288 -378 288 -383Q288 -452 344.5 -501Q401 -550 471 -550Q476 -550 487 -549Q498 -548 499 -548ZM471 -540Q405 -540 351.5 -493.5Q298 -447 298 -383Q298 -381 298 -378Q298 -375 298 -373Q298 -373 298 -372Q295 -356 295 -341Q295 -282 329 -236Q363 -190 416 -166.5Q469 -143 528 -143Q539 -143 551 -144Q556 -144 556 -139Q556 -119 521 -106Q498 -97 444 -88Q423 -85 417 -83Q383 -74 349 -74Q287 -74 230.5 -105Q174 -136 135 -185.5Q96 -235 71.5 -297Q47 -359 45 -421Q45 -422 45 -425Q45 -508 95 -581.5Q145 -655 222 -694Q217 -697 213 -698Q213 -699 212 -699L110 -774Q108 -775 108 -778Q108 -783 113 -783Q115 -783 116 -782L218 -707Q224 -705 234 -700Q247 -706 261 -711Q262 -711 263 -711Q268 -711 268 -706Q268 -702 265 -701Q255 -698 245 -694Q270 -680 294 -666Q337 -639 345 -628Q351 -620 380 -606Q403 -596 457 -575Q491 -562 502 -558Q509 -554 513 -552Q518 -549 518 -545Q518 -541 514 -539Q512 -538 505 -538Q501 -538 488.5 -539Q476 -540 471 -540Z"/>
</svg>