<svg xmlns="http://www.w3.org/2000/svg" viewBox="0 -1024 1024 1024">
	<path fill="#000088" d="M145 -794Q157 -794 164 -785.5Q171 -777 171 -764Q171 -759 169 -754Q166 -733 166 -713Q166 -681 174.5 -651.5Q183 -622 203 -591.5Q223 -561 240 -540Q257 -519 288 -485Q315 -454 328 -439Q341 -424 363.5 -393Q386 -362 396.5 -339Q407 -316 416 -282.5Q425 -249 425 -215Q425 -211 425 -207Q424 -163 384 -123Q336 -75 280 -75Q277 -75 270.5 -75Q264 -75 260 -75Q214 -75 182 -80Q141 -86 116 -102Q75 -127 75 -172Q75 -193 86 -208Q94 -218 113 -228Q124 -234 127 -237Q132 -243 155 -248Q158 -248 160 -248Q170 -248 177.5 -240.5Q185 -233 185 -223Q185 -214 179.5 -207Q174 -200 165 -198L157 -197Q150 -191 137 -184Q128 -180 126 -178Q125 -176 125 -172Q125 -155 142 -144Q159 -134 190 -129Q218 -125 260 -125Q264 -125 270.5 -125Q277 -125 280 -125Q295 -125 314.5 -134.5Q334 -144 349 -159Q374 -184 375 -209Q375 -212 375 -215Q375 -249 366 -280Q357 -311 336.5 -342.5Q316 -374 299 -395Q282 -416 250 -451Q223 -482 211 -496.5Q199 -511 176.5 -541Q154 -571 143.5 -594Q133 -617 124.5 -649Q116 -681 116 -713Q116 -738 120 -764Q120 -767 120 -769Q120 -779 127.5 -786.5Q135 -794 145 -794ZM121 -764Z"/>
	<path fill="#800080" d="M95 -794Q107 -794 114 -785.5Q121 -777 121 -764Q121 -759 119 -754Q116 -733 116 -713Q116 -681 124.5 -651.5Q133 -622 153 -591.5Q173 -561 190 -540Q207 -519 238 -485Q265 -454 278 -439Q291 -424 313.5 -393Q336 -362 346.5 -339Q357 -316 366 -282.5Q375 -249 375 -215Q375 -211 375 -207Q374 -163 334 -123Q286 -75 230 -75Q227 -75 220.5 -75Q214 -75 210 -75Q164 -75 132 -80Q91 -86 66 -102Q25 -127 25 -172Q25 -193 36 -208Q44 -218 63 -228Q74 -234 77 -237Q82 -243 105 -248Q108 -248 110 -248Q120 -248 127.5 -240.5Q135 -233 135 -223Q135 -214 129.5 -207Q124 -200 115 -198L107 -197Q100 -191 87 -184Q78 -180 76 -178Q75 -176 75 -172Q75 -155 92 -144Q109 -134 140 -129Q168 -125 210 -125Q214 -125 220.5 -125Q227 -125 230 -125Q245 -125 264.5 -134.5Q284 -144 299 -159Q324 -184 325 -209Q325 -212 325 -215Q325 -249 316 -280Q307 -311 286.5 -342.5Q266 -374 249 -395Q232 -416 200 -451Q173 -482 161 -496.5Q149 -511 126.5 -541Q104 -571 93.5 -594Q83 -617 74.5 -649Q66 -681 66 -713Q66 -738 70 -764Q70 -767 70 -769Q70 -779 77.5 -786.5Q85 -794 95 -794ZM71 -764Z"/>
	<path fill="#daa520" d="M90 -769Q90 -774 95 -774Q101 -774 101 -764Q101 -761 100 -759Q96 -736 96 -713Q96 -678 105.5 -645.5Q115 -613 136.5 -580.5Q158 -548 174.5 -527.5Q191 -507 223 -471Q256 -434 272.5 -413.5Q289 -393 312 -358.5Q335 -324 345 -289Q355 -254 355 -215Q355 -212 355 -208Q354 -166 313 -130.5Q272 -95 230 -95Q227 -95 220.5 -95Q214 -95 210 -95Q45 -95 45 -172Q45 -188 52.5 -196.5Q60 -205 73 -211.5Q86 -218 91 -223Q92 -225 94 -225L109 -228Q110 -228 110 -228Q115 -228 115 -223Q115 -219 111 -218L97 -215Q91 -209 77 -202Q69 -197 65.5 -194.5Q62 -192 58.5 -186.5Q55 -181 55 -172Q55 -105 210 -105Q214 -105 220.5 -105Q227 -105 230 -105Q268 -105 306 -138Q344 -171 345 -208Q345 -212 345 -215Q345 -252 335.5 -285.5Q326 -319 303.5 -353Q281 -387 264.5 -407.5Q248 -428 215.5 -464.5Q183 -501 166.5 -521Q150 -541 127.5 -575Q105 -609 95.5 -642.5Q86 -676 86 -713Q86 -737 90 -761Q91 -764 91 -764.5Q91 -765 90.5 -766.5Q90 -768 90 -769Z"/>
</svg>