<svg xmlns="http://www.w3.org/2000/svg" viewBox="0 -1024 1024 1024">
	<path fill="#000088" d="M250 -636Q244 -636 238 -639Q236 -639 231 -639Q189 -639 155 -606Q129 -580 128 -552Q128 -551 127.5 -547.5Q127 -544 127 -543Q127 -520 152 -505Q156 -503 159 -499Q173 -481 196.5 -463Q220 -445 237 -435Q254 -425 289 -406Q315 -421 332 -435Q381 -473 381 -523Q381 -564 366 -587Q354 -604 313 -627Q286 -642 273 -651Q266 -636 250 -636ZM339 -378Q400 -340 428 -293Q430 -289 435 -283Q451 -261 452 -243Q454 -230 454 -217Q454 -156 415 -109Q376 -62 317 -49Q298 -43 278 -43Q234 -43 176 -72Q123 -98 103 -121Q75 -152 75 -199Q75 -258 120 -303Q152 -335 236 -378Q156 -421 122 -465Q77 -495 77 -543Q77 -549 78 -555Q80 -603 120 -642Q144 -665 175 -678H168Q158 -678 151 -685.5Q144 -693 144 -703Q144 -713 151.5 -720.5Q159 -728 169 -728Q169 -728 170 -728L257 -725Q268 -725 275 -716Q293 -695 337 -671Q354 -661 362.5 -656Q371 -651 384.5 -639.5Q398 -628 407 -615Q431 -580 431 -523Q431 -439 339 -378ZM402 -241Q402 -243 395 -252Q388 -261 384 -267Q360 -309 289 -349Q283 -346 259.5 -334Q236 -322 225.5 -316Q215 -310 199 -300Q183 -290 172 -282Q125 -245 125 -199Q125 -171 140 -154Q154 -138 198 -116Q246 -93 278 -93Q291 -93 302 -97Q303 -97 305 -97Q348 -107 376 -140.5Q404 -174 404 -217Q404 -227 402 -237Q402 -239 402 -241Z"/>
	<path fill="#800080" d="M200 -636Q194 -636 188 -639Q186 -639 181 -639Q139 -639 105 -606Q79 -580 78 -552Q78 -551 77.5 -547.5Q77 -544 77 -543Q77 -520 102 -505Q106 -503 109 -499Q123 -481 146.5 -463Q170 -445 187 -435Q204 -425 239 -406Q265 -421 282 -435Q331 -473 331 -523Q331 -564 316 -587Q304 -604 263 -627Q236 -642 223 -651Q216 -636 200 -636ZM289 -378Q350 -340 378 -293Q380 -289 385 -283Q401 -261 402 -243Q404 -230 404 -217Q404 -156 365 -109Q326 -62 267 -49Q248 -43 228 -43Q184 -43 126 -72Q73 -98 53 -121Q25 -152 25 -199Q25 -258 70 -303Q102 -335 186 -378Q106 -421 72 -465Q27 -495 27 -543Q27 -549 28 -555Q30 -603 70 -642Q94 -665 125 -678H118Q108 -678 101 -685.5Q94 -693 94 -703Q94 -713 101.5 -720.5Q109 -728 119 -728Q119 -728 120 -728L207 -725Q218 -725 225 -716Q243 -695 287 -671Q304 -661 312.5 -656Q321 -651 334.5 -639.5Q348 -628 357 -615Q381 -580 381 -523Q381 -439 289 -378ZM352 -241Q352 -243 345 -252Q338 -261 334 -267Q310 -309 239 -349Q233 -346 209.5 -334Q186 -322 175.5 -316Q165 -310 149 -300Q133 -290 122 -282Q75 -245 75 -199Q75 -171 90 -154Q104 -138 148 -116Q196 -93 228 -93Q241 -93 252 -97Q253 -97 255 -97Q298 -107 326 -140.5Q354 -174 354 -217Q354 -227 352 -237Q352 -239 352 -241Z"/>
	<path fill="#daa520" d="M196 -669Q205 -669 205 -661Q205 -656 200 -656Q197 -656 196 -659Q195 -659 194 -659Q192 -659 187.5 -659Q183 -659 181 -659Q137 -659 98 -626.5Q59 -594 58 -553Q58 -551 57.5 -547.5Q57 -544 57 -543Q57 -509 92 -488Q92 -488 93 -487Q100 -477 108.5 -468.5Q117 -460 128.5 -451Q140 -442 147.5 -436Q155 -430 170.5 -421.5Q186 -413 192 -409.5Q198 -406 216.5 -396Q235 -386 239 -384Q293 -413 322 -445Q351 -477 351 -523Q351 -551 345.5 -571Q340 -591 327 -605Q314 -619 304 -625.5Q294 -632 273 -644Q225 -671 204 -695L119 -698Q114 -698 114 -703Q114 -708 119 -708L206 -705Q208 -705 210 -703Q230 -679 277 -653Q299 -641 309.5 -633.5Q320 -626 334.5 -611Q349 -596 355 -574.5Q361 -553 361 -523Q361 -474 331.5 -441Q302 -408 250 -378Q331 -333 360 -283Q363 -278 369 -270Q382 -254 382 -241Q384 -229 384 -217Q384 -163 349 -121.5Q314 -80 261 -68Q246 -63 228 -63Q189 -63 135 -90Q113 -100 101 -107Q89 -114 74 -127.5Q59 -141 52 -158.5Q45 -176 45 -199Q45 -223 54.5 -245Q64 -267 76 -281Q88 -295 113 -312Q138 -329 153 -337.5Q168 -346 199 -362Q218 -372 229 -378Q225 -380 211.5 -387Q198 -394 193.5 -396.5Q189 -399 177 -406Q165 -413 159 -417Q153 -421 143 -427.5Q133 -434 127 -439Q121 -444 112.5 -451Q104 -458 97.5 -465Q91 -472 86 -480Q47 -504 47 -543Q47 -548 48 -553Q50 -599 91.5 -634Q133 -669 181 -669Q190 -669 193 -669Q193 -669 194 -669Q194 -669 195 -669Q196 -669 196 -669ZM372 -241Q372 -250 361 -264Q355 -272 352 -277Q335 -307 307.5 -328.5Q280 -350 239 -372Q228 -366 203 -353Q173 -338 157.5 -329Q142 -320 119 -304Q96 -288 84.5 -274.5Q73 -261 64 -241Q55 -221 55 -199Q55 -178 61 -162.5Q67 -147 81 -135Q95 -123 106 -116Q117 -109 139 -98Q191 -73 228 -73Q244 -73 258 -78Q259 -78 259 -78Q309 -89 341.5 -128Q374 -167 374 -217Q374 -229 372 -240Q372 -241 372 -241Z"/>
</svg>