<svg xmlns="http://www.w3.org/2000/svg" viewBox="0 -1024 1024 1024">
	<path fill="#000088" d="M129 -448Q140 -465 167 -465Q186 -465 215 -458L491 -461Q501 -461 508.5 -453.5Q516 -446 516 -436Q516 -426 508.5 -418.5Q501 -411 491 -411L213 -408Q236 -396 286 -379Q308 -371 318 -367.5Q328 -364 349 -355Q370 -346 381 -338.5Q392 -331 408 -318.5Q424 -306 433 -292.5Q442 -279 450 -260.5Q458 -242 461 -221Q462 -219 462 -217Q462 -191 454.5 -168.5Q447 -146 436.5 -130.5Q426 -115 407 -101Q388 -87 374.5 -79Q361 -71 336.5 -62Q312 -53 301 -49.5Q290 -46 266 -40Q256 -37 245 -37Q228 -37 212 -46.5Q196 -56 189 -64Q182 -72 170 -87Q157 -105 150 -111Q149 -112 149 -112Q129 -132 118 -161.5Q107 -191 105 -208.5Q103 -226 101 -261Q97 -312 92 -333Q91 -335 91 -337Q89 -352 85.5 -382Q82 -412 80 -431Q78 -450 76.5 -476.5Q75 -503 75 -526Q75 -544 76 -554Q76 -585 82 -648.5Q88 -712 88 -742V-748Q88 -758 95 -765.5Q102 -773 112.5 -773Q123 -773 130.5 -765.5Q138 -758 138 -748V-742Q138 -711 132 -647Q126 -583 126 -553Q126 -548 125.5 -539Q125 -530 125 -526Q125 -492 129 -448ZM245 -87Q249 -87 253 -88Q283 -96 301.5 -102Q320 -108 343 -119Q366 -130 379 -142Q392 -154 401.5 -173Q411 -192 412 -215Q408 -235 399 -251Q390 -267 379 -278Q368 -289 348 -299.5Q328 -310 312.5 -316Q297 -322 269 -332Q191 -359 158 -383Q142 -394 133 -406Q140 -348 140 -345Q147 -319 151 -265Q154 -220 160.5 -193Q167 -166 184 -148Q194 -139 210 -117Q223 -101 229 -95Q237 -87 245 -87Z"/>
	<path fill="#800080" d="M79 -448Q90 -465 117 -465Q136 -465 165 -458L441 -461Q451 -461 458.5 -453.5Q466 -446 466 -436Q466 -426 458.5 -418.5Q451 -411 441 -411L163 -408Q186 -396 236 -379Q258 -371 268 -367.5Q278 -364 299 -355Q320 -346 331 -338.5Q342 -331 358 -318.5Q374 -306 383 -292.5Q392 -279 400 -260.5Q408 -242 411 -221Q412 -219 412 -217Q412 -191 404.5 -168.5Q397 -146 386.5 -130.5Q376 -115 357 -101Q338 -87 324.5 -79Q311 -71 286.5 -62Q262 -53 251 -49.5Q240 -46 216 -40Q206 -37 195 -37Q178 -37 162 -46.5Q146 -56 139 -64Q132 -72 120 -87Q107 -105 100 -111Q99 -112 99 -112Q79 -132 68 -161.5Q57 -191 55 -208.5Q53 -226 51 -261Q47 -312 42 -333Q41 -335 41 -337Q39 -352 35.5 -382Q32 -412 30 -431Q28 -450 26.5 -476.5Q25 -503 25 -526Q25 -544 26 -554Q26 -585 32 -648.5Q38 -712 38 -742V-748Q38 -758 45 -765.5Q52 -773 62.5 -773Q73 -773 80.5 -765.5Q88 -758 88 -748V-742Q88 -711 82 -647Q76 -583 76 -553Q76 -548 75.5 -539Q75 -530 75 -526Q75 -492 79 -448ZM195 -87Q199 -87 203 -88Q233 -96 251.5 -102Q270 -108 293 -119Q316 -130 329 -142Q342 -154 351.5 -173Q361 -192 362 -215Q358 -235 349 -251Q340 -267 329 -278Q318 -289 298 -299.5Q278 -310 262.5 -316Q247 -322 219 -332Q141 -359 108 -383Q92 -394 83 -406Q90 -348 90 -345Q97 -319 101 -265Q104 -220 110.5 -193Q117 -166 134 -148Q144 -139 160 -117Q173 -101 179 -95Q187 -87 195 -87Z"/>
	<path fill="#daa520" d="M56 -553Q56 -548 55.5 -539Q55 -530 55 -526Q55 -504 56.5 -478Q58 -452 60 -433.5Q62 -415 65.5 -385Q69 -355 71 -341Q77 -317 81 -264Q83 -231 85.5 -213.5Q88 -196 96.5 -172.5Q105 -149 120 -134Q129 -126 144 -105Q154 -92 160 -85.5Q166 -79 175.5 -73Q185 -67 195 -67Q202 -67 208 -69Q240 -77 257.5 -83Q275 -89 302 -101.5Q329 -114 344 -128Q359 -142 370.5 -165Q382 -188 382 -217Q378 -241 367 -260.5Q356 -280 343.5 -292Q331 -304 308 -316Q285 -328 270 -334Q255 -340 226 -350Q150 -377 120 -399Q94 -417 94 -431Q94 -445 117 -445Q134 -445 162 -438L441 -441Q446 -441 446 -436Q446 -431 441 -431Q162 -428 162 -428Q161 -428 160 -428Q133 -435 117 -435Q104 -435 104 -431Q104 -423 126 -407Q155 -386 229 -360Q259 -349 274 -343.5Q289 -338 313.5 -325Q338 -312 351 -299Q364 -286 376 -265Q388 -244 392 -218Q392 -217 392 -217Q392 -195 385.5 -175.5Q379 -156 370 -142.5Q361 -129 344.5 -116.5Q328 -104 315 -96.5Q302 -89 280 -81Q258 -73 245.5 -69Q233 -65 211 -59Q203 -57 195 -57Q183 -57 171 -64.5Q159 -72 153 -78.5Q147 -85 136 -99Q122 -119 113 -126Q96 -143 87 -168.5Q78 -194 75.5 -211.5Q73 -229 71 -263Q67 -315 61 -339Q59 -354 55.5 -384Q52 -414 50 -432.5Q48 -451 46.5 -477.5Q45 -504 45 -526Q45 -578 52 -649Q58 -712 58 -742V-748Q58 -753 63 -753Q68 -753 68 -748V-742Q68 -711 62 -647.5Q56 -584 56 -553Z"/>
</svg>