<svg xmlns="http://www.w3.org/2000/svg" viewBox="0 -1024 1024 1024">
	<path fill="#000088" d="M568 -755Q535 -755 467.5 -754Q400 -753 367 -753Q276 -753 210 -758Q200 -759 193.5 -766Q187 -773 187 -783Q187 -793 194.5 -800.5Q202 -808 212 -808Q213 -808 214 -808Q278 -803 367 -803Q400 -803 467.5 -804Q535 -805 568 -805Q603 -805 632 -804Q687 -804 795 -793Q903 -782 956 -782H992L1021 -788Q1024 -788 1026 -788Q1036 -788 1043.5 -780.5Q1051 -773 1051 -763Q1051 -754 1045 -747Q1039 -740 1031 -738L999 -732Q996 -732 994 -732H956Q902 -732 794 -743Q686 -754 632 -754Q621 -754 600 -754.5Q579 -755 568 -755ZM663 -268Q662 -268 660 -267.5Q658 -267 657 -267Q647 -267 639.5 -274.5Q632 -282 632 -292Q632 -301 637.5 -307.5Q643 -314 651 -316Q657 -318 663 -318Q665 -318 666.5 -317.5Q668 -317 670 -317Q672 -317 674 -317Q680 -317 685 -316Q691 -343 701 -378L720 -481Q721 -482 721 -483L765 -635Q766 -637 767 -640L811 -724Q813 -727 816 -730Q822 -736 832 -751Q840 -763 844.5 -769Q849 -775 863 -784Q877 -793 893 -793Q911 -793 924 -774Q935 -758 944.5 -725.5Q954 -693 954 -672V-643Q962 -612 976 -565Q977 -609 996 -639Q996 -664 1015 -699Q1028 -722 1028 -731Q1028 -732 1028 -732.5Q1028 -733 1028 -734Q1028 -762 1041 -784Q1045 -791 1050.5 -797Q1056 -803 1059 -805.5Q1062 -808 1069 -813Q1076 -818 1077 -820Q1084 -825 1093 -825Q1103 -825 1110.5 -817.5Q1118 -810 1118 -800Q1118 -788 1109 -780Q1087 -764 1084 -758Q1078 -748 1078 -734Q1078 -733 1078 -732.5Q1078 -732 1078 -731Q1078 -708 1059 -675Q1046 -651 1046 -639Q1046 -638 1046 -635.5Q1046 -633 1046 -632Q1046 -624 1041 -617Q1026 -597 1026 -561Q1026 -560 1026 -558.5Q1026 -557 1026 -556Q1026 -542 1020.5 -516.5Q1015 -491 1014 -485Q1012 -471 1008 -455Q1035 -354 1035 -275Q1035 -257 1034 -238Q1034 -237 1034 -234Q1034 -224 1035 -201Q1036 -178 1036 -166Q1036 -113 1023 -91Q1010 -67 985 -67Q964 -67 952 -72Q939 -78 929 -93Q925 -100 920 -103Q909 -110 908 -123L904 -219Q904 -219 904 -220Q904 -222 904 -224L920 -312Q921 -313 921 -314Q944 -406 949 -427Q954 -444 957 -454Q951 -476 932 -537.5Q913 -599 905 -634Q904 -637 904 -640V-672Q904 -685 896 -712Q892 -728 886 -740Q882 -736 873 -723Q861 -705 853 -697L812 -619L769 -470L750 -367Q749 -366 749 -365Q736 -319 730 -284Q747 -261 756.5 -221.5Q766 -182 766 -144Q766 -137 762 -129Q760 -125 756 -120Q743 -101 727 -86Q721 -80 717 -78Q711 -75 705 -75Q687 -75 681 -92Q670 -125 670 -168Q670 -185 676 -254Q677 -260 677 -266Q675 -267 673 -267Q671 -267 667.5 -267.5Q664 -268 663 -268ZM986 -166Q986 -178 985 -200.5Q984 -223 984 -234Q984 -239 984 -242Q985 -259 985 -275Q985 -309 980 -346L969 -303L954 -218L958 -137Q963 -132 972 -118Q975 -117 980 -117Q986 -131 986 -166ZM397 -121Q412 -121 441.5 -119Q471 -117 485 -117Q504 -117 524 -133Q554 -157 580 -207Q606 -257 620 -308Q632 -350 632 -376Q632 -414 615 -478.5Q598 -543 571 -596Q543 -649 513 -675Q489 -695 465 -695Q405 -695 377 -672Q393 -664 404 -652Q430 -625 430 -576Q430 -551 410 -529Q387 -503 357 -503Q340 -503 327 -513Q319 -519 313 -529Q300 -552 300 -598V-600Q300 -625 305 -645Q258 -660 229 -682L41 -748Q24 -754 24 -772Q24 -782 31.5 -789.5Q39 -797 49 -797Q53 -797 57 -796L249 -728Q253 -726 256 -724Q280 -706 326 -691Q340 -709 360 -721Q400 -745 465 -745Q532 -745 587 -666Q625 -613 651 -532Q682 -440 682 -376Q682 -343 668 -294Q652 -234 622.5 -179Q593 -124 555 -94Q521 -67 485 -67Q470 -67 440.5 -69Q411 -71 397 -71Q312 -71 253 -98Q187 -128 151 -194Q136 -220 125 -255.5Q114 -291 110 -313Q106 -335 99 -378Q88 -441 77.5 -480Q67 -519 49 -546Q44 -552 44 -560Q44 -570 51.5 -577.5Q59 -585 69 -585Q82 -585 89 -574Q107 -550 119.5 -514Q132 -478 136 -456Q140 -434 148 -386Q168 -265 195 -218Q222 -169 270.5 -145Q319 -121 397 -121ZM352 -628Q350 -615 350 -600Q350 -578 352 -566Q354 -558 357 -553Q365 -554 373 -563Q380 -570 380 -576Q380 -598 373.5 -609.5Q367 -621 352 -628Z"/>
	<path fill="#800080" d="M518 -755Q485 -755 417.5 -754Q350 -753 317 -753Q226 -753 160 -758Q150 -759 143.5 -766Q137 -773 137 -783Q137 -793 144.5 -800.5Q152 -808 162 -808Q163 -808 164 -808Q228 -803 317 -803Q350 -803 417.5 -804Q485 -805 518 -805Q553 -805 582 -804Q637 -804 745 -793Q853 -782 906 -782H942L971 -788Q974 -788 976 -788Q986 -788 993.5 -780.5Q1001 -773 1001 -763Q1001 -754 995 -747Q989 -740 981 -738L949 -732Q946 -732 944 -732H906Q852 -732 744 -743Q636 -754 582 -754Q571 -754 550 -754.5Q529 -755 518 -755ZM613 -268Q612 -268 610 -267.5Q608 -267 607 -267Q597 -267 589.5 -274.5Q582 -282 582 -292Q582 -301 587.5 -307.5Q593 -314 601 -316Q607 -318 613 -318Q615 -318 616.5 -317.5Q618 -317 620 -317Q622 -317 624 -317Q630 -317 635 -316Q641 -343 651 -378L670 -481Q671 -482 671 -483L715 -635Q716 -637 717 -640L761 -724Q763 -727 766 -730Q772 -736 782 -751Q790 -763 794.5 -769Q799 -775 813 -784Q827 -793 843 -793Q861 -793 874 -774Q885 -758 894.5 -725.5Q904 -693 904 -672V-643Q912 -612 926 -565Q927 -609 946 -639Q946 -664 965 -699Q978 -722 978 -731Q978 -732 978 -732.5Q978 -733 978 -734Q978 -762 991 -784Q995 -791 1000.5 -797Q1006 -803 1009 -805.5Q1012 -808 1019 -813Q1026 -818 1027 -820Q1034 -825 1043 -825Q1053 -825 1060.5 -817.5Q1068 -810 1068 -800Q1068 -788 1059 -780Q1037 -764 1034 -758Q1028 -748 1028 -734Q1028 -733 1028 -732.5Q1028 -732 1028 -731Q1028 -708 1009 -675Q996 -651 996 -639Q996 -638 996 -635.5Q996 -633 996 -632Q996 -624 991 -617Q976 -597 976 -561Q976 -560 976 -558.5Q976 -557 976 -556Q976 -542 970.5 -516.5Q965 -491 964 -485Q962 -471 958 -455Q985 -354 985 -275Q985 -257 984 -238Q984 -237 984 -234Q984 -224 985 -201Q986 -178 986 -166Q986 -113 973 -91Q960 -67 935 -67Q914 -67 902 -72Q889 -78 879 -93Q875 -100 870 -103Q859 -110 858 -123L854 -219Q854 -219 854 -220Q854 -222 854 -224L870 -312Q871 -313 871 -314Q894 -406 899 -427Q904 -444 907 -454Q901 -476 882 -537.5Q863 -599 855 -634Q854 -637 854 -640V-672Q854 -685 846 -712Q842 -728 836 -740Q832 -736 823 -723Q811 -705 803 -697L762 -619L719 -470L700 -367Q699 -366 699 -365Q686 -319 680 -284Q697 -261 706.5 -221.5Q716 -182 716 -144Q716 -137 712 -129Q710 -125 706 -120Q693 -101 677 -86Q671 -80 667 -78Q661 -75 655 -75Q637 -75 631 -92Q620 -125 620 -168Q620 -185 626 -254Q627 -260 627 -266Q625 -267 623 -267Q621 -267 617.5 -267.5Q614 -268 613 -268ZM936 -166Q936 -178 935 -200.5Q934 -223 934 -234Q934 -239 934 -242Q935 -259 935 -275Q935 -309 930 -346L919 -303L904 -218L908 -137Q913 -132 922 -118Q925 -117 930 -117Q936 -131 936 -166ZM347 -121Q362 -121 391.5 -119Q421 -117 435 -117Q454 -117 474 -133Q504 -157 530 -207Q556 -257 570 -308Q582 -350 582 -376Q582 -414 565 -478.5Q548 -543 521 -596Q493 -649 463 -675Q439 -695 415 -695Q355 -695 327 -672Q343 -664 354 -652Q380 -625 380 -576Q380 -551 360 -529Q337 -503 307 -503Q290 -503 277 -513Q269 -519 263 -529Q250 -552 250 -598V-600Q250 -625 255 -645Q208 -660 179 -682L-9 -748Q-26 -754 -26 -772Q-26 -782 -18.5 -789.5Q-11 -797 -1 -797Q3 -797 7 -796L199 -728Q203 -726 206 -724Q230 -706 276 -691Q290 -709 310 -721Q350 -745 415 -745Q482 -745 537 -666Q575 -613 601 -532Q632 -440 632 -376Q632 -343 618 -294Q602 -234 572.5 -179Q543 -124 505 -94Q471 -67 435 -67Q420 -67 390.5 -69Q361 -71 347 -71Q262 -71 203 -98Q137 -128 101 -194Q86 -220 75 -255.5Q64 -291 60 -313Q56 -335 49 -378Q38 -441 27.5 -480Q17 -519 -1 -546Q-6 -552 -6 -560Q-6 -570 1.5 -577.5Q9 -585 19 -585Q32 -585 39 -574Q57 -550 69.5 -514Q82 -478 86 -456Q90 -434 98 -386Q118 -265 145 -218Q172 -169 220.5 -145Q269 -121 347 -121ZM302 -628Q300 -615 300 -600Q300 -578 302 -566Q304 -558 307 -553Q315 -554 323 -563Q330 -570 330 -576Q330 -598 323.5 -609.5Q317 -621 302 -628Z"/>
	<path fill="#daa520" d="M518 -775Q485 -775 417.5 -774Q350 -773 317 -773Q226 -773 162 -778Q157 -778 157 -783Q157 -788 162 -788Q227 -783 317 -783Q350 -783 417.5 -784Q485 -785 518 -785Q553 -785 582 -784Q636 -784 744.5 -773Q853 -762 906 -762H944L975 -768Q976 -768 976 -768Q981 -768 981 -763Q981 -759 977 -758L945 -752Q944 -752 944 -752H906Q852 -752 744 -763Q636 -774 582 -774Q571 -774 550 -774.5Q529 -775 518 -775ZM613 -288Q612 -288 610 -287.5Q608 -287 607 -287Q602 -287 602 -292Q602 -298 613 -298Q637 -298 650 -287Q656 -324 670 -373L690 -477L734 -629Q734 -630 735 -630L779 -714Q779 -715 780 -716Q787 -723 798 -740Q806 -751 810 -756Q814 -761 823.5 -767Q833 -773 843 -773Q851 -773 858 -763Q864 -754 870 -736Q884 -697 884 -672V-641Q892 -608 910.5 -547Q929 -486 932 -475Q933 -482 934 -488.5Q935 -495 940.5 -520Q946 -545 946 -556Q946 -559 946 -561Q946 -605 966 -633Q966 -636 966 -639Q966 -658 983 -689Q998 -716 998 -731Q998 -732 998 -732.5Q998 -733 998 -734Q998 -743 999 -750.5Q1000 -758 1003.5 -764Q1007 -770 1009 -774.5Q1011 -779 1016.5 -784Q1022 -789 1024 -791Q1026 -793 1032.5 -798Q1039 -803 1040 -804Q1041 -805 1043 -805Q1048 -805 1048 -800Q1048 -798 1046 -796Q1045 -795 1037.5 -789.5Q1030 -784 1028.5 -782Q1027 -780 1021.5 -774Q1016 -768 1014 -763.5Q1012 -759 1010 -751Q1008 -743 1008 -734Q1008 -733 1008 -732.5Q1008 -732 1008 -731Q1008 -714 992 -685Q976 -656 976 -639Q976 -638 976 -635.5Q976 -633 976 -632Q976 -630 975 -629Q956 -603 956 -561Q956 -560 956 -558.5Q956 -557 956 -556Q956 -544 950.5 -519Q945 -494 944 -487Q942 -472 938 -454Q965 -352 965 -275Q965 -257 964 -240Q964 -237 964 -234Q964 -224 965 -201Q966 -178 966 -166Q966 -119 956 -100Q948 -87 935 -87Q918 -87 910 -91Q902 -94 895.5 -104Q889 -114 880 -120Q878 -121 878 -124L874 -220Q874 -220 874 -221L890 -309Q913 -401 919 -421Q925 -443 927 -454Q921 -478 902 -541Q883 -604 874 -639Q874 -639 874 -640V-672Q874 -695 861 -733Q855 -749 850 -757Q846 -763 843 -763Q832 -763 824.5 -756Q817 -749 807 -734Q795 -717 787 -709L744 -626L700 -475L680 -371Q665 -318 659 -279Q664 -273 669 -266Q696 -219 696 -144Q696 -140 690 -132Q678 -114 663 -100Q661 -98 660 -97Q657 -95 655 -95Q651 -95 650 -98Q640 -128 640 -168Q640 -184 646 -252Q647 -264 649 -276Q637 -287 623 -287Q621 -287 617.5 -287.5Q614 -288 613 -288ZM954 -234Q954 -238 954 -240Q955 -258 955 -275Q955 -345 933 -434Q931 -429 928 -419Q923 -399 900 -307L884 -220L888 -127Q897 -121 904 -110Q909 -102 915 -99.5Q921 -97 935 -97Q942 -97 947 -105Q956 -121 956 -166Q956 -178 955 -201Q954 -224 954 -234ZM650 -168Q650 -134 658 -109Q679 -130 685 -143L686 -144Q686 -198 669 -242Q664 -255 657 -265Q657 -258 656 -252Q650 -183 650 -168ZM347 -101Q362 -101 391 -99Q420 -97 435 -97Q491 -97 543 -188Q569 -234 585.5 -289Q602 -344 602 -376Q602 -417 584.5 -483.5Q567 -550 539 -605Q482 -715 415 -715Q323 -715 294 -664Q326 -652 343 -633.5Q360 -615 360 -576Q360 -556 342.5 -539.5Q325 -523 307 -523Q270 -523 270 -595Q270 -596 270 -597.5Q270 -599 270 -600Q270 -633 280 -658Q278 -659 269 -661.5Q260 -664 257 -665Q254 -666 246 -669Q238 -672 234 -673.5Q230 -675 223 -678.5Q216 -682 211 -684.5Q206 -687 200 -691Q194 -695 189 -700L-3 -767Q-6 -768 -6 -772Q-6 -777 -1 -777Q0 -777 1 -777L193 -709Q193 -708 194 -708Q201 -702 209.5 -697.5Q218 -693 223.5 -690Q229 -687 239.5 -682.5Q250 -678 253 -677Q256 -676 269.5 -671.5Q283 -667 285 -667Q316 -725 415 -725Q488 -725 548 -610Q577 -553 594.5 -486Q612 -419 612 -376Q612 -342 595 -286.5Q578 -231 551 -183Q497 -87 435 -87Q420 -87 391 -89Q362 -91 347 -91Q281 -91 232 -109.5Q183 -128 156.5 -151.5Q130 -175 110.5 -221Q91 -267 84.5 -296.5Q78 -326 68 -381Q61 -425 56.5 -449Q52 -473 41 -504.5Q30 -536 15 -557Q14 -558 14 -560Q14 -565 19 -565Q22 -565 23 -563Q39 -541 50.5 -507.5Q62 -474 66.5 -451Q71 -428 78 -383Q78 -383 78 -382Q85 -342 89 -322Q93 -302 103 -266.5Q113 -231 124 -212Q135 -193 155.5 -168.5Q176 -144 201 -131.5Q226 -119 263.5 -110Q301 -101 347 -101ZM350 -576Q350 -612 335.5 -628Q321 -644 290 -655Q280 -632 280 -600Q280 -533 307 -533Q321 -533 335.5 -547Q350 -561 350 -576Z"/>
</svg>