<svg xmlns="http://www.w3.org/2000/svg" viewBox="0 -1024 1024 1024">
	<path fill="#000088" d="M74 -385Q72 -385 70 -385Q68 -385 67 -385Q67 -385 66 -385Q65 -385 64 -385Q58 -386 53 -388Q41 -396 41 -410Q41 -429 52 -448Q62 -468 83 -490Q112 -519 195 -582Q289 -653 323 -689Q334 -700 343 -711Q294 -680 261 -664Q212 -641 177 -641Q155 -641 137 -649Q95 -653 71 -682Q55 -701 55 -725Q55 -728 55 -731Q55 -749 56 -767Q55 -767 55 -767Q54 -767 52.5 -767Q51 -767 50 -767Q39 -767 32 -774.5Q25 -782 25 -792Q25 -802 32.5 -809.5Q40 -817 50 -817Q51 -817 52.5 -817Q54 -817 55 -817Q60 -817 64 -817Q75 -853 100.5 -880.5Q126 -908 165 -938Q172 -943 180 -943Q198 -943 234.5 -946Q271 -949 289 -949Q297 -950 305 -950Q312 -950 316 -949Q324 -948 330 -945Q343 -937 343 -922Q343 -917 341 -912Q311 -844 233 -805Q177 -778 107 -770Q105 -750 105 -730Q105 -729 105 -727.5Q105 -726 105 -725Q105 -719 109 -714Q121 -700 145 -699Q151 -699 156 -696Q164 -691 176 -691Q201 -691 240 -710Q271 -724 328 -761Q354 -778 364 -783Q372 -788 378 -790Q386 -793 392 -793Q407 -793 415 -782Q421 -774 421 -764Q421 -763 421 -762Q437 -785 448 -795Q453 -800 457 -802Q465 -806 472 -806Q474 -806 475 -806L518 -813Q520 -813 522 -813Q532 -813 539.5 -805.5Q547 -798 547 -788Q547 -779 541 -772Q535 -765 526 -763L479 -756Q470 -746 459 -727Q404 -611 390 -558Q390 -557 389 -555Q367 -493 355 -425Q343 -357 334 -261Q358 -215 368 -168Q375 -139 375 -122Q375 -103 366 -92.5Q357 -82 343 -82Q331 -82 318 -92Q309 -99 299 -111Q288 -125 277 -140Q273 -146 273 -154Q273 -155 273 -157Q277 -187 283 -250Q246 -315 195 -351Q146 -385 93 -385Q92 -385 89.5 -385Q87 -385 86 -385ZM275 -899Q263 -898 234 -895.5Q205 -893 189 -893Q139 -854 121 -823Q227 -840 275 -899ZM291 -328Q307 -476 342 -571Q354 -618 381 -678Q372 -667 359 -654Q322 -615 225 -542Q145 -482 119 -455Q109 -444 102 -435Q209 -430 291 -328Z"/>
	<path fill="#800080" d="M24 -385Q22 -385 20 -385Q18 -385 17 -385Q17 -385 16 -385Q15 -385 14 -385Q8 -386 3 -388Q-9 -396 -9 -410Q-9 -429 2 -448Q12 -468 33 -490Q62 -519 145 -582Q239 -653 273 -689Q284 -700 293 -711Q244 -680 211 -664Q162 -641 127 -641Q105 -641 87 -649Q45 -653 21 -682Q5 -701 5 -725Q5 -728 5 -731Q5 -749 6 -767Q5 -767 5 -767Q4 -767 2.5 -767Q1 -767 0 -767Q-11 -767 -18 -774.5Q-25 -782 -25 -792Q-25 -802 -17.5 -809.5Q-10 -817 0 -817Q1 -817 2.5 -817Q4 -817 5 -817Q10 -817 14 -817Q25 -853 50.5 -880.5Q76 -908 115 -938Q122 -943 130 -943Q148 -943 184.5 -946Q221 -949 239 -949Q247 -950 255 -950Q262 -950 266 -949Q274 -948 280 -945Q293 -937 293 -922Q293 -917 291 -912Q261 -844 183 -805Q127 -778 57 -770Q55 -750 55 -730Q55 -729 55 -727.5Q55 -726 55 -725Q55 -719 59 -714Q71 -700 95 -699Q101 -699 106 -696Q114 -691 126 -691Q151 -691 190 -710Q221 -724 278 -761Q304 -778 314 -783Q322 -788 328 -790Q336 -793 342 -793Q357 -793 365 -782Q371 -774 371 -764Q371 -763 371 -762Q387 -785 398 -795Q403 -800 407 -802Q415 -806 422 -806Q424 -806 425 -806L468 -813Q470 -813 472 -813Q482 -813 489.5 -805.5Q497 -798 497 -788Q497 -779 491 -772Q485 -765 476 -763L429 -756Q420 -746 409 -727Q354 -611 340 -558Q340 -557 339 -555Q317 -493 305 -425Q293 -357 284 -261Q308 -215 318 -168Q325 -139 325 -122Q325 -103 316 -92.5Q307 -82 293 -82Q281 -82 268 -92Q259 -99 249 -111Q238 -125 227 -140Q223 -146 223 -154Q223 -155 223 -157Q227 -187 233 -250Q196 -315 145 -351Q96 -385 43 -385Q42 -385 39.5 -385Q37 -385 36 -385ZM225 -899Q213 -898 184 -895.5Q155 -893 139 -893Q89 -854 71 -823Q177 -840 225 -899ZM241 -328Q257 -476 292 -571Q304 -618 331 -678Q322 -667 309 -654Q272 -615 175 -542Q95 -482 69 -455Q59 -444 52 -435Q159 -430 241 -328Z"/>
	<path fill="#daa520" d="M16 -405Q11 -405 11 -410Q11 -438 48 -476Q75 -504 157 -566Q198 -597 221.5 -615.5Q245 -634 275 -662Q305 -690 321 -714.5Q337 -739 341 -763Q336 -761 328 -757Q319 -752 294 -735Q259 -713 239.5 -701Q220 -689 185.5 -675Q151 -661 126 -661Q107 -661 93 -669Q67 -670 46 -685Q25 -700 25 -725Q25 -728 25 -730Q25 -758 29 -788Q17 -787 5 -787Q4 -787 2.5 -787Q1 -787 0 -787Q-5 -787 -5 -792Q-5 -797 5 -797Q17 -797 30 -798Q37 -834 62 -862.5Q87 -891 127 -922Q128 -923 130 -923Q148 -923 185 -926Q222 -929 240 -929Q248 -930 255 -930Q262 -930 266 -929Q273 -927 273 -922Q273 -921 273 -920Q246 -859 181 -826.5Q116 -794 39 -788Q35 -758 35 -730Q35 -729 35 -727.5Q35 -726 35 -725Q35 -705 53 -692.5Q71 -680 94 -679Q95 -679 96 -678Q109 -671 126 -671Q176 -671 288 -744Q314 -761 324 -766Q336 -773 342 -773Q351 -773 351 -764Q351 -763 351 -761Q348 -741 334 -718Q320 -695 305 -678Q290 -661 260.5 -635.5Q231 -610 214.5 -597.5Q198 -585 163 -558Q82 -497 55 -469Q24 -438 21 -415Q23 -415 24 -415H36Q39 -415 43 -415Q108 -415 163 -375Q218 -335 255 -272Q272 -446 311 -565Q338 -647 381 -740Q385 -749 400 -767Q407 -776 412 -781Q418 -786 422 -786Q424 -786 425 -785L471 -793Q472 -793 472 -793Q477 -793 477 -788Q477 -784 473 -783L425 -775Q424 -775 424 -775Q423 -775 422 -776Q416 -771 410 -764Q399 -750 391 -736Q335 -618 321 -563Q321 -563 321 -562Q304 -517 292 -460.5Q280 -404 275 -363.5Q270 -323 264 -257Q288 -211 299 -163Q305 -136 305 -122Q305 -102 293 -102Q287 -102 280 -108Q273 -113 265 -124Q254 -137 244 -151Q243 -152 243 -154Q243 -154 243 -155Q246 -184 253 -254Q218 -320 163 -362.5Q108 -405 43 -405Q42 -405 39.5 -405Q37 -405 36 -405H24Q22 -405 20 -405Q18 -405 17 -405Q17 -405 16 -405ZM240 -919Q222 -919 185.5 -916Q149 -913 132 -913Q94 -884 70.5 -857.5Q47 -831 41 -799Q113 -805 174 -834.5Q235 -864 261 -919Q258 -920 255 -920Q252 -920 248.5 -919.5Q245 -919 242.5 -919Q240 -919 240 -919ZM295 -122Q295 -135 289 -161Q280 -200 262 -238Q257 -184 253 -155Q263 -141 272 -130Q280 -121 286 -116Q291 -112 293 -112Q295 -114 295 -122Z"/>
</svg>