<svg xmlns="http://www.w3.org/2000/svg" viewBox="0 -1024 1024 1024">
	<path fill="#000088" d="M167 -248Q167 -249 167 -250.5Q167 -252 167 -252Q167 -259 161 -268Q157 -275 157 -282Q157 -292 164.5 -299.5Q172 -307 182 -307Q196 -307 203 -296Q217 -274 217 -252Q217 -214 209 -196Q197 -171 172 -171Q167 -171 157.5 -170Q148 -169 142 -169Q141 -169 140 -169Q107 -172 82.5 -195Q58 -218 57 -251Q57 -257 57 -264Q57 -268 57 -276Q57 -284 57 -288Q57 -341 82 -375Q131 -444 199 -447Q204 -447 208 -447Q243 -447 277 -435Q288 -489 329 -580Q360 -649 415.5 -701Q471 -753 539 -786Q541 -787 542 -788Q547 -789 556 -793.5Q565 -798 573.5 -800.5Q582 -803 592 -803Q604 -803 611.5 -796Q619 -789 619 -778Q619 -768 611.5 -760.5Q604 -753 594 -753Q594 -753 593 -753Q592 -753 592 -753Q589 -753 583 -751Q577 -749 570 -745.5Q563 -742 560 -741Q420 -671 375 -561Q375 -560 374 -559Q337 -487 323 -411Q383 -372 420 -303Q457 -234 457 -164Q457 -151 454 -135Q451 -119 444 -108Q430 -87 407 -87Q396 -84 385 -84Q350 -84 322.5 -106Q295 -128 291 -163Q289 -182 277 -234.5Q265 -287 265 -322Q265 -353 269 -384Q239 -397 208 -397Q205 -397 201 -397Q181 -396 159.5 -382Q138 -368 122.5 -346Q107 -324 107 -288Q107 -284 107 -276Q107 -268 107 -264Q107 -258 107 -253Q107 -240 117 -230.5Q127 -221 143 -219Q147 -219 154.5 -220Q162 -221 165 -221Q167 -229 167 -248ZM385 -134Q391 -134 397 -136Q400 -137 403 -137Q406 -145 407 -165Q407 -214 382 -267Q357 -320 316 -354Q315 -338 315 -322Q315 -292 328 -236Q338 -193 341 -169Q342 -155 355 -144.5Q368 -134 385 -134ZM506 -749Q501 -749 490 -749Q479 -749 474 -749Q439 -749 416 -753H38Q28 -753 20.5 -760.5Q13 -768 13 -778Q13 -788 20.5 -795.5Q28 -803 38 -803H418Q420 -803 423 -803Q442 -799 474 -799Q479 -799 490 -799Q501 -799 506 -799Q508 -799 510 -799Q520 -799 527.5 -791.5Q535 -784 535 -774Q535 -764 527.5 -756.5Q520 -749 510 -749Q509 -749 508 -749Q507 -749 506 -749Z"/>
	<path fill="#800080" d="M117 -248Q117 -249 117 -250.5Q117 -252 117 -252Q117 -259 111 -268Q107 -275 107 -282Q107 -292 114.5 -299.5Q122 -307 132 -307Q146 -307 153 -296Q167 -274 167 -252Q167 -214 159 -196Q147 -171 122 -171Q117 -171 107.5 -170Q98 -169 92 -169Q91 -169 90 -169Q57 -172 32.5 -195Q8 -218 7 -251Q7 -257 7 -264Q7 -268 7 -276Q7 -284 7 -288Q7 -341 32 -375Q81 -444 149 -447Q154 -447 158 -447Q193 -447 227 -435Q238 -489 279 -580Q310 -649 365.5 -701Q421 -753 489 -786Q491 -787 492 -788Q497 -789 506 -793.5Q515 -798 523.5 -800.5Q532 -803 542 -803Q554 -803 561.5 -796Q569 -789 569 -778Q569 -768 561.5 -760.5Q554 -753 544 -753Q544 -753 543 -753Q542 -753 542 -753Q539 -753 533 -751Q527 -749 520 -745.5Q513 -742 510 -741Q370 -671 325 -561Q325 -560 324 -559Q287 -487 273 -411Q333 -372 370 -303Q407 -234 407 -164Q407 -151 404 -135Q401 -119 394 -108Q380 -87 357 -87Q346 -84 335 -84Q300 -84 272.5 -106Q245 -128 241 -163Q239 -182 227 -234.5Q215 -287 215 -322Q215 -353 219 -384Q189 -397 158 -397Q155 -397 151 -397Q131 -396 109.5 -382Q88 -368 72.5 -346Q57 -324 57 -288Q57 -284 57 -276Q57 -268 57 -264Q57 -258 57 -253Q57 -240 67 -230.5Q77 -221 93 -219Q97 -219 104.5 -220Q112 -221 115 -221Q117 -229 117 -248ZM335 -134Q341 -134 347 -136Q350 -137 353 -137Q356 -145 357 -165Q357 -214 332 -267Q307 -320 266 -354Q265 -338 265 -322Q265 -292 278 -236Q288 -193 291 -169Q292 -155 305 -144.5Q318 -134 335 -134ZM456 -749Q451 -749 440 -749Q429 -749 424 -749Q389 -749 366 -753H-12Q-22 -753 -29.5 -760.5Q-37 -768 -37 -778Q-37 -788 -29.5 -795.5Q-22 -803 -12 -803H368Q370 -803 373 -803Q392 -799 424 -799Q429 -799 440 -799Q451 -799 456 -799Q458 -799 460 -799Q470 -799 477.5 -791.5Q485 -784 485 -774Q485 -764 477.5 -756.5Q470 -749 460 -749Q459 -749 458 -749Q457 -749 456 -749Z"/>
	<path fill="#daa520" d="M137 -248Q137 -249 137 -250.5Q137 -252 137 -252Q137 -265 128 -279Q127 -281 127 -282Q127 -287 132 -287Q135 -287 136 -285Q147 -268 147 -252Q147 -250 147 -248Q147 -247 147 -247Q147 -191 122 -191Q117 -191 107 -190Q97 -189 92 -189Q65 -191 46.5 -209Q28 -227 27 -252Q27 -257 27 -264Q27 -268 27 -276Q27 -284 27 -288Q27 -334 48 -363Q67 -390 93.5 -408Q120 -426 150 -427Q154 -427 158 -427Q201 -427 242 -406Q253 -472 297 -572Q326 -637 379.5 -686.5Q433 -736 498 -768Q498 -769 498 -769Q503 -770 511.5 -774Q520 -778 527 -780.5Q534 -783 542 -783Q549 -783 549 -778Q549 -773 544 -773Q544 -773 543 -773Q542 -773 542 -773Q536 -773 529 -770.5Q522 -768 514 -764.5Q506 -761 502 -759Q355 -687 307 -568Q307 -568 306 -568Q265 -487 251 -401Q311 -367 349 -299Q387 -231 387 -164Q387 -164 387 -163Q383 -107 357 -107Q356 -107 354 -107Q345 -104 335 -104Q307 -104 285.5 -121.5Q264 -139 261 -165Q259 -184 247 -236.5Q235 -289 235 -322Q235 -359 240 -396Q200 -417 158 -417Q154 -417 150 -417Q124 -416 99 -399Q74 -382 56 -357Q37 -331 37 -288Q37 -284 37 -276Q37 -268 37 -264Q37 -257 37 -252Q37 -231 53 -216Q69 -201 92 -199Q97 -199 107 -200Q117 -201 122 -201Q137 -201 137 -248ZM377 -164Q377 -228 341.5 -292.5Q306 -357 250 -391Q245 -356 245 -322Q245 -290 257 -238Q269 -186 271 -167Q273 -144 292 -129Q311 -114 335 -114Q344 -114 353 -117Q353 -117 354 -117Q354 -117 355 -117Q356 -117 357 -117Q374 -117 377 -164ZM456 -769Q451 -769 440 -769Q429 -769 424 -769Q390 -769 368 -773H-12Q-17 -773 -17 -778Q-17 -783 -12 -783H368Q368 -783 369 -783Q390 -779 424 -779Q429 -779 440 -779Q451 -779 456 -779Q465 -779 465 -774Q465 -769 456 -769Z"/>
</svg>