<svg xmlns="http://www.w3.org/2000/svg" viewBox="0 -1024 1024 1024">
	<path fill="#000088" d="M-184 -1029Q-184 -1029 -182.5 -1029Q-181 -1029 -180 -1029Q-153 -1029 -138 -1008Q-128 -993 -128 -974Q-128 -948 -145 -938Q-153 -934 -162 -934Q-165 -934 -168 -935Q-180 -938 -196 -944Q-209 -950 -214 -954Q-229 -961 -229 -977Q-229 -983 -226 -988L-214 -1012Q-210 -1021 -200 -1025Q-195 -1028 -189 -1029Q-186 -1029 -184 -1029ZM-402 -957Q-391 -957 -384 -949Q-351 -916 -284 -896Q-279 -894 -264.5 -889Q-250 -884 -239.5 -881.5Q-229 -879 -219 -879Q-186 -880 -163.5 -881.5Q-141 -883 -112.5 -888Q-84 -893 -64 -901Q-44 -909 -24.5 -924Q-5 -939 9 -960Q16 -972 30 -972Q40 -972 47.5 -964.5Q55 -957 55 -947Q55 -940 51 -934Q36 -910 16.5 -891.5Q-3 -873 -27.5 -862.5Q-52 -852 -72.5 -845Q-93 -838 -123.5 -835Q-154 -832 -171 -831Q-188 -830 -218 -829Q-219 -829 -219 -829Q-234 -829 -247 -832Q-260 -835 -276 -840.5Q-292 -846 -298 -848Q-378 -871 -420 -915Q-427 -922 -427 -932Q-427 -942 -419.5 -949.5Q-412 -957 -402 -957Z"/>
	<path fill="#800080" d="M-234 -1029Q-234 -1029 -232.5 -1029Q-231 -1029 -230 -1029Q-203 -1029 -188 -1008Q-178 -993 -178 -974Q-178 -948 -195 -938Q-203 -934 -212 -934Q-215 -934 -218 -935Q-230 -938 -246 -944Q-259 -950 -264 -954Q-279 -961 -279 -977Q-279 -983 -276 -988L-264 -1012Q-260 -1021 -250 -1025Q-245 -1028 -239 -1029Q-236 -1029 -234 -1029ZM-452 -957Q-441 -957 -434 -949Q-401 -916 -334 -896Q-329 -894 -314.5 -889Q-300 -884 -289.5 -881.5Q-279 -879 -269 -879Q-236 -880 -213.5 -881.5Q-191 -883 -162.5 -888Q-134 -893 -114 -901Q-94 -909 -74.5 -924Q-55 -939 -41 -960Q-34 -972 -20 -972Q-10 -972 -2.5 -964.5Q5 -957 5 -947Q5 -940 1 -934Q-14 -910 -33.5 -891.5Q-53 -873 -77.5 -862.5Q-102 -852 -122.5 -845Q-143 -838 -173.5 -835Q-204 -832 -221 -831Q-238 -830 -268 -829Q-269 -829 -269 -829Q-284 -829 -297 -832Q-310 -835 -326 -840.5Q-342 -846 -348 -848Q-428 -871 -470 -915Q-477 -922 -477 -932Q-477 -942 -469.5 -949.5Q-462 -957 -452 -957Z"/>
	<path fill="#daa520" d="M-208 -974Q-208 -999 -230 -999Q-232 -999 -234 -999Q-236 -998 -238 -997L-247 -979Q-245 -979 -243 -976Q-232 -969 -211 -964Q-208 -965 -208 -974ZM-259 -977Q-259 -978 -258 -979L-246 -1003Q-246 -1005 -240 -1007Q-239 -1009 -234 -1009Q-234 -1009 -232.5 -1009Q-231 -1009 -230 -1009Q-215 -1009 -206.5 -999Q-198 -989 -198 -974Q-198 -954 -212 -954Q-213 -954 -213 -954Q-234 -959 -248 -967Q-252 -970 -253 -972Q-253 -972 -254 -972Q-259 -972 -259 -977ZM-457 -932Q-457 -937 -452 -937Q-450 -937 -448 -935Q-412 -898 -340 -877Q-334 -875 -319 -869.5Q-304 -864 -292.5 -861.5Q-281 -859 -269 -859Q-234 -860 -212.5 -861.5Q-191 -863 -159 -868Q-127 -873 -106 -882Q-85 -891 -62.5 -908.5Q-40 -926 -24 -950Q-23 -952 -20 -952Q-15 -952 -15 -947Q-15 -946 -16 -944Q-32 -919 -56 -900.5Q-80 -882 -102 -872.5Q-124 -863 -157.5 -857.5Q-191 -852 -212 -851Q-233 -850 -269 -849Q-282 -849 -294 -851.5Q-306 -854 -321.5 -860Q-337 -866 -342 -867Q-417 -889 -456 -929Q-457 -930 -457 -932Z"/>
</svg>