<svg xmlns="http://www.w3.org/2000/svg" viewBox="0 -1024 1024 1024">
	<path fill="#000088" d="M338 -760Q328 -760 320.5 -767.5Q313 -775 313 -785Q313 -795 320.5 -802.5Q328 -810 338 -810H868Q878 -810 885.5 -802.5Q893 -795 893 -785Q893 -775 885.5 -767.5Q878 -760 868 -760ZM684 -210Q684 -214 684 -221.5Q684 -229 684 -233Q684 -246 685 -255Q650 -293 620 -305Q604 -311 604 -328Q604 -338 611.5 -345.5Q619 -353 629 -353Q634 -353 638 -351Q669 -339 701 -311Q709 -341 718 -400Q727 -459 733 -485Q733 -486 733 -486Q758 -588 800 -653Q809 -668 820 -682Q831 -696 838 -704.5Q845 -713 859.5 -727.5Q874 -742 879 -746.5Q884 -751 902.5 -767Q921 -783 924 -787Q931 -793 940 -793L1016 -797Q1016 -797 1017 -797Q1027 -797 1034.5 -789.5Q1042 -782 1042 -772Q1042 -762 1035 -755Q1028 -748 1018 -747L951 -743Q949 -741 939 -732.5Q929 -724 926.5 -721.5Q924 -719 915 -711Q906 -703 903 -700Q900 -697 892.5 -689.5Q885 -682 881.5 -678Q878 -674 872 -667Q866 -660 861.5 -654Q857 -648 852 -641Q847 -634 842 -627Q805 -568 781 -474Q777 -455 765.5 -381.5Q754 -308 741 -268Q793 -201 798 -138Q798 -137 798 -136Q798 -123 791.5 -110Q785 -97 780 -92Q775 -87 765 -76Q758 -70 755 -65Q753 -62 752 -58Q746 -43 729 -43Q719 -43 711.5 -50.5Q704 -58 704 -68Q704 -77 708 -84Q708 -88 708 -91Q708 -112 694 -141Q684 -163 684 -200Q684 -201 684 -202.5Q684 -204 684 -204.5Q684 -205 684 -206Q684 -207 684 -208Q684 -208 684 -209Q684 -210 684 -210ZM746 -148Q743 -164 735 -181Q736 -173 746 -148ZM93 -747Q90 -747 85 -747Q80 -747 77 -747H57Q47 -747 39.5 -754.5Q32 -762 32 -772Q32 -782 39.5 -789.5Q47 -797 57 -797H77Q80 -797 85 -797Q90 -797 93 -797Q204 -797 266 -783Q326 -769 363 -740Q389 -752 416 -752Q437 -752 457 -745Q520 -744 570 -699Q614 -659 638 -598Q662 -537 662 -476Q662 -464 662 -460Q660 -449 658 -426Q653 -359 637 -327Q623 -265 585 -213.5Q547 -162 490 -141Q476 -135 446 -122Q417 -109 403 -103Q389 -97 362 -90Q335 -83 312 -83Q286 -78 263 -78Q225 -78 194 -92.5Q163 -107 143.5 -129.5Q124 -152 109.5 -183.5Q95 -215 87.5 -245Q80 -275 76 -309Q75 -320 54 -382L35 -416Q32 -422 32 -428Q32 -438 39.5 -445.5Q47 -453 57 -453Q72 -453 79 -440L99 -404Q100 -402 101 -400Q107 -382 114 -359Q125 -325 126 -315Q134 -230 167 -179Q200 -128 263 -128Q282 -128 304 -132Q306 -133 309 -133Q333 -133 360 -141.5Q387 -150 423.5 -166.5Q460 -183 472 -187Q516 -204 547 -246Q578 -288 588 -341Q589 -345 591 -348Q604 -371 608 -430Q610 -454 612 -466Q612 -471 612 -476Q612 -526 591.5 -578.5Q571 -631 536 -662Q500 -695 456 -695Q455 -695 454 -695Q453 -695 453 -695Q448 -695 444 -697Q431 -702 416 -702Q408 -702 400 -700Q422 -664 422 -616Q422 -588 404.5 -565.5Q387 -543 357 -543Q338 -543 323 -552Q307 -562 299 -582Q292 -600 292 -633Q292 -677 320 -709Q294 -725 255 -734Q198 -747 93 -747ZM342 -628Q342 -609 345 -600Q347 -596 348 -595Q351 -593 357 -593Q362 -593 367 -599Q372 -605 372 -616Q372 -650 357 -674Q342 -656 342 -633Q342 -633 342 -631Q342 -629 342 -628Z"/>
	<path fill="#800080" d="M288 -760Q278 -760 270.5 -767.5Q263 -775 263 -785Q263 -795 270.5 -802.5Q278 -810 288 -810H818Q828 -810 835.5 -802.5Q843 -795 843 -785Q843 -775 835.5 -767.5Q828 -760 818 -760ZM634 -210Q634 -214 634 -221.5Q634 -229 634 -233Q634 -246 635 -255Q600 -293 570 -305Q554 -311 554 -328Q554 -338 561.5 -345.5Q569 -353 579 -353Q584 -353 588 -351Q619 -339 651 -311Q659 -341 668 -400Q677 -459 683 -485Q683 -486 683 -486Q708 -588 750 -653Q759 -668 770 -682Q781 -696 788 -704.5Q795 -713 809.5 -727.5Q824 -742 829 -746.5Q834 -751 852.5 -767Q871 -783 874 -787Q881 -793 890 -793L966 -797Q966 -797 967 -797Q977 -797 984.5 -789.5Q992 -782 992 -772Q992 -762 985 -755Q978 -748 968 -747L901 -743Q899 -741 889 -732.5Q879 -724 876.5 -721.5Q874 -719 865 -711Q856 -703 853 -700Q850 -697 842.5 -689.5Q835 -682 831.5 -678Q828 -674 822 -667Q816 -660 811.5 -654Q807 -648 802 -641Q797 -634 792 -627Q755 -568 731 -474Q727 -455 715.5 -381.5Q704 -308 691 -268Q743 -201 748 -138Q748 -137 748 -136Q748 -123 741.5 -110Q735 -97 730 -92Q725 -87 715 -76Q708 -70 705 -65Q703 -62 702 -58Q696 -43 679 -43Q669 -43 661.5 -50.5Q654 -58 654 -68Q654 -77 658 -84Q658 -88 658 -91Q658 -112 644 -141Q634 -163 634 -200Q634 -201 634 -202.5Q634 -204 634 -204.5Q634 -205 634 -206Q634 -207 634 -208Q634 -208 634 -209Q634 -210 634 -210ZM696 -148Q693 -164 685 -181Q686 -173 696 -148ZM43 -747Q40 -747 35 -747Q30 -747 27 -747H7Q-3 -747 -10.5 -754.5Q-18 -762 -18 -772Q-18 -782 -10.5 -789.5Q-3 -797 7 -797H27Q30 -797 35 -797Q40 -797 43 -797Q154 -797 216 -783Q276 -769 313 -740Q339 -752 366 -752Q387 -752 407 -745Q470 -744 520 -699Q564 -659 588 -598Q612 -537 612 -476Q612 -464 612 -460Q610 -449 608 -426Q603 -359 587 -327Q573 -265 535 -213.5Q497 -162 440 -141Q426 -135 396 -122Q367 -109 353 -103Q339 -97 312 -90Q285 -83 262 -83Q236 -78 213 -78Q175 -78 144 -92.5Q113 -107 93.5 -129.5Q74 -152 59.5 -183.5Q45 -215 37.5 -245Q30 -275 26 -309Q25 -320 4 -382L-15 -416Q-18 -422 -18 -428Q-18 -438 -10.5 -445.5Q-3 -453 7 -453Q22 -453 29 -440L49 -404Q50 -402 51 -400Q57 -382 64 -359Q75 -325 76 -315Q84 -230 117 -179Q150 -128 213 -128Q232 -128 254 -132Q256 -133 259 -133Q283 -133 310 -141.5Q337 -150 373.5 -166.5Q410 -183 422 -187Q466 -204 497 -246Q528 -288 538 -341Q539 -345 541 -348Q554 -371 558 -430Q560 -454 562 -466Q562 -471 562 -476Q562 -526 541.5 -578.5Q521 -631 486 -662Q450 -695 406 -695Q405 -695 404 -695Q403 -695 403 -695Q398 -695 394 -697Q381 -702 366 -702Q358 -702 350 -700Q372 -664 372 -616Q372 -588 354.5 -565.5Q337 -543 307 -543Q288 -543 273 -552Q257 -562 249 -582Q242 -600 242 -633Q242 -677 270 -709Q244 -725 205 -734Q148 -747 43 -747ZM292 -628Q292 -609 295 -600Q297 -596 298 -595Q301 -593 307 -593Q312 -593 317 -599Q322 -605 322 -616Q322 -650 307 -674Q292 -656 292 -633Q292 -633 292 -631Q292 -629 292 -628Z"/>
	<path fill="#daa520" d="M288 -780Q283 -780 283 -785Q283 -790 288 -790H818Q823 -790 823 -785Q823 -780 818 -780ZM654 -210Q654 -214 654 -222Q654 -230 654 -233V-234Q654 -250 657 -261Q616 -308 577 -323Q574 -325 574 -328Q574 -333 579 -333Q580 -333 581 -333Q620 -317 661 -272Q674 -312 686 -387Q698 -462 702 -481Q727 -580 767 -643Q775 -656 785.5 -669.5Q796 -683 803 -691.5Q810 -700 824.5 -714Q839 -728 843.5 -732Q848 -736 866 -752.5Q884 -769 888 -772Q889 -773 891 -773L967 -777Q972 -777 972 -772Q972 -767 967 -767L893 -763Q889 -759 875 -746.5Q861 -734 856 -729.5Q851 -725 839.5 -714Q828 -703 822 -696.5Q816 -690 806.5 -679.5Q797 -669 789.5 -659Q782 -649 775 -637Q736 -576 712 -479Q708 -463 695.5 -384Q683 -305 668 -264Q723 -198 728 -136Q728 -124 720.5 -113Q713 -102 701.5 -91Q690 -80 686 -73Q683 -63 679 -63Q674 -63 674 -68Q674 -73 677 -78Q678 -84 678 -91Q678 -117 662 -150Q654 -168 654 -204Q654 -205 654 -206Q654 -207 654 -208Q654 -209 654 -210ZM664 -210Q664 -209 664 -208Q664 -207 664 -206Q664 -205 664 -204Q664 -170 672 -154Q688 -120 688 -92Q718 -122 718 -136Q714 -191 665 -251Q664 -244 664 -233Q664 -230 664 -222Q664 -214 664 -210ZM43 -767Q40 -767 35 -767Q30 -767 27 -767H7Q2 -767 2 -772Q2 -777 7 -777H27Q30 -777 35 -777Q40 -777 43 -777Q83 -777 110.5 -775.5Q138 -774 179.5 -769Q221 -764 254.5 -750.5Q288 -737 310 -716Q336 -732 366 -732Q386 -732 404 -725Q404 -725 404.5 -725Q405 -725 406 -725Q461 -725 505.5 -684.5Q550 -644 571 -588Q592 -532 592 -476Q592 -466 592 -463Q590 -451 588 -421.5Q586 -392 581.5 -372Q577 -352 568 -334Q556 -275 520.5 -227Q485 -179 433 -159Q420 -155 383 -138Q346 -121 317 -112Q288 -103 260 -103Q235 -98 213 -98Q172 -98 140.5 -116Q109 -134 90 -166Q71 -198 60.5 -234Q50 -270 46 -311Q45 -324 22 -390L3 -426Q2 -427 2 -428Q2 -433 7 -433Q10 -433 11 -430L31 -394Q32 -394 37.5 -377.5Q43 -361 49 -340.5Q55 -320 56 -313Q60 -271 70 -236.5Q80 -202 98 -172Q116 -142 145.5 -125Q175 -108 213 -108Q234 -108 258 -113Q258 -113 259 -113Q286 -113 314.5 -121.5Q343 -130 380 -147Q417 -164 429 -169Q479 -187 513 -233.5Q547 -280 558 -337Q558 -338 559 -338Q568 -355 572 -374Q576 -393 578 -422.5Q580 -452 582 -464Q582 -470 582 -476Q582 -531 561.5 -584.5Q541 -638 499 -676.5Q457 -715 406 -715Q404 -715 403 -715Q402 -715 401 -715Q384 -722 366 -722Q340 -722 318 -709Q352 -673 352 -616Q352 -595 339.5 -579Q327 -563 307 -563Q292 -563 282.5 -569Q273 -575 268.5 -586.5Q264 -598 263 -608.5Q262 -619 262 -633Q262 -681 302 -711Q280 -730 248.5 -742Q217 -754 177.5 -759Q138 -764 110 -765.5Q82 -767 43 -767ZM272 -628Q272 -573 307 -573Q322 -573 332 -585.5Q342 -598 342 -616Q342 -669 309 -704Q272 -677 272 -633Q272 -632 272 -630.5Q272 -629 272 -628Z"/>
</svg>