<svg xmlns="http://www.w3.org/2000/svg" viewBox="0 -1024 1024 1024">
	<path fill="#000088" d="M207 -473Q225 -473 240.5 -485Q256 -497 279 -523Q300 -547 312 -557Q312 -558 313 -558Q315 -569 329 -679Q318 -709 307 -721Q295 -732 273 -739Q260 -743 247 -743Q203 -743 167 -699Q166 -697 164 -696Q128 -666 125 -610Q125 -600 132 -582Q142 -556 158 -528Q184 -486 205 -473Q205 -473 206 -473Q207 -473 207 -473ZM294 -112L297 -448Q297 -450 297 -452L300 -471Q255 -423 207 -423Q185 -423 163 -442Q144 -458 124 -488Q102 -523 87 -559Q75 -590 75 -610Q75 -611 75 -611Q79 -689 130 -733Q180 -793 247 -793Q267 -793 287 -787Q322 -777 342 -757Q363 -736 379 -690Q380 -686 380 -682Q380 -680 380 -679Q371 -610 347 -446L344 -112Q344 -101 336.5 -94Q329 -87 319 -87Q309 -87 301.5 -94.5Q294 -102 294 -112Z"/>
	<path fill="#800080" d="M157 -473Q175 -473 190.5 -485Q206 -497 229 -523Q250 -547 262 -557Q262 -558 263 -558Q265 -569 279 -679Q268 -709 257 -721Q245 -732 223 -739Q210 -743 197 -743Q153 -743 117 -699Q116 -697 114 -696Q78 -666 75 -610Q75 -600 82 -582Q92 -556 108 -528Q134 -486 155 -473Q155 -473 156 -473Q157 -473 157 -473ZM244 -112L247 -448Q247 -450 247 -452L250 -471Q205 -423 157 -423Q135 -423 113 -442Q94 -458 74 -488Q52 -523 37 -559Q25 -590 25 -610Q25 -611 25 -611Q29 -689 80 -733Q130 -793 197 -793Q217 -793 237 -787Q272 -777 292 -757Q313 -736 329 -690Q330 -686 330 -682Q330 -680 330 -679Q321 -610 297 -446L294 -112Q294 -101 286.5 -94Q279 -87 269 -87Q259 -87 251.5 -94.5Q244 -102 244 -112Z"/>
	<path fill="#daa520" d="M157 -453Q181 -453 201 -467.5Q221 -482 243 -508Q265 -534 275 -542Q276 -543 278 -543Q280 -543 281 -542Q285 -569 300 -681Q288 -717 273.5 -733Q259 -749 229 -758Q213 -763 197 -763Q143 -763 102 -712Q102 -711 101 -711Q58 -676 55 -610Q55 -594 68 -563.5Q81 -533 99 -505Q133 -453 155 -453Q155 -453 156 -453Q157 -453 157 -453ZM264 -112L267 -448Q267 -448 267 -449L280 -533Q271 -525 248 -498Q225 -471 204 -457Q183 -443 157 -443Q156 -443 155 -443Q128 -443 91 -499Q72 -529 58.5 -560.5Q45 -592 45 -610Q48 -680 94 -719Q139 -773 197 -773Q214 -773 231 -768Q264 -758 280.5 -739.5Q297 -721 310 -684Q310 -683 310 -682Q310 -682 310 -681Q302 -612 277 -448L274 -112Q274 -107 269 -107Q264 -107 264 -112Z"/>
</svg>