<svg xmlns="http://www.w3.org/2000/svg" viewBox="0 -1024 1024 1024">
	<path fill="#000088" d="M338 -756Q328 -756 320.5 -763.5Q313 -771 313 -781Q313 -791 320 -798Q327 -805 337 -806L510 -816Q519 -817 533 -817Q547 -817 558 -818Q569 -819 577 -821Q584 -823 591 -823Q618 -823 631 -790Q633 -786 633 -781Q633 -771 625.5 -763.5Q618 -756 608 -756Q591 -756 585 -771Q573 -769 561.5 -768Q550 -767 536.5 -767Q523 -767 514 -766Q514 -766 513 -766L339 -756Q339 -756 338 -756ZM592 -773ZM68 -756Q67 -756 64.5 -756Q62 -756 60 -756Q50 -756 42.5 -763.5Q35 -771 35 -781Q35 -791 42.5 -798.5Q50 -806 60 -806Q61 -806 64 -806Q67 -806 68 -806Q71 -806 73 -806Q91 -805 135 -799.5Q179 -794 202 -794Q218 -794 232 -796Q238 -797 260 -803.5Q282 -810 296 -810Q296 -810 297 -810Q298 -810 300 -810Q301 -810 301 -810Q301 -810 302 -810Q311 -810 318 -802.5Q325 -795 325 -785Q325 -781 325 -778Q323 -773 321 -769Q317 -763 311 -756L315 -676Q315 -676 315 -675Q315 -674 315 -674L309 -568Q309 -567 309 -566L299 -488Q299 -486 298 -484Q296 -478 294.5 -469Q293 -460 292 -449Q291 -438 290 -432H291Q302 -433 313 -433Q389 -433 430 -390Q485 -333 499 -210Q500 -200 500 -190Q500 -119 445 -83Q406 -57 351 -57Q310 -57 289 -73Q266 -91 259 -119.5Q252 -148 249 -196Q246 -243 241 -258Q228 -291 228 -333Q228 -359 233 -395Q229 -401 229 -409Q229 -421 239 -429Q242 -448 243 -461Q246 -484 249 -496L259 -571L265 -675L262 -751Q249 -748 240 -746Q222 -744 202 -744Q177 -744 132 -749.5Q87 -755 71 -756Q70 -756 68 -756ZM297 -810ZM292 -382Q291 -382 282 -382Q278 -353 278 -333Q278 -300 287 -276Q296 -254 298.5 -204.5Q301 -155 306 -137.5Q311 -120 319 -113Q325 -109 334 -108Q343 -107 351 -107Q391 -107 417 -124Q450 -146 450 -190Q450 -197 449 -204Q437 -311 394 -356Q368 -383 313 -383Q304 -383 295 -382Q293 -382 292 -382Z"/>
	<path fill="#800080" d="M288 -756Q278 -756 270.5 -763.5Q263 -771 263 -781Q263 -791 270 -798Q277 -805 287 -806L460 -816Q469 -817 483 -817Q497 -817 508 -818Q519 -819 527 -821Q534 -823 541 -823Q568 -823 581 -790Q583 -786 583 -781Q583 -771 575.5 -763.5Q568 -756 558 -756Q541 -756 535 -771Q523 -769 511.5 -768Q500 -767 486.5 -767Q473 -767 464 -766Q464 -766 463 -766L289 -756Q289 -756 288 -756ZM542 -773ZM18 -756Q17 -756 14.5 -756Q12 -756 10 -756Q0 -756 -7.5 -763.5Q-15 -771 -15 -781Q-15 -791 -7.5 -798.5Q0 -806 10 -806Q11 -806 14 -806Q17 -806 18 -806Q21 -806 23 -806Q41 -805 85 -799.5Q129 -794 152 -794Q168 -794 182 -796Q188 -797 210 -803.5Q232 -810 246 -810Q246 -810 247 -810Q248 -810 250 -810Q251 -810 251 -810Q251 -810 252 -810Q261 -810 268 -802.5Q275 -795 275 -785Q275 -781 275 -778Q273 -773 271 -769Q267 -763 261 -756L265 -676Q265 -676 265 -675Q265 -674 265 -674L259 -568Q259 -567 259 -566L249 -488Q249 -486 248 -484Q246 -478 244.5 -469Q243 -460 242 -449Q241 -438 240 -432H241Q252 -433 263 -433Q339 -433 380 -390Q435 -333 449 -210Q450 -200 450 -190Q450 -119 395 -83Q356 -57 301 -57Q260 -57 239 -73Q216 -91 209 -119.5Q202 -148 199 -196Q196 -243 191 -258Q178 -291 178 -333Q178 -359 183 -395Q179 -401 179 -409Q179 -421 189 -429Q192 -448 193 -461Q196 -484 199 -496L209 -571L215 -675L212 -751Q199 -748 190 -746Q172 -744 152 -744Q127 -744 82 -749.5Q37 -755 21 -756Q20 -756 18 -756ZM247 -810ZM242 -382Q241 -382 232 -382Q228 -353 228 -333Q228 -300 237 -276Q246 -254 248.5 -204.5Q251 -155 256 -137.5Q261 -120 269 -113Q275 -109 284 -108Q293 -107 301 -107Q341 -107 367 -124Q400 -146 400 -190Q400 -197 399 -204Q387 -311 344 -356Q318 -383 263 -383Q254 -383 245 -382Q243 -382 242 -382Z"/>
	<path fill="#daa520" d="M288 -776Q283 -776 283 -781Q283 -786 288 -786L462 -796Q471 -797 485.5 -797Q500 -797 511 -798Q522 -799 533 -802Q537 -803 541 -803Q555 -803 563 -783Q563 -782 563 -781Q563 -776 558 -776Q555 -776 553 -779Q548 -793 541 -793Q539 -793 535 -792Q524 -789 512.5 -788Q501 -787 486.5 -787Q472 -787 462 -786ZM18 -776Q17 -776 14 -776Q11 -776 10 -776Q5 -776 5 -781Q5 -786 18 -786Q21 -786 22 -786Q39 -785 83.5 -779.5Q128 -774 152 -774Q170 -774 185 -776Q192 -777 213.5 -783.5Q235 -790 246 -790Q248 -790 249 -790Q250 -790 250 -790Q255 -790 255 -785Q255 -783 255 -783Q255 -781 254 -780Q245 -767 241 -761L245 -675Q245 -675 245 -675L239 -569Q239 -569 239 -568L229 -490Q229 -489 221 -440Q220 -435 217 -413L242 -412Q252 -413 263 -413Q330 -413 366 -376Q416 -324 429 -208Q430 -199 430 -190Q430 -136 393.5 -106.5Q357 -77 301 -77Q291 -77 282 -78Q268 -79 257.5 -84.5Q247 -90 240.5 -100.5Q234 -111 230 -119.5Q226 -128 223.5 -144.5Q221 -161 220.5 -170Q220 -179 219 -197Q216 -248 209 -265Q198 -295 198 -333Q198 -360 205 -404Q199 -404 199 -409Q199 -414 204 -414Q204 -414 206 -414Q212 -446 213 -459Q216 -481 219 -492L229 -569L235 -675L231 -763Q231 -765 232 -766Q234 -769 242 -780Q233 -779 214 -773Q195 -767 187 -766Q171 -764 152 -764Q128 -764 83.5 -769.5Q39 -775 22 -776Q20 -776 18 -776ZM215 -403Q208 -360 208 -333Q208 -297 219 -269Q226 -250 229 -198Q230 -171 232 -157Q234 -143 239 -125Q244 -107 255 -98.5Q266 -90 282 -88Q292 -87 301 -87Q354 -87 387 -114Q420 -141 420 -190Q420 -198 419 -206Q406 -319 358 -370Q326 -403 263 -403Q252 -403 243 -402Q242 -402 242 -402Q242 -402 215 -403Z"/>
</svg>