<svg xmlns="http://www.w3.org/2000/svg" viewBox="0 -1024 1024 1024">
	<path fill="#000088" d="M157 -516Q147 -516 139.5 -523.5Q132 -531 132 -541Q132 -545 133 -548Q177 -701 245 -762Q284 -797 327 -797Q394 -797 450 -737Q502 -682 531 -590.5Q560 -499 560 -391Q560 -305 526.5 -232Q493 -159 435 -116Q374 -71 303 -71Q237 -71 182 -133Q132 -190 103.5 -284.5Q75 -379 75 -490Q75 -639 161 -754Q169 -764 181 -764Q191 -764 198.5 -756.5Q206 -749 206 -739Q206 -731 201 -724Q125 -623 125 -490Q125 -387 151 -300.5Q177 -214 219 -166Q259 -121 303 -121Q358 -121 405 -156Q452 -191 481 -254Q510 -317 510 -391Q510 -490 483.5 -573.5Q457 -657 414 -703Q373 -747 327 -747Q294 -747 261 -706Q214 -650 181 -534Q176 -516 157 -516Z"/>
	<path fill="#800080" d="M107 -516Q97 -516 89.5 -523.5Q82 -531 82 -541Q82 -545 83 -548Q127 -701 195 -762Q234 -797 277 -797Q344 -797 400 -737Q452 -682 481 -590.5Q510 -499 510 -391Q510 -305 476.5 -232Q443 -159 385 -116Q324 -71 253 -71Q187 -71 132 -133Q82 -190 53.5 -284.5Q25 -379 25 -490Q25 -639 111 -754Q119 -764 131 -764Q141 -764 148.5 -756.5Q156 -749 156 -739Q156 -731 151 -724Q75 -623 75 -490Q75 -387 101 -300.5Q127 -214 169 -166Q209 -121 253 -121Q308 -121 355 -156Q402 -191 431 -254Q460 -317 460 -391Q460 -490 433.5 -573.5Q407 -657 364 -703Q323 -747 277 -747Q244 -747 211 -706Q164 -650 131 -534Q126 -516 107 -516Z"/>
	<path fill="#daa520" d="M107 -536Q102 -536 102 -541Q102 -542 102 -542Q134 -652 179 -714.5Q224 -777 277 -777Q366 -777 428 -663.5Q490 -550 490 -391Q490 -267 421 -179Q352 -91 253 -91Q195 -91 147 -145Q99 -199 72 -290.5Q45 -382 45 -490Q45 -633 127 -742Q129 -744 131 -744Q136 -744 136 -739Q136 -737 135 -736Q55 -629 55 -490Q55 -384 82 -294Q109 -204 154.5 -152.5Q200 -101 253 -101Q347 -101 413.5 -185.5Q480 -270 480 -391Q480 -547 420 -657Q360 -767 277 -767Q229 -767 186 -706.5Q143 -646 112 -540Q111 -536 107 -536Z"/>
</svg>