<svg xmlns="http://www.w3.org/2000/svg" viewBox="0 -1024 1024 1024">
	<path fill="#000088" d="M359 -239Q359 -250 358.5 -270.5Q358 -291 358 -301Q358 -308 358 -314Q361 -509 403 -632Q393 -701 377 -736Q360 -773 337 -773Q333 -773 328 -772Q305 -767 285 -741Q267 -717 253 -690Q272 -651 272 -612Q272 -604 267 -586Q255 -540 241 -517Q237 -509 232 -505Q223 -497 212 -497Q195 -497 187 -513Q186 -515 182.5 -521.5Q179 -528 177.5 -531.5Q176 -535 173.5 -541Q171 -547 170 -553.5Q169 -560 169 -567Q169 -573 170 -579Q178 -638 197 -686Q190 -698 181 -706Q135 -753 55 -753H49Q39 -753 31.5 -760.5Q24 -768 24 -778Q24 -788 31.5 -795.5Q39 -803 49 -803H55Q156 -803 217 -742Q219 -739 222 -736Q232 -755 245 -771Q277 -812 318 -820Q328 -823 337 -823Q392 -823 423 -757Q431 -738 438 -714Q445 -727 471 -760Q476 -767 504 -802Q511 -811 523 -811Q524 -811 525 -811L607 -806Q616 -805 623 -798Q630 -791 630 -781Q630 -771 622.5 -763.5Q615 -756 605 -756Q604 -756 603 -756L534 -760Q495 -711 485 -696Q468 -664 454 -627Q476 -465 476 -308Q476 -215 466 -156Q465 -153 464 -144Q461 -110 455 -95Q442 -61 412 -61Q397 -61 384 -68Q352 -86 352 -141Q352 -157 354 -174Q359 -200 359 -239ZM420 -482Q410 -410 408 -314Q408 -308 408 -301Q408 -291 408.5 -270.5Q409 -250 409 -239Q409 -196 404 -166Q402 -153 402 -141Q402 -126 405 -117Q406 -114 408 -112Q411 -121 413.5 -141Q416 -161 416 -164Q426 -220 426 -308Q426 -400 420 -482Z"/>
	<path fill="#800080" d="M309 -239Q309 -250 308.5 -270.5Q308 -291 308 -301Q308 -308 308 -314Q311 -509 353 -632Q343 -701 327 -736Q310 -773 287 -773Q283 -773 278 -772Q255 -767 235 -741Q217 -717 203 -690Q222 -651 222 -612Q222 -604 217 -586Q205 -540 191 -517Q187 -509 182 -505Q173 -497 162 -497Q145 -497 137 -513Q136 -515 132.5 -521.5Q129 -528 127.5 -531.5Q126 -535 123.5 -541Q121 -547 120 -553.5Q119 -560 119 -567Q119 -573 120 -579Q128 -638 147 -686Q140 -698 131 -706Q85 -753 5 -753H-1Q-11 -753 -18.5 -760.5Q-26 -768 -26 -778Q-26 -788 -18.5 -795.5Q-11 -803 -1 -803H5Q106 -803 167 -742Q169 -739 172 -736Q182 -755 195 -771Q227 -812 268 -820Q278 -823 287 -823Q342 -823 373 -757Q381 -738 388 -714Q395 -727 421 -760Q426 -767 454 -802Q461 -811 473 -811Q474 -811 475 -811L557 -806Q566 -805 573 -798Q580 -791 580 -781Q580 -771 572.5 -763.5Q565 -756 555 -756Q554 -756 553 -756L484 -760Q445 -711 435 -696Q418 -664 404 -627Q426 -465 426 -308Q426 -215 416 -156Q415 -153 414 -144Q411 -110 405 -95Q392 -61 362 -61Q347 -61 334 -68Q302 -86 302 -141Q302 -157 304 -174Q309 -200 309 -239ZM370 -482Q360 -410 358 -314Q358 -308 358 -301Q358 -291 358.5 -270.5Q359 -250 359 -239Q359 -196 354 -166Q352 -153 352 -141Q352 -126 355 -117Q356 -114 358 -112Q361 -121 363.5 -141Q366 -161 366 -164Q376 -220 376 -308Q376 -400 370 -482Z"/>
	<path fill="#daa520" d="M374 -630Q351 -793 287 -793Q281 -793 274 -791Q244 -785 219 -753Q197 -724 181 -689Q202 -651 202 -612Q202 -602 192 -571Q182 -540 174 -527Q168 -517 162 -517Q157 -517 155 -522Q139 -552 139 -567Q139 -572 140 -577Q148 -638 170 -688Q159 -707 145 -720Q93 -773 5 -773H-1Q-6 -773 -6 -778Q-6 -783 -1 -783H5Q98 -783 153 -728Q165 -715 175 -700Q190 -732 211 -759Q238 -794 272 -801Q280 -803 287 -803Q329 -803 354 -748Q371 -712 381 -650Q393 -682 409 -710Q415 -721 469 -789Q471 -791 473 -791L555 -786Q560 -786 560 -781Q560 -776 555 -776L475 -781Q422 -715 417 -706Q398 -670 384 -629Q406 -466 406 -308Q406 -217 396 -159Q396 -158 393 -135.5Q390 -113 386 -102Q378 -81 362 -81Q322 -81 322 -141Q322 -156 324 -171Q329 -198 329 -239Q329 -250 328.5 -270.5Q328 -291 328 -301Q328 -308 328 -314Q331 -508 374 -630ZM377 -607Q341 -493 338 -314Q338 -308 338 -301Q338 -291 338.5 -270.5Q339 -250 339 -239Q339 -198 334 -169Q332 -155 332 -141Q332 -91 362 -91Q371 -91 377 -105Q380 -115 383 -137Q386 -159 386 -161Q396 -218 396 -308Q396 -457 377 -607ZM163 -528Q169 -535 177 -557Q192 -598 192 -612Q192 -644 176 -677Q157 -631 150 -575Q149 -571 149 -567Q149 -554 163 -528Z"/>
</svg>