<svg xmlns="http://www.w3.org/2000/svg" viewBox="0 -1024 1024 1024">
	<path fill="#000088" d="M439 -169Q439 -176 439.5 -190.5Q440 -205 440 -212V-244Q440 -245 440 -247Q444 -277 446 -299Q426 -315 402 -325Q386 -331 386 -348Q386 -358 393.5 -365.5Q401 -373 411 -373Q416 -373 420 -371Q438 -364 454 -354Q462 -413 473 -461Q482 -505 497.5 -553.5Q513 -602 525 -634Q537 -666 558.5 -721Q580 -776 590 -801Q596 -817 613 -817Q613 -817 614 -817L696 -815Q703 -815 709 -811L721 -803Q732 -795 732 -782Q732 -772 724.5 -764.5Q717 -757 707 -757Q699 -757 687 -765L630 -767Q625 -755 601 -694Q577 -633 568 -608.5Q559 -584 544.5 -537Q530 -490 521 -451Q509 -393 499 -319Q563 -255 563 -170Q563 -152 560 -133Q560 -130 560.5 -124Q561 -118 561 -115Q561 -99 552 -88Q543 -77 527 -77Q470 -77 450 -113Q439 -133 439 -169ZM489 -169Q489 -146 494 -138Q498 -130 510 -128Q510 -131 510 -133Q510 -138 510 -143Q513 -156 513 -170Q513 -211 491 -249Q490 -246 490 -243V-212Q490 -205 489.5 -190.5Q489 -176 489 -169ZM131 -759Q123 -759 105 -757Q87 -755 78 -755Q53 -755 37 -764Q24 -772 24 -786Q24 -796 31.5 -803.5Q39 -811 49 -811Q56 -811 61 -808Q67 -805 78 -805Q86 -805 104 -807Q122 -809 131 -809Q194 -809 320.5 -818Q447 -827 511 -827Q514 -827 519 -826Q533 -823 551 -817Q571 -810 579 -802Q587 -794 587 -782Q587 -767 574 -759Q451 -687 185 -507Q183 -506 180 -504Q361 -495 420 -406Q448 -365 448 -310Q448 -259 424.5 -212Q401 -165 360 -135Q316 -103 263 -103Q240 -103 216 -110.5Q192 -118 180 -125Q168 -132 145 -146Q115 -164 99 -171Q90 -175 86 -185L70 -225Q68 -229 68 -234Q68 -244 75.5 -251.5Q83 -259 93 -259Q110 -259 116 -243L129 -213Q144 -205 171 -188Q191 -176 202.5 -170Q214 -164 230.5 -158.5Q247 -153 263 -153Q300 -153 331 -176Q361 -198 379.5 -235Q398 -272 398 -310Q398 -350 379 -378Q353 -416 290 -436Q229 -455 135 -455Q131 -455 122 -454Q113 -453 109 -453Q106 -452 102 -452Q101 -452 101 -452Q89 -452 82 -462Q76 -469 76 -478Q76 -490 86 -501Q92 -507 102 -514Q114 -523 143 -540Q155 -547 184 -567Q395 -710 506 -777Q444 -777 319.5 -768Q195 -759 131 -759Z"/>
	<path fill="#800080" d="M389 -169Q389 -176 389.5 -190.5Q390 -205 390 -212V-244Q390 -245 390 -247Q394 -277 396 -299Q376 -315 352 -325Q336 -331 336 -348Q336 -358 343.5 -365.5Q351 -373 361 -373Q366 -373 370 -371Q388 -364 404 -354Q412 -413 423 -461Q432 -505 447.5 -553.5Q463 -602 475 -634Q487 -666 508.5 -721Q530 -776 540 -801Q546 -817 563 -817Q563 -817 564 -817L646 -815Q653 -815 659 -811L671 -803Q682 -795 682 -782Q682 -772 674.5 -764.5Q667 -757 657 -757Q649 -757 637 -765L580 -767Q575 -755 551 -694Q527 -633 518 -608.5Q509 -584 494.5 -537Q480 -490 471 -451Q459 -393 449 -319Q513 -255 513 -170Q513 -152 510 -133Q510 -130 510.5 -124Q511 -118 511 -115Q511 -99 502 -88Q493 -77 477 -77Q420 -77 400 -113Q389 -133 389 -169ZM439 -169Q439 -146 444 -138Q448 -130 460 -128Q460 -131 460 -133Q460 -138 460 -143Q463 -156 463 -170Q463 -211 441 -249Q440 -246 440 -243V-212Q440 -205 439.5 -190.5Q439 -176 439 -169ZM81 -759Q73 -759 55 -757Q37 -755 28 -755Q3 -755 -13 -764Q-26 -772 -26 -786Q-26 -796 -18.5 -803.5Q-11 -811 -1 -811Q6 -811 11 -808Q17 -805 28 -805Q36 -805 54 -807Q72 -809 81 -809Q144 -809 270.5 -818Q397 -827 461 -827Q464 -827 469 -826Q483 -823 501 -817Q521 -810 529 -802Q537 -794 537 -782Q537 -767 524 -759Q401 -687 135 -507Q133 -506 130 -504Q311 -495 370 -406Q398 -365 398 -310Q398 -259 374.5 -212Q351 -165 310 -135Q266 -103 213 -103Q190 -103 166 -110.5Q142 -118 130 -125Q118 -132 95 -146Q65 -164 49 -171Q40 -175 36 -185L20 -225Q18 -229 18 -234Q18 -244 25.5 -251.5Q33 -259 43 -259Q60 -259 66 -243L79 -213Q94 -205 121 -188Q141 -176 152.5 -170Q164 -164 180.5 -158.5Q197 -153 213 -153Q250 -153 281 -176Q311 -198 329.5 -235Q348 -272 348 -310Q348 -350 329 -378Q303 -416 240 -436Q179 -455 85 -455Q81 -455 72 -454Q63 -453 59 -453Q56 -452 52 -452Q51 -452 51 -452Q39 -452 32 -462Q26 -469 26 -478Q26 -490 36 -501Q42 -507 52 -514Q64 -523 93 -540Q105 -547 134 -567Q345 -710 456 -777Q394 -777 269.5 -768Q145 -759 81 -759Z"/>
	<path fill="#daa520" d="M409 -169Q409 -176 409.5 -190.5Q410 -205 410 -212V-244Q410 -244 410 -245Q414 -281 417 -307Q391 -330 359 -343Q356 -345 356 -348Q356 -353 361 -353Q362 -353 363 -353Q393 -340 419 -319Q429 -397 442 -457Q451 -500 466.5 -548Q482 -596 494 -627.5Q506 -659 527.5 -714.5Q549 -770 558 -794Q560 -797 563 -797L645 -795Q647 -795 648 -794L660 -786Q662 -785 662 -782Q662 -777 657 -777Q655 -777 654 -778L643 -785L566 -787Q558 -765 536 -709Q514 -653 502.5 -622.5Q491 -592 476 -544.5Q461 -497 452 -455Q439 -393 428 -311Q493 -251 493 -170Q493 -153 490 -137Q490 -135 490 -132.5Q490 -130 490.5 -123.5Q491 -117 491 -115Q491 -97 477 -97Q432 -97 418 -123Q409 -138 409 -169ZM419 -169Q419 -141 426 -128Q438 -107 477 -107Q481 -107 481 -115Q481 -117 480.5 -123.5Q480 -130 480 -133Q480 -136 480 -139Q483 -154 483 -170Q483 -243 426 -299Q424 -275 420 -244V-212Q420 -205 419.5 -190.5Q419 -176 419 -169ZM81 -779Q73 -779 54.5 -777Q36 -775 28 -775Q9 -775 -3 -782Q-6 -783 -6 -786Q-6 -791 -1 -791Q0 -791 1 -790Q11 -785 28 -785Q36 -785 54 -787Q72 -789 81 -789Q145 -789 271 -798Q397 -807 461 -807Q466 -807 484 -801Q502 -795 509.5 -791Q517 -787 517 -782Q517 -779 514 -777Q390 -704 124 -524Q121 -522 108 -514Q71 -492 61 -483Q61 -483 70.5 -484Q80 -485 85 -485Q378 -485 378 -310Q378 -239 330.5 -181Q283 -123 213 -123Q193 -123 172 -129.5Q151 -136 139 -142.5Q127 -149 106 -163Q74 -182 57 -189Q55 -190 54 -192L38 -232Q38 -233 38 -234Q38 -239 43 -239Q46 -239 48 -236L63 -198Q80 -190 111 -171Q132 -158 144 -151.5Q156 -145 175 -139Q194 -133 213 -133Q278 -133 323 -187.5Q368 -242 368 -310Q368 -475 85 -475Q80 -475 70 -474Q60 -473 56 -473Q53 -472 52 -472Q46 -472 46 -478Q46 -482 51 -487Q55 -492 64 -498Q75 -506 103 -523Q115 -530 145 -550Q380 -710 504 -783Q484 -793 461 -797Q398 -797 271.5 -788Q145 -779 81 -779Z"/>
</svg>