<svg xmlns="http://www.w3.org/2000/svg" viewBox="0 -1024 1024 1024">
	<path fill="#000088" d="M56 -795Q52 -795 48 -795.5Q44 -796 42 -796Q32 -796 24.5 -803.5Q17 -811 17 -821Q17 -831 24.5 -838.5Q32 -846 42 -846Q45 -846 49.5 -845.5Q54 -845 56 -845Q66 -845 74 -849Q89 -857 89 -880Q87 -883 84 -885Q76 -890 63 -895Q36 -904 21 -904Q-47 -904 -183 -868Q-231 -855 -257 -848.5Q-283 -842 -326 -835.5Q-369 -829 -405 -829Q-433 -829 -454 -842Q-482 -859 -496.5 -894Q-511 -929 -511 -971Q-511 -1045 -450 -1110Q-406 -1158 -335 -1193Q-253 -1233 -174 -1242Q-151 -1244 -128 -1244Q-46 -1244 24.5 -1212Q95 -1180 142 -1125.5Q189 -1071 215 -999.5Q241 -928 241 -850Q241 -838 241 -833Q243 -835 245 -837Q250 -844 259 -845L286 -851Q288 -852 291 -852Q301 -852 308.5 -844.5Q316 -837 316 -827Q316 -818 310.5 -811Q305 -804 296 -803L278 -798Q246 -760 230 -737Q229 -718 229 -692Q229 -646 231 -541.5Q233 -437 233 -386Q233 -228 222 -152Q217 -123 211 -104Q205 -86 197 -75Q183 -55 162 -55Q135 -55 120 -86Q114 -97 111 -112Q103 -142 99 -205Q99 -220 98 -224Q95 -251 95 -280Q95 -337 110.5 -438.5Q126 -540 128 -580Q134 -680 181 -753Q182 -759 183 -763Q191 -806 191 -850Q191 -944 152.5 -1022Q114 -1100 40 -1147Q-34 -1194 -128 -1194Q-148 -1194 -168 -1192Q-239 -1185 -313 -1148Q-375 -1117 -414 -1076Q-461 -1026 -461 -971Q-461 -939 -451 -914Q-443 -893 -429 -885Q-419 -879 -405 -879Q-334 -879 -193.5 -916.5Q-53 -954 21 -954Q36 -954 61 -947Q87 -941 105 -931Q139 -911 139 -881Q139 -855 129 -836Q118 -815 97 -805Q78 -795 56 -795ZM180 -602Q179 -590 178 -576Q176 -536 160.5 -435Q145 -334 145 -280Q145 -276 149 -208Q153 -141 162 -115Q170 -135 175 -179Q183 -250 183 -386Q183 -442 180 -602Z"/>
	<path fill="#800080" d="M6 -795Q2 -795 -2 -795.5Q-6 -796 -8 -796Q-18 -796 -25.5 -803.5Q-33 -811 -33 -821Q-33 -831 -25.5 -838.5Q-18 -846 -8 -846Q-5 -846 -0.5 -845.5Q4 -845 6 -845Q16 -845 24 -849Q39 -857 39 -880Q37 -883 34 -885Q26 -890 13 -895Q-14 -904 -29 -904Q-97 -904 -233 -868Q-281 -855 -307 -848.5Q-333 -842 -376 -835.5Q-419 -829 -455 -829Q-483 -829 -504 -842Q-532 -859 -546.5 -894Q-561 -929 -561 -971Q-561 -1045 -500 -1110Q-456 -1158 -385 -1193Q-303 -1233 -224 -1242Q-201 -1244 -178 -1244Q-96 -1244 -25.5 -1212Q45 -1180 92 -1125.5Q139 -1071 165 -999.5Q191 -928 191 -850Q191 -838 191 -833Q193 -835 195 -837Q200 -844 209 -845L236 -851Q238 -852 241 -852Q251 -852 258.5 -844.5Q266 -837 266 -827Q266 -818 260.5 -811Q255 -804 246 -803L228 -798Q196 -760 180 -737Q179 -718 179 -692Q179 -646 181 -541.5Q183 -437 183 -386Q183 -228 172 -152Q167 -123 161 -104Q155 -86 147 -75Q133 -55 112 -55Q85 -55 70 -86Q64 -97 61 -112Q53 -142 49 -205Q49 -220 48 -224Q45 -251 45 -280Q45 -337 60.5 -438.5Q76 -540 78 -580Q84 -680 131 -753Q132 -759 133 -763Q141 -806 141 -850Q141 -944 102.5 -1022Q64 -1100 -10 -1147Q-84 -1194 -178 -1194Q-198 -1194 -218 -1192Q-289 -1185 -363 -1148Q-425 -1117 -464 -1076Q-511 -1026 -511 -971Q-511 -939 -501 -914Q-493 -893 -479 -885Q-469 -879 -455 -879Q-384 -879 -243.5 -916.5Q-103 -954 -29 -954Q-14 -954 11 -947Q37 -941 55 -931Q89 -911 89 -881Q89 -855 79 -836Q68 -815 47 -805Q28 -795 6 -795ZM130 -602Q129 -590 128 -576Q126 -536 110.5 -435Q95 -334 95 -280Q95 -276 99 -208Q103 -141 112 -115Q120 -135 125 -179Q133 -250 133 -386Q133 -442 130 -602Z"/>
	<path fill="#daa520" d="M6 -815Q3 -815 -1.5 -815.5Q-6 -816 -8 -816Q-13 -816 -13 -821Q-13 -826 -8 -826Q-5 -826 -1 -825.5Q3 -825 6 -825Q16 -825 25.5 -827.5Q35 -830 47 -843.5Q59 -857 59 -881Q59 -898 27 -911Q-5 -924 -29 -924Q-99 -924 -238 -887Q-285 -874 -311 -868Q-337 -862 -378.5 -855.5Q-420 -849 -455 -849Q-480 -849 -498 -861Q-516 -873 -524.5 -893Q-533 -913 -537 -932Q-541 -951 -541 -971Q-541 -1022 -509 -1068Q-477 -1114 -428 -1145Q-379 -1176 -324.5 -1196.5Q-270 -1217 -222 -1222Q-200 -1224 -178 -1224Q-75 -1224 6 -1172Q87 -1120 129 -1035.5Q171 -951 171 -850Q171 -807 164 -765Q179 -787 210 -824Q211 -826 213 -826L240 -832Q240 -832 241 -832Q246 -832 246 -827Q246 -823 242 -822L217 -816Q178 -770 160 -743Q159 -726 159 -692Q159 -646 161 -541.5Q163 -437 163 -386Q163 -229 152 -155Q146 -113 136 -94Q126 -75 112 -75Q91 -75 80 -117Q73 -145 69 -207Q65 -275 65 -280Q65 -336 80.5 -437Q96 -538 98 -578Q104 -675 150 -746Q151 -754 152 -759Q161 -804 161 -850Q161 -948 120 -1031Q79 -1114 0.5 -1164Q-78 -1214 -178 -1214Q-199 -1214 -220 -1212Q-269 -1207 -322 -1187Q-375 -1167 -422 -1136.5Q-469 -1106 -500 -1062Q-531 -1018 -531 -971Q-531 -928 -513 -893.5Q-495 -859 -455 -859Q-382 -859 -242 -896.5Q-102 -934 -29 -934Q-3 -934 31 -920Q69 -905 69 -881Q69 -854 55 -837.5Q41 -821 29 -818Q17 -815 6 -815ZM149 -692Q149 -712 149 -726Q113 -665 108 -578Q106 -537 90.5 -436Q75 -335 75 -280Q75 -275 79 -207Q83 -147 90 -120Q98 -85 112 -85Q122 -85 130 -107Q141 -134 146 -194Q153 -264 153 -386Q153 -437 151 -541.5Q149 -646 149 -692Z"/>
</svg>