<svg xmlns="http://www.w3.org/2000/svg" viewBox="0 -1024 1024 1024">
	<path fill="#000088" d="M391 -759Q381 -759 373.5 -766.5Q366 -774 366 -784Q366 -794 373 -801.5Q380 -809 391 -809L541 -811Q551 -811 558.5 -803.5Q566 -796 566 -786Q566 -776 559 -768.5Q552 -761 541 -761ZM286 -764Q129 -759 107 -759H49Q39 -759 31.5 -766.5Q24 -774 24 -784Q24 -794 31.5 -801.5Q39 -809 49 -809H107Q149 -809 234.5 -812Q320 -815 363 -815Q373 -815 380.5 -807.5Q388 -800 388 -790Q388 -780 380.5 -772.5Q373 -765 363 -765L358 -761Q338 -748 306 -711Q269 -668 233.5 -614Q198 -560 179 -513Q175 -503 172 -494Q186 -503 215 -532Q258 -574 283 -590Q319 -613 353 -613Q396 -613 425.5 -586.5Q455 -560 470 -521Q486 -481 486 -440Q486 -397 471.5 -326Q457 -255 432 -193Q405 -126 372 -91Q337 -55 297 -55Q274 -55 253.5 -63Q233 -71 219.5 -80.5Q206 -90 190 -109.5Q174 -129 168 -138Q162 -147 148 -169Q121 -214 106 -228Q101 -233 99 -239L51 -413Q50 -415 50 -417L44 -471Q44 -473 44 -474Q44 -484 51.5 -491.5Q59 -499 69 -499Q79 -499 86 -492.5Q93 -486 94 -477L100 -425L145 -259Q162 -241 191 -196Q220 -149 242.5 -127Q265 -105 297 -105Q316 -105 336 -126Q362 -154 386 -211Q408 -268 422 -336Q436 -404 436 -440Q436 -472 424 -503Q413 -529 397 -545Q378 -563 353 -563Q333 -563 310 -548Q289 -535 250 -496Q216 -463 199 -451Q172 -433 145 -433Q134 -433 126 -439Q116 -447 116 -460Q116 -500 146 -562Q178 -628 232 -700Q260 -737 286 -764Z"/>
	<path fill="#800080" d="M341 -759Q331 -759 323.5 -766.5Q316 -774 316 -784Q316 -794 323 -801.5Q330 -809 341 -809L491 -811Q501 -811 508.5 -803.5Q516 -796 516 -786Q516 -776 509 -768.5Q502 -761 491 -761ZM236 -764Q79 -759 57 -759H-1Q-11 -759 -18.5 -766.5Q-26 -774 -26 -784Q-26 -794 -18.5 -801.5Q-11 -809 -1 -809H57Q99 -809 184.5 -812Q270 -815 313 -815Q323 -815 330.5 -807.5Q338 -800 338 -790Q338 -780 330.5 -772.5Q323 -765 313 -765L308 -761Q288 -748 256 -711Q219 -668 183.5 -614Q148 -560 129 -513Q125 -503 122 -494Q136 -503 165 -532Q208 -574 233 -590Q269 -613 303 -613Q346 -613 375.5 -586.5Q405 -560 420 -521Q436 -481 436 -440Q436 -397 421.5 -326Q407 -255 382 -193Q355 -126 322 -91Q287 -55 247 -55Q224 -55 203.5 -63Q183 -71 169.5 -80.5Q156 -90 140 -109.5Q124 -129 118 -138Q112 -147 98 -169Q71 -214 56 -228Q51 -233 49 -239L1 -413Q0 -415 0 -417L-6 -471Q-6 -473 -6 -474Q-6 -484 1.5 -491.5Q9 -499 19 -499Q29 -499 36 -492.5Q43 -486 44 -477L50 -425L95 -259Q112 -241 141 -196Q170 -149 192.5 -127Q215 -105 247 -105Q266 -105 286 -126Q312 -154 336 -211Q358 -268 372 -336Q386 -404 386 -440Q386 -472 374 -503Q363 -529 347 -545Q328 -563 303 -563Q283 -563 260 -548Q239 -535 200 -496Q166 -463 149 -451Q122 -433 95 -433Q84 -433 76 -439Q66 -447 66 -460Q66 -500 96 -562Q128 -628 182 -700Q210 -737 236 -764Z"/>
	<path fill="#daa520" d="M341 -789L491 -791Q496 -791 496 -786Q496 -781 491 -781Q341 -779 341 -779Q336 -779 336 -784Q336 -789 341 -789ZM289 -785Q256 -784 177.5 -781.5Q99 -779 57 -779H-1Q-6 -779 -6 -784Q-6 -789 -1 -789H57Q99 -789 185 -792Q271 -795 313 -795Q318 -795 318 -790Q318 -785 313 -785Q302 -785 277 -762Q245 -733 206 -682Q162 -622 129.5 -561Q97 -500 96 -463Q96 -463 97 -463Q98 -463 99 -463Q114 -463 132.5 -476.5Q151 -490 179 -518Q204 -542 218 -554Q232 -566 256.5 -579.5Q281 -593 303 -593Q357 -593 386.5 -543.5Q416 -494 416 -440Q416 -400 401.5 -330Q387 -260 363 -200Q313 -75 247 -75Q213 -75 185.5 -94.5Q158 -114 142.5 -138.5Q127 -163 106 -195Q85 -227 70 -242Q69 -243 68 -245L20 -419L14 -473Q14 -474 14 -474Q14 -479 19 -479Q23 -479 24 -475L30 -421L77 -249Q95 -232 124 -185Q139 -160 148.5 -147Q158 -134 174 -117Q190 -100 208 -92.5Q226 -85 247 -85Q306 -85 354 -204Q378 -262 392 -331.5Q406 -401 406 -440Q406 -491 378.5 -537Q351 -583 303 -583Q283 -583 261 -571Q239 -559 224.5 -546.5Q210 -534 186 -511Q165 -490 155.5 -481.5Q146 -473 129.5 -463Q113 -453 99 -453Q99 -453 97.5 -453Q96 -453 95 -453Q86 -453 86 -460Q86 -517 149.5 -617Q213 -717 270 -769Q281 -779 289 -785Z"/>
</svg>