<svg xmlns="http://www.w3.org/2000/svg" viewBox="0 -1024 1024 1024">
	<path fill="#000088" d="M319 -746Q336 -727 346 -702Q369 -711 389 -711Q420 -711 446 -698Q464 -689 488 -666.5Q512 -644 526 -636Q533 -632 536 -624L564 -562Q565 -561 565 -559L585 -487Q586 -485 586 -483L596 -395Q596 -393 596 -392L594 -280Q594 -276 593 -273Q592 -268 589 -259Q574 -204 552 -180Q547 -173 536.5 -159.5Q526 -146 517.5 -135.5Q509 -125 499 -116Q478 -96 455 -88Q415 -75 357 -75Q297 -75 243.5 -91Q190 -107 158 -138Q116 -178 116 -235L102 -384Q102 -385 102 -386Q102 -427 114.5 -500.5Q127 -574 150 -639Q176 -711 208 -748Q182 -753 151 -753H49Q39 -753 31.5 -760.5Q24 -768 24 -778Q24 -788 31.5 -795.5Q39 -803 49 -803H151Q215 -803 260 -785Q275 -791 291 -791H297Q349 -809 452 -811Q472 -812 492 -812Q584 -812 667 -799Q676 -797 682 -790Q688 -783 688 -774Q688 -764 680.5 -756.5Q673 -749 663 -749Q661 -749 659 -749Q580 -762 492 -762Q473 -762 454 -761Q362 -759 319 -746ZM302 -676Q291 -711 261 -729Q254 -725 248 -717Q220 -687 197 -623Q177 -564 164.5 -493Q152 -422 152 -387L166 -238Q166 -237 166 -236Q166 -199 193 -174Q215 -153 255 -140Q301 -125 357 -125Q407 -125 439 -136Q452 -140 465 -152Q476 -163 498 -191Q512 -210 515 -213Q529 -228 541 -273Q543 -280 544 -284L546 -391L536 -475L517 -543L493 -597Q479 -606 457 -627Q435 -648 423 -654Q409 -661 389 -661Q378 -661 363 -655Q360 -654 357 -652Q358 -642 358 -632Q358 -617 352 -599Q343 -576 328 -560Q309 -539 285 -539Q271 -539 263 -551Q260 -556 258 -564Q254 -579 254 -592Q254 -638 302 -676Z"/>
	<path fill="#800080" d="M269 -746Q286 -727 296 -702Q319 -711 339 -711Q370 -711 396 -698Q414 -689 438 -666.5Q462 -644 476 -636Q483 -632 486 -624L514 -562Q515 -561 515 -559L535 -487Q536 -485 536 -483L546 -395Q546 -393 546 -392L544 -280Q544 -276 543 -273Q542 -268 539 -259Q524 -204 502 -180Q497 -173 486.5 -159.5Q476 -146 467.5 -135.5Q459 -125 449 -116Q428 -96 405 -88Q365 -75 307 -75Q247 -75 193.5 -91Q140 -107 108 -138Q66 -178 66 -235L52 -384Q52 -385 52 -386Q52 -427 64.5 -500.5Q77 -574 100 -639Q126 -711 158 -748Q132 -753 101 -753H-1Q-11 -753 -18.5 -760.5Q-26 -768 -26 -778Q-26 -788 -18.5 -795.5Q-11 -803 -1 -803H101Q165 -803 210 -785Q225 -791 241 -791H247Q299 -809 402 -811Q422 -812 442 -812Q534 -812 617 -799Q626 -797 632 -790Q638 -783 638 -774Q638 -764 630.5 -756.5Q623 -749 613 -749Q611 -749 609 -749Q530 -762 442 -762Q423 -762 404 -761Q312 -759 269 -746ZM252 -676Q241 -711 211 -729Q204 -725 198 -717Q170 -687 147 -623Q127 -564 114.5 -493Q102 -422 102 -387L116 -238Q116 -237 116 -236Q116 -199 143 -174Q165 -153 205 -140Q251 -125 307 -125Q357 -125 389 -136Q402 -140 415 -152Q426 -163 448 -191Q462 -210 465 -213Q479 -228 491 -273Q493 -280 494 -284L496 -391L486 -475L467 -543L443 -597Q429 -606 407 -627Q385 -648 373 -654Q359 -661 339 -661Q328 -661 313 -655Q310 -654 307 -652Q308 -642 308 -632Q308 -617 302 -599Q293 -576 278 -560Q259 -539 235 -539Q221 -539 213 -551Q210 -556 208 -564Q204 -579 204 -592Q204 -638 252 -676Z"/>
	<path fill="#daa520" d="M-1 -773Q-6 -773 -6 -778Q-6 -783 -1 -783H101Q166 -783 209 -764Q225 -771 241 -771H250Q300 -789 403 -791Q423 -792 442 -792Q533 -792 614 -779Q618 -778 618 -774Q618 -769 613 -769Q613 -769 612 -769Q532 -782 442 -782Q423 -782 403 -781Q301 -779 253 -761Q252 -761 251 -761H241Q231 -761 221 -758Q271 -730 284 -674Q313 -691 339 -691Q360 -691 377.5 -684Q395 -677 404 -670Q413 -663 427 -649Q450 -627 466 -618Q467 -618 468 -616L496 -554Q496 -554 496 -553L516 -481L526 -393Q526 -392 526 -392L524 -280Q524 -279 524 -279Q523 -274 519 -260.5Q515 -247 513 -241.5Q511 -236 507 -225.5Q503 -215 498 -207.5Q493 -200 487 -193Q482 -187 468.5 -169Q455 -151 447.5 -142.5Q440 -134 426.5 -123Q413 -112 399 -107Q362 -95 307 -95Q269 -95 233 -102.5Q197 -110 164.5 -125.5Q132 -141 111 -169.5Q90 -198 86 -236L72 -386Q72 -424 84.5 -497Q97 -570 119 -633Q153 -728 198 -758Q159 -773 101 -773ZM235 -559Q231 -559 228 -565Q224 -576 224 -592Q224 -634 275 -668Q263 -727 210 -753Q163 -727 129 -629Q107 -568 94.5 -495.5Q82 -423 82 -386L96 -236Q96 -202 115 -175.5Q134 -149 165.5 -134Q197 -119 233 -112Q269 -105 307 -105Q360 -105 395 -117Q408 -121 420.5 -131.5Q433 -142 440.5 -150.5Q448 -159 461.5 -176.5Q475 -194 479 -199Q485 -206 489.5 -212.5Q494 -219 498 -229.5Q502 -240 503.5 -244.5Q505 -249 509 -263.5Q513 -278 514 -281L516 -392L506 -479L486 -550L459 -611Q444 -620 420 -642Q406 -656 398 -662.5Q390 -669 374 -675Q358 -681 339 -681Q315 -681 286 -663Q288 -648 288 -632Q288 -619 281 -602Q274 -585 264 -573Q250 -559 235 -559ZM234 -592Q234 -580 237 -569Q251 -571 262 -588Q278 -611 278 -632Q278 -645 276 -657Q234 -626 234 -592Z"/>
</svg>