<svg xmlns="http://www.w3.org/2000/svg" viewBox="0 -1024 1024 1024">
	<path fill="#000088" d="M256 -247Q263 -247 268 -244Q283 -242 288 -228Q299 -201 299 -177Q299 -177 299 -173Q299 -169 299 -166Q299 -148 295 -138Q287 -119 268 -119Q262 -119 255 -121Q249 -123 241 -127Q204 -144 185 -167Q174 -181 174 -195Q174 -204 180 -213Q181 -216 187 -224Q193 -232 202 -234L250 -246Q253 -247 256 -247ZM233 -190Q239 -185 249 -179Q249 -186 247 -194ZM619 -347Q619 -334 619.5 -306.5Q620 -279 620 -266Q620 -261 620 -256Q632 -244 642 -232Q686 -178 686 -123V-99Q686 -93 684 -86Q679 -68 670 -59Q661 -52 651 -52Q640 -52 632 -60Q603 -86 587.5 -134Q572 -182 570 -234Q519 -279 440 -317.5Q361 -356 281 -378Q201 -401 151 -401Q149 -401 142 -399Q127 -391 124 -389Q119 -386 112 -386Q102 -386 94.5 -393.5Q87 -401 87 -411Q87 -424 97 -433Q102 -438 111 -442Q117 -444 124 -446Q481 -650 609 -742Q549 -731 454 -731Q438 -731 403 -731Q374 -731 341.5 -732.5Q309 -734 284.5 -735.5Q260 -737 221.5 -740.5Q183 -744 165 -746Q147 -748 103 -752.5Q59 -757 46 -758Q37 -759 30.5 -766Q24 -773 24 -783Q24 -793 31.5 -800.5Q39 -808 49 -808Q50 -808 52 -808Q308 -782 407 -781Q438 -781 454 -781Q565 -781 631 -798Q657 -805 671 -805Q687 -805 696 -797Q706 -788 706 -775Q706 -765 699 -755Q695 -748 686 -739Q670 -724 638 -701Q577 -657 457 -584Q354 -521 220 -444Q255 -438 295 -426Q367 -406 441 -372Q515 -338 570 -298Q569 -334 569 -347Q569 -426 579.5 -486.5Q590 -547 622 -598Q635 -620 654.5 -659.5Q674 -699 681 -711Q708 -760 714 -786Q715 -795 722 -800.5Q729 -806 738 -806H796Q806 -806 813.5 -798.5Q821 -791 821 -781Q821 -771 813.5 -763.5Q806 -756 796 -756H757Q744 -723 725 -687Q719 -675 699 -635Q679 -595 664 -572Q638 -529 628.5 -475Q619 -421 619 -347Z"/>
	<path fill="#800080" d="M206 -247Q213 -247 218 -244Q233 -242 238 -228Q249 -201 249 -177Q249 -177 249 -173Q249 -169 249 -166Q249 -148 245 -138Q237 -119 218 -119Q212 -119 205 -121Q199 -123 191 -127Q154 -144 135 -167Q124 -181 124 -195Q124 -204 130 -213Q131 -216 137 -224Q143 -232 152 -234L200 -246Q203 -247 206 -247ZM183 -190Q189 -185 199 -179Q199 -186 197 -194ZM569 -347Q569 -334 569.5 -306.5Q570 -279 570 -266Q570 -261 570 -256Q582 -244 592 -232Q636 -178 636 -123V-99Q636 -93 634 -86Q629 -68 620 -59Q611 -52 601 -52Q590 -52 582 -60Q553 -86 537.5 -134Q522 -182 520 -234Q469 -279 390 -317.5Q311 -356 231 -378Q151 -401 101 -401Q99 -401 92 -399Q77 -391 74 -389Q69 -386 62 -386Q52 -386 44.5 -393.5Q37 -401 37 -411Q37 -424 47 -433Q52 -438 61 -442Q67 -444 74 -446Q431 -650 559 -742Q499 -731 404 -731Q388 -731 353 -731Q324 -731 291.5 -732.5Q259 -734 234.5 -735.5Q210 -737 171.5 -740.5Q133 -744 115 -746Q97 -748 53 -752.5Q9 -757 -4 -758Q-13 -759 -19.5 -766Q-26 -773 -26 -783Q-26 -793 -18.5 -800.5Q-11 -808 -1 -808Q0 -808 2 -808Q258 -782 357 -781Q388 -781 404 -781Q515 -781 581 -798Q607 -805 621 -805Q637 -805 646 -797Q656 -788 656 -775Q656 -765 649 -755Q645 -748 636 -739Q620 -724 588 -701Q527 -657 407 -584Q304 -521 170 -444Q205 -438 245 -426Q317 -406 391 -372Q465 -338 520 -298Q519 -334 519 -347Q519 -426 529.5 -486.5Q540 -547 572 -598Q585 -620 604.5 -659.5Q624 -699 631 -711Q658 -760 664 -786Q665 -795 672 -800.5Q679 -806 688 -806H746Q756 -806 763.5 -798.5Q771 -791 771 -781Q771 -771 763.5 -763.5Q756 -756 746 -756H707Q694 -723 675 -687Q669 -675 649 -635Q629 -595 614 -572Q588 -529 578.5 -475Q569 -421 569 -347Z"/>
	<path fill="#daa520" d="M219 -177Q219 -195 210 -217Q210 -218 210 -219Q209 -218 207 -217L161 -206Q155 -197 154 -195Q154 -186 176 -170Q202 -151 217 -149Q219 -154 219 -166Q219 -169 219 -172Q219 -175 219 -177ZM229 -166Q229 -155 228 -149Q225 -139 218 -139Q202 -139 170 -162Q144 -181 144 -195Q144 -198 147 -203Q148 -205 152 -210Q155 -214 157 -215L205 -227Q205 -227 206 -227Q211 -227 211 -222Q213 -224 215 -224Q218 -224 220 -221Q229 -197 229 -177Q229 -175 229 -172Q229 -169 229 -166ZM550 -266Q550 -264 550 -259Q550 -254 550 -252Q550 -250 550 -248Q616 -186 616 -123V-99Q616 -92 612 -83Q607 -72 601 -72Q598 -72 596 -74Q583 -86 574 -103Q542 -160 540 -243Q501 -279 442 -313Q358 -360 259.5 -390.5Q161 -421 101 -421Q96 -421 85 -418Q65 -407 64 -407Q63 -406 62 -406Q57 -406 57 -411Q57 -416 62 -420Q68 -424 81 -428Q255 -526 391 -609Q510 -682 570 -725Q601 -747 615 -761Q624 -770 626 -775Q624 -775 621 -775Q611 -775 588 -769Q519 -751 404 -751Q388 -751 353 -751Q256 -752 -2 -778Q-6 -778 -6 -783Q-6 -788 -1 -788Q-1 -788 0 -788Q257 -762 357 -761Q388 -761 404 -761Q518 -761 586 -779Q609 -785 621 -785Q636 -785 636 -775Q636 -767 622 -754Q607 -740 576 -717Q449 -626 107 -431Q170 -429 267 -398.5Q364 -368 447 -321Q502 -290 540 -257Q540 -261 540 -266Q540 -279 539.5 -306Q539 -333 539 -347Q539 -424 549 -482Q559 -540 589 -588Q603 -610 622.5 -649.5Q642 -689 649 -701Q677 -753 683 -782Q684 -786 688 -786H746Q751 -786 751 -781Q751 -776 746 -776H692Q684 -745 657 -697Q651 -685 631 -645Q611 -605 597 -582Q568 -536 558.5 -479.5Q549 -423 549 -347Q549 -333 549.5 -306Q550 -279 550 -266ZM606 -123Q606 -177 550 -233Q554 -159 582 -107Q590 -93 601 -83Q602 -85 603 -88Q606 -95 606 -99Z"/>
</svg>