<svg xmlns="http://www.w3.org/2000/svg" viewBox="0 -1024 1024 1024">
	<path fill="#000088" d="M195 -747Q176 -747 137.5 -749.5Q99 -752 81 -752Q66 -752 61 -751Q53 -750 48 -750Q44 -750 41 -751Q33 -752 28 -757Q19 -765 19 -776Q19 -785 25 -792Q33 -803 46 -803Q51 -803 56 -801Q63 -802 81 -802Q100 -802 138 -799.5Q176 -797 195 -797Q200 -797 209.5 -797Q219 -797 224 -797Q253 -797 312 -792.5Q371 -788 400 -788Q414 -788 427 -789Q461 -791 512 -795Q525 -799 538 -799Q545 -799 548 -798Q552 -798 554 -797Q586 -806 629 -806Q631 -806 634.5 -806Q638 -806 640 -806Q652 -806 684 -806.5Q716 -807 728 -807Q739 -807 745 -807Q755 -807 762 -799.5Q769 -792 769 -782Q769 -772 761.5 -764.5Q754 -757 744 -757Q742 -757 737 -757Q732 -757 728 -757Q717 -757 684.5 -756.5Q652 -756 640 -756Q638 -756 634.5 -756Q631 -756 629 -756Q538 -756 513 -703Q500 -676 495 -604Q493 -567 491 -552Q533 -581 580 -581Q609 -581 632 -566Q685 -529 685 -420Q685 -384 670 -360Q647 -323 598 -323Q557 -323 518 -340.5Q479 -358 455 -383Q445 -394 437 -406Q406 -342 391 -268Q418 -221 436 -166Q439 -154 439 -141Q439 -109 424 -89Q411 -73 393 -73Q382 -73 372 -80Q359 -89 349 -112Q335 -145 333 -166Q332 -177 332 -190Q332 -222 338 -259Q283 -347 194 -399Q142 -371 88 -371Q67 -371 52 -391Q43 -401 38 -416Q31 -434 31 -448Q31 -458 38 -466Q44 -473 54 -475Q65 -479 89 -479Q108 -479 127 -477Q144 -476 150 -474Q172 -466 192 -457Q204 -465 216 -476Q268 -519 356 -639Q410 -712 435 -739Q417 -738 400 -738Q370 -738 311.5 -742.5Q253 -747 224 -747Q219 -747 209.5 -747Q200 -747 195 -747ZM239 -430Q305 -387 353 -325Q380 -418 424 -483Q427 -505 433 -521Q442 -544 445 -607Q449 -661 454 -685Q435 -662 396 -610Q364 -566 347 -544Q330 -522 299 -487.5Q268 -453 239 -430ZM580 -531Q527 -531 480 -473Q476 -469 473 -464Q473 -459 473 -458Q473 -437 491 -418Q507 -400 534 -388Q567 -373 598 -373Q619 -373 627 -387Q635 -399 635 -420Q635 -461 626 -489Q618 -515 603 -524Q594 -531 580 -531ZM389 -147Q389 -150 384 -163Q386 -156 389 -147ZM89 -429Q88 -429 87 -429Q89 -424 91 -421Q110 -421 129 -427Q109 -429 89 -429Z"/>
	<path fill="#800080" d="M146 -747Q127 -747 88.5 -749.5Q50 -752 32 -752Q17 -752 12 -751Q4 -750 -1 -750Q-5 -750 -8 -751Q-16 -752 -21 -757Q-30 -765 -30 -776Q-30 -785 -24 -792Q-16 -803 -3 -803Q2 -803 7 -801Q14 -802 32 -802Q51 -802 89 -799.5Q127 -797 146 -797Q151 -797 160.5 -797Q170 -797 175 -797Q204 -797 263 -792.5Q322 -788 351 -788Q365 -788 378 -789Q412 -791 463 -795Q476 -799 489 -799Q496 -799 499 -798Q503 -798 505 -797Q537 -806 580 -806Q582 -806 585.5 -806Q589 -806 591 -806Q603 -806 635 -806.5Q667 -807 679 -807Q690 -807 696 -807Q706 -807 713 -799.5Q720 -792 720 -782Q720 -772 712.5 -764.5Q705 -757 695 -757Q693 -757 688 -757Q683 -757 679 -757Q668 -757 635.5 -756.5Q603 -756 591 -756Q589 -756 585.5 -756Q582 -756 580 -756Q489 -756 464 -703Q451 -676 446 -604Q444 -567 442 -552Q484 -581 531 -581Q560 -581 583 -566Q636 -529 636 -420Q636 -384 621 -360Q598 -323 549 -323Q508 -323 469 -340.5Q430 -358 406 -383Q396 -394 388 -406Q357 -342 342 -268Q369 -221 387 -166Q390 -154 390 -141Q390 -109 375 -89Q362 -73 344 -73Q333 -73 323 -80Q310 -89 300 -112Q286 -145 284 -166Q283 -177 283 -190Q283 -222 289 -259Q234 -347 145 -399Q93 -371 39 -371Q18 -371 3 -391Q-6 -401 -11 -416Q-18 -434 -18 -448Q-18 -458 -11 -466Q-5 -473 5 -475Q16 -479 40 -479Q59 -479 78 -477Q95 -476 101 -474Q123 -466 143 -457Q155 -465 167 -476Q219 -519 307 -639Q361 -712 386 -739Q368 -738 351 -738Q321 -738 262.5 -742.5Q204 -747 175 -747Q170 -747 160.5 -747Q151 -747 146 -747ZM190 -430Q256 -387 304 -325Q331 -418 375 -483Q378 -505 384 -521Q393 -544 396 -607Q400 -661 405 -685Q386 -662 347 -610Q315 -566 298 -544Q281 -522 250 -487.5Q219 -453 190 -430ZM531 -531Q478 -531 431 -473Q427 -469 424 -464Q424 -459 424 -458Q424 -437 442 -418Q458 -400 485 -388Q518 -373 549 -373Q570 -373 578 -387Q586 -399 586 -420Q586 -461 577 -489Q569 -515 554 -524Q545 -531 531 -531ZM340 -147Q340 -150 335 -163Q337 -156 340 -147ZM40 -429Q39 -429 38 -429Q40 -424 42 -421Q61 -421 80 -427Q60 -429 40 -429Z"/>
	<path fill="#daa520" d="M-2 -770Q-10 -770 -10 -776Q-10 -779 -6 -782Q-5 -783 -3 -783Q0 -783 2 -780Q3 -780 6 -780.5Q9 -781 11 -781Q21 -782 32 -782Q51 -782 89 -779.5Q127 -777 146 -777Q151 -777 160.5 -777Q170 -777 175 -777Q204 -777 263 -772.5Q322 -768 351 -768Q366 -768 379 -769Q418 -771 467 -775Q478 -779 489 -779Q490 -779 492 -779Q494 -779 494.5 -779Q495 -779 495 -779Q500 -779 500 -774Q533 -786 580 -786Q582 -786 585.5 -786Q589 -786 591 -786Q603 -786 635.5 -786.5Q668 -787 679 -787Q690 -787 695 -787Q700 -787 700 -782Q700 -777 695 -777Q693 -777 688 -777Q683 -777 679 -777Q668 -777 635.5 -776.5Q603 -776 591 -776Q589 -776 585.5 -776Q582 -776 580 -776Q476 -776 445 -712Q431 -681 426 -605Q422 -538 412 -510Q408 -502 407 -491Q464 -561 531 -561Q565 -561 585.5 -535Q606 -509 611 -481Q616 -453 616 -420Q616 -386 599.5 -364.5Q583 -343 549 -343Q552 -341 552 -340Q552 -339 551 -339Q540 -339 503.5 -355Q467 -371 430.5 -400Q394 -429 394 -456Q342 -375 321 -265Q350 -216 368 -160Q370 -151 370 -141Q370 -116 359 -101Q353 -93 344 -93Q330 -93 318 -120Q306 -150 304 -168Q303 -178 303 -190Q303 -223 310 -263Q253 -359 156 -416Q151 -419 145 -422Q92 -391 39 -391Q28 -391 18 -403Q2 -424 2 -448Q2 -455 14 -457Q23 -459 40 -459Q82 -459 95 -455Q121 -446 144 -434Q176 -454 211 -489.5Q246 -525 267 -552Q288 -579 323 -627Q386 -713 416 -741Q430 -755 443 -763Q377 -758 351 -758Q322 -758 263 -762.5Q204 -767 175 -767Q170 -767 160.5 -767Q151 -767 146 -767Q127 -767 89 -769.5Q51 -772 32 -772Q15 -772 9 -771Q2 -770 -1 -770Q-2 -770 -2 -770ZM313 -278Q337 -395 395 -475Q397 -500 402 -514Q412 -540 416 -605Q421 -684 436 -716Q452 -750 485 -767Q479 -766 469 -766Q448 -758 423 -734Q394 -707 331 -621Q296 -573 276 -547.5Q256 -522 221 -485.5Q186 -449 154 -428Q252 -373 313 -278ZM531 -551Q469 -551 415 -486Q410 -479 405 -472Q404 -460 404 -458Q404 -415 451.5 -384Q499 -353 549 -353Q606 -353 606 -420Q606 -551 531 -551ZM360 -141Q360 -149 358 -156Q342 -206 318 -250Q313 -217 313 -190Q313 -178 314 -168Q316 -152 328 -124Q336 -103 344 -103Q348 -103 351 -108Q360 -119 360 -141ZM40 -449Q19 -449 12 -446Q13 -434 21 -417.5Q29 -401 39 -401Q39 -401 38 -401Q42 -401 58.5 -404Q75 -407 98.5 -414Q122 -421 134 -428Q114 -438 91 -445Q81 -449 40 -449Z"/>
</svg>