<svg xmlns="http://www.w3.org/2000/svg" viewBox="0 -1024 1024 1024">
	<path fill="#000088" d="M547 -277Q547 -287 544 -308Q541 -329 541 -341Q541 -342 541 -343Q545 -385 558.5 -427Q572 -469 592 -517Q612 -565 620 -592Q625 -607 630 -620Q606 -669 560.5 -705.5Q515 -742 460 -758Q442 -763 442 -782Q442 -792 449.5 -799.5Q457 -807 467 -807Q471 -807 474 -806Q529 -790 577.5 -755.5Q626 -721 658 -673Q665 -685 673 -695Q699 -726 762 -769Q794 -791 812 -805Q819 -810 827 -810Q837 -810 844.5 -802.5Q852 -795 852 -785Q852 -773 842 -765Q824 -751 790 -728Q747 -699 724.5 -677.5Q702 -656 685 -620Q702 -576 702 -530Q702 -514 705 -477Q708 -440 708 -422Q708 -407 706.5 -392Q705 -377 702.5 -359.5Q700 -342 699 -332Q699 -331 699 -330Q696 -316 691 -291Q686 -266 683.5 -250Q681 -234 675.5 -212.5Q670 -191 665 -172Q663 -164 657 -142.5Q651 -121 648 -110Q643 -93 640 -88Q633 -73 617 -73Q602 -73 595 -86Q594 -88 588.5 -97Q583 -106 580.5 -111Q578 -116 574.5 -124.5Q571 -133 569 -141.5Q567 -150 567 -159Q567 -162 568 -165Q566 -174 559.5 -193Q553 -212 550 -228Q547 -244 547 -261Q547 -263 547 -268.5Q547 -274 547 -277ZM652 -530Q652 -531 652 -532Q649 -525 634.5 -488Q620 -451 614.5 -435.5Q609 -420 601 -391.5Q593 -363 591 -340Q591 -330 594 -309Q597 -288 597 -277Q597 -274 597 -268.5Q597 -263 597 -261Q597 -250 600 -236.5Q603 -223 608.5 -205Q614 -187 615 -181Q616 -184 617 -186Q624 -211 649 -339Q650 -347 652.5 -364.5Q655 -382 656.5 -396Q658 -410 658 -422Q658 -423 658 -425Q658 -427 658 -428Q658 -444 655 -479Q652 -514 652 -530ZM345 -810Q345 -810 346 -810L470 -806Q480 -806 487 -798.5Q494 -791 494 -781Q494 -771 486.5 -763.5Q479 -756 469 -756Q469 -756 468 -756L344 -760Q334 -760 327 -767.5Q320 -775 320 -785Q320 -795 327.5 -802.5Q335 -810 345 -810ZM101 -341Q101 -329 102 -309Q103 -289 103 -283Q106 -196 118 -162Q124 -178 141 -178Q144 -178 147 -177L195 -165Q207 -162 212 -151Q213 -148 228 -115Q230 -110 230 -105Q230 -92 224 -83Q215 -70 199 -66Q191 -64 180 -64Q179 -64 178 -64Q177 -64 177 -64Q139 -64 112 -84Q78 -109 65 -165Q59 -188 56.5 -211.5Q54 -235 53.5 -269Q53 -303 52 -315.5Q51 -328 51 -341Q51 -473 143 -637Q144 -638 144 -639Q178 -691 238 -760H49Q39 -760 31.5 -767.5Q24 -775 24 -785Q24 -795 31.5 -802.5Q39 -810 49 -810H293Q303 -810 310.5 -802.5Q318 -795 318 -785Q318 -775 312 -768Q309 -766 295 -750Q281 -734 277.5 -730Q274 -726 261.5 -711.5Q249 -697 244 -691Q239 -685 229 -672.5Q219 -660 213 -652Q207 -644 199.5 -633Q192 -622 186 -612Q101 -469 101 -341ZM174 -114Q172 -118 171 -120L137 -128Q151 -115 174 -114Z"/>
	<path fill="#800080" d="M497 -277Q497 -287 494 -308Q491 -329 491 -341Q491 -342 491 -343Q495 -385 508.5 -427Q522 -469 542 -517Q562 -565 570 -592Q575 -607 580 -620Q556 -669 510.5 -705.5Q465 -742 410 -758Q392 -763 392 -782Q392 -792 399.5 -799.5Q407 -807 417 -807Q421 -807 424 -806Q479 -790 527.5 -755.5Q576 -721 608 -673Q615 -685 623 -695Q649 -726 712 -769Q744 -791 762 -805Q769 -810 777 -810Q787 -810 794.5 -802.5Q802 -795 802 -785Q802 -773 792 -765Q774 -751 740 -728Q697 -699 674.5 -677.5Q652 -656 635 -620Q652 -576 652 -530Q652 -514 655 -477Q658 -440 658 -422Q658 -407 656.5 -392Q655 -377 652.5 -359.5Q650 -342 649 -332Q649 -331 649 -330Q646 -316 641 -291Q636 -266 633.5 -250Q631 -234 625.5 -212.5Q620 -191 615 -172Q613 -164 607 -142.5Q601 -121 598 -110Q593 -93 590 -88Q583 -73 567 -73Q552 -73 545 -86Q544 -88 538.5 -97Q533 -106 530.5 -111Q528 -116 524.5 -124.5Q521 -133 519 -141.5Q517 -150 517 -159Q517 -162 518 -165Q516 -174 509.5 -193Q503 -212 500 -228Q497 -244 497 -261Q497 -263 497 -268.5Q497 -274 497 -277ZM602 -530Q602 -531 602 -532Q599 -525 584.5 -488Q570 -451 564.5 -435.5Q559 -420 551 -391.5Q543 -363 541 -340Q541 -330 544 -309Q547 -288 547 -277Q547 -274 547 -268.5Q547 -263 547 -261Q547 -250 550 -236.5Q553 -223 558.5 -205Q564 -187 565 -181Q566 -184 567 -186Q574 -211 599 -339Q600 -347 602.5 -364.5Q605 -382 606.5 -396Q608 -410 608 -422Q608 -423 608 -425Q608 -427 608 -428Q608 -444 605 -479Q602 -514 602 -530ZM295 -810Q295 -810 296 -810L420 -806Q430 -806 437 -798.5Q444 -791 444 -781Q444 -771 436.5 -763.5Q429 -756 419 -756Q419 -756 418 -756L294 -760Q284 -760 277 -767.5Q270 -775 270 -785Q270 -795 277.5 -802.5Q285 -810 295 -810ZM51 -341Q51 -329 52 -309Q53 -289 53 -283Q56 -196 68 -162Q74 -178 91 -178Q94 -178 97 -177L145 -165Q157 -162 162 -151Q163 -148 178 -115Q180 -110 180 -105Q180 -92 174 -83Q165 -70 149 -66Q141 -64 130 -64Q129 -64 128 -64Q127 -64 127 -64Q89 -64 62 -84Q28 -109 15 -165Q9 -188 6.5 -211.5Q4 -235 3.5 -269Q3 -303 2 -315.5Q1 -328 1 -341Q1 -473 93 -637Q94 -638 94 -639Q128 -691 188 -760H-1Q-11 -760 -18.5 -767.5Q-26 -775 -26 -785Q-26 -795 -18.5 -802.5Q-11 -810 -1 -810H243Q253 -810 260.5 -802.5Q268 -795 268 -785Q268 -775 262 -768Q259 -766 245 -750Q231 -734 227.5 -730Q224 -726 211.5 -711.5Q199 -697 194 -691Q189 -685 179 -672.5Q169 -660 163 -652Q157 -644 149.5 -633Q142 -622 136 -612Q51 -469 51 -341ZM124 -114Q122 -118 121 -120L87 -128Q101 -115 124 -114Z"/>
	<path fill="#daa520" d="M517 -277Q517 -287 514 -308.5Q511 -330 511 -341Q515 -381 528 -422.5Q541 -464 561 -512Q581 -560 589 -586Q595 -604 602 -621Q577 -676 527 -718Q477 -760 416 -777Q412 -778 412 -782Q412 -787 417 -787Q418 -787 418 -787Q479 -769 530 -728.5Q581 -688 608 -633Q622 -662 642 -685Q662 -708 677.5 -720Q693 -732 723 -753Q756 -775 774 -789Q775 -790 777 -790Q782 -790 782 -785Q782 -783 780 -781Q762 -767 729 -745Q705 -728 693 -719.5Q681 -711 664 -695.5Q647 -680 635.5 -662Q624 -644 613 -621Q632 -577 632 -530Q632 -513 635 -476Q638 -439 638 -422Q638 -408 636.5 -393.5Q635 -379 632.5 -361.5Q630 -344 629 -334Q626 -321 621.5 -295.5Q617 -270 614 -254.5Q611 -239 606 -217.5Q601 -196 596 -178Q595 -175 586.5 -144.5Q578 -114 574 -101Q572 -96 571 -95Q569 -93 567 -93Q564 -93 563 -96Q562 -97 556.5 -106Q551 -115 549 -119Q547 -123 543.5 -131Q540 -139 538.5 -145.5Q537 -152 537 -159Q537 -163 538 -167Q536 -177 530 -195Q524 -213 520.5 -229.5Q517 -246 517 -261Q517 -263 517 -268.5Q517 -274 517 -277ZM527 -277Q527 -274 527 -268.5Q527 -263 527 -261Q527 -242 537 -206.5Q547 -171 548 -168Q548 -168 548 -167Q548 -166 547.5 -163.5Q547 -161 547 -159Q547 -141 566 -110Q569 -120 576.5 -147Q584 -174 586 -180Q591 -198 596 -219.5Q601 -241 604 -256.5Q607 -272 611.5 -297Q616 -322 619 -336Q620 -345 622.5 -362.5Q625 -380 626.5 -394.5Q628 -409 628 -422Q628 -423 628 -425Q628 -427 628 -428Q628 -444 625 -479Q622 -514 622 -530Q622 -570 608 -608Q603 -596 599 -582Q591 -557 571 -509Q551 -461 538 -420Q525 -379 521 -341Q521 -330 524 -309Q527 -288 527 -277ZM290 -785Q290 -790 295 -790L419 -786Q424 -786 424 -781Q424 -776 419 -776L295 -780Q290 -780 290 -785ZM31 -341Q31 -329 32 -309Q33 -289 33 -283Q34 -255 35 -239Q36 -223 39 -197.5Q42 -172 48.5 -156.5Q55 -141 64.5 -125Q74 -109 90 -101.5Q106 -94 127 -94Q149 -94 150 -104Q139 -129 135 -137L90 -148Q86 -149 86 -153Q86 -158 91 -158Q92 -158 92 -158L140 -146Q143 -145 144 -143Q160 -107 160 -105Q160 -84 128 -84Q127 -84 127 -84Q106 -84 90 -91.5Q74 -99 63.5 -109Q53 -119 45.5 -137.5Q38 -156 34 -170Q30 -184 27.5 -209Q25 -234 24.5 -246Q24 -258 23 -282Q23 -289 22 -309Q21 -329 21 -341Q21 -468 111 -627Q111 -628 111 -628Q150 -688 232 -780H-1Q-6 -780 -6 -785Q-6 -790 -1 -790H243Q248 -790 248 -785Q248 -783 247 -782Q244 -779 230 -763Q216 -747 212 -742.5Q208 -738 195.5 -724Q183 -710 178 -703.5Q173 -697 162.5 -684.5Q152 -672 146 -663.5Q140 -655 132.5 -644Q125 -633 119 -622Q31 -474 31 -341Z"/>
</svg>