<svg xmlns="http://www.w3.org/2000/svg" viewBox="0 -1024 1024 1024">
	<path fill="#000088" d="M237 -751Q237 -761 244.5 -768.5Q252 -776 262 -776Q272 -776 279.5 -768.5Q287 -761 287 -751V-745Q287 -720 279.5 -690.5Q272 -661 265.5 -645Q259 -629 245 -595Q217 -530 210 -497Q296 -521 335 -530Q359 -536 367 -536Q376 -536 383 -530Q429 -492 457.5 -439.5Q486 -387 486 -329Q486 -319 484 -298Q479 -241 471 -210Q460 -165 439 -138Q407 -96 355 -96Q295 -96 250 -125Q234 -135 218 -150Q202 -165 194.5 -175Q187 -185 172 -204Q135 -252 112 -269Q104 -275 102 -285L87 -378Q87 -378 87 -379L78 -448Q78 -449 78 -450L75 -576Q75 -577 75 -577Q75 -587 82.5 -594.5Q90 -602 100 -602Q110 -602 117.5 -595Q125 -588 125 -578L128 -453Q135 -393 150 -303Q175 -282 211 -235Q251 -183 277 -167Q309 -146 355 -146Q383 -146 399 -168Q414 -187 422 -222Q429 -248 435 -312Q436 -321 436 -329Q436 -371 415.5 -412Q395 -453 359 -485Q339 -481 288 -467L188 -439Q185 -438 181 -438Q171 -438 163.5 -445.5Q156 -453 156 -463Q156 -488 163.5 -518Q171 -548 177.5 -564Q184 -580 199 -614Q237 -704 237 -745Z"/>
	<path fill="#800080" d="M187 -751Q187 -761 194.5 -768.5Q202 -776 212 -776Q222 -776 229.5 -768.5Q237 -761 237 -751V-745Q237 -720 229.5 -690.5Q222 -661 215.5 -645Q209 -629 195 -595Q167 -530 160 -497Q246 -521 285 -530Q309 -536 317 -536Q326 -536 333 -530Q379 -492 407.5 -439.5Q436 -387 436 -329Q436 -319 434 -298Q429 -241 421 -210Q410 -165 389 -138Q357 -96 305 -96Q245 -96 200 -125Q184 -135 168 -150Q152 -165 144.5 -175Q137 -185 122 -204Q85 -252 62 -269Q54 -275 52 -285L37 -378Q37 -378 37 -379L28 -448Q28 -449 28 -450L25 -576Q25 -577 25 -577Q25 -587 32.5 -594.5Q40 -602 50 -602Q60 -602 67.5 -595Q75 -588 75 -578L78 -453Q85 -393 100 -303Q125 -282 161 -235Q201 -183 227 -167Q259 -146 305 -146Q333 -146 349 -168Q364 -187 372 -222Q379 -248 385 -312Q386 -321 386 -329Q386 -371 365.5 -412Q345 -453 309 -485Q289 -481 238 -467L138 -439Q135 -438 131 -438Q121 -438 113.5 -445.5Q106 -453 106 -463Q106 -488 113.5 -518Q121 -548 127.5 -564Q134 -580 149 -614Q187 -704 187 -745Z"/>
	<path fill="#daa520" d="M207 -751Q207 -756 212 -756Q217 -756 217 -751V-745Q217 -706 197.5 -656Q178 -606 158 -556.5Q138 -507 136 -470Q297 -516 317 -516Q319 -516 320 -515Q364 -479 390 -430.5Q416 -382 416 -329Q416 -320 414 -300Q412 -280 411 -269.5Q410 -259 406 -236.5Q402 -214 397.5 -200.5Q393 -187 385 -169Q377 -151 366.5 -141Q356 -131 340 -123.5Q324 -116 305 -116Q267 -116 237 -127.5Q207 -139 186.5 -159.5Q166 -180 150 -201Q134 -222 114 -246Q94 -270 74 -285Q72 -286 72 -288Q55 -395 48 -450Q48 -451 48 -451L45 -577Q45 -582 50 -582Q55 -582 55 -577L58 -451Q65 -395 82 -292Q107 -272 146 -222Q165 -198 176 -185.5Q187 -173 206.5 -156.5Q226 -140 250 -133Q274 -126 305 -126Q325 -126 340.5 -133.5Q356 -141 366 -157Q376 -173 383 -188Q390 -203 394 -227.5Q398 -252 400 -266Q402 -280 404 -304Q405 -308 405 -310Q406 -320 406 -329Q406 -379 381.5 -425Q357 -471 315 -506Q305 -505 259 -493Q213 -481 173 -470L132 -458Q132 -458 131 -458Q126 -458 126 -463Q126 -485 133 -512.5Q140 -540 146.5 -557Q153 -574 167 -606Q207 -700 207 -745Z"/>
</svg>