<svg xmlns="http://www.w3.org/2000/svg" viewBox="0 -1024 1024 1024">
	<path fill="#000088" d="M350 -223Q350 -234 359 -241Q364 -259 379.5 -270.5Q395 -282 414 -282Q438 -282 455 -265Q472 -248 472 -224Q472 -200 455 -183Q438 -166 414 -166Q390 -166 370.5 -181.5Q351 -197 350 -221Q350 -222 350 -223ZM406 -224Q406 -221 405 -218Q409 -216 414 -216Q422 -216 422 -224Q422 -232 414 -232Q406 -232 406 -224ZM364 -572Q364 -573 364 -575Q367 -600 385 -618Q403 -636 429 -636Q446 -636 460 -625Q484 -605 484 -569Q484 -533 460 -513Q446 -502 429 -502Q408 -502 394 -516.5Q380 -531 376 -551Q364 -558 364 -572ZM424 -569Q424 -559 429 -553Q434 -558 434 -569Q434 -580 428 -586Q425 -586 422 -584Q424 -579 424 -574Q424 -573 424 -571.5Q424 -570 424 -569Z"/>
	<path fill="#800080" d="M300 -223Q300 -234 309 -241Q314 -259 329.5 -270.5Q345 -282 364 -282Q388 -282 405 -265Q422 -248 422 -224Q422 -200 405 -183Q388 -166 364 -166Q340 -166 320.5 -181.5Q301 -197 300 -221Q300 -222 300 -223ZM356 -224Q356 -221 355 -218Q359 -216 364 -216Q372 -216 372 -224Q372 -232 364 -232Q356 -232 356 -224ZM314 -572Q314 -573 314 -575Q317 -600 335 -618Q353 -636 379 -636Q396 -636 410 -625Q434 -605 434 -569Q434 -533 410 -513Q396 -502 379 -502Q358 -502 344 -516.5Q330 -531 326 -551Q314 -558 314 -572ZM374 -569Q374 -559 379 -553Q384 -558 384 -569Q384 -580 378 -586Q375 -586 372 -584Q374 -579 374 -574Q374 -573 374 -571.5Q374 -570 374 -569Z"/>
	<path fill="#daa520" d="M364 -262Q380 -262 391 -251Q402 -240 402 -224Q402 -208 391 -197Q380 -186 364 -186Q347 -186 334 -196.5Q321 -207 320 -222V-223Q320 -227 326 -228Q328 -242 338.5 -252Q349 -262 364 -262ZM331 -218Q333 -209 342.5 -202.5Q352 -196 364 -196Q375 -196 383.5 -204.5Q392 -213 392 -224Q392 -235 383.5 -243.5Q375 -252 364 -252Q353 -252 344.5 -243.5Q336 -235 336 -224Q336 -220 331 -218ZM354 -569Q354 -553 361.5 -542.5Q369 -532 379 -532Q389 -532 396.5 -542.5Q404 -553 404 -569Q404 -585 396.5 -595.5Q389 -606 379 -606Q367 -606 357.5 -598Q348 -590 345 -577Q346 -579 349 -579Q354 -579 354 -574Q354 -573 354 -571.5Q354 -570 354 -569ZM344 -569Q344 -569 344 -570Q344 -571 344 -571Q343 -567 339 -567Q334 -567 334 -572Q334 -572 334 -573Q336 -591 348.5 -603.5Q361 -616 379 -616Q394 -616 404 -602Q414 -588 414 -569Q414 -550 404 -536Q394 -522 379 -522Q364 -522 354 -536Q344 -550 344 -569Z"/>
</svg>