<svg xmlns="http://www.w3.org/2000/svg" viewBox="0 -1024 1024 1024">
	<path fill="#000088" d="M170 -458Q170 -468 177.5 -475.5Q185 -483 195 -483Q207 -483 215 -473Q253 -422 273 -361Q274 -357 274 -353Q274 -353 274 -352L268 -142Q268 -140 267 -137L261 -113Q257 -94 237 -94Q227 -94 219.5 -101.5Q212 -109 212 -119Q212 -122 213 -125L218 -146L224 -349Q207 -401 175 -443Q170 -450 170 -458ZM241 -616Q261 -616 274 -609Q298 -595 298 -560Q298 -549 292 -537Q286 -526 277 -517Q269 -509 260 -504Q250 -499 238 -499Q189 -499 174 -560Q173 -563 173 -566Q173 -577 181 -584Q179 -588 179 -593Q179 -603 186.5 -610.5Q194 -618 204 -618Q207 -618 211 -617Q215 -616 218.5 -616Q222 -616 229.5 -616Q237 -616 241 -616ZM224 -566Q229 -549 238 -549Q242 -551 245 -556Q247 -559 248 -561Q248 -564 248 -566Q245 -566 241 -566Q238 -566 231.5 -566Q225 -566 224 -566Z"/>
	<path fill="#800080" d="M120 -458Q120 -468 127.5 -475.5Q135 -483 145 -483Q157 -483 165 -473Q203 -422 223 -361Q224 -357 224 -353Q224 -353 224 -352L218 -142Q218 -140 217 -137L211 -113Q207 -94 187 -94Q177 -94 169.5 -101.5Q162 -109 162 -119Q162 -122 163 -125L168 -146L174 -349Q157 -401 125 -443Q120 -450 120 -458ZM191 -616Q211 -616 224 -609Q248 -595 248 -560Q248 -549 242 -537Q236 -526 227 -517Q219 -509 210 -504Q200 -499 188 -499Q139 -499 124 -560Q123 -563 123 -566Q123 -577 131 -584Q129 -588 129 -593Q129 -603 136.5 -610.5Q144 -618 154 -618Q157 -618 161 -617Q165 -616 168.5 -616Q172 -616 179.5 -616Q187 -616 191 -616ZM174 -566Q179 -549 188 -549Q192 -551 195 -556Q197 -559 198 -561Q198 -564 198 -566Q195 -566 191 -566Q188 -566 181.5 -566Q175 -566 174 -566Z"/>
	<path fill="#daa520" d="M140 -458Q140 -463 145 -463Q147 -463 149 -461Q185 -413 204 -355Q204 -354 204 -353L198 -143Q198 -142 198 -142L192 -118Q191 -114 187 -114Q182 -114 182 -119Q182 -120 182 -120L188 -144L194 -352Q176 -408 141 -455Q140 -456 140 -458ZM191 -596Q228 -596 228 -560Q228 -546 213 -531Q201 -519 188 -519Q155 -519 143 -565Q143 -565 143 -566Q143 -571 148 -571Q152 -571 153 -567Q163 -529 188 -529Q188 -529 189 -529Q190 -529 190 -529Q197 -529 206 -538Q218 -550 218 -560Q218 -578 209 -583Q203 -586 191 -586Q187 -586 179.5 -586Q172 -586 169 -586Q149 -586 149 -593Q149 -598 154 -598Q155 -598 156 -598Q160 -596 169 -596Q172 -596 179.5 -596Q187 -596 191 -596Z"/>
</svg>