<svg xmlns="http://www.w3.org/2000/svg" viewBox="0 -1024 1024 1024">
	<path fill="#000088" d="M67 -643Q57 -643 49.5 -650.5Q42 -658 42 -668Q42 -671 43 -674Q43 -678 43 -685.5Q43 -693 43.5 -696.5Q44 -700 45.5 -705.5Q47 -711 50 -716Q57 -725 94 -780Q100 -789 110 -791Q174 -803 238 -815Q241 -815 243 -815H359Q363 -815 374 -812L440 -794Q440 -794 479 -782Q496 -776 496 -758Q496 -748 488.5 -740.5Q481 -733 471 -733Q467 -733 463 -734Q439 -742 361 -764L356 -765H245L130 -743Q102 -704 93 -690Q93 -685 93 -680Q93 -679 93 -677Q93 -675 93 -674Q93 -668 91 -661Q86 -643 67 -643ZM420 -166Q420 -168 420 -173Q420 -178 420 -181Q420 -194 418 -221Q416 -248 416 -259Q416 -276 416 -292Q416 -414 438 -539Q446 -582 459 -620Q458 -645 458 -657Q457 -694 454 -715Q451 -738 446 -750Q440 -748 433 -744Q430 -742 388 -710Q367 -694 346 -662Q319 -623 293 -547Q289 -529 286 -523Q283 -516 277 -512Q271 -507 263 -507Q249 -507 241 -519Q238 -525 238 -532Q238 -536 239 -541Q240 -548 245 -560Q251 -588 251 -602Q251 -637 221 -670Q192 -701 143 -724.5Q94 -748 46 -756Q37 -758 31 -765Q25 -772 25 -781Q25 -791 32.5 -798.5Q40 -806 50 -806Q52 -806 54 -806Q126 -793 193 -755.5Q260 -718 287 -662Q295 -677 304 -690Q330 -728 358 -750Q362 -753 372 -761.5Q382 -770 390.5 -776Q399 -782 408 -788Q431 -801 451 -801Q479 -801 492 -769Q500 -750 504 -719Q507 -725 511 -732Q513 -735 515 -738L565 -788Q569 -791 573 -793L607 -807Q612 -809 617 -809Q627 -809 634.5 -801.5Q642 -794 642 -784Q642 -767 627 -761L597 -749L553 -705Q524 -653 510 -613Q521 -411 521 -370Q521 -345 520 -321Q520 -319 521 -303Q524 -241 524 -203Q524 -148 518 -119Q513 -95 502 -84Q491 -73 477 -73Q466 -73 457 -82Q454 -85 450 -91Q438 -110 426 -143Q423 -150 422 -155Q420 -161 420 -166ZM471 -370Q471 -386 470 -403Q466 -347 466 -292Q466 -276 466 -261Q466 -249 468 -222.5Q470 -196 470 -181Q470 -174 470 -168Q471 -165 473 -160Q474 -179 474 -203Q474 -240 471 -300Q470 -318 470 -321Q470 -329 470.5 -345.5Q471 -362 471 -370Z"/>
	<path fill="#800080" d="M17 -643Q7 -643 -0.5 -650.5Q-8 -658 -8 -668Q-8 -671 -7 -674Q-7 -678 -7 -685.5Q-7 -693 -6.5 -696.5Q-6 -700 -4.5 -705.5Q-3 -711 0 -716Q7 -725 44 -780Q50 -789 60 -791Q124 -803 188 -815Q191 -815 193 -815H309Q313 -815 324 -812L390 -794Q390 -794 429 -782Q446 -776 446 -758Q446 -748 438.5 -740.5Q431 -733 421 -733Q417 -733 413 -734Q389 -742 311 -764L306 -765H195L80 -743Q52 -704 43 -690Q43 -685 43 -680Q43 -679 43 -677Q43 -675 43 -674Q43 -668 41 -661Q36 -643 17 -643ZM370 -166Q370 -168 370 -173Q370 -178 370 -181Q370 -194 368 -221Q366 -248 366 -259Q366 -276 366 -292Q366 -414 388 -539Q396 -582 409 -620Q408 -645 408 -657Q407 -694 404 -715Q401 -738 396 -750Q390 -748 383 -744Q380 -742 338 -710Q317 -694 296 -662Q269 -623 243 -547Q239 -529 236 -523Q233 -516 227 -512Q221 -507 213 -507Q199 -507 191 -519Q188 -525 188 -532Q188 -536 189 -541Q190 -548 195 -560Q201 -588 201 -602Q201 -637 171 -670Q142 -701 93 -724.5Q44 -748 -4 -756Q-13 -758 -19 -765Q-25 -772 -25 -781Q-25 -791 -17.5 -798.5Q-10 -806 0 -806Q2 -806 4 -806Q76 -793 143 -755.5Q210 -718 237 -662Q245 -677 254 -690Q280 -728 308 -750Q312 -753 322 -761.5Q332 -770 340.5 -776Q349 -782 358 -788Q381 -801 401 -801Q429 -801 442 -769Q450 -750 454 -719Q457 -725 461 -732Q463 -735 465 -738L515 -788Q519 -791 523 -793L557 -807Q562 -809 567 -809Q577 -809 584.5 -801.5Q592 -794 592 -784Q592 -767 577 -761L547 -749L503 -705Q474 -653 460 -613Q471 -411 471 -370Q471 -345 470 -321Q470 -319 471 -303Q474 -241 474 -203Q474 -148 468 -119Q463 -95 452 -84Q441 -73 427 -73Q416 -73 407 -82Q404 -85 400 -91Q388 -110 376 -143Q373 -150 372 -155Q370 -161 370 -166ZM421 -370Q421 -386 420 -403Q416 -347 416 -292Q416 -276 416 -261Q416 -249 418 -222.5Q420 -196 420 -181Q420 -174 420 -168Q421 -165 423 -160Q424 -179 424 -203Q424 -240 421 -300Q420 -318 420 -321Q420 -329 420.5 -345.5Q421 -362 421 -370Z"/>
	<path fill="#daa520" d="M18 -663Q13 -663 13 -668Q13 -669 13 -669Q14 -671 14 -681Q14 -699 18 -705Q24 -714 62 -769Q63 -771 65 -771Q65 -771 193 -795Q194 -795 194 -795H310Q311 -795 319 -793Q399 -771 424 -763Q427 -762 427 -758Q427 -753 422 -753Q421 -753 420 -753Q396 -762 317 -783L309 -785H194L69 -761Q33 -710 26 -699Q25 -697 24.5 -683.5Q24 -670 23 -666.5Q22 -663 18 -663ZM214 -527Q208 -527 208 -532Q208 -537 215 -556Q222 -586 222 -602Q222 -645 186 -683.5Q150 -722 101 -744.5Q52 -767 0 -776Q-4 -777 -4 -781Q-4 -786 1 -786Q1 -786 2 -786Q40 -779 79 -763.5Q118 -748 153 -725.5Q188 -703 210 -670.5Q232 -638 232 -602Q251 -647 272 -679Q296 -714 321 -734Q323 -736 337.5 -748Q352 -760 359 -765Q366 -770 379 -775.5Q392 -781 402 -781Q423 -781 432 -738Q434 -725 435.5 -711Q437 -697 437.5 -687.5Q438 -678 438.5 -662.5Q439 -647 439 -641Q454 -676 480 -722Q480 -723 480 -724L530 -774Q531 -774 532 -775L566 -789Q567 -789 568 -789Q573 -789 573 -784Q573 -781 570 -779L537 -766L488 -717Q456 -660 441 -616Q452 -407 452 -370Q452 -345 451 -322V-321Q451 -319 452 -302Q455 -241 455 -203Q455 -150 450 -123Q443 -93 428 -93Q425 -93 422 -96Q420 -98 418 -101Q411 -113 401 -136Q391 -159 391 -166Q391 -168 391 -173Q391 -178 391 -181Q391 -195 389 -221.5Q387 -248 387 -260Q387 -276 387 -292Q387 -412 409 -535Q417 -579 431 -617Q429 -645 429 -658Q427 -710 422 -736Q415 -771 402 -771Q395 -771 387.5 -768Q380 -765 371 -759.5Q362 -754 356 -749.5Q350 -745 340 -737Q330 -729 327 -726Q303 -708 280 -673.5Q257 -639 233 -574Q228 -562 225 -553Q222 -540 219 -533Q218 -530 217 -529Q216 -527 214 -527ZM442 -370Q442 -423 432 -589Q424 -563 419 -533Q397 -411 397 -292Q397 -276 397 -260Q397 -249 399 -222Q401 -195 401 -181Q401 -173 401 -166Q401 -161 410 -141Q422 -111 429 -103H428Q435 -103 440 -125Q445 -151 445 -203Q445 -240 442 -301Q441 -318 441 -321Q441 -329 441.5 -345.5Q442 -362 442 -370Z"/>
</svg>