<svg xmlns="http://www.w3.org/2000/svg" viewBox="0 -1024 1024 1024">
	<path fill="#000088" d="M190 -290Q188 -290 186 -290Q186 -290 186 -290Q177 -290 169 -295Q156 -304 156 -321Q156 -350 191 -372Q210 -384 266 -407Q332 -433 355 -449Q375 -463 377 -476Q330 -575 241 -647.5Q152 -720 42 -753Q24 -758 24 -777Q24 -787 31.5 -794.5Q39 -802 49 -802Q53 -802 56 -801Q178 -765 276.5 -684Q375 -603 426 -490Q428 -485 428 -480Q428 -440 384 -409Q365 -395 340 -383.5Q315 -372 284 -360Q253 -348 237 -340H247Q248 -340 249 -340Q332 -333 381 -322Q431 -311 465 -293V-294Q465 -381 481 -440Q478 -446 476 -452Q450 -508 444 -587Q441 -621 441 -639Q441 -658 448 -676.5Q455 -695 461 -704Q467 -713 478 -727Q493 -745 498 -755Q503 -765 513 -768L597 -792Q599 -793 602 -793L704 -802Q705 -802 706 -802Q706 -802 707 -802L803 -799Q813 -799 820 -791.5Q827 -784 827 -774Q827 -764 819.5 -756.5Q812 -749 802 -749Q802 -749 801 -749L707 -752L609 -743L537 -723Q531 -713 517 -696Q507 -683 502.5 -677Q498 -671 494.5 -661Q491 -651 491 -639Q491 -623 494 -587Q498 -539 509 -504Q522 -523 538 -536Q571 -562 616 -562Q618 -562 619 -562Q651 -558 676 -532Q707 -500 707 -459Q707 -455 706.5 -446.5Q706 -438 706 -434Q706 -394 699 -376Q689 -352 666 -341Q648 -332 622 -332Q621 -332 620 -332Q562 -337 520 -381Q515 -343 515 -294Q515 -279 516 -255Q550 -218 550 -167Q550 -130 538 -100Q534 -88 527 -82Q519 -75 508 -75Q492 -75 483 -90Q477 -99 474 -119Q468 -151 468 -195Q468 -210 467 -233Q434 -259 370 -274Q324 -284 246 -290ZM657 -459Q657 -480 640 -497Q628 -510 614 -512Q576 -511 553 -479Q543 -465 535 -444Q567 -387 623 -382Q637 -382 645 -386Q650 -388 652 -394Q656 -403 656 -434Q656 -437 656.5 -446Q657 -455 657 -459Z"/>
	<path fill="#800080" d="M140 -290Q138 -290 136 -290Q136 -290 136 -290Q127 -290 119 -295Q106 -304 106 -321Q106 -350 141 -372Q160 -384 216 -407Q282 -433 305 -449Q325 -463 327 -476Q280 -575 191 -647.5Q102 -720 -8 -753Q-26 -758 -26 -777Q-26 -787 -18.5 -794.5Q-11 -802 -1 -802Q3 -802 6 -801Q128 -765 226.5 -684Q325 -603 376 -490Q378 -485 378 -480Q378 -440 334 -409Q315 -395 290 -383.5Q265 -372 234 -360Q203 -348 187 -340H197Q198 -340 199 -340Q282 -333 331 -322Q381 -311 415 -293V-294Q415 -381 431 -440Q428 -446 426 -452Q400 -508 394 -587Q391 -621 391 -639Q391 -658 398 -676.5Q405 -695 411 -704Q417 -713 428 -727Q443 -745 448 -755Q453 -765 463 -768L547 -792Q549 -793 552 -793L654 -802Q655 -802 656 -802Q656 -802 657 -802L753 -799Q763 -799 770 -791.5Q777 -784 777 -774Q777 -764 769.5 -756.5Q762 -749 752 -749Q752 -749 751 -749L657 -752L559 -743L487 -723Q481 -713 467 -696Q457 -683 452.5 -677Q448 -671 444.5 -661Q441 -651 441 -639Q441 -623 444 -587Q448 -539 459 -504Q472 -523 488 -536Q521 -562 566 -562Q568 -562 569 -562Q601 -558 626 -532Q657 -500 657 -459Q657 -455 656.5 -446.5Q656 -438 656 -434Q656 -394 649 -376Q639 -352 616 -341Q598 -332 572 -332Q571 -332 570 -332Q512 -337 470 -381Q465 -343 465 -294Q465 -279 466 -255Q500 -218 500 -167Q500 -130 488 -100Q484 -88 477 -82Q469 -75 458 -75Q442 -75 433 -90Q427 -99 424 -119Q418 -151 418 -195Q418 -210 417 -233Q384 -259 320 -274Q274 -284 196 -290ZM607 -459Q607 -480 590 -497Q578 -510 564 -512Q526 -511 503 -479Q493 -465 485 -444Q517 -387 573 -382Q587 -382 595 -386Q600 -388 602 -394Q606 -403 606 -434Q606 -437 606.5 -446Q607 -455 607 -459Z"/>
	<path fill="#daa520" d="M136 -321Q136 -320 136.5 -320Q137 -320 138 -320Q139 -320 140 -320H197Q246 -316 278 -312Q310 -308 359 -293.5Q408 -279 436 -257Q435 -279 435 -294Q435 -384 452 -441Q448 -450 444 -460Q420 -513 414 -589Q411 -622 411 -639Q411 -662 420 -680Q429 -698 444.5 -716.5Q460 -735 466 -746Q467 -748 469 -749L553 -773Q553 -773 554 -773L656 -782L752 -779Q757 -779 757 -774Q757 -769 752 -769L656 -772L555 -763L473 -740Q467 -728 451 -708Q441 -695 436 -688Q431 -681 426 -667.5Q421 -654 421 -639Q421 -623 424 -585Q430 -516 454 -464Q454 -463 455.5 -459.5Q457 -456 457 -455Q489 -542 566 -542Q566 -542 567 -542Q595 -539 616 -513.5Q637 -488 637 -459Q637 -455 636.5 -446.5Q636 -438 636 -434Q636 -398 630 -383Q618 -352 572 -352Q500 -358 459 -428Q445 -375 445 -294Q445 -278 446 -247Q480 -215 480 -167Q480 -134 469 -107Q465 -95 458 -95Q453 -95 449 -103Q446 -109 443 -123Q438 -152 438 -195Q438 -211 437 -242Q411 -266 363.5 -281.5Q316 -297 281 -301.5Q246 -306 197 -310H140Q139 -310 138 -310Q137 -310 136 -310Q133 -310 130 -312Q126 -314 126 -321Q126 -339 151 -355Q169 -366 223 -388Q292 -416 317 -433Q347 -455 348 -479Q300 -585 206.5 -661.5Q113 -738 -2 -772Q-6 -773 -6 -777Q-6 -782 -1 -782Q0 -782 0 -782Q118 -747 213 -668.5Q308 -590 358 -482Q358 -481 358 -480Q358 -450 323 -425Q297 -407 227 -379Q174 -358 157 -346Q136 -333 136 -321ZM627 -459Q627 -484 608.5 -506.5Q590 -529 566 -532Q492 -532 463 -442Q501 -368 572 -362Q611 -362 621 -387Q626 -400 626 -434Q626 -438 626.5 -446.5Q627 -455 627 -459ZM448 -195Q448 -159 452 -131Q455 -114 458 -106Q460 -109 461 -113Q470 -139 470 -167Q470 -204 447 -231Q448 -210 448 -195Z"/>
</svg>