<svg xmlns="http://www.w3.org/2000/svg" viewBox="0 -1024 1024 1024">
	<path fill="#000088" d="M353 -757Q352 -757 349 -757Q346 -757 345 -757Q325 -757 308 -745Q286 -729 271 -695Q326 -693 362 -653.5Q398 -614 398 -558Q398 -534 386 -497Q380 -478 372 -467Q359 -449 341 -449Q339 -449 338 -449Q277 -456 243 -510Q241 -496 236 -486Q228 -467 211 -457Q197 -449 177 -449Q171 -449 166 -451Q93 -486 93 -535Q93 -543 95 -552Q109 -612 139 -646Q156 -665 179 -677Q157 -708 120 -730.5Q83 -753 45 -759Q36 -761 30 -768Q24 -775 24 -784Q24 -794 31.5 -801.5Q39 -809 49 -809Q51 -809 53 -809Q102 -800 147 -772.5Q192 -745 221 -705Q241 -758 279 -786Q309 -807 345 -807Q348 -807 352 -807Q368 -810 384 -810Q434 -810 476.5 -786Q519 -762 543 -721Q560 -747 578 -776Q582 -781 588 -784L636 -808Q641 -811 647 -811Q657 -811 664.5 -803.5Q672 -796 672 -786Q672 -771 658 -764L616 -743Q585 -694 566 -663Q569 -646 569 -628Q569 -610 566 -592Q563 -568 558 -519Q550 -442 545 -400.5Q540 -359 525 -294.5Q510 -230 489 -179Q486 -171 481 -151.5Q476 -132 471 -118Q466 -104 459 -90Q454 -80 448 -74Q438 -65 426 -65Q409 -65 400 -81Q394 -92 394 -114Q394 -117 395 -119Q407 -179 424 -301Q435 -380 442 -422Q449 -464 465 -531Q481 -598 502 -651Q504 -658 512 -671Q498 -710 463 -735Q428 -760 384 -760Q371 -760 357 -757Q355 -757 353 -757ZM503 -475Q491 -415 474 -294Q491 -364 503 -475ZM256 -642Q256 -636 258.5 -621.5Q261 -607 262 -603Q267 -563 285 -535.5Q303 -508 334 -501Q347 -530 348 -558Q349 -596 325.5 -620.5Q302 -645 267 -645Q261 -645 256 -645Q256 -643 256 -642ZM143 -535Q143 -527 152 -519Q161 -510 182 -499Q185 -500 187 -501Q189 -502 190 -506Q193 -512 195 -535Q198 -558 201 -569Q205 -585 205 -601Q205 -617 201 -632Q187 -625 176 -613Q154 -589 143 -540Q143 -538 143 -535Z"/>
	<path fill="#800080" d="M303 -757Q302 -757 299 -757Q296 -757 295 -757Q275 -757 258 -745Q236 -729 221 -695Q276 -693 312 -653.5Q348 -614 348 -558Q348 -534 336 -497Q330 -478 322 -467Q309 -449 291 -449Q289 -449 288 -449Q227 -456 193 -510Q191 -496 186 -486Q178 -467 161 -457Q147 -449 127 -449Q121 -449 116 -451Q43 -486 43 -535Q43 -543 45 -552Q59 -612 89 -646Q106 -665 129 -677Q107 -708 70 -730.5Q33 -753 -5 -759Q-14 -761 -20 -768Q-26 -775 -26 -784Q-26 -794 -18.5 -801.5Q-11 -809 -1 -809Q1 -809 3 -809Q52 -800 97 -772.5Q142 -745 171 -705Q191 -758 229 -786Q259 -807 295 -807Q298 -807 302 -807Q318 -810 334 -810Q384 -810 426.5 -786Q469 -762 493 -721Q510 -747 528 -776Q532 -781 538 -784L586 -808Q591 -811 597 -811Q607 -811 614.5 -803.5Q622 -796 622 -786Q622 -771 608 -764L566 -743Q535 -694 516 -663Q519 -646 519 -628Q519 -610 516 -592Q513 -568 508 -519Q500 -442 495 -400.5Q490 -359 475 -294.5Q460 -230 439 -179Q436 -171 431 -151.5Q426 -132 421 -118Q416 -104 409 -90Q404 -80 398 -74Q388 -65 376 -65Q359 -65 350 -81Q344 -92 344 -114Q344 -117 345 -119Q357 -179 374 -301Q385 -380 392 -422Q399 -464 415 -531Q431 -598 452 -651Q454 -658 462 -671Q448 -710 413 -735Q378 -760 334 -760Q321 -760 307 -757Q305 -757 303 -757ZM453 -475Q441 -415 424 -294Q441 -364 453 -475ZM206 -642Q206 -636 208.5 -621.5Q211 -607 212 -603Q217 -563 235 -535.5Q253 -508 284 -501Q297 -530 298 -558Q299 -596 275.5 -620.5Q252 -645 217 -645Q211 -645 206 -645Q206 -643 206 -642ZM93 -535Q93 -527 102 -519Q111 -510 132 -499Q135 -500 137 -501Q139 -502 140 -506Q143 -512 145 -535Q148 -558 151 -569Q155 -585 155 -601Q155 -617 151 -632Q137 -625 126 -613Q104 -589 93 -540Q93 -538 93 -535Z"/>
	<path fill="#daa520" d="M303 -777Q302 -777 299 -777Q296 -777 295 -777Q257 -777 230 -746.5Q203 -716 192 -674Q204 -675 217 -675Q265 -675 296.5 -641Q328 -607 328 -558Q328 -538 317 -503Q312 -487 306 -479Q299 -469 291 -469Q291 -469 290 -469Q247 -474 220 -506Q193 -538 184 -584Q183 -572 180 -561Q177 -552 175 -532Q174 -517 172 -509Q170 -501 165.5 -490Q161 -479 151.5 -474Q142 -469 127 -469Q126 -469 125 -469Q63 -498 63 -535Q63 -541 64 -547Q86 -644 159 -667Q136 -709 91.5 -739.5Q47 -770 -2 -779Q-6 -780 -6 -784Q-6 -789 -1 -789Q-1 -789 0 -789Q52 -780 99 -747.5Q146 -715 169 -670Q175 -671 181 -672Q182 -674 182 -675Q194 -720 223 -753.5Q252 -787 295 -787Q300 -787 303 -787Q318 -790 334 -790Q388 -790 431 -759.5Q474 -729 491 -679Q510 -712 545 -765Q546 -766 547 -766L595 -790Q596 -791 597 -791Q602 -791 602 -786Q602 -783 599 -782L552 -758Q515 -700 494 -666Q499 -647 499 -628Q499 -612 496 -595Q493 -569 487 -511.5Q481 -454 477 -423Q473 -392 465.5 -346.5Q458 -301 447 -262Q436 -223 420 -186Q417 -178 412 -158.5Q407 -139 402.5 -125.5Q398 -112 391 -100Q383 -85 376 -85Q371 -85 368 -90Q364 -97 364 -114Q364 -115 364 -115Q377 -175 394 -298Q405 -376 412 -418.5Q419 -461 434.5 -526.5Q450 -592 470 -644Q472 -649 484 -668Q470 -717 428.5 -748.5Q387 -780 334 -780Q319 -780 304 -777Q303 -777 303 -777ZM176 -652Q177 -657 178 -662Q175 -661 173 -661Q175 -656 176 -652ZM374 -113Q374 -101 376 -95Q379 -99 383 -104Q389 -116 393.5 -129.5Q398 -143 403 -162Q408 -181 410 -189Q410 -190 410 -190Q426 -226 437 -264.5Q448 -303 456 -348.5Q464 -394 467.5 -424.5Q471 -455 477 -513Q483 -571 486 -597Q489 -612 489 -628Q489 -641 487 -654Q481 -643 480 -640Q460 -589 444.5 -524Q429 -459 422 -416.5Q415 -374 404 -297Q387 -174 374 -113ZM186 -642Q186 -634 189 -619Q192 -604 192 -601Q198 -553 223 -518.5Q248 -484 291 -479Q294 -479 297 -484Q303 -492 307 -507Q318 -539 318 -558Q318 -604 289.5 -634.5Q261 -665 217 -665Q202 -665 189 -663Q186 -653 186 -646Q186 -645 186 -644Q186 -643 186 -642ZM73 -535Q73 -505 128 -479Q139 -479 146.5 -483Q154 -487 157.5 -495.5Q161 -504 162.5 -511Q164 -518 165 -533Q167 -554 170 -563Q175 -582 175 -601Q175 -630 163 -658Q126 -647 105 -619Q84 -591 74 -545Q73 -540 73 -535Z"/>
</svg>