<svg xmlns="http://www.w3.org/2000/svg" viewBox="0 -1024 1024 1024">
	<path fill="#000088" d="M30 -290Q30 -364 100 -416Q87 -438 74 -473Q55 -523 55 -566Q55 -649 121 -705Q154 -733 203 -752L49 -756Q39 -756 32 -763.5Q25 -771 25 -781Q25 -791 32.5 -798.5Q40 -806 50 -806Q50 -806 51 -806L249 -801L344 -802Q359 -803 372 -803Q393 -803 420 -800Q437 -799 447 -799Q466 -799 493 -803Q496 -803 499 -803Q510 -803 517 -796Q529 -799 542 -799Q551 -799 570 -801Q589 -803 591 -803Q593 -803 606 -804.5Q619 -806 627 -806Q637 -806 644.5 -798.5Q652 -791 652 -781Q652 -771 645 -763.5Q638 -756 627 -756Q622 -756 610 -754.5Q598 -753 595 -753Q594 -753 574 -751Q554 -749 542 -749Q525 -749 518 -740Q514 -735 514 -727Q514 -722 515 -719Q551 -682 551 -615Q551 -596 548 -575Q537 -491 530 -281Q529 -267 524.5 -236.5Q520 -206 520 -192Q520 -179 523 -168Q526 -156 527 -135Q527 -120 529 -114Q530 -109 530 -104Q530 -88 515 -78Q505 -71 483 -67Q457 -63 433 -63Q296 -63 217 -83Q113 -109 66 -171Q30 -221 30 -290ZM448 -728Q441 -728 435 -732Q421 -736 389 -736Q320 -736 254 -717Q191 -698 153 -667Q105 -626 105 -566Q105 -532 120 -491Q132 -459 144 -441Q181 -457 220 -459Q223 -459 227 -459Q274 -459 331 -426Q347 -417 347 -400Q347 -387 336 -378Q330 -373 322 -370Q306 -364 269 -357.5Q232 -351 219 -351Q168 -351 133 -378Q80 -341 80 -290Q80 -237 107 -201Q142 -153 229 -131Q302 -113 433 -113Q445 -113 464 -115Q470 -116 477 -117Q477 -122 476.5 -136Q476 -150 475 -156Q470 -172 470 -192Q470 -209 475 -239.5Q480 -270 480 -283Q487 -495 498 -581Q501 -600 501 -615Q501 -662 479 -685Q464 -701 464 -727Q464 -730 464 -732Q458 -730 456 -729Q452 -728 448 -728ZM190 -404Q203 -401 219 -401Q234 -402 254 -406Q240 -409 227 -409Q210 -409 190 -404Z"/>
	<path fill="#800080" d="M-20 -290Q-20 -364 50 -416Q37 -438 24 -473Q5 -523 5 -566Q5 -649 71 -705Q104 -733 153 -752L-1 -756Q-11 -756 -18 -763.5Q-25 -771 -25 -781Q-25 -791 -17.5 -798.5Q-10 -806 0 -806Q0 -806 1 -806L199 -801L294 -802Q309 -803 322 -803Q343 -803 370 -800Q387 -799 397 -799Q416 -799 443 -803Q446 -803 449 -803Q460 -803 467 -796Q479 -799 492 -799Q501 -799 520 -801Q539 -803 541 -803Q543 -803 556 -804.5Q569 -806 577 -806Q587 -806 594.5 -798.5Q602 -791 602 -781Q602 -771 595 -763.5Q588 -756 577 -756Q572 -756 560 -754.5Q548 -753 545 -753Q544 -753 524 -751Q504 -749 492 -749Q475 -749 468 -740Q464 -735 464 -727Q464 -722 465 -719Q501 -682 501 -615Q501 -596 498 -575Q487 -491 480 -281Q479 -267 474.5 -236.5Q470 -206 470 -192Q470 -179 473 -168Q476 -156 477 -135Q477 -120 479 -114Q480 -109 480 -104Q480 -88 465 -78Q455 -71 433 -67Q407 -63 383 -63Q246 -63 167 -83Q63 -109 16 -171Q-20 -221 -20 -290ZM398 -728Q391 -728 385 -732Q371 -736 339 -736Q270 -736 204 -717Q141 -698 103 -667Q55 -626 55 -566Q55 -532 70 -491Q82 -459 94 -441Q131 -457 170 -459Q173 -459 177 -459Q224 -459 281 -426Q297 -417 297 -400Q297 -387 286 -378Q280 -373 272 -370Q256 -364 219 -357.5Q182 -351 169 -351Q118 -351 83 -378Q30 -341 30 -290Q30 -237 57 -201Q92 -153 179 -131Q252 -113 383 -113Q395 -113 414 -115Q420 -116 427 -117Q427 -122 426.5 -136Q426 -150 425 -156Q420 -172 420 -192Q420 -209 425 -239.5Q430 -270 430 -283Q437 -495 448 -581Q451 -600 451 -615Q451 -662 429 -685Q414 -701 414 -727Q414 -730 414 -732Q408 -730 406 -729Q402 -728 398 -728ZM140 -404Q153 -401 169 -401Q184 -402 204 -406Q190 -409 177 -409Q160 -409 140 -404Z"/>
	<path fill="#daa520" d="M397 -769Q383 -769 361 -771Q339 -773 322 -773Q318 -773 309 -772.5Q300 -772 295 -772L199 -771L0 -776Q-5 -776 -5 -781Q-5 -786 0 -786L199 -781L295 -782Q310 -783 322 -783Q342 -783 368 -780Q386 -779 397 -779Q417 -779 446 -783Q448 -783 449 -783Q455 -783 455 -778Q455 -775 452 -773Q448 -769 431 -761Q420 -756 409 -752Q400 -748 398 -748Q397 -748 395 -749Q385 -756 339 -756Q304 -756 266.5 -751Q229 -746 186.5 -732Q144 -718 111.5 -698Q79 -678 57 -643.5Q35 -609 35 -566Q35 -528 52 -484Q69 -437 87 -415Q128 -437 171 -439Q174 -439 177 -439Q218 -439 271 -408Q277 -405 277 -400Q277 -396 273 -393Q270 -391 264 -388Q254 -384 233 -380Q187 -371 169 -371Q116 -371 85 -403Q52 -383 31 -354Q10 -325 10 -290Q10 -251 23.5 -220Q37 -189 58 -168.5Q79 -148 112 -133.5Q145 -119 175.5 -111.5Q206 -104 247 -99.5Q288 -95 316.5 -94Q345 -93 383 -93Q404 -93 428 -97Q441 -99 447 -102Q450 -104 450 -104Q447 -114 446.5 -133Q446 -152 444 -161Q440 -175 440 -192Q440 -208 445 -238Q450 -268 450 -282Q457 -494 468 -579Q471 -598 471 -615Q471 -670 443 -699Q434 -709 434 -727Q434 -748 448.5 -763.5Q463 -779 492 -779Q500 -779 508.5 -779.5Q517 -780 527 -781.5Q537 -783 543 -783Q545 -783 557.5 -784.5Q570 -786 577 -786Q582 -786 582 -781Q582 -776 577 -776Q571 -776 558.5 -774.5Q546 -773 543 -773Q542 -773 522.5 -771Q503 -769 492 -769Q467 -769 455.5 -756.5Q444 -744 444 -727Q444 -713 451 -705Q481 -674 481 -615Q481 -598 478 -577Q467 -493 460 -282Q460 -268 455 -237.5Q450 -207 450 -192Q450 -176 454 -163Q456 -154 456.5 -135.5Q457 -117 460 -108Q460 -106 460 -104Q460 -98 451 -93Q444 -90 429 -87Q405 -83 383 -83Q345 -83 317 -84Q289 -85 246.5 -89.5Q204 -94 173 -101.5Q142 -109 107.5 -124.5Q73 -140 51 -161.5Q29 -183 14.5 -216Q0 -249 0 -290Q0 -327 21.5 -358.5Q43 -390 79 -411Q60 -434 42 -480Q25 -526 25 -566Q25 -612 48 -648.5Q71 -685 105 -706.5Q139 -728 183.5 -742Q228 -756 266 -761Q304 -766 339 -766Q385 -766 399 -758Q414 -765 426 -770Q410 -769 397 -769ZM169 -381Q182 -381 222 -388Q256 -395 266 -400Q215 -429 177 -429Q174 -429 171 -429Q132 -427 94 -408Q121 -381 169 -381Z"/>
</svg>