<svg xmlns="http://www.w3.org/2000/svg" viewBox="0 -1024 1024 1024">
	<path fill="#000088" d="M173 -587Q176 -587 181 -586.5Q186 -586 188 -586Q222 -586 256 -610Q291 -635 326 -686Q333 -696 339 -701Q348 -708 359 -708Q376 -708 384 -692Q388 -684 388 -674Q388 -645 379.5 -617Q371 -589 361.5 -569.5Q352 -550 331.5 -525Q311 -500 300 -488Q289 -476 265 -452Q212 -400 194 -372Q190 -367 185 -364L168 -355Q279 -327 346 -278Q346 -290 346 -305Q346 -308 346 -313Q346 -318 346 -320Q347 -405 369 -477Q378 -505 392 -566.5Q406 -628 421.5 -671Q437 -714 463 -750Q479 -774 505 -794Q535 -815 560 -815Q575 -815 588 -807Q600 -800 600 -786Q600 -776 592.5 -768.5Q585 -761 575 -761Q568 -761 562 -765Q561 -765 560 -765Q551 -765 535 -753Q516 -739 503 -722Q488 -700 475 -668Q462 -636 455.5 -612Q449 -588 439 -546Q425 -490 417 -463Q397 -397 396 -320Q396 -319 396 -317Q396 -315 396 -314Q396 -308 396 -305Q396 -259 398 -229Q425 -196 437 -157Q439 -151 439 -142Q439 -139 438.5 -134.5Q438 -130 438 -128Q438 -111 434 -95Q432 -84 427 -78Q418 -67 405 -67Q394 -67 385.5 -74Q377 -81 374 -93Q373 -100 373 -108Q373 -109 373 -109.5Q373 -110 373 -110Q373 -111 373 -113.5Q373 -116 373 -117Q373 -124 372 -129Q356 -153 350 -209Q330 -229 303 -247Q236 -290 126 -313H115L77 -307Q75 -307 73 -307Q63 -307 55.5 -314.5Q48 -322 48 -332Q48 -347 61 -354L156 -405Q174 -432 237.5 -496Q301 -560 320 -600Q257 -536 188 -536Q180 -536 172 -537Q120 -537 93 -549Q62 -561 48 -589Q36 -611 36 -644Q36 -680 49 -711Q53 -719 58 -727Q31 -749 23 -777Q22 -780 22 -784Q22 -794 29.5 -801.5Q37 -809 47 -809Q66 -809 71 -791Q75 -777 91 -765Q123 -789 165 -789Q172 -789 180 -787Q187 -785 193 -781Q208 -772 208 -756Q208 -721 182 -705Q166 -695 145 -695Q125 -695 101 -703Q86 -677 86 -644Q86 -624 92 -612Q98 -600 112 -595Q130 -587 173 -587Z"/>
	<path fill="#800080" d="M123 -587Q126 -587 131 -586.5Q136 -586 138 -586Q172 -586 206 -610Q241 -635 276 -686Q283 -696 289 -701Q298 -708 309 -708Q326 -708 334 -692Q338 -684 338 -674Q338 -645 329.5 -617Q321 -589 311.5 -569.5Q302 -550 281.5 -525Q261 -500 250 -488Q239 -476 215 -452Q162 -400 144 -372Q140 -367 135 -364L118 -355Q229 -327 296 -278Q296 -290 296 -305Q296 -308 296 -313Q296 -318 296 -320Q297 -405 319 -477Q328 -505 342 -566.5Q356 -628 371.5 -671Q387 -714 413 -750Q429 -774 455 -794Q485 -815 510 -815Q525 -815 538 -807Q550 -800 550 -786Q550 -776 542.5 -768.5Q535 -761 525 -761Q518 -761 512 -765Q511 -765 510 -765Q501 -765 485 -753Q466 -739 453 -722Q438 -700 425 -668Q412 -636 405.5 -612Q399 -588 389 -546Q375 -490 367 -463Q347 -397 346 -320Q346 -319 346 -317Q346 -315 346 -314Q346 -308 346 -305Q346 -259 348 -229Q375 -196 387 -157Q389 -151 389 -142Q389 -139 388.5 -134.5Q388 -130 388 -128Q388 -111 384 -95Q382 -84 377 -78Q368 -67 355 -67Q344 -67 335.5 -74Q327 -81 324 -93Q323 -100 323 -108Q323 -109 323 -109.5Q323 -110 323 -110Q323 -111 323 -113.5Q323 -116 323 -117Q323 -124 322 -129Q306 -153 300 -209Q280 -229 253 -247Q186 -290 76 -313H65L27 -307Q25 -307 23 -307Q13 -307 5.5 -314.5Q-2 -322 -2 -332Q-2 -347 11 -354L106 -405Q124 -432 187.5 -496Q251 -560 270 -600Q207 -536 138 -536Q130 -536 122 -537Q70 -537 43 -549Q12 -561 -2 -589Q-14 -611 -14 -644Q-14 -680 -1 -711Q3 -719 8 -727Q-19 -749 -27 -777Q-28 -780 -28 -784Q-28 -794 -20.5 -801.5Q-13 -809 -3 -809Q16 -809 21 -791Q25 -777 41 -765Q73 -789 115 -789Q122 -789 130 -787Q137 -785 143 -781Q158 -772 158 -756Q158 -721 132 -705Q116 -695 95 -695Q75 -695 51 -703Q36 -677 36 -644Q36 -624 42 -612Q48 -600 62 -595Q80 -587 123 -587Z"/>
	<path fill="#daa520" d="M115 -759Q78 -759 52 -735Q74 -726 95 -725Q128 -725 128 -755Q124 -759 115 -759ZM316 -320Q317 -402 338 -471Q347 -499 361 -559.5Q375 -620 390 -662.5Q405 -705 429 -739Q442 -758 465.5 -776.5Q489 -795 510 -795Q520 -795 528 -790Q530 -789 530 -786Q530 -781 525 -781Q524 -781 522 -782Q517 -785 510 -785Q493 -785 471 -767.5Q449 -750 437 -733Q414 -700 399.5 -658Q385 -616 370.5 -555.5Q356 -495 348 -469Q327 -400 326 -320Q326 -318 326 -313Q326 -308 326 -305Q326 -256 329 -221Q356 -189 368 -151Q369 -148 369 -142Q369 -140 368.5 -135Q368 -130 368 -128Q368 -119 366 -105Q365 -98 363 -93Q360 -87 355 -87Q343 -87 343 -109Q343 -110 343 -110Q343 -111 343 -113.5Q343 -116 343 -117Q343 -133 339 -139Q324 -162 319 -217Q248 -298 78 -333H63L24 -327Q23 -327 23 -327Q18 -327 18 -332Q18 -335 21 -336L120 -390Q139 -419 194 -474Q222 -502 236.5 -518.5Q251 -535 271 -562Q291 -589 299.5 -616Q308 -643 308 -674Q308 -675 308 -677Q305 -674 301 -669Q222 -556 138 -556Q130 -556 123 -557Q97 -557 79 -560Q61 -563 43 -571Q25 -579 15.5 -597.5Q6 -616 6 -644Q6 -696 36 -732Q1 -752 -8 -783Q-8 -783 -8 -784Q-8 -789 -3 -789Q1 -789 2 -785Q10 -758 43 -740Q72 -769 115 -769Q125 -769 132 -764Q138 -761 138 -756Q138 -715 95 -715Q71 -715 45 -728Q16 -694 16 -644Q16 -596 43 -581.5Q70 -567 123 -567Q126 -567 130.5 -566.5Q135 -566 138 -566Q217 -566 293 -675Q302 -688 309 -688Q318 -688 318 -674Q318 -642 309 -613Q300 -584 279.5 -556Q259 -528 244 -511.5Q229 -495 201 -466Q146 -412 127 -383Q126 -382 125 -382L51 -341Q63 -343 63 -343H79Q80 -343 80 -343Q244 -309 318 -233Q316 -261 316 -305Q316 -308 316 -313Q316 -318 316 -320ZM353 -110Q353 -102 354 -99Q356 -104 356 -110Q358 -121 358 -128Q358 -130 358.5 -135Q359 -140 359 -142Q359 -146 358 -149Q349 -177 331 -202Q336 -161 347 -145Q353 -136 353 -117Q353 -116 353 -113.5Q353 -111 353 -110Z"/>
</svg>