<svg xmlns="http://www.w3.org/2000/svg" viewBox="0 -1024 1024 1024">
	<path fill="#000088" d="M321 -757Q311 -757 303.5 -764.5Q296 -772 296 -782Q296 -792 303 -799.5Q310 -807 321 -807L527 -809Q537 -809 544.5 -801.5Q552 -794 552 -784Q552 -774 545 -766.5Q538 -759 527 -759ZM161 -755Q143 -755 107 -757Q71 -759 53 -759H45Q35 -759 27.5 -766.5Q20 -774 20 -784Q20 -794 27.5 -801.5Q35 -809 45 -809H53Q71 -809 107 -807Q143 -805 161 -805Q163 -805 164 -805Q215 -805 290 -820Q293 -821 295 -821Q306 -821 313.5 -813Q321 -805 321 -795Q321 -790 320 -784Q318 -780 316 -774Q312 -763 302 -745Q289 -720 249 -645Q168 -499 139 -437Q212 -504 306 -540Q352 -557 385 -557Q395 -557 402.5 -549.5Q410 -542 410 -532Q410 -522 402.5 -514.5Q395 -507 385 -507L384 -503Q371 -489 355 -452Q313 -353 282 -199Q272 -150 272 -134Q272 -126 273 -119Q279 -116 283 -111Q289 -107 292 -101Q296 -95 296 -88Q296 -77 288 -69.5Q280 -62 271 -62H270Q245 -62 232 -85Q222 -104 222 -134Q222 -157 236 -222Q272 -397 318 -491Q277 -474 234.5 -447Q192 -420 164 -392Q144 -371 135 -355Q133 -350 128 -344Q117 -332 104 -326Q97 -323 89 -323Q75 -323 66 -333Q60 -340 58 -349Q58 -352 58 -354Q58 -370 68 -398.5Q78 -427 100 -471Q125 -523 182.5 -628Q240 -733 255 -763Q206 -755 164 -755Q162 -755 161 -755Z"/>
	<path fill="#800080" d="M271 -757Q261 -757 253.5 -764.5Q246 -772 246 -782Q246 -792 253 -799.5Q260 -807 271 -807L477 -809Q487 -809 494.5 -801.5Q502 -794 502 -784Q502 -774 495 -766.5Q488 -759 477 -759ZM111 -755Q93 -755 57 -757Q21 -759 3 -759H-5Q-15 -759 -22.5 -766.5Q-30 -774 -30 -784Q-30 -794 -22.5 -801.5Q-15 -809 -5 -809H3Q21 -809 57 -807Q93 -805 111 -805Q113 -805 114 -805Q165 -805 240 -820Q243 -821 245 -821Q256 -821 263.5 -813Q271 -805 271 -795Q271 -790 270 -784Q268 -780 266 -774Q262 -763 252 -745Q239 -720 199 -645Q118 -499 89 -437Q162 -504 256 -540Q302 -557 335 -557Q345 -557 352.5 -549.5Q360 -542 360 -532Q360 -522 352.5 -514.5Q345 -507 335 -507L334 -503Q321 -489 305 -452Q263 -353 232 -199Q222 -150 222 -134Q222 -126 223 -119Q229 -116 233 -111Q239 -107 242 -101Q246 -95 246 -88Q246 -77 238 -69.5Q230 -62 221 -62H220Q195 -62 182 -85Q172 -104 172 -134Q172 -157 186 -222Q222 -397 268 -491Q227 -474 184.5 -447Q142 -420 114 -392Q94 -371 85 -355Q83 -350 78 -344Q67 -332 54 -326Q47 -323 39 -323Q25 -323 16 -333Q10 -340 8 -349Q8 -352 8 -354Q8 -370 18 -398.5Q28 -427 50 -471Q75 -523 132.5 -628Q190 -733 205 -763Q156 -755 114 -755Q112 -755 111 -755Z"/>
	<path fill="#daa520" d="M271 -787L477 -789Q482 -789 482 -784Q482 -779 477 -779Q271 -777 271 -777Q266 -777 266 -782Q266 -787 271 -787ZM111 -775Q93 -775 57 -777Q21 -779 3 -779H-5Q-10 -779 -10 -784Q-10 -789 -5 -789H3Q21 -789 57 -787Q93 -785 111 -785Q112 -785 114 -785Q167 -785 244 -801Q245 -801 245 -801Q251 -801 251 -795Q251 -787 234 -754Q222 -729 181 -655Q106 -518 77 -458Q38 -379 38 -354Q38 -353 39 -353Q42 -353 48 -358Q56 -364 59 -368Q82 -415 162 -468Q208 -499 255 -518Q302 -537 335 -537Q340 -537 340 -532Q340 -527 335 -527Q322 -527 303 -494Q282 -456 259 -382Q236 -312 219 -234.5Q202 -157 202 -134Q202 -111 209 -99Q211 -101 213 -101Q217 -101 218 -97Q218 -97 220 -95.5Q222 -94 223 -93Q226 -91 226 -88Q226 -82 220 -82Q219 -82 216 -83Q203 -84 197.5 -100.5Q192 -117 192 -134Q192 -159 209 -236Q226 -313 249 -385Q273 -460 295 -499Q304 -516 312 -525Q248 -513 167 -460Q89 -408 67 -364Q64 -357 55 -350Q46 -343 39 -343Q35 -343 31.5 -346Q28 -349 28 -354Q28 -380 68 -462Q97 -523 172 -660Q233 -771 240 -790Q167 -775 114 -775Q112 -775 111 -775Z"/>
</svg>