<svg xmlns="http://www.w3.org/2000/svg" viewBox="0 -1024 1024 1024">
	<path fill="#000088" d="M-90 -109Q-80 -109 -72.5 -101.5Q-65 -94 -65 -84Q-65 -80 -66 -76Q-73 -58 -83 -43.5Q-93 -29 -109.5 -15.5Q-126 -2 -134 4Q-142 10 -162.5 23Q-183 36 -192 43Q-140 75 -107 90L-68 95Q-59 97 -53 104Q-47 111 -47 120Q-47 130 -54.5 137.5Q-62 145 -72 145Q-74 145 -76 145L-118 139Q-121 138 -124 137Q-162 121 -238 74Q-302 109 -390 109Q-434 109 -469.5 80.5Q-505 52 -505 6Q-505 -18 -497 -32Q-484 -55 -450 -55Q-393 -55 -343.5 -36.5Q-294 -18 -238 16Q-235 13 -232 10Q-219 0 -190 -19Q-157 -40 -139 -56.5Q-121 -73 -114 -92Q-108 -109 -90 -109ZM-450 -5Q-452 -5 -454 -5Q-455 -1 -455 6Q-455 28 -436 43.5Q-417 59 -390 59Q-335 59 -291 43Q-378 -5 -450 -5Z"/>
	<path fill="#800080" d="M-140 -109Q-130 -109 -122.5 -101.5Q-115 -94 -115 -84Q-115 -80 -116 -76Q-123 -58 -133 -43.5Q-143 -29 -159.5 -15.5Q-176 -2 -184 4Q-192 10 -212.5 23Q-233 36 -242 43Q-190 75 -157 90L-118 95Q-109 97 -103 104Q-97 111 -97 120Q-97 130 -104.5 137.5Q-112 145 -122 145Q-124 145 -126 145L-168 139Q-171 138 -174 137Q-212 121 -288 74Q-352 109 -440 109Q-484 109 -519.5 80.5Q-555 52 -555 6Q-555 -18 -547 -32Q-534 -55 -500 -55Q-443 -55 -393.5 -36.5Q-344 -18 -288 16Q-285 13 -282 10Q-269 0 -240 -19Q-207 -40 -189 -56.5Q-171 -73 -164 -92Q-158 -109 -140 -109ZM-500 -5Q-502 -5 -504 -5Q-505 -1 -505 6Q-505 28 -486 43.5Q-467 59 -440 59Q-385 59 -341 43Q-428 -5 -500 -5Z"/>
	<path fill="#daa520" d="M-140 -89Q-135 -89 -135 -84Q-135 -83 -135 -82Q-144 -57 -164.5 -37.5Q-185 -18 -218.5 3.5Q-252 25 -263 34Q-270 40 -278 45Q-198 94 -163 109L-121 115Q-117 116 -117 120Q-117 125 -122 125Q-122 125 -123 125L-165 119Q-165 119 -166 119Q-201 104 -287 51Q-351 89 -440 89Q-477 89 -506 65.5Q-535 42 -535 6Q-535 -13 -530 -22Q-522 -35 -500 -35Q-444 -35 -395.5 -15.5Q-347 4 -287 39Q-278 33 -269 26Q-258 17 -225 -4Q-192 -25 -172.5 -43.5Q-153 -62 -145 -86Q-144 -89 -140 -89ZM-525 6Q-525 37 -499.5 58Q-474 79 -440 79Q-357 79 -297 45Q-354 11 -400.5 -7Q-447 -25 -500 -25Q-516 -25 -521 -17Q-525 -10 -525 6Z"/>
</svg>