<svg xmlns="http://www.w3.org/2000/svg" viewBox="0 -1024 1024 1024">
	<path fill="#000088" d="M293 -776Q293 -766 300 -758.5Q307 -751 317 -751L395 -749Q396 -749 396 -749Q397 -749 398 -749L422 -751Q432 -752 438.5 -759Q445 -766 445 -776Q445 -786 437.5 -793.5Q430 -801 420 -801Q419 -801 395 -799L343 -800Q342 -807 340.5 -816.5Q339 -826 338 -833Q337 -847 335.5 -855Q334 -863 329 -872.5Q324 -882 316 -888Q305 -896 291 -896Q288 -896 284 -895Q262 -895 225 -885Q194 -878 179 -878Q172 -878 166 -879Q164 -879 162 -879Q160 -879 155.5 -878.5Q151 -878 149 -878Q130 -878 116 -886Q100 -895 94 -916Q89 -935 70 -935Q60 -935 52.5 -927.5Q45 -920 45 -910Q45 -907 46 -904Q55 -869 82 -848.5Q109 -828 149 -828Q155 -828 161 -829Q170 -828 179 -828Q200 -828 237 -837Q269 -845 286 -845Q287 -840 288.5 -826.5Q290 -813 292 -806Q293 -796 293 -783Q293 -781 293 -779Q293 -777 293 -776ZM182 -746Q163 -753 133 -753L51 -749Q50 -749 50 -749Q40 -749 32.5 -756.5Q25 -764 25 -774Q25 -784 32 -791Q39 -798 49 -799L131 -803Q131 -803 132 -803Q159 -803 182 -798Q201 -794 215 -787Q232 -797 254 -797Q263 -797 272 -792Q279 -789 288 -782Q298 -775 317 -756Q327 -746 330 -743Q336 -738 338 -730L358 -654Q359 -652 359 -650L365 -578Q365 -577 365 -576Q365 -575 365 -573L359 -519Q359 -517 358 -515L346 -473Q326 -399 326 -309Q326 -264 331 -215Q332 -202 345 -172Q363 -131 363 -110Q363 -100 355.5 -92.5Q348 -85 338 -85Q328 -85 320.5 -92.5Q313 -100 313 -110L312 -107Q306 -116 292 -125Q285 -130 279 -133Q238 -132 227 -122Q224 -119 219 -117Q214 -115 203 -107Q184 -93 170 -90Q165 -88 152 -81Q124 -65 106 -65Q81 -65 65 -81Q54 -92 45 -115Q41 -126 39 -128Q33 -135 33 -144Q33 -154 40 -162L46 -168Q54 -175 64 -175Q74 -175 81.5 -167.5Q89 -160 89 -150Q89 -146 88 -142Q98 -119 98 -118Q100 -116 101 -116Q103 -115 106 -115Q111 -115 127 -124Q146 -135 158 -138Q162 -139 175 -148Q188 -157 196 -161Q212 -174 230 -178Q248 -182 279 -183Q280 -183 280 -183Q284 -183 287 -182Q282 -197 281 -209Q276 -262 276 -309Q276 -410 298 -487L309 -527L315 -576L309 -644L292 -710Q289 -712 282 -720Q260 -742 251 -747Q250 -747 249 -747Q251 -738 251 -730Q251 -704 235 -688Q223 -675 206 -675Q193 -675 185 -682Q175 -690 175 -704Q175 -705 175 -707Q175 -709 175 -710Q175 -729 182 -746Z"/>
	<path fill="#800080" d="M243 -776Q243 -766 250 -758.5Q257 -751 267 -751L345 -749Q346 -749 346 -749Q347 -749 348 -749L372 -751Q382 -752 388.5 -759Q395 -766 395 -776Q395 -786 387.5 -793.5Q380 -801 370 -801Q369 -801 345 -799L293 -800Q292 -807 290.5 -816.5Q289 -826 288 -833Q287 -847 285.5 -855Q284 -863 279 -872.5Q274 -882 266 -888Q255 -896 241 -896Q238 -896 234 -895Q212 -895 175 -885Q144 -878 129 -878Q122 -878 116 -879Q114 -879 112 -879Q110 -879 105.5 -878.5Q101 -878 99 -878Q80 -878 66 -886Q50 -895 44 -916Q39 -935 20 -935Q10 -935 2.5 -927.5Q-5 -920 -5 -910Q-5 -907 -4 -904Q5 -869 32 -848.5Q59 -828 99 -828Q105 -828 111 -829Q120 -828 129 -828Q150 -828 187 -837Q219 -845 236 -845Q237 -840 238.5 -826.5Q240 -813 242 -806Q243 -796 243 -783Q243 -781 243 -779Q243 -777 243 -776ZM132 -746Q113 -753 83 -753L1 -749Q0 -749 0 -749Q-10 -749 -17.5 -756.5Q-25 -764 -25 -774Q-25 -784 -18 -791Q-11 -798 -1 -799L81 -803Q81 -803 82 -803Q109 -803 132 -798Q151 -794 165 -787Q182 -797 204 -797Q213 -797 222 -792Q229 -789 238 -782Q248 -775 267 -756Q277 -746 280 -743Q286 -738 288 -730L308 -654Q309 -652 309 -650L315 -578Q315 -577 315 -576Q315 -575 315 -573L309 -519Q309 -517 308 -515L296 -473Q276 -399 276 -309Q276 -264 281 -215Q282 -202 295 -172Q313 -131 313 -110Q313 -100 305.5 -92.5Q298 -85 288 -85Q278 -85 270.5 -92.5Q263 -100 263 -110L262 -107Q256 -116 242 -125Q235 -130 229 -133Q188 -132 177 -122Q174 -119 169 -117Q164 -115 153 -107Q134 -93 120 -90Q115 -88 102 -81Q74 -65 56 -65Q31 -65 15 -81Q4 -92 -5 -115Q-9 -126 -11 -128Q-17 -135 -17 -144Q-17 -154 -10 -162L-4 -168Q4 -175 14 -175Q24 -175 31.5 -167.5Q39 -160 39 -150Q39 -146 38 -142Q48 -119 48 -118Q50 -116 51 -116Q53 -115 56 -115Q61 -115 77 -124Q96 -135 108 -138Q112 -139 125 -148Q138 -157 146 -161Q162 -174 180 -178Q198 -182 229 -183Q230 -183 230 -183Q234 -183 237 -182Q232 -197 231 -209Q226 -262 226 -309Q226 -410 248 -487L259 -527L265 -576L259 -644L242 -710Q239 -712 232 -720Q210 -742 201 -747Q200 -747 199 -747Q201 -738 201 -730Q201 -704 185 -688Q173 -675 156 -675Q143 -675 135 -682Q125 -690 125 -704Q125 -705 125 -707Q125 -709 125 -710Q125 -729 132 -746Z"/>
	<path fill="#daa520" d="M236 -865Q217 -865 182.5 -856.5Q148 -848 129 -848Q120 -848 112 -849Q105 -848 99 -848Q68 -848 45.5 -863Q23 -878 15 -909Q15 -909 15 -910Q15 -915 20 -915Q24 -915 25 -911Q39 -858 99 -858Q101 -858 105.5 -858.5Q110 -859 112 -859Q112 -859 113 -859Q121 -858 129 -858Q147 -858 181.5 -866.5Q216 -875 236 -875Q239 -876 241 -876Q250 -876 255.5 -872Q261 -868 263.5 -859Q266 -850 266.5 -845.5Q267 -841 268 -831Q270 -818 271 -813Q273 -803 273 -783Q273 -782 273 -781L346 -779L370 -781Q375 -781 375 -776Q375 -771 370 -771L346 -769L268 -771Q263 -771 263 -776Q263 -777 263 -779Q263 -781 263 -783Q263 -796 261 -811.5Q259 -827 258 -830Q257 -848 253.5 -857Q250 -866 241 -866Q241 -866 239 -865.5Q237 -865 236 -865ZM145 -704Q145 -705 145 -707Q145 -709 145 -710Q145 -736 159 -754Q136 -773 82 -773L0 -769Q-5 -769 -5 -774Q-5 -779 0 -779L82 -783Q141 -783 166 -762Q181 -777 204 -777Q212 -777 225 -767Q234 -760 253 -742Q264 -731 267 -728Q268 -727 269 -725L289 -649Q289 -649 289 -648L295 -576Q295 -576 295 -575L289 -521L277 -479Q256 -402 256 -309Q256 -263 261 -213Q263 -197 277 -164Q293 -127 293 -110Q293 -105 288 -105Q283 -105 283 -110Q283 -117 266 -132Q242 -153 230 -153Q212 -153 204 -152Q196 -151 183.5 -147.5Q171 -144 163 -136Q163 -136 162 -135Q155 -133 140 -122.5Q125 -112 115 -109Q109 -107 89 -96Q69 -85 56 -85Q43 -85 33.5 -92Q24 -99 21 -105Q18 -111 13 -122Q8 -136 4 -141Q3 -142 3 -144Q3 -146 4 -148L10 -154Q12 -155 14 -155Q19 -155 19 -150Q19 -148 15 -144Q18 -138 23.5 -123.5Q29 -109 36 -102Q43 -95 56 -95Q66 -95 87 -107Q104 -116 113 -119Q121 -121 136 -132Q149 -141 157 -144Q177 -163 230 -163Q248 -163 278 -135Q278 -135 265.5 -165.5Q253 -196 251 -211Q246 -263 246 -309Q246 -404 267 -481L279 -523L285 -576L279 -647L260 -721Q254 -726 240 -739.5Q226 -753 219 -759Q209 -767 204 -767Q186 -767 173 -755Q181 -744 181 -730Q181 -718 175 -706.5Q169 -695 156 -695Q151 -695 149 -696Q145 -698 145 -704ZM155 -705Q155 -705 156 -705Q171 -705 171 -730Q171 -739 166 -747Q155 -731 155 -710Q155 -708 155 -705Z"/>
</svg>