<svg xmlns="http://www.w3.org/2000/svg" viewBox="0 -1024 1024 1024">
	<path fill="#000088" d="M313 -809Q313 -819 314 -836.5Q315 -854 315 -863Q302 -872 286 -882Q270 -891 252 -901Q227 -901 214 -897Q197 -891 179 -874Q159 -857 130 -857Q78 -857 47 -896Q29 -918 29 -943Q29 -944 29 -944.5Q29 -945 29 -946Q29 -956 36.5 -963Q44 -970 54 -970Q64 -970 71.5 -962.5Q79 -955 79 -945Q79 -945 79 -944.5Q79 -944 79 -943Q79 -935 85 -928Q92 -919 105 -913Q118 -907 130 -907Q140 -907 145 -912Q172 -935 199 -944Q219 -951 254 -951Q255 -951 256 -951Q257 -951 258 -951Q264 -951 270 -948Q296 -934 319 -920Q337 -909 346 -902Q357 -895 361 -888.5Q365 -882 365 -874Q365 -872 365 -871Q365 -858 364 -838.5Q363 -819 363 -809Q363 -803 363 -799Q367 -799 372 -799Q387 -799 421 -806Q424 -806 426 -806Q436 -806 443.5 -798.5Q451 -791 451 -781Q451 -772 445.5 -765Q440 -758 431 -756Q392 -749 372 -749Q336 -749 321 -771Q313 -785 313 -809ZM174 -114Q172 -118 171 -120L137 -128Q151 -115 174 -114ZM101 -341Q101 -329 102 -318Q103 -306 103.5 -279Q104 -252 105 -235.5Q106 -219 109 -198Q112 -177 118 -162Q124 -178 141 -178Q144 -178 147 -177L195 -165Q207 -162 212 -151Q213 -148 228 -115Q230 -110 230 -105Q230 -92 224 -83Q215 -70 199 -66Q191 -64 180 -64Q179 -64 178 -64Q177 -64 177 -64Q139 -64 112 -84Q78 -109 65 -165Q56 -203 53 -282Q53 -288 52 -308.5Q51 -329 51 -341Q51 -473 143 -637Q171 -687 237 -760H49Q39 -760 31.5 -767.5Q24 -775 24 -785Q24 -795 31.5 -802.5Q39 -810 49 -810H293Q303 -810 310.5 -802.5Q318 -795 318 -785Q318 -775 312 -768Q306 -762 289.5 -744Q273 -726 265.5 -717.5Q258 -709 244 -692.5Q230 -676 222 -665Q214 -654 204 -640Q194 -626 187 -613Q101 -460 101 -341Z"/>
	<path fill="#800080" d="M263 -809Q263 -819 264 -836.5Q265 -854 265 -863Q252 -872 236 -882Q220 -891 202 -901Q177 -901 164 -897Q147 -891 129 -874Q109 -857 80 -857Q28 -857 -3 -896Q-21 -918 -21 -943Q-21 -944 -21 -944.5Q-21 -945 -21 -946Q-21 -956 -13.5 -963Q-6 -970 4 -970Q14 -970 21.5 -962.5Q29 -955 29 -945Q29 -945 29 -944.5Q29 -944 29 -943Q29 -935 35 -928Q42 -919 55 -913Q68 -907 80 -907Q90 -907 95 -912Q122 -935 149 -944Q169 -951 204 -951Q205 -951 206 -951Q207 -951 208 -951Q214 -951 220 -948Q246 -934 269 -920Q287 -909 296 -902Q307 -895 311 -888.5Q315 -882 315 -874Q315 -872 315 -871Q315 -858 314 -838.5Q313 -819 313 -809Q313 -803 313 -799Q317 -799 322 -799Q337 -799 371 -806Q374 -806 376 -806Q386 -806 393.5 -798.5Q401 -791 401 -781Q401 -772 395.5 -765Q390 -758 381 -756Q342 -749 322 -749Q286 -749 271 -771Q263 -785 263 -809ZM124 -114Q122 -118 121 -120L87 -128Q101 -115 124 -114ZM51 -341Q51 -329 52 -318Q53 -306 53.5 -279Q54 -252 55 -235.5Q56 -219 59 -198Q62 -177 68 -162Q74 -178 91 -178Q94 -178 97 -177L145 -165Q157 -162 162 -151Q163 -148 178 -115Q180 -110 180 -105Q180 -92 174 -83Q165 -70 149 -66Q141 -64 130 -64Q129 -64 128 -64Q127 -64 127 -64Q89 -64 62 -84Q28 -109 15 -165Q6 -203 3 -282Q3 -288 2 -308.5Q1 -329 1 -341Q1 -473 93 -637Q121 -687 187 -760H-1Q-11 -760 -18.5 -767.5Q-26 -775 -26 -785Q-26 -795 -18.5 -802.5Q-11 -810 -1 -810H243Q253 -810 260.5 -802.5Q268 -795 268 -785Q268 -775 262 -768Q256 -762 239.5 -744Q223 -726 215.5 -717.5Q208 -709 194 -692.5Q180 -676 172 -665Q164 -654 154 -640Q144 -626 137 -613Q51 -460 51 -341Z"/>
	<path fill="#daa520" d="M283 -809Q283 -819 284 -839Q285 -859 285 -871Q285 -872 285 -873Q275 -884 207 -921Q206 -921 206 -921Q186 -921 175.5 -920Q165 -919 148.5 -911.5Q132 -904 115 -889Q102 -877 80 -877Q50 -877 24.5 -896Q-1 -915 -1 -943Q-1 -944 -1 -944.5Q-1 -945 -1 -945Q-1 -950 4 -950Q9 -950 9 -945Q9 -945 9 -944.5Q9 -944 9 -943Q9 -921 31.5 -904Q54 -887 80 -887Q98 -887 109 -897Q127 -913 145 -921Q163 -929 175 -930Q187 -931 208 -931Q209 -931 210 -930Q236 -917 258 -903Q276 -893 285 -886Q289 -883 292 -880Q295 -877 295 -874Q295 -872 295 -871Q295 -859 294 -839Q293 -819 293 -809Q293 -794 297 -787Q302 -779 322 -779Q339 -779 375 -786Q376 -786 376 -786Q381 -786 381 -781Q381 -777 377 -776Q340 -769 322 -769Q297 -769 288 -782Q283 -791 283 -809ZM86 -153Q86 -158 91 -158Q92 -158 92 -158L140 -146Q143 -145 144 -143Q160 -107 160 -105Q160 -84 128 -84Q127 -84 127 -84Q106 -84 90 -91.5Q74 -99 63.5 -109Q53 -119 45.5 -137.5Q38 -156 34 -170Q30 -184 27.5 -209Q25 -234 24.5 -246Q24 -258 23 -282Q23 -289 22 -309Q21 -329 21 -341Q21 -468 111 -627Q117 -639 124 -650Q131 -661 141 -674Q151 -687 157 -695Q163 -703 176 -718Q189 -733 193.5 -737.5Q198 -742 214 -760Q230 -778 232 -780H-1Q-6 -780 -6 -785Q-6 -790 -1 -790H243Q248 -790 248 -785Q248 -783 247 -782Q243 -777 220.5 -752.5Q198 -728 190 -718.5Q182 -709 166 -689.5Q150 -670 139 -654.5Q128 -639 119 -623Q31 -465 31 -341Q31 -329 32 -309Q33 -289 33 -283Q34 -255 35 -239Q36 -223 39 -197.5Q42 -172 48.5 -156.5Q55 -141 64.5 -125Q74 -109 90 -101.5Q106 -94 127 -94Q149 -94 150 -104Q139 -129 135 -137L90 -148Q86 -149 86 -153Z"/>
</svg>