<svg xmlns="http://www.w3.org/2000/svg" viewBox="0 -1024 1024 1024">
	<path fill="#000088" d="M-241 -113Q-231 -113 -223.5 -105.5Q-216 -98 -216 -88Q-216 -71 -231.5 -65Q-247 -59 -262.5 -43.5Q-278 -28 -286.5 -16Q-295 -4 -309 17Q-306 21 -302 24Q-295 31 -286 37Q-275 36 -261 29Q-247 22 -221 2.5Q-195 -17 -182 -24Q-162 -35 -145 -35Q-118 -35 -88 -5Q-81 2 -76 6L62 108Q72 115 72 128Q72 138 64.5 145.5Q57 153 47 153Q39 153 32 148L-105 46Q-112 42 -124 30Q-139 15 -145 15Q-149 15 -158 20Q-167 25 -189 41Q-220 65 -238 74Q-265 87 -289 87Q-295 87 -302 84Q-308 82 -314 78Q-341 62 -355 38Q-362 26 -362 14Q-362 7 -357 -1Q-339 -29 -328 -44.5Q-317 -60 -295 -81Q-273 -102 -251 -111Q-246 -113 -241 -113Z"/>
	<path fill="#800080" d="M-291 -113Q-281 -113 -273.5 -105.5Q-266 -98 -266 -88Q-266 -71 -281.5 -65Q-297 -59 -312.5 -43.5Q-328 -28 -336.5 -16Q-345 -4 -359 17Q-356 21 -352 24Q-345 31 -336 37Q-325 36 -311 29Q-297 22 -271 2.5Q-245 -17 -232 -24Q-212 -35 -195 -35Q-168 -35 -138 -5Q-131 2 -126 6L12 108Q22 115 22 128Q22 138 14.5 145.5Q7 153 -3 153Q-11 153 -18 148L-155 46Q-162 42 -174 30Q-189 15 -195 15Q-199 15 -208 20Q-217 25 -239 41Q-270 65 -288 74Q-315 87 -339 87Q-345 87 -352 84Q-358 82 -364 78Q-391 62 -405 38Q-412 26 -412 14Q-412 7 -407 -1Q-389 -29 -378 -44.5Q-367 -60 -345 -81Q-323 -102 -301 -111Q-296 -113 -291 -113Z"/>
	<path fill="#daa520" d="M-291 -93Q-286 -93 -286 -88Q-286 -85 -289 -83Q-307 -76 -326 -57.5Q-345 -39 -355 -24.5Q-365 -10 -382 15Q-380 24 -367 38Q-348 57 -339 57Q-310 57 -257 17Q-214 -15 -195 -15Q-183 -15 -173 -8.5Q-163 -2 -153 8Q-143 18 -138 22L0 124Q2 125 2 128Q2 133 -3 133Q-5 133 -6 132L-144 30Q-149 27 -158.5 17Q-168 7 -176.5 1Q-185 -5 -195 -5Q-211 -5 -251 25Q-269 39 -279 45.5Q-289 52 -306.5 59.5Q-324 67 -339 67Q-352 67 -374 45Q-392 27 -392 14Q-392 13 -390 9Q-373 -17 -363 -31Q-353 -45 -333 -64.5Q-313 -84 -293 -93Q-292 -93 -291 -93Z"/>
</svg>