<svg xmlns="http://www.w3.org/2000/svg" viewBox="0 -1024 1024 1024">
	<path fill="#000088" d="M158 -324Q164 -324 176.5 -323.5Q189 -323 194 -323Q196 -323 199 -323Q266 -310 301 -266Q322 -239 322 -206Q322 -200 321 -193Q321 -190 321 -186Q321 -147 295 -117Q350 -126 384.5 -174.5Q419 -223 419 -284Q419 -365 353 -445Q322 -484 243 -553Q161 -626 133 -665Q93 -719 93 -772V-784Q93 -794 100 -802Q105 -809 128 -820Q133 -823 140 -823Q150 -823 157.5 -815.5Q165 -808 165 -798Q165 -784 153 -776Q151 -775 143 -772Q143 -735 173 -695Q198 -660 276 -591Q358 -519 392 -477Q469 -383 469 -284Q469 -199 414.5 -132Q360 -65 272 -65Q265 -65 251 -66Q237 -67 230 -67Q220 -67 211 -75Q202 -83 202 -96Q202 -108 212 -118Q218 -125 231 -131Q249 -139 260 -154Q271 -169 271 -186Q271 -188 271 -190.5Q271 -193 271 -194Q271 -196 271.5 -200Q272 -204 272 -206Q272 -222 261 -235Q239 -263 191 -273Q187 -273 175.5 -273.5Q164 -274 158 -274Q141 -274 132 -271Q129 -270 128 -269Q127 -268 127 -264Q127 -238 136 -229Q141 -225 150 -225Q157 -233 168 -233Q178 -233 185.5 -225.5Q193 -218 193 -208V-204Q193 -194 187 -187Q182 -182 176 -180Q171 -178 163.5 -176.5Q156 -175 150 -175Q125 -175 108 -188Q95 -198 87 -213Q77 -234 77 -264Q77 -287 91 -302Q100 -312 115 -318Q131 -324 158 -324Z"/>
	<path fill="#800080" d="M108 -324Q114 -324 126.5 -323.5Q139 -323 144 -323Q146 -323 149 -323Q216 -310 251 -266Q272 -239 272 -206Q272 -200 271 -193Q271 -190 271 -186Q271 -147 245 -117Q300 -126 334.5 -174.5Q369 -223 369 -284Q369 -365 303 -445Q272 -484 193 -553Q111 -626 83 -665Q43 -719 43 -772V-784Q43 -794 50 -802Q55 -809 78 -820Q83 -823 90 -823Q100 -823 107.5 -815.5Q115 -808 115 -798Q115 -784 103 -776Q101 -775 93 -772Q93 -735 123 -695Q148 -660 226 -591Q308 -519 342 -477Q419 -383 419 -284Q419 -199 364.5 -132Q310 -65 222 -65Q215 -65 201 -66Q187 -67 180 -67Q170 -67 161 -75Q152 -83 152 -96Q152 -108 162 -118Q168 -125 181 -131Q199 -139 210 -154Q221 -169 221 -186Q221 -188 221 -190.5Q221 -193 221 -194Q221 -196 221.5 -200Q222 -204 222 -206Q222 -222 211 -235Q189 -263 141 -273Q137 -273 125.5 -273.5Q114 -274 108 -274Q91 -274 82 -271Q79 -270 78 -269Q77 -268 77 -264Q77 -238 86 -229Q91 -225 100 -225Q107 -233 118 -233Q128 -233 135.5 -225.5Q143 -218 143 -208V-204Q143 -194 137 -187Q132 -182 126 -180Q121 -178 113.5 -176.5Q106 -175 100 -175Q75 -175 58 -188Q45 -198 37 -213Q27 -234 27 -264Q27 -287 41 -302Q50 -312 65 -318Q81 -324 108 -324Z"/>
	<path fill="#daa520" d="M108 -304Q114 -304 126 -303.5Q138 -303 144 -303Q144 -303 145 -303Q187 -295 219.5 -269.5Q252 -244 252 -206Q252 -200 251 -194Q251 -190 251 -186Q251 -159 235 -137Q219 -115 194 -103Q187 -100 183 -97Q189 -97 202 -96Q215 -95 222 -95Q296 -95 342.5 -152Q389 -209 389 -284Q389 -319 377.5 -353.5Q366 -388 351 -413.5Q336 -439 307.5 -470.5Q279 -502 260.5 -519.5Q242 -537 206 -568Q176 -595 162 -608Q148 -621 125 -645.5Q102 -670 91.5 -687Q81 -704 72 -727Q63 -750 63 -772V-784Q63 -789 70 -793Q73 -795 79 -798Q85 -801 87 -802Q89 -803 90 -803Q95 -803 95 -798Q95 -795 86 -791Q75 -786 73 -783V-772Q73 -747 83 -722.5Q93 -698 116.5 -671Q140 -644 158.5 -626Q177 -608 213 -576Q249 -544 267.5 -527Q286 -510 315.5 -477Q345 -444 360 -418.5Q375 -393 387 -357Q399 -321 399 -284Q399 -206 350 -145.5Q301 -85 222 -85Q215 -85 201 -86Q187 -87 180 -87Q179 -87 178 -87Q172 -89 172 -96Q172 -104 190 -113Q212 -123 226.5 -142.5Q241 -162 241 -186Q241 -188 241 -190.5Q241 -193 241 -194Q241 -196 241.5 -200Q242 -204 242 -206Q242 -239 212.5 -262.5Q183 -286 144 -293Q138 -293 126 -293.5Q114 -294 108 -294Q84 -294 70.5 -287.5Q57 -281 57 -264Q57 -205 100 -205Q106 -205 113 -207V-208Q113 -213 118 -213Q123 -213 123 -208V-204Q123 -200 119 -198Q112 -195 100 -195Q47 -195 47 -264Q47 -304 108 -304Z"/>
</svg>