<svg xmlns="http://www.w3.org/2000/svg" viewBox="0 -1024 1024 1024">
	<path fill="#000088" d="M59 -1130Q59 -1133 58.5 -1139Q58 -1145 58 -1148Q58 -1158 65.5 -1165.5Q73 -1173 83 -1173Q93 -1173 100 -1166.5Q107 -1160 108 -1151Q109 -1141 109 -1130Q109 -1112 100 -1056Q98 -1048 98 -1041Q98 -1008 124.5 -985Q151 -962 188 -962Q199 -962 210 -964Q240 -971 257 -971Q275 -971 287 -965Q300 -958 307 -946Q312 -936 312 -924Q312 -905 304 -886Q296 -867 289.5 -858.5Q283 -850 270 -835Q258 -822 254 -815Q249 -808 248 -803Q256 -792 266 -781Q272 -776 279 -770Q285 -771 301 -777Q317 -783 328 -785Q331 -785 403 -789Q410 -795 419 -795Q424 -795 433 -793Q455 -787 455 -767Q455 -759 451 -752Q446 -746 440 -743Q436 -742 430 -741Q418 -739 381 -738Q344 -737 334 -735Q329 -735 315 -729Q288 -719 275 -719Q268 -719 261 -722Q256 -724 250 -728Q227 -745 209 -773Q204 -779 202 -785Q198 -793 198 -800Q198 -818 208 -836Q215 -848 232 -868Q261 -901 262 -921Q260 -921 257 -921Q246 -921 220 -916Q204 -912 188 -912Q132 -912 90 -948.5Q48 -985 48 -1041Q48 -1053 53 -1078Q59 -1114 59 -1130ZM74 -809Q137 -809 168 -785Q169 -785 170 -785Q217 -785 247 -754Q266 -733 279 -698Q290 -670 297 -628Q299 -617 299 -605Q299 -556 269 -510Q307 -480 327 -432Q347 -384 347 -332Q347 -326 347 -319Q349 -307 349 -295Q349 -186 222 -96Q187 -70 149 -70Q108 -70 84 -99Q65 -124 65 -162V-172L47 -265Q47 -268 47 -270Q47 -280 54.5 -287.5Q62 -295 72 -295Q81 -295 88 -289Q95 -283 97 -275L115 -179Q115 -176 115 -174V-162Q115 -141 123 -131Q132 -120 149 -120Q171 -120 194 -136Q299 -211 299 -295Q299 -304 297 -314Q297 -316 297 -318Q297 -320 297 -325Q297 -330 297 -332Q297 -376 281.5 -413Q266 -450 237 -472Q194 -433 142 -433Q131 -433 122 -440Q116 -445 110 -453Q103 -465 97 -481Q93 -494 93 -504Q93 -525 114 -537Q132 -547 162 -547Q196 -547 226 -535Q249 -570 249 -605Q249 -613 247 -620Q241 -657 232 -681Q223 -706 210 -719Q200 -731 188 -734Q184 -715 170 -703Q150 -687 124 -687Q113 -687 106 -694.5Q99 -702 99 -713Q99 -736 113 -755Q94 -759 76 -759Q75 -759 73 -759Q69 -758 68 -758Q62 -755 56 -755Q46 -755 38.5 -762.5Q31 -770 31 -780Q31 -794 42 -801Q50 -806 70 -809Q72 -809 74 -809ZM145 -495Q152 -497 158 -497Q159 -497 160 -497Q161 -497 162 -497Q174 -497 184 -495Q168 -486 151 -484Q147 -490 145 -495Z"/>
	<path fill="#800080" d="M9 -1130Q9 -1133 8.5 -1139Q8 -1145 8 -1148Q8 -1158 15.5 -1165.5Q23 -1173 33 -1173Q43 -1173 50 -1166.5Q57 -1160 58 -1151Q59 -1141 59 -1130Q59 -1112 50 -1056Q48 -1048 48 -1041Q48 -1008 74.5 -985Q101 -962 138 -962Q149 -962 160 -964Q190 -971 207 -971Q225 -971 237 -965Q250 -958 257 -946Q262 -936 262 -924Q262 -905 254 -886Q246 -867 239.5 -858.5Q233 -850 220 -835Q208 -822 204 -815Q199 -808 198 -803Q206 -792 216 -781Q222 -776 229 -770Q235 -771 251 -777Q267 -783 278 -785Q281 -785 353 -789Q360 -795 369 -795Q374 -795 383 -793Q405 -787 405 -767Q405 -759 401 -752Q396 -746 390 -743Q386 -742 380 -741Q368 -739 331 -738Q294 -737 284 -735Q279 -735 265 -729Q238 -719 225 -719Q218 -719 211 -722Q206 -724 200 -728Q177 -745 159 -773Q154 -779 152 -785Q148 -793 148 -800Q148 -818 158 -836Q165 -848 182 -868Q211 -901 212 -921Q210 -921 207 -921Q196 -921 170 -916Q154 -912 138 -912Q82 -912 40 -948.5Q-2 -985 -2 -1041Q-2 -1053 3 -1078Q9 -1114 9 -1130ZM24 -809Q87 -809 118 -785Q119 -785 120 -785Q167 -785 197 -754Q216 -733 229 -698Q240 -670 247 -628Q249 -617 249 -605Q249 -556 219 -510Q257 -480 277 -432Q297 -384 297 -332Q297 -326 297 -319Q299 -307 299 -295Q299 -186 172 -96Q137 -70 99 -70Q58 -70 34 -99Q15 -124 15 -162V-172L-3 -265Q-3 -268 -3 -270Q-3 -280 4.5 -287.5Q12 -295 22 -295Q31 -295 38 -289Q45 -283 47 -275L65 -179Q65 -176 65 -174V-162Q65 -141 73 -131Q82 -120 99 -120Q121 -120 144 -136Q249 -211 249 -295Q249 -304 247 -314Q247 -316 247 -318Q247 -320 247 -325Q247 -330 247 -332Q247 -376 231.5 -413Q216 -450 187 -472Q144 -433 92 -433Q81 -433 72 -440Q66 -445 60 -453Q53 -465 47 -481Q43 -494 43 -504Q43 -525 64 -537Q82 -547 112 -547Q146 -547 176 -535Q199 -570 199 -605Q199 -613 197 -620Q191 -657 182 -681Q173 -706 160 -719Q150 -731 138 -734Q134 -715 120 -703Q100 -687 74 -687Q63 -687 56 -694.5Q49 -702 49 -713Q49 -736 63 -755Q44 -759 26 -759Q25 -759 23 -759Q19 -758 18 -758Q12 -755 6 -755Q-4 -755 -11.5 -762.5Q-19 -770 -19 -780Q-19 -794 -8 -801Q0 -806 20 -809Q22 -809 24 -809ZM95 -495Q102 -497 108 -497Q109 -497 110 -497Q111 -497 112 -497Q124 -497 134 -495Q118 -486 101 -484Q97 -490 95 -495Z"/>
	<path fill="#daa520" d="M138 -942Q150 -942 172.5 -946.5Q195 -951 207 -951Q242 -951 242 -924Q242 -909 235.5 -893.5Q229 -878 223 -870Q217 -862 205 -848Q178 -817 178 -800L179 -797Q183 -789 196 -774Q209 -759 219 -752Q222 -750 225 -749Q234 -750 253 -757Q272 -764 280 -765Q291 -766 325 -767.5Q359 -769 364 -769Q364 -770 364 -770Q364 -775 369 -775Q373 -775 380 -773Q385 -771 385 -767Q385 -764 382 -762Q381 -761 377 -760Q369 -759 332 -758Q292 -756 282 -755Q274 -754 255 -747Q236 -740 225 -739Q220 -739 212 -745Q192 -759 175 -784Q168 -794 168 -800Q168 -821 197 -855Q209 -868 215 -876Q221 -884 226.5 -897.5Q232 -911 232 -924Q232 -941 207 -941Q193 -941 166 -935Q152 -932 138 -932Q90 -932 54 -963Q18 -994 18 -1041Q18 -1052 22 -1074Q29 -1112 29 -1130Q29 -1139 28 -1147Q28 -1147 28 -1148Q28 -1153 33 -1153Q37 -1153 38 -1149Q39 -1140 39 -1130Q39 -1113 30 -1059Q28 -1050 28 -1041Q28 -999 60.5 -970.5Q93 -942 138 -942ZM74 -707Q69 -707 69 -713Q69 -729 78 -742Q87 -755 101 -761Q94 -766 82 -770Q56 -779 24 -779Q11 -777 9 -776Q7 -775 6 -775Q1 -775 1 -780Q1 -782 2.5 -784Q4 -786 7 -786.5Q10 -787 12.5 -787.5Q15 -788 19 -788.5Q23 -789 23 -789Q24 -789 24 -789Q58 -789 85 -780Q103 -774 112 -765Q116 -765 120 -765Q123 -765 126 -765Q204 -764 227 -625Q229 -615 229 -605Q229 -552 191 -506Q232 -481 254.5 -433.5Q277 -386 277 -332Q277 -323 277 -318Q279 -306 279 -295Q279 -196 161 -112Q131 -90 99 -90Q71 -90 53 -108.5Q35 -127 35 -162V-174L17 -269Q17 -270 17 -270Q17 -275 22 -275Q26 -275 27 -271L45 -175Q45 -174 45 -174V-162Q45 -131 60 -115.5Q75 -100 99 -100Q127 -100 155 -120Q269 -201 269 -295Q269 -306 267 -317Q267 -318 267 -318Q267 -320 267 -325Q267 -330 267 -332Q267 -385 245.5 -430Q224 -475 185 -498Q144 -453 92 -453Q83 -453 73 -471Q63 -490 63 -504Q63 -517 79 -522Q95 -527 112 -527Q150 -527 182 -511Q219 -554 219 -605Q219 -614 217 -623Q195 -755 126 -755Q125 -755 123 -755Q121 -755 120 -755Q119 -755 117 -755Q119 -751 119 -746Q119 -729 107 -719Q93 -707 74 -707ZM108 -517Q99 -517 86 -513.5Q73 -510 73 -504Q73 -496 80 -481Q87 -466 92 -463Q138 -463 175 -503Q146 -517 112 -517Q111 -517 110 -517Q109 -517 108 -517ZM109 -746Q109 -750 107 -753Q96 -749 88.5 -739Q81 -729 79 -718Q109 -722 109 -746Z"/>
</svg>