<svg xmlns="http://www.w3.org/2000/svg" viewBox="0 -1024 1024 1024">
	<path fill="#000088" d="M-4 -834Q-4 -843 -4 -861.5Q-4 -880 -4 -889Q-17 -898 -33 -908Q-49 -917 -67 -927Q-87 -927 -96 -923Q-110 -917 -126 -899Q-145 -878 -177 -878Q-228 -878 -260 -918Q-278 -940 -278 -965Q-278 -966 -278 -966.5Q-278 -967 -278 -968Q-278 -978 -270.5 -985Q-263 -992 -253 -992Q-243 -992 -235.5 -984.5Q-228 -977 -228 -967Q-228 -967 -228 -966.5Q-228 -966 -228 -965Q-228 -957 -221 -949Q-214 -940 -200.5 -934Q-187 -928 -177 -928Q-167 -928 -164 -931Q-140 -958 -116 -969Q-96 -977 -64 -977Q-64 -977 -63 -977Q-62 -977 -61 -977Q-55 -977 -49 -974Q-23 -960 0 -946Q18 -935 27 -928Q38 -921 42 -914Q46 -907 46 -900Q46 -897 46 -893Q46 -882 46 -863Q46 -844 46 -834Q46 -811 47 -802Q53 -803 59 -805Q87 -813 112 -813Q164 -813 199.5 -779Q235 -745 255 -693Q281 -726 345 -769Q377 -791 395 -805Q402 -810 410 -810Q420 -810 427.5 -802.5Q435 -795 435 -785Q435 -773 425 -765Q407 -751 373 -728Q346 -709 331.5 -698.5Q317 -688 300.5 -670Q284 -652 273 -630Q277 -611 279.5 -591.5Q282 -572 283 -560.5Q284 -549 285.5 -523Q287 -497 288 -488Q291 -438 291 -419Q291 -383 274 -291Q260 -212 248 -172Q246 -164 240 -142.5Q234 -121 230 -111Q227 -97 225 -92Q223 -88 221 -85Q219 -82 217 -79Q210 -73 200 -73Q185 -73 178 -86Q162 -115 152 -162Q149 -172 143 -190.5Q137 -209 133.5 -226Q130 -243 130 -261Q130 -263 130 -268Q130 -273 130 -275Q130 -284 127 -303.5Q124 -323 124 -333Q124 -339 124 -343Q128 -385 141.5 -427Q155 -469 175 -517Q195 -565 203 -592Q211 -616 220 -636Q205 -695 179 -728Q151 -763 112 -763Q94 -763 75 -757Q55 -751 43 -751Q23 -751 11 -764Q3 -773 -1 -787Q-4 -801 -4 -834ZM198 -181Q199 -184 200 -186Q211 -223 225 -300Q241 -388 241 -419Q241 -440 238 -482Q235 -524 235 -532Q233 -526 217.5 -488Q202 -450 197 -434.5Q192 -419 184 -390.5Q176 -362 174 -339Q174 -336 174 -333Q174 -325 177 -305.5Q180 -286 180 -275Q180 -273 180 -268Q180 -263 180 -261Q180 -250 183 -236.5Q186 -223 191.5 -205Q197 -187 198 -181Z"/>
	<path fill="#800080" d="M-54 -834Q-54 -843 -54 -861.5Q-54 -880 -54 -889Q-67 -898 -83 -908Q-99 -917 -117 -927Q-137 -927 -146 -923Q-160 -917 -176 -899Q-195 -878 -227 -878Q-278 -878 -310 -918Q-328 -940 -328 -965Q-328 -966 -328 -966.5Q-328 -967 -328 -968Q-328 -978 -320.5 -985Q-313 -992 -303 -992Q-293 -992 -285.5 -984.5Q-278 -977 -278 -967Q-278 -967 -278 -966.5Q-278 -966 -278 -965Q-278 -957 -271 -949Q-264 -940 -250.5 -934Q-237 -928 -227 -928Q-217 -928 -214 -931Q-190 -958 -166 -969Q-146 -977 -114 -977Q-114 -977 -113 -977Q-112 -977 -111 -977Q-105 -977 -99 -974Q-73 -960 -50 -946Q-32 -935 -23 -928Q-12 -921 -8 -914Q-4 -907 -4 -900Q-4 -897 -4 -893Q-4 -882 -4 -863Q-4 -844 -4 -834Q-4 -811 -3 -802Q3 -803 9 -805Q37 -813 62 -813Q114 -813 149.5 -779Q185 -745 205 -693Q231 -726 295 -769Q327 -791 345 -805Q352 -810 360 -810Q370 -810 377.5 -802.5Q385 -795 385 -785Q385 -773 375 -765Q357 -751 323 -728Q296 -709 281.5 -698.5Q267 -688 250.5 -670Q234 -652 223 -630Q227 -611 229.5 -591.5Q232 -572 233 -560.5Q234 -549 235.5 -523Q237 -497 238 -488Q241 -438 241 -419Q241 -383 224 -291Q210 -212 198 -172Q196 -164 190 -142.5Q184 -121 180 -111Q177 -97 175 -92Q173 -88 171 -85Q169 -82 167 -79Q160 -73 150 -73Q135 -73 128 -86Q112 -115 102 -162Q99 -172 93 -190.5Q87 -209 83.5 -226Q80 -243 80 -261Q80 -263 80 -268Q80 -273 80 -275Q80 -284 77 -303.5Q74 -323 74 -333Q74 -339 74 -343Q78 -385 91.5 -427Q105 -469 125 -517Q145 -565 153 -592Q161 -616 170 -636Q155 -695 129 -728Q101 -763 62 -763Q44 -763 25 -757Q5 -751 -7 -751Q-27 -751 -39 -764Q-47 -773 -51 -787Q-54 -801 -54 -834ZM148 -181Q149 -184 150 -186Q161 -223 175 -300Q191 -388 191 -419Q191 -440 188 -482Q185 -524 185 -532Q183 -526 167.5 -488Q152 -450 147 -434.5Q142 -419 134 -390.5Q126 -362 124 -339Q124 -336 124 -333Q124 -325 127 -305.5Q130 -286 130 -275Q130 -273 130 -268Q130 -263 130 -261Q130 -250 133 -236.5Q136 -223 141.5 -205Q147 -187 148 -181Z"/>
	<path fill="#daa520" d="M-34 -834Q-34 -844 -34 -863Q-34 -882 -34 -893Q-34 -896 -34 -899Q-44 -910 -112 -947Q-113 -947 -114 -947Q-131 -947 -140 -945.5Q-149 -944 -163 -936Q-177 -928 -191 -912Q-204 -898 -227 -898Q-255 -898 -281.5 -918Q-308 -938 -308 -965Q-308 -966 -308 -966.5Q-308 -967 -308 -967Q-308 -972 -303 -972Q-298 -972 -298 -967Q-298 -967 -298 -966.5Q-298 -966 -298 -965Q-298 -943 -275 -925.5Q-252 -908 -227 -908Q-208 -908 -199 -918Q-183 -936 -167 -945Q-151 -954 -140.5 -955.5Q-130 -957 -111 -957Q-110 -957 -109 -956Q-83 -943 -61 -929Q-43 -919 -34 -912Q-30 -909 -27 -906Q-24 -903 -24 -900Q-24 -897 -24 -893Q-24 -882 -24 -863Q-24 -844 -24 -834Q-24 -802 -21 -791.5Q-18 -781 -7 -781Q1 -781 15 -786Q40 -793 62 -793Q160 -793 198 -647Q212 -671 231 -691.5Q250 -712 264 -723Q278 -734 306 -753Q339 -775 357 -789Q358 -790 360 -790Q365 -790 365 -785Q365 -783 363 -781Q345 -767 312 -745Q282 -724 267.5 -713Q253 -702 234 -680.5Q215 -659 202 -633Q206 -614 209 -593Q212 -572 213 -561Q214 -550 215.5 -522.5Q217 -495 218 -487Q221 -437 221 -419Q221 -385 205 -295Q190 -216 179 -178Q178 -176 169.5 -145.5Q161 -115 157 -101Q155 -96 154 -95Q154 -93 150 -93Q147 -93 146 -96Q131 -122 121 -166Q121 -168 110.5 -204Q100 -240 100 -261Q100 -263 100 -268Q100 -273 100 -275Q100 -285 97 -304Q94 -323 94 -333Q94 -338 94 -341Q98 -381 111 -422.5Q124 -464 144 -512Q164 -560 172 -586Q181 -612 191 -634Q176 -700 144 -741.5Q112 -783 62 -783Q41 -783 19 -776Q2 -771 -7 -771Q-24 -771 -29 -785.5Q-34 -800 -34 -834ZM110 -275Q110 -273 110 -268Q110 -263 110 -261Q110 -242 120 -206.5Q130 -171 131 -168Q139 -133 149 -111Q152 -121 159.5 -147.5Q167 -174 169 -180Q180 -219 195 -297Q211 -386 211 -419Q211 -437 208 -486Q201 -587 195 -617Q188 -601 182 -582Q174 -557 154 -509Q134 -461 121 -420Q108 -379 104 -341Q104 -337 104 -333Q104 -324 107 -304.5Q110 -285 110 -275Z"/>
</svg>