<svg xmlns="http://www.w3.org/2000/svg" viewBox="0 -1024 1024 1024">
	<path fill="#000088" d="M-255 114Q-248 118 -235 96Q-230 88 -230 93Q-230 112 -238 125Q-246 138 -258 138Q-283 138 -302 121.5Q-321 105 -321 79Q-321 64 -310 52Q-301 42 -284 35Q-279 33 -274 33Q-264 33 -256.5 40.5Q-249 48 -249 58Q-251 64 -232 85Q-273 55 -287.5 59Q-302 63 -293 101Q-294 104 -295 106H-294Q-292 105 -290 104Q-288 103 -278 105Q-268 107 -255 114Z"/>
	<path fill="#800080" d="M-305 114Q-298 118 -285 96Q-280 88 -280 93Q-280 112 -288 125Q-296 138 -308 138Q-333 138 -352 121.5Q-371 105 -371 79Q-371 64 -360 52Q-351 42 -334 35Q-329 33 -324 33Q-314 33 -306.5 40.5Q-299 48 -299 58Q-301 64 -282 85Q-323 55 -337.5 59Q-352 63 -343 101Q-344 104 -345 106H-344Q-342 105 -340 104Q-338 103 -328 105Q-318 107 -305 114Z"/>
	<path fill="#daa520" d="M-374 -30Q-372 -30 -370 -32Q-360 -45 -338 -45Q-324 -45 -314.5 -36.5Q-305 -28 -305 -16Q-305 -4 -314.5 4.5Q-324 13 -338 13Q-343 13 -343 18Q-343 23 -338 23Q-320 23 -307.5 11.5Q-295 0 -295 -16Q-295 -32 -307.5 -43.5Q-320 -55 -338 -55Q-365 -55 -378 -38Q-379 -37 -379 -35Q-379 -30 -374 -30ZM-338 13Q-333 13 -333 18Q-333 23 -338 23Q-356 23 -368.5 11.5Q-381 0 -381 -16Q-381 -30 -356 -42Q-355 -42 -354 -42Q-349 -42 -349 -37Q-349 -34 -352 -32Q-371 -24 -371 -16Q-371 -4 -361.5 4.5Q-352 13 -338 13Z"/>
</svg>