<svg xmlns="http://www.w3.org/2000/svg" viewBox="0 -1024 1024 1024">
	<path fill="#000088" d="M419 -158Q419 -167 420 -185Q421 -203 421 -211Q421 -216 421 -220Q385 -239 338 -254Q320 -260 320 -278Q320 -288 327.5 -295.5Q335 -303 345 -303Q349 -303 352 -302Q390 -290 419 -277Q419 -477 522 -697Q543 -741 567 -771Q584 -792 602 -803Q621 -815 640 -815Q662 -815 681 -799Q690 -792 690 -780Q690 -770 682.5 -762.5Q675 -755 665 -755Q656 -755 649 -761Q644 -765 640 -765Q635 -765 628 -761Q618 -754 606 -739Q586 -714 568 -675Q469 -465 469 -275Q469 -262 469 -249Q554 -192 554 -107Q554 -86 548 -77Q541 -68 529 -64Q521 -62 510 -62Q506 -62 499.5 -62.5Q493 -63 491 -63Q470 -63 455 -72Q436 -83 428 -104Q419 -124 419 -158ZM504 -112Q502 -152 470 -184Q469 -167 469 -158Q469 -134 474 -123Q476 -117 480 -115Q484 -113 491 -113Q492 -113 504 -112ZM89 -778Q98 -789 111 -789Q114 -789 117 -788Q124 -787 137 -784Q150 -781 155 -776Q162 -768 162 -758Q162 -746 156 -737Q152 -731 147 -727Q165 -730 190 -742Q194 -752 200 -760Q216 -783 238 -783Q249 -783 257.5 -775.5Q266 -768 266 -756Q266 -739 252 -725Q268 -733 271 -734Q288 -739 316 -771Q324 -780 328 -785Q337 -802 353 -802Q364 -802 372 -793Q378 -786 378 -777Q378 -773 377 -769Q376 -766 373 -757Q364 -734 362 -724Q362 -723 362 -722Q362 -716 359 -711Q354 -701 330 -638Q325 -587 281 -533Q270 -519 259 -507Q248 -495 234 -482Q220 -469 211.5 -461.5Q203 -454 186 -440Q169 -426 164 -422Q243 -389 307 -297Q329 -451 353 -558Q377 -667 403 -722Q418 -752 434 -768Q452 -785 473 -785Q476 -785 480 -784Q498 -779 515 -755Q522 -745 524 -743Q536 -736 536 -722Q536 -712 528.5 -704.5Q521 -697 511 -697Q504 -697 498 -701Q487 -708 474 -726Q471 -729 469 -732Q468 -731 467 -730Q458 -720 448 -700Q425 -651 401 -547Q373 -422 348 -230Q363 -202 380 -167Q385 -154 385 -136Q385 -99 369 -75Q356 -55 335 -55Q324 -55 317 -63Q287 -94 287 -138Q287 -145 291 -173Q294 -201 296 -220Q214 -364 112 -386Q103 -387 97.5 -394Q92 -401 92 -410Q92 -417 95 -422Q100 -431 114 -444Q123 -452 147 -473Q214 -529 242 -564Q278 -608 280 -646Q280 -650 282 -653Q285 -660 290 -673.5Q295 -687 296 -690Q292 -688 288 -687Q285 -685 277 -681Q245 -665 225 -665Q224 -665 222 -665Q222 -665 220 -665Q218 -665 216 -665Q216 -665 215 -665Q190 -665 181 -684Q159 -677 145 -677Q143 -677 135 -678Q95 -682 83 -700Q75 -711 75 -724Q75 -725 75 -725Q68 -729 60.5 -736.5Q53 -744 50 -746Q43 -751 37 -762Q24 -769 24 -784Q24 -794 31.5 -801.5Q39 -809 49 -809Q51 -809 54 -809Q70 -805 80 -787Q81 -786 81 -785Q85 -782 89 -778Z"/>
	<path fill="#800080" d="M369 -158Q369 -167 370 -185Q371 -203 371 -211Q371 -216 371 -220Q335 -239 288 -254Q270 -260 270 -278Q270 -288 277.5 -295.5Q285 -303 295 -303Q299 -303 302 -302Q340 -290 369 -277Q369 -477 472 -697Q493 -741 517 -771Q534 -792 552 -803Q571 -815 590 -815Q612 -815 631 -799Q640 -792 640 -780Q640 -770 632.5 -762.5Q625 -755 615 -755Q606 -755 599 -761Q594 -765 590 -765Q585 -765 578 -761Q568 -754 556 -739Q536 -714 518 -675Q419 -465 419 -275Q419 -262 419 -249Q504 -192 504 -107Q504 -86 498 -77Q491 -68 479 -64Q471 -62 460 -62Q456 -62 449.5 -62.5Q443 -63 441 -63Q420 -63 405 -72Q386 -83 378 -104Q369 -124 369 -158ZM454 -112Q452 -152 420 -184Q419 -167 419 -158Q419 -134 424 -123Q426 -117 430 -115Q434 -113 441 -113Q442 -113 454 -112ZM39 -778Q48 -789 61 -789Q64 -789 67 -788Q74 -787 87 -784Q100 -781 105 -776Q112 -768 112 -758Q112 -746 106 -737Q102 -731 97 -727Q115 -730 140 -742Q144 -752 150 -760Q166 -783 188 -783Q199 -783 207.5 -775.5Q216 -768 216 -756Q216 -739 202 -725Q218 -733 221 -734Q238 -739 266 -771Q274 -780 278 -785Q287 -802 303 -802Q314 -802 322 -793Q328 -786 328 -777Q328 -773 327 -769Q326 -766 323 -757Q314 -734 312 -724Q312 -723 312 -722Q312 -716 309 -711Q304 -701 280 -638Q275 -587 231 -533Q220 -519 209 -507Q198 -495 184 -482Q170 -469 161.5 -461.5Q153 -454 136 -440Q119 -426 114 -422Q193 -389 257 -297Q279 -451 303 -558Q327 -667 353 -722Q368 -752 384 -768Q402 -785 423 -785Q426 -785 430 -784Q448 -779 465 -755Q472 -745 474 -743Q486 -736 486 -722Q486 -712 478.5 -704.5Q471 -697 461 -697Q454 -697 448 -701Q437 -708 424 -726Q421 -729 419 -732Q418 -731 417 -730Q408 -720 398 -700Q375 -651 351 -547Q323 -422 298 -230Q313 -202 330 -167Q335 -154 335 -136Q335 -99 319 -75Q306 -55 285 -55Q274 -55 267 -63Q237 -94 237 -138Q237 -145 241 -173Q244 -201 246 -220Q164 -364 62 -386Q53 -387 47.5 -394Q42 -401 42 -410Q42 -417 45 -422Q50 -431 64 -444Q73 -452 97 -473Q164 -529 192 -564Q228 -608 230 -646Q230 -650 232 -653Q235 -660 240 -673.5Q245 -687 246 -690Q242 -688 238 -687Q235 -685 227 -681Q195 -665 175 -665Q174 -665 172 -665Q172 -665 170 -665Q168 -665 166 -665Q166 -665 165 -665Q140 -665 131 -684Q109 -677 95 -677Q93 -677 85 -678Q45 -682 33 -700Q25 -711 25 -724Q25 -725 25 -725Q18 -729 10.5 -736.5Q3 -744 0 -746Q-7 -751 -13 -762Q-26 -769 -26 -784Q-26 -794 -18.5 -801.5Q-11 -809 -1 -809Q1 -809 4 -809Q20 -805 30 -787Q31 -786 31 -785Q35 -782 39 -778Z"/>
	<path fill="#daa520" d="M390 -158Q390 -167 391 -185Q392 -203 392 -211Q392 -212 391 -232Q351 -256 295 -273Q291 -274 291 -278Q291 -283 296 -283Q297 -283 297 -283Q352 -266 390 -244Q390 -260 390 -275Q390 -471 491 -688Q498 -703 506 -717Q514 -731 528 -751Q542 -771 558.5 -783Q575 -795 591 -795Q606 -795 619 -784Q621 -782 621 -780Q621 -775 616 -775Q614 -775 613 -776Q602 -785 591 -785Q573 -785 552 -763Q531 -741 520 -722Q509 -703 501 -684Q400 -469 400 -275Q400 -256 401 -238Q485 -186 485 -107Q485 -101 485 -96Q485 -82 461 -82Q458 -82 451.5 -82.5Q445 -83 442 -83Q390 -83 390 -158ZM475 -107Q475 -177 402 -225Q402 -219 402 -211Q402 -203 401 -185Q400 -167 400 -158Q400 -126 409 -109.5Q418 -93 442 -93Q445 -93 451.5 -92.5Q458 -92 461 -92Q475 -92 475 -96Q475 -98 475 -101.5Q475 -105 475 -107ZM167 -685Q149 -685 149 -700Q149 -705 151 -713Q117 -697 96 -697Q95 -697 88 -698Q79 -699 75 -699.5Q71 -700 62.5 -702.5Q54 -705 50 -710.5Q46 -716 46 -724Q46 -727 47 -731Q47 -733 48 -738Q40 -740 34.5 -743.5Q29 -747 23 -753Q17 -759 13 -762Q9 -765 5 -772Q2 -779 -1 -779Q-5 -780 -5 -784Q-5 -789 0 -789Q0 -789 1 -789Q8 -788 12.5 -779.5Q17 -771 19 -770Q24 -766 31 -759Q42 -750 50 -748Q52 -758 54 -763Q57 -769 62 -769Q66 -769 87 -764Q93 -762 93 -758Q93 -737 62 -737Q60 -737 58 -737Q57 -732 57 -730Q57 -729 56.5 -727Q56 -725 56 -724Q56 -716 64.5 -712.5Q73 -709 90 -707Q93 -707 95 -707Q95 -707 96 -707Q97 -707 104 -709Q111 -711 119.5 -713Q128 -715 138.5 -719Q149 -723 156 -727Q171 -763 189 -763Q197 -763 197 -756Q197 -739 164 -720Q159 -706 159 -700Q159 -696 160.5 -695.5Q162 -695 167 -695Q168 -695 170.5 -695Q173 -695 174 -695Q174 -695 175 -695Q176 -695 176 -695Q184 -695 192.5 -698Q201 -701 213 -707Q225 -713 228 -715Q238 -718 248 -725.5Q258 -733 264 -739Q270 -745 281 -757Q292 -769 296 -773Q299 -779 300 -780Q302 -782 304 -782Q309 -782 309 -777Q309 -775 305 -764Q293 -732 293 -724Q293 -723 293 -722.5Q293 -722 293 -722Q293 -721 292 -720Q288 -712 261 -643Q259 -615 245 -587.5Q231 -560 205 -532Q179 -504 163 -489Q147 -474 117 -450Q85 -423 77 -413Q186 -386 270 -240Q295 -429 323 -554Q347 -661 372 -713Q397 -765 424 -765Q425 -765 425 -765Q436 -762 447.5 -746Q459 -730 465 -726Q467 -725 467 -722Q467 -717 462 -717Q461 -717 459 -718Q452 -723 441 -737Q431 -753 423 -755Q403 -754 381 -709Q357 -657 333 -552Q304 -423 279 -226Q295 -196 313 -158Q316 -150 316 -136Q316 -105 304 -86Q296 -75 286 -75Q284 -75 282 -77Q258 -102 258 -138Q258 -144 261 -170Q265 -202 268 -224Q180 -382 67 -405Q63 -406 63 -410Q63 -411 64 -412Q70 -423 111 -457Q139 -481 156.5 -497Q174 -513 198.5 -539.5Q223 -566 236 -592.5Q249 -619 251 -644Q251 -645 251 -646Q279 -716 283 -723Q283 -723 283 -724Q283 -732 290 -751Q256 -713 232 -705Q229 -704 216.5 -697.5Q204 -691 195 -688Q186 -685 176 -685Q175 -685 174 -685Q173 -685 170.5 -685Q168 -685 167 -685ZM60 -747Q61 -747 62 -747Q80 -747 82 -754Q76 -756 63 -759Q61 -754 60 -747ZM172 -737Q183 -746 186 -753Q180 -750 172 -737ZM306 -136Q306 -148 303 -154Q289 -184 276 -209Q274 -193 271 -169Q268 -143 268 -138Q268 -108 288 -85Q294 -87 299 -97Q306 -114 306 -136Z"/>
</svg>