<svg xmlns="http://www.w3.org/2000/svg" viewBox="0 -1024 1024 1024">
	<path fill="#000088" d="M564 -135Q564 -130 564.5 -121Q565 -112 565 -107Q565 -90 555 -77Q545 -65 531 -65Q516 -65 508 -78Q492 -99 486 -131Q483 -145 482 -159.5Q481 -174 480.5 -194Q480 -214 479 -222Q478 -237 478 -251Q478 -257 478 -264Q448 -300 402 -325Q389 -332 389 -347Q389 -357 396.5 -364.5Q404 -372 414 -372Q420 -372 426 -369Q457 -352 484 -329Q496 -411 541 -533Q579 -636 648 -791Q655 -806 671 -806H777Q787 -806 794.5 -798.5Q802 -791 802 -781Q802 -771 794.5 -763.5Q787 -756 777 -756H687Q624 -614 587 -515Q535 -373 529 -280Q566 -227 566 -168Q566 -162 565 -151Q564 -140 564 -135ZM54 -757Q44 -757 36.5 -764.5Q29 -772 29 -782Q29 -791 35 -798Q41 -805 50 -807L176 -825Q178 -825 180 -825Q181 -825 181 -825L331 -819Q331 -819 332 -819L428 -813Q429 -813 430 -813L529 -798Q542 -796 548 -783L602 -800Q605 -801 609 -801Q619 -801 626.5 -793.5Q634 -786 634 -776Q634 -758 616 -752L532 -726Q523 -720 516 -709Q509 -698 505.5 -688Q502 -678 496.5 -662Q491 -646 488 -638Q441 -517 441 -402Q441 -380 445 -324Q450 -260 451 -229Q451 -228 462 -185Q467 -166 467 -155Q467 -148 466 -142Q465 -141 465 -138Q465 -137 470 -111Q471 -108 471 -105.5Q471 -103 470 -100Q469 -94 464 -88Q457 -80 446 -80Q436 -80 429 -86Q424 -91 421 -99Q420 -102 419 -108.5Q418 -115 417 -118Q401 -177 401 -212Q401 -216 401 -220Q381 -275 339 -319.5Q297 -364 245 -387Q241 -389 213 -403Q185 -417 171 -421Q122 -381 94 -363Q82 -355 73 -351Q63 -346 54 -346Q53 -345 47 -345Q40 -345 33 -350Q22 -357 22 -370Q22 -374 23 -376Q24 -406 48 -430Q65 -448 91 -460Q122 -474 151 -474Q154 -474 157 -474Q229 -533 325.5 -619Q422 -705 474 -755L423 -763L329 -769L181 -775L58 -757Q56 -757 54 -757ZM391 -402Q391 -527 442 -656Q415 -632 359 -582Q280 -512 215 -458Q223 -454 239.5 -445.5Q256 -437 265 -433Q341 -399 394 -333Q391 -379 391 -402Z"/>
	<path fill="#800080" d="M515 -135Q515 -130 515.5 -121Q516 -112 516 -107Q516 -90 506 -77Q496 -65 482 -65Q467 -65 459 -78Q443 -99 437 -131Q434 -145 433 -159.5Q432 -174 431.5 -194Q431 -214 430 -222Q429 -237 429 -251Q429 -257 429 -264Q399 -300 353 -325Q340 -332 340 -347Q340 -357 347.5 -364.5Q355 -372 365 -372Q371 -372 377 -369Q408 -352 435 -329Q447 -411 492 -533Q530 -636 599 -791Q606 -806 622 -806H728Q738 -806 745.5 -798.5Q753 -791 753 -781Q753 -771 745.5 -763.5Q738 -756 728 -756H638Q575 -614 538 -515Q486 -373 480 -280Q517 -227 517 -168Q517 -162 516 -151Q515 -140 515 -135ZM5 -757Q-5 -757 -12.5 -764.5Q-20 -772 -20 -782Q-20 -791 -14 -798Q-8 -805 1 -807L127 -825Q129 -825 131 -825Q132 -825 132 -825L282 -819Q282 -819 283 -819L379 -813Q380 -813 381 -813L480 -798Q493 -796 499 -783L553 -800Q556 -801 560 -801Q570 -801 577.5 -793.5Q585 -786 585 -776Q585 -758 567 -752L483 -726Q474 -720 467 -709Q460 -698 456.5 -688Q453 -678 447.5 -662Q442 -646 439 -638Q392 -517 392 -402Q392 -380 396 -324Q401 -260 402 -229Q402 -228 413 -185Q418 -166 418 -155Q418 -148 417 -142Q416 -141 416 -138Q416 -137 421 -111Q422 -108 422 -105.5Q422 -103 421 -100Q420 -94 415 -88Q408 -80 397 -80Q387 -80 380 -86Q375 -91 372 -99Q371 -102 370 -108.5Q369 -115 368 -118Q352 -177 352 -212Q352 -216 352 -220Q332 -275 290 -319.5Q248 -364 196 -387Q192 -389 164 -403Q136 -417 122 -421Q73 -381 45 -363Q33 -355 24 -351Q14 -346 5 -346Q4 -345 -2 -345Q-9 -345 -16 -350Q-27 -357 -27 -370Q-27 -374 -26 -376Q-25 -406 -1 -430Q16 -448 42 -460Q73 -474 102 -474Q105 -474 108 -474Q180 -533 276.5 -619Q373 -705 425 -755L374 -763L280 -769L132 -775L9 -757Q7 -757 5 -757ZM342 -402Q342 -527 393 -656Q366 -632 310 -582Q231 -512 166 -458Q174 -454 190.5 -445.5Q207 -437 216 -433Q292 -399 345 -333Q342 -379 342 -402Z"/>
	<path fill="#daa520" d="M495 -135Q495 -130 495.5 -121Q496 -112 496 -107Q496 -97 490 -90Q487 -85 482.5 -85Q478 -85 475 -89Q466 -102 460.5 -120.5Q455 -139 454 -149.5Q453 -160 451.5 -189Q450 -218 450 -224Q449 -237 449 -251Q449 -261 450 -270Q416 -314 363 -343Q360 -344 360 -347Q360 -352 365 -352Q366 -352 367 -351Q417 -325 450 -285Q457 -381 510 -526Q548 -628 617 -783Q619 -786 622 -786H728Q733 -786 733 -781Q733 -776 728 -776H625Q557 -624 520 -522Q464 -372 460 -274Q497 -223 497 -168Q497 -162 496 -151Q495 -140 495 -135ZM485 -135Q485 -140 486 -151Q487 -162 487 -168Q487 -214 459 -257Q459 -254 459 -251Q459 -238 460 -224Q460 -216 461 -197Q462 -178 463 -167.5Q464 -157 466 -142.5Q468 -128 472 -116.5Q476 -105 482 -96Q486 -101 486 -107Q486 -111 485.5 -120.5Q485 -130 485 -135ZM102 -454Q108 -454 114 -453Q145 -478 182 -510Q260 -577 342.5 -651.5Q425 -726 458 -759L467 -769L376 -783L281 -789L131 -795L6 -777Q5 -777 5 -777Q0 -777 0 -782Q0 -786 4 -787L130 -805Q131 -805 131 -805L281 -799L377 -793Q378 -793 378 -793L477 -778Q481 -777 481 -773Q481 -771 478 -767Q476 -764 470 -758Q459 -746 435 -724Q286 -581 127 -451Q140 -447 153.5 -441Q167 -435 183 -426.5Q199 -418 208 -415Q260 -392 303.5 -349.5Q347 -307 371 -254Q370 -275 367 -315Q364 -355 363 -365Q362 -383 362 -402Q362 -523 411 -649Q414 -656 419 -671Q426 -692 430.5 -703Q435 -714 446 -730Q457 -746 471 -753Q471 -754 472 -754L559 -781Q559 -781 560 -781Q565 -781 565 -776Q565 -772 561 -771L475 -744Q464 -738 454.5 -725.5Q445 -713 441 -702.5Q437 -692 430.5 -672.5Q424 -653 421 -645Q372 -521 372 -402Q372 -379 376 -323Q381 -257 382 -226Q383 -222 394 -180Q398 -164 398 -155Q398 -152 397 -146.5Q396 -141 396 -138Q396 -131 398 -122Q402 -108 402 -105Q402 -105 402 -105Q402 -100 397 -100Q393 -100 391 -106Q391 -108 389.5 -114.5Q388 -121 387 -124Q372 -180 372 -212Q372 -218 372 -224Q352 -283 306.5 -331.5Q261 -380 204 -405Q196 -409 178 -418.5Q160 -428 145.5 -434Q131 -440 117 -443Q63 -399 34 -380Q13 -366 5 -366Q2 -366 1 -365.5Q0 -365 -1 -365Q-3 -365 -4 -366Q-7 -368 -7 -370Q-7 -372 -6.5 -372.5Q-6 -373 -6 -374Q-6 -408 30.5 -431Q67 -454 102 -454ZM102 -444Q71 -444 38 -423.5Q5 -403 4 -376Q5 -376 5 -376Q8 -376 19 -382Q32 -390 55 -407Q76 -422 103 -444Q103 -444 102 -444Z"/>
</svg>