<svg xmlns="http://www.w3.org/2000/svg" viewBox="0 -1024 1024 1024">
	<path fill="#000088" d="M83 -345Q84 -345 85 -345Q113 -343 148 -326Q185 -309 229 -275Q248 -260 267 -244Q286 -228 308 -207.5Q330 -187 339.5 -177.5Q349 -168 375 -142Q401 -116 404 -113Q408 -114 412 -114Q427 -114 434 -101Q441 -89 444 -82Q448 -73 448 -65Q448 -58 444 -51Q436 -39 422 -39Q416 -39 410 -42Q403 -45 390 -56Q381 -65 352 -94Q255 -191 198 -235Q158 -266 127 -281Q100 -294 81 -295Q72 -296 65 -303Q58 -310 58 -320Q58 -330 65.5 -337.5Q73 -345 83 -345ZM412 -779Q355 -779 240 -768.5Q125 -758 67 -758H49Q39 -758 31.5 -765.5Q24 -773 24 -783Q24 -793 31.5 -800.5Q39 -808 49 -808H67Q124 -808 239 -818.5Q354 -829 412 -829Q422 -829 470.5 -822Q519 -815 539 -810Q554 -807 559 -803Q564 -806 569 -806L698 -814Q699 -814 700 -814Q710 -814 717.5 -806.5Q725 -799 725 -789Q725 -779 718 -772Q711 -765 702 -764L591 -757L526 -516Q497 -407 497 -339Q497 -332 497 -325Q498 -302 498 -259V-256V-253Q498 -196 500 -167Q501 -153 503 -140Q512 -130 519 -122Q533 -106 539 -98Q547 -87 550 -80Q551 -75 551 -70Q551 -57 541 -49Q534 -44 525 -44Q521 -44 517 -45Q484 -53 467 -91Q461 -103 457 -118Q393 -197 330 -248Q283 -286 256.5 -306Q230 -326 187 -351Q144 -376 107 -387Q98 -385 76 -384Q56 -383 49 -383Q39 -383 31.5 -390.5Q24 -398 24 -408Q24 -420 33 -427Q52 -443 76 -443Q87 -443 107 -438Q152 -450 194 -473Q236 -496 278 -534Q320 -572 347 -601Q374 -630 419 -681Q471 -740 497 -767Q459 -774 412 -779ZM447 -339Q447 -414 478 -528L532 -732Q507 -705 457 -648Q416 -601 394.5 -578Q373 -555 334.5 -517.5Q296 -480 259 -454.5Q222 -429 182 -412Q212 -397 246 -374Q280 -351 299 -336.5Q318 -322 356 -291Q405 -251 448 -205Q448 -222 448 -253V-256V-259Q448 -301 447 -323Q447 -331 447 -339Z"/>
	<path fill="#800080" d="M33 -345Q34 -345 35 -345Q63 -343 98 -326Q135 -309 179 -275Q198 -260 217 -244Q236 -228 258 -207.5Q280 -187 289.5 -177.5Q299 -168 325 -142Q351 -116 354 -113Q358 -114 362 -114Q377 -114 384 -101Q391 -89 394 -82Q398 -73 398 -65Q398 -58 394 -51Q386 -39 372 -39Q366 -39 360 -42Q353 -45 340 -56Q331 -65 302 -94Q205 -191 148 -235Q108 -266 77 -281Q50 -294 31 -295Q22 -296 15 -303Q8 -310 8 -320Q8 -330 15.5 -337.5Q23 -345 33 -345ZM362 -779Q305 -779 190 -768.5Q75 -758 17 -758H-1Q-11 -758 -18.5 -765.5Q-26 -773 -26 -783Q-26 -793 -18.5 -800.5Q-11 -808 -1 -808H17Q74 -808 189 -818.5Q304 -829 362 -829Q372 -829 420.5 -822Q469 -815 489 -810Q504 -807 509 -803Q514 -806 519 -806L648 -814Q649 -814 650 -814Q660 -814 667.5 -806.5Q675 -799 675 -789Q675 -779 668 -772Q661 -765 652 -764L541 -757L476 -516Q447 -407 447 -339Q447 -332 447 -325Q448 -302 448 -259V-256V-253Q448 -196 450 -167Q451 -153 453 -140Q462 -130 469 -122Q483 -106 489 -98Q497 -87 500 -80Q501 -75 501 -70Q501 -57 491 -49Q484 -44 475 -44Q471 -44 467 -45Q434 -53 417 -91Q411 -103 407 -118Q343 -197 280 -248Q233 -286 206.5 -306Q180 -326 137 -351Q94 -376 57 -387Q48 -385 26 -384Q6 -383 -1 -383Q-11 -383 -18.5 -390.5Q-26 -398 -26 -408Q-26 -420 -17 -427Q2 -443 26 -443Q37 -443 57 -438Q102 -450 144 -473Q186 -496 228 -534Q270 -572 297 -601Q324 -630 369 -681Q421 -740 447 -767Q409 -774 362 -779ZM397 -339Q397 -414 428 -528L482 -732Q457 -705 407 -648Q366 -601 344.5 -578Q323 -555 284.5 -517.5Q246 -480 209 -454.5Q172 -429 132 -412Q162 -397 196 -374Q230 -351 249 -336.5Q268 -322 306 -291Q355 -251 398 -205Q398 -222 398 -253V-256V-259Q398 -301 397 -323Q397 -331 397 -339Z"/>
	<path fill="#daa520" d="M28 -320Q28 -325 33 -325Q85 -322 167 -259Q225 -214 323 -115Q355 -83 363 -76Q361 -81 358 -87Q357 -88 357 -89Q357 -94 362 -94Q365 -94 366 -91Q378 -71 378 -65Q378 -59 372 -59Q369 -59 364 -62Q361 -65 354 -71Q345 -79 316 -108Q218 -206 160 -251Q81 -312 33 -315Q28 -315 28 -320ZM362 -799Q303 -800 187.5 -789Q72 -778 17 -778H-1Q-6 -778 -6 -783Q-6 -788 -1 -788H17Q74 -788 189 -798.5Q304 -809 362 -809Q369 -809 418.5 -802Q468 -795 484 -791Q496 -788 499 -786Q501 -784 501 -781Q501 -779 499 -777Q463 -743 405.5 -678Q348 -613 307 -567.5Q266 -522 203 -476.5Q140 -431 76 -412Q114 -400 158.5 -373.5Q203 -347 226.5 -328.5Q250 -310 299 -271Q360 -221 422 -148Q418 -177 418 -253V-259Q418 -301 417 -324Q417 -331 417 -339Q417 -411 447 -523L516 -782Q517 -786 521 -786L650 -794Q655 -794 655 -789Q655 -784 650 -784L525 -776L457 -521Q427 -410 427 -339Q427 -332 427 -324Q428 -302 428 -259V-253Q428 -195 430 -165Q431 -147 435 -132Q448 -116 453 -109Q467 -93 473 -86Q481 -75 481 -70Q481 -64 475 -64Q473 -64 472 -64Q438 -73 425 -127Q359 -210 293 -263Q242 -304 216 -324Q190 -344 144 -370.5Q98 -397 57 -407Q54 -407 51 -406Q37 -403 -1 -403Q-6 -403 -6 -408Q-6 -410 -4 -412Q10 -423 26 -423Q36 -423 57 -418Q110 -431 160 -460Q210 -489 253.5 -530Q297 -571 333 -610.5Q369 -650 412.5 -700Q456 -750 488 -780Q468 -785 424.5 -792Q381 -799 362 -799ZM467 -76Q463 -83 443 -106Q453 -84 467 -76Z"/>
</svg>