<svg xmlns="http://www.w3.org/2000/svg" viewBox="0 -1024 1024 1024">
	<path fill="#000088" d="M158 -734Q158 -723 159 -701Q160 -679 160 -668Q160 -650 150 -638Q140 -627 125 -627Q88 -627 72 -668Q66 -684 66 -700Q66 -727 80 -750Q67 -753 55 -753H49Q39 -753 31.5 -760.5Q24 -768 24 -778Q24 -788 31.5 -795.5Q39 -803 49 -803H55Q76 -803 97 -798Q109 -795 119 -790Q143 -803 169 -803Q222 -803 259 -768Q310 -719 310 -628Q310 -581 285 -531.5Q260 -482 219 -443Q198 -423 175 -408Q192 -398 208 -383Q228 -366 248.5 -341Q269 -316 282 -296.5Q295 -277 315.5 -245Q336 -213 346 -198Q354 -228 354 -238Q354 -239 354 -241Q354 -243 354 -244Q354 -246 354 -248Q355 -255 358 -272Q367 -332 371.5 -361Q376 -390 388 -445Q400 -500 412.5 -535.5Q425 -571 446.5 -614.5Q468 -658 495 -693Q504 -704 576 -792Q581 -798 588 -800L622 -810Q625 -811 629 -811Q639 -811 646.5 -803.5Q654 -796 654 -786Q654 -767 636 -762L609 -754Q539 -668 535 -663Q516 -639 500.5 -609.5Q485 -580 474.5 -558Q464 -536 453 -496Q442 -456 437.5 -438.5Q433 -421 424.5 -371Q416 -321 414 -310Q412 -299 404 -243Q404 -240 404 -238Q404 -220 396 -191Q390 -170 390 -161Q390 -156 388 -152Q388 -151 388 -150Q388 -147 389 -144Q392 -141 393 -138Q395 -136 397 -134Q404 -126 404 -116Q404 -115 404 -115L402 -77Q401 -67 394 -60Q387 -53 377 -53Q368 -53 361 -59Q354 -65 352 -73L344 -115Q344 -116 344 -117Q320 -144 275 -215Q212 -312 175 -346Q146 -371 117 -381Q91 -373 65 -373Q50 -373 41 -384Q36 -392 36 -401Q36 -402 36 -403Q36 -404 36 -404Q36 -421 51 -430Q57 -433 64 -435Q71 -437 77 -437Q96 -437 114 -433Q151 -448 184 -479Q218 -511 239 -552.5Q260 -594 260 -628Q260 -698 224 -732Q202 -753 169 -753Q162 -753 155 -751Q158 -743 158 -734Z"/>
	<path fill="#800080" d="M108 -734Q108 -723 109 -701Q110 -679 110 -668Q110 -650 100 -638Q90 -627 75 -627Q38 -627 22 -668Q16 -684 16 -700Q16 -727 30 -750Q17 -753 5 -753H-1Q-11 -753 -18.5 -760.5Q-26 -768 -26 -778Q-26 -788 -18.5 -795.5Q-11 -803 -1 -803H5Q26 -803 47 -798Q59 -795 69 -790Q93 -803 119 -803Q172 -803 209 -768Q260 -719 260 -628Q260 -581 235 -531.5Q210 -482 169 -443Q148 -423 125 -408Q142 -398 158 -383Q178 -366 198.5 -341Q219 -316 232 -296.5Q245 -277 265.5 -245Q286 -213 296 -198Q304 -228 304 -238Q304 -239 304 -241Q304 -243 304 -244Q304 -246 304 -248Q305 -255 308 -272Q317 -332 321.5 -361Q326 -390 338 -445Q350 -500 362.5 -535.5Q375 -571 396.5 -614.5Q418 -658 445 -693Q454 -704 526 -792Q531 -798 538 -800L572 -810Q575 -811 579 -811Q589 -811 596.5 -803.5Q604 -796 604 -786Q604 -767 586 -762L559 -754Q489 -668 485 -663Q466 -639 450.5 -609.5Q435 -580 424.5 -558Q414 -536 403 -496Q392 -456 387.5 -438.5Q383 -421 374.5 -371Q366 -321 364 -310Q362 -299 354 -243Q354 -240 354 -238Q354 -220 346 -191Q340 -170 340 -161Q340 -156 338 -152Q338 -151 338 -150Q338 -147 339 -144Q342 -141 343 -138Q345 -136 347 -134Q354 -126 354 -116Q354 -115 354 -115L352 -77Q351 -67 344 -60Q337 -53 327 -53Q318 -53 311 -59Q304 -65 302 -73L294 -115Q294 -116 294 -117Q270 -144 225 -215Q162 -312 125 -346Q96 -371 67 -381Q41 -373 15 -373Q0 -373 -9 -384Q-14 -392 -14 -401Q-14 -402 -14 -403Q-14 -404 -14 -404Q-14 -421 1 -430Q7 -433 14 -435Q21 -437 27 -437Q46 -437 64 -433Q101 -448 134 -479Q168 -511 189 -552.5Q210 -594 210 -628Q210 -698 174 -732Q152 -753 119 -753Q112 -753 105 -751Q108 -743 108 -734Z"/>
	<path fill="#daa520" d="M88 -734Q88 -723 89 -701Q90 -679 90 -668Q90 -647 75 -647Q56 -647 46 -664.5Q36 -682 36 -700Q36 -735 62 -760Q40 -773 5 -773H-1Q-6 -773 -6 -778Q-6 -783 -1 -783H5Q47 -783 70 -767Q92 -783 119 -783Q120 -783 121 -783Q180 -781 210 -736Q240 -691 240 -628Q240 -566 193 -500.5Q146 -435 81 -408Q117 -394 151.5 -361.5Q186 -329 207.5 -296.5Q229 -264 259 -217.5Q289 -171 308 -147Q308 -149 308 -150Q308 -157 310 -163Q311 -175 317.5 -199.5Q324 -224 324 -238Q324 -239 324 -241Q324 -243 324 -244Q324 -244 324 -245Q325 -253 328 -269Q338 -342 345 -381Q352 -420 367.5 -481.5Q383 -543 406 -591.5Q429 -640 461 -681Q466 -687 541 -779Q542 -780 544 -781L578 -791Q578 -791 579 -791Q584 -791 584 -786Q584 -782 580 -781L548 -772Q473 -681 469 -675Q437 -634 414.5 -587Q392 -540 377.5 -480Q363 -420 355.5 -380.5Q348 -341 338 -268Q335 -252 334 -244Q334 -241 334 -238Q334 -223 327.5 -198Q321 -173 320 -162Q320 -161 320 -160Q318 -155 318 -150Q318 -141 323 -133Q324 -132 324 -130V-128Q328 -124 333 -120Q334 -118 334 -116L332 -78Q332 -73 327 -73Q323 -73 322 -77L314 -119Q314 -120 314 -120V-124Q291 -150 259 -198.5Q227 -247 203 -284.5Q179 -322 142 -356.5Q105 -391 66 -402Q40 -393 15 -393Q10 -393 7 -396Q6 -398 6 -401Q6 -402 6 -403Q6 -404 6 -404Q6 -417 27 -417Q47 -417 66 -412Q131 -435 180.5 -501Q230 -567 230 -628Q230 -688 202.5 -729.5Q175 -771 121 -773Q120 -773 119 -773Q97 -773 78 -760Q88 -749 88 -734ZM27 -407Q19 -407 16 -404Q16 -404 16 -403Q30 -403 44 -406Q36 -407 27 -407ZM70 -753Q46 -731 46 -700Q46 -685 54 -671Q62 -657 75 -657Q80 -657 80 -668Q80 -679 79 -701Q78 -723 78 -734Q78 -745 70 -753Z"/>
</svg>