<svg xmlns="http://www.w3.org/2000/svg" viewBox="0 -1024 1024 1024">
	<path fill="#000088" d="M311 -803Q311 -803 312 -803L467 -799L542 -803L558 -806Q560 -807 563 -807Q573 -807 580.5 -799.5Q588 -792 588 -782Q588 -773 582.5 -766Q577 -759 568 -758L550 -754Q548 -753 546 -753L468 -749Q468 -749 467 -749Q467 -749 466 -749L310 -753Q300 -753 293 -760.5Q286 -768 286 -778Q286 -788 293.5 -795.5Q301 -803 311 -803ZM254 -810Q276 -810 289 -800Q307 -787 307 -761Q307 -746 301 -726Q299 -721 281 -676Q263 -631 262 -616Q262 -614 261 -612Q255 -587 251.5 -537.5Q248 -488 244 -465Q230 -396 230 -318Q230 -260 236 -220Q244 -175 260 -149Q279 -119 311 -119Q349 -119 374 -142Q416 -179 416 -258Q416 -266 413 -276Q410 -253 393 -240Q381 -231 366 -231Q362 -231 359 -231Q341 -231 328 -237Q316 -242 309 -251Q298 -264 298 -282Q298 -328 317 -356Q334 -381 361 -381Q392 -381 418 -360Q440 -341 453 -313.5Q466 -286 466 -258Q466 -156 408 -104Q368 -69 311 -69Q251 -69 218 -123Q196 -157 187 -212Q180 -256 180 -318Q180 -401 194 -475Q199 -497 202.5 -546Q206 -595 212 -622Q214 -646 238 -702Q249 -729 253 -741Q257 -753 257 -760Q256 -760 254 -760Q240 -760 214 -752Q211 -751 207 -751Q192 -751 178 -751Q110 -751 56 -757H49Q39 -757 31.5 -764.5Q24 -772 24 -782Q24 -792 31.5 -799.5Q39 -807 49 -807H57Q58 -807 60 -807Q112 -801 178 -801Q190 -801 203 -801Q234 -810 254 -810ZM361 -281Q362 -281 363 -281Q364 -284 364 -286Q365 -296 372 -302.5Q379 -309 389 -309Q394 -309 399 -307Q393 -315 386 -321Q374 -331 361 -331Q356 -328 353 -315Q348 -300 348 -283Q354 -281 361 -281ZM327 26Q334 30 347 8Q352 0 352 5Q352 24 344 37Q336 50 324 50Q299 50 280 33.5Q261 17 261 -9Q261 -24 272 -36Q281 -46 298 -53Q303 -55 308 -55Q318 -55 325.5 -47.5Q333 -40 333 -30Q331 -24 350 -3Q309 -33 294.5 -29Q280 -25 289 13Q288 16 287 18H288Q290 17 292 16Q294 15 304 17Q314 19 327 26Z"/>
	<path fill="#800080" d="M261 -803Q261 -803 262 -803L417 -799L492 -803L508 -806Q510 -807 513 -807Q523 -807 530.5 -799.5Q538 -792 538 -782Q538 -773 532.5 -766Q527 -759 518 -758L500 -754Q498 -753 496 -753L418 -749Q418 -749 417 -749Q417 -749 416 -749L260 -753Q250 -753 243 -760.5Q236 -768 236 -778Q236 -788 243.5 -795.5Q251 -803 261 -803ZM204 -810Q226 -810 239 -800Q257 -787 257 -761Q257 -746 251 -726Q249 -721 231 -676Q213 -631 212 -616Q212 -614 211 -612Q205 -587 201.5 -537.5Q198 -488 194 -465Q180 -396 180 -318Q180 -260 186 -220Q194 -175 210 -149Q229 -119 261 -119Q299 -119 324 -142Q366 -179 366 -258Q366 -266 363 -276Q360 -253 343 -240Q331 -231 316 -231Q312 -231 309 -231Q291 -231 278 -237Q266 -242 259 -251Q248 -264 248 -282Q248 -328 267 -356Q284 -381 311 -381Q342 -381 368 -360Q390 -341 403 -313.5Q416 -286 416 -258Q416 -156 358 -104Q318 -69 261 -69Q201 -69 168 -123Q146 -157 137 -212Q130 -256 130 -318Q130 -401 144 -475Q149 -497 152.5 -546Q156 -595 162 -622Q164 -646 188 -702Q199 -729 203 -741Q207 -753 207 -760Q206 -760 204 -760Q190 -760 164 -752Q161 -751 157 -751Q142 -751 128 -751Q60 -751 6 -757H-1Q-11 -757 -18.5 -764.5Q-26 -772 -26 -782Q-26 -792 -18.5 -799.5Q-11 -807 -1 -807H7Q8 -807 10 -807Q62 -801 128 -801Q140 -801 153 -801Q184 -810 204 -810ZM311 -281Q312 -281 313 -281Q314 -284 314 -286Q315 -296 322 -302.5Q329 -309 339 -309Q344 -309 349 -307Q343 -315 336 -321Q324 -331 311 -331Q306 -328 303 -315Q298 -300 298 -283Q304 -281 311 -281ZM277 26Q284 30 297 8Q302 0 302 5Q302 24 294 37Q286 50 274 50Q249 50 230 33.5Q211 17 211 -9Q211 -24 222 -36Q231 -46 248 -53Q253 -55 258 -55Q268 -55 275.5 -47.5Q283 -40 283 -30Q281 -24 300 -3Q259 -33 244.5 -29Q230 -25 239 13Q238 16 237 18H238Q240 17 242 16Q244 15 254 17Q264 19 277 26Z"/>
	<path fill="#daa520" d="M256 -778Q256 -783 261 -783L417 -779L494 -783L512 -787Q512 -787 513 -787Q518 -787 518 -782Q518 -778 514 -777L496 -773Q496 -773 495 -773L417 -769Q417 -769 261 -773Q256 -773 256 -778ZM268 -282Q268 -309 278 -335Q288 -361 311 -361Q346 -361 371 -327.5Q396 -294 396 -258Q396 -187 361.5 -138Q327 -89 261 -89Q150 -89 150 -318Q150 -399 164 -471Q168 -493 171.5 -542.5Q175 -592 182 -619Q184 -640 206 -694Q227 -744 227 -761Q227 -771 222 -775.5Q217 -780 204 -780Q187 -780 158 -771Q158 -771 157 -771Q142 -771 128 -771Q60 -771 7 -777H-1Q-6 -777 -6 -782Q-6 -787 -1 -787H7Q7 -787 8 -787Q61 -781 128 -781Q141 -781 156 -781Q186 -790 204 -790Q237 -790 237 -761Q237 -742 215 -690Q193 -638 192 -618Q192 -617 192 -617Q185 -591 181.5 -541Q178 -491 174 -469Q160 -398 160 -318Q160 -99 261 -99Q322 -99 354 -144.5Q386 -190 386 -258Q386 -291 363.5 -321Q341 -351 311 -351Q294 -351 286 -328Q278 -305 278 -282Q278 -261 311 -261Q312 -261 313.5 -261Q315 -261 316 -261Q323 -261 328 -267.5Q333 -274 334 -284Q334 -289 339 -289Q344 -289 344 -284Q343 -271 335.5 -261Q328 -251 316 -251Q313 -251 311 -251Q268 -251 268 -282ZM238 -60Q240 -60 242 -62Q252 -75 274 -75Q288 -75 297.5 -66.5Q307 -58 307 -46Q307 -34 297.5 -25.5Q288 -17 274 -17Q269 -17 269 -12Q269 -7 274 -7Q292 -7 304.5 -18.5Q317 -30 317 -46Q317 -62 304.5 -73.5Q292 -85 274 -85Q247 -85 234 -68Q233 -67 233 -65Q233 -60 238 -60ZM274 -17Q279 -17 279 -12Q279 -7 274 -7Q256 -7 243.5 -18.5Q231 -30 231 -46Q231 -60 256 -72Q257 -72 258 -72Q263 -72 263 -67Q263 -64 260 -62Q241 -54 241 -46Q241 -34 250.5 -25.5Q260 -17 274 -17Z"/>
</svg>