<svg xmlns="http://www.w3.org/2000/svg" viewBox="0 -1024 1024 1024">
	<path fill="#000088" d="M175 -1146Q175 -1149 174.5 -1155Q174 -1161 174 -1164Q174 -1174 181.5 -1181.5Q189 -1189 199 -1189Q209 -1189 216 -1182.5Q223 -1176 224 -1167Q225 -1157 225 -1146Q225 -1128 216 -1072Q214 -1064 214 -1057Q214 -1024 240.5 -1001Q267 -978 304 -978Q315 -978 326 -980Q356 -987 373 -987Q391 -987 403 -981Q416 -974 423 -962Q428 -952 428 -940Q428 -921 420 -902Q412 -883 405.5 -874.5Q399 -866 386 -851Q374 -838 370 -831Q365 -824 364 -819Q372 -808 382 -797Q388 -792 395 -786Q401 -787 417 -793Q433 -799 444 -801Q447 -801 519 -805Q526 -811 535 -811Q540 -811 549 -809Q571 -803 571 -783Q571 -775 567 -768Q562 -762 556 -759Q552 -758 546 -757Q534 -755 497 -754Q460 -753 450 -751Q445 -751 431 -745Q404 -735 391 -735Q384 -735 377 -738Q372 -740 366 -744Q343 -761 325 -789Q320 -795 318 -801Q314 -809 314 -816Q314 -834 324 -852Q331 -864 348 -884Q377 -917 378 -937Q376 -937 373 -937Q362 -937 336 -932Q320 -928 304 -928Q248 -928 206 -964.5Q164 -1001 164 -1057Q164 -1069 169 -1094Q175 -1130 175 -1146ZM239 -236Q239 -234 239 -230Q239 -226 239 -224Q239 -193 250.5 -166.5Q262 -140 282 -130Q294 -124 308 -124Q312 -124 317 -125Q370 -131 386 -142Q408 -157 409 -213Q377 -197 348 -197Q329 -197 319 -204Q297 -218 297 -256Q297 -289 329 -316Q366 -347 406 -347Q423 -347 435 -333Q447 -319 453 -290Q459 -258 459 -222Q459 -132 415 -101Q389 -83 323 -75Q315 -74 308 -74Q243 -74 209 -137Q189 -176 189 -224Q189 -231 189 -237V-239Q189 -308 198 -344Q208 -387 218 -487Q230 -614 248 -672Q262 -717 283 -751H60Q50 -751 42.5 -758.5Q35 -766 35 -776Q35 -786 42.5 -793.5Q50 -801 60 -801H314Q316 -801 318 -802Q323 -805 328 -805Q329 -805 330 -805H331Q332 -805 334.5 -805Q337 -805 340 -805Q350 -805 357.5 -797.5Q365 -790 365 -780Q365 -769 357 -762Q316 -724 296 -658Q280 -606 268.5 -492.5Q257 -379 246 -332Q239 -302 239 -236ZM399 -296Q403 -287 406 -269Q368 -247 348 -247Q347 -252 347 -256Q347 -266 362 -278Q378 -292 399 -296Z"/>
	<path fill="#800080" d="M125 -1146Q125 -1149 124.5 -1155Q124 -1161 124 -1164Q124 -1174 131.5 -1181.5Q139 -1189 149 -1189Q159 -1189 166 -1182.5Q173 -1176 174 -1167Q175 -1157 175 -1146Q175 -1128 166 -1072Q164 -1064 164 -1057Q164 -1024 190.5 -1001Q217 -978 254 -978Q265 -978 276 -980Q306 -987 323 -987Q341 -987 353 -981Q366 -974 373 -962Q378 -952 378 -940Q378 -921 370 -902Q362 -883 355.5 -874.5Q349 -866 336 -851Q324 -838 320 -831Q315 -824 314 -819Q322 -808 332 -797Q338 -792 345 -786Q351 -787 367 -793Q383 -799 394 -801Q397 -801 469 -805Q476 -811 485 -811Q490 -811 499 -809Q521 -803 521 -783Q521 -775 517 -768Q512 -762 506 -759Q502 -758 496 -757Q484 -755 447 -754Q410 -753 400 -751Q395 -751 381 -745Q354 -735 341 -735Q334 -735 327 -738Q322 -740 316 -744Q293 -761 275 -789Q270 -795 268 -801Q264 -809 264 -816Q264 -834 274 -852Q281 -864 298 -884Q327 -917 328 -937Q326 -937 323 -937Q312 -937 286 -932Q270 -928 254 -928Q198 -928 156 -964.5Q114 -1001 114 -1057Q114 -1069 119 -1094Q125 -1130 125 -1146ZM189 -236Q189 -234 189 -230Q189 -226 189 -224Q189 -193 200.5 -166.5Q212 -140 232 -130Q244 -124 258 -124Q262 -124 267 -125Q320 -131 336 -142Q358 -157 359 -213Q327 -197 298 -197Q279 -197 269 -204Q247 -218 247 -256Q247 -289 279 -316Q316 -347 356 -347Q373 -347 385 -333Q397 -319 403 -290Q409 -258 409 -222Q409 -132 365 -101Q339 -83 273 -75Q265 -74 258 -74Q193 -74 159 -137Q139 -176 139 -224Q139 -231 139 -237V-239Q139 -308 148 -344Q158 -387 168 -487Q180 -614 198 -672Q212 -717 233 -751H10Q0 -751 -7.5 -758.5Q-15 -766 -15 -776Q-15 -786 -7.5 -793.5Q0 -801 10 -801H264Q266 -801 268 -802Q273 -805 278 -805Q279 -805 280 -805H281Q282 -805 284.5 -805Q287 -805 290 -805Q300 -805 307.5 -797.5Q315 -790 315 -780Q315 -769 307 -762Q266 -724 246 -658Q230 -606 218.5 -492.5Q207 -379 196 -332Q189 -302 189 -236ZM349 -296Q353 -287 356 -269Q318 -247 298 -247Q297 -252 297 -256Q297 -266 312 -278Q328 -292 349 -296Z"/>
	<path fill="#daa520" d="M254 -958Q266 -958 288.5 -962.5Q311 -967 323 -967Q358 -967 358 -940Q358 -925 351.5 -909.5Q345 -894 339 -886Q333 -878 321 -864Q294 -833 294 -816L295 -813Q299 -805 312 -790Q325 -775 335 -768Q338 -766 341 -765Q350 -766 369 -773Q388 -780 396 -781Q407 -782 441 -783.5Q475 -785 480 -785Q480 -786 480 -786Q480 -791 485 -791Q489 -791 496 -789Q501 -787 501 -783Q501 -780 498 -778Q497 -777 493 -776Q485 -775 448 -774Q408 -772 398 -771Q390 -770 371 -763Q352 -756 341 -755Q336 -755 328 -761Q308 -775 291 -800Q284 -810 284 -816Q284 -837 313 -871Q325 -884 331 -892Q337 -900 342.5 -913.5Q348 -927 348 -940Q348 -957 323 -957Q309 -957 282 -951Q268 -948 254 -948Q206 -948 170 -979Q134 -1010 134 -1057Q134 -1068 138 -1090Q145 -1128 145 -1146Q145 -1155 144 -1163Q144 -1163 144 -1164Q144 -1169 149 -1169Q153 -1169 154 -1165Q155 -1156 155 -1146Q155 -1129 146 -1075Q144 -1066 144 -1057Q144 -1015 176.5 -986.5Q209 -958 254 -958ZM276 -773Q268 -771 266 -771H10Q5 -771 5 -776Q5 -781 10 -781H266Q273 -782 276 -783Q278 -785 280 -785Q280 -785 281 -785Q282 -785 284.5 -785Q287 -785 290 -785Q295 -785 295 -780Q295 -778 293 -776Q267 -752 249.5 -720Q232 -688 221.5 -644Q211 -600 207 -569.5Q203 -539 198 -484Q188 -382 177 -337Q169 -304 169 -236Q169 -234 169 -230Q169 -226 169 -224Q169 -176 192.5 -140Q216 -104 258 -104Q264 -104 269 -105Q328 -112 348 -126Q379 -148 379 -222Q379 -255 373 -284Q367 -317 356 -317Q330 -317 303.5 -297Q277 -277 277 -256Q277 -227 292 -227Q293 -227 295 -227Q297 -227 298 -227Q324 -227 367 -252Q369 -253 370 -253Q375 -253 375 -248Q375 -245 373 -244Q327 -217 298 -217Q294 -217 292 -217Q267 -217 267 -256Q267 -283 297 -305Q327 -327 356 -327Q375 -327 383 -286Q389 -256 389 -222Q389 -143 353 -118Q331 -102 271 -95Q264 -94 258 -94Q211 -94 185 -133.5Q159 -173 159 -224Q159 -230 159 -236Q159 -305 167 -339Q178 -384 188 -485Q193 -539 196.5 -567Q200 -595 209.5 -639Q219 -683 235 -715Q251 -747 276 -773Z"/>
</svg>