<svg xmlns="http://www.w3.org/2000/svg" viewBox="0 -1024 1024 1024">
	<path fill="#000088" d="M641 -803Q651 -803 658.5 -795.5Q666 -788 666 -778Q666 -768 659 -760.5Q652 -753 642 -753L548 -749Q548 -749 547 -749Q546 -749 545 -749L466 -755L264 -761Q254 -761 247 -768.5Q240 -776 240 -786Q240 -796 247.5 -803.5Q255 -811 265 -811Q265 -811 266 -811L468 -805Q468 -805 469 -805L547 -799L640 -803Q640 -803 641 -803ZM24 -784Q24 -794 31.5 -801.5Q39 -809 49 -809Q55 -809 60 -806Q84 -795 156 -780Q197 -771 220 -765Q243 -759 273.5 -745.5Q304 -732 322 -714Q350 -725 375 -725Q413 -725 451 -706.5Q489 -688 514 -656Q542 -621 542 -580Q542 -483 479 -414.5Q416 -346 322 -328Q327 -309 337.5 -267Q348 -225 357.5 -193Q367 -161 377 -143Q391 -117 409 -117Q409 -117 432 -123L446 -130Q451 -133 457 -133Q467 -133 474.5 -125.5Q482 -118 482 -108Q482 -93 468 -86L452 -78Q450 -77 448 -76Q446 -75 443 -74.5Q440 -74 438 -73Q420 -67 409 -67Q362 -67 333 -119Q315 -152 292 -245Q279 -296 271 -323Q269 -323 267 -323Q223 -323 185 -332Q153 -341 138 -356Q126 -369 126 -386Q126 -400 130.5 -418.5Q135 -437 143 -450Q158 -475 183 -475Q233 -475 268 -436Q289 -413 305 -376Q385 -388 438.5 -444Q492 -500 492 -580Q492 -604 475 -626Q458 -647 429.5 -661Q401 -675 375 -675Q365 -675 351 -671Q358 -654 360 -635Q360 -633 360 -632Q360 -622 355 -606Q341 -565 322 -545Q309 -531 293 -531Q286 -531 268 -535Q224 -546 198 -556Q185 -561 179.5 -568Q174 -575 174 -584Q174 -602 190 -608Q204 -612 223 -638Q238 -657 248 -666Q260 -678 275 -688Q242 -711 155.5 -729Q69 -747 38 -762Q24 -768 24 -784ZM251 -374Q247 -380 244 -385Q221 -423 187 -425Q184 -420 182 -415Q178 -403 176 -389Q195 -377 251 -374ZM250 -592Q273 -585 288 -582Q292 -588 296 -595Q306 -614 310 -632Q309 -641 306 -649Q292 -640 282 -630Q276 -624 265 -609.5Q254 -595 250 -592Z"/>
	<path fill="#800080" d="M591 -803Q601 -803 608.5 -795.5Q616 -788 616 -778Q616 -768 609 -760.5Q602 -753 592 -753L498 -749Q498 -749 497 -749Q496 -749 495 -749L416 -755L214 -761Q204 -761 197 -768.5Q190 -776 190 -786Q190 -796 197.5 -803.5Q205 -811 215 -811Q215 -811 216 -811L418 -805Q418 -805 419 -805L497 -799L590 -803Q590 -803 591 -803ZM-26 -784Q-26 -794 -18.5 -801.5Q-11 -809 -1 -809Q5 -809 10 -806Q34 -795 106 -780Q147 -771 170 -765Q193 -759 223.5 -745.5Q254 -732 272 -714Q300 -725 325 -725Q363 -725 401 -706.5Q439 -688 464 -656Q492 -621 492 -580Q492 -483 429 -414.5Q366 -346 272 -328Q277 -309 287.5 -267Q298 -225 307.5 -193Q317 -161 327 -143Q341 -117 359 -117Q359 -117 382 -123L396 -130Q401 -133 407 -133Q417 -133 424.5 -125.5Q432 -118 432 -108Q432 -93 418 -86L402 -78Q400 -77 398 -76Q396 -75 393 -74.5Q390 -74 388 -73Q370 -67 359 -67Q312 -67 283 -119Q265 -152 242 -245Q229 -296 221 -323Q219 -323 217 -323Q173 -323 135 -332Q103 -341 88 -356Q76 -369 76 -386Q76 -400 80.5 -418.5Q85 -437 93 -450Q108 -475 133 -475Q183 -475 218 -436Q239 -413 255 -376Q335 -388 388.5 -444Q442 -500 442 -580Q442 -604 425 -626Q408 -647 379.5 -661Q351 -675 325 -675Q315 -675 301 -671Q308 -654 310 -635Q310 -633 310 -632Q310 -622 305 -606Q291 -565 272 -545Q259 -531 243 -531Q236 -531 218 -535Q174 -546 148 -556Q135 -561 129.5 -568Q124 -575 124 -584Q124 -602 140 -608Q154 -612 173 -638Q188 -657 198 -666Q210 -678 225 -688Q192 -711 105.5 -729Q19 -747 -12 -762Q-26 -768 -26 -784ZM201 -374Q197 -380 194 -385Q171 -423 137 -425Q134 -420 132 -415Q128 -403 126 -389Q145 -377 201 -374ZM200 -592Q223 -585 238 -582Q242 -588 246 -595Q256 -614 260 -632Q259 -641 256 -649Q242 -640 232 -630Q226 -624 215 -609.5Q204 -595 200 -592Z"/>
	<path fill="#daa520" d="M591 -783Q596 -783 596 -778Q596 -773 591 -773L497 -769Q497 -769 417 -775L215 -781Q210 -781 210 -786Q210 -791 215 -791L417 -785L497 -779ZM96 -386Q96 -406 105.5 -430.5Q115 -455 133 -455Q205 -455 242 -354Q334 -363 398 -425.5Q462 -488 462 -580Q462 -626 418 -660.5Q374 -695 325 -695Q302 -695 273 -681Q287 -660 290 -633Q290 -632 290 -632Q290 -620 279 -594.5Q268 -569 257 -559Q250 -551 243 -551Q234 -551 202.5 -560Q171 -569 156 -575Q151 -576 148 -578Q144 -581 144 -584.5Q144 -588 147 -589Q166 -596 189 -625Q203 -643 212 -652Q232 -671 258 -685Q243 -703 214.5 -716.5Q186 -730 163.5 -736Q141 -742 100 -750Q25 -766 -3 -780Q-6 -781 -6 -784Q-6 -789 -1 -789Q0 -789 1 -788Q28 -775 102 -760Q144 -751 166.5 -745.5Q189 -740 220 -725Q251 -710 267 -690Q299 -705 325 -705Q377 -705 424.5 -668Q472 -631 472 -580Q472 -485 406.5 -419.5Q341 -354 246 -344Q255 -316 271 -252Q279 -221 283.5 -203Q288 -185 296.5 -162Q305 -139 313 -127Q321 -115 333 -106Q345 -97 359 -97Q360 -97 389 -105L405 -112Q406 -113 407 -113Q412 -113 412 -108Q412 -105 409 -104L393 -96Q393 -95 392 -95Q389 -94 382.5 -92Q376 -90 370 -88.5Q364 -87 359 -87Q345 -87 333 -92.5Q321 -98 311.5 -112Q302 -126 295.5 -137Q289 -148 281.5 -172.5Q274 -197 271 -208.5Q268 -220 261 -250Q246 -314 235 -344Q226 -343 217 -343Q178 -343 137 -352.5Q96 -362 96 -386ZM217 -353Q224 -353 231 -353Q196 -445 133 -445Q123 -445 115 -426Q106 -406 106 -386Q106 -371 143 -362Q176 -353 217 -353ZM243 -561Q246 -561 250 -566Q256 -572 263 -585Q280 -616 280 -632Q277 -657 264 -677Q238 -663 218 -644Q213 -639 194 -615.5Q175 -592 160 -584Q175 -578 206 -569.5Q237 -561 243 -561Z"/>
</svg>