<svg xmlns="http://www.w3.org/2000/svg" viewBox="0 -1024 1024 1024">
	<path fill="#000088" d="M315 -806Q466 -804 539 -802L551 -805Q554 -806 557 -806Q568 -806 575 -798.5Q582 -791 582 -781Q582 -761 563 -757L547 -753Q545 -752 541 -752Q459 -754 315 -756Q305 -756 297.5 -763.5Q290 -771 290 -781Q290 -791 297.5 -798.5Q305 -806 315 -806ZM49 -750Q38 -750 31 -757.5Q24 -765 24 -777Q24 -791 34 -798Q41 -804 50 -804Q59 -804 65 -800Q70 -800 82 -800Q94 -800 100 -800Q118 -800 145 -802Q172 -804 194 -804Q253 -804 278 -794Q302 -783 302 -761Q302 -756 301 -752Q286 -712 243 -645Q239 -635 229 -616Q198 -557 198 -525Q198 -475 210 -454Q228 -428 229 -427Q234 -422 239 -422Q285 -422 315 -440Q354 -465 354 -519Q354 -520 354 -520Q354 -527 348 -527Q347 -527 345 -526.5Q343 -526 341 -526Q332 -526 325 -532Q322 -535 317 -535Q306 -535 287 -522Q269 -510 256 -495Q247 -484 235 -484Q222 -484 215 -495Q210 -501 210 -509Q210 -518 217 -526Q218 -527 220 -530Q228 -539 240 -556Q262 -588 282 -598Q306 -610 358 -610Q400 -610 428 -595Q500 -555 500 -470Q501 -467 501 -465Q501 -434 474 -395Q389 -269 278 -232Q289 -209 295 -200Q314 -169 329 -146L363 -126L423 -122Q433 -121 439.5 -114Q446 -107 446 -97Q446 -87 439 -79.5Q432 -72 421 -72Q421 -72 420 -72L354 -76Q348 -76 343 -79L299 -105Q294 -108 290 -113Q273 -139 252 -174Q248 -181 244 -188.5Q240 -196 235.5 -205.5Q231 -215 228 -220Q210 -218 191 -218Q175 -218 164 -226Q148 -238 148 -261Q148 -280 164 -294Q172 -302 181 -306Q191 -310 199 -310Q203 -310 207 -309Q234 -301 253 -277Q353 -305 433 -423Q451 -449 451 -465Q451 -466 450.5 -467Q450 -468 450 -469Q450 -496 442 -514Q431 -536 403 -551Q398 -554 392 -556Q404 -540 404 -520Q404 -437 341 -398Q299 -372 239 -372Q229 -372 220.5 -375Q212 -378 206.5 -381Q201 -384 194.5 -391.5Q188 -399 185.5 -402.5Q183 -406 176.5 -415.5Q170 -425 169 -427Q168 -427 168 -428Q150 -458 148 -518Q148 -522 148 -525Q148 -546 154.5 -569Q161 -592 166.5 -604Q172 -616 184 -639Q194 -658 199 -667Q199 -669 200 -670Q233 -722 246 -751Q228 -754 194 -754Q164 -754 148 -752Q129 -750 100 -750Q94 -750 81.5 -750Q69 -750 62 -750Q60 -750 56 -750Q52 -750 49 -750Z"/>
	<path fill="#800080" d="M265 -806Q416 -804 489 -802L501 -805Q504 -806 507 -806Q518 -806 525 -798.5Q532 -791 532 -781Q532 -761 513 -757L497 -753Q495 -752 491 -752Q409 -754 265 -756Q255 -756 247.5 -763.5Q240 -771 240 -781Q240 -791 247.5 -798.5Q255 -806 265 -806ZM-1 -750Q-12 -750 -19 -757.5Q-26 -765 -26 -777Q-26 -791 -16 -798Q-9 -804 0 -804Q9 -804 15 -800Q20 -800 32 -800Q44 -800 50 -800Q68 -800 95 -802Q122 -804 144 -804Q203 -804 228 -794Q252 -783 252 -761Q252 -756 251 -752Q236 -712 193 -645Q189 -635 179 -616Q148 -557 148 -525Q148 -475 160 -454Q178 -428 179 -427Q184 -422 189 -422Q235 -422 265 -440Q304 -465 304 -519Q304 -520 304 -520Q304 -527 298 -527Q297 -527 295 -526.5Q293 -526 291 -526Q282 -526 275 -532Q272 -535 267 -535Q256 -535 237 -522Q219 -510 206 -495Q197 -484 185 -484Q172 -484 165 -495Q160 -501 160 -509Q160 -518 167 -526Q168 -527 170 -530Q178 -539 190 -556Q212 -588 232 -598Q256 -610 308 -610Q350 -610 378 -595Q450 -555 450 -470Q451 -467 451 -465Q451 -434 424 -395Q339 -269 228 -232Q239 -209 245 -200Q264 -169 279 -146L313 -126L373 -122Q383 -121 389.5 -114Q396 -107 396 -97Q396 -87 389 -79.5Q382 -72 371 -72Q371 -72 370 -72L304 -76Q298 -76 293 -79L249 -105Q244 -108 240 -113Q223 -139 202 -174Q198 -181 194 -188.5Q190 -196 185.5 -205.5Q181 -215 178 -220Q160 -218 141 -218Q125 -218 114 -226Q98 -238 98 -261Q98 -280 114 -294Q122 -302 131 -306Q141 -310 149 -310Q153 -310 157 -309Q184 -301 203 -277Q303 -305 383 -423Q401 -449 401 -465Q401 -466 400.5 -467Q400 -468 400 -469Q400 -496 392 -514Q381 -536 353 -551Q348 -554 342 -556Q354 -540 354 -520Q354 -437 291 -398Q249 -372 189 -372Q179 -372 170.5 -375Q162 -378 156.5 -381Q151 -384 144.5 -391.5Q138 -399 135.5 -402.5Q133 -406 126.5 -415.5Q120 -425 119 -427Q118 -427 118 -428Q100 -458 98 -518Q98 -522 98 -525Q98 -546 104.5 -569Q111 -592 116.5 -604Q122 -616 134 -639Q144 -658 149 -667Q149 -669 150 -670Q183 -722 196 -751Q178 -754 144 -754Q114 -754 98 -752Q79 -750 50 -750Q44 -750 31.5 -750Q19 -750 12 -750Q10 -750 6 -750Q2 -750 -1 -750Z"/>
	<path fill="#daa520" d="M266 -786Q415 -784 492 -782L507 -786Q508 -786 508 -786Q513 -786 513 -781Q513 -777 510 -776L494 -772Q493 -772 492 -772Q411 -774 266 -776Q261 -776 261 -781Q261 -786 266 -786ZM1 -784Q6 -784 7 -780Q10 -780 13 -780Q20 -780 32.5 -780Q45 -780 51 -780Q69 -780 96 -782Q123 -784 145 -784Q185 -784 207 -779Q233 -774 233 -761Q233 -760 233 -759Q219 -721 177 -655Q173 -646 162.5 -625.5Q152 -605 146 -592.5Q140 -580 134.5 -561Q129 -542 129 -525Q129 -524 129 -522Q129 -520 129 -519Q131 -467 145 -444Q147 -441 151 -434Q158 -423 162 -417.5Q166 -412 173.5 -407Q181 -402 190 -402Q249 -402 287 -431Q325 -460 325 -519Q325 -520 325 -520Q325 -531 317.5 -539Q310 -547 299 -547Q298 -547 296 -546.5Q294 -546 292 -546Q291 -546 289 -547Q280 -555 268 -555Q249 -555 227 -539Q205 -523 192 -508Q190 -505 189 -505Q188 -504 186 -504Q181 -504 181 -509Q181 -511 183 -512Q184 -514 186 -516Q195 -527 207 -544Q226 -572 242 -580Q262 -590 298 -590Q304 -590 309 -590Q346 -590 369 -577Q402 -559 417 -532Q432 -505 432 -465Q432 -440 409 -406Q318 -272 201 -245Q205 -237 214 -218Q223 -199 229 -190Q249 -156 266 -131L308 -106L373 -102Q377 -102 377 -97Q377 -92 372 -92L306 -96Q305 -96 304 -97L260 -123Q259 -123 258 -124Q241 -150 220 -184Q214 -194 204.5 -214Q195 -234 190 -243Q167 -238 142 -238Q119 -238 119 -261Q119 -273 129.5 -281.5Q140 -290 150 -290Q151 -290 152 -290Q177 -282 195 -254Q311 -279 400 -412Q422 -443 422 -465Q422 -466 421.5 -467Q421 -468 421 -469Q421 -504 407.5 -528Q394 -552 364 -569Q343 -580 309 -580Q307 -580 303.5 -580Q300 -580 298 -580Q265 -580 250 -573Q235 -566 221 -547Q247 -565 268 -565Q283 -565 294 -556Q296 -557 299 -557Q314 -557 324.5 -546Q335 -535 335 -520Q335 -455 294 -423.5Q253 -392 190 -392Q182 -392 175 -394.5Q168 -397 162 -403Q156 -409 152.5 -413Q149 -417 143.5 -426.5Q138 -436 136 -438Q121 -464 119 -519Q119 -522 119 -525Q119 -543 124.5 -563Q130 -583 136 -595.5Q142 -608 153 -629Q164 -650 168 -659Q168 -659 168 -660Q209 -724 223 -762Q221 -766 205 -770Q184 -774 145 -774Q123 -774 96 -772Q69 -770 51 -770Q45 -770 32.5 -770Q20 -770 13 -770Q6 -770 0 -770Q-5 -770 -5 -777Q-5 -784 1 -784ZM129 -261Q129 -253 132 -250.5Q135 -248 142 -248Q164 -248 185 -252Q170 -274 150 -280Q144 -280 136.5 -273.5Q129 -267 129 -261Z"/>
</svg>