<svg xmlns="http://www.w3.org/2000/svg" viewBox="0 -1024 1024 1024">
	<path fill="#000088" d="M804 -663Q804 -663 804 -656Q803 -648 802.5 -631.5Q802 -615 801 -605.5Q800 -596 796.5 -584.5Q793 -573 787 -567L752 -531Q740 -519 711 -519Q677 -519 665 -531L629 -567Q621 -575 617 -595Q610 -623 601 -632Q594 -641 594 -650Q594 -660 601.5 -667.5Q609 -675 620 -675Q630 -675 638 -667L672 -632Q683 -620 689 -591Q701 -589 711 -589Q718 -589 728 -591Q730 -602 731.5 -626.5Q733 -651 733 -656V-663Q733 -698 704 -738Q633 -737 582 -695Q551 -656 529.5 -601.5Q508 -547 496.5 -473.5Q485 -400 480.5 -354Q476 -308 471 -227Q463 -107 456 -74Q450 -49 444 -43L408 -8Q405 -5 403 -5Q399 -5 395 -9L360 -44Q343 -61 319.5 -145.5Q296 -230 274 -346Q252 -462 239 -536Q226 -610 217 -668Q210 -719 187 -759Q165 -757 149 -747Q128 -715 125 -677Q123 -663 113 -654Q103 -645 90 -645Q76 -645 65.5 -655.5Q55 -666 55 -680V-683Q59 -731 95 -767L130 -802Q157 -829 192 -829H196L231 -793Q277 -747 288 -668Q347 -300 394 -134Q395 -145 400 -227Q405 -311 410 -361.5Q415 -412 428 -488.5Q441 -565 466 -621Q491 -677 528 -714L563 -749Q622 -808 711 -808L747 -773Q748 -771 757 -759.5Q766 -748 769 -744.5Q772 -741 779.5 -730.5Q787 -720 789.5 -714Q792 -708 796.5 -698.5Q801 -689 802.5 -680.5Q804 -672 804 -663Z"/>
	<path fill="#800080" d="M75 -658Q65 -658 57.5 -665.5Q50 -673 50 -683Q50 -684 50 -685Q54 -734 89.5 -776.5Q125 -819 176 -819Q190 -819 198 -811Q250 -760 262 -672Q297 -454 329 -301Q352 -188 371 -125Q377 -106 383 -91Q389 -126 395 -229Q408 -430 431 -528Q463 -665 530 -732Q597 -798 696 -798Q708 -798 716 -788Q750 -744 758 -731Q778 -696 778 -663Q778 -659 778 -654Q778 -650 776.5 -624Q775 -598 772 -584Q767 -562 754 -549Q734 -529 696 -529Q651 -529 631 -549Q619 -562 613 -590Q609 -609 603 -615Q596 -622 596 -632Q596 -642 603.5 -649.5Q611 -657 621 -657Q632 -657 639 -649Q655 -633 661 -601Q664 -587 667 -584Q672 -579 696 -579Q713 -579 719 -584Q722 -588 724 -596Q726 -604 727 -628.5Q728 -653 728 -658Q728 -661 728 -663Q728 -682 715 -706Q707 -719 684 -748Q614 -744 566 -696Q509 -639 480 -516Q457 -422 445 -226Q438 -107 429 -69Q426 -53 422 -42Q410 -15 387 -15Q373 -15 362 -27Q352 -36 343 -56.5Q334 -77 323 -111Q304 -176 280 -290Q248 -444 212 -664Q212 -664 212 -665Q204 -727 169 -769Q150 -766 132 -749Q119 -736 110 -716.5Q101 -697 100 -681Q99 -671 92 -664.5Q85 -658 75 -658Z"/>
	<path fill="#daa520" d="M748 -663Q748 -670 746.5 -678Q745 -686 743.5 -691.5Q742 -697 737.5 -705.5Q733 -714 730.5 -718.5Q728 -723 721.5 -732Q715 -741 712.5 -744Q710 -747 702.5 -756.5Q695 -766 694 -768Q645 -768 606 -748Q567 -728 541 -700Q515 -672 494.5 -622.5Q474 -573 463 -533.5Q452 -494 443.5 -429.5Q435 -365 432 -328Q429 -291 425 -227Q418 -110 410 -73Q402 -35 387 -35Q378 -35 369 -49Q360 -63 350 -94Q330 -152 305 -270Q270 -429 232 -667Q228 -700 213 -734Q198 -768 178 -789Q177 -789 176 -789Q137 -789 110 -754Q83 -719 80 -683Q80 -678 75 -678Q70 -678 70 -683Q74 -723 103 -761Q132 -799 176 -799Q182 -799 184 -798Q206 -775 221.5 -739.5Q237 -704 242 -669Q280 -431 314 -272Q340 -155 360 -97Q369 -68 378 -55Q384 -45 387 -45Q394 -45 400 -75Q408 -111 415 -228Q415 -229 415 -231Q419 -296 422 -331.5Q425 -367 434 -433.5Q443 -500 454 -539.5Q465 -579 486.5 -630Q508 -681 535 -709.5Q562 -738 603.5 -758Q645 -778 696 -778Q698 -778 700 -776Q702 -774 712.5 -760.5Q723 -747 726.5 -742.5Q730 -738 738 -725.5Q746 -713 749 -705Q752 -697 755 -685.5Q758 -674 758 -663Q758 -659 758 -656Q757 -648 756.5 -630.5Q756 -613 755 -601Q754 -589 750 -579Q738 -549 696 -549Q664 -549 649 -560Q638 -569 632 -594Q627 -618 617 -629Q616 -630 616 -632Q616 -637 621 -637Q623 -637 625 -635Q636 -623 642 -596Q647 -575 655 -568Q667 -559 696 -559Q731 -559 741 -583Q744 -591 745 -603Q746 -615 746.5 -632Q747 -649 748 -656Q748 -660 748 -663Z"/>
</svg>