<svg xmlns="http://www.w3.org/2000/svg" viewBox="0 -1024 1024 1024">
	<path fill="#000088" d="M100 -713Q100 -723 107 -730Q109 -733 114 -740Q126 -757 136 -765Q141 -770 149 -779Q157 -788 164.5 -794.5Q172 -801 182 -804Q197 -810 224 -810Q246 -810 263 -792Q271 -784 283.5 -765.5Q296 -747 303 -740Q314 -729 326 -729Q330 -729 333 -728Q334 -729 335 -730Q341 -735 345.5 -743.5Q350 -752 355 -765Q360 -778 362 -781Q365 -788 369 -792Q374 -797 380 -799Q383 -800 388 -800Q398 -800 406 -793Q410 -788 412 -781Q414 -775 414 -765Q414 -763 414 -761Q412 -648 373 -432Q360 -359 353 -317.5Q346 -276 339.5 -213Q333 -150 333 -98Q333 -49 346 -35Q352 -29 366 -26Q385 -21 425 -21Q449 -21 463 -27Q476 -32 492 -54Q504 -70 513 -78Q520 -85 528 -92L544 -178Q546 -186 553 -192Q560 -198 569 -198Q579 -198 587 -191Q594 -184 594 -174L597 -42Q602 -24 604.5 -18Q607 -12 610 -9Q611 -8 613 -8Q617 -8 623 -10Q627 -12 631 -12Q694 -16 733 -55Q784 -105 799 -218Q806 -270 806 -337Q806 -376 799 -509Q793 -509 788 -509Q779 -509 774 -508Q760 -506 744 -506Q677 -506 632 -551Q594 -588 592 -643Q592 -643 592 -644Q592 -680 610 -720Q625 -756 648 -779Q682 -813 725 -813Q746 -813 764 -795Q781 -778 796 -744Q823 -681 841 -571Q842 -571 842 -571L873 -600Q880 -606 890 -606Q900 -606 907.5 -598.5Q915 -591 915 -581Q915 -570 907 -562L874 -532Q872 -531 865 -526Q854 -519 849 -516Q849 -511 849.5 -505Q850 -499 850.5 -491.5Q851 -484 851 -480Q856 -387 856 -337Q856 -267 849 -212Q831 -82 768 -20Q717 32 637 38Q624 42 613 42Q590 42 574 26Q560 12 548 -31Q547 -34 547 -41Q541 -36 531 -22.5Q521 -9 514 -2Q500 11 483 19Q460 29 425 29Q382 29 355.5 23.5Q329 18 311 0Q283 -28 283 -98Q283 -153 290 -218.5Q297 -284 303.5 -325Q310 -366 324 -441Q353 -604 360 -686Q347 -678 333 -678Q328 -678 322 -679Q291 -680 268 -704Q257 -715 242 -737Q232 -753 228 -757Q225 -759 224 -760Q206 -760 199 -758Q196 -756 190 -749Q178 -736 168 -727Q163 -722 155.5 -711Q148 -700 143 -695Q135 -688 125 -688Q115 -688 107.5 -695.5Q100 -703 100 -713ZM745 -556Q755 -556 766 -558Q775 -559 788 -559Q790 -559 792 -559Q775 -666 750 -724Q739 -750 729 -760Q726 -762 725 -763Q683 -763 656 -700Q642 -670 642 -645Q644 -605 673.5 -580.5Q703 -556 745 -556Z"/>
	<path fill="#800080" d="M50 -713Q50 -723 57 -730Q59 -733 64 -740Q76 -757 86 -765Q91 -770 99 -779Q107 -788 114.5 -794.5Q122 -801 132 -804Q147 -810 174 -810Q196 -810 213 -792Q221 -784 233.5 -765.5Q246 -747 253 -740Q264 -729 276 -729Q280 -729 283 -728Q284 -729 285 -730Q291 -735 295.5 -743.5Q300 -752 305 -765Q310 -778 312 -781Q315 -788 319 -792Q324 -797 330 -799Q333 -800 338 -800Q348 -800 356 -793Q360 -788 362 -781Q364 -775 364 -765Q364 -763 364 -761Q362 -648 323 -432Q310 -359 303 -317.5Q296 -276 289.5 -213Q283 -150 283 -98Q283 -49 296 -35Q302 -29 316 -26Q335 -21 375 -21Q399 -21 413 -27Q426 -32 442 -54Q454 -70 463 -78Q470 -85 478 -92L494 -178Q496 -186 503 -192Q510 -198 519 -198Q529 -198 537 -191Q544 -184 544 -174L547 -42Q552 -24 554.5 -18Q557 -12 560 -9Q561 -8 563 -8Q567 -8 573 -10Q577 -12 581 -12Q644 -16 683 -55Q734 -105 749 -218Q756 -270 756 -337Q756 -376 749 -509Q743 -509 738 -509Q729 -509 724 -508Q710 -506 694 -506Q627 -506 582 -551Q544 -588 542 -643Q542 -643 542 -644Q542 -680 560 -720Q575 -756 598 -779Q632 -813 675 -813Q696 -813 714 -795Q731 -778 746 -744Q773 -681 791 -571Q792 -571 792 -571L823 -600Q830 -606 840 -606Q850 -606 857.5 -598.5Q865 -591 865 -581Q865 -570 857 -562L824 -532Q822 -531 815 -526Q804 -519 799 -516Q799 -511 799.5 -505Q800 -499 800.5 -491.5Q801 -484 801 -480Q806 -387 806 -337Q806 -267 799 -212Q781 -82 718 -20Q667 32 587 38Q574 42 563 42Q540 42 524 26Q510 12 498 -31Q497 -34 497 -41Q491 -36 481 -22.5Q471 -9 464 -2Q450 11 433 19Q410 29 375 29Q332 29 305.5 23.5Q279 18 261 0Q233 -28 233 -98Q233 -153 240 -218.5Q247 -284 253.5 -325Q260 -366 274 -441Q303 -604 310 -686Q297 -678 283 -678Q278 -678 272 -679Q241 -680 218 -704Q207 -715 192 -737Q182 -753 178 -757Q175 -759 174 -760Q156 -760 149 -758Q146 -756 140 -749Q128 -736 118 -727Q113 -722 105.5 -711Q98 -700 93 -695Q85 -688 75 -688Q65 -688 57.5 -695.5Q50 -703 50 -713ZM695 -556Q705 -556 716 -558Q725 -559 738 -559Q740 -559 742 -559Q725 -666 700 -724Q689 -750 679 -760Q676 -762 675 -763Q633 -763 606 -700Q592 -670 592 -645Q594 -605 623.5 -580.5Q653 -556 695 -556Z"/>
	<path fill="#daa520" d="M256 -709Q257 -709 259.5 -708.5Q262 -708 263 -708Q274 -708 286 -723Q294 -735 306 -763Q311 -775 313 -777.5Q315 -780 318 -780Q322 -780 323 -774Q324 -771 324 -765Q324 -763 324 -761Q322 -668 302 -548.5Q282 -429 262.5 -311Q243 -193 243 -98Q243 -31 271 -14Q293 -1 355 -1Q380 -1 396.5 -7.5Q413 -14 419.5 -20.5Q426 -27 438 -41Q458 -68 476 -80L494 -174Q495 -178 499 -178Q504 -178 504 -173L507 -39Q512 -21 514.5 -13.5Q517 -6 524.5 3Q532 12 543 12Q550 12 560 8Q561 8 562 8Q609 5 645 -16.5Q681 -38 701.5 -70Q722 -102 735 -148Q748 -194 752 -238.5Q756 -283 756 -337Q756 -374 749 -512Q749 -517 747 -528Q718 -529 718 -529Q708 -529 701 -528Q688 -526 675 -526Q622 -526 583 -558.5Q544 -591 542 -644Q542 -691 573.5 -742Q605 -793 655 -793Q675 -793 692 -765Q710 -738 726 -683Q745 -617 756 -538Q758 -539 784 -555L817 -585Q818 -586 820 -586Q825 -586 825 -581Q825 -579 823 -577L790 -547Q790 -547 784 -543Q767 -532 762 -529Q759 -528 757 -528Q759 -519 761 -479Q766 -387 766 -337Q766 -283 762 -238Q758 -193 744.5 -145.5Q731 -98 709.5 -64.5Q688 -31 650.5 -8Q613 15 563 18Q552 22 543 22Q538 22 533.5 21Q529 20 525 17Q521 14 518.5 12Q516 10 513 5Q510 0 508.5 -2Q507 -4 505 -10.5Q503 -17 502 -19Q501 -21 499 -28.5Q497 -36 497 -37Q497 -37 497 -38L495 -125L486 -76Q486 -74 484 -73Q466 -61 446 -35Q434 -20 426 -12.5Q418 -5 399.5 2Q381 9 355 9Q290 9 266 -6Q247 -17 240 -38.5Q233 -60 233 -98Q233 -193 252 -310.5Q271 -428 291.5 -546.5Q312 -665 314 -757Q303 -730 294 -717Q279 -698 263 -698Q259 -698 255 -699Q239 -699 225.5 -708Q212 -717 205.5 -725Q199 -733 189 -748Q168 -780 154 -780Q130 -780 122 -776.5Q114 -773 104 -762Q94 -750 85 -742Q79 -737 70.5 -725.5Q62 -714 59 -710Q57 -708 55 -708Q50 -708 50 -713Q50 -715 51 -716Q55 -720 63.5 -732Q72 -744 79 -750Q87 -757 97 -768Q107 -780 118 -785Q129 -790 154 -790Q163 -790 172 -783.5Q181 -777 185 -771.5Q189 -766 198 -754Q207 -739 213 -731.5Q219 -724 231 -716.5Q243 -709 256 -709ZM718 -539Q721 -539 746 -538Q735 -617 716 -681Q701 -734 684 -760Q669 -783 655 -783Q612 -783 582 -735.5Q552 -688 552 -644Q554 -596 590 -566Q626 -536 675 -536Q682 -536 696 -537.5Q710 -539 718 -539Z"/>
</svg>