<svg xmlns="http://www.w3.org/2000/svg" viewBox="0 -1024 1024 1024">
	<path fill="#000088" d="M399 -221Q399 -204 401 -166Q403 -128 403 -109Q403 -81 400 -60Q393 -6 367 21Q340 47 296 47Q282 47 267 45Q257 47 249 47Q224 47 207 30Q181 4 181 -73Q181 -75 181 -77Q181 -107 190 -137Q199 -167 207 -184Q215 -201 232 -231Q248 -259 256 -274Q257 -278 260 -280L307 -329Q274 -387 228 -408Q214 -415 214 -431Q214 -444 220 -460Q226 -475 238 -494Q254 -520 295.5 -572Q337 -624 351 -645Q369 -671 374 -687Q384 -720 399 -758Q336 -733 326 -731Q308 -726 296 -726Q290 -726 284 -727Q258 -727 214.5 -737.5Q171 -748 155 -750Q160 -725 162 -713Q162 -712 162 -710Q162 -700 154.5 -692.5Q147 -685 137 -685Q128 -685 120.5 -691.5Q113 -698 112 -707Q111 -718 106.5 -740Q102 -762 100 -772Q100 -774 100 -776Q100 -786 107.5 -793.5Q115 -801 125 -801Q127 -801 130 -801Q131 -801 134.5 -801Q138 -801 140 -801Q168 -801 219 -788Q265 -777 287 -777Q288 -777 290.5 -776.5Q293 -776 295 -776Q303 -776 313 -779Q326 -783 359 -796.5Q392 -810 407 -813Q417 -816 424 -816Q441 -816 450 -806Q460 -796 460 -782Q460 -773 456 -761Q452 -751 445 -738Q431 -703 422 -673Q415 -649 393 -617Q378 -596 336.5 -544Q295 -492 280 -468Q271 -454 267 -444Q311 -418 343 -367L395 -421Q395 -422 396 -422L438 -461Q445 -468 455 -468Q465 -468 472.5 -460.5Q480 -453 480 -443Q480 -432 472 -425L431 -386L368 -320Q386 -280 398 -227Q399 -224 399 -221ZM271 -5Q286 -2 297 -2Q319 -2 331 -14Q346 -29 351 -66Q353 -84 353 -109Q353 -127 351 -164Q349 -201 349 -218Q341 -252 330 -281L299 -248Q291 -234 276 -207Q260 -178 252 -162.5Q244 -147 237.5 -123.5Q231 -100 231 -76Q231 -17 242 -6Q245 -3 249 -3Q250 -3 256.5 -4.5Q263 -6 266 -6Q269 -6 271 -5Z"/>
	<path fill="#800080" d="M349 -221Q349 -204 351 -166Q353 -128 353 -109Q353 -81 350 -60Q343 -6 317 21Q290 47 246 47Q232 47 217 45Q207 47 199 47Q174 47 157 30Q131 4 131 -73Q131 -75 131 -77Q131 -107 140 -137Q149 -167 157 -184Q165 -201 182 -231Q198 -259 206 -274Q207 -278 210 -280L257 -329Q224 -387 178 -408Q164 -415 164 -431Q164 -444 170 -460Q176 -475 188 -494Q204 -520 245.5 -572Q287 -624 301 -645Q319 -671 324 -687Q334 -720 349 -758Q286 -733 276 -731Q258 -726 246 -726Q240 -726 234 -727Q208 -727 164.5 -737.5Q121 -748 105 -750Q110 -725 112 -713Q112 -712 112 -710Q112 -700 104.5 -692.5Q97 -685 87 -685Q78 -685 70.5 -691.5Q63 -698 62 -707Q61 -718 56.5 -740Q52 -762 50 -772Q50 -774 50 -776Q50 -786 57.5 -793.5Q65 -801 75 -801Q77 -801 80 -801Q81 -801 84.5 -801Q88 -801 90 -801Q118 -801 169 -788Q215 -777 237 -777Q238 -777 240.5 -776.5Q243 -776 245 -776Q253 -776 263 -779Q276 -783 309 -796.5Q342 -810 357 -813Q367 -816 374 -816Q391 -816 400 -806Q410 -796 410 -782Q410 -773 406 -761Q402 -751 395 -738Q381 -703 372 -673Q365 -649 343 -617Q328 -596 286.5 -544Q245 -492 230 -468Q221 -454 217 -444Q261 -418 293 -367L345 -421Q345 -422 346 -422L388 -461Q395 -468 405 -468Q415 -468 422.5 -460.5Q430 -453 430 -443Q430 -432 422 -425L381 -386L318 -320Q336 -280 348 -227Q349 -224 349 -221ZM221 -5Q236 -2 247 -2Q269 -2 281 -14Q296 -29 301 -66Q303 -84 303 -109Q303 -127 301 -164Q299 -201 299 -218Q291 -252 280 -281L249 -248Q241 -234 226 -207Q210 -178 202 -162.5Q194 -147 187.5 -123.5Q181 -100 181 -76Q181 -17 192 -6Q195 -3 199 -3Q200 -3 206.5 -4.5Q213 -6 216 -6Q219 -6 221 -5Z"/>
	<path fill="#daa520" d="M309 -221Q309 -203 311 -165Q313 -127 313 -109Q313 -80 310 -58.5Q307 -37 298 -16Q289 5 271 16.5Q253 28 227 28Q213 28 196 24Q187 27 179 27Q162 27 151.5 17.5Q141 8 137 -10.5Q133 -29 132 -41.5Q131 -54 131 -74V-75Q131 -102 139 -130.5Q147 -159 155.5 -176.5Q164 -194 180.5 -223.5Q197 -253 204 -265Q204 -266 204 -266L261 -326Q224 -400 167 -426Q164 -428 164 -431Q164 -447 178 -472Q192 -497 204 -512.5Q216 -528 244 -563Q313 -649 323 -681.5Q333 -714 347 -751Q347 -751 348 -751Q360 -773 360 -782Q360 -786 355 -786Q344 -786 303 -769Q247 -746 226 -746Q221 -746 216 -747Q192 -747 143 -759Q94 -771 70 -771Q69 -771 65.5 -771Q62 -771 61 -771Q62 -763 66 -742.5Q70 -722 72 -711Q72 -710 72 -710Q72 -705 67 -705Q63 -705 62 -709Q61 -721 56.5 -742.5Q52 -764 50 -775Q50 -775 50 -776Q50 -781 55 -781Q56 -781 57 -781Q58 -781 58 -781Q60 -781 64 -781Q68 -781 70 -781Q95 -781 144 -769Q193 -757 217 -757Q218 -757 221 -756.5Q224 -756 226 -756Q245 -756 299 -778Q342 -796 355 -796Q370 -796 370 -782Q370 -770 357 -747Q343 -710 333 -679Q328 -662 313.5 -639.5Q299 -617 287.5 -602Q276 -587 252 -557Q177 -464 174 -434Q231 -406 269 -334L339 -407L340 -408L382 -447Q383 -448 385 -448Q390 -448 390 -443Q390 -441 388 -439L347 -400L274 -324Q295 -280 309 -222Q309 -222 309 -221ZM303 -109Q303 -127 301 -165Q299 -203 299 -220Q286 -275 266 -316L212 -260Q204 -245 189 -217Q172 -187 164 -170.5Q156 -154 148.5 -128Q141 -102 141 -75Q141 -56 142 -43Q143 -30 146.5 -14.5Q150 1 158 9Q166 17 179 17Q186 17 195 14Q195 14 196 14Q197 14 197 14Q213 18 227 18Q271 18 287 -15.5Q303 -49 303 -109Z"/>
</svg>