<svg xmlns="http://www.w3.org/2000/svg" viewBox="0 -1024 1024 1024">
	<path fill="#000088" d="M105 -811Q130 -811 179 -799Q228 -787 252 -787Q255 -786 261 -786Q282 -786 336 -809Q378 -826 390 -826Q396 -826 398 -824L434 -788Q436 -786 436 -782Q436 -772 423 -749Q407 -707 399 -680Q389 -645 319 -560Q248 -471 241 -443Q243 -441 247.5 -437Q252 -433 254 -431L289 -396Q297 -388 311 -370Q370 -432 378 -439L420 -478Q429 -485 438 -485Q448 -485 456 -477.5Q464 -470 464 -459Q464 -448 456 -440Q449 -433 426 -413Q403 -393 392 -381L338 -325Q362 -278 375 -221Q375 -204 377 -166Q379 -128 379 -109Q379 -26 350 3L314 39Q295 58 262 58Q253 58 231 54Q222 57 214 57Q199 57 190 48L155 12Q136 -7 136 -75Q136 -102 143.5 -129Q151 -156 159 -173Q167 -190 184 -219Q200 -247 208 -263L267 -325Q253 -353 235 -377Q215 -391 204 -396L169 -431Q169 -445 182.5 -469Q196 -493 208.5 -509.5Q221 -526 248 -560Q318 -645 328 -680Q337 -708 350 -744Q281 -716 261 -716Q255 -716 252 -717Q228 -717 184 -727Q140 -737 133 -738Q137 -717 138 -710V-705Q138 -691 127.5 -680.5Q117 -670 103 -670Q90 -670 80 -679Q70 -688 68 -701Q66 -716 61 -742Q56 -768 55 -776L90 -811H94ZM304 -221Q298 -248 289 -274L279 -263Q271 -247 255 -219Q238 -190 230 -173Q222 -156 214.5 -129Q207 -102 207 -75Q207 -33 212 -14H214Q225 -14 231 -16Q248 -13 262 -13Q283 -13 294 -18Q308 -49 308 -109Q308 -128 306 -166Q304 -204 304 -221Z"/>
	<path fill="#800080" d="M349 -221Q349 -204 351 -166Q353 -128 353 -109Q353 -81 350 -60Q343 -6 317 21Q290 47 246 47Q232 47 217 45Q207 47 199 47Q174 47 157 30Q131 4 131 -73Q131 -75 131 -77Q131 -107 140 -137Q149 -167 157 -184Q165 -201 182 -231Q198 -259 206 -274Q207 -278 210 -280L257 -329Q224 -387 178 -408Q164 -415 164 -431Q164 -444 170 -460Q176 -475 188 -494Q204 -520 245.5 -572Q287 -624 301 -645Q319 -671 324 -687Q334 -720 349 -758Q286 -733 276 -731Q258 -726 246 -726Q240 -726 234 -727Q208 -727 164.5 -737.5Q121 -748 105 -750Q110 -725 112 -713Q112 -712 112 -710Q112 -700 104.5 -692.5Q97 -685 87 -685Q78 -685 70.5 -691.5Q63 -698 62 -707Q61 -718 56.5 -740Q52 -762 50 -772Q50 -774 50 -776Q50 -786 57.5 -793.5Q65 -801 75 -801Q77 -801 80 -801Q81 -801 84.5 -801Q88 -801 90 -801Q118 -801 169 -788Q215 -777 237 -777Q238 -777 240.5 -776.5Q243 -776 245 -776Q253 -776 263 -779Q276 -783 309 -796.5Q342 -810 357 -813Q367 -816 374 -816Q391 -816 400 -806Q410 -796 410 -782Q410 -773 406 -761Q402 -751 395 -738Q381 -703 372 -673Q365 -649 343 -617Q328 -596 286.5 -544Q245 -492 230 -468Q221 -454 217 -444Q261 -418 293 -367L345 -421Q345 -422 346 -422L388 -461Q395 -468 405 -468Q415 -468 422.5 -460.5Q430 -453 430 -443Q430 -432 422 -425L381 -386L318 -320Q336 -280 348 -227Q349 -224 349 -221ZM221 -5Q236 -2 247 -2Q269 -2 281 -14Q296 -29 301 -66Q303 -84 303 -109Q303 -127 301 -164Q299 -201 299 -218Q291 -252 280 -281L249 -248Q241 -234 226 -207Q210 -178 202 -162.5Q194 -147 187.5 -123.5Q181 -100 181 -76Q181 -17 192 -6Q195 -3 199 -3Q200 -3 206.5 -4.5Q213 -6 216 -6Q219 -6 221 -5Z"/>
	<path fill="#daa520" d="M329 -221Q329 -203 331 -165Q333 -127 333 -109Q333 -80 330 -58.5Q327 -37 318 -16Q309 5 291 16.5Q273 28 247 28Q233 28 216 24Q207 27 199 27Q182 27 171.5 17.5Q161 8 157 -10.5Q153 -29 152 -41.5Q151 -54 151 -74V-75Q151 -102 159 -130.5Q167 -159 175.5 -176.5Q184 -194 200.5 -223.5Q217 -253 224 -265Q224 -266 224 -266L281 -326Q244 -400 187 -426Q184 -428 184 -431Q184 -447 198 -472Q212 -497 224 -512.5Q236 -528 264 -563Q333 -649 343 -681.5Q353 -714 367 -751Q367 -751 368 -751Q380 -773 380 -782Q380 -786 375 -786Q364 -786 323 -769Q267 -746 246 -746Q241 -746 236 -747Q212 -747 163 -759Q114 -771 90 -771Q89 -771 85.5 -771Q82 -771 81 -771Q82 -763 86 -742.5Q90 -722 92 -711Q92 -710 92 -710Q92 -705 87 -705Q83 -705 82 -709Q81 -721 76.5 -742.5Q72 -764 70 -775Q70 -775 70 -776Q70 -781 75 -781Q76 -781 77 -781Q78 -781 78 -781Q80 -781 84 -781Q88 -781 90 -781Q115 -781 164 -769Q213 -757 237 -757Q238 -757 241 -756.5Q244 -756 246 -756Q265 -756 319 -778Q362 -796 375 -796Q390 -796 390 -782Q390 -770 377 -747Q363 -710 353 -679Q348 -662 333.5 -639.5Q319 -617 307.5 -602Q296 -587 272 -557Q197 -464 194 -434Q251 -406 289 -334L359 -407L360 -408L402 -447Q403 -448 405 -448Q410 -448 410 -443Q410 -441 408 -439L367 -400L294 -324Q315 -280 329 -222Q329 -222 329 -221ZM323 -109Q323 -127 321 -165Q319 -203 319 -220Q306 -275 286 -316L232 -260Q224 -245 209 -217Q192 -187 184 -170.5Q176 -154 168.5 -128Q161 -102 161 -75Q161 -56 162 -43Q163 -30 166.5 -14.5Q170 1 178 9Q186 17 199 17Q206 17 215 14Q215 14 216 14Q217 14 217 14Q233 18 247 18Q291 18 307 -15.5Q323 -49 323 -109Z"/>
</svg>