<svg xmlns="http://www.w3.org/2000/svg" viewBox="0 -1024 1024 1024">
	<path fill="#000088" d="M117 -340Q132 -389 155 -412Q174 -431 197 -431Q220 -431 239 -412Q262 -389 277 -340Q294 -281 294 -205Q294 -129 277 -70Q262 -21 239 2Q220 21 197 21Q174 21 155 2Q132 -21 117 -70Q100 -129 100 -205Q100 -281 117 -340ZM165 -85Q176 -48 190 -33Q195 -29 197 -29Q199 -29 204 -33Q218 -48 229 -85Q244 -137 244 -205Q244 -273 229 -325Q218 -362 204 -377Q199 -381 197 -381Q195 -381 190 -377Q176 -362 165 -325Q150 -273 150 -205Q150 -137 165 -85Z"/>
	<path fill="#800080" d="M67 -340Q82 -389 105 -412Q124 -431 147 -431Q170 -431 189 -412Q212 -389 227 -340Q244 -281 244 -205Q244 -129 227 -70Q212 -21 189 2Q170 21 147 21Q124 21 105 2Q82 -21 67 -70Q50 -129 50 -205Q50 -281 67 -340ZM115 -85Q126 -48 140 -33Q145 -29 147 -29Q149 -29 154 -33Q168 -48 179 -85Q194 -137 194 -205Q194 -273 179 -325Q168 -362 154 -377Q149 -381 147 -381Q145 -381 140 -377Q126 -362 115 -325Q100 -273 100 -205Q100 -137 115 -85Z"/>
	<path fill="#daa520" d="M86 -381Q105 -411 127 -411Q149 -411 168 -381Q204 -322 204 -205Q204 -88 168 -29Q149 1 127 1Q105 1 86 -29Q50 -88 50 -205Q50 -322 86 -381ZM85 -53Q104 -9 127 -9Q150 -9 169 -53Q194 -112 194 -205Q194 -298 169 -357Q150 -401 127 -401Q104 -401 85 -357Q60 -298 60 -205Q60 -112 85 -53Z"/>
</svg>