<svg xmlns="http://www.w3.org/2000/svg" viewBox="0 -1024 1024 1024">
	<path fill="#111111" d="M55 247V157H122V-773H55V-863H157Q179 -863 194 -854.5Q209 -846 209 -833V187Q209 212 198.5 229.5Q188 247 174 247Z"/>
	<path fill="#800080" d="M201 -853Q216 -853 226 -842.5Q236 -832 236 -818V202Q236 217 226 227Q216 237 201 237H99Q84 237 74 227Q64 217 64 202Q64 187 74 177Q84 167 99 167H166V-783H99Q84 -783 74 -793Q64 -803 64 -818Q64 -833 74 -843Q84 -853 99 -853Z"/>
	<path fill="#daa520" d="M55 207Q50 207 50 202Q50 197 55 197H152V-813H55Q50 -813 50 -818Q50 -823 55 -823H157Q162 -823 162 -818V202Q162 207 157 207Z"/>
</svg>