<svg xmlns="http://www.w3.org/2000/svg" viewBox="0 -1024 1024 1024">
	<path fill="#111111" d="M444 -682Q444 -668 433.5 -657.5Q423 -647 409 -647Q396 -647 386 -656Q376 -665 374 -678Q370 -708 365 -719Q353 -724 341 -731Q317 -745 304 -745Q259 -745 228 -724Q210 -699 185 -624Q162 -550 140 -522L126 -388L130 -246L138 -190Q147 -153 154 -140Q156 -137 167 -110Q181 -73 192 -55Q198 -53 200 -53H214Q260 -33 310 -33Q349 -33 374 -52L389 -92L391 -154Q392 -168 402 -178Q412 -188 426 -188Q441 -188 451.5 -178Q462 -168 462 -153V-152L460 -92L442 -44L406 -9Q405 -8 402.5 -5.5Q400 -3 398.5 -1Q397 1 395 2Q374 21 356.5 29Q339 37 310 37Q260 37 214 17H200Q187 17 174 4L138 -31Q121 -48 96 -110Q85 -137 83 -140Q72 -159 67 -190L59 -246L55 -388L69 -522Q91 -550 114 -624Q144 -714 174 -744L209 -780Q244 -815 304 -815Q317 -815 341 -801Q360 -791 366 -789Q377 -786 385 -778L420 -743Q440 -723 444 -686Z"/>
	<path fill="#800080" d="M418 -686Q418 -676 410.5 -668.5Q403 -661 393 -661Q384 -661 376.5 -667.5Q369 -674 368 -683Q365 -712 352 -725Q348 -729 344 -730Q333 -733 317.5 -742Q302 -751 296 -753Q291 -755 289 -755Q240 -755 212 -727Q186 -701 158 -616Q134 -542 113 -513L100 -387L104 -248L112 -195Q119 -164 125 -152Q130 -144 139 -119Q161 -63 176 -49Q182 -43 185 -43H199Q204 -43 209 -41Q251 -23 295 -23Q318 -23 331 -29Q342 -34 363 -53Q367 -57 370 -59L384 -97L386 -153Q386 -163 393 -170Q401 -177 411 -177Q421 -177 428.5 -169.5Q436 -162 436 -152Q436 -152 436 -151L434 -91Q434 -87 432 -83L414 -35Q412 -29 407 -25Q403 -22 394.5 -14.5Q386 -7 381.5 -3Q377 1 369 6.5Q361 12 353 16Q329 27 295 27Q243 27 194 7H185Q161 7 141 -13Q119 -35 93 -101Q84 -122 81 -128Q71 -146 63 -184Q62 -185 62 -186L54 -242Q54 -244 54 -245L50 -387Q50 -388 50 -388Q50 -389 50 -391L64 -525Q65 -532 69 -537Q88 -561 111 -632Q121 -665 126.5 -679.5Q132 -694 145.5 -719.5Q159 -745 176 -762Q219 -805 289 -805Q307 -805 338 -788Q353 -780 358 -778Q375 -773 387 -760Q412 -736 418 -689Q418 -688 418 -686Z"/>
	<path fill="#daa520" d="M378 -686Q378 -681 373 -681Q369 -681 368 -685Q361 -740 330 -749Q321 -752 303 -762Q279 -775 269 -775Q240 -775 217 -765.5Q194 -756 180.5 -744.5Q167 -733 154 -709Q141 -685 135 -669Q129 -653 119 -622Q95 -548 74 -520L60 -388L64 -246L72 -191Q80 -156 87 -142Q91 -135 101 -112Q119 -65 132 -47Q148 -23 165 -23H179Q180 -23 181 -23Q227 -3 275 -3Q303 -3 318.5 -10.5Q334 -18 356 -38Q363 -44 367 -47L384 -93L386 -152Q386 -157 391 -157Q396 -157 396 -152L394 -92Q394 -91 394 -90L376 -42Q375 -41 374 -40Q371 -38 361.5 -29.5Q352 -21 348 -18Q344 -15 335 -9Q326 -3 319.5 -0.5Q313 2 302.5 4.5Q292 7 281 7Q278 7 275 7Q226 7 178 -13H165Q143 -13 124 -41Q110 -60 91 -108Q82 -131 79 -138Q70 -153 62 -189L54 -245Q54 -246 54 -246L50 -388V-389L64 -523Q64 -524 65 -525Q85 -552 110 -626Q117 -648 121 -659Q125 -670 133.5 -690Q142 -710 149 -721Q156 -732 168.5 -746Q181 -760 194.5 -767Q208 -774 227.5 -779.5Q247 -785 269 -785Q282 -785 304.5 -773Q327 -761 332 -759Q371 -748 378 -687Q378 -687 378 -686Z"/>
</svg>