<svg xmlns="http://www.w3.org/2000/svg" viewBox="0 -1024 1024 1024">
	<path fill="#111111" d="M147 -122Q147 -167 134.5 -263Q122 -359 122 -403V-408V-658Q114 -636 90 -636Q76 -636 65.5 -646.5Q55 -657 55 -671Q55 -672 55.5 -674.5Q56 -677 56 -678Q62 -711 83 -732L118 -767Q148 -797 205 -797Q286 -797 332 -751L367 -716Q388 -696 398 -667L480 -426L467 -286Q462 -273 444.5 -226.5Q427 -180 412.5 -152Q398 -124 379 -105L344 -70Q313 -39 271 -39Q260 -39 237 -41Q214 -43 208 -43Q202 -19 190 2L155 37Q149 35 138 32.5Q127 30 118.5 27Q110 24 106 20L71 -16Q66 -21 66 -28V-30Q67 -50 79 -62L115 -97Q127 -109 147 -112ZM271 -109Q302 -109 326 -125Q340 -145 352 -172Q364 -199 376 -233.5Q388 -268 396 -286L409 -426L327 -667Q321 -684 312 -697Q267 -727 205 -727Q164 -727 139 -712Q135 -706 134 -703Q144 -711 157 -711Q172 -711 182 -701Q192 -691 192 -676V-408V-403Q192 -359 204.5 -263Q217 -167 217 -122V-113Q223 -113 242 -111Q261 -109 271 -109Z"/>
	<path fill="#800080" d="M191 -103Q248 -99 255 -99Q287 -99 310 -123Q338 -150 373 -244Q385 -277 391 -292L403 -423L322 -659Q310 -696 273.5 -716.5Q237 -737 189 -737Q143 -737 120 -714Q105 -699 99 -673Q98 -665 91 -659Q84 -653 75 -653Q65 -653 57.5 -660.5Q50 -668 50 -678Q50 -681 51 -683Q59 -724 85 -750Q122 -787 189 -787Q280 -787 333 -733Q358 -709 370 -675L452 -435Q453 -431 453 -426Q453 -425 453 -424L440 -283Q440 -279 438 -276Q432 -261 420 -227Q406 -191 400 -175Q394 -159 378.5 -132Q363 -105 346 -87Q307 -49 255 -49Q252 -49 185 -53Q178 -15 161 15Q153 27 139 27Q135 27 131 26Q126 24 113 21Q100 18 93 15Q80 10 73 2Q60 -11 60 -29Q60 -31 60 -32Q63 -62 81 -80Q101 -100 141 -104Q141 -112 141 -122Q141 -166 128.5 -262Q116 -358 116 -403Q116 -405 116 -408V-676Q116 -686 123.5 -693.5Q131 -701 141 -701Q151 -701 158.5 -693.5Q166 -686 166 -676V-408Q166 -405 166 -403Q166 -360 178.5 -264Q191 -168 191 -123Q191 -113 191 -103ZM126 -28Q130 -39 134 -52Q121 -49 116 -44Q112 -40 110 -32Q115 -30 126 -28Z"/>
	<path fill="#daa520" d="M149 -84Q161 -84 190.5 -81.5Q220 -79 235 -79Q257 -79 276 -89Q295 -99 308 -111.5Q321 -124 334 -149Q347 -174 353.5 -190.5Q360 -207 371 -237Q384 -271 391 -287L403 -426L321 -665Q306 -710 264 -733.5Q222 -757 169 -757Q76 -757 60 -677Q59 -673 55 -673Q50 -673 50 -678Q50 -679 50 -679Q59 -721 89 -744Q119 -767 169 -767Q225 -767 269.5 -742Q314 -717 331 -669L413 -428Q413 -427 413 -426L401 -285Q400 -284 400 -284Q394 -268 381 -234Q372 -211 368 -200.5Q364 -190 355 -169Q346 -148 339 -137Q332 -126 320 -111Q308 -96 296.5 -88Q285 -80 269 -74.5Q253 -69 235 -69Q220 -69 190 -71.5Q160 -74 148 -74Q142 -28 123 4Q122 7 119 7Q118 7 117 7Q113 5 100.5 2Q88 -1 80.5 -3.5Q73 -6 66.5 -12.5Q60 -19 60 -28Q60 -30 60 -30Q65 -84 139 -84Q141 -102 141 -122Q141 -167 128.5 -262.5Q116 -358 116 -403Q116 -405 116 -408V-676Q116 -681 121 -681Q126 -681 126 -676V-408Q126 -405 126 -403Q126 -359 138.5 -263Q151 -167 151 -122Q151 -102 149 -84ZM70 -28Q70 -20 78 -16Q86 -12 104 -7Q113 -5 117 -4Q133 -34 138 -74Q107 -74 89.5 -64.5Q72 -55 70 -30Q70 -29 70 -28Z"/>
</svg>