<svg xmlns="http://www.w3.org/2000/svg" viewBox="0 -1024 1024 1024">
	<path fill="#111111" d="M96 -768L132 -803Q140 -811 148 -811Q157 -811 165 -803L200 -768Q218 -750 230 -698.5Q242 -647 242 -582Q242 -517 230 -465.5Q218 -414 200 -396L165 -361Q157 -353 148 -353Q140 -353 132 -361L96 -396Q78 -414 66.5 -465.5Q55 -517 55 -582Q55 -647 66.5 -698.5Q78 -750 96 -768ZM148 -736Q126 -681 126 -582Q126 -483 148 -428Q171 -486 171 -582Q171 -678 148 -736ZM96 -380L132 -415Q140 -423 148 -423Q157 -423 165 -415L200 -380Q218 -362 230 -310.5Q242 -259 242 -194Q242 -129 230 -77.5Q218 -26 200 -8L165 27Q157 35 148 35Q140 35 132 27L96 -8Q78 -26 66.5 -77.5Q55 -129 55 -194Q55 -259 66.5 -310.5Q78 -362 96 -380ZM148 -348Q126 -293 126 -194Q126 -95 148 -40Q171 -98 171 -194Q171 -290 148 -348Z"/>
	<path fill="#800080" d="M113 -73Q122 -40 133 -27Q144 -40 153 -73Q166 -125 166 -194Q166 -263 153 -315Q144 -348 133 -361Q122 -348 113 -315Q100 -263 100 -194Q100 -125 113 -73ZM113 -461Q122 -428 133 -415Q144 -428 153 -461Q166 -513 166 -582Q166 -651 153 -703Q144 -736 133 -749Q122 -736 113 -703Q100 -651 100 -582Q100 -513 113 -461ZM65 -328Q76 -368 90 -388Q76 -408 65 -448Q50 -506 50 -582Q50 -658 65 -716Q78 -765 99 -786Q114 -801 133 -801Q152 -801 167 -786Q188 -765 201 -716Q216 -658 216 -582Q216 -506 201 -448Q190 -408 175 -388Q190 -368 201 -328Q216 -270 216 -194Q216 -118 201 -60Q188 -11 167 10Q152 25 133 25Q114 25 99 10Q78 -11 65 -60Q50 -118 50 -194Q50 -270 65 -328Z"/>
	<path fill="#daa520" d="M71 -432Q88 -383 113 -383Q138 -383 155 -432Q176 -491 176 -582Q176 -673 155 -732Q138 -781 113 -781Q88 -781 71 -732Q50 -673 50 -582Q50 -491 71 -432ZM80 -729Q95 -771 113 -771Q131 -771 146 -729Q166 -671 166 -582Q166 -493 146 -435Q131 -393 113 -393Q95 -393 80 -435Q60 -493 60 -582Q60 -671 80 -729ZM71 -344Q88 -393 113 -393Q138 -393 155 -344Q176 -285 176 -194Q176 -103 155 -44Q138 5 113 5Q88 5 71 -44Q50 -103 50 -194Q50 -285 71 -344ZM80 -47Q95 -5 113 -5Q131 -5 146 -47Q166 -105 166 -194Q166 -283 146 -341Q131 -383 113 -383Q95 -383 80 -341Q60 -283 60 -194Q60 -105 80 -47Z"/>
</svg>