<svg xmlns="http://www.w3.org/2000/svg" viewBox="0 -1024 1024 1024">
	<path fill="#111111" d="M257 -233Q257 -224 273 -201Q299 -162 299 -135Q299 -136 299.5 -136Q300 -136 300 -135Q300 -122 288.5 -83.5Q277 -45 260 -28Q216 20 145 22Q144 22 144 22Q139 22 135 20Q110 10 89 -11Q35 -64 10 -190Q-7 -278 -15 -444Q-16 -471 -17 -482Q-19 -502 -19 -523Q-19 -586 1 -642.5Q21 -699 60 -738Q121 -799 212 -799Q235 -799 259 -795Q270 -794 281 -792Q292 -790 303.5 -784.5Q315 -779 322.5 -775.5Q330 -772 341.5 -763.5Q353 -755 357 -752Q361 -749 373.5 -739Q386 -729 388 -727Q397 -720 397 -708Q397 -698 389.5 -690.5Q382 -683 372 -683Q363 -683 356 -689Q314 -723 297 -732Q274 -744 255 -745Q253 -745 252 -745Q230 -749 211 -749Q141 -749 95 -703Q64 -672 47.5 -624Q31 -576 31 -522Q31 -504 33 -487Q33 -484 35 -446Q42 -284 59 -200Q81 -89 124 -46Q136 -35 149 -28Q196 -32 224 -62Q224 -62 224 -63Q249 -87 249 -135Q249 -147 231 -173Q207 -209 207 -233Q207 -236 206 -242.5Q205 -249 205 -253Q205 -276 222 -293Q245 -316 284 -316Q295 -316 315.5 -317.5Q336 -319 346.5 -319Q357 -319 365 -317Q389 -314 402 -301Q419 -284 419 -254Q419 -221 395 -166Q375 -120 375 -98Q375 -96 383 -88Q386 -85 387 -84L422 -81Q432 -80 438.5 -73Q445 -66 445 -56Q445 -46 437.5 -38.5Q430 -31 420 -31Q419 -31 418 -31L372 -35Q360 -36 353 -46Q352 -48 346 -54Q325 -76 325 -98Q325 -131 349 -186Q369 -232 369 -254L367 -265Q365 -267 359 -268Q354 -268 347 -268Q337 -268 316 -267Q295 -266 284 -266Q266 -266 257 -257Q255 -255 255 -253Q255 -251 256 -244Q257 -237 257 -233Z"/>
	<path fill="#800080" d="M326 -233Q326 -224 342 -201Q368 -162 368 -135Q368 -136 368.5 -136Q369 -136 369 -135Q369 -122 357.5 -83.5Q346 -45 329 -28Q285 20 214 22Q213 22 213 22Q208 22 204 20Q179 10 158 -11Q104 -64 79 -190Q62 -278 54 -444Q53 -471 52 -482Q50 -502 50 -523Q50 -586 70 -642.5Q90 -699 129 -738Q190 -799 281 -799Q304 -799 328 -795Q339 -794 350 -792Q361 -790 372.5 -784.5Q384 -779 391.5 -775.5Q399 -772 410.5 -763.5Q422 -755 426.5 -752Q431 -749 443 -739Q455 -729 457 -727Q466 -720 466 -708Q466 -698 458.5 -690.5Q451 -683 441 -683Q432 -683 425 -689Q383 -723 366 -732Q343 -744 324 -745Q322 -745 321 -745Q299 -749 280 -749Q210 -749 164 -703Q133 -672 116.5 -624Q100 -576 100 -522Q100 -504 102 -487Q102 -484 104 -446Q111 -284 128 -200Q151 -89 193 -46Q205 -35 218 -28Q265 -32 293 -62Q293 -62 293 -63Q318 -87 318 -135Q318 -147 300 -173Q276 -209 276 -233Q276 -236 275 -242.5Q274 -249 274 -253Q274 -276 291 -293Q314 -316 353 -316Q364 -316 384.5 -317.5Q405 -319 415.5 -319Q426 -319 434 -317Q458 -314 471 -301Q488 -284 488 -254Q488 -221 464 -166Q444 -120 444 -98Q444 -96 452 -88Q455 -85 456 -84L491 -81Q501 -80 507.5 -73Q514 -66 514 -56Q514 -46 506.5 -38.5Q499 -31 489 -31Q488 -31 487 -31L441 -35Q429 -36 422 -46Q421 -48 415 -54Q394 -76 394 -98Q394 -131 418 -186Q438 -232 438 -254L436 -265Q434 -267 428 -268Q423 -268 416 -268Q407 -268 385.5 -267Q364 -266 353 -266Q335 -266 326 -257Q324 -255 324 -253Q324 -251 325 -244Q326 -237 326 -233Z"/>
	<path fill="#daa520" d="M284 -253Q284 -250 285 -243.5Q286 -237 286 -233Q286 -218 305 -190Q328 -156 328 -135Q328 -75 295 -42Q256 0 193 2Q192 2 191 2Q120 -27 87 -159Q63 -253 54 -445Q53 -472 52 -484Q50 -503 50 -522Q50 -589 72 -646Q94 -703 143 -741Q192 -779 260 -779Q282 -779 306 -775Q314 -775 323.5 -772.5Q333 -770 340 -768Q347 -766 356.5 -760.5Q366 -755 371 -752.5Q376 -750 386 -742.5Q396 -735 399 -732.5Q402 -730 412.5 -721.5Q423 -713 424 -712Q426 -710 426 -708Q426 -703 421 -703Q419 -703 418 -704Q416 -705 408.5 -711.5Q401 -718 398.5 -720Q396 -722 388 -728Q380 -734 376.5 -736Q373 -738 366 -743Q359 -748 354.5 -750Q350 -752 343 -755.5Q336 -759 330.5 -760.5Q325 -762 318 -763.5Q311 -765 305 -765Q304 -765 304 -765Q281 -769 260 -769Q196 -769 149 -733Q102 -697 81 -642.5Q60 -588 60 -522Q60 -503 62 -485Q62 -482 64 -445Q73 -255 96 -162Q129 -35 194 -8Q252 -10 287 -48V-49Q318 -79 318 -135Q318 -153 297 -184Q276 -215 276 -233Q276 -236 275 -243Q274 -250 274 -253Q274 -274 292.5 -285Q311 -296 333 -296Q344 -296 365 -297.5Q386 -299 396 -299Q418 -299 430 -292Q448 -282 448 -254Q448 -226 426 -175.5Q404 -125 404 -98Q404 -92 407.5 -86.5Q411 -81 417.5 -74Q424 -67 426 -65L469 -61Q474 -61 474 -56Q474 -51 469 -51L423 -55Q420 -55 419 -57Q417 -61 409.5 -68Q402 -75 398 -82Q394 -89 394 -98Q394 -126 416 -176.5Q438 -227 438 -254Q438 -276 425 -284Q416 -289 396 -289Q386 -289 365 -287.5Q344 -286 333 -286Q314 -286 299 -277Q284 -268 284 -253Z"/>
</svg>