<svg xmlns="http://www.w3.org/2000/svg" viewBox="0 -1024 1024 1024">
	<path fill="#111111" d="M277 -144Q277 -196 269.5 -259Q262 -322 255 -360.5Q248 -399 232 -476.5Q216 -554 211 -577H120Q119 -578 117.5 -579Q116 -580 115 -581L80 -617Q55 -642 55 -677Q55 -730 105 -780L140 -816Q178 -854 218 -859L254 -824V-822Q254 -710 300 -488Q348 -262 348 -144Q348 -109 334 -74Q320 -39 299 -18L263 17Q240 40 217 40Q197 40 181 24L146 -12Q133 -25 123 -46L111 -96Q110 -99 110 -104Q110 -118 120 -128Q130 -138 144 -138Q171 -138 178 -112L194 -46L200 -34Q209 -31 217 -31Q231 -31 245 -39Q277 -86 277 -144ZM126 -677Q126 -662 131 -647H199Q186 -724 184 -777Q175 -773 159 -761Q126 -718 126 -677Z"/>
	<path fill="#800080" d="M228 -824Q228 -823 228 -820.5Q228 -818 228 -817Q228 -707 252 -489Q276 -262 276 -144Q276 -103 260.5 -64.5Q245 -26 220 -1Q197 22 172 28Q164 30 156 30Q125 30 102 6Q86 -10 74 -36Q73 -38 73 -40L61 -90Q60 -93 60 -96Q60 -106 67.5 -113.5Q75 -121 85 -121Q94 -121 100.5 -115.5Q107 -110 109 -102L121 -54Q128 -38 137 -29Q146 -20 155 -20Q157 -20 160 -21Q172 -23 184 -36Q202 -54 214 -84Q226 -114 226 -144Q226 -197 222 -259.5Q218 -322 214 -365.5Q210 -409 202 -481.5Q194 -554 191 -587H105Q96 -587 89 -593Q64 -615 55 -644Q50 -659 50 -676Q50 -697 57 -719Q71 -762 107 -798Q152 -843 200 -849Q201 -849 203 -849Q213 -849 220.5 -841.5Q228 -834 228 -824ZM100 -677Q100 -667 103 -659Q106 -647 115 -637H186Q179 -721 178 -790Q159 -779 143 -763Q115 -735 105 -703Q100 -689 100 -677Z"/>
	<path fill="#daa520" d="M188 -817Q188 -704 212 -481.5Q236 -259 236 -144Q236 -88 205 -39Q174 10 135 10Q97 10 72 -44Q72 -44 72 -45L60 -95Q60 -95 60 -96Q60 -101 65 -101Q69 -101 70 -97L82 -48Q104 0 135 0Q168 0 197 -45.5Q226 -91 226 -144Q226 -259 202 -481.5Q178 -704 178 -817Q178 -817 178 -818Q136 -810 98 -765.5Q60 -721 60 -677Q60 -641 87 -617H183Q188 -617 188 -612Q188 -607 183 -607H85Q83 -607 82 -608Q50 -636 50 -677Q50 -727 93 -775Q136 -823 182 -829Q183 -829 183 -829Q188 -829 188 -824Q188 -824 188 -821Q188 -818 188 -817Z"/>
</svg>