<svg xmlns="http://www.w3.org/2000/svg" viewBox="0 -1024 1024 1024">
	<path fill="#111111" d="M632 -748Q632 -705 630.5 -618.5Q629 -532 629 -489Q629 -337 649.5 -227.5Q670 -118 728 -40L766 4Q772 12 772 21Q772 32 764.5 40Q757 48 746 48Q732 48 725 39L657 -40Q599 -118 578.5 -227.5Q558 -337 558 -489Q558 -491 561 -698Q526 -617 495 -516.5Q464 -416 464 -377V-372H393Q316 -520 297 -565V-541Q296 -463 294.5 -420.5Q293 -378 285.5 -309.5Q278 -241 263.5 -195.5Q249 -150 221.5 -97Q194 -44 154 -2L118 33L116 31L80 -4Q60 -24 55 -74V-77Q55 -91 65.5 -101.5Q76 -112 90 -112Q103 -112 113 -103Q123 -94 125 -80Q127 -61 128 -58Q162 -107 182.5 -163Q203 -219 211.5 -290Q220 -361 222.5 -408Q225 -455 226 -541Q228 -725 243 -812H314V-806Q314 -667 411 -473Q436 -565 475 -663Q514 -761 538 -785L574 -820Q580 -826 584 -826Q587 -826 589 -824L624 -789Q632 -781 632 -748Z"/>
	<path fill="#800080" d="M438 -376Q438 -375 438 -374Q438 -373 438 -372Q438 -362 430.5 -354.5Q423 -347 413 -347Q398 -347 391 -360Q386 -369 370.5 -399Q355 -429 348.5 -441.5Q342 -454 328.5 -480.5Q315 -507 307 -525Q299 -543 289.5 -567Q280 -591 272 -613Q272 -588 271 -541Q270 -482 269.5 -455Q269 -428 266 -373Q263 -318 257.5 -286.5Q252 -255 241 -207.5Q230 -160 214.5 -126.5Q199 -93 175.5 -55Q152 -17 121 15Q114 23 103 23Q92 23 83 13Q70 0 61 -25Q52 -49 50 -72Q50 -73 50 -74Q50 -84 57.5 -91.5Q65 -99 75 -99Q85 -99 92 -92.5Q99 -86 100 -76Q101 -61 107 -44Q133 -77 152.5 -113.5Q172 -150 184 -193Q196 -236 203.5 -272Q211 -308 214.5 -361Q218 -414 219 -447.5Q220 -481 221 -542Q223 -727 238 -816Q240 -825 247 -831Q254 -837 263 -837Q273 -837 280.5 -829.5Q288 -822 288 -812Q288 -811 288 -809Q288 -807 288 -806Q288 -720 317.5 -636.5Q347 -553 400 -451Q417 -520 445.5 -602Q474 -684 503 -742Q524 -786 541 -802Q554 -816 569 -816Q582 -816 591 -806Q600 -798 603 -783Q606 -770 606 -748Q606 -705 604.5 -618.5Q603 -532 603 -490Q603 -355 616 -269Q637 -135 696 -56L734 -12Q740 -5 740 4Q740 14 732.5 21.5Q725 29 715 29Q704 29 696 20L658 -24Q658 -24 657 -25Q596 -105 574.5 -216.5Q553 -328 553 -488Q553 -531 554.5 -614Q556 -697 556 -736Q552 -728 548 -720Q522 -668 494.5 -590Q467 -512 451 -449Q438 -398 438 -376Z"/>
	<path fill="#daa520" d="M398 -377Q398 -376 398 -374.5Q398 -373 398 -372Q398 -367 393 -367Q390 -367 389 -370Q385 -376 368.5 -407.5Q352 -439 347 -449Q342 -459 327 -488Q312 -517 306 -531.5Q300 -546 288.5 -573Q277 -600 271.5 -618.5Q266 -637 258.5 -662Q251 -687 247 -710Q243 -733 240 -756Q233 -686 231 -541Q230 -484 229.5 -455.5Q229 -427 226 -374.5Q223 -322 217.5 -290Q212 -258 201.5 -213Q191 -168 176 -135Q161 -102 138.5 -65.5Q116 -29 87 1Q85 3 83 3Q81 3 80 2Q67 -8 59.5 -31Q52 -54 50 -74Q50 -79 55 -79Q60 -79 60 -74Q61 -59 67.5 -39Q74 -19 83 -9Q111 -39 132.5 -74.5Q154 -110 168 -142Q182 -174 192.5 -218Q203 -262 208 -293.5Q213 -325 216 -376Q219 -427 219.5 -456.5Q220 -486 221 -541Q223 -725 238 -813Q239 -817 243 -817Q248 -817 248 -806Q248 -762 257.5 -713.5Q267 -665 277.5 -631Q288 -597 312 -544Q336 -491 347.5 -469Q359 -447 389 -391Q395 -451 437 -574.5Q479 -698 514 -759Q525 -778 533.5 -787Q542 -796 549 -796Q556 -796 560 -789Q566 -778 566 -748Q566 -705 564.5 -618Q563 -531 563 -489Q563 -337 583 -228.5Q603 -120 661 -43L699 1Q700 2 700 4Q700 9 695 9Q693 9 691 7L653 -37Q594 -116 573.5 -226Q553 -336 553 -489Q553 -532 554.5 -618.5Q556 -705 556 -748Q556 -771 552 -781Q551 -786 549 -786Q546 -786 541 -780Q533 -772 523 -754Q501 -715 473 -643Q443 -565 420.5 -486.5Q398 -408 398 -377Z"/>
</svg>