<svg xmlns="http://www.w3.org/2000/svg" viewBox="0 -1024 1024 1024">
	<path fill="#111111" d="M126 -289Q126 -140 186 -65Q189 -63 196 -57.5Q203 -52 207 -49H219Q238 -49 278.5 -43Q319 -37 339 -37Q349 -37 365 -45Q406 -103 434.5 -215.5Q463 -328 463 -376Q457 -466 425 -551Q416 -500 381 -465L345 -429Q341 -425 331 -417Q324 -411 314 -411Q302 -411 294 -419Q286 -427 286 -439Q286 -454 297 -462L326 -484Q358 -529 358 -592Q358 -660 322 -712Q291 -733 254 -733Q210 -733 177 -710Q138 -656 138 -578V-532Q137 -507 131.5 -420.5Q126 -334 126 -289ZM219 21H207Q183 5 167 -11L132 -46Q55 -123 55 -289Q55 -334 60.5 -420.5Q66 -507 67 -532V-578Q67 -673 123 -729L158 -765Q186 -794 227 -801Q240 -804 254 -804Q304 -804 341 -767L360 -748Q365 -752 375 -752Q393 -752 401 -737L420 -706Q523 -536 534 -376Q534 -320 499.5 -195.5Q465 -71 418 -24L383 12Q362 33 339 33Q319 33 278.5 27Q238 21 219 21Z"/>
	<path fill="#800080" d="M323 -27Q335 -27 350 -41Q367 -59 384 -93Q404 -133 421 -190Q437 -243 447.5 -298.5Q458 -354 458 -375Q451 -478 403 -588Q402 -501 348 -447Q340 -439 331 -432Q324 -427 315 -427Q305 -427 297.5 -434.5Q290 -442 290 -452Q290 -464 300 -472Q353 -512 353 -592Q353 -628 341 -660.5Q329 -693 308 -714Q278 -744 239 -744Q228 -744 216 -741Q184 -735 161 -712Q138 -689 125 -653Q112 -617 112 -578V-532Q112 -532 112 -531Q111 -502 105.5 -417.5Q100 -333 100 -289Q100 -262 102 -238Q110 -123 169 -64Q183 -50 199 -39H203Q223 -39 263.5 -33Q304 -27 323 -27ZM62 -532V-578Q62 -684 125 -747Q160 -782 207 -791Q223 -794 238 -794Q299 -794 343 -750Q353 -740 361 -729Q365 -731 369 -731Q384 -731 391 -719Q497 -544 508 -378Q508 -377 508 -376Q508 -348 497.5 -291.5Q487 -235 469 -176Q451 -114 429 -71Q408 -29 385 -6Q356 23 323 23Q300 23 256 16Q219 11 203 11H191Q184 11 178 7Q154 -9 134 -28Q62 -101 52 -235Q50 -260 50 -290Q50 -335 55.5 -419Q61 -503 62 -532Z"/>
	<path fill="#daa520" d="M303 3Q283 3 242.5 -3Q202 -9 183 -9H171Q170 -9 169 -10Q101 -54 75.5 -123.5Q50 -193 50 -289Q50 -334 55.5 -418.5Q61 -503 62 -532V-578Q62 -647 95.5 -703Q129 -759 191 -771Q205 -774 219 -774Q284 -774 323.5 -719Q363 -664 363 -592Q363 -549 347 -510.5Q331 -472 298 -448Q297 -447 295 -447Q290 -447 290 -452Q290 -454 292 -456Q353 -502 353 -592Q353 -661 316 -712.5Q279 -764 219 -764Q206 -764 192 -761Q136 -750 104 -697Q72 -644 72 -578V-532Q71 -502 65.5 -418Q60 -334 60 -289Q60 -195 84.5 -128Q109 -61 173 -19H183Q203 -19 243.5 -13Q284 -7 303 -7Q357 -7 405 -139Q428 -202 443 -274Q458 -346 458 -376Q448 -535 345 -703Q344 -705 344 -706Q344 -711 349 -711Q352 -711 354 -709Q457 -538 468 -376Q468 -345 453 -272.5Q438 -200 415 -136Q364 3 303 3Z"/>
</svg>