<svg xmlns="http://www.w3.org/2000/svg" viewBox="0 -1024 1024 1024">
	<path fill="#111111" d="M161 18Q180 28 180 49Q180 64 169.5 74Q159 84 144 84Q141 84 139 82L103 46Q83 26 69 -121Q55 -268 55 -467Q55 -666 69 -813Q83 -960 103 -980L139 -1016Q141 -1018 144 -1018Q159 -1018 169.5 -1008Q180 -998 180 -983Q180 -962 161 -952Q126 -832 126 -467Q126 -102 161 18Z"/>
	<path fill="#800080" d="M100 -467Q100 -272 113 -126Q124 -16 138 21L140 27Q154 33 154 49Q154 59 146.5 66.5Q139 74 129 74Q116 74 106 64Q99 57 93 45Q88 33 84 15Q74 -23 67 -89Q50 -242 50 -467Q50 -692 67 -845Q74 -911 84 -949Q88 -967 93 -979Q99 -991 106 -998Q116 -1008 129 -1008Q139 -1008 146.5 -1000.5Q154 -993 154 -983Q154 -968 140 -961Q136 -951 132 -937Q124 -902 117 -840Q100 -689 100 -467Z"/>
	<path fill="#daa520" d="M109 54Q97 54 87 25Q77 -7 69 -72Q50 -226 50 -467Q50 -708 69 -862Q77 -927 87 -959Q97 -988 109 -988Q114 -988 114 -983Q114 -978 109 -978Q104 -978 97 -956Q87 -925 79 -861Q60 -707 60 -467Q60 -227 79 -73Q87 -9 97 22Q104 44 109 44Q114 44 114 49Q114 54 109 54Z"/>
</svg>