<svg xmlns="http://www.w3.org/2000/svg" viewBox="0 -1024 1024 1024">
	<path fill="#111111" d="M374 -366L409 -401Q423 -415 441 -415Q459 -415 473 -401L509 -366Q528 -347 528 -317Q528 -287 509 -268L473 -233Q459 -219 441 -219Q423 -219 409 -233L374 -268Q355 -287 355 -317Q355 -347 374 -366ZM430 -291Q438 -289 441 -289Q444 -289 452 -291Q457 -304 457 -317Q457 -330 452 -343Q444 -345 441 -345Q438 -345 430 -343Q426 -332 426 -317Q426 -302 430 -291ZM74 -666L109 -701Q123 -715 141 -715Q159 -715 173 -701L209 -666Q228 -647 228 -617Q228 -587 209 -568L173 -533Q159 -519 141 -519Q123 -519 109 -533L74 -568Q55 -587 55 -617Q55 -647 74 -666ZM130 -591Q138 -589 141 -589Q144 -589 152 -591Q157 -604 157 -617Q157 -630 152 -643Q144 -645 141 -645Q138 -645 130 -643Q126 -632 126 -617Q126 -602 130 -591ZM444 -692Q456 -692 464.5 -684Q473 -676 473 -664Q473 -655 468 -647L114 -149Q105 -136 90 -136Q78 -136 70 -144.5Q62 -153 62 -165Q62 -174 67 -182L421 -680Q430 -692 444 -692Z"/>
	<path fill="#800080" d="M376 -384Q398 -405 426 -405Q454 -405 476 -384Q502 -357 502 -317Q502 -277 476 -250Q454 -229 426 -229Q398 -229 376 -250Q350 -277 350 -317Q350 -357 376 -384ZM412 -286Q418 -279 426 -279Q434 -279 440 -286Q452 -297 452 -317Q452 -337 440 -348Q434 -355 426 -355Q418 -355 412 -348Q400 -337 400 -317Q400 -297 412 -286ZM76 -684Q98 -705 126 -705Q154 -705 176 -684Q202 -657 202 -617Q202 -577 176 -550Q154 -529 126 -529Q98 -529 76 -550Q50 -577 50 -617Q50 -657 76 -684ZM112 -586Q118 -579 126 -579Q134 -579 140 -586Q152 -597 152 -617Q152 -637 140 -648Q134 -655 126 -655Q118 -655 112 -648Q100 -637 100 -617Q100 -597 112 -586ZM417 -672Q427 -672 434.5 -664.5Q442 -657 442 -647Q442 -639 437 -633L107 -168Q100 -157 87 -157Q77 -157 69.5 -164.5Q62 -172 62 -182Q62 -190 67 -196L397 -661Q404 -672 417 -672Z"/>
	<path fill="#daa520" d="M366 -269Q350 -289 350 -317Q350 -345 366 -365Q382 -385 406 -385Q430 -385 446 -365Q462 -345 462 -317Q462 -289 446 -269Q430 -249 406 -249Q382 -249 366 -269ZM373.5 -358Q360 -341 360 -317Q360 -293 373.5 -276Q387 -259 406 -259Q425 -259 438.5 -276Q452 -293 452 -317Q452 -341 438.5 -358Q425 -375 406 -375Q387 -375 373.5 -358ZM66 -569Q50 -589 50 -617Q50 -645 66 -665Q82 -685 106 -685Q130 -685 146 -665Q162 -645 162 -617Q162 -589 146 -569Q130 -549 106 -549Q82 -549 66 -569ZM73.5 -658Q60 -641 60 -617Q60 -593 73.5 -576Q87 -559 106 -559Q125 -559 138.5 -576Q152 -593 152 -617Q152 -641 138.5 -658Q125 -675 106 -675Q87 -675 73.5 -658ZM397 -652Q402 -652 402 -647Q402 -645 401 -644L71 -179Q70 -177 67 -177Q62 -177 62 -182Q62 -184 63 -185L393 -650Q394 -652 397 -652Z"/>
</svg>