<svg xmlns="http://www.w3.org/2000/svg" viewBox="0 -1024 1024 1024">
	<path fill="#111111" d="M216 -355V-197H129V-385Q129 -410 139.5 -427.5Q150 -445 164 -445H253Q261 -470 261 -492Q261 -542 223 -588Q208 -593 193 -593Q168 -593 142 -581V-555H55V-589Q55 -622 90 -649Q134 -683 176 -683Q205 -683 233 -667L285 -637Q298 -630 310 -619Q348 -573 348 -523Q348 -480 320 -432L285 -371Q280 -363 275 -355ZM133 -93V-167H220Q220 -167 220 -93Z"/>
	<path fill="#800080" d="M174 -375V-212Q174 -202 166.5 -194.5Q159 -187 149 -187Q139 -187 131.5 -194.5Q124 -202 124 -212V-400Q124 -410 131.5 -417.5Q139 -425 149 -425H229Q256 -470 256 -508Q256 -515 255 -522Q251 -554 225 -586Q193 -613 161 -613Q158 -613 154 -613Q128 -610 100 -591V-570Q100 -560 92.5 -552.5Q85 -545 75 -545Q65 -545 57.5 -552.5Q50 -560 50 -570V-604Q50 -616 60 -624Q105 -658 149 -662Q155 -663 161 -663Q212 -663 259 -623Q261 -622 262 -620Q298 -576 305 -528Q306 -518 306 -508Q306 -450 264 -386Q256 -375 243 -375ZM128 -152Q128 -162 135.5 -169.5Q143 -177 153 -177Q163 -177 170.5 -169.5Q178 -162 178 -152V-108Q178 -98 170.5 -90.5Q163 -83 153 -83Q143 -83 135.5 -90.5Q128 -98 128 -108Z"/>
	<path fill="#daa520" d="M134 -395V-212Q134 -207 129 -207Q124 -207 124 -212V-400Q124 -405 129 -405H220Q256 -460 256 -507.5Q256 -555 219 -600Q181 -633 141 -633Q102 -633 60 -602V-570Q60 -565 55 -565Q50 -565 50 -570V-604Q50 -606 52 -608Q97 -643 141 -643Q185 -643 226 -608Q227 -608 227 -607Q266 -559 266 -507.5Q266 -456 227 -397Q226 -395 223 -395ZM128 -152Q128 -157 133 -157Q138 -157 138 -152V-108Q138 -103 133 -103Q128 -103 128 -108Z"/>
</svg>