<svg xmlns="http://www.w3.org/2000/svg" viewBox="0 -1024 1024 1024">
	<path fill="#111111" d="M620 -147Q634 -147 643 -137.5Q652 -128 652 -115Q652 -106 650 -102L638 -74L612 -48Q600 -34 593 -27L558 9Q534 33 510 33Q482 33 458 9L423 -26Q378 -71 361 -166Q355 -200 350.5 -264.5Q346 -329 344 -349Q342 -350 339 -353Q336 -356 334 -358L299 -393Q255 -437 255 -499Q255 -513 258 -516L294 -552Q295 -553 298 -553Q305 -553 316 -542L351 -507Q364 -494 377 -474Q390 -454 392 -444Q396 -435 399 -424Q437 -436 472 -465Q505 -508 505 -548Q505 -641 459 -702Q397 -749 298 -749Q278 -751 271 -751Q234 -751 205 -733Q168 -676 159 -534Q158 -520 148 -510Q138 -500 124 -500Q110 -500 99.5 -511Q89 -522 89 -536V-538Q92 -586 96 -617.5Q100 -649 114 -689.5Q128 -730 151 -753L186 -788Q219 -821 271 -821Q278 -821 298 -819Q416 -819 478 -757L514 -721Q576 -659 576 -548Q576 -496 526 -446L490 -411Q456 -377 414 -359Q418 -332 421.5 -266Q425 -200 432 -166Q446 -91 476 -47Q493 -37 510 -37Q525 -37 542 -49L568 -75Q572 -84 579 -101.5Q586 -119 590 -128Q598 -147 620 -147ZM306 -258Q306 -246 306.5 -221Q307 -196 307 -181Q307 -42 266 -1L231 34Q214 51 190 51Q157 51 126 20L94 -12L90 -9L55 -44Q55 -45 73 -65Q91 -85 94 -88L129 -124H130L165 -89Q153 -75 138 -58H140Q140 -46 146 -34Q171 -19 190 -19Q204 -19 212 -23Q236 -70 236 -181Q236 -196 235.5 -221Q235 -246 235 -258Q235 -316 225.5 -381Q216 -446 200.5 -523Q185 -600 179 -640L182 -664Q184 -677 194 -685.5Q204 -694 217 -694Q231 -694 241.5 -683.5Q252 -673 252 -659Q252 -652 250 -640Q256 -600 271.5 -523Q287 -446 296.5 -381Q306 -316 306 -258ZM67 -55Q64 -46 64 -44Q64 -22 88 -18Z"/>
	<path fill="#800080" d="M84 -538Q84 -539 84 -540Q90 -625 102 -674Q119 -737 153 -771Q194 -811 257 -811Q270 -811 285 -809Q411 -808 481 -739Q550 -670 550 -548Q550 -486 493 -429Q446 -382 388 -364Q392 -335 395.5 -269.5Q399 -204 406 -171Q413 -130 428 -95.5Q443 -61 460 -44Q477 -27 495 -27Q508 -27 525 -44Q531 -50 544.5 -66Q558 -82 566 -89L576 -112Q583 -127 599 -127Q609 -127 616.5 -119.5Q624 -112 624 -102Q624 -97 622 -92L610 -64Q609 -61 596 -49Q590 -43 578.5 -29.5Q567 -16 560 -9Q528 23 495 23Q456 23 425 -8Q400 -33 382 -76Q364 -119 356.5 -162.5Q349 -206 345 -272Q342 -327 338 -355Q337 -355 335 -355Q327 -355 321 -359Q290 -381 270 -419.5Q250 -458 250 -499Q250 -504 250 -508Q251 -525 261 -534Q270 -543 283 -543Q294 -543 305 -536Q311 -531 318 -524Q335 -508 350 -483Q361 -464 365 -452Q372 -434 378 -413Q423 -429 458 -464Q500 -506 500 -548Q500 -649 445 -704Q390 -759 283 -759Q281 -759 279 -759Q267 -761 255 -761Q214 -761 189 -735Q164 -711 151 -661Q139 -617 134 -536Q133 -527 127 -520Q119 -513 109 -513Q99 -513 91.5 -520.5Q84 -528 84 -538ZM310 -453Q313 -445 317 -438Q316 -442 310 -453ZM224 -640Q230 -601 245.5 -523.5Q261 -446 270.5 -382Q280 -318 280 -258Q280 -246 281 -221Q282 -196 282 -181Q282 -81 261 -27Q250 0 234 17Q209 41 175 41Q157 41 136 32Q96 14 76 -19Q65 -19 57.5 -26.5Q50 -34 50 -43Q50 -53 56 -61Q82 -93 98 -107Q98 -108 99 -109Q106 -114 114 -114Q125 -114 132 -106.5Q139 -99 139 -88Q139 -81 135 -74Q134 -73 129 -68Q125 -62 115 -52Q119 -41 131 -30.5Q143 -20 156 -14Q167 -9 175 -9Q189 -9 198 -19Q219 -39 227 -100Q232 -134 232 -182Q232 -197 231 -221.5Q230 -246 230 -258Q230 -315 220.5 -379Q211 -443 195.5 -520Q180 -597 174 -636Q174 -638 174 -640Q174 -642 176 -658Q178 -666 185 -672.5Q192 -679 201 -679Q211 -679 218.5 -671.5Q226 -664 226 -654Q226 -652 224 -640Z"/>
	<path fill="#daa520" d="M250 -499Q250 -523 263 -523Q269 -523 277 -516Q291 -506 306.5 -482.5Q322 -459 326 -446Q337 -419 343 -388Q401 -401 450.5 -449Q500 -497 500 -548Q500 -652 441.5 -715.5Q383 -779 263 -779Q263 -779 262 -779Q248 -781 236 -781Q207 -781 184 -771Q161 -761 146.5 -740.5Q132 -720 122 -699Q112 -678 106.5 -646.5Q101 -615 98.5 -592.5Q96 -570 94 -538Q94 -533 89 -533Q84 -533 84 -538Q86 -566 87.5 -585Q89 -604 94 -632.5Q99 -661 105 -681Q111 -701 122.5 -723.5Q134 -746 149 -759.5Q164 -773 186.5 -782Q209 -791 236 -791Q249 -791 263 -789Q387 -789 448.5 -722.5Q510 -656 510 -548Q510 -492 458 -441.5Q406 -391 345 -378Q351 -344 355 -273Q359 -202 366 -167Q370 -143 378.5 -118Q387 -93 400 -66.5Q413 -40 432.5 -23.5Q452 -7 475 -7Q491 -7 506.5 -19Q522 -31 538.5 -51Q555 -71 563 -77L574 -104Q576 -107 579 -107Q584 -107 584 -102Q584 -101 583 -100L571 -72Q571 -71 570 -70Q562 -63 545 -42.5Q528 -22 511 -9.5Q494 3 475 3Q448 3 426 -15Q404 -33 390.5 -61.5Q377 -90 369 -115Q361 -140 356 -165Q349 -200 345 -271Q341 -342 335 -377Q325 -375 315 -375Q313 -375 312 -376Q284 -395 267 -429.5Q250 -464 250 -499ZM260 -499Q260 -467 276 -435Q292 -403 316 -385Q325 -385 333 -386Q327 -417 316 -442Q316 -442 316 -443Q312 -461 288 -490Q279 -502 271 -508Q265 -513 263 -513H262Q260 -513 260 -499ZM240 -258Q240 -246 240.5 -221.5Q241 -197 241 -181Q241 -63 212 -14Q191 21 155 21Q129 21 100 0Q71 -21 65 -47Q59 -41 58 -40Q57 -39 55 -39Q50 -39 50 -44Q50 -46 51 -47.5Q52 -49 57 -55Q76 -77 90 -91Q91 -92 91 -93Q93 -94 94 -94Q99 -94 99 -89Q99 -87 98 -85Q98 -85 94 -81Q88 -74 75 -59Q74 -58 74 -58Q74 -35 102 -12Q130 11 155 11Q185 11 204 -19Q231 -65 231 -181Q231 -197 230.5 -221.5Q230 -246 230 -258Q230 -316 220.5 -380.5Q211 -445 195.5 -522Q180 -599 174 -639Q174 -640 174 -640Q174 -640 174 -641L176 -655Q177 -659 181 -659Q186 -659 186 -654Q186 -654 186 -653L184 -640Q190 -600 205.5 -523Q221 -446 230.5 -381.5Q240 -317 240 -258Z"/>
</svg>