<svg xmlns="http://www.w3.org/2000/svg" viewBox="0 -1024 1024 1024">
	<path fill="#111111" d="M88 -39Q88 -52 97 -61.5Q106 -71 120 -71Q141 -71 150 -52L162 -26Q171 -6 171 7Q171 28 141 58L106 93L99 99Q90 106 82 106Q71 106 63 98Q55 90 55 79Q55 66 64 59L86 40Q100 22 100 7Q100 1 98 -7Q96 -15 94 -20L91 -26Q88 -32 88 -39ZM136 -388L101 -353L65 -388L101 -423Z"/>
	<path fill="#800080" d="M77 -26Q77 -36 84.5 -43.5Q92 -51 102 -51Q118 -51 125 -36Q136 -11 136 7Q136 25 124 45Q114 60 99 75Q95 80 91 83Q84 89 75 89Q65 89 57.5 81.5Q50 74 50 64Q50 53 59 45Q72 33 81 19Q86 11 86 7Q86 4 83 -4L79 -16Q77 -21 77 -26ZM59 -370.5Q52 -378 52 -388Q52 -398 59 -405.5Q66 -413 76.5 -413Q87 -413 94 -405.5Q101 -398 101 -388Q101 -378 94 -370.5Q87 -363 76.5 -363Q66 -363 59 -370.5Z"/>
	<path fill="#daa520" d="M86 7Q86 1 84 -6.5Q82 -14 79.5 -19.5Q77 -25 77 -26Q77 -31 82 -31Q85 -31 87 -28Q96 -7 96 7Q96 23 80 44Q70 58 58 68Q57 69 55 69Q50 69 50 64Q50 62 52 60Q55 57 61 51Q67 45 76.5 31Q86 17 86 7ZM57 -383Q52 -383 52 -388Q52 -393 57 -393Q62 -393 62 -388Q62 -383 57 -383Z"/>
</svg>