<svg xmlns="http://www.w3.org/2000/svg" viewBox="0 -1024 1024 1024">
	<path fill="#111111" d="M180 -636Q180 -625 172 -617Q164 -609 153 -609Q140 -609 129 -620L94 -655Q67 -682 56 -746Q55 -750 55 -757Q55 -769 61 -775L96 -810Q105 -819 135 -819Q171 -819 251 -777Q345 -729 383 -729Q384 -729 385 -729.5Q386 -730 387 -730L392 -758Q393 -768 400 -775L435 -811Q438 -814 444 -814Q449 -814 453 -810L489 -774Q494 -769 497 -760Q487 -732 470 -715L453 -697L451 -686V-30Q439 -11 434 -6L399 29Q391 37 383 37Q376 37 367 31Q341 13 313 -5L278 -40V-74Q278 -89 288 -99Q298 -109 313 -109Q328 -109 338.5 -99Q349 -89 349 -74V-52Q352 -50 358.5 -45.5Q365 -41 367 -39Q372 -36 380 -34V-659Q339 -660 251 -706Q169 -749 135 -749Q134 -749 131 -748.5Q128 -748 126 -748V-747L127 -746Q136 -696 152 -672L170 -658Q180 -650 180 -636Z"/>
	<path fill="#800080" d="M145 -650Q145 -640 137.5 -632.5Q130 -625 120 -625Q109 -625 96 -638Q64 -670 51 -742Q50 -750 50 -757Q50 -779 63 -793Q80 -809 120 -809Q144 -809 177 -797Q199 -788 247 -764Q320 -726 351 -721Q360 -719 368 -719Q375 -719 380 -720L387 -762Q391 -782 402 -793Q413 -804 428.5 -804Q444 -804 456 -792Q465 -783 470 -767Q471 -764 471 -760Q471 -756 470 -751Q454 -708 426 -687L425 -684V-30Q425 -23 420 -14Q413 -2 408 4.5Q403 11 392 19Q381 27 368 27Q353 27 338 17Q294 -12 284 -19Q273 -27 273 -40V-74Q273 -84 280.5 -91.5Q288 -99 298 -99Q308 -99 315.5 -91.5Q323 -84 323 -74V-53Q326 -51 366 -25Q366 -25 367 -24Q370 -28 375 -37V-670Q371 -669 366 -669Q355 -669 342 -671Q305 -678 239 -711.5Q173 -745 159 -750Q135 -759 120 -759Q108 -759 100 -757Q100 -755 101 -750Q112 -689 136 -669Q145 -662 145 -650Z"/>
	<path fill="#daa520" d="M348 -3Q359 -3 375 -31V-686Q375 -686 376 -694Q363 -689 347 -689Q328 -689 302.5 -697.5Q277 -706 261 -713.5Q245 -721 214 -737Q131 -779 100 -779Q78 -779 69 -774.5Q60 -770 60 -757Q60 -753 61 -747Q74 -678 103 -654Q105 -652 105 -650Q105 -645 100 -645Q98 -645 97 -646Q64 -672 51 -745Q50 -752 50 -757Q50 -776 63 -782.5Q76 -789 100 -789Q116 -789 138 -781.5Q160 -774 174.5 -767.5Q189 -761 218 -746Q309 -699 347 -699Q365 -699 378 -706L387 -759Q391 -784 408 -784Q424 -784 431 -761Q431 -761 431 -760Q431 -759 431 -758Q415 -716 387 -699L385 -686V-30Q385 -29 382 -24Q376 -14 373.5 -9.5Q371 -5 363.5 1Q356 7 348 7Q339 7 329 0Q285 -29 275 -36Q273 -37 273 -40V-74Q273 -79 278 -79Q283 -79 283 -74V-43Q292 -37 335 -8Q342 -3 348 -3ZM408 -774Q400 -774 397 -757L390 -713Q409 -728 421 -760Q416 -774 408 -774Z"/>
</svg>