<svg xmlns="http://www.w3.org/2000/svg" viewBox="0 -1024 1024 1024">
	<path fill="#111111" d="M462 79Q462 104 452 130Q444 147 433 158L398 194Q367 225 287 225Q239 225 167 196Q127 179 98 171L80 166Q55 159 55 133Q55 119 65 109Q75 99 89 99Q92 99 98 101Q127 109 167 126Q239 155 287 155Q344 155 377 138Q391 112 391 79Q391 27 345 -32Q344 -34 341.5 -36Q339 -38 338 -40Q308 -65 251 -96Q192 -129 171 -144L136 -179L319 -376H99Q84 -376 74 -386Q64 -396 64 -411Q64 -426 74 -436Q84 -446 99 -446H387L423 -411L214 -187Q226 -180 251 -166.5Q276 -153 289 -145Q302 -137 321.5 -123Q341 -109 356 -94L392 -59Q404 -47 416 -32Q462 27 462 79Z"/>
	<path fill="#800080" d="M428 79Q428 109 416 139Q408 161 392 176Q353 215 264 215Q210 215 135 184Q93 167 68 160Q61 158 55.5 151Q50 144 50 136Q50 126 57.5 118.5Q65 111 75 111Q78 111 82 112Q110 120 154 138Q178 148 190.5 152.5Q203 157 223 161Q243 165 264 165Q332 165 357 141Q365 132 370 121Q378 99 378 79Q378 62 373 45Q363 17 337 -17Q327 -30 315 -41Q285 -72 216 -109Q163 -138 134 -158Q123 -166 123 -179Q123 -189 130 -196L307 -386H76Q66 -386 58.5 -393.5Q51 -401 51 -411Q51 -421 58.5 -428.5Q66 -436 76 -436H364Q374 -436 381.5 -428.5Q389 -421 389 -411Q389 -401 382 -394L186 -184Q204 -173 240 -153.5Q276 -134 301.5 -117Q327 -100 351 -76Q402 -25 420 29Q428 53 428 79Z"/>
	<path fill="#daa520" d="M388 79Q388 105 378 132Q352 195 244 195Q220 195 197 190Q174 185 160.5 180.5Q147 176 122 166Q80 148 54 141Q50 140 50 136Q50 131 55 131Q56 131 56 131Q83 139 126 156Q150 166 163.5 171Q177 176 199 180.5Q221 185 244 185Q346 185 368 128Q378 103 378 79Q378 29 333 -29Q314 -52 291 -71.5Q268 -91 252 -100.5Q236 -110 205 -127Q154 -155 125 -175Q123 -176 123 -179Q123 -181 124 -182L333 -406H56Q51 -406 51 -411Q51 -416 56 -416H344Q349 -416 349 -411Q349 -409 348 -408L136 -180Q161 -163 205 -139.5Q249 -116 281 -93Q313 -70 341 -35Q388 25 388 79Z"/>
</svg>