<svg xmlns="http://www.w3.org/2000/svg" viewBox="0 -1024 1024 1024">
	<path fill="#111111" d="M804 -663Q804 -663 804 -656Q803 -648 802.5 -631.5Q802 -615 801 -605.5Q800 -596 796.5 -584.5Q793 -573 787 -567L752 -531Q740 -519 711 -519Q677 -519 665 -531L629 -567Q621 -575 617 -595Q610 -623 601 -632Q594 -641 594 -650Q594 -660 601.5 -667.5Q609 -675 620 -675Q630 -675 638 -667L672 -632Q683 -620 689 -591Q701 -589 711 -589Q718 -589 728 -591Q730 -602 731.5 -626.5Q733 -651 733 -656V-663Q733 -698 704 -738Q633 -737 582 -695Q551 -656 529.5 -601.5Q508 -547 496.5 -473.5Q485 -400 480.5 -354Q476 -308 471 -227Q463 -107 456 -74Q450 -49 444 -43L408 -8Q405 -5 403 -5Q399 -5 395 -9L360 -44Q343 -61 319.5 -145.5Q296 -230 274 -346Q252 -462 239 -536Q226 -610 217 -668Q210 -719 187 -759Q165 -757 149 -747Q128 -715 125 -677Q123 -663 113 -654Q103 -645 90 -645Q76 -645 65.5 -655.5Q55 -666 55 -680V-683Q59 -731 95 -767L130 -802Q157 -829 192 -829H196L231 -793Q277 -747 288 -668Q347 -300 394 -134Q395 -145 400 -227Q405 -311 410 -361.5Q415 -412 428 -488.5Q441 -565 466 -621Q491 -677 528 -714L563 -749Q622 -808 711 -808L747 -773Q748 -771 757 -759.5Q766 -748 769 -744.5Q772 -741 779.5 -730.5Q787 -720 789.5 -714Q792 -708 796.5 -698.5Q801 -689 802.5 -680.5Q804 -672 804 -663Z"/>
	<path fill="#800080" d="M75 -658Q65 -658 57.5 -665.5Q50 -673 50 -683Q50 -684 50 -685Q54 -734 89.5 -776.5Q125 -819 176 -819Q190 -819 198 -811Q250 -760 262 -672Q297 -454 329 -301Q352 -188 371 -125Q377 -106 383 -91Q389 -126 395 -229Q408 -430 431 -528Q463 -665 530 -732Q597 -798 696 -798Q708 -798 716 -788Q750 -744 758 -731Q778 -696 778 -663Q778 -659 778 -654Q778 -650 776.5 -624Q775 -598 772 -584Q767 -562 754 -549Q734 -529 696 -529Q651 -529 631 -549Q619 -562 613 -590Q609 -609 603 -615Q596 -622 596 -632Q596 -642 603.5 -649.5Q611 -657 621 -657Q632 -657 639 -649Q655 -633 661 -601Q664 -587 667 -584Q672 -579 696 -579Q713 -579 719 -584Q722 -588 724 -596Q726 -604 727 -628.5Q728 -653 728 -658Q728 -661 728 -663Q728 -682 715 -706Q707 -719 684 -748Q614 -744 566 -696Q509 -639 480 -516Q457 -422 445 -226Q438 -107 429 -69Q426 -53 422 -42Q410 -15 387 -15Q373 -15 362 -27Q352 -36 343 -56.5Q334 -77 323 -111Q304 -176 280 -290Q248 -444 212 -664Q212 -664 212 -665Q204 -727 169 -769Q150 -766 132 -749Q119 -736 110 -716.5Q101 -697 100 -681Q99 -671 92 -664.5Q85 -658 75 -658Z"/>
	<path fill="#daa520" d="M728 -663Q728 -670 726.5 -678Q725 -686 723.5 -691.5Q722 -697 717.5 -705.5Q713 -714 710.5 -718.5Q708 -723 701.5 -732Q695 -741 692.5 -744Q690 -747 682.5 -756.5Q675 -766 674 -768Q625 -768 586 -748Q547 -728 521 -700Q495 -672 474.5 -622.5Q454 -573 443 -533.5Q432 -494 423.5 -429.5Q415 -365 412 -328Q409 -291 405 -227Q398 -110 390 -73Q382 -35 367 -35Q358 -35 349 -49Q340 -63 330 -94Q310 -152 285 -270Q250 -429 212 -667Q208 -700 193 -734Q178 -768 158 -789Q157 -789 156 -789Q117 -789 90 -754Q63 -719 60 -683Q60 -678 55 -678Q50 -678 50 -683Q54 -723 83 -761Q112 -799 156 -799Q162 -799 164 -798Q186 -775 201.5 -739.5Q217 -704 222 -669Q260 -431 294 -272Q320 -155 340 -97Q349 -68 358 -55Q364 -45 367 -45Q374 -45 380 -75Q388 -111 395 -228Q395 -229 395 -231Q399 -296 402 -331.5Q405 -367 414 -433.5Q423 -500 434 -539.5Q445 -579 466.5 -630Q488 -681 515 -709.5Q542 -738 583.5 -758Q625 -778 676 -778Q678 -778 680 -776Q682 -774 692.5 -760.5Q703 -747 706.5 -742.5Q710 -738 718 -725.5Q726 -713 729 -705Q732 -697 735 -685.5Q738 -674 738 -663Q738 -659 738 -656Q737 -648 736.5 -630.5Q736 -613 735 -601Q734 -589 730 -579Q718 -549 676 -549Q644 -549 629 -560Q618 -569 612 -594Q607 -618 597 -629Q596 -630 596 -632Q596 -637 601 -637Q603 -637 605 -635Q616 -623 622 -596Q627 -575 635 -568Q647 -559 676 -559Q711 -559 721 -583Q724 -591 725 -603Q726 -615 726.5 -632Q727 -649 728 -656Q728 -660 728 -663Z"/>
</svg>