<svg xmlns="http://www.w3.org/2000/svg" viewBox="0 -1024 1024 1024">
	<path fill="#111111" d="M162 -664Q162 -586 177 -533Q177 -532 176.5 -530.5Q176 -529 176 -528Q176 -527 176 -526L177 -524Q178 -521 178 -514Q178 -500 168.5 -490Q159 -480 145 -480Q119 -480 112 -504L106 -524V-526Q105 -527 105 -528Q105 -529 105.5 -530.5Q106 -532 106 -533Q91 -586 91 -664V-692Q95 -710 113 -728L148 -763Q172 -787 207 -799Q242 -811 288 -811Q341 -811 361 -791L396 -755Q405 -746 416 -722Q429 -694 439 -682L453 -668L463 -594Q489 -690 540 -741L575 -776Q631 -832 717 -832Q721 -832 730 -833Q739 -834 744 -834Q759 -834 763 -830L798 -794Q801 -791 801 -788Q801 -782 801.5 -770Q802 -758 802 -753Q802 -742 801 -737Q781 -599 676 -494L641 -458Q588 -405 513 -357Q521 -215 602 -119Q667 -65 747 -61H773Q811 -61 833 -70Q840 -87 841 -105Q839 -106 835.5 -108.5Q832 -111 831 -111Q823 -112 807.5 -115Q792 -118 784 -119Q771 -121 763 -130.5Q755 -140 755 -153Q755 -167 765.5 -177.5Q776 -188 790 -188Q791 -188 792.5 -187.5Q794 -187 795 -187L831 -181Q835 -178 845.5 -172Q856 -166 864 -161Q872 -156 875 -153L911 -118L912 -116Q912 -71 890 -49L855 -13Q832 10 773 10Q769 10 760.5 9.5Q752 9 747 9Q654 5 584 -65L548 -100Q466 -182 446 -316Q438 -311 422 -302Q406 -293 398 -288L396 -281L348 -185Q333 -168 309 -121Q264 -37 233 -6L197 29Q166 60 135 60Q130 60 124 54L88 19Q75 6 65 -26.5Q55 -59 55 -74Q64 -116 98 -150L133 -185L138 -190Q202 -247 342 -327L388 -455L394 -584L382 -667L375 -675Q361 -689 340 -733Q321 -741 288 -741Q242 -741 207 -729Q188 -722 169 -709Q166 -704 162 -692ZM431 -378Q432 -379 436 -381Q440 -383 441 -384Q441 -401 442 -409ZM717 -762Q645 -762 593 -721Q517 -624 513 -428Q594 -482 622 -511Q711 -602 730 -737Q731 -742 731 -753V-763Q729 -763 723.5 -762.5Q718 -762 717 -762ZM153 -132Q134 -106 126 -74Q126 -49 142 -11Q162 -13 180 -26Q200 -51 238 -121Q262 -168 277 -185L301 -232Q205 -176 153 -132Z"/>
	<path fill="#800080" d="M101 -531Q86 -585 86 -664Q86 -668 86 -677.5Q86 -687 86 -692Q86 -695 87 -698Q95 -729 122.5 -752Q150 -775 183 -788Q221 -801 273 -801Q335 -801 363 -773Q375 -760 388 -732Q402 -701 418 -687Q425 -681 427 -672L439 -588Q439 -586 439 -584Q439 -583 439 -583L433 -454Q433 -450 431 -446L401 -363Q420 -374 436 -384Q436 -397 437 -411Q437 -523 462 -611Q489 -705 542 -758Q606 -822 702 -822Q705 -822 714 -823Q723 -824 729 -824Q753 -824 765 -812Q775 -802 775 -788Q775 -783 775.5 -771Q776 -759 776 -753Q776 -742 775 -733Q765 -667 738.5 -609Q712 -551 670 -505Q628 -459 585.5 -425Q543 -391 487 -356Q491 -288 517 -224.5Q543 -161 586 -118Q649 -55 733 -51Q746 -50 757 -50Q805 -50 822 -66Q834 -78 836 -104Q827 -110 807 -122L776 -127Q767 -129 761 -136Q755 -143 755 -152Q755 -162 762.5 -169.5Q770 -177 780 -177Q782 -177 784 -177L820 -171Q825 -170 829.5 -167Q834 -164 844.5 -157.5Q855 -151 861 -148Q877 -137 882 -130Q886 -123 886 -116Q886 -60 857 -31Q837 -11 805 -5Q785 0 758 0Q747 0 731 -1Q668 -4 615 -33.5Q562 -63 526.5 -109.5Q491 -156 468.5 -211.5Q446 -267 439 -327Q417 -314 375 -290L368 -272Q368 -271 367 -270L319 -174Q318 -171 316 -169Q306 -157 280 -109Q232 -20 200 12Q161 50 120 50Q104 50 90 37Q75 21 63 -14Q50 -52 50 -74Q50 -77 51 -80Q64 -135 106 -173V-174Q138 -201 179.5 -230Q221 -259 251.5 -277Q282 -295 334 -325L383 -460L389 -583L379 -656Q359 -675 342 -711Q333 -732 327 -738Q314 -751 273 -751Q230 -751 200 -740Q170 -730 151 -710Q140 -699 136 -688Q136 -685 136 -676.5Q136 -668 136 -664Q136 -589 150 -540Q151 -537 151 -533Q151 -531 151 -528Q151 -526 151 -524Q151 -514 143.5 -506.5Q136 -499 126 -499Q115 -499 107.5 -507.5Q100 -516 100 -528Q100 -530 101 -531ZM725 -774Q722 -773 714.5 -772.5Q707 -772 702 -772Q626 -772 577 -723Q533 -679 510 -597Q488 -518 487 -416Q560 -464 608 -511Q707 -610 725 -741Q726 -745 726 -753Q726 -759 725 -774ZM100 -72Q103 -52 110 -30Q117 -11 125 0Q143 -3 164 -24Q191 -51 236 -133Q263 -183 276 -199L300 -247Q196 -186 140 -136Q110 -110 100 -72Z"/>
	<path fill="#daa520" d="M110 -528Q110 -527 110.5 -526Q111 -525 111 -524Q111 -519 106 -519Q100 -519 100 -528Q100 -530 101 -533Q86 -586 86 -664Q86 -668 86 -677.5Q86 -687 86 -692Q86 -693 86 -693Q93 -719 117 -738.5Q141 -758 170 -769Q204 -781 253 -781Q296 -781 318 -767Q335 -757 350 -724Q366 -688 385 -672Q387 -671 387 -669L399 -585Q399 -584 399 -584L393 -455Q393 -454 393 -453L344 -319Q403 -352 436 -372Q436 -378 436 -382Q436 -396 437 -410Q437 -451 441 -490.5Q445 -530 454 -576.5Q463 -623 481.5 -661.5Q500 -700 525.5 -732.5Q551 -765 591.5 -783.5Q632 -802 682 -802Q686 -802 695 -803Q704 -804 709 -804Q735 -804 735 -788Q735 -782 735.5 -770.5Q736 -759 736 -753Q736 -743 735 -736Q726 -671 700 -615.5Q674 -560 632.5 -515.5Q591 -471 548 -437Q505 -403 446 -367Q449 -306 467.5 -248Q486 -190 519 -142.5Q552 -95 602 -64.5Q652 -34 712 -31Q727 -30 738 -30Q781 -30 802 -42Q836 -61 836 -114Q834 -116 794 -141L759 -147Q755 -148 755 -152Q755 -157 760 -157Q760 -157 761 -157L797 -151Q798 -151 799 -150Q803 -147 815 -140Q827 -133 833 -129Q842 -123 844 -120Q846 -118 846 -116Q846 -55 807 -34Q783 -20 738 -20Q726 -20 712 -21Q650 -24 598 -55Q546 -86 512.5 -134.5Q479 -183 459.5 -241.5Q440 -300 437 -361Q405 -342 339 -304L330 -279Q330 -279 329 -279L281 -183Q281 -182 281 -182Q269 -168 242 -118Q227 -90 220 -77.5Q213 -65 196 -40Q179 -15 166.5 -3Q154 9 136 19.5Q118 30 100 30Q82 30 67 -8Q50 -48 50 -74Q50 -75 50 -75Q62 -124 100 -159Q131 -186 173.5 -215Q216 -244 246 -262Q276 -280 330 -311L383 -456L389 -584L377 -665Q357 -683 341 -720Q327 -750 312 -759Q293 -771 253 -771Q206 -771 174 -759Q147 -750 124.5 -731.5Q102 -713 96 -691Q96 -687 96 -677.5Q96 -668 96 -664Q96 -586 111 -534Q111 -534 111 -533Q111 -532 110.5 -530.5Q110 -529 110 -528ZM709 -794Q705 -794 695.5 -793Q686 -792 682 -792Q625 -792 581.5 -766Q538 -740 513.5 -701Q489 -662 473 -608Q457 -554 452 -507Q447 -460 447 -410Q446 -396 446 -382Q446 -381 446 -379Q503 -414 545 -447Q587 -480 626.5 -524Q666 -568 691 -621.5Q716 -675 725 -738Q726 -744 726 -753Q726 -759 725.5 -770.5Q725 -782 725 -788Q725 -794 709 -794ZM100 20Q119 20 138 8Q157 -4 175 -28.5Q193 -53 204.5 -72Q216 -91 234 -123Q261 -173 273 -188L320 -283L325 -296Q172 -209 106 -151Q71 -119 60 -73Q61 -49 76 -12Q89 20 100 20Z"/>
</svg>