<svg xmlns="http://www.w3.org/2000/svg" viewBox="0 -1024 1024 1024">
	<path fill="#111111" d="M103 -394L138 -430Q149 -441 162 -441Q176 -441 187 -430L222 -394Q243 -373 256.5 -321Q270 -269 270 -205Q270 -141 256.5 -89Q243 -37 222 -16L187 20Q176 31 162 31Q149 31 138 20L103 -16Q82 -37 68.5 -89Q55 -141 55 -205Q55 -269 68.5 -321Q82 -373 103 -394ZM156 -40Q157 -40 159 -39.5Q161 -39 162 -39Q163 -39 165 -39.5Q167 -40 168 -40Q199 -99 199 -205Q199 -311 168 -370Q167 -370 165 -370.5Q163 -371 162 -371Q161 -371 159 -370.5Q157 -370 156 -370Q126 -313 126 -205Q126 -97 156 -40Z"/>
	<path fill="#800080" d="M67 -340Q82 -389 105 -412Q124 -431 147 -431Q170 -431 189 -412Q212 -389 227 -340Q244 -281 244 -205Q244 -129 227 -70Q212 -21 189 2Q170 21 147 21Q124 21 105 2Q82 -21 67 -70Q50 -129 50 -205Q50 -281 67 -340ZM115 -85Q126 -48 140 -33Q145 -29 147 -29Q149 -29 154 -33Q168 -48 179 -85Q194 -137 194 -205Q194 -273 179 -325Q168 -362 154 -377Q149 -381 147 -381Q145 -381 140 -377Q126 -362 115 -325Q100 -273 100 -205Q100 -137 115 -85Z"/>
	<path fill="#daa520" d="M86 -381Q105 -411 127 -411Q149 -411 168 -381Q204 -322 204 -205Q204 -88 168 -29Q149 1 127 1Q105 1 86 -29Q50 -88 50 -205Q50 -322 86 -381ZM85 -53Q104 -9 127 -9Q150 -9 169 -53Q194 -112 194 -205Q194 -298 169 -357Q150 -401 127 -401Q104 -401 85 -357Q60 -298 60 -205Q60 -112 85 -53Z"/>
</svg>