<svg xmlns="http://www.w3.org/2000/svg" viewBox="0 -1024 1024 1024">
	<path fill="#000088" d="M237 -520Q237 -583 213 -695Q211 -702 208 -719.5Q205 -737 202 -749.5Q199 -762 194 -773Q188 -770 184 -763Q181 -757 176.5 -744.5Q172 -732 171 -728Q161 -623 153 -542L159 -356L174 -248Q175 -242 178 -231.5Q181 -221 182 -216Q238 -341 238 -475Q238 -482 237 -509Q237 -511 237 -514.5Q237 -518 237 -520ZM483 -212Q483 -219 481 -227Q470 -224 463 -221Q446 -215 427.5 -215Q409 -215 388 -221Q377 -221 368 -226L316 -256Q300 -265 288 -294Q269 -239 239 -188L214 -144Q232 -101 243 -85Q252 -84 306 -73Q360 -62 392 -62Q432 -63 463 -100Q474 -126 480 -155Q483 -169 483 -197Q483 -200 483 -204.5Q483 -209 483 -212ZM411 -305Q424 -305 435 -308Q430 -315 424 -321Q405 -326 375 -326Q379 -315 383 -308Q398 -305 411 -305ZM570 -228Q570 -200 567 -185Q556 -136 534 -97L499 -37Q462 27 409 28Q377 28 322.5 17Q268 6 253 4Q241 3 231 -3L179 -33Q167 -40 156 -56Q111 1 55 43L5 -23L38 -47Q83 -82 122 -126Q111 -151 102 -164Q101 -165 87 -218L72 -326L66 -512Q74 -591 84 -698Q101 -743 106 -752L141 -813Q143 -817 150 -826L161 -845Q172 -864 185 -866Q197 -866 206 -861L258 -831Q270 -824 278 -807.5Q286 -791 289 -778.5Q292 -766 296 -744Q298 -731 300 -725Q324 -614 324 -550Q324 -549 324 -545Q324 -541 324 -539Q325 -513 325 -506Q325 -433 307 -360L322 -385Q329 -397 339 -406.5Q349 -416 356 -416Q407 -416 435 -400L487 -370Q503 -361 518 -344L522 -353Q525 -389 528 -426L612 -419L609 -383L579 -308Q571 -289 563 -274Q570 -257 570 -242Q570 -240 570 -235Q570 -230 570 -228Z"/>
	<path fill="#800080" d="M516 -227Q516 -225 516 -220Q516 -215 516 -213Q516 -185 513 -170Q496 -89 454 -46L419 -11Q390 18 355 18Q323 18 269 7Q215 -4 199 -6Q179 -8 164 -23L129 -58Q122 -65 116 -75Q105 -63 58 -16Q31 11 1 33Q-7 39 -16 39Q-28 39 -36 30.5Q-44 22 -44 11Q-44 -3 -33 -12Q21 -53 40 -70Q66 -98 89 -131Q75 -165 65 -179Q64 -180 50 -233L35 -341L29 -527Q37 -608 47 -713Q48 -717 52.5 -729.5Q57 -742 59.5 -748Q62 -754 66.5 -763Q71 -772 77 -779Q80 -783 86.5 -795.5Q93 -808 99 -813L134 -849Q140 -855 148 -856Q166 -856 179 -844L214 -809Q222 -801 227.5 -787.5Q233 -774 235.5 -764.5Q238 -755 241.5 -736Q245 -717 246 -710Q271 -599 271 -535Q271 -534 270.5 -530Q270 -526 270 -524Q271 -498 271 -491Q271 -419 255 -348Q260 -355 265 -360L301 -395Q312 -406 319 -406Q355 -406 378.5 -399Q402 -392 422 -372L457 -337Q462 -332 468 -325L485 -368L488 -410Q489 -423 499 -432.5Q509 -442 523 -442Q538 -442 548 -431.5Q558 -421 558 -407Q558 -405 558 -404L555 -368L525 -293Q522 -285 504 -270Q516 -247 516 -227ZM200 -535Q200 -599 176 -710Q174 -717 171 -733.5Q168 -750 165.5 -762Q163 -774 158 -785Q155 -785 152 -786Q149 -782 147 -779Q142 -772 137.5 -763Q133 -754 130.5 -748Q128 -742 123.5 -729.5Q119 -717 117 -713Q108 -608 99 -527L105 -341L120 -233Q122 -227 125 -215.5Q128 -204 130 -199Q201 -337 201 -491Q201 -498 200 -524Q200 -526 200 -530Q200 -534 200 -535ZM446 -227Q446 -233 444 -240Q432 -239 409 -231Q393 -224 374 -224Q355 -224 334 -231Q317 -231 305 -243L270 -278Q259 -289 247 -319Q219 -216 160 -131Q175 -94 183 -81Q191 -77 199 -76Q215 -74 269 -63Q323 -52 355 -52Q379 -53 400 -67Q430 -108 443 -170Q446 -185 446 -213Q446 -215 446 -220Q446 -225 446 -227ZM409 -301Q411 -302 413 -303Q407 -313 404 -316Q375 -336 319 -336Q319 -336 318 -336Q315 -330 315 -326Q322 -309 325 -302Q329 -301 334 -301Q355 -295 374 -295Q393 -295 409 -301Z"/>
	<path fill="#daa520" d="M254 -535Q254 -598 230 -709Q229 -715 226 -731.5Q223 -748 221 -756.5Q219 -765 214.5 -778Q210 -791 205 -798Q200 -805 191.5 -810.5Q183 -816 172 -816Q166 -815 160.5 -808Q155 -801 149 -790.5Q143 -780 140 -776Q130 -763 111 -712Q102 -608 93 -527L99 -341L114 -234Q128 -182 129 -181Q138 -168 149 -141Q255 -299 255 -491Q255 -507 254 -524Q254 -526 254 -529.5Q254 -533 254 -535ZM343 -366Q336 -366 325 -353Q311 -337 309 -327Q316 -308 320.5 -299Q325 -290 335 -280.5Q345 -271 358 -271Q359 -271 359 -271Q380 -265 398 -265Q416 -265 431 -271Q456 -280 469 -280H481Q477 -287 465 -305Q440 -342 414 -354Q388 -366 343 -366ZM510 -213Q510 -184 507 -169Q501 -143 491.5 -118Q482 -93 467 -68Q452 -43 429 -27.5Q406 -12 379 -12Q347 -12 292.5 -23Q238 -34 222 -36Q208 -38 196 -45.5Q184 -53 175 -67Q166 -81 160.5 -91.5Q155 -102 147 -121Q96 -49 28 2Q27 3 25 3Q20 3 20 -2Q20 -4 22 -6Q91 -58 143 -132Q129 -163 120 -176Q119 -177 119 -178Q119 -179 104 -232L89 -340Q89 -341 89 -341L83 -527V-528Q92 -607 101 -713Q101 -714 101 -715Q103 -719 107.5 -731.5Q112 -744 114.5 -750Q117 -756 121.5 -765.5Q126 -775 132 -782Q135 -786 141 -798Q147 -810 154 -817Q161 -824 171 -826Q172 -826 172 -826Q186 -826 197 -819Q208 -812 214 -803.5Q220 -795 225 -779Q230 -763 231.5 -755Q233 -747 236 -730Q239 -717 240 -711Q264 -599 264 -535Q264 -529 264 -524Q265 -507 265 -491Q265 -395 236.5 -302Q208 -209 154 -130Q165 -104 172 -90Q179 -76 193 -62Q207 -48 224 -46Q240 -44 293.5 -33Q347 -22 379 -22Q410 -23 436 -48Q462 -73 476 -104.5Q490 -136 497 -171Q500 -185 500 -213Q500 -215 500 -220Q500 -225 500 -227Q500 -246 487 -270H469Q458 -270 435 -261Q418 -255 398 -255Q379 -255 357 -261Q345 -261 335.5 -266.5Q326 -272 319 -282.5Q312 -293 309 -300Q306 -307 301 -321Q299 -325 299 -326Q299 -339 317 -359Q332 -376 343 -376Q390 -376 418.5 -362.5Q447 -349 473 -311Q488 -289 492 -281Q494 -282 510 -296L539 -369L542 -404Q542 -409 547 -409Q552 -409 552 -404L549 -368Q549 -367 549 -366L519 -291Q518 -290 517 -289Q515 -288 508 -281.5Q501 -275 497 -272Q510 -248 510 -227Q510 -225 510 -220Q510 -215 510 -213Z"/>
</svg>