<svg xmlns="http://www.w3.org/2000/svg" viewBox="0 -1024 1024 1024">
	<path fill="#000088" d="M565 -227Q565 -225 565 -220Q565 -215 565 -213Q565 -185 562 -170Q545 -89 503 -46L468 -11Q439 18 404 18Q372 18 318 7Q264 -4 248 -6Q228 -8 213 -23L178 -58Q171 -65 165 -75Q154 -63 107 -16Q80 11 50 33Q42 39 33 39Q21 39 13 30.5Q5 22 5 11Q5 -3 16 -12Q70 -53 89 -70Q115 -98 138 -131Q124 -165 114 -179Q113 -180 99 -233L84 -341L78 -527Q86 -608 96 -713Q97 -717 101.5 -729.5Q106 -742 108.5 -748Q111 -754 115.5 -763Q120 -772 126 -779Q129 -783 135.5 -795.5Q142 -808 148 -813L183 -849Q189 -855 197 -856Q215 -856 228 -844L263 -809Q271 -801 276.5 -787.5Q282 -774 284.5 -764.5Q287 -755 290.5 -736Q294 -717 295 -710Q320 -599 320 -535Q320 -534 319.5 -530Q319 -526 319 -524Q320 -498 320 -491Q320 -419 304 -348Q309 -355 314 -360L350 -395Q361 -406 368 -406Q404 -406 427.5 -399Q451 -392 471 -372L506 -337Q511 -332 517 -325L534 -368Q535 -381 537 -410Q538 -423 548 -432.5Q558 -442 572 -442Q587 -442 597 -431.5Q607 -421 607 -407Q607 -405 607 -404L604 -368L574 -293Q571 -285 553 -270Q565 -247 565 -227ZM249 -535Q249 -599 225 -710Q223 -717 220 -733.5Q217 -750 214.5 -762Q212 -774 207 -785Q204 -785 201 -786Q198 -782 196 -779Q191 -772 186.5 -763Q182 -754 179.5 -748Q177 -742 172.5 -729.5Q168 -717 166 -713Q157 -608 148 -527L154 -341L169 -233Q171 -227 174 -215.5Q177 -204 179 -199Q250 -337 250 -491Q250 -498 249 -524Q249 -526 249 -530Q249 -534 249 -535ZM495 -227Q495 -233 493 -240Q481 -239 458 -231Q442 -224 423 -224Q404 -224 383 -231Q366 -231 354 -243L319 -278Q308 -289 296 -319Q268 -216 209 -131Q224 -94 232 -81Q240 -77 248 -76Q264 -74 318 -63Q372 -52 404 -52Q428 -53 449 -67Q479 -108 492 -170Q495 -185 495 -213Q495 -215 495 -220Q495 -225 495 -227ZM458 -301Q460 -302 462 -303Q456 -313 453 -316Q424 -336 368 -336Q368 -336 367 -336Q364 -330 364 -326Q371 -309 374 -302Q378 -301 383 -301Q404 -295 423 -295Q442 -295 458 -301Z"/>
	<path fill="#800080" d="M516 -227Q516 -225 516 -220Q516 -215 516 -213Q516 -185 513 -170Q496 -89 454 -46L419 -11Q390 18 355 18Q323 18 269 7Q215 -4 199 -6Q179 -8 164 -23L129 -58Q122 -65 116 -75Q105 -63 58 -16Q31 11 1 33Q-7 39 -16 39Q-28 39 -36 30.5Q-44 22 -44 11Q-44 -3 -33 -12Q21 -53 40 -70Q66 -98 89 -131Q75 -165 65 -179Q64 -180 50 -233L35 -341L29 -527Q37 -608 47 -713Q48 -717 52.5 -729.5Q57 -742 59.5 -748Q62 -754 66.5 -763Q71 -772 77 -779Q80 -783 86.5 -795.5Q93 -808 99 -813L134 -849Q140 -855 148 -856Q166 -856 179 -844L214 -809Q222 -801 227.5 -787.5Q233 -774 235.5 -764.5Q238 -755 241.5 -736Q245 -717 246 -710Q271 -599 271 -535Q271 -534 270.5 -530Q270 -526 270 -524Q271 -498 271 -491Q271 -419 255 -348Q260 -355 265 -360L301 -395Q312 -406 319 -406Q355 -406 378.5 -399Q402 -392 422 -372L457 -337Q462 -332 468 -325L485 -368Q486 -381 488 -410Q489 -423 499 -432.5Q509 -442 523 -442Q538 -442 548 -431.5Q558 -421 558 -407Q558 -405 558 -404L555 -368L525 -293Q522 -285 504 -270Q516 -247 516 -227ZM200 -535Q200 -599 176 -710Q174 -717 171 -733.5Q168 -750 165.5 -762Q163 -774 158 -785Q155 -785 152 -786Q149 -782 147 -779Q142 -772 137.5 -763Q133 -754 130.5 -748Q128 -742 123.5 -729.5Q119 -717 117 -713Q108 -608 99 -527L105 -341L120 -233Q122 -227 125 -215.5Q128 -204 130 -199Q201 -337 201 -491Q201 -498 200 -524Q200 -526 200 -530Q200 -534 200 -535ZM446 -227Q446 -233 444 -240Q432 -239 409 -231Q393 -224 374 -224Q355 -224 334 -231Q317 -231 305 -243L270 -278Q259 -289 247 -319Q219 -216 160 -131Q175 -94 183 -81Q191 -77 199 -76Q215 -74 269 -63Q323 -52 355 -52Q379 -53 400 -67Q430 -108 443 -170Q446 -185 446 -213Q446 -215 446 -220Q446 -225 446 -227ZM409 -301Q411 -302 413 -303Q407 -313 404 -316Q375 -336 319 -336Q319 -336 318 -336Q315 -330 315 -326Q322 -309 325 -302Q329 -301 334 -301Q355 -295 374 -295Q393 -295 409 -301Z"/>
	<path fill="#daa520" d="M234 -535Q234 -598 210 -709Q209 -715 206 -731.5Q203 -748 201 -756.5Q199 -765 194.5 -778Q190 -791 185 -798Q180 -805 171.5 -810.5Q163 -816 152 -816Q146 -815 140.5 -808Q135 -801 129 -790.5Q123 -780 120 -776Q110 -763 91 -712Q82 -608 73 -527L79 -341L94 -234Q108 -182 109 -181Q118 -168 129 -141Q235 -299 235 -491Q235 -507 234 -524Q234 -526 234 -529.5Q234 -533 234 -535ZM323 -366Q316 -366 305 -353Q291 -337 289 -327Q296 -308 300.5 -299Q305 -290 315 -280.5Q325 -271 338 -271Q339 -271 339 -271Q360 -265 378 -265Q396 -265 411 -271Q436 -280 449 -280H461Q457 -287 445 -305Q420 -342 394 -354Q368 -366 323 -366ZM490 -213Q490 -184 487 -169Q481 -143 471.5 -118Q462 -93 447 -68Q432 -43 409 -27.5Q386 -12 359 -12Q327 -12 272.5 -23Q218 -34 202 -36Q188 -38 176 -45.5Q164 -53 155 -67Q146 -81 140.5 -91.5Q135 -102 127 -121Q76 -49 8 2Q7 3 5 3Q0 3 0 -2Q0 -4 2 -6Q71 -58 123 -132Q109 -163 100 -176Q99 -177 99 -178Q99 -179 84 -232L69 -340Q69 -341 69 -341L63 -527V-528Q72 -607 81 -713Q81 -714 81 -715Q83 -719 87.5 -731.5Q92 -744 94.5 -750Q97 -756 101.5 -765.5Q106 -775 112 -782Q115 -786 121 -798Q127 -810 134 -817Q141 -824 151 -826Q152 -826 152 -826Q166 -826 177 -819Q188 -812 194 -803.5Q200 -795 205 -779Q210 -763 211.5 -755Q213 -747 216 -730Q219 -717 220 -711Q244 -599 244 -535Q244 -529 244 -524Q245 -507 245 -491Q245 -395 216.5 -302Q188 -209 134 -130Q145 -104 152 -90Q159 -76 173 -62Q187 -48 204 -46Q220 -44 273.5 -33Q327 -22 359 -22Q390 -23 416 -48Q442 -73 456 -104.5Q470 -136 477 -171Q480 -185 480 -213Q480 -215 480 -220Q480 -225 480 -227Q480 -246 467 -270H449Q438 -270 415 -261Q398 -255 378 -255Q359 -255 337 -261Q325 -261 315.5 -266.5Q306 -272 299 -282.5Q292 -293 289 -300Q286 -307 281 -321Q279 -325 279 -326Q279 -339 297 -359Q312 -376 323 -376Q370 -376 398.5 -362.5Q427 -349 453 -311Q468 -289 472 -281Q474 -282 490 -296L519 -369L522 -404Q522 -409 527 -409Q532 -409 532 -404L529 -368Q529 -367 529 -366L499 -291Q498 -290 497 -289Q495 -288 488 -281.5Q481 -275 477 -272Q490 -248 490 -227Q490 -225 490 -220Q490 -215 490 -213Z"/>
</svg>