<svg xmlns="http://www.w3.org/2000/svg" viewBox="0 -1024 1024 1024">
	<path fill="#000088" d="M237 -278Q237 -258 239 -220Q307 -245 339 -269Q349 -283 356 -300Q354 -301 353 -302L318 -338Q309 -347 309 -374Q309 -393 313 -402Q310 -402 308 -402Q279 -395 258 -383Q237 -347 237 -278ZM398 -43L545 -130Q552 -135 560 -135Q573 -135 582 -126Q591 -117 591 -104Q591 -87 576 -78L398 27Q397 27 350 24Q347 24 342 24Q302 24 281 15Q266 9 248 -10Q202 -56 195 -65L176 -127Q93 -95 50 -56Q42 -49 32 -49Q22 -49 14 -57Q6 -65 6 -76Q6 -87 15 -95L50 -127Q91 -165 169 -195Q166 -264 166 -278Q166 -366 203 -403L238 -438Q263 -463 308 -472Q321 -472 342.5 -473Q364 -474 375 -474Q408 -474 420 -461L456 -426Q467 -414 475 -383Q477 -378 477 -374Q477 -363 468 -355L433 -319Q432 -319 432 -318Q422 -279 394 -250L359 -215Q325 -182 241 -151Q241 -150 241 -149Q241 -148 241 -147Q241 -146 241 -146L265 -65Q274 -59 281 -55Q302 -46 342 -46H350Q397 -43 398 -43Z"/>
	<path fill="#800080" d="M188 -278Q188 -258 190 -220Q258 -245 290 -269Q300 -283 307 -300Q305 -301 304 -302L269 -338Q260 -347 260 -374Q260 -393 264 -402Q261 -402 259 -402Q230 -395 209 -383Q188 -347 188 -278ZM349 -43L496 -130Q503 -135 511 -135Q524 -135 533 -126Q542 -117 542 -104Q542 -87 527 -78L349 27Q348 27 301 24Q298 24 293 24Q253 24 232 15Q217 9 199 -10Q153 -56 146 -65L127 -127Q44 -95 1 -56Q-7 -49 -17 -49Q-27 -49 -35 -57Q-43 -65 -43 -76Q-43 -87 -34 -95L1 -127Q42 -165 120 -195Q117 -264 117 -278Q117 -366 154 -403L189 -438Q214 -463 259 -472Q272 -472 293.5 -473Q315 -474 326 -474Q359 -474 371 -461L407 -426Q418 -414 426 -383Q428 -378 428 -374Q428 -363 419 -355L384 -319Q383 -319 383 -318Q373 -279 345 -250L310 -215Q276 -182 192 -151Q192 -150 192 -149Q192 -148 192 -147Q192 -146 192 -146L216 -65Q225 -59 232 -55Q253 -46 293 -46H301Q348 -43 349 -43Z"/>
	<path fill="#daa520" d="M304 -374Q304 -337 323 -337Q348 -342 350 -343Q351 -352 351 -362Q351 -373 341 -394Q337 -404 333 -408Q330 -411 329 -411Q304 -411 304 -374ZM165 -180Q192 -190 203.5 -194Q215 -198 237.5 -207.5Q260 -217 271 -224Q282 -231 298 -243Q314 -255 322.5 -267Q331 -279 338.5 -296Q346 -313 349 -332Q344 -331 332 -329Q323 -327 323 -327Q294 -327 294 -374Q294 -421 329 -421Q335 -421 340 -415Q347 -407 354 -389Q361 -371 361 -362Q361 -354 360 -346Q391 -356 391 -374Q391 -378 390 -382Q383 -412 372 -422Q361 -433 330 -433Q319 -433 297.5 -432.5Q276 -432 264 -432Q203 -419 182.5 -381Q162 -343 162 -278Q162 -259 163.5 -221.5Q165 -184 165 -180ZM305 -16Q306 -16 324 -14.5Q342 -13 352 -13L497 -99Q499 -100 500 -100Q505 -100 505 -95Q505 -92 503 -91L356 -4Q354 -3 353 -3Q351 -3 305 -6Q301 -6 297 -6Q256 -6 234 -15Q209 -27 181 -62Q180 -63 180 -64L156 -145Q156 -145 156 -146Q156 -147 156 -148Q156 -156 156 -166Q53 -129 8 -88Q7 -87 5 -87Q0 -87 0 -92Q0 -94 2 -95Q48 -138 156 -176Q155 -184 153.5 -221Q152 -258 152 -278Q152 -310 156 -334Q160 -358 171.5 -381Q183 -404 205.5 -419.5Q228 -435 262 -442Q262 -442 263 -442Q276 -442 297.5 -442.5Q319 -443 330 -443Q358 -443 371 -435Q390 -424 400 -384Q401 -379 401 -374Q401 -346 359 -335Q357 -318 351.5 -303Q346 -288 340.5 -276.5Q335 -265 323 -253.5Q311 -242 303.5 -234.5Q296 -227 278.5 -217.5Q261 -208 253.5 -204Q246 -200 224.5 -191.5Q203 -183 196.5 -180.5Q190 -178 166 -169Q166 -158 166 -148Q166 -148 166 -147L190 -67Q217 -34 238 -25Q258 -16 297 -16Q299 -16 301 -16Q303 -16 304 -16Q305 -16 305 -16Z"/>
</svg>