<svg xmlns="http://www.w3.org/2000/svg" viewBox="0 -1024 1024 1024">
	<path fill="#000088" d="M290 -366Q252 -366 227 -352Q211 -324 206.5 -286.5Q202 -249 202 -191Q207 -174 212 -157Q318 -169 358 -193Q372 -218 372 -253Q372 -270 369 -290Q361 -336 352 -355Q329 -366 290 -366ZM304 -31Q309 -31 314 -31Q375 -40 419 -74Q434 -93 445 -116Q433 -146 422 -183Q418 -178 413 -174L378 -139Q342 -103 238 -90Q251 -63 265 -43Q284 -31 304 -31ZM440 -593L445 -416Q447 -407 450 -383Q453 -359 454 -351.5Q455 -344 458 -326Q461 -308 463.5 -296.5Q466 -285 470 -267.5Q474 -250 479 -232Q483 -264 483 -299Q480 -398 440 -593ZM412 -807Q421 -807 429 -799L464 -763Q483 -744 490 -701Q496 -665 514 -579.5Q532 -494 542 -428Q552 -362 553 -299Q553 -191 516 -116Q534 -73 552 -46Q562 -40 572 -40Q586 -40 611 -49Q617 -61 629 -84.5Q641 -108 647 -120Q656 -137 675 -137Q688 -137 697.5 -128Q707 -119 707 -106Q707 -98 703 -92L667 -20Q652 10 632 15Q626 17 614 21Q602 25 592 27.5Q582 30 572 30Q553 30 534 11L499 -24Q487 -36 474 -57Q474 -56 438 -20Q389 29 314 39Q309 40 304 40Q274 40 247 13L211 -23Q190 -44 171 -82Q89 -73 50 -56Q44 -54 37 -54Q24 -54 14.5 -63.5Q5 -73 5 -86Q5 -108 25 -116L50 -127Q84 -141 144 -149Q137 -170 132 -191Q132 -236 133.5 -263Q135 -290 144.5 -322Q154 -354 172 -372L207 -407Q236 -436 290 -436Q348 -436 372 -412L376 -408L375 -416L369 -629L384 -770Q385 -785 393.5 -796Q402 -807 412 -807Z"/>
	<path fill="#800080" d="M241 -366Q203 -366 178 -352Q162 -324 157.5 -286.5Q153 -249 153 -191Q158 -174 163 -157Q269 -169 309 -193Q323 -218 323 -253Q323 -270 320 -290Q312 -336 303 -355Q280 -366 241 -366ZM255 -31Q260 -31 265 -31Q326 -40 370 -74Q385 -93 396 -116Q384 -146 373 -183Q369 -178 364 -174L329 -139Q293 -103 189 -90Q202 -63 216 -43Q235 -31 255 -31ZM391 -593L396 -416Q398 -407 401 -383Q404 -359 405 -351.5Q406 -344 409 -326Q412 -308 414.5 -296.5Q417 -285 421 -267.5Q425 -250 430 -232Q434 -264 434 -299Q431 -398 391 -593ZM363 -807Q372 -807 380 -799L415 -763Q434 -744 441 -701Q447 -665 465 -579.5Q483 -494 493 -428Q503 -362 504 -299Q504 -191 467 -116Q485 -73 503 -46Q513 -40 523 -40Q537 -40 562 -49Q568 -61 580 -84.5Q592 -108 598 -120Q607 -137 626 -137Q639 -137 648.5 -128Q658 -119 658 -106Q658 -98 654 -92L618 -20Q603 10 583 15Q577 17 565 21Q553 25 543 27.5Q533 30 523 30Q504 30 485 11L450 -24Q438 -36 425 -57Q425 -56 389 -20Q340 29 265 39Q260 40 255 40Q225 40 198 13L162 -23Q141 -44 122 -82Q40 -73 1 -56Q-5 -54 -12 -54Q-25 -54 -34.5 -63.5Q-44 -73 -44 -86Q-44 -108 -24 -116L1 -127Q35 -141 95 -149Q88 -170 83 -191Q83 -236 84.5 -263Q86 -290 95.5 -322Q105 -354 123 -372L158 -407Q187 -436 241 -436Q299 -436 323 -412L327 -408L326 -416L320 -629L335 -770Q336 -785 344.5 -796Q353 -807 363 -807Z"/>
	<path fill="#daa520" d="M357 -253Q357 -270 354 -289Q345 -343 332 -362Q311 -396 245 -396Q221 -396 202.5 -390Q184 -384 171.5 -374.5Q159 -365 150.5 -348.5Q142 -332 137.5 -317Q133 -302 130.5 -278Q128 -254 127.5 -236.5Q127 -219 127 -192Q136 -157 148 -125Q173 -128 184.5 -129Q196 -130 218 -133.5Q240 -137 251 -140Q262 -143 279.5 -148.5Q297 -154 306 -160Q315 -166 326.5 -175Q338 -184 343.5 -195.5Q349 -207 353 -221.5Q357 -236 357 -253ZM468 -299Q466 -362 456.5 -428Q447 -494 429 -579Q411 -664 405 -700Q401 -723 392 -741Q386 -755 378 -761L364 -629L370 -416L382 -330Q398 -228 436 -129Q468 -199 468 -299ZM141 -114Q47 -104 7 -87Q6 -87 5 -87Q0 -87 0 -92Q0 -95 3 -96Q45 -114 138 -124Q126 -155 117 -190Q117 -190 117 -191Q117 -219 117.5 -236Q118 -253 120.5 -278.5Q123 -304 128 -319.5Q133 -335 142.5 -353.5Q152 -372 165 -382Q178 -392 198.5 -399Q219 -406 245 -406Q316 -406 341 -368Q355 -346 364 -291Q367 -271 367 -253Q367 -235 363 -219Q359 -203 353 -191Q347 -179 334.5 -169Q322 -159 312.5 -152Q303 -145 284.5 -139Q266 -133 254.5 -130Q243 -127 221 -123.5Q199 -120 187.5 -119Q176 -118 152 -115Q165 -81 181 -57Q217 0 259 0Q264 0 268 -1Q379 -17 430 -116Q389 -218 372 -328L360 -415V-416L354 -629V-630L369 -771Q370 -775 374 -775Q375 -775 376 -775Q391 -768 401 -746Q411 -724 415 -702Q421 -666 439 -580.5Q457 -495 466.5 -428.5Q476 -362 478 -299Q478 -191 441 -116Q485 -10 527 -10Q536 -10 545.5 -12.5Q555 -15 566.5 -19Q578 -23 584 -24L619 -94Q620 -97 623 -97Q628 -97 628 -92Q628 -90 627 -89L591 -18Q590 -16 588 -15Q582 -14 570 -9.5Q558 -5 547.5 -2.5Q537 0 527 0Q522 -6 502 -22Q482 -38 464 -58.5Q446 -79 435 -105Q381 -7 270 9Q264 10 259 10Q191 10 141 -114Z"/>
</svg>