<svg xmlns="http://www.w3.org/2000/svg" viewBox="0 -1024 1024 1024">
	<path fill="#000088" d="M345 -238Q345 -255 342 -275Q332 -332 318 -353Q301 -356 280 -356Q231 -356 202 -332Q192 -293 192 -206Q197 -188 203 -169Q305 -181 343 -212Q345 -224 345 -238ZM277 -41Q282 -41 287 -41Q366 -53 416 -107Q405 -135 395 -169L383 -148Q366 -118 330 -103.5Q294 -89 240 -81Q253 -57 268 -41Q273 -41 277 -41ZM434 -477L435 -431Q449 -330 455 -300Q452 -376 434 -477ZM388 -816Q391 -816 395 -814L447 -784Q471 -770 480 -716Q486 -680 504 -595Q522 -510 532 -443.5Q542 -377 543 -314Q545 -209 506 -132Q527 -79 549 -50Q557 -51 565.5 -53Q574 -55 584.5 -59Q595 -63 600 -64L636 -136L693 -107L657 -35Q627 24 622 25Q616 27 604 31Q592 35 582 37.5Q572 40 562 40Q551 40 540 34L488 4Q469 -7 450 -37Q398 36 304 49Q299 50 294 50Q276 50 259 40L207 10Q172 -10 143 -70Q76 -62 40 -46L5 -129L23 -137Q56 -151 110 -158Q107 -167 105 -176Q105 -214 106 -237Q107 -260 112.5 -288.5Q118 -317 129 -336L164 -397Q193 -446 263 -446Q307 -446 331 -432L347 -423L342 -614L357 -755Q360 -779 369 -797.5Q378 -816 388 -816Z"/>
	<path fill="#800080" d="M241 -366Q203 -366 178 -352Q162 -324 157.5 -286.5Q153 -249 153 -191Q158 -174 163 -157Q269 -169 309 -193Q323 -218 323 -253Q323 -270 320 -290Q312 -336 303 -355Q280 -366 241 -366ZM255 -31Q260 -31 265 -31Q326 -40 370 -75Q385 -93 396 -116Q384 -146 373 -183Q369 -178 364 -174L329 -139Q293 -103 189 -90Q202 -63 216 -43Q235 -31 255 -31ZM391 -593L396 -416Q398 -407 401 -383Q404 -359 405 -351.5Q406 -344 409 -326Q412 -308 414.5 -296.5Q417 -285 421 -267.5Q425 -250 430 -232Q434 -264 434 -299Q431 -398 391 -593ZM363 -807Q372 -807 380 -799L415 -763Q434 -744 441 -701Q447 -665 465 -579.5Q483 -494 493 -428Q503 -362 504 -299Q504 -191 467 -116Q485 -73 503 -46Q513 -40 523 -40Q537 -40 562 -49L598 -120Q607 -137 626 -137Q639 -137 648.5 -128Q658 -119 658 -106Q658 -98 654 -92L618 -20Q603 10 583 15Q577 17 565 21Q553 25 543 27.5Q533 30 523 30Q504 30 485 11L450 -24Q438 -36 425 -57Q425 -56 389 -20Q340 29 265 39Q260 40 255 40Q225 40 198 13L162 -23Q141 -44 122 -82Q40 -73 1 -56Q-5 -54 -12 -54Q-25 -54 -34.5 -63.5Q-44 -73 -44 -86Q-44 -108 -24 -116L1 -127Q35 -141 95 -149Q88 -170 83 -191Q83 -236 84.5 -263Q86 -290 95.5 -322Q105 -354 123 -372L158 -407Q187 -436 241 -436Q299 -436 323 -412L327 -408L326 -416L320 -629L335 -770Q336 -785 344.5 -796Q353 -807 363 -807Z"/>
	<path fill="#daa520" d="M377 -253Q377 -270 374 -289Q365 -343 352 -362Q331 -396 265 -396Q241 -396 222.5 -390Q204 -384 191.5 -374.5Q179 -365 170.5 -348.5Q162 -332 157.5 -317Q153 -302 150.5 -278Q148 -254 147.5 -236.5Q147 -219 147 -192Q156 -157 168 -125Q193 -128 204.5 -129Q216 -130 238 -133.5Q260 -137 271 -140Q282 -143 299.5 -148.5Q317 -154 326 -160Q335 -166 346.5 -175Q358 -184 363.5 -195.5Q369 -207 373 -221.5Q377 -236 377 -253ZM488 -299Q486 -362 476.5 -428Q467 -494 449 -579Q431 -664 425 -700Q421 -723 412 -741Q406 -755 398 -761L384 -629L390 -416L402 -330Q418 -228 456 -129Q488 -199 488 -299ZM161 -114Q67 -104 27 -87Q26 -87 25 -87Q20 -87 20 -92Q20 -95 23 -96Q65 -114 158 -124Q146 -155 137 -190Q137 -190 137 -191Q137 -219 137.5 -236Q138 -253 140.5 -278.5Q143 -304 148 -319.5Q153 -335 162.5 -353.5Q172 -372 185 -382Q198 -392 218.5 -399Q239 -406 265 -406Q336 -406 361 -368Q375 -346 384 -291Q387 -271 387 -253Q387 -235 383 -219Q379 -203 373 -191Q367 -179 354.5 -169Q342 -159 332.5 -152Q323 -145 304.5 -139Q286 -133 274.5 -130Q263 -127 241 -123.5Q219 -120 207.5 -119Q196 -118 172 -115Q185 -81 201 -57Q237 0 279 0Q284 0 288 -1Q399 -17 450 -116Q409 -218 392 -328L380 -415V-416L374 -629V-630L389 -771Q390 -775 394 -775Q395 -775 396 -775Q411 -768 421 -746Q431 -724 435 -702Q441 -666 459 -580.5Q477 -495 486.5 -428.5Q496 -362 498 -299Q498 -191 461 -116Q505 -10 547 -10Q556 -10 565.5 -12.5Q575 -15 586.5 -19Q598 -23 604 -24L639 -94Q640 -97 643 -97Q648 -97 648 -92Q648 -90 647 -89L611 -18Q610 -16 608 -15Q602 -14 590 -9.5Q578 -5 567.5 -2.5Q557 0 547 0Q542 -6 522 -22Q502 -38 484 -58.5Q466 -79 455 -105Q401 -7 290 9Q284 10 279 10Q211 10 161 -114Z"/>
</svg>