<svg xmlns="http://www.w3.org/2000/svg" viewBox="0 -1024 1024 1024">
	<path fill="#000088" d="M290 -366Q252 -366 227 -352Q211 -324 206.5 -286.5Q202 -249 202 -191Q207 -174 212 -157Q318 -169 358 -193Q372 -218 372 -253Q372 -270 369 -290Q361 -336 352 -355Q329 -366 290 -366ZM304 -31Q309 -31 314 -31Q375 -40 419 -74Q434 -93 445 -116Q433 -146 422 -183Q418 -178 413 -174L378 -139Q342 -103 238 -90Q251 -63 265 -43Q284 -31 304 -31ZM440 -593L445 -416Q447 -407 450 -383Q453 -359 454 -351.5Q455 -344 458 -326Q461 -308 463.5 -296.5Q466 -285 470 -267.5Q474 -250 479 -232Q483 -264 483 -299Q480 -398 440 -593ZM412 -807Q421 -807 429 -799L464 -763Q483 -744 490 -701Q496 -665 514 -579.5Q532 -494 542 -428Q552 -362 553 -299Q553 -191 516 -116Q534 -73 552 -46Q562 -40 572 -40Q586 -40 611 -49Q617 -61 629 -84.5Q641 -108 647 -120Q656 -137 675 -137Q688 -137 697.5 -128Q707 -119 707 -106Q707 -98 703 -92L667 -20Q652 10 632 15Q626 17 614 21Q602 25 592 27.5Q582 30 572 30Q553 30 534 11L499 -24Q487 -36 474 -57Q474 -56 438 -20Q389 29 314 39Q309 40 304 40Q274 40 247 13L211 -23Q190 -44 171 -82Q89 -73 50 -56Q44 -54 37 -54Q24 -54 14.5 -63.5Q5 -73 5 -86Q5 -108 25 -116L50 -127Q84 -141 144 -149Q137 -170 132 -191Q132 -236 133.5 -263Q135 -290 144.5 -322Q154 -354 172 -372L207 -407Q236 -436 290 -436Q348 -436 372 -412L376 -408L375 -416L369 -629L384 -770Q385 -785 393.5 -796Q402 -807 412 -807Z"/>
	<path fill="#800080" d="M241 -366Q203 -366 178 -352Q162 -324 157.5 -286.5Q153 -249 153 -191Q158 -174 163 -157Q269 -169 309 -193Q323 -218 323 -253Q323 -270 320 -290Q312 -336 303 -355Q280 -366 241 -366ZM255 -31Q260 -31 265 -31Q326 -40 370 -75Q385 -93 396 -116Q384 -146 373 -183Q369 -178 364 -174L329 -139Q293 -103 189 -90Q202 -63 216 -43Q235 -31 255 -31ZM391 -593L396 -416Q398 -407 401 -383Q404 -359 405 -351.5Q406 -344 409 -326Q412 -308 414.5 -296.5Q417 -285 421 -267.5Q425 -250 430 -232Q434 -264 434 -299Q431 -398 391 -593ZM363 -807Q372 -807 380 -799L415 -763Q434 -744 441 -701Q447 -665 465 -579.5Q483 -494 493 -428Q503 -362 504 -299Q504 -191 467 -116Q485 -73 503 -46Q513 -40 523 -40Q537 -40 562 -49L598 -120Q607 -137 626 -137Q639 -137 648.5 -128Q658 -119 658 -106Q658 -98 654 -92L618 -20Q603 10 583 15Q577 17 565 21Q553 25 543 27.5Q533 30 523 30Q504 30 485 11L450 -24Q438 -36 425 -57Q425 -56 389 -20Q340 29 265 39Q260 40 255 40Q225 40 198 13L162 -23Q141 -44 122 -82Q40 -73 1 -56Q-5 -54 -12 -54Q-25 -54 -34.5 -63.5Q-44 -73 -44 -86Q-44 -108 -24 -116L1 -127Q35 -141 95 -149Q88 -170 83 -191Q83 -236 84.5 -263Q86 -290 95.5 -322Q105 -354 123 -372L158 -407Q187 -436 241 -436Q299 -436 323 -412L327 -408L326 -416L320 -629L335 -770Q336 -785 344.5 -796Q353 -807 363 -807Z"/>
	<path fill="#daa520" d="M377 -253Q377 -270 374 -289Q365 -343 352 -362Q331 -396 265 -396Q241 -396 222.5 -390Q204 -384 191.5 -374.5Q179 -365 170.5 -348.5Q162 -332 157.5 -317Q153 -302 150.5 -278Q148 -254 147.5 -236.5Q147 -219 147 -192Q156 -157 168 -125Q193 -128 204.5 -129Q216 -130 238 -133.5Q260 -137 271 -140Q282 -143 299.5 -148.5Q317 -154 326 -160Q335 -166 346.5 -175Q358 -184 363.5 -195.5Q369 -207 373 -221.5Q377 -236 377 -253ZM488 -299Q486 -362 476.5 -428Q467 -494 449 -579Q431 -664 425 -700Q421 -723 412 -741Q406 -755 398 -761L384 -629L390 -416L402 -330Q418 -228 456 -129Q488 -199 488 -299ZM161 -114Q67 -104 27 -87Q26 -87 25 -87Q20 -87 20 -92Q20 -95 23 -96Q65 -114 158 -124Q146 -155 137 -190Q137 -190 137 -191Q137 -219 137.5 -236Q138 -253 140.5 -278.5Q143 -304 148 -319.5Q153 -335 162.5 -353.5Q172 -372 185 -382Q198 -392 218.5 -399Q239 -406 265 -406Q336 -406 361 -368Q375 -346 384 -291Q387 -271 387 -253Q387 -235 383 -219Q379 -203 373 -191Q367 -179 354.5 -169Q342 -159 332.5 -152Q323 -145 304.5 -139Q286 -133 274.5 -130Q263 -127 241 -123.5Q219 -120 207.5 -119Q196 -118 172 -115Q185 -81 201 -57Q237 0 279 0Q284 0 288 -1Q399 -17 450 -116Q409 -218 392 -328L380 -415V-416L374 -629V-630L389 -771Q390 -775 394 -775Q395 -775 396 -775Q411 -768 421 -746Q431 -724 435 -702Q441 -666 459 -580.5Q477 -495 486.5 -428.5Q496 -362 498 -299Q498 -191 461 -116Q505 -10 547 -10Q556 -10 565.5 -12.5Q575 -15 586.5 -19Q598 -23 604 -24L639 -94Q640 -97 643 -97Q648 -97 648 -92Q648 -90 647 -89L611 -18Q610 -16 608 -15Q602 -14 590 -9.5Q578 -5 567.5 -2.5Q557 0 547 0Q542 -6 522 -22Q502 -38 484 -58.5Q466 -79 455 -105Q401 -7 290 9Q284 10 279 10Q211 10 161 -114Z"/>
</svg>