<svg xmlns="http://www.w3.org/2000/svg" viewBox="0 -1024 1024 1024">
	<path fill="#000088" d="M219 -163Q315 -194 375 -245Q420 -299 428 -367Q391 -378 347 -378Q348 -378 348 -378Q346 -378 331.5 -372.5Q317 -367 297.5 -357.5Q278 -348 267 -338Q226 -290 226 -257Q219 -169 219 -163ZM156 -257Q156 -277 172 -304Q188 -331 213 -357L249 -392Q305 -448 347 -448Q373 -448 408.5 -442Q444 -436 458 -422L493 -387Q499 -381 499 -374Q492 -290 429 -227L394 -192Q331 -129 219 -92Q222 -71 233 -54Q271 -29 323 -29Q337 -29 350 -31Q394 -38 426.5 -49Q459 -60 477.5 -71Q496 -82 533 -108Q547 -118 555 -123L579 -155Q587 -168 602 -168Q614 -168 622.5 -159.5Q631 -151 631 -139Q631 -130 625 -122L611 -101Q594 -79 575 -66Q559 -55 533 -37Q496 -11 477.5 0Q459 11 426.5 22Q394 33 350 39Q337 41 323 41Q254 41 213 1L178 -35Q161 -52 153 -74Q102 -62 50 -57Q48 -56 47 -56Q32 -56 21.5 -66.5Q11 -77 11 -92Q11 -105 20.5 -115Q30 -125 43 -127Q100 -132 149 -143Q148 -152 148 -162Q148 -169 156 -257Z"/>
	<path fill="#800080" d="M170 -163Q266 -194 326 -245Q371 -299 379 -367Q342 -378 298 -378Q299 -378 299 -378Q297 -378 282.5 -372.5Q268 -367 248.5 -357.5Q229 -348 218 -338Q177 -290 177 -257Q170 -169 170 -163ZM107 -257Q107 -277 123 -304Q139 -331 164 -357L200 -392Q256 -448 298 -448Q324 -448 359.5 -442Q395 -436 409 -422L444 -387Q450 -381 450 -374Q443 -290 380 -227L345 -192Q282 -129 170 -92Q173 -71 184 -54Q222 -29 274 -29Q288 -29 301 -31Q345 -38 377.5 -49Q410 -60 428.5 -71Q447 -82 484 -108Q498 -118 506 -123L530 -155Q538 -168 553 -168Q565 -168 573.5 -159.5Q582 -151 582 -139Q582 -130 576 -122L562 -101Q545 -79 526 -66Q510 -55 484 -37Q447 -11 428.5 0Q410 11 377.5 22Q345 33 301 39Q288 41 274 41Q205 41 164 1L129 -35Q112 -52 104 -74Q53 -62 1 -57Q-1 -56 -2 -56Q-17 -56 -27.5 -66.5Q-38 -77 -38 -92Q-38 -105 -28.5 -115Q-19 -125 -6 -127Q51 -132 100 -143Q99 -152 99 -162Q99 -169 107 -257Z"/>
	<path fill="#daa520" d="M143 -123Q196 -138 240 -159Q284 -180 323 -210.5Q362 -241 386 -283Q410 -325 414 -374Q414 -389 377 -399Q341 -408 302 -408Q267 -408 217 -362Q189 -337 170 -307Q151 -277 151 -257Q144 -169 144 -162Q144 -147 145 -135Q145 -134 145 -134Q145 -132 144.5 -128Q144 -124 143 -123ZM278 1Q291 1 304 -1Q367 -10 399.5 -25Q432 -40 485 -76Q511 -94 526 -105L541 -125Q542 -127 545 -127Q550 -127 550 -122Q550 -120 549 -119L534 -98Q534 -97 533 -97Q517 -86 491 -68Q454 -42 435 -31Q416 -20 383 -8.5Q350 3 306 9Q292 11 278 11Q220 11 176.5 -21Q133 -53 133 -109V-110Q71 -94 6 -87H5Q0 -87 0 -92Q0 -97 4 -97Q71 -104 133 -120Q134 -127 135 -134Q134 -147 134 -162Q134 -170 141 -257Q141 -281 160.5 -312Q180 -343 210 -370Q263 -418 302 -418Q343 -418 379 -408Q424 -397 424 -374Q419 -321 394 -277Q369 -233 328.5 -202Q288 -171 242.5 -149Q197 -127 143 -112Q143 -111 143 -109Q143 -58 183 -28.5Q223 1 278 1Z"/>
</svg>