<svg xmlns="http://www.w3.org/2000/svg" viewBox="0 -1024 1024 1024">
	<path fill="#000088" d="M51 -47L5 -119L34 -137Q44 -144 59.5 -161.5Q75 -179 80 -183Q82 -186 85 -189L100 -234L170 -211L162 -187Q155 -166 127 -127Q113 -108 97 -93Q92 -88 76.5 -70.5Q61 -53 51 -47ZM304 -61Q298 -61 286 -61.5Q274 -62 268 -62Q255 -62 247 -61Q209 -56 190 -56Q167 -56 154 -63L102 -93Q87 -102 82 -124Q77 -146 77 -191Q77 -193 77 -195Q77 -259 112 -321L147 -381Q192 -459 254 -459Q280 -459 306 -444L358 -414Q365 -410 372 -405Q377 -402 385.5 -385Q394 -368 400 -352L406 -337L412 -207L411 -158L418 -155Q417 -153 411 -143L410 -80L422 -100Q424 -104 441 -122L449 -137L502 -107L459 -33Q450 -23 444 -16L433 3Q423 21 403 33Q401 53 390 127L372 179Q368 188 337 239Q320 266 297 266Q293 266 289 265Q283 266 278 266Q254 266 237 256L185 226Q166 215 161 195Q142 165 142 138Q142 134 143 129Q143 106 152 89L187 28Q194 17 204 8.5Q214 0 230.5 -6.5Q247 -13 258 -16Q269 -19 292 -24.5Q315 -30 323 -32V-62Q315 -61 304 -61ZM280 176Q289 176 298 171L303 157Q315 84 316 64Q252 79 230 93Q230 96 230 99Q229 103 229 108Q229 135 248 165Q249 170 251 175Q256 175 261.5 175Q267 175 272 175Q276 176 280 176ZM287 -152Q310 -152 324 -155L325 -177L319 -307Q303 -347 291 -366Q281 -368 271 -368Q223 -368 183 -319Q163 -270 163 -225Q163 -223 164 -221Q164 -168 171 -146Q172 -146 173 -146Q192 -146 230 -151Q238 -152 251 -152Q257 -152 269 -152Q281 -152 287 -152Z"/>
	<path fill="#800080" d="M-16 -52Q-28 -52 -37 -61Q-46 -70 -46 -82Q-46 -99 -32 -107Q0 -127 0 -128Q4 -131 25 -152Q34 -162 41 -172L56 -217Q63 -240 88 -240Q101 -240 111 -230Q121 -220 121 -207Q121 -201 119 -196L111 -172Q101 -157 70 -126Q70 -126 62 -117Q54 -108 50 -104L15 -69Q7 -61 0 -56.5Q-7 -52 -16 -52ZM254 -71Q248 -71 236 -71.5Q224 -72 218 -72Q205 -72 196 -71Q158 -66 140 -66Q109 -66 96 -79L61 -114Q43 -132 43 -206Q43 -208 43 -210Q43 -253 61.5 -300.5Q80 -348 110 -379L146 -414Q181 -449 221 -449Q253 -449 286 -425Q287 -425 287 -424L323 -389Q328 -384 336 -367Q344 -350 350 -336L355 -322L361 -192V-176Q371 -167 371 -154Q371 -142 361 -129L360 -64L373 -78L398 -122Q407 -138 425 -138Q437 -138 446 -129Q455 -120 455 -107Q455 -99 451 -92L443 -78Q425 -58 423 -54Q417 -37 404 -25L369 11Q363 16 357 21L349 82L339 142L321 194Q316 202 311 208L275 243Q262 256 247 256Q242 256 238 255Q233 256 228 256Q194 256 174 237L139 201Q130 192 127 180Q108 150 108 123Q108 119 109 114Q109 80 129 59L165 24Q174 15 191 7Q208 -1 218.5 -4.5Q229 -8 256 -14Q283 -20 289 -22V-74Q275 -71 254 -71ZM247 186Q250 186 254 185L269 142Q281 68 282 50Q277 52 258 56.5Q239 61 230.5 63Q222 65 208.5 69.5Q195 74 186 79Q179 94 179 114Q179 119 179 123Q179 150 197 180Q211 185 228 185Q233 185 238 185Q242 186 247 186ZM254 -142Q276 -142 290 -145L291 -192L285 -322Q275 -347 265 -367Q243 -378 221 -378Q191 -378 164 -359Q141 -328 127 -287Q113 -246 113 -210Q113 -208 113 -206Q113 -159 119 -138Q128 -136 140 -136Q158 -136 196 -141Q205 -142 218 -142Q224 -142 236 -142Q248 -142 254 -142Z"/>
	<path fill="#daa520" d="M25 -87Q20 -87 20 -92Q20 -95 22 -96Q32 -102 47.5 -119.5Q63 -137 68 -142Q84 -156 96 -174L104 -198Q105 -201 109 -201Q114 -201 114 -196Q114 -195 114 -194L106 -170Q106 -170 105 -169Q92 -150 74 -134Q70 -130 54.5 -112.5Q39 -95 28 -88Q26 -87 25 -87ZM279 -102Q273 -102 261 -102Q249 -102 243 -102Q230 -102 222 -101Q184 -96 165 -96Q120 -96 107 -126Q98 -149 98 -206Q98 -208 98 -210Q98 -254 116 -301.5Q134 -349 169 -384Q204 -419 246 -419Q280 -419 314 -394Q321 -389 334 -360Q350 -327 350 -322L356 -192V-145Q356 -145 357 -145Q362 -145 362 -140Q362 -139 362 -138Q359 -132 355 -128L354 -5Q395 -23 408 -56Q411 -62 429 -81L437 -94Q438 -97 441 -97Q446 -97 446 -92Q446 -91 445 -90L437 -76Q437 -75 433 -70.5Q429 -66 424.5 -60.5Q420 -55 418 -52Q402 -13 353 6L344 83L334 143Q334 143 334 144L316 196Q316 196 315 197Q297 226 272 226Q267 226 263 225Q258 226 253 226Q228 226 208 214.5Q188 203 182 182Q164 151 164 123Q164 118 164 114Q164 93 172 77.5Q180 62 189.5 52.5Q199 43 218.5 35Q238 27 250 24Q262 21 286 15Q325 6 344 -1Q344 -23 344.5 -65Q345 -107 345 -117Q325 -102 279 -102ZM272 216Q291 216 306 192L324 141L334 81L343 10Q326 16 288 25Q264 30 252 33.5Q240 37 222.5 44Q205 51 196 59.5Q187 68 180.5 82Q174 96 174 114Q174 116 174 119Q174 122 174 123Q174 149 191 177Q192 178 192 179Q197 196 214 206Q231 216 253 216Q255 216 258 215.5Q261 215 262.5 215Q264 215 267 215.5Q270 216 272 216ZM108 -206Q108 -151 117 -130Q122 -117 133 -111.5Q144 -106 165 -106Q183 -106 220 -111Q229 -112 243 -112Q249 -112 261 -112Q273 -112 279 -112Q328 -112 345 -131L346 -192L340 -321Q333 -340 325 -356Q313 -382 308 -386Q277 -409 246 -409Q209 -409 176 -376.5Q143 -344 125.5 -298.5Q108 -253 108 -210Q108 -209 108 -208Q108 -207 108 -206Z"/>
</svg>