<svg xmlns="http://www.w3.org/2000/svg" viewBox="0 -1024 1024 1024">
	<path fill="#000088" d="M481 -130Q481 -144 482 -170.5Q483 -197 483 -209Q483 -217 482.5 -231Q482 -245 482 -251Q481 -339 463 -373Q458 -375 452 -378Q438 -378 419 -364Q415 -358 403 -344Q390 -327 377.5 -290.5Q365 -254 358 -242Q357 -237 351 -223Q345 -209 345 -200Q345 -196 346 -191L328 -98L319 4Q318 17 309 27Q298 37 283.5 37Q269 37 259 27Q249 17 249 4L243 -104L234 -182V-203L233 -204Q217 -183 164 -129Q113 -79 50 -56Q45 -54 39 -54Q25 -54 15.5 -64Q6 -74 6 -88Q6 -111 28 -119L50 -127Q102 -145 146 -183Q189 -233 221 -304Q217 -331 213.5 -362.5Q210 -394 206.5 -432Q203 -470 201 -491L183 -641L177 -758L183 -821L186 -827Q194 -843 203.5 -852.5Q213 -862 221 -862Q231 -862 238 -855L274 -820Q282 -811 290 -782Q295 -764 298 -758Q315 -648 325 -584L328 -413Q314 -355 291 -304L297 -262Q300 -269 306 -288.5Q312 -308 318 -320.5Q324 -333 333 -344Q355 -372 367 -384L403 -420Q431 -448 452 -448Q470 -441 483 -429L518 -393Q534 -378 542 -351Q550 -324 551 -305Q552 -286 553 -251Q553 -245 553.5 -231Q554 -217 554 -209Q554 -197 553 -170.5Q552 -144 552 -130Q552 -69 563 -38Q566 -37 569 -37Q573 -37 578 -39L600 -68Q613 -94 626 -120Q635 -137 654 -137Q667 -137 676.5 -128Q686 -119 686 -106Q686 -98 682 -92L670 -68L625 -8Q601 24 590 27Q588 28 584 29.5Q580 31 576.5 32Q573 33 569 33Q553 33 542 22L507 -13Q481 -39 481 -130Z"/>
	<path fill="#800080" d="M432 -130Q432 -144 433 -170.5Q434 -197 434 -209Q434 -217 433.5 -231Q433 -245 433 -251Q432 -339 414 -373Q409 -375 403 -378Q389 -378 370 -364Q366 -358 354 -344Q341 -327 328.5 -290.5Q316 -254 309 -242Q308 -237 302 -223Q296 -209 296 -200Q296 -196 297 -191L279 -98L270 4Q269 17 260 27Q249 37 234.5 37Q220 37 210 27Q200 17 200 4L194 -104L185 -182V-203L184 -204Q168 -183 115 -129Q64 -79 1 -56Q-4 -54 -10 -54Q-24 -54 -33.5 -64Q-43 -74 -43 -88Q-43 -111 -21 -119L1 -127Q53 -145 97 -183Q140 -233 172 -304Q168 -331 164.5 -362.5Q161 -394 157.5 -432Q154 -470 152 -491L134 -641L128 -758L134 -821L137 -827Q145 -843 154.5 -852.5Q164 -862 172 -862Q182 -862 189 -855L225 -820Q233 -811 241 -782Q246 -764 249 -758Q266 -648 276 -584L279 -413Q265 -355 242 -304L248 -262Q251 -269 257 -288.5Q263 -308 269 -320.5Q275 -333 284 -344Q306 -372 318 -384L354 -420Q382 -448 403 -448Q421 -441 434 -429L469 -393Q485 -378 493 -351Q501 -324 502 -305Q503 -286 504 -251Q504 -245 504.5 -231Q505 -217 505 -209Q505 -197 504 -170.5Q503 -144 503 -130Q503 -69 514 -38Q517 -37 520 -37Q524 -37 529 -39L551 -68Q564 -94 577 -120Q586 -137 605 -137Q618 -137 627.5 -128Q637 -119 637 -106Q637 -98 633 -92L621 -68L576 -8Q552 24 541 27Q539 28 535 29.5Q531 31 527.5 32Q524 33 520 33Q504 33 493 22L458 -13Q432 -39 432 -130Z"/>
	<path fill="#daa520" d="M243 -414L240 -584Q230 -647 213 -756Q210 -763 205 -781Q202 -794 199 -801Q196 -808 191 -814.5Q186 -821 179 -822L178 -820L172 -758L178 -641L196 -492Q197 -478 203 -416.5Q209 -355 213 -323Q231 -366 243 -414ZM476 -130Q476 -7 524 -7Q526 -7 542 -12L586 -71L598 -94Q599 -97 602 -97Q607 -97 607 -92Q607 -90 606 -89L594 -66Q594 -65 594 -65L549 -5Q548 -4 546 -3Q544 -2 540 -0.5Q536 1 532 2Q528 3 524 3Q466 3 466 -130Q466 -144 467 -170.5Q468 -197 468 -209Q468 -217 467.5 -231Q467 -245 467 -251Q467 -276 466.5 -290.5Q466 -305 462.5 -327Q459 -349 453 -362Q447 -375 435 -388Q423 -401 406 -408Q391 -407 371 -390Q355 -376 327 -341Q314 -325 301.5 -288.5Q289 -252 283 -240Q282 -236 276 -222Q270 -208 270 -200Q270 -196 271 -192Q271 -192 271 -191.5Q271 -191 271 -190L253 -97L244 4Q244 9 239 9Q234 9 234 4L228 -104L219 -181Q219 -182 219 -182V-203L208 -286Q135 -132 7 -87Q6 -87 5 -87Q0 -87 0 -92Q0 -95 3 -96Q133 -142 206 -304Q202 -331 199 -362.5Q196 -394 192 -431.5Q188 -469 186 -490L168 -640Q168 -641 168 -641L162 -758Q162 -758 162 -758L168 -821Q168 -822 169 -823Q173 -832 176 -832Q188 -832 196.5 -822.5Q205 -813 208 -805.5Q211 -798 215 -783Q219 -766 222 -761Q223 -760 223 -759Q239 -649 250 -585Q250 -584 250 -584L253 -413Q253 -412 253 -412Q238 -354 216 -303L229 -204Q229 -203 229 -203V-182L238 -105V-104L240 -66L243 -98Q243 -99 243 -99L261 -191Q260 -195 260 -200Q260 -210 266 -224Q272 -238 273 -243Q273 -244 274 -244Q280 -257 292.5 -293.5Q305 -330 319 -347Q348 -383 364 -397Q388 -418 407 -418Q408 -418 409 -418Q428 -410 441.5 -395.5Q455 -381 462 -367Q469 -353 472.5 -328.5Q476 -304 476.5 -291Q477 -278 477 -251Q477 -245 477.5 -231Q478 -217 478 -209Q478 -197 477 -170.5Q476 -144 476 -130Z"/>
</svg>