<svg xmlns="http://www.w3.org/2000/svg" viewBox="0 -1024 1024 1024">
	<path fill="#000088" d="M450 -114Q450 -128 451 -155Q452 -182 452 -194Q452 -202 451.5 -215.5Q451 -229 451 -236Q450 -267 449.5 -284Q449 -301 443 -325.5Q437 -350 426 -366Q402 -358 365 -313Q349 -269 343 -257Q342 -252 336 -238Q330 -224 330 -215Q330 -211 331 -206L313 -113L304 -11Q303 6 291 22Q272 49 246 49Q234 49 226 40.5Q218 32 217 19L211 -89L202 -167V-186Q135 -82 35 -46L5 -132L18 -137Q114 -171 180 -268Q185 -278 189 -288Q186 -315 182.5 -346.5Q179 -378 175.5 -416Q172 -454 169 -476L151 -626L145 -743L151 -806L154 -812Q185 -872 189 -872Q196 -872 202 -869L254 -839Q266 -832 275 -797Q280 -779 283 -773Q300 -663 310 -599L313 -428Q299 -370 276 -319L280 -289Q286 -304 292 -315L327 -376Q332 -383 339 -392Q391 -458 420 -458Q428 -456 434 -452L486 -422Q500 -414 510.5 -399.5Q521 -385 526 -372Q531 -359 534 -337.5Q537 -316 537 -303Q537 -290 538 -266Q538 -260 538.5 -246Q539 -232 539 -225Q539 -212 538 -185.5Q537 -159 537 -145Q537 -81 549 -50Q556 -53 558 -53L590 -96L611 -136L667 -107L655 -83Q633 -40 620 -23L575 37Q573 38 569 39.5Q565 41 561.5 42Q558 43 554 43Q544 43 535 38L483 8Q450 -11 450 -114Z"/>
	<path fill="#800080" d="M432 -130Q432 -144 433 -170.5Q434 -197 434 -209Q434 -217 433.5 -231Q433 -245 433 -251Q432 -339 414 -373Q409 -375 403 -378Q389 -378 370 -364Q366 -358 354 -344Q341 -327 328.5 -290.5Q316 -254 309 -242Q308 -237 302 -223Q296 -209 296 -200Q296 -196 297 -191L279 -98L270 4Q269 17 260 27Q249 37 234.5 37Q220 37 210 27Q200 17 200 4L194 -104L185 -182V-203L184 -204Q168 -183 115 -129Q64 -79 1 -56Q-4 -54 -10 -54Q-24 -54 -33.5 -64Q-43 -74 -43 -88Q-43 -111 -21 -119L1 -127Q53 -145 97 -183Q140 -233 172 -304Q168 -331 164.5 -362.5Q161 -394 157.5 -432Q154 -470 152 -491L134 -641L128 -758L134 -821L137 -827Q145 -843 154.5 -852.5Q164 -862 172 -862Q182 -862 189 -855L225 -820Q233 -811 241 -782Q246 -764 249 -758Q266 -648 276 -584L279 -413Q265 -355 242 -304L248 -262Q251 -269 257 -288.5Q263 -308 269 -320.5Q275 -333 284 -344Q306 -372 318 -384L354 -420Q382 -448 403 -448Q421 -441 434 -429L469 -393Q485 -378 493 -351Q501 -324 502 -305Q503 -286 504 -251Q504 -245 504.5 -231Q505 -217 505 -209Q505 -197 504 -170.5Q503 -144 503 -130Q503 -69 514 -38Q517 -37 520 -37Q524 -37 529 -39L551 -68L577 -120Q586 -137 605 -137Q618 -137 627.5 -128Q637 -119 637 -106Q637 -98 633 -92L621 -68L576 -8Q552 24 541 27Q539 28 535 29.5Q531 31 527.5 32Q524 33 520 33Q504 33 493 22L458 -13Q432 -39 432 -130Z"/>
	<path fill="#daa520" d="M263 -414L260 -584Q250 -647 233 -756Q230 -763 225 -781Q222 -794 219 -801Q216 -808 211 -814.5Q206 -821 199 -822L198 -820L192 -758L198 -641L216 -492Q217 -478 223 -416.5Q229 -355 233 -323Q251 -366 263 -414ZM496 -130Q496 -7 544 -7Q546 -7 562 -12L606 -71L618 -94Q619 -97 622 -97Q627 -97 627 -92Q627 -90 626 -89L614 -66Q614 -65 614 -65L569 -5Q568 -4 566 -3Q564 -2 560 -0.5Q556 1 552 2Q548 3 544 3Q486 3 486 -130Q486 -144 487 -170.5Q488 -197 488 -209Q488 -217 487.5 -231Q487 -245 487 -251Q487 -276 486.5 -290.5Q486 -305 482.5 -327Q479 -349 473 -362Q467 -375 455 -388Q443 -401 426 -408Q411 -407 391 -390Q375 -376 347 -341Q334 -325 321.5 -288.5Q309 -252 303 -240Q302 -236 296 -222Q290 -208 290 -200Q290 -196 291 -192Q291 -192 291 -191.5Q291 -191 291 -190L273 -97L264 4Q264 9 259 9Q254 9 254 4L248 -104L239 -181Q239 -182 239 -182V-203L228 -286Q155 -132 27 -87Q26 -87 25 -87Q20 -87 20 -92Q20 -95 23 -96Q153 -142 226 -304Q222 -331 219 -362.5Q216 -394 212 -431.5Q208 -469 206 -490L188 -640Q188 -641 188 -641L182 -758Q182 -758 182 -758L188 -821Q188 -822 189 -823Q193 -832 196 -832Q208 -832 216.5 -822.5Q225 -813 228 -805.5Q231 -798 235 -783Q239 -766 242 -761Q243 -760 243 -759Q259 -649 270 -585Q270 -584 270 -584L273 -413Q273 -412 273 -412Q258 -354 236 -303L249 -204Q249 -203 249 -203V-182L258 -105V-104L260 -66L263 -98Q263 -99 263 -99L281 -191Q280 -195 280 -200Q280 -210 286 -224Q292 -238 293 -243Q293 -244 294 -244Q300 -257 312.5 -293.5Q325 -330 339 -347Q368 -383 384 -397Q408 -418 427 -418Q428 -418 429 -418Q448 -410 461.5 -395.5Q475 -381 482 -367Q489 -353 492.5 -328.5Q496 -304 496.5 -291Q497 -278 497 -251Q497 -245 497.5 -231Q498 -217 498 -209Q498 -197 497 -170.5Q496 -144 496 -130Z"/>
</svg>