<svg xmlns="http://www.w3.org/2000/svg" viewBox="0 -1024 1024 1024">
	<path fill="#000088" d="M160 -566Q160 -576 167.5 -583.5Q175 -591 185 -591Q191 -591 196 -588Q204 -593 213 -593Q225 -593 233.5 -585Q242 -577 242 -565Q242 -556 237 -549Q238 -548 240.5 -545.5Q243 -543 244 -542Q242 -531 241 -530L206 -495Q205 -495 205 -495L195 -497Q179 -500 169 -509Q159 -518 159 -528Q159 -530 160 -532Q162 -543 167 -549Q160 -556 160 -566ZM53 -61Q38 -61 28 -71Q18 -81 18 -96Q18 -111 28 -121Q38 -131 53 -131H57Q89 -134 114 -150Q119 -157 123 -165L122 -172L118 -248L122 -342L130 -396Q130 -397 134 -402Q134 -403 135.5 -407Q137 -411 138 -412L174 -448Q177 -451 189 -451Q193 -451 196 -448L232 -413Q239 -406 239 -381Q239 -374 238 -364Q228 -226 194 -165L206 -104Q210 -83 224 -63Q255 -40 281 -38Q289 -55 313 -116Q322 -137 344 -137Q357 -137 367 -127.5Q377 -118 377 -104Q377 -98 374 -92Q365 -67 344 -22Q341 -15 315 8L297 26Q290 33 285 33Q271 33 251 23Q231 13 217 1Q210 -5 205 -10L169 -46Q143 -72 137 -99L132 -95Q102 -64 57 -61Z"/>
	<path fill="#800080" d="M111 -566Q111 -576 118.5 -583.5Q126 -591 136 -591Q142 -591 147 -588Q155 -593 164 -593Q176 -593 184.5 -585Q193 -577 193 -565Q193 -556 188 -549Q189 -548 191.5 -545.5Q194 -543 195 -542Q193 -531 192 -530L157 -495Q156 -495 156 -495L146 -497Q130 -500 120 -509Q110 -518 110 -528Q110 -530 111 -532Q113 -543 118 -549Q111 -556 111 -566ZM4 -61Q-11 -61 -21 -71Q-31 -81 -31 -96Q-31 -111 -21 -121Q-11 -131 4 -131H8Q40 -134 65 -150Q70 -157 74 -165L73 -172L69 -248L73 -342L81 -396Q81 -397 85 -402Q85 -403 86.5 -407Q88 -411 89 -412L125 -448Q128 -451 140 -451Q144 -451 147 -448L183 -413Q190 -406 190 -381Q190 -374 189 -364Q179 -226 145 -165L157 -104Q161 -83 175 -63Q206 -40 232 -38Q240 -55 264 -116Q273 -137 295 -137Q308 -137 318 -127.5Q328 -118 328 -104Q328 -98 325 -92Q316 -67 295 -22Q292 -15 266 8L248 26Q241 33 236 33Q222 33 202 23Q182 13 168 1Q161 -5 156 -10L120 -46Q94 -72 88 -99L83 -95Q53 -64 8 -61Z"/>
	<path fill="#daa520" d="M153 -553Q154 -553 154 -553Q154 -553 155 -553Q157 -553 159 -552L165 -546Q166 -544 166 -542Q166 -538 164 -532Q162 -525 157 -525Q155 -525 146 -527Q142 -528 142 -532Q142 -533 142 -533Q145 -545 149 -551Q150 -553 153 -553ZM153 -536Q154 -536 155 -535Q155 -537 156 -540L155 -541Q154 -539 153 -536ZM5 -91Q0 -91 0 -96Q0 -101 5 -101H9Q71 -105 105 -166Q104 -171 104 -172L100 -248L104 -342Q104 -342 104 -343L112 -397Q112 -399 114 -400Q117 -402 118.5 -408.5Q120 -415 125 -418Q130 -421 141 -421Q161 -421 161 -381Q161 -373 160 -364Q149 -226 116 -164L128 -105Q133 -72 172 -38Q185 -27 204.5 -17Q224 -7 237 -7Q240 -7 251 -18Q255 -23 257 -25Q277 -69 286 -94Q288 -97 291 -97Q296 -97 296 -92Q296 -91 296 -90Q284 -60 284 -60L266 -20Q265 -19 264 -18Q262 -17 258 -12Q245 3 237 3Q221 3 200.5 -7.5Q180 -18 166 -30Q124 -67 118 -103L108 -151Q72 -95 9 -91ZM141 -411Q133 -411 130 -409Q129 -409 128 -405Q126 -398 122 -394L114 -342L110 -248L113 -183Q140 -242 150 -364Q151 -374 151 -381Q151 -411 141 -411Z"/>
</svg>