<svg xmlns="http://www.w3.org/2000/svg" viewBox="0 -1024 1024 1024">
	<path fill="#000088" d="M160 -566Q160 -576 167.5 -583.5Q175 -591 185 -591Q191 -591 196 -588Q204 -593 213 -593Q225 -593 233.5 -585Q242 -577 242 -565Q242 -556 237 -549Q238 -548 240.5 -545.5Q243 -543 244 -542Q242 -531 241 -530L206 -495Q205 -495 205 -495L195 -497Q179 -500 169 -509Q159 -518 159 -528Q159 -530 160 -532Q162 -543 167 -549Q160 -556 160 -566ZM53 -61Q38 -61 28 -71Q18 -81 18 -96Q18 -111 28 -121Q38 -131 53 -131H57Q89 -134 114 -150Q119 -157 123 -165L122 -172L118 -248L122 -342L130 -396Q130 -397 134 -402Q134 -403 135.5 -407Q137 -411 138 -412L174 -448Q177 -451 189 -451Q193 -451 196 -448L232 -413Q239 -406 239 -381Q239 -374 238 -364Q228 -226 194 -165L206 -104Q210 -83 224 -63Q255 -40 281 -38Q289 -55 313 -116Q322 -137 344 -137Q357 -137 367 -127.5Q377 -118 377 -104Q377 -98 374 -92Q365 -67 344 -22Q341 -15 315 8L297 26Q290 33 285 33Q271 33 251 23Q231 13 217 1Q210 -5 205 -10L169 -46Q143 -72 137 -99L132 -95Q102 -64 57 -61Z"/>
	<path fill="#800080" d="M111 -566Q111 -576 118.5 -583.5Q126 -591 136 -591Q142 -591 147 -588Q155 -593 164 -593Q176 -593 184.5 -585Q193 -577 193 -565Q193 -556 188 -549L195 -542Q193 -531 192 -530L157 -495Q156 -495 156 -495L146 -497Q130 -500 120 -509Q110 -518 110 -528Q110 -530 111 -532Q113 -543 118 -549Q111 -556 111 -566ZM4 -61Q-11 -61 -21 -71Q-31 -81 -31 -96Q-31 -111 -21 -121Q-11 -131 4 -131H8Q40 -134 65 -150Q70 -157 74 -165L73 -172L69 -248L73 -342L81 -396Q81 -397 85 -402Q85 -403 86.5 -407Q88 -411 89 -412L125 -448Q128 -451 140 -451Q144 -451 147 -448L183 -413Q190 -406 190 -381Q190 -374 189 -364Q179 -226 145 -165L157 -104Q161 -83 175 -63Q206 -40 232 -38Q240 -55 264 -116Q273 -137 295 -137Q308 -137 318 -127.5Q328 -118 328 -104Q328 -98 325 -92Q316 -67 295 -22Q292 -15 266 8L248 26Q241 33 236 33Q222 33 202 23Q182 13 168 1Q161 -5 156 -10L120 -46Q94 -72 88 -99L83 -95Q53 -64 8 -61Z"/>
	<path fill="#daa520" d="M173 -553Q174 -553 174 -553Q174 -553 175 -553Q177 -553 179 -552L185 -546Q186 -544 186 -542Q186 -538 184 -532Q182 -525 177 -525Q175 -525 166 -527Q162 -528 162 -532Q162 -533 162 -533Q165 -545 169 -551Q170 -553 173 -553ZM173 -536Q174 -536 175 -535Q175 -537 176 -540L175 -541Q174 -539 173 -536ZM25 -91Q20 -91 20 -96Q20 -101 25 -101H29Q91 -105 125 -166Q124 -171 124 -172L120 -248L124 -342Q124 -342 124 -343L132 -397Q132 -399 134 -400Q137 -402 138.5 -408.5Q140 -415 145 -418Q150 -421 161 -421Q181 -421 181 -381Q181 -373 180 -364Q169 -226 136 -164L148 -105Q153 -72 192 -38Q205 -27 224.5 -17Q244 -7 257 -7Q260 -7 271 -18Q275 -23 277 -25Q297 -69 306 -94Q308 -97 311 -97Q316 -97 316 -92Q316 -91 316 -90Q304 -60 304 -60L286 -20Q285 -19 284 -18Q282 -17 278 -12Q265 3 257 3Q241 3 220.5 -7.5Q200 -18 186 -30Q144 -67 138 -103L128 -151Q92 -95 29 -91ZM161 -411Q153 -411 150 -409Q149 -409 148 -405Q146 -398 142 -394L134 -342L130 -248L133 -183Q160 -242 170 -364Q171 -374 171 -381Q171 -411 161 -411Z"/>
</svg>