<svg xmlns="http://www.w3.org/2000/svg" viewBox="0 -1024 1024 1024">
	<path fill="#000088" d="M205 -720Q205 -708 204.5 -692.5Q204 -677 204 -670Q206 -637 206 -604Q206 -545 200 -487Q214 -412 214 -374Q214 -364 215 -353Q217 -355 254 -392Q299 -437 339 -437Q362 -431 378 -415L414 -380Q445 -348 445 -287Q445 -279 444 -270Q445 -262 445 -254Q445 -210 415 -180L380 -145Q351 -116 311 -116Q300 -116 289 -119Q284 -118 279 -118Q301 -71 306 -64Q308 -59 311 -54Q341 -37 391 -37Q399 -37 407 -40Q421 -64 424 -68Q428 -77 437.5 -96Q447 -115 452 -124Q461 -142 480 -142Q493 -142 502.5 -132.5Q512 -123 512 -110Q512 -103 508 -96L494 -68Q491 -63 479.5 -43.5Q468 -24 460 -16L425 19Q411 33 391 33Q322 33 290 2L255 -34Q242 -46 236 -64Q234 -67 230 -74Q230 -57 230 -43Q230 -3 228 0L192 35Q192 35 192 35L156 0Q153 -4 153 -60Q153 -103 156 -155Q155 -169 154 -184Q152 -190 152 -196Q152 -201 153 -205Q151 -228 150 -251Q123 -170 84 -94Q88 -83 88 -77Q88 -64 78 -54Q68 -44 55 -44Q30 -44 23 -67Q22 -70 18.5 -79.5Q15 -89 14 -94Q108 -280 130 -487Q128 -494 122 -524Q116 -554 114 -567.5Q112 -581 108 -605Q104 -629 102.5 -648Q101 -667 101 -685Q101 -749 126 -786Q150 -821 161 -821Q162 -821 163 -820L198 -785Q205 -778 205 -720ZM374 -287Q374 -330 358 -359Q349 -364 339 -367Q308 -367 272 -338Q240 -298 236 -264Q233 -233 230 -203Q240 -193 242 -192Q258 -189 275 -189Q282 -189 289 -189Q300 -187 311 -187Q338 -187 360 -200Q375 -225 375 -254Q375 -262 374 -270Q374 -279 374 -287Z"/>
	<path fill="#800080" d="M156 -720Q156 -708 155.5 -692.5Q155 -677 155 -670Q157 -637 157 -604Q157 -545 151 -487Q165 -412 165 -374Q165 -364 166 -353Q168 -355 205 -392Q250 -437 290 -437Q313 -431 329 -415L365 -380Q396 -348 396 -287Q396 -279 395 -270Q396 -262 396 -254Q396 -210 366 -180L331 -145Q302 -116 262 -116Q251 -116 240 -119Q235 -118 230 -118Q252 -71 257 -64Q259 -59 262 -54Q292 -37 342 -37Q350 -37 358 -40Q372 -64 375 -68L403 -124Q412 -142 431 -142Q444 -142 453.5 -132.5Q463 -123 463 -110Q463 -103 459 -96L445 -68Q442 -63 430.5 -43.5Q419 -24 411 -16L376 19Q362 33 342 33Q273 33 241 2L206 -34Q193 -46 187 -64Q185 -67 181 -74Q181 -57 181 -43Q181 -3 179 0L143 35Q143 35 143 35L107 0Q104 -4 104 -60Q104 -103 107 -155Q106 -169 105 -184Q103 -190 103 -196Q103 -201 104 -205Q102 -228 101 -251Q74 -170 35 -94Q39 -83 39 -77Q39 -64 29 -54Q19 -44 6 -44Q-19 -44 -26 -67L-35 -94Q59 -280 81 -487Q79 -494 73 -524Q67 -554 65 -567.5Q63 -581 59 -605Q55 -629 53.5 -648Q52 -667 52 -685Q52 -749 77 -786Q101 -821 112 -821Q113 -821 114 -820L149 -785Q156 -778 156 -720ZM325 -287Q325 -330 309 -359Q300 -364 290 -367Q259 -367 223 -338Q191 -298 187 -264Q184 -233 181 -203Q191 -193 193 -192Q209 -189 226 -189Q233 -189 240 -189Q251 -187 262 -187Q289 -187 311 -200Q326 -225 326 -254Q326 -262 325 -270Q325 -279 325 -287Z"/>
	<path fill="#daa520" d="M137 -777Q117 -742 117 -685Q117 -634 139 -522Q142 -563 142 -604Q142 -637 140 -670Q140 -677 140.5 -692.5Q141 -708 141 -720Q141 -761 137 -777ZM107 -685Q107 -751 133 -789Q134 -791 137 -791Q142 -791 145 -784Q147 -779 149 -769Q151 -752 151 -720Q151 -708 150.5 -692.5Q150 -677 150 -670Q152 -637 152 -604Q152 -545 146 -487Q160 -413 160 -374Q160 -341 168 -226Q170 -245 172 -265Q177 -310 224 -358.5Q271 -407 315 -407Q316 -407 316 -407Q355 -396 373 -363Q391 -330 391 -287Q391 -279 390 -270Q391 -262 391 -254Q391 -210 361 -178.5Q331 -147 287 -147Q276 -147 265 -149Q258 -148 251 -148Q251 -148 247.5 -148.5Q244 -149 239.5 -149Q235 -149 229.5 -149.5Q224 -150 218.5 -151Q213 -152 209 -153Q249 -69 251 -67Q251 -66 252 -66Q274 -7 367 -7Q379 -7 389 -14Q399 -21 404.5 -28Q410 -35 418 -50Q426 -64 431 -71L445 -98Q446 -101 449 -101Q454 -101 454 -96Q454 -95 453 -94L439 -66Q439 -65 439 -65Q435 -59 426.5 -44Q418 -29 412 -20.5Q406 -12 394 -4.5Q382 3 367 3Q268 3 243 -62Q237 -69 215 -116Q204 -141 196 -156Q182 -161 173 -168Q173 -161 172 -155Q176 -87 176 -43Q176 -20 175 -8Q174 5 168 5Q163 5 162 -1Q161 -5 161 -12Q159 -30 159 -60Q159 -103 162 -155Q161 -169 161 -183Q158 -189 158 -196Q158 -198 160 -200Q150 -351 150 -374Q150 -405 142 -453Q117 -265 30 -94Q32 -89 32 -88Q32 -83 27 -83Q23 -83 22 -86Q20 -93 20 -94Q20 -95 21 -96Q114 -282 136 -486Q134 -494 128.5 -523.5Q123 -553 120.5 -567Q118 -581 114 -605Q110 -629 108.5 -648Q107 -667 107 -685ZM265 -159Q266 -159 266 -159Q277 -157 287 -157Q326 -157 353.5 -185.5Q381 -214 381 -254Q381 -262 380 -269Q380 -270 380 -270Q380 -273 380.5 -278.5Q381 -284 381 -287Q381 -378 314 -397Q275 -397 231 -350.5Q187 -304 182 -263Q178 -232 176 -201H177Q181 -201 186 -195Q192 -187 203 -165Q225 -158 251 -158Q253 -158 258 -158.5Q263 -159 265 -159ZM189 -170Q180 -188 176 -191H175Q174 -186 174 -181Q179 -175 189 -170Z"/>
</svg>