<svg xmlns="http://www.w3.org/2000/svg" viewBox="0 -1024 1024 1024">
	<path fill="#000088" d="M121 -471Q119 -479 113.5 -508.5Q108 -538 105.5 -552Q103 -566 99 -590Q95 -614 93.5 -633Q92 -652 92 -670Q92 -728 113 -764L148 -824Q150 -828 152 -831Q153 -831 153 -831L205 -801Q213 -797 213 -735Q213 -723 212.5 -707.5Q212 -692 212 -686V-685Q214 -652 214 -619Q214 -560 208 -502Q222 -428 222 -389Q222 -383 222 -376Q245 -406 274.5 -426.5Q304 -447 330 -447Q342 -444 352 -438L404 -408Q453 -380 453 -303Q453 -294 452 -285Q453 -277 453 -270Q453 -241 439 -217L404 -156Q391 -133 368.5 -119.5Q346 -106 319 -106Q309 -106 299 -108Q310 -85 314 -79Q320 -64 329 -53Q352 -47 382 -47Q407 -47 425 -72L459 -140L516 -111L502 -84Q482 -44 467 -23Q463 -17 454.5 -2.5Q446 12 440.5 20.5Q435 29 424 36Q413 43 399 43Q347 43 317 26L265 -4Q248 -14 237 -30Q236 -18 235 -16L200 45L148 15Q144 13 144 -45Q144 -88 147 -139Q146 -154 146 -169Q143 -175 143 -181Q143 -188 144 -194Q143 -208 142 -223Q120 -165 92 -109L94 -102L7 -73L5 -79Q99 -265 121 -471ZM366 -272Q366 -325 341 -356Q294 -352 248 -296Q245 -287 244 -279Q240 -247 238 -215L245 -211Q248 -209 254 -199Q260 -199 266 -199Q273 -199 280 -199Q291 -197 302 -197Q337 -197 364 -219Q366 -229 366 -239Q366 -247 365 -255Q366 -263 366 -272Z"/>
	<path fill="#800080" d="M156 -720Q156 -708 155.5 -692.5Q155 -677 155 -670Q157 -637 157 -604Q157 -545 151 -487Q165 -412 165 -374Q165 -364 166 -353Q168 -355 205 -392Q250 -437 290 -437Q313 -431 329 -415L365 -380Q396 -348 396 -287Q396 -279 395 -270Q396 -262 396 -254Q396 -210 366 -180L331 -145Q302 -116 262 -116Q251 -116 240 -119Q235 -118 230 -118Q252 -71 257 -64Q259 -59 262 -54Q292 -37 342 -37Q350 -37 358 -40Q372 -64 375 -68L403 -124Q412 -142 431 -142Q444 -142 453.5 -132.5Q463 -123 463 -110Q463 -103 459 -96L445 -68Q442 -63 430.5 -43.5Q419 -24 411 -16L376 19Q362 33 342 33Q273 33 241 2L206 -34Q193 -46 187 -64Q185 -67 181 -74Q181 -57 181 -43Q181 -3 179 0L143 35Q143 35 143 35L107 0Q104 -4 104 -60Q104 -103 107 -155Q106 -169 105 -184Q103 -190 103 -196Q103 -201 104 -205Q102 -228 101 -251Q74 -170 35 -94Q39 -83 39 -77Q39 -64 29 -54Q19 -44 6 -44Q-19 -44 -26 -67L-35 -94Q59 -280 81 -487Q79 -494 73 -524Q67 -554 65 -567.5Q63 -581 59 -605Q55 -629 53.5 -648Q52 -667 52 -685Q52 -749 77 -786Q101 -821 112 -821Q113 -821 114 -820L149 -785Q156 -778 156 -720ZM325 -287Q325 -330 309 -359Q300 -364 290 -367Q259 -367 223 -338Q191 -298 187 -264Q184 -233 181 -203Q191 -193 193 -192Q209 -189 226 -189Q233 -189 240 -189Q251 -187 262 -187Q289 -187 311 -200Q326 -225 326 -254Q326 -262 325 -270Q325 -279 325 -287Z"/>
	<path fill="#daa520" d="M137 -777Q117 -742 117 -685Q117 -634 139 -522Q142 -563 142 -604Q142 -637 140 -670Q140 -677 140.5 -692.5Q141 -708 141 -720Q141 -761 137 -777ZM107 -685Q107 -751 133 -789Q134 -791 137 -791Q142 -791 145 -784Q147 -779 149 -769Q151 -752 151 -720Q151 -708 150.5 -692.5Q150 -677 150 -670Q152 -637 152 -604Q152 -545 146 -487Q160 -413 160 -374Q160 -341 168 -226Q170 -245 172 -265Q177 -310 224 -358.5Q271 -407 315 -407Q316 -407 316 -407Q355 -396 373 -363Q391 -330 391 -287Q391 -279 390 -270Q391 -262 391 -254Q391 -210 361 -178.5Q331 -147 287 -147Q276 -147 265 -149Q258 -148 251 -148Q251 -148 247.5 -148.5Q244 -149 239.5 -149Q235 -149 229.5 -149.5Q224 -150 218.5 -151Q213 -152 209 -153Q249 -69 251 -67Q251 -66 252 -66Q274 -7 367 -7Q379 -7 389 -14Q399 -21 404.5 -28Q410 -35 418 -50Q426 -64 431 -71L445 -98Q446 -101 449 -101Q454 -101 454 -96Q454 -95 453 -94L439 -66Q439 -65 439 -65Q435 -59 426.5 -44Q418 -29 412 -20.5Q406 -12 394 -4.5Q382 3 367 3Q268 3 243 -62Q237 -69 215 -116Q204 -141 196 -156Q182 -161 173 -168Q173 -161 172 -155Q176 -87 176 -43Q176 -20 175 -8Q174 5 168 5Q163 5 162 -1Q161 -5 161 -12Q159 -30 159 -60Q159 -103 162 -155Q161 -169 161 -183Q158 -189 158 -196Q158 -198 160 -200Q150 -351 150 -374Q150 -405 142 -453Q117 -265 30 -94Q32 -89 32 -88Q32 -83 27 -83Q23 -83 22 -86Q20 -93 20 -94Q20 -95 21 -96Q114 -282 136 -486Q134 -494 128.5 -523.5Q123 -553 120.5 -567Q118 -581 114 -605Q110 -629 108.5 -648Q107 -667 107 -685ZM265 -159Q266 -159 266 -159Q277 -157 287 -157Q326 -157 353.5 -185.5Q381 -214 381 -254Q381 -262 380 -269Q380 -270 380 -270Q380 -273 380.5 -278.5Q381 -284 381 -287Q381 -378 314 -397Q275 -397 231 -350.5Q187 -304 182 -263Q178 -232 176 -201H177Q181 -201 186 -195Q192 -187 203 -165Q225 -158 251 -158Q253 -158 258 -158.5Q263 -159 265 -159ZM189 -170Q180 -188 176 -191H175Q174 -186 174 -181Q179 -175 189 -170Z"/>
</svg>