<svg xmlns="http://www.w3.org/2000/svg" viewBox="0 -1024 1024 1024">
	<path fill="#000088" d="M205 -720Q205 -708 204.5 -692.5Q204 -677 204 -670Q206 -637 206 -604Q206 -545 200 -487Q214 -412 214 -374Q214 -364 215 -353Q217 -355 254 -392Q299 -437 339 -437Q362 -431 378 -415L414 -380Q445 -348 445 -287Q445 -279 444 -270Q445 -262 445 -254Q445 -210 415 -180L380 -145Q351 -116 311 -116Q300 -116 289 -119Q284 -118 279 -118Q301 -71 306 -64Q308 -59 311 -54Q341 -37 391 -37Q399 -37 407 -40Q421 -64 424 -68Q428 -77 437.5 -96Q447 -115 452 -124Q461 -142 480 -142Q493 -142 502.5 -132.5Q512 -123 512 -110Q512 -103 508 -96L494 -68Q491 -63 479.5 -43.5Q468 -24 460 -16L425 19Q411 33 391 33Q322 33 290 2L255 -34Q242 -46 236 -64Q234 -67 230 -74Q230 -57 230 -43Q230 -3 228 0L192 35Q192 35 192 35L156 0Q153 -4 153 -60Q153 -103 156 -155Q155 -169 154 -184Q152 -190 152 -196Q152 -201 153 -205Q151 -228 150 -251Q123 -170 84 -94Q88 -83 88 -77Q88 -64 78 -54Q68 -44 55 -44Q30 -44 23 -67Q22 -70 18.5 -79.5Q15 -89 14 -94Q108 -280 130 -487Q128 -494 122 -524Q116 -554 114 -567.5Q112 -581 108 -605Q104 -629 102.5 -648Q101 -667 101 -685Q101 -749 126 -786Q150 -821 161 -821Q162 -821 163 -820L198 -785Q205 -778 205 -720ZM374 -287Q374 -330 358 -359Q349 -364 339 -367Q308 -367 272 -338Q240 -298 236 -264Q233 -233 230 -203Q240 -193 242 -192Q258 -189 275 -189Q282 -189 289 -189Q300 -187 311 -187Q338 -187 360 -200Q375 -225 375 -254Q375 -262 374 -270Q374 -279 374 -287Z"/>
	<path fill="#800080" d="M156 -720Q156 -708 155.5 -692.5Q155 -677 155 -670Q157 -637 157 -604Q157 -545 151 -487Q165 -412 165 -374Q165 -364 166 -353Q168 -355 205 -392Q250 -437 290 -437Q313 -431 329 -415L365 -380Q396 -348 396 -287Q396 -279 395 -270Q396 -262 396 -254Q396 -210 366 -180L331 -145Q302 -116 262 -116Q251 -116 240 -119Q235 -118 230 -118Q252 -71 257 -64Q259 -59 262 -54Q292 -37 342 -37Q350 -37 358 -40Q372 -64 375 -68Q379 -77 388.5 -96Q398 -115 403 -124Q412 -142 431 -142Q444 -142 453.5 -132.5Q463 -123 463 -110Q463 -103 459 -96L445 -68Q442 -63 430.5 -43.5Q419 -24 411 -16L376 19Q362 33 342 33Q273 33 241 2L206 -34Q193 -46 187 -64Q185 -67 181 -74Q181 -57 181 -43Q181 -3 179 0L143 35Q143 35 143 35L107 0Q104 -4 104 -60Q104 -103 107 -155Q106 -169 105 -184Q103 -190 103 -196Q103 -201 104 -205Q102 -228 101 -251Q74 -170 35 -94Q39 -83 39 -77Q39 -64 29 -54Q19 -44 6 -44Q-19 -44 -26 -67Q-27 -70 -30.5 -79.5Q-34 -89 -35 -94Q59 -280 81 -487Q79 -494 73 -524Q67 -554 65 -567.5Q63 -581 59 -605Q55 -629 53.5 -648Q52 -667 52 -685Q52 -749 77 -786Q101 -821 112 -821Q113 -821 114 -820L149 -785Q156 -778 156 -720ZM325 -287Q325 -330 309 -359Q300 -364 290 -367Q259 -367 223 -338Q191 -298 187 -264Q184 -233 181 -203Q191 -193 193 -192Q209 -189 226 -189Q233 -189 240 -189Q251 -187 262 -187Q289 -187 311 -200Q326 -225 326 -254Q326 -262 325 -270Q325 -279 325 -287Z"/>
	<path fill="#daa520" d="M117 -777Q97 -742 97 -685Q97 -634 119 -522Q122 -563 122 -604Q122 -637 120 -670Q120 -677 120.5 -692.5Q121 -708 121 -720Q121 -761 117 -777ZM87 -685Q87 -751 113 -789Q114 -791 117 -791Q122 -791 125 -784Q127 -779 129 -769Q131 -752 131 -720Q131 -708 130.5 -692.5Q130 -677 130 -670Q132 -637 132 -604Q132 -545 126 -487Q140 -413 140 -374Q140 -341 148 -226Q150 -245 152 -265Q157 -310 204 -358.5Q251 -407 295 -407Q296 -407 296 -407Q335 -396 353 -363Q371 -330 371 -287Q371 -279 370 -270Q371 -262 371 -254Q371 -210 341 -178.5Q311 -147 267 -147Q256 -147 245 -149Q238 -148 231 -148Q231 -148 227.5 -148.5Q224 -149 219.5 -149Q215 -149 209.5 -149.5Q204 -150 198.5 -151Q193 -152 189 -153Q229 -69 231 -67Q231 -66 232 -66Q254 -7 347 -7Q359 -7 369 -14Q379 -21 384.5 -28Q390 -35 398 -50Q406 -64 411 -71L425 -98Q426 -101 429 -101Q434 -101 434 -96Q434 -95 433 -94L419 -66Q419 -65 419 -65Q415 -59 406.5 -44Q398 -29 392 -20.5Q386 -12 374 -4.5Q362 3 347 3Q248 3 223 -62Q217 -69 195 -116Q184 -141 176 -156Q162 -161 153 -168Q153 -161 152 -155Q156 -87 156 -43Q156 -20 155 -8Q154 5 148 5Q143 5 142 -1Q141 -5 141 -12Q139 -30 139 -60Q139 -103 142 -155Q141 -169 141 -183Q138 -189 138 -196Q138 -198 140 -200Q130 -351 130 -374Q130 -405 122 -453Q97 -265 10 -94Q12 -89 12 -88Q12 -83 7 -83Q3 -83 2 -86Q0 -93 0 -94Q0 -95 1 -96Q94 -282 116 -486Q114 -494 108.5 -523.5Q103 -553 100.5 -567Q98 -581 94 -605Q90 -629 88.5 -648Q87 -667 87 -685ZM245 -159Q246 -159 246 -159Q257 -157 267 -157Q306 -157 333.5 -185.5Q361 -214 361 -254Q361 -262 360 -269Q360 -270 360 -270Q360 -273 360.5 -278.5Q361 -284 361 -287Q361 -378 294 -397Q255 -397 211 -350.5Q167 -304 162 -263Q158 -232 156 -201H157Q161 -201 166 -195Q172 -187 183 -165Q205 -158 231 -158Q233 -158 238 -158.5Q243 -159 245 -159ZM169 -170Q160 -188 156 -191H155Q154 -186 154 -181Q159 -175 169 -170Z"/>
</svg>