<svg xmlns="http://www.w3.org/2000/svg" viewBox="0 -1024 1024 1024">
	<path fill="#000088" d="M149 -242Q134 -347 134 -437Q134 -561 157 -711Q157 -713 159 -728Q161 -743 161.5 -746.5Q162 -750 164 -762.5Q166 -775 167.5 -780.5Q169 -786 172 -795.5Q175 -805 178.5 -812Q182 -819 187 -825Q211 -860 222 -860Q230 -860 236 -854L271 -819Q292 -798 292 -707Q292 -693 291 -671.5Q290 -650 290 -640Q290 -637 290 -636Q292 -604 292 -574Q292 -374 220 -242Q241 -88 268 -27Q273 -27 279 -30Q286 -40 311 -92L324 -119Q333 -137 353 -137Q366 -137 375.5 -128Q385 -119 385 -105Q385 -99 376 -81Q352 -27 332 -7L297 28Q281 44 264 44Q257 44 250 37L214 2Q186 -26 162 -161Q156 -154 150 -148L114 -113Q102 -101 89 -90Q88 -76 78 -67Q68 -58 54 -58Q39 -58 29 -68Q19 -78 19 -93V-99Q19 -111 54 -134Q76 -149 96 -166Q126 -200 149 -242ZM220 -640Q220 -644 220 -657Q205 -539 205 -437Q205 -420 206 -403Q221 -482 221 -574Q221 -604 220 -636Q220 -637 220 -640Z"/>
	<path fill="#800080" d="M100 -242Q85 -347 85 -437Q85 -561 108 -711Q108 -713 110 -728Q112 -743 112.5 -746.5Q113 -750 115 -762.5Q117 -775 118.5 -780.5Q120 -786 123 -795.5Q126 -805 129.5 -812Q133 -819 138 -825Q162 -860 173 -860Q181 -860 187 -854L222 -819Q243 -798 243 -707Q243 -693 242 -671.5Q241 -650 241 -640Q241 -637 241 -636Q243 -604 243 -574Q243 -374 171 -242Q192 -88 219 -27Q224 -27 230 -30Q237 -40 262 -92L275 -119Q284 -137 304 -137Q317 -137 326.5 -128Q336 -119 336 -105Q336 -99 327 -81Q303 -27 283 -7L248 28Q232 44 215 44Q208 44 201 37L165 2Q137 -26 113 -161Q107 -154 101 -148L65 -113Q53 -101 40 -90Q39 -76 29 -67Q19 -58 5 -58Q-10 -58 -20 -68Q-30 -78 -30 -93V-99Q-30 -111 5 -134Q27 -149 47 -166Q77 -200 100 -242ZM171 -640Q171 -644 171 -657Q156 -539 156 -437Q156 -420 157 -403Q172 -482 172 -574Q172 -604 171 -636Q171 -637 171 -640Z"/>
	<path fill="#daa520" d="M202 -707Q202 -693 201.5 -671.5Q201 -650 201 -640Q201 -637 201 -636Q203 -604 203 -574Q203 -386 138 -258Q126 -353 126 -437Q126 -560 148 -710Q148 -713 149.5 -724.5Q151 -736 151.5 -740Q152 -744 153.5 -754Q155 -764 156.5 -769Q158 -774 160 -782.5Q162 -791 164 -796Q166 -801 169 -807.5Q172 -814 175 -820Q188 -817 195 -792Q202 -763 202 -707ZM211 -640Q211 -650 211.5 -671.5Q212 -693 212 -707Q212 -765 204 -795Q195 -830 173 -830Q170 -830 169 -828Q164 -821 160.5 -813.5Q157 -806 154 -797Q151 -788 149 -781.5Q147 -775 145 -763.5Q143 -752 142.5 -747.5Q142 -743 140 -729Q138 -715 138 -712Q116 -561 116 -437Q116 -347 130 -243Q81 -156 2 -103Q0 -102 0 -99V-93Q0 -88 5 -88Q10 -88 10 -93V-96Q85 -146 132 -227Q154 -75 182 -18Q197 14 215 14Q239 14 261 -15Q268 -24 274.5 -34.5Q281 -45 284.5 -52.5Q288 -60 293.5 -72.5Q299 -85 302 -89Q302 -90 302 -92Q302 -97 297 -97Q294 -97 292 -94Q290 -89 284.5 -76.5Q279 -64 275.5 -57Q272 -50 266 -40Q260 -30 253 -21Q234 4 215 4Q203 4 191 -22Q163 -80 140 -241Q213 -374 213 -574Q213 -605 211 -636Q211 -638 211 -640Z"/>
</svg>