<svg xmlns="http://www.w3.org/2000/svg" viewBox="0 -1024 1024 1024">
	<path fill="#000088" d="M324 -171Q324 -164 324.5 -148.5Q325 -133 325 -123Q325 -24 302 -1L267 34Q260 41 251 41Q241 41 231.5 31.5Q222 22 216 6Q207 -17 206 -62Q205 -67 205 -72Q205 -95 216.5 -134Q228 -173 230 -192Q232 -200 238 -226.5Q244 -253 249 -267Q246 -290 240 -310Q239 -312 234 -332.5Q229 -353 224 -362Q222 -365 220 -369Q218 -369 217 -369H207Q206 -367 200.5 -356.5Q195 -346 192 -342Q128 -244 100 -140Q97 -133 88 -90V-86Q88 -71 78 -61Q68 -51 53 -51Q38 -51 28 -61Q18 -71 18 -86V-90Q27 -133 30 -140Q57 -244 122 -342Q124 -345 130 -356Q146 -386 156 -396L191 -431Q199 -439 207 -439H217Q219 -439 222 -440Q225 -441 227 -441Q232 -439 237 -434L272 -399Q277 -394 294 -362Q298 -357 300 -349Q325 -384 332 -391L367 -426Q382 -441 397 -441Q409 -438 420 -427L455 -392Q457 -390 458 -388Q461 -392 464 -395L499 -430Q514 -445 539 -445Q546 -445 552 -439L587 -404Q596 -396 606 -368Q612 -354 614 -350Q620 -292 630 -86L632 -36Q633 -36 634 -36L644 -56Q647 -66 654.5 -87Q662 -108 665 -118Q673 -140 697 -140Q711 -140 720.5 -130.5Q730 -121 730 -107Q730 -101 728 -96L714 -56L692 -10Q685 7 657 25Q642 35 626 35Q611 35 603 28L568 -7Q563 -12 562 -22Q560 -76 550 -276L544 -350Q541 -353 533 -374Q524 -374 516 -371Q510 -363 498 -351Q497 -347 492 -331Q487 -315 484 -307Q484 -304 484 -302Q491 -283 491 -253Q491 -246 490.5 -232Q490 -218 490 -211Q490 -186 494.5 -170Q499 -154 499 -83Q499 -5 488 6L452 42Q451 43 449 43Q446 42 443 39L408 4Q405 1 401.5 -6Q398 -13 396 -16Q389 -24 382 -46L384 -176Q394 -227 413 -307Q413 -311 410.5 -321.5Q408 -332 408 -338Q407 -354 400 -370Q398 -370 397 -371Q390 -371 384 -368Q366 -342 364 -340Q346 -317 326 -280Q323 -274 320 -267Q325 -234 325 -194Q325 -190 324.5 -182.5Q324 -175 324 -171Z"/>
	<path fill="#800080" d="M275 -171Q275 -164 275.5 -148.5Q276 -133 276 -123Q276 -24 253 -1L218 34Q211 41 202 41Q192 41 182.5 31.5Q173 22 167 6Q158 -17 157 -62Q156 -67 156 -72Q156 -95 167.5 -134Q179 -173 181 -192Q183 -200 189 -226.5Q195 -253 200 -267Q197 -290 191 -310Q190 -312 185 -332.5Q180 -353 175 -362Q173 -365 171 -369Q169 -369 168 -369H158Q157 -367 151.5 -356.5Q146 -346 143 -342Q79 -244 51 -140Q48 -133 39 -90V-86Q39 -71 29 -61Q19 -51 4 -51Q-11 -51 -21 -61Q-31 -71 -31 -86V-90Q-22 -133 -19 -140Q8 -244 73 -342Q75 -345 81 -356Q97 -386 107 -396L142 -431Q150 -439 158 -439H168Q170 -439 173 -440Q176 -441 178 -441Q183 -439 188 -434L223 -399Q228 -394 245 -362Q249 -357 251 -349Q276 -384 283 -391L318 -426Q333 -441 348 -441Q360 -438 371 -427L406 -392Q408 -390 409 -388Q412 -392 415 -395L450 -430Q465 -445 490 -445Q497 -445 503 -439L538 -404Q547 -396 557 -368Q563 -354 565 -350Q571 -292 581 -86L583 -36Q584 -36 585 -36L595 -56Q598 -66 605.5 -87Q613 -108 616 -118Q624 -140 648 -140Q662 -140 671.5 -130.5Q681 -121 681 -107Q681 -101 679 -96L665 -56L643 -10Q636 7 608 25Q593 35 577 35Q562 35 554 28L519 -7Q514 -12 513 -22Q511 -76 501 -276L495 -350Q492 -353 484 -374Q475 -374 467 -371Q461 -363 449 -351Q448 -347 443 -331Q438 -315 435 -307Q435 -304 435 -302Q442 -283 442 -253Q442 -246 441.5 -232Q441 -218 441 -211Q441 -186 445.5 -170Q450 -154 450 -83Q450 -5 439 6L403 42Q402 43 400 43Q397 42 394 39L359 4Q356 1 352.5 -6Q349 -13 347 -16Q340 -24 333 -46L335 -176Q345 -227 364 -307Q364 -311 361.5 -321.5Q359 -332 359 -338Q358 -354 351 -370Q349 -370 348 -371Q341 -371 335 -368Q317 -342 315 -340Q297 -317 277 -280Q274 -274 271 -267Q276 -234 276 -194Q276 -190 275.5 -182.5Q275 -175 275 -171Z"/>
	<path fill="#daa520" d="M178 -401Q177 -401 174 -400Q171 -399 169 -399H159Q152 -399 142 -387Q135 -378 121 -354Q116 -343 113 -339Q49 -242 22 -139Q22 -138 22 -138Q19 -131 10 -89V-86Q10 -81 5 -81Q0 -81 0 -86V-90Q0 -91 0 -91Q9 -134 12 -142Q40 -247 105 -345Q107 -348 113 -358Q126 -383 135 -394Q147 -409 159 -409H169Q171 -409 174 -410Q177 -411 179 -411Q180 -411 181 -410Q188 -407 193.5 -401Q199 -395 201.5 -391Q204 -387 209 -377Q214 -367 215 -365Q220 -358 222.5 -349Q225 -340 227.5 -328.5Q230 -317 232 -311Q236 -298 239 -283Q258 -320 277 -343Q279 -346 294 -368.5Q309 -391 321.5 -401Q334 -411 349 -411Q350 -411 350 -411Q371 -404 385 -383Q399 -362 400 -338Q400 -334 402 -327L410 -354Q411 -355 412 -356Q421 -363 432 -379.5Q443 -396 456 -405.5Q469 -415 491 -415Q503 -415 512 -402Q519 -393 527 -370Q533 -356 535 -353Q536 -352 536 -350Q541 -292 552 -86L554 -22Q556 -5 578 -5Q593 -5 605 -13L626 -58L640 -98Q641 -101 645 -101Q650 -101 650 -96Q650 -95 650 -94L636 -54L614 -8Q613 -7 612 -6Q596 5 578 5Q547 5 544 -21V-22Q543 -76 532 -276L526 -348Q523 -353 518 -367Q503 -405 491 -405Q472 -405 462.5 -398Q453 -391 442 -375Q429 -357 419 -349Q406 -307 406 -307Q406 -305 406 -303Q412 -283 412 -253Q412 -246 412 -232Q412 -218 412 -211Q412 -187 416 -171Q420 -154 420 -83Q420 -38 417 -14Q414 -1 411 5Q407 13 401 13Q400 13 399 13Q393 11 390 6.5Q387 2 384 -4Q381 -10 379 -13Q372 -22 364 -44Q364 -45 364 -46L366 -176Q366 -177 366 -177Q376 -229 396 -307Q395 -311 392.5 -321.5Q390 -332 390 -338Q390 -358 377.5 -376.5Q365 -395 348 -401Q328 -400 298 -356Q289 -342 285 -337Q267 -315 247 -278Q243 -269 242 -266Q246 -234 246 -194Q246 -190 246 -182.5Q246 -175 246 -171Q246 -164 246.5 -148.5Q247 -133 247 -123Q247 -61 238 -29Q227 11 203 11Q200 11 198 8Q189 -16 188 -62Q188 -67 188 -72Q188 -95 199.5 -134.5Q211 -174 212 -192Q212 -193 212 -193Q215 -202 220.5 -228Q226 -254 231 -267Q228 -289 222 -309Q221 -311 216.5 -331Q212 -351 207 -359Q206 -360 202 -369Q189 -395 178 -401ZM402 -253Q402 -271 400 -284Q388 -236 376 -175L374 -47Q381 -26 387 -19Q388 -17 392.5 -8Q397 1 401 3Q404 -1 407 -16Q410 -39 410 -83Q410 -153 406 -169Q402 -186 402 -211Q402 -218 402 -232Q402 -246 402 -253ZM236 -194Q236 -221 234 -243Q232 -236 228.5 -218.5Q225 -201 222 -191Q221 -173 209.5 -133.5Q198 -94 198 -72Q198 -70 198 -66.5Q198 -63 198 -62Q199 -21 206 1Q221 -2 228 -31Q237 -63 237 -123Q237 -133 236.5 -148.5Q236 -164 236 -171Q236 -175 236 -182.5Q236 -190 236 -194Z"/>
</svg>