<svg xmlns="http://www.w3.org/2000/svg" viewBox="0 -1024 1024 1024">
	<path fill="#000088" d="M328 -186Q328 -179 328.5 -163.5Q329 -148 329 -139Q329 -53 312 -24L277 36Q268 51 255 51Q237 51 222.5 43Q208 35 203 21Q194 -1 193 -47Q193 -52 193 -57Q193 -80 204.5 -119Q216 -158 217 -177Q219 -185 225 -211.5Q231 -238 236 -251Q233 -275 227 -295Q226 -297 221.5 -317.5Q217 -338 211 -347Q210 -349 205 -358Q196 -354 184 -337L164 -301Q163 -300 156 -289Q122 -223 104 -155Q101 -148 92 -105V-71H5V-75Q14 -117 17 -125Q39 -208 86 -289Q95 -304 113.5 -335.5Q132 -367 141 -382L160 -415Q179 -449 194 -449H204Q206 -449 209 -450Q212 -451 214 -451Q215 -451 216 -450L268 -420Q273 -417 278 -411.5Q283 -406 285.5 -402Q288 -398 292.5 -389Q297 -380 298 -377Q301 -373 303 -368Q309 -377 316 -385Q318 -388 333 -410Q348 -432 359.5 -441.5Q371 -451 384 -451Q389 -450 394 -447L446 -417Q453 -413 459 -406Q464 -411 472 -422Q480 -433 485 -439Q490 -445 501 -450Q512 -455 526 -455Q530 -455 534 -453L586 -423Q597 -417 610 -384Q615 -369 618 -365Q623 -307 634 -101L635 -53L664 -135L732 -111L718 -71Q670 29 661 35Q646 45 630 45Q618 45 612 41L560 11Q550 6 549 -7Q548 -61 537 -261L531 -335Q529 -338 520 -361Q506 -355 492 -336Q492 -335 490 -330Q488 -325 488 -322Q488 -320 488 -317Q494 -298 494 -268Q494 -261 494 -247Q494 -233 494 -226Q494 -202 498 -185.5Q502 -169 502 -98Q502 -27 493 -11L458 49Q456 53 453 53Q452 53 450 52L398 22Q394 19 389 10Q384 1 383 -1Q377 -9 369 -31L371 -161Q381 -212 401 -292Q400 -296 397.5 -306.5Q395 -317 395 -323Q395 -340 386 -357Q376 -352 367 -341.5Q358 -331 348 -315.5Q338 -300 333 -295Q328 -289 323 -282Q328 -250 328 -209Q328 -205 328 -197.5Q328 -190 328 -186Z"/>
	<path fill="#800080" d="M275 -171Q275 -164 275.5 -148.5Q276 -133 276 -123Q276 -24 253 -1L218 34Q211 41 202 41Q192 41 182.5 31.5Q173 22 167 6Q158 -17 157 -62Q156 -67 156 -72Q156 -95 167.5 -134Q179 -173 181 -192Q183 -200 189 -226.5Q195 -253 200 -267Q197 -290 191 -310Q190 -312 185 -332.5Q180 -353 175 -362Q173 -365 171 -369Q169 -369 168 -369H158Q157 -367 151.5 -356.5Q146 -346 143 -342Q79 -244 51 -140Q48 -133 39 -90V-86Q39 -71 29 -61Q19 -51 4 -51Q-11 -51 -21 -61Q-31 -71 -31 -86V-90Q-22 -133 -19 -140Q8 -244 73 -342Q75 -345 81 -356Q97 -386 107 -396L142 -431Q150 -439 158 -439H168Q170 -439 173 -440Q176 -441 178 -441Q183 -439 188 -434L223 -399Q228 -394 245 -362Q249 -357 251 -349Q276 -384 283 -391L318 -426Q333 -441 348 -441Q360 -438 371 -427L406 -392Q408 -390 409 -388Q412 -392 415 -395L450 -430Q465 -445 490 -445Q497 -445 503 -439L538 -404Q547 -396 557 -368Q563 -354 565 -350Q571 -292 581 -86L583 -36Q584 -36 585 -36L595 -56L616 -118Q624 -140 648 -140Q662 -140 671.5 -130.5Q681 -121 681 -107Q681 -101 679 -96L665 -56L643 -10Q636 7 608 25Q593 35 577 35Q562 35 554 28L519 -7Q514 -12 513 -22Q511 -76 501 -276L495 -350Q492 -353 484 -374Q475 -374 467 -371Q461 -363 449 -351Q448 -347 443 -331Q438 -315 435 -307Q435 -304 435 -302Q442 -283 442 -253Q442 -246 441.5 -232Q441 -218 441 -211Q441 -186 445.5 -170Q450 -154 450 -83Q450 -5 439 6L403 42Q402 43 400 43Q397 42 394 39L359 4Q356 1 352.5 -6Q349 -13 347 -16Q340 -24 333 -46L335 -176Q345 -227 364 -307Q364 -311 361.5 -321.5Q359 -332 359 -338Q358 -354 351 -370Q349 -370 348 -371Q341 -371 335 -368Q317 -342 315 -340Q297 -317 277 -280Q274 -274 271 -267Q276 -234 276 -194Q276 -190 275.5 -182.5Q275 -175 275 -171Z"/>
	<path fill="#daa520" d="M198 -401Q197 -401 194 -400Q191 -399 189 -399H179Q172 -399 162 -387Q155 -378 141 -354Q136 -343 133 -339Q69 -242 42 -139Q42 -138 42 -138Q39 -131 30 -89V-86Q30 -81 25 -81Q20 -81 20 -86V-90Q20 -91 20 -91Q29 -134 32 -142Q60 -247 125 -345Q127 -348 133 -358Q146 -383 155 -394Q167 -409 179 -409H189Q191 -409 194 -410Q197 -411 199 -411Q200 -411 201 -410Q208 -407 213.5 -401Q219 -395 221.5 -391Q224 -387 229 -377Q234 -367 235 -365Q240 -358 242.5 -349Q245 -340 247.5 -328.5Q250 -317 252 -311Q256 -298 259 -283Q278 -320 297 -343Q299 -346 314 -368.5Q329 -391 341.5 -401Q354 -411 369 -411Q370 -411 370 -411Q391 -404 405 -383Q419 -362 420 -338Q420 -334 422 -327L430 -354Q431 -355 432 -356Q441 -363 452 -379.5Q463 -396 476 -405.5Q489 -415 511 -415Q523 -415 532 -402Q539 -393 547 -370Q553 -356 555 -353Q556 -352 556 -350Q561 -292 572 -86L574 -22Q576 -5 598 -5Q613 -5 625 -13L646 -58L660 -98Q661 -101 665 -101Q670 -101 670 -96Q670 -95 670 -94L656 -54L634 -8Q633 -7 632 -6Q616 5 598 5Q567 5 564 -21V-22Q563 -76 552 -276L546 -348Q543 -353 538 -367Q523 -405 511 -405Q492 -405 482.5 -398Q473 -391 462 -375Q449 -357 439 -349Q426 -307 426 -307Q426 -305 426 -303Q432 -283 432 -253Q432 -246 432 -232Q432 -218 432 -211Q432 -187 436 -171Q440 -154 440 -83Q440 -38 437 -14Q434 -1 431 5Q427 13 421 13Q420 13 419 13Q413 11 410 6.5Q407 2 404 -4Q401 -10 399 -13Q392 -22 384 -44Q384 -45 384 -46L386 -176Q386 -177 386 -177Q396 -229 416 -307Q415 -311 412.5 -321.5Q410 -332 410 -338Q410 -358 397.5 -376.5Q385 -395 368 -401Q348 -400 318 -356Q309 -342 305 -337Q287 -315 267 -278Q263 -269 262 -266Q266 -234 266 -194Q266 -190 266 -182.5Q266 -175 266 -171Q266 -164 266.5 -148.5Q267 -133 267 -123Q267 -61 258 -29Q247 11 223 11Q220 11 218 8Q209 -16 208 -62Q208 -67 208 -72Q208 -95 219.5 -134.5Q231 -174 232 -192Q232 -193 232 -193Q235 -202 240.5 -228Q246 -254 251 -267Q248 -289 242 -309Q241 -311 236.5 -331Q232 -351 227 -359Q226 -360 222 -369Q209 -395 198 -401ZM422 -253Q422 -271 420 -284Q408 -236 396 -175L394 -47Q401 -26 407 -19Q408 -17 412.5 -8Q417 1 421 3Q424 -1 427 -16Q430 -39 430 -83Q430 -153 426 -169Q422 -186 422 -211Q422 -218 422 -232Q422 -246 422 -253ZM256 -194Q256 -221 254 -243Q252 -236 248.5 -218.5Q245 -201 242 -191Q241 -173 229.5 -133.5Q218 -94 218 -72Q218 -70 218 -66.5Q218 -63 218 -62Q219 -21 226 1Q241 -2 248 -31Q257 -63 257 -123Q257 -133 256.5 -148.5Q256 -164 256 -171Q256 -175 256 -182.5Q256 -190 256 -194Z"/>
</svg>