<svg xmlns="http://www.w3.org/2000/svg" viewBox="0 -1024 1024 1024">
	<path fill="#000088" d="M324 -171Q324 -164 324.5 -148.5Q325 -133 325 -123Q325 -24 302 -1L267 34Q260 41 251 41Q241 41 231.5 31.5Q222 22 216 6Q207 -17 206 -62Q205 -67 205 -72Q205 -95 216.5 -134Q228 -173 230 -192Q232 -200 238 -226.5Q244 -253 249 -267Q246 -290 240 -310Q239 -312 234 -332.5Q229 -353 224 -362Q222 -365 220 -369Q218 -369 217 -369H207Q206 -367 200.5 -356.5Q195 -346 192 -342Q128 -244 100 -140Q97 -133 88 -90V-86Q88 -71 78 -61Q68 -51 53 -51Q38 -51 28 -61Q18 -71 18 -86V-90Q27 -133 30 -140Q57 -244 122 -342Q124 -345 130 -356Q146 -386 156 -396L191 -431Q199 -439 207 -439H217Q219 -439 222 -440Q225 -441 227 -441Q232 -439 237 -434L272 -399Q277 -394 294 -362Q298 -357 300 -349Q325 -384 332 -391L367 -426Q382 -441 397 -441Q409 -438 420 -427L455 -392Q457 -390 458 -388Q461 -392 464 -395L499 -430Q514 -445 539 -445Q546 -445 552 -439L587 -404Q596 -396 606 -368Q612 -354 614 -350Q620 -292 630 -86L632 -36Q633 -36 634 -36L644 -56Q647 -66 654.5 -87Q662 -108 665 -118Q673 -140 697 -140Q711 -140 720.5 -130.5Q730 -121 730 -107Q730 -101 728 -96L714 -56L692 -10Q685 7 657 25Q642 35 626 35Q611 35 603 28L568 -7Q563 -12 562 -22Q560 -76 550 -276L544 -350Q541 -353 533 -374Q524 -374 516 -371Q510 -363 498 -351Q497 -347 492 -331Q487 -315 484 -307Q484 -304 484 -302Q491 -283 491 -253Q491 -246 490.5 -232Q490 -218 490 -211Q490 -186 494.5 -170Q499 -154 499 -83Q499 -5 488 6L452 42Q451 43 449 43Q446 42 443 39L408 4Q405 1 401.5 -6Q398 -13 396 -16Q389 -24 382 -46L384 -176Q394 -227 413 -307Q413 -311 410.5 -321.5Q408 -332 408 -338Q407 -354 400 -370Q398 -370 397 -371Q390 -371 384 -368Q366 -342 364 -340Q346 -317 326 -280Q323 -274 320 -267Q325 -234 325 -194Q325 -190 324.5 -182.5Q324 -175 324 -171Z"/>
	<path fill="#800080" d="M275 -171Q275 -164 275.5 -148.5Q276 -133 276 -123Q276 -24 253 -1L218 34Q211 41 202 41Q192 41 182.5 31.5Q173 22 167 6Q158 -17 157 -62Q156 -67 156 -72Q156 -95 167.5 -134Q179 -173 181 -192Q183 -200 189 -226.5Q195 -253 200 -267Q197 -290 191 -310Q190 -312 185 -332.5Q180 -353 175 -362Q173 -365 171 -369Q169 -369 168 -369H158Q157 -367 151.5 -356.5Q146 -346 143 -342Q79 -244 51 -140Q48 -133 39 -90V-86Q39 -71 29 -61Q19 -51 4 -51Q-11 -51 -21 -61Q-31 -71 -31 -86V-90Q-22 -133 -19 -140Q8 -244 73 -342Q75 -345 81 -356Q97 -386 107 -396L142 -431Q150 -439 158 -439H168Q170 -439 173 -440Q176 -441 178 -441Q183 -439 188 -434L223 -399Q228 -394 245 -362Q249 -357 251 -349Q276 -384 283 -391L318 -426Q333 -441 348 -441Q360 -438 371 -427L406 -392Q408 -390 409 -388Q412 -392 415 -395L450 -430Q465 -445 490 -445Q497 -445 503 -439L538 -404Q547 -396 557 -368Q563 -354 565 -350Q571 -292 581 -86L583 -36Q584 -36 585 -36L595 -56L616 -118Q624 -140 648 -140Q662 -140 671.5 -130.5Q681 -121 681 -107Q681 -101 679 -96L665 -56L643 -10Q636 7 608 25Q593 35 577 35Q562 35 554 28L519 -7Q514 -12 513 -22Q511 -76 501 -276L495 -350Q492 -353 484 -374Q475 -374 467 -371Q461 -363 449 -351Q448 -347 443 -331Q438 -315 435 -307Q435 -304 435 -302Q442 -283 442 -253Q442 -246 441.5 -232Q441 -218 441 -211Q441 -186 445.5 -170Q450 -154 450 -83Q450 -5 439 6L403 42Q402 43 400 43Q397 42 394 39L359 4Q356 1 352.5 -6Q349 -13 347 -16Q340 -24 333 -46L335 -176Q345 -227 364 -307Q364 -311 361.5 -321.5Q359 -332 359 -338Q358 -354 351 -370Q349 -370 348 -371Q341 -371 335 -368Q317 -342 315 -340Q297 -317 277 -280Q274 -274 271 -267Q276 -234 276 -194Q276 -190 275.5 -182.5Q275 -175 275 -171Z"/>
	<path fill="#daa520" d="M198 -401Q197 -401 194 -400Q191 -399 189 -399H179Q172 -399 162 -387Q155 -378 141 -354Q136 -343 133 -339Q69 -242 42 -139Q42 -138 42 -138Q39 -131 30 -89V-86Q30 -81 25 -81Q20 -81 20 -86V-90Q20 -91 20 -91Q29 -134 32 -142Q60 -247 125 -345Q127 -348 133 -358Q146 -383 155 -394Q167 -409 179 -409H189Q191 -409 194 -410Q197 -411 199 -411Q200 -411 201 -410Q208 -407 213.5 -401Q219 -395 221.5 -391Q224 -387 229 -377Q234 -367 235 -365Q240 -358 242.5 -349Q245 -340 247.5 -328.5Q250 -317 252 -311Q256 -298 259 -283Q278 -320 297 -343Q299 -346 314 -368.5Q329 -391 341.5 -401Q354 -411 369 -411Q370 -411 370 -411Q391 -404 405 -383Q419 -362 420 -338Q420 -334 422 -327L430 -354Q431 -355 432 -356Q441 -363 452 -379.5Q463 -396 476 -405.5Q489 -415 511 -415Q523 -415 532 -402Q539 -393 547 -370Q553 -356 555 -353Q556 -352 556 -350Q561 -292 572 -86L574 -22Q576 -5 598 -5Q613 -5 625 -13L646 -58L660 -98Q661 -101 665 -101Q670 -101 670 -96Q670 -95 670 -94L656 -54L634 -8Q633 -7 632 -6Q616 5 598 5Q567 5 564 -21V-22Q563 -76 552 -276L546 -348Q543 -353 538 -367Q523 -405 511 -405Q492 -405 482.5 -398Q473 -391 462 -375Q449 -357 439 -349Q426 -307 426 -307Q426 -305 426 -303Q432 -283 432 -253Q432 -246 432 -232Q432 -218 432 -211Q432 -187 436 -171Q440 -154 440 -83Q440 -38 437 -14Q434 -1 431 5Q427 13 421 13Q420 13 419 13Q413 11 410 6.5Q407 2 404 -4Q401 -10 399 -13Q392 -22 384 -44Q384 -45 384 -46L386 -176Q386 -177 386 -177Q396 -229 416 -307Q415 -311 412.5 -321.5Q410 -332 410 -338Q410 -358 397.5 -376.5Q385 -395 368 -401Q348 -400 318 -356Q309 -342 305 -337Q287 -315 267 -278Q263 -269 262 -266Q266 -234 266 -194Q266 -190 266 -182.5Q266 -175 266 -171Q266 -164 266.5 -148.5Q267 -133 267 -123Q267 -61 258 -29Q247 11 223 11Q220 11 218 8Q209 -16 208 -62Q208 -67 208 -72Q208 -95 219.5 -134.5Q231 -174 232 -192Q232 -193 232 -193Q235 -202 240.5 -228Q246 -254 251 -267Q248 -289 242 -309Q241 -311 236.5 -331Q232 -351 227 -359Q226 -360 222 -369Q209 -395 198 -401ZM422 -253Q422 -271 420 -284Q408 -236 396 -175L394 -47Q401 -26 407 -19Q408 -17 412.5 -8Q417 1 421 3Q424 -1 427 -16Q430 -39 430 -83Q430 -153 426 -169Q422 -186 422 -211Q422 -218 422 -232Q422 -246 422 -253ZM256 -194Q256 -221 254 -243Q252 -236 248.5 -218.5Q245 -201 242 -191Q241 -173 229.5 -133.5Q218 -94 218 -72Q218 -70 218 -66.5Q218 -63 218 -62Q219 -21 226 1Q241 -2 248 -31Q257 -63 257 -123Q257 -133 256.5 -148.5Q256 -164 256 -171Q256 -175 256 -182.5Q256 -190 256 -194Z"/>
</svg>