<svg xmlns="http://www.w3.org/2000/svg" viewBox="0 -1024 1024 1024">
	<path fill="#000088" d="M48 -47Q35 -47 25 -56.5Q15 -66 15 -80Q15 -86 18 -92Q25 -112 44.5 -166Q64 -220 74.5 -245.5Q85 -271 106 -310Q127 -349 152 -378Q153 -380 156.5 -384Q160 -388 162.5 -391.5Q165 -395 168 -398L203 -433Q213 -443 223 -443Q230 -443 237 -437L272 -401Q280 -393 289 -373Q296 -382 302 -389L337 -424Q362 -449 399 -449Q408 -449 419 -439L455 -403Q459 -399 465 -391Q476 -380 476 -378L484 -322Q482 -308 476.5 -268.5Q471 -229 468 -208Q466 -182 461 -34Q463 -34 464 -34Q475 -57 478 -62L516 -122Q525 -136 541 -136Q554 -136 562.5 -127Q571 -118 571 -106Q571 -97 566 -90L548 -62Q545 -56 536.5 -37Q528 -18 520 -10L485 25Q473 37 453 37Q446 37 441.5 34.5Q437 32 432.5 27.5Q428 23 425 21Q390 0 390 -14Q390 -31 391 -74.5Q392 -118 393.5 -149Q395 -180 398 -208Q400 -229 406 -268.5Q412 -308 414 -322L406 -377Q402 -379 399 -379Q374 -379 355 -367Q352 -364 345 -353.5Q338 -343 334 -338Q321 -307 308 -274L304 -126L294 -42Q294 -35 290 -20.5Q286 -6 279 1L244 36Q241 39 237 39Q222 39 202 4Q191 -14 191 -48Q191 -53 192 -60Q191 -69 191 -78Q191 -135 216 -194L224 -240Q231 -257 237 -274L238 -280L232 -342Q231 -343 219 -372Q218 -372 217 -372Q195 -343 174.5 -305Q154 -267 144 -241.5Q134 -216 115 -164.5Q96 -113 88 -92L79 -68Q71 -47 48 -47Z"/>
	<path fill="#800080" d="M-1 -47Q-14 -47 -24 -56.5Q-34 -66 -34 -80Q-34 -86 -31 -92Q-24 -112 -4.5 -166Q15 -220 25.5 -245.5Q36 -271 57 -310Q78 -349 103 -378Q104 -380 107.5 -384Q111 -388 113.5 -391.5Q116 -395 119 -398L154 -433Q164 -443 174 -443Q181 -443 188 -437L223 -401Q231 -393 240 -373Q247 -382 253 -389L288 -424Q313 -449 350 -449Q359 -449 370 -439L406 -403Q410 -399 416 -391Q427 -380 427 -378L435 -322Q433 -308 427.5 -268.5Q422 -229 419 -208Q417 -182 412 -34Q414 -34 415 -34Q426 -57 429 -62L467 -122Q476 -136 492 -136Q505 -136 513.5 -127Q522 -118 522 -106Q522 -97 517 -90L499 -62Q496 -56 487.5 -37Q479 -18 471 -10L436 25Q424 37 404 37Q397 37 392.5 34.5Q388 32 383.5 27.5Q379 23 376 21Q341 0 341 -14Q341 -31 342 -74.5Q343 -118 344.5 -149Q346 -180 349 -208Q351 -229 357 -268.5Q363 -308 365 -322L357 -377Q353 -379 350 -379Q325 -379 306 -367Q303 -364 296 -353.5Q289 -343 285 -338Q272 -307 259 -274L255 -126L245 -42Q245 -35 241 -20.5Q237 -6 230 1L195 36Q192 39 188 39Q173 39 153 4Q142 -14 142 -48Q142 -53 143 -60Q142 -69 142 -78Q142 -135 167 -194L175 -240Q182 -257 188 -274L189 -280L183 -342Q182 -343 170 -372Q169 -372 168 -372Q146 -343 125.5 -305Q105 -267 95 -241.5Q85 -216 66 -164.5Q47 -113 39 -92L30 -68Q22 -47 -1 -47Z"/>
	<path fill="#daa520" d="M5 -87Q0 -87 0 -92Q0 -93 0 -94Q8 -114 27.5 -168Q47 -222 57.5 -248Q68 -274 89.5 -312.5Q111 -351 135 -381Q136 -382 142.5 -390.5Q149 -399 152 -402Q155 -405 161.5 -409Q168 -413 175 -413Q188 -413 198 -398Q205 -388 215 -362Q221 -348 223 -345Q224 -344 224 -342L228 -296Q237 -318 246 -340Q247 -340 247 -341Q250 -345 261 -361Q272 -377 278 -383.5Q284 -390 295.5 -400.5Q307 -411 320.5 -415Q334 -419 351 -419Q361 -419 369 -412.5Q377 -406 385 -395.5Q393 -385 396 -382Q398 -381 398 -379L406 -323Q406 -322 406 -322Q406 -322 406 -321Q404 -307 398 -268Q392 -229 390 -207Q387 -180 385.5 -149.5Q384 -119 383.5 -76Q383 -33 382 -17Q385 -14 390 -10Q396 -3 405 -3Q418 -3 427.5 -9.5Q437 -16 440.5 -22.5Q444 -29 450 -43Q457 -58 461 -65L479 -93Q480 -95 483 -95Q488 -95 488 -90Q488 -89 487 -87L469 -59Q465 -53 459 -39Q455 -28 451.5 -22.5Q448 -17 442 -9Q436 -1 426.5 3Q417 7 405 7Q397 7 392 4.5Q387 2 382.5 -3Q378 -8 374 -10Q372 -11 372 -14Q377 -174 380 -208Q380 -209 380 -209Q388 -261 396 -322L388 -376Q386 -378 379 -386Q361 -409 351 -409Q336 -409 323.5 -405.5Q311 -402 300.5 -392Q290 -382 284.5 -376Q279 -370 269 -355Q259 -340 255 -336Q243 -305 230 -273L226 -126V-125L216 -42Q216 -29 208 -11Q200 9 189 9Q186 9 185 6Q174 -13 174 -48Q174 -53 174 -60Q173 -69 173 -78Q173 -135 198 -195L206 -241Q206 -241 206 -242Q213 -259 220 -275V-280L214 -340Q212 -345 206 -359Q196 -383 190 -392Q182 -403 175 -403Q172 -403 168.5 -401.5Q165 -400 161 -396Q157 -392 155 -389.5Q153 -387 148.5 -381.5Q144 -376 143 -375Q119 -346 98 -307.5Q77 -269 66.5 -243.5Q56 -218 36.5 -164Q17 -110 10 -90Q8 -87 5 -87ZM184 -60Q184 -58 184 -54Q184 -50 184 -48Q184 -19 191 -2Q196 -6 199 -14Q206 -31 206 -42Q206 -42 206 -43L216 -126L219 -247Q218 -243 216 -239L208 -193Q208 -193 208 -192Q183 -134 183 -78Q183 -75 183.5 -69Q184 -63 184 -60Z"/>
</svg>