<svg xmlns="http://www.w3.org/2000/svg" viewBox="0 -1024 1024 1024">
	<path fill="#000088" d="M76 -135Q75 -145 66.5 -178Q58 -211 58 -230Q58 -248 62 -270Q75 -345 115 -385L150 -420Q172 -442 199 -447Q212 -454 228 -454Q255 -454 272 -438L307 -402Q316 -393 319 -381L327 -372Q353 -346 361 -312Q362 -297 371.5 -274Q381 -251 382 -237Q385 -208 394 -189L399 -92Q399 -91 399 -90Q399 -75 389 -64.5Q379 -54 364 -54Q349 -54 338 -66Q324 -34 307 -17L272 18Q254 35 233 39Q225 39 205 35Q173 29 150 6L115 -30Q98 -46 88 -69Q73 -62 57 -59H49Q34 -59 24 -69Q14 -79 14 -94Q14 -109 24 -119Q34 -129 49 -129H57Q67 -131 76 -135ZM174 -206Q243 -286 246 -352Q240 -363 233 -372Q229 -377 225 -383Q211 -383 199 -377Q183 -373 169 -365Q142 -326 132 -270Q128 -248 128 -230Q129 -210 138 -173Q162 -192 174 -206ZM286 -204Q286 -225 280 -253Q267 -233 244 -206Q243 -204 207 -169Q159 -120 149 -111Q152 -77 169 -49Q186 -39 205.5 -35Q225 -31 233 -31Q244 -33 253 -39Q261 -52 270 -70Q286 -126 286 -179Q286 -184 286 -190Q286 -197 286 -204Z"/>
	<path fill="#800080" d="M27 -135Q26 -145 17.5 -178Q9 -211 9 -230Q9 -248 13 -270Q26 -345 66 -385L101 -420Q123 -442 150 -447Q163 -454 179 -454Q206 -454 223 -438L258 -402Q267 -393 270 -381L278 -372Q304 -346 312 -312Q313 -297 322.5 -274Q332 -251 333 -237Q336 -208 345 -189L350 -92Q350 -91 350 -90Q350 -75 340 -64.5Q330 -54 315 -54Q300 -54 289 -66Q275 -34 258 -17L223 18Q205 35 184 39Q176 39 156 35Q124 29 101 6L66 -30Q49 -46 39 -69Q24 -62 8 -59H0Q-15 -59 -25 -69Q-35 -79 -35 -94Q-35 -109 -25 -119Q-15 -129 0 -129H8Q18 -131 27 -135ZM125 -206Q194 -286 197 -352Q191 -363 184 -372Q180 -377 176 -383Q162 -383 150 -377Q134 -373 120 -365Q93 -326 83 -270Q79 -248 79 -230Q80 -210 89 -173Q113 -192 125 -206ZM237 -204Q237 -225 231 -253Q218 -233 195 -206Q194 -204 158 -169Q110 -120 100 -111Q103 -77 120 -49Q137 -39 156.5 -35Q176 -31 184 -31Q195 -33 204 -39Q212 -52 221 -70Q237 -126 237 -179Q237 -184 237 -190Q237 -197 237 -204Z"/>
	<path fill="#daa520" d="M64 -121Q63 -138 53.5 -174Q44 -210 44 -230Q44 -248 48 -271Q57 -322 83.5 -365Q110 -408 153 -417Q167 -424 184 -424Q205 -424 222.5 -413Q240 -402 244 -382Q277 -355 287 -313Q287 -313 287 -312Q288 -299 297 -276Q306 -253 308 -238Q311 -209 319 -191Q320 -190 320 -189L325 -92Q325 -87 320 -87Q315 -87 315 -91L310 -188Q301 -207 298 -236Q297 -250 287.5 -273Q278 -296 277 -311Q269 -344 245 -368Q244 -362 242 -355Q242 -354 242 -353Q258 -325 264 -301Q265 -294 269.5 -278.5Q274 -263 276.5 -253.5Q279 -244 281 -230Q283 -216 283 -204Q283 -197 282 -190Q282 -184 282 -179Q282 -126 266 -69Q266 -68 266 -68Q235 0 190 9Q189 9 189 9Q180 9 160 5Q119 -3 94 -35Q69 -67 65 -110Q40 -95 14 -89Q14 -89 13 -89H5Q0 -89 0 -94Q0 -99 5 -99H12Q38 -105 64 -121ZM73 -127Q88 -138 101.5 -150Q115 -162 136 -183.5Q157 -205 161 -209Q229 -290 232 -351Q226 -362 219 -371L191 -398Q189 -400 189 -402Q189 -407 194 -407Q195 -407 195 -407Q212 -403 228 -394Q214 -414 184 -414Q169 -414 157 -408Q157 -407 156 -407Q117 -399 92 -359Q67 -319 58 -269Q54 -247 54 -230Q54 -211 63 -176.5Q72 -142 73 -127ZM272 -190Q272 -192 272.5 -197Q273 -202 273 -204Q273 -215 271 -229Q269 -243 266.5 -252Q264 -261 260 -276.5Q256 -292 254 -299Q250 -315 240 -335Q232 -278 169 -203Q169 -203 168 -202Q161 -195 146.5 -180Q132 -165 123 -156Q114 -147 100.5 -135.5Q87 -124 74 -116Q77 -74 100.5 -43.5Q124 -13 162 -5Q181 -1 189 -1Q228 -9 256 -72Q272 -127 272 -179Q272 -181 272 -184.5Q272 -188 272 -190ZM235 -373Q235 -375 235 -377Q224 -385 213 -390L226 -378Q227 -377 227 -377Q231 -372 234 -366Q235 -370 235 -373Z"/>
</svg>