<svg xmlns="http://www.w3.org/2000/svg" viewBox="0 -1024 1024 1024">
	<path fill="#000088" d="M242 -46Q235 -46 230 -47Q230 -45 230 -43Q230 -25 242 32Q257 105 257 138Q257 168 247 185L212 246Q200 267 178 267Q164 267 153.5 257.5Q143 248 142 233L134 143L125 -70L122 -75L120 -112Q114 -105 107 -99L59 -45L5 -93L91 -189Q99 -197 106 -206Q109 -216 112 -226L110 -245Q99 -320 98 -329Q92 -356 92 -373Q92 -384 94 -388L129 -449Q131 -451 133 -451Q134 -451 135 -450L187 -420Q190 -418 194 -410Q212 -427 235 -427Q252 -427 269 -417L321 -387Q343 -375 357 -350.5Q371 -326 371 -298Q371 -295 370.5 -290Q370 -285 370 -283Q370 -268 372 -239Q374 -210 374 -195Q368 -172 358 -155L343 -129Q356 -132 362 -137L415 -81L378 -46Q367 -35 329 -35Q306 -35 289 -41Q283 -43 262 -48Q252 -46 242 -46ZM283 -252Q283 -255 283.5 -260Q284 -265 284 -267Q284 -306 258 -336Q255 -336 252 -336Q230 -336 212 -320L208 -313L205 -201L209 -147Q226 -144 245 -139Q269 -144 286 -160Q287 -162 288 -165Q288 -180 285.5 -209Q283 -238 283 -252Z"/>
	<path fill="#800080" d="M167 -58Q176 -39 176 -28Q176 -9 188 47Q202 121 202 153Q202 193 186 210L150 245Q141 255 132 255Q122 255 113.5 244Q105 233 104 218L96 128L87 -85L84 -90Q84 -91 83.5 -94.5Q83 -98 83 -99Q83 -100 83 -100L81 -136L9 -55Q1 -46 -11 -46Q-22 -46 -29.5 -54Q-37 -62 -37 -72Q-37 -82 -30 -90L18 -144Q19 -145 24 -151Q61 -191 74 -241L72 -260Q61 -335 60 -344Q54 -371 54 -388Q54 -401 58 -405L93 -440Q94 -441 95 -441Q97 -441 99 -439L134 -404Q139 -399 143 -387L155 -398Q173 -417 198 -417Q226 -417 250 -393L286 -357Q316 -327 316 -282Q316 -280 316 -275Q316 -270 316 -267Q316 -253 318 -224Q320 -195 320 -180Q308 -139 286 -116Q315 -118 324 -127Q331 -134 342 -134Q352 -134 359.5 -126.5Q367 -119 367 -109Q367 -98 359 -90L324 -56Q312 -45 275 -45Q251 -45 235 -51Q229 -53 207 -58Q198 -56 187 -56Q175 -56 167 -58ZM245 -267Q245 -270 245.5 -275Q246 -280 246 -282Q246 -312 231 -337Q214 -346 198 -346Q187 -346 176 -342L154 -298L151 -186L155 -141Q177 -137 207 -129Q221 -132 232 -138Q243 -155 250 -180Q250 -195 247.5 -224Q245 -253 245 -267Z"/>
	<path fill="#daa520" d="M130 -336Q130 -367 122 -389Q119 -395 116 -399Q114 -395 114 -388Q114 -372 120 -345Q121 -338 130 -278Q130 -282 130 -285Q130 -297 128 -309Q128 -310 128 -310Q128 -310 128 -311Q130 -324 130 -336ZM182 153Q182 121 167 48Q156 -9 156 -28Q156 -38 149 -53L156 128L163 210Q182 195 182 153ZM306 -267Q306 -253 308 -224Q310 -195 310 -180Q310 -179 310 -179Q291 -113 246 -94Q254 -92 257 -91Q272 -85 295 -85Q330 -85 341 -95Q342 -97 344 -97Q349 -97 349 -92Q349 -89 347 -88Q334 -75 295 -75Q271 -75 253 -81Q248 -83 227 -88Q218 -87 207 -87Q202 -87 197 -87Q187 -88 168.5 -94.5Q150 -101 147 -102V-87Q148 -86 148 -84Q148 -76 156 -60Q166 -41 166 -28Q166 -10 177 46Q192 120 192 153Q192 208 161 223Q160 223 159 223Q154 223 154 218L146 128L137 -84L135 -87Q134 -88 134 -90L130 -164Q130 -164 131 -186Q131 -186 127 -217Q111 -174 77 -141L29 -87Q27 -85 25 -85Q20 -85 20 -90Q20 -92 21 -93L69 -147V-148Q111 -188 124 -241L122 -259Q112 -335 110 -343Q104 -371 104 -388Q104 -401 108 -406Q111 -411 115.5 -411Q120 -411 124 -406Q128 -401 131 -392Q140 -369 140 -336Q140 -323 138 -310Q138 -309 138 -308L163 -356Q163 -357 163 -357Q185 -387 218 -387Q252 -387 279 -355.5Q306 -324 306 -282Q306 -280 306 -275Q306 -270 306 -267ZM296 -267Q296 -270 296 -275Q296 -280 296 -282Q296 -320 271.5 -348.5Q247 -377 218 -377Q191 -377 171 -351L144 -297L141 -186Q141 -179 143 -153.5Q145 -128 146 -114Q147 -114 147 -114Q167 -114 228 -99Q279 -110 300 -181Q300 -195 298 -224Q296 -253 296 -267Z"/>
</svg>