<svg xmlns="http://www.w3.org/2000/svg" viewBox="0 -1024 1024 1024">
	<path fill="#000088" d="M216 -58Q225 -39 225 -28Q225 -9 237 47Q251 121 251 153Q251 193 235 210L199 245Q190 255 181 255Q171 255 162.5 244Q154 233 153 218L145 128L136 -85L133 -90Q133 -91 132.5 -94.5Q132 -98 132 -99Q132 -100 132 -100L130 -136L58 -55Q50 -46 38 -46Q27 -46 19.5 -54Q12 -62 12 -72Q12 -82 19 -90L67 -144Q68 -145 73 -151Q110 -191 123 -241L121 -260Q110 -335 109 -344Q103 -371 103 -388Q103 -401 107 -405L142 -440Q143 -441 144 -441Q146 -441 148 -439L183 -404Q188 -399 192 -387L204 -398Q222 -417 247 -417Q275 -417 299 -393L335 -357Q365 -327 365 -282Q365 -280 365 -275Q365 -270 365 -267Q365 -253 367 -224Q369 -195 369 -180Q357 -139 335 -116Q364 -118 373 -127Q380 -134 391 -134Q401 -134 408.5 -126.5Q416 -119 416 -109Q416 -98 408 -90L373 -56Q361 -45 324 -45Q300 -45 284 -51Q278 -53 256 -58Q247 -56 236 -56Q224 -56 216 -58ZM294 -267Q294 -270 294.5 -275Q295 -280 295 -282Q295 -312 280 -337Q263 -346 247 -346Q236 -346 225 -342L203 -298L200 -186L204 -141Q226 -137 256 -129Q270 -132 281 -138Q292 -155 299 -180Q299 -195 296.5 -224Q294 -253 294 -267Z"/>
	<path fill="#800080" d="M167 -58Q176 -39 176 -28Q176 -9 188 47Q202 121 202 153Q202 193 186 210L150 245Q141 255 132 255Q122 255 113.5 244Q105 233 104 218L96 128L87 -85L84 -90Q84 -91 83.5 -94.5Q83 -98 83 -99Q83 -100 83 -100L81 -136L9 -55Q1 -46 -11 -46Q-22 -46 -29.5 -54Q-37 -62 -37 -72Q-37 -82 -30 -90L18 -144Q19 -145 24 -151Q61 -191 74 -241L72 -260Q61 -335 60 -344Q54 -371 54 -388Q54 -401 58 -405L93 -440Q94 -441 95 -441Q97 -441 99 -439L134 -404Q139 -399 143 -387L155 -398Q173 -417 198 -417Q226 -417 250 -393L286 -357Q316 -327 316 -282Q316 -280 316 -275Q316 -270 316 -267Q316 -253 318 -224Q320 -195 320 -180Q308 -139 286 -116Q315 -118 324 -127Q331 -134 342 -134Q352 -134 359.5 -126.5Q367 -119 367 -109Q367 -98 359 -90L324 -56Q312 -45 275 -45Q251 -45 235 -51Q229 -53 207 -58Q198 -56 187 -56Q175 -56 167 -58ZM245 -267Q245 -270 245.5 -275Q246 -280 246 -282Q246 -312 231 -337Q214 -346 198 -346Q187 -346 176 -342L154 -298L151 -186L155 -141Q177 -137 207 -129Q221 -132 232 -138Q243 -155 250 -180Q250 -195 247.5 -224Q245 -253 245 -267Z"/>
	<path fill="#daa520" d="M110 -336Q110 -367 102 -389Q99 -395 96 -399Q94 -395 94 -388Q94 -372 100 -345Q101 -338 110 -278Q110 -282 110 -285Q110 -297 108 -309Q108 -310 108 -310Q108 -310 108 -311Q110 -324 110 -336ZM162 153Q162 121 147 48Q136 -9 136 -28Q136 -38 129 -53L136 128L143 210Q162 195 162 153ZM286 -267Q286 -253 288 -224Q290 -195 290 -180Q290 -179 290 -179Q271 -113 226 -94Q234 -92 237 -91Q252 -85 275 -85Q310 -85 321 -95Q322 -97 324 -97Q329 -97 329 -92Q329 -89 327 -88Q314 -75 275 -75Q251 -75 233 -81Q228 -83 207 -88Q198 -87 187 -87Q182 -87 177 -87Q167 -88 148.5 -94.5Q130 -101 127 -102V-87Q128 -86 128 -84Q128 -76 136 -60Q146 -41 146 -28Q146 -10 157 46Q172 120 172 153Q172 208 141 223Q140 223 139 223Q134 223 134 218L126 128L117 -84L115 -87Q114 -88 114 -90L110 -164Q110 -164 111 -186Q111 -186 107 -217Q91 -174 57 -141L9 -87Q7 -85 5 -85Q0 -85 0 -90Q0 -92 1 -93L49 -147V-148Q91 -188 104 -241L102 -259Q92 -335 90 -343Q84 -371 84 -388Q84 -401 88 -406Q91 -411 95.5 -411Q100 -411 104 -406Q108 -401 111 -392Q120 -369 120 -336Q120 -323 118 -310Q118 -309 118 -308L143 -356Q143 -357 143 -357Q165 -387 198 -387Q232 -387 259 -355.5Q286 -324 286 -282Q286 -280 286 -275Q286 -270 286 -267ZM276 -267Q276 -270 276 -275Q276 -280 276 -282Q276 -320 251.5 -348.5Q227 -377 198 -377Q171 -377 151 -351L124 -297L121 -186Q121 -179 123 -153.5Q125 -128 126 -114Q127 -114 127 -114Q147 -114 208 -99Q259 -110 280 -181Q280 -195 278 -224Q276 -253 276 -267Z"/>
</svg>