<svg xmlns="http://www.w3.org/2000/svg" viewBox="0 -1024 1024 1024">
	<path fill="#000088" d="M45 -51Q30 -51 20 -61Q10 -71 10 -86Q10 -107 28 -117Q31 -131 38 -171Q40 -184 49.5 -192.5Q59 -201 72 -201Q86 -201 96.5 -190.5Q107 -180 107 -166Q107 -163 106 -160Q105 -149 92 -86Q89 -71 79 -61Q69 -51 57 -51ZM169 -429Q173 -429 196 -429.5Q219 -430 223 -430Q234 -430 243 -424Q263 -417 268 -396Q272 -383 281 -356Q302 -297 302 -256Q302 -223 301 -201.5Q300 -180 292 -153Q284 -126 268 -111L267 -110L268 -56L280 46Q285 68 288 93Q305 65 322 46L378 -32Q387 -43 401 -43Q413 -43 421.5 -35Q430 -27 430 -15Q430 -6 424 2L392 46Q374 67 355.5 98.5Q337 130 328 154Q313 197 307 203L272 239Q271 240 269 240Q268 240 268 239L232 204Q227 199 226 160Q219 90 210 46L198 -56Q185 -53 171 -53Q129 -53 98 -83L63 -118Q32 -150 32 -194Q32 -323 80 -372L115 -407Q138 -429 169 -429ZM102 -194Q102 -164 118 -138Q143 -123 171 -123Q185 -123 196 -126L194 -288L196 -359Q173 -359 169 -359Q150 -359 134 -351Q102 -297 102 -194Z"/>
	<path fill="#800080" d="M-4 -51Q-19 -51 -29 -61Q-39 -71 -39 -86Q-39 -107 -21 -117Q-18 -131 -11 -171Q-9 -184 0.5 -192.5Q10 -201 23 -201Q37 -201 47.5 -190.5Q58 -180 58 -166Q58 -163 57 -160Q56 -149 43 -86Q40 -71 30 -61Q20 -51 8 -51ZM120 -429Q124 -429 147 -429.5Q170 -430 174 -430Q185 -430 194 -424Q214 -417 219 -396Q223 -383 232 -356Q253 -297 253 -256Q253 -223 252 -201.5Q251 -180 243 -153Q235 -126 219 -111L218 -110L219 -56L231 46Q236 68 239 93Q256 65 273 46L329 -32Q338 -43 352 -43Q364 -43 372.5 -35Q381 -27 381 -15Q381 -6 375 2L343 46Q325 67 306.5 98.5Q288 130 279 154Q264 197 258 203L223 239Q222 240 220 240Q219 240 219 239L183 204Q178 199 177 160Q170 90 161 46L149 -56Q136 -53 122 -53Q80 -53 49 -83L14 -118Q-17 -150 -17 -194Q-17 -323 31 -372L66 -407Q89 -429 120 -429ZM53 -194Q53 -164 69 -138Q94 -123 122 -123Q136 -123 147 -126L145 -288L147 -359Q124 -359 120 -359Q101 -359 85 -351Q53 -297 53 -194Z"/>
	<path fill="#daa520" d="M5 -81Q0 -81 0 -86Q0 -91 5 -91H13Q24 -148 26 -161Q27 -165 31 -165Q36 -165 36 -160Q36 -160 36 -159Q34 -148 22 -85Q21 -81 17 -81ZM129 -399Q133 -399 156 -399.5Q179 -400 183 -400Q188 -400 188 -395Q188 -401 193 -401Q197 -401 198 -397Q201 -384 211 -358Q232 -298 232 -256Q232 -223 230.5 -201.5Q229 -180 221 -152Q213 -124 197 -108L198 -56L210 45Q219 89 226 160Q227 188 230 197Q232 194 235 188Q239 178 248 152Q257 128 276 96.5Q295 65 313 43L345 -1Q346 -3 349 -3Q354 -3 354 2Q354 4 353 5L321 49Q303 70 284.5 101Q266 132 258 156Q247 185 242 196Q239 202 237 205Q233 210 229 210Q223 210 220 197Q217 187 216 160Q209 91 200 47L188 -55V-56L187 -99Q165 -83 131 -83Q86 -83 54 -116Q22 -149 22 -194Q22 -226 26 -257Q30 -288 40.5 -322.5Q51 -357 73.5 -378Q96 -399 129 -399ZM197 -366L194 -288L197 -123Q222 -157 222 -256Q222 -267 220.5 -278Q219 -289 218 -296.5Q217 -304 213.5 -316Q210 -328 208.5 -332.5Q207 -337 202.5 -350.5Q198 -364 197 -366ZM129 -389Q101 -389 80.5 -369.5Q60 -350 50 -318.5Q40 -287 36 -256.5Q32 -226 32 -194Q32 -153 61 -123Q90 -93 131 -93Q166 -93 187 -112L184 -288L188 -394Q187 -390 183 -390Q179 -390 156 -389.5Q133 -389 129 -389Z"/>
</svg>