<svg xmlns="http://www.w3.org/2000/svg" viewBox="0 -1024 1024 1024">
	<path fill="#000088" d="M329 -444Q331 -444 334.5 -444.5Q338 -445 340 -445Q346 -445 347 -443L383 -407Q385 -405 385 -394Q385 -371 364 -350L338 -323L343 -169L355 -82L380 -43L417 -46L426 -76Q442 -110 446 -116Q455 -134 474 -134Q487 -134 496.5 -124.5Q506 -115 506 -102Q506 -95 496 -76L478 -13Q474 2 464.5 11.5Q455 21 443 22L368 28Q355 28 333 -7L285 -82L273 -169L269 -277Q253 -271 235 -266Q258 -193 258 -133Q258 -64 227 -33L191 2Q168 26 128 26Q125 26 122 25Q102 25 87 11L52 -25Q42 -35 29 -61Q16 -87 12 -94Q7 -101 7 -110Q7 -123 15.5 -131.5Q24 -140 36 -140Q52 -140 60 -127L82 -94Q87 -87 95.5 -69.5Q104 -52 106 -48Q114 -45 122 -45Q125 -45 128 -45Q153 -45 171 -54Q187 -84 187 -133Q187 -187 168 -254Q159 -254 150 -254Q95 -254 73 -275L37 -311Q26 -322 26 -339Q26 -342 27 -346Q27 -363 33 -384.5Q39 -406 51 -418L86 -453Q95 -462 107 -462Q114 -462 122 -455L157 -419Q167 -410 183 -379Q187 -372 196 -357.5Q205 -343 210 -331Q242 -337 270 -348L279 -400Q281 -414 314 -435Q316 -436 318 -439Q320 -442 322.5 -443Q325 -444 329 -444ZM97 -332Q116 -325 143 -324Q132 -347 123 -361Q122 -362 106 -391Q97 -368 97 -346Q97 -342 97 -338.5Q97 -335 97 -332Z"/>
	<path fill="#800080" d="M280 -444Q282 -444 285.5 -444.5Q289 -445 291 -445Q297 -445 298 -443L334 -407Q336 -405 336 -394Q336 -371 315 -350L289 -323L294 -169L306 -82L331 -43L368 -46L377 -76Q393 -110 397 -116Q406 -134 425 -134Q438 -134 447.5 -124.5Q457 -115 457 -102Q457 -95 447 -76L429 -13Q425 2 415.5 11.5Q406 21 394 22L319 28Q306 28 284 -7L236 -82L224 -169L220 -277Q204 -271 186 -266Q209 -193 209 -133Q209 -64 178 -33L142 2Q119 26 79 26Q76 26 73 25Q53 25 38 11L3 -25Q-7 -35 -20 -61Q-33 -87 -37 -94Q-42 -101 -42 -110Q-42 -123 -33.5 -131.5Q-25 -140 -13 -140Q3 -140 11 -127L33 -94Q38 -87 46.5 -69.5Q55 -52 57 -48Q65 -45 73 -45Q76 -45 79 -45Q104 -45 122 -54Q138 -84 138 -133Q138 -187 119 -254Q110 -254 101 -254Q46 -254 24 -275L-12 -311Q-23 -322 -23 -339Q-23 -342 -22 -346Q-22 -363 -16 -384.5Q-10 -406 2 -418L37 -453Q46 -462 58 -462Q65 -462 73 -455L108 -419Q118 -410 134 -379Q138 -372 147 -357.5Q156 -343 161 -331Q193 -337 221 -348L230 -400Q232 -414 265 -435Q267 -436 269 -439Q271 -442 273.5 -443Q276 -444 280 -444ZM48 -332Q67 -325 94 -324Q83 -347 74 -361Q73 -362 57 -391Q48 -368 48 -346Q48 -342 48 -338.5Q48 -335 48 -332Z"/>
	<path fill="#daa520" d="M287 -414Q289 -414 292.5 -414Q296 -414 298 -414Q308 -414 311 -408Q313 -404 313 -394Q313 -362 278 -335Q272 -331 265 -327L271 -169L283 -84L329 -12L397 -18L414 -77Q414 -78 415 -78L421 -90Q422 -93 425 -93Q430 -93 430 -88Q430 -87 429 -86L424 -74L406 -12Q405 -8 401 -8L326 -2Q323 -2 322 -4L274 -79Q273 -80 273 -81L261 -168V-169L255 -321Q213 -297 156 -288Q185 -204 185 -133Q185 -76 162 -40.5Q139 -5 86 -5Q82 -5 80 -5Q67 -5 56.5 -10Q46 -15 37.5 -26Q29 -37 25 -44Q21 -51 14 -65Q6 -84 1 -91Q0 -92 0 -94Q0 -99 5 -99Q8 -99 9 -97Q14 -90 25.5 -65Q37 -40 49 -27.5Q61 -15 80 -15Q81 -15 83 -15Q85 -15 86 -15Q175 -15 175 -133Q175 -203 146 -286Q126 -284 108 -284Q67 -284 40.5 -297Q14 -310 14 -339Q14 -342 15 -346Q15 -374 28 -403Q41 -432 65 -432Q76 -432 88 -417Q96 -407 110 -382Q117 -368 120 -364Q136 -341 152 -298Q212 -307 255 -332L267 -401Q267 -403 269 -404Q271 -405 273.5 -408Q276 -411 279 -412.5Q282 -414 287 -414ZM25 -346Q25 -345 24.5 -342.5Q24 -340 24 -339Q24 -317 47 -305.5Q70 -294 108 -294Q124 -294 142 -296Q127 -337 112 -358Q109 -363 101 -377Q88 -401 80 -411Q71 -422 65 -422Q46 -422 35.5 -395.5Q25 -369 25 -346ZM287 -404Q284 -404 281 -401Q278 -399 277 -397L267 -339Q269 -341 272 -343Q303 -367 303 -394L302 -404Q301 -404 298 -404Q296 -404 292.5 -404Q289 -404 287 -404Z"/>
</svg>