<svg xmlns="http://www.w3.org/2000/svg" viewBox="0 -1024 1024 1024">
	<path fill="#000088" d="M177 -106Q178 -106 180 -106Q182 -106 183 -106Q186 -106 189 -105L217 -88Q234 -88 257 -102Q241 -126 199 -154Q143 -107 100.5 -79.5Q58 -52 26 -52H5V-142H9Q51 -142 130 -202Q90 -237 90 -282Q90 -330 106 -357L141 -418Q155 -442 181 -452Q185 -452 193.5 -452.5Q202 -453 206 -453Q234 -453 247 -446Q283 -429 299 -416L335 -386L337 -328L321 -284Q303 -235 286 -224Q275 -216 258 -203Q260 -202 272 -194Q284 -186 287.5 -184Q291 -182 300.5 -175Q310 -168 315 -164Q320 -160 326.5 -154Q333 -148 338 -142L353 -146L379 -59Q375 -57 367 -54.5Q359 -52 355 -51Q353 -46 350 -42L315 19Q299 46 278 46Q237 46 211 31L159 1Q134 -13 134 -38Q134 -41 135 -43L170 -104Q172 -106 177 -106ZM250 -300L248 -356L241 -361Q234 -362 223 -362Q219 -362 210.5 -362Q202 -362 198 -362Q188 -358 180 -352Q177 -335 177 -312Q177 -281 196 -256Q235 -289 250 -300Z"/>
	<path fill="#800080" d="M173 -97Q174 -97 176 -96.5Q178 -96 179 -96Q184 -96 188 -92Q189 -91 191.5 -88.5Q194 -86 195 -85Q196 -84 198 -82.5Q200 -81 202 -80.5Q204 -80 207 -79Q210 -78 213 -78Q232 -78 263 -98Q259 -109 252 -118Q240 -128 215.5 -143.5Q191 -159 181 -166Q124 -118 80.5 -90Q37 -62 5 -62H1Q-14 -62 -24 -72Q-34 -82 -34 -97Q-34 -112 -24 -122Q-14 -132 1 -132H5Q50 -132 140 -203L117 -225Q86 -257 86 -297Q86 -361 114 -389L149 -425Q161 -436 177 -442Q181 -442 189.5 -442.5Q198 -443 202 -443Q230 -443 243 -436L279 -406Q314 -377 314 -371L316 -313L300 -269Q295 -253 265 -234Q251 -224 228 -206Q258 -187 273 -171L308 -136Q313 -131 317 -127L349 -136Q354 -138 359 -138Q373 -138 383 -128Q393 -118 393 -104Q393 -93 386 -84Q379 -75 368 -71Q349 -66 340 -63Q340 -34 318 -11L283 24Q270 36 257 36Q202 36 177 12L142 -24Q130 -36 130 -53Q130 -58 131 -60L167 -95Q168 -97 173 -97ZM177 -372Q173 -370 170 -368Q156 -342 156 -297Q156 -267 173 -243Q177 -240 181 -237Q227 -276 234 -281L246 -313L244 -365L243 -366Q230 -372 202 -372Q198 -372 189.5 -372Q181 -372 177 -372Z"/>
	<path fill="#daa520" d="M197 -66Q198 -66 200 -66Q202 -66 203 -66Q211 -66 219 -57Q227 -48 237 -48Q249 -48 264 -55.5Q279 -63 295.5 -74.5Q312 -86 320 -89Q315 -107 300 -124Q285 -141 272 -150.5Q259 -160 234 -177Q214 -189 206 -195Q169 -164 143.5 -145Q118 -126 85 -109Q52 -92 29 -92H25Q20 -92 20 -97Q20 -102 25 -102H29Q78 -102 197 -201Q140 -244 140 -297Q140 -388 199 -412Q200 -412 201 -412Q205 -412 213.5 -412Q222 -412 226 -412Q255 -412 269 -406Q270 -405 270 -405L306 -375Q308 -373 308 -371L310 -313Q310 -312 310 -311L294 -267Q293 -266 292 -265Q274 -253 213 -202Q222 -196 240 -184.5Q258 -173 269 -165.5Q280 -158 293.5 -146Q307 -134 316 -121Q325 -108 330 -93Q331 -94 372 -106Q372 -106 373 -106Q378 -106 378 -101Q378 -97 374 -96L334 -84Q333 -84 332 -83Q334 -74 334 -63Q334 -40 318 -17Q302 6 281 6Q246 6 215 -7.5Q184 -21 184 -53Q184 -61 189 -64Q191 -66 197 -66ZM150 -297Q150 -248 205 -208Q268 -261 285 -272L300 -314L298 -369L264 -397Q252 -402 226 -402Q222 -402 214 -402Q206 -402 202 -402Q150 -381 150 -297ZM194 -56ZM197 -56Q194 -56 194 -56Q194 -56 194 -53Q194 -28 221.5 -16Q249 -4 281 -4Q297 -4 310.5 -23.5Q324 -43 324 -63Q324 -71 323 -79Q314 -75 298 -64Q259 -38 237 -38Q223 -38 211 -50Q206 -56 203 -56Q202 -56 200 -56Q198 -56 197 -56Z"/>
</svg>