<svg xmlns="http://www.w3.org/2000/svg" viewBox="0 -1024 1024 1024">
	<path fill="#000088" d="M222 -97Q223 -97 225 -96.5Q227 -96 228 -96Q233 -96 237 -92Q238 -91 240.5 -88.5Q243 -86 244 -85Q245 -84 247 -82.5Q249 -81 251 -80.5Q253 -80 256 -79Q259 -78 262 -78Q281 -78 312 -98Q308 -109 301 -118Q289 -128 264.5 -143.5Q240 -159 230 -166Q173 -118 129.5 -90Q86 -62 54 -62H50Q35 -62 25 -72Q15 -82 15 -97Q15 -112 25 -122Q35 -132 50 -132H54Q99 -132 189 -203L166 -225Q135 -257 135 -297Q135 -361 163 -389L198 -425Q210 -436 226 -442Q230 -442 238.5 -442.5Q247 -443 251 -443Q279 -443 292 -436L328 -406Q363 -377 363 -371L365 -313L349 -269Q344 -253 314 -234Q300 -224 277 -206Q307 -187 322 -171L357 -136Q362 -131 366 -127L398 -136Q403 -138 408 -138Q422 -138 432 -128Q442 -118 442 -104Q442 -93 435 -84Q428 -75 417 -71Q398 -66 389 -63Q389 -34 367 -11L332 24Q319 36 306 36Q251 36 226 12L191 -24Q179 -36 179 -53Q179 -58 180 -60L216 -95Q217 -97 222 -97ZM226 -372Q222 -370 219 -368Q205 -342 205 -297Q205 -267 222 -243Q226 -240 230 -237Q276 -276 283 -281L295 -313L293 -365L292 -366Q279 -372 251 -372Q247 -372 238.5 -372Q230 -372 226 -372Z"/>
	<path fill="#800080" d="M173 -97Q174 -97 176 -96.5Q178 -96 179 -96Q184 -96 188 -92Q189 -91 191.5 -88.5Q194 -86 195 -85Q196 -84 198 -82.5Q200 -81 202 -80.5Q204 -80 207 -79Q210 -78 213 -78Q232 -78 263 -98Q259 -109 252 -118Q240 -128 215.5 -143.5Q191 -159 181 -166Q124 -118 80.5 -90Q37 -62 5 -62H1Q-14 -62 -24 -72Q-34 -82 -34 -97Q-34 -112 -24 -122Q-14 -132 1 -132H5Q50 -132 140 -203L117 -225Q86 -257 86 -297Q86 -361 114 -389L149 -425Q161 -436 177 -442Q181 -442 189.5 -442.5Q198 -443 202 -443Q230 -443 243 -436L279 -406Q314 -377 314 -371L316 -313L300 -269Q295 -253 265 -234Q251 -224 228 -206Q258 -187 273 -171L308 -136Q313 -131 317 -127L349 -136Q354 -138 359 -138Q373 -138 383 -128Q393 -118 393 -104Q393 -93 386 -84Q379 -75 368 -71Q349 -66 340 -63Q340 -34 318 -11L283 24Q270 36 257 36Q202 36 177 12L142 -24Q130 -36 130 -53Q130 -58 131 -60L167 -95Q168 -97 173 -97ZM177 -372Q173 -370 170 -368Q156 -342 156 -297Q156 -267 173 -243Q177 -240 181 -237Q227 -276 234 -281L246 -313L244 -365L243 -366Q230 -372 202 -372Q198 -372 189.5 -372Q181 -372 177 -372Z"/>
	<path fill="#daa520" d="M177 -66Q178 -66 180 -66Q182 -66 183 -66Q191 -66 199 -57Q207 -48 217 -48Q229 -48 244 -55.5Q259 -63 275.5 -74.5Q292 -86 300 -89Q295 -107 280 -124Q265 -141 252 -150.5Q239 -160 214 -177Q194 -189 186 -195Q149 -164 123.5 -145Q98 -126 65 -109Q32 -92 9 -92H5Q0 -92 0 -97Q0 -102 5 -102H9Q58 -102 177 -201Q120 -244 120 -297Q120 -388 179 -412Q180 -412 181 -412Q185 -412 193.5 -412Q202 -412 206 -412Q235 -412 249 -406Q250 -405 250 -405L286 -375Q288 -373 288 -371L290 -313Q290 -312 290 -311L274 -267Q273 -266 272 -265Q254 -253 193 -202Q202 -196 220 -184.5Q238 -173 249 -165.5Q260 -158 273.5 -146Q287 -134 296 -121Q305 -108 310 -93Q311 -94 352 -106Q352 -106 353 -106Q358 -106 358 -101Q358 -97 354 -96L314 -84Q313 -84 312 -83Q314 -74 314 -63Q314 -40 298 -17Q282 6 261 6Q226 6 195 -7.5Q164 -21 164 -53Q164 -61 169 -64Q171 -66 177 -66ZM130 -297Q130 -248 185 -208Q248 -261 265 -272L280 -314L278 -369L244 -397Q232 -402 206 -402Q202 -402 194 -402Q186 -402 182 -402Q130 -381 130 -297ZM174 -56ZM177 -56Q174 -56 174 -56Q174 -56 174 -53Q174 -28 201.5 -16Q229 -4 261 -4Q277 -4 290.5 -23.5Q304 -43 304 -63Q304 -71 303 -79Q294 -75 278 -64Q239 -38 217 -38Q203 -38 191 -50Q186 -56 183 -56Q182 -56 180 -56Q178 -56 177 -56Z"/>
</svg>