<svg xmlns="http://www.w3.org/2000/svg" viewBox="0 -1024 1024 1024">
	<path fill="#000088" d="M222 -97Q223 -97 225 -96.5Q227 -96 228 -96Q233 -96 237 -92Q238 -91 240.5 -88.5Q243 -86 244 -85Q245 -84 247 -82.5Q249 -81 251 -80.5Q253 -80 256 -79Q259 -78 262 -78Q281 -78 312 -98Q308 -109 301 -118Q289 -128 264.5 -143.5Q240 -159 230 -166Q173 -118 129.5 -90Q86 -62 54 -62H50Q35 -62 25 -72Q15 -82 15 -97Q15 -112 25 -122Q35 -132 50 -132H54Q99 -132 189 -203L166 -225Q135 -257 135 -297Q135 -361 163 -389L198 -425Q210 -436 226 -442Q230 -442 238.5 -442.5Q247 -443 251 -443Q279 -443 292 -436L328 -406Q363 -377 363 -371L365 -313L349 -269Q344 -253 314 -234Q300 -224 277 -206Q307 -187 322 -171L357 -136Q362 -131 366 -127L398 -136Q403 -138 408 -138Q422 -138 432 -128Q442 -118 442 -104Q442 -93 435 -84Q428 -75 417 -71Q398 -66 389 -63Q389 -34 367 -11L332 24Q319 36 306 36Q251 36 226 12L191 -24Q179 -36 179 -53Q179 -58 180 -60L216 -95Q217 -97 222 -97ZM226 -372Q222 -370 219 -368Q205 -342 205 -297Q205 -267 222 -243Q226 -240 230 -237Q276 -276 283 -281L295 -313L293 -365L292 -366Q279 -372 251 -372Q247 -372 238.5 -372Q230 -372 226 -372Z"/>
	<path fill="#800080" d="M173 -97Q174 -97 176 -96.5Q178 -96 179 -96Q184 -96 188 -92Q189 -91 191.5 -88.5Q194 -86 195 -85Q196 -84 198 -82.5Q200 -81 202 -80.5Q204 -80 207 -79Q210 -78 213 -78Q232 -78 263 -98Q259 -109 252 -118Q240 -128 215.5 -143.5Q191 -159 181 -166Q124 -118 80.5 -90Q37 -62 5 -62H1Q-14 -62 -24 -72Q-34 -82 -34 -97Q-34 -112 -24 -122Q-14 -132 1 -132H5Q50 -132 140 -203L117 -225Q86 -257 86 -297Q86 -361 114 -389L149 -425Q161 -436 177 -442Q181 -442 189.5 -442.5Q198 -443 202 -443Q230 -443 243 -436L279 -406Q314 -377 314 -371L316 -313L300 -269Q295 -253 265 -234Q251 -224 228 -206Q258 -187 273 -171L308 -136Q313 -131 317 -127L349 -136Q354 -138 359 -138Q373 -138 383 -128Q393 -118 393 -104Q393 -93 386 -84Q379 -75 368 -71Q349 -66 340 -63Q340 -34 318 -11L283 24Q270 36 257 36Q202 36 177 12L142 -24Q130 -36 130 -53Q130 -58 131 -60L167 -95Q168 -97 173 -97ZM177 -372Q173 -370 170 -368Q156 -342 156 -297Q156 -267 173 -243Q177 -240 181 -237Q227 -276 234 -281L246 -313L244 -365L243 -366Q230 -372 202 -372Q198 -372 189.5 -372Q181 -372 177 -372Z"/>
	<path fill="#daa520" d="M197 -66Q198 -66 200 -66Q202 -66 203 -66Q211 -66 219 -57Q227 -48 237 -48Q249 -48 264 -55.5Q279 -63 295.5 -74.5Q312 -86 320 -89Q315 -107 300 -124Q285 -141 272 -150.5Q259 -160 234 -177Q214 -189 206 -195Q169 -164 143.5 -145Q118 -126 85 -109Q52 -92 29 -92H25Q20 -92 20 -97Q20 -102 25 -102H29Q78 -102 197 -201Q140 -244 140 -297Q140 -388 199 -412Q200 -412 201 -412Q205 -412 213.5 -412Q222 -412 226 -412Q255 -412 269 -406Q270 -405 270 -405L306 -375Q308 -373 308 -371L310 -313Q310 -312 310 -311L294 -267Q293 -266 292 -265Q274 -253 213 -202Q222 -196 240 -184.5Q258 -173 269 -165.5Q280 -158 293.5 -146Q307 -134 316 -121Q325 -108 330 -93Q331 -94 372 -106Q372 -106 373 -106Q378 -106 378 -101Q378 -97 374 -96L334 -84Q333 -84 332 -83Q334 -74 334 -63Q334 -40 318 -17Q302 6 281 6Q246 6 215 -7.5Q184 -21 184 -53Q184 -61 189 -64Q191 -66 197 -66ZM150 -297Q150 -248 205 -208Q268 -261 285 -272L300 -314L298 -369L264 -397Q252 -402 226 -402Q222 -402 214 -402Q206 -402 202 -402Q150 -381 150 -297ZM194 -56ZM197 -56Q194 -56 194 -56Q194 -56 194 -53Q194 -28 221.5 -16Q249 -4 281 -4Q297 -4 310.5 -23.5Q324 -43 324 -63Q324 -71 323 -79Q314 -75 298 -64Q259 -38 237 -38Q223 -38 211 -50Q206 -56 203 -56Q202 -56 200 -56Q198 -56 197 -56Z"/>
</svg>