<svg xmlns="http://www.w3.org/2000/svg" viewBox="0 -1024 1024 1024">
	<path fill="#000088" d="M134 -545Q124 -545 105 -551Q86 -557 76 -557H72Q57 -557 47 -567Q37 -577 37 -592Q37 -607 47 -617Q57 -627 72 -627H76Q86 -627 105 -621Q124 -615 134 -615Q156 -615 199.5 -625Q243 -635 264 -635H268L385 -567Q400 -559 400 -541Q400 -528 391 -519Q382 -510 369 -510Q361 -510 354 -515L268 -565H264Q243 -565 199.5 -555Q156 -545 134 -545ZM318 23Q314 23 306.5 23Q299 23 296 23Q269 23 255.5 20.5Q242 18 233 8L197 -27Q189 -35 181 -52L175 -92L166 -191Q139 -146 105 -112L70 -77Q59 -66 48 -57Q40 -50 31 -50Q19 -50 11 -58Q3 -66 3 -78Q3 -90 13 -98Q50 -129 52 -131Q119 -208 153 -323L151 -346Q143 -394 135 -446L127 -524L123 -626L129 -696L139 -772Q140 -780 173 -807L182 -815Q186 -819 190 -819Q194 -819 198 -816L234 -780Q253 -761 253 -640Q253 -584 248 -495Q247 -479 247 -476Q245 -399 223 -323Q225 -304 229.5 -266.5Q234 -229 235 -210L245 -92L251 -52Q252 -52 252 -51Q264 -47 296 -47Q299 -47 306.5 -47Q314 -47 318 -47Q336 -47 350 -60Q356 -70 366.5 -92Q377 -114 383 -124Q392 -142 411 -142Q424 -142 433.5 -132.5Q443 -123 443 -110Q443 -103 439 -96L419 -56Q411 -39 384 -21Q382 -19 379 -17L358 4Q339 23 318 23Z"/>
	<path fill="#800080" d="M85 -545Q75 -545 56 -551Q37 -557 27 -557H23Q8 -557 -2 -567Q-12 -577 -12 -592Q-12 -607 -2 -617Q8 -627 23 -627H27Q37 -627 56 -621Q75 -615 85 -615Q107 -615 150.5 -625Q194 -635 215 -635H219L336 -567Q351 -559 351 -541Q351 -528 342 -519Q333 -510 320 -510Q312 -510 305 -515L219 -565H215Q194 -565 150.5 -555Q107 -545 85 -545ZM269 23Q265 23 257.5 23Q250 23 247 23Q220 23 206.5 20.5Q193 18 184 8L148 -27Q140 -35 132 -52L126 -92L117 -191Q90 -146 56 -112L21 -77Q10 -66 -1 -57Q-9 -50 -18 -50Q-30 -50 -38 -58Q-46 -66 -46 -78Q-46 -90 -36 -98Q1 -129 3 -131Q70 -208 104 -323L102 -346Q94 -394 86 -446L78 -524L74 -626L80 -696L90 -772Q91 -780 124 -807L133 -815Q137 -819 141 -819Q145 -819 149 -816L185 -780Q204 -761 204 -640Q204 -584 199 -495Q198 -479 198 -476Q196 -399 174 -323Q176 -304 180.5 -266.5Q185 -229 186 -210L196 -92L202 -52Q203 -52 203 -51Q215 -47 247 -47Q250 -47 257.5 -47Q265 -47 269 -47Q287 -47 301 -60Q307 -70 317.5 -92Q328 -114 334 -124Q343 -142 362 -142Q375 -142 384.5 -132.5Q394 -123 394 -110Q394 -103 390 -96L370 -56Q362 -39 335 -21Q333 -19 330 -17L309 4Q290 23 269 23Z"/>
	<path fill="#daa520" d="M91 -575Q80 -575 61.5 -581Q43 -587 33 -587H29Q24 -587 24 -592Q24 -597 29 -597H33Q43 -597 62 -591Q81 -585 91 -585Q112 -585 156 -595Q200 -605 221 -605H225Q226 -605 228 -604L314 -554Q316 -553 316 -550Q316 -545 311 -545Q310 -545 308 -546L224 -595H221Q202 -595 160 -585Q114 -575 91 -575ZM147 -779Q146 -779 136 -769L126 -695L120 -626L124 -524L132 -447Q140 -397 147 -351Q162 -413 164 -476Q164 -479 165 -496Q170 -584 170 -640Q170 -711 163 -747Q157 -779 147 -779ZM275 -17Q288 -17 298.5 -24Q309 -31 320 -43Q331 -55 337 -59L357 -98Q358 -101 361 -101Q366 -101 366 -96Q366 -95 365 -94L345 -54Q345 -53 344 -52Q337 -47 325.5 -34.5Q314 -22 302.5 -14.5Q291 -7 275 -7Q271 -7 263.5 -7Q256 -7 253 -7Q212 -7 197 -15Q181 -24 169 -50Q168 -50 168 -51L162 -91V-92Q149 -239 146 -257Q146 -257 142 -298Q97 -162 8 -88Q7 -87 5 -87Q0 -87 0 -92Q0 -94 2 -96Q97 -175 140 -324L138 -345Q130 -393 122 -445L114 -523Q114 -524 114 -524L110 -626L116 -696Q116 -697 116 -697L126 -773Q126 -775 127.5 -776Q129 -777 132.5 -781Q136 -785 139 -787Q142 -789 147 -789Q165 -789 173 -749Q180 -712 180 -640Q180 -583 175 -495Q174 -479 174 -476Q172 -398 150 -323L156 -259Q158 -232 163.5 -176.5Q169 -121 172 -93L178 -54Q189 -31 201.5 -24Q214 -17 253 -17Q256 -17 263.5 -17Q271 -17 275 -17Z"/>
</svg>