<svg xmlns="http://www.w3.org/2000/svg" viewBox="0 -1024 1024 1024">
	<path fill="#000088" d="M142 -535Q132 -535 113.5 -541Q95 -547 84 -547H64V-637H68Q78 -637 96.5 -631Q115 -625 126 -625Q147 -625 191 -635Q235 -645 256 -645H260Q260 -645 311 -615L397 -565L362 -505L276 -555H272Q251 -555 207.5 -545Q164 -535 142 -535ZM326 33Q323 33 315.5 33Q308 33 304 33Q264 33 250 25L198 -5Q185 -13 173 -37L167 -77L158 -178L144 -154Q106 -88 56 -47L5 -109L40 -137Q78 -169 109 -215Q130 -259 145 -308L143 -331Q135 -379 127 -431L119 -509L115 -611L121 -681L130 -757Q135 -793 166 -817Q167 -818 170 -821.5Q173 -825 175.5 -827Q178 -829 182 -829Q184 -829 187 -828L239 -798Q261 -785 261 -655Q261 -599 256 -511Q256 -495 255 -491Q253 -414 232 -339Q233 -320 237.5 -282Q242 -244 243 -225L253 -107L259 -67Q262 -62 265 -58Q273 -57 287 -57Q291 -57 298.5 -57Q306 -57 310 -57Q320 -57 329 -61.5Q338 -66 343 -70.5Q348 -75 356 -83.5Q364 -92 368 -95L390 -140L447 -111L427 -71Q400 -15 392 -11Q386 -6 375 6Q364 18 352.5 25.5Q341 33 326 33Z"/>
	<path fill="#800080" d="M85 -545Q75 -545 56 -551Q37 -557 27 -557H23Q8 -557 -2 -567Q-12 -577 -12 -592Q-12 -607 -2 -617Q8 -627 23 -627H27Q37 -627 56 -621Q75 -615 85 -615Q107 -615 150.5 -625Q194 -635 215 -635H219L336 -567Q351 -559 351 -541Q351 -528 342 -519Q333 -510 320 -510Q312 -510 305 -515L219 -565H215Q194 -565 150.5 -555Q107 -545 85 -545ZM269 23Q265 23 257.5 23Q250 23 247 23Q220 23 206.5 20.5Q193 18 184 8L148 -27Q140 -35 132 -52L126 -92L117 -191Q90 -146 56 -112L21 -77Q10 -66 -1 -57Q-9 -50 -18 -50Q-30 -50 -38 -58Q-46 -66 -46 -78Q-46 -90 -36 -98Q1 -129 3 -131Q70 -208 104 -323L102 -346Q94 -394 86 -446L78 -524L74 -626L80 -696L90 -772Q91 -780 124 -807L133 -815Q137 -819 141 -819Q145 -819 149 -816L185 -780Q204 -761 204 -640Q204 -584 199 -495Q198 -479 198 -476Q196 -399 174 -323Q176 -304 180.5 -266.5Q185 -229 186 -210L196 -92L202 -52Q203 -52 203 -51Q215 -47 247 -47Q250 -47 257.5 -47Q265 -47 269 -47Q287 -47 301 -60L334 -124Q343 -142 362 -142Q375 -142 384.5 -132.5Q394 -123 394 -110Q394 -103 390 -96L370 -56Q362 -39 335 -21Q333 -19 330 -17L309 4Q290 23 269 23Z"/>
	<path fill="#daa520" d="M111 -575Q100 -575 81.5 -581Q63 -587 53 -587H49Q44 -587 44 -592Q44 -597 49 -597H53Q63 -597 82 -591Q101 -585 111 -585Q132 -585 176 -595Q220 -605 241 -605H245Q246 -605 248 -604L334 -554Q336 -553 336 -550Q336 -545 331 -545Q330 -545 328 -546L244 -595H241Q222 -595 180 -585Q134 -575 111 -575ZM167 -779Q166 -779 156 -769L146 -695L140 -626L144 -524L152 -447Q160 -397 167 -351Q182 -413 184 -476Q184 -479 185 -496Q190 -584 190 -640Q190 -711 183 -747Q177 -779 167 -779ZM295 -17Q308 -17 318.5 -24Q329 -31 340 -43Q351 -55 357 -59L377 -98Q378 -101 381 -101Q386 -101 386 -96Q386 -95 385 -94L365 -54Q365 -53 364 -52Q357 -47 345.5 -34.5Q334 -22 322.5 -14.5Q311 -7 295 -7Q291 -7 283.5 -7Q276 -7 273 -7Q232 -7 217 -15Q201 -24 189 -50Q188 -50 188 -51L182 -91V-92Q169 -239 166 -257Q166 -257 162 -298Q117 -162 28 -88Q27 -87 25 -87Q20 -87 20 -92Q20 -94 22 -96Q117 -175 160 -324L158 -345Q150 -393 142 -445L134 -523Q134 -524 134 -524L130 -626L136 -696Q136 -697 136 -697L146 -773Q146 -775 147.5 -776Q149 -777 152.5 -781Q156 -785 159 -787Q162 -789 167 -789Q185 -789 193 -749Q200 -712 200 -640Q200 -583 195 -495Q194 -479 194 -476Q192 -398 170 -323L176 -259Q178 -232 183.5 -176.5Q189 -121 192 -93L198 -54Q209 -31 221.5 -24Q234 -17 273 -17Q276 -17 283.5 -17Q291 -17 295 -17Z"/>
</svg>