<svg xmlns="http://www.w3.org/2000/svg" viewBox="0 -1024 1024 1024">
	<path fill="#000088" d="M371 -334Q371 -313 373 -267.5Q375 -222 375 -198Q375 -191 375 -185Q377 -176 386.5 -121Q396 -66 407 -42Q411 -41 416 -41Q417 -41 418 -41Q424 -40 429 -40Q434 -40 438 -41Q447 -59 461 -113Q464 -124 473 -131.5Q482 -139 494 -139Q508 -139 518 -129Q528 -119 528 -105Q528 -100 527 -96Q512 -36 493 -17L458 18Q445 31 429 31Q424 31 418 29Q417 29 416 29Q400 29 387 17L352 -18Q348 -23 344 -29Q339 -22 334 -17L299 19Q280 37 253 37Q244 37 234 35Q231 36 228 36Q199 36 177 13L142 -22Q110 -54 102 -111Q98 -106 94 -102L58 -67Q44 -52 32 -52Q22 -52 14 -59.5Q6 -67 6 -78Q6 -90 15 -97L38 -119Q70 -157 91 -212Q89 -233 89 -256Q89 -337 109 -426Q112 -441 122 -451Q132 -461 144 -461Q147 -461 149 -459L184 -424Q193 -415 193 -378Q193 -362 191 -350Q183 -271 161 -212Q164 -177 171 -146Q171 -142 171 -137Q171 -84 196 -43Q211 -35 228 -35Q231 -35 234 -35Q244 -33 253 -33Q267 -33 279 -39Q303 -84 304 -185Q301 -197 292 -229.5Q283 -262 279 -280L269 -326L267 -402Q268 -404 272 -411.5Q276 -419 279 -422L314 -457Q316 -459 318 -459L354 -424Q355 -422 360 -406.5Q365 -391 365 -388V-376Q365 -372 368 -365.5Q371 -359 371 -356Z"/>
	<path fill="#800080" d="M322 -334Q322 -313 324 -267.5Q326 -222 326 -198Q326 -191 326 -185Q328 -176 337.5 -121Q347 -66 358 -42Q362 -41 367 -41Q368 -41 369 -41Q375 -40 380 -40Q385 -40 389 -41Q398 -59 412 -113Q415 -124 424 -131.5Q433 -139 445 -139Q459 -139 469 -129Q479 -119 479 -105Q479 -100 478 -96Q463 -36 444 -17L409 18Q396 31 380 31Q375 31 369 29Q368 29 367 29Q351 29 338 17L303 -18Q299 -23 295 -29Q290 -22 285 -17L250 19Q231 37 204 37Q195 37 185 35Q182 36 179 36Q150 36 128 13L93 -22Q61 -54 53 -111Q49 -106 45 -102L9 -67Q-5 -52 -17 -52Q-27 -52 -35 -59.5Q-43 -67 -43 -78Q-43 -90 -34 -97L-11 -119Q21 -157 42 -212Q40 -233 40 -256Q40 -337 60 -426Q63 -441 73 -451Q83 -461 95 -461Q98 -461 100 -459L135 -424Q144 -415 144 -378Q144 -362 142 -350Q134 -271 112 -212Q115 -177 122 -146Q122 -142 122 -137Q122 -84 147 -43Q162 -35 179 -35Q182 -35 185 -35Q195 -33 204 -33Q218 -33 230 -39Q254 -84 255 -185Q252 -197 243 -229.5Q234 -262 230 -280L220 -326L218 -402Q219 -404 223 -411.5Q227 -419 230 -422L265 -457Q267 -459 269 -459L305 -424Q306 -422 311 -406.5Q316 -391 316 -388V-376Q316 -372 319 -365.5Q322 -359 322 -356Z"/>
	<path fill="#daa520" d="M102 -417Q84 -333 84 -256Q84 -247 85 -239Q99 -288 106 -351Q107 -362 107 -378Q107 -407 102 -417ZM280 -376V-388Q277 -400 271 -416Q269 -414 266 -408Q263 -402 262 -401L264 -327L274 -281Q276 -271 289 -224Q289 -238 287.5 -276.5Q286 -315 286 -334V-356Q286 -358 284 -364Q280 -371 280 -376ZM96 -137Q96 -87 120 -46Q144 -5 183 -5Q184 -5 186 -5Q188 -5 189 -5Q189 -5 190 -5Q199 -3 208 -3Q287 -3 289 -184Q285 -201 276.5 -233Q268 -265 264 -279L254 -325Q254 -325 254 -326L252 -402Q252 -403 253 -405Q254 -407 257.5 -413Q261 -419 263 -422Q268 -429 273 -429Q275 -429 277 -427Q278 -426 280 -423Q290 -398 290 -388V-376Q290 -373 293 -366.5Q296 -360 296 -356V-334Q296 -313 297.5 -267.5Q299 -222 299 -198Q299 -192 299 -186Q304 -166 309 -137Q319 -70 331 -44Q347 -11 371 -11Q371 -11 372 -11Q373 -11 373 -11Q374 -11 374 -11Q379 -10 384 -10Q396 -10 406 -17.5Q416 -25 423 -40.5Q430 -56 434 -68Q438 -80 442 -97Q443 -101 447 -101Q452 -101 452 -96Q452 -95 452 -95Q448 -79 446 -71.5Q444 -64 437.5 -47.5Q431 -31 424.5 -22.5Q418 -14 407.5 -7Q397 0 384 0Q373 -1 373 -1Q372 -1 371 -1Q368 -4 356.5 -9.5Q345 -15 336 -22.5Q327 -30 322 -40Q310 -67 298 -143Q288 7 208 7Q189 5 189 5Q186 5 183 5Q138 5 112 -39.5Q86 -84 86 -137Q86 -141 86 -146Q81 -167 78 -191Q52 -130 8 -90Q7 -89 5 -89Q0 -89 0 -94Q0 -96 2 -98Q49 -141 76 -213Q74 -234 74 -256Q74 -338 94 -427Q95 -431 99 -431Q109 -431 114 -415Q117 -402 117 -378Q117 -362 116 -349Q108 -270 86 -211Q89 -177 96 -147Q96 -147 96 -146Q96 -145 96 -142Q96 -139 96 -137Z"/>
</svg>