<svg xmlns="http://www.w3.org/2000/svg" viewBox="0 -1024 1024 1024">
	<path fill="#000088" d="M379 -349Q379 -328 380.5 -282.5Q382 -237 382 -214Q382 -207 382 -200Q383 -197 394 -135.5Q405 -74 418 -50Q419 -50 420 -50Q431 -50 441 -56Q444 -65 461 -130L535 -111Q524 -68 512 -49L477 12Q461 41 437 41Q432 41 426 39Q425 39 424 39Q413 39 404 34L352 4Q342 -2 334 -14L320 11Q299 47 260 47Q252 47 242 45Q239 46 236 46Q218 46 202 36L150 6Q106 -19 94 -90Q78 -67 58 -49L5 -107L41 -139Q58 -155 73 -175Q78 -185 82 -197Q80 -218 80 -241Q80 -322 100 -411Q106 -437 116 -454Q126 -471 135 -471Q137 -471 138 -470L190 -440Q200 -435 200 -394Q200 -377 199 -365Q190 -286 169 -227Q172 -192 179 -161Q179 -157 179 -152Q179 -88 213 -45Q216 -45 219 -45Q222 -45 225 -45Q235 -43 243 -43Q266 -43 283 -56Q294 -98 295 -170Q292 -181 283 -214Q274 -247 270 -265L260 -311Q258 -387 258 -387Q258 -396 291 -444L299 -459Q305 -469 309 -469L361 -439Q362 -438 367.5 -422Q373 -406 373 -403V-391Q373 -388 376 -381.5Q379 -375 379 -371Z"/>
	<path fill="#800080" d="M322 -334Q322 -313 324 -267.5Q326 -222 326 -198Q326 -191 326 -185Q328 -176 337.5 -121Q347 -66 358 -42Q362 -41 367 -41Q368 -41 369 -41Q375 -40 380 -40Q385 -40 389 -41Q398 -59 412 -113Q415 -124 424 -131.5Q433 -139 445 -139Q459 -139 469 -129Q479 -119 479 -105Q479 -100 478 -96Q463 -36 444 -17L409 18Q396 31 380 31Q375 31 369 29Q368 29 367 29Q351 29 338 17L303 -18Q299 -23 295 -29Q290 -22 285 -17L250 19Q231 37 204 37Q195 37 185 35Q182 36 179 36Q150 36 128 13L93 -22Q61 -54 53 -111Q49 -106 45 -102L9 -67Q-5 -52 -17 -52Q-27 -52 -35 -59.5Q-43 -67 -43 -78Q-43 -90 -34 -97L-11 -119Q21 -157 42 -212Q40 -233 40 -256Q40 -337 60 -426Q63 -441 73 -451Q83 -461 95 -461Q98 -461 100 -459L135 -424Q144 -415 144 -378Q144 -362 142 -350Q134 -271 112 -212Q115 -177 122 -146Q122 -142 122 -137Q122 -84 147 -43Q162 -35 179 -35Q182 -35 185 -35Q195 -33 204 -33Q218 -33 230 -39Q254 -84 255 -185Q252 -197 243 -229.5Q234 -262 230 -280L220 -326L218 -402Q219 -404 223 -411.5Q227 -419 230 -422L265 -457Q267 -459 269 -459L305 -424Q306 -422 311 -406.5Q316 -391 316 -388V-376Q316 -372 319 -365.5Q322 -359 322 -356Z"/>
	<path fill="#daa520" d="M122 -417Q104 -333 104 -256Q104 -247 105 -239Q119 -288 126 -351Q127 -362 127 -378Q127 -407 122 -417ZM300 -376V-388Q297 -400 291 -416Q289 -414 286 -408Q283 -402 282 -401L284 -327L294 -281Q296 -271 309 -224Q309 -238 307.5 -276.5Q306 -315 306 -334V-356Q306 -358 304 -364Q300 -371 300 -376ZM116 -137Q116 -87 140 -46Q164 -5 203 -5Q204 -5 206 -5Q208 -5 209 -5Q209 -5 210 -5Q219 -3 228 -3Q307 -3 309 -184Q305 -201 296.5 -233Q288 -265 284 -279L274 -325Q274 -325 274 -326L272 -402Q272 -403 273 -405Q274 -407 277.5 -413Q281 -419 283 -422Q288 -429 293 -429Q295 -429 297 -427Q298 -426 300 -423Q310 -398 310 -388V-376Q310 -373 313 -366.5Q316 -360 316 -356V-334Q316 -313 317.5 -267.5Q319 -222 319 -198Q319 -192 319 -186Q324 -166 329 -137Q339 -70 351 -44Q367 -11 391 -11Q391 -11 392 -11Q393 -11 393 -11Q394 -11 394 -11Q399 -10 404 -10Q416 -10 426 -17.5Q436 -25 443 -40.5Q450 -56 454 -68Q458 -80 462 -97Q463 -101 467 -101Q472 -101 472 -96Q472 -95 472 -95Q468 -79 466 -71.5Q464 -64 457.5 -47.5Q451 -31 444.5 -22.5Q438 -14 427.5 -7Q417 0 404 0Q393 -1 393 -1Q392 -1 391 -1Q388 -4 376.5 -9.5Q365 -15 356 -22.5Q347 -30 342 -40Q330 -67 318 -143Q308 7 228 7Q209 5 209 5Q206 5 203 5Q158 5 132 -39.5Q106 -84 106 -137Q106 -141 106 -146Q101 -167 98 -191Q72 -130 28 -90Q27 -89 25 -89Q20 -89 20 -94Q20 -96 22 -98Q69 -141 96 -213Q94 -234 94 -256Q94 -338 114 -427Q115 -431 119 -431Q129 -431 134 -415Q137 -402 137 -378Q137 -362 136 -349Q128 -270 106 -211Q109 -177 116 -147Q116 -147 116 -146Q116 -145 116 -142Q116 -139 116 -137Z"/>
</svg>