<svg xmlns="http://www.w3.org/2000/svg" viewBox="0 -1024 1024 1024">
	<path fill="#000088" d="M84 -93Q84 -78 74 -68Q64 -58 49 -58Q34 -58 24 -68Q14 -78 14 -93V-95Q18 -102 20 -117Q22 -132 24 -137Q26 -158 32.5 -198Q39 -238 40 -244Q42 -254 45 -277Q48 -300 51 -312Q52 -339 59 -356Q59 -358 60 -366.5Q61 -375 62 -378Q63 -381 65.5 -386.5Q68 -392 71 -395Q78 -402 78 -402Q80 -405 81 -406L117 -441Q119 -443 121 -443Q132 -443 141.5 -433.5Q151 -424 156 -408Q158 -402 167 -392.5Q176 -383 177 -382Q198 -350 198 -349Q209 -334 209 -317Q212 -310 215 -291Q218 -272 222 -263Q227 -243 241 -207Q255 -171 258 -159L267 -127Q271 -86 272 -50Q277 -58 281 -63Q285 -72 325 -147Q340 -176 344 -192L349 -228L338 -238Q307 -270 290 -298Q269 -331 267 -357Q264 -382 264 -384Q264 -398 270 -405L305 -440Q310 -444 317 -445Q329 -445 339.5 -441Q350 -437 361.5 -429.5Q373 -422 380 -419Q407 -408 415 -384L422 -363L424 -289Q424 -285 422.5 -262.5Q421 -240 419 -229L435 -213Q446 -202 449 -194L489 -143L525 -101Q530 -87 530 -81Q530 -68 520.5 -58Q511 -48 497 -48Q474 -48 466 -70Q464 -76 460 -86.5Q456 -97 455 -101Q410 -154 403 -163Q399 -153 382 -122Q361 -84 351 -63Q349 -60 337.5 -41Q326 -22 318 -14L282 22Q272 32 261 34Q260 34 248 33Q230 32 213 -2L203 -22Q199 -99 197 -127Q189 -154 188 -159Q184 -171 170 -207Q156 -243 152 -263Q147 -272 144 -291Q141 -310 139 -317Q138 -334 128 -349Q127 -349 127 -350Q123 -334 121 -312Q119 -300 115.5 -277Q112 -254 110 -244Q109 -238 103 -198Q97 -158 94 -137Q92 -132 90.5 -117Q89 -102 84 -95ZM351 -365Q342 -370 335 -372Q336 -369 336.5 -364Q337 -359 337 -357Q339 -335 353 -310L352 -363Z"/>
	<path fill="#800080" d="M35 -93Q35 -78 25 -68Q15 -58 0 -58Q-15 -58 -25 -68Q-35 -78 -35 -93V-95Q-31 -102 -29 -117Q-27 -132 -25 -137Q-23 -158 -16.5 -198Q-10 -238 -9 -244Q-7 -254 -4 -277Q-1 -300 2 -312Q3 -339 10 -356Q10 -358 11 -366.5Q12 -375 13 -378Q14 -381 16.5 -386.5Q19 -392 22 -395Q29 -402 29 -402Q31 -405 32 -406L68 -441Q70 -443 72 -443Q83 -443 92.5 -433.5Q102 -424 107 -408Q109 -402 118 -392.5Q127 -383 128 -382Q149 -350 149 -349Q160 -334 160 -317Q163 -310 166 -291Q169 -272 173 -263Q178 -243 192 -207Q206 -171 209 -159L218 -127Q222 -86 223 -50Q228 -58 232 -63Q236 -72 276 -147Q291 -176 295 -192L300 -228L289 -238Q258 -270 241 -298Q220 -331 218 -357Q215 -382 215 -384Q215 -398 221 -405L256 -440Q261 -444 268 -445Q280 -445 290.5 -441Q301 -437 312.5 -429.5Q324 -422 331 -419Q358 -408 366 -384L373 -363L375 -289Q375 -285 373.5 -262.5Q372 -240 370 -229L386 -213Q397 -202 400 -194L440 -143L476 -101Q481 -87 481 -81Q481 -68 471.5 -58Q462 -48 448 -48Q425 -48 417 -70Q415 -76 411 -86.5Q407 -97 406 -101Q361 -154 354 -163Q350 -153 333 -122Q312 -84 302 -63Q300 -60 288.5 -41Q277 -22 269 -14L233 22Q223 32 212 34Q211 34 199 33Q181 32 164 -2L154 -22Q150 -99 148 -127Q140 -154 139 -159Q135 -171 121 -207Q107 -243 103 -263Q98 -272 95 -291Q92 -310 90 -317Q89 -334 79 -349Q78 -349 78 -350Q74 -334 72 -312Q70 -300 66.5 -277Q63 -254 61 -244Q60 -238 54 -198Q48 -158 45 -137Q43 -132 41.5 -117Q40 -102 35 -95ZM302 -365Q293 -370 286 -372Q287 -369 287.5 -364Q288 -359 288 -357Q290 -335 304 -310L303 -363Z"/>
	<path fill="#daa520" d="M82 -410Q83 -404 92 -395.5Q101 -387 102 -385Q103 -383 105.5 -379.5Q108 -376 109 -374Q119 -360 123 -351Q134 -336 135 -318Q137 -311 140 -292Q143 -273 147 -265Q148 -265 148 -264Q152 -244 166 -208.5Q180 -173 184 -160Q193 -131 193 -127Q196 -98 199 -23L207 -7Q213 -6 216 -6Q227 -9 235 -17.5Q243 -26 254.5 -44.5Q266 -63 268 -66Q272 -74 312 -149Q326 -178 330 -193L335 -226Q296 -263 277 -295Q256 -329 253 -356Q250 -381 250 -384Q250 -412 272 -415Q273 -415 273 -415Q286 -415 297 -410.5Q308 -406 319.5 -398.5Q331 -391 338 -389Q340 -388 341 -386L348 -365Q348 -364 348 -363L350 -289L346 -235Q346 -234 345 -230Q370 -206 374 -197L414 -146L450 -104Q450 -104 451 -103L454 -95Q454 -94 454 -93Q454 -88 449 -88Q446 -88 442 -98L406 -140L366 -191Q366 -192 365 -192Q362 -200 344 -218L340 -191Q336 -174 320 -145Q281 -70 277 -61Q276 -60 276 -60Q274 -57 262.5 -37.5Q251 -18 241.5 -8.5Q232 1 218 4Q218 4 217 4Q216 4 204 3Q201 3 200 0L190 -20Q189 -21 189 -22Q185 -98 183 -126Q176 -153 174 -158Q170 -170 156.5 -205.5Q143 -241 138 -261Q134 -271 131 -289.5Q128 -308 125 -315Q125 -316 125 -317Q124 -332 115 -346Q115 -347 114 -347Q114 -348 94 -379Q92 -382 85 -389Q78 -396 75 -401Q69 -394 69 -394Q66 -392 63.5 -388.5Q61 -385 60 -380.5Q59 -376 58 -373Q57 -370 56 -364Q55 -358 55 -355Q55 -355 55 -354Q48 -338 47 -312Q47 -311 47 -311Q44 -299 41 -276Q38 -253 36 -243Q35 -237 28.5 -197.5Q22 -158 20 -136Q20 -136 20 -135Q18 -130 16.5 -115.5Q15 -101 10 -94V-93Q10 -88 5 -88Q0 -88 0 -93V-95Q0 -97 1 -98Q5 -104 6.5 -118.5Q8 -133 10 -138Q12 -160 18.5 -199Q25 -238 26 -245Q28 -255 31 -278Q34 -301 37 -313Q39 -340 45 -357Q46 -360 46.5 -367Q47 -374 48 -377Q49 -380 50.5 -385.5Q52 -391 55.5 -395Q59 -399 63 -402Q64 -403 66 -406Q68 -409 70.5 -411Q73 -413 77 -413Q81 -413 82 -410ZM260 -384Q260 -382 263 -357.5Q266 -333 285 -301Q303 -271 336 -238L340 -289L338 -362L332 -380Q326 -383 315 -390Q304 -397 294 -401Q284 -405 273 -405Q260 -403 260 -384Z"/>
</svg>