<svg xmlns="http://www.w3.org/2000/svg" viewBox="0 -1024 1024 1024">
	<path fill="#000088" d="M393 -325Q393 -327 393 -330.5Q393 -334 393 -336Q393 -380 407 -394L442 -429Q449 -436 460 -436Q475 -436 490 -422L525 -386Q554 -358 574.5 -289Q595 -220 595 -189Q595 -185 595 -181Q630 -162 640 -156Q658 -142 711 -100Q722 -91 722 -78Q722 -66 714 -58Q706 -50 694 -50Q685 -50 677 -56L640 -86Q633 -89 588 -114Q576 -47 544 -15L509 20Q482 46 444 46Q417 46 386 31Q355 16 331 -8L316 6Q292 30 252 30Q215 30 193 8L158 -27Q130 -55 121 -129Q120 -129 84 -92Q67 -75 48 -62Q40 -56 31 -56Q19 -56 11 -64.5Q3 -73 3 -85Q3 -99 14 -108Q57 -139 65 -146Q93 -179 111 -217Q110 -224 109 -229Q106 -240 106 -261Q106 -298 114.5 -344Q123 -390 131 -398L166 -434Q167 -435 168 -435Q169 -435 170 -434L205 -399Q210 -394 211 -361Q212 -355 212 -348Q212 -281 182 -217Q185 -203 188 -166Q196 -81 213 -48Q230 -40 252 -40Q274 -40 292 -48Q253 -89 253 -129Q253 -170 265 -183L301 -218Q307 -224 316 -224Q335 -224 344 -216L379 -181Q387 -172 387 -149Q387 -86 367 -50Q408 -24 444 -24Q469 -24 490 -36Q516 -79 523 -152Q491 -173 470 -194L435 -229Q392 -271 392 -317Q392 -321 393 -325ZM463 -325Q463 -321 463 -317Q463 -281 489 -247Q503 -236 520 -224Q504 -311 472 -363Q469 -365 465 -365Q463 -353 463 -336Q463 -334 463 -330.5Q463 -327 463 -325Z"/>
	<path fill="#800080" d="M344 -325Q344 -327 344 -330.5Q344 -334 344 -336Q344 -380 358 -394L393 -429Q400 -436 411 -436Q426 -436 441 -422L476 -386Q505 -358 525.5 -289Q546 -220 546 -189Q546 -185 546 -181Q581 -162 591 -156L662 -100Q673 -91 673 -78Q673 -66 665 -58Q657 -50 645 -50Q636 -50 628 -56L591 -86Q584 -90 539 -114Q527 -47 495 -15L460 20Q433 46 395 46Q368 46 337 31Q306 16 282 -8L267 6Q243 30 203 30Q166 30 144 8L109 -27Q81 -55 72 -129Q71 -128 35 -92Q18 -75 -1 -62Q-9 -56 -18 -56Q-30 -56 -38 -64.5Q-46 -73 -46 -85Q-46 -99 -35 -108Q8 -139 16 -146Q44 -179 62 -217Q61 -224 60 -229Q57 -240 57 -261Q57 -298 65.5 -344Q74 -390 82 -398L117 -434Q118 -435 119 -435Q120 -435 121 -434L156 -399Q161 -394 162 -361Q163 -355 163 -348Q163 -281 133 -217Q136 -203 139 -166Q147 -81 164 -48Q181 -40 203 -40Q225 -40 243 -48Q204 -89 204 -129Q204 -170 216 -183L252 -218Q258 -224 267 -224Q286 -224 295 -216L330 -181Q338 -172 338 -149Q338 -86 318 -50Q359 -24 395 -24Q420 -24 441 -36Q467 -79 474 -152Q442 -173 421 -194L386 -229Q343 -271 343 -317Q343 -321 344 -325ZM414 -325Q414 -321 414 -317Q414 -281 440 -247Q454 -236 471 -224Q455 -311 423 -363Q420 -365 416 -365Q414 -353 414 -336Q414 -334 414 -330.5Q414 -327 414 -325Z"/>
	<path fill="#daa520" d="M148 -348Q148 -355 148 -361Q147 -381 145 -392Q138 -378 130.5 -335.5Q123 -293 123 -261Q123 -244 125 -233Q148 -289 148 -348ZM270 -129Q270 -93 305 -54Q324 -89 324 -149Q324 -167 320 -174Q314 -184 293 -184Q270 -184 270 -129ZM410 -325Q410 -324 410 -321Q410 -318 410 -317Q410 -245 532 -174Q532 -181 532 -189Q532 -206 522.5 -246.5Q513 -287 499 -323Q469 -396 437 -396Q410 -396 410 -336Q410 -334 410 -330.5Q410 -327 410 -325ZM400 -336Q400 -406 437 -406Q476 -406 508 -326Q523 -290 532.5 -248.5Q542 -207 542 -189Q542 -179 541 -168Q554 -161 580.5 -147Q607 -133 620 -125L657 -96Q659 -94 659 -92Q659 -87 654 -87Q652 -87 651 -88L614 -117Q602 -124 576.5 -137.5Q551 -151 541 -157Q538 -126 532 -99Q526 -72 513 -44.5Q500 -17 476.5 -0.5Q453 16 421 16Q394 16 363 1Q332 -14 307 -38Q280 0 229 0Q210 0 195 -6Q180 -12 170 -20Q160 -28 152 -43.5Q144 -59 140 -70Q136 -81 132.5 -102Q129 -123 128 -133.5Q127 -144 125 -165Q123 -190 121 -201Q86 -135 28 -93Q27 -92 25 -92Q20 -92 20 -97Q20 -100 22 -101Q84 -146 118 -218Q117 -223 116 -228Q113 -239 113 -261Q113 -307 125 -360Q129 -381 134 -392Q136 -398 138 -401Q141 -404 145 -404Q152 -404 154 -394Q158 -379 158 -348Q158 -280 129 -217Q132 -202 135 -166Q137 -137 139 -121Q141 -105 147.5 -80.5Q154 -56 163 -43Q172 -30 189 -20Q206 -10 229 -10Q276 -10 300 -45Q260 -87 260 -129Q260 -129 260 -130.5Q260 -132 260 -132Q260 -194 293 -194Q320 -194 328 -179Q334 -169 334 -149Q334 -84 313 -47Q336 -23 365.5 -8.5Q395 6 421 6Q450 6 471.5 -10Q493 -26 505 -52.5Q517 -79 523 -106Q529 -133 531 -162Q472 -196 436 -233Q400 -270 400 -317Q400 -321 400 -325Q400 -327 400 -330.5Q400 -334 400 -336Z"/>
</svg>