<svg xmlns="http://www.w3.org/2000/svg" viewBox="0 -1024 1024 1024">
	<path fill="#000088" d="M447 13Q435 13 415 11Q395 9 383 9Q372 9 362 4L310 -26Q270 -50 269 -144Q263 -141 258 -138Q250 -117 250 -103Q250 -75 243 -62L208 -1Q202 9 191 9Q184 9 173 3L122 -27L103 -41Q103 -68 117 -92L152 -152Q172 -186 225 -219Q239 -251 239 -269Q239 -319 198 -357Q182 -362 167 -362Q151 -362 138 -356Q138 -354 138 -351Q138 -328 145 -317Q150 -314 150 -308Q150 -291 119 -203Q92 -125 92 -112Q92 -108 93 -107L59 -127V-46Q59 -46 58 -47L6 -77Q5 -77 5 -81Q5 -94 32 -172Q63 -261 63 -278Q63 -281 62 -283L59 -285Q57 -286 54 -300.5Q51 -315 51 -321Q51 -347 61 -364L96 -424Q113 -453 150 -453Q179 -453 208 -435L260 -405Q304 -380 320 -337L346 -382Q382 -445 434 -445Q437 -445 444 -446.5Q451 -448 454 -448Q458 -448 461 -446L513 -416Q518 -413 518 -403Q518 -370 502 -342L467 -282Q441 -236 356 -190Q356 -184 356 -179Q356 -116 375 -81Q383 -81 400.5 -79Q418 -77 430 -77Q444 -77 454 -81V-107H471Q475 -114 480 -119.5Q485 -125 487 -128L475 -107H541Q541 -103 539 -98L522 -70Q522 -65 520 -62L485 -1Q477 13 447 13ZM428 -343Q429 -347 430 -352Q403 -344 382 -319Q378 -310 375 -301Q408 -322 428 -343Z"/>
	<path fill="#800080" d="M92 -293Q92 -276 64.5 -197Q37 -118 35 -103Q36 -97 36 -92Q36 -77 26 -66.5Q16 -56 1 -56Q0 -56 0 -57L-36 -92Q-37 -93 -37 -96Q-37 -110 -10 -188Q21 -276 21 -293Q21 -295 21 -296L17 -300Q15 -303 12.5 -316.5Q10 -330 10 -336Q10 -372 28 -391L64 -426Q80 -443 108 -443Q157 -443 197 -403L232 -367Q252 -347 261 -323Q276 -353 295 -372L330 -407Q359 -435 393 -435Q396 -435 403 -436.5Q410 -438 413 -438Q419 -438 421 -435L457 -400Q460 -396 460 -388Q460 -336 419 -295L384 -259Q356 -231 300 -201Q298 -182 298 -164Q298 -107 313 -73Q319 -71 325 -71Q337 -71 357 -69Q377 -67 389 -67Q394 -67 398 -68Q399 -69 403.5 -74Q408 -79 410.5 -83Q413 -87 413 -92Q413 -106 423 -116.5Q433 -127 448 -127Q463 -127 473 -116.5Q483 -106 483 -92Q483 -85 473.5 -74Q464 -63 464 -56Q464 -48 459 -43L423 -7Q413 3 389 3Q377 3 357 1Q337 -1 325 -1Q307 -1 294 -14L258 -49Q227 -81 227 -163Q221 -159 215 -157Q192 -110 192 -88Q192 -53 181 -41L146 -6Q141 -1 133 -1Q117 -1 97 -20L62 -56Q62 -99 97 -135L133 -171Q146 -184 165 -197Q198 -260 198 -284Q198 -318 177 -348Q143 -372 108 -372Q96 -372 85 -368Q80 -354 80 -336Q80 -319 86 -304Q92 -298 92 -293ZM364 -313Q382 -337 387 -364Q367 -363 349 -351Q329 -322 315 -280Q344 -297 364 -313Z"/>
	<path fill="#daa520" d="M415 -27Q403 -27 383 -29Q363 -31 351 -31Q318 -31 301 -69Q284 -107 284 -164Q284 -186 287 -210Q241 -186 221 -174Q188 -111 188 -88Q188 -31 160 -31Q151 -31 141 -36.5Q131 -42 125 -47L120 -53Q118 -54 118 -56Q118 -96 143 -125.5Q168 -155 213 -182Q254 -261 254 -284Q254 -333 215.5 -367.5Q177 -402 135 -402Q109 -402 92.5 -386Q76 -370 76 -336Q76 -320 82 -305Q88 -303 88 -293Q88 -275 57 -186Q30 -109 30 -96Q32 -94 32 -92Q32 -87 27 -87Q20 -87 20 -96Q20 -110 47 -189Q78 -277 78 -293Q78 -294 78 -295Q75 -296 73 -301Q66 -317 66 -336Q66 -374 85.5 -393Q105 -412 135 -412Q181 -412 222.5 -374.5Q264 -337 264 -284Q264 -259 229 -191Q243 -198 288 -222Q299 -298 333 -351.5Q367 -405 419 -405Q422 -405 429 -406.5Q436 -408 439 -408Q448 -408 453 -402Q456 -397 456 -388Q456 -357 443.5 -331Q431 -305 405 -283.5Q379 -262 356.5 -248Q334 -234 297 -215Q294 -189 294 -164Q294 -109 309 -75Q324 -41 351 -41Q363 -41 383 -39Q403 -37 415 -37Q430 -37 440 -42Q450 -47 450 -56Q450 -65 461 -77Q469 -87 469 -92Q469 -97 474 -97Q479 -97 479 -92Q479 -83 469 -71Q460 -61 460 -56Q460 -40 446.5 -33.5Q433 -27 415 -27ZM419 -395Q374 -395 342.5 -346.5Q311 -298 299 -227Q333 -245 355.5 -259Q378 -273 401 -293Q424 -313 435 -336.5Q446 -360 446 -388Q446 -394 445 -396Q443 -398 439 -398Q436 -398 429.5 -396.5Q423 -395 419 -395ZM160 -41Q178 -41 178 -88Q178 -112 205 -164Q130 -116 128 -58Q147 -41 160 -41Z"/>
</svg>