<svg xmlns="http://www.w3.org/2000/svg" viewBox="0 -1024 1024 1024">
	<path fill="#000088" d="M141 -293Q141 -276 113.5 -197Q86 -118 84 -103Q85 -97 85 -92Q85 -77 75 -66.5Q65 -56 50 -56Q49 -56 49 -57L13 -92Q12 -93 12 -96Q12 -110 39 -188Q70 -276 70 -293Q70 -295 70 -296L66 -300Q64 -303 61.5 -316.5Q59 -330 59 -336Q59 -372 77 -391L113 -426Q129 -443 157 -443Q206 -443 246 -403L281 -367Q301 -347 310 -323Q325 -353 344 -372L379 -407Q408 -435 442 -435Q445 -435 452 -436.5Q459 -438 462 -438Q468 -438 470 -435L506 -400Q509 -396 509 -388Q509 -336 468 -295L433 -259Q405 -231 349 -201Q347 -182 347 -164Q347 -107 362 -73Q368 -71 374 -71Q386 -71 406 -69Q426 -67 438 -67Q443 -67 447 -68Q448 -69 452.5 -74Q457 -79 459.5 -83Q462 -87 462 -92Q462 -106 472 -116.5Q482 -127 497 -127Q512 -127 522 -116.5Q532 -106 532 -92Q532 -85 522.5 -74Q513 -63 513 -56Q513 -48 508 -43L472 -7Q462 3 438 3Q426 3 406 1Q386 -1 374 -1Q356 -1 343 -14L307 -49Q276 -81 276 -163Q270 -160 264 -157Q241 -110 241 -88Q241 -53 230 -41L195 -6Q190 -1 182 -1Q166 -1 146 -20L111 -56Q111 -99 146 -135L182 -171Q195 -184 214 -197Q247 -260 247 -284Q247 -318 226 -348Q192 -372 157 -372Q145 -372 134 -368Q129 -354 129 -336Q129 -319 135 -304Q141 -298 141 -293ZM413 -313Q431 -337 436 -364Q416 -363 398 -351Q378 -322 364 -280Q393 -297 413 -313Z"/>
	<path fill="#800080" d="M92 -293Q92 -276 64.5 -197Q37 -118 35 -103Q36 -97 36 -92Q36 -77 26 -66.5Q16 -56 1 -56Q0 -56 0 -57L-36 -92Q-37 -93 -37 -96Q-37 -110 -10 -188Q21 -276 21 -293Q21 -295 21 -296L17 -300Q15 -303 12.5 -316.5Q10 -330 10 -336Q10 -372 28 -391L64 -426Q80 -443 108 -443Q157 -443 197 -403L232 -367Q252 -347 261 -323Q276 -353 295 -372L330 -407Q359 -435 393 -435Q396 -435 403 -436.5Q410 -438 413 -438Q419 -438 421 -435L457 -400Q460 -396 460 -388Q460 -336 419 -295L384 -259Q356 -231 300 -201Q298 -182 298 -164Q298 -107 313 -73Q319 -71 325 -71Q337 -71 357 -69Q377 -67 389 -67Q394 -67 398 -68Q399 -69 403.5 -74Q408 -79 410.5 -83Q413 -87 413 -92Q413 -106 423 -116.5Q433 -127 448 -127Q463 -127 473 -116.5Q483 -106 483 -92Q483 -85 473.5 -74Q464 -63 464 -56Q464 -48 459 -43L423 -7Q413 3 389 3Q377 3 357 1Q337 -1 325 -1Q307 -1 294 -14L258 -49Q227 -81 227 -163Q221 -160 215 -157Q192 -110 192 -88Q192 -53 181 -41L146 -6Q141 -1 133 -1Q117 -1 97 -20L62 -56Q62 -99 97 -135L133 -171Q146 -184 165 -197Q198 -260 198 -284Q198 -318 177 -348Q143 -372 108 -372Q96 -372 85 -368Q80 -354 80 -336Q80 -319 86 -304Q92 -298 92 -293ZM364 -313Q382 -337 387 -364Q367 -363 349 -351Q329 -322 315 -280Q344 -297 364 -313Z"/>
	<path fill="#daa520" d="M395 -27Q383 -27 363 -29Q343 -31 331 -31Q298 -31 281 -69Q264 -107 264 -164Q264 -186 267 -210Q221 -186 201 -174Q168 -111 168 -88Q168 -31 140 -31Q131 -31 121 -36.5Q111 -42 105 -47L100 -53Q98 -54 98 -56Q98 -96 123 -125.5Q148 -155 193 -182Q234 -261 234 -284Q234 -333 195.5 -367.5Q157 -402 115 -402Q89 -402 72.5 -386Q56 -370 56 -336Q56 -320 62 -305Q68 -303 68 -293Q68 -275 37 -186Q10 -109 10 -96Q12 -94 12 -92Q12 -87 7 -87Q0 -87 0 -96Q0 -110 27 -189Q58 -277 58 -293Q58 -294 58 -295Q55 -296 53 -301Q46 -317 46 -336Q46 -374 65.5 -393Q85 -412 115 -412Q161 -412 202.5 -374.5Q244 -337 244 -284Q244 -259 209 -191Q223 -198 268 -222Q279 -298 313 -351.5Q347 -405 399 -405Q402 -405 409 -406.5Q416 -408 419 -408Q428 -408 433 -402Q436 -397 436 -388Q436 -357 423.5 -331Q411 -305 385 -283.5Q359 -262 336.5 -248Q314 -234 277 -215Q274 -189 274 -164Q274 -109 289 -75Q304 -41 331 -41Q343 -41 363 -39Q383 -37 395 -37Q410 -37 420 -42Q430 -47 430 -56Q430 -65 441 -77Q449 -87 449 -92Q449 -97 454 -97Q459 -97 459 -92Q459 -83 449 -71Q440 -61 440 -56Q440 -40 426.5 -33.5Q413 -27 395 -27ZM399 -395Q354 -395 322.5 -346.5Q291 -298 279 -227Q313 -245 335.5 -259Q358 -273 381 -293Q404 -313 415 -336.5Q426 -360 426 -388Q426 -394 425 -396Q423 -398 419 -398Q416 -398 409.5 -396.5Q403 -395 399 -395ZM140 -41Q158 -41 158 -88Q158 -112 185 -164Q110 -116 108 -58Q127 -41 140 -41Z"/>
</svg>