<svg xmlns="http://www.w3.org/2000/svg" viewBox="0 -1024 1024 1024">
	<path fill="#000088" d="M294 -121Q263 -97 219 -97Q212 -97 205 -101L153 -131Q141 -138 133 -156Q105 -108 65 -59L59 -45Q59 -45 7 -75Q5 -76 5 -79Q5 -80 5 -81Q38 -139 40 -141Q72 -178 95 -213Q105 -234 113 -256Q111 -268 107.5 -291Q104 -314 103 -319L99 -397Q99 -398 99 -399Q99 -434 134 -457Q138 -460 141 -460Q143 -460 145 -458L197 -428Q207 -423 211.5 -399Q216 -375 216 -361Q216 -360 216 -359Q213 -323 200 -286L212 -211Q214 -199 219 -188Q253 -192 279 -212Q275 -231 275 -244Q275 -249 275 -253Q275 -262 273.5 -281Q272 -300 271 -309Q271 -332 271 -332Q271 -374 283 -399Q314 -459 318 -459Q319 -459 320 -459L372 -429Q380 -425 383 -374Q384 -365 384 -363Q388 -343 388 -323Q388 -272 368 -231Q369 -229 372 -211Q376 -188 376 -175Q382 -151 385 -120Q388 -124 400 -141L455 -103L420 -54Q401 -17 390 0Q389 22 385.5 83Q382 144 382 177Q383 181 383 184Q383 188 382 191L347 251Q345 254 342 254Q340 254 337 253Q316 256 302 256Q278 256 265 249L213 219Q198 210 198 192Q198 187 199 181Q199 178 199 175Q199 159 208 143L243 82Q250 71 269 50.5Q288 30 294 19Q299 12 303 5Q303 2 303 0Q303 -27 301 -51Q298 -97 294 -121ZM285 161Q285 163 286 165Q291 165 296 165Q297 149 298 127Q294 132 286 140Q286 141 286 144Q286 147 286 151Q285 156 285 161ZM69 -70L90 -108L84 -111Z"/>
	<path fill="#800080" d="M237 -215Q231 -245 231 -260Q231 -264 232 -268Q232 -277 230 -296Q228 -315 228 -324Q227 -347 227 -348Q227 -390 240 -414Q248 -430 257.5 -439.5Q267 -449 275 -449Q276 -449 278 -448L313 -413Q320 -406 323 -359Q324 -350 324 -348Q328 -328 328 -307Q328 -256 308 -215Q309 -213 312 -196Q316 -173 316 -160Q323 -135 326 -102L346 -129Q354 -142 369 -142Q381 -142 389.5 -133.5Q398 -125 398 -113Q398 -104 392 -96L382 -82L358 -36Q338 -10 330 1Q329 29 325.5 94Q322 159 322 192Q323 197 323 199Q323 205 321 207L285 243Q284 244 281 244Q279 244 277 243Q255 246 241 246Q210 246 198 234L163 198Q155 190 155 177Q155 172 156 166Q155 163 155 159Q155 142 164 128Q173 114 191 95Q209 75 216 64Q232 37 259 1Q259 -7 259 -15Q259 -42 258 -66Q254 -117 249 -144L245 -141Q211 -107 159 -107Q147 -107 137 -116L101 -152Q94 -159 89 -171Q68 -138 39 -103Q44 -95 44 -86Q44 -72 34 -62.5Q24 -53 10 -53Q4 -53 -1 -55Q-2 -55 -2 -55L-37 -91Q-39 -92 -39 -94Q-39 -95 -38 -96Q40 -188 69 -271Q67 -283 63.5 -306.5Q60 -330 60 -334L56 -412Q56 -424 91 -447Q94 -450 98 -450Q101 -450 105 -446L140 -411Q148 -403 152 -380.5Q156 -358 156 -346Q156 -345 156 -344Q153 -308 140 -271L152 -196Q154 -186 157 -177Q158 -177 159 -177Q198 -177 226 -196Q232 -205 237 -215ZM226 159Q226 163 226 166Q226 170 225 174Q233 175 241 175Q246 175 252 175Q252 148 255 102Q226 134 226 159Z"/>
	<path fill="#daa520" d="M145 -346Q145 -366 138 -388Q133 -409 126 -409Q125 -409 125 -409L128 -334L135 -293Q142 -319 144 -345Q145 -345 145 -346ZM300 -260Q300 -248 303 -232Q316 -267 316 -307Q316 -328 313 -347Q312 -349 311 -358Q309 -393 305 -405Q296 -384 296 -348Q296 -347 296 -324Q297 -316 298.5 -296.5Q300 -277 300 -268Q300 -267 300 -264Q300 -261 300 -260ZM299 -201Q261 -137 187 -137Q167 -137 155.5 -155Q144 -173 141 -195L131 -252Q101 -177 30 -94Q32 -93 32 -90Q32 -85 27 -85Q20 -85 20 -94Q20 -97 22 -99Q99 -190 128 -272Q126 -284 122.5 -306.5Q119 -329 119 -333L118 -334L114 -412Q114 -419 126 -419Q140 -419 148 -391Q155 -367 155 -346Q155 -344 154 -343Q151 -307 138 -271L150 -197Q154 -177 163.5 -162Q173 -147 187 -147Q262 -147 296 -216Q290 -244 290 -260Q290 -264 290 -268Q290 -276 289 -295Q286 -319 286 -348Q286 -391 299 -416Q300 -419 303 -419Q309 -419 312 -413Q318 -402 321 -359Q322 -350 322 -349Q326 -329 326 -307Q326 -256 306 -215Q308 -209 308 -205Q314 -172 314 -161Q322 -128 326 -66Q328 -43 328 -15Q328 -14 328 -14Q333 -20 347 -39L371 -84Q371 -85 371 -85L381 -99Q383 -101 385 -101Q390 -101 390 -96Q390 -94 390 -93L380 -79L356 -34Q356 -33 355 -33Q336 -7 328 3Q327 31 323.5 94.5Q320 158 320 192Q321 196 321 199Q321 214 310 214Q305 213 305 213Q284 216 270 216Q213 216 213 177Q213 171 214 166Q214 163 214 159Q214 146 220.5 132.5Q227 119 233 112Q239 105 251 92Q269 72 275 61Q292 34 318 -1Q318 -8 318 -15Q318 -42 316 -66Q312 -127 305 -159Q304 -159 304 -160Q304 -172 299 -201ZM311 199Q311 198 310.5 195.5Q310 193 310 192Q310 159 313.5 98.5Q317 38 318 17Q297 44 284 67Q277 78 258 98Q247 111 241 118Q235 125 229.5 136.5Q224 148 224 159Q224 160 224 162.5Q224 165 224 166Q224 166 224 167Q223 172 223 177Q223 206 270 206Q283 206 305 203Q306 203 307.5 203.5Q309 204 310 204Q311 204 311 199Z"/>
</svg>