<svg xmlns="http://www.w3.org/2000/svg" viewBox="0 -1024 1024 1024">
	<path fill="#000088" d="M286 -215Q280 -245 280 -260Q280 -264 281 -268Q281 -277 279 -296Q277 -315 277 -324Q276 -347 276 -348Q276 -390 289 -414Q297 -430 306.5 -439.5Q316 -449 324 -449Q325 -449 327 -448L362 -413Q369 -406 372 -359Q373 -350 373 -348Q377 -328 377 -307Q377 -256 357 -215Q358 -213 361 -196Q365 -173 365 -160Q372 -135 375 -102L395 -129Q403 -142 418 -142Q430 -142 438.5 -133.5Q447 -125 447 -113Q447 -104 441 -96L431 -82L407 -36Q387 -9 379 1Q378 29 374.5 94Q371 159 371 192Q372 197 372 199Q372 205 370 207L334 243Q333 244 330 244Q328 244 326 243Q304 246 290 246Q259 246 247 234L212 198Q204 190 204 177Q204 172 205 166Q204 163 204 159Q204 142 213 128Q222 114 240 95Q258 75 265 64Q281 37 308 1Q308 -7 308 -15Q308 -42 307 -66Q303 -117 298 -144L294 -141Q260 -107 208 -107Q196 -107 186 -116L150 -152Q143 -159 138 -171Q117 -138 88 -103Q93 -95 93 -86Q93 -72 83 -62.5Q73 -53 59 -53Q53 -53 48 -55Q47 -55 47 -55L12 -91Q10 -92 10 -94Q10 -95 11 -96Q89 -188 118 -271Q116 -283 112.5 -306.5Q109 -330 109 -334L105 -412Q105 -424 140 -447Q143 -450 147 -450Q150 -450 154 -446L189 -411Q197 -403 201 -380.5Q205 -358 205 -346Q205 -345 205 -344Q202 -308 189 -271L201 -196Q203 -186 206 -177Q207 -177 208 -177Q247 -177 275 -196Q281 -205 286 -215ZM275 159Q275 163 275 166Q275 170 274 174Q282 175 290 175Q295 175 301 175Q301 148 304 102Q275 134 275 159Z"/>
	<path fill="#800080" d="M237 -215Q231 -245 231 -260Q231 -264 232 -268Q232 -277 230 -296Q228 -315 228 -324Q227 -347 227 -348Q227 -390 240 -414Q248 -430 257.5 -439.5Q267 -449 275 -449Q276 -449 278 -448L313 -413Q320 -406 323 -359Q324 -350 324 -348Q328 -328 328 -307Q328 -256 308 -215Q309 -213 312 -196Q316 -173 316 -160Q323 -135 326 -102L346 -129Q354 -142 369 -142Q381 -142 389.5 -133.5Q398 -125 398 -113Q398 -104 392 -96L382 -82L358 -36Q338 -9 330 1Q329 29 325.5 94Q322 159 322 192Q323 197 323 199Q323 205 321 207L285 243Q284 244 281 244Q279 244 277 243Q255 246 241 246Q210 246 198 234L163 198Q155 190 155 177Q155 172 156 166Q155 163 155 159Q155 142 164 128Q173 114 191 95Q209 75 216 64Q232 37 259 1Q259 -7 259 -15Q259 -42 258 -66Q254 -117 249 -144L245 -141Q211 -107 159 -107Q147 -107 137 -116L101 -152Q94 -159 89 -171Q68 -138 39 -103Q44 -95 44 -86Q44 -72 34 -62.5Q24 -53 10 -53Q4 -53 -1 -55Q-2 -55 -2 -55L-37 -91Q-39 -92 -39 -94Q-39 -95 -38 -96Q40 -188 69 -271Q67 -283 63.5 -306.5Q60 -330 60 -334L56 -412Q56 -424 91 -447Q94 -450 98 -450Q101 -450 105 -446L140 -411Q148 -403 152 -380.5Q156 -358 156 -346Q156 -345 156 -344Q153 -308 140 -271L152 -196Q154 -186 157 -177Q158 -177 159 -177Q198 -177 226 -196Q232 -205 237 -215ZM226 159Q226 163 226 166Q226 170 225 174Q233 175 241 175Q246 175 252 175Q252 148 255 102Q226 134 226 159Z"/>
	<path fill="#daa520" d="M125 -346Q125 -366 118 -388Q113 -409 106 -409Q105 -409 105 -409L108 -334L115 -293Q122 -319 124 -345Q125 -345 125 -346ZM280 -260Q280 -248 283 -232Q296 -267 296 -307Q296 -328 293 -347Q292 -349 291 -358Q289 -393 285 -405Q276 -384 276 -348Q276 -347 276 -324Q277 -316 278.5 -296.5Q280 -277 280 -268Q280 -267 280 -264Q280 -261 280 -260ZM279 -201Q241 -137 167 -137Q147 -137 135.5 -155Q124 -173 121 -195L111 -252Q81 -177 10 -94Q12 -93 12 -90Q12 -85 7 -85Q0 -85 0 -94Q0 -97 2 -99Q79 -190 108 -272Q106 -284 102.5 -306.5Q99 -329 99 -333L98 -334L94 -412Q94 -419 106 -419Q120 -419 128 -391Q135 -367 135 -346Q135 -344 134 -343Q131 -307 118 -271L130 -197Q134 -177 143.5 -162Q153 -147 167 -147Q242 -147 276 -216Q270 -244 270 -260Q270 -264 270 -268Q270 -276 269 -295Q266 -319 266 -348Q266 -391 279 -416Q280 -419 283 -419Q289 -419 292 -413Q298 -402 301 -359Q302 -350 302 -349Q306 -329 306 -307Q306 -256 286 -215Q288 -209 288 -205Q294 -172 294 -161Q302 -128 306 -66Q308 -43 308 -15Q308 -14 308 -14Q313 -20 327 -39L351 -84Q351 -85 351 -85L361 -99Q363 -101 365 -101Q370 -101 370 -96Q370 -94 370 -93L360 -79L336 -34Q336 -33 335 -33Q316 -7 308 3Q307 31 303.5 94.5Q300 158 300 192Q301 196 301 199Q301 214 290 214Q285 213 285 213Q264 216 250 216Q193 216 193 177Q193 171 194 166Q194 163 194 159Q194 146 200.5 132.5Q207 119 213 112Q219 105 231 92Q249 72 255 61Q272 34 298 -1Q298 -8 298 -15Q298 -42 296 -66Q292 -127 285 -159Q284 -159 284 -160Q284 -172 279 -201ZM291 199Q291 198 290.5 195.5Q290 193 290 192Q290 159 293.5 98.5Q297 38 298 17Q277 44 264 67Q257 78 238 98Q227 111 221 118Q215 125 209.5 136.5Q204 148 204 159Q204 160 204 162.5Q204 165 204 166Q204 166 204 167Q203 172 203 177Q203 206 250 206Q263 206 285 203Q286 203 287.5 203.5Q289 204 290 204Q291 204 291 199Z"/>
</svg>