<svg xmlns="http://www.w3.org/2000/svg" viewBox="0 -1024 1024 1024">
	<path fill="#000088" d="M147 155Q147 152 146.5 148.5Q146 145 146 143Q146 104 176 74L211 39Q212 38 228 24Q250 5 264 -3Q273 -6 287.5 -16Q302 -26 310 -29Q313 -31 317 -32H316Q289 -48 254 -48Q238 -48 222 -45Q215 -43 210 -43Q202 -43 200 -46L164 -82Q162 -84 162 -87Q162 -94 175 -115Q184 -131 187 -138Q201 -162 233.5 -202Q266 -242 277 -256Q328 -316 347 -370Q348 -376 352 -383Q348 -383 344 -383Q323 -381 286.5 -369Q250 -357 232 -355Q232 -349 232 -343Q232 -285 213 -230Q194 -175 157 -138L121 -103Q90 -72 50 -59Q45 -57 39 -57Q26 -57 16 -67Q6 -77 6 -90Q6 -115 29 -122L50 -129Q79 -139 103 -158Q161 -232 161 -343Q161 -350 161 -357Q124 -360 117 -367L82 -402Q80 -404 80 -405Q80 -408 83 -410L118 -445Q125 -452 154 -461Q162 -464 169 -464Q180 -464 187 -457L218 -425Q242 -425 283 -438.5Q324 -452 344 -453Q352 -454 373 -456.5Q394 -459 406 -459Q420 -459 430.5 -448.5Q441 -438 441 -424Q441 -415 430 -395Q420 -378 417 -370Q398 -316 347 -256Q337 -242 304.5 -202Q272 -162 257 -138Q255 -131 248 -119Q251 -119 254 -119Q305 -119 337 -87L364 -60Q372 -66 386 -77Q394 -98 402.5 -118.5Q411 -139 433 -139Q446 -139 456 -129.5Q466 -120 466 -106Q466 -100 463 -94L451 -64Q446 -50 416 -29Q408 -23 395 -13Q399 1 399 16Q399 19 399 24.5Q399 30 399 33Q399 41 399.5 58Q400 75 400 83Q400 134 377 158Q372 164 363 179Q354 194 348 200L313 236Q301 247 284 247Q272 247 248 249Q224 251 212 251Q211 251 211 251Q200 251 193 245L158 209Q147 198 147 159Q147 158 147 156.5Q147 155 147 155ZM328 33Q319 38 310 41Q302 44 287.5 54Q273 64 264 67Q251 75 234 90Q217 114 217 143Q217 145 217 148.5Q217 152 217 155Q217 155 217 156.5Q217 158 217 159Q217 173 218 181Q228 180 250 178.5Q272 177 284 177Q290 177 295 175Q301 164 307 158Q329 134 329 83Q329 75 328.5 58Q328 41 328 33Z"/>
	<path fill="#800080" d="M98 155Q98 152 97.5 148.5Q97 145 97 143Q97 104 127 74L162 39Q163 38 179 24Q201 5 215 -3Q224 -6 238.5 -16Q253 -26 261 -29Q264 -31 268 -32H267Q240 -48 205 -48Q189 -48 173 -45Q166 -43 161 -43Q153 -43 151 -46L115 -82Q113 -84 113 -87Q113 -94 126 -115Q135 -131 138 -138Q152 -162 184.5 -202Q217 -242 228 -256Q279 -316 298 -370Q299 -376 303 -383Q299 -383 295 -383Q274 -381 237.5 -369Q201 -357 183 -355Q183 -349 183 -343Q183 -285 164 -230Q145 -175 108 -138L72 -103Q41 -72 1 -59Q-4 -57 -10 -57Q-23 -57 -33 -67Q-43 -77 -43 -90Q-43 -115 -20 -122L1 -129Q30 -139 54 -158Q112 -232 112 -343Q112 -350 112 -357Q75 -360 68 -367L33 -402Q31 -404 31 -405Q31 -408 34 -410L69 -445Q76 -452 105 -461Q113 -464 120 -464Q131 -464 138 -457L169 -425Q193 -425 234 -438.5Q275 -452 295 -453Q303 -454 324 -456.5Q345 -459 357 -459Q371 -459 381.5 -448.5Q392 -438 392 -424Q392 -415 381 -395Q371 -378 368 -370Q349 -316 298 -256Q288 -242 255.5 -202Q223 -162 208 -138Q206 -131 199 -119Q202 -119 205 -119Q256 -119 288 -87L315 -60Q323 -66 337 -77Q345 -98 353.5 -118.5Q362 -139 384 -139Q397 -139 407 -129.5Q417 -120 417 -106Q417 -100 414 -94L402 -64Q397 -50 367 -29Q359 -23 346 -13Q350 1 350 16Q350 19 350 24.5Q350 30 350 33Q350 41 350.5 58Q351 75 351 83Q351 134 328 158Q323 164 314 179Q305 194 299 200L264 236Q252 247 235 247Q223 247 199 249Q175 251 163 251Q162 251 162 251Q151 251 144 245L109 209Q98 198 98 159Q98 158 98 156.5Q98 155 98 155ZM279 33Q270 38 261 41Q253 44 238.5 54Q224 64 215 67Q202 75 185 90Q168 114 168 143Q168 145 168 148.5Q168 152 168 155Q168 155 168 156.5Q168 158 168 159Q168 173 169 181Q179 180 201 178.5Q223 177 235 177Q241 177 246 175Q252 164 258 158Q280 134 280 83Q280 75 279.5 58Q279 41 279 33Z"/>
	<path fill="#daa520" d="M173 -385Q161 -385 158 -385Q158 -384 158 -384Q158 -373 156 -362Q157 -352 157 -343Q157 -289 141.5 -238.5Q126 -188 91 -147Q56 -106 7 -89Q6 -89 5 -89Q0 -89 0 -94Q0 -98 3 -99Q72 -122 109.5 -191.5Q147 -261 147 -343Q147 -346 146.5 -352.5Q146 -359 146 -362Q146 -362 146 -363Q148 -374 148 -384Q148 -385 148 -385Q114 -386 93 -390Q80 -392 73 -395Q66 -399 66 -405Q66 -412 75 -418Q85 -424 108 -431Q116 -433 124 -433Q153 -433 157 -395Q163 -395 169 -395Q170 -395 171 -395Q172 -395 173 -395Q196 -395 237 -408.5Q278 -422 299 -423Q306 -423 327.5 -426Q349 -429 361 -429Q366 -429 366 -424Q366 -414 353 -393Q344 -376 342 -369V-368Q323 -313 271 -253Q261 -239 228.5 -199Q196 -159 182 -136Q179 -128 169 -112Q158 -92 158 -87Q158 -86 158 -86Q158 -84 165 -84Q172 -84 176 -85Q193 -89 209 -89Q244 -89 272.5 -73Q301 -57 315 -28Q323 -34 340.5 -47.5Q358 -61 367 -67L378 -96Q380 -99 383 -99Q388 -99 388 -94Q388 -93 388 -92L376 -62Q375 -61 374 -60Q365 -53 346.5 -39Q328 -25 318 -19Q324 -2 324 16Q324 19 324 24.5Q324 30 324 33Q324 41 324.5 58Q325 75 325 83Q325 136 301 161Q295 167 286.5 183Q278 199 267.5 208Q257 217 239 217Q227 217 202.5 219Q178 221 166 221Q154 221 146.5 215Q139 209 136 197.5Q133 186 132.5 178.5Q132 171 132 159Q132 158 132 156.5Q132 155 132 155Q132 154 132 153.5Q132 153 132 152Q132 147 132 143Q132 99 168 66Q170 64 174 60.5Q178 57 180 56Q202 36 217 28Q217 27 217 27Q226 24 240.5 14.5Q255 5 263 1Q283 -7 306 -22Q294 -49 268 -64Q242 -79 209 -79Q194 -79 178 -75Q172 -74 165 -74Q148 -74 148 -87Q148 -95 161 -117Q170 -133 172 -140Q172 -140 173 -141Q187 -165 220 -205Q253 -245 263 -259Q314 -318 332 -371Q334 -379 343.5 -395.5Q353 -412 355 -419Q345 -419 326.5 -416.5Q308 -414 299 -413Q279 -412 238 -398.5Q197 -385 173 -385ZM124 -423Q118 -423 110 -421Q89 -415 80 -409Q76 -406 76 -405V-406Q80 -402 101 -399Q120 -396 147 -395Q144 -423 124 -423ZM142 155Q142 155 142 156.5Q142 158 142 159Q142 175 143 184.5Q144 194 149.5 202.5Q155 211 166 211Q167 211 167 211Q179 211 203 209Q227 207 239 207Q254 207 262 199.5Q270 192 279 176Q288 161 293 155Q315 132 315 83Q315 75 314.5 58Q314 41 314 33Q314 30 314 24.5Q314 19 314 16Q314 1 310 -13Q287 2 267 11Q259 14 245 23.5Q231 33 221 37Q212 42 174 74Q142 104 142 143Q142 145 142 148.5Q142 152 142 155Z"/>
</svg>