<svg xmlns="http://www.w3.org/2000/svg" viewBox="0 -1024 1024 1024">
	<path fill="#000088" d="M147 155Q147 152 146.5 148.5Q146 145 146 143Q146 104 176 74L211 39Q212 38 228 24Q250 5 264 -3Q273 -6 287.5 -16Q302 -26 310 -29Q313 -31 317 -32H316Q289 -48 254 -48Q238 -48 222 -45Q215 -43 210 -43Q202 -43 200 -46L164 -82Q162 -84 162 -87Q162 -94 175 -115Q184 -131 187 -138Q201 -162 233.5 -202Q266 -242 277 -256Q328 -316 347 -370Q348 -376 352 -383Q348 -383 344 -383Q323 -381 286.5 -369Q250 -357 232 -355Q232 -349 232 -343Q232 -285 213 -230Q194 -175 157 -138L121 -103Q90 -72 50 -59Q45 -57 39 -57Q26 -57 16 -67Q6 -77 6 -90Q6 -115 29 -122L50 -129Q79 -139 103 -158Q161 -232 161 -343Q161 -350 161 -357Q124 -360 117 -367L82 -402Q80 -404 80 -405Q80 -408 83 -410L118 -445Q125 -452 154 -461Q162 -464 169 -464Q180 -464 187 -457L218 -425Q242 -425 283 -438.5Q324 -452 344 -453Q352 -454 373 -456.5Q394 -459 406 -459Q420 -459 430.5 -448.5Q441 -438 441 -424Q441 -415 430 -395Q420 -378 417 -370Q398 -316 347 -256Q337 -242 304.5 -202Q272 -162 257 -138Q255 -131 248 -119Q251 -119 254 -119Q305 -119 337 -87L364 -60Q372 -66 386 -77Q394 -98 402.5 -118.5Q411 -139 433 -139Q446 -139 456 -129.5Q466 -120 466 -106Q466 -100 463 -94L451 -64Q446 -50 416 -29Q408 -23 395 -13Q399 1 399 16Q399 19 399 24.5Q399 30 399 33Q399 41 399.5 58Q400 75 400 83Q400 134 377 158Q372 164 363 179Q354 194 348 200L313 236Q301 247 284 247Q272 247 248 249Q224 251 212 251Q211 251 211 251Q200 251 193 245L158 209Q147 198 147 159Q147 158 147 156.5Q147 155 147 155ZM328 33Q319 38 310 41Q302 44 287.5 54Q273 64 264 67Q251 75 234 90Q217 114 217 143Q217 145 217 148.5Q217 152 217 155Q217 155 217 156.5Q217 158 217 159Q217 173 218 181Q228 180 250 178.5Q272 177 284 177Q290 177 295 175Q301 164 307 158Q329 134 329 83Q329 75 328.5 58Q328 41 328 33Z"/>
	<path fill="#800080" d="M98 155Q98 152 97.5 148.5Q97 145 97 143Q97 104 127 74L162 39Q163 38 179 24Q201 5 215 -3Q224 -6 238.5 -16Q253 -26 261 -29Q264 -31 268 -32Q267 -32 267 -32Q240 -48 205 -48Q189 -48 173 -45Q166 -43 161 -43Q153 -43 151 -46L115 -82Q113 -84 113 -87Q113 -94 126 -115Q135 -131 138 -138Q152 -162 184.5 -202Q217 -242 228 -256Q279 -316 298 -370Q299 -376 303 -383Q299 -383 295 -383Q274 -381 237.5 -369Q201 -357 183 -355Q183 -349 183 -343Q183 -285 164 -230Q145 -175 108 -138L72 -103Q41 -72 1 -59Q-4 -57 -10 -57Q-23 -57 -33 -67Q-43 -77 -43 -90Q-43 -115 -20 -122L1 -129Q30 -139 54 -158Q112 -232 112 -343Q112 -350 112 -357Q75 -360 68 -367L33 -402Q31 -404 31 -405Q31 -408 34 -410L69 -445Q76 -452 105 -461Q113 -464 120 -464Q131 -464 138 -457L169 -425Q193 -425 234 -438.5Q275 -452 295 -453Q303 -454 324 -456.5Q345 -459 357 -459Q371 -459 381.5 -448.5Q392 -438 392 -424Q392 -415 381 -395Q371 -378 368 -370Q349 -316 298 -256Q288 -242 255.5 -202Q223 -162 208 -138Q206 -131 199 -119Q202 -119 205 -119Q256 -119 288 -87L315 -60Q323 -66 337 -77L353 -118Q362 -139 384 -139Q397 -139 407 -129.5Q417 -120 417 -106Q417 -100 414 -94L402 -64Q397 -50 367 -29Q359 -23 346 -13Q350 1 350 16Q350 19 350 24.5Q350 30 350 33Q350 41 350.5 58Q351 75 351 83Q351 134 328 158Q323 164 314 179Q305 194 299 200L264 236Q252 247 235 247Q223 247 199 249Q175 251 163 251Q162 251 162 251Q151 251 144 245L109 209Q98 198 98 159Q98 158 98 156.5Q98 155 98 155ZM279 33Q270 38 261 41Q253 44 238.5 54Q224 64 215 67Q202 75 185 90Q168 114 168 143Q168 145 168 148.5Q168 152 168 155Q168 155 168 156.5Q168 158 168 159Q168 173 169 181Q179 180 201 178.5Q223 177 235 177Q241 177 246 175Q252 164 258 158Q280 134 280 83Q280 75 279.5 58Q279 41 279 33Z"/>
	<path fill="#daa520" d="M193 -385Q181 -385 178 -385Q178 -384 178 -384Q178 -373 176 -362Q177 -352 177 -343Q177 -289 161.5 -238.5Q146 -188 111 -147Q76 -106 27 -89Q26 -89 25 -89Q20 -89 20 -94Q20 -98 23 -99Q92 -122 129.5 -191.5Q167 -261 167 -343Q167 -346 166.5 -352.5Q166 -359 166 -362Q166 -362 166 -363Q168 -374 168 -384Q168 -385 168 -385Q134 -386 113 -390Q100 -392 93 -395Q86 -399 86 -405Q86 -412 95 -418Q105 -424 128 -431Q136 -433 144 -433Q173 -433 177 -395Q183 -395 189 -395Q190 -395 191 -395Q192 -395 193 -395Q216 -395 257 -408.5Q298 -422 319 -423Q326 -423 347.5 -426Q369 -429 381 -429Q386 -429 386 -424Q386 -414 373 -393Q364 -376 362 -369V-368Q343 -313 291 -253Q281 -239 248.5 -199Q216 -159 202 -136Q199 -128 189 -112Q178 -92 178 -87Q178 -86 178 -86Q178 -84 185 -84Q192 -84 196 -85Q213 -89 229 -89Q264 -89 292.5 -73Q321 -57 335 -28Q343 -34 360.5 -47.5Q378 -61 387 -67L398 -96Q400 -99 403 -99Q408 -99 408 -94Q408 -93 408 -92L396 -62Q395 -61 394 -60Q385 -53 366.5 -39Q348 -25 338 -19Q344 -2 344 16Q344 19 344 24.5Q344 30 344 33Q344 41 344.5 58Q345 75 345 83Q345 136 321 161Q315 167 306.5 183Q298 199 287.5 208Q277 217 259 217Q247 217 222.5 219Q198 221 186 221Q174 221 166.5 215Q159 209 156 197.5Q153 186 152.5 178.5Q152 171 152 159Q152 158 152 156.5Q152 155 152 155Q152 154 152 153.5Q152 153 152 152Q152 147 152 143Q152 99 188 66Q190 64 194 60.5Q198 57 200 56Q222 36 237 28Q237 27 237 27Q246 24 260.5 14.5Q275 5 283 1Q303 -7 326 -22Q314 -49 288 -64Q262 -79 229 -79Q214 -79 198 -75Q192 -74 185 -74Q168 -74 168 -87Q168 -95 181 -117Q190 -133 192 -140Q192 -140 193 -141Q207 -165 240 -205Q273 -245 283 -259Q334 -318 352 -371Q354 -379 363.5 -395.5Q373 -412 375 -419Q365 -419 346.5 -416.5Q328 -414 319 -413Q299 -412 258 -398.5Q217 -385 193 -385ZM144 -423Q138 -423 130 -421Q109 -415 100 -409Q96 -406 96 -405V-406Q100 -402 121 -399Q140 -396 167 -395Q164 -423 144 -423ZM162 155Q162 155 162 156.5Q162 158 162 159Q162 175 163 184.5Q164 194 169.5 202.5Q175 211 186 211Q187 211 187 211Q199 211 223 209Q247 207 259 207Q274 207 282 199.5Q290 192 299 176Q308 161 313 155Q335 132 335 83Q335 75 334.5 58Q334 41 334 33Q334 30 334 24.5Q334 19 334 16Q334 1 330 -13Q307 2 287 11Q279 14 265 23.5Q251 33 241 37Q232 42 194 74Q162 104 162 143Q162 145 162 148.5Q162 152 162 155Z"/>
</svg>