<svg xmlns="http://www.w3.org/2000/svg" viewBox="0 -1024 1024 1024">
	<path fill="#000088" d="M114 170Q114 168 113.5 164Q113 160 113 158Q113 134 126 112L161 52Q169 37 183 25Q187 21 194 14.5Q201 8 206 4Q211 0 217.5 -5Q224 -10 231 -13Q237 -15 243.5 -19Q250 -23 257 -28Q264 -33 268 -35Q254 -39 238 -39Q222 -39 206 -35Q199 -33 194 -33Q188 -33 185 -35L133 -65Q129 -67 129 -72Q129 -78 138 -93Q152 -117 154 -123Q157 -131 189 -183Q203 -207 236 -247Q269 -287 279 -301Q295 -320 307 -337Q308 -339 313 -352Q318 -365 322 -372Q303 -370 268.5 -358.5Q234 -347 215 -345Q212 -264 176 -200L141 -140Q101 -71 34 -49L5 -135L17 -139Q68 -156 104 -202Q128 -261 128 -328Q128 -337 128 -347Q128 -348 128 -348Q110 -351 104 -355L52 -385Q48 -387 48 -390Q48 -391 48 -393L83 -453Q88 -461 121 -471Q129 -474 135 -474Q143 -474 149 -470L201 -440Q203 -439 205 -437Q220 -439 255 -450.5Q290 -462 311 -463Q319 -464 340 -466.5Q361 -469 373 -469Q394 -469 409.5 -460.5Q425 -452 425 -439Q425 -431 408 -402Q403 -392 401 -385Q392 -361 379 -337L344 -276Q326 -246 296 -211Q284 -195 261.5 -167Q239 -139 231 -129Q260 -127 283 -113L335 -83Q338 -81 342 -79Q347 -82 355.5 -88.5Q364 -95 368 -98L382 -135L447 -109L435 -79Q415 -29 400 -19Q393 -14 383 -6Q383 -3 383 1Q383 4 382.5 9.5Q382 15 382 18Q382 26 383 42.5Q384 59 384 68Q384 107 371 129L336 190Q332 197 326 203Q321 209 312.5 224.5Q304 240 294 248.5Q284 257 268 257Q256 257 232 259Q208 261 196 261Q195 261 195 261Q187 261 182 258L130 228Q114 219 114 174Q114 173 114 171.5Q114 170 114 170ZM296 51Q295 51 294 51Q286 54 271.5 64Q257 74 248 77Q237 83 201 114Q200 121 200 127Q200 129 200.5 133Q201 137 201 139Q201 140 201 141.5Q201 143 201 143Q201 160 202 170Q243 167 251 167Q276 167 293 137Q297 121 297 98Q297 90 296.5 74Q296 58 296 51Z"/>
	<path fill="#800080" d="M98 155Q98 152 97.5 148.5Q97 145 97 143Q97 104 127 74L162 39Q163 38 179 24Q201 5 215 -3Q224 -6 238.5 -16Q253 -26 261 -29Q264 -31 268 -32Q267 -32 267 -32Q240 -48 205 -48Q189 -48 173 -45Q166 -43 161 -43Q153 -43 151 -46L115 -82Q113 -84 113 -87Q113 -94 126 -115Q135 -131 138 -138Q152 -162 184.5 -202Q217 -242 228 -256Q279 -316 298 -370Q299 -376 303 -383Q299 -383 295 -383Q274 -381 237.5 -369Q201 -357 183 -355Q183 -349 183 -343Q183 -285 164 -230Q145 -175 108 -138L72 -103Q41 -72 1 -59Q-4 -57 -10 -57Q-23 -57 -33 -67Q-43 -77 -43 -90Q-43 -115 -20 -122L1 -129Q30 -139 54 -158Q112 -232 112 -343Q112 -350 112 -357Q75 -360 68 -367L33 -402Q31 -404 31 -405Q31 -408 34 -410L69 -445Q76 -452 105 -461Q113 -464 120 -464Q131 -464 138 -457L169 -425Q193 -425 234 -438.5Q275 -452 295 -453Q303 -454 324 -456.5Q345 -459 357 -459Q371 -459 381.5 -448.5Q392 -438 392 -424Q392 -415 381 -395Q371 -378 368 -370Q349 -316 298 -256Q288 -242 255.5 -202Q223 -162 208 -138Q206 -131 199 -119Q202 -119 205 -119Q256 -119 288 -87L315 -60Q323 -66 337 -77L353 -118Q362 -139 384 -139Q397 -139 407 -129.5Q417 -120 417 -106Q417 -100 414 -94L402 -64Q397 -50 367 -29Q359 -23 346 -13Q350 1 350 16Q350 19 350 24.5Q350 30 350 33Q350 41 350.5 58Q351 75 351 83Q351 134 328 158Q323 164 314 179Q305 194 299 200L264 236Q252 247 235 247Q223 247 199 249Q175 251 163 251Q162 251 162 251Q151 251 144 245L109 209Q98 198 98 159Q98 158 98 156.5Q98 155 98 155ZM279 33Q270 38 261 41Q253 44 238.5 54Q224 64 215 67Q202 75 185 90Q168 114 168 143Q168 145 168 148.5Q168 152 168 155Q168 155 168 156.5Q168 158 168 159Q168 173 169 181Q179 180 201 178.5Q223 177 235 177Q241 177 246 175Q252 164 258 158Q280 134 280 83Q280 75 279.5 58Q279 41 279 33Z"/>
	<path fill="#daa520" d="M193 -385Q181 -385 178 -385Q178 -384 178 -384Q178 -373 176 -362Q177 -352 177 -343Q177 -289 161.5 -238.5Q146 -188 111 -147Q76 -106 27 -89Q26 -89 25 -89Q20 -89 20 -94Q20 -98 23 -99Q92 -122 129.5 -191.5Q167 -261 167 -343Q167 -346 166.5 -352.5Q166 -359 166 -362Q166 -362 166 -363Q168 -374 168 -384Q168 -385 168 -385Q134 -386 113 -390Q100 -392 93 -395Q86 -399 86 -405Q86 -412 95 -418Q105 -424 128 -431Q136 -433 144 -433Q173 -433 177 -395Q183 -395 189 -395Q190 -395 191 -395Q192 -395 193 -395Q216 -395 257 -408.5Q298 -422 319 -423Q326 -423 347.5 -426Q369 -429 381 -429Q386 -429 386 -424Q386 -414 373 -393Q364 -376 362 -369V-368Q343 -313 291 -253Q281 -239 248.5 -199Q216 -159 202 -136Q199 -128 189 -112Q178 -92 178 -87Q178 -86 178 -86Q178 -84 185 -84Q192 -84 196 -85Q213 -89 229 -89Q264 -89 292.5 -73Q321 -57 335 -28Q343 -34 360.5 -47.5Q378 -61 387 -67L398 -96Q400 -99 403 -99Q408 -99 408 -94Q408 -93 408 -92L396 -62Q395 -61 394 -60Q385 -53 366.5 -39Q348 -25 338 -19Q344 -2 344 16Q344 19 344 24.5Q344 30 344 33Q344 41 344.5 58Q345 75 345 83Q345 136 321 161Q315 167 306.5 183Q298 199 287.5 208Q277 217 259 217Q247 217 222.5 219Q198 221 186 221Q174 221 166.5 215Q159 209 156 197.5Q153 186 152.5 178.5Q152 171 152 159Q152 158 152 156.5Q152 155 152 155Q152 154 152 153.5Q152 153 152 152Q152 147 152 143Q152 99 188 66Q190 64 194 60.5Q198 57 200 56Q222 36 237 28Q237 27 237 27Q246 24 260.5 14.5Q275 5 283 1Q303 -7 326 -22Q314 -49 288 -64Q262 -79 229 -79Q214 -79 198 -75Q192 -74 185 -74Q168 -74 168 -87Q168 -95 181 -117Q190 -133 192 -140Q192 -140 193 -141Q207 -165 240 -205Q273 -245 283 -259Q334 -318 352 -371Q354 -379 363.5 -395.5Q373 -412 375 -419Q365 -419 346.5 -416.5Q328 -414 319 -413Q299 -412 258 -398.5Q217 -385 193 -385ZM144 -423Q138 -423 130 -421Q109 -415 100 -409Q96 -406 96 -405V-406Q100 -402 121 -399Q140 -396 167 -395Q164 -423 144 -423ZM162 155Q162 155 162 156.5Q162 158 162 159Q162 175 163 184.5Q164 194 169.5 202.5Q175 211 186 211Q187 211 187 211Q199 211 223 209Q247 207 259 207Q274 207 282 199.5Q290 192 299 176Q308 161 313 155Q335 132 335 83Q335 75 334.5 58Q334 41 334 33Q334 30 334 24.5Q334 19 334 16Q334 1 330 -13Q307 2 287 11Q279 14 265 23.5Q251 33 241 37Q232 42 194 74Q162 104 162 143Q162 145 162 148.5Q162 152 162 155Z"/>
</svg>